<?xml version="1.0" encoding="utf-8"?>
<!-- Generator: Adobe Illustrator 28.5.0, SVG Export Plug-In . SVG Version: 9.03 Build 54727)  -->
<svg version="1.0" id="Layer_1" xmlns="http://www.w3.org/2000/svg" xmlns:xlink="http://www.w3.org/1999/xlink" x="0px" y="0px"
	 viewBox="0 0 150 150" style="enable-background:new 0 0 150 150;" xml:space="preserve">
<style type="text/css">
	.st0{fill:#C1756B;}
	.st1{fill:#673956;}
	.st2{fill:#E59791;}
	.st3{fill:#557EBC;}
	.st4{fill:#333B4F;}
	.st5{fill:#96C6ED;}
	.st6{fill:#FFFFFF;}
	.st7{fill:#634A46;}
	.st8{fill:#382823;}
	.st9{fill:#2B1E1A;}
	.st10{fill:#19100E;}
	.st11{fill:#95404B;}
	.st12{fill:#C6705C;}
	.st13{fill:#9483AB;}
	.st14{fill:#CCC7CA;}
	.st15{fill:#685963;}
	.st16{fill:#EAA498;}
	.st17{fill:#FFCAA6;}
	.st18{fill:#C74C44;}
	.st19{fill:#70220D;}
	.st20{fill:#F7CE03;}
	.st21{fill:#3E9672;}
	.st22{fill:#4C2F39;}
	.st23{fill:#8BEAC1;}
	.st24{fill:#A55C56;}
	.st25{fill:#796C5C;}
	.st26{fill:#9B7F65;}
	.st27{fill:#C3B388;}
	.st28{fill:#E7DEA4;}
	.st29{fill:#635554;}
	.st30{fill:#698C5A;}
	.st31{fill:#9CCA70;}
</style>
<g>
	<g>
		<g>
			<g>
				<path class="st0" d="M79.11,98.14c0,0,1.04,1.98,2.29,3.67c0,0,1.3,1.5,0.23,2.37c0,0-5.67,2.68-6.01,2.84
					c0,0-1.1,0.56-1.58,0.44c0,0-1.71-0.77,0.79-3.89l0.25-0.86l-4.51-5.6l-0.43-0.95l-0.12-0.96l6.08-2.6L79.11,98.14z"/>
			</g>
			<g>
				<path class="st1" d="M81.91,104.51l-0.04,0.03l-0.05,0.02c-0.06,0.03-5.68,2.68-6,2.84c-0.29,0.15-1.29,0.62-1.87,0.48
					l-0.08-0.03c-0.06-0.03-0.6-0.29-0.77-1.02c-0.22-0.9,0.24-2.06,1.35-3.46l0.16-0.57l-4.4-5.46l-0.48-1.06l-0.17-1.35l6.74-2.88
					l3.2,5.88l0,0.01c0.01,0.02,1.04,1.96,2.25,3.6c0.13,0.15,0.82,1.01,0.74,1.92c-0.04,0.41-0.23,0.77-0.55,1.04
					C81.92,104.5,81.91,104.51,81.91,104.51z M75.91,93.15l-5.42,2.32l0.07,0.58l0.38,0.84l4.62,5.73l-0.33,1.16l-0.05,0.07
					c-1.26,1.57-1.32,2.41-1.24,2.77c0.05,0.26,0.2,0.39,0.26,0.43c0.22,0.01,0.77-0.18,1.25-0.42c0.32-0.15,5.35-2.53,5.96-2.82
					c0.14-0.12,0.21-0.26,0.22-0.43c0.04-0.49-0.38-1.1-0.54-1.3l-0.01-0.01l-0.01-0.01c-1.24-1.68-2.26-3.6-2.32-3.72L75.91,93.15z
					"/>
			</g>
		</g>
		<g>
			<g>
				<path class="st0" d="M72.16,99.02l0.32-0.29c1.99,0.87,4.34-0.04,5.21-2.03l0.78-1.78c0.87-1.99-0.04-4.34-2.04-5.21l0,0
					c-1.99-0.88-4.1,0.33-5.55,2.63l-0.58,0.71C69.44,95.04,70.17,98.14,72.16,99.02z"/>
			</g>
			<g>
				<path class="st1" d="M75.67,99.18c-1.01,0.39-2.09,0.4-3.09,0.04l-0.33,0.3l-0.26-0.11c-2.29-1.01-3-4.4-2.07-6.54l0.02-0.05
					l0.6-0.74c1.66-2.63,3.98-3.69,6.07-2.78c2.22,0.97,3.23,3.56,2.26,5.78l-0.78,1.78c-0.27,0.62-0.68,1.17-1.19,1.59
					C76.54,98.76,76.12,99,75.67,99.18z M71.26,92.56l-0.57,0.71c-0.69,1.66-0.16,4.32,1.4,5.23l0.31-0.28l0.26,0.11
					c0.86,0.38,1.82,0.39,2.7,0.05c0.88-0.34,1.57-1.01,1.95-1.87l0.78-1.78c0.78-1.78-0.03-3.87-1.82-4.65
					c-1.14-0.5-2.4-0.22-3.54,0.73C72.21,91.26,71.71,91.84,71.26,92.56z"/>
			</g>
		</g>
		<g>
			<g>
				<path class="st1" d="M75.67,99.19c-1.01,0.39-2.09,0.41-3.09,0.04l-0.33,0.3l-0.26-0.11c-2.3-1-3.11-4.12-2.17-6.26l0.02-0.05
					l0.7-1.03c1.66-2.63,3.99-3.7,6.08-2.78c1.07,0.47,1.9,1.33,2.32,2.43c0.43,1.1,0.4,2.29-0.07,3.36l-0.78,1.78
					c-0.08,0.19-0.18,0.38-0.29,0.55C77.31,98.22,76.57,98.83,75.67,99.19z M70.58,96.33c0.28,0.99,0.82,1.76,1.51,2.16l0.31-0.28
					l0.26,0.11c1.78,0.78,3.86-0.03,4.64-1.81l0.78-1.78c0.38-0.86,0.39-1.82,0.05-2.69c-0.34-0.88-1-1.57-1.86-1.95
					c-1.67-0.74-3.59,0.21-5.01,2.47l-0.57,0.71C70.33,94.14,70.29,95.28,70.58,96.33z"/>
			</g>
		</g>
		<g>
			<g>
				<path class="st0" d="M76.51,98.94l0.13,0.71c1.04,0.7,2.86,0.05,0.78-4.12l-0.98-2.09c-0.83-1.24-2.62-1.52-3.98-0.61l0,0
					c-1.36,0.91-1.73,3.81-0.9,5.05l1.21,1.34C73.59,100.46,75.15,99.85,76.51,98.94z"/>
			</g>
		</g>
		<g>
			<g>
				<path class="st2" d="M75.61,98.03l1.78,3.63c0,0-1,0.03-1.88,0.66l-3.43-3.92C72.07,98.41,73.79,95.67,75.61,98.03z"/>
			</g>
		</g>
		<g>
			<g>
				<path class="st2" d="M73.94,106.39c0,0,0.74-2.68,1.88-3.18c0,0,2.25-1.65,4.14,0.08c0,0,0.71,0.9-4.88,3.26
					C75.08,106.55,73.84,107.03,73.94,106.39z"/>
			</g>
		</g>
		<g>
			<g>
				<g>
					<path class="st2" d="M72.17,98.52l0.58-0.28c1.11,0.36,1.36-0.74,1.72-1.85l0.82-2.51c0.36-1.11-0.25-2.31-1.36-2.67l0,0
						c-1.11-0.36-2.54,0.53-2.9,1.64l-0.28,0.35C69.57,95.73,71.06,98.16,72.17,98.52z"/>
				</g>
			</g>
		</g>
		<g>
			<g>
				<path class="st3" d="M79.39,98.22c0,0-1.66,1.31-5.9,3.07l1.4,1.87c0,0,2.04-0.29,5.63-2.85L79.39,98.22z"/>
				<path class="st4" d="M72.8,101.11l0.52-0.22c4.11-1.7,5.77-2.99,5.8-3.01l0.41-0.32l1.57,2.88l-0.31,0.22
					c-3.64,2.59-5.74,2.91-5.83,2.92l-0.25,0.04L72.8,101.11z M79.24,98.86c-0.69,0.46-2.28,1.42-5.07,2.62l0.9,1.19
					c0.6-0.16,2.31-0.71,4.89-2.49L79.24,98.86z"/>
			</g>
			<g>
				<path class="st5" d="M74.42,101.52c0,0,2.13-0.84,3.92-1.84c0,0-0.22,1.74-1.59,2.37l-1.56,0.73L74.42,101.52z"/>
			</g>
		</g>
		<g>
			<path class="st6" d="M75.74,100.85c0,0-1.04,0.55-1.71,0.67l1.14,1.46C75.17,102.98,76.73,102.24,75.74,100.85z"/>
		</g>
	</g>
	<g>
		<g>
			<g>
				<path class="st0" d="M66.29,97.9c0,0,0.47,2.18,1.21,4.15c0,0,0.84,1.8-0.42,2.35c0,0-6.19,1.04-6.55,1.11c0,0-1.21,0.24-1.64,0
					c0,0-1.44-1.21,1.81-3.53l0.47-0.76l-2.82-6.61l-0.15-1.03l0.14-0.96l6.56-0.85L66.29,97.9z"/>
			</g>
			<g>
				<path class="st1" d="M67.25,104.79l-0.05,0.02l-0.05,0.01c-0.06,0.01-6.19,1.04-6.54,1.1c-0.32,0.06-1.41,0.24-1.93-0.05
					l-0.07-0.05c-0.05-0.04-0.5-0.44-0.47-1.19c0.04-0.92,0.79-1.92,2.23-2.97l0.31-0.5l-2.76-6.45l-0.17-1.15l0.2-1.35l7.27-0.95
					l1.49,6.53l0,0.01c0,0.02,0.47,2.17,1.19,4.07c0.08,0.18,0.51,1.2,0.19,2.05c-0.15,0.38-0.43,0.68-0.82,0.85
					C67.26,104.79,67.26,104.79,67.25,104.79z M64.55,92.23L58.7,93l-0.09,0.58l0.14,0.91l2.89,6.76l-0.64,1.03l-0.07,0.05
					c-1.64,1.17-1.92,1.96-1.94,2.33c-0.02,0.26,0.09,0.43,0.14,0.49c0.21,0.06,0.79,0.04,1.32-0.06c0.35-0.06,5.84-0.99,6.5-1.1
					c0.16-0.08,0.27-0.2,0.33-0.36c0.18-0.46-0.07-1.16-0.17-1.4l-0.01-0.01l-0.01-0.02c-0.74-1.95-1.2-4.08-1.23-4.21L64.55,92.23z
					"/>
			</g>
		</g>
		<g>
			<g>
				<path class="st0" d="M59.36,96.86l0.39-0.2c1.68,1.38,4.19,1.14,5.57-0.55l1.23-1.5c1.38-1.68,1.14-4.19-0.55-5.57l0,0
					c-1.68-1.38-4.04-0.79-6.06,1.03l-0.75,0.53C57.82,92.29,57.68,95.48,59.36,96.86z"/>
			</g>
			<g>
				<path class="st1" d="M62.69,97.97c-1.07,0.11-2.12-0.18-2.99-0.8l-0.4,0.2l-0.22-0.18c-1.93-1.59-1.7-5.05-0.22-6.86l0.04-0.04
					l0.77-0.55c2.31-2.08,4.84-2.47,6.6-1.03c1.87,1.54,2.14,4.3,0.61,6.18l-1.23,1.5c-0.43,0.53-0.97,0.94-1.58,1.21
					C63.64,97.8,63.18,97.92,62.69,97.97z M60.24,90.4l-0.74,0.53c-1.12,1.41-1.33,4.11-0.07,5.42l0.37-0.19l0.22,0.18
					c0.73,0.6,1.64,0.87,2.58,0.78c0.94-0.09,1.79-0.54,2.38-1.27l1.23-1.5c1.23-1.5,1.02-3.73-0.49-4.97
					c-0.97-0.79-2.25-0.86-3.61-0.26C61.51,89.41,60.87,89.83,60.24,90.4z"/>
			</g>
		</g>
		<g>
			<g>
				<path class="st1" d="M62.69,97.98c-1.08,0.1-2.13-0.18-2.99-0.8l-0.4,0.2l-0.22-0.18c-1.94-1.59-1.88-4.81-0.39-6.61l0.04-0.05
					l0.95-0.8c2.31-2.08,4.84-2.48,6.6-1.03c0.9,0.74,1.46,1.8,1.58,2.97c0.11,1.17-0.23,2.31-0.98,3.22l-1.23,1.5
					c-0.13,0.16-0.28,0.31-0.43,0.45C64.53,97.49,63.65,97.88,62.69,97.98z M58.57,93.85c0,1.03,0.31,1.92,0.87,2.49l0.37-0.19
					l0.22,0.18c1.5,1.23,3.72,1.02,4.96-0.49l1.23-1.5c0.6-0.72,0.87-1.64,0.78-2.58c-0.09-0.94-0.54-1.78-1.27-2.38
					c-1.41-1.16-3.51-0.77-5.49,1.02l-0.74,0.53C58.92,91.67,58.57,92.76,58.57,93.85z"/>
			</g>
		</g>
		<g>
			<g>
				<path class="st0" d="M63.56,97.97l-0.06,0.72c0.82,0.95,2.74,0.82,1.87-3.76l-0.38-2.28c-0.46-1.42-2.11-2.17-3.67-1.67l0,0
					c-1.55,0.51-2.7,3.19-2.24,4.62l0.8,1.61C60.35,98.64,62.01,98.48,63.56,97.97z"/>
			</g>
		</g>
		<g>
			<g>
				<path class="st2" d="M62.95,96.85l0.73,3.98c0,0-0.97-0.25-1.99,0.13l-2.24-4.71C59.44,96.25,61.83,94.08,62.95,96.85z"/>
			</g>
		</g>
		<g>
			<g>
				<path class="st2" d="M59.07,104.44c0,0,1.44-2.38,2.67-2.56c0,0,2.62-0.98,3.96,1.2c0,0,0.44,1.06-5.58,1.82
					C60.12,104.9,58.8,105.03,59.07,104.44z"/>
			</g>
		</g>
		<g>
			<g>
				<g>
					<path class="st2" d="M59.5,96.39l0.63-0.12c0.97,0.65,1.51-0.34,2.16-1.32l1.47-2.2c0.65-0.97,0.39-2.3-0.59-2.94l0,0
						c-0.97-0.65-2.59-0.18-3.24,0.79l-0.36,0.26C57.76,92.99,58.53,95.74,59.5,96.39z"/>
				</g>
			</g>
		</g>
		<g>
			<g>
				<path class="st3" d="M66.53,98.06c0,0-1.95,0.81-6.51,1.36l0.84,2.17c0,0,2.04,0.27,6.19-1.21L66.53,98.06z"/>
				<path class="st4" d="M60.81,102.02l-0.26-0.03l-1.14-2.94l0.56-0.07c4.41-0.53,6.37-1.31,6.4-1.33l0.48-0.2l0.72,3.2l-0.36,0.13
					c-3.08,1.1-5.03,1.26-5.89,1.26C61,102.05,60.83,102.03,60.81,102.02z M66.22,98.64c-0.79,0.26-2.58,0.75-5.59,1.14l0.54,1.39
					c0.62,0.01,2.42-0.06,5.38-1.08L66.22,98.64z"/>
			</g>
			<g>
				<path class="st5" d="M60.85,99.89c0,0,2.28-0.23,4.28-0.71c0,0-0.69,1.62-2.18,1.85l-1.7,0.28L60.85,99.89z"/>
			</g>
		</g>
		<g>
			<path class="st6" d="M62.3,99.6c0,0-1.15,0.24-1.83,0.18l0.7,1.72C61.18,101.5,62.88,101.2,62.3,99.6z"/>
		</g>
	</g>
	<g>
		<g>
			<path class="st2" d="M59.37,76.79c0,0,1.63-1.55,2.68,2.46c0,0-0.18,3.16-1.71,5.34c0,0-3.39,2.5-4.04,2.94
				c0,0-0.59-1.85-2.8-2.41c0,0,3.59-2.14,3.84-2.57c0,0,0.87-2.37,1.29-4.37C58.63,78.18,58.78,77.07,59.37,76.79z"/>
		</g>
		<g>
			<g>
				<path class="st0" d="M62.19,86.09c0,0-2.75,3.4-7.36,5.57c0,0-0.62-4.18-3.67-5.51c0,0,3.05-1.9,5.5-3.57
					c0.87-0.59,1.11-3.65,1.83-5.57c0.84-2.23,5.39-2.56,5.7,1.2C64.23,78.74,64.37,83.09,62.19,86.09z"/>
				<path class="st1" d="M54.39,91.72c-0.01-0.04-0.62-3.96-3.42-5.17l-0.76-0.33l0.7-0.44c0.03-0.02,3.07-1.92,5.49-3.56
					c0.4-0.27,0.72-1.67,0.98-2.8c0.2-0.88,0.41-1.79,0.7-2.56c0.49-1.31,2.08-2.13,3.69-1.91c1.64,0.23,2.71,1.44,2.85,3.23
					c0,0.05,0.32,4.86-2.08,8.16l-0.01,0.02c-0.12,0.14-2.87,3.5-7.52,5.69l-0.53,0.25L54.39,91.72z M63.76,78.25
					c-0.16-1.96-1.53-2.35-2.11-2.44c-1.2-0.17-2.41,0.43-2.76,1.35c-0.27,0.71-0.47,1.59-0.66,2.44c-0.35,1.54-0.65,2.87-1.34,3.33
					c-1.76,1.2-3.85,2.53-4.88,3.18c2.05,1.29,2.85,3.77,3.12,4.9c4.06-2.05,6.56-5.03,6.7-5.2C64.06,82.78,63.76,78.3,63.76,78.25z
					"/>
			</g>
			<g>
				<g>
					<g>
						<path class="st3" d="M57.38,90.43c0,0,0.04-4.04-3.74-6.05l-3.76,2.05c0,0,3.65,1.67,4.29,6.16
							C54.17,92.59,56.25,91.33,57.38,90.43z"/>
						<path class="st4" d="M53.74,92.65c-0.6-4.19-3.9-5.77-4.04-5.83l-0.79-0.36l4.73-2.58l0.21,0.11
							c3.96,2.12,3.97,6.27,3.97,6.44l0,0.21l-0.16,0.13c-1.14,0.9-3.16,2.14-3.25,2.19l-0.56,0.34L53.74,92.65z M53.64,84.88
							l-2.87,1.56c1.08,0.71,3.06,2.38,3.72,5.44c0.64-0.4,1.7-1.09,2.45-1.66C56.89,89.42,56.51,86.53,53.64,84.88z"/>
					</g>
					<g>
						<path class="st5" d="M53.68,84.97c0,0,4.29,3.52,0.54,6.09c0,0-0.65-2.74-3.3-4.53L53.68,84.97z"/>
					</g>
				</g>
				<g>
					<path class="st6" d="M50.79,86.63l2.83-1.69c0,0,2.11,1.52,0.01,4.58C53.62,89.52,52.37,87.87,50.79,86.63z"/>
				</g>
			</g>
		</g>
	</g>
	<g>
		<g>
			<path class="st0" d="M43.42,94.35c-0.78-1.65-0.27-2.75-0.27-2.75l-0.33-2.58c1.58-3.05,5.16-1.71,5.16-1.71l1.7-0.4l1.29,0.36
				c1.89,0.9,1.58,5.33,1.58,5.33c-0.98,1.89-3.32,1.58-3.32,1.58c-0.7,1.51-2.1,0.55-2.1,0.55c-0.4,1.77-2.55,0.52-2.55,0.52
				L43.42,94.35z"/>
			<path class="st1" d="M44.36,95.62l-1.29-1l-0.04-0.09c-0.71-1.5-0.45-2.62-0.32-2.99l-0.34-2.61l0.06-0.12
				c1.35-2.6,4.16-2.44,5.58-1.97l1.68-0.4l1.4,0.39l0.07,0.03c2.09,1,1.86,5.27,1.82,5.76l-0.01,0.09l-0.04,0.08
				c-0.89,1.72-2.72,1.86-3.45,1.83c-0.25,0.41-0.57,0.67-0.98,0.78c-0.42,0.12-0.83,0.04-1.14-0.08c-0.19,0.37-0.47,0.55-0.69,0.65
				c-0.22,0.09-0.45,0.13-0.68,0.13C45.23,96.11,44.47,95.68,44.36,95.62z M47.37,94.36c0.13,0.09,0.55,0.3,0.9,0.2
				c0.22-0.06,0.41-0.26,0.56-0.57l0.13-0.29l0.32,0.04c0.02,0,1.98,0.25,2.83-1.27c0.07-1.21-0.04-4.15-1.3-4.8l-1.14-0.32
				l-1.72,0.4l-0.12-0.05c-0.13-0.05-3.14-1.14-4.56,1.39l0.32,2.44l0.01,0.12l-0.05,0.11c-0.02,0.04-0.39,0.92,0.22,2.29l1.05,0.81
				c0.27,0.15,1.06,0.49,1.51,0.3c0.07-0.03,0.27-0.12,0.37-0.55l0.14-0.62L47.37,94.36z"/>
		</g>
		<g>
			<path class="st0" d="M43.42,94.35c-0.78-1.65-0.27-2.75-0.27-2.75l-0.33-2.58c1.58-3.05,5.16-1.71,5.16-1.71l1.7-0.4l1.29,0.36
				c1.89,0.9,1.58,5.33,1.58,5.33c-0.98,1.89-3.32,1.58-3.32,1.58c-0.7,1.51-2.1,0.55-2.1,0.55c-0.4,1.77-2.55,0.52-2.55,0.52
				L43.42,94.35z"/>
			<path class="st1" d="M44.36,95.62l-1.29-1l-0.04-0.09c-0.71-1.5-0.45-2.62-0.32-2.99l-0.34-2.61l0.06-0.12
				c1.35-2.6,4.16-2.44,5.58-1.97l1.68-0.4l1.4,0.39l0.07,0.03c2.09,1,1.86,5.27,1.82,5.76l-0.01,0.09l-0.04,0.08
				c-0.89,1.72-2.72,1.86-3.45,1.83c-0.25,0.41-0.57,0.67-0.98,0.78c-0.42,0.12-0.83,0.04-1.14-0.08c-0.19,0.37-0.47,0.55-0.69,0.65
				c-0.22,0.09-0.45,0.13-0.68,0.13C45.23,96.11,44.47,95.68,44.36,95.62z M47.37,94.36c0.13,0.09,0.55,0.3,0.9,0.2
				c0.22-0.06,0.41-0.26,0.56-0.57l0.13-0.29l0.32,0.04c0.02,0,1.98,0.25,2.83-1.27c0.07-1.21-0.04-4.15-1.3-4.8l-1.14-0.32
				l-1.72,0.4l-0.12-0.05c-0.13-0.05-3.14-1.14-4.56,1.39l0.32,2.44l0.01,0.12l-0.05,0.11c-0.02,0.04-0.39,0.92,0.22,2.29l1.05,0.81
				c0.27,0.15,1.06,0.49,1.51,0.3c0.07-0.03,0.27-0.12,0.37-0.55l0.14-0.62L47.37,94.36z"/>
		</g>
		<g>
			<g>
				<path class="st7" d="M42.04,98.4c0,0,0.98-6.7-1.77-11.23c0,0-0.73-0.96-1.52,0.12c0,0,1.59,4.33,1.81,5.43
					c0,0,0.36,4.51,0.27,5.96C40.84,98.68,42.09,99.47,42.04,98.4z"/>
			</g>
			<g>
				<path class="st8" d="M38.64,86.99c0,0,2,5.25,2.12,11.57c0,0,1.59,1.14,2.49-0.13c0,0,0.81-2.12,0.4-4.51l7.34-0.9
					c0,0,0.48-1.84-1.26-3.59l-6.98,1.01C42.75,90.45,40.78,84.05,38.64,86.99z"/>
			</g>
			<g>
				<path class="st9" d="M50.99,89.45c0,0,0.53-2.25,1.63-2.12l1.46,0.59c0,0-1.04,2.26,1.82,3.9l-0.56,1.68c0,0-1.4,0.6-3.43-1.21
					L50.99,89.45z"/>
			</g>
			<g>
				<path class="st8" d="M38.64,86.99c0,0,2,5.25,2.12,11.57c0,0,1.59,1.14,2.49-0.13c0,0,0.81-2.12,0.4-4.51l7.34-0.9
					c0,0,0.48-1.84-1.26-3.59l-6.98,1.01C42.75,90.45,40.78,84.05,38.64,86.99z"/>
			</g>
			<g>
				<path class="st10" d="M49.22,89.78c0,0,0.62-0.97,1.49-0.52c0,0,1.65,1.53,0.96,3.46c0,0-0.59,0.66-1.64,0.52
					C50.03,93.24,50.78,92.43,49.22,89.78z"/>
			</g>
			<g>
				<path class="st11" d="M50.12,93.29l-6.62,1.09c0.53,2.68-0.53,3.65-0.53,3.65c-1.14,1.62-2.22,0.53-2.22,0.53
					c-0.18-5.84-1.93-11.82-1.93-11.82s1.96-1.57,3.93,3.71l6.39-0.93c0,0,1.35-0.83,1.83-0.32c0,0,0.66-1.47,1.23-1.84
					c0,0,1.34-0.17,1.88,0.55c0,0-0.59,2.83,1.82,3.9l-0.56,1.68c0,0-1.52,0.65-3.36-1.02C51.98,92.47,51.82,93.21,50.12,93.29z"/>
				<path class="st1" d="M40.44,98.87l-0.12-0.12l-0.01-0.17c-0.18-5.71-1.9-11.65-1.91-11.71l-0.08-0.28l0.23-0.18
					c0.23-0.18,0.8-0.44,1.49-0.24c1.11,0.31,2.11,1.59,2.99,3.81l5.96-0.87c0.31-0.18,1.12-0.6,1.77-0.48
					c0.26-0.51,0.72-1.32,1.2-1.63l0.08-0.05l0.1-0.01c0.16-0.02,1.61-0.17,2.28,0.73l0.12,0.16L54.5,88
					c-0.02,0.1-0.48,2.5,1.57,3.42l0.36,0.16l-0.74,2.24l-0.18,0.08c-0.07,0.03-1.6,0.65-3.46-0.79c-0.3,0.28-0.86,0.56-1.89,0.61
					L44,94.74c0.33,2.31-0.49,3.35-0.7,3.57c-0.46,0.64-0.98,0.99-1.55,1.04c-0.05,0-0.09,0.01-0.13,0.01
					C40.95,99.36,40.5,98.92,40.44,98.87z M51.6,91.54l0.67,0.61c1.27,1.15,2.33,1.08,2.73,0.99l0.37-1.11
					c-1.7-0.98-1.91-2.89-1.76-3.98c-0.33-0.26-0.94-0.29-1.25-0.27c-0.32,0.28-0.76,1.07-1,1.59l-0.27,0.6l-0.45-0.48
					c-0.09-0.1-0.7,0.04-1.28,0.4l-0.08,0.05l-6.83,0.99l-0.12-0.33c-1.04-2.79-2.01-3.45-2.5-3.6c-0.2-0.06-0.37-0.05-0.49-0.02
					c0.37,1.37,1.65,6.42,1.84,11.36c0.11,0.07,0.29,0.15,0.5,0.14c0.38-0.03,0.72-0.4,0.93-0.7l0.06-0.07
					c0.01-0.01,0.87-0.89,0.4-3.25l-0.09-0.44l7.06-1.16l0.05-0.01c1.14-0.05,1.41-0.41,1.46-0.49L51.6,91.54z M51.55,92.38
					L51.55,92.38L51.55,92.38z"/>
			</g>
			<g>
				<path class="st12" d="M39.31,88.09c0,0,1.84,6.8,1.41,10.26c0,0,0.63,1.28,1.26-0.38c0,0,0.87-2.84-1.25-8.57
					c0,0-1.02-2.91-1.64-2.43C39.1,86.97,38.9,87.33,39.31,88.09z"/>
				<path class="st1" d="M40.43,98.49l-0.04-0.09l0.01-0.1c0.41-3.23-1.25-9.55-1.39-10.09c-0.46-0.85-0.24-1.32-0.2-1.4l0.03-0.06
					l0.05-0.04c0.15-0.12,0.33-0.15,0.51-0.1c0.7,0.2,1.37,1.94,1.63,2.67c2.13,5.76,1.29,8.66,1.24,8.8
					c-0.1,0.26-0.39,1.03-0.98,1.06c-0.01,0-0.02,0-0.03,0C40.76,99.15,40.46,98.56,40.43,98.49z M40.42,89.51
					c-0.32-0.92-0.75-1.79-1.03-2.13c0.02,0.13,0.08,0.31,0.21,0.55l0.03,0.07c0.08,0.28,1.82,6.76,1.43,10.27
					c0.08,0.12,0.18,0.21,0.22,0.21h0c0,0,0.17-0.04,0.39-0.62C41.71,97.69,42.41,94.89,40.42,89.51z"/>
			</g>
			<g>
				<path class="st12" d="M52.2,90.93c0.07,0.15,0.4,0.36,1.47,0.55c0,0-1.07-0.98-0.33-2.28c0,0-0.25,1.52,2.13,2.68l-0.52,1.21
					c0,0-0.74,0.6-3.17-0.97c0,0-0.28-0.86,0.14-1.25C52.01,90.79,52.15,90.82,52.2,90.93z"/>
			</g>
			<g>
				<g>
					<path class="st13" d="M41.17,95.73c-18.03,5.56-26.83,4.91-26.83,4.91c-7.34-2.2-8.82-7.86-8.82-7.86
						c0.4,0.11-0.89-0.97,0.32-0.51c6.71,2.54,34.24-1.88,34.24-1.88s1.25,2.42,0.99,4.6L41.17,95.73z"/>
					<path class="st1" d="M14.31,101.08l-0.09-0.02c-7.49-2.24-9.06-7.92-9.12-8.16L5.04,92.7c-0.14-0.21-0.28-0.5-0.07-0.77
						c0.26-0.34,0.73-0.16,1.02-0.06c6.53,2.47,33.74-1.86,34.01-1.9l0.31-0.05l0.14,0.28c0.05,0.1,1.28,2.52,1.04,4.79l0.17,1.05
						l-0.36,0.11c-14.59,4.5-23.09,4.96-25.93,4.96C14.73,101.11,14.37,101.09,14.31,101.08z M40.62,95.01l0.01-0.06
						c0.19-1.6-0.51-3.39-0.81-4.07c-3.21,0.5-26.85,4.1-33.78,1.93c0,0.03-0.01,0.07-0.02,0.1c0.38,1.06,2.28,5.45,8.4,7.3
						c0.7,0.04,9.41,0.37,26.27-4.79L40.62,95.01z"/>
				</g>
				<g>
					<path class="st14" d="M38.32,93.63c0,0-20.92,5.39-32.02-0.04c0,0,0.12,0.66,1.44,2.18c0,0,3.31,4.09,7.79,3.67
						c0,0,10.93,0.24,25.22-4.54C40.74,94.9,39.59,93.29,38.32,93.63z"/>
				</g>
				<g>
					<path class="st6" d="M7.73,95.77c0,0,3.23,4.23,7.55,4.46c0,0,9.99,0.18,25.5-5.06l-0.19-0.86c0,0-19.15,4.78-32.18,1.56
						C8.41,95.88,9.32,96.01,7.73,95.77z"/>
				</g>
				<g>
					<path class="st15" d="M40.85,92.99c-2.3,0.41-4.61,0.77-6.93,1.11c-2.32,0.33-4.64,0.63-6.97,0.88c-2.33,0.25-4.66,0.46-7,0.56
						c-2.34,0.1-4.68,0.15-7.02-0.05c2.33,0.27,4.68,0.3,7.03,0.26c2.35-0.03,4.69-0.17,7.03-0.34c2.34-0.17,4.68-0.4,7.01-0.66
						c2.33-0.26,4.66-0.55,6.99-0.89L40.85,92.99z"/>
				</g>
			</g>
		</g>
		<g>
			<path class="st1" d="M47.27,90.45c-0.22,0.12-0.46,0.19-0.7,0.22c-0.12,0.02-0.24,0.03-0.36,0.03c-0.12,0-0.23,0-0.37-0.02
				l0.18-0.85c0.05,0.02,0.15,0.04,0.23,0.05c0.09,0.01,0.17,0.02,0.26,0.03c0.17,0.01,0.34-0.01,0.49-0.06
				c0.15-0.05,0.28-0.13,0.39-0.24c0.12-0.11,0.18-0.27,0.25-0.44l0.17-0.44l0.2,0.37c0.08,0.14,0.19,0.29,0.31,0.42
				c0.12,0.13,0.25,0.25,0.4,0.35c0.15,0.1,0.31,0.18,0.49,0.22c0.18,0.05,0.36,0.04,0.55,0.02c-0.18,0.06-0.37,0.1-0.57,0.09
				c-0.19-0.01-0.39-0.06-0.57-0.14c-0.18-0.08-0.35-0.19-0.51-0.31c-0.05-0.04-0.1-0.08-0.15-0.12c0.04-0.12,0.07-0.25,0.09-0.37
				l-0.38,0.08c0.09,0.11,0.19,0.21,0.29,0.29c-0.04,0.11-0.08,0.21-0.15,0.31C47.69,90.15,47.49,90.33,47.27,90.45z"/>
		</g>
		<g>
			<g>
				<path class="st16" d="M43.6,95.16c-1.2-1.3-0.1-3.61-0.1-3.61c0.19,2.3,2.72,0.89,2.72,0.89c-0.87,1.83,1.03,2.89,1.03,2.89
					c-1.02,1.76-3.1,0.31-3.1,0.31L43.6,95.16z"/>
				<path class="st1" d="M43.9,96l-0.59-0.51l-0.03-0.03c-1.39-1.5-0.23-3.99-0.18-4.09l0.7-1.46l0.13,1.61
					c0.04,0.43,0.17,0.71,0.39,0.83c0.48,0.26,1.4-0.13,1.68-0.28l1.19-0.66l-0.59,1.23c-0.67,1.41,0.7,2.23,0.85,2.32l0.39,0.22
					l-0.22,0.38c-0.33,0.57-0.78,0.92-1.35,1.04c-0.16,0.03-0.31,0.05-0.47,0.05C44.83,96.64,43.95,96.03,43.9,96z M45.56,93.18
					c-0.5,0.14-1.13,0.22-1.65-0.06c-0.14-0.07-0.26-0.16-0.36-0.27c-0.13,0.65-0.13,1.46,0.36,2.01l0.51,0.45
					c0.13,0.08,0.96,0.6,1.67,0.44c0.21-0.05,0.38-0.15,0.54-0.3C46.07,94.98,45.47,94.19,45.56,93.18z"/>
			</g>
			<g>
				<path class="st16" d="M47.4,95.41c-2.05-1.48-1.3-2.75-1.3-2.75c0.36-1.34,2.29-1.94,2.29-1.94c1.16-0.03,0.93,1.98,0.93,1.98
					c-0.3,2.13,0.83,2,0.83,2C48.97,96.62,47.4,95.41,47.4,95.41z"/>
				<path class="st1" d="M47.15,95.76c-2.11-1.53-1.6-2.95-1.45-3.26c0.44-1.52,2.48-2.18,2.57-2.2l0.06-0.02l0.06,0
					c0.37-0.01,0.68,0.12,0.92,0.38c0.6,0.65,0.47,1.93,0.46,2.09c-0.14,0.96,0.06,1.3,0.15,1.4c0.1,0.11,0.21,0.11,0.2,0.11
					l0.89-0.1l-0.47,0.76c-0.45,0.73-1,1.15-1.65,1.27c-0.12,0.02-0.24,0.03-0.36,0.03C47.79,96.22,47.22,95.81,47.15,95.76z
					 M49.3,94.76c-0.41-0.42-0.54-1.14-0.4-2.13c0.04-0.33,0.03-1.1-0.24-1.39c-0.04-0.04-0.1-0.09-0.2-0.1
					c-0.52,0.18-1.7,0.75-1.94,1.62l-0.02,0.06l-0.03,0.05c-0.01,0.01-0.5,0.96,1.18,2.18l0.01,0.01c0.01,0,0.5,0.37,1.07,0.27
					c0.26-0.05,0.5-0.19,0.72-0.43C49.4,94.86,49.35,94.81,49.3,94.76z"/>
			</g>
			<g>
				<path class="st16" d="M49.14,93.31c0.29-3.5,2.48-2.89,2.48-2.89c1.31,0.47,1.11,3.41,1.11,3.41c-0.96,1.25-2.35,1.07-2.35,1.07
					C49.41,94.57,49.14,93.31,49.14,93.31z"/>
				<path class="st1" d="M50.32,95.33l-0.08-0.02c-1.19-0.41-1.51-1.86-1.52-1.92l-0.01-0.06l0.01-0.06
					c0.12-1.43,0.56-2.42,1.31-2.94c0.82-0.57,1.68-0.34,1.72-0.33l0.03,0.01c1.58,0.57,1.42,3.52,1.4,3.85l-0.01,0.13l-0.08,0.1
					c-0.86,1.12-2.01,1.25-2.51,1.25C50.43,95.35,50.34,95.34,50.32,95.33z M51.49,90.83c-0.08-0.02-0.54-0.1-0.98,0.21
					c-0.51,0.35-0.83,1.12-0.93,2.23c0.06,0.21,0.31,0.97,0.89,1.2c0.21,0.02,1.12,0.02,1.82-0.81
					C52.34,92.77,52.19,91.11,51.49,90.83z"/>
			</g>
			<g>
				<g>
					<path class="st17" d="M49.5,93.68c-0.15-1.19,0.54-2.05,0.54-2.05c1.54-0.59,0.88,1.5,0.88,1.5c0.73-0.06,1.04,0.68,1.04,0.68
						c-0.08,0.78-1.37,1.04-1.37,1.04C49.63,94.96,49.5,93.68,49.5,93.68z"/>
				</g>
				<g>
					<path class="st1" d="M49.79,92.92c0.19,0.02,0.38,0.03,0.58,0.03c0.19,0,0.38-0.01,0.58-0.03c0.19-0.03,0.38-0.07,0.54-0.19
						c-0.1,0.17-0.29,0.3-0.47,0.4c-0.18,0.1-0.37,0.18-0.57,0.26c-0.19,0.07-0.39,0.14-0.59,0.19c-0.2,0.06-0.39,0.11-0.61,0.15
						l-0.03-0.87C49.4,92.88,49.6,92.9,49.79,92.92z"/>
				</g>
			</g>
			<g>
				<g>
					<path class="st17" d="M46.77,94.27c-0.7-1.21,0.24-2.1,0.24-2.1c1.44-0.81,0.87,1.41,0.87,1.41c0.71-0.16,1.28,1.16,1.28,1.16
						c0.03,0.78-0.46,0.6-0.46,0.6C47.78,95.57,46.77,94.27,46.77,94.27z"/>
				</g>
				<g>
					<path class="st1" d="M46.95,93.47c0.19-0.01,0.38-0.03,0.58-0.06c0.19-0.03,0.38-0.06,0.56-0.12c0.18-0.06,0.37-0.12,0.51-0.27
						c-0.08,0.19-0.24,0.34-0.41,0.46c-0.17,0.12-0.34,0.23-0.52,0.33c-0.18,0.1-0.37,0.19-0.55,0.28
						c-0.19,0.09-0.37,0.17-0.58,0.24l-0.15-0.86C46.56,93.48,46.76,93.48,46.95,93.47z"/>
				</g>
			</g>
			<g>
				<g>
					<path class="st17" d="M43.75,94.76c-0.31-1.15-0.13-1.79-0.13-1.79c1.44-0.81,1.51,1.26,1.51,1.26
						c0.71-0.16,1.28,1.16,1.28,1.16c-0.27,0.52-0.72,0.44-0.72,0.44C44.76,96.06,43.75,94.76,43.75,94.76z"/>
				</g>
				<g>
					<path class="st1" d="M43.98,94.17c0.19-0.01,0.38-0.03,0.58-0.06c0.19-0.03,0.38-0.06,0.56-0.12c0.18-0.06,0.37-0.12,0.51-0.27
						c-0.08,0.19-0.24,0.34-0.4,0.46c-0.17,0.12-0.34,0.23-0.52,0.33c-0.18,0.1-0.37,0.19-0.56,0.28c-0.19,0.09-0.37,0.16-0.58,0.24
						l-0.15-0.86C43.59,94.19,43.79,94.18,43.98,94.17z"/>
				</g>
			</g>
			<g>
				<g>
					<path class="st16" d="M43.18,92.04l-0.48-2.58c-0.13-0.61,1.18-1.68,1.18-1.68l1.37,2.3c2.68,0.7,2.1,1.99,2.1,1.99
						c-0.27,0.82-1.55,0.67-1.55,0.67C43.55,92.99,43.18,92.04,43.18,92.04z"/>
					<path class="st1" d="M42.77,92.2l-0.5-2.65c-0.16-0.78,0.88-1.73,1.34-2.11L44,87.12l1.54,2.58c1.13,0.32,1.86,0.8,2.16,1.43
						c0.25,0.52,0.11,0.96,0.07,1.08c-0.3,0.88-1.35,1.02-1.96,0.96c-0.26,0.03-0.5,0.04-0.73,0.04
						C43.23,93.21,42.82,92.32,42.77,92.2z M45.85,92.3c0.01,0,0.94,0.08,1.09-0.38l0.01-0.03c0-0.01,0.07-0.18-0.05-0.41
						c-0.12-0.23-0.5-0.66-1.75-0.99l-0.17-0.05l-1.19-1.99c-0.38,0.38-0.67,0.77-0.65,0.92l0.47,2.51c0.07,0.1,0.54,0.59,2.15,0.4
						l0.05-0.01L45.85,92.3z"/>
				</g>
				<g>
					<path class="st17" d="M45.06,90.88c1.99,0.42,1.64,1.24,1.64,1.24c-1.11,0.55-3.08,0.02-3.08,0.02
						C43.5,90.32,45.06,90.88,45.06,90.88z"/>
				</g>
			</g>
		</g>
		<g>
			<path class="st0" d="M43.6,95.16c-1.2-1.3-0.1-3.61-0.1-3.61c0.19,2.3,2.72,0.89,2.72,0.89c-0.87,1.83,1.03,2.89,1.03,2.89
				c-1.02,1.76-3.1,0.31-3.1,0.31L43.6,95.16z"/>
			<path class="st1" d="M43.9,96l-0.59-0.51l-0.03-0.03c-1.39-1.5-0.23-3.99-0.18-4.09l0.7-1.46l0.13,1.61
				c0.04,0.43,0.17,0.71,0.39,0.83c0.48,0.26,1.4-0.13,1.68-0.28l1.19-0.66l-0.59,1.23c-0.67,1.41,0.7,2.23,0.85,2.32l0.39,0.22
				l-0.22,0.38c-0.33,0.57-0.78,0.92-1.35,1.04c-0.16,0.03-0.31,0.05-0.47,0.05C44.83,96.64,43.95,96.03,43.9,96z M45.56,93.18
				c-0.5,0.14-1.13,0.22-1.65-0.06c-0.14-0.07-0.26-0.16-0.36-0.27c-0.13,0.65-0.13,1.46,0.36,2.01l0.51,0.45
				c0.13,0.08,0.96,0.6,1.67,0.44c0.21-0.05,0.38-0.15,0.54-0.3C46.07,94.98,45.47,94.19,45.56,93.18z"/>
		</g>
		<g>
			<path class="st0" d="M47.4,95.41c-2.05-1.48-1.3-2.75-1.3-2.75c0.36-1.34,2.29-1.94,2.29-1.94c1.16-0.03,0.93,1.98,0.93,1.98
				c-0.3,2.13,0.83,2,0.83,2C48.97,96.62,47.4,95.41,47.4,95.41z"/>
			<path class="st1" d="M47.15,95.76c-2.11-1.53-1.6-2.95-1.45-3.26c0.44-1.52,2.48-2.18,2.57-2.2l0.06-0.02l0.06,0
				c0.37-0.01,0.68,0.12,0.92,0.38c0.6,0.65,0.47,1.93,0.46,2.09c-0.14,0.96,0.06,1.3,0.15,1.4c0.1,0.11,0.21,0.11,0.2,0.11
				l0.89-0.1l-0.47,0.76c-0.45,0.73-1,1.15-1.65,1.27c-0.12,0.02-0.24,0.03-0.36,0.03C47.79,96.22,47.22,95.81,47.15,95.76z
				 M49.3,94.76c-0.41-0.42-0.54-1.14-0.4-2.13c0.04-0.33,0.03-1.1-0.24-1.39c-0.04-0.04-0.1-0.09-0.2-0.1
				c-0.52,0.18-1.7,0.75-1.94,1.62l-0.02,0.06l-0.03,0.05c-0.01,0.01-0.5,0.96,1.18,2.18l0.01,0.01c0.01,0,0.5,0.37,1.07,0.27
				c0.26-0.05,0.5-0.19,0.72-0.43C49.4,94.86,49.35,94.81,49.3,94.76z"/>
		</g>
		<g>
			<path class="st0" d="M49.14,93.31c0.29-3.5,2.48-2.89,2.48-2.89c1.31,0.47,1.11,3.41,1.11,3.41c-0.96,1.25-2.35,1.07-2.35,1.07
				C49.41,94.57,49.14,93.31,49.14,93.31z"/>
			<path class="st1" d="M50.32,95.33l-0.08-0.02c-1.19-0.41-1.51-1.86-1.52-1.92l-0.01-0.06l0.01-0.06
				c0.12-1.43,0.56-2.42,1.31-2.94c0.82-0.57,1.68-0.34,1.72-0.33l0.03,0.01c1.58,0.57,1.42,3.52,1.4,3.85l-0.01,0.13l-0.08,0.1
				c-0.86,1.12-2.01,1.25-2.51,1.25C50.43,95.35,50.34,95.34,50.32,95.33z M51.49,90.83c-0.08-0.02-0.54-0.1-0.98,0.21
				c-0.51,0.35-0.83,1.12-0.93,2.23c0.06,0.21,0.31,0.97,0.89,1.2c0.21,0.02,1.12,0.02,1.82-0.81
				C52.34,92.77,52.19,91.11,51.49,90.83z"/>
		</g>
		<g>
			<g>
				<path class="st2" d="M49.5,93.68c-0.15-1.19,0.54-2.05,0.54-2.05c1.54-0.59,0.88,1.5,0.88,1.5c0.73-0.06,1.04,0.68,1.04,0.68
					c-0.08,0.78-1.37,1.04-1.37,1.04C49.63,94.96,49.5,93.68,49.5,93.68z"/>
			</g>
			<g>
				<path class="st1" d="M49.79,92.92c0.19,0.02,0.38,0.03,0.58,0.03c0.19,0,0.38-0.01,0.58-0.03c0.19-0.03,0.38-0.07,0.54-0.19
					c-0.1,0.17-0.29,0.3-0.47,0.4c-0.18,0.1-0.37,0.18-0.57,0.26c-0.19,0.07-0.39,0.14-0.59,0.19c-0.2,0.06-0.39,0.11-0.61,0.15
					l-0.03-0.87C49.4,92.88,49.6,92.9,49.79,92.92z"/>
			</g>
		</g>
		<g>
			<g>
				<path class="st2" d="M46.77,94.27c-0.7-1.21,0.24-2.1,0.24-2.1c1.44-0.81,0.87,1.41,0.87,1.41c0.71-0.16,1.28,1.16,1.28,1.16
					c0.03,0.78-0.46,0.6-0.46,0.6C47.78,95.57,46.77,94.27,46.77,94.27z"/>
			</g>
			<g>
				<path class="st1" d="M46.95,93.47c0.19-0.01,0.38-0.03,0.58-0.06c0.19-0.03,0.38-0.06,0.56-0.12c0.18-0.06,0.37-0.12,0.51-0.27
					c-0.08,0.19-0.24,0.34-0.41,0.46c-0.17,0.12-0.34,0.23-0.52,0.33c-0.18,0.1-0.37,0.19-0.55,0.28c-0.19,0.09-0.37,0.17-0.58,0.24
					l-0.15-0.86C46.56,93.48,46.76,93.48,46.95,93.47z"/>
			</g>
		</g>
		<g>
			<g>
				<path class="st2" d="M43.75,94.76c-0.31-1.15-0.13-1.79-0.13-1.79c1.44-0.81,1.51,1.26,1.51,1.26c0.71-0.16,1.28,1.16,1.28,1.16
					c-0.27,0.52-0.72,0.44-0.72,0.44C44.76,96.06,43.75,94.76,43.75,94.76z"/>
			</g>
			<g>
				<path class="st1" d="M43.98,94.17c0.19-0.01,0.38-0.03,0.58-0.06c0.19-0.03,0.38-0.06,0.56-0.12c0.18-0.06,0.37-0.12,0.51-0.27
					c-0.08,0.19-0.24,0.34-0.4,0.46c-0.17,0.12-0.34,0.23-0.52,0.33c-0.18,0.1-0.37,0.19-0.56,0.28c-0.19,0.09-0.37,0.16-0.58,0.24
					l-0.15-0.86C43.59,94.19,43.79,94.18,43.98,94.17z"/>
			</g>
		</g>
		<g>
			<g>
				<path class="st0" d="M45.52,90.38c2.68,0.7,2.1,1.98,2.1,1.98c-0.27,0.82-1.55,0.67-1.55,0.67c-3.26,0.62-3.08-0.84-3.08-0.84
					l-0.22-0.85c-0.12-2.38,1.21-3.01,1.21-3.01S45.71,86.69,45.52,90.38z"/>
			</g>
			<g>
				<path class="st1" d="M47.82,91.55c-0.02-0.13-0.06-0.27-0.13-0.42c-0.32-0.66-1.1-1.16-2.33-1.48l-0.22,0.84
					c1.25,0.33,1.64,0.76,1.75,0.99c0.12,0.23,0.05,0.4,0.05,0.41l-0.01,0.03c-0.15,0.46-1.08,0.38-1.09,0.38l-0.07-0.01l-0.07,0.01
					c-1.7,0.32-2.27,0.02-2.43-0.12c-0.14-0.12-0.14-0.24-0.14-0.26l0.01-0.08l-0.02-0.07l-0.21-0.81c-0.09-2.06,1.16-2.8,1.18-2.81
					l-0.44-0.76c-0.07,0.04-1.74,1.04-1.61,3.66l0,0.04l0.22,0.84c0,0.18,0.05,0.55,0.39,0.87c0.56,0.52,1.61,0.65,3.14,0.37
					c0.61,0.05,1.64-0.09,1.94-0.96C47.79,92.13,47.87,91.88,47.82,91.55z"/>
			</g>
			<g>
				<path class="st2" d="M44.38,90.76c2.74-0.02,1.89,1.42,1.89,1.42c-1.11,0.55-2.83,0.2-2.83,0.2
					C43.31,90.56,44.38,90.76,44.38,90.76z"/>
			</g>
		</g>
	</g>
	<g>
		<g>
			<g>
				<path class="st0" d="M62.81,84.96c1.49,1.18,7.84,0.69,7.84,0.69s-9.25-1.15,0,0c9.25,1.15,16.94-4.32,16.94-4.32
					s-0.12,0.35,0,0c0.12-0.35-1.42-5.88-1.42-5.88s-1.47-5.04-6.96-7.71c0,0-8.6,5.15-14.07,1.48c0,0-4.48,2.48-3.42,15.1l1.1,0.82
					l-1.24-0.26C61.57,84.87,62.77,84.93,62.81,84.96z"/>
				<path class="st1" d="M70.64,86.08c-0.75,0.06-5.25,0.36-7.38-0.41l-1.78-0.37l0.07-0.56l-0.26-0.19l-0.02-0.2
					c-1.07-12.75,3.45-15.41,3.64-15.52l0.23-0.13l0.22,0.15c5.18,3.46,13.52-1.45,13.6-1.5l0.2-0.12l0.21,0.1
					c5.6,2.73,7.13,7.77,7.19,7.99c0.82,2.94,1.18,4.44,1.33,5.22l0.5-0.35L88,81.46c0,0,0,0.01,0,0.01l-0.05,0.16l-0.2-0.07
					l0.09,0.13c-0.29,0.21-6.51,4.56-14.56,4.56C72.42,86.24,71.53,86.19,70.64,86.08z M85.74,75.57c-0.01-0.05-1.46-4.76-6.53-7.34
					c-1.37,0.78-8.85,4.71-14.07,1.52c-0.82,0.68-3.85,3.95-3.02,14.34l0.56,0.42c0.28,0.03,0.32,0.06,0.39,0.12
					c0.54,0.43,1.94,0.61,3.44,0.67l0.07-0.59l4.11,0.51c8.17,1.02,15.19-3.29,16.43-4.11C87.02,80.37,86.37,77.84,85.74,75.57z"/>
			</g>
			<g>
				<path class="st2" d="M74.81,76.16c0,0-5.38,1.12-12.14-1.38c0,0-0.74,4.07,1.08,8.6c0,0,7.51,1.63,13.28-0.23
					C77.02,83.15,80.2,76.67,74.81,76.16z"/>
			</g>
		</g>
		<g>
			<path class="st18" d="M81.6,69.44c0,0-4,6.77-10.69,7.42c0,0-6.28,0.53-7.64-4.14c0,0-0.54-0.77,0.31-2.71
				c0,0-0.17-1.34-1.27,0.4c0,0-1.11,3.15,1.71,5.97c0,0,4.21,4.27,12.1,0.53c0,0,4.97-2.56,7.23-7.52c0,0,0.64-0.72-0.06-1.3
				C83.28,68.09,82.44,67.46,81.6,69.44z"/>
			<path class="st19" d="M63.78,76.62c-2.93-2.93-1.83-6.17-1.78-6.31l0.03-0.07c0.51-0.8,0.91-1.12,1.31-1.03
				c0.45,0.1,0.54,0.65,0.56,0.76l0.01,0.09l-0.04,0.08c-0.75,1.69-0.34,2.39-0.34,2.39l0,0l0.03,0.04l0.02,0.05
				c1.27,4.36,7.24,3.91,7.3,3.91c6.28-0.61,10.2-6.87,10.43-7.24c0.4-0.92,0.86-1.45,1.38-1.59c0.44-0.12,0.75,0.1,0.8,0.13
				c0.27,0.22,0.42,0.5,0.45,0.81c0.03,0.44-0.21,0.8-0.31,0.92c-2.29,4.98-7.15,7.53-7.37,7.64c-2.43,1.15-4.53,1.56-6.28,1.56
				C65.96,78.77,63.81,76.65,63.78,76.62z M82.84,68.34c-0.18,0.05-0.54,0.29-0.94,1.23l-0.02,0.04c-0.17,0.28-4.16,6.92-10.95,7.58
				c-0.07,0.01-6.52,0.49-7.97-4.34c-0.13-0.23-0.48-1.11,0.27-2.87c-0.01-0.04-0.03-0.09-0.04-0.12c-0.07,0.04-0.26,0.18-0.59,0.69
				c-0.11,0.35-0.87,3.09,1.64,5.6c0.04,0.04,4.13,4.07,11.72,0.47c0.05-0.03,4.9-2.57,7.08-7.37l0.02-0.05l0.03-0.04
				c0,0,0.2-0.24,0.18-0.48c-0.01-0.12-0.07-0.23-0.2-0.34C83.06,68.34,82.97,68.3,82.84,68.34z"/>
		</g>
		<g>
			<path class="st20" d="M62.19,71.77c0,0,0.23,3.72,2.97,5.08c0,0-0.11-0.23,0.41-0.36C65.56,76.5,63.3,75.75,62.19,71.77z"/>
		</g>
		<g>
			<path class="st20" d="M79.41,73.01c0.08-0.11-2.71,2.67-7.14,3.94c0,0-0.04,0.44,0.91,0.28C73.19,77.23,76.9,76.27,79.41,73.01z"
				/>
		</g>
		<g>
			<g>
				<g>
					<g>
						<path class="st21" d="M72.45,85.69c0,0-3.07,4.76-1.74,8.91c0,0,0.54,2.29,3.06,2.24c0,0,3.21-0.2,3.18-3.23
							c0,0,0.67-3.97-2.74-7.94L72.45,85.69z"/>
						<path class="st22" d="M70.3,94.71c-1.37-4.29,1.66-9.06,1.79-9.26l0.13-0.2l2.2-0.02l0.13,0.15c3.36,3.91,2.92,7.79,2.85,8.25
							c0,2.7-2.34,3.55-3.61,3.63c-0.03,0-0.05,0-0.08,0C71.5,97.28,70.52,95.62,70.3,94.71z M72.7,86.12
							c-0.54,0.92-2.68,4.9-1.57,8.34l0.01,0.03c0.02,0.08,0.49,1.91,2.55,1.91c0.02,0,0.04,0,0.06,0c0.11-0.01,2.8-0.22,2.77-2.79
							l0-0.04l0.01-0.04c0.01-0.04,0.58-3.71-2.51-7.43L72.7,86.12z"/>
					</g>
					<g>
						<path class="st23" d="M73.62,86c0,0-0.63,3.26,0.16,10.4c0,0,3.1-0.55,2.69-3.43C76.47,92.98,77.03,88.97,73.62,86z"/>
					</g>
					<g>
						<path class="st20" d="M70.83,94.38c0,0,1.22-1.63,2.65-2.42c0,0,1.81,0.63,3.23,1.75c0,0,0.09-0.54-0.05-1.44
							c0,0-1.83-1.47-3.29-1.64c0,0-1.56,0.63-2.77,2.29C70.61,92.94,70.6,93.43,70.83,94.38z"/>
					</g>
					<g>
						<path class="st20" d="M70.73,90.84c0,0,1.35-1.27,2.62-1.85c0,0,1.97,0.59,3.13,1.57c0,0,0-0.43-0.32-1.28
							c0,0-1.6-1.17-2.83-1.38c0,0-1.13,0.34-2.24,1.64C71.08,89.54,70.95,89.83,70.73,90.84z"/>
					</g>
				</g>
				<g>
					<path class="st22" d="M72.93,85.76c0,0.81,0.03,1.62,0.06,2.42c0.04,0.81,0.08,1.61,0.15,2.41c0.06,0.8,0.13,1.61,0.22,2.41
						c0.08,0.8,0.19,1.6,0.3,2.4c-0.06-0.8-0.12-1.6-0.16-2.41c-0.04-0.8-0.07-1.61-0.08-2.41c-0.02-0.8-0.02-1.61-0.01-2.41
						c0.01-0.8,0.03-1.61,0.07-2.41L72.93,85.76z"/>
				</g>
			</g>
			<g>
				<g>
					<g>
						<path class="st21" d="M67.85,86.13c0,0-3.49,4.34-2.57,8.11c0,0,0.31,2.08,2.8,2.04c0,0,3.18-0.18,3.44-2.94
							c0,0,1.04-3.61-1.94-7.23L67.85,86.13z"/>
						<path class="st22" d="M64.85,94.33c-0.94-3.93,2.51-8.29,2.66-8.47l0.13-0.16l2.15-0.02l0.13,0.16
							c2.95,3.58,2.14,7.14,2.03,7.58c-0.26,2.45-2.63,3.23-3.87,3.3c-0.03,0-0.06,0-0.08,0C65.81,96.72,64.99,95.18,64.85,94.33z
							 M68.07,86.57c-0.6,0.8-3.12,4.45-2.36,7.58l0.01,0.04c0.03,0.17,0.33,1.67,2.28,1.67c0.02,0,0.04,0,0.07,0
							c0.11-0.01,2.81-0.19,3.03-2.55l0.02-0.08c0.01-0.03,0.92-3.32-1.72-6.67L68.07,86.57z"/>
					</g>
					<g>
						<path class="st23" d="M68.97,86.41c0,0-0.94,2.97-0.85,9.47c0,0,3.11-0.51,2.98-3.12C71.1,92.77,72.05,89.12,68.97,86.41z"/>
					</g>
					<g>
						<path class="st20" d="M65.42,94.05c0,0,1.35-1.48,2.84-2.2c0,0,1.72,0.57,3.02,1.6c0,0,0.14-0.5,0.09-1.31
							c0,0-1.66-1.34-3.08-1.49c0,0-1.6,0.58-2.95,2.09C65.34,92.73,65.29,93.19,65.42,94.05z"/>
					</g>
					<g>
						<path class="st20" d="M65.66,90.83c0,0,1.46-1.16,2.75-1.69c0,0,1.89,0.54,2.93,1.43c0,0,0.04-0.39-0.19-1.17
							c0,0-1.46-1.07-2.66-1.25c0,0-1.14,0.31-2.36,1.49C66.13,89.64,65.97,89.9,65.66,90.83z"/>
					</g>
				</g>
				<g>
					<path class="st22" d="M68.32,86.2c-0.08,0.74-0.13,1.47-0.17,2.21c-0.04,0.73-0.07,1.47-0.09,2.2
						c-0.02,0.73-0.02,1.46-0.01,2.19c0.01,0.73,0.03,1.46,0.06,2.18c0.02-0.73,0.04-1.46,0.08-2.19c0.04-0.73,0.09-1.46,0.15-2.19
						c0.06-0.73,0.14-1.46,0.22-2.2c0.09-0.73,0.19-1.46,0.3-2.19L68.32,86.2z"/>
				</g>
			</g>
			<g>
				<g>
					<g>
						<path class="st21" d="M63.11,85.27c0,0-3.8,4.31-3.21,8.15c0,0,0.13,2.12,2.59,2.14c0,0,3.15-0.1,3.64-2.89
							c0,0,1.33-3.63-1.31-7.37L63.11,85.27z"/>
						<path class="st22" d="M59.47,93.47c-0.6-4,3.15-8.31,3.31-8.49l0.13-0.15l2.13,0.04l0.13,0.18c2.62,3.72,1.52,7.3,1.37,7.73
							c-0.45,2.45-2.84,3.18-4.06,3.22C60.24,95.97,59.54,94.34,59.47,93.47z M63.31,85.71c-0.64,0.78-3.47,4.44-2.97,7.65l0,0.04
							c0,0.07,0.13,1.71,2.14,1.73c0.11,0,2.8-0.13,3.22-2.53l0.02-0.07c0.01-0.03,1.17-3.36-1.13-6.79L63.31,85.71z"/>
					</g>
					<g>
						<path class="st23" d="M64.2,85.58c0,0-1.17,2.98-1.63,9.57c0,0,3.1-0.43,3.19-3.08C65.77,92.07,67,88.4,64.2,85.58z"/>
					</g>
					<g>
						<path class="st20" d="M60.06,93.22c0,0,1.46-1.47,2.99-2.16c0,0,1.65,0.62,2.84,1.69c0,0,0.18-0.5,0.2-1.33
							c0,0-1.53-1.4-2.92-1.59c0,0-1.62,0.54-3.08,2.04C60.09,91.89,60,92.35,60.06,93.22z"/>
					</g>
					<g>
						<path class="st20" d="M60.56,89.97c0,0,1.53-1.14,2.85-1.64c0,0,1.81,0.59,2.76,1.52c0,0,0.08-0.39-0.09-1.19
							c0,0-1.35-1.12-2.51-1.34c0,0-1.15,0.28-2.45,1.45C61.13,88.78,60.95,89.04,60.56,89.97z"/>
					</g>
				</g>
				<g>
					<path class="st22" d="M63.57,85.35c-0.14,0.75-0.25,1.49-0.35,2.23c-0.1,0.74-0.19,1.48-0.27,2.22
						c-0.08,0.74-0.14,1.48-0.2,2.22c-0.06,0.74-0.09,1.48-0.12,2.21c0.08-0.74,0.16-1.48,0.26-2.22c0.1-0.74,0.21-1.48,0.33-2.22
						c0.12-0.74,0.26-1.48,0.4-2.22c0.15-0.74,0.3-1.48,0.48-2.21L63.57,85.35z"/>
				</g>
			</g>
			<g>
				<g>
					<g>
						<path class="st21" d="M84.67,83.36c0,0-1.5,5.16,0.66,8.78c0,0,1.02,2.04,3.19,1.46c0,0,2.72-0.88,1.96-3.73
							c0,0-0.38-3.89-4.29-6.9L84.67,83.36z"/>
						<path class="st22" d="M84.94,92.35c-2.22-3.74-0.76-8.89-0.69-9.11L84.32,83l1.97-0.51l0.17,0.13
							c3.85,2.97,4.4,6.73,4.45,7.16c0.66,2.55-1.19,3.88-2.28,4.23c-0.31,0.08-0.6,0.12-0.87,0.12
							C86.27,94.14,85.29,93.04,84.94,92.35z M90.06,89.98l-0.01-0.07c0-0.04-0.41-3.63-3.96-6.47l-1.06,0.27
							c-0.25,1.03-1.11,5.21,0.67,8.2l0.02,0.03c0.04,0.07,0.89,1.71,2.67,1.24C88.57,93.12,90.68,92.34,90.06,89.98z"/>
					</g>
					<g>
						<path class="st23" d="M85.75,83.4c0,0,0.24,3.21,2.65,9.78c0,0,2.54-1.19,1.49-3.81C89.9,89.37,89.42,85.47,85.75,83.4z"/>
					</g>
					<g>
						<path class="st20" d="M85.38,91.92c0,0,0.66-1.8,1.71-2.85c0,0,1.71,0.2,3.22,0.96c0,0-0.05-0.53-0.39-1.35
							c0,0-1.94-0.99-3.24-0.83c0,0-1.2,0.93-1.84,2.76C84.83,90.6,84.95,91.07,85.38,91.92z"/>
					</g>
					<g>
						<path class="st20" d="M84.43,88.6c0,0,0.86-1.49,1.81-2.31c0,0,1.85,0.13,3.08,0.81c0,0-0.1-0.41-0.58-1.14
							c0,0-1.67-0.76-2.78-0.69c0,0-0.89,0.56-1.54,2.03C84.42,87.3,84.37,87.59,84.43,88.6z"/>
					</g>
				</g>
				<g>
					<path class="st22" d="M85.1,83.33c0.2,0.77,0.42,1.52,0.64,2.27c0.23,0.75,0.46,1.5,0.71,2.25c0.25,0.74,0.5,1.49,0.77,2.22
						c0.27,0.74,0.55,1.47,0.84,2.2c-0.25-0.74-0.49-1.49-0.72-2.24c-0.23-0.75-0.45-1.5-0.66-2.26c-0.21-0.76-0.4-1.51-0.59-2.27
						c-0.19-0.76-0.36-1.52-0.52-2.29L85.1,83.33z"/>
				</g>
			</g>
			<g>
				<g>
					<g>
						<path class="st21" d="M79.79,84.76c0,0-1.09,5.38,1.3,8.79c0,0,1.15,1.95,3.24,1.1c0,0,2.61-1.2,1.65-4
							c0,0-0.67-3.88-4.73-6.47L79.79,84.76z"/>
						<path class="st22" d="M80.73,93.79c-2.46-3.52-1.41-8.89-1.37-9.12l0.05-0.23l1.89-0.74l0.19,0.12
							c4.01,2.56,4.83,6.29,4.92,6.73c0.83,2.49-0.87,4.03-1.91,4.51c-0.42,0.17-0.82,0.24-1.18,0.24
							C82.02,95.3,81.1,94.4,80.73,93.79z M85.57,90.8l-0.02-0.07c-0.01-0.04-0.67-3.61-4.35-6.06l-1.02,0.4
							c-0.17,1.04-0.71,5.4,1.27,8.23l0.02,0.03c0.04,0.07,0.98,1.61,2.69,0.92C84.33,94.17,86.37,93.12,85.57,90.8z"/>
					</g>
					<g>
						<path class="st23" d="M80.86,84.67c0,0,0.48,3.21,3.34,9.57c0,0,2.4-1.5,1.18-4.02C85.38,90.22,84.61,86.34,80.86,84.67z"/>
					</g>
					<g>
						<path class="st20" d="M81.13,93.31c0,0,0.51-1.89,1.46-3.08c0,0,1.7,0.01,3.23,0.59c0,0-0.09-0.53-0.49-1.32
							c0,0-1.98-0.78-3.24-0.47c0,0-1.1,1.08-1.6,3C80.5,92.05,80.65,92.51,81.13,93.31z"/>
					</g>
					<g>
						<path class="st20" d="M79.95,90.07c0,0,0.73-1.61,1.6-2.55c0,0,1.82-0.08,3.08,0.46c0,0-0.13-0.4-0.66-1.08
							c0,0-1.69-0.58-2.78-0.37c0,0-0.83,0.67-1.36,2.23C79.84,88.76,79.82,89.06,79.95,90.07z"/>
					</g>
				</g>
				<g>
					<path class="st22" d="M80.22,84.67c0.25,0.75,0.52,1.49,0.8,2.22c0.28,0.73,0.57,1.46,0.87,2.19c0.3,0.72,0.61,1.44,0.93,2.16
						c0.32,0.71,0.65,1.42,0.99,2.12c-0.3-0.72-0.6-1.45-0.88-2.18c-0.28-0.73-0.55-1.47-0.81-2.2c-0.26-0.74-0.51-1.48-0.75-2.23
						c-0.24-0.75-0.47-1.5-0.68-2.25L80.22,84.67z"/>
				</g>
			</g>
			<g>
				<g>
					<g>
						<path class="st21" d="M76.17,85.49c0,0-1.83,5.12,0.02,9.02c0,0,0.85,2.18,3,1.78c0,0,2.71-0.64,2.18-3.63
							c0,0-0.1-4-3.69-7.44L76.17,85.49z"/>
						<path class="st22" d="M75.79,94.68c-1.89-4.01-0.11-9.12-0.03-9.34l0.09-0.24l1.97-0.34l0.16,0.15
							c3.54,3.39,3.8,7.27,3.82,7.71c0.46,2.66-1.44,3.84-2.51,4.1l-0.02,0c-0.2,0.04-0.4,0.06-0.59,0.06
							C77.06,96.78,76.1,95.47,75.79,94.68z M80.93,92.74l-0.01-0.07c0-0.04-0.13-3.74-3.4-6.98l-1.03,0.18
							c-0.32,1.04-1.45,5.23,0.08,8.45l0.01,0.03c0.03,0.08,0.75,1.83,2.5,1.51C79.28,95.82,81.38,95.23,80.93,92.74z"/>
					</g>
					<g>
						<path class="st23" d="M77.23,85.63c0,0,0.01,3.3,1.89,10.23c0,0,2.56-0.98,1.72-3.75C80.84,92.11,80.65,88.09,77.23,85.63z"/>
					</g>
					<g>
						<path class="st20" d="M76.25,94.28c0,0,0.77-1.77,1.86-2.75c0,0,1.65,0.37,3.06,1.27c0,0-0.01-0.55-0.29-1.41
							c0,0-1.82-1.19-3.1-1.15c0,0-1.23,0.84-1.98,2.65C75.82,92.89,75.9,93.38,76.25,94.28z"/>
					</g>
					<g>
						<path class="st20" d="M75.57,90.81c0,0,0.94-1.44,1.93-2.19c0,0,1.79,0.31,2.94,1.11c0,0-0.07-0.42-0.49-1.22
							c0,0-1.57-0.93-2.66-0.96c0,0-0.91,0.49-1.64,1.93C75.65,89.48,75.58,89.78,75.57,90.81z"/>
					</g>
				</g>
				<g>
					<path class="st22" d="M76.6,85.5c0.14,0.8,0.3,1.59,0.46,2.38c0.17,0.79,0.34,1.57,0.53,2.36c0.19,0.78,0.39,1.56,0.6,2.34
						c0.21,0.78,0.43,1.55,0.66,2.32c-0.19-0.78-0.38-1.56-0.54-2.35c-0.17-0.79-0.33-1.57-0.48-2.36
						c-0.15-0.79-0.29-1.58-0.41-2.37c-0.13-0.79-0.25-1.59-0.34-2.38L76.6,85.5z"/>
				</g>
			</g>
			<g>
				<g>
					<path class="st3" d="M61.78,88.99c0,0,13.28,4.17,26.46-3.14c0,0,0.46-0.66,0.39-1.15c0,0-0.37-2.95-0.55-3.58
						c-0.15-0.52-0.4-0.68-0.84-0.26c0,0-6.36,6.19-25.5,3.43c0,0-0.32-1.12-0.82,0.1C60.91,84.4,60.82,89.01,61.78,88.99z"/>
					<path class="st4" d="M61.7,89.42c-0.14-0.01-0.31-0.07-0.48-0.23c-0.77-0.77-0.77-3.87-0.75-4.8l0-0.08l0.03-0.08
						c0.1-0.24,0.37-0.87,0.9-0.84c0.33,0.02,0.53,0.28,0.64,0.51c18.45,2.6,24.82-3.29,24.88-3.35c0.32-0.31,0.63-0.42,0.92-0.34
						c0.45,0.12,0.59,0.63,0.64,0.79c0.19,0.64,0.53,3.34,0.56,3.63c0.09,0.62-0.37,1.33-0.46,1.46l-0.06,0.08l-0.09,0.05
						c-6.2,3.44-12.47,4.35-17.38,4.35C65.88,90.58,62.2,89.56,61.7,89.42z M88.19,84.76c-0.1-0.81-0.4-3.02-0.54-3.51
						c-0.02-0.05-0.03-0.1-0.04-0.13c-0.02,0.02-0.04,0.04-0.07,0.06c-0.22,0.21-4.55,4.27-16.51,4.27c-2.71,0-5.82-0.21-9.36-0.72
						l-0.28-0.04l-0.04-0.16c-0.02,1.88,0.19,3.7,0.48,4.01h0.02l0.07,0.02c0.13,0.04,13.19,4.01,26.02-3.05
						C88.07,85.3,88.22,84.95,88.19,84.76z"/>
				</g>
				<g>
					<path class="st5" d="M61.14,85c0.51-0.9,0.79-0.08,0.79-0.08C79.4,86.99,86.65,82,86.65,82c0.12-0.09,0.24,0.07,0.33,0.05
						c-0.07,1.48-0.27,3.77-2.89,5.38c-14.56,4.52-22.18,1.13-22.18,1.13C60.98,88.58,61.14,85,61.14,85z"/>
				</g>
				<g>
					<path class="st6" d="M85.64,82.56c0,0-8.83,4.34-23.5,2.36c0,0-0.72-0.02-0.88,0.38c0,0-0.32,1.28,0.41,3.06
						c0,0,0.95-0.09,1.07-2.13c0,0,14.35,2.22,22.3-2.64C85.05,83.59,87.32,81.8,85.64,82.56z"/>
				</g>
			</g>
		</g>
		<g>
			<path class="st13" d="M69.45,77.87c0,0-0.02,1.07,1.29,1.13c0,0-0.11,1.15,1.56,2.13c0,0-1.29,1.1-3.4-0.17
				c0,0-3.5-2.56-1.68-5.7c0,0,1.85-0.68,3.42-0.01c0,0,0.14,0.4,0.01,1.2C70.65,76.45,69.19,76.46,69.45,77.87z"/>
			<path class="st1" d="M68.67,81.34l-0.03-0.02c-1.32-0.97-3.4-3.52-1.8-6.27l0.08-0.14l0.15-0.05c0.08-0.03,2.04-0.73,3.74,0
				l0.18,0.08l0.06,0.18c0.02,0.05,0.17,0.53,0.03,1.41l-0.06,0.36l-0.36,0.01c-0.13,0-0.5,0.06-0.68,0.28
				c-0.11,0.14-0.14,0.35-0.09,0.63l0.01,0.08c0,0.15,0.07,0.66,0.87,0.69l0.44,0.03l-0.02,0.44c0,0.04-0.03,0.91,1.35,1.72
				l0.53,0.31l-0.47,0.4c-0.04,0.03-0.66,0.55-1.72,0.55C70.26,82.01,69.52,81.85,68.67,81.34z M70.34,79.39
				c-1.05-0.21-1.31-1.08-1.32-1.48c-0.11-0.65,0.09-1.07,0.29-1.3c0.28-0.34,0.66-0.48,0.95-0.54c0.02-0.22,0.01-0.38,0-0.49
				c-1.1-0.37-2.32-0.07-2.74,0.05c-1.38,2.63,1.37,4.78,1.63,4.98c1.03,0.61,1.81,0.6,2.3,0.47C70.68,80.44,70.43,79.8,70.34,79.39
				z"/>
		</g>
		<g>
			<path class="st14" d="M69.2,76.02c0,0-1.07,3.63,2.17,5.02c0,0-2.1,0.69-3.79-1.98c0,0-0.93-2.22-0.08-3.31
				C67.5,75.75,67.79,76.43,69.2,76.02z"/>
		</g>
		<g>
			<path class="st6" d="M67.5,75.75c0,0-1.39,3.02,1.72,4.97c0,0-2.07-1.72-1.09-4.66c0,0,1.16,0.05,1.84-0.38
				C69.96,75.68,68.68,74.88,67.5,75.75z"/>
		</g>
	</g>
	<g>
		<g>
			<path class="st1" d="M94.96,69.37c0.11,0.05,0.22,0.11,0.33,0.18c-0.11,0.07-0.23,0.14-0.36,0.2L94.96,69.37z"/>
		</g>
		<g>
			<path class="st0" d="M83.8,65.7c0,0,4.26-0.98,9.23,0.15c0,0-2.09,3.68-0.5,6.6c0,0-3.57-0.38-6.53-0.58
				c-1.05-0.07-3.12,2.19-4.88,3.26c-2.04,1.24-5.83-1.31-3.75-4.46C77.66,70.23,80.24,66.71,83.8,65.7z"/>
			<path class="st1" d="M77.27,74.73c-1.15-1.19-1.25-2.8-0.26-4.3c0.03-0.04,2.75-4.03,6.67-5.15l0.02-0.01
				c0.18-0.04,4.42-0.99,9.43,0.15l0.57,0.13l-0.29,0.51c-0.02,0.03-1.96,3.5-0.49,6.18l0.4,0.73l-0.83-0.09
				c-0.04,0-3.6-0.38-6.52-0.58c-0.47-0.03-1.6,0.88-2.49,1.61c-0.7,0.57-1.43,1.16-2.12,1.59c-0.43,0.26-0.93,0.39-1.44,0.39
				C78.98,75.89,78,75.48,77.27,74.73z M86.03,71.44c2.13,0.14,4.59,0.38,5.8,0.5c-0.82-2.28,0.08-4.73,0.56-5.78
				c-4.46-0.88-8.26-0.08-8.48-0.03c-3.62,1.03-6.14,4.75-6.17,4.78c-1.08,1.64-0.25,2.8,0.16,3.22c0.84,0.87,2.16,1.15,3,0.63
				c0.65-0.39,1.35-0.97,2.03-1.52c1.19-0.97,2.22-1.8,3.03-1.8C85.98,71.44,86.01,71.44,86.03,71.44z"/>
		</g>
		<g>
			<path class="st2" d="M80.29,74.76c0,0-2.24,0.22-0.6-3.59c0,0,2.09-2.38,4.64-3.15c0,0,4.21,0.11,4.99,0.17
				c0,0-0.67,1.83,0.73,3.62c0,0-4.15-0.52-4.61-0.35c0,0-2.14,1.33-3.71,2.65C81.73,74.12,80.93,74.9,80.29,74.76z"/>
		</g>
		<g>
			<g>
				<g>
					<path class="st3" d="M89.69,72.34c0,0-1.82-3.6,0.67-7.08l4.28,0.17c0,0-2.53,3.12-1.12,7.43
						C93.52,72.86,91.1,72.64,89.69,72.34z"/>
					<path class="st4" d="M93.48,73.3c-0.1-0.01-2.46-0.22-3.88-0.53l-0.2-0.04l-0.09-0.19c-0.08-0.16-1.91-3.88,0.7-7.53l0.14-0.19
						l5.38,0.22l-0.54,0.67c-0.1,0.12-2.36,3-1.04,7.02l0.21,0.63L93.48,73.3z M90.58,65.71c-1.84,2.76-0.9,5.51-0.59,6.25
						c0.92,0.18,2.18,0.33,2.93,0.4c-0.77-3.04,0.27-5.42,0.92-6.53L90.58,65.71z"/>
				</g>
				<g>
					<path class="st5" d="M90.59,65.81c0,0-2.28,5.05,2.21,5.7c0,0-0.63-2.74,0.95-5.52L90.59,65.81z"/>
				</g>
			</g>
			<g>
				<path class="st6" d="M93.88,65.81l-3.29,0c0,0-1.03,2.39,2.34,3.94C92.93,69.75,93.16,67.69,93.88,65.81z"/>
			</g>
		</g>
		<g>
			<g>
				<path class="st0" d="M95.77,65.19c0,0-1.75-0.12-2.49,2.63c0,0-1.34,3.31,1.61,6.82c0,0,2.35-0.6,3.32-0.02
					c0,0,1.4,0.01,1.5-1.16c0,0,2.23-0.46,1.93-1.18c0,0-0.81-1.17-0.43-2.72c0,0-0.14-0.91-0.69-1.15l-0.24-1.28
					c0,0-0.04-0.14-0.64-0.17l-0.34-1.25C99.29,65.72,97.34,65.26,95.77,65.19z"/>
				<path class="st1" d="M94.55,74.93c-2.98-3.55-1.83-6.88-1.69-7.24c0.81-2.96,2.75-2.93,2.93-2.93c1.6,0.07,3.52,0.52,3.6,0.54
					l0.25,0.06l0.33,1.21c0.29,0.04,0.63,0.16,0.72,0.46l0.22,1.12c0.57,0.41,0.72,1.25,0.73,1.36l0.01,0.09l-0.02,0.09
					c-0.32,1.33,0.36,2.36,0.36,2.37l0.04,0.08c0.09,0.22,0.08,0.45-0.03,0.67c-0.29,0.56-1.34,0.9-1.92,1.04
					c-0.27,0.98-1.31,1.25-1.88,1.24l-0.12,0L97.98,75c-0.59-0.35-2.14-0.15-2.98,0.07l-0.27,0.07L94.55,74.93z M100.76,69.56
					c-0.05-0.24-0.2-0.65-0.43-0.75l-0.21-0.09l-0.25-1.29c-0.06-0.01-0.15-0.02-0.27-0.03l-0.31-0.02l-0.36-1.3
					c-0.57-0.12-2-0.41-3.19-0.46l-0.01,0c-0.02,0-1.4-0.07-2.04,2.31l-0.02,0.05c-0.05,0.12-1.15,3,1.37,6.18
					c0.67-0.15,2.31-0.43,3.25,0.03c0.26-0.02,0.91-0.13,0.97-0.76l0.03-0.32l0.32-0.07c0.68-0.14,1.41-0.43,1.59-0.62
					C101,72.08,100.45,70.97,100.76,69.56z"/>
			</g>
			<g>
				<path class="st2" d="M94.72,68.36c0,0-1.45,2.06,0.56,5.73c0,0,0.62-0.52,2.89-0.03c0,0,1.03-0.36,0.58-1.21
					c0,0-0.7-1.12-1.67-1.44c0,0,1.46-0.64,2.8,1.43c0,0,0.95,0.08,1.11-0.44c0,0-0.64-0.83-0.8-1.97c0,0-0.29-1.63-1.46-1.9
					c0,0,0.52-0.7-0.43-1.25c0,0-1.28-0.55-2.6-0.15C95.7,67.14,95.02,67.69,94.72,68.36z"/>
			</g>
			<g>
				<g>
					<path class="st1" d="M99.96,73.95c0.03-0.04,0.03-0.06,0.05-0.08c0.01-0.02,0.02-0.04,0.03-0.07c0.02-0.04,0.03-0.09,0.04-0.13
						c0.02-0.09,0.04-0.18,0.04-0.26c0.01-0.18-0.02-0.36-0.08-0.51c-0.12-0.31-0.34-0.53-0.55-0.7c-0.22-0.16-0.45-0.28-0.68-0.38
						c-0.23-0.1-0.47-0.17-0.7-0.25l-0.03-0.01l-0.01,0c-0.11-0.01-0.25-0.06-0.36-0.13c-0.11-0.07-0.2-0.18-0.27-0.3
						c-0.06-0.13-0.1-0.27-0.11-0.42c0-0.07,0-0.15,0-0.23l0.02-0.23l-0.07,0.22c-0.01,0.08-0.03,0.15-0.04,0.23
						c-0.01,0.16-0.01,0.32,0.04,0.48c0.05,0.16,0.14,0.31,0.27,0.43c0.13,0.12,0.27,0.21,0.46,0.27l-0.03-0.01
						c0.21,0.11,0.41,0.22,0.6,0.35c0.19,0.12,0.36,0.27,0.5,0.42c0.13,0.15,0.23,0.32,0.25,0.46c0.01,0.07,0.01,0.14-0.01,0.2
						c-0.01,0.03-0.02,0.06-0.03,0.08c-0.01,0.01-0.01,0.03-0.02,0.03c0,0-0.01,0.01-0.01,0.01c0,0-0.01,0.01,0-0.01L99.96,73.95z"
						/>
				</g>
				<g>
					<path class="st1" d="M98.3,72.09c0.23-0.24,0.47-0.49,0.71-0.72c0.24-0.23,0.48-0.47,0.76-0.67c-0.17,0.03-0.34,0.08-0.5,0.13
						c-0.17,0.05-0.33,0.11-0.49,0.17c-0.33,0.12-0.65,0.24-0.97,0.38L98.3,72.09z"/>
				</g>
				<g>
					<polygon class="st1" points="100.57,67.99 97.95,68.07 100.46,68.85 					"/>
				</g>
				<g>
					<polygon class="st1" points="99.71,66.54 97.68,66.6 99.55,67.4 					"/>
				</g>
			</g>
		</g>
	</g>
	<g>
		<g>
			<g>
				<path class="st13" d="M52.29,66.66c0,0-0.15-0.92-1.98-1.23c0,0-2.35-0.7-3.28,2.25c0,0-1.56,1.08,0.2,2.83
					c0,0-0.03,1.44,1.42,1.41c0,0-0.25,1.37,0.97,1.29c0,0,0.79-0.38,2.68-0.58c0,0,1.09-0.04,0.17-1.46c0,0,1.41-0.29,0.92-1.54
					c0,0,1.09-0.67,0.52-1.93C53.91,67.69,53.33,66.18,52.29,66.66z"/>
				<path class="st1" d="M48.63,73.17c-0.25-0.29-0.31-0.67-0.32-0.94c-0.36-0.05-0.67-0.19-0.9-0.43
					c-0.38-0.38-0.47-0.89-0.49-1.14c-0.61-0.64-0.9-1.28-0.84-1.91c0.06-0.66,0.48-1.09,0.68-1.26c0.98-2.93,3.36-2.44,3.63-2.37
					c1.34,0.23,1.88,0.78,2.1,1.15c0.22-0.04,0.45-0.02,0.66,0.07c0.67,0.28,1.02,1.1,1.07,1.24c0.46,1.02,0,1.8-0.44,2.17
					c0.09,0.35,0.06,0.68-0.1,0.96c-0.18,0.32-0.47,0.52-0.72,0.64c0.24,0.47,0.28,0.86,0.13,1.16c-0.21,0.39-0.65,0.44-0.75,0.45
					c-1.79,0.2-2.56,0.55-2.56,0.55l-0.06,0.03l-0.06,0c-0.04,0-0.07,0-0.11,0C49.06,73.54,48.78,73.34,48.63,73.17z M52.27,72.3
					l0.03,0c0.02,0,0.16-0.02,0.2-0.1c0.02-0.04,0.09-0.25-0.3-0.86l-0.26-0.4l0.47-0.1c0.14-0.03,0.54-0.17,0.69-0.45
					c0.09-0.17,0.09-0.39-0.02-0.65l-0.1-0.25l0.23-0.14c0.03-0.02,0.84-0.53,0.39-1.51l-0.01-0.02c-0.07-0.18-0.34-0.73-0.71-0.88
					c-0.15-0.06-0.29-0.05-0.46,0.03l-0.39,0.18l-0.07-0.42c0-0.01-0.18-0.7-1.71-0.96l-0.04-0.01c-0.08-0.03-2.05-0.57-2.87,2.03
					l-0.04,0.11l-0.09,0.06c0,0-0.45,0.33-0.49,0.86c-0.04,0.45,0.21,0.95,0.74,1.47l0.1,0.1l0,0.14c0,0.01,0,0.5,0.31,0.81
					c0.18,0.18,0.45,0.27,0.78,0.26l0.4-0.01l-0.07,0.4c-0.02,0.13-0.05,0.55,0.14,0.76c0.03,0.04,0.13,0.16,0.43,0.15
					C49.79,72.79,50.63,72.48,52.27,72.3z"/>
			</g>
			<g>
				<path class="st14" d="M47.27,67.77c0,0,0.17-1.34,1.77-1.6c0,0,1.61-0.49,2.31,1.08c0,0,1.02-0.44,1.58,0.66
					c0,0,0.65,1.55-0.93,1.8c0,0,1.15,0.66-0.76,1.15c0,0,1.29,1,0.04,1.22c0,0-0.69,0.16-1.72,0.57c0,0-0.88,0.36-0.38-1.13
					c0,0-1.64,0.64-1.69-1.26C47.49,70.25,45.79,68.89,47.27,67.77z"/>
			</g>
			<g>
				<path class="st6" d="M47.92,66.82c0.14-0.65-0.48,0.36-0.62,1.16c0,0-0.9,0.46-0.48,1.5c0,0,0.2,0.56,0.68,0.86
					c0,0-0.84-1.34,0.37-2.4C47.87,67.93,47.68,67.95,47.92,66.82z"/>
			</g>
			<g>
				<g>
					<path class="st13" d="M50.61,67.88c0.25-0.17,0.58-0.59,1.48-0.19c0,0,0.91,0.44,0.17,1.61c0,0-0.88,0.48-1.78,0.1
						C50.49,69.4,49.95,68.32,50.61,67.88z"/>
					<path class="st1" d="M50.36,69.71l-0.11-0.05l-0.05-0.11c-0.25-0.5-0.48-1.47,0.24-1.94v0c0.03-0.02,0.06-0.04,0.09-0.07
						c0.26-0.2,0.75-0.57,1.71-0.15c0.05,0.02,0.45,0.23,0.6,0.73c0.12,0.4,0.02,0.86-0.29,1.35l-0.05,0.07l-0.07,0.04
						c-0.03,0.02-0.54,0.29-1.2,0.29C50.95,69.87,50.66,69.83,50.36,69.71z M52.21,68.32c-0.06-0.22-0.24-0.32-0.24-0.32h0
						c-0.6-0.26-0.83-0.09-1.04,0.07c-0.05,0.03-0.09,0.07-0.13,0.09c-0.32,0.21-0.15,0.75-0.06,0.99c0.57,0.18,1.11-0.02,1.3-0.1
						C52.2,68.76,52.26,68.51,52.21,68.32z"/>
				</g>
				<g>
					<path class="st13" d="M49.88,70.9c0,0-0.51,0.74,0.26,0.83c0,0,0.88,0.03,0.76-0.29c0,0,0.18-0.55-0.53-0.86
						C50.38,70.58,50.1,70.39,49.88,70.9z"/>
					<path class="st1" d="M50.13,72.06l-0.03,0c-0.41-0.05-0.58-0.25-0.66-0.41c-0.17-0.36,0.06-0.77,0.14-0.9
						c0.12-0.27,0.29-0.44,0.5-0.5c0.17-0.05,0.33-0.01,0.43,0.05c0.68,0.31,0.77,0.84,0.72,1.16c0.01,0.11-0.02,0.23-0.08,0.32
						c-0.18,0.25-0.61,0.3-0.91,0.3C50.21,72.06,50.17,72.06,50.13,72.06z M50.6,71.33c0-0.01,0.08-0.26-0.33-0.45
						c-0.02,0.02-0.05,0.07-0.08,0.14l-0.03,0.06c-0.06,0.09-0.12,0.24-0.11,0.28c0,0,0.03,0.03,0.13,0.04
						c0.15,0,0.31-0.01,0.41-0.03L50.6,71.33z"/>
				</g>
				<g>
					<path class="st13" d="M48.62,68.25c-0.25-0.06-0.65-0.32-1.17,0.28c0,0-0.5,0.65,0.48,1.41c0,0,0.83,0.14,1.35-0.45
						C49.29,69.5,49.28,68.42,48.62,68.25z"/>
					<path class="st1" d="M47.88,70.27l-0.08-0.01l-0.06-0.05c-0.98-0.77-0.78-1.56-0.52-1.88c0.59-0.69,1.14-0.51,1.41-0.42
						c0.03,0.01,0.06,0.02,0.09,0.03l0,0c0.71,0.18,0.91,1.07,0.91,1.56l0,0.13l-0.08,0.09c-0.44,0.49-1.03,0.57-1.37,0.57
						C48,70.29,47.89,70.27,47.88,70.27z M48.54,68.57c-0.04-0.01-0.08-0.02-0.13-0.04c-0.22-0.08-0.4-0.13-0.7,0.21
						c0,0-0.28,0.37,0.35,0.9c0.17,0.01,0.58,0,0.89-0.26C48.93,69.11,48.83,68.64,48.54,68.57z"/>
				</g>
			</g>
			<g>
				<path class="st6" d="M47.95,70.63c0,0,0.91,0.45,1.3-0.11c0,0,0.14,0.72-0.74,0.87C48.51,71.39,47.77,70.94,47.95,70.63z"/>
			</g>
			<g>
				<path class="st6" d="M50.71,68.34c0.13-0.08,0.29-0.29,0.74-0.1c0,0,0.45,0.22,0.08,0.8c0,0-0.43,0.24-0.88,0.05
					C50.64,69.1,50.37,68.56,50.71,68.34z"/>
			</g>
			<g>
				<path class="st6" d="M50.01,71c0,0-0.25,0.37,0.13,0.41c0,0,0.44,0.02,0.38-0.14c0,0,0.09-0.27-0.27-0.43
					C50.26,70.84,50.12,70.74,50.01,71z"/>
			</g>
			<g>
				<path class="st6" d="M48.12,68.79c-0.12-0.03-0.32-0.16-0.58,0.14c0,0-0.25,0.32,0.24,0.7c0,0,0.41,0.07,0.67-0.22
					C48.45,69.41,48.45,68.88,48.12,68.79z"/>
			</g>
		</g>
		<g>
			<g>
				<g>
					<g>
						<path class="st0" d="M82.89,48.29c0,0,5.25,1.96,2.31,6.69c-1.86,2.99-4.96,3.15-4.96,3.15l-2.69-3.81
							C77.54,54.33,77.11,47.78,82.89,48.29z"/>
					</g>
				</g>
				<g>
					<g>
						<path class="st1" d="M77.48,51.88c0.06-0.41,0.13-0.83,0.28-1.23c0.19-0.38,0.4-0.75,0.65-1.09c0.52-0.68,1.24-1.2,2.04-1.47
							c0.8-0.27,1.64-0.32,2.45-0.25l0.06,0.01l0.05,0.02c0.32,0.13,0.59,0.27,0.87,0.43c0.28,0.16,0.54,0.34,0.8,0.54
							c0.51,0.4,0.98,0.9,1.31,1.5c0.34,0.6,0.52,1.3,0.5,1.99c-0.01,0.69-0.2,1.34-0.45,1.92c-0.52,1.16-1.31,2.19-2.32,2.94
							c-0.12,0.1-0.24,0.2-0.39,0.27c-0.14,0.07-0.28,0.13-0.43,0.19c-0.29,0.12-0.58,0.21-0.88,0.29c-0.6,0.15-1.21,0.23-1.81,0.18
							c0.58-0.15,1.11-0.39,1.61-0.67c0.25-0.14,0.49-0.3,0.71-0.47c0.11-0.08,0.22-0.17,0.33-0.26c0.11-0.09,0.23-0.16,0.34-0.24
							c0.89-0.66,1.6-1.57,2.06-2.6c0.22-0.51,0.37-1.05,0.38-1.59c0.01-0.54-0.12-1.06-0.39-1.53c-0.52-0.92-1.5-1.63-2.48-2.05
							c0.02,0,0.04,0,0.06,0l-0.11-0.02c0.02,0.01,0.03,0.01,0.05,0.02c-0.71-0.06-1.41-0.01-2.06,0.21
							c-0.66,0.22-1.23,0.64-1.66,1.19c-0.21,0.28-0.4,0.59-0.53,0.92c-0.17,0.32-0.34,0.65-0.47,1.01
							c-0.26,0.71-0.45,1.48-0.54,2.27c-0.08-0.4-0.12-0.8-0.13-1.21C77.41,52.71,77.42,52.29,77.48,51.88z"/>
					</g>
				</g>
				<g>
					<g>
						<path class="st1" d="M82.8,48.72c-0.02-0.01-0.03-0.01-0.05-0.02l0.11,0.02C82.84,48.72,82.82,48.72,82.8,48.72z"/>
					</g>
				</g>
			</g>
			<g>
				<g>
					<path class="st24" d="M79.58,52.19c0,0,0.99-2.02,3.52-1.76c0,0,2.67,3.42-1.8,5.17c0,0-1.54,0.55-0.75-1.97
						C80.68,53.19,79.54,52.91,79.58,52.19z"/>
				</g>
			</g>
			<g>
				<g>
					<path class="st1" d="M79.98,52.31c-0.1,0.12-0.2,0.25-0.3,0.37l-0.21-0.52c0.15,0.02,0.27,0.06,0.4,0.1
						C79.9,52.28,79.94,52.29,79.98,52.31z"/>
				</g>
			</g>
			<g>
				<g>
					<path class="st1" d="M79.4,52.79l-0.54-0.1l0.33-0.42c0.3-0.38,0.63-0.75,1-1.07c0.37-0.33,0.79-0.62,1.28-0.78
						c0.25-0.08,0.52-0.11,0.8-0.06c0.27,0.05,0.53,0.18,0.72,0.37c0.19,0.18,0.34,0.4,0.45,0.63c0.11,0.23,0.19,0.47,0.23,0.71
						c-0.2-0.45-0.48-0.87-0.84-1.12c-0.18-0.12-0.38-0.2-0.58-0.21c-0.2-0.01-0.4,0.04-0.6,0.12c-0.39,0.17-0.74,0.46-1.06,0.78
						c-0.21,0.21-0.41,0.44-0.6,0.67c-0.04-0.02-0.07-0.03-0.11-0.04c-0.13-0.04-0.25-0.08-0.4-0.1l0.21,0.52
						c0.1-0.13,0.2-0.25,0.3-0.37c0.09,0.04,0.18,0.08,0.26,0.13c0.24,0.15,0.49,0.4,0.58,0.74c0.09,0.33,0.02,0.64-0.09,0.89
						c-0.1,0.24-0.23,0.45-0.38,0.64c0-0.01,0.01-0.02,0.01-0.03l-0.03,0.05c0.01-0.01,0.01-0.02,0.02-0.02
						c-0.03,0.07-0.06,0.16-0.06,0.23c-0.01,0.09,0.01,0.16,0.04,0.21c0.06,0.11,0.28,0.2,0.51,0.22c0.23,0.02,0.47,0.02,0.71-0.01
						c0.24-0.02,0.49-0.06,0.74-0.09c-0.22,0.11-0.45,0.21-0.69,0.29c-0.24,0.07-0.49,0.14-0.76,0.16c-0.13,0.01-0.27,0-0.42-0.03
						c-0.15-0.03-0.31-0.1-0.44-0.25c-0.13-0.15-0.18-0.34-0.19-0.51c0-0.17,0.02-0.32,0.08-0.48l0-0.01l0.02-0.03
						c0.12-0.18,0.22-0.37,0.28-0.56c0.06-0.19,0.08-0.37,0.04-0.5c-0.04-0.13-0.14-0.25-0.3-0.34
						C79.78,52.9,79.57,52.83,79.4,52.79z"/>
				</g>
			</g>
			<g>
				<g>
					<path class="st1" d="M80.36,54.7c-0.01,0.01-0.01,0.02-0.02,0.02l0.03-0.05C80.36,54.69,80.36,54.7,80.36,54.7z"/>
				</g>
			</g>
		</g>
		<g>
			<g>
				<g>
					<g>
						<path class="st21" d="M60.54,40.29c0,0,3.55-7.92,1.21-14.58c0,0-1.02-3.69-4.43-3.47c0,0-4.31,0.5-3.89,5.43
							c0,0-0.4,6.48,4.72,12.74L60.54,40.29z"/>
						<path class="st22" d="M57.82,40.68c-5.03-6.16-4.85-12.44-4.82-13.01c-0.43-5.25,4.22-5.86,4.27-5.86l0.02,0
							c3.58-0.23,4.78,3.48,4.87,3.77c2.36,6.74-1.08,14.56-1.22,14.89l-0.11,0.24l-2.87,0.14L57.82,40.68z M61.34,25.86l-0.01-0.03
							c-0.01-0.03-0.96-3.34-3.97-3.15c-0.27,0.03-3.87,0.58-3.49,4.95l0,0.03l0,0.03c0,0.06-0.31,6.28,4.49,12.27l1.89-0.1
							C60.8,38.5,63.37,31.64,61.34,25.86z"/>
					</g>
					<g>
						<path class="st23" d="M58.92,39.85c0,0,0.44-5.33-1.54-16.89c0,0-4.12,1.08-3.2,5.72C54.18,28.67,53.92,35.21,58.92,39.85z"/>
					</g>
					<g>
						<path class="st20" d="M61.61,26.07c0,0-1.44,2.71-3.28,4.08c0,0-2.52-0.92-4.6-2.67c0,0-0.06,0.89,0.25,2.34
							c0,0,2.67,2.28,4.66,2.47c0,0,2.03-1.11,3.45-3.88C62.1,28.4,62.04,27.6,61.61,26.07z"/>
					</g>
					<g>
						<path class="st20" d="M62.21,31.81c0,0-1.67,2.15-3.3,3.16c0,0-2.74-0.85-4.43-2.38c0,0,0.05,0.7,0.59,2.06
							c0,0,2.31,1.82,4,2.07c0,0,1.48-0.61,2.82-2.79C61.89,33.94,62.04,33.48,62.21,31.81z"/>
					</g>
				</g>
				<g>
					<path class="st22" d="M59.88,40.19c-0.11-1.32-0.25-2.62-0.4-3.93c-0.15-1.31-0.32-2.61-0.51-3.91c-0.19-1.3-0.39-2.6-0.61-3.9
						c-0.22-1.3-0.46-2.59-0.71-3.88c0.19,1.3,0.37,2.6,0.52,3.9c0.16,1.3,0.3,2.61,0.42,3.91c0.12,1.3,0.23,2.61,0.32,3.92
						c0.09,1.3,0.16,2.62,0.21,3.91L59.88,40.19z"/>
				</g>
			</g>
			<g>
				<g>
					<g>
						<path class="st21" d="M65.3,43.17c0,0,4.93-7.06,3.82-14.02c0,0-0.34-3.8-3.74-4.24c0,0-4.35-0.33-4.81,4.56
							c0,0-1.56,6.26,2.37,13.36L65.3,43.17z"/>
						<path class="st22" d="M62.65,43.23l-0.11-0.19c-3.86-6.98-2.55-13.09-2.42-13.64c0.52-5.23,5.23-4.93,5.28-4.92l0.02,0
							c3.57,0.46,4.09,4.31,4.12,4.61c1.12,7.05-3.69,14.03-3.89,14.33l-0.15,0.22L62.65,43.23z M60.99,29.51l-0.01,0.06
							c-0.01,0.06-1.44,6.08,2.22,12.86l1.88,0.27c0.8-1.24,4.56-7.45,3.6-13.48l0-0.03c-0.01-0.14-0.36-3.45-3.35-3.85
							C65.06,25.33,61.4,25.19,60.99,29.51z"/>
					</g>
					<g>
						<path class="st23" d="M63.77,42.43c0,0,1.39-5.13,1.52-16.81c0,0-4.26,0.27-4.19,4.98C61.11,30.6,59.68,36.94,63.77,42.43z"/>
					</g>
					<g>
						<path class="st20" d="M68.92,29.47c0,0-1.91,2.38-3.97,3.36c0,0-2.33-1.38-4.06-3.49c0,0-0.22,0.86-0.17,2.33
							c0,0,2.22,2.74,4.16,3.31c0,0,2.21-0.7,4.11-3.14C68.98,31.85,69.07,31.05,68.92,29.47z"/>
					</g>
					<g>
						<path class="st20" d="M68.47,35.2c0,0-2.03,1.78-3.83,2.46c0,0-2.56-1.35-3.94-3.17c0,0-0.08,0.69,0.22,2.13
							c0,0,1.96,2.22,3.58,2.79c0,0,1.57-0.31,3.28-2.19C67.78,37.23,68.01,36.8,68.47,35.2z"/>
					</g>
				</g>
				<g>
					<path class="st22" d="M64.66,42.95c0.13-1.31,0.23-2.61,0.32-3.92c0.08-1.31,0.16-2.62,0.2-3.92c0.05-1.31,0.09-2.62,0.1-3.93
						c0.02-1.31,0.01-2.62,0-3.93c-0.05,1.31-0.1,2.61-0.19,3.92c-0.08,1.3-0.18,2.61-0.29,3.91c-0.11,1.3-0.24,2.6-0.39,3.89
						c-0.15,1.29-0.31,2.59-0.5,3.87L64.66,42.95z"/>
				</g>
			</g>
			<g>
				<g>
					<g>
						<path class="st21" d="M69.84,41.23c0,0,6.77-5.2,7.69-12.13c0,0,0.76-3.71-2.4-5.16c0,0-4.09-1.63-5.94,2.86
							c0,0-3.29,5.46-1.54,13.38L69.84,41.23z"/>
						<path class="st22" d="M67.27,40.49l-0.05-0.21C65.5,32.5,68.51,27.1,68.8,26.61c2-4.8,6.45-3.09,6.49-3.07l0.02,0.01
							c3.3,1.52,2.7,5.31,2.64,5.62c-0.94,7.03-7.57,12.19-7.85,12.41l-0.21,0.16L67.27,40.49z M69.59,26.97l-0.03,0.06
							c-0.03,0.05-3.13,5.31-1.53,12.86l1.75,0.83c1.13-0.93,6.52-5.68,7.32-11.68l0-0.03c0.01-0.03,0.65-3.37-2.14-4.67
							C74.71,24.24,71.22,23,69.59,26.97z"/>
					</g>
					<g>
						<path class="st23" d="M68.58,40.06c0,0,2.81-4.44,6.27-15.48c0,0-4.18-1.04-5.46,3.45C69.4,28.04,66.21,33.62,68.58,40.06z"/>
					</g>
					<g>
						<path class="st20" d="M77.25,29.34c0,0-2.52,1.68-4.79,1.98c0,0-1.85-2.02-2.91-4.53c0,0-0.45,0.75-0.83,2.16
							c0,0,1.36,3.28,3.06,4.4c0,0,2.33,0.01,4.85-1.73C76.63,31.61,76.94,30.88,77.25,29.34z"/>
					</g>
					<g>
						<path class="st20" d="M75.18,34.64c0,0-2.47,1.07-4.39,1.17c0,0-2.08-2.06-2.89-4.2c0,0-0.27,0.63-0.4,2.08
							c0,0,1.25,2.7,2.65,3.73c0,0,1.6,0.18,3.79-1.08C73.93,36.35,74.27,36.01,75.18,34.64z"/>
					</g>
				</g>
				<g>
					<path class="st22" d="M69.29,40.83c0.5-1.2,0.97-2.41,1.43-3.62c0.45-1.21,0.9-2.43,1.32-3.66c0.42-1.23,0.83-2.46,1.22-3.69
						c0.39-1.24,0.76-2.48,1.12-3.73c-0.42,1.22-0.85,2.45-1.3,3.66c-0.45,1.21-0.92,2.42-1.4,3.61c-0.48,1.2-0.98,2.39-1.49,3.57
						c-0.51,1.18-1.04,2.36-1.59,3.51L69.29,40.83z"/>
				</g>
			</g>
			<g>
				<g>
					<g>
						<path class="st21" d="M52.31,47.57c0,0-4.9-7.33-10.99-8.98c0,0-3.27-1.15-4.36,1.85c0,0-1.2,3.93,2.82,6.25
							c0,0,4.94,3.88,11.75,2.96L52.31,47.57z"/>
						<path class="st22" d="M39.53,47.05c-4.24-2.47-3-6.7-2.99-6.74l0.01-0.02c0.98-2.68,3.62-2.56,4.9-2.12
							c6.17,1.69,11.02,8.85,11.22,9.16l0.13,0.19l-0.96,2.53l-0.26,0.03c-0.75,0.1-1.48,0.15-2.18,0.15
							C43.82,50.23,39.92,47.35,39.53,47.05z M51.82,47.63c-0.8-1.13-5.27-7.17-10.61-8.62l-0.03-0.01
							c-0.12-0.04-2.87-0.97-3.81,1.58c-0.07,0.25-0.98,3.66,2.62,5.74l0.05,0.03c0.05,0.04,4.74,3.66,11.16,2.9L51.82,47.63z"/>
					</g>
					<g>
						<path class="st23" d="M51.36,48.7c0,0-4.02-3.28-13.83-7.92c0,0-0.68,4.08,3.3,5.83C40.84,46.61,45.87,50.4,51.36,48.7z"/>
					</g>
					<g>
						<path class="st20" d="M41.55,38.89c0,0,1.6,2.7,1.98,5c0,0-1.66,1.63-3.8,2.44c0,0,0.68,0.53,1.93,1.06
							c0,0,2.78-1.01,3.67-2.6c0,0-0.12-2.33-1.77-5.04C43.57,39.75,42.91,39.36,41.55,38.89z"/>
					</g>
					<g>
						<path class="st20" d="M46.28,41.52c0,0,1.07,2.58,1.25,4.52c0,0-1.68,1.86-3.51,2.45c0,0,0.57,0.34,1.84,0.62
							c0,0,2.28-0.97,3.11-2.26c0,0,0.07-1.58-1.14-3.91C47.84,42.95,47.52,42.58,46.28,41.52z"/>
					</g>
				</g>
				<g>
					<path class="st22" d="M51.99,48.08c-1.08-0.63-2.15-1.23-3.23-1.81c-1.08-0.58-2.17-1.16-3.26-1.71
						c-1.09-0.55-2.18-1.09-3.28-1.61c-1.1-0.53-2.2-1.03-3.31-1.52c1.09,0.55,2.18,1.11,3.26,1.69c1.08,0.58,2.16,1.17,3.23,1.78
						c1.07,0.61,2.13,1.23,3.19,1.87c1.06,0.64,2.11,1.29,3.15,1.96L51.99,48.08z"/>
				</g>
			</g>
			<g>
				<g>
					<g>
						<path class="st21" d="M56.34,45.11c0,0-3.71-8.03-9.58-10.89c0,0-3.11-1.78-4.71,0.86c0,0-1.87,3.5,1.79,6.57
							c0,0,4.34,4.74,11.36,5.29L56.34,45.11z"/>
						<path class="st22" d="M55.16,47.37c-6.94-0.54-11.26-5.01-11.63-5.41c-3.86-3.25-1.9-7.05-1.88-7.09l0.01-0.02
							c1.44-2.37,4.08-1.7,5.29-1.02c5.93,2.9,9.62,10.76,9.78,11.09l0.1,0.21l-1.41,2.25L55.16,47.37z M46.56,34.61l-0.03-0.01
							c-0.11-0.06-2.76-1.53-4.12,0.69c-0.12,0.23-1.58,3.28,1.69,6.02l0.04,0.04c0.04,0.05,4.19,4.5,10.81,5.13l0.87-1.4
							C55.21,43.81,51.7,37.11,46.56,34.61z"/>
					</g>
					<g>
						<path class="st23" d="M55.19,46c0,0-3.51-3.98-12.63-10.47c0,0-1.37,3.75,2.35,6.27C44.92,41.79,49.37,46.46,55.19,46z"/>
					</g>
					<g>
						<path class="st20" d="M46.93,34.56c0,0,1.16,2.91,1.16,5.2c0,0-1.95,1.21-4.24,1.53c0,0,0.6,0.65,1.77,1.42
							c0,0,2.98-0.38,4.14-1.71c0,0,0.27-2.25-0.94-5.19C48.82,35.81,48.23,35.29,46.93,34.56z"/>
					</g>
					<g>
						<path class="st20" d="M51.26,38.07c0,0,0.64,2.69,0.51,4.58c0,0-2.01,1.43-3.95,1.61c0,0,0.51,0.44,1.75,0.98
							c0,0,2.47-0.45,3.52-1.51c0,0,0.34-1.5-0.5-3.97C52.59,39.76,52.34,39.34,51.26,38.07z"/>
					</g>
				</g>
				<g>
					<path class="st22" d="M55.93,45.53c-0.98-0.83-1.96-1.62-2.96-2.41c-0.99-0.78-1.99-1.56-3-2.31c-1.01-0.76-2.02-1.5-3.04-2.23
						c-1.02-0.73-2.05-1.44-3.08-2.15c1.01,0.76,2.01,1.51,3,2.3c0.99,0.78,1.98,1.57,2.96,2.38c0.98,0.8,1.95,1.62,2.91,2.45
						c0.96,0.83,1.92,1.67,2.85,2.53L55.93,45.53z"/>
				</g>
			</g>
			<g>
				<g>
					<g>
						<path class="st21" d="M56.5,40.2c0,0-1.57-8.57-6.67-13.13c0,0-2.63-2.66-4.93-0.79c0,0-2.8,2.58,0.04,6.6
							c0,0,3.07,5.77,9.93,8.61L56.5,40.2z"/>
						<path class="st22" d="M54.7,41.89c-6.77-2.8-9.88-8.31-10.13-8.78c-3-4.27,0-7.12,0.03-7.15l0.02-0.02
							c2.06-1.68,4.5-0.21,5.51,0.81c5.14,4.61,6.73,13.02,6.8,13.37l0.05,0.26l-2.03,1.61L54.7,41.89z M49.54,27.39l-0.02-0.02
							c-0.02-0.02-2.36-2.36-4.34-0.76c-0.19,0.18-2.43,2.42,0.11,6.02l0.03,0.05c0.03,0.06,3,5.53,9.48,8.31l1.21-0.96
							C55.71,38.58,53.98,31.37,49.54,27.39z"/>
					</g>
					<g>
						<path class="st23" d="M55.12,40.63c0,0-2.44-4.8-9.82-13.76c0,0-2.37,2.97,0.68,6.51C45.98,33.37,49.18,39.12,55.12,40.63z"/>
					</g>
					<g>
						<path class="st20" d="M49.92,27.43c0,0,0.38,3.05-0.22,5.14c0,0-2.27,0.46-4.64-0.01c0,0,0.42,0.79,1.38,1.89
							c0,0,3.07,0.64,4.59-0.19c0,0,0.87-1.97,0.44-5.05C51.47,29.2,51.01,28.54,49.92,27.43z"/>
					</g>
					<g>
						<path class="st20" d="M53.31,32.08c0,0-0.08,2.67-0.71,4.36c0,0-2.38,0.63-4.37,0.16c0,0,0.4,0.57,1.49,1.48
							c0,0,2.58,0.41,3.91-0.21c0,0,0.73-1.26,0.56-3.8C54.18,34.07,54.04,33.6,53.31,32.08z"/>
					</g>
				</g>
				<g>
					<path class="st22" d="M55.98,40.45c-0.76-1.08-1.53-2.14-2.31-3.19c-0.78-1.05-1.58-2.09-2.38-3.11
						c-0.8-1.03-1.62-2.05-2.44-3.05c-0.82-1.01-1.66-2-2.51-2.99c0.81,1.02,1.61,2.05,2.39,3.1c0.79,1.04,1.56,2.1,2.32,3.16
						c0.76,1.06,1.51,2.13,2.25,3.21c0.74,1.08,1.47,2.17,2.17,3.26L55.98,40.45z"/>
				</g>
			</g>
			<g>
				<g>
					<path class="st25" d="M73.57,36.57c-8.44-1.89-14.42-1.45-14.42-1.45s-7.81,0.3-10.52,8.4c0,0-1.54,2.16-1.23,5.54
						c0,0,2.23,19.53,7.87,31.86c0,0,2.17,3.62,5.58,0.92c0,0,4.44-5.43,8.69-6c0,0,1.82,1.19,4.77,2.05
						c2.08,0.6,3.6,1.38,6.84-0.76c0,0,2.76-1.75,4.73-5.77c0,0,1.15-1.75-0.75-7.07c0,0-7.54-21.02-8.65-23.75
						C76.47,40.53,75.39,36.98,73.57,36.57z"/>
					<path class="st22" d="M57.76,83.22c-1.8-0.33-2.82-2.01-2.87-2.08l-0.02-0.04c-5.61-12.25-7.89-31.8-7.91-32
						c-0.3-3.24,1.02-5.39,1.27-5.77c2.8-8.23,10.82-8.63,10.89-8.64c0.06,0,6.14-0.42,14.55,1.46l0,0
						c1.98,0.44,3.07,3.77,3.22,4.24c1.13,2.77,8.35,22.89,8.65,23.75c1.85,5.18,0.91,7.12,0.72,7.43c-2,4.07-4.76,5.85-4.87,5.92
						c-3.11,2.05-4.83,1.53-6.65,0.98c-0.18-0.05-0.36-0.11-0.54-0.16c-2.54-0.74-4.25-1.71-4.74-2.01
						c-3.98,0.65-8.22,5.77-8.26,5.82l-0.07,0.07c-0.92,0.73-1.84,1.1-2.75,1.1C58.17,83.27,57.97,83.26,57.76,83.22z M69.49,75.41
						l0.16-0.02l0.14,0.09c0.02,0.01,1.8,1.17,4.65,1.99c0.19,0.06,0.37,0.11,0.56,0.17c1.76,0.54,3.15,0.96,5.93-0.87
						c0.03-0.02,2.68-1.73,4.57-5.6l0.02-0.04c0.01-0.02,0.98-1.73-0.79-6.7c-0.08-0.21-7.55-21.05-8.65-23.73l-0.01-0.04
						c-0.28-0.92-1.3-3.37-2.58-3.66c-8.27-1.85-14.23-1.44-14.31-1.44c-0.08,0-7.54,0.37-10.13,8.1l-0.02,0.06l-0.04,0.05
						c-0.01,0.02-1.44,2.06-1.15,5.23c0.02,0.19,2.28,19.58,7.82,31.7c0.1,0.16,0.94,1.41,2.26,1.65c0.84,0.15,1.72-0.13,2.62-0.84
						C60.98,81,65.26,75.97,69.49,75.41z"/>
				</g>
				<g>
					<path class="st26" d="M69.93,37.03c-7.32-2.07-15.63-0.52-15.63-0.52s-4.79,2.31-8.53,8.34c0,0-2.01,2.1-1.7,5.48
						c0,0,4.11,17.41,9.75,29.74c0,0,1.14,2.15,3.54,2.63c0,0,2.23-4.37,8.11-5.78c0,0,4.91-0.82,9.26,1.02c0,0,5.38-2.52,7.12-5.98
						c0,0,1.85-1.09-0.05-6.41c0,0-8.2-23.34-9.31-26.06C72.49,39.49,71.73,37.54,69.93,37.03z"/>
					<path class="st22" d="M57.28,83.13c-2.58-0.52-3.79-2.76-3.84-2.85l-0.01-0.02c-5.59-12.23-9.74-29.65-9.78-29.82l-0.01-0.06
						c-0.31-3.34,1.5-5.48,1.78-5.79c3.76-6.04,8.49-8.37,8.69-8.46l0.05-0.03l0.06-0.01c0.34-0.06,8.5-1.54,15.83,0.53l0,0
						c1.98,0.56,2.81,2.63,2.84,2.71c1.1,2.7,8.99,25.13,9.32,26.08c1.76,4.92,0.44,6.48-0.02,6.85c-1.83,3.51-7.05,5.98-7.27,6.09
						l-0.18,0.08l-0.18-0.08c-4.07-1.72-8.71-1.04-9-0.99c-5.58,1.34-7.78,5.51-7.8,5.55l-0.15,0.29L57.28,83.13z M74.72,77.46
						c0.92-0.46,5.26-2.75,6.74-5.7l0.06-0.12l0.11-0.07c0.02-0.01,1.46-1.12-0.24-5.89c-0.08-0.23-8.21-23.36-9.31-26.05
						c-0.01-0.02-0.7-1.75-2.27-2.2l0,0C63,35.52,55.19,36.8,54.44,36.93c-0.52,0.27-4.87,2.62-8.3,8.15l-0.06,0.07
						c-0.02,0.02-1.86,1.98-1.58,5.11c0.2,0.82,4.27,17.71,9.71,29.62c0.08,0.14,1.04,1.8,2.94,2.33c0.63-1.05,3.05-4.46,8.22-5.7
						l0.03-0.01c0.1-0.02,1.2-0.19,2.79-0.19C69.98,76.3,72.4,76.53,74.72,77.46z"/>
				</g>
				<g>
					<path class="st27" d="M60.95,36.87c0,0,3.58,14.86,13.39,40.05c0,0-11.18-5.53-17.01,5.09c0,0-8.54-26.02-10.43-37.2
						c0,0-0.3-1.75,5.95-6.82C52.85,38,55.77,35.69,60.95,36.87z"/>
				</g>
				<g>
					<path class="st28" d="M44.76,50.29c-0.31-3.19,1.56-5.16,1.56-5.16c0.63-1.03,1.3-1.95,1.96-2.75
						C49.55,47,54.09,63.05,59.43,75.1c0,0,0.68,1.46,1.69,2.39c-2.61,1.67-4.09,4.41-4.09,4.41c-2.25-0.46-3.08-3.05-3.08-3.05
						C48.63,67.2,44.76,50.29,44.76,50.29z"/>
				</g>
				<g>
					<path class="st29" d="M69.53,60.41c0,0-9.55-1.7-15.27,5.76c0,0-1.99,2.33,0.35,5.52c0,0,2.13,2.66,5.02,0.2
						c0,0,3.41-5.09,10.68-2.81c0,0,4.28-1.33,4.1-4.99C74.41,64.09,74,60.55,69.53,60.41z"/>
					<path class="st22" d="M56.84,73.36c-1.56-0.15-2.54-1.34-2.59-1.41c-2.4-3.28-0.53-5.81-0.34-6.04
						c5.64-7.36,15.01-6.03,15.66-5.93c4.76,0.16,5.26,4.03,5.27,4.06l0,0.03c0.19,3.96-4.36,5.42-4.41,5.43l-0.13,0.04l-0.13-0.04
						c-6.85-2.15-10.05,2.44-10.18,2.64l-0.03,0.05l-0.05,0.04c-0.9,0.76-1.82,1.15-2.75,1.15C57.06,73.37,56.95,73.37,56.84,73.36z
						 M70.3,68.62c0.66-0.24,3.81-1.55,3.68-4.5c-0.03-0.25-0.5-3.16-4.46-3.28l-0.06-0.01c-0.09-0.02-9.35-1.57-14.85,5.6
						l-0.01,0.02c-0.02,0.02-1.74,2.1,0.35,4.96c0.01,0.01,0.8,0.96,1.99,1.07c0.78,0.07,1.58-0.23,2.37-0.9
						C59.72,71.03,63.32,66.51,70.3,68.62z"/>
				</g>
				<g>
					<path class="st6" d="M47.84,44.61c-0.06-0.47-0.37-1.29,3.11,6.98c0,0-1.88-6.04-1.93-9.03L47.84,44.61z"/>
				</g>
				<g>
					<path class="st6" d="M60.1,37.37c0,0,0.47,1.22,3.69,9.09c0,0-2.19-6.85-2.24-9.85L60.1,37.37z"/>
				</g>
				<g>
					<path class="st26" d="M51.03,39.5c0.49,1.84,1.01,3.67,1.54,5.49c0.54,1.82,1.1,3.63,1.7,5.43c0.6,1.8,1.22,3.59,1.9,5.37
						c0.68,1.77,1.4,3.53,2.22,5.23c-0.73-1.75-1.35-3.54-1.93-5.34c-0.58-1.8-1.09-3.62-1.59-5.44c-0.49-1.82-0.95-3.66-1.39-5.49
						c-0.43-1.83-0.85-3.68-1.23-5.52L51.03,39.5z"/>
				</g>
				<g>
					<g>
						<path class="st6" d="M69.75,38.15c-7.12-1.94-15.87,0.31-15.87,0.31s-4.13,2.51-7.82,8.32c0,0-0.83,1.14-1.33,2.77
							c0.05-2.76,1.66-4.45,1.66-4.45c3.59-5.78,8.18-7.99,8.18-7.99s7.97-1.49,14.99,0.5C71.28,38.09,71.5,38.63,69.75,38.15z"/>
					</g>
					<g>
						<path class="st22" d="M45.35,44.8c0,0.05,0,0.07,0,0.1l0.01,0.08c0,0.05,0.01,0.11,0.01,0.16c0.01,0.1,0.02,0.2,0.04,0.3
							c0.03,0.2,0.06,0.39,0.1,0.58c0.08,0.38,0.17,0.76,0.27,1.13c0.2,0.74,0.42,1.47,0.66,2.2c0.24,0.72,0.5,1.44,0.77,2.16
							c0.27,0.71,0.55,1.42,0.83,2.13c-0.22-0.73-0.43-1.46-0.63-2.19c-0.2-0.73-0.39-1.47-0.56-2.2c-0.17-0.74-0.33-1.48-0.45-2.21
							c-0.06-0.37-0.12-0.74-0.16-1.11c-0.02-0.18-0.04-0.36-0.05-0.54c-0.01-0.09-0.01-0.18-0.01-0.27c0-0.04,0-0.09,0-0.13l0-0.06
							c0-0.02,0-0.04,0-0.04L45.35,44.8z"/>
					</g>
				</g>
				<g>
					<path class="st6" d="M69.53,43.32c0.42,2.13,0.95,4.24,1.53,6.34c0.28,1.05,0.6,2.09,0.91,3.13c0.15,0.52,0.32,1.04,0.49,1.55
						c0.17,0.52,0.33,1.04,0.5,1.55c0.35,1.03,0.71,2.06,1.08,3.08c0.19,0.51,0.38,1.02,0.57,1.53c0.19,0.51,0.39,1.02,0.59,1.52
						c0.81,2.02,1.69,4.01,2.69,5.95c-0.67-2.07-1.38-4.12-2.07-6.17c-0.33-1.03-0.7-2.05-1.03-3.08l-0.52-1.54l-0.51-1.54
						l-2.08-6.16C70.99,47.41,70.29,45.36,69.53,43.32z"/>
				</g>
				<g>
					<path class="st22" d="M69.74,62.24c0,0-8.55-1.65-13.75,4.66c0,0-1.77,2.16,0.23,4.7c-0.69-0.8,0.63,1.78,3.42,0.19
						c0,0,4.25-4.42,10.66-2.76c0,0,3.86-1.2,3.8-4.19C74.11,64.83,74.1,63.11,69.74,62.24z"/>
					<path class="st22" d="M55.7,71.75c-0.06-0.09-0.09-0.18-0.1-0.26c-1.74-2.62,0.03-4.85,0.05-4.87
						c5.3-6.43,14.08-4.82,14.17-4.81l0,0c4.57,0.91,4.72,2.8,4.72,3.01c0.06,3.28-3.94,4.56-4.11,4.62l-0.12,0.04l-0.12-0.03
						c-6.08-1.57-10.2,2.6-10.24,2.64l-0.04,0.05l-0.05,0.03c-0.75,0.42-1.41,0.58-1.98,0.58C56.67,72.75,55.89,72.04,55.7,71.75z
						 M70.28,68.57c0.6-0.22,3.43-1.38,3.39-3.74c0-0.01-0.18-1.4-4.01-2.16c-0.13-0.02-8.37-1.51-13.33,4.5
						c-0.06,0.08-1.53,1.92,0.23,4.16l-0.04,0.03c0.29,0.27,1.25,0.96,2.85,0.08C59.88,70.93,64.06,67.03,70.28,68.57z M55.92,71.86
						c0.11,0.03,0.27,0.03,0.41-0.09c0.13-0.11,0.15-0.25,0.14-0.37L55.92,71.86z"/>
				</g>
				<g>
					<path class="st26" d="M69.86,61.96c0,0-0.81-0.78-1.34-0.81c-2.43-0.14-9.05,0.7-13.11,5.97c0,0,1.11,2.34,2.65,1.64
						c0,0,1.62-0.76,1.01-2c0,0,0.84,1.29,2.09,0.82c0,0,1.89-0.54,1.07-2.41c0,0,0.42,2.29,2.92,1.35c0,0,1.61-0.58,0.87-2.41
						c0,0,0.41,2.24,2.71,1.62C68.72,65.74,71.71,64.81,69.86,61.96z"/>
				</g>
				<g>
					<path class="st6" d="M68.69,61.25c0,0-7.71-1.21-13.67,4.86c0,0,0.81,2.8,2.42,2.2c0,0,1.22-0.67,0.66-2.33
						c0,0,0.91,1.5,2.16,1.02c0,0,1.82-0.74,0.99-2.61c0,0,0.42,2.29,2.92,1.35c0,0,1.68-0.37,0.94-2.2c0,0,0.82,2.22,2.6,1.9
						C67.71,65.42,70.54,64.09,68.69,61.25z"/>
				</g>
				<g>
					<path class="st22" d="M85,72.27c-0.3,0.05-0.61,0.08-0.91,0.11c-0.3,0.02-0.6,0.04-0.9,0.02c-0.3,0-0.59-0.02-0.89-0.05
						c-0.29-0.03-0.59-0.08-0.87-0.13l0.2,0.13c-0.12-0.18-0.24-0.4-0.35-0.61c-0.11-0.21-0.22-0.43-0.32-0.65
						c-0.21-0.44-0.4-0.89-0.59-1.34c-0.19-0.45-0.37-0.91-0.55-1.37l-0.27-0.69c-0.09-0.23-0.18-0.47-0.28-0.7
						c0.02,0.25,0.05,0.5,0.08,0.75c0.04,0.25,0.08,0.5,0.13,0.74c0.05,0.25,0.1,0.49,0.17,0.73c0.06,0.24,0.13,0.49,0.21,0.73
						c0.15,0.48,0.33,0.96,0.54,1.42c0.11,0.23,0.22,0.46,0.34,0.68c0.12,0.23,0.25,0.44,0.41,0.67l0.08,0.11l0.12,0.02
						c0.32,0.04,0.63,0.08,0.95,0.07c0.32,0,0.63-0.02,0.94-0.07c0.31-0.05,0.62-0.11,0.91-0.21C84.44,72.54,84.73,72.42,85,72.27z"
						/>
				</g>
				<g>
					<path class="st22" d="M78.69,75.39C78.7,75.41,78.69,75.4,78.69,75.39c-0.01,0-0.01,0-0.02-0.01
						c-0.01-0.01-0.02-0.02-0.04-0.04c-0.03-0.03-0.05-0.05-0.08-0.09c-0.05-0.06-0.11-0.12-0.16-0.19
						c-0.11-0.13-0.21-0.28-0.32-0.42c-0.21-0.29-0.41-0.6-0.6-0.91c-0.39-0.62-0.75-1.26-1.11-1.91c0.19,0.72,0.4,1.43,0.63,2.14
						c0.12,0.36,0.25,0.71,0.39,1.06c0.07,0.18,0.15,0.35,0.23,0.53c0.04,0.09,0.09,0.18,0.14,0.27c0.02,0.05,0.05,0.09,0.08,0.14
						l0.05,0.07l0.03,0.04c0.01,0.02,0.02,0.02,0.04,0.06L78.69,75.39z"/>
				</g>
				<g>
					<path class="st22" d="M77.1,78.99c0.41-0.28,0.79-0.56,1.16-0.87c0.37-0.3,0.74-0.62,1.08-0.95c0.35-0.33,0.68-0.68,0.97-1.07
						c0.29-0.38,0.56-0.8,0.7-1.26c-0.22,0.43-0.55,0.76-0.89,1.07c-0.34,0.31-0.72,0.58-1.11,0.83c-0.39,0.25-0.79,0.48-1.19,0.69
						c-0.41,0.21-0.83,0.42-1.23,0.59L77.1,78.99z"/>
				</g>
				<g>
					<g>
						<path class="st29" d="M58.49,50.84c0,0,2.04-1.96,5.27-3.87c0,0,1.55-0.85,3.92-1.26c0,0,3.57,3.29,0,7.24
							c0,0-3.49,2.71-6.61,1.12C61.07,54.07,59.76,53.72,58.49,50.84z"/>
						<path class="st22" d="M60.9,54.48c-0.3-0.1-1.59-0.69-2.81-3.46l-0.12-0.28l0.22-0.21c0.08-0.08,2.12-2.02,5.37-3.94
							c0.07-0.04,1.64-0.89,4.05-1.31l0.21-0.04l0.16,0.15c0.04,0.04,3.85,3.64,0.03,7.85l-0.06,0.05
							c-0.12,0.09-2.25,1.72-4.74,1.72C62.46,55.01,61.68,54.86,60.9,54.48z M67.53,46.18c-2.13,0.4-3.55,1.17-3.55,1.17
							c-2.54,1.5-4.36,3.05-4.97,3.6c1.1,2.34,2.16,2.71,2.17,2.71l0.08,0.03c2.7,1.37,5.79-0.82,6.12-1.06
							C70.2,49.48,68.13,46.83,67.53,46.18z"/>
					</g>
					<g>
						<path class="st22" d="M60.94,51.4c0,0,0.8-0.86,3.44-2.32c0,0,1.97-1.16,3.86-1.55c0,0,2.59,1.9-0.41,4.78
							c0,0-2.48,1.88-4.88,0.92C62.95,53.23,61.81,53.32,60.94,51.4z"/>
						<path class="st22" d="M62.87,53.66c-0.37-0.02-1.49-0.25-2.32-2.08l-0.12-0.26l0.2-0.21c0.04-0.04,0.88-0.93,3.54-2.4
							c0.08-0.05,2.05-1.2,3.99-1.6l0.19-0.04l0.16,0.11c0.05,0.03,1.12,0.84,1.21,2.22c0.07,1.07-0.46,2.15-1.57,3.22l-0.04,0.03
							c-0.09,0.07-1.73,1.28-3.69,1.28C63.9,53.94,63.39,53.86,62.87,53.66z M68.84,49.46c-0.04-0.72-0.49-1.24-0.72-1.46
							c-1.73,0.41-3.5,1.44-3.52,1.46c-1.81,1-2.74,1.72-3.12,2.04c0.68,1.3,1.42,1.3,1.44,1.29l0.1-0.01l0.1,0.04
							c2.03,0.81,4.22-0.69,4.44-0.85C68.46,51.1,68.89,50.25,68.84,49.46z"/>
					</g>
					<g>
						<path class="st22" d="M69.28,51.4c0,0,2.44,3.2,1.12,4.1C70.4,55.5,69.15,54.94,69.28,51.4z"/>
					</g>
					<g>
						<path class="st22" d="M67.34,53.59l1.54,4.5c0,0,0.03,1.36,1.11,0.97c0,0,0.13-0.39-0.51-2.13l-1.79-3.99L67.34,53.59z"/>
					</g>
				</g>
				<g>
					<path class="st29" d="M56.14,52.08c0,0-2.43-0.26-5.64,0.13c0,0-1.51,0.23-3.34,1.19c0,0-0.69,4.12,3.83,4.94
						c0,0,3.81,0.02,5.1-2.7C56.09,55.64,56.8,54.71,56.14,52.08z"/>
					<path class="st22" d="M50.99,58.78l-0.08-0.01c-4.89-0.88-4.19-5.39-4.18-5.44l0.04-0.21l0.19-0.1
						c1.87-0.99,3.41-1.23,3.49-1.24c3.23-0.39,5.64-0.14,5.74-0.13l0.3,0.03l0.07,0.29c0.64,2.53,0.07,3.63-0.09,3.88
						C55.09,58.73,51.27,58.78,50.99,58.78L50.99,58.78z M50.56,52.64c-0.01,0-1.35,0.21-3,1.04c-0.06,0.8-0.02,3.57,3.46,4.22
						c0.37-0.01,3.58-0.15,4.67-2.45l0.04-0.07c0.01-0.01,0.52-0.79,0.05-2.89C55.05,52.44,53.03,52.34,50.56,52.64z"/>
				</g>
				<g>
					<path class="st22" d="M56.49,53.61c0,0-2-0.29-4.57,0.1c0,0-1.09-0.06-2.58,0.66c0,0-0.24,2.89,3.33,3.28
						c0,0,2.37-0.11,3.5-2.01C56.16,55.63,56.91,55.38,56.49,53.61z"/>
					<path class="st22" d="M52.61,58.08c-3.94-0.43-3.72-3.71-3.72-3.75l0.02-0.25l0.22-0.11c1.41-0.69,2.5-0.71,2.75-0.71
						c2.59-0.38,4.58-0.1,4.66-0.09l0.29,0.04l0.07,0.29c0.4,1.65-0.14,2.25-0.44,2.45c-1.26,1.99-3.68,2.12-3.79,2.12l-0.03,0
						L52.61,58.08z M56.12,54.01c-0.64-0.06-2.24-0.16-4.14,0.13l-0.05,0.01l-0.05,0c-0.01,0-0.88-0.04-2.12,0.5
						c0.04,0.63,0.38,2.27,2.9,2.56c0.26-0.02,2.19-0.23,3.11-1.8l0.03-0.16L56,55.22C56.1,55.14,56.27,54.81,56.12,54.01z"/>
				</g>
				<g>
					<path class="st22" d="M51.43,58.63l1.56,3.79c0,0,0.76,0.9-0.17,1.26c0,0-0.31-0.18-0.88-1.66l-1.1-3.6L51.43,58.63z"/>
				</g>
				<g>
					<path class="st22" d="M48.67,57.26l1.27,3.03c0,0,0.68,0.69-0.25,1.05c0,0-0.29-0.13-0.75-1.32l-0.83-2.9L48.67,57.26z"/>
				</g>
				<g>
					<path class="st26" d="M61.27,48.35c-0.26-0.53-0.51-1.09-0.74-1.64c-0.24-0.56-0.46-1.12-0.68-1.69
						c-0.22-0.57-0.42-1.14-0.61-1.72c-0.2-0.58-0.37-1.16-0.53-1.75c0.06,0.61,0.13,1.22,0.22,1.82c0.09,0.61,0.19,1.21,0.31,1.82
						c0.12,0.6,0.25,1.21,0.39,1.81c0.14,0.6,0.29,1.2,0.47,1.81L61.27,48.35z"/>
				</g>
				<g>
					<path class="st26" d="M69.73,72.14c0,0-5.32-2.6-9.97,2.98C59.76,75.12,65.37,71.35,69.73,72.14z"/>
				</g>
				<g>
					<path class="st30" d="M56.44,35.09c-0.09-1.22-1.7-1.88-6.05-0.02c0,0-0.43,2.13,0.72,4.96c0.25,0.61,0.34,0.32,1.86,1.29
						c0,0,1.06-0.66,4.02-1.53c0,0-0.02-0.64-0.23-1.58C56.55,37.27,56.55,36.57,56.44,35.09z"/>
					<path class="st22" d="M52.74,41.69c-0.59-0.38-0.96-0.56-1.21-0.68c-0.43-0.21-0.62-0.32-0.82-0.82
						c-1.18-2.92-0.76-5.12-0.75-5.21l0.05-0.23l0.21-0.09c2.86-1.22,4.84-1.5,5.91-0.85c0.45,0.28,0.71,0.71,0.75,1.25
						c0.02,0.31,0.04,0.58,0.05,0.83c0.06,0.94,0.1,1.51,0.26,2.23c0.22,0.97,0.24,1.64,0.24,1.67l0.01,0.33l-0.32,0.09
						c-2.84,0.83-3.9,1.48-3.91,1.48l-0.23,0.15L52.74,41.69z M56.34,38.3c-0.18-0.78-0.22-1.41-0.28-2.36
						c-0.02-0.25-0.03-0.52-0.05-0.82l0,0c-0.02-0.25-0.13-0.44-0.33-0.56c-0.36-0.22-1.55-0.57-4.89,0.82
						c-0.07,0.59-0.15,2.32,0.73,4.49c0.08,0.21,0.08,0.21,0.4,0.36c0.23,0.11,0.56,0.28,1.07,0.59c0.44-0.23,1.53-0.73,3.55-1.35
						C56.5,39.21,56.45,38.8,56.34,38.3z"/>
				</g>
				<g>
					<path class="st31" d="M55.14,34.36c0.04-1.04-2.79-0.84-5.47,1.33c0,0-0.33,1.09,1.78,4.66c0,0,1.5-0.74,4.18-1.59
						C55.63,38.76,55.05,36.87,55.14,34.36z"/>
					<path class="st22" d="M51.07,40.57c-2.1-3.56-1.89-4.8-1.82-5.01l0.04-0.13l0.1-0.08c2.23-1.8,4.62-2.36,5.63-1.85
						c0.36,0.18,0.56,0.5,0.55,0.88l0,0c-0.08,2.4,0.46,4.23,0.47,4.25l0.13,0.41l-0.41,0.13c-2.61,0.83-4.11,1.56-4.12,1.57
						l-0.36,0.18L51.07,40.57z M54.7,34.35c0-0.02,0-0.03-0.07-0.07c-0.55-0.27-2.51,0.05-4.55,1.64c0.01,0.35,0.16,1.47,1.54,3.88
						c0.56-0.25,1.75-0.75,3.48-1.32C54.93,37.76,54.64,36.23,54.7,34.35z"/>
				</g>
				<g>
					<path class="st22" d="M71.49,36.78c-0.01,0.01-0.03,0.01-0.04,0.02l-0.02,0.01c0,0-0.01,0-0.01,0c-0.02,0-0.01,0-0.01,0
						c0-0.01,0.02,0,0.03,0c0.01-0.01,0.04,0.01,0.07,0.01c0.02,0,0.05,0.01,0.08,0.03c0.06,0.03,0.12,0.05,0.18,0.1
						c0.06,0.04,0.13,0.08,0.19,0.13l0.19,0.16l0.19,0.19c0.13,0.12,0.24,0.27,0.36,0.41c0.46,0.58,0.88,1.22,1.25,1.89
						c0.09,0.17,0.19,0.33,0.28,0.5l0.27,0.52l0.26,0.52l0.25,0.53c0.34,0.7,0.64,1.42,0.95,2.13c-0.23-0.74-0.45-1.49-0.71-2.23
						l-0.19-0.56l-0.21-0.55l-0.21-0.55c-0.07-0.18-0.15-0.36-0.23-0.54c-0.3-0.73-0.66-1.44-1.09-2.13
						c-0.11-0.17-0.22-0.35-0.35-0.51c-0.06-0.08-0.13-0.17-0.2-0.25l-0.23-0.24c-0.07-0.08-0.17-0.15-0.26-0.23
						c-0.09-0.08-0.19-0.14-0.3-0.21c-0.05-0.03-0.11-0.06-0.18-0.09c-0.07-0.02-0.12-0.06-0.21-0.07
						c-0.08-0.01-0.15-0.04-0.25-0.03c-0.05,0-0.09,0-0.14,0.01l-0.08,0.02c-0.02,0-0.02,0-0.05,0.01
						c-0.03,0.01-0.05,0.02-0.08,0.03L71.49,36.78z"/>
				</g>
			</g>
		</g>
		<g>
			<g>
				<path class="st13" d="M86.1,55.07c0,0-0.2-0.91-2.17-1.04c0,0-2.55-0.46-3.43,2.61c0,0-1.63,1.25,0.33,2.84
					c0,0,0.02,1.46,1.58,1.27c0,0-0.21,1.41,1.09,1.21c0,0,0.83-0.46,2.85-0.87c0,0,1.17-0.15,0.12-1.49c0,0,1.5-0.44,0.92-1.65
					c0,0,1.14-0.79,0.48-2C87.87,55.94,87.2,54.47,86.1,55.07z"/>
				<path class="st1" d="M82.44,62c-0.26-0.26-0.34-0.62-0.36-0.9c-0.41-0.01-0.75-0.14-1.02-0.37c-0.39-0.34-0.51-0.83-0.54-1.08
					c-0.66-0.57-0.99-1.17-0.98-1.79c0.01-0.72,0.48-1.22,0.68-1.41c0.92-3.05,3.47-2.79,3.75-2.75c1.44,0.09,2.05,0.6,2.29,0.95
					c0.26-0.08,0.52-0.07,0.77,0.01c0.7,0.23,1.09,1.02,1.15,1.13c0.55,1,0.07,1.83-0.38,2.25c0.13,0.4,0.06,0.72-0.04,0.93
					c-0.17,0.38-0.5,0.62-0.77,0.77c0.27,0.44,0.33,0.8,0.21,1.12c-0.18,0.44-0.66,0.54-0.77,0.55c-1.93,0.39-2.74,0.83-2.75,0.83
					l-0.05,0.03l-0.06,0.01c-0.1,0.02-0.2,0.02-0.29,0.02C82.85,62.31,82.59,62.15,82.44,62z M86.29,60.77l0.02,0
					c0.03,0,0.22-0.05,0.26-0.16c0.05-0.11-0.02-0.39-0.36-0.81l-0.3-0.38l0.46-0.14c0.15-0.04,0.62-0.25,0.77-0.58
					c0.08-0.18,0.06-0.38-0.05-0.62l-0.12-0.25l0.23-0.16c0.04-0.03,0.9-0.63,0.38-1.57l-0.01-0.02c-0.08-0.18-0.38-0.67-0.77-0.8
					c-0.18-0.06-0.36-0.04-0.56,0.07l-0.38,0.22l-0.09-0.42c0-0.01-0.22-0.69-1.88-0.79l-0.04,0c-0.09-0.02-2.27-0.37-3.06,2.38
					l-0.03,0.1L80.7,56.9c0,0-0.5,0.4-0.51,0.97c-0.01,0.44,0.28,0.9,0.85,1.36l0.12,0.1l0,0.15c0,0,0.02,0.48,0.33,0.76
					c0.2,0.18,0.5,0.24,0.89,0.2l0.42-0.05l-0.06,0.42c-0.02,0.14-0.03,0.54,0.16,0.73c0.1,0.1,0.27,0.14,0.51,0.11
					C83.63,61.53,84.52,61.13,86.29,60.77z"/>
			</g>
			<g>
				<path class="st14" d="M80.75,56.72c0,0,0.12-1.38,1.83-1.8c0,0,1.7-0.66,2.52,0.85c0,0,1.08-0.55,1.73,0.5
					c0,0,0.76,1.5-0.92,1.91c0,0,1.26,0.55-0.77,1.24c0,0,1.43,0.88,0.09,1.23c0,0-0.73,0.23-1.82,0.75c0,0-0.93,0.46-0.46-1.1
					c0,0-1.73,0.82-1.87-1.1C81.09,59.2,79.21,58,80.75,56.72z"/>
			</g>
			<g>
				<path class="st6" d="M81.41,55.68c0.12-0.67-0.5,0.42-0.62,1.23c0,0-0.94,0.56-0.45,1.56c0,0,0.24,0.55,0.77,0.8
					c0,0-0.95-1.27,0.3-2.47C81.41,56.81,81.2,56.85,81.41,55.68z"/>
			</g>
			<g>
				<g>
					<path class="st13" d="M84.35,56.48c0.26-0.19,0.6-0.65,1.58-0.35c0,0,0.99,0.35,0.25,1.61c0,0-0.92,0.58-1.9,0.29
						C84.27,58.03,83.65,56.99,84.35,56.48z"/>
					<path class="st1" d="M84.18,58.34l-0.12-0.04l-0.07-0.11c-0.27-0.45-0.58-1.44,0.16-1.98l0,0c0.03-0.02,0.06-0.05,0.1-0.08
						c0.26-0.22,0.76-0.63,1.79-0.31c0.05,0.02,0.5,0.19,0.67,0.68c0.15,0.4,0.06,0.87-0.25,1.41l-0.04,0.07l-0.07,0.04
						c-0.03,0.02-0.68,0.42-1.51,0.42C84.63,58.44,84.41,58.41,84.18,58.34z M86.1,56.73c-0.07-0.2-0.27-0.29-0.27-0.29h0
						c-0.68-0.21-0.93,0-1.16,0.19c-0.05,0.04-0.09,0.07-0.13,0.1c-0.34,0.25-0.15,0.77-0.05,1.01c0.64,0.13,1.25-0.15,1.44-0.25
						C86.11,57.18,86.16,56.92,86.1,56.73z"/>
				</g>
				<g>
					<path class="st13" d="M83.68,59.6c0,0-0.51,0.8,0.32,0.81c0,0,0.95-0.06,0.81-0.37c0,0,0.17-0.58-0.61-0.82
						C84.2,59.23,83.9,59.06,83.68,59.6z"/>
					<path class="st1" d="M84,60.74c-0.44-0.01-0.63-0.2-0.72-0.36c-0.19-0.36,0.03-0.8,0.12-0.93c0.12-0.28,0.28-0.46,0.49-0.54
						c0.17-0.06,0.33-0.04,0.43,0.01c0.77,0.25,0.86,0.81,0.82,1.11c0.02,0.11,0,0.22-0.06,0.31c-0.17,0.29-0.67,0.38-1.06,0.4
						l-0.01,0L84,60.74z M84.49,59.95c0-0.01,0.07-0.27-0.39-0.41l-0.01,0c-0.02,0.02-0.06,0.07-0.11,0.19l-0.03,0.06
						c-0.05,0.08-0.11,0.23-0.11,0.29c0.02,0.01,0.06,0.02,0.14,0.02c0.17-0.01,0.37-0.05,0.48-0.09L84.49,59.95z M84.04,59.51
						L84.04,59.51L84.04,59.51z"/>
				</g>
				<g>
					<path class="st13" d="M82.23,57.06c-0.27-0.04-0.71-0.26-1.24,0.41c0,0-0.52,0.71,0.57,1.38c0,0,0.89,0.06,1.43-0.59
						C82.99,58.25,82.94,57.16,82.23,57.06z"/>
					<path class="st1" d="M81.53,59.17l-0.08-0.01l-0.07-0.04c-0.47-0.29-0.75-0.64-0.83-1.03c-0.09-0.46,0.14-0.78,0.17-0.83
						c0.59-0.73,1.14-0.61,1.45-0.55c0.03,0.01,0.07,0.02,0.1,0.02c0.77,0.11,1.02,1,1.04,1.5l0.01,0.13l-0.08,0.1
						c-0.55,0.66-1.37,0.71-1.63,0.71C81.57,59.17,81.54,59.17,81.53,59.17z M82.18,57.38L82.18,57.38
						c-0.04-0.01-0.09-0.02-0.14-0.03c-0.25-0.05-0.46-0.1-0.78,0.3c0,0.01-0.09,0.14-0.05,0.32c0.04,0.18,0.2,0.37,0.45,0.54
						c0.18-0.01,0.65-0.05,0.99-0.38C82.61,57.91,82.5,57.43,82.18,57.38z"/>
				</g>
			</g>
			<g>
				<path class="st6" d="M81.59,59.54c0,0,1,0.36,1.4-0.25c0,0,0.18,0.71-0.76,0.96C82.23,60.25,81.42,59.87,81.59,59.54z"/>
			</g>
			<g>
				<path class="st6" d="M84.46,56.93c0.13-0.1,0.3-0.33,0.79-0.17c0,0,0.49,0.17,0.12,0.8c0,0-0.46,0.29-0.95,0.14
					C84.43,57.7,84.12,57.19,84.46,56.93z"/>
			</g>
			<g>
				<path class="st6" d="M83.83,59.69c0,0-0.25,0.4,0.16,0.4c0,0,0.47-0.03,0.4-0.19c0,0,0.09-0.29-0.3-0.41
					C84.08,59.5,83.93,59.42,83.83,59.69z"/>
			</g>
			<g>
				<path class="st6" d="M81.71,57.66c-0.13-0.02-0.35-0.13-0.62,0.2c0,0-0.26,0.35,0.28,0.68c0,0,0.44,0.03,0.71-0.29
					C82.09,58.25,82.06,57.71,81.71,57.66z"/>
			</g>
		</g>
	</g>
</g>
</svg>
