<?xml version="1.0" encoding="utf-8"?>
<!-- Generator: Adobe Illustrator 28.5.0, SVG Export Plug-In . SVG Version: 9.03 Build 54727)  -->
<svg version="1.0" id="Layer_1" xmlns="http://www.w3.org/2000/svg" xmlns:xlink="http://www.w3.org/1999/xlink" x="0px" y="0px"
	 viewBox="0 0 150 150" style="enable-background:new 0 0 150 150;" xml:space="preserve">
<style type="text/css">
	.st0{opacity:0.9;}
	.st1{fill:#EC2024;}
	.st2{fill:#EEE81A;}
	.st3{fill:#FFFFFF;}
	.st4{fill:#C1756B;}
	.st5{fill:#673956;}
	.st6{fill:#E59791;}
	.st7{fill:#557EBC;}
	.st8{fill:#333B4F;}
	.st9{fill:#96C6ED;}
	.st10{fill:#634A46;}
	.st11{fill:#382823;}
	.st12{fill:#2B1E1A;}
	.st13{fill:#19100E;}
	.st14{fill:#95404B;}
	.st15{fill:#C6705C;}
	.st16{fill:#9483AB;}
	.st17{fill:#CCC7CA;}
	.st18{fill:#685963;}
	.st19{fill:#EAA498;}
	.st20{fill:#FFCAA6;}
	.st21{fill:#C74C44;}
	.st22{fill:#70220D;}
	.st23{fill:#F7CE03;}
	.st24{fill:#3E9672;}
	.st25{fill:#4C2F39;}
	.st26{fill:#8BEAC1;}
	.st27{fill:#A55C56;}
	.st28{fill:#796C5C;}
	.st29{fill:#9B7F65;}
	.st30{fill:#C3B388;}
	.st31{fill:#E7DEA4;}
	.st32{fill:#635554;}
	.st33{fill:#698C5A;}
	.st34{fill:#9CCA70;}
</style>
<g>
	<g class="st0">
		<g>
			<g>
				<g>
					<g>
						<g>
							<path class="st1" d="M35.2,14.44c0,0-6.35,6.25-8.86,13.77c0,0,13.12-21.17,38.31-23.25c0,0-14.56,1.5-23.88,12.81
								c0,0,5.58-3.81,8.03-4.25c-0.92,0.42-2.75-0.21-8.89,10.87c0,0,16.66-17.98,32.06-18.06c0,0-24.19,3.53-35.61,36.15
								c0,0,7.29-14.92,13.72-18.39c0,0-13.84,9.6-12.77,53.65c0,0,0.78-5.46,1.75-6.21c0,0-1.23,5.46,0.38,18.72
								c0,0-22.74,7.69-31.76,4.65C7.66,94.9,0.54,42.57,35.2,14.44z"/>
						</g>
					</g>
				</g>
			</g>
		</g>
		<g>
			<g>
				<g>
					<g>
						<g>
							<path class="st2" d="M23.62,34.44c0,0,9.33-17.98,26.4-25.39c0,0-7.58,3.56-15.3,14.79c0,0,6.11-5.09,8.28-5.74
								c0,0-4.09,3.61-7.99,14.99c0,0,9.01-13.63,22-21.16c0,0-20.47,12.39-24.81,42.58c0,0,8.16-20.69,12.88-24.54
								c0,0-11.63,16.5-9.09,54.8c0,0,1.02-6.29,1.84-7.08c0,0-0.62,3.88,0.62,11.6c0,0-19.83,8.59-28.04,6.81
								c0,0-7.07-42.42,16.82-72.11C27.24,23.99,23.95,29.59,23.62,34.44z"/>
						</g>
					</g>
				</g>
			</g>
		</g>
		<g>
			<g>
				<g>
					<g>
						<g>
							<path class="st3" d="M13.54,83.84c-1.15-7.78,0.17-18.7,0.17-18.7c-0.59,11.21,1.46,25.96,1.46,25.96
								c-1.8-2.84-2.71-4.81-2.71-4.81c1.42,7,1.46,8.87,1.46,8.87l-2.14-0.76c-1.38-9.59-1.14-23.48-1.14-23.48
								C10.76,82.46,13.54,83.84,13.54,83.84z"/>
						</g>
					</g>
				</g>
			</g>
		</g>
		<g>
			<g>
				<g>
					<g>
						<g>
							<path class="st3" d="M23.87,61.76c0,0-0.3,9.65,1.16,16.72l0.46-7.25c0,0,0.54,7.63,2.1,12.71c0,0-0.89-9.63,0.49-17.14
								c0,0-0.53,12.65,2.33,21.72l-1.81-2.38c0,0,0.1,5.7,0.53,7.13l-5.8,0.81c0,0-0.97-5.79-1.33-13.66c0,0,1.52,4.51,2.11,6.61
								C24.11,87.03,21.92,72.93,23.87,61.76z"/>
						</g>
					</g>
				</g>
			</g>
		</g>
		<g>
			<g>
				<g>
					<g>
						<g>
							<path class="st3" d="M18.7,94.21l-3.89,0.91c0,0-2.32-27.38,2.82-41.24C17.62,53.89,15.09,76.5,18.7,94.21z"/>
						</g>
					</g>
				</g>
			</g>
		</g>
		<g>
			<g>
				<g>
					<g>
						<g>
							<path class="st3" d="M30.05,49.78c2.03-7.68,5.14-11.04,5.14-11.04c-6.67,13.18-3.68,26.87-3.68,26.87
								c-3.29-8.12-2.81,8.37-2.81,8.37c-0.73-2.81-0.99-4.66-0.99-4.66c-0.23-6.96-2.21,2.08-2.21,2.08
								c-1.22-18.09,3.46-26.93,3.46-26.93C29.78,50.21,30.05,49.78,30.05,49.78z"/>
						</g>
					</g>
				</g>
			</g>
		</g>
		<g>
			<g>
				<g>
					<g>
						<g>
							<path class="st3" d="M22.34,54.4c0,0,0.7-1.06,1.5-0.96c0,0,0.28-3.18,3.66-8.03c0,0-2.92,6.63-3.39,11.16
								c0,0,1.22-1.95,0.21,1.79c0,0-2.39,7.63-2.49,14.01c0,0-0.94-9.84,0.41-15.12c0,0-0.51-1.73-2.19,0.13
								c0,0,0.44-5.97,4.08-10.11C24.13,47.27,22.71,51.01,22.34,54.4z"/>
						</g>
					</g>
				</g>
			</g>
		</g>
		<g>
			<g>
				<g>
					<g>
						<g>
							<path class="st3" d="M32.57,82.66c0,0,0.54-1.16,0.83-5.21c0,0,0.85,3.03-0.54,8.95c0,0-1.7-3.34-1.97-6.01
								c0,0-0.58-5.68,0.78-8.83C31.66,71.56,31.71,76.27,32.57,82.66z"/>
						</g>
					</g>
				</g>
			</g>
		</g>
		<g>
			<g>
				<g>
					<g>
						<g>
							<path class="st3" d="M20.02,86.05c0.01,0.03,0.01,0.06,0.01,0.1C20.04,86.15,20.03,86.12,20.02,86.05z"/>
						</g>
					</g>
					<g>
						<g>
							<path class="st3" d="M18.39,70.32c0.98-6.37,3.8-9.81,3.8-9.81c-3.23,16.37-2.29,24.58-2.17,25.54
								c-1.42-9.67-0.52-13.91-0.52-13.91c-1.54,4.15-1.44,7.51-1.44,7.51c-1.05-9.89,0.2-19.57,0.2-19.57
								C18.05,63.5,18.39,70.32,18.39,70.32z"/>
						</g>
					</g>
				</g>
			</g>
		</g>
	</g>
	<g>
		<g>
			<g>
				<path class="st4" d="M80.11,97.14c0,0,1.04,1.98,2.29,3.67c0,0,1.3,1.5,0.23,2.37c0,0-5.67,2.68-6.01,2.84
					c0,0-1.1,0.56-1.58,0.44c0,0-1.71-0.77,0.79-3.89l0.25-0.86l-4.51-5.6l-0.43-0.95l-0.12-0.96l6.08-2.6L80.11,97.14z"/>
			</g>
			<g>
				<path class="st5" d="M82.91,103.51l-0.04,0.03l-0.05,0.02c-0.06,0.03-5.68,2.68-6,2.84c-0.29,0.15-1.29,0.62-1.87,0.48
					l-0.08-0.03c-0.06-0.03-0.6-0.29-0.77-1.02c-0.22-0.9,0.24-2.06,1.35-3.46l0.16-0.57l-4.4-5.46l-0.48-1.06l-0.17-1.35l6.74-2.88
					l3.2,5.88l0,0.01c0.01,0.02,1.04,1.96,2.25,3.6c0.13,0.15,0.82,1.01,0.74,1.92c-0.04,0.41-0.23,0.77-0.55,1.04
					C82.92,103.5,82.91,103.51,82.91,103.51z M76.91,92.15l-5.42,2.32l0.07,0.58l0.38,0.84l4.62,5.73l-0.33,1.16l-0.05,0.07
					c-1.26,1.57-1.32,2.41-1.24,2.77c0.05,0.26,0.2,0.39,0.26,0.43c0.22,0.01,0.77-0.18,1.25-0.42c0.32-0.15,5.35-2.53,5.96-2.82
					c0.14-0.12,0.21-0.26,0.22-0.43c0.04-0.49-0.38-1.1-0.54-1.3l-0.01-0.01l-0.01-0.01c-1.24-1.68-2.26-3.6-2.32-3.72L76.91,92.15z
					"/>
			</g>
		</g>
		<g>
			<g>
				<path class="st4" d="M73.16,98.02l0.32-0.29c1.99,0.87,4.34-0.04,5.21-2.03l0.78-1.78c0.87-1.99-0.04-4.34-2.04-5.21l0,0
					c-1.99-0.88-4.1,0.33-5.55,2.63l-0.58,0.71C70.44,94.04,71.17,97.14,73.16,98.02z"/>
			</g>
			<g>
				<path class="st5" d="M76.67,98.18c-1.01,0.39-2.09,0.4-3.09,0.04l-0.33,0.3l-0.26-0.11c-2.29-1.01-3-4.4-2.07-6.54l0.02-0.05
					l0.6-0.74c1.66-2.63,3.98-3.69,6.07-2.78c2.22,0.97,3.23,3.56,2.26,5.78l-0.78,1.78c-0.27,0.62-0.68,1.17-1.19,1.59
					C77.54,97.76,77.12,98,76.67,98.18z M72.26,91.56l-0.57,0.71c-0.69,1.66-0.16,4.32,1.4,5.23l0.31-0.28l0.26,0.11
					c0.86,0.38,1.82,0.39,2.7,0.05c0.88-0.34,1.57-1.01,1.95-1.87l0.78-1.78c0.78-1.78-0.03-3.87-1.82-4.65
					c-1.14-0.5-2.4-0.22-3.54,0.73C73.21,90.26,72.71,90.84,72.26,91.56z"/>
			</g>
		</g>
		<g>
			<g>
				<path class="st5" d="M76.67,98.19c-1.01,0.39-2.09,0.41-3.09,0.04l-0.33,0.3l-0.26-0.11c-2.3-1-3.11-4.12-2.17-6.26l0.02-0.05
					l0.7-1.03c1.66-2.63,3.99-3.7,6.08-2.78c1.07,0.47,1.9,1.33,2.32,2.43c0.43,1.1,0.4,2.29-0.07,3.36l-0.78,1.78
					c-0.08,0.19-0.18,0.38-0.29,0.55C78.31,97.22,77.57,97.83,76.67,98.19z M71.58,95.33c0.28,0.99,0.82,1.76,1.51,2.16l0.31-0.28
					l0.26,0.11c1.78,0.78,3.86-0.03,4.64-1.81l0.78-1.78c0.38-0.86,0.39-1.82,0.05-2.69c-0.34-0.88-1-1.57-1.86-1.95
					c-1.67-0.74-3.59,0.21-5.01,2.47l-0.57,0.71C71.33,93.14,71.29,94.28,71.58,95.33z"/>
			</g>
		</g>
		<g>
			<g>
				<path class="st4" d="M77.51,97.94l0.13,0.71c1.04,0.7,2.86,0.05,0.78-4.12l-0.98-2.09c-0.83-1.24-2.62-1.52-3.98-0.61l0,0
					c-1.36,0.91-1.73,3.81-0.9,5.05l1.21,1.34C74.59,99.46,76.15,98.85,77.51,97.94z"/>
			</g>
		</g>
		<g>
			<g>
				<path class="st6" d="M76.61,97.03l1.78,3.63c0,0-1,0.03-1.88,0.66l-3.43-3.92C73.07,97.41,74.79,94.67,76.61,97.03z"/>
			</g>
		</g>
		<g>
			<g>
				<path class="st6" d="M74.94,105.39c0,0,0.74-2.68,1.88-3.18c0,0,2.25-1.65,4.14,0.08c0,0,0.71,0.9-4.88,3.26
					C76.08,105.55,74.84,106.03,74.94,105.39z"/>
			</g>
		</g>
		<g>
			<g>
				<g>
					<path class="st6" d="M73.17,97.52l0.58-0.28c1.11,0.36,1.36-0.74,1.72-1.85l0.82-2.51c0.36-1.11-0.25-2.31-1.36-2.67l0,0
						c-1.11-0.36-2.54,0.53-2.9,1.64l-0.28,0.35C70.57,94.73,72.06,97.16,73.17,97.52z"/>
				</g>
			</g>
		</g>
		<g>
			<g>
				<path class="st7" d="M80.39,97.22c0,0-1.66,1.31-5.9,3.07l1.4,1.87c0,0,2.04-0.29,5.63-2.85L80.39,97.22z"/>
				<path class="st8" d="M73.8,100.11l0.52-0.22c4.11-1.7,5.77-2.99,5.8-3.01l0.41-0.32l1.57,2.88l-0.31,0.22
					c-3.64,2.59-5.74,2.91-5.83,2.92l-0.25,0.04L73.8,100.11z M80.24,97.86c-0.69,0.46-2.28,1.42-5.07,2.62l0.9,1.19
					c0.6-0.16,2.31-0.71,4.89-2.49L80.24,97.86z"/>
			</g>
			<g>
				<path class="st9" d="M75.42,100.52c0,0,2.13-0.84,3.92-1.84c0,0-0.22,1.74-1.59,2.37l-1.56,0.73L75.42,100.52z"/>
			</g>
		</g>
		<g>
			<path class="st3" d="M76.74,99.85c0,0-1.04,0.55-1.71,0.67l1.14,1.46C76.17,101.98,77.73,101.24,76.74,99.85z"/>
		</g>
	</g>
	<g>
		<g>
			<g>
				<path class="st4" d="M67.29,96.9c0,0,0.47,2.18,1.21,4.15c0,0,0.84,1.8-0.42,2.35c0,0-6.19,1.04-6.55,1.11c0,0-1.21,0.24-1.64,0
					c0,0-1.44-1.21,1.81-3.53l0.47-0.76l-2.82-6.61l-0.15-1.03l0.14-0.96l6.56-0.85L67.29,96.9z"/>
			</g>
			<g>
				<path class="st5" d="M68.25,103.79l-0.05,0.02l-0.05,0.01c-0.06,0.01-6.19,1.04-6.54,1.1c-0.32,0.06-1.41,0.24-1.93-0.05
					l-0.07-0.05c-0.05-0.04-0.5-0.44-0.47-1.19c0.04-0.92,0.79-1.92,2.23-2.97l0.31-0.5l-2.76-6.45l-0.17-1.15l0.2-1.35l7.27-0.95
					l1.49,6.53l0,0.01c0,0.02,0.47,2.17,1.19,4.07c0.08,0.18,0.51,1.2,0.19,2.05c-0.15,0.38-0.43,0.68-0.82,0.85
					C68.26,103.79,68.26,103.79,68.25,103.79z M65.55,91.23L59.7,92l-0.09,0.58l0.14,0.91l2.89,6.76l-0.64,1.03l-0.07,0.05
					c-1.64,1.17-1.92,1.96-1.94,2.33c-0.02,0.26,0.09,0.43,0.14,0.49c0.21,0.06,0.79,0.04,1.32-0.06c0.35-0.06,5.84-0.99,6.5-1.1
					c0.16-0.08,0.27-0.2,0.33-0.36c0.18-0.46-0.07-1.16-0.17-1.4l-0.01-0.01l-0.01-0.02c-0.74-1.95-1.2-4.08-1.23-4.21L65.55,91.23z
					"/>
			</g>
		</g>
		<g>
			<g>
				<path class="st4" d="M60.36,95.86l0.39-0.2c1.68,1.38,4.19,1.14,5.57-0.55l1.23-1.5c1.38-1.68,1.14-4.19-0.55-5.57l0,0
					c-1.68-1.38-4.04-0.79-6.06,1.03l-0.75,0.53C58.82,91.29,58.68,94.48,60.36,95.86z"/>
			</g>
			<g>
				<path class="st5" d="M63.69,96.97c-1.07,0.11-2.12-0.18-2.99-0.8l-0.4,0.2l-0.22-0.18c-1.93-1.59-1.7-5.05-0.22-6.86l0.04-0.04
					l0.77-0.55c2.31-2.08,4.84-2.47,6.6-1.03c1.87,1.54,2.14,4.3,0.61,6.18l-1.23,1.5c-0.43,0.53-0.97,0.94-1.58,1.21
					C64.64,96.8,64.18,96.92,63.69,96.97z M61.24,89.4l-0.74,0.53c-1.12,1.41-1.33,4.11-0.07,5.42l0.37-0.19l0.22,0.18
					c0.73,0.6,1.64,0.87,2.58,0.78c0.94-0.09,1.79-0.54,2.38-1.27l1.23-1.5c1.23-1.5,1.02-3.73-0.49-4.97
					c-0.97-0.79-2.25-0.86-3.61-0.26C62.51,88.41,61.87,88.83,61.24,89.4z"/>
			</g>
		</g>
		<g>
			<g>
				<path class="st5" d="M63.69,96.98c-1.08,0.1-2.13-0.18-2.99-0.8l-0.4,0.2l-0.22-0.18c-1.94-1.59-1.88-4.81-0.39-6.61l0.04-0.05
					l0.95-0.8c2.31-2.08,4.84-2.48,6.6-1.03c0.9,0.74,1.46,1.8,1.58,2.97c0.11,1.17-0.23,2.31-0.98,3.22l-1.23,1.5
					c-0.13,0.16-0.28,0.31-0.43,0.45C65.53,96.49,64.65,96.88,63.69,96.98z M59.57,92.85c0,1.03,0.31,1.92,0.87,2.49l0.37-0.19
					l0.22,0.18c1.5,1.23,3.72,1.02,4.96-0.49l1.23-1.5c0.6-0.72,0.87-1.64,0.78-2.58c-0.09-0.94-0.54-1.78-1.27-2.38
					c-1.41-1.16-3.51-0.77-5.49,1.02l-0.74,0.53C59.92,90.67,59.57,91.76,59.57,92.85z"/>
			</g>
		</g>
		<g>
			<g>
				<path class="st4" d="M64.56,96.97l-0.06,0.72c0.82,0.95,2.74,0.82,1.87-3.76l-0.38-2.28c-0.46-1.42-2.11-2.17-3.67-1.67l0,0
					c-1.55,0.51-2.7,3.19-2.24,4.62l0.8,1.61C61.35,97.64,63.01,97.48,64.56,96.97z"/>
			</g>
		</g>
		<g>
			<g>
				<path class="st6" d="M63.95,95.85l0.73,3.98c0,0-0.97-0.25-1.99,0.13l-2.24-4.71C60.44,95.25,62.83,93.08,63.95,95.85z"/>
			</g>
		</g>
		<g>
			<g>
				<path class="st6" d="M60.07,103.44c0,0,1.44-2.38,2.67-2.56c0,0,2.62-0.98,3.96,1.2c0,0,0.44,1.06-5.58,1.82
					C61.12,103.9,59.8,104.03,60.07,103.44z"/>
			</g>
		</g>
		<g>
			<g>
				<g>
					<path class="st6" d="M60.5,95.39l0.63-0.12c0.97,0.65,1.51-0.34,2.16-1.32l1.47-2.2c0.65-0.97,0.39-2.3-0.59-2.94l0,0
						c-0.97-0.65-2.59-0.18-3.24,0.79l-0.36,0.26C58.76,91.99,59.53,94.74,60.5,95.39z"/>
				</g>
			</g>
		</g>
		<g>
			<g>
				<path class="st7" d="M67.53,97.06c0,0-1.95,0.81-6.51,1.36l0.84,2.17c0,0,2.04,0.27,6.19-1.21L67.53,97.06z"/>
				<path class="st8" d="M61.81,101.02l-0.26-0.03l-1.14-2.94l0.56-0.07c4.41-0.53,6.37-1.31,6.4-1.33l0.48-0.2l0.72,3.2l-0.36,0.13
					c-3.08,1.1-5.03,1.26-5.89,1.26C62,101.05,61.83,101.03,61.81,101.02z M67.22,97.64c-0.79,0.26-2.58,0.75-5.59,1.14l0.54,1.39
					c0.62,0.01,2.42-0.06,5.38-1.08L67.22,97.64z"/>
			</g>
			<g>
				<path class="st9" d="M61.85,98.89c0,0,2.28-0.23,4.28-0.71c0,0-0.69,1.62-2.18,1.85l-1.7,0.28L61.85,98.89z"/>
			</g>
		</g>
		<g>
			<path class="st3" d="M63.3,98.6c0,0-1.15,0.24-1.83,0.18l0.7,1.72C62.18,100.5,63.88,100.2,63.3,98.6z"/>
		</g>
	</g>
	<g>
		<g>
			<path class="st6" d="M60.37,75.79c0,0,1.63-1.55,2.68,2.46c0,0-0.18,3.16-1.71,5.34c0,0-3.39,2.5-4.04,2.94
				c0,0-0.59-1.85-2.8-2.41c0,0,3.59-2.14,3.84-2.57c0,0,0.87-2.37,1.29-4.37C59.63,77.18,59.78,76.07,60.37,75.79z"/>
		</g>
		<g>
			<g>
				<path class="st4" d="M63.19,85.09c0,0-2.75,3.4-7.36,5.57c0,0-0.62-4.18-3.67-5.51c0,0,3.05-1.9,5.5-3.57
					c0.87-0.59,1.11-3.65,1.83-5.57c0.84-2.23,5.39-2.56,5.7,1.2C65.23,77.74,65.37,82.09,63.19,85.09z"/>
				<path class="st5" d="M55.39,90.72c-0.01-0.04-0.62-3.96-3.42-5.17l-0.76-0.33l0.7-0.44c0.03-0.02,3.07-1.92,5.49-3.56
					c0.4-0.27,0.72-1.67,0.98-2.8c0.2-0.88,0.41-1.79,0.7-2.56c0.49-1.31,2.08-2.13,3.69-1.91c1.64,0.23,2.71,1.44,2.85,3.23
					c0,0.05,0.32,4.86-2.08,8.16l-0.01,0.02c-0.12,0.14-2.87,3.5-7.52,5.69l-0.53,0.25L55.39,90.72z M64.76,77.25
					c-0.16-1.96-1.53-2.35-2.11-2.44c-1.2-0.17-2.41,0.43-2.76,1.35c-0.27,0.71-0.47,1.59-0.66,2.44c-0.35,1.54-0.65,2.87-1.34,3.33
					c-1.76,1.2-3.85,2.53-4.88,3.18c2.05,1.29,2.85,3.77,3.12,4.9c4.06-2.05,6.56-5.03,6.7-5.2C65.06,81.78,64.76,77.3,64.76,77.25z
					"/>
			</g>
			<g>
				<g>
					<g>
						<path class="st7" d="M58.38,89.43c0,0,0.04-4.04-3.74-6.05l-3.76,2.05c0,0,3.65,1.67,4.29,6.16
							C55.17,91.59,57.25,90.33,58.38,89.43z"/>
						<path class="st8" d="M54.74,91.65c-0.6-4.19-3.9-5.77-4.04-5.83l-0.79-0.36l4.73-2.58l0.21,0.11
							c3.96,2.12,3.97,6.27,3.97,6.44l0,0.21l-0.16,0.13c-1.14,0.9-3.16,2.14-3.25,2.19l-0.56,0.34L54.74,91.65z M54.64,83.88
							l-2.87,1.56c1.08,0.71,3.06,2.38,3.72,5.44c0.64-0.4,1.7-1.09,2.45-1.66C57.89,88.42,57.51,85.53,54.64,83.88z"/>
					</g>
					<g>
						<path class="st9" d="M54.68,83.97c0,0,4.29,3.52,0.54,6.09c0,0-0.65-2.74-3.3-4.53L54.68,83.97z"/>
					</g>
				</g>
				<g>
					<path class="st3" d="M51.79,85.63l2.83-1.69c0,0,2.11,1.52,0.01,4.58C54.62,88.52,53.37,86.87,51.79,85.63z"/>
				</g>
			</g>
		</g>
	</g>
	<g>
		<g>
			<path class="st4" d="M44.42,93.35c-0.78-1.65-0.27-2.75-0.27-2.75l-0.33-2.58c1.58-3.05,5.16-1.71,5.16-1.71l1.7-0.4l1.29,0.36
				c1.89,0.9,1.58,5.33,1.58,5.33c-0.98,1.89-3.32,1.58-3.32,1.58c-0.7,1.51-2.1,0.55-2.1,0.55c-0.4,1.77-2.55,0.52-2.55,0.52
				L44.42,93.35z"/>
			<path class="st5" d="M45.36,94.62l-1.29-1l-0.04-0.09c-0.71-1.5-0.45-2.62-0.32-2.99l-0.34-2.61l0.06-0.12
				c1.35-2.6,4.16-2.44,5.58-1.97l1.68-0.4l1.4,0.39l0.07,0.03c2.09,1,1.86,5.27,1.82,5.76l-0.01,0.09l-0.04,0.08
				c-0.89,1.72-2.72,1.86-3.45,1.83c-0.25,0.41-0.57,0.67-0.98,0.78c-0.42,0.12-0.83,0.04-1.14-0.08c-0.19,0.37-0.47,0.55-0.69,0.65
				c-0.22,0.09-0.45,0.13-0.68,0.13C46.23,95.11,45.47,94.68,45.36,94.62z M48.37,93.36c0.13,0.09,0.55,0.3,0.9,0.2
				c0.22-0.06,0.41-0.26,0.56-0.57l0.13-0.29l0.32,0.04c0.02,0,1.98,0.25,2.83-1.27c0.07-1.21-0.04-4.15-1.3-4.8l-1.14-0.32
				l-1.72,0.4l-0.12-0.05c-0.13-0.05-3.14-1.14-4.56,1.39l0.32,2.44l0.01,0.12l-0.05,0.11c-0.02,0.04-0.39,0.92,0.22,2.29l1.05,0.81
				c0.27,0.15,1.06,0.49,1.51,0.3c0.07-0.03,0.27-0.12,0.37-0.55l0.14-0.62L48.37,93.36z"/>
		</g>
		<g>
			<path class="st4" d="M44.42,93.35c-0.78-1.65-0.27-2.75-0.27-2.75l-0.33-2.58c1.58-3.05,5.16-1.71,5.16-1.71l1.7-0.4l1.29,0.36
				c1.89,0.9,1.58,5.33,1.58,5.33c-0.98,1.89-3.32,1.58-3.32,1.58c-0.7,1.51-2.1,0.55-2.1,0.55c-0.4,1.77-2.55,0.52-2.55,0.52
				L44.42,93.35z"/>
			<path class="st5" d="M45.36,94.62l-1.29-1l-0.04-0.09c-0.71-1.5-0.45-2.62-0.32-2.99l-0.34-2.61l0.06-0.12
				c1.35-2.6,4.16-2.44,5.58-1.97l1.68-0.4l1.4,0.39l0.07,0.03c2.09,1,1.86,5.27,1.82,5.76l-0.01,0.09l-0.04,0.08
				c-0.89,1.72-2.72,1.86-3.45,1.83c-0.25,0.41-0.57,0.67-0.98,0.78c-0.42,0.12-0.83,0.04-1.14-0.08c-0.19,0.37-0.47,0.55-0.69,0.65
				c-0.22,0.09-0.45,0.13-0.68,0.13C46.23,95.11,45.47,94.68,45.36,94.62z M48.37,93.36c0.13,0.09,0.55,0.3,0.9,0.2
				c0.22-0.06,0.41-0.26,0.56-0.57l0.13-0.29l0.32,0.04c0.02,0,1.98,0.25,2.83-1.27c0.07-1.21-0.04-4.15-1.3-4.8l-1.14-0.32
				l-1.72,0.4l-0.12-0.05c-0.13-0.05-3.14-1.14-4.56,1.39l0.32,2.44l0.01,0.12l-0.05,0.11c-0.02,0.04-0.39,0.92,0.22,2.29l1.05,0.81
				c0.27,0.15,1.06,0.49,1.51,0.3c0.07-0.03,0.27-0.12,0.37-0.55l0.14-0.62L48.37,93.36z"/>
		</g>
		<g>
			<g>
				<path class="st10" d="M43.04,97.4c0,0,0.98-6.7-1.77-11.23c0,0-0.73-0.96-1.52,0.12c0,0,1.59,4.33,1.81,5.43
					c0,0,0.36,4.51,0.27,5.96C41.84,97.68,43.09,98.47,43.04,97.4z"/>
			</g>
			<g>
				<path class="st11" d="M39.64,85.99c0,0,2,5.25,2.12,11.57c0,0,1.59,1.14,2.49-0.13c0,0,0.81-2.12,0.4-4.51l7.34-0.9
					c0,0,0.48-1.84-1.26-3.59l-6.98,1.01C43.75,89.45,41.78,83.05,39.64,85.99z"/>
			</g>
			<g>
				<path class="st12" d="M51.99,88.45c0,0,0.53-2.25,1.63-2.12l1.46,0.59c0,0-1.04,2.26,1.82,3.9l-0.56,1.68c0,0-1.4,0.6-3.43-1.21
					L51.99,88.45z"/>
			</g>
			<g>
				<path class="st11" d="M39.64,85.99c0,0,2,5.25,2.12,11.57c0,0,1.59,1.14,2.49-0.13c0,0,0.81-2.12,0.4-4.51l7.34-0.9
					c0,0,0.48-1.84-1.26-3.59l-6.98,1.01C43.75,89.45,41.78,83.05,39.64,85.99z"/>
			</g>
			<g>
				<path class="st13" d="M50.22,88.78c0,0,0.62-0.97,1.49-0.52c0,0,1.65,1.53,0.96,3.46c0,0-0.59,0.66-1.64,0.52
					C51.03,92.24,51.78,91.43,50.22,88.78z"/>
			</g>
			<g>
				<path class="st14" d="M51.12,92.29l-6.62,1.09c0.53,2.68-0.53,3.65-0.53,3.65c-1.14,1.62-2.22,0.53-2.22,0.53
					c-0.18-5.84-1.93-11.82-1.93-11.82s1.96-1.57,3.93,3.71l6.39-0.93c0,0,1.35-0.83,1.83-0.32c0,0,0.66-1.47,1.23-1.84
					c0,0,1.34-0.17,1.88,0.55c0,0-0.59,2.83,1.82,3.9l-0.56,1.68c0,0-1.52,0.65-3.36-1.02C52.98,91.47,52.82,92.21,51.12,92.29z"/>
				<path class="st5" d="M41.44,97.87l-0.12-0.12l-0.01-0.17c-0.18-5.71-1.9-11.65-1.91-11.71l-0.08-0.28l0.23-0.18
					c0.23-0.18,0.8-0.44,1.49-0.24c1.11,0.31,2.11,1.59,2.99,3.81l5.96-0.87c0.31-0.18,1.12-0.6,1.77-0.48
					c0.26-0.51,0.72-1.32,1.2-1.63l0.08-0.05l0.1-0.01c0.16-0.02,1.61-0.17,2.28,0.73l0.12,0.16L55.5,87
					c-0.02,0.1-0.48,2.5,1.57,3.42l0.36,0.16l-0.74,2.24l-0.18,0.08c-0.07,0.03-1.6,0.65-3.46-0.79c-0.3,0.28-0.86,0.56-1.89,0.61
					L45,93.74c0.33,2.31-0.49,3.35-0.7,3.57c-0.46,0.64-0.98,0.99-1.55,1.04c-0.05,0-0.09,0.01-0.13,0.01
					C41.95,98.36,41.5,97.92,41.44,97.87z M52.6,90.54l0.67,0.61c1.27,1.15,2.33,1.08,2.73,0.99l0.37-1.11
					c-1.7-0.98-1.91-2.89-1.76-3.98c-0.33-0.26-0.94-0.29-1.25-0.27c-0.32,0.28-0.76,1.07-1,1.59l-0.27,0.6l-0.45-0.48
					c-0.09-0.1-0.7,0.04-1.28,0.4l-0.08,0.05l-6.83,0.99l-0.12-0.33c-1.04-2.79-2.01-3.45-2.5-3.6c-0.2-0.06-0.37-0.05-0.49-0.02
					c0.37,1.37,1.65,6.42,1.84,11.36c0.11,0.07,0.29,0.15,0.5,0.14c0.38-0.03,0.72-0.4,0.93-0.7l0.06-0.07
					c0.01-0.01,0.87-0.89,0.4-3.25l-0.09-0.44l7.06-1.16l0.05-0.01c1.14-0.05,1.41-0.41,1.46-0.49L52.6,90.54z M52.55,91.38
					L52.55,91.38L52.55,91.38z"/>
			</g>
			<g>
				<path class="st15" d="M40.31,87.09c0,0,1.84,6.8,1.41,10.26c0,0,0.63,1.28,1.26-0.38c0,0,0.87-2.84-1.25-8.57
					c0,0-1.02-2.91-1.64-2.43C40.1,85.97,39.9,86.33,40.31,87.09z"/>
				<path class="st5" d="M41.43,97.49l-0.04-0.09l0.01-0.1c0.41-3.23-1.25-9.55-1.39-10.09c-0.46-0.85-0.24-1.32-0.2-1.4l0.03-0.06
					l0.05-0.04c0.15-0.12,0.33-0.15,0.51-0.1c0.7,0.2,1.37,1.94,1.63,2.67c2.13,5.76,1.29,8.66,1.24,8.8
					c-0.1,0.26-0.39,1.03-0.98,1.06c-0.01,0-0.02,0-0.03,0C41.76,98.15,41.46,97.56,41.43,97.49z M41.42,88.51
					c-0.32-0.92-0.75-1.79-1.03-2.13c0.02,0.13,0.08,0.31,0.21,0.55l0.03,0.07c0.08,0.28,1.82,6.76,1.43,10.27
					c0.08,0.12,0.18,0.21,0.22,0.21h0c0,0,0.17-0.04,0.39-0.62C42.71,96.69,43.41,93.89,41.42,88.51z"/>
			</g>
			<g>
				<path class="st15" d="M53.2,89.93c0.07,0.15,0.4,0.36,1.47,0.55c0,0-1.07-0.98-0.33-2.28c0,0-0.25,1.52,2.13,2.68l-0.52,1.21
					c0,0-0.74,0.6-3.17-0.97c0,0-0.28-0.86,0.14-1.25C53.01,89.79,53.15,89.82,53.2,89.93z"/>
			</g>
			<g>
				<g>
					<path class="st16" d="M42.17,94.73c-18.03,5.56-26.83,4.91-26.83,4.91c-7.34-2.2-8.82-7.86-8.82-7.86
						c0.4,0.11-0.89-0.97,0.32-0.51c6.71,2.54,34.24-1.88,34.24-1.88s1.25,2.42,0.99,4.6L42.17,94.73z"/>
					<path class="st5" d="M15.31,100.08l-0.09-0.02c-7.49-2.24-9.06-7.92-9.12-8.16L6.04,91.7c-0.14-0.21-0.28-0.5-0.07-0.77
						c0.26-0.34,0.73-0.16,1.02-0.06c6.53,2.47,33.74-1.86,34.01-1.9l0.31-0.05l0.14,0.28c0.05,0.1,1.28,2.52,1.04,4.79l0.17,1.05
						l-0.36,0.11c-14.59,4.5-23.09,4.96-25.93,4.96C15.73,100.11,15.37,100.09,15.31,100.08z M41.62,94.01l0.01-0.06
						c0.19-1.6-0.51-3.39-0.81-4.07c-3.21,0.5-26.85,4.1-33.78,1.93c0,0.03-0.01,0.07-0.02,0.1c0.38,1.06,2.28,5.45,8.4,7.3
						c0.7,0.04,9.41,0.37,26.27-4.79L41.62,94.01z"/>
				</g>
				<g>
					<path class="st17" d="M39.32,92.63c0,0-20.92,5.39-32.02-0.04c0,0,0.12,0.66,1.44,2.18c0,0,3.31,4.09,7.79,3.67
						c0,0,10.93,0.24,25.22-4.54C41.74,93.9,40.59,92.29,39.32,92.63z"/>
				</g>
				<g>
					<path class="st3" d="M8.73,94.77c0,0,3.23,4.23,7.55,4.46c0,0,9.99,0.18,25.5-5.06l-0.19-0.86c0,0-19.15,4.78-32.18,1.56
						C9.41,94.88,10.32,95.01,8.73,94.77z"/>
				</g>
				<g>
					<path class="st18" d="M41.85,91.99c-2.3,0.41-4.61,0.77-6.93,1.11c-2.32,0.33-4.64,0.63-6.97,0.88c-2.33,0.25-4.66,0.46-7,0.56
						c-2.34,0.1-4.68,0.15-7.02-0.05c2.33,0.27,4.68,0.3,7.03,0.26c2.35-0.03,4.69-0.17,7.03-0.34c2.34-0.17,4.68-0.4,7.01-0.66
						c2.33-0.26,4.66-0.55,6.99-0.89L41.85,91.99z"/>
				</g>
			</g>
		</g>
		<g>
			<path class="st5" d="M48.27,89.45c-0.22,0.12-0.46,0.19-0.7,0.22c-0.12,0.02-0.24,0.03-0.36,0.03c-0.12,0-0.23,0-0.37-0.02
				l0.18-0.85c0.05,0.02,0.15,0.04,0.23,0.05c0.09,0.01,0.17,0.02,0.26,0.03c0.17,0.01,0.34-0.01,0.49-0.06
				c0.15-0.05,0.28-0.13,0.39-0.24c0.12-0.11,0.18-0.27,0.25-0.44l0.17-0.44l0.2,0.37c0.08,0.14,0.19,0.29,0.31,0.42
				c0.12,0.13,0.25,0.25,0.4,0.35c0.15,0.1,0.31,0.18,0.49,0.22c0.18,0.05,0.36,0.04,0.55,0.02c-0.18,0.06-0.37,0.1-0.57,0.09
				c-0.19-0.01-0.39-0.06-0.57-0.14c-0.18-0.08-0.35-0.19-0.51-0.31c-0.05-0.04-0.1-0.08-0.15-0.12c0.04-0.12,0.07-0.25,0.09-0.37
				l-0.38,0.08c0.09,0.11,0.19,0.21,0.29,0.29c-0.04,0.11-0.08,0.21-0.15,0.31C48.69,89.15,48.49,89.33,48.27,89.45z"/>
		</g>
		<g>
			<g>
				<path class="st19" d="M44.6,94.16c-1.2-1.3-0.1-3.61-0.1-3.61c0.19,2.3,2.72,0.89,2.72,0.89c-0.87,1.83,1.03,2.89,1.03,2.89
					c-1.02,1.76-3.1,0.31-3.1,0.31L44.6,94.16z"/>
				<path class="st5" d="M44.9,95l-0.59-0.51l-0.03-0.03c-1.39-1.5-0.23-3.99-0.18-4.09l0.7-1.46l0.13,1.61
					c0.04,0.43,0.17,0.71,0.39,0.83c0.48,0.26,1.4-0.13,1.68-0.28l1.19-0.66l-0.59,1.23c-0.67,1.41,0.7,2.23,0.85,2.32l0.39,0.22
					l-0.22,0.38c-0.33,0.57-0.78,0.92-1.35,1.04c-0.16,0.03-0.31,0.05-0.47,0.05C45.83,95.64,44.95,95.03,44.9,95z M46.56,92.18
					c-0.5,0.14-1.13,0.22-1.65-0.06c-0.14-0.07-0.26-0.16-0.36-0.27c-0.13,0.65-0.13,1.46,0.36,2.01l0.51,0.45
					c0.13,0.08,0.96,0.6,1.67,0.44c0.21-0.05,0.38-0.15,0.54-0.3C47.07,93.98,46.47,93.19,46.56,92.18z"/>
			</g>
			<g>
				<path class="st19" d="M48.4,94.41c-2.05-1.48-1.3-2.75-1.3-2.75c0.36-1.34,2.29-1.94,2.29-1.94c1.16-0.03,0.93,1.98,0.93,1.98
					c-0.3,2.13,0.83,2,0.83,2C49.97,95.62,48.4,94.41,48.4,94.41z"/>
				<path class="st5" d="M48.15,94.76c-2.11-1.53-1.6-2.95-1.45-3.26c0.44-1.52,2.48-2.18,2.57-2.2l0.06-0.02l0.06,0
					c0.37-0.01,0.68,0.12,0.92,0.38c0.6,0.65,0.47,1.93,0.46,2.09c-0.14,0.96,0.06,1.3,0.15,1.4c0.1,0.11,0.21,0.11,0.2,0.11
					l0.89-0.1l-0.47,0.76c-0.45,0.73-1,1.15-1.65,1.27c-0.12,0.02-0.24,0.03-0.36,0.03C48.79,95.22,48.22,94.81,48.15,94.76z
					 M50.3,93.76c-0.41-0.42-0.54-1.14-0.4-2.13c0.04-0.33,0.03-1.1-0.24-1.39c-0.04-0.04-0.1-0.09-0.2-0.1
					c-0.52,0.18-1.7,0.75-1.94,1.62l-0.02,0.06l-0.03,0.05c-0.01,0.01-0.5,0.96,1.18,2.18l0.01,0.01c0.01,0,0.5,0.37,1.07,0.27
					c0.26-0.05,0.5-0.19,0.72-0.43C50.4,93.86,50.35,93.81,50.3,93.76z"/>
			</g>
			<g>
				<path class="st19" d="M50.14,92.31c0.29-3.5,2.48-2.89,2.48-2.89c1.31,0.47,1.11,3.41,1.11,3.41c-0.96,1.25-2.35,1.07-2.35,1.07
					C50.41,93.57,50.14,92.31,50.14,92.31z"/>
				<path class="st5" d="M51.32,94.33l-0.08-0.02c-1.19-0.41-1.51-1.86-1.52-1.92l-0.01-0.06l0.01-0.06
					c0.12-1.43,0.56-2.42,1.31-2.94c0.82-0.57,1.68-0.34,1.72-0.33l0.03,0.01c1.58,0.57,1.42,3.52,1.4,3.85l-0.01,0.13l-0.08,0.1
					c-0.86,1.12-2.01,1.25-2.51,1.25C51.43,94.35,51.34,94.34,51.32,94.33z M52.49,89.83c-0.08-0.02-0.54-0.1-0.98,0.21
					c-0.51,0.35-0.83,1.12-0.93,2.23c0.06,0.21,0.31,0.97,0.89,1.2c0.21,0.02,1.12,0.02,1.82-0.81
					C53.34,91.77,53.19,90.11,52.49,89.83z"/>
			</g>
			<g>
				<g>
					<path class="st20" d="M50.5,92.68c-0.15-1.19,0.54-2.05,0.54-2.05c1.54-0.59,0.88,1.5,0.88,1.5c0.73-0.06,1.04,0.68,1.04,0.68
						c-0.08,0.78-1.37,1.04-1.37,1.04C50.63,93.96,50.5,92.68,50.5,92.68z"/>
				</g>
				<g>
					<path class="st5" d="M50.79,91.92c0.19,0.02,0.38,0.03,0.58,0.03c0.19,0,0.38-0.01,0.58-0.03c0.19-0.03,0.38-0.07,0.54-0.19
						c-0.1,0.17-0.29,0.3-0.47,0.4c-0.18,0.1-0.37,0.18-0.57,0.26c-0.19,0.07-0.39,0.14-0.59,0.19c-0.2,0.06-0.39,0.11-0.61,0.15
						l-0.03-0.87C50.4,91.88,50.6,91.9,50.79,91.92z"/>
				</g>
			</g>
			<g>
				<g>
					<path class="st20" d="M47.77,93.27c-0.7-1.21,0.24-2.1,0.24-2.1c1.44-0.81,0.87,1.41,0.87,1.41c0.71-0.16,1.28,1.16,1.28,1.16
						c0.03,0.78-0.46,0.6-0.46,0.6C48.78,94.57,47.77,93.27,47.77,93.27z"/>
				</g>
				<g>
					<path class="st5" d="M47.95,92.47c0.19-0.01,0.38-0.03,0.58-0.06c0.19-0.03,0.38-0.06,0.56-0.12c0.18-0.06,0.37-0.12,0.51-0.27
						c-0.08,0.19-0.24,0.34-0.41,0.46c-0.17,0.12-0.34,0.23-0.52,0.33c-0.18,0.1-0.37,0.19-0.55,0.28
						c-0.19,0.09-0.37,0.17-0.58,0.24l-0.15-0.86C47.56,92.48,47.76,92.48,47.95,92.47z"/>
				</g>
			</g>
			<g>
				<g>
					<path class="st20" d="M44.75,93.76c-0.31-1.15-0.13-1.79-0.13-1.79c1.44-0.81,1.51,1.26,1.51,1.26
						c0.71-0.16,1.28,1.16,1.28,1.16c-0.27,0.52-0.72,0.44-0.72,0.44C45.76,95.06,44.75,93.76,44.75,93.76z"/>
				</g>
				<g>
					<path class="st5" d="M44.98,93.17c0.19-0.01,0.38-0.03,0.58-0.06c0.19-0.03,0.38-0.06,0.56-0.12c0.18-0.06,0.37-0.12,0.51-0.27
						c-0.08,0.19-0.24,0.34-0.4,0.46c-0.17,0.12-0.34,0.23-0.52,0.33c-0.18,0.1-0.37,0.19-0.56,0.28c-0.19,0.09-0.37,0.16-0.58,0.24
						l-0.15-0.86C44.59,93.19,44.79,93.18,44.98,93.17z"/>
				</g>
			</g>
			<g>
				<g>
					<path class="st19" d="M44.18,91.04l-0.48-2.58c-0.13-0.61,1.18-1.68,1.18-1.68l1.37,2.3c2.68,0.7,2.1,1.99,2.1,1.99
						c-0.27,0.82-1.55,0.67-1.55,0.67C44.55,91.99,44.18,91.04,44.18,91.04z"/>
					<path class="st5" d="M43.77,91.2l-0.5-2.65c-0.16-0.78,0.88-1.73,1.34-2.11L45,86.12l1.54,2.58c1.13,0.32,1.86,0.8,2.16,1.43
						c0.25,0.52,0.11,0.96,0.07,1.08c-0.3,0.88-1.35,1.02-1.96,0.96c-0.26,0.03-0.5,0.04-0.73,0.04
						C44.23,92.21,43.82,91.32,43.77,91.2z M46.85,91.3c0.01,0,0.94,0.08,1.09-0.38l0.01-0.03c0-0.01,0.07-0.18-0.05-0.41
						c-0.12-0.23-0.5-0.66-1.75-0.99l-0.17-0.05l-1.19-1.99c-0.38,0.38-0.67,0.77-0.65,0.92l0.47,2.51c0.07,0.1,0.54,0.59,2.15,0.4
						l0.05-0.01L46.85,91.3z"/>
				</g>
				<g>
					<path class="st20" d="M46.06,89.88c1.99,0.42,1.64,1.24,1.64,1.24c-1.11,0.55-3.08,0.02-3.08,0.02
						C44.5,89.32,46.06,89.88,46.06,89.88z"/>
				</g>
			</g>
		</g>
		<g>
			<path class="st4" d="M44.6,94.16c-1.2-1.3-0.1-3.61-0.1-3.61c0.19,2.3,2.72,0.89,2.72,0.89c-0.87,1.83,1.03,2.89,1.03,2.89
				c-1.02,1.76-3.1,0.31-3.1,0.31L44.6,94.16z"/>
			<path class="st5" d="M44.9,95l-0.59-0.51l-0.03-0.03c-1.39-1.5-0.23-3.99-0.18-4.09l0.7-1.46l0.13,1.61
				c0.04,0.43,0.17,0.71,0.39,0.83c0.48,0.26,1.4-0.13,1.68-0.28l1.19-0.66l-0.59,1.23c-0.67,1.41,0.7,2.23,0.85,2.32l0.39,0.22
				l-0.22,0.38c-0.33,0.57-0.78,0.92-1.35,1.04c-0.16,0.03-0.31,0.05-0.47,0.05C45.83,95.64,44.95,95.03,44.9,95z M46.56,92.18
				c-0.5,0.14-1.13,0.22-1.65-0.06c-0.14-0.07-0.26-0.16-0.36-0.27c-0.13,0.65-0.13,1.46,0.36,2.01l0.51,0.45
				c0.13,0.08,0.96,0.6,1.67,0.44c0.21-0.05,0.38-0.15,0.54-0.3C47.07,93.98,46.47,93.19,46.56,92.18z"/>
		</g>
		<g>
			<path class="st4" d="M48.4,94.41c-2.05-1.48-1.3-2.75-1.3-2.75c0.36-1.34,2.29-1.94,2.29-1.94c1.16-0.03,0.93,1.98,0.93,1.98
				c-0.3,2.13,0.83,2,0.83,2C49.97,95.62,48.4,94.41,48.4,94.41z"/>
			<path class="st5" d="M48.15,94.76c-2.11-1.53-1.6-2.95-1.45-3.26c0.44-1.52,2.48-2.18,2.57-2.2l0.06-0.02l0.06,0
				c0.37-0.01,0.68,0.12,0.92,0.38c0.6,0.65,0.47,1.93,0.46,2.09c-0.14,0.96,0.06,1.3,0.15,1.4c0.1,0.11,0.21,0.11,0.2,0.11
				l0.89-0.1l-0.47,0.76c-0.45,0.73-1,1.15-1.65,1.27c-0.12,0.02-0.24,0.03-0.36,0.03C48.79,95.22,48.22,94.81,48.15,94.76z
				 M50.3,93.76c-0.41-0.42-0.54-1.14-0.4-2.13c0.04-0.33,0.03-1.1-0.24-1.39c-0.04-0.04-0.1-0.09-0.2-0.1
				c-0.52,0.18-1.7,0.75-1.94,1.62l-0.02,0.06l-0.03,0.05c-0.01,0.01-0.5,0.96,1.18,2.18l0.01,0.01c0.01,0,0.5,0.37,1.07,0.27
				c0.26-0.05,0.5-0.19,0.72-0.43C50.4,93.86,50.35,93.81,50.3,93.76z"/>
		</g>
		<g>
			<path class="st4" d="M50.14,92.31c0.29-3.5,2.48-2.89,2.48-2.89c1.31,0.47,1.11,3.41,1.11,3.41c-0.96,1.25-2.35,1.07-2.35,1.07
				C50.41,93.57,50.14,92.31,50.14,92.31z"/>
			<path class="st5" d="M51.32,94.33l-0.08-0.02c-1.19-0.41-1.51-1.86-1.52-1.92l-0.01-0.06l0.01-0.06
				c0.12-1.43,0.56-2.42,1.31-2.94c0.82-0.57,1.68-0.34,1.72-0.33l0.03,0.01c1.58,0.57,1.42,3.52,1.4,3.85l-0.01,0.13l-0.08,0.1
				c-0.86,1.12-2.01,1.25-2.51,1.25C51.43,94.35,51.34,94.34,51.32,94.33z M52.49,89.83c-0.08-0.02-0.54-0.1-0.98,0.21
				c-0.51,0.35-0.83,1.12-0.93,2.23c0.06,0.21,0.31,0.97,0.89,1.2c0.21,0.02,1.12,0.02,1.82-0.81
				C53.34,91.77,53.19,90.11,52.49,89.83z"/>
		</g>
		<g>
			<g>
				<path class="st6" d="M50.5,92.68c-0.15-1.19,0.54-2.05,0.54-2.05c1.54-0.59,0.88,1.5,0.88,1.5c0.73-0.06,1.04,0.68,1.04,0.68
					c-0.08,0.78-1.37,1.04-1.37,1.04C50.63,93.96,50.5,92.68,50.5,92.68z"/>
			</g>
			<g>
				<path class="st5" d="M50.79,91.92c0.19,0.02,0.38,0.03,0.58,0.03c0.19,0,0.38-0.01,0.58-0.03c0.19-0.03,0.38-0.07,0.54-0.19
					c-0.1,0.17-0.29,0.3-0.47,0.4c-0.18,0.1-0.37,0.18-0.57,0.26c-0.19,0.07-0.39,0.14-0.59,0.19c-0.2,0.06-0.39,0.11-0.61,0.15
					l-0.03-0.87C50.4,91.88,50.6,91.9,50.79,91.92z"/>
			</g>
		</g>
		<g>
			<g>
				<path class="st6" d="M47.77,93.27c-0.7-1.21,0.24-2.1,0.24-2.1c1.44-0.81,0.87,1.41,0.87,1.41c0.71-0.16,1.28,1.16,1.28,1.16
					c0.03,0.78-0.46,0.6-0.46,0.6C48.78,94.57,47.77,93.27,47.77,93.27z"/>
			</g>
			<g>
				<path class="st5" d="M47.95,92.47c0.19-0.01,0.38-0.03,0.58-0.06c0.19-0.03,0.38-0.06,0.56-0.12c0.18-0.06,0.37-0.12,0.51-0.27
					c-0.08,0.19-0.24,0.34-0.41,0.46c-0.17,0.12-0.34,0.23-0.52,0.33c-0.18,0.1-0.37,0.19-0.55,0.28c-0.19,0.09-0.37,0.17-0.58,0.24
					l-0.15-0.86C47.56,92.48,47.76,92.48,47.95,92.47z"/>
			</g>
		</g>
		<g>
			<g>
				<path class="st6" d="M44.75,93.76c-0.31-1.15-0.13-1.79-0.13-1.79c1.44-0.81,1.51,1.26,1.51,1.26c0.71-0.16,1.28,1.16,1.28,1.16
					c-0.27,0.52-0.72,0.44-0.72,0.44C45.76,95.06,44.75,93.76,44.75,93.76z"/>
			</g>
			<g>
				<path class="st5" d="M44.98,93.17c0.19-0.01,0.38-0.03,0.58-0.06c0.19-0.03,0.38-0.06,0.56-0.12c0.18-0.06,0.37-0.12,0.51-0.27
					c-0.08,0.19-0.24,0.34-0.4,0.46c-0.17,0.12-0.34,0.23-0.52,0.33c-0.18,0.1-0.37,0.19-0.56,0.28c-0.19,0.09-0.37,0.16-0.58,0.24
					l-0.15-0.86C44.59,93.19,44.79,93.18,44.98,93.17z"/>
			</g>
		</g>
		<g>
			<g>
				<path class="st4" d="M46.52,89.38c2.68,0.7,2.1,1.98,2.1,1.98c-0.27,0.82-1.55,0.67-1.55,0.67c-3.26,0.62-3.08-0.84-3.08-0.84
					l-0.22-0.85c-0.12-2.38,1.21-3.01,1.21-3.01S46.71,85.69,46.52,89.38z"/>
			</g>
			<g>
				<path class="st5" d="M48.82,90.55c-0.02-0.13-0.06-0.27-0.13-0.42c-0.32-0.66-1.1-1.16-2.33-1.48l-0.22,0.84
					c1.25,0.33,1.64,0.76,1.75,0.99c0.12,0.23,0.05,0.4,0.05,0.41l-0.01,0.03c-0.15,0.46-1.08,0.38-1.09,0.38l-0.07-0.01l-0.07,0.01
					c-1.7,0.32-2.27,0.02-2.43-0.12c-0.14-0.12-0.14-0.24-0.14-0.26l0.01-0.08l-0.02-0.07l-0.21-0.81c-0.09-2.06,1.16-2.8,1.18-2.81
					l-0.44-0.76c-0.07,0.04-1.74,1.04-1.61,3.66l0,0.04l0.22,0.84c0,0.18,0.05,0.55,0.39,0.87c0.56,0.52,1.61,0.65,3.14,0.37
					c0.61,0.05,1.64-0.09,1.94-0.96C48.79,91.13,48.87,90.88,48.82,90.55z"/>
			</g>
			<g>
				<path class="st6" d="M45.38,89.76c2.74-0.02,1.89,1.42,1.89,1.42c-1.11,0.55-2.83,0.2-2.83,0.2
					C44.31,89.56,45.38,89.76,45.38,89.76z"/>
			</g>
		</g>
	</g>
	<g>
		<g>
			<g>
				<path class="st4" d="M63.81,83.96c1.49,1.18,7.84,0.69,7.84,0.69s-9.25-1.15,0,0c9.25,1.15,16.94-4.32,16.94-4.32
					s-0.12,0.35,0,0c0.12-0.35-1.42-5.88-1.42-5.88s-1.47-5.04-6.96-7.71c0,0-8.6,5.15-14.07,1.48c0,0-4.48,2.48-3.42,15.1l1.1,0.82
					l-1.24-0.26C62.57,83.87,63.77,83.93,63.81,83.96z"/>
				<path class="st5" d="M71.64,85.08c-0.75,0.06-5.25,0.36-7.38-0.41l-1.78-0.37l0.07-0.56l-0.26-0.19l-0.02-0.2
					c-1.07-12.75,3.45-15.41,3.64-15.52l0.23-0.13l0.22,0.15c5.18,3.46,13.52-1.45,13.6-1.5l0.2-0.12l0.21,0.1
					c5.6,2.73,7.13,7.77,7.19,7.99c0.82,2.94,1.18,4.44,1.33,5.22l0.5-0.35L89,80.46c0,0,0,0.01,0,0.01l-0.05,0.16l-0.2-0.07
					l0.09,0.13c-0.29,0.21-6.51,4.56-14.56,4.56C73.42,85.24,72.53,85.19,71.64,85.08z M86.74,74.57c-0.01-0.05-1.46-4.76-6.53-7.34
					c-1.37,0.78-8.85,4.71-14.07,1.52c-0.82,0.68-3.85,3.95-3.02,14.34l0.56,0.42c0.28,0.03,0.32,0.06,0.39,0.12
					c0.54,0.43,1.94,0.61,3.44,0.67l0.07-0.59l4.11,0.51c8.17,1.02,15.19-3.29,16.43-4.11C88.02,79.37,87.37,76.84,86.74,74.57z"/>
			</g>
			<g>
				<path class="st6" d="M75.81,75.16c0,0-5.38,1.12-12.14-1.38c0,0-0.74,4.07,1.08,8.6c0,0,7.51,1.63,13.28-0.23
					C78.02,82.15,81.2,75.67,75.81,75.16z"/>
			</g>
		</g>
		<g>
			<path class="st21" d="M82.6,68.44c0,0-4,6.77-10.69,7.42c0,0-6.28,0.53-7.64-4.14c0,0-0.54-0.77,0.31-2.71
				c0,0-0.17-1.34-1.27,0.4c0,0-1.11,3.15,1.71,5.97c0,0,4.21,4.27,12.1,0.53c0,0,4.97-2.56,7.23-7.52c0,0,0.64-0.72-0.06-1.3
				C84.28,67.09,83.44,66.46,82.6,68.44z"/>
			<path class="st22" d="M64.78,75.62c-2.93-2.93-1.83-6.17-1.78-6.31l0.03-0.07c0.51-0.8,0.91-1.12,1.31-1.03
				c0.45,0.1,0.54,0.65,0.56,0.76l0.01,0.09l-0.04,0.08c-0.75,1.69-0.34,2.39-0.34,2.39l0,0l0.03,0.04l0.02,0.05
				c1.27,4.36,7.24,3.91,7.3,3.91c6.28-0.61,10.2-6.87,10.43-7.24c0.4-0.92,0.86-1.45,1.38-1.59c0.44-0.12,0.75,0.1,0.8,0.13
				c0.27,0.22,0.42,0.5,0.45,0.81c0.03,0.44-0.21,0.8-0.31,0.92c-2.29,4.98-7.15,7.53-7.37,7.64c-2.43,1.15-4.53,1.56-6.28,1.56
				C66.96,77.77,64.81,75.65,64.78,75.62z M83.84,67.34c-0.18,0.05-0.54,0.29-0.94,1.23l-0.02,0.04c-0.17,0.28-4.16,6.92-10.95,7.58
				c-0.07,0.01-6.52,0.49-7.97-4.34c-0.13-0.23-0.48-1.11,0.27-2.87c-0.01-0.04-0.03-0.09-0.04-0.12c-0.07,0.04-0.26,0.18-0.59,0.69
				c-0.11,0.35-0.87,3.09,1.64,5.6c0.04,0.04,4.13,4.07,11.72,0.47c0.05-0.03,4.9-2.57,7.08-7.37l0.02-0.05l0.03-0.04
				c0,0,0.2-0.24,0.18-0.48c-0.01-0.12-0.07-0.23-0.2-0.34C84.06,67.34,83.97,67.3,83.84,67.34z"/>
		</g>
		<g>
			<path class="st23" d="M63.19,70.77c0,0,0.23,3.72,2.97,5.08c0,0-0.11-0.23,0.41-0.36C66.56,75.5,64.3,74.75,63.19,70.77z"/>
		</g>
		<g>
			<path class="st23" d="M80.41,72.01c0.08-0.11-2.71,2.67-7.14,3.94c0,0-0.04,0.44,0.91,0.28C74.19,76.23,77.9,75.27,80.41,72.01z"
				/>
		</g>
		<g>
			<g>
				<g>
					<g>
						<path class="st24" d="M73.45,84.69c0,0-3.07,4.76-1.74,8.91c0,0,0.54,2.29,3.06,2.24c0,0,3.21-0.2,3.18-3.23
							c0,0,0.67-3.97-2.74-7.94L73.45,84.69z"/>
						<path class="st25" d="M71.3,93.71c-1.37-4.29,1.66-9.06,1.79-9.26l0.13-0.2l2.2-0.02l0.13,0.15c3.36,3.91,2.92,7.79,2.85,8.25
							c0,2.7-2.34,3.55-3.61,3.63c-0.03,0-0.05,0-0.08,0C72.5,96.28,71.52,94.62,71.3,93.71z M73.7,85.12
							c-0.54,0.92-2.68,4.9-1.57,8.34l0.01,0.03c0.02,0.08,0.49,1.91,2.55,1.91c0.02,0,0.04,0,0.06,0c0.11-0.01,2.8-0.22,2.77-2.79
							l0-0.04l0.01-0.04c0.01-0.04,0.58-3.71-2.51-7.43L73.7,85.12z"/>
					</g>
					<g>
						<path class="st26" d="M74.62,85c0,0-0.63,3.26,0.16,10.4c0,0,3.1-0.55,2.69-3.43C77.47,91.98,78.03,87.97,74.62,85z"/>
					</g>
					<g>
						<path class="st23" d="M71.83,93.38c0,0,1.22-1.63,2.65-2.42c0,0,1.81,0.63,3.23,1.75c0,0,0.09-0.54-0.05-1.44
							c0,0-1.83-1.47-3.29-1.64c0,0-1.56,0.63-2.77,2.29C71.61,91.94,71.6,92.43,71.83,93.38z"/>
					</g>
					<g>
						<path class="st23" d="M71.73,89.84c0,0,1.35-1.27,2.62-1.85c0,0,1.97,0.59,3.13,1.57c0,0,0-0.43-0.32-1.28
							c0,0-1.6-1.17-2.83-1.38c0,0-1.13,0.34-2.24,1.64C72.08,88.54,71.95,88.83,71.73,89.84z"/>
					</g>
				</g>
				<g>
					<path class="st25" d="M73.93,84.76c0,0.81,0.03,1.62,0.06,2.42c0.04,0.81,0.08,1.61,0.15,2.41c0.06,0.8,0.13,1.61,0.22,2.41
						c0.08,0.8,0.19,1.6,0.3,2.4c-0.06-0.8-0.12-1.6-0.16-2.41c-0.04-0.8-0.07-1.61-0.08-2.41c-0.02-0.8-0.02-1.61-0.01-2.41
						c0.01-0.8,0.03-1.61,0.07-2.41L73.93,84.76z"/>
				</g>
			</g>
			<g>
				<g>
					<g>
						<path class="st24" d="M68.85,85.13c0,0-3.49,4.34-2.57,8.11c0,0,0.31,2.08,2.8,2.04c0,0,3.18-0.18,3.44-2.94
							c0,0,1.04-3.61-1.94-7.23L68.85,85.13z"/>
						<path class="st25" d="M65.85,93.33c-0.94-3.93,2.51-8.29,2.66-8.47l0.13-0.16l2.15-0.02l0.13,0.16
							c2.95,3.58,2.14,7.14,2.03,7.58c-0.26,2.45-2.63,3.23-3.87,3.3c-0.03,0-0.06,0-0.08,0C66.81,95.72,65.99,94.18,65.85,93.33z
							 M69.07,85.57c-0.6,0.8-3.12,4.45-2.36,7.58l0.01,0.04c0.03,0.17,0.33,1.67,2.28,1.67c0.02,0,0.04,0,0.07,0
							c0.11-0.01,2.81-0.19,3.03-2.55l0.02-0.08c0.01-0.03,0.92-3.32-1.72-6.67L69.07,85.57z"/>
					</g>
					<g>
						<path class="st26" d="M69.97,85.41c0,0-0.94,2.97-0.85,9.47c0,0,3.11-0.51,2.98-3.12C72.1,91.77,73.05,88.12,69.97,85.41z"/>
					</g>
					<g>
						<path class="st23" d="M66.42,93.05c0,0,1.35-1.48,2.84-2.2c0,0,1.72,0.57,3.02,1.6c0,0,0.14-0.5,0.09-1.31
							c0,0-1.66-1.34-3.08-1.49c0,0-1.6,0.58-2.95,2.09C66.34,91.73,66.29,92.19,66.42,93.05z"/>
					</g>
					<g>
						<path class="st23" d="M66.66,89.83c0,0,1.46-1.16,2.75-1.69c0,0,1.89,0.54,2.93,1.43c0,0,0.04-0.39-0.19-1.17
							c0,0-1.46-1.07-2.66-1.25c0,0-1.14,0.31-2.36,1.49C67.13,88.64,66.97,88.9,66.66,89.83z"/>
					</g>
				</g>
				<g>
					<path class="st25" d="M69.32,85.2c-0.08,0.74-0.13,1.47-0.17,2.21c-0.04,0.73-0.07,1.47-0.09,2.2
						c-0.02,0.73-0.02,1.46-0.01,2.19c0.01,0.73,0.03,1.46,0.06,2.18c0.02-0.73,0.04-1.46,0.08-2.19c0.04-0.73,0.09-1.46,0.15-2.19
						c0.06-0.73,0.14-1.46,0.22-2.2c0.09-0.73,0.19-1.46,0.3-2.19L69.32,85.2z"/>
				</g>
			</g>
			<g>
				<g>
					<g>
						<path class="st24" d="M64.11,84.27c0,0-3.8,4.31-3.21,8.15c0,0,0.13,2.12,2.59,2.14c0,0,3.15-0.1,3.64-2.89
							c0,0,1.33-3.63-1.31-7.37L64.11,84.27z"/>
						<path class="st25" d="M60.47,92.47c-0.6-4,3.15-8.31,3.31-8.49l0.13-0.15l2.13,0.04l0.13,0.18c2.62,3.72,1.52,7.3,1.37,7.73
							c-0.45,2.45-2.84,3.18-4.06,3.22C61.24,94.97,60.54,93.34,60.47,92.47z M64.31,84.71c-0.64,0.78-3.47,4.44-2.97,7.65l0,0.04
							c0,0.07,0.13,1.71,2.14,1.73c0.11,0,2.8-0.13,3.22-2.53l0.02-0.07c0.01-0.03,1.17-3.36-1.13-6.79L64.31,84.71z"/>
					</g>
					<g>
						<path class="st26" d="M65.2,84.58c0,0-1.17,2.98-1.63,9.57c0,0,3.1-0.43,3.19-3.08C66.77,91.07,68,87.4,65.2,84.58z"/>
					</g>
					<g>
						<path class="st23" d="M61.06,92.22c0,0,1.46-1.47,2.99-2.16c0,0,1.65,0.62,2.84,1.69c0,0,0.18-0.5,0.2-1.33
							c0,0-1.53-1.4-2.92-1.59c0,0-1.62,0.54-3.08,2.04C61.09,90.89,61,91.35,61.06,92.22z"/>
					</g>
					<g>
						<path class="st23" d="M61.56,88.97c0,0,1.53-1.14,2.85-1.64c0,0,1.81,0.59,2.76,1.52c0,0,0.08-0.39-0.09-1.19
							c0,0-1.35-1.12-2.51-1.34c0,0-1.15,0.28-2.45,1.45C62.13,87.78,61.95,88.04,61.56,88.97z"/>
					</g>
				</g>
				<g>
					<path class="st25" d="M64.57,84.35c-0.14,0.75-0.25,1.49-0.35,2.23c-0.1,0.74-0.19,1.48-0.27,2.22
						c-0.08,0.74-0.14,1.48-0.2,2.22c-0.06,0.74-0.09,1.48-0.12,2.21c0.08-0.74,0.16-1.48,0.26-2.22c0.1-0.74,0.21-1.48,0.33-2.22
						c0.12-0.74,0.26-1.48,0.4-2.22c0.15-0.74,0.3-1.48,0.48-2.21L64.57,84.35z"/>
				</g>
			</g>
			<g>
				<g>
					<g>
						<path class="st24" d="M85.67,82.36c0,0-1.5,5.16,0.66,8.78c0,0,1.02,2.04,3.19,1.46c0,0,2.72-0.88,1.96-3.73
							c0,0-0.38-3.89-4.29-6.9L85.67,82.36z"/>
						<path class="st25" d="M85.94,91.35c-2.22-3.74-0.76-8.89-0.69-9.11L85.32,82l1.97-0.51l0.17,0.13
							c3.85,2.97,4.4,6.73,4.45,7.16c0.66,2.55-1.19,3.88-2.28,4.23c-0.31,0.08-0.6,0.12-0.87,0.12
							C87.27,93.14,86.29,92.04,85.94,91.35z M91.06,88.98l-0.01-0.07c0-0.04-0.41-3.63-3.96-6.47l-1.06,0.27
							c-0.25,1.03-1.11,5.21,0.67,8.2l0.02,0.03c0.04,0.07,0.89,1.71,2.67,1.24C89.57,92.12,91.68,91.34,91.06,88.98z"/>
					</g>
					<g>
						<path class="st26" d="M86.75,82.4c0,0,0.24,3.21,2.65,9.78c0,0,2.54-1.19,1.49-3.81C90.9,88.37,90.42,84.47,86.75,82.4z"/>
					</g>
					<g>
						<path class="st23" d="M86.38,90.92c0,0,0.66-1.8,1.71-2.85c0,0,1.71,0.2,3.22,0.96c0,0-0.05-0.53-0.39-1.35
							c0,0-1.94-0.99-3.24-0.83c0,0-1.2,0.93-1.84,2.76C85.83,89.6,85.95,90.07,86.38,90.92z"/>
					</g>
					<g>
						<path class="st23" d="M85.43,87.6c0,0,0.86-1.49,1.81-2.31c0,0,1.85,0.13,3.08,0.81c0,0-0.1-0.41-0.58-1.14
							c0,0-1.67-0.76-2.78-0.69c0,0-0.89,0.56-1.54,2.03C85.42,86.3,85.37,86.59,85.43,87.6z"/>
					</g>
				</g>
				<g>
					<path class="st25" d="M86.1,82.33c0.2,0.77,0.42,1.52,0.64,2.27c0.23,0.75,0.46,1.5,0.71,2.25c0.25,0.74,0.5,1.49,0.77,2.22
						c0.27,0.74,0.55,1.47,0.84,2.2c-0.25-0.74-0.49-1.49-0.72-2.24c-0.23-0.75-0.45-1.5-0.66-2.26c-0.21-0.76-0.4-1.51-0.59-2.27
						c-0.19-0.76-0.36-1.52-0.52-2.29L86.1,82.33z"/>
				</g>
			</g>
			<g>
				<g>
					<g>
						<path class="st24" d="M80.79,83.76c0,0-1.09,5.38,1.3,8.79c0,0,1.15,1.95,3.24,1.1c0,0,2.61-1.2,1.65-4
							c0,0-0.67-3.88-4.73-6.47L80.79,83.76z"/>
						<path class="st25" d="M81.73,92.79c-2.46-3.52-1.41-8.89-1.37-9.12l0.05-0.23l1.89-0.74l0.19,0.12
							c4.01,2.56,4.83,6.29,4.92,6.73c0.83,2.49-0.87,4.03-1.91,4.51c-0.42,0.17-0.82,0.24-1.18,0.24
							C83.02,94.3,82.1,93.4,81.73,92.79z M86.57,89.8l-0.02-0.07c-0.01-0.04-0.67-3.61-4.35-6.06l-1.02,0.4
							c-0.17,1.04-0.71,5.4,1.27,8.23l0.02,0.03c0.04,0.07,0.98,1.61,2.69,0.92C85.33,93.17,87.37,92.12,86.57,89.8z"/>
					</g>
					<g>
						<path class="st26" d="M81.86,83.67c0,0,0.48,3.21,3.34,9.57c0,0,2.4-1.5,1.18-4.02C86.38,89.22,85.61,85.34,81.86,83.67z"/>
					</g>
					<g>
						<path class="st23" d="M82.13,92.31c0,0,0.51-1.89,1.46-3.08c0,0,1.7,0.01,3.23,0.59c0,0-0.09-0.53-0.49-1.32
							c0,0-1.98-0.78-3.24-0.47c0,0-1.1,1.08-1.6,3C81.5,91.05,81.65,91.51,82.13,92.31z"/>
					</g>
					<g>
						<path class="st23" d="M80.95,89.07c0,0,0.73-1.61,1.6-2.55c0,0,1.82-0.08,3.08,0.46c0,0-0.13-0.4-0.66-1.08
							c0,0-1.69-0.58-2.78-0.37c0,0-0.83,0.67-1.36,2.23C80.84,87.76,80.82,88.06,80.95,89.07z"/>
					</g>
				</g>
				<g>
					<path class="st25" d="M81.22,83.67c0.25,0.75,0.52,1.49,0.8,2.22c0.28,0.73,0.57,1.46,0.87,2.19c0.3,0.72,0.61,1.44,0.93,2.16
						c0.32,0.71,0.65,1.42,0.99,2.12c-0.3-0.72-0.6-1.45-0.88-2.18c-0.28-0.73-0.55-1.47-0.81-2.2c-0.26-0.74-0.51-1.48-0.75-2.23
						c-0.24-0.75-0.47-1.5-0.68-2.25L81.22,83.67z"/>
				</g>
			</g>
			<g>
				<g>
					<g>
						<path class="st24" d="M77.17,84.49c0,0-1.83,5.12,0.02,9.02c0,0,0.85,2.18,3,1.78c0,0,2.71-0.64,2.18-3.63
							c0,0-0.1-4-3.69-7.44L77.17,84.49z"/>
						<path class="st25" d="M76.79,93.68c-1.89-4.01-0.11-9.12-0.03-9.34l0.09-0.24l1.97-0.34l0.16,0.15
							c3.54,3.39,3.8,7.27,3.82,7.71c0.46,2.66-1.44,3.84-2.51,4.1l-0.02,0c-0.2,0.04-0.4,0.06-0.59,0.06
							C78.06,95.78,77.1,94.47,76.79,93.68z M81.93,91.74l-0.01-0.07c0-0.04-0.13-3.74-3.4-6.98l-1.03,0.18
							c-0.32,1.04-1.45,5.23,0.08,8.45l0.01,0.03c0.03,0.08,0.75,1.83,2.5,1.51C80.28,94.82,82.38,94.23,81.93,91.74z"/>
					</g>
					<g>
						<path class="st26" d="M78.23,84.63c0,0,0.01,3.3,1.89,10.23c0,0,2.56-0.98,1.72-3.75C81.84,91.11,81.65,87.09,78.23,84.63z"/>
					</g>
					<g>
						<path class="st23" d="M77.25,93.28c0,0,0.77-1.77,1.86-2.75c0,0,1.65,0.37,3.06,1.27c0,0-0.01-0.55-0.29-1.41
							c0,0-1.82-1.19-3.1-1.15c0,0-1.23,0.84-1.98,2.65C76.82,91.89,76.9,92.38,77.25,93.28z"/>
					</g>
					<g>
						<path class="st23" d="M76.57,89.81c0,0,0.94-1.44,1.93-2.19c0,0,1.79,0.31,2.94,1.11c0,0-0.07-0.42-0.49-1.22
							c0,0-1.57-0.93-2.66-0.96c0,0-0.91,0.49-1.64,1.93C76.65,88.48,76.58,88.78,76.57,89.81z"/>
					</g>
				</g>
				<g>
					<path class="st25" d="M77.6,84.5c0.14,0.8,0.3,1.59,0.46,2.38c0.17,0.79,0.34,1.57,0.53,2.36c0.19,0.78,0.39,1.56,0.6,2.34
						c0.21,0.78,0.43,1.55,0.66,2.32c-0.19-0.78-0.38-1.56-0.54-2.35c-0.17-0.79-0.33-1.57-0.48-2.36
						c-0.15-0.79-0.29-1.58-0.41-2.37c-0.13-0.79-0.25-1.59-0.34-2.38L77.6,84.5z"/>
				</g>
			</g>
			<g>
				<g>
					<path class="st7" d="M62.78,87.99c0,0,13.28,4.17,26.46-3.14c0,0,0.46-0.66,0.39-1.15c0,0-0.37-2.95-0.55-3.58
						c-0.15-0.52-0.4-0.68-0.84-0.26c0,0-6.36,6.19-25.5,3.43c0,0-0.32-1.12-0.82,0.1C61.91,83.4,61.82,88.01,62.78,87.99z"/>
					<path class="st8" d="M62.7,88.42c-0.14-0.01-0.31-0.07-0.48-0.23c-0.77-0.77-0.77-3.87-0.75-4.8l0-0.08l0.03-0.08
						c0.1-0.24,0.37-0.87,0.9-0.84c0.33,0.02,0.53,0.28,0.64,0.51c18.45,2.6,24.82-3.29,24.88-3.35c0.32-0.31,0.63-0.42,0.92-0.34
						c0.45,0.12,0.59,0.63,0.64,0.79c0.19,0.64,0.53,3.34,0.56,3.63c0.09,0.62-0.37,1.33-0.46,1.46l-0.06,0.08l-0.09,0.05
						c-6.2,3.44-12.47,4.35-17.38,4.35C66.88,89.58,63.2,88.56,62.7,88.42z M89.19,83.76c-0.1-0.81-0.4-3.02-0.54-3.51
						c-0.02-0.05-0.03-0.1-0.04-0.13c-0.02,0.02-0.04,0.04-0.07,0.06c-0.22,0.21-4.55,4.27-16.51,4.27c-2.71,0-5.82-0.21-9.36-0.72
						l-0.28-0.04l-0.04-0.16c-0.02,1.88,0.19,3.7,0.48,4.01h0.02l0.07,0.02c0.13,0.04,13.19,4.01,26.02-3.05
						C89.07,84.3,89.22,83.95,89.19,83.76z"/>
				</g>
				<g>
					<path class="st9" d="M62.14,84c0.51-0.9,0.79-0.08,0.79-0.08C80.4,85.99,87.65,81,87.65,81c0.12-0.09,0.24,0.07,0.33,0.05
						c-0.07,1.48-0.27,3.77-2.89,5.38c-14.56,4.52-22.18,1.13-22.18,1.13C61.98,87.58,62.14,84,62.14,84z"/>
				</g>
				<g>
					<path class="st3" d="M86.64,81.56c0,0-8.83,4.34-23.5,2.36c0,0-0.72-0.02-0.88,0.38c0,0-0.32,1.28,0.41,3.06
						c0,0,0.95-0.09,1.07-2.13c0,0,14.35,2.22,22.3-2.64C86.05,82.59,88.32,80.8,86.64,81.56z"/>
				</g>
			</g>
		</g>
		<g>
			<path class="st16" d="M70.45,76.87c0,0-0.02,1.07,1.29,1.13c0,0-0.11,1.15,1.56,2.13c0,0-1.29,1.1-3.4-0.17
				c0,0-3.5-2.56-1.68-5.7c0,0,1.85-0.68,3.42-0.01c0,0,0.14,0.4,0.01,1.2C71.65,75.45,70.19,75.46,70.45,76.87z"/>
			<path class="st5" d="M69.67,80.34l-0.03-0.02c-1.32-0.97-3.4-3.52-1.8-6.27l0.08-0.14l0.15-0.05c0.08-0.03,2.04-0.73,3.74,0
				l0.18,0.08l0.06,0.18c0.02,0.05,0.17,0.53,0.03,1.41l-0.06,0.36l-0.36,0.01c-0.13,0-0.5,0.06-0.68,0.28
				c-0.11,0.14-0.14,0.35-0.09,0.63l0.01,0.08c0,0.15,0.07,0.66,0.87,0.69l0.44,0.03l-0.02,0.44c0,0.04-0.03,0.91,1.35,1.72
				l0.53,0.31l-0.47,0.4c-0.04,0.03-0.66,0.55-1.72,0.55C71.26,81.01,70.52,80.85,69.67,80.34z M71.34,78.39
				c-1.05-0.21-1.31-1.08-1.32-1.48c-0.11-0.65,0.09-1.07,0.29-1.3c0.28-0.34,0.66-0.48,0.95-0.54c0.02-0.22,0.01-0.38,0-0.49
				c-1.1-0.37-2.32-0.07-2.74,0.05c-1.38,2.63,1.37,4.78,1.63,4.98c1.03,0.61,1.81,0.6,2.3,0.47C71.68,79.44,71.43,78.8,71.34,78.39
				z"/>
		</g>
		<g>
			<path class="st17" d="M70.2,75.02c0,0-1.07,3.63,2.17,5.02c0,0-2.1,0.69-3.79-1.98c0,0-0.93-2.22-0.08-3.31
				C68.5,74.75,68.79,75.43,70.2,75.02z"/>
		</g>
		<g>
			<path class="st3" d="M68.5,74.75c0,0-1.39,3.02,1.72,4.97c0,0-2.07-1.72-1.09-4.66c0,0,1.16,0.05,1.84-0.38
				C70.96,74.68,69.68,73.88,68.5,74.75z"/>
		</g>
	</g>
	<g>
		<g>
			<path class="st5" d="M95.96,68.37c0.11,0.05,0.22,0.11,0.33,0.18c-0.11,0.07-0.23,0.14-0.36,0.2L95.96,68.37z"/>
		</g>
		<g>
			<path class="st4" d="M84.8,64.7c0,0,4.26-0.98,9.23,0.15c0,0-2.09,3.68-0.5,6.6c0,0-3.57-0.38-6.53-0.58
				c-1.05-0.07-3.12,2.19-4.88,3.26c-2.04,1.24-5.83-1.31-3.75-4.46C78.66,69.23,81.24,65.71,84.8,64.7z"/>
			<path class="st5" d="M78.27,73.73c-1.15-1.19-1.25-2.8-0.26-4.3c0.03-0.04,2.75-4.03,6.67-5.15l0.02-0.01
				c0.18-0.04,4.42-0.99,9.43,0.15l0.57,0.13l-0.29,0.51c-0.02,0.03-1.96,3.5-0.49,6.18l0.4,0.73l-0.83-0.09
				c-0.04,0-3.6-0.38-6.52-0.58c-0.47-0.03-1.6,0.88-2.49,1.61c-0.7,0.57-1.43,1.16-2.12,1.59c-0.43,0.26-0.93,0.39-1.44,0.39
				C79.98,74.89,79,74.48,78.27,73.73z M87.03,70.44c2.13,0.14,4.59,0.38,5.8,0.5c-0.82-2.28,0.08-4.73,0.56-5.78
				c-4.46-0.88-8.26-0.08-8.48-0.03c-3.62,1.03-6.14,4.75-6.17,4.78c-1.08,1.64-0.25,2.8,0.16,3.22c0.84,0.87,2.16,1.15,3,0.63
				c0.65-0.39,1.35-0.97,2.03-1.52c1.19-0.97,2.22-1.8,3.03-1.8C86.98,70.44,87.01,70.44,87.03,70.44z"/>
		</g>
		<g>
			<path class="st6" d="M81.29,73.76c0,0-2.24,0.22-0.6-3.59c0,0,2.09-2.38,4.64-3.15c0,0,4.21,0.11,4.99,0.17
				c0,0-0.67,1.83,0.73,3.62c0,0-4.15-0.52-4.61-0.35c0,0-2.14,1.33-3.71,2.65C82.73,73.12,81.93,73.9,81.29,73.76z"/>
		</g>
		<g>
			<g>
				<g>
					<path class="st7" d="M90.69,71.34c0,0-1.82-3.6,0.67-7.08l4.28,0.17c0,0-2.53,3.12-1.12,7.43
						C94.52,71.86,92.1,71.64,90.69,71.34z"/>
					<path class="st8" d="M94.48,72.3c-0.1-0.01-2.46-0.22-3.88-0.53l-0.2-0.04l-0.09-0.19c-0.08-0.16-1.91-3.88,0.7-7.53l0.14-0.19
						l5.38,0.22l-0.54,0.67c-0.1,0.12-2.36,3-1.04,7.02l0.21,0.63L94.48,72.3z M91.58,64.71c-1.84,2.76-0.9,5.51-0.59,6.25
						c0.92,0.18,2.18,0.33,2.93,0.4c-0.77-3.04,0.27-5.42,0.92-6.53L91.58,64.71z"/>
				</g>
				<g>
					<path class="st9" d="M91.59,64.81c0,0-2.28,5.05,2.21,5.7c0,0-0.63-2.74,0.95-5.52L91.59,64.81z"/>
				</g>
			</g>
			<g>
				<path class="st3" d="M94.88,64.81l-3.29,0c0,0-1.03,2.39,2.34,3.94C93.93,68.75,94.16,66.69,94.88,64.81z"/>
			</g>
		</g>
		<g>
			<g>
				<path class="st4" d="M96.77,64.19c0,0-1.75-0.12-2.49,2.63c0,0-1.34,3.31,1.61,6.82c0,0,2.35-0.6,3.32-0.02
					c0,0,1.4,0.01,1.5-1.16c0,0,2.23-0.46,1.93-1.18c0,0-0.81-1.17-0.43-2.72c0,0-0.14-0.91-0.69-1.15l-0.24-1.28
					c0,0-0.04-0.14-0.64-0.17l-0.34-1.25C100.29,64.72,98.34,64.26,96.77,64.19z"/>
				<path class="st5" d="M95.55,73.93c-2.98-3.55-1.83-6.88-1.69-7.24c0.81-2.96,2.75-2.93,2.93-2.93c1.6,0.07,3.52,0.52,3.6,0.54
					l0.25,0.06l0.33,1.21c0.29,0.04,0.63,0.16,0.72,0.46l0.22,1.12c0.57,0.41,0.72,1.25,0.73,1.36l0.01,0.09l-0.02,0.09
					c-0.32,1.33,0.36,2.36,0.36,2.37l0.04,0.08c0.09,0.22,0.08,0.45-0.03,0.67c-0.29,0.56-1.34,0.9-1.92,1.04
					c-0.27,0.98-1.31,1.25-1.88,1.24l-0.12,0L98.98,74c-0.59-0.35-2.14-0.15-2.98,0.07l-0.27,0.07L95.55,73.93z M101.76,68.56
					c-0.05-0.24-0.2-0.65-0.43-0.75l-0.21-0.09l-0.25-1.29c-0.06-0.01-0.15-0.02-0.27-0.03l-0.31-0.02l-0.36-1.3
					c-0.57-0.12-2-0.41-3.19-0.46l-0.01,0c-0.02,0-1.4-0.07-2.04,2.31l-0.02,0.05c-0.05,0.12-1.15,3,1.37,6.18
					c0.67-0.15,2.31-0.43,3.25,0.03c0.26-0.02,0.91-0.13,0.97-0.76l0.03-0.32l0.32-0.07c0.68-0.14,1.41-0.43,1.59-0.62
					C102,71.08,101.45,69.97,101.76,68.56z"/>
			</g>
			<g>
				<path class="st6" d="M95.72,67.36c0,0-1.45,2.06,0.56,5.73c0,0,0.62-0.52,2.89-0.03c0,0,1.03-0.36,0.58-1.21
					c0,0-0.7-1.12-1.67-1.44c0,0,1.46-0.64,2.8,1.43c0,0,0.95,0.08,1.11-0.44c0,0-0.64-0.83-0.8-1.97c0,0-0.29-1.63-1.46-1.9
					c0,0,0.52-0.7-0.43-1.25c0,0-1.28-0.55-2.6-0.15C96.7,66.14,96.02,66.69,95.72,67.36z"/>
			</g>
			<g>
				<g>
					<path class="st5" d="M100.96,72.95c0.03-0.04,0.03-0.06,0.05-0.08c0.01-0.02,0.02-0.04,0.03-0.07
						c0.02-0.04,0.03-0.09,0.04-0.13c0.02-0.09,0.04-0.18,0.04-0.26c0.01-0.18-0.02-0.36-0.08-0.51c-0.12-0.31-0.34-0.53-0.55-0.7
						c-0.22-0.16-0.45-0.28-0.68-0.38c-0.23-0.1-0.47-0.17-0.7-0.25l-0.03-0.01l-0.01,0c-0.11-0.01-0.25-0.06-0.36-0.13
						c-0.11-0.07-0.2-0.18-0.27-0.3c-0.06-0.13-0.1-0.27-0.11-0.42c0-0.07,0-0.15,0-0.23l0.02-0.23l-0.07,0.22
						c-0.01,0.08-0.03,0.15-0.04,0.23c-0.01,0.16-0.01,0.32,0.04,0.48c0.05,0.16,0.14,0.31,0.27,0.43c0.13,0.12,0.27,0.21,0.46,0.27
						l-0.03-0.01c0.21,0.11,0.41,0.22,0.6,0.35c0.19,0.12,0.36,0.27,0.5,0.42c0.13,0.15,0.23,0.32,0.25,0.46
						c0.01,0.07,0.01,0.14-0.01,0.2c-0.01,0.03-0.02,0.06-0.03,0.08c-0.01,0.01-0.01,0.03-0.02,0.03c0,0-0.01,0.01-0.01,0.01
						c0,0-0.01,0.01,0-0.01L100.96,72.95z"/>
				</g>
				<g>
					<path class="st5" d="M99.3,71.09c0.23-0.24,0.47-0.49,0.71-0.72c0.24-0.23,0.48-0.47,0.76-0.67c-0.17,0.03-0.34,0.08-0.5,0.13
						c-0.17,0.05-0.33,0.11-0.49,0.17c-0.33,0.12-0.65,0.24-0.97,0.38L99.3,71.09z"/>
				</g>
				<g>
					<polygon class="st5" points="101.57,66.99 98.95,67.07 101.46,67.85 					"/>
				</g>
				<g>
					<polygon class="st5" points="100.71,65.54 98.68,65.6 100.55,66.4 					"/>
				</g>
			</g>
		</g>
	</g>
	<g>
		<g>
			<g>
				<path class="st16" d="M53.29,65.66c0,0-0.15-0.92-1.98-1.23c0,0-2.35-0.7-3.28,2.25c0,0-1.56,1.08,0.2,2.83
					c0,0-0.03,1.44,1.42,1.41c0,0-0.25,1.37,0.97,1.29c0,0,0.79-0.38,2.68-0.58c0,0,1.09-0.04,0.17-1.46c0,0,1.41-0.29,0.92-1.54
					c0,0,1.09-0.67,0.52-1.93C54.91,66.69,54.33,65.18,53.29,65.66z"/>
				<path class="st5" d="M49.63,72.17c-0.25-0.29-0.31-0.67-0.32-0.94c-0.36-0.05-0.67-0.19-0.9-0.43
					c-0.38-0.38-0.47-0.89-0.49-1.14c-0.61-0.64-0.9-1.28-0.84-1.91c0.06-0.66,0.48-1.09,0.68-1.26c0.98-2.93,3.36-2.44,3.63-2.37
					c1.34,0.23,1.88,0.78,2.1,1.15c0.22-0.04,0.45-0.02,0.66,0.07c0.67,0.28,1.02,1.1,1.07,1.24c0.46,1.02,0,1.8-0.44,2.17
					c0.09,0.35,0.06,0.68-0.1,0.96c-0.18,0.32-0.47,0.52-0.72,0.64c0.24,0.47,0.28,0.86,0.13,1.16c-0.21,0.39-0.65,0.44-0.75,0.45
					c-1.79,0.2-2.56,0.55-2.56,0.55l-0.06,0.03l-0.06,0c-0.04,0-0.07,0-0.11,0C50.06,72.54,49.78,72.34,49.63,72.17z M53.27,71.3
					l0.03,0c0.02,0,0.16-0.02,0.2-0.1c0.02-0.04,0.09-0.25-0.3-0.86l-0.26-0.4l0.47-0.1c0.14-0.03,0.54-0.17,0.69-0.45
					c0.09-0.17,0.09-0.39-0.02-0.65l-0.1-0.25l0.23-0.14c0.03-0.02,0.84-0.53,0.39-1.51l-0.01-0.02c-0.07-0.18-0.34-0.73-0.71-0.88
					c-0.15-0.06-0.29-0.05-0.46,0.03l-0.39,0.18l-0.07-0.42c0-0.01-0.18-0.7-1.71-0.96l-0.04-0.01c-0.08-0.03-2.05-0.57-2.87,2.03
					l-0.04,0.11l-0.09,0.06c0,0-0.45,0.33-0.49,0.86c-0.04,0.45,0.21,0.95,0.74,1.47l0.1,0.1l0,0.14c0,0.01,0,0.5,0.31,0.81
					c0.18,0.18,0.45,0.27,0.78,0.26l0.4-0.01l-0.07,0.4c-0.02,0.13-0.05,0.55,0.14,0.76c0.03,0.04,0.13,0.16,0.43,0.15
					C50.79,71.79,51.63,71.48,53.27,71.3z"/>
			</g>
			<g>
				<path class="st17" d="M48.27,66.77c0,0,0.17-1.34,1.77-1.6c0,0,1.61-0.49,2.31,1.08c0,0,1.02-0.44,1.58,0.66
					c0,0,0.65,1.55-0.93,1.8c0,0,1.15,0.66-0.76,1.15c0,0,1.29,1,0.04,1.22c0,0-0.69,0.16-1.72,0.57c0,0-0.88,0.36-0.38-1.13
					c0,0-1.64,0.64-1.69-1.26C48.49,69.25,46.79,67.89,48.27,66.77z"/>
			</g>
			<g>
				<path class="st3" d="M48.92,65.82c0.14-0.65-0.48,0.36-0.62,1.16c0,0-0.9,0.46-0.48,1.5c0,0,0.2,0.56,0.68,0.86
					c0,0-0.84-1.34,0.37-2.4C48.87,66.93,48.68,66.95,48.92,65.82z"/>
			</g>
			<g>
				<g>
					<path class="st16" d="M51.61,66.88c0.25-0.17,0.58-0.59,1.48-0.19c0,0,0.91,0.44,0.17,1.61c0,0-0.88,0.48-1.78,0.1
						C51.49,68.4,50.95,67.32,51.61,66.88z"/>
					<path class="st5" d="M51.36,68.71l-0.11-0.05l-0.05-0.11c-0.25-0.5-0.48-1.47,0.24-1.94v0c0.03-0.02,0.06-0.04,0.09-0.07
						c0.26-0.2,0.75-0.57,1.71-0.15c0.05,0.02,0.45,0.23,0.6,0.73c0.12,0.4,0.02,0.86-0.29,1.35l-0.05,0.07l-0.07,0.04
						c-0.03,0.02-0.54,0.29-1.2,0.29C51.95,68.87,51.66,68.83,51.36,68.71z M53.21,67.32c-0.06-0.22-0.24-0.32-0.24-0.32h0
						c-0.6-0.26-0.83-0.09-1.04,0.07c-0.05,0.03-0.09,0.07-0.13,0.09c-0.32,0.21-0.15,0.75-0.06,0.99c0.57,0.18,1.11-0.02,1.3-0.1
						C53.2,67.76,53.26,67.51,53.21,67.32z"/>
				</g>
				<g>
					<path class="st16" d="M50.88,69.9c0,0-0.51,0.74,0.26,0.83c0,0,0.88,0.03,0.76-0.29c0,0,0.18-0.55-0.53-0.86
						C51.38,69.58,51.1,69.39,50.88,69.9z"/>
					<path class="st5" d="M51.13,71.06l-0.03,0c-0.41-0.05-0.58-0.25-0.66-0.41c-0.17-0.36,0.06-0.77,0.14-0.9
						c0.12-0.27,0.29-0.44,0.5-0.5c0.17-0.05,0.33-0.01,0.43,0.05c0.68,0.31,0.77,0.84,0.72,1.16c0.01,0.11-0.02,0.23-0.08,0.32
						c-0.18,0.25-0.61,0.3-0.91,0.3C51.21,71.06,51.17,71.06,51.13,71.06z M51.6,70.33c0-0.01,0.08-0.26-0.33-0.45
						c-0.02,0.02-0.05,0.07-0.08,0.14l-0.03,0.06c-0.06,0.09-0.12,0.24-0.11,0.28c0,0,0.03,0.03,0.13,0.04
						c0.15,0,0.31-0.01,0.41-0.03L51.6,70.33z"/>
				</g>
				<g>
					<path class="st16" d="M49.62,67.25c-0.25-0.06-0.65-0.32-1.17,0.28c0,0-0.5,0.65,0.48,1.41c0,0,0.83,0.14,1.35-0.45
						C50.29,68.5,50.28,67.42,49.62,67.25z"/>
					<path class="st5" d="M48.88,69.27l-0.08-0.01l-0.06-0.05c-0.98-0.77-0.78-1.56-0.52-1.88c0.59-0.69,1.14-0.51,1.41-0.42
						c0.03,0.01,0.06,0.02,0.09,0.03l0,0c0.71,0.18,0.91,1.07,0.91,1.56l0,0.13l-0.08,0.09c-0.44,0.49-1.03,0.57-1.37,0.57
						C49,69.29,48.89,69.27,48.88,69.27z M49.54,67.57c-0.04-0.01-0.08-0.02-0.13-0.04c-0.22-0.08-0.4-0.13-0.7,0.21
						c0,0-0.28,0.37,0.35,0.9c0.17,0.01,0.58,0,0.89-0.26C49.93,68.11,49.83,67.64,49.54,67.57z"/>
				</g>
			</g>
			<g>
				<path class="st3" d="M48.95,69.63c0,0,0.91,0.45,1.3-0.11c0,0,0.14,0.72-0.74,0.87C49.51,70.39,48.77,69.94,48.95,69.63z"/>
			</g>
			<g>
				<path class="st3" d="M51.71,67.34c0.13-0.08,0.29-0.29,0.74-0.1c0,0,0.45,0.22,0.08,0.8c0,0-0.43,0.24-0.88,0.05
					C51.64,68.1,51.37,67.56,51.71,67.34z"/>
			</g>
			<g>
				<path class="st3" d="M51.01,70c0,0-0.25,0.37,0.13,0.41c0,0,0.44,0.02,0.38-0.14c0,0,0.09-0.27-0.27-0.43
					C51.26,69.84,51.12,69.74,51.01,70z"/>
			</g>
			<g>
				<path class="st3" d="M49.12,67.79c-0.12-0.03-0.32-0.16-0.58,0.14c0,0-0.25,0.32,0.24,0.7c0,0,0.41,0.07,0.67-0.22
					C49.45,68.41,49.45,67.88,49.12,67.79z"/>
			</g>
		</g>
		<g>
			<g>
				<g>
					<g>
						<path class="st4" d="M83.89,47.29c0,0,5.25,1.96,2.31,6.69c-1.86,2.99-4.96,3.15-4.96,3.15l-2.69-3.81
							C78.54,53.33,78.11,46.78,83.89,47.29z"/>
					</g>
				</g>
				<g>
					<g>
						<path class="st5" d="M78.48,50.88c0.06-0.41,0.13-0.83,0.28-1.23c0.19-0.38,0.4-0.75,0.65-1.09c0.52-0.68,1.24-1.2,2.04-1.47
							c0.8-0.27,1.64-0.32,2.45-0.25l0.06,0.01l0.05,0.02c0.32,0.13,0.59,0.27,0.87,0.43c0.28,0.16,0.54,0.34,0.8,0.54
							c0.51,0.4,0.98,0.9,1.31,1.5c0.34,0.6,0.52,1.3,0.5,1.99c-0.01,0.69-0.2,1.34-0.45,1.92c-0.52,1.16-1.31,2.19-2.32,2.94
							c-0.12,0.1-0.24,0.2-0.39,0.27c-0.14,0.07-0.28,0.13-0.43,0.19c-0.29,0.12-0.58,0.21-0.88,0.29c-0.6,0.15-1.21,0.23-1.81,0.18
							c0.58-0.15,1.11-0.39,1.61-0.67c0.25-0.14,0.49-0.3,0.71-0.47c0.11-0.08,0.22-0.17,0.33-0.26c0.11-0.09,0.23-0.16,0.34-0.24
							c0.89-0.66,1.6-1.57,2.06-2.6c0.22-0.51,0.37-1.05,0.38-1.59c0.01-0.54-0.12-1.06-0.39-1.53c-0.52-0.92-1.5-1.63-2.48-2.05
							c0.02,0,0.04,0,0.06,0l-0.11-0.02c0.02,0.01,0.03,0.01,0.05,0.02c-0.71-0.06-1.41-0.01-2.06,0.21
							c-0.66,0.22-1.23,0.64-1.66,1.19c-0.21,0.28-0.4,0.59-0.53,0.92c-0.17,0.32-0.34,0.65-0.47,1.01
							c-0.26,0.71-0.45,1.48-0.54,2.27c-0.08-0.4-0.12-0.8-0.13-1.21C78.41,51.71,78.42,51.29,78.48,50.88z"/>
					</g>
				</g>
				<g>
					<g>
						<path class="st5" d="M83.8,47.72c-0.02-0.01-0.03-0.01-0.05-0.02l0.11,0.02C83.84,47.72,83.82,47.72,83.8,47.72z"/>
					</g>
				</g>
			</g>
			<g>
				<g>
					<path class="st27" d="M80.58,51.19c0,0,0.99-2.02,3.52-1.76c0,0,2.67,3.42-1.8,5.17c0,0-1.54,0.55-0.75-1.97
						C81.68,52.19,80.54,51.91,80.58,51.19z"/>
				</g>
			</g>
			<g>
				<g>
					<path class="st5" d="M80.98,51.31c-0.1,0.12-0.2,0.25-0.3,0.37l-0.21-0.52c0.15,0.02,0.27,0.06,0.4,0.1
						C80.9,51.28,80.94,51.29,80.98,51.31z"/>
				</g>
			</g>
			<g>
				<g>
					<path class="st5" d="M80.4,51.79l-0.54-0.1l0.33-0.42c0.3-0.38,0.63-0.75,1-1.07c0.37-0.33,0.79-0.62,1.28-0.78
						c0.25-0.08,0.52-0.11,0.8-0.06c0.27,0.05,0.53,0.18,0.72,0.37c0.19,0.18,0.34,0.4,0.45,0.63c0.11,0.23,0.19,0.47,0.23,0.71
						c-0.2-0.45-0.48-0.87-0.84-1.12c-0.18-0.12-0.38-0.2-0.58-0.21c-0.2-0.01-0.4,0.04-0.6,0.12c-0.39,0.17-0.74,0.46-1.06,0.78
						c-0.21,0.21-0.41,0.44-0.6,0.67c-0.04-0.02-0.07-0.03-0.11-0.04c-0.13-0.04-0.25-0.08-0.4-0.1l0.21,0.52
						c0.1-0.13,0.2-0.25,0.3-0.37c0.09,0.04,0.18,0.08,0.26,0.13c0.24,0.15,0.49,0.4,0.58,0.74c0.09,0.33,0.02,0.64-0.09,0.89
						c-0.1,0.24-0.23,0.45-0.38,0.64c0-0.01,0.01-0.02,0.01-0.03l-0.03,0.05c0.01-0.01,0.01-0.02,0.02-0.02
						c-0.03,0.07-0.06,0.16-0.06,0.23c-0.01,0.09,0.01,0.16,0.04,0.21c0.06,0.11,0.28,0.2,0.51,0.22c0.23,0.02,0.47,0.02,0.71-0.01
						c0.24-0.02,0.49-0.06,0.74-0.09c-0.22,0.11-0.45,0.21-0.69,0.29c-0.24,0.07-0.49,0.14-0.76,0.16c-0.13,0.01-0.27,0-0.42-0.03
						c-0.15-0.03-0.31-0.1-0.44-0.25c-0.13-0.15-0.18-0.34-0.19-0.51c0-0.17,0.02-0.32,0.08-0.48l0-0.01l0.02-0.03
						c0.12-0.18,0.22-0.37,0.28-0.56c0.06-0.19,0.08-0.37,0.04-0.5c-0.04-0.13-0.14-0.25-0.3-0.34
						C80.78,51.9,80.57,51.83,80.4,51.79z"/>
				</g>
			</g>
			<g>
				<g>
					<path class="st5" d="M81.36,53.7c-0.01,0.01-0.01,0.02-0.02,0.02l0.03-0.05C81.36,53.69,81.36,53.7,81.36,53.7z"/>
				</g>
			</g>
		</g>
		<g>
			<g>
				<g>
					<g>
						<path class="st24" d="M61.54,39.29c0,0,3.55-7.92,1.21-14.58c0,0-1.02-3.69-4.43-3.47c0,0-4.31,0.5-3.89,5.43
							c0,0-0.4,6.48,4.72,12.74L61.54,39.29z"/>
						<path class="st25" d="M58.82,39.68c-5.03-6.16-4.85-12.44-4.82-13.01c-0.43-5.25,4.22-5.86,4.27-5.86l0.02,0
							c3.58-0.23,4.78,3.48,4.87,3.77c2.36,6.74-1.08,14.56-1.22,14.89l-0.11,0.24l-2.87,0.14L58.82,39.68z M62.34,24.86l-0.01-0.03
							c-0.01-0.03-0.96-3.34-3.97-3.15c-0.27,0.03-3.87,0.58-3.49,4.95l0,0.03l0,0.03c0,0.06-0.31,6.28,4.49,12.27l1.89-0.1
							C61.8,37.5,64.37,30.64,62.34,24.86z"/>
					</g>
					<g>
						<path class="st26" d="M59.92,38.85c0,0,0.44-5.33-1.54-16.89c0,0-4.12,1.08-3.2,5.72C55.18,27.67,54.92,34.21,59.92,38.85z"/>
					</g>
					<g>
						<path class="st23" d="M62.61,25.07c0,0-1.44,2.71-3.28,4.08c0,0-2.52-0.92-4.6-2.67c0,0-0.06,0.89,0.25,2.34
							c0,0,2.67,2.28,4.66,2.47c0,0,2.03-1.11,3.45-3.88C63.1,27.4,63.04,26.6,62.61,25.07z"/>
					</g>
					<g>
						<path class="st23" d="M63.21,30.81c0,0-1.67,2.15-3.3,3.16c0,0-2.74-0.85-4.43-2.38c0,0,0.05,0.7,0.59,2.06
							c0,0,2.31,1.82,4,2.07c0,0,1.48-0.61,2.82-2.79C62.89,32.94,63.04,32.48,63.21,30.81z"/>
					</g>
				</g>
				<g>
					<path class="st25" d="M60.88,39.19c-0.11-1.32-0.25-2.62-0.4-3.93c-0.15-1.31-0.32-2.61-0.51-3.91c-0.19-1.3-0.39-2.6-0.61-3.9
						c-0.22-1.3-0.46-2.59-0.71-3.88c0.19,1.3,0.37,2.6,0.52,3.9c0.16,1.3,0.3,2.61,0.42,3.91c0.12,1.3,0.23,2.61,0.32,3.92
						c0.09,1.3,0.16,2.62,0.21,3.91L60.88,39.19z"/>
				</g>
			</g>
			<g>
				<g>
					<g>
						<path class="st24" d="M66.3,42.17c0,0,4.93-7.06,3.82-14.02c0,0-0.34-3.8-3.74-4.24c0,0-4.35-0.33-4.81,4.56
							c0,0-1.56,6.26,2.37,13.36L66.3,42.17z"/>
						<path class="st25" d="M63.65,42.23l-0.11-0.19c-3.86-6.98-2.55-13.09-2.42-13.64c0.52-5.23,5.23-4.93,5.28-4.92l0.02,0
							c3.57,0.46,4.09,4.31,4.12,4.61c1.12,7.05-3.69,14.03-3.89,14.33l-0.15,0.22L63.65,42.23z M61.99,28.51l-0.01,0.06
							c-0.01,0.06-1.44,6.08,2.22,12.86l1.88,0.27c0.8-1.24,4.56-7.45,3.6-13.48l0-0.03c-0.01-0.14-0.36-3.45-3.35-3.85
							C66.06,24.33,62.4,24.19,61.99,28.51z"/>
					</g>
					<g>
						<path class="st26" d="M64.77,41.43c0,0,1.39-5.13,1.52-16.81c0,0-4.26,0.27-4.19,4.98C62.11,29.6,60.68,35.94,64.77,41.43z"/>
					</g>
					<g>
						<path class="st23" d="M69.92,28.47c0,0-1.91,2.38-3.97,3.36c0,0-2.33-1.38-4.06-3.49c0,0-0.22,0.86-0.17,2.33
							c0,0,2.22,2.74,4.16,3.31c0,0,2.21-0.7,4.11-3.14C69.98,30.85,70.07,30.05,69.92,28.47z"/>
					</g>
					<g>
						<path class="st23" d="M69.47,34.2c0,0-2.03,1.78-3.83,2.46c0,0-2.56-1.35-3.94-3.17c0,0-0.08,0.69,0.22,2.13
							c0,0,1.96,2.22,3.58,2.79c0,0,1.57-0.31,3.28-2.19C68.78,36.23,69.01,35.8,69.47,34.2z"/>
					</g>
				</g>
				<g>
					<path class="st25" d="M65.66,41.95c0.13-1.31,0.23-2.61,0.32-3.92c0.08-1.31,0.16-2.62,0.2-3.92c0.05-1.31,0.09-2.62,0.1-3.93
						c0.02-1.31,0.01-2.62,0-3.93c-0.05,1.31-0.1,2.61-0.19,3.92c-0.08,1.3-0.18,2.61-0.29,3.91c-0.11,1.3-0.24,2.6-0.39,3.89
						c-0.15,1.29-0.31,2.59-0.5,3.87L65.66,41.95z"/>
				</g>
			</g>
			<g>
				<g>
					<g>
						<path class="st24" d="M70.84,40.23c0,0,6.77-5.2,7.69-12.13c0,0,0.76-3.71-2.4-5.16c0,0-4.09-1.63-5.94,2.86
							c0,0-3.29,5.46-1.54,13.38L70.84,40.23z"/>
						<path class="st25" d="M68.27,39.49l-0.05-0.21C66.5,31.5,69.51,26.1,69.8,25.61c2-4.8,6.45-3.09,6.49-3.07l0.02,0.01
							c3.3,1.52,2.7,5.31,2.64,5.62c-0.94,7.03-7.57,12.19-7.85,12.41l-0.21,0.16L68.27,39.49z M70.59,25.97l-0.03,0.06
							c-0.03,0.05-3.13,5.31-1.53,12.86l1.75,0.83c1.13-0.93,6.52-5.68,7.32-11.68l0-0.03c0.01-0.03,0.65-3.37-2.14-4.67
							C75.71,23.24,72.22,22,70.59,25.97z"/>
					</g>
					<g>
						<path class="st26" d="M69.58,39.06c0,0,2.81-4.44,6.27-15.48c0,0-4.18-1.04-5.46,3.45C70.4,27.04,67.21,32.62,69.58,39.06z"/>
					</g>
					<g>
						<path class="st23" d="M78.25,28.34c0,0-2.52,1.68-4.79,1.98c0,0-1.85-2.02-2.91-4.53c0,0-0.45,0.75-0.83,2.16
							c0,0,1.36,3.28,3.06,4.4c0,0,2.33,0.01,4.85-1.73C77.63,30.61,77.94,29.88,78.25,28.34z"/>
					</g>
					<g>
						<path class="st23" d="M76.18,33.64c0,0-2.47,1.07-4.39,1.17c0,0-2.08-2.06-2.89-4.2c0,0-0.27,0.63-0.4,2.08
							c0,0,1.25,2.7,2.65,3.73c0,0,1.6,0.18,3.79-1.08C74.93,35.35,75.27,35.01,76.18,33.64z"/>
					</g>
				</g>
				<g>
					<path class="st25" d="M70.29,39.83c0.5-1.2,0.97-2.41,1.43-3.62c0.45-1.21,0.9-2.43,1.32-3.66c0.42-1.23,0.83-2.46,1.22-3.69
						c0.39-1.24,0.76-2.48,1.12-3.73c-0.42,1.22-0.85,2.45-1.3,3.66c-0.45,1.21-0.92,2.42-1.4,3.61c-0.48,1.2-0.98,2.39-1.49,3.57
						c-0.51,1.18-1.04,2.36-1.59,3.51L70.29,39.83z"/>
				</g>
			</g>
			<g>
				<g>
					<g>
						<path class="st24" d="M53.31,46.57c0,0-4.9-7.33-10.99-8.98c0,0-3.27-1.15-4.36,1.85c0,0-1.2,3.93,2.82,6.25
							c0,0,4.94,3.88,11.75,2.96L53.31,46.57z"/>
						<path class="st25" d="M40.53,46.05c-4.24-2.47-3-6.7-2.99-6.74l0.01-0.02c0.98-2.68,3.62-2.56,4.9-2.12
							c6.17,1.69,11.02,8.85,11.22,9.16l0.13,0.19l-0.96,2.53l-0.26,0.03c-0.75,0.1-1.48,0.15-2.18,0.15
							C44.82,49.23,40.92,46.35,40.53,46.05z M52.82,46.63c-0.8-1.13-5.27-7.17-10.61-8.62l-0.03-0.01
							c-0.12-0.04-2.87-0.97-3.81,1.58c-0.07,0.25-0.98,3.66,2.62,5.74l0.05,0.03c0.05,0.04,4.74,3.66,11.16,2.9L52.82,46.63z"/>
					</g>
					<g>
						<path class="st26" d="M52.36,47.7c0,0-4.02-3.28-13.83-7.92c0,0-0.68,4.08,3.3,5.83C41.84,45.61,46.87,49.4,52.36,47.7z"/>
					</g>
					<g>
						<path class="st23" d="M42.55,37.89c0,0,1.6,2.7,1.98,5c0,0-1.66,1.63-3.8,2.44c0,0,0.68,0.53,1.93,1.06
							c0,0,2.78-1.01,3.67-2.6c0,0-0.12-2.33-1.77-5.04C44.57,38.75,43.91,38.36,42.55,37.89z"/>
					</g>
					<g>
						<path class="st23" d="M47.28,40.52c0,0,1.07,2.58,1.25,4.52c0,0-1.68,1.86-3.51,2.45c0,0,0.57,0.34,1.84,0.62
							c0,0,2.28-0.97,3.11-2.26c0,0,0.07-1.58-1.14-3.91C48.84,41.95,48.52,41.58,47.28,40.52z"/>
					</g>
				</g>
				<g>
					<path class="st25" d="M52.99,47.08c-1.08-0.63-2.15-1.23-3.23-1.81c-1.08-0.58-2.17-1.16-3.26-1.71
						c-1.09-0.55-2.18-1.09-3.28-1.61c-1.1-0.53-2.2-1.03-3.31-1.52c1.09,0.55,2.18,1.11,3.26,1.69c1.08,0.58,2.16,1.17,3.23,1.78
						c1.07,0.61,2.13,1.23,3.19,1.87c1.06,0.64,2.11,1.29,3.15,1.96L52.99,47.08z"/>
				</g>
			</g>
			<g>
				<g>
					<g>
						<path class="st24" d="M57.34,44.11c0,0-3.71-8.03-9.58-10.89c0,0-3.11-1.78-4.71,0.86c0,0-1.87,3.5,1.79,6.57
							c0,0,4.34,4.74,11.36,5.29L57.34,44.11z"/>
						<path class="st25" d="M56.16,46.37c-6.94-0.54-11.26-5.01-11.63-5.41c-3.86-3.25-1.9-7.05-1.88-7.09l0.01-0.02
							c1.44-2.37,4.08-1.7,5.29-1.02c5.93,2.9,9.62,10.76,9.78,11.09l0.1,0.21l-1.41,2.25L56.16,46.37z M47.56,33.61l-0.03-0.01
							c-0.11-0.06-2.76-1.53-4.12,0.69c-0.12,0.23-1.58,3.28,1.69,6.02l0.04,0.04c0.04,0.05,4.19,4.5,10.81,5.13l0.87-1.4
							C56.21,42.81,52.7,36.11,47.56,33.61z"/>
					</g>
					<g>
						<path class="st26" d="M56.19,45c0,0-3.51-3.98-12.63-10.47c0,0-1.37,3.75,2.35,6.27C45.92,40.79,50.37,45.46,56.19,45z"/>
					</g>
					<g>
						<path class="st23" d="M47.93,33.56c0,0,1.16,2.91,1.16,5.2c0,0-1.95,1.21-4.24,1.53c0,0,0.6,0.65,1.77,1.42
							c0,0,2.98-0.38,4.14-1.71c0,0,0.27-2.25-0.94-5.19C49.82,34.81,49.23,34.29,47.93,33.56z"/>
					</g>
					<g>
						<path class="st23" d="M52.26,37.07c0,0,0.64,2.69,0.51,4.58c0,0-2.01,1.43-3.95,1.61c0,0,0.51,0.44,1.75,0.98
							c0,0,2.47-0.45,3.52-1.51c0,0,0.34-1.5-0.5-3.97C53.59,38.76,53.34,38.34,52.26,37.07z"/>
					</g>
				</g>
				<g>
					<path class="st25" d="M56.93,44.53c-0.98-0.83-1.96-1.62-2.96-2.41c-0.99-0.78-1.99-1.56-3-2.31c-1.01-0.76-2.02-1.5-3.04-2.23
						c-1.02-0.73-2.05-1.44-3.08-2.15c1.01,0.76,2.01,1.51,3,2.3c0.99,0.78,1.98,1.57,2.96,2.38c0.98,0.8,1.95,1.62,2.91,2.45
						c0.96,0.83,1.92,1.67,2.85,2.53L56.93,44.53z"/>
				</g>
			</g>
			<g>
				<g>
					<g>
						<path class="st24" d="M57.5,39.2c0,0-1.57-8.57-6.67-13.13c0,0-2.63-2.66-4.93-0.79c0,0-2.8,2.58,0.04,6.6
							c0,0,3.07,5.77,9.93,8.61L57.5,39.2z"/>
						<path class="st25" d="M55.7,40.89c-6.77-2.8-9.88-8.31-10.13-8.78c-3-4.27,0-7.12,0.03-7.15l0.02-0.02
							c2.06-1.68,4.5-0.21,5.51,0.81c5.14,4.61,6.73,13.02,6.8,13.37l0.05,0.26l-2.03,1.61L55.7,40.89z M50.54,26.39l-0.02-0.02
							c-0.02-0.02-2.36-2.36-4.34-0.76c-0.19,0.18-2.43,2.42,0.11,6.02l0.03,0.05c0.03,0.06,3,5.53,9.48,8.31l1.21-0.96
							C56.71,37.58,54.98,30.37,50.54,26.39z"/>
					</g>
					<g>
						<path class="st26" d="M56.12,39.63c0,0-2.44-4.8-9.82-13.76c0,0-2.37,2.97,0.68,6.51C46.98,32.37,50.18,38.12,56.12,39.63z"/>
					</g>
					<g>
						<path class="st23" d="M50.92,26.43c0,0,0.38,3.05-0.22,5.14c0,0-2.27,0.46-4.64-0.01c0,0,0.42,0.79,1.38,1.89
							c0,0,3.07,0.64,4.59-0.19c0,0,0.87-1.97,0.44-5.05C52.47,28.2,52.01,27.54,50.92,26.43z"/>
					</g>
					<g>
						<path class="st23" d="M54.31,31.08c0,0-0.08,2.67-0.71,4.36c0,0-2.38,0.63-4.37,0.16c0,0,0.4,0.57,1.49,1.48
							c0,0,2.58,0.41,3.91-0.21c0,0,0.73-1.26,0.56-3.8C55.18,33.07,55.04,32.6,54.31,31.08z"/>
					</g>
				</g>
				<g>
					<path class="st25" d="M56.98,39.45c-0.76-1.08-1.53-2.14-2.31-3.19c-0.78-1.05-1.58-2.09-2.38-3.11
						c-0.8-1.03-1.62-2.05-2.44-3.05c-0.82-1.01-1.66-2-2.51-2.99c0.81,1.02,1.61,2.05,2.39,3.1c0.79,1.04,1.56,2.1,2.32,3.16
						c0.76,1.06,1.51,2.13,2.25,3.21c0.74,1.08,1.47,2.17,2.17,3.26L56.98,39.45z"/>
				</g>
			</g>
			<g>
				<g>
					<path class="st28" d="M74.57,35.57c-8.44-1.89-14.42-1.45-14.42-1.45s-7.81,0.3-10.52,8.4c0,0-1.54,2.16-1.23,5.54
						c0,0,2.23,19.53,7.87,31.86c0,0,2.17,3.62,5.58,0.92c0,0,4.44-5.43,8.69-6c0,0,1.82,1.19,4.77,2.05
						c2.08,0.6,3.6,1.38,6.84-0.76c0,0,2.76-1.75,4.73-5.77c0,0,1.15-1.75-0.75-7.07c0,0-7.54-21.02-8.65-23.75
						C77.47,39.53,76.39,35.98,74.57,35.57z"/>
					<path class="st25" d="M58.76,82.22c-1.8-0.33-2.82-2.01-2.87-2.08l-0.02-0.04c-5.61-12.25-7.89-31.8-7.91-32
						c-0.3-3.24,1.02-5.39,1.27-5.77c2.8-8.23,10.82-8.63,10.89-8.64c0.06,0,6.14-0.42,14.55,1.46l0,0
						c1.98,0.44,3.07,3.77,3.22,4.24c1.13,2.77,8.35,22.89,8.65,23.75c1.85,5.18,0.91,7.12,0.72,7.43c-2,4.07-4.76,5.85-4.87,5.92
						c-3.11,2.05-4.83,1.53-6.65,0.98c-0.18-0.05-0.36-0.11-0.54-0.16c-2.54-0.74-4.25-1.71-4.74-2.01
						c-3.98,0.65-8.22,5.77-8.26,5.82l-0.07,0.07c-0.92,0.73-1.84,1.1-2.75,1.1C59.17,82.27,58.97,82.26,58.76,82.22z M70.49,74.41
						l0.16-0.02l0.14,0.09c0.02,0.01,1.8,1.17,4.65,1.99c0.19,0.06,0.37,0.11,0.56,0.17c1.76,0.54,3.15,0.96,5.93-0.87
						c0.03-0.02,2.68-1.73,4.57-5.6l0.02-0.04c0.01-0.02,0.98-1.73-0.79-6.7c-0.08-0.21-7.55-21.05-8.65-23.73l-0.01-0.04
						c-0.28-0.92-1.3-3.37-2.58-3.66c-8.27-1.85-14.23-1.44-14.31-1.44c-0.08,0-7.54,0.37-10.13,8.1l-0.02,0.06l-0.04,0.05
						c-0.01,0.02-1.44,2.06-1.15,5.23c0.02,0.19,2.28,19.58,7.82,31.7c0.1,0.16,0.94,1.41,2.26,1.65c0.84,0.15,1.72-0.13,2.62-0.84
						C61.98,80,66.26,74.97,70.49,74.41z"/>
				</g>
				<g>
					<path class="st29" d="M70.93,36.03c-7.32-2.07-15.63-0.52-15.63-0.52s-4.79,2.31-8.53,8.34c0,0-2.01,2.1-1.7,5.48
						c0,0,4.11,17.41,9.75,29.74c0,0,1.14,2.15,3.54,2.63c0,0,2.23-4.37,8.11-5.78c0,0,4.91-0.82,9.26,1.02c0,0,5.38-2.52,7.12-5.98
						c0,0,1.85-1.09-0.05-6.41c0,0-8.2-23.34-9.31-26.06C73.49,38.49,72.73,36.54,70.93,36.03z"/>
					<path class="st25" d="M58.28,82.13c-2.58-0.52-3.79-2.76-3.84-2.85l-0.01-0.02c-5.59-12.23-9.74-29.65-9.78-29.82l-0.01-0.06
						c-0.31-3.34,1.5-5.48,1.78-5.79c3.76-6.04,8.49-8.37,8.69-8.46l0.05-0.03l0.06-0.01c0.34-0.06,8.5-1.54,15.83,0.53l0,0
						c1.98,0.56,2.81,2.63,2.84,2.71c1.1,2.7,8.99,25.13,9.32,26.08c1.76,4.92,0.44,6.48-0.02,6.85c-1.83,3.51-7.05,5.98-7.27,6.09
						l-0.18,0.08l-0.18-0.08c-4.07-1.72-8.71-1.04-9-0.99c-5.58,1.34-7.78,5.51-7.8,5.55l-0.15,0.29L58.28,82.13z M75.72,76.46
						c0.92-0.46,5.26-2.75,6.74-5.7l0.06-0.12l0.11-0.07c0.02-0.01,1.46-1.12-0.24-5.89c-0.08-0.23-8.21-23.36-9.31-26.05
						c-0.01-0.02-0.7-1.75-2.27-2.2l0,0C64,34.52,56.19,35.8,55.44,35.93c-0.52,0.27-4.87,2.62-8.3,8.15l-0.06,0.07
						c-0.02,0.02-1.86,1.98-1.58,5.11c0.2,0.82,4.27,17.71,9.71,29.62c0.08,0.14,1.04,1.8,2.94,2.33c0.63-1.05,3.05-4.46,8.22-5.7
						l0.03-0.01c0.1-0.02,1.2-0.19,2.79-0.19C70.98,75.3,73.4,75.53,75.72,76.46z"/>
				</g>
				<g>
					<path class="st30" d="M61.95,35.87c0,0,3.58,14.86,13.39,40.05c0,0-11.18-5.53-17.01,5.09c0,0-8.54-26.02-10.43-37.2
						c0,0-0.3-1.75,5.95-6.82C53.85,37,56.77,34.69,61.95,35.87z"/>
				</g>
				<g>
					<path class="st31" d="M45.76,49.29c-0.31-3.19,1.56-5.16,1.56-5.16c0.63-1.03,1.3-1.95,1.96-2.75
						C50.55,46,55.09,62.05,60.43,74.1c0,0,0.68,1.46,1.69,2.39c-2.61,1.67-4.09,4.41-4.09,4.41c-2.25-0.46-3.08-3.05-3.08-3.05
						C49.63,66.2,45.76,49.29,45.76,49.29z"/>
				</g>
				<g>
					<path class="st32" d="M70.53,59.41c0,0-9.55-1.7-15.27,5.76c0,0-1.99,2.33,0.35,5.52c0,0,2.13,2.66,5.02,0.2
						c0,0,3.41-5.09,10.68-2.81c0,0,4.28-1.33,4.1-4.99C75.41,63.09,75,59.55,70.53,59.41z"/>
					<path class="st25" d="M57.84,72.36c-1.56-0.15-2.54-1.34-2.59-1.41c-2.4-3.28-0.53-5.81-0.34-6.04
						c5.64-7.36,15.01-6.03,15.66-5.93c4.76,0.16,5.26,4.03,5.27,4.06l0,0.03c0.19,3.96-4.36,5.42-4.41,5.43l-0.13,0.04l-0.13-0.04
						c-6.85-2.15-10.05,2.44-10.18,2.64l-0.03,0.05l-0.05,0.04c-0.9,0.76-1.82,1.15-2.75,1.15C58.06,72.37,57.95,72.37,57.84,72.36z
						 M71.3,67.62c0.66-0.24,3.81-1.55,3.68-4.5c-0.03-0.25-0.5-3.16-4.46-3.28l-0.06-0.01c-0.09-0.02-9.35-1.57-14.85,5.6
						l-0.01,0.02c-0.02,0.02-1.74,2.1,0.35,4.96c0.01,0.01,0.8,0.96,1.99,1.07c0.78,0.07,1.58-0.23,2.37-0.9
						C60.72,70.03,64.32,65.51,71.3,67.62z"/>
				</g>
				<g>
					<path class="st3" d="M48.84,43.61c-0.06-0.47-0.37-1.29,3.11,6.98c0,0-1.88-6.04-1.93-9.03L48.84,43.61z"/>
				</g>
				<g>
					<path class="st3" d="M61.1,36.37c0,0,0.47,1.22,3.69,9.09c0,0-2.19-6.85-2.24-9.85L61.1,36.37z"/>
				</g>
				<g>
					<path class="st29" d="M52.03,38.5c0.49,1.84,1.01,3.67,1.54,5.49c0.54,1.82,1.1,3.63,1.7,5.43c0.6,1.8,1.22,3.59,1.9,5.37
						c0.68,1.77,1.4,3.53,2.22,5.23c-0.73-1.75-1.35-3.54-1.93-5.34c-0.58-1.8-1.09-3.62-1.59-5.44c-0.49-1.82-0.95-3.66-1.39-5.49
						c-0.43-1.83-0.85-3.68-1.23-5.52L52.03,38.5z"/>
				</g>
				<g>
					<g>
						<path class="st3" d="M70.75,37.15c-7.12-1.94-15.87,0.31-15.87,0.31s-4.13,2.51-7.82,8.32c0,0-0.83,1.14-1.33,2.77
							c0.05-2.76,1.66-4.45,1.66-4.45c3.59-5.78,8.18-7.99,8.18-7.99s7.97-1.49,14.99,0.5C72.28,37.09,72.5,37.63,70.75,37.15z"/>
					</g>
					<g>
						<path class="st25" d="M46.35,43.8c0,0.05,0,0.07,0,0.1l0.01,0.08c0,0.05,0.01,0.11,0.01,0.16c0.01,0.1,0.02,0.2,0.04,0.3
							c0.03,0.2,0.06,0.39,0.1,0.58c0.08,0.38,0.17,0.76,0.27,1.13c0.2,0.74,0.42,1.47,0.66,2.2c0.24,0.72,0.5,1.44,0.77,2.16
							c0.27,0.71,0.55,1.42,0.83,2.13c-0.22-0.73-0.43-1.46-0.63-2.19c-0.2-0.73-0.39-1.47-0.56-2.2c-0.17-0.74-0.33-1.48-0.45-2.21
							c-0.06-0.37-0.12-0.74-0.16-1.11c-0.02-0.18-0.04-0.36-0.05-0.54c-0.01-0.09-0.01-0.18-0.01-0.27c0-0.04,0-0.09,0-0.13l0-0.06
							c0-0.02,0-0.04,0-0.04L46.35,43.8z"/>
					</g>
				</g>
				<g>
					<path class="st3" d="M70.53,42.32c0.42,2.13,0.95,4.24,1.53,6.34c0.28,1.05,0.6,2.09,0.91,3.13c0.15,0.52,0.32,1.04,0.49,1.55
						c0.17,0.52,0.33,1.04,0.5,1.55c0.35,1.03,0.71,2.06,1.08,3.08c0.19,0.51,0.38,1.02,0.57,1.53c0.19,0.51,0.39,1.02,0.59,1.52
						c0.81,2.02,1.69,4.01,2.69,5.95c-0.67-2.07-1.38-4.12-2.07-6.17c-0.33-1.03-0.7-2.05-1.03-3.08l-0.52-1.54l-0.51-1.54
						l-2.08-6.16C71.99,46.41,71.29,44.36,70.53,42.32z"/>
				</g>
				<g>
					<path class="st25" d="M70.74,61.24c0,0-8.55-1.65-13.75,4.66c0,0-1.77,2.16,0.23,4.7c-0.69-0.8,0.63,1.78,3.42,0.19
						c0,0,4.25-4.42,10.66-2.76c0,0,3.86-1.2,3.8-4.19C75.11,63.83,75.1,62.11,70.74,61.24z"/>
					<path class="st25" d="M56.7,70.75c-0.06-0.09-0.09-0.18-0.1-0.26c-1.74-2.62,0.03-4.85,0.05-4.87
						c5.3-6.43,14.08-4.82,14.17-4.81l0,0c4.57,0.91,4.72,2.8,4.72,3.01c0.06,3.28-3.94,4.56-4.11,4.62l-0.12,0.04l-0.12-0.03
						c-6.08-1.57-10.2,2.6-10.24,2.64l-0.04,0.05l-0.05,0.03c-0.75,0.42-1.41,0.58-1.98,0.58C57.67,71.75,56.89,71.04,56.7,70.75z
						 M71.28,67.57c0.6-0.22,3.43-1.38,3.39-3.74c0-0.01-0.18-1.4-4.01-2.16c-0.13-0.02-8.37-1.51-13.33,4.5
						c-0.06,0.08-1.53,1.92,0.23,4.16l-0.04,0.03c0.29,0.27,1.25,0.96,2.85,0.08C60.88,69.93,65.06,66.03,71.28,67.57z M56.92,70.86
						c0.11,0.03,0.27,0.03,0.41-0.09c0.13-0.11,0.15-0.25,0.14-0.37L56.92,70.86z"/>
				</g>
				<g>
					<path class="st29" d="M70.86,60.96c0,0-0.81-0.78-1.34-0.81c-2.43-0.14-9.05,0.7-13.11,5.97c0,0,1.11,2.34,2.65,1.64
						c0,0,1.62-0.76,1.01-2c0,0,0.84,1.29,2.09,0.82c0,0,1.89-0.54,1.07-2.41c0,0,0.42,2.29,2.92,1.35c0,0,1.61-0.58,0.87-2.41
						c0,0,0.41,2.24,2.71,1.62C69.72,64.74,72.71,63.81,70.86,60.96z"/>
				</g>
				<g>
					<path class="st3" d="M69.69,60.25c0,0-7.71-1.21-13.67,4.86c0,0,0.81,2.8,2.42,2.2c0,0,1.22-0.67,0.66-2.33
						c0,0,0.91,1.5,2.16,1.02c0,0,1.82-0.74,0.99-2.61c0,0,0.42,2.29,2.92,1.35c0,0,1.68-0.37,0.94-2.2c0,0,0.82,2.22,2.6,1.9
						C68.71,64.42,71.54,63.09,69.69,60.25z"/>
				</g>
				<g>
					<path class="st25" d="M86,71.27c-0.3,0.05-0.61,0.08-0.91,0.11c-0.3,0.02-0.6,0.04-0.9,0.02c-0.3,0-0.59-0.02-0.89-0.05
						c-0.29-0.03-0.59-0.08-0.87-0.13l0.2,0.13c-0.12-0.18-0.24-0.4-0.35-0.61c-0.11-0.21-0.22-0.43-0.32-0.65
						c-0.21-0.44-0.4-0.89-0.59-1.34c-0.19-0.45-0.37-0.91-0.55-1.37l-0.27-0.69c-0.09-0.23-0.18-0.47-0.28-0.7
						c0.02,0.25,0.05,0.5,0.08,0.75c0.04,0.25,0.08,0.5,0.13,0.74c0.05,0.25,0.1,0.49,0.17,0.73c0.06,0.24,0.13,0.49,0.21,0.73
						c0.15,0.48,0.33,0.96,0.54,1.42c0.11,0.23,0.22,0.46,0.34,0.68c0.12,0.23,0.25,0.44,0.41,0.67l0.08,0.11l0.12,0.02
						c0.32,0.04,0.63,0.08,0.95,0.07c0.32,0,0.63-0.02,0.94-0.07c0.31-0.05,0.62-0.11,0.91-0.21C85.44,71.54,85.73,71.42,86,71.27z"
						/>
				</g>
				<g>
					<path class="st25" d="M79.69,74.39C79.7,74.41,79.69,74.4,79.69,74.39c-0.01,0-0.01,0-0.02-0.01
						c-0.01-0.01-0.02-0.02-0.04-0.04c-0.03-0.03-0.05-0.05-0.08-0.09c-0.05-0.06-0.11-0.12-0.16-0.19
						c-0.11-0.13-0.21-0.28-0.32-0.42c-0.21-0.29-0.41-0.6-0.6-0.91c-0.39-0.62-0.75-1.26-1.11-1.91c0.19,0.72,0.4,1.43,0.63,2.14
						c0.12,0.36,0.25,0.71,0.39,1.06c0.07,0.18,0.15,0.35,0.23,0.53c0.04,0.09,0.09,0.18,0.14,0.27c0.02,0.05,0.05,0.09,0.08,0.14
						l0.05,0.07l0.03,0.04c0.01,0.02,0.02,0.02,0.04,0.06L79.69,74.39z"/>
				</g>
				<g>
					<path class="st25" d="M78.1,77.99c0.41-0.28,0.79-0.56,1.16-0.87c0.37-0.3,0.74-0.62,1.08-0.95c0.35-0.33,0.68-0.68,0.97-1.07
						c0.29-0.38,0.56-0.8,0.7-1.26c-0.22,0.43-0.55,0.76-0.89,1.07c-0.34,0.31-0.72,0.58-1.11,0.83c-0.39,0.25-0.79,0.48-1.19,0.69
						c-0.41,0.21-0.83,0.42-1.23,0.59L78.1,77.99z"/>
				</g>
				<g>
					<g>
						<path class="st32" d="M59.49,49.84c0,0,2.04-1.96,5.27-3.87c0,0,1.55-0.85,3.92-1.26c0,0,3.57,3.29,0,7.24
							c0,0-3.49,2.71-6.61,1.12C62.07,53.07,60.76,52.72,59.49,49.84z"/>
						<path class="st25" d="M61.9,53.48c-0.3-0.1-1.59-0.69-2.81-3.46l-0.12-0.28l0.22-0.21c0.08-0.08,2.12-2.02,5.37-3.94
							c0.07-0.04,1.64-0.89,4.05-1.31l0.21-0.04l0.16,0.15c0.04,0.04,3.85,3.64,0.03,7.85l-0.06,0.05
							c-0.12,0.09-2.25,1.72-4.74,1.72C63.46,54.01,62.68,53.86,61.9,53.48z M68.53,45.18c-2.13,0.4-3.55,1.17-3.55,1.17
							c-2.54,1.5-4.36,3.05-4.97,3.6c1.1,2.34,2.16,2.71,2.17,2.71l0.08,0.03c2.7,1.37,5.79-0.82,6.12-1.06
							C71.2,48.48,69.13,45.83,68.53,45.18z"/>
					</g>
					<g>
						<path class="st25" d="M61.94,50.4c0,0,0.8-0.86,3.44-2.32c0,0,1.97-1.16,3.86-1.55c0,0,2.59,1.9-0.41,4.78
							c0,0-2.48,1.88-4.88,0.92C63.95,52.23,62.81,52.32,61.94,50.4z"/>
						<path class="st25" d="M63.87,52.66c-0.37-0.02-1.49-0.25-2.32-2.08l-0.12-0.26l0.2-0.21c0.04-0.04,0.88-0.93,3.54-2.4
							c0.08-0.05,2.05-1.2,3.99-1.6l0.19-0.04l0.16,0.11c0.05,0.03,1.12,0.84,1.21,2.22c0.07,1.07-0.46,2.15-1.57,3.22l-0.04,0.03
							c-0.09,0.07-1.73,1.28-3.69,1.28C64.9,52.94,64.39,52.86,63.87,52.66z M69.84,48.46c-0.04-0.72-0.49-1.24-0.72-1.46
							c-1.73,0.41-3.5,1.44-3.52,1.46c-1.81,1-2.74,1.72-3.12,2.04c0.68,1.3,1.42,1.3,1.44,1.29l0.1-0.01l0.1,0.04
							c2.03,0.81,4.22-0.69,4.44-0.85C69.46,50.1,69.89,49.25,69.84,48.46z"/>
					</g>
					<g>
						<path class="st25" d="M70.28,50.4c0,0,2.44,3.2,1.12,4.1C71.4,54.5,70.15,53.94,70.28,50.4z"/>
					</g>
					<g>
						<path class="st25" d="M68.34,52.59l1.54,4.5c0,0,0.03,1.36,1.11,0.97c0,0,0.13-0.39-0.51-2.13l-1.79-3.99L68.34,52.59z"/>
					</g>
				</g>
				<g>
					<path class="st32" d="M57.14,51.08c0,0-2.43-0.26-5.64,0.13c0,0-1.51,0.23-3.34,1.19c0,0-0.69,4.12,3.83,4.94
						c0,0,3.81,0.02,5.1-2.7C57.09,54.64,57.8,53.71,57.14,51.08z"/>
					<path class="st25" d="M51.99,57.78l-0.08-0.01c-4.89-0.88-4.19-5.39-4.18-5.44l0.04-0.21l0.19-0.1
						c1.87-0.99,3.41-1.23,3.49-1.24c3.23-0.39,5.64-0.14,5.74-0.13l0.3,0.03l0.07,0.29c0.64,2.53,0.07,3.63-0.09,3.88
						C56.09,57.73,52.27,57.78,51.99,57.78L51.99,57.78z M51.56,51.64c-0.01,0-1.35,0.21-3,1.04c-0.06,0.8-0.02,3.57,3.46,4.22
						c0.37-0.01,3.58-0.15,4.67-2.45l0.04-0.07c0.01-0.01,0.52-0.79,0.05-2.89C56.05,51.44,54.03,51.34,51.56,51.64z"/>
				</g>
				<g>
					<path class="st25" d="M57.49,52.61c0,0-2-0.29-4.57,0.1c0,0-1.09-0.06-2.58,0.66c0,0-0.24,2.89,3.33,3.28
						c0,0,2.37-0.11,3.5-2.01C57.16,54.63,57.91,54.38,57.49,52.61z"/>
					<path class="st25" d="M53.61,57.08c-3.94-0.43-3.72-3.71-3.72-3.75l0.02-0.25l0.22-0.11c1.41-0.69,2.5-0.71,2.75-0.71
						c2.59-0.38,4.58-0.1,4.66-0.09l0.29,0.04l0.07,0.29c0.4,1.65-0.14,2.25-0.44,2.45c-1.26,1.99-3.68,2.12-3.79,2.12l-0.03,0
						L53.61,57.08z M57.12,53.01c-0.64-0.06-2.24-0.16-4.14,0.13l-0.05,0.01l-0.05,0c-0.01,0-0.88-0.04-2.12,0.5
						c0.04,0.63,0.38,2.27,2.9,2.56c0.26-0.02,2.19-0.23,3.11-1.8l0.03-0.16L57,54.22C57.1,54.14,57.27,53.81,57.12,53.01z"/>
				</g>
				<g>
					<path class="st25" d="M52.43,57.63l1.56,3.79c0,0,0.76,0.9-0.17,1.26c0,0-0.31-0.18-0.88-1.66l-1.1-3.6L52.43,57.63z"/>
				</g>
				<g>
					<path class="st25" d="M49.67,56.26l1.27,3.03c0,0,0.68,0.69-0.25,1.05c0,0-0.29-0.13-0.75-1.32l-0.83-2.9L49.67,56.26z"/>
				</g>
				<g>
					<path class="st29" d="M62.27,47.35c-0.26-0.53-0.51-1.09-0.74-1.64c-0.24-0.56-0.46-1.12-0.68-1.69
						c-0.22-0.57-0.42-1.14-0.61-1.72c-0.2-0.58-0.37-1.16-0.53-1.75c0.06,0.61,0.13,1.22,0.22,1.82c0.09,0.61,0.19,1.21,0.31,1.82
						c0.12,0.6,0.25,1.21,0.39,1.81c0.14,0.6,0.29,1.2,0.47,1.81L62.27,47.35z"/>
				</g>
				<g>
					<path class="st29" d="M70.73,71.14c0,0-5.32-2.6-9.97,2.98C60.76,74.12,66.37,70.35,70.73,71.14z"/>
				</g>
				<g>
					<path class="st33" d="M57.44,34.09c-0.09-1.22-1.7-1.88-6.05-0.02c0,0-0.43,2.13,0.72,4.96c0.25,0.61,0.34,0.32,1.86,1.29
						c0,0,1.06-0.66,4.02-1.53c0,0-0.02-0.64-0.23-1.58C57.55,36.27,57.55,35.57,57.44,34.09z"/>
					<path class="st25" d="M53.74,40.69c-0.59-0.38-0.96-0.56-1.21-0.68c-0.43-0.21-0.62-0.32-0.82-0.82
						c-1.18-2.92-0.76-5.12-0.75-5.21l0.05-0.23l0.21-0.09c2.86-1.22,4.84-1.5,5.91-0.85c0.45,0.28,0.71,0.71,0.75,1.25
						c0.02,0.31,0.04,0.58,0.05,0.83c0.06,0.94,0.1,1.51,0.26,2.23c0.22,0.97,0.24,1.64,0.24,1.67l0.01,0.33l-0.32,0.09
						c-2.84,0.83-3.9,1.48-3.91,1.48l-0.23,0.15L53.74,40.69z M57.34,37.3c-0.18-0.78-0.22-1.41-0.28-2.36
						c-0.02-0.25-0.03-0.52-0.05-0.82l0,0c-0.02-0.25-0.13-0.44-0.33-0.56c-0.36-0.22-1.55-0.57-4.89,0.82
						c-0.07,0.59-0.15,2.32,0.73,4.49c0.08,0.21,0.08,0.21,0.4,0.36c0.23,0.11,0.56,0.28,1.07,0.59c0.44-0.23,1.53-0.73,3.55-1.35
						C57.5,38.21,57.45,37.8,57.34,37.3z"/>
				</g>
				<g>
					<path class="st34" d="M56.14,33.36c0.04-1.04-2.79-0.84-5.47,1.33c0,0-0.33,1.09,1.78,4.66c0,0,1.5-0.74,4.18-1.59
						C56.63,37.76,56.05,35.87,56.14,33.36z"/>
					<path class="st25" d="M52.07,39.57c-2.1-3.56-1.89-4.8-1.82-5.01l0.04-0.13l0.1-0.08c2.23-1.8,4.62-2.36,5.63-1.85
						c0.36,0.18,0.56,0.5,0.55,0.88l0,0c-0.08,2.4,0.46,4.23,0.47,4.25l0.13,0.41l-0.41,0.13c-2.61,0.83-4.11,1.56-4.12,1.57
						l-0.36,0.18L52.07,39.57z M55.7,33.35c0-0.02,0-0.03-0.07-0.07c-0.55-0.27-2.51,0.05-4.55,1.64c0.01,0.35,0.16,1.47,1.54,3.88
						c0.56-0.25,1.75-0.75,3.48-1.32C55.93,36.76,55.64,35.23,55.7,33.35z"/>
				</g>
				<g>
					<path class="st25" d="M72.49,35.78c-0.01,0.01-0.03,0.01-0.04,0.02l-0.02,0.01c0,0-0.01,0-0.01,0c-0.02,0-0.01,0-0.01,0
						c0-0.01,0.02,0,0.03,0c0.01-0.01,0.04,0.01,0.07,0.01c0.02,0,0.05,0.01,0.08,0.03c0.06,0.03,0.12,0.05,0.18,0.1
						c0.06,0.04,0.13,0.08,0.19,0.13l0.19,0.16l0.19,0.19c0.13,0.12,0.24,0.27,0.36,0.41c0.46,0.58,0.88,1.22,1.25,1.89
						c0.09,0.17,0.19,0.33,0.28,0.5l0.27,0.52l0.26,0.52l0.25,0.53c0.34,0.7,0.64,1.42,0.95,2.13c-0.23-0.74-0.45-1.49-0.71-2.23
						l-0.19-0.56l-0.21-0.55l-0.21-0.55c-0.07-0.18-0.15-0.36-0.23-0.54c-0.3-0.73-0.66-1.44-1.09-2.13
						c-0.11-0.17-0.22-0.35-0.35-0.51c-0.06-0.08-0.13-0.17-0.2-0.25l-0.23-0.24c-0.07-0.08-0.17-0.15-0.26-0.23
						c-0.09-0.08-0.19-0.14-0.3-0.21c-0.05-0.03-0.11-0.06-0.18-0.09c-0.07-0.02-0.12-0.06-0.21-0.07
						c-0.08-0.01-0.15-0.04-0.25-0.03c-0.05,0-0.09,0-0.14,0.01l-0.08,0.02c-0.02,0-0.02,0-0.05,0.01
						c-0.03,0.01-0.05,0.02-0.08,0.03L72.49,35.78z"/>
				</g>
			</g>
		</g>
		<g>
			<g>
				<path class="st16" d="M87.1,54.07c0,0-0.2-0.91-2.17-1.04c0,0-2.55-0.46-3.43,2.61c0,0-1.63,1.25,0.33,2.84
					c0,0,0.02,1.46,1.58,1.27c0,0-0.21,1.41,1.09,1.21c0,0,0.83-0.46,2.85-0.87c0,0,1.17-0.15,0.12-1.49c0,0,1.5-0.44,0.92-1.65
					c0,0,1.14-0.79,0.48-2C88.87,54.94,88.2,53.47,87.1,54.07z"/>
				<path class="st5" d="M83.44,61c-0.26-0.26-0.34-0.62-0.36-0.9c-0.41-0.01-0.75-0.14-1.02-0.37c-0.39-0.34-0.51-0.83-0.54-1.08
					c-0.66-0.57-0.99-1.17-0.98-1.79c0.01-0.72,0.48-1.22,0.68-1.41c0.92-3.05,3.47-2.79,3.75-2.75c1.44,0.09,2.05,0.6,2.29,0.95
					c0.26-0.08,0.52-0.07,0.77,0.01c0.7,0.23,1.09,1.02,1.15,1.13c0.55,1,0.07,1.83-0.38,2.25c0.13,0.4,0.06,0.72-0.04,0.93
					c-0.17,0.38-0.5,0.62-0.77,0.77c0.27,0.44,0.33,0.8,0.21,1.12c-0.18,0.44-0.66,0.54-0.77,0.55c-1.93,0.39-2.74,0.83-2.75,0.83
					l-0.05,0.03l-0.06,0.01c-0.1,0.02-0.2,0.02-0.29,0.02C83.85,61.31,83.59,61.15,83.44,61z M87.29,59.77l0.02,0
					c0.03,0,0.22-0.05,0.26-0.16c0.05-0.11-0.02-0.39-0.36-0.81l-0.3-0.38l0.46-0.14c0.15-0.04,0.62-0.25,0.77-0.58
					c0.08-0.18,0.06-0.38-0.05-0.62l-0.12-0.25l0.23-0.16c0.04-0.03,0.9-0.63,0.38-1.57l-0.01-0.02c-0.08-0.18-0.38-0.67-0.77-0.8
					c-0.18-0.06-0.36-0.04-0.56,0.07l-0.38,0.22l-0.09-0.42c0-0.01-0.22-0.69-1.88-0.79l-0.04,0c-0.09-0.02-2.27-0.37-3.06,2.38
					l-0.03,0.1L81.7,55.9c0,0-0.5,0.4-0.51,0.97c-0.01,0.44,0.28,0.9,0.85,1.36l0.12,0.1l0,0.15c0,0,0.02,0.48,0.33,0.76
					c0.2,0.18,0.5,0.24,0.89,0.2l0.42-0.05l-0.06,0.42c-0.02,0.14-0.03,0.54,0.16,0.73c0.1,0.1,0.27,0.14,0.51,0.11
					C84.63,60.53,85.52,60.13,87.29,59.77z"/>
			</g>
			<g>
				<path class="st17" d="M81.75,55.72c0,0,0.12-1.38,1.83-1.8c0,0,1.7-0.66,2.52,0.85c0,0,1.08-0.55,1.73,0.5
					c0,0,0.76,1.5-0.92,1.91c0,0,1.26,0.55-0.77,1.24c0,0,1.43,0.88,0.09,1.23c0,0-0.73,0.23-1.82,0.75c0,0-0.93,0.46-0.46-1.1
					c0,0-1.73,0.82-1.87-1.1C82.09,58.2,80.21,57,81.75,55.72z"/>
			</g>
			<g>
				<path class="st3" d="M82.41,54.68c0.12-0.67-0.5,0.42-0.62,1.23c0,0-0.94,0.56-0.45,1.56c0,0,0.24,0.55,0.77,0.8
					c0,0-0.95-1.27,0.3-2.47C82.41,55.81,82.2,55.85,82.41,54.68z"/>
			</g>
			<g>
				<g>
					<path class="st16" d="M85.35,55.48c0.26-0.19,0.6-0.65,1.58-0.35c0,0,0.99,0.35,0.25,1.61c0,0-0.92,0.58-1.9,0.29
						C85.27,57.03,84.65,55.99,85.35,55.48z"/>
					<path class="st5" d="M85.18,57.34l-0.12-0.04l-0.07-0.11c-0.27-0.45-0.58-1.44,0.16-1.98l0,0c0.03-0.02,0.06-0.05,0.1-0.08
						c0.26-0.22,0.76-0.63,1.79-0.31c0.05,0.02,0.5,0.19,0.67,0.68c0.15,0.4,0.06,0.87-0.25,1.41l-0.04,0.07l-0.07,0.04
						c-0.03,0.02-0.68,0.42-1.51,0.42C85.63,57.44,85.41,57.41,85.18,57.34z M87.1,55.73c-0.07-0.2-0.27-0.29-0.27-0.29h0
						c-0.68-0.21-0.93,0-1.16,0.19c-0.05,0.04-0.09,0.07-0.13,0.1c-0.34,0.25-0.15,0.77-0.05,1.01c0.64,0.13,1.25-0.15,1.44-0.25
						C87.11,56.18,87.16,55.92,87.1,55.73z"/>
				</g>
				<g>
					<path class="st16" d="M84.68,58.6c0,0-0.51,0.8,0.32,0.81c0,0,0.95-0.06,0.81-0.37c0,0,0.17-0.58-0.61-0.82
						C85.2,58.23,84.9,58.06,84.68,58.6z"/>
					<path class="st5" d="M85,59.74c-0.44-0.01-0.63-0.2-0.72-0.36c-0.19-0.36,0.03-0.8,0.12-0.93c0.12-0.28,0.28-0.46,0.49-0.54
						c0.17-0.06,0.33-0.04,0.43,0.01c0.77,0.25,0.86,0.81,0.82,1.11c0.02,0.11,0,0.22-0.06,0.31c-0.17,0.29-0.67,0.38-1.06,0.4
						l-0.01,0L85,59.74z M85.49,58.95c0-0.01,0.07-0.27-0.39-0.41l-0.01,0c-0.02,0.02-0.06,0.07-0.11,0.19l-0.03,0.06
						c-0.05,0.08-0.11,0.23-0.11,0.29c0.02,0.01,0.06,0.02,0.14,0.02c0.17-0.01,0.37-0.05,0.48-0.09L85.49,58.95z M85.04,58.51
						L85.04,58.51L85.04,58.51z"/>
				</g>
				<g>
					<path class="st16" d="M83.23,56.06c-0.27-0.04-0.71-0.26-1.24,0.41c0,0-0.52,0.71,0.57,1.38c0,0,0.89,0.06,1.43-0.59
						C83.99,57.25,83.94,56.16,83.23,56.06z"/>
					<path class="st5" d="M82.53,58.17l-0.08-0.01l-0.07-0.04c-0.47-0.29-0.75-0.64-0.83-1.03c-0.09-0.46,0.14-0.78,0.17-0.83
						c0.59-0.73,1.14-0.61,1.45-0.55c0.03,0.01,0.07,0.02,0.1,0.02c0.77,0.11,1.02,1,1.04,1.5l0.01,0.13l-0.08,0.1
						c-0.55,0.66-1.37,0.71-1.63,0.71C82.57,58.17,82.54,58.17,82.53,58.17z M83.18,56.38L83.18,56.38
						c-0.04-0.01-0.09-0.02-0.14-0.03c-0.25-0.05-0.46-0.1-0.78,0.3c0,0.01-0.09,0.14-0.05,0.32c0.04,0.18,0.2,0.37,0.45,0.54
						c0.18-0.01,0.65-0.05,0.99-0.38C83.61,56.91,83.5,56.43,83.18,56.38z"/>
				</g>
			</g>
			<g>
				<path class="st3" d="M82.59,58.54c0,0,1,0.36,1.4-0.25c0,0,0.18,0.71-0.76,0.96C83.23,59.25,82.42,58.87,82.59,58.54z"/>
			</g>
			<g>
				<path class="st3" d="M85.46,55.93c0.13-0.1,0.3-0.33,0.79-0.17c0,0,0.49,0.17,0.12,0.8c0,0-0.46,0.29-0.95,0.14
					C85.43,56.7,85.12,56.19,85.46,55.93z"/>
			</g>
			<g>
				<path class="st3" d="M84.83,58.69c0,0-0.25,0.4,0.16,0.4c0,0,0.47-0.03,0.4-0.19c0,0,0.09-0.29-0.3-0.41
					C85.08,58.5,84.93,58.42,84.83,58.69z"/>
			</g>
			<g>
				<path class="st3" d="M82.71,56.66c-0.13-0.02-0.35-0.13-0.62,0.2c0,0-0.26,0.35,0.28,0.68c0,0,0.44,0.03,0.71-0.29
					C83.09,57.25,83.06,56.71,82.71,56.66z"/>
			</g>
		</g>
	</g>
</g>
</svg>
