<?xml version="1.0" encoding="utf-8"?>
<!-- Generator: Adobe Illustrator 28.5.0, SVG Export Plug-In . SVG Version: 9.03 Build 54727)  -->
<svg version="1.0" id="Layer_1" xmlns="http://www.w3.org/2000/svg" xmlns:xlink="http://www.w3.org/1999/xlink" x="0px" y="0px"
	 viewBox="0 0 1200 900" style="enable-background:new 0 0 1200 900;" xml:space="preserve">
<style type="text/css">
	.st0{fill:#A4D5A1;}
	.st1{fill:#83C166;}
	.st2{fill:#89C691;}
	.st3{fill:#CEC77A;}
	.st4{fill:#4EA994;}
	.st5{fill:#30756C;}
	.st6{fill:#F0A628;}
	.st7{fill:#F2BC62;}
	.st8{fill:#D59429;}
	.st9{fill:#C84732;}
	.st10{fill:#DA98A4;}
	.st11{fill:#552733;}
	.st12{fill:#8F8532;}
	.st13{fill:#F26923;}
	.st14{fill:#406CD9;}
	.st15{fill:#2750CB;}
	.st16{fill:#8AD1FB;}
	.st17{fill:#A6CCFE;}
	.st18{fill:#90DBFE;}
	.st19{fill:#B1B898;}
	.st20{fill:#8AB6EE;}
	.st21{fill:#FFFDF5;}
	.st22{fill:#BECFFE;}
	.st23{fill:#E5BE6C;}
	.st24{fill:#DC9F2F;}
	.st25{fill:#D18F16;}
	.st26{fill:#9D641D;}
	.st27{fill:#8EA959;}
	.st28{fill:#CCA570;}
	.st29{fill:#8B5D33;}
	.st30{fill:#976A3F;}
	.st31{fill:#A58334;}
	.st32{fill:#45231C;}
	.st33{fill:#7C300A;}
	.st34{fill:#A8876B;}
	.st35{fill:#E0AF48;}
	.st36{fill:#CAE3A4;}
	.st37{fill:#474F13;}
	.st38{fill:#929E47;}
</style>
<polygon class="st0" points="0.01,-4.7 0.01,900 172.18,899.58 172.18,899.58 776.05,899.58 776.05,900 1200,900 1200,-4.7 "/>
<path class="st1" d="M0.01-4.7v164.35c90.59,1.62,124.58-50.38,260.53-50.38c172.22,0,172.22,36.16,344.43,36.16
	s172.21-36.16,344.42-36.16c130.88,0,167.25,48.2,250.61,50.34V-4.7H0.01z"/>
<rect x="0.02" y="272.19" class="st2" width="1199.92" height="476.28"/>
<rect x="0.02" y="295.79" class="st3" width="1199.92" height="452.68"/>
<path class="st4" d="M61.02,298.77c-16.7-14.14-17.97-42.72-2.59-58.28c15.38-15.55,44.12-14.77,58.61,1.6
	c17.31-12.59,44.4-8.87,57.63,7.92c16.69-22.46,58.81-15.65,67.48,10.92c13.07-22.42,52.09-21.51,64.1,1.49
	c-3.28-24.18,16.01-49.13,40.35-52.17s49.24,16.38,52.08,40.62c11.27-4.45,23.27-8.99,35.22-6.9c11.95,2.09,23.06,13.68,19.93,25.33
	c11.4-13.39,30.96-17.87,48.3-14.67s32.76,13.01,46.32,24.23c4.19,3.47,8.42,7.35,10.06,12.52c5.25,16.56-17.24,27.25-34.46,30.11
	c-25.34,4.22-53.04,8.05-75.31-4.68c-31.76,21.9-74.4,15.84-112.4,8.88c-34.15-6.25-68.3-12.51-102.51-18.4
	c-10.05-1.73-20.35-3.43-30.37-1.54c-8.09,1.53-15.54,5.31-23.26,8.18c-35.1,13.06-77.04,5.79-105.63-18.31l-13.56,3.14
	L61.02,298.77z"/>
<path class="st4" d="M1200,319.17c-125.1-8.69-170.35,9.75-359.52,9.75c-241.41,0-241.41,32.12-482.82,32.12
	c-188.19,0-233.99-40.44-357.65-41.84v238.35c126.48,16.5,166.45,14.75,357.66,14.75c241.41,0,241.41-32.12,482.82-32.12
	c189.13,0,234.43,40.84,359.5,41.86V319.17L1200,319.17z"/>
<rect x="0.02" y="410.14" class="st5" width="1199.92" height="419.76"/>
<rect x="0.02" y="489.68" class="st6" width="1199.92" height="340.22"/>
<path class="st7" d="M0.01,572.7c125.1-8.69,170.35,9.75,359.52,9.75c241.41,0,241.41,32.12,482.82,32.12
	c188.19,0,233.98-40.44,357.64-41.84v238.35c-126.48,16.5-166.45,14.75-357.66,14.75c-241.41,0-241.41-32.12-482.82-32.12
	c-189.13,0-234.43,40.84-359.5,41.86L0.01,572.7L0.01,572.7z"/>
<path class="st8" d="M0.01,583.41c125.1-8.69,170.35,9.75,359.52,9.75c241.41,0,241.41,32.12,482.82,32.12
	c188.19,0,233.98-40.44,357.64-41.84v238.35c-126.48,16.5-166.45,14.75-357.66,14.75c-241.41,0-241.41-32.12-482.82-32.12
	c-189.13,0-234.43,40.84-359.5,41.86L0.01,583.41L0.01,583.41z"/>
<path class="st9" d="M1199.93,803.03c-1.49-2.78-3.49-5.76-6.21-9.07c-19.98-24.34-25.32,2.55-56.9,2.55s-31.59,7.01-63.17,7.01
	s-31.58-4.7-63.16-4.7s-31.58-22.4-63.16-22.4s-31.58-2.82-63.16-2.82s-31.58,3.12-63.16,3.12s-31.58-4.78-63.15-4.78
	s-31.58,32.92-63.15,32.92s-31.57-31.64-63.15-31.64s-31.58,17.79-63.16,17.79s-31.58,13.95-63.16,13.95s-31.58-27.92-63.15-27.92
	s-31.58,25.73-63.15,25.73s-31.58,0.45-63.16,0.45s-31.58-18.42-63.15-18.42s-31.58-4.6-63.16-4.6s-31.58,14.86-63.15,14.86
	s-31.57,3.55-63.15,3.55s-39.53-31.12-59.49-6.78c-1.44,1.76-2.63,3.42-3.66,5.02v27.27l0,0v59.35v16.52l172.17-0.42h603.86v0.42
	H1200v-95.37l-0.06,0.05v-1.65L1199.93,803.03z"/>
<g>
	<path class="st10" d="M442.08,777.05c-25.99,0-30.6,17.42-49.02,23.59c14.88,0.42,29.71,1.36,44.45,3.13
		c45.76,5.48,93.25,18.56,136.8,3.54c26.97-9.31,59.62-27.94,80.2-8.24c5.01,4.8,8.2,11.32,13.54,15.75
		c11.17,9.26,28.24,6.61,41.05-0.23c12.81-6.84,23.56-17.19,36.78-23.21c24.26-11.06,52.37-5.95,79.04-4.93
		c19.28,0.74,40.8-2.25,55.99-12.8c-28.35,0.21-29.45,3.11-59.9,3.11s-31.58-4.78-63.15-4.78s-31.58,32.92-63.15,32.92
		s-31.57-31.64-63.15-31.64s-31.58,17.79-63.16,17.79S536.82,805,505.24,805s-31.58-27.92-63.15-27.92L442.08,777.05z"/>
	<path class="st10" d="M305.43,802.46c-21.71-3.49-25.12-17.65-52.81-17.65c-31.58,0-31.58-4.6-63.16-4.6s-31.58,14.86-63.15,14.86
		c-0.43,0-0.84,0-1.26,0C183.56,808.78,244.41,805.36,305.43,802.46z"/>
</g>
<path class="st11" d="M1199.93,840.5c-1.49-2.78-3.49-5.76-6.21-9.07c-19.98-24.34-25.32,2.55-56.9,2.55s-31.59,7.01-63.17,7.01
	s-31.58-4.7-63.16-4.7s-31.58-22.4-63.16-22.4s-31.58-2.82-63.16-2.82s-31.58,3.12-63.16,3.12s-31.58-4.78-63.15-4.78
	s-31.58,32.92-63.15,32.92s-31.57-31.64-63.15-31.64s-31.58,17.79-63.16,17.79s-31.58,13.95-63.16,13.95s-31.58-27.92-63.15-27.92
	s-31.58,25.73-63.15,25.73s-31.58,0.45-63.16,0.45s-31.58-18.42-63.15-18.42s-31.58-4.6-63.16-4.6s-31.58,14.86-63.15,14.86
	s-31.57,3.55-63.15,3.55s-39.53-31.12-59.49-6.78c-1.44,1.76-2.63,3.42-3.66,5.02v27.27l0,0v38.4l172.17-0.42h603.86v0.42H1200
	V842.1l-0.06,0.05L1199.93,840.5L1199.93,840.5z"/>
<path class="st4" d="M885.71,303.19c-10.37-10.81-5.79-28.39-0.4-42.34c2.33-6.02,4.89-12.31,9.96-16.33
	c8.27-6.55,22.15-3.99,27.5,5.09c29.12-28.64,80.57-30.62,111.83-4.31c5.6-19.43,16.66-39.1,35.49-46.68
	c18.83-7.59,45.23,3.81,46.11,24c19.9-5.82,43.29,4.67,52.08,23.36s1.9,43.28-15.35,54.75c2.48,2.29,4.97,4.58,7.45,6.87
	c-20.54,15.43-48.38,15.82-74.11,15.57c-34.82-0.34-69.64-0.68-104.46-1.03c-5.83-0.06-11.66-0.11-17.49-0.17
	c-9.9-0.1-19.79-0.19-29.68-0.57c-14.24-0.54-28.45-1.67-42.59-3.38L885.71,303.19L885.71,303.19z"/>
<path class="st12" d="M535.51,727.05c-2.36-17.83-8.58-35.15-18.11-50.44c11.8,0.1,23.45,5.51,31.09,14.45
	c2.25-6.2,5.38-12.09,9.25-17.43c2.59,6.53,5.17,13.06,7.76,19.59c4.43-6.74,11.44-11.76,19.27-13.8
	c-5.51,11.6-2.87,26.53,6.3,35.55c4.42-6.76,10.63-12.36,17.82-16.08c0.46,6.16,0.92,12.33,1.37,18.49
	c-18.27,9.81-39.48,14.13-60.16,12.26l-14.61-2.6L535.51,727.05z"/>
<path class="st5" d="M1121.51,423.3c10.54-11.89,7.74-33.9,0.75-49.41c-4.12-9.13-10.25-18.1-18.51-19.41s-17.27,9.83-13.53,19.22
	c-2.87-7.77-10.29-12.39-16.93-10.53s-11.81,10-11.81,18.58c-4.4-8.54-12.43-13.88-20.49-13.64c-8.06,0.24-15.88,6.06-19.95,14.85
	c-7.86-20.55-26.08-34-44.12-32.58c-8.06,0.64-16.41,4.42-21.23,12.6c-4.81,8.18-4.69,21.28,1.7,27.51
	c-8.99-5.98-20.95-6.67-28.65,1.68c-7.71,8.35-7.73,26.74,1.34,32.53c2.99,1.91,6.43,2.29,9.78,2.63
	c31.48,3.22,62.97,6.44,94.45,9.66c29.91,3.06,61.93,5.57,87.98-13.24l-0.77-0.46L1121.51,423.3z"/>
<path class="st5" d="M347.62,427.52c-18.52-16.48-13.61-46.97-1.31-68.45c7.24-12.65,18.02-25.07,32.54-26.88
	c14.52-1.81,30.36,13.62,23.79,26.63c5.05-10.77,18.09-17.16,29.75-14.59s20.76,13.85,20.76,25.74
	c7.73-11.82,21.84-19.23,36.02-18.89c14.17,0.33,27.92,8.4,35.07,20.57c13.82-28.46,45.85-47.1,77.56-45.13
	c14.17,0.88,28.86,6.12,37.32,17.46s8.25,29.48-2.99,38.11c15.8-8.28,36.82-9.24,50.37,2.33c13.55,11.57,13.58,37.04-2.35,45.06
	c-5.26,2.65-11.31,3.17-17.19,3.64c-55.35,4.46-110.69,8.92-166.04,13.38c-52.59,4.24-108.87,7.71-154.67-18.34L347.62,427.52
	L347.62,427.52z"/>
<path class="st6" d="M57.62,500.86c-15.72-13.98-11.55-39.85-1.11-58.07c6.14-10.73,15.29-21.27,27.61-22.81
	c12.32-1.53,25.76,11.55,20.19,22.59c4.29-9.14,15.35-14.56,25.24-12.38s17.61,11.75,17.61,21.84
	c6.56-10.03,18.53-16.31,30.55-16.03s23.69,7.12,29.76,17.45c11.72-24.15,38.9-39.96,65.8-38.29c12.02,0.75,24.48,5.2,31.66,14.81
	c7.18,9.62,7,25.01-2.53,32.33c13.4-7.03,31.24-7.84,42.73,1.98s11.52,31.42-1.99,38.23c-4.46,2.25-9.59,2.69-14.58,3.09
	c-46.95,3.78-93.91,7.57-140.86,11.35c-44.62,3.6-92.36,6.54-131.22-15.56l1.15-0.54L57.62,500.86z"/>
<path class="st13" d="M172.29,281.12v1.49V281.12z"/>
<path class="st11" d="M568.87,849.06c-8.36-38.36-16.66-78.77-4.98-116.26c-1.32,26.92,2.49,54.09,11.17,79.62
	c5.56,16.36,13.15,32.27,15.31,49.4l-21.5-12.77V849.06z"/>
<path class="st11" d="M1115.88,849.06c-8.36-38.36-16.66-78.77-4.98-116.26c-1.32,26.92,2.49,54.09,11.17,79.62
	c5.56,16.36,13.15,32.27,15.31,49.4l-21.5-12.77L1115.88,849.06z"/>
<ellipse class="st11" cx="556.74" cy="714.17" rx="53.54" ry="54.38"/>
<ellipse class="st11" cx="1121.25" cy="746.09" rx="36.1" ry="34.12"/>
<path class="st11" d="M243.3,853.48c-81.42-38.82-134.46-129.92-127.79-219.5c55.7,28.61,103.91,71.53,138.65,123.45
	c-2.37-45.67,15.48-92.03,47.91-124.44c14.62,34.1,21.18,71.59,19.02,108.6c29.47-36.83,70.88-64.06,116.49-76.6
	c-0.55,48.15-14.77,96.62-43.5,135.38c-28.73,38.75-72.42,67.08-120.33,73.96l-30.44-20.84L243.3,853.48z"/>
<path class="st11" d="M879.05,837.31c-56.37-16.96-99.67-70.42-104.34-128.82c38.77,12.92,74.13,35.81,101.72,65.83
	c-6.1-29.2,0.76-60.85,18.42-84.96c12.84,20.53,20.82,44.04,23.13,68.11c15.31-26.66,39.27-48.31,67.41-60.91
	c4.46,31.09,0.16,63.74-14.48,91.57c-14.64,27.82-39.96,50.41-70.15,59.59L879.05,837.31L879.05,837.31z"/>
<path class="st5" d="M799.6,414.02c-7.31-38.41-9.16-77.85-5.48-116.77c-45-1.4-89.92-4.99-134.57-10.74
	c25.48-6.67,50.96-13.34,76.44-20.01c-6.2-6.59-15.53-10.14-24.57-9.36c6.66-7.67,17.81-9.28,27.95-10.37
	c54.3-5.88,108.59-11.75,162.89-17.63c-8.62,8.82-19.48,15.44-31.3,19.08c35.01,9.15,70.68,15.81,106.65,19.92
	c-2.92,8.41-12.62,12.06-21.2,14.56c-44.23,12.9-89.22,23.24-134.66,30.95c-7.99,35.97-8.36,73.59-1.09,109.71l-21.05-9.33
	L799.6,414.02z"/>
<path class="st5" d="M185.58,426.7c-5.7-29.94-7.14-60.67-4.27-91.01c-35.07-1.09-69.39,8.51-104.88-8.37
	c19.86-5.2,39.72-10.4,59.57-15.59c-4.84-5.14-12.1-7.9-19.15-7.29c5.19-5.98,13.88-7.23,21.78-8.08
	c42.32-4.58,84.63-9.16,126.95-13.74c-6.72,6.87-15.19,12.04-24.39,14.87c27.29,7.13,55.09,12.32,83.11,15.52
	c-2.27,6.55-9.83,9.4-16.52,11.35c-34.47,10.06-69.54,18.11-104.95,24.12c-6.23,28.03-6.52,57.35-0.85,85.5l-16.41-7.27
	L185.58,426.7z"/>
<path class="st6" d="M752.29,518.45c-15.4-7.66-22.64-28.33-15.35-43.85c7.29-15.52,27.87-23.26,43.66-16.43
	c23.49-21.5,63.23-22.33,87.61-1.83c15.59-25.37,32.81-52.21,60.19-64.16s67.06,0.13,71.78,29.5c26.99-16.17,66.73-4.76,80.91,23.24
	c18.21-7.45,41.55-4.55,54.21,10.45c12.67,15,9.23,41.93-8.68,50.06c-6.03,2.74-12.82,3.23-19.43,3.69
	c-98.77,6.8-197.55,13.61-296.32,20.41l-58.56-11.08H752.29z"/>
<path class="st7" d="M253.78,584.77c-18.62-16.14-26.32-43.66-18.76-67.05c15.12,7.31,30.24,14.62,45.36,21.93
	c7.41-22.91,23.99-42.74,45.29-54.16c6.4,19.24,6.26,40.57-0.38,59.73c15.26-13.23,36.36-19.51,56.41-16.81
	c-2.57,28.97-25.95,54.87-54.62,60.53c-7.72,1.52-15.63,1.71-23.5,1.88c-11.85,0.27-23.71,0.54-35.56,0.8L253.78,584.77
	L253.78,584.77z"/>
<path class="st7" d="M816.02,621.7c-13.38-10.8-22.11-27.1-23.67-44.17c17-1.11,34.23,1.41,50.19,7.35
	c0.96-16.79,8.19-33.15,19.98-45.21c16.9,2.87,32.53,12.57,42.55,26.4c6.66-13.85,19.76-24.48,34.74-28.18
	c5.49,12.49,1.34,26.88-2.84,39.86c-4.67,14.46-10.57,30.4-24.27,37.1c-4.67,2.28-9.87,3.25-15.01,4.07
	c-25.26,4.03-50.99,5.13-76.5,3.27L816.02,621.7L816.02,621.7z"/>
<g>
	<g>
		<polygon class="st14" points="-0.39,-4.28 -0.39,899.99 171.84,899.57 171.84,899.57 775.9,899.57 775.9,899.99 1200,899.99 
			1200,-4.28 		"/>
		<path class="st15" d="M-0.39-4.28V211.8c90.62,2.13,124.62-66.23,260.62-66.23c172.27,0,172.27,47.55,344.55,47.55
			c172.27,0,172.27-47.55,344.53-47.55c130.92,0,167.31,63.37,250.7,66.19V-4.28H-0.39z"/>
		<path class="st16" d="M561.71,322.34c58.56-7.47,96.36-62.71,140.57-101.61c14.95-13.15,32.12-25.13,51.86-28.04
			c19.75-2.92,42.36,5.66,50.15,23.93c36.01-40.66,103.19-39.74,150.27-12.47c19.98,11.57,39.23,30.58,37.86,53.53
			c9.68-10.37,26.42-11.44,39.68-6.31c13.26,5.14,23.84,15.26,33.94,25.23c9.64,9.52,19.99,22.61,14.84,35.1
			c-5.04,12.2-21.09,14.56-34.35,15.08c-155.58,6.1-311.47,12.2-466.91,3.05L561.71,322.34z"/>
		<path class="st17" d="M13.44,292.51c43.32-47.9,108.08-75.89,172.86-74.72c60.28,1.08,119.14,25.95,179.19,20.55
			c19.71-1.77,40.44-6.66,58.65,1.06c6.66,2.82,12.54,7.2,19.06,10.34c24.84,11.97,54.18,4.48,81.77,5.36
			c42.01,1.34,80.48,22.4,117.09,42.92c-111.37,9.24-222.74,18.48-334.1,27.72c-88.88,7.37-179.11,14.68-266.63-2.36L13.44,292.51z"
			/>
		<rect x="-0.39" y="272.48" class="st18" width="1200.33" height="476.06"/>
		<rect x="-0.39" y="296.07" class="st19" width="1200.33" height="452.47"/>
		<path class="st20" d="M749.39,162.08c0,0,340.77,1.09,353.91,0c13.14-1.09-24.78-90.97-79.98-58.5c0,0-44.48-42.8-97.48-27.89
			c-53,14.91-49.7,68.62-49.7,68.62s-52.92-53.95-94.92-48.91C749.44,99.21,730.75,123.76,749.39,162.08z"/>
		<path class="st21" d="M1023.32,103.58c0,0-44.48-42.8-97.48-27.89c-53,14.91-49.7,68.62-49.7,68.62s-52.92-53.95-94.92-48.91
			c-18.85,2.26-33.09,11.81-37.68,27.21c9.21,8.01,21.86,13.03,34.13,14.99c20.5,3.28,41.69,0.71,62.03,4.87
			c10.46,2.14,20.49,6.02,30.97,8.09c37.69,7.45,79.17-11.74,97.71-45.21c28.67,27.3,72.64,30.21,112.23,27.21
			c5.1-0.39,10.37-0.94,15.46-1.98C1082.49,107.9,1055.92,84.41,1023.32,103.58z"/>
		<rect x="-0.39" y="410.36" class="st22" width="1200.33" height="419.56"/>
		<g>
			<path class="st23" d="M-0.42,279.65c107.1-78.84,236.52-78.85,359.64-57.13C525.66,251.88,676.9,361.39,842.2,388.71
				c133.92,22.13,245.5-33.53,357.76-109.02c0,79.41,0,158.83,0,238.24c-106.87,85.03-228.63,104.12-357.79,81.94
				c-166.2-28.54-333.64,47.98-498.87,20.28C208.88,597.61,112.49,466.84-0.42,542.4C-0.42,454.82-0.42,367.23-0.42,279.65z"/>
		</g>
		<path class="st24" d="M157.01,215.64c-20.17,3.14-40.08,7.73-59.61,14.04c88.3,94.43,146.11,216.87,161.86,344.9
			c24.06-6.38,49.3-8.34,74.07-5.72c-38.59-122.35-79.58-248.95-166.7-343.51C163.59,222.06,160.38,218.77,157.01,215.64z"/>
		<path class="st24" d="M343.83,219.94c-22.25-3.57-44.67-6.36-67.08-8.03c80.09,100.08,121.67,229.19,154.29,354.66
			c18.09-5.31,36.18-10.62,54.27-15.93c-26.01-50.14-37.24-106.33-55.15-159.86C409.85,330.11,380.65,272.39,343.83,219.94z"/>
		<path class="st24" d="M552.38,543.2c14.9-4.62,30.56-6.85,46.16-6.55c-17.88-93.49-48.67-184.52-91.19-269.77
			c-25.44-10.03-51.05-19.26-76.93-27.08C477.57,338.18,518.35,439.59,552.38,543.2z"/>
		<g>
			<path class="st25" d="M1199.97,440.17c-107.1-78.84-236.52-78.85-359.64-57.13C673.88,412.4,522.64,521.92,357.34,549.23
				C223.42,571.36,111.84,515.7-0.42,440.21c0,79.41,0,158.83,0,238.24c106.87,85.03,228.63,104.12,357.79,81.94
				c166.2-28.54,323.37-48.01,488.6-75.71c134.44-22.53,241.09-57.31,354,18.25C1199.96,615.34,1199.96,527.76,1199.97,440.17z"/>
		</g>
		<path class="st26" d="M840.33,383.04c-75.5,13.32-147.86,43.13-219.83,74.28C542.92,521.72,477.95,604.26,424.46,690
			c36.7-23.87,85.13-28.88,125.99-13.04c18.53-63.14,62.95-115.78,112.53-159.34c76.11-66.87,167.13-116.84,264.51-145.5
			C898.34,374.09,869.16,377.96,840.33,383.04z"/>
		<path class="st26" d="M1031.79,374.63c-52.71,31.85-102.93,67.8-145.91,111.6c-54.76,55.8-97.48,125.36-111.31,202.09
			c10.13,1.02,20.26,2.05,30.4,3.07c13.62-2.2,27.27-4.42,40.99-6.72c0.96-0.16,1.92-0.33,2.88-0.49
			c-3.95-43.39,21.85-85.79,49.29-121.01c55.85-71.68,125.33-136.06,208.74-171.41C1082.39,383.47,1057.27,377.94,1031.79,374.63z"
			/>
		<path class="st27" d="M939.49,621.02c-6.65-15.95-13.29-31.9-19.94-47.84c-1.34-3.22-2.92-6.7-6.05-8.27
			c-2.16-1.08-8.07-3.43-10.45-3.88c-8-1.5-17.42-2.82-23.22,1.72c-5.8,4.54-22.71,21.72-22.12,25.64c0,0,8.27,3.95,0,0
			c-1.96-12-3.35-25.96,5.13-34.71c4.42-4.55,10.7-6.7,16.74-8.69c7.73-2.55,15.46-5.1,23.19-7.65c14.29-4.72,31.36-9.03,43.28,0.1
			c5.33,4.08,8.59,10.23,11.55,16.24c5.58,11.34,10.68,22.91,15.28,34.67c-2.31-15.89-4.53-32.59,1.22-47.59
			c4.4-11.46,13.03-20.73,21.46-29.68c7.78-8.27,15.57-16.54,23.35-24.81c-3.02,6.69-6.05,13.39-9.07,20.08
			c-7.4,16.39-14.89,33.05-17.37,50.85c-2.49,17.79,0.67,37.19,12.51,50.76c-19.15,14.6-44.4,21.02-68.25,17.34L939.49,621.02z"/>
		<path class="st27" d="M161.44,582.63c-5.82-11.56-3.69-25.43-0.14-37.87c6.84-23.99,18.46-46.63,34.01-66.2
			c6.24,28.12,6.23,57.59-0.01,85.7c9.85-20.47,34.99-30.07,57.76-28.38c22.77,1.69,43.75,12.4,63.78,23.29
			c-28.97-4.37-60.97-8.13-85.46,7.85c-6.16,4.02-11.57,9.16-18,12.75c-9.91,5.54-21.56,7.02-32.91,7.69L161.44,582.63z"/>
		<path class="st27" d="M519.32,631.19c-12.49-3.61-21.27-14.6-28.04-25.63c-13.06-21.29-21.86-45.15-25.74-69.79
			c24.99,14.56,46.73,34.6,63.23,58.26c-8.41-21.09,1.59-45.95,18.31-61.4c16.72-15.45,38.88-23.47,60.53-30.67
			c-22.91,18.15-47.44,38.93-52.29,67.65c-1.22,7.23-1.1,14.66-2.82,21.79c-2.65,10.99-9.47,20.49-16.7,29.22L519.32,631.19z"/>
		<path class="st28" d="M-0.39,572.11c125.14-8.69,170.41,9.75,359.64,9.75c241.49,0,241.49,32.1,482.99,32.1
			c188.25,0,234.06-40.42,357.76-41.82v238.24c-126.52,16.49-166.5,14.74-357.78,14.74c-241.49,0-241.49-32.1-482.99-32.1
			c-189.19,0-234.51,40.82-359.62,41.84V572.11z"/>
		<path class="st29" d="M-0.39,580.13c125.14-8.69,170.41,9.75,359.64,9.75c241.49,0,241.49,32.1,482.99,32.1
			c188.25,0,234.06-40.42,357.76-41.82v238.24c-126.52,16.49-166.5,14.74-357.78,14.74c-241.49,0-241.49-32.1-482.99-32.1
			c-189.19,0-234.51,40.82-359.62,41.84V580.13z"/>
		<path class="st30" d="M-0.39,633.64c125.14-8.69,170.41,9.75,359.64,9.75c241.49,0,241.49,32.1,482.99,32.1
			c188.25,0,234.06-40.42,357.76-41.82v238.24c-126.52,16.49-166.5,14.74-357.78,14.74c-241.49,0-241.49-32.1-482.99-32.1
			c-189.19,0-234.51,40.82-359.62,41.84V633.64z"/>
		<path class="st31" d="M1199.93,777.97v-1.65c-1.49-2.78-3.49-5.76-6.21-9.07c-19.98-24.33-25.32,2.55-56.92,2.55
			c-31.6,0-31.6,7.01-63.19,7.01c-31.59,0-31.59-4.7-63.19-4.7c-31.59,0-31.59-22.39-63.18-22.39c-31.59,0-31.59-2.82-63.18-2.82
			c-31.59,0-31.59,3.12-63.18,3.12c-31.59,0-31.59-4.78-63.18-4.78c-31.59,0-31.59,32.91-63.17,32.91
			c-31.58,0-31.58-31.62-63.17-31.62c-31.59,0-31.59,17.78-63.18,17.78c-31.59,0-31.59,13.94-63.18,13.94
			c-31.59,0-31.59-27.91-63.18-27.91c-31.59,0-31.59,25.72-63.17,25.72c-31.59,0-31.59,0.45-63.18,0.45
			c-31.59,0-31.59-18.41-63.17-18.41c-31.59,0-31.59-4.6-63.18-4.6c-31.59,0-31.59,14.86-63.17,14.86
			c-31.59,0-31.59,3.55-63.17,3.55c-31.58,0-39.54-31.1-59.51-6.78c-1.44,1.76-2.63,3.42-3.66,5.02v27.26c0,0,0,0,0,0l0,59.32v43.27
			l172.23-0.42l0,0H775.9v0.42H1200V777.91L1199.93,777.97z"/>
		<g>
			<path class="st28" d="M441.83,750.34c-26,0-30.61,17.41-49.03,23.58c14.88,0.42,29.72,1.36,44.47,3.13
				c45.77,5.48,93.29,18.55,136.84,3.53c26.98-9.3,59.64-27.92,80.22-8.24c5.02,4.8,8.2,11.31,13.55,15.74
				c11.17,9.25,28.25,6.6,41.06-0.23c12.81-6.84,23.57-17.18,36.79-23.2c24.27-11.05,52.39-5.95,79.06-4.93
				c19.29,0.74,40.81-2.25,56.01-12.8c-28.35,0.21-29.46,3.11-59.92,3.11c-31.59,0-31.59-4.78-63.18-4.78
				c-31.59,0-31.59,32.91-63.17,32.91c-31.58,0-31.58-31.62-63.17-31.62c-31.59,0-31.59,17.78-63.18,17.78
				c-31.59,0-31.59,13.94-63.18,13.94C473.41,778.25,473.41,750.34,441.83,750.34z"/>
			<path class="st28" d="M305.13,775.74c-21.72-3.49-25.13-17.64-52.83-17.64c-31.59,0-31.59-4.6-63.18-4.6
				c-31.59,0-31.59,14.86-63.17,14.86c-0.43,0-0.84,0-1.26,0C183.22,782.06,244.09,778.64,305.13,775.74z"/>
		</g>
		<path class="st32" d="M1199.93,813.77c-1.49-2.78-3.49-5.76-6.21-9.07c-19.98-24.33-25.32,2.55-56.92,2.55
			c-31.6,0-31.6,7.01-63.19,7.01c-31.59,0-31.59-4.7-63.19-4.7c-31.59,0-31.59-22.39-63.18-22.39c-31.59,0-31.59-2.82-63.18-2.82
			c-31.59,0-31.59,3.12-63.18,3.12c-31.59,0-31.59-4.78-63.18-4.78c-31.59,0-31.59,32.91-63.17,32.91
			c-31.58,0-31.58-31.62-63.17-31.62c-31.59,0-31.59,17.78-63.18,17.78c-31.59,0-31.59,13.94-63.18,13.94
			c-31.59,0-31.59-27.91-63.18-27.91c-31.59,0-31.59,25.72-63.17,25.72c-31.59,0-31.59,0.45-63.18,0.45
			c-31.59,0-31.59-18.41-63.17-18.41c-31.59,0-31.59-4.6-63.18-4.6c-31.59,0-31.59,14.86-63.17,14.86
			c-31.59,0-31.59,3.55-63.17,3.55c-31.58,0-39.54-31.1-59.51-6.78c-1.44,1.76-2.63,3.42-3.66,5.02v27.26l0,0l0,59.32v5.81
			l172.23-0.42H775.9v0.42H1200v-84.62l-0.07,0.05V813.77z"/>
		<g>
			<path class="st33" d="M56.25,878.1l0.99-2.23C56.76,876.58,56.44,877.33,56.25,878.1z"/>
		</g>
		<path class="st20" d="M88.11,117c0,0,387.13,1.24,402.06,0c14.93-1.24-28.15-103.35-90.86-66.46c0,0-50.53-48.62-110.74-31.69
			c-60.21,16.93-56.46,77.96-56.46,77.96s-60.12-61.29-107.84-55.57C88.16,45.57,66.92,73.46,88.11,117z"/>
		<path class="st21" d="M399.31,50.55c0,0-50.53-48.62-110.74-31.69c-60.21,16.93-56.46,77.96-56.46,77.96
			s-60.12-61.29-107.84-55.57c-16.21,1.94-29.4,8.65-37.13,19.37c22.96,21.41,54.76,33.28,86.23,31.84
			c8.48-0.39,17.09-1.68,25.37,0.21c5.31,1.21,10.24,3.69,15.41,5.41c35.86,11.9,72.26-14.04,101.1-38.33
			c24.23,29.49,63.87,44.09,102.16,43c23.36-0.66,46.17-6.68,67.55-16.2C470.68,59.38,438.91,27.25,399.31,50.55z"/>
	</g>
	<path class="st34" d="M254.88,231.62c27.11,16.15,55.19,30.68,84.05,43.49c15.08,6.69,31.82,13.03,47.74,8.63
		c4.43-1.22,8.86-3.47,11.18-7.41c3.54-6.02,1.08-13.63-1.44-20.14c-2.56-6.6-5.56-13.72-11.78-17.15c-4.5-2.48-9.9-2.57-15.04-2.59
		c-31.78-0.14-63.56-0.27-95.33-0.41L254.88,231.62z"/>
	<path class="st34" d="M428.14,305.65c26.69,25.11,62.32,40.64,98.98,43.14c15.39,1.05,34.36-2.56,39.32-17.08
		c4.63-13.57-7.41-28.22-21.34-31.92c-13.93-3.7-28.62,0.34-42.46,4.36c-15.37,4.47-30.74,8.93-46.11,13.4L428.14,305.65z"/>
	<path class="st35" d="M257.38,226.32c7.37-38.73,40.79-71.19,79.92-77.6c4.59-0.75,9.51-1.14,13.72,0.84
		c3.94,1.86,6.68,5.51,9.07,9.14c18.1,27.49,25.52,61.75,20.4,94.21c-27.85,5.62-56.82,5.64-84.68,0.05
		c-16.39-3.29-34.12-9.93-41.27-24.95L257.38,226.32z"/>
	<path class="st35" d="M428.87,305.96c0.75-39.41,28.25-76.96,65.75-89.78c4.4-1.51,9.19-2.7,13.67-1.45
		c4.2,1.18,7.51,4.33,10.48,7.51c22.47,24.1,35.54,56.64,35.95,89.49c-26.51,10.17-55.08,15-83.48,14.11
		c-16.71-0.52-35.31-4.12-44.89-17.74L428.87,305.96z"/>
	<path class="st36" d="M704.68,425.5c-6.08-20.4-14.72-40.04-25.66-58.33c5.7-10.32,10.18-21.32,13.3-32.68
		c5.38,2.42,10.76,4.83,16.14,7.25c1.68,0.75,3.4,1.53,4.68,2.85c2.41,2.46,2.78,6.2,3.08,9.62c1.63,18.41,5.23,36.64,10.72,54.3
		c-2.58,3.8-6.02,7.03-9.99,9.37L704.68,425.5z"/>
	<path class="st36" d="M763.72,410.36c-3.46-21-9.56-41.56-18.1-61.07c6.96-9.53,12.79-19.88,17.32-30.76
		c5.03,3.07,10.07,6.14,15.1,9.2c1.57,0.96,3.18,1.95,4.28,3.41c2.08,2.75,1.98,6.5,1.84,9.93c-0.71,18.47,0.57,37.01,3.79,55.21
		c-3.04,3.45-6.86,6.22-11.09,8.05L763.72,410.36z"/>
	<path class="st36" d="M832.86,396.84c-0.05-21.28-2.77-42.54-8.07-63.16c8.4-8.31,15.81-17.6,22.03-27.62
		c4.48,3.83,8.95,7.65,13.43,11.48c1.4,1.19,2.82,2.42,3.68,4.04c1.62,3.04,0.91,6.73,0.23,10.1c-3.66,18.12-5.38,36.62-5.11,55.1
		c-3.56,2.92-7.77,5.05-12.24,6.19L832.86,396.84z"/>
	<path class="st36" d="M670.79,397.3c69.37-25.18,140.91-44.44,213.58-57.49c1.05,5.05,2.1,10.11,3.15,15.16
		c-67.46,15.82-135.02,31.67-200.88,53.17L670.79,397.3z"/>
	<path class="st21" d="M680,372.49c4.05-5.26,8.09-10.53,12.14-15.79c2.36-3.07,5.12-6.39,8.97-6.94c2-0.29,4.02,0.23,5.97,0.74
		c2.22,0.58,4.65,1.31,5.87,3.25c0.35,0.55,0.58,1.18,0.8,1.79c1.17,3.26,2.35,6.51,3.52,9.77c0.5-5.16,0.45-10.36-0.15-15.51
		c-0.15-1.25-0.34-2.54-1.04-3.59c-0.53-0.8-1.31-1.39-2.08-1.97c-7.04-5.3-14.14-10.63-22.13-14.36
		c-5.48,10.59-10.45,21.43-14.9,32.48c-0.82,2.03-1.59,4.43-0.43,6.28l4.28,4.71C681.08,373.07,679.76,372.79,680,372.49z"/>
	<path class="st21" d="M745.55,351.44c5.27-9.47,10.53-18.95,15.8-28.42c0.76-1.37,1.69-2.87,3.22-3.21
		c1.25-0.28,2.51,0.3,3.66,0.87c5.28,2.61,10.56,5.23,15.83,7.84c0.64,0.32,1.35,0.7,1.58,1.37c0.16,0.45,0.08,0.95-0.01,1.42
		c-0.44,2.44-0.87,4.88-1.31,7.31c-3.46-5.07-9.31-8.45-15.46-8.91c-5.25,8.48-11.09,16.59-17.47,24.27
		c-1.52-0.55-3.05-1.11-4.57-1.66L745.55,351.44z"/>
	<path class="st21" d="M821.69,335.08c8.38-9.56,17.08-18.85,26.09-27.83c7.42,4.19,13.76,10.25,18.27,17.46
		c-1.81,0.72-3.23,2.32-3.73,4.19c-2.33-3.27-5.18-6.16-8.42-8.55c-0.79-0.59-1.66-1.16-2.65-1.24c-1.14-0.09-2.22,0.49-3.22,1.05
		c-8.24,4.64-16.47,9.28-24.71,13.93L821.69,335.08z"/>
	<g>
		<path class="st37" d="M350.18,899.87c11.73-9.25,21.53-20.9,28.25-34.21c4.63-9.17,7.91-19.08,13.8-27.51
			c21.45-30.68,68.59-31.48,94.76-58.3c-29.42,2.08-59.21,4.24-87.14,13.65c-27.93,9.4-54.26,27.02-67.83,53.05
			c4.39-23.27,2.96-47.61-4.14-70.21c-3.79-12.06-9.18-23.75-10.71-36.29c-3.38-27.79,12.52-53.92,28.14-77.21
			c-44.58,26.88-83.32,66.3-99.97,115.41c-13.49,39.81-10.19,86.23,11.46,121.62H350.18z"/>
		<path class="st37" d="M1095.17,899.87c9.5-6.61,17.44-15.45,22.64-25.76c3.13-6.21,5.35-12.92,9.34-18.63
			c14.53-20.78,46.44-21.32,64.17-39.48c-19.92,1.41-40.09,2.87-59.01,9.24c-18.91,6.37-36.74,18.3-45.93,35.92
			c2.97-15.76,2-32.24-2.8-47.54c-2.56-8.16-6.22-16.08-7.25-24.57c-2.29-18.82,8.48-36.51,19.05-52.28
			c-30.18,18.2-56.42,44.89-67.69,78.15c-9.47,27.95-6.67,60.69,9.49,84.95H1095.17z"/>
		<path class="st37" d="M776.06,869.91l-5.23,15.6c-0.13,4.78-0.08,9.57,0.08,14.35h29.02c1.01-1.6,2.06-3.16,3.24-4.64
			c10.27-12.95,27.89-17.82,44.46-18.5c16.57-0.69,33.19,2.01,49.72,0.68c30.26-2.45,59.03-19.2,75.98-44.24
			c-24.72,8.96-49.9,16.63-75.43,22.99c-0.58-13.55,9.99-24.72,19.81-34.13c18.88-18.1,37.76-36.2,56.64-54.3
			c-56.4,5.78-115.31,28.76-144.45,77.1c-6.72-22.44-24.77-39.33-40.63-56.64c-26.78-29.24-49.02-62.59-65.67-98.5
			c-6.25,30.51-12.49,62.24-4.99,92.47C727.12,816.42,752.02,843.94,776.06,869.91z"/>
		<path class="st37" d="M700.12,899.87c9.55-5.96,17.52-14.14,21.85-24.41c-14.65,2.98-29.3,5.95-43.95,8.93
			c24.79-30.99,31.47-75.33,16.9-112.17c-13.49,8.26-27.13,16.64-38.27,27.85c-11.13,11.21-19.68,25.73-20.62,41.45
			c-5.79-26.54-16.38-52.04-31.12-74.91c-8.92-13.84-19.6-27.31-22.64-43.47c-27.84,56.29-18.51,128.25,21.11,176.72H700.12z"/>
		<path class="st37" d="M146.65,899.87c7.94-5.69,14.49-13.05,18.27-22.01c-14.65,2.98-29.3,5.95-43.95,8.93
			c24.79-30.99,31.47-75.33,16.9-112.17c-13.5,8.26-27.13,16.64-38.27,27.85s-19.68,25.73-20.62,41.46
			c-5.79-26.54-16.38-52.04-31.12-74.91c-8.92-13.84-19.6-27.32-22.64-43.47C-2.16,780.92,6.41,851.45,44.4,899.87H146.65z"/>
	</g>
	<g>
		<path class="st38" d="M399.85,793.5c-25.17,8.47-49.01,23.65-63.41,45.61c36.41-30.69,83.23-49.06,130.94-51.04
			c2.4-0.1,5.38,0.54,7.11,1.91c4.5-2.95,8.72-6.26,12.49-10.12C457.57,781.93,427.78,784.09,399.85,793.5z"/>
		<path class="st38" d="M316.27,691.94c-17.56,20.37-13.83,51.21-5.38,76.68c8.45,25.47,20.8,51.21,17.28,77.8
			c1.47-1.38,3-2.7,4.51-4.04c3.48-22,1.88-44.79-4.79-66.05c-3.79-12.06-9.18-23.75-10.71-36.29
			c-3.38-27.79,12.52-53.92,28.14-77.21c-44.58,26.88-83.32,66.3-99.97,115.41c-5.54,16.34-8.2,33.79-7.97,51.14
			C243.81,775.62,272.71,724.59,316.27,691.94z"/>
	</g>
	<path class="st38" d="M635.9,847.75c8.99-26.87,28.43-50.13,53.36-63.82c5.38,19.31,8.49,39.25,9.29,59.27
		c6.19-23.3,5.25-48.53-3.63-70.98c-13.49,8.26-27.13,16.64-38.27,27.85c-11.13,11.21-19.68,25.73-20.62,41.45
		c-5.79-26.54-16.38-52.04-31.12-74.91c-8.92-13.84-19.6-27.31-22.64-43.47c-22.75,46-20.67,102.45,2.47,148.01
		c-12.53-38.69-13.01-81.22-0.95-120.09C606.94,779.74,624.71,812.7,635.9,847.75z"/>
	<path class="st38" d="M79.04,846.74c6.21-25.68,27.16-47.3,52.75-54.42c3.23-0.9,7.24-1.37,9.45,1.15
		c1.14,1.31,1.47,3.11,1.76,4.82c0.81,4.82,1.62,9.64,2.42,14.47c-0.3-13.02-2.74-25.98-7.54-38.13
		c-13.5,8.26-27.13,16.64-38.27,27.85s-19.68,25.73-20.62,41.46c-5.79-26.54-16.38-52.04-31.12-74.91
		c-8.92-13.84-19.6-27.32-22.64-43.47c-22.66,45.82-20.67,102,2.21,147.47l0.26-0.25c-11.55-39.71-12.18-82.51-1.78-122.54
		C45.23,781.49,62.97,813.71,79.04,846.74z"/>
	<g>
		<path class="st38" d="M778.11,868.67l0.03-0.03C777.72,867.6,777.93,868.07,778.11,868.67z"/>
		<path class="st38" d="M778.11,868.67l-0.57,0.53c0.02,0.02,0.03,0.03,0.04,0.05C778.44,870.17,778.3,869.34,778.11,868.67z"/>
		<path class="st38" d="M773.33,781.39c20.41,21.34,42.75,41.62,56.85,67.52c28.87-38.48,73.6-64.82,121.42-71.51
			c-18.06,13.53-32.83,31.36-42.71,51.58c0.78-0.12,1.55-0.31,2.32-0.45c2.12-2.26,4.32-4.44,6.5-6.52
			c18.88-18.1,37.76-36.2,56.64-54.3c-56.4,5.78-115.31,28.76-144.45,77.1c-6.72-22.44-24.77-39.33-40.63-56.64
			c-26.78-29.24-49.02-62.59-65.67-98.5c-6.25,30.51-12.49,62.24-4.99,92.47c8.5,34.26,33.4,61.78,57.44,87.75l-0.32,0.95l1.8-1.66
			c-39.94-42.93-58.87-104.34-49.98-162.15C733.45,735.91,752.91,760.05,773.33,781.39z"/>
	</g>
	<path class="st38" d="M1132.32,825.24c-18.91,6.37-36.74,18.3-45.93,35.92c2.97-15.76,2-32.24-2.8-47.54
		c-2.56-8.16-6.22-16.08-7.25-24.57c-2.29-18.82,8.48-36.51,19.05-52.28c-30.18,18.2-56.42,44.89-67.69,78.15
		c-7.21,21.28-7.28,45.31,0.2,66.29c-3.05-21.36-2.92-43.3,2.9-64.02c6.49-23.11,20.56-44.63,41.11-57.23
		c-14.28,33.74,14.42,70.7,12.71,107.27c22.84-26.98,58.7-37.76,92.19-50.11C1161.69,818.41,1146.64,820.42,1132.32,825.24z"/>
</g>
</svg>
