<?xml version="1.0" encoding="UTF-8"?>
<svg id="Layer_1" data-name="Layer 1" xmlns="http://www.w3.org/2000/svg" version="1.1" viewBox="0 0 150 150">
  <defs>
    <style>
      .cls-1 {
        fill: #f3e0d8;
      }

      .cls-1, .cls-2, .cls-3, .cls-4, .cls-5, .cls-6, .cls-7, .cls-8, .cls-9, .cls-10, .cls-11, .cls-12, .cls-13, .cls-14, .cls-15, .cls-16, .cls-17, .cls-18, .cls-19, .cls-20 {
        stroke-width: 0px;
      }

      .cls-2 {
        fill: #fccaa7;
      }

      .cls-3 {
        fill: #f9edee;
      }

      .cls-4 {
        fill: #f4956e;
      }

      .cls-5 {
        fill: #fbe6a9;
      }

      .cls-6 {
        fill: #282728;
      }

      .cls-7 {
        fill: #ccc7ca;
      }

      .cls-8 {
        fill: #887f7c;
      }

      .cls-21 {
        opacity: .78;
      }

      .cls-9 {
        fill: #9584ab;
      }

      .cls-10 {
        fill: #bed5ef;
      }

      .cls-11 {
        fill: #442d3e;
      }

      .cls-12 {
        fill: #eaa498;
      }

      .cls-13 {
        fill: #683a57;
      }

      .cls-14 {
        fill: #4e3b6e;
      }

      .cls-15 {
        fill: #785b72;
      }

      .cls-16 {
        fill: #fff;
      }

      .cls-17 {
        fill: #8c2e26;
      }

      .cls-18 {
        fill: #cd1e54;
      }

      .cls-19 {
        fill: #695a64;
      }

      .cls-20 {
        fill: #f1749b;
      }
    </style>
  </defs>
  <g>
    <g>
      <path class="cls-19" d="M61.55,84.09c2.47-.4,4.83,1.29,5.23,3.76l.36,2.21c.41,2.47-1.29,4.83-3.76,5.23l-.13.48c-2.47.41-5.12-2.14-5.53-4.61l.11-1.05c-.05-3.13,1.23-5.62,3.71-6.02Z"/>
      <path class="cls-14" d="M57.35,90.1l-.11,1.09v.07c.23,1.31,1.03,2.69,2.16,3.68,1.03.9,2.22,1.39,3.34,1.39.2,0,.4-.02.6-.05l.32-.05.13-.5c1.19-.27,2.24-.97,2.96-1.98.79-1.1,1.1-2.43.89-3.76l-.36-2.21c-.45-2.75-3.06-4.62-5.8-4.17-2.59.43-4.17,2.91-4.12,6.49ZM58.23,91.15l.11-1.01v-.03c-.05-3.07,1.21-5.19,3.29-5.53,2.21-.36,4.3,1.14,4.67,3.35l.36,2.21c.18,1.07-.08,2.14-.71,3.02-.63.88-1.57,1.47-2.64,1.64l-.32.05-.12.46c-.92.04-1.93-.36-2.82-1.14-.95-.83-1.62-1.96-1.82-3.03Z"/>
    </g>
    <path class="cls-14" d="M57.34,90.1l-.03,1.43v.07c.45,2.66,3.18,5.15,6.03,4.69l.32-.05.13-.5c1.19-.28,2.24-.97,2.96-1.98.65-.9.98-1.96.95-3.05,0-.24-.03-.48-.07-.72l-.36-2.21c-.22-1.33-.94-2.5-2.04-3.29-1.1-.79-2.44-1.1-3.77-.89-2.59.43-4.17,2.91-4.13,6.5ZM58.24,91.15l.11-1.04c-.05-3.07,1.21-5.18,3.29-5.52,1.06-.17,2.14.08,3.02.71.88.63,1.46,1.57,1.64,2.63l.36,2.21c.36,2.21-1.14,4.3-3.35,4.66l-.32.05-.12.46c-.92.04-1.92-.36-2.81-1.14-.94-.83-1.62-1.95-1.81-3.03Z"/>
    <g>
      <path class="cls-11" d="M71.52,90.95s2.25,1.26,4.51,2.11c0,0,1.98.51,1.5,2.02,0,0-3.46,6.06-3.68,6.42,0,0-.72,1.23-1.25,1.42,0,0-1.73.07-1.81-4.03l-.17-1.2-9.13-2.8,3.65-7.39,6.39,3.45Z"/>
      <path class="cls-6" d="M64.92,86.82l-4.13,8.37,9.38,2.88.13.86c.04,1.94.45,3.29,1.2,4,.48.45.95.49,1.09.49.01,0,.02,0,.03,0h.08s.07-.03.07-.03c.65-.24,1.32-1.31,1.51-1.64.22-.36,3.54-6.18,3.68-6.43l.04-.09c.16-.51.13-1-.11-1.43-.46-.83-1.49-1.15-1.71-1.21-2.2-.83-4.4-2.05-4.42-2.07h0s-6.84-3.7-6.84-3.7ZM62.19,94.59l3.16-6.41,5.93,3.21c.13.07,2.32,1.29,4.57,2.13l.05.02c.23.06.88.31,1.12.74.1.18.11.37.05.6-1.2,2.11-3.47,6.08-3.65,6.36-.29.5-.7,1.01-.92,1.17-.26-.08-1.16-.58-1.22-3.53v-.06s-.22-1.51-.22-1.51l-8.87-2.72Z"/>
    </g>
    <path class="cls-15" d="M75.56,95.39s1.38.21-2.54,6c0,0-.9,1.24-1.2.56,0,0-1.1-2.84-.31-4.04,0,0,1.14-3.01,4.05-2.52Z"/>
    <g>
      <path class="cls-11" d="M71.06,98.08h9.43c.41,0,.75.33.75.75v.31c0,.41-.33.74-.74.74h-9.43c-.41,0-.75-.33-.75-.75v-.31c0-.41.33-.74.74-.74Z" transform="translate(-48.2 111.93) rotate(-58.53)"/>
      <path class="cls-6" d="M72.13,102.27c-.36.58-.17,1.35.41,1.7l.26.16c.2.12.42.18.64.18.1,0,.2-.01.29-.04.32-.08.59-.28.77-.56l4.92-8.05c.17-.28.22-.61.15-.94-.08-.32-.28-.59-.56-.77l-.26-.16c-.28-.17-.61-.23-.94-.15-.32.08-.6.28-.77.56l-4.92,8.05ZM72.97,102.79l4.92-8.05c.05-.08.12-.1.16-.11.02,0,.04,0,.06,0,.04,0,.08,0,.13.04l.26.16c.08.05.1.12.11.15,0,.04.02.11-.03.19l-4.92,8.05c-.05.08-.12.1-.15.11s-.11.02-.19-.03l-.26-.16c-.12-.07-.15-.23-.08-.34Z"/>
    </g>
    <g>
      <path class="cls-19" d="M72.47,90.59c.27,2.82-2.09,6.02-2.09,6.02-.5,1.14-1.64,1.5-1.64,1.5-7.99-1.6-8.67-3.44-8.67-3.44-1.23-3.75,2.73-7.55,2.73-7.55,1.77-2.39,9.68,3.48,9.68,3.48Z"/>
      <path class="cls-14" d="M62.43,86.78c-.4.39-4.1,4.17-2.83,8.03.14.37,1.18,2.2,9.05,3.77l.12.02.12-.04c.05-.02,1.34-.43,1.93-1.72.3-.42,2.42-3.49,2.15-6.31l-.02-.22-.18-.13c-.63-.47-6.22-4.54-9.06-4.11-.55.08-.98.32-1.28.71ZM60.53,94.48s0,0,0,0c0,0,0,0,0,0ZM63.14,87.47l.05-.06c.14-.19.36-.31.66-.35,2-.3,6.39,2.52,8.14,3.8.11,2.55-1.99,5.43-2.01,5.46l-.06.1c-.32.72-.98,1.07-1.23,1.18-6.95-1.41-8.08-2.98-8.17-3.12-1.09-3.38,2.58-6.97,2.62-7Z"/>
    </g>
    <g>
      <g>
        <path class="cls-9" d="M71.13,96.97c1.33-.17,1.34.68,1.34.68.11,1.65.06,2.06.06,2.06.13,1.15-2.06.81-2.06.81-.32-1.06-.4-3.19-.4-3.19-.05-.46,1.06-.37,1.06-.37Z"/>
        <path class="cls-19" d="M69.96,96.97c-.1.1-.15.24-.14.38,0,.15.09,2.19.41,3.24l.04.15.15.02c.07.01.35.05.7.05.47,0,1.06-.07,1.39-.39.19-.18.28-.43.25-.72,0-.13.03-.65-.06-2.08,0-.02-.01-.37-.32-.63-.28-.25-.71-.34-1.27-.27-.23-.02-.88-.04-1.16.25ZM70.31,97.31c.06-.07.45-.12.79-.09h.03s.03,0,.03,0c.11-.01.21-.02.3-.02.27,0,.48.06.61.17.15.12.16.28.16.29.11,1.59.06,2.02.06,2.03v.03s0,.03,0,.03c.02.19-.05.28-.1.33-.27.26-1.02.28-1.52.23-.27-1.06-.35-2.95-.35-2.97v-.02Z"/>
      </g>
      <g>
        <path class="cls-11" d="M70.86,97.98c.55-.07.56.28.56.28.05.68.03.86.03.86.05.48-.86.34-.86.34-.13-.44-.17-1.32-.17-1.32-.02-.19.44-.15.44-.15Z"/>
        <path class="cls-6" d="M70.27,97.88c-.07.07-.11.17-.1.27,0,.08.04.93.18,1.38l.05.15.15.02s.16.02.31.02c.22,0,.51-.04.68-.2.11-.1.16-.25.15-.4,0-.08.01-.31-.03-.87,0-.02-.01-.21-.18-.36-.15-.13-.36-.18-.63-.15-.14-.01-.43,0-.58.15ZM70.68,98.23s.11,0,.17,0h.03s.03,0,.03,0c.04,0,.08,0,.11,0,.11,0,.17.03.17.06.04.63.03.81.03.81v.03s0,.03,0,.03c-.03.06-.21.09-.41.08-.06-.31-.1-.75-.11-1Z"/>
      </g>
    </g>
    <path class="cls-19" d="M64.08,85.4l2.21,1.53c4.53,2.94,2.88,5.4,1.36,5.56l-.53-.7c-1,2.34-2.39,4.5-3.97,3.82l-2.04-.44c-1.58-.68-2.73-4.43-1.73-6.76,1-2.34,3.12-3.69,4.7-3.01Z"/>
    <path class="cls-8" d="M60.27,87.25c1.3-.35,2.65.43,2.99,1.73l.79,2.94c.35,1.3.8,2.52-.5,2.87l-.38.64c-1.3.35-4.26-1.07-4.72-4.26l.05-.51c-.35-1.3.47-3.05,1.77-3.4Z"/>
    <path class="cls-8" d="M71.04,92.16c.19,2-1.48,4.27-1.48,4.27-.35.81-1.17,1.06-1.17,1.06-5.67-1.14-6.15-2.44-6.15-2.44-.87-2.66,1.94-5.36,1.94-5.36,1.25-1.7,6.86,2.47,6.86,2.47Z"/>
  </g>
  <g>
    <g>
      <path class="cls-19" d="M45.61,80.09c2.5.2,4.38,2.4,4.19,4.9l-.17,2.23c-.19,2.5-2.4,4.38-4.9,4.19l-.24.44c-2.5-.19-4.47-3.3-4.27-5.79l.36-.99c.7-3.06,2.53-5.16,5.03-4.97Z"/>
      <path class="cls-14" d="M39.73,85.95v.07c-.11,1.33.35,2.85,1.21,4.08.93,1.32,2.21,2.14,3.51,2.24l.32.02.24-.45c1.23.02,2.4-.41,3.35-1.22,1.03-.88,1.65-2.1,1.76-3.44l.17-2.23c.22-2.78-1.87-5.21-4.64-5.43-2.62-.2-4.74,1.84-5.55,5.32l-.37,1.03ZM40.71,86.15l.35-.99c.68-2.99,2.41-4.75,4.51-4.59,2.23.17,3.91,2.13,3.74,4.37l-.17,2.23c-.08,1.08-.58,2.06-1.41,2.77-.83.71-1.88,1.05-2.95.97l-.32-.02-.23.42c-.9-.18-1.79-.81-2.47-1.78-.72-1.03-1.11-2.29-1.04-3.37Z"/>
    </g>
    <path class="cls-14" d="M39.73,86.3v.07c-.21,2.69,1.85,5.76,4.73,5.98l.32.02.24-.45c1.22.02,2.4-.41,3.35-1.22.84-.72,1.41-1.68,1.65-2.73.05-.23.09-.47.11-.71l.17-2.23c.1-1.34-.32-2.65-1.2-3.68-.88-1.03-2.11-1.65-3.45-1.76-2.62-.2-4.75,1.84-5.55,5.33l-.37,1.38ZM40.72,86.16l.35-.99c.68-2.99,2.41-4.75,4.51-4.58,1.07.08,2.06.58,2.76,1.41.71.83,1.05,1.87.97,2.95l-.17,2.23c-.17,2.23-2.13,3.9-4.36,3.73l-.33-.02-.23.42c-.9-.18-1.78-.81-2.46-1.78-.72-1.03-1.11-2.28-1.04-3.37Z"/>
    <g>
      <path class="cls-11" d="M48.28,84.25l5.38,4.87s1.88,1.75,3.88,3.12c0,0,1.81.97.98,2.32,0,0-4.8,5.07-5.1,5.37,0,0-.99,1.02-1.55,1.08,0,0-1.69-.34-.8-4.35l.12-1.21-8.2-4.89,5.3-6.31Z"/>
      <path class="cls-6" d="M42.23,90.69l8.43,5.03-.08.87c-.42,1.9-.35,3.3.22,4.17.39.6.88.73.97.74h.07s.08,0,.08,0c.69-.07,1.59-.96,1.85-1.23.3-.29,4.91-5.16,5.11-5.37l.06-.08c.28-.45.36-.94.23-1.41-.25-.92-1.17-1.48-1.37-1.59-1.93-1.32-3.78-3.04-3.8-3.06h0s-5.76-5.22-5.76-5.22l-6,7.15ZM43.73,90.43l4.59-5.47,5,4.53c.11.1,1.95,1.8,3.93,3.16l.04.03c.21.11.78.52.91.99.05.2.02.39-.1.6-1.67,1.76-4.82,5.08-5.05,5.31-.4.42-.92.81-1.17.92-.23-.14-.99-.84-.35-3.72v-.06s.16-1.52.16-1.52l-7.97-4.75Z"/>
    </g>
    <path class="cls-15" d="M56.53,94.4s1.29.53-3.9,5.22c0,0-1.17.99-1.29.26,0,0-.39-3.02.66-4,0,0,1.82-2.65,4.53-1.48Z"/>
    <g>
      <path class="cls-11" d="M51.17,97.03h9.43c.41,0,.74.33.74.74v.31c0,.41-.33.75-.75.75h-9.43c-.41,0-.75-.33-.75-.75v-.31c0-.41.33-.75.75-.75Z" transform="translate(-52.77 67.81) rotate(-44.79)"/>
      <path class="cls-6" d="M51.56,100.26c-.23.23-.36.54-.37.88,0,.33.13.64.36.88l.21.22c.24.24.56.37.88.37s.63-.12.87-.36l6.69-6.65c.48-.48.49-1.27,0-1.75l-.22-.22c-.23-.23-.54-.36-.88-.37h0c-.33,0-.64.13-.87.36l-6.69,6.65ZM52.19,101.14s0-.11.07-.18l6.69-6.65c.06-.06.14-.07.18-.07h0s.11,0,.18.07l.22.22c.1.1.1.26,0,.35l-6.69,6.65c-.1.1-.26.1-.35,0l-.21-.22c-.06-.06-.07-.14-.07-.18Z"/>
    </g>
    <g>
      <path class="cls-19" d="M46.11,83.32c2.29-1.9,8.57,5.68,8.57,5.68-.41,2.8-3.46,5.35-3.46,5.35-.75.99-1.95,1.06-1.95,1.06-7.38-3.45-7.61-5.4-7.61-5.4-.31-3.93,4.45-6.68,4.45-6.68Z"/>
      <path class="cls-14" d="M41.17,90.04c.04.39.62,2.41,7.89,5.81l.11.05h.13c.06-.01,1.4-.11,2.28-1.22.39-.34,3.18-2.81,3.59-5.62l.03-.22-.14-.17c-.5-.6-4.96-5.89-7.82-6.15-.55-.05-1.03.08-1.41.38-.48.29-4.97,3.07-4.66,7.13ZM42.15,89.94s0,0,0,0c0,0,0,0,0,0ZM42.15,89.92c-.26-3.55,4.16-6.15,4.21-6.18l.07-.05c.18-.15.42-.21.72-.19,2.01.19,5.6,3.97,7.01,5.63-.5,2.51-3.22,4.8-3.25,4.83l-.04.04-.03.04c-.48.63-1.21.81-1.48.85-6.42-3.02-7.14-4.82-7.19-4.97Z"/>
    </g>
    <g>
      <g>
        <path class="cls-9" d="M51.85,94.87c1.33.15,1.14.98,1.14.98-.28,1.63-.43,2.02-.43,2.02-.15,1.15-2.2.3-2.2.3-.06-1.1.37-3.19.37-3.19.06-.46,1.12-.1,1.12-.1Z"/>
        <path class="cls-19" d="M50.49,94.93c-.03.15-.43,2.15-.37,3.25v.16s.15.06.15.06c.1.04.8.32,1.44.32.25,0,.48-.04.68-.15.23-.13.38-.35.42-.64.04-.12.19-.62.43-2.03,0-.02.07-.36-.16-.69-.22-.31-.61-.5-1.17-.57-.22-.07-.85-.25-1.19-.03-.12.08-.2.19-.22.34ZM50.61,97.99c-.01-1.09.36-2.95.37-2.97v-.02s.07-.02.13-.02c.16,0,.43.04.66.12h.05c.42.06.71.18.85.37.11.16.09.31.09.32-.27,1.57-.42,1.98-.42,1.98v.05c-.04.19-.13.26-.19.3-.36.21-1.14,0-1.53-.14Z"/>
      </g>
      <g>
        <path class="cls-11" d="M51.36,95.79c.55.06.47.4.47.4-.12.68-.18.84-.18.84-.06.48-.91.12-.91.12-.02-.46.15-1.32.15-1.32.03-.19.46-.04.46-.04Z"/>
        <path class="cls-6" d="M50.65,95.79c-.02.08-.18.91-.16,1.38v.16s.15.06.15.06c.08.03.37.14.65.14.13,0,.25-.02.35-.08.13-.08.22-.2.24-.36.02-.08.08-.3.18-.85,0-.02.04-.21-.09-.39-.11-.16-.31-.26-.57-.29-.16-.05-.42-.11-.6,0-.09.05-.14.14-.16.24ZM50.99,96.98c.01-.34.09-.79.13-.99.05,0,.12.02.16.04h.05c.17.03.26.09.26.13-.11.62-.16.79-.17.8v.05c-.06.05-.25.03-.43-.02Z"/>
      </g>
    </g>
    <path class="cls-19" d="M47.76,81.96l1.78,2.01c3.7,3.93,1.52,5.93,0,5.72l-.35-.81c-1.53,2.03-3.39,3.81-4.77,2.77l-1.88-.91c-1.38-1.04-1.6-4.95-.07-6.98,1.53-2.03,3.91-2.84,5.28-1.8Z"/>
    <path class="cls-8" d="M43.61,82.85c1.34-.03,2.47,1.05,2.5,2.39l.07,3.04c.03,1.34.18,2.64-1.17,2.67l-.52.53c-1.34.03-3.89-2.05-3.58-5.26l.17-.49c-.03-1.34,1.19-2.85,2.53-2.88Z"/>
    <path class="cls-8" d="M46.84,86.15c1.62-1.35,6.08,4.03,6.08,4.03-.29,1.99-2.45,3.79-2.45,3.79-.53.7-1.39.75-1.39.75-5.24-2.45-5.39-3.83-5.39-3.83-.22-2.79,3.15-4.74,3.15-4.74Z"/>
  </g>
  <g>
    <g>
      <path class="cls-9" d="M40.57,37.55s.84,3.99,1.66,7.26c.29,1.16,3.45,2.61,5.22,4.13,2.05,1.77.62,6.75-3.51,5.61-.57-.16-5.27-1.71-7.61-5.21,0,0-2.55-4.26-3.06-10.02,0,0,4.7.98,7.31-1.76Z"/>
      <path class="cls-19" d="M33.37,38.83l-.65-.13.06.66c.52,5.81,3.02,10.05,3.13,10.23v.02c2.59,3.86,7.85,5.4,7.9,5.41.45.12.89.19,1.31.19,1.4,0,2.57-.69,3.25-1.97.87-1.63.62-3.64-.59-4.68-.7-.6-1.59-1.18-2.45-1.74-1.1-.72-2.47-1.61-2.61-2.13-.81-3.22-1.64-7.2-1.65-7.24l-.19-.92-.65.68c-2.38,2.5-6.8,1.63-6.85,1.62ZM33.83,39.9c1.31.16,4.27.27,6.44-1.41.29,1.35.89,4.09,1.48,6.44.23.91,1.52,1.75,3.03,2.72.83.54,1.7,1.1,2.35,1.66.85.73,1.01,2.25.36,3.46-.31.59-1.27,1.88-3.42,1.29-.05-.01-4.94-1.44-7.32-4.99-.13-.22-2.32-4.05-2.92-9.17Z"/>
    </g>
    <path class="cls-7" d="M41.27,43.13s.36,1.99.72,2.43c0,0,2.19,1.85,4.16,3.08,0,0,1.13.59,1.2,1.33,0,0,1.02,2.34-3.67,1.9,0,0-3.3-1.42-5.02-3.91,0,0-.73-1.43-.94-2.3,0,0,2.11-.39,3.56-2.53Z"/>
    <g>
      <g>
        <path class="cls-11" d="M40.67,36.47l2.11,5.61c-4.6,4.27-10.01,1.96-10.01,1.96-.43-2.09.38-5.53.38-5.53,5,1.21,7.53-2.04,7.53-2.04Z"/>
        <path class="cls-6" d="M32.66,38.4c-.03.14-.83,3.57-.38,5.74l.05.25.24.1s1.56.64,3.7.64c2,0,4.53-.56,6.85-2.7l.24-.23-2.53-6.74-.54.7c-.1.12-2.41,2.98-7.02,1.86l-.48-.12-.11.48ZM33.52,39.1c3.64.7,5.95-.82,6.96-1.72l1.71,4.56c-3.75,3.27-7.94,2.11-8.99,1.74-.22-1.51.14-3.64.32-4.58Z"/>
      </g>
      <path class="cls-15" d="M40.23,37.3l1.9,4.57s-6.4,4.07-7.98-2.51c0,0,2.95.57,6.08-2.06Z"/>
      <g>
        <path class="cls-6" d="M37.36,39.93c.23.1.46.21.68.34.22.13.43.27.63.47-.27,0-.53-.05-.77-.11-.25-.06-.49-.14-.72-.24-.23-.1-.46-.21-.68-.33-.22-.13-.43-.27-.63-.47.27,0,.53.05.77.11.25.06.49.14.72.24Z"/>
        <path class="cls-6" d="M36.95,40.06c.19-.17.38-.33.59-.48.21-.14.43-.28.69-.37-.12.25-.27.46-.43.66-.16.2-.34.38-.52.55-.19.17-.38.33-.6.47-.21.14-.43.28-.69.37.12-.25.27-.46.43-.66.16-.2.34-.38.52-.55Z"/>
      </g>
      <g>
        <path class="cls-6" d="M37.66,41.92c.23.1.46.21.68.34.22.13.43.27.63.47-.27,0-.53-.05-.77-.11-.25-.06-.49-.14-.72-.24-.23-.09-.46-.21-.68-.33-.22-.13-.43-.27-.63-.47.27,0,.53.05.77.11.25.06.49.14.72.24Z"/>
        <path class="cls-6" d="M37.24,42.05c.19-.17.38-.33.59-.48.21-.14.43-.28.69-.37-.12.25-.27.46-.43.66-.16.2-.34.38-.52.55-.19.17-.38.33-.59.48-.21.14-.43.28-.69.37.12-.25.27-.46.43-.66.16-.2.34-.38.52-.55Z"/>
      </g>
    </g>
  </g>
  <g>
    <g>
      <path class="cls-9" d="M50.09,58.34c10.38,4.05,16.64,2.37,16.64,2.37,2.22-1.25,1.51.44,1.51.44-3.21,1.59-4.28,4.88-4.28,4.88-.53,1.47-2.68,1.35-2.68,1.35-8.21-.32-15.41-3.43-15.41-3.43,1.98-4.5,4.22-5.61,4.22-5.61Z"/>
      <path class="cls-19" d="M45.42,63.75l-.2.46.46.2c.07.03,7.38,3.15,15.59,3.47.01,0,.06,0,.13,0,.53,0,2.47-.11,3.04-1.68.01-.04,1.06-3.13,4.03-4.61l.16-.08.07-.17c.06-.15.36-.94-.13-1.37-.51-.45-1.33-.1-2.02.28-.63.15-6.71,1.38-16.28-2.36l-.2-.08-.2.1c-.1.05-2.42,1.25-4.45,5.86ZM46.54,63.69c1.5-3.19,3.09-4.45,3.6-4.8,10.27,3.95,16.46,2.36,16.72,2.29l.06-.02.05-.03c.46-.26.73-.35.87-.38,0,.01,0,.03,0,.04-3.21,1.7-4.3,4.94-4.34,5.08-.39,1.08-2.17,1.01-2.19,1.01-6.85-.27-13.06-2.52-14.77-3.2Z"/>
    </g>
    <path class="cls-7" d="M49.95,59.32c6.88,2.41,12.58,2.69,12.58,2.69-3.6,7.22-15.11,1.36-15.11,1.36.95-2.6,2.54-4.05,2.54-4.05Z"/>
  </g>
  <g>
    <g>
      <g>
        <path class="cls-18" d="M65.1,58.09c13.07,11.84,12.3,29.95,12.3,29.95-3.03,1.34-6.55,1.51-6.55,1.51-14.08,2.34-28.73-3.97-28.73-3.97l.74-1.64c-4.99-.53-9.01-4.28-9.01-4.28,9.33-10.86,14.36-22.34,14.36-22.34l16.9.77Z"/>
        <path class="cls-13" d="M33.46,79.33l-.31.36.35.32c.16.15,3.85,3.55,8.63,4.32l-.67,1.49.46.2c.12.05,10.66,4.53,22.4,4.53,2.17,0,4.39-.15,6.58-.52.38-.02,3.73-.24,6.7-1.55l.28-.12v-.31c.02-.19.19-4.66-1.25-10.67-1.33-5.55-4.35-13.46-11.2-19.67l-.13-.12-17.42-.8-.14.31c-.05.11-5.11,11.54-14.28,22.21ZM34.53,79.6c8.23-9.69,13.1-19.88,13.97-21.77l16.39.75c11.68,10.71,12.03,26.71,12.01,29.13-2.84,1.17-6.05,1.34-6.09,1.34h-.06c-12.38,2.06-25.39-2.71-27.99-3.74l.81-1.79-.68-.07c-3.94-.42-7.29-2.95-8.37-3.84Z"/>
      </g>
      <path class="cls-17" d="M69.36,63.12s6.34,16.11,5.16,23.37c0,0-7.98,1.05-15.26.38,0,0-4.2-28.18,10.1-23.76Z"/>
      <g class="cls-21">
        <path class="cls-3" d="M38.03,79.45c3.34,3.08,3.91,4.05,3.91,4.05-3.62-1.02-6.91-4-6.91-4,5.8-6.76,10.03-14.67,10.03-14.67-1.79,6.88-7.03,14.62-7.03,14.62Z"/>
      </g>
    </g>
    <g>
      <g>
        <path class="cls-10" d="M72.36,77.93s-.03.05-.05.08c.02-.04.05-.08.05-.08Z"/>
        <path class="cls-10" d="M72.31,78.01c-.04.06-.06.1,0,0h0Z"/>
        <path class="cls-10" d="M50.82,58.59c5.06,5.5,15.91,2.12,15.91,2.12,5.34,4.42,5.62,10.37,5.62,10.37,0,0,.22,6.5,0,6.86,0,0-7.03,3.29-18.99,1.36-12.15-1.95-10.48-3.99-10.48-3.99,2.77-15.64,7.94-16.72,7.94-16.72Z"/>
      </g>
      <path class="cls-14" d="M42.41,75.13c-.1.2-.15.5-.02.84.55,1.45,4.22,2.74,10.9,3.81,2.76.44,5.26.61,7.47.61,7.38,0,11.59-1.91,11.82-2.02l-.06-.14.18.11.1-.16s0,0,0,0l.87-1.41-.72.34c.04-.92.04-2.67-.08-6.06-.01-.26-.35-6.23-5.8-10.73l-.21-.17-.26.08c-.11.03-10.62,3.22-15.4-1.98l-.19-.21-.28.06c-.22.05-5.51,1.33-8.31,17.03ZM43.3,75.58l.05-.06.02-.13c2.34-13.2,6.31-15.78,7.32-16.24,4.89,4.94,14.21,2.58,15.94,2.09,4.92,4.21,5.24,9.78,5.24,9.84.09,2.69.13,5.67.06,6.49-1.28.52-7.99,2.91-18.48,1.23-8.03-1.29-9.71-2.57-10.07-3.07-.06-.09-.07-.14-.08-.16Z"/>
    </g>
    <g>
      <path class="cls-16" d="M69.84,74.61c-.08.12-.04.05,0,0h0Z"/>
      <path class="cls-16" d="M51.41,60.08c4.36,4.1,13.35,1.91,13.35,1.91,4.57,3.32,4.95,7.63,4.95,7.63,0,0,.34,4.71.16,4.96,0,0-5.8,2.21-15.85.54-10.2-1.7-8.86-3.13-8.86-3.13,1.95-11.24,6.25-11.9,6.25-11.9Z"/>
    </g>
    <g>
      <path class="cls-10" d="M71.61,81.37l.2,5.88c-4.82,1.9-13.33,1-13.33,1-12.19-.86-17.73-6-17.73-6l1.62-5.98c6.77,6.43,29.24,5.1,29.24,5.1Z"/>
      <path class="cls-14" d="M42.12,75.34l-1.91,7.07.22.2c.23.21,5.81,5.27,18.03,6.13.16.02,2.14.22,4.69.22,2.8,0,6.3-.25,8.85-1.25l.32-.13-.23-6.74-.51.03c-.22.01-22.33,1.25-28.86-4.96l-.6-.57ZM41.32,82.08l1.33-4.91c6.9,5.47,25.12,4.89,28.49,4.73l.17,5.02c-4.7,1.68-12.69.85-12.77.85-10.57-.75-16.08-4.76-17.22-5.68Z"/>
    </g>
    <path class="cls-16" d="M44.6,77.77l-1.29,5.11-1.56-1,1.35-5.24s1.41.9,1.5,1.13Z"/>
    <g>
      <g>
        <path class="cls-10" d="M53.79,80.61s-.58,4.34-1.36,8.23c0,0-4.64-.25-8.64-2.64l1.53-7.84s6.73,1.86,8.47,2.25Z"/>
        <path class="cls-14" d="M44.94,77.74l-1.7,8.71.3.18c4.06,2.42,8.67,2.7,8.87,2.71l.43.02.08-.42c.77-3.86,1.36-8.22,1.37-8.26l.06-.45-.44-.1c-1.7-.38-8.37-2.23-8.44-2.24l-.51-.14ZM44.34,85.95l1.36-6.97c1.48.41,5.7,1.57,7.53,2.01-.16,1.15-.63,4.33-1.21,7.32-1.18-.12-4.61-.62-7.69-2.36Z"/>
      </g>
      <path class="cls-16" d="M47.93,80.31l4.11,1.95s-1.85,5.87-7.36,3.61l1.03-6.24,2.21.67Z"/>
    </g>
    <g>
      <g>
        <g>
          <path class="cls-9" d="M43.07,72.39c20.38,8.16,29.05,3.02,29.05,3.02.6-.35.83-.11.86.51.03.74-.35,4.09-.35,4.09-.05.55-.73,1.16-.73,1.16-16.48,4.54-30.02-3.6-30.02-3.6-1.06-.23.27-5.29.27-5.29.88-1.21.93.11.93.11Z"/>
          <path class="cls-13" d="M41.66,72.15c-.27,1.02-1.09,4.44-.45,5.49.14.23.32.33.46.38.77.44,8.98,5,20.04,5,3.23,0,6.7-.39,10.31-1.38l.11-.03.09-.08c.14-.12.83-.78.9-1.49.04-.34.38-3.4.35-4.16,0-.2-.03-.79-.5-1.05-.45-.25-.94.04-1.1.13-.09.05-8.68,4.85-28.35-2.94-.06-.28-.21-.63-.57-.74-.58-.18-1.04.45-1.21.69l-.05.08-.02.09ZM42.58,72.54v.18s.31.12.31.12c20.37,8.15,29.12,3.2,29.48,2.99.04-.02.07-.04.1-.05,0,.04.01.09.01.15.03.58-.24,3.09-.34,4.01-.02.23-.3.58-.49.78-3.47.94-6.82,1.31-9.94,1.31-11.26,0-19.48-4.83-19.58-4.89l-.09-.05c-.23-.43.02-2.49.54-4.55Z"/>
        </g>
        <path class="cls-7" d="M43.13,73.13c18.71,6.94,28.04,3.36,28.04,3.36.16-.06.24.14.35.14-.47,1.61-1.3,4.08-4.62,5.17-17.27,1.1-24.77-4.67-24.77-4.67-1.02-.22.11-4.13.11-4.13.8-.85.9.13.9.13Z"/>
        <g>
          <path class="cls-16" d="M41.85,77s.02.06.03.08c0,0-.03-.02-.03-.08Z"/>
          <path class="cls-16" d="M42.01,73.56c.17-1.53,1.35-.39,1.35-.39,15.65,6.1,26.55,3.67,26.55,3.67,2.05-.39-.94.98-.94.98-10.07,3.24-25.79-3.11-25.79-3.11-1.21,1.6-1.35,2.12-1.33,2.29-.52-.96.16-3.44.16-3.44Z"/>
        </g>
      </g>
      <g>
        <g>
          <path class="cls-9" d="M50.2,73.7c2.3.41,3.84,2.61,3.43,4.91s-2.61,3.84-4.91,3.43c-2.3-.41-3.84-2.61-3.43-4.91.41-2.3,2.61-3.84,4.91-3.43Z"/>
          <path class="cls-13" d="M44.8,77.05c-.22,1.24.06,2.5.78,3.53s1.81,1.73,3.05,1.95c.28.05.55.07.83.07,2.25,0,4.25-1.61,4.65-3.9.46-2.57-1.26-5.03-3.83-5.48-1.24-.22-2.5.06-3.53.78-1.04.72-1.73,1.81-1.95,3.05ZM45.78,77.22c.17-.98.72-1.84,1.54-2.41.64-.44,1.37-.68,2.13-.68.22,0,.44.02.66.06,2.03.36,3.39,2.3,3.03,4.33-.36,2.03-2.3,3.39-4.34,3.03-.98-.17-1.84-.72-2.41-1.54s-.79-1.81-.62-2.8Z"/>
        </g>
        <path class="cls-7" d="M49.76,74.36c1.83.32,3.02,2.17,2.68,4.12-.35,1.95-2.11,3.27-3.93,2.95-1.82-.32-3.02-2.17-2.68-4.12s2.11-3.27,3.93-2.95Z"/>
        <g>
          <g>
            <path class="cls-9" d="M49.61,75.16c1.38.46,2.14,2.02,1.7,3.48-.44,1.46-1.92,2.26-3.3,1.8-1.38-.46-2.14-2.02-1.7-3.48.44-1.46,1.92-2.26,3.3-1.8Z"/>
            <path class="cls-13" d="M45.96,76.85c-.5,1.64.37,3.41,1.93,3.94.3.1.61.15.92.15.45,0,.9-.11,1.32-.32.74-.38,1.29-1.05,1.54-1.87.5-1.64-.37-3.41-1.93-3.94-.74-.25-1.54-.19-2.23.17-.74.38-1.29,1.05-1.53,1.87ZM46.67,77.07h0c.19-.63.6-1.14,1.16-1.42.31-.16.64-.24.98-.24.23,0,.46.04.68.11,1.19.4,1.84,1.75,1.46,3.02-.19.63-.6,1.14-1.16,1.42-.52.27-1.11.31-1.66.13-1.19-.4-1.84-1.75-1.46-3.02Z"/>
          </g>
          <path class="cls-7" d="M48.98,75.29c1.04.22,1.67,1.44,1.41,2.72-.26,1.28-1.32,2.14-2.36,1.92-1.04-.22-1.67-1.44-1.41-2.72.26-1.28,1.32-2.14,2.36-1.91Z"/>
          <path class="cls-16" d="M48.2,75.7c.7.13,1.14,1.01.96,1.98-.17.97-.88,1.66-1.59,1.53-.7-.13-1.14-1.01-.96-1.98.17-.97.88-1.66,1.59-1.53Z"/>
        </g>
      </g>
    </g>
    <g>
      <path class="cls-18" d="M48.92,67.17c.83.49,1.75.81,2.65,1.01.17-1.32-.24-2.24-.24-2.24,1.93-.42,3.46.52,3.46.52-.85.53-1.39,1.22-1.73,1.95,1.83.19,3.28-.02,3.28-.02,1.64,1.5,0,2.04,0,2.04-1.24-.63-2.45-1.03-3.56-1.29-.58,2,.04,4.08.04,4.08-2.81.91-4-.76-4-.76,1.58-1.22,2.31-2.48,2.61-3.57-2.1-.29-3.53-.07-3.53-.07-.9-1.02,1.03-1.66,1.03-1.66Z"/>
      <path class="cls-13" d="M47.32,68.04c-.07.24-.07.62.3,1.03l.13.15.2-.03s1.21-.18,2.99.01c-.4,1.08-1.19,2.07-2.34,2.96l-.28.22.21.29c.04.06.87,1.19,2.7,1.19.5,0,1.07-.08,1.71-.29l.34-.11-.1-.35s-.51-1.76-.12-3.52c1.09.28,2.13.67,3.12,1.17l.14.07.15-.05c.08-.03.81-.29.96-.97.11-.52-.17-1.09-.83-1.7l-.13-.12-.17.02s-1.14.16-2.63.06c.34-.53.78-.97,1.33-1.31l.51-.32-.51-.31c-.07-.04-1.68-1.01-3.73-.56l-.45.1.19.42s.28.66.25,1.62c-.8-.21-1.51-.5-2.13-.86l-.15-.09-.16.05c-.13.04-1.28.44-1.49,1.22ZM52.73,68.76l.29.03c1.5.15,2.74.05,3.19,0,.36.35.53.66.48.88-.04.17-.21.3-.34.36-1.1-.54-2.27-.96-3.48-1.24l-.13-.03ZM51.79,69l.1-.37h0s0-.04,0-.04h0s.05-.36.05-.36c.11-.86-.01-1.56-.12-1.99.94-.11,1.74.1,2.24.29-.57.47-1.02,1.05-1.34,1.73l-.22.47h.02s-.09.31-.09.31c-.46,1.6-.21,3.22-.05,3.92-1.64.43-2.59-.11-3-.47,1.25-1.04,2.06-2.22,2.42-3.5ZM48.04,68.24c.07-.25.5-.51.85-.66.72.41,1.56.72,2.5.94-1.62-.22-2.84-.13-3.32-.08-.06-.11-.04-.17-.03-.2Z"/>
    </g>
    <path class="cls-16" d="M69.06,83.04s-.05,3.74-2.83,4.31c0,0-4.74.91-11.92-.54,0,0-.64-1.82-.22-4.1,0,0,5.79,1.87,14.97.33Z"/>
  </g>
  <g>
    <g>
      <path class="cls-9" d="M54.11,35.62c-.82,4.26-7.97,1.78-7.97,1.78.12-4.28,3.07-7.83,3.07-7.83,6.8-.44,4.9,6.05,4.9,6.05Z"/>
      <path class="cls-19" d="M45.64,37.38v.36s.33.12.33.12c.13.04,2.18.75,4.27.75.99,0,1.98-.16,2.77-.62.85-.49,1.38-1.25,1.58-2.26.09-.31.83-3.18-.69-5.09-.95-1.18-2.54-1.71-4.72-1.57h-.21s-.14.18-.14.18c-.12.15-3.06,3.72-3.19,8.13ZM46.65,37.04c.23-3.4,2.27-6.28,2.81-6.99.13,0,.26,0,.39,0,1.53,0,2.63.41,3.28,1.22,1.26,1.57.52,4.19.51,4.21v.05c-.15.74-.51,1.26-1.11,1.61-1.73,1-4.83.21-5.87-.1Z"/>
    </g>
    <g>
      <path class="cls-12" d="M47.66,41.08s-2.43-4.57,1.2-6.54c0,0,1.27-1.54,1.09-3.51l.49-1.41s4.62.68,7.13,1.28c0,0,15.34,4.39,19.15,10.53,0,0-3.63,2.08-4.87,1.66,0,0,.7,3.43-1.73,4.75,0,0-3.39,2.65-6.15,1.77,0,0-.23-.52-1.03-1.68l-15.61-5.32s-1.52-1.08.34-1.53Z"/>
      <path class="cls-13" d="M46.26,41.6c-.14.73.62,1.31.78,1.42l.06.04,15.52,5.29c.68.99.89,1.45.89,1.46l.09.2.21.07c.44.14.9.2,1.36.2,2.47,0,4.89-1.78,5.22-2.03,2.03-1.13,2.12-3.49,2.03-4.62,1.56-.11,4-1.46,4.55-1.77l.44-.25-.27-.44c-3.86-6.23-18.8-10.56-19.43-10.75-2.52-.6-7-1.26-7.19-1.29l-.41-.06-.66,1.9v.11c.15,1.52-.7,2.78-.92,3.08-2.82,1.6-2.35,4.78-1.56,6.63-.41.19-.65.46-.72.8ZM47.23,41.79s.16-.14.54-.23l.62-.15-.3-.56c-.09-.17-2.15-4.16,1-5.87l.08-.05.06-.07c.06-.07,1.36-1.66,1.21-3.76l.32-.93c1.18.18,4.66.72,6.68,1.21.13.04,14.45,4.19,18.55,9.88-1.42.76-3.36,1.58-4,1.36l-.81-.28.17.84s.59,3.09-1.48,4.21l-.07.04s-3.06,2.35-5.5,1.75c-.14-.26-.43-.77-.98-1.54l-.09-.13-15.69-5.35c-.15-.12-.3-.29-.32-.38Z"/>
    </g>
    <path class="cls-16" d="M64.26,37.76c.5.9.04,1.41.04,1.41l-.24-.03c-1.38-.44.19-1.38.19-1.38Z"/>
    <path class="cls-16" d="M52.47,34.3c.55.72-.43,1.36-.43,1.36-1.08-1.11.43-1.36.43-1.36Z"/>
    <path class="cls-2" d="M50.13,35.41c1.77-1.08.79-4.71.79-4.71,7.76-.8,18.21,6.3,18.21,6.3-1.99,2-1.73,4.44-1.73,4.44,1.09,4.11-.83,4.12-.83,4.12-1.07.42-2.27-.1-2.27-.1l-.92-.62c-5.35-4.26-12.56-5.71-12.56-5.71-.67-.09-2.91.16-2.91.16-.21-.97-.1-1.47-.1-1.47.73-1.33,2.32-2.41,2.32-2.41Z"/>
    <path class="cls-16" d="M60.82,38.41c1.12-2.75,3.06-2.18,4.04-1.6,1.73,1.03,1.25,4.01,1.25,4.01-.24.41-.71.44-1.02.38-.26-.05-1.12-.23-1.12-.23-3.82-.82-3.2-2.38-3.2-2.38l.06-.18Z"/>
    <g>
      <g>
        <path class="cls-4" d="M59.2,32.71c.85.62,1.34.64,1.69.46,3.76-1.86,4.41-1.93,5.69-1.02,2.52,1.77,3.26,5,3.26,5-.87,2.06-2.67-.63-2.67-.63-1.56-2.96-5.38-1.34-5.38-1.34-1.04.72-2.67-.63-2.67-.63-1.39-1.86-.29-2.11.07-1.84Z"/>
        <path class="cls-13" d="M58.22,32.4c-.34.35-.53,1.05.51,2.45l.04.05.05.04c.08.06,1.89,1.53,3.21.68.4-.16,3.45-1.27,4.71,1.13l.03.04c.19.28,1.14,1.62,2.2,1.62.04,0,.08,0,.12,0,.36-.03.87-.25,1.22-1.07l.06-.15-.04-.16c-.03-.14-.81-3.43-3.46-5.29-1.58-1.11-2.59-.81-6.2.98-.24.12-.63-.02-1.18-.42h0c-.33-.24-.91-.28-1.28.09ZM58.94,33.14c.56.4,1.38.88,2.17.49,3.78-1.88,4.17-1.78,5.19-1.06,2.03,1.43,2.84,3.9,3.02,4.54-.08.15-.2.32-.33.33-.37.03-1.03-.65-1.39-1.16-1.41-2.63-4.54-2.16-6-1.54l-.09.05c-.57.39-1.64-.26-2.03-.56-.46-.62-.54-.95-.55-1.08Z"/>
      </g>
      <path class="cls-5" d="M59.31,33.1c.61.38,1.77.42,2,.28,2.46-1.46,3.18-1.87,4.09-1.32,1.8,1.08,2.46,3.23,2.46,3.23.05,1.61-1.1-.11-1.1-.11-1.77-1.82-4.46-.81-4.46-.81-1.11.99-1.97.22-1.97.22-1.39-.66-1.29-1.66-1.03-1.49Z"/>
      <path class="cls-1" d="M60.42,33.52c-.56.26-.05.53-.05.53.67.33,1.26.35,1.26.35.55.49-.67.56-.67.56-1.94-.33-1.96-1.66-1.96-1.66.47-.62,1.41.22,1.41.22Z"/>
    </g>
    <path class="cls-13" d="M61.87,36.31c.05-.04.11-.07.17-.11.08-.05.13-.06.19-.08.11-.04.23-.09.34-.13l.37-.08c.5-.08,1.03-.02,1.5.16.47.18.87.47,1.22.8.17.18.32.34.47.57.13.22.24.46.29.7.12.48.12.95.06,1.39-.07.45-.18.88-.38,1.28-.02-.44-.04-.87-.1-1.28-.06-.41-.15-.8-.31-1.14-.07-.17-.17-.32-.27-.45-.1-.12-.25-.26-.39-.38-.29-.24-.61-.45-.94-.57-.33-.13-.68-.18-1.03-.16l-.27.03c-.09.02-.18.05-.27.07-.04.01-.1.02-.11.03-.03.01-.07.03-.11.05-.08.04-.15.08-.23.13-.31.21-.59.49-.83.81-.25.32-.45.7-.66,1.08,0-.87.29-1.8,1-2.5.09-.09.18-.17.29-.24Z"/>
    <path class="cls-16" d="M48.72,35.23c2.47-2.05,1.61-4.65,1.61-4.65l.65.16c1.26,2.44-.63,4.38-.63,4.38-1.98,1.6-1.82,4.77-1.82,4.77l-1.06-.23c-.58-3.8,1.25-4.43,1.25-4.43Z"/>
    <path class="cls-16" d="M50.58,33.45c2.52-1.44,3.85,1.15,3.53,2.17-.56,1.76-1.91,1.38-1.91,1.38-.8-.11-2.17-.74-2.17-.74-1.3-1.61.55-2.81.55-2.81Z"/>
    <path class="cls-13" d="M50.87,32.56c.11-.05.22-.1.33-.14.11-.04.24-.07.36-.1.49-.11,1.02-.06,1.48.12.47.18.86.48,1.18.82.16.18.3.34.43.59.12.22.2.46.24.69.09.46.07.92,0,1.35-.08.43-.2.84-.39,1.23-.02-.43-.03-.84-.09-1.24-.05-.4-.12-.79-.26-1.12-.03-.08-.07-.17-.11-.24-.04-.08-.08-.15-.13-.21-.08-.12-.22-.26-.35-.38-.27-.24-.56-.44-.87-.56-.31-.12-.63-.16-.96-.12-.08.02-.17.02-.25.04-.08.03-.17.05-.25.08-.06,0-.12.05-.2.09-.07.04-.15.09-.22.15-.58.44-1.02,1.13-1.43,1.88,0-.85.26-1.74.9-2.45.17-.17.33-.34.6-.47Z"/>
    <g>
      <g>
        <path class="cls-12" d="M55.51,31.96s.13.42.15,1l-.15-1Z"/>
        <path class="cls-12" d="M54.42,35.71c1.09-.75,1.27-1.91,1.24-2.74l1.1,7.33c2.36.4,2.87,2.78,2.87,2.78.2,2.42-2.26,1.76-2.26,1.76-1.42-1.12-2.49-.78-2.49-.78-2.21.59-3.91-.6-3.91-.6-1.8-1.62.4-4.58.4-4.58,1.04-1.67,3.05-3.16,3.05-3.16Z"/>
        <g>
          <path class="cls-13" d="M50.22,39.71c.2-.4.42-.76.7-1.14.43-.64.94-1.18,1.47-1.69.54-.51,1.11-.96,1.71-1.38l.12-.08.1-.07c.07-.04.13-.09.19-.14.12-.1.24-.21.34-.33.21-.24.37-.53.48-.85.22-.64.26-1.36.16-2.07.26.67.36,1.42.23,2.17-.07.37-.21.75-.42,1.08-.11.17-.23.32-.37.47-.07.07-.14.14-.22.2l-.11.09-.09.08c-.53.46-1.02.96-1.49,1.47-.47.51-.89,1.06-1.22,1.62l-.02.04c-.2.3-.39.66-.54,1.01-.16.35-.27.71-.34,1.06-.07.35-.07.69,0,.98.04.15.09.28.17.41.07.11.16.22.27.32-.01,0-.03-.02-.03-.02l.06.05s-.02-.02-.02-.03c.07.04.17.1.26.14.11.06.22.11.34.16.23.09.47.17.71.23.48.11.98.15,1.47.1.12-.01.25-.03.37-.05.06,0,.11-.02.17-.03h.04s.09-.03.09-.03c.05-.01.1-.02.15-.02.38-.04.72,0,1.05.08.62.16,1.15.47,1.6.84-.04,0-.07-.02-.1-.03l.18.09s-.05-.04-.08-.06c.08.02.17.03.24.05.12.02.25.02.36.02.24,0,.45-.05.62-.15.16-.1.29-.24.36-.46.08-.21.11-.46.1-.72,0,0,0,.02,0,.03v-.04s0,0,0,.01c-.05-.28-.16-.6-.29-.89-.14-.3-.31-.59-.53-.84-.21-.26-.46-.49-.75-.67-.29-.19-.61-.32-.95-.43.35.02.71.1,1.05.23.34.14.66.34.94.58.28.25.52.54.73.85.21.32.37.64.49,1.04h0s0,.04,0,.04c.04.32.05.66-.04,1.01-.08.35-.29.72-.62.95-.32.23-.7.33-1.04.37-.17.02-.35.02-.51,0-.17-.01-.32-.03-.52-.07l-.07-.02-.11-.07c-.42-.29-.86-.53-1.31-.61-.22-.04-.45-.06-.63-.02-.02,0-.04,0-.06.01h-.01s-.06.02-.06.02c-.08.02-.16.05-.24.06-.15.04-.31.07-.47.09-.63.08-1.27.05-1.89-.08-.31-.07-.61-.16-.9-.28-.15-.06-.29-.12-.43-.2-.15-.08-.27-.14-.44-.26l-.03-.02-.03-.03c-.19-.18-.37-.39-.51-.62-.14-.24-.24-.49-.31-.75-.12-.52-.09-1.04.01-1.51.1-.47.27-.9.47-1.31Z"/>
          <path class="cls-13" d="M50.93,38.55s0,.02-.02.03c0,0,0,0,0,.01l.02-.04Z"/>
        </g>
        <path class="cls-13" d="M57.67,44.44l-.18-.09s.06.02.1.03c.03.02.05.04.08.06Z"/>
        <path class="cls-13" d="M51.38,42.99l-.06-.05s.02.01.03.02c0,0,.02.02.02.03Z"/>
        <path class="cls-13" d="M59.28,43.11s0,0,0-.01v.04s0-.02,0-.03Z"/>
      </g>
      <path class="cls-2" d="M56.17,34.25c.73,2.49.7,5.91.7,5.91l.97.85c1.47.54,1.43,2.21,1.43,2.21-.44,1.11-1.24.02-1.24.02-.83-1.39-2.89-1.19-2.89-1.19-1.68-.06-2.02.12-2.02.12-.81-2.31.9-4.04.9-4.04,2.32-2.25,2.16-3.87,2.16-3.87Z"/>
      <g>
        <path class="cls-1" d="M55.93,33.33s0-.05-.01-.07c0,0,0,.03.01.07Z"/>
        <path class="cls-1" d="M54.06,36.4c1.93-1.75,1.91-2.81,1.87-3.07.64,2.08-1.15,3.97-1.15,3.97-2.9,2.78-1.59,4.63-1.59,4.63-1.26.34-2.14-.23-2.14-.23.02-3.44,3.01-5.31,3.01-5.31Z"/>
      </g>
    </g>
    <g>
      <path class="cls-13" d="M63.68,37.56c.67.42.86,1.34.42,2.05-.44.71-1.34.95-2.01.53-.67-.42-.86-1.34-.42-2.05.44-.71,1.34-.95,2.01-.53Z"/>
      <path class="cls-16" d="M63.94,39.06c.24.15.31.49.15.76-.16.27-.5.36-.74.21-.24-.15-.31-.49-.15-.76.16-.27.5-.36.74-.21Z"/>
    </g>
    <g>
      <path class="cls-13" d="M52.04,33.83c.61.38.78,1.22.38,1.86-.4.65-1.22.86-1.82.48-.61-.38-.78-1.22-.38-1.86.4-.65,1.22-.86,1.82-.48Z"/>
      <path class="cls-16" d="M52.27,35.2c.22.14.28.45.13.69-.15.24-.45.33-.67.19-.22-.14-.28-.45-.13-.69.15-.24.45-.33.67-.19Z"/>
    </g>
    <g>
      <g>
        <path class="cls-4" d="M52.84,28.67s.61,1.09,1.1,1.84c0,0,.38.7.98.84.26.06.64-.32,1.07.11,0,0,.19,1.93-1.99,1.38,0,0-1.11-.43-1.36-1.03,0,0-.41-1.03-1.94-1.29,0,0-2.22.04-1.32-1.39,0,0,1.44-2.63,3.46-.47Z"/>
        <path class="cls-13" d="M48.96,28.89c-.4.64-.3,1.1-.15,1.38.4.71,1.52.76,1.85.76,1.18.22,1.51.95,1.53.99.31.76,1.42,1.22,1.64,1.3l.06.02c.3.07.58.11.83.11.48,0,.87-.13,1.18-.4.67-.58.6-1.52.59-1.63l-.02-.18-.13-.12c-.49-.49-1.01-.34-1.26-.28-.03,0-.06.02-.08.02-.3-.09-.57-.48-.62-.59l-.02-.03c-.48-.73-1.08-1.8-1.09-1.81l-.03-.05-.04-.04c-.71-.76-1.45-1.09-2.2-1-1.21.15-1.95,1.39-2.04,1.55ZM54.98,30.87h0,0ZM49.67,29.77s-.02-.14.13-.37l.02-.03c.15-.27.67-.98,1.31-1.06.41-.05.85.17,1.31.65.13.23.64,1.13,1.08,1.81.09.15.54.89,1.29,1.07.21.05.39,0,.54-.04.06-.02.11-.03.14-.03-.02.17-.08.4-.24.54-.26.22-.73.17-1.09.08-.37-.15-.94-.48-1.06-.75-.02-.05-.53-1.28-2.32-1.59h-.05s-.05,0-.05,0c-.44.02-.95-.12-1.03-.26Z"/>
      </g>
      <path class="cls-5" d="M52.13,28.67s.4.13.75.96c0,0,.48.83.95,1.68,0,0,.58.55-.71.36,0,0-1.11-.65-1.26-1.06,0,0-.28-.4-1.19-.45,0,0-1.02,0-.51-1.11,0,0,1.01-1.26,1.96-.38Z"/>
      <path class="cls-1" d="M51.11,28.24c.29-.26,1.34.71,1.34.71-1.81-.88-1.77,1.05-1.77,1.05-.75.44-1.02-.36-1.02-.36.52-1.72,1.45-1.4,1.45-1.4Z"/>
    </g>
    <g>
      <path class="cls-9" d="M56.28,19.4c15.91-2.2,27.29,9.99,27.29,9.99-.82,10.08-2.86,15.7-2.86,15.7-16.44-12.95-32.13-15.19-32.13-15.19,5.02-9.28,7.7-10.5,7.7-10.5Z"/>
      <path class="cls-19" d="M48.15,29.66l-.34.62.7.1c.16.02,15.76,2.38,31.89,15.09l.54.42.23-.64c.08-.23,2.07-5.8,2.89-15.83l.02-.22-.15-.16c-.12-.13-2.95-3.13-7.79-5.91-4.48-2.57-11.57-5.39-19.92-4.23h-.07s-.07.04-.07.04c-.12.05-2.88,1.4-7.93,10.71ZM49.35,29.53c4.24-7.69,6.7-9.42,7.09-9.65,14.46-1.95,25.23,8.31,26.62,9.7-.66,7.84-2.06,12.96-2.6,14.69-14.21-11-27.92-14.13-31.11-14.74Z"/>
    </g>
    <path class="cls-7" d="M55.78,22.02c8.24-1.84,11.44,3.39,11.44,3.39,4.61,5.54,1.48,11.01,1.48,11.01-8.21-5.18-18.61-7.51-18.61-7.51,4.92-6.36,5.69-6.9,5.69-6.9Z"/>
    <path class="cls-16" d="M67.11,22.92c-5.29-1.14-10.08.27-10.08.27-3.49,3.85-3.95,5.08-3.95,5.08,11.13,3.36,14.8,7.64,14.8,7.64-13.94-6.18-18.42-6.67-18.42-6.67,3.37-5.55,5.13-7.59,5.13-7.59,4.99-1.24,12.52,1.27,12.52,1.27Z"/>
    <path class="cls-7" d="M81.5,32.15s.55,2.12-2.58,1.4c0,0,1.14,1.09-.23,8.53,0,0-1.98-1.62-3.1-2.15,0,0-1.38-8.53,1.56-12.28,0,0,2.97,1.2,4.35,4.49Z"/>
    <path class="cls-16" d="M79.33,29.66c-.41,3.9-2.26,8.87-2.26,8.87-.87-8.58,1.16-10.57,1.16-10.57l1.1,1.7Z"/>
    <g>
      <path class="cls-19" d="M77.77,37.92c.22-1.24.44-2.48.63-3.72.19-1.24.37-2.49.51-3.74.07-.62.14-1.25.19-1.87.05-.62.1-1.26.11-1.85l.99.04c-.06.66-.15,1.28-.24,1.91-.1.63-.2,1.25-.32,1.88-.23,1.25-.48,2.49-.76,3.72-.27,1.23-.57,2.46-.88,3.69l-.47,1.83-.49,1.83.37-1.85.35-1.86Z"/>
      <path class="cls-19" d="M57.96,28.27c.27-.82.56-1.64.88-2.45.32-.81.67-1.6,1.07-2.39.2-.39.41-.78.63-1.16.23-.39.45-.75.74-1.14l.75.65c-.25.27-.52.62-.76.96-.25.34-.48.69-.71,1.05-.45.72-.87,1.47-1.27,2.23-.4.76-.75,1.54-1.1,2.33-.17.39-.33.79-.5,1.19l-.47,1.21.35-1.25c.13-.41.25-.83.38-1.24Z"/>
    </g>
    <g>
      <g>
        <path class="cls-9" d="M77.54,29.93c.28.07.42.53.3,1.03-.12.51-.44.86-.72.8-.28-.07-.42-.53-.3-1.03.12-.51.44-.86.72-.8Z"/>
        <path class="cls-19" d="M77,29.57c-.31.19-.56.59-.67,1.05-.08.32-.07.66,0,.93.11.37.35.62.66.7h0c.06.01.12.02.18.02.26,0,.51-.12.72-.36.19-.21.34-.51.41-.83.08-.33.07-.66,0-.93-.11-.37-.35-.62-.66-.7-.21-.05-.44,0-.65.12ZM77.27,31.09c0-.07,0-.16.03-.25s.05-.18.08-.24c0,.07,0,.16-.03.25s-.05.18-.08.24Z"/>
      </g>
      <path class="cls-7" d="M77.4,30.51c.17.04.24.31.18.61-.07.3-.26.51-.42.47-.17-.04-.24-.31-.18-.61.07-.3.26-.51.42-.47Z"/>
      <path class="cls-16" d="M77.27,30.83c.11.03.17.21.12.42-.05.2-.18.35-.29.32-.11-.03-.17-.21-.12-.42.05-.2.18-.35.29-.32Z"/>
    </g>
    <g>
      <g>
        <path class="cls-9" d="M76.29,34.73c.28.06.42.53.3,1.03-.12.51-.44.86-.72.8-.28-.06-.42-.53-.3-1.03.12-.51.44-.86.72-.8Z"/>
        <path class="cls-19" d="M75.09,35.41c-.11.46-.05.92.14,1.23.13.2.32.34.53.39h0c.06.01.12.02.18.02.26,0,.51-.12.72-.36.19-.21.34-.51.41-.83.11-.46.05-.92-.14-1.23-.13-.2-.32-.34-.53-.39-.57-.13-1.13.37-1.31,1.17ZM76.03,35.89c0-.07,0-.16.03-.25.02-.1.05-.18.08-.24,0,.07,0,.16-.03.25-.02.1-.05.18-.08.24ZM75.98,36.07h0,0Z"/>
      </g>
      <path class="cls-7" d="M76.15,35.31c.17.04.24.31.18.61-.07.3-.26.51-.42.47-.17-.04-.24-.31-.18-.61.07-.3.26-.51.42-.47Z"/>
      <path class="cls-16" d="M76.03,35.63c.11.03.17.21.12.42-.05.2-.18.35-.29.32-.11-.03-.17-.21-.12-.42s.18-.35.29-.32Z"/>
    </g>
    <g>
      <g>
        <path class="cls-9" d="M55.32,18.98c.39-.33.75-.55.75-.55,5.6-1.14,10.25.6,10.25.6,11.86,2.92,17.65,10.65,17.65,10.65-.03,2.95-.72,3.02-.72,3.02-4.98-6.02-13.28-9.27-13.28-9.27-6.6-3-15.33-2.47-15.33-2.47-.39-.27-.26-.49-.2-.78.09-.43.5-.87.89-1.2Z"/>
        <path class="cls-19" d="M53.93,20.17c-.06.25-.19.76.42,1.19l.14.1h.17c.09-.02,8.69-.49,15.1,2.41h.02c.08.04,8.25,3.29,13.08,9.14l.17.2.26-.03c.52-.05,1.14-.7,1.17-3.51v-.17s-.1-.13-.1-.13c-.24-.32-6.03-7.9-17.9-10.83-.44-.16-4.99-1.74-10.49-.61l-.09.02-.07.05s-.4.25-.81.6c-.6.51-.95,1.01-1.05,1.47,0,.03-.02.07-.02.1ZM54.88,20.45s0-.02,0-.03c.01-.04.02-.09.03-.14.05-.24.32-.58.72-.93.25-.22.5-.39.62-.46,5.35-1.07,9.84.58,9.89.6l.06.02c10.7,2.63,16.45,9.33,17.27,10.34-.02,1.11-.14,1.72-.25,2.05-4.97-5.68-12.58-8.74-13.06-8.93-6.06-2.74-13.72-2.58-15.28-2.52Z"/>
      </g>
      <path class="cls-7" d="M58.71,18.68c8.97-.05,15.77,4.14,15.77,4.14-11.63-3.88-16.91-2.46-16.91-2.46-1.33-.22,1.14-1.68,1.14-1.68Z"/>
      <path class="cls-16" d="M62.37,19.22c-2.41.75-6.56,1.23-6.56,1.23-1.17.5-.69-.77-.69-.77,2.14-2.49,7.25-.47,7.25-.47Z"/>
      <g>
        <g>
          <path class="cls-9" d="M59.22,18.73c.23.11.25.53.05.92s-.55.62-.78.51c-.23-.11-.25-.53-.05-.92s.55-.62.79-.51Z"/>
          <path class="cls-19" d="M59.44,18.29c.19.1.34.27.41.49.11.32.06.72-.14,1.1-.26.5-.69.81-1.09.81-.12,0-.24-.03-.35-.08-.19-.1-.34-.27-.41-.49-.11-.32-.06-.72.14-1.1.34-.65.96-.97,1.45-.72Z"/>
        </g>
        <path class="cls-7" d="M58.98,19.18c.14.07.15.31.03.54-.12.23-.33.37-.46.3-.14-.07-.15-.31-.03-.54s.33-.37.46-.3Z"/>
        <path class="cls-16" d="M58.81,19.43c.09.05.1.21.02.37-.08.16-.22.25-.32.21-.09-.05-.1-.21-.02-.37.08-.16.22-.25.32-.21Z"/>
      </g>
      <g>
        <g>
          <path class="cls-9" d="M76.54,24.08c.29.09.39.57.24,1.06-.16.49-.52.82-.81.73s-.39-.57-.24-1.06c.16-.49.52-.82.81-.73Z"/>
          <path class="cls-19" d="M75.27,24.66c-.1.32-.12.65-.06.94.08.37.31.64.62.74h0c.08.03.17.04.25.04.49,0,.96-.43,1.18-1.09.25-.78,0-1.5-.56-1.68-.57-.18-1.18.27-1.43,1.05ZM76.16,25.29c0-.08,0-.2.05-.33.04-.13.1-.23.15-.29,0,.08,0,.2-.05.33-.04.13-.1.23-.15.29Z"/>
        </g>
        <path class="cls-7" d="M76.36,24.65c.17.05.23.33.14.62-.09.29-.3.48-.47.43-.17-.05-.23-.33-.14-.62.09-.29.31-.48.47-.43Z"/>
        <path class="cls-16" d="M76.21,24.96c.12.04.16.23.1.43-.06.2-.21.33-.33.3-.12-.04-.16-.23-.1-.43.06-.2.21-.33.33-.3Z"/>
      </g>
      <g>
        <g>
          <path class="cls-9" d="M81.47,27.96c.3.07.45.53.34,1.04-.11.51-.43.86-.73.8-.29-.07-.45-.53-.34-1.04.11-.51.43-.87.73-.8Z"/>
          <path class="cls-19" d="M80.26,28.66c-.17.8.14,1.49.72,1.62h0c.06.01.12.02.18.02.17,0,.34-.05.49-.15.31-.2.55-.58.65-1.05.17-.8-.14-1.5-.72-1.62-.22-.05-.46,0-.67.13-.31.2-.55.59-.65,1.05ZM81.21,29.2c-.01-.08-.01-.2.02-.33.03-.13.07-.23.12-.3.01.08.01.2-.02.33-.03.13-.07.23-.12.3Z"/>
        </g>
        <path class="cls-7" d="M81.34,28.54c.17.04.26.31.2.61-.06.3-.26.51-.43.47-.17-.04-.26-.31-.2-.61.06-.3.26-.51.43-.47Z"/>
        <path class="cls-16" d="M81.22,28.87c.12.03.18.21.14.42-.04.21-.18.35-.3.32-.12-.03-.18-.21-.14-.42.04-.21.18-.35.3-.32Z"/>
      </g>
      <g>
        <g>
          <path class="cls-9" d="M65.88,19.45c.28.11.35.59.15,1.07-.2.48-.59.78-.87.66-.28-.11-.35-.59-.15-1.07.2-.48.59-.77.87-.66Z"/>
          <path class="cls-19" d="M64.55,19.92c-.18.44-.2.89-.06,1.23.1.23.26.4.48.49.1.04.21.06.31.06.46,0,.94-.38,1.2-.99.18-.44.2-.89.06-1.23-.1-.23-.27-.4-.48-.49-.55-.22-1.2.18-1.51.93ZM65.39,20.61c0-.08.02-.19.08-.32.05-.13.12-.22.18-.28,0,.08-.02.19-.08.32-.05.13-.12.22-.18.28Z"/>
        </g>
        <path class="cls-7" d="M65.64,20c.16.07.2.35.09.63-.12.28-.35.46-.51.39-.16-.07-.2-.35-.09-.63.12-.28.34-.46.51-.39Z"/>
        <path class="cls-16" d="M65.46,20.29c.11.05.14.24.06.44-.08.19-.24.31-.35.27-.11-.05-.14-.24-.06-.44.08-.19.24-.31.35-.27Z"/>
      </g>
    </g>
    <g>
      <g>
        <path class="cls-9" d="M55.81,23.17c.26.13.28.61.04,1.07-.24.46-.64.73-.89.6-.26-.13-.27-.61-.04-1.07.24-.46.64-.73.89-.6Z"/>
        <path class="cls-19" d="M54.48,23.55c-.15.3-.23.62-.22.9.01.38.19.69.47.84h0c.12.06.24.09.37.09.44,0,.9-.34,1.19-.9.37-.73.26-1.47-.25-1.74-.29-.15-.64-.11-.96.11-.24.16-.45.41-.6.71ZM55.27,24.23c.02-.07.04-.15.09-.24.05-.09.09-.16.14-.21-.02.07-.04.15-.09.24-.05.09-.09.16-.14.21Z"/>
      </g>
      <path class="cls-7" d="M55.53,23.7c.15.08.16.36.02.63s-.37.43-.52.35c-.15-.08-.16-.36-.02-.63.14-.27.37-.43.52-.35Z"/>
      <path class="cls-16" d="M55.34,23.98c.1.05.11.25.02.44-.1.19-.26.3-.36.24-.1-.05-.11-.25-.02-.44.1-.19.26-.3.36-.24Z"/>
    </g>
    <g>
      <g>
        <path class="cls-9" d="M53.38,26.82c.26.13.28.61.04,1.07-.24.46-.64.73-.89.6-.26-.13-.27-.61-.04-1.07.24-.46.64-.73.89-.6Z"/>
        <path class="cls-19" d="M52.04,27.19c-.37.73-.26,1.48.25,1.74h0c.12.06.24.09.37.09.44,0,.9-.34,1.19-.9.37-.73.26-1.47-.25-1.74-.52-.26-1.19.09-1.56.81ZM52.83,27.88c.02-.07.04-.15.09-.24.05-.09.09-.16.14-.21-.02.07-.04.15-.09.24s-.09.16-.14.21Z"/>
      </g>
      <path class="cls-7" d="M53.1,27.34c.15.08.16.36.02.63-.14.27-.37.43-.52.35-.15-.08-.16-.36-.02-.63.14-.27.37-.43.52-.35Z"/>
      <path class="cls-16" d="M52.9,27.63c.11.05.11.25.02.44-.1.19-.26.3-.36.24-.1-.05-.11-.25-.02-.44.1-.19.26-.3.36-.24Z"/>
    </g>
    <g>
      <g>
        <path class="cls-9" d="M51.83,37.32l2.7-6.35s1.8-2.38,3.6-2.32c0,0,1.5,1.64.66,4.18,0,0-1.22,3.19-2.51,5.78,6.88,2.53,13.09,5.29,13.09,5.29,1.76-5.84,1.75-8.38,1.75-8.38,6.99,3.64,11.44,7.87,11.44,7.87.39,1.2.65.21.47.97-2.56,10.42-6.34,16.94-6.34,16.94-2.86-.82-4.45-.68-4.45-.68-11.31,3.98-26.02.45-26.02.45-2.74-1.94-3.07-3.53-3.07-3.53.02-10.91,2.93-21.06,2.93-21.06,2.4.23,4.3.54,5.75.84Z"/>
        <path class="cls-19" d="M45.6,36.34c-.03.1-2.93,10.35-2.95,21.2v.05s.01.05.01.05c.01.07.4,1.8,3.27,3.83l.08.06.09.02c.09.02,6.14,1.44,13.45,1.44,4.15,0,8.7-.46,12.79-1.88.3-.01,1.79-.03,4.21.67l.37.11.19-.33c.04-.07,3.84-6.7,6.39-17.07.08-.33.13-.55-.06-.76-.05-.06-.15-.14-.3-.16-.03-.06-.07-.15-.13-.31l-.04-.12-.09-.09s-4.59-4.32-11.56-7.95l-.73-.38v.82s-.02,2.41-1.57,7.7c-1.58-.69-6.6-2.85-12.09-4.88,1.2-2.48,2.28-5.3,2.29-5.33.92-2.81-.69-4.62-.76-4.69l-.14-.15h-.21c-2.03-.08-3.93,2.4-4.01,2.51l-.04.05-2.56,6.03c-1.64-.32-3.46-.58-5.41-.77l-.41-.04-.11.4ZM43.64,57.48c.03-9.48,2.28-18.49,2.8-20.46,1.91.2,3.69.46,5.28.79l.4.08,2.83-6.66c.47-.6,1.76-1.95,2.93-2.07.31.44,1.02,1.72.43,3.52,0,0-1.22,3.17-2.49,5.71l-.25.49.52.19c6.78,2.49,13,5.25,13.06,5.28l.51.23.16-.54c1.23-4.07,1.6-6.56,1.72-7.73,5.95,3.2,9.94,6.77,10.57,7.35.07.21.19.49.39.67-2.19,8.87-5.29,14.93-6.07,16.38-1.99-.53-3.33-.61-3.91-.61-.2,0-.32,0-.33.01h-.06s-.06.03-.06.03c-10.58,3.72-24.39.75-25.65.46-2.22-1.6-2.71-2.9-2.78-3.13Z"/>
      </g>
      <path class="cls-7" d="M57.52,29.14c1.47.54.75,3.56.75,3.56l-3,6.64c10.05,3.75,14.95,6.11,14.95,6.11,1.88-6.93,1.92-8.88,1.92-8.88,2.15,1.04,2.42,2.61,2.42,2.61-4.25,16-7.81,21-7.81,21-6.41,2.57-20.76-.28-20.76-.28,4.36-15.29,6.4-19.77,6.4-19.77,2.78-6.65,5.14-10.99,5.14-10.99Z"/>
      <path class="cls-7" d="M52.32,38.31l1.7-4.15c1.02-3.89,3.28-4.31,3.28-4.31-2.11,4.13-4.83,10.82-4.83,10.82-.86,2.43-3,2.43-3,2.43-3.3,2.06-2.01,5.59-2.01,5.59,1.17,4.8-3.39,7.88-3.39,7.88.49-11.97,2.54-19.04,2.54-19.04,3.98-.05,5.72.77,5.72.77Z"/>
      <g>
        <g>
          <path class="cls-9" d="M57.38,29.83c.27.11.33.59.13,1.07-.19.48-.57.78-.84.68-.27-.11-.33-.59-.13-1.07.19-.48.57-.78.84-.68Z"/>
          <path class="cls-19" d="M56.09,30.32c-.31.76-.13,1.49.41,1.71h0c.1.04.2.06.3.06.46,0,.93-.39,1.18-1.01.31-.76.13-1.49-.41-1.71-.54-.22-1.17.19-1.48.95ZM56.94,30.93c.01-.07.03-.15.07-.25.04-.09.08-.17.12-.22-.01.07-.03.15-.07.25-.04.09-.08.17-.12.22Z"/>
        </g>
        <path class="cls-7" d="M57.15,30.38c.16.06.19.34.08.63-.11.28-.33.46-.49.4-.16-.06-.19-.34-.08-.63.11-.28.33-.46.49-.4Z"/>
        <path class="cls-16" d="M56.98,30.68c.11.04.13.24.05.43-.08.2-.23.32-.34.27-.11-.04-.13-.24-.05-.43.08-.2.23-.32.34-.27Z"/>
      </g>
      <g>
        <g>
          <path class="cls-9" d="M73.8,38.14c.28.06.43.52.33,1.02-.1.51-.42.87-.7.82-.28-.06-.43-.52-.33-1.02.1-.51.42-.87.7-.82Z"/>
          <path class="cls-19" d="M72.61,38.86c-.16.8.14,1.49.71,1.61h0c.05.01.11.02.16.02.51,0,.98-.49,1.12-1.22.16-.8-.14-1.49-.71-1.61-.57-.12-1.12.4-1.28,1.2ZM73.56,39.31c0-.07,0-.16.02-.25s.05-.18.08-.24c0,.07,0,.16-.02.25-.02.1-.05.18-.08.24Z"/>
        </g>
        <path class="cls-7" d="M73.67,38.72c.17.03.25.3.19.6-.06.3-.24.51-.41.48-.17-.03-.25-.3-.19-.6.06-.3.25-.51.41-.48Z"/>
        <path class="cls-16" d="M73.56,39.05c.12.02.17.21.13.42-.04.21-.17.35-.28.33-.12-.02-.17-.21-.13-.42.04-.21.17-.35.28-.33Z"/>
      </g>
      <path class="cls-16" d="M69.61,44.76c2.22-7.59,1.59-8.69,1.59-8.69l.93.5c.06,3.58-1.59,9.5-1.59,9.5-8.57-3.63-15.14-6.02-15.14-6.02l.09-1.11c4.27,1.49,14.12,5.82,14.12,5.82Z"/>
      <g>
        <g>
          <path class="cls-9" d="M77.6,40.89c.28.06.43.52.33,1.02-.1.51-.42.87-.7.82-.28-.06-.43-.52-.33-1.02s.42-.87.7-.82Z"/>
          <path class="cls-19" d="M76.42,41.6c-.16.8.14,1.49.71,1.61.05.01.11.02.16.02.26,0,.52-.13.73-.37.19-.22.33-.52.39-.84.07-.33.06-.66-.03-.93-.12-.37-.36-.61-.68-.68-.57-.12-1.12.4-1.28,1.2ZM77.37,42.06c0-.07,0-.16.02-.25.02-.1.05-.18.08-.24,0,.07,0,.16-.02.25-.02.1-.05.18-.08.24Z"/>
        </g>
        <path class="cls-7" d="M77.48,41.47c.17.03.25.3.19.6-.06.3-.24.51-.41.48-.17-.03-.25-.3-.19-.6.06-.3.24-.51.41-.48Z"/>
        <path class="cls-16" d="M77.36,41.8c.11.02.17.21.13.42-.04.21-.17.35-.28.33-.11-.02-.17-.21-.13-.42.04-.21.17-.35.28-.33Z"/>
      </g>
      <g>
        <g>
          <path class="cls-9" d="M75.9,46.83c.27.1.34.58.15,1.06-.19.48-.55.79-.82.69-.27-.1-.34-.58-.15-1.06.19-.48.55-.79.82-.69Z"/>
          <path class="cls-19" d="M74.62,47.35c-.12.31-.16.64-.12.92.05.38.26.67.56.78h0c.09.04.19.05.29.05.22,0,.45-.09.65-.26.22-.18.41-.46.53-.77.17-.44.18-.91.03-1.24-.1-.22-.27-.38-.47-.46-.2-.08-.44-.07-.66.03-.34.15-.64.5-.81.95ZM75.48,47.95c0-.07.03-.15.06-.25.04-.09.08-.17.12-.23,0,.07-.03.15-.06.25-.04.09-.08.17-.12.23Z"/>
        </g>
        <path class="cls-7" d="M75.68,47.39c.16.06.2.34.09.62-.11.28-.33.47-.48.4-.16-.06-.2-.34-.09-.62.11-.28.33-.47.48-.4Z"/>
        <path class="cls-16" d="M75.52,47.69c.11.04.14.24.06.43-.08.2-.23.32-.33.28-.11-.04-.14-.23-.06-.43.08-.2.23-.32.33-.28Z"/>
      </g>
      <g>
        <g>
          <path class="cls-9" d="M74.11,51.72c.27.1.34.58.15,1.06-.19.48-.55.79-.82.69-.27-.1-.34-.58-.15-1.06.19-.48.55-.79.82-.69Z"/>
          <path class="cls-19" d="M72.83,52.23c-.29.76-.1,1.49.44,1.7h0c.09.04.19.05.29.05.22,0,.45-.09.65-.26.22-.18.41-.46.53-.77.17-.44.18-.91.03-1.24-.1-.22-.26-.38-.47-.46-.2-.08-.44-.07-.66.03-.34.15-.64.5-.81.95ZM73.69,52.83c0-.07.03-.15.06-.25.04-.09.08-.17.12-.23,0,.07-.03.15-.06.25-.04.09-.08.17-.12.23Z"/>
        </g>
        <path class="cls-7" d="M73.89,52.27c.16.06.2.34.09.62-.11.28-.33.47-.48.4-.16-.06-.2-.34-.09-.63.11-.28.33-.47.48-.4Z"/>
        <path class="cls-16" d="M73.73,52.58c.11.04.14.23.06.43-.08.2-.22.32-.33.28-.11-.04-.14-.24-.06-.43.07-.2.23-.32.33-.28Z"/>
      </g>
      <g>
        <g>
          <path class="cls-9" d="M72.4,56.37c.27.1.34.58.15,1.06-.19.48-.55.79-.82.69-.27-.1-.34-.58-.15-1.06.19-.48.55-.79.82-.69Z"/>
          <path class="cls-19" d="M71.11,56.88c-.29.76-.1,1.49.44,1.7h0c.09.04.19.05.29.05.22,0,.45-.09.65-.26.22-.18.41-.46.53-.77.17-.44.18-.91.03-1.24-.1-.22-.27-.38-.47-.46-.3-.12-.64-.04-.94.21-.22.18-.41.46-.53.77ZM71.97,57.48c0-.07.03-.15.06-.25s.08-.17.12-.23c0,.07-.03.15-.06.25-.04.09-.08.17-.12.23Z"/>
        </g>
        <path class="cls-7" d="M72.18,56.92c.16.06.2.34.09.62-.11.28-.33.47-.48.4-.16-.06-.2-.34-.09-.63.11-.28.33-.47.48-.4Z"/>
        <path class="cls-16" d="M72.01,57.22c.11.04.14.24.06.43-.08.2-.22.32-.33.28-.11-.04-.14-.23-.06-.43.07-.2.22-.32.33-.28Z"/>
      </g>
      <path class="cls-7" d="M77.71,49.34s-.66-7.71,2.12-7.3c0,0,1.88.71,1.77,1.33,0,0-1.92,7.67-6.63,16.83,0,0-1.18.37-.09-1.92,0,0,2.82-6.26,2.84-8.95Z"/>
      <path class="cls-16" d="M82.59,44.22c-1.58,7.65-6.22,16.42-6.22,16.42-.84-.14-1.34-.68-1.34-.68,4.44-9.2,6.56-16.59,6.56-16.59l.99.85Z"/>
      <path class="cls-19" d="M74.07,55.51c.64-1.61,1.24-3.23,1.82-4.86.57-1.63,1.11-3.27,1.6-4.93.49-1.65.95-3.33,1.29-4.99l.97.21c-.44,1.72-.99,3.36-1.56,5.01-.58,1.64-1.2,3.27-1.84,4.88-.65,1.61-1.34,3.2-2.05,4.78-.35.79-.73,1.57-1.09,2.36l-1.13,2.34,1.02-2.39c.32-.8.66-1.6.97-2.41Z"/>
      <path class="cls-19" d="M49.89,47.06c.76-2.3,1.52-4.61,2.49-6.84.96-2.22,1.99-4.42,3.12-6.57-1.05,2.18-1.99,4.42-2.86,6.67-.89,2.24-1.58,4.57-2.26,6.89-.67,2.32-1.3,4.66-1.92,7-.61,2.34-1.2,4.69-1.77,7.04l-.96-.25c.65-2.34,1.32-4.67,2-6.99.69-2.32,1.4-4.64,2.15-6.95Z"/>
    </g>
    <g>
      <path class="cls-7" d="M50.33,30.58s-1.53,1.39-2.65,5.79l-1.53-.13s.88-4.03,2.36-6.11c0,0,.86-.48,1.81.45Z"/>
      <path class="cls-19" d="M45.67,36.14l-.12.55,2.51.21.1-.41c1.07-4.21,2.49-5.53,2.5-5.54l.39-.35-.38-.37c-1.21-1.18-2.35-.56-2.4-.53l-.1.05-.06.09c-1.53,2.14-2.41,6.13-2.44,6.3ZM46.77,35.8c.29-1.13,1.02-3.72,2.07-5.27.13-.04.42-.08.77.12-.53.68-1.51,2.24-2.31,5.19l-.54-.04Z"/>
    </g>
    <path class="cls-16" d="M51.99,37.63l-.39,1.47c-2.69-.59-4.07-.75-4.07-.75-2.15,5.4-3.54,18.47-3.54,18.47-1.09-5.6,2.48-19.95,2.48-19.95,2.65.19,5.51.77,5.51.77Z"/>
    <path class="cls-16" d="M52.87,45.14c1.08,3.32-1.55,5.61-1.55,5.61-2.71,3.62.02,5.65.02,5.65,2.88,1.82,2.87,4.63,2.87,4.63-5.91-.22-7.6-.93-7.6-.93,2.54-11.78,7.22-22.23,7.22-22.23-1.48,3.44-.96,7.27-.96,7.27Z"/>
  </g>
  <g>
    <g>
      <path class="cls-9" d="M64.87,64.02c.55-.22,5.24-1.79,9.21-.39,0,0,4.59,1.89,8.46,6.19,0,0-4.35,2.03-4.79,5.79,0,0-3.06-2.69-5.67-4.82-.93-.76-4.33-.02-6.65-.18-2.7-.18-4.54-5.03-.55-6.59Z"/>
      <path class="cls-19" d="M62.1,67.72c.28,1.83,1.69,3.29,3.28,3.39.92.06,1.98,0,3.01-.08,1.31-.09,2.94-.2,3.36.15,2.58,2.1,5.63,4.78,5.66,4.81l.71.62.11-.94c.41-3.43,4.47-5.38,4.51-5.4l.6-.28-.44-.5c-3.9-4.34-8.45-6.24-8.64-6.32h-.02c-4.37-1.55-9.5.36-9.55.38-1.9.74-2.87,2.3-2.58,4.15ZM65.05,64.48s4.82-1.8,8.85-.39c.23.1,4.28,1.85,7.84,5.59-1.14.66-3.58,2.34-4.31,4.99-1.04-.91-3.17-2.74-5.04-4.27-.72-.59-2.27-.49-4.06-.37-.99.07-2.02.14-2.88.08-1.12-.08-2.16-1.2-2.36-2.56-.1-.66-.11-2.27,1.96-3.08Z"/>
    </g>
    <path class="cls-7" d="M68.1,65.15s2.2-.61,4.86-.1c0,0,.88-.09,3.22,2.01,0,0-2.22,1.41-2.51,4.23,0,0-.59-.66-1.97-1.38,0,0-2.53-.28-5.1.05,0,0-2.7.48-3.08-2.09,0,0-.16-1.97,4.58-2.72Z"/>
    <g>
      <g>
        <g>
          <path class="cls-11" d="M80.64,65.85c1.51,1.52,2.71,4.83,2.71,4.83-4.85,1.73-5.18,5.83-5.18,5.83l-4.83-3.54c1.51-6.09,7.3-7.13,7.3-7.13Z"/>
          <path class="cls-6" d="M72.86,72.86l-.08.32,5.81,4.25.07-.88c.01-.15.38-3.81,4.85-5.41l.47-.17-.17-.47c-.05-.14-1.26-3.44-2.83-5.01l-.18-.18-.26.05c-.06.01-6.13,1.17-7.69,7.5ZM73.91,72.78c1.35-4.79,5.48-6.12,6.57-6.39,1.01,1.14,1.88,3.12,2.24,4.01-3.42,1.4-4.53,3.95-4.88,5.26l-3.93-2.88Z"/>
        </g>
        <path class="cls-15" d="M82.05,70.53s-2.77,1.14-3.96,5.05l-4.09-2.78s3.12-6.91,8.05-2.28Z"/>
        <g>
          <path class="cls-6" d="M78.95,71.32c.25-.05.5-.08.75-.09.25-.01.51,0,.78.05-.23.15-.47.25-.71.34-.24.08-.48.15-.73.2-.25.05-.5.08-.75.09-.25,0-.51,0-.78-.04.23-.15.47-.25.71-.34.24-.08.48-.15.73-.2Z"/>
          <path class="cls-6" d="M79.08,70.62c.1-.24.21-.47.37-.69.04.27.03.53,0,.78-.03.25-.07.5-.13.75-.06.25-.14.49-.24.72-.1.24-.21.47-.37.69-.04-.27-.03-.53,0-.78.03-.25.07-.5.13-.75.06-.25.14-.49.24-.72Z"/>
        </g>
        <g>
          <path class="cls-6" d="M77.62,69.82c.25-.05.5-.08.75-.09.26-.01.51,0,.78.05-.23.15-.47.25-.71.34-.24.08-.49.15-.73.2-.25.05-.5.08-.75.09-.26,0-.51,0-.78-.04.23-.15.47-.25.71-.34.24-.08.48-.15.73-.2Z"/>
          <path class="cls-6" d="M77.74,69.12c.1-.24.21-.47.37-.69.04.27.03.53,0,.78-.03.25-.07.5-.13.75-.06.25-.14.49-.24.72-.1.24-.21.47-.37.69-.04-.27-.03-.53,0-.78.03-.25.07-.5.13-.75.06-.25.14-.49.24-.72Z"/>
        </g>
      </g>
      <g>
        <g>
          <path class="cls-11" d="M80.87,71.67c2.43-2.12,4.01-.91,4.01-.91,1.44,1.05,2.99,2.72,2.99,2.72l-.46,1.4c.54.41.49.57.49.57l-.58,1.36c.36.58-.07,1.53-.07,1.53-1.33,1.22-1.31,2.84-1.31,2.84-.16.86-2.56-.11-2.56-.11-.84,1.04-2.15.15-2.15.15-.54-1.16-3.14-2.08-3.14-2.08-.56-5.18,2.79-7.45,2.79-7.45Z"/>
          <path class="cls-6" d="M77.6,79.18l.03.31.29.1c.93.33,2.53,1.12,2.86,1.82l.06.12.11.08c.31.21.84.44,1.4.44.39,0,.8-.11,1.16-.42.65.23,1.84.58,2.47.23.24-.13.4-.35.45-.61v-.05s0-.05,0-.05c0-.01,0-1.42,1.15-2.47l.07-.07.04-.09c.05-.11.44-1,.17-1.74l.5-1.19c.11-.34-.14-.66-.38-.89l.45-1.35-.2-.21c-.06-.07-1.6-1.71-3.06-2.78-.16-.12-1.98-1.36-4.61.91-.35.25-3.54,2.67-2.97,7.9ZM78.55,78.77c-.37-4.59,2.48-6.61,2.6-6.69l.05-.04c2.11-1.83,3.37-.9,3.38-.89h.01c1.09.8,2.26,1.98,2.72,2.45l-.48,1.45.28.21c.11.09.19.15.24.2l-.58,1.37.14.22c.15.24.03.72-.07.97-1.18,1.13-1.36,2.52-1.39,2.98-.28.07-1.15-.12-1.89-.42l-.34-.14-.23.28c-.45.56-1.14.25-1.39.11-.6-1.02-2.33-1.79-3.05-2.08Z"/>
        </g>
        <path class="cls-15" d="M81.9,73.1c.7-.44,1.7-.54,1.7-.54,1.5.46,2.36,1.78,2.36,1.78.55,1.12-.38,1.45-.38,1.45.94.99.18,2.71.18,2.71-.57,1.18-.49,2.36-.49,2.36-.48.4-1.32-.28-1.32-.28.03-2.8-1.75-3.11-1.75-3.11.71.91.67,2.41.67,2.41-.11,1.08-1.31.77-1.31.77-1.82-1.9-2.74-1.79-2.74-1.79.42-4.73,3.09-5.76,3.09-5.76Z"/>
        <g>
          <g>
            <path class="cls-6" d="M82.97,80.75h0s0,0,0,0c0,0-.02,0,0,0Z"/>
            <path class="cls-6" d="M82.54,77.39c.06-.18.16-.34.27-.48.06-.07.12-.13.18-.19l.2-.17-.17.2c-.05.07-.1.14-.14.22-.08.15-.14.31-.16.47-.02.16,0,.31.06.45.05.14.16.27.25.35h0s.02.03.02.03c.17.22.35.43.5.68.16.24.29.5.4.79.1.29.16.63.08,1-.04.18-.12.37-.25.53-.06.08-.13.15-.21.22-.04.03-.08.07-.12.09-.02.01-.04.03-.07.04-.03.02-.04.03-.1.05l-.34-.93s0,0,.01,0c.01,0,.03-.01.04-.02.03-.02.06-.03.09-.06.06-.04.1-.1.13-.18.07-.15.09-.37.06-.6-.04-.23-.11-.47-.21-.71-.09-.24-.22-.47-.35-.7l.02.03c-.14-.18-.22-.35-.26-.55-.04-.19-.03-.4.02-.58Z"/>
          </g>
          <path class="cls-6" d="M84.63,78.29c.19.06.38.11.56.19-.39,0-.76.08-1.14.15-.38.07-.76.15-1.12.24v-.99c.38.08.76.16,1.14.26.19.05.38.1.57.15Z"/>
          <polygon class="cls-6" points="87 77.18 85.13 74.86 87.65 76.43 87 77.18"/>
          <polygon class="cls-6" points="87.06 75.23 85.79 73.3 87.75 74.53 87.06 75.23"/>
        </g>
      </g>
    </g>
  </g>
  <g>
    <g>
      <g>
        <path class="cls-11" d="M31.7,33.5c-.12-1.89,1.8-1.68,1.8-1.68-.55-1.99,2.27-1.89,2.27-1.89l1.64.27c1.67,1.23,1.75,2.6,1.75,2.6l1.72,2.4c.06,3.9-4.24,4.49-4.24,4.49l-1.48,1.31-1.48.34c-2.37.12-4.44-4.48-4.44-4.48-.04-2.42,2.47-3.36,2.47-3.36Z"/>
        <path class="cls-6" d="M28.74,36.87v.1s.04.09.04.09c.22.49,2.23,4.78,4.8,4.78.04,0,.08,0,.12,0h.08s1.61-.38,1.61-.38l1.47-1.3c1.67-.28,4.57-1.64,4.51-4.97v-.15s-1.74-2.43-1.74-2.43c-.07-.44-.41-1.7-1.93-2.81l-.1-.07-1.82-.3c-.18,0-1.78-.03-2.51.89-.17.22-.34.55-.34,1.02-.36.05-.81.19-1.18.54-.34.33-.53.76-.56,1.3-.74.37-2.5,1.48-2.47,3.69ZM29.73,36.75c.04-1.97,2.12-2.78,2.15-2.79l.34-.13-.02-.37c-.02-.39.06-.69.25-.87.3-.29.83-.3,1.01-.29l.72.07-.19-.69c-.14-.49.02-.69.07-.75.35-.44,1.31-.53,1.67-.52l1.49.25c1.35,1.04,1.45,2.15,1.46,2.16v.14s1.72,2.39,1.72,2.39c-.06,3.27-3.66,3.82-3.81,3.84l-.15.02-1.5,1.33-1.31.3s-.02,0-.03,0c-1.6,0-3.28-2.86-3.86-4.1Z"/>
      </g>
      <path class="cls-6" d="M28.74,36.87v.1s.04.09.04.09c.23.5,2.29,4.9,4.92,4.77h.08s1.61-.38,1.61-.38l1.47-1.3c1.67-.28,4.57-1.64,4.51-4.97v-.15s-1.74-2.43-1.74-2.43c-.07-.44-.41-1.7-1.93-2.81l-.1-.07-1.82-.3c-.18,0-1.78-.03-2.51.89-.17.22-.34.55-.34,1.02-.36.05-.81.19-1.18.54-.34.33-.53.76-.56,1.3-.74.37-2.5,1.48-2.47,3.69ZM29.73,36.76c.04-1.97,2.13-2.78,2.15-2.79l.34-.13-.02-.37c-.02-.4.06-.69.25-.87.35-.34,1-.28,1-.28l.72.08-.2-.7c-.13-.49.02-.69.07-.75.35-.44,1.31-.52,1.67-.52l1.49.25c1.35,1.04,1.45,2.12,1.46,2.17v.14s.09.12.09.12l1.63,2.27c-.06,3.29-3.66,3.82-3.81,3.84l-.15.02-1.5,1.33-1.31.3c-1.61.03-3.3-2.85-3.89-4.1Z"/>
    </g>
    <g>
      <rect class="cls-9" x="25.33" y="32.58" width="17.03" height="4.7" transform="translate(-13.9 25.64) rotate(-34.89)"/>
      <path class="cls-19" d="M39.6,27.44l-14.78,10.31,3.26,4.67,14.78-10.31-3.26-4.67ZM39.36,28.82l2.12,3.05-13.16,9.17-2.12-3.05,13.16-9.17Z"/>
    </g>
    <g>
      <g>
        <path class="cls-9" d="M25.05,35.46c4.23,2.83,5.69,8.15,5.69,8.15-3.22,1.69-5.72-1.89-5.72-1.89-3.12-4.43.03-6.26.03-6.26Z"/>
        <path class="cls-19" d="M23.23,37.31c-.3,1.39.16,2.97,1.38,4.7.72,1.04,2.38,2.55,4.38,2.55.63,0,1.29-.15,1.97-.51l.35-.19-.1-.38c-.06-.22-1.55-5.54-5.89-8.43l-.26-.17-.27.15c-.05.03-1.23.73-1.57,2.27ZM24.2,37.54c.16-.75.59-1.23.86-1.47,3.18,2.28,4.66,6.05,5.07,7.28-2.62,1.03-4.62-1.78-4.71-1.91-1.05-1.49-1.46-2.8-1.23-3.91Z"/>
      </g>
      <path class="cls-7" d="M25.4,36.51c1.66.9,2.33,1.87,2.33,1.87.85,1.31,1.24,2.55,1.24,2.55-1.63-2.25-3.35-2.25-3.35-2.25-1.15.78-.25,2.93-.25,2.93-2.67-3.18.03-5.1.03-5.1Z"/>
      <path class="cls-16" d="M27.24,37.84c-1.33-1.24-2.08-.8-2.08-.8-1.44,1.57-.36,3.99-.36,3.99-2.14-3.07.17-5.15.17-5.15,1.36.67,2.27,1.96,2.27,1.96Z"/>
    </g>
    <g>
      <path class="cls-13" d="M35.66,37.98c-.04-.13-.09-.27-.11-.42.15.03.29.08.45.14l-.34.28Z"/>
      <path class="cls-6" d="M34.66,37.49c.22-.02.45,0,.67.03.07.01.15.03.22.04.03.14.07.28.11.42l.34-.28c-.15-.06-.3-.1-.45-.14-.02-.12-.03-.25-.02-.39.02-.28.12-.57.28-.81.16-.24.36-.43.58-.6.11-.08.22-.16.34-.22.12-.07.23-.12.38-.19l.28.95c-.06,0-.18.04-.26.07-.09.03-.19.07-.27.11-.17.09-.33.19-.46.32-.13.13-.21.28-.26.45-.06.17-.04.37-.01.57l.07.54-.4-.26c-.15-.1-.35-.19-.53-.26-.19-.07-.39-.12-.59-.14-.2-.02-.41,0-.61.04-.2.05-.39.15-.56.28.15-.15.31-.3.52-.39.2-.09.42-.15.65-.17Z"/>
    </g>
    <g>
      <path class="cls-11" d="M35.98,29.3l.81.19c1.9.65,2.04,3.55,2.04,3.55-1.42-2.19-3.2.57-3.2.57-.11-2.3-2.59-2.33-2.59-2.33.07-2.31,2.93-1.98,2.93-1.98Z"/>
      <path class="cls-6" d="M32.56,31.26l-.02.5h.5c.21.01,2.01.1,2.1,1.86l.08,1.55.84-1.3c.2-.31.91-1.19,1.53-1.19.29,0,.57.21.84.62l1,1.54-.09-1.83c0-.13-.19-3.24-2.38-4h-.05s-.86-.21-.86-.21c-.07,0-1.68-.18-2.69.69-.5.43-.77,1.03-.79,1.77ZM33.62,30.84c.07-.24.2-.44.38-.59.63-.55,1.74-.47,1.91-.46l.75.17c.79.29,1.22,1.1,1.44,1.82-.16-.05-.34-.08-.51-.08-.67,0-1.26.41-1.68.82-.45-1.06-1.47-1.53-2.28-1.68Z"/>
    </g>
    <g>
      <g>
        <path class="cls-11" d="M32.86,31.29c2.85.38,2.78,2.05,2.78,2.05.36,1.54-1.24,3.18-1.24,3.18-1.14.65-2-1.47-2-1.47-.84-2.29-1.91-1.55-1.91-1.55.15-2.58,2.37-2.21,2.37-2.21Z"/>
        <path class="cls-6" d="M30,33.47l-.06,1.01.83-.58s.11-.06.26,0c.15.05.52.28.9,1.31.07.17.63,1.51,1.58,1.84.15.05.29.08.44.08.23,0,.46-.06.68-.19l.06-.03.05-.05c.07-.07,1.76-1.82,1.38-3.58-.02-.4-.28-2.09-3.21-2.48-.03,0-1.11-.17-1.96.51-.58.47-.91,1.19-.96,2.16ZM31.08,32.9c.1-.35.26-.63.49-.81.5-.41,1.2-.31,1.21-.31,2.33.31,2.36,1.5,2.36,1.56v.06s.01.07.01.07c.23.99-.64,2.2-1.06,2.66-.11.05-.19.03-.25.01-.42-.15-.84-.92-.99-1.27-.39-1.06-.91-1.71-1.54-1.91-.08-.03-.16-.04-.23-.05Z"/>
      </g>
      <path class="cls-6" d="M30,33.47l-.06,1.01.83-.58s.11-.06.26,0c.14.05.53.28.9,1.31.07.17.63,1.51,1.58,1.85.38.13.76.09,1.12-.11l.06-.03.05-.05c.07-.07,1.76-1.82,1.39-3.58-.02-.4-.28-2.09-3.2-2.48-.12-.02-1.15-.15-1.97.51-.58.47-.91,1.19-.96,2.16ZM31.09,32.9c.1-.36.26-.63.5-.82.51-.41,1.19-.31,1.2-.3h.02c2.32.31,2.35,1.51,2.35,1.56v.06s.01.07.01.07c.24.99-.64,2.2-1.06,2.66-.11.05-.19.03-.25.01-.41-.14-.85-.91-.99-1.27-.04-.1-.07-.2-.11-.29-.37-.89-.85-1.43-1.43-1.62-.08-.03-.16-.04-.23-.05Z"/>
      <polygon class="cls-13" points="30.78 33.9 30.78 33.9 30.78 33.9 30.78 33.9"/>
    </g>
    <g>
      <g>
        <path class="cls-11" d="M30.16,33.39c1.14-.19,2.1.93,2.1.93,1.59,3.65-.92,4.22-.92,4.22-1.57.24-2.94-2.81-2.94-2.81.28-1.77,1.77-2.34,1.77-2.34Z"/>
        <path class="cls-6" d="M27.91,35.65l-.02.15.06.14c.15.33,1.46,3.11,3.22,3.11.08,0,.16,0,.25-.02h.04s1.03-.25,1.54-1.26c.47-.92.37-2.15-.28-3.65l-.03-.07-.05-.06c-.05-.05-1.15-1.33-2.56-1.1l-.1.03c-.07.03-1.75.69-2.08,2.72ZM28.91,35.66c.26-1.21,1.18-1.69,1.38-1.79.71-.08,1.37.54,1.54.72.49,1.15.59,2.09.28,2.71-.27.54-.77.72-.87.74-.85.1-1.89-1.48-2.33-2.39Z"/>
      </g>
      <path class="cls-6" d="M27.91,35.65l-.02.15.06.14c.16.35,1.59,3.38,3.47,3.1h.04s1.03-.25,1.54-1.26c.47-.92.37-2.15-.28-3.65l-.03-.07-.05-.06c-.05-.05-1.15-1.33-2.56-1.1l-.1.03c-.07.03-1.75.69-2.08,2.72ZM28.91,35.66c.26-1.21,1.18-1.69,1.38-1.79.71-.08,1.37.54,1.54.72,0,0,0,.02.01.03.48,1.14.57,2.07.27,2.69-.27.54-.77.72-.87.74-.85.1-1.89-1.48-2.33-2.39Z"/>
    </g>
    <g>
      <path class="cls-15" d="M29.98,33.56c.9-.62,1.72.58,1.72.58.78,1.11.56,2.34.56,2.34-1.22,1.42-1.69-1.02-1.69-1.02-.69.45-1.41-.12-1.41-.12-.34-.83.81-1.77.81-1.77Z"/>
      <path class="cls-6" d="M30.92,34.96c.15-.18.32-.35.48-.51.17-.16.33-.32.52-.48l.5.86c-.19.07-.4.15-.6.24-.2.09-.4.18-.59.28-.19.1-.38.21-.56.34-.17.13-.34.27-.43.48.01-.23.13-.45.25-.65.13-.2.28-.38.43-.56Z"/>
    </g>
    <g>
      <path class="cls-15" d="M31.6,32.07c.8-.75,2.51.01,2.51.01,1.35.84.89,2.23.89,2.23-1.01,1.58-1.63-.93-1.63-.93-.62.54-1.9-.47-1.9-.47-.45-.77.14-.84.14-.84Z"/>
      <path class="cls-6" d="M33.45,33.01c.13-.2.26-.39.41-.57.14-.19.29-.37.45-.55l.61.78c-.18.09-.38.21-.56.32-.19.12-.37.24-.55.37-.18.13-.35.27-.5.42-.15.15-.3.32-.36.54-.02-.23.06-.47.16-.68.1-.21.22-.42.34-.62Z"/>
    </g>
    <g>
      <path class="cls-15" d="M34.36,29.95c.8-.75,2.51.02,2.51.02.94.98,1.1,1.72,1.1,1.72-1,1.58-2.19-.44-2.19-.44-.62.54-1.9-.47-1.9-.47-.02-.67.48-.82.48-.82Z"/>
      <path class="cls-6" d="M36.04,30.71c.13-.2.26-.39.41-.58.14-.19.29-.37.45-.55l.61.78c-.18.09-.38.21-.56.32-.19.12-.37.24-.55.37-.18.13-.35.27-.5.42-.15.15-.3.32-.36.54-.02-.23.06-.47.16-.68.1-.21.22-.42.34-.62Z"/>
    </g>
    <g>
      <g>
        <path class="cls-11" d="M35.91,33.09c2.93-2.37,3.53-.82,3.53-.82l.68.73c1.4,2.31.36,4,.36,4l-2.6-1.56c-3.05.74-3.16-.86-3.16-.86-.17-.97,1.19-1.51,1.19-1.51Z"/>
        <path class="cls-6" d="M35.65,32.66c1.38-1.1,2.5-1.55,3.34-1.32.51.14.76.48.86.65l.63.68.06.08c1.54,2.54.41,4.44.36,4.52l-.84-.52c.04-.06.84-1.46-.34-3.45l-.71-.76-.03-.09s-.07-.11-.24-.16c-.24-.06-.96-.08-2.52,1.18l-.06.05-.07.03s-.98.42-.88.96v.04s.04.22.28.38c.24.16.86.39,2.28.04l.23.96c-1.4.34-2.46.27-3.12-.22-.3-.22-.46-.47-.55-.68-.07-.17-.09-.3-.1-.36-.17-1.03.78-1.73,1.43-2Z"/>
      </g>
      <path class="cls-15" d="M38.45,32.17c1.1,1.75-.07,2.13-.07,2.13-2.73,1.49-2.65-.41-2.65-.41.82-1.15,2.72-1.72,2.72-1.72Z"/>
    </g>
    <g>
      <g>
        <g>
          <g>
            <path class="cls-9" d="M81.89,1.92l.11.15c.03,1.37-2.55,4.31-2.55,4.31-8.45,8.51-35.8,27.23-35.8,27.23l-2.25-3.23-.11-.15-2.25-3.23S66.06,7.81,76.97,2.82c0,0,3.65-1.4,4.92-.9Z"/>
            <path class="cls-19" d="M38.76,26.6l-.4.28,5.17,7.41.4-.28c.27-.19,27.48-18.85,35.87-27.29l.02-.02c.45-.52,2.71-3.16,2.67-4.65v-.15s-.28-.4-.28-.4l-.14-.06c-1.38-.55-4.64.65-5.28.9h-.03c-10.82,4.97-37.73,24.05-38.01,24.25ZM39.73,27.13c3.4-2.4,27.4-19.26,37.43-23.85,1.23-.47,3.36-1.1,4.32-.96-.2.95-1.52,2.73-2.39,3.72-7.78,7.82-31.89,24.52-35.32,26.88l-4.04-5.8Z"/>
          </g>
          <path class="cls-7" d="M42.39,26.17C71.94,4.97,81.41,2.26,81.41,2.26c-10.39,11.36-40.77,28.58-40.77,28.58-4.18-4,1.75-4.67,1.75-4.67Z"/>
          <path class="cls-16" d="M81.3,2.34s.17.02.16.09c-.88.25-4.41,2.13-4.41,2.13-9.41,4.82-30.69,20.42-36.14,24.45l-1.31-1.87S66.01,8.37,76.67,3.5c0,0,3.38-1.64,4.63-1.15Z"/>
          <path class="cls-16" d="M47.78,28.91c-3.45,1.89-4.26,1.06-4.26,1.06,7.62-5.13,24.03-17.4,24.03-17.4-7.67,9.05-19.77,16.33-19.77,16.33Z"/>
          <g>
            <path class="cls-19" d="M40.72,31.19c.14-.09.28-.19.42-.28l.26.44-.68-.17Z"/>
            <path class="cls-19" d="M40.27,29.44l.23.39c-.12.09-.25.17-.37.26l.14-.65Z"/>
            <path class="cls-19" d="M48.32,23.15c2.95-2.01,5.9-4.01,8.9-5.95,2.99-1.95,6-3.85,9.05-5.71,1.53-.91,3.06-1.83,4.61-2.72.78-.44,1.54-.9,2.32-1.33l2.35-1.28c-1.51.95-3.03,1.88-4.53,2.84-1.51.95-2.99,1.93-4.48,2.9-2.98,1.95-5.93,3.94-8.88,5.94-2.94,2.01-5.88,4.02-8.79,6.07-2.8,1.95-5.59,3.92-8.35,5.91l-.23-.39-.14.65c.12-.09.25-.17.37-.26l.64,1.08c-.14.09-.28.19-.42.28l.68.17-.26-.44c2.66-1.69,5.25-3.51,7.84-5.33,1.36-.96,2.72-1.93,4.07-2.9l4.06-2.92,16.2-11.75c-2.58,2.12-5.21,4.17-7.83,6.24-2.63,2.06-5.27,4.1-7.94,6.11-2.66,2.02-5.34,4-8.05,5.96-2.7,1.96-5.44,3.88-8.27,5.69l-.42.27-.26-.43-1.14-1.91-.23-.39.37-.26c2.9-2.08,5.82-4.12,8.76-6.14Z"/>
          </g>
        </g>
        <g>
          <path class="cls-9" d="M41.63,30.15c2.84,4.08,4.69,7.7,4.14,8.08s-3.32-2.6-6.16-6.67c-2.84-4.08-4.69-7.7-4.14-8.08.56-.39,3.32,2.6,6.16,6.67Z"/>
          <path class="cls-19" d="M35.83,26.36c.79,1.55,1.99,3.49,3.38,5.48,1.39,1.99,2.8,3.79,3.98,5.06,1.3,1.41,2.01,1.86,2.47,1.86.15,0,.28-.05.4-.13.46-.32.53-1.01-.63-3.29-.79-1.55-1.99-3.49-3.38-5.48-1.39-1.99-2.8-3.79-3.98-5.06-1.74-1.89-2.41-2.06-2.87-1.73-.46.32-.53,1.01.63,3.29ZM35.93,24.13c.88.65,2.88,2.84,5.29,6.3,2.41,3.46,3.78,6.09,4.08,7.15-.88-.65-2.88-2.84-5.29-6.3-2.41-3.46-3.78-6.09-4.08-7.15Z"/>
        </g>
      </g>
      <path class="cls-7" d="M39.45,27.81c1.23,1.69,2.06,3.18,1.63,3.48-.43.3-1.51-1.02-2.7-2.73-1.58-2.27-2.05-4.09-2.05-4.09,0,0,.89.24,3.13,3.34Z"/>
    </g>
  </g>
  <g>
    <g>
      <path class="cls-9" d="M83.29,51.55s2.44-.82,13.28,4.7c7.99,4.07,12.46,8.41,12.46,8.41-6.3,16.61-9.21,19.79-9.21,19.79-7.14,12.27-23.41,12.75-23.51,12.62-.16,0-9.34-13.46-3.61-26.44,0,0,.86-4.23,10.6-19.09Z"/>
      <path class="cls-19" d="M72.22,70.48c-5.19,11.84,1.67,23.77,3.09,26.05.33.53.51.79.65.92.03.03.06.06.11.08.04.02.09.04.13.04.08.02.19.02.33.02.19,0,.45-.01.81-.04,2.68-.18,16.35-1.66,22.87-12.81.38-.45,3.32-4.22,9.27-19.91l.12-.3-.23-.23s-4.61-4.44-12.58-8.5c-10.72-5.46-13.4-4.82-13.67-4.73l-.16.05-.09.14c-9.2,14.03-10.52,18.63-10.65,19.2ZM73.14,70.84l.03-.1s1.01-4.37,10.4-18.73c.69-.04,3.83.13,12.77,4.69,6.81,3.47,11.08,7.18,12.1,8.1-6.07,15.95-8.97,19.29-9,19.33l-.06.08c-3.55,6.1-9.44,9.14-13.75,10.61-4.41,1.51-8.19,1.77-9.08,1.78h-.01c-.52-.73-2.52-3.94-3.9-8.4-1.34-4.36-2.35-10.91.5-17.37Z"/>
    </g>
    <path class="cls-7" d="M84.04,52.87s4.64.23,11.95,4.15c7.47,3.61,10.71,6.59,10.71,6.59-6.02,15.51-9.01,19.16-9.01,19.16-6.64,11.52-21.01,12.43-21.1,12.32-.14,0-7.86-12.16-2.44-24.31,0,0,.88-3.93,9.89-17.92Z"/>
    <path class="cls-16" d="M83.29,52.28s2.37-.8,12.87,4.56c4.6,2.34,7.99,4.77,9.99,6.37-1.93-1.31-4.67-3.02-8.17-4.8-10.21-5.2-13.02-4.43-13.02-4.43-9.16,13.99-9.98,17.97-9.98,17.97-5.39,12.22,2.12,23.06,2.27,23.07.06.07,4.54.73,12.58-2.1-6.57,3.4-13.26,3.57-13.32,3.49-.15,0-9.05-13.04-3.5-25.62,0,0,.84-4.1,10.27-18.5Z"/>
    <g>
      <g>
        <path class="cls-18" d="M78.54,66.48c-.39-4.03,3.19-5.35,3.19-5.35,1.6,1.99,4.19,4.27,6.27,5.32,1.76-4.27,2.68-7.95,2.68-7.95,4.08-.45,6.51,3.58,6.51,3.58-2.68,1.36-4.17,3.72-5.78,6,4.43,2.71,8.99,3.02,8.99,3.02.62,4.69-2.94,5.48-2.94,5.48-2.51-2.63-4.95-4.89-7.49-6.21-6.55,12.77-5.65,19.28-5.65,19.28-7.17,2.33-8.05-3.82-8.05-3.82,5.18-5.95,8.66-13.43,10.53-16.88-5.01-1.89-8.26-2.47-8.26-2.47Z"/>
        <path class="cls-13" d="M75.99,85.59l-.11.13.02.17c.01.1.39,2.57,2.5,3.88.84.52,1.83.78,2.95.78.94,0,1.97-.18,3.08-.55l.3-.1-.04-.31c0-.06-.78-6.46,5.44-18.72,2.58,1.43,5.01,3.8,7.06,5.96l.14.15.2-.05s3.88-.92,3.23-5.89l-.04-.3-.3-.02s-4.29-.32-8.48-2.76c.07-.09.13-.19.2-.28,1.47-2.1,2.86-4.08,5.22-5.28l.36-.18-.21-.34c-.1-.17-2.59-4.24-6.87-3.76l-.26.03-.06.25s-.88,3.49-2.51,7.52c-1.86-1.04-4.24-3.1-5.79-5.03l-.17-.21-.25.09s-3.85,1.47-3.43,5.74l.03.28.28.05s3.1.57,7.79,2.31c-.25.47-.52.99-.82,1.57-2.04,3.94-5.13,9.9-9.46,14.86ZM76.67,85.94c4.32-5,7.4-10.93,9.44-14.87.39-.75.72-1.39,1.02-1.94l.2-.37-.4-.15c-4.15-1.57-7.14-2.25-8.04-2.44-.15-2.95,2-4.24,2.73-4.59,1.74,2.09,4.26,4.21,6.21,5.2l.36.18.15-.37c1.49-3.61,2.39-6.84,2.63-7.75,2.99-.19,5.03,2.22,5.68,3.11-2.31,1.3-3.74,3.34-5.12,5.31-.14.2-.28.4-.42.6l-.23.32.34.21c3.85,2.36,7.74,2.92,8.85,3.04.34,3.5-1.81,4.5-2.49,4.72-2.15-2.25-4.7-4.7-7.43-6.12l-.33-.17-.17.33c-5.81,11.33-5.81,17.72-5.72,19.19-2.12.63-3.84.55-5.13-.25-1.53-.95-2.01-2.67-2.13-3.2Z"/>
      </g>
      <path class="cls-20" d="M90.98,58.87c3.96-.44,5.56,2.88,5.53,2.9-.97-1.08-2.57-2.26-5.14-2.02,0,0-.93,3.58-2.53,7.5-.69-.35-1.16-.78-.76-.57,1.36-2.14,2.91-7.81,2.91-7.81Z"/>
      <path class="cls-20" d="M99.99,71.39c.02.19.04.36.05.54-1.34-.19-4.64-.85-7.88-2.82.02-.03.05-.07.07-.1,3.97,2.13,7.76,2.38,7.76,2.38Z"/>
      <path class="cls-20" d="M98.05,76.09c-.24.1-.39.13-.39.13-2.12-2.22-4.19-4.17-6.32-5.48,0,0,0-.02.01-.02,2.26,1.17,4.46,3.11,6.7,5.37Z"/>
      <path class="cls-20" d="M88.15,69.26c-1.79,3.29-5.36,11.33-10.3,17.02,0,0,1.52,3.6,5.97,3.05,0,.11.01.16.01.16-6.3,1.79-7.12-3.57-7.12-3.57,5.11-5.97,8.62-13.41,10.53-16.96.36.13.53.15.91.29Z"/>
      <path class="cls-20" d="M81.44,61.48c.18.27.38.55.59.83-.63.39-2.36,1.11-2.5,3.84-.62-.1-.81-.05-.81-.05.07-3.67,2.72-4.62,2.72-4.62Z"/>
    </g>
  </g>
</svg>