<?xml version="1.0" encoding="UTF-8"?>
<svg id="Layer_1" data-name="Layer 1" xmlns="http://www.w3.org/2000/svg" version="1.1" viewBox="0 0 500 500">
  <defs>
    <style>
      .cls-1 {
        fill: #f3e0d8;
      }

      .cls-1, .cls-2, .cls-3, .cls-4, .cls-5, .cls-6, .cls-7, .cls-8, .cls-9, .cls-10, .cls-11, .cls-12, .cls-13, .cls-14, .cls-15, .cls-16, .cls-17, .cls-18, .cls-19, .cls-20 {
        stroke-width: 0px;
      }

      .cls-2 {
        fill: #fccaa7;
      }

      .cls-3 {
        fill: #f9edee;
      }

      .cls-4 {
        fill: #f4956e;
      }

      .cls-5 {
        fill: #fbe6a9;
      }

      .cls-6 {
        fill: #282728;
      }

      .cls-7 {
        fill: #ccc7ca;
      }

      .cls-8 {
        fill: #887f7c;
      }

      .cls-21 {
        opacity: .78;
      }

      .cls-9 {
        fill: #9584ab;
      }

      .cls-10 {
        fill: #bed5ef;
      }

      .cls-11 {
        fill: #442d3e;
      }

      .cls-12 {
        fill: #eaa498;
      }

      .cls-13 {
        fill: #683a57;
      }

      .cls-14 {
        fill: #4e3b6e;
      }

      .cls-15 {
        fill: #785b72;
      }

      .cls-16 {
        fill: #fff;
      }

      .cls-17 {
        fill: #8c2e26;
      }

      .cls-18 {
        fill: #cd1e54;
      }

      .cls-19 {
        fill: #695a64;
      }

      .cls-20 {
        fill: #f1749b;
      }
    </style>
  </defs>
  <g>
    <g>
      <path class="cls-19" d="M227.08,451.93c13.73-15.44,31.04-21.8,44.86-12.75,13.82,9.05,17.73,27.77,8.68,41.59l-8.08,12.34c-9.05,13.83-27.76,17.73-41.59,8.69l-2.77,1.79c-13.83-9.05-15.37-33.22-6.31-47.05l5.21-4.61Z"/>
      <path class="cls-14" d="M219.14,454.75c-4.81,7.33-7.03,17.6-5.94,27.46,1.17,10.6,5.98,19.38,13.19,24.1l1.77,1.16,2.84-1.83c5.01,2.84,10.59,4.3,16.28,4.3,2.3,0,4.61-.24,6.92-.72,8.73-1.82,16.21-6.91,21.07-14.33l8.08-12.34c10.05-15.36,5.74-36.05-9.62-46.11-14.49-9.48-33.23-4.43-48.96,13.17l-5.39,4.77-.24.37ZM224.37,458.68l5.15-4.58c9.18-10.33,19.35-15.78,28.58-15.78,4.29,0,8.37,1.18,12.06,3.59,12.35,8.09,15.82,24.72,7.74,37.08l-8.08,12.34c-3.9,5.96-9.92,10.05-16.94,11.52-7.02,1.46-14.17.13-20.13-3.77l-1.77-1.16-2.66,1.72c-4.66-3.89-7.76-10.37-8.62-18.13-.91-8.24.84-16.72,4.68-22.81Z"/>
    </g>
    <path class="cls-14" d="M218.01,456.75c-9.73,14.86-7.55,39.17,8.36,49.59l1.79,1.18,2.84-1.83c7.03,3.98,15.19,5.25,23.21,3.57,7.17-1.5,13.49-5.19,18.22-10.57,1.04-1.18,2-2.43,2.88-3.77l8.07-12.34c4.86-7.42,6.53-16.33,4.71-25.08-1.83-8.74-6.92-16.23-14.34-21.09-14.5-9.49-33.26-4.44-49,13.17l-6.5,6.79-.25.37ZM224.4,458.71l5.15-4.59c13.43-15.11,28.99-19.78,40.59-12.18,5.94,3.89,10.03,9.9,11.49,16.92,1.47,7.01.13,14.15-3.77,20.1l-8.08,12.35c-8.08,12.35-24.69,15.81-37.02,7.73l-1.79-1.18-2.66,1.71c-4.64-3.88-7.73-10.34-8.58-18.09-.9-8.22.84-16.7,4.67-22.78Z"/>
    <g>
      <path class="cls-11" d="M274.17,471.68l15.63,45.24s5.32,16.1,12.52,30.32c0,0,7.36,11.34-1.72,16.5,0,0-43.82,14.05-46.51,14.82,0,0-8.96,2.78-12.41,1.34,0,0-8.72-7.32,9.19-27.66l4.51-6.62-31.87-54.27,50.65-19.67Z"/>
      <path class="cls-6" d="M218.77,489.7l32.76,55.79-3.23,4.75c-8.44,9.62-12.47,17.96-11.95,24.78.35,4.73,2.76,6.97,3.24,7.37l.38.32.46.19c1.13.47,2.54.65,4.04.65,4.09,0,8.86-1.35,10.59-1.89,2.64-.76,44.75-14.25,46.54-14.83l.62-.27c3.05-1.74,5.07-4.31,5.83-7.44,1.48-6.07-2.11-12.26-2.89-13.51-6.97-13.79-12.21-29.57-12.26-29.72v-.04s-16.76-48.44-16.76-48.44l-57.38,22.28ZM259.25,545.75l-30.97-52.75,43.91-17.05,14.52,42.02c.31.93,5.54,16.61,12.7,30.75l.17.3c.85,1.32,2.89,5.46,2.12,8.59-.32,1.31-1.1,2.31-2.44,3.14-15.24,4.88-44,14.08-46.07,14.68-3.67,1.13-7.87,1.8-9.66,1.6-.88-1.55-3.07-8.02,9.8-22.62l.25-.32,5.67-8.33Z"/>
    </g>
    <path class="cls-15" d="M258.79,550.71s18.95-9.53,30.87,5.81c0,0,5.77,7.14-39.1,17.84,0,0-9.89,2.03-8.3-2.63,0,0,7.34-18.69,16.52-21.01Z"/>
    <g>
      <path class="cls-11" d="M243.24,577.79l59.76-17.2c2.6-.75,5.33.76,6.08,3.36l.55,1.94c.75,2.59-.77,5.33-3.36,6.08l-59.76,17.2c-2.6.75-5.33-.77-6.08-3.36l-.56-1.94c-.75-2.6.77-5.33,3.36-6.08Z"/>
      <path class="cls-6" d="M236.75,584.77l.56,1.94c1.03,3.58,4.31,5.92,7.86,5.92.75,0,1.51-.1,2.26-.32l59.76-17.2c2.09-.6,3.83-1.99,4.89-3.9,1.06-1.91,1.31-4.12.71-6.21l-.55-1.93c-.61-2.1-2-3.84-3.91-4.89-1.92-1.06-4.12-1.31-6.22-.7l-59.76,17.2c-4.33,1.25-6.84,5.79-5.6,10.12ZM244.15,580.92l59.76-17.2c.16-.05.31-.06.45-.06.36,0,.64.12.8.21.23.12.63.42.8.99l.55,1.93c.16.57-.02,1.03-.15,1.26-.12.23-.42.63-.98.79l-59.76,17.21c-.86.25-1.79-.27-2.04-1.13l-.56-1.94c-.25-.86.27-1.8,1.13-2.04Z"/>
    </g>
    <g>
      <path class="cls-19" d="M264.57,459.39c19.24-3.75,31.53,60.01,31.53,60.01-11.26,14.91-36.96,19.93-36.96,19.93-7.47,3.31-14.67-.05-14.67-.05-31.71-43.39-26.81-55.36-26.81-55.36,10.71-23.7,46.91-24.52,46.91-24.52Z"/>
      <path class="cls-14" d="M214.68,482.57c-.98,2.39-4.06,15.93,27.15,58.63l.49.68.76.35c.23.11,3.97,1.82,9.01,1.82,2.45,0,5.21-.4,8.02-1.59,3.36-.7,27.31-6.16,38.59-21.09l.87-1.16-.27-1.42c-.98-5.06-9.98-49.76-25.7-60.38-3.03-2.05-6.18-2.81-9.37-2.26-3.7.13-38.5,1.99-49.55,26.43ZM220.67,485.15c9.68-21.41,43.63-22.49,43.97-22.5l.55-.06c1.55-.3,3.1.1,4.75,1.21,11.02,7.44,19.8,40.71,22.66,54.74-10.8,12.87-33.86,17.53-34.1,17.57l-.69.22c-4.76,2.11-9.53.84-11.27.24-28.25-38.85-25.91-51.33-25.87-51.43Z"/>
    </g>
    <g>
      <g>
        <path class="cls-9" d="M261.12,544.42c7.22,5.12,3.52,9.27,3.52,9.27-6.8,8.52-8.9,10.3-8.9,10.3-4.49,6.15-13.65-5.26-13.65-5.26,3.16-6.55,12.24-17.27,12.24-17.27,1.82-2.43,6.78,2.95,6.78,2.95Z"/>
        <path class="cls-19" d="M240.63,558.02l-.45.93.64.8c.64.79,6.33,7.69,11.56,7.69.05,0,.09,0,.14,0,1.76-.04,3.29-.85,4.43-2.35.61-.56,3.05-2.99,8.96-10.39.11-.12,1.57-1.84,1.26-4.51-.28-2.47-1.95-4.83-4.97-7-1.05-1.12-4.12-4.16-6.77-3.98-.95.05-1.79.49-2.37,1.24-.65.77-9.28,11.04-12.44,17.58ZM244.04,558.51c3.39-6.34,11.45-15.89,11.54-15.99l.07-.09s.03,0,.05,0c.64,0,2.72,1.48,4.22,3.1l.25.22c2.29,1.62,3.58,3.28,3.76,4.81.14,1.22-.51,2.03-.51,2.04-6.57,8.23-8.72,10.14-8.74,10.16l-.25.27c-.73,1.01-1.48,1.14-1.97,1.15-.02,0-.05,0-.07,0-2.49,0-6.16-3.2-8.34-5.67Z"/>
      </g>
      <g>
        <path class="cls-11" d="M255.32,548.15c3,2.13,1.46,3.85,1.46,3.85-2.82,3.54-3.69,4.28-3.69,4.28-1.87,2.55-5.67-2.18-5.67-2.18,1.31-2.72,5.08-7.17,5.08-7.17.76-1.01,2.82,1.23,2.82,1.23Z"/>
        <path class="cls-6" d="M245.96,553.38l-.45.93.64.8c.48.6,2.98,3.55,5.55,3.55.03,0,.05,0,.07,0,.99-.02,1.88-.48,2.53-1.28.38-.36,1.43-1.45,3.76-4.37.1-.11.9-1.08.73-2.57-.14-1.28-.94-2.47-2.38-3.52-.65-.68-2.06-1.95-3.49-1.88-.67.03-1.26.34-1.68.86-.35.42-3.94,4.7-5.28,7.49ZM249.41,553.85c1.13-1.9,3.03-4.28,3.89-5.34.28.21.61.5.82.73l.25.22c.95.67,1.28,1.26,1.13,1.5-2.6,3.26-3.46,4.04-3.49,4.07l-.24.26c-.43.13-1.47-.57-2.37-1.45Z"/>
      </g>
    </g>
    <path class="cls-19" d="M242.16,450.43c15.28-6.87,31.6-4.02,36.26,6.34l3.9,17.26c8.91,34.48-10.06,39.11-18.15,33.1l.57-5.78c-15.28,6.88-31.67,11.26-36.33.89l-7.99-11.24c-4.66-10.37,6.45-33.69,21.73-40.57Z"/>
    <path class="cls-8" d="M227.87,457.44c4.09-7.86,15.9-12.73,23.77-8.63,7.86,4.1,10.95,13.88,6.84,21.74l-9.27,17.8c-4.1,7.86-7.34,15.8-15.2,11.71l-4.69,1.4c-7.87-4.09-15.96-24.2-3.98-41.75l2.52-2.27Z"/>
    <path class="cls-8" d="M259.79,478.11c13.65-2.66,22.36,42.56,22.36,42.56-7.99,10.58-26.21,14.13-26.21,14.13-5.3,2.35-10.41-.04-10.41-.04-22.49-30.78-19.01-39.27-19.01-39.27,7.59-16.81,33.27-17.39,33.27-17.39Z"/>
  </g>
  <g>
    <g>
      <path class="cls-9" d="M144.95,349.41s26.86-.15,49.06-1.14c7.89-.35,21.41-18.86,33.56-28.27,14.11-10.93,44.42,4.87,31.6,30.07-1.78,3.49-17.99,31.78-43.66,42.27,0,0-30.89,10.83-68.78,6.58,0,0,12.5-29.07-1.77-49.52Z"/>
      <path class="cls-19" d="M143.72,397.64l-1.73,4.03,4.36.49c27.05,3.04,50.36-1.38,62.12-4.38,4.85-1.24,7.73-2.23,8.1-2.36l.15-.06c28.29-11.56,45.17-43.49,45.34-43.81,6.1-12,4.04-23.87-5.5-31.77-9.39-7.76-22.72-8.78-31-2.36-4.82,3.73-9.73,8.73-14.48,13.56-6.07,6.18-13.64,13.85-17.22,14.03-21.88.97-48.67,1.13-48.94,1.13l-6.21.04,3.56,5.09c13.04,18.69,1.56,46.09,1.45,46.36ZM151.24,396.09c2.72-8.23,7.37-27.21-.62-43.47,9.1-.1,27.6-.38,43.53-1.09,6.15-.27,13.31-7.55,21.59-15.97,4.6-4.68,9.35-9.51,13.82-12.98,5.84-4.52,15.87-3.54,22.85,2.23,3.37,2.79,10.5,10.7,3.85,23.79-.15.3-15.85,30-41.9,40.7-1.59.54-29.2,9.66-63.11,6.8Z"/>
    </g>
    <path class="cls-7" d="M198.53,350.83s14.82-11.69,25.39-22.8c0,0,5.3-6.5,10.18-5.97,0,0,16.46-3.48,7.42,26.2,0,0-13.55,19.42-31.87,27.31,0,0-10.2,2.84-16.07,3.05,0,0,.23-14.16-11.66-26.35,0,0,13.34.28,16.62-1.43Z"/>
    <g>
      <g>
        <path class="cls-11" d="M138.11,347.37l38.98-6.21c21.5,35.31-.5,67.28-.5,67.28-14.09.02-35.23-9.74-35.23-9.74,14.42-30.73-3.25-51.33-3.25-51.33Z"/>
        <path class="cls-6" d="M138.41,397.32l-1.39,2.97,2.98,1.38c.89.41,21.96,10.06,36.6,10.04h1.71s.97-1.41.97-1.41c.23-.34,22.94-34.13.6-70.83l-1.14-1.87-46.91,7.48,3.8,4.43c.66.78,16.07,19.49,2.78,47.82ZM145.67,397.02c9.33-22.55,2.53-39.52-1.97-47.23l31.71-5.05c16.16,28.53,3.19,54.05-.59,60.4-10.05-.56-23.33-5.68-29.15-8.11Z"/>
      </g>
      <path class="cls-15" d="M142.86,351.29l32.01-6.28s17.89,46.7-26.72,48.27c0,0,7.54-18.29-5.29-41.99Z"/>
      <g>
        <path class="cls-6" d="M156.09,373.28c.93-1.38,1.94-2.7,3.06-3.95,1.14-1.24,2.34-2.44,3.83-3.44-.36,1.76-1,3.33-1.7,4.86-.72,1.52-1.55,2.96-2.48,4.35-.92,1.39-1.94,2.71-3.06,3.96-1.14,1.24-2.34,2.43-3.84,3.44.36-1.76.99-3.33,1.7-4.86.72-1.52,1.55-2.96,2.48-4.35Z"/>
        <path class="cls-6" d="M156.31,370.35c1.07,1.3,2.03,2.68,2.89,4.1.86,1.43,1.63,2.92,2.29,4.47.64,1.56,1.22,3.16,1.5,4.95-1.45-1.08-2.6-2.33-3.69-3.63-1.07-1.3-2.03-2.68-2.89-4.1-.86-1.43-1.63-2.92-2.29-4.47-.64-1.56-1.21-3.17-1.49-4.95,1.45,1.07,2.6,2.33,3.69,3.63Z"/>
      </g>
      <g>
        <path class="cls-6" d="M169.32,374c.92-1.38,1.94-2.7,3.06-3.96,1.14-1.24,2.34-2.43,3.83-3.44-.36,1.76-1,3.33-1.7,4.86-.73,1.52-1.55,2.96-2.48,4.35-.92,1.38-1.94,2.7-3.05,3.96-1.14,1.24-2.35,2.44-3.84,3.44.35-1.76.99-3.33,1.7-4.86.73-1.52,1.56-2.96,2.48-4.34Z"/>
        <path class="cls-6" d="M169.54,371.06c1.07,1.31,2.03,2.68,2.89,4.11.86,1.43,1.63,2.91,2.29,4.46.64,1.57,1.21,3.17,1.49,4.95-1.44-1.08-2.6-2.33-3.68-3.63-1.07-1.31-2.03-2.68-2.89-4.1-.87-1.43-1.63-2.91-2.29-4.47-.64-1.56-1.21-3.17-1.49-4.95,1.45,1.08,2.6,2.33,3.69,3.62Z"/>
      </g>
    </g>
  </g>
  <g>
    <g>
      <g>
        <path class="cls-11" d="M92.32,351.21c11.79-6.92,20.33-3.82,20.33-3.82l19.02-4.19c23.79,9.78,16.19,37.35,16.19,37.35l4.09,12.4-1.81,9.86c-5.43,14.65-38.71,15.27-38.71,15.27-14.75-6.06-13.94-23.69-13.94-23.69-11.73-4.2-5.5-15.3-5.5-15.3-13.48-1.82-5.58-18.66-5.58-18.66l5.93-9.23Z"/>
        <path class="cls-6" d="M83.44,359.06c-.51,1.08-4.83,10.72-1.12,17.52.87,1.6,2.46,3.5,5.31,4.72-.63,2.32-.97,5.42.19,8.51,1.09,2.92,3.25,5.19,6.44,6.76.31,5.47,2.48,19.01,15.92,24.53l.62.26h.68c3.63-.08,35.68-1.15,41.71-17.41l.15-.54,1.96-10.68-4.05-12.28c2.62-10.84,1.96-31.91-18.35-40.26l-.94-.39-19.22,4.24c-2.86-.7-11.35-1.92-22.07,4.37l-.67.39-6.56,10.26ZM89.26,362.01l5.38-8.37c9.81-5.49,16.64-3.28,16.93-3.18l.86.29.92-.18,17.99-3.96c19.68,8.86,13.64,32.08,13.36,33.08l-.26.95,4.14,12.54-1.61,8.74c-3.99,9.84-25.88,12.6-34.93,12.88-11.77-5.32-11.34-19.65-11.31-20.27l.1-2.39-2.26-.82c-2.5-.9-4.02-2.14-4.65-3.8-1.12-3,.87-6.79.89-6.82l2.35-4.19-4.76-.64c-3.29-.44-4.1-1.92-4.37-2.41-1.77-3.25.26-9.3,1.21-11.44Z"/>
      </g>
      <path class="cls-6" d="M83.44,359.06c-.51,1.08-4.83,10.72-1.12,17.53.87,1.6,2.46,3.5,5.31,4.72-.63,2.32-.97,5.42.19,8.51,1.09,2.92,3.25,5.18,6.43,6.76.31,5.47,2.48,19.01,15.93,24.53l.63.26h.68c3.63-.08,35.68-1.14,41.71-17.41l.15-.54,1.96-10.68-4.06-12.28c2.62-10.84,1.96-31.91-18.35-40.26l-.94-.39-19.22,4.23c-2.85-.69-11.35-1.91-22.07,4.37l-.67.4-6.56,10.26ZM89.26,362.01l5.37-8.36c9.81-5.48,16.65-3.28,16.93-3.18l.86.29.93-.18,17.99-3.96c19.78,8.9,13.64,32.07,13.36,33.07l-.26.95,4.14,12.54-1.61,8.74c-3.99,9.83-25.87,12.59-34.93,12.88-11.86-5.36-11.32-20.11-11.32-20.26l.11-2.41-2.27-.81c-2.5-.9-4.02-2.14-4.64-3.8-1.12-3,.87-6.79.89-6.82l2.34-4.19-4.75-.64c-3.29-.44-4.1-1.92-4.36-2.41-1.77-3.25.26-9.31,1.21-11.45Z"/>
    </g>
    <g>
      <rect class="cls-9" x="96.19" y="329.01" width="31.02" height="112.27" transform="translate(-75.58 30.55) rotate(-11.67)"/>
      <path class="cls-19" d="M118.08,323.18l-36.77,7.59,24.01,116.34,36.76-7.59-24.01-116.34ZM113.01,330.89l21.37,103.56-23.99,4.95-21.38-103.56,23.99-4.95Z"/>
    </g>
    <g>
      <g>
        <path class="cls-9" d="M156.23,426.56c1.89,23.91-26.32,29.73-26.32,29.73-34.97,7.35-37.86-16.49-37.86-16.49,28.15-18.3,64.18-13.25,64.18-13.25Z"/>
        <path class="cls-19" d="M90.27,437.07l-1.71,1.11.25,2.02c.05.38,1.22,9.33,9.69,15.4,5,3.58,11.36,5.37,19,5.37,4.01,0,8.37-.49,13.08-1.48,10.72-2.21,30.58-12,28.9-33.18l-.21-2.61-2.59-.36c-1.52-.21-37.57-5.01-66.42,13.74ZM95.76,441.33c22.1-13.33,48.79-12.49,57.29-11.82-.56,18.56-22.81,23.38-23.8,23.58-11.76,2.47-20.78,1.55-26.85-2.74-4.14-2.92-5.91-6.75-6.64-9.03Z"/>
      </g>
      <path class="cls-7" d="M135.37,430.29c-17.9,4.04-22.37,14.46-22.37,14.46,1.75,8.98,17.11,9.11,17.11,9.11-26.22,7.91-30.8-13.44-30.8-13.44,9.78-7.7,17.4-9.27,17.4-9.27,10.18-1.77,18.66-.86,18.66-.86Z"/>
      <path class="cls-16" d="M101.89,443.2c5.74,12.81,23.23,12.53,23.23,12.53-24.2,4.99-30.76-14.41-30.76-14.41,7.6-6.49,17.79-8.63,17.79-8.63-10.99,4.83-10.26,10.5-10.26,10.5Z"/>
    </g>
    <g>
      <path class="cls-13" d="M134.89,382.08c-.91-.08-1.86-.19-2.8-.41.59-.81,1.22-1.58,1.99-2.36l.81,2.77Z"/>
      <path class="cls-6" d="M129.04,369.07c-.05.64-.07,1.3-.02,1.93.06,1.28.3,2.51.73,3.62.43,1.11,1.13,2.02,2.05,2.78.89.8,2.14,1.2,3.43,1.58l3.41,1-2.6,1.76c-.99.68-2.04,1.61-2.93,2.56-.91.97-1.72,2.04-2.38,3.2-.64,1.17-1.09,2.44-1.32,3.78-.23,1.35-.08,2.74.23,4.11-.55-1.29-.99-2.68-1.01-4.15-.03-1.46.2-2.94.67-4.36.48-1.4,1.15-2.74,1.94-4,.27-.42.55-.81.84-1.21.94.22,1.89.33,2.8.41l-.81-2.77c-.77.77-1.4,1.55-1.99,2.36-.81-.19-1.62-.46-2.39-.9-1.65-.86-3.15-2.22-4.16-3.81-1.02-1.58-1.69-3.31-2.12-5.04-.22-.86-.37-1.74-.47-2.62-.1-.92-.17-1.69-.13-2.79l6.48.78c-.12.42-.2,1.18-.25,1.79Z"/>
    </g>
    <g>
      <path class="cls-11" d="M86.37,353.1c8.9-9.81,26.83-3.15,26.83-3.15-16.99,2.93-4.85,20.86-4.85,20.86-14.21-5.29-20.83,9.62-20.83,9.62-13.83-6.46-4.38-22.9-4.38-22.9l3.24-4.43Z"/>
      <path class="cls-6" d="M80.3,355.91c-.22.39-5.48,9.69-2.82,18.1,1.31,4.15,4.22,7.31,8.65,9.38l3.01,1.41,1.35-3.04c.57-1.26,5.8-11.97,16.72-7.9l9.56,3.56-5.73-8.45c-1.35-2-4.84-8.59-3.23-12.36.74-1.73,2.73-2.9,5.93-3.44l11.93-2.06-11.35-4.21c-.82-.31-20.12-7.3-30.38,4.01l-.22.27-3.43,4.73ZM85.89,359.29l3-4.11c3.79-4.06,9.8-4.52,14.74-4.01-.75.86-1.36,1.83-1.82,2.9-1.73,4.06-.77,8.7.62,12.34-7.61,0-13.09,4.94-16.11,9.48-1.27-1.05-2.14-2.31-2.61-3.82-1.67-5.23,1.64-11.76,2.18-12.78Z"/>
    </g>
    <g>
      <g>
        <path class="cls-11" d="M106.73,370.1c10.25,1.79,16.01,15.8,16.01,15.8.96,8.61-14.12,8.27-14.12,8.27-16.04-.86-14.34,7.53-14.34,7.53-15.22-7.59-7.23-20.1-7.23-20.1,9.7-16.26,19.68-11.51,19.68-11.51Z"/>
        <path class="cls-6" d="M84.25,379.93c-.11.17-3.94,6.28-2.01,13.23,1.32,4.76,4.88,8.61,10.59,11.46l5.98,2.98-1.33-6.55h0s-.06-.81.66-1.59c.69-.74,3.09-2.43,10.3-2.04,1.19.03,10.81.1,15.29-4.79,1.77-1.93,2.55-4.39,2.24-7.1l-.05-.45-.17-.42c-.26-.63-6.46-15.4-18.12-17.71-2.46-.91-13.4-3.76-23.39,12.98ZM89.8,383.36c8.01-13.42,15.45-10.35,15.52-10.32l.4.19.44.08c6.66,1.16,11.7,9.63,13.35,13.36,0,.79-.29,1.23-.59,1.56-1.97,2.16-7.76,2.74-10.23,2.68-.8-.04-1.58-.06-2.32-.06-6.22,0-10.69,1.49-13.24,4.44-.37.43-.67.86-.93,1.29-1.91-1.52-3.14-3.24-3.67-5.15-1.14-4.12,1.25-8.03,1.27-8.06Z"/>
      </g>
      <path class="cls-6" d="M84.27,379.91c-.43.7-3.88,6.59-2.03,13.26,1.31,4.75,4.88,8.61,10.59,11.46l5.98,2.98-1.33-6.55s-.06-.81.66-1.58c.69-.75,3.09-2.45,10.3-2.04,1.18.03,10.81.11,15.29-4.79,1.77-1.94,2.55-4.39,2.24-7.1l-.05-.45-.18-.43c-.26-.63-6.46-15.41-18.12-17.71-2.47-.92-13.39-3.75-23.37,12.96ZM89.81,383.36l.05-.09c7.9-13.25,15.22-10.33,15.53-10.2l.35.15.44.09c6.62,1.16,11.68,9.63,13.35,13.37,0,.78-.29,1.22-.59,1.55-1.95,2.14-7.74,2.79-10.24,2.68-.71-.04-1.4-.06-2.06-.07-6.35-.04-10.92,1.45-13.51,4.44-.36.42-.67.85-.93,1.28-1.91-1.52-3.14-3.24-3.67-5.15-1.14-4.12,1.25-8.02,1.28-8.06Z"/>
      <polygon class="cls-13" points="97.48 401.05 97.48 401.05 97.48 401.05 97.48 401.05"/>
    </g>
    <g>
      <g>
        <path class="cls-11" d="M103.87,393.17c26.25-.16,23.16,16.54,23.16,16.54-2.64,10.1-24.68,10.52-24.68,10.52-9.98-6.32-9.56-16.78-9.56-16.78,1.82-7.43,11.08-10.29,11.08-10.29Z"/>
        <path class="cls-6" d="M89.53,403.33c-.02.5-.37,12.42,11.07,19.66l.83.52.98-.02c2.51-.05,24.6-.83,27.78-12.96l.05-.23c.05-.28,1.21-6.89-3.58-12.61-4.38-5.24-12.11-7.8-22.81-7.79h-.48s-.46.15-.46.15c-.45.14-11.05,3.52-13.28,12.63l-.09.64ZM96.05,403.9c1.35-4.52,6.84-6.88,8.38-7.47,8.25.03,14.17,1.88,17.16,5.38,2.6,3.04,2.33,6.53,2.24,7.23-1.63,5.43-13.89,7.6-20.55,7.91-6.65-4.69-7.2-11.53-7.24-13.04Z"/>
      </g>
      <path class="cls-6" d="M89.53,403.33c-.02.51-.36,12.42,11.08,19.66l.83.53.98-.02c2.51-.05,24.6-.82,27.78-12.96l.05-.23c.05-.28,1.21-6.89-3.58-12.61-4.38-5.24-12.07-7.85-22.81-7.79h-.48s-.47.14-.47.14c-.45.14-11.04,3.52-13.28,12.63l-.1.65ZM96.05,403.89c1.35-4.52,6.82-6.88,8.38-7.47.06,0,.13,0,.19,0,8.15.05,14.01,1.9,16.97,5.37,2.6,3.04,2.33,6.53,2.24,7.23-1.62,5.41-13.89,7.59-20.55,7.91-6.64-4.69-7.2-11.53-7.23-13.04Z"/>
    </g>
    <g>
      <path class="cls-15" d="M101.28,396.06c8.75-1.88,15.61,2.67,15.61,2.67,5.44,11.1-10.58,7.56-10.58,7.56.92,5.37-4.36,8.22-4.36,8.22-5.88-.11-8.64-9.51-8.64-9.51-1.43-7.08,7.97-8.95,7.97-8.95Z"/>
      <path class="cls-6" d="M107.19,397.74c0,1.44.07,2.88.18,4.33.12,1.44.31,2.86.62,4.26.34,1.39.76,2.78,1.78,3.89-1.37-.67-2.41-1.96-3.27-3.22-.86-1.29-1.61-2.66-2.28-4.05-.66-1.4-1.27-2.82-1.84-4.26-.56-1.45-1.08-2.86-1.55-4.43l6.48-.79c-.1,1.35-.13,2.84-.12,4.28Z"/>
    </g>
    <g>
      <path class="cls-15" d="M95.14,376.12c8.58-5.98,15.83.41,15.83.41,6.98,10.21-9.9,7.45-9.9,7.45,1.68,5.18-7.78,10.31-7.78,10.31-5.83.74-4.76-3.02-4.76-3.02-2.43-6.79,6.61-15.15,6.61-15.15Z"/>
      <path class="cls-6" d="M101.23,376.94c.22,1.43.48,2.85.8,4.26.32,1.4.72,2.79,1.23,4.13.53,1.33,1.15,2.65,2.32,3.59-1.44-.46-2.67-1.59-3.7-2.72-1.04-1.15-1.97-2.4-2.84-3.69-.86-1.28-1.66-2.61-2.43-3.95-.76-1.36-1.47-2.69-2.17-4.17l6.3-1.7c.1,1.35.28,2.83.49,4.24Z"/>
    </g>
    <g>
      <path class="cls-15" d="M89.47,353.94c8.39-3.11,13.25-2.17,13.25-2.17,6.98,10.21-8.36,12.1-8.36,12.1,1.68,5.18-7.78,10.31-7.78,10.31-4.09-1.63-3.72-5.08-3.72-5.08-2.43-6.8,6.61-15.15,6.61-15.15Z"/>
      <path class="cls-6" d="M94.02,355.27c.21,1.43.48,2.85.79,4.26.33,1.4.72,2.79,1.23,4.13.53,1.33,1.16,2.64,2.32,3.59-1.44-.47-2.66-1.59-3.7-2.72-1.03-1.16-1.97-2.41-2.84-3.69-.86-1.28-1.67-2.6-2.43-3.95-.77-1.36-1.48-2.68-2.17-4.17l6.29-1.7c.1,1.35.28,2.83.5,4.24Z"/>
    </g>
    <g>
      <g>
        <path class="cls-11" d="M110.17,344.32l6.21-2.22c17.67-2.49,25.19,8.22,25.19,8.22l-16.21,11.71c-3.43,20.43-13.41,16.95-13.41,16.95-6.3-1.5-6.03-11.13-6.03-11.13-6.74-23.91,4.25-23.52,4.25-23.52Z"/>
        <path class="cls-6" d="M109.5,341.09l5.78-2.06.64-.16c19.42-2.74,27.96,9.07,28.31,9.58l-5.32,3.77c-.27-.37-6.66-8.92-21.76-6.93l-6.48,2.32-.63-.02s-.87.1-1.62,1.05c-1.01,1.28-2.96,5.62.63,18.32l.13.48v.5c-.01.07,0,7.03,3.52,7.87l.22.06c.06.01,1.4.37,3.01-.66,1.63-1.03,4.59-4.19,6.2-13.72l6.43,1.08c-1.58,9.4-4.76,15.57-9.46,18.35-2.09,1.24-4.06,1.55-5.56,1.54-1.18,0-2.06-.22-2.47-.33-6.66-1.67-8.43-9.24-8.44-13.85-3.1-11.22-2.88-19.17.65-23.67,2.16-2.75,4.86-3.37,6.19-3.51Z"/>
      </g>
      <path class="cls-15" d="M119.69,356c1.96,20.41-9.36,15.01-9.36,15.01-4.83-7.94-3.35-20.96-3.35-20.96,13.47-2.14,12.71,5.95,12.71,5.95Z"/>
    </g>
    <g>
      <g>
        <g>
          <g>
            <path class="cls-9" d="M37.84,7.95c8.37,3.36,19.48,26.64,19.48,26.64,29.57,73.34,71.88,287.72,71.88,287.72l-25.4,5.24-1.2.25-25.39,5.24S31.18,119.43,29.3,40.38c0,0,.99-25.78,7.34-32.18l1.21-.25Z"/>
            <path class="cls-19" d="M26.04,40.25v.1s0,.1,0,.1c1.87,78.46,47.53,291.13,47.99,293.27l.68,3.16,58.33-12.04-.63-3.17c-.42-2.15-42.7-215.52-72.05-288.3l-.08-.19c-1.95-4.08-12.12-24.62-21.21-28.26l-.91-.36-3.13.64-.7.7c-6.9,6.95-8.11,29.84-8.29,34.35ZM32.56,40.4c.35-8.7,2.11-23.22,5.44-28.65,5.22,3.67,12.58,16.31,16.34,24.16,27.16,67.45,65.64,256.97,71.03,283.86l-45.64,9.42c-5.7-26.83-45.4-216.1-47.17-288.79Z"/>
          </g>
          <path class="cls-7" d="M37.42,11.98c41.82,92.52,67.15,321.33,67.15,321.33-35.13,14.91-23.75-22.74-23.75-22.74C29.23,76.4,37.42,11.98,37.42,11.98Z"/>
          <path class="cls-16" d="M38.59,12.16c-.79,5.98,1.47,32.24,1.47,32.24,4.76,69.53,43.91,239.05,54.14,282.5l-14.76,3.05S34.45,121.18,32.61,43.92c0,0-1.16-24.76,5.05-31.01,0,0,.57-.95.93-.74Z"/>
          <path class="cls-16" d="M106.84,313.66c-11.29-59.54-42.9-190.82-42.9-190.82,34.86,69.99,47.55,162.22,47.55,162.22,2.49,25.81-4.64,28.6-4.64,28.6Z"/>
          <g>
            <path class="cls-19" d="M95.13,331.95l2.97-.38c.21.97.42,1.93.63,2.9l-3.6-2.52Z"/>
            <path class="cls-19" d="M57.18,127.3c4.08,23.12,8.46,46.2,12.9,69.25,4.57,23.03,9.1,46.07,13.94,69.04,4.55,22.02,9.21,44.03,14.09,65.96l-2.97.38,3.6,2.52c-.22-.97-.42-1.93-.63-2.9l8.23-1.06c.18,1.09.38,2.18.56,3.27l2.77-3.7-3.33.43c-3.36-20.49-7.65-40.92-11.91-61.34-2.26-10.75-4.6-21.49-6.97-32.22l-7.13-32.2-29.07-128.74c6.1,21.15,11.73,42.42,17.47,63.66,5.63,21.27,11.12,42.58,16.37,63.96,5.33,21.35,10.36,42.78,15.2,64.27,4.86,21.48,9.36,43.04,12.98,64.88l.54,3.25-3.31.44-14.52,1.94-2.96.4-.64-2.91c-5.06-22.99-9.84-46-14.43-69.06-4.48-23.08-8.92-46.18-12.89-69.35-4.02-23.17-7.72-46.39-11.06-69.67-1.53-11.66-3.16-23.3-4.48-34.99-.66-5.84-1.45-11.67-2-17.52l-1.67-17.55c1.8,11.62,3.48,23.24,5.39,34.83,1.81,11.6,3.93,23.16,5.94,34.72Z"/>
            <path class="cls-19" d="M106.9,333.76c-.17-1.09-.38-2.18-.56-3.27l3.33-.43-2.77,3.7Z"/>
          </g>
        </g>
        <g>
          <path class="cls-9" d="M102.97,325.52c32.08-6.62,58.83-8.43,59.74-4.03.9,4.4-24.37,13.33-56.45,19.95-32.09,6.62-58.83,8.42-59.74,4.02-.91-4.39,24.36-13.32,56.45-19.95Z"/>
          <path class="cls-19" d="M43.32,346.13c.62,3,3.4,5.02,13.7,5.02,2.25,0,4.86-.1,7.89-.3,11.42-.77,26.34-2.97,42-6.2,15.65-3.23,30.22-7.11,41.02-10.93,15.95-5.64,18.71-9.22,17.96-12.88-.76-3.65-4.71-5.85-21.59-4.71-11.43.77-26.34,2.98-42,6.21-15.66,3.23-30.23,7.11-41.02,10.93-15.95,5.64-18.71,9.22-17.96,12.87ZM51.68,344.41c6.22-3.65,24.72-10.07,51.94-15.69,27.23-5.62,46.75-7.06,53.91-6.16-6.22,3.66-24.72,10.07-51.94,15.69-27.23,5.62-46.75,7.05-53.91,6.15Z"/>
        </g>
      </g>
      <path class="cls-7" d="M83.11,332.62c13.45-3.02,24.61-4.21,25.31-.82.7,3.39-10.07,6.49-23.57,9.27-17.87,3.68-30.11,1.81-30.11,1.81,0,0,3.77-4.74,28.36-10.26Z"/>
    </g>
  </g>
  <g>
    <g>
      <path class="cls-19" d="M320.48,466.37c13.74-9.18,32.49-5.45,41.67,8.28l8.19,12.27c9.19,13.74,5.46,32.49-8.28,41.67l.56,3.25c-13.74,9.18-36.59,1.15-45.76-12.6l-2.2-6.6c-8.84-18.67-7.92-37.09,5.81-46.28Z"/>
      <path class="cls-14" d="M311.63,513.86l2.28,6.83.24.36c4.87,7.29,13.45,13.35,22.95,16.21,3.91,1.17,7.78,1.76,11.47,1.76,5.96,0,11.44-1.51,15.87-4.47l1.76-1.18-.58-3.33c6.41-4.91,10.78-11.92,12.37-19.95,1.74-8.75-.02-17.63-4.95-24.99l-8.19-12.27c-10.21-15.26-30.93-19.38-46.2-9.18-14.39,9.62-17.08,28.85-7.03,50.21ZM322.29,469.08c12.28-8.2,28.94-4.89,37.15,7.38l8.19,12.27c3.96,5.92,5.37,13.06,3.97,20.1-1.4,7.04-5.43,13.09-11.35,17.05l-1.76,1.18.54,3.12c-5.4,2.77-12.58,3.09-20.05.84-7.94-2.39-15.06-7.32-19.16-13.23l-2.21-6.53c-8.66-18.29-6.87-34.45,4.68-42.17Z"/>
    </g>
    <path class="cls-14" d="M311.6,513.87l3.71,8.64.24.37c9.87,14.77,33.09,22.27,48.91,11.7l1.78-1.19-.58-3.33c6.41-4.91,10.77-11.92,12.37-19.97,1.43-7.18.5-14.45-2.6-20.9-.68-1.41-1.46-2.79-2.34-4.12l-8.2-12.26c-4.93-7.38-12.47-12.4-21.23-14.14-8.76-1.74-17.64.02-25.02,4.95-14.41,9.63-17.1,28.87-7.04,50.25ZM322.32,469.11c5.91-3.95,13.04-5.36,20.07-3.96,7.03,1.39,13.08,5.42,17.03,11.33l8.2,12.26c8.21,12.26,4.89,28.9-7.37,37.1l-1.78,1.19.54,3.12c-5.38,2.75-12.54,3.06-20,.82-7.92-2.38-15.04-7.31-19.13-13.21l-2.21-6.53c-8.65-18.27-6.87-34.42,4.67-42.12Z"/>
    <g>
      <path class="cls-11" d="M399.02,480.34s16.9,1.41,32.8.33c0,0,13.31-2.34,14.51,8.04,0,0-4.22,45.83-4.56,48.6,0,0-.95,9.33-3.62,11.94,0,0-10.15,5.16-21.85-19.28l-4.33-6.74-62.41,8.1,1.71-54.3,47.75,3.31Z"/>
      <path class="cls-6" d="M348.11,473.55l-1.94,61.52,64.16-8.33,3.1,4.83c5.56,11.54,11.66,18.5,18.13,20.7,1.57.53,2.96.71,4.12.71,2.17,0,3.57-.63,3.93-.82l.44-.23.36-.35c3.26-3.19,4.34-11.48,4.59-13.94.34-2.73,4.39-46.76,4.56-48.64l.03-.34-.04-.34c-.4-3.49-1.98-6.35-4.56-8.28-5.01-3.74-12.11-2.86-13.56-2.63-15.41,1.02-31.99-.33-32.15-.34h-.04s-51.13-3.54-51.13-3.54ZM352.94,527.61l1.48-47.09,44.35,3.07c.98.08,17.46,1.4,33.27.34l.34-.04c1.55-.26,6.16-.52,8.74,1.41,1.08.81,1.69,1.92,1.93,3.48-1.47,15.93-4.25,46-4.51,48.14-.39,3.82-1.42,7.95-2.31,9.52-1.78.22-8.58-.31-16.98-17.87l-.2-.35-5.44-8.48-60.66,7.87Z"/>
    </g>
    <path class="cls-15" d="M435.4,495.96s8.83-2.52,1.12,42.96c0,0-2,9.9-5.67,6.61,0,0-14.32-14.07-12.87-23.42,0,0-1.36-21.17,17.42-26.14Z"/>
    <g>
      <path class="cls-11" d="M449.84,481l2,.25c2.68.33,4.61,2.79,4.28,5.47l-7.55,61.73c-.33,2.68-2.79,4.61-5.47,4.28l-2-.25c-2.68-.32-4.61-2.79-4.28-5.47l7.55-61.73c.32-2.68,2.79-4.61,5.47-4.28Z"/>
      <path class="cls-6" d="M433.58,546.61c-.26,2.16.33,4.3,1.68,6.03,1.35,1.72,3.28,2.81,5.44,3.08l2,.25c.34.04.67.06,1.01.06,1.81,0,3.57-.6,5.02-1.74,1.72-1.35,2.82-3.28,3.08-5.44l7.55-61.73c.55-4.47-2.65-8.56-7.13-9.11l-2-.25c-2.17-.26-4.3.33-6.03,1.68-1.72,1.35-2.82,3.28-3.08,5.45l-7.55,61.72ZM440.06,547.4l7.55-61.73c.07-.58.42-.94.62-1.09.18-.14.53-.36,1.02-.36.06,0,.13,0,.2.01l2,.25c.89.11,1.55.95,1.44,1.84l-7.55,61.73c-.07.58-.42.93-.62,1.09-.2.16-.64.42-1.21.34l-2-.25c-.59-.07-.94-.42-1.1-.62-.16-.2-.42-.63-.34-1.21Z"/>
    </g>
    <g>
      <path class="cls-19" d="M403.76,475.52c9.32,16.2,3.88,41.81,3.88,41.81.12,8.17-5.79,13.48-5.79,13.48-52.34,12.21-61.44,3.02-61.44,3.02-17.62-19.13-4.21-52.77-4.21-52.77,4.08-19.17,67.56-5.54,67.56-5.54Z"/>
      <path class="cls-14" d="M333.07,480.11c-1.33,3.45-13.23,36.21,4.94,55.94,1.08,1.09,5.48,4.4,19.63,4.4,9.71,0,24-1.55,44.95-6.44l.81-.19.62-.56c.28-.25,6.84-6.25,6.87-15.59.67-3.37,5.01-27.55-4.32-43.76l-.72-1.26-1.42-.31c-5.04-1.08-49.7-10.28-65.62.04-3.07,1.99-5,4.59-5.75,7.74ZM342.69,531.5s.04.04.04.04c0,0-.01-.02-.04-.04ZM339.23,482.27l.16-.53c.33-1.54,1.3-2.81,2.98-3.9,11.16-7.23,45.21-2.29,59.25.56,7.64,15.01,2.89,38.01,2.83,38.25l-.08.36v.37c.08,5.2-2.94,9.09-4.18,10.47-45.55,10.51-56.64,4.18-57.55,3.58-15.78-17.31-3.54-48.85-3.41-49.17Z"/>
    </g>
    <g>
      <g>
        <path class="cls-9" d="M413.1,517.5c7.53-4.64,9.91.39,9.91.39,5.18,9.59,6,12.22,6,12.22,3.91,6.54-10.17,10.51-10.17,10.51-4.8-5.47-11.1-18.02-11.1-18.02-1.53-2.63,5.37-5.09,5.37-5.09Z"/>
        <path class="cls-19" d="M406.08,520.69c-.33.89-.25,1.83.21,2.66.46.9,6.52,12.86,11.32,18.33l.68.77.99-.28c.99-.28,9.7-2.86,11.65-7.76.65-1.63.5-3.36-.43-5-.28-.78-1.56-3.98-6.05-12.31-.07-.15-1.08-2.16-3.66-2.93-2.38-.71-5.21-.09-8.39,1.84-1.44.53-5.4,2.18-6.31,4.67ZM409.13,521.75c.15-.57,2.39-1.96,4.52-2.72l.31-.15c1.85-1.14,3.49-1.72,4.83-1.72.38,0,.74.05,1.07.15,1.18.35,1.67,1.26,1.68,1.27,5,9.26,5.92,11.99,5.92,12.02l.15.34c.64,1.07.47,1.81.29,2.27-.92,2.32-5.35,4.47-8.51,5.52-4.51-5.6-10.14-16.76-10.2-16.88l-.06-.1Z"/>
      </g>
      <g>
        <path class="cls-11" d="M414.26,524.29c3.13-1.93,4.11.16,4.11.16,2.15,3.98,2.49,5.07,2.49,5.07,1.62,2.72-4.22,4.36-4.22,4.36-1.99-2.27-4.61-7.48-4.61-7.48-.63-1.09,2.23-2.11,2.23-2.11Z"/>
        <path class="cls-6" d="M410.45,525.29c-.23.63-.18,1.29.14,1.88.25.49,2.79,5.47,4.83,7.79l.68.77.99-.28c.74-.21,4.5-1.38,5.46-3.79.37-.92.3-1.92-.19-2.83-.18-.49-.78-1.89-2.55-5.16-.06-.14-.65-1.25-2.08-1.68-1.24-.37-2.64-.1-4.17.81-.88.33-2.61,1.14-3.1,2.47ZM413.82,526.3c.28-.17.66-.35,1-.47l.3-.15c.66-.4,1.18-.58,1.5-.58.16,0,.27.04.33.12,1.98,3.66,2.36,4.76,2.38,4.81l.15.32c-.04.43-1.03,1.11-2.26,1.61-1.31-1.78-2.76-4.46-3.39-5.67Z"/>
      </g>
    </g>
    <path class="cls-19" d="M339.21,467.29l17.41,3.16c35.22,5.29,32.06,24.55,23.36,29.65l-5.1-2.78c.35,16.75-2.03,33.55-13.39,33.79l-13.47,2.95c-11.36.23-28.48-19.12-28.83-35.87-.35-16.75,8.66-30.65,20.02-30.89Z"/>
    <path class="cls-8" d="M344.09,491.04l12.75,15.49c5.63,6.85,11.67,12.93,4.83,18.57l-.55,4.86c-6.85,5.64-28.51,5.22-39.98-12.67l-1.1-3.21c-5.63-6.85-5.49-19.61,1.35-25.25,6.84-5.63,17.06-4.64,22.69,2.21Z"/>
    <path class="cls-8" d="M399.47,488.85c6.61,11.49,2.75,29.65,2.75,29.65.08,5.8-4.11,9.56-4.11,9.56-37.12,8.66-43.57,2.14-43.57,2.14-12.5-13.56-2.99-37.42-2.99-37.42,2.89-13.6,47.91-3.93,47.91-3.93Z"/>
  </g>
  <g>
    <g>
      <path class="cls-9" d="M263.46,299.78c71.49,16.83,110.84,0,110.84,0,13.35-10.23,10.26,1.46,10.26,1.46-19.46,13.39-23.39,35.84-23.39,35.84-2.08,10.08-16.27,11.34-16.27,11.34-53.86,5.52-103.78-8.07-103.78-8.07,8.75-31.21,22.34-40.56,22.34-40.56Z"/>
      <path class="cls-19" d="M237.98,339.45l-.89,3.16,3.17.86c.42.11,35.45,9.49,78.17,9.49,8.69,0,17.69-.39,26.79-1.32.63-.06,16.59-1.61,19.13-13.92.06-.3,4-21.4,22.05-33.81l1-.69.31-1.17c.28-1.06,1.49-6.44-2.13-8.85-3.72-2.48-8.81.59-12.91,3.69-4,1.54-42.51,15.21-108.47-.31l-1.41-.33-1.19.82c-.59.41-14.67,10.38-23.63,42.37ZM245.21,337.99c6.8-22.21,16.01-31.92,19.08-34.67,70.72,16.27,109.66.16,111.3-.54l.38-.16.32-.25c2.77-2.12,4.42-2.96,5.32-3.3,0,.09-.01.19-.02.28-19.38,14.06-23.46,36.21-23.63,37.16-1.54,7.46-13.23,8.64-13.35,8.65-44.96,4.61-87.56-4.36-99.39-7.17Z"/>
    </g>
    <path class="cls-7" d="M348.04,312.22c-16.83,50.48-97.38,22.88-97.38,22.88,3.78-17.87,12.79-28.8,12.79-28.8,47.16,9.37,84.59,5.92,84.59,5.92Z"/>
  </g>
  <g>
    <g>
      <g>
        <path class="cls-18" d="M250.14,294.88l111.03-10.62c96.28,65.2,108.05,184.06,108.05,184.06-18.56,11.55-41.36,15.9-41.36,15.9-89.75,28.35-191.22.73-191.22.73l3.29-11.37c-33.04,1.18-62.79-19.59-62.79-19.59,50.85-79.54,73-159.11,73-159.11Z"/>
        <path class="cls-13" d="M174.39,452.24l-1.69,2.64,2.57,1.79c1.2.84,28.45,19.6,60.31,20.21l-3,10.35,3.2.87c.67.18,45.36,12.08,101.41,12.08,28.96,0,60.96-3.18,91.48-12.79,2.43-.48,24.11-5,42.28-16.3l1.72-1.07-.2-2.02c-.12-1.23-3.16-30.61-18.14-68.46-13.84-34.98-40.91-83.84-91.34-117.98l-.97-.66-114.43,10.95-.6,2.16c-.22.79-22.63,80.05-72.61,158.23ZM181.64,453.01c44.73-70.88,67.09-141.92,71.02-155.09l107.65-10.3c86.2,59.06,103.29,163.22,105.42,179.01-17.5,10.31-38.26,14.35-38.47,14.39l-.37.09c-78.93,24.93-168.24,5.8-186.16,1.49l3.6-12.45-4.5.16c-26.05.93-50.34-12.5-58.18-17.32Z"/>
      </g>
      <path class="cls-17" d="M393.64,313.09s56.36,99.3,55.33,147.79c0,0-51.14,14.23-99.23,16.64,0,0-53.58-180.06,43.89-164.43Z"/>
      <g class="cls-21">
        <path class="cls-3" d="M204.34,448.79c24.69,17.03,29.26,22.79,29.26,22.79-24.56-3.28-48.81-19.67-48.81-19.67,31.59-49.48,51.87-105.09,51.87-105.09-5.33,46.58-32.32,101.97-32.32,101.97Z"/>
      </g>
    </g>
    <g>
      <g>
        <path class="cls-10" d="M426.97,407.02c-.04.08-.05.12-.08.19.05-.11.08-.19.08-.19Z"/>
        <path class="cls-10" d="M426.89,407.21c-.08.19-.2.46-.3.67.06-.14.16-.36.3-.67Z"/>
        <path class="cls-10" d="M426.59,407.89c-.16.37-.12.26,0,0h0Z"/>
        <path class="cls-10" d="M268.46,300.72c38.12,31.2,105.84-.95,105.84-.95,38.97,23.88,46.32,62.45,46.32,62.45,0,0,7.47,42.26,6.35,44.79,0,0-42.86,27.97-122.72,26.52-81.11-1.47-72.12-16.3-72.12-16.3,3.57-104.63,36.33-116.53,36.33-116.53Z"/>
      </g>
      <path class="cls-14" d="M228.89,416.54c-.48,1.42-.52,3.43.63,5.51,4.95,8.98,30.07,13.94,74.68,14.75,2.06.04,4.1.06,6.11.06,76.02,0,116.72-25.97,118.45-27.11l-.55-.84,1.25.55,4.93-11.18-4.42,2.89c-.61-6.05-2.24-17.48-6.13-39.51-.32-1.68-8.09-40.32-47.83-64.67l-1.51-.92-1.6.76c-.66.31-66.31,30.89-102.37,1.37l-1.44-1.18-1.74.63c-1.42.52-34.75,13.81-38.46,118.89ZM235.11,418.63l.25-.41.03-.85c2.98-87.34,26.56-108.64,32.75-112.74,36.53,27.63,95.14,3.65,105.92-1.15,36.04,22.92,43.29,59,43.36,59.37,3.09,17.45,6.12,36.87,6.4,42.28-7.9,4.57-49.5,26.4-119.5,25.17-53.58-.97-65.79-7.79-68.55-10.68-.48-.5-.62-.83-.65-.98Z"/>
    </g>
    <g>
      <path class="cls-16" d="M407.58,387.44s-.92,1.82,0,0h0Z"/>
      <path class="cls-16" d="M273.65,309.95c32.24,22.69,88.93.05,88.93.05,32.91,17.43,39.35,45.2,39.35,45.2,0,0,6.57,30.42,5.65,32.24,0,0-35.82,19.8-102.93,18.21-68.17-1.62-60.71-12.21-60.71-12.21,2.27-75.17,29.72-83.49,29.72-83.49Z"/>
    </g>
    <g>
      <path class="cls-10" d="M425.31,430.16l6.76,38.19c-29.67,16.9-86.06,18.88-86.06,18.88-80.36,5.69-121.28-22.71-121.28-22.71l5.02-40.53c50.17,35.7,195.56,6.16,195.56,6.16Z"/>
      <path class="cls-14" d="M227.19,418.17l-5.94,47.91,1.62,1.12c1.55,1.08,35.51,24.06,101.94,24.06,6.81,0,13.95-.24,21.44-.77,2.22-.08,57.42-2.21,87.45-19.3l2-1.14-7.74-43.75-3.28.67c-1.44.29-144.58,28.85-193.02-5.62l-4.46-3.17ZM228.22,462.87l4.13-33.32c50.11,29.31,168.52,8.6,190.33,4.45l5.77,32.62c-29.14,15.31-82.01,17.34-82.56,17.36-69.65,4.93-109.38-16.14-117.67-21.11Z"/>
    </g>
    <path class="cls-16" d="M245.66,431.72l-3.65,34.55-11.13-5.05,3.97-35.47s10,4.55,10.81,5.97Z"/>
    <g>
      <g>
        <path class="cls-10" d="M308.24,441.75s.22,28.9-1.25,55c0,0-30.53,2.67-58.84-9.21l2.74-52.63s45.69,5.93,57.35,6.84Z"/>
        <path class="cls-14" d="M247.81,431.22l-3.05,58.44,2.11.89c20.02,8.4,40.85,9.73,52.07,9.73,4.88,0,7.93-.25,8.32-.29l2.81-.25.16-2.82c1.46-25.9,1.26-54.91,1.26-55.2l-.02-2.99-2.99-.23c-11.44-.89-56.73-6.76-57.18-6.82l-3.49-.45ZM251.52,485.39l2.44-46.79c10.04,1.29,38.67,4.93,51.02,6.14,0,7.65-.07,28.86-1.1,48.91-7.83.29-30.66.25-52.36-8.26Z"/>
      </g>
      <path class="cls-16" d="M269.75,445.23l28.63,8.94s-6.61,40.03-44.66,30.4l.95-41.66,15.08,2.33Z"/>
    </g>
    <g>
      <g>
        <g>
          <path class="cls-9" d="M230.65,398c140.61,34.34,192.41-7.24,192.41-7.24,3.58-2.85,5.3-1.51,6.06,2.52.9,4.8,1.53,27.03,1.53,27.03.18,3.66-3.7,8.28-3.7,8.28-103.39,44.91-199.32,4.35-199.32,4.35-7.12-.54-3.15-34.8-3.15-34.8,4.63-8.74,6.18-.13,6.18-.13Z"/>
          <path class="cls-13" d="M221.24,397.75c-.8,6.92-3.01,30,2.16,36.27,1.11,1.35,2.37,1.89,3.38,2.08,4.4,1.76,43.49,16.75,96.8,16.75,31.35,0,67.62-5.18,104.68-21.28l.7-.31.49-.59c.79-.93,4.7-5.83,4.47-10.54-.06-2.23-.66-22.56-1.58-27.47-.24-1.28-.96-5.16-4.21-6.37-3.19-1.2-6.12,1.13-7.08,1.89-.51.41-52.17,39.71-187.76,7.07-.67-1.77-1.96-3.89-4.41-4.27-3.97-.63-6.37,3.9-7.27,5.6l-.29.54-.07.61ZM227.61,399.49l.21,1.18,2.06.5c41.6,10.16,75.5,13.77,102.65,13.77,64.59,0,91.05-20.41,92.58-21.63.22-.17.41-.31.57-.42.07.25.15.58.23.99.7,3.73,1.3,20.41,1.47,26.52.07,1.53-1.4,4.06-2.49,5.52-100.55,43.28-195.05,4.41-196,4.01l-.61-.22c-1.9-2.57-2.21-16.27-.68-30.22Z"/>
        </g>
        <path class="cls-7" d="M231.73,402.81c128.58,27.92,186.15-4.05,186.15-4.05.95-.56,1.71.7,2.41.58-1.58,10.95-4.69,27.85-25.39,38.01-111.74,23.22-166.03-7.5-166.03-7.5-6.88-.5-3.11-27.03-3.11-27.03,4.45-6.31,5.98,0,5.98,0Z"/>
        <g>
          <path class="cls-16" d="M226.99,429.38c.1.13.19.29.29.41,0,0-.19-.05-.29-.41Z"/>
          <path class="cls-16" d="M224.83,406.67c-.3-10.12,8.47-3.81,8.47-3.81,107.81,25.32,176.7-.68,176.7-.68,13.01-4.44-5.2,7.27-5.2,7.27-62.73,30.46-171.26,3.62-171.26,3.62-6.57,11.85-6.87,15.31-6.56,16.31-4.33-5.75-2.16-22.71-2.16-22.71Z"/>
        </g>
      </g>
      <g>
        <g>
          <path class="cls-9" d="M278.42,399.98c15.41.53,27.47,13.45,26.94,28.86-.53,15.41-13.45,27.48-28.86,26.95-15.41-.53-27.48-13.45-26.95-28.86.53-15.41,13.45-27.47,28.86-26.94Z"/>
          <path class="cls-13" d="M256.18,405.09c-6.09,5.68-9.6,13.4-9.88,21.72-.29,8.32,2.69,16.26,8.37,22.35,5.68,6.09,13.4,9.6,21.72,9.88.37.01.73.02,1.1.02,7.92,0,15.43-2.96,21.25-8.39,6.09-5.68,9.6-13.4,9.88-21.72.29-8.32-2.69-16.26-8.37-22.35-5.68-6.09-13.4-9.6-21.72-9.88-8.32-.28-16.26,2.69-22.35,8.37ZM252.82,427.04c.23-6.58,3-12.68,7.82-17.18,4.6-4.3,10.54-6.63,16.81-6.63.29,0,.58,0,.87.02,6.58.23,12.68,3,17.18,7.81,4.49,4.81,6.84,11.09,6.62,17.67-.23,6.58-3,12.68-7.82,17.18-4.81,4.49-11.1,6.85-17.67,6.62-6.58-.23-12.68-3-17.18-7.82-4.49-4.81-6.85-11.09-6.62-17.67Z"/>
        </g>
        <path class="cls-7" d="M276.14,404.65c12.21.42,21.75,11.35,21.31,24.42-.45,13.07-10.71,23.32-22.93,22.9-12.21-.42-21.75-11.35-21.3-24.42.45-13.07,10.71-23.32,22.93-22.9Z"/>
        <g>
          <g>
            <path class="cls-9" d="M275.92,410.04c9.43,1.75,15.83,11.21,14.3,21.13-1.53,9.91-10.42,16.54-19.85,14.78-9.43-1.75-15.83-11.21-14.3-21.13,1.53-9.91,10.41-16.53,19.85-14.78Z"/>
            <path class="cls-13" d="M253.66,424.45c-1.73,11.19,5.58,21.92,16.28,23.91,1.16.22,2.33.32,3.49.32,3.89,0,7.68-1.2,10.94-3.52,4.48-3.18,7.42-8.01,8.28-13.62,1.73-11.19-5.58-21.92-16.28-23.91-5.07-.94-10.2.19-14.43,3.19-4.48,3.17-7.42,8.01-8.28,13.62ZM258.49,425.19c.66-4.29,2.89-7.97,6.28-10.38,2.42-1.72,5.24-2.61,8.12-2.61.86,0,1.72.08,2.58.24,8.13,1.51,13.66,9.74,12.33,18.35-.66,4.29-2.89,7.97-6.28,10.38-3.14,2.23-6.95,3.07-10.7,2.37-8.13-1.51-13.66-9.74-12.33-18.35Z"/>
          </g>
          <path class="cls-7" d="M271.93,411.48c7,.48,12.25,7.85,11.71,16.45-.54,8.6-6.65,15.18-13.65,14.69-7-.49-12.25-7.85-11.71-16.46.54-8.6,6.65-15.18,13.65-14.69Z"/>
          <path class="cls-16" d="M267.21,414.85c4.72.16,8.36,5.56,8.13,12.06-.22,6.5-4.23,11.64-8.94,11.48-4.71-.16-8.35-5.56-8.13-12.06.22-6.5,4.22-11.64,8.94-11.48Z"/>
        </g>
      </g>
    </g>
    <g>
      <path class="cls-18" d="M264.03,358.54c5.88,2.45,12.17,3.65,18.23,4.12-.13-8.75-3.67-14.36-3.67-14.36,12.22-4.55,23.06.17,23.06.17-5.04,4.22-7.96,9.23-9.51,14.36,12.09-.48,21.39-3.18,21.39-3.18,12.11,8.27,1.91,13.3,1.91,13.3-8.69-2.96-16.98-4.46-24.4-5.09-1.94,13.6,4.01,26.57,4.01,26.57-17.53,8.55-26.8-1.24-26.8-1.24,9.2-9.41,12.77-18.33,13.72-25.7-13.95.03-23.13,2.83-23.13,2.83-6.8-5.83,5.18-11.78,5.18-11.78Z"/>
      <path class="cls-13" d="M254.37,365.7c-.21,1.65.13,4.11,2.89,6.48l1.02.87,1.29-.39c.08-.02,7.77-2.31,19.51-2.68-1.62,7.4-5.83,14.61-12.56,21.5l-1.64,1.68,1.62,1.71c.3.32,5.4,5.54,14.87,5.54,4.11,0,9.05-.98,14.78-3.78l2.14-1.05-.99-2.17c-.05-.12-4.96-11.04-4.07-22.89,7.34.79,14.54,2.39,21.44,4.74l.96.33.91-.45c.51-.25,5.04-2.61,5.36-7.2.25-3.51-2.1-6.99-6.98-10.32l-.95-.65-1.11.32c-.08.02-7.32,2.09-17.11,2.86,1.69-3.78,4.2-7.07,7.48-9.82l3.04-2.54-3.63-1.58c-.48-.21-11.89-5.05-24.89-.22l-2.82,1.05,1.6,2.55s2.45,4.03,3.12,10.35c-5.42-.63-10.34-1.86-14.68-3.67l-1.03-.43-1,.5c-.81.4-7.92,4.07-8.58,9.35ZM291.25,365.42l-.9-.08,1.89-.07c9.91-.39,17.91-2.22,20.81-2.96,2.65,1.97,4.05,3.83,3.95,5.28-.07,1.16-1.12,2.13-1.88,2.68-7.69-2.52-15.72-4.15-23.88-4.84ZM284.41,367.8l.32-2.5h.02s0-.13,0-.13l.02-.14h-.02l-.04-2.41c-.09-5.71-1.52-10.18-2.66-12.86,5.99-1.59,11.44-.96,14.88-.18-3.31,3.58-5.7,7.78-7.13,12.54l-.99,3.29h.11s-.3,2.11-.3,2.11c-1.55,10.88,1.62,21.21,3.28,25.66-10.31,4.31-17.01,1.65-20.03-.25,7.19-7.95,11.41-16.39,12.54-25.12ZM259.22,366.31c.21-1.67,2.82-3.81,4.97-5.07,5.1,1.98,10.88,3.26,17.19,3.8-10.77.08-18.64,1.75-21.77,2.54-.47-.66-.41-1.1-.39-1.27Z"/>
    </g>
    <path class="cls-16" d="M410.18,443.43s3.11,24.44-14.47,30.78c0,0-30.08,10.3-78.34,7.54,0,0-5.87-11.28-5.22-26.56,0,0,39.5,6.86,98.03-11.76Z"/>
  </g>
  <g>
    <g>
      <path class="cls-9" d="M421.84,265.25s31.98-6.97,69.07,1.91c0,0-15.97,27.31-4.32,49.36,0,0-26.68-3.14-48.83-4.89-7.87-.62-23.56,16.1-36.77,23.94-15.34,9.12-43.48-10.28-27.67-33.72,2.19-3.24,21.75-29.34,48.52-36.6Z"/>
      <path class="cls-19" d="M370.63,300.02c-7.53,11.16-6.94,23.2,1.57,32.21,5.45,5.77,12.91,8.9,19.94,8.9,3.76,0,7.4-.9,10.54-2.76,5.24-3.12,10.73-7.47,16.04-11.69,6.78-5.39,15.21-12.1,18.8-11.81,21.83,1.73,48.44,4.85,48.7,4.88l6.17.73-2.9-5.49c-10.68-20.2,4.1-45.93,4.25-46.18l2.22-3.8-4.28-1.02c-37.38-8.94-69.19-2.21-70.53-1.92l-.16.04c-29.44,7.98-50.16,37.62-50.37,37.92ZM376.03,303.67c.18-.27,19.46-27.85,46.58-35.25,1.64-.34,30.16-6.01,63.47.99-3.71,7.84-10.66,26.09-4.72,43.22-9.05-1.01-27.44-3-43.34-4.26-.22-.02-.45-.03-.67-.03-6.05,0-13.79,6.15-22.7,13.23-5.14,4.08-10.45,8.3-15.32,11.19-6.34,3.77-16.18,1.57-22.4-5.01-3.01-3.18-9.11-11.91-.9-24.08Z"/>
    </g>
    <path class="cls-7" d="M421.08,277.05s4.46-3.8,25.02-1.13c0,0-6.76,15.96,2.22,32.38,0,0-5.67-1.38-15.85-.11,0,0-14.78,7.98-27.48,19.37,0,0-12.88,12.72-24.55.19,0,0-8.26-10.1,14.64-31.92,0,0,9.65-11.57,26-18.78Z"/>
    <g>
      <g>
        <g>
          <path class="cls-11" d="M498.58,268.7c-19.84,27.54-6.27,51.05-6.27,51.05l-39.46-1.08c-14.62-38.67,12.9-66.03,12.9-66.03,13.86,2.58,32.82,16.07,32.82,16.07Z"/>
          <path class="cls-6" d="M463.46,250.32c-.29.29-28.84,29.31-13.66,69.5l.77,2.05,47.49,1.31-2.92-5.05c-.5-.88-12.2-22.13,6.09-47.51l1.92-2.66-2.68-1.9c-.8-.57-19.72-13.94-34.12-16.62l-1.68-.31-1.21,1.21ZM466.88,256.22c9.78,2.4,21.88,9.88,27.15,13.35-13.33,20.44-9.78,38.38-6.77,46.79l-32.1-.88c-10.61-31.02,6.84-53.72,11.72-59.25Z"/>
        </g>
        <path class="cls-15" d="M490.91,272.79s-10.78,16.58-2.55,42.24l-32.62.27s-8.97-49.21,35.17-42.51Z"/>
        <g>
          <path class="cls-6" d="M477.09,288.7c1.16-1.19,2.41-2.3,3.74-3.33,1.35-1.01,2.75-1.96,4.41-2.67-.68,1.67-1.59,3.1-2.57,4.47-.99,1.36-2.07,2.63-3.24,3.81-1.17,1.19-2.41,2.3-3.74,3.32-1.35,1.01-2.75,1.96-4.4,2.68.68-1.67,1.6-3.09,2.57-4.46.99-1.36,2.07-2.63,3.23-3.82Z"/>
          <path class="cls-6" d="M479.64,288.11c.59,1.56,1.07,3.17,1.43,4.81.35,1.66.61,3.34.55,5.14-1.22-1.32-2.13-2.77-2.95-4.24-.81-1.48-1.5-3.01-2.08-4.57-.58-1.56-1.06-3.17-1.42-4.81-.34-1.65-.61-3.34-.56-5.14,1.22,1.33,2.12,2.77,2.95,4.24.81,1.48,1.5,3.01,2.08,4.57Z"/>
        </g>
        <g>
          <path class="cls-6" d="M464.22,285.55c1.16-1.19,2.4-2.3,3.74-3.32,1.35-1.01,2.76-1.96,4.4-2.68-.67,1.67-1.59,3.1-2.57,4.47-1,1.35-2.08,2.62-3.24,3.81-1.16,1.19-2.41,2.3-3.74,3.32-1.35,1.01-2.75,1.96-4.4,2.68.68-1.66,1.59-3.09,2.57-4.46.99-1.36,2.07-2.63,3.23-3.82Z"/>
          <path class="cls-6" d="M466.77,284.96c.59,1.57,1.07,3.16,1.43,4.81.34,1.66.61,3.34.55,5.14-1.22-1.32-2.13-2.77-2.95-4.24-.81-1.48-1.5-3-2.08-4.57-.58-1.57-1.06-3.17-1.42-4.82-.34-1.65-.61-3.34-.56-5.14,1.22,1.33,2.12,2.77,2.95,4.25.81,1.48,1.5,3.01,2.09,4.57Z"/>
        </g>
      </g>
      <g>
        <g>
          <path class="cls-11" d="M507.2,263.46c11.77.31,26.4,3.54,26.4,3.54l2.71,9.31c4.48.19,4.78,1.23,4.78,1.23l1.97,9.52c4.15,1.79,5.31,8.55,5.31,8.55-2.66,11.62,3.49,20.31,3.49,20.31,2.35,5.3-14.29,9.02-14.29,9.02-.66,8.8-11.11,8.85-11.11,8.85-7.28-4.24-24.82.49-24.82.49-22.47-26-12.8-50.89-12.8-50.89,5.27-20.61,18.35-19.93,18.35-19.93Z"/>
          <path class="cls-6" d="M485.73,282.41c-.98,2.69-9.22,27.76,13.45,54l1.34,1.55,1.98-.53c6.28-1.69,17.9-3.41,22.33-.82l.77.45h.89c4.23-.03,12.03-2.1,13.95-9.46,4.38-1.16,12.14-3.77,14.27-8,.81-1.6.86-3.37.14-4.99l-.32-.56c-.04-.06-5.25-7.72-2.97-17.69l.15-.64-.11-.64c-.13-.78-1.34-7.06-5.63-10.09l-1.73-8.35c-.66-2.28-3.26-3.08-5.41-3.38l-2.63-9.01-1.89-.42c-.61-.13-15.06-3.29-27-3.61-1.3-.05-15.81.03-21.56,22.21ZM491.89,284.58l.12-.37c4.48-17.52,14.64-17.47,15.07-17.48l.12-3.26-.09,3.26c8.88.23,19.63,2.22,23.9,3.07l2.82,9.67,2.34.1c.94.04,1.6.12,2.05.2l1.99,9.62,1.56.67c1.69.73,2.85,3.78,3.27,5.54-2.14,10.54,2.06,18.77,3.62,21.36-1.29,1.42-6.7,3.65-11.8,4.79l-2.36.53-.18,2.41c-.35,4.69-5.19,5.61-7.15,5.79-2.72-1.27-6.2-1.72-9.74-1.72-5.68,0-11.52,1.15-14.6,1.86-19.3-23.67-11.04-45.82-10.95-46.05Z"/>
        </g>
        <path class="cls-15" d="M506.94,277.99c9.86-3.15,19.46.83,19.46.83,7.18,4,3.36,9.32,3.36,9.32,8.8,1.86,11.12,14.04,11.12,14.04,1.34,8.51,6.19,14.63,6.19,14.63-1.12,3.94-8.22,3.42-8.22,3.42-10.33-15.32-21.14-10.36-21.14-10.36,7.29,2.27,12.68,10.58,12.68,10.58,3.46,6.29-4.21,9.1-4.21,9.1-16.99-3.46-21.59.53-21.59.53-15.47-27.24-4.85-42.83-4.85-42.83,2.15-5.02,7.2-9.27,7.2-9.27Z"/>
        <g>
          <g>
            <path class="cls-6" d="M534.22,324.75l.02.02s-.02.03-.03.03c-.01,0-.07.08,0-.05Z"/>
            <path class="cls-6" d="M519.23,302.87l.47-1.67-.15,1.71c.02.57,0,1.14.05,1.69.13,1.11.38,2.19.88,3.12.5.92,1.21,1.68,2.05,2.21.8.54,1.87.89,2.68.95h.04s.2.06.2.06c1.75.53,3.53,1.04,5.26,1.78,1.75.7,3.46,1.61,5.13,2.78,1.62,1.23,3.24,2.83,4.21,5.15.48,1.15.73,2.48.66,3.8-.02.67-.13,1.33-.29,1.98-.1.32-.19.65-.32.98-.07.17-.12.32-.22.5-.1.19-.14.31-.35.62l-5.29-3.77s.03-.05.05-.06c.07-.07.11-.17.17-.26.1-.19.2-.4.26-.63.13-.44.17-.92.07-1.45-.18-1.07-.9-2.31-1.93-3.44-1.09-1.1-2.36-2.15-3.79-3.06-1.41-.94-2.96-1.72-4.51-2.52l.24.06c-1.43-.41-2.49-1.07-3.47-1.97-.95-.9-1.65-2.03-2.03-3.23-.38-1.2-.42-2.43-.34-3.6.06-.59.18-1.17.27-1.74Z"/>
          </g>
          <path class="cls-6" d="M534.01,305.25c1.23-.4,2.48-.8,3.74-1.02-2.07,1.48-3.84,3.3-5.64,5.08-1.78,1.8-3.54,3.65-5.22,5.5l-3.78-5.32c2.42-1.04,4.8-2,7.23-2.92,1.21-.46,2.43-.9,3.66-1.31Z"/>
          <polygon class="cls-6" points="542.7 290.3 523.86 284.72 543.43 283.82 542.7 290.3"/>
          <polygon class="cls-6" points="535.76 279.52 521.64 273.8 536.86 273.09 535.76 279.52"/>
        </g>
      </g>
    </g>
  </g>
  <g>
    <g>
      <path class="cls-9" d="M252.08,156.99c1.54,28.57-48.2,24.05-48.2,24.05-6.04-27.6,7.21-54.96,7.21-54.96,42.8-13.61,40.99,30.91,40.99,30.91Z"/>
      <path class="cls-19" d="M208.15,124.66c-.56,1.16-13.67,28.7-7.46,57.08l.51,2.33,2.38.22c.38.04,3.3.29,7.57.29,10.2,0,28.13-1.43,37.7-10.66,4.63-4.47,6.82-10.17,6.49-16.96.06-2.14.25-21.68-12.53-31.43-7.95-6.07-18.96-6.93-32.71-2.55l-1.34.42-.61,1.26ZM213.46,128.77c4.55-1.34,8.69-2.01,12.39-2.01,5.19,0,9.53,1.31,12.98,3.94,10.54,8.02,9.99,25.98,9.98,26.16v.15s0,.15,0,.15c.27,4.94-1.2,8.88-4.49,12.05-9.46,9.13-30.59,9.04-37.74,8.72-3.92-22.11,4.54-43.79,6.87-49.17Z"/>
    </g>
    <g>
      <path class="cls-12" d="M216.8,158.47s5.71-11.85,1.42-24.19l.87-9.81s30.67-3.02,47.65-3.17c0,0,105.15,3.69,139.25,36.92,0,0-19.91,19.07-28.5,18.36,0,0,9.91,20.85-3.54,33.13,0,0-17.5,22.36-36.55,21.13,0,0-2.28-2.99-9.29-9.07l-108.34-9.22s-11.44-4.49-.25-10.34c0,0-22.81-25.37-2.72-43.72Z"/>
      <path class="cls-13" d="M214.68,201.44c-2.33,1.89-3.44,4-3.32,6.29.26,4.86,6.06,7.38,7.22,7.84l.44.17.47.04,107.27,9.13c5.95,5.24,8.02,7.88,8.04,7.9l.9,1.16,1.48.11c.58.04,1.17.06,1.75.06,18.99,0,35.45-19.76,37.42-22.21,11.21-10.45,8.02-25.67,5.63-32.81,9.84-3.17,23.29-15.69,26.27-18.55l2.44-2.34-2.42-2.36c-34.61-33.72-137.07-37.69-141.41-37.84-17.08.15-46.83,3.06-48.09,3.18l-2.69.26-1.17,13.21.23.66c3.33,9.57-.11,18.92-1.05,21.19-15.47,14.71-7.42,34.3.59,44.9ZM224.75,203.13l-2.81-3.12c-.84-.94-20.38-23.2-2.94-39.13l.46-.43.27-.57c.25-.52,6.04-12.8,1.79-25.99l.57-6.43c7.84-.73,30.94-2.78,44.67-2.9.87.03,99.12,3.83,134.4,33.68-7.89,7.13-18.96,15.43-23.41,15.08l-5.65-.47,2.43,5.12c.09.18,8.69,18.84-2.79,29.32l-.37.4c-.16.2-15.84,19.92-32.44,19.93-1.32-1.47-4-4.25-8.7-8.32l-.8-.7-108.87-9.27c-1.15-.54-2.36-1.4-2.66-1.92.17-.27.83-1.13,3.12-2.33l3.72-1.95Z"/>
    </g>
    <path class="cls-16" d="M322.95,163.47l-1.56.21c-9.53-.62-.95-9.14-.95-9.14,4.61,5,2.51,8.93,2.51,8.93Z"/>
    <path class="cls-16" d="M239.5,151.17c4.69,3.75-.61,9.36-.61,9.36-8.68-5.42.61-9.36.61-9.36Z"/>
    <path class="cls-2" d="M223.86,130.6c48.37-17.46,126.53,11.31,126.53,11.31-9.54,15.96-4.03,31.14-4.03,31.14,13.53,24.58,1.23,27.67,1.23,27.67-6.15,4.41-14.7,2.96-14.7,2.96l-6.9-2.49c-41.01-18.76-89.42-16.59-89.42-16.59-4.46.49-18.34,5.68-18.34,5.68-2.86-5.9-2.95-9.22-2.95-9.22,2.54-9.66,11.01-19.08,11.01-19.08,9.58-9.73-2.41-31.37-2.41-31.37Z"/>
    <path class="cls-16" d="M299.45,164.14c2.8-19.4,16.1-18.81,23.3-16.66,12.71,3.8,14.36,23.65,14.36,23.65-.89,3-3.82,3.95-5.93,4.08-1.73.11-7.54.33-7.54.33-25.74.8-24.26-10.15-24.26-10.15l.08-1.25Z"/>
    <g>
      <g>
        <path class="cls-4" d="M280.04,130.3c6.42,2.62,9.59,1.95,11.55.28,21.07-17.9,25.13-19.34,34.81-15.6,18.97,7.34,28.81,26.78,28.81,26.78-2.31,14.57-18.07.24-18.07.24-14.67-16.46-36.57-.03-36.57-.03-5.49,6.23-18.07.24-18.07.24-11.87-9.7-5.25-13.04-2.47-11.91Z"/>
        <path class="cls-13" d="M273.25,129.87c-1.64,2.76-1.72,7.58,7.19,14.86l.31.25.36.17c.6.28,14.53,6.79,21.66-.74,2.32-1.66,20.05-13.6,31.95-.25l.24.24c1.46,1.33,8.22,7.15,14.48,7.15.99,0,1.97-.15,2.91-.48,2.27-.8,5.17-2.97,6.1-8.81l.17-1.04-.48-.94c-.43-.84-10.64-20.64-30.55-28.35-11.91-4.6-17.85-1.05-38.1,16.15-1.34,1.14-4.1.86-8.21-.81h0c-2.51-1.03-6.29-.32-8.02,2.59ZM279.04,133.41c4.23,1.7,10.24,3.42,14.67-.35,21.22-18.02,23.83-18.01,31.51-15.04,15.21,5.89,24.35,20.42,26.56,24.27-.27,1.1-.76,2.34-1.61,2.63-2.3.81-7.66-2.49-10.72-5.23-13.18-14.61-32.46-6.62-40.84-.33l-.49.45c-3.01,3.41-10.87.94-13.88-.39-3.91-3.26-4.95-5.21-5.22-6.01Z"/>
      </g>
      <path class="cls-5" d="M281.38,132.57c4.49,1.46,12.02-.13,13.27-1.36,13.41-13.25,17.34-17.01,24.08-14.95,13.23,4.04,20.86,16.77,20.86,16.77,2.9,10.22-7.24,1.03-7.24,1.03-14.23-8.85-29.82,1.88-29.82,1.88-5.56,8.08-12.22,4.56-12.22,4.56-9.97-2.03-10.88-8.55-8.94-7.92Z"/>
      <path class="cls-1" d="M289.1,133.5c-3.18,2.54.54,3.43.54,3.43,4.83,1.07,8.62.21,8.62.21,4.26,2.24-3.38,4.66-3.38,4.66-12.94.95-15.16-7.48-15.16-7.48,2.02-4.68,9.38-.83,9.38-.83Z"/>
    </g>
    <path class="cls-13" d="M302.86,149.07c.28-.32.58-.64.94-.97.46-.42.75-.57,1.08-.83.66-.46,1.29-.96,2-1.36l2.21-1.11c3.07-1.3,6.55-1.74,9.84-1.33,3.3.4,6.35,1.61,9.07,3.2,1.38.85,2.6,1.65,3.92,2.9,1.21,1.22,2.25,2.56,2.99,4,1.54,2.85,2.29,5.85,2.6,8.81.27,2.96.24,5.9-.39,8.76-.8-2.79-1.62-5.47-2.7-8-1.03-2.52-2.26-4.89-3.8-6.8-.73-.99-1.61-1.75-2.46-2.45-.83-.58-2.03-1.28-3.11-1.81-2.24-1.07-4.58-1.9-6.91-2.14-2.32-.29-4.61-.08-6.82.63l-1.64.64c-.54.25-1.06.58-1.61.85-.25.14-.61.31-.68.36-.18.12-.39.3-.61.47-.43.37-.86.77-1.26,1.23-1.63,1.8-2.97,4.06-4.02,6.53-1.09,2.48-1.8,5.17-2.52,8-1.35-5.6-1-12,2.41-17.57.43-.69.92-1.36,1.47-2.01Z"/>
    <path class="cls-16" d="M216.98,163.1c12.53-17.08,2.89-32.31,2.89-32.31l4.44-.03c11.97,13.6,2.91,29,2.91,29-10.15,13.39-4.02,33.42-4.02,33.42l-7.13.21c-9.78-23.39.92-30.3.92-30.3Z"/>
    <path class="cls-16" d="M252.08,156.99c-.79,12.17-10.03,11.88-10.03,11.88-5.28.6-15.03-1.29-15.03-1.29-10.89-8.23-.94-18.86-.94-18.86,13.82-13.2,26.46,1.2,26,8.27Z"/>
    <path class="cls-13" d="M226.48,142.56c.62-.48,1.24-.97,1.88-1.43.66-.44,1.41-.8,2.11-1.19,2.94-1.45,6.42-1.99,9.68-1.58,3.28.41,6.24,1.71,8.85,3.36,1.3.9,2.49,1.7,3.69,3.07,1.15,1.24,1.99,2.64,2.66,4.04,1.34,2.83,1.9,5.74,2.12,8.61.17,2.87.08,5.72-.57,8.48-.79-2.71-1.54-5.32-2.54-7.8-.97-2.46-2.05-4.84-3.45-6.76-.35-.48-.69-.96-1.09-1.35-.36-.44-.76-.8-1.17-1.15-.69-.61-1.83-1.31-2.84-1.86-2.1-1.09-4.31-1.95-6.49-2.18-2.17-.27-4.29-.01-6.35.77-.5.23-1.03.41-1.53.68-.49.31-1,.6-1.51.89-.34.15-.71.5-1.12.9-.4.38-.79.82-1.16,1.28-3.03,3.74-4.75,8.87-6.13,14.3-1.3-5.44-1.12-11.56,1.83-17.11.8-1.38,1.56-2.68,3.11-3.96Z"/>
    <g>
      <g>
        <path class="cls-12" d="M255.21,131.36s1.49,2.48,2.56,6.16l-2.56-6.16Z"/>
        <path class="cls-12" d="M254.2,157.06c5.77-6.51,5.1-14.25,3.57-19.53l18.7,45.13c15.7-1.21,22.76,13.25,22.76,13.25,5.12,15.18-11.66,14.85-11.66,14.85-10.87-4.92-17.15-1.04-17.15-1.04-13.22,7.29-25.99,2.36-25.99,2.36-14.1-7.53-4.73-29.93-4.73-29.93,4-12.32,14.51-25.08,14.51-25.08Z"/>
        <g>
          <path class="cls-13" d="M236.44,180.78c-.03.07-.05.13-.07.2,0,.02-.02.04-.03.07l.1-.27Z"/>
          <path class="cls-13" d="M236.36,180.98c1.73-4.78,4.15-9.07,6.76-13.14,2.62-4.11,5.57-7.91,8.76-11.56l.64-.73.56-.59c.39-.4.68-.8,1.02-1.21.61-.84,1.2-1.72,1.67-2.66.95-1.9,1.53-4.01,1.72-6.23.41-4.43-.5-9.13-2.28-13.5,2.74,3.88,4.58,8.52,4.96,13.53.15,2.5-.14,5.1-.96,7.58-.42,1.24-.95,2.44-1.61,3.59-.35.54-.69,1.13-1.08,1.63l-.57.77-.46.66c-2.63,3.78-5.02,7.76-7.21,11.77-2.18,4.02-3.98,8.19-5.24,12.34l-.1.27c-.8,2.22-1.45,4.86-1.88,7.31-.44,2.49-.61,4.99-.47,7.33.14,2.35.66,4.54,1.62,6.28.48.87,1.06,1.65,1.73,2.33.64.62,1.39,1.14,2.2,1.61-.09-.03-.19-.06-.25-.09l.45.21c-.07-.04-.13-.08-.19-.12.51.16,1.24.37,1.87.51.78.18,1.59.34,2.4.46,1.62.24,3.27.35,4.9.33,3.28-.05,6.53-.58,9.59-1.69.77-.27,1.52-.58,2.27-.91.39-.16.7-.34,1.05-.5l.26-.12.53-.28c.31-.15.62-.28.91-.39,2.34-.88,4.59-1.17,6.81-1.15,4.21.05,8.1,1.2,11.59,2.85-.25,0-.5,0-.69,0l1.3.29c-.2-.1-.4-.19-.6-.28.52,0,1.11-.04,1.64-.1.81-.09,1.61-.23,2.36-.43,1.51-.41,2.82-1.07,3.7-1.95.86-.89,1.44-2,1.59-3.5.15-1.45-.06-3.11-.51-4.77.03.06.06.12.09.18l-.11-.27s.01.06.02.09c-.79-1.71-2-3.59-3.27-5.22-1.36-1.7-2.93-3.25-4.71-4.55-1.77-1.31-3.75-2.37-5.89-3.09-2.14-.73-4.42-1.11-6.76-1.21,2.3-.44,4.7-.52,7.09-.18,2.38.36,4.75,1.11,6.94,2.24,2.18,1.14,4.2,2.62,6,4.31,1.83,1.73,3.38,3.54,4.76,5.89l.02.03.09.24c.77,1.96,1.35,4.12,1.38,6.51.06,2.36-.74,5.1-2.47,7.09-1.7,2.02-3.93,3.24-6.07,4.01-1.09.39-2.18.67-3.27.88-1.14.21-2.11.35-3.44.39l-.5.02-.8-.31c-3.13-1.2-6.34-1.99-9.36-1.82-1.48.07-2.96.35-4.09.85-.14.06-.25.12-.36.17l-.09.05-.36.2c-.47.26-.98.55-1.43.77-.93.47-1.88.9-2.85,1.29-3.89,1.53-8.05,2.37-12.2,2.47-2.08.04-4.15-.08-6.21-.36-1.03-.14-2.05-.33-3.08-.56-1.07-.26-1.95-.49-3.22-.95l-.24-.09-.21-.12c-1.52-.85-2.99-1.89-4.27-3.16-1.26-1.28-2.34-2.76-3.15-4.32-1.62-3.16-2.22-6.52-2.33-9.68-.1-3.18.31-6.22.94-9.14.64-2.89,1.48-5.54,2.67-8.38Z"/>
        </g>
        <path class="cls-13" d="M288.92,207.75l-1.3-.29c.2.01.44.01.69,0,.2.1.4.19.6.28Z"/>
        <path class="cls-13" d="M246.33,208.48l-.45-.21c.07.03.17.05.25.09.07.04.13.08.19.12Z"/>
        <path class="cls-13" d="M297.1,196.71s-.01-.06-.02-.09l.11.27c-.03-.06-.06-.12-.09-.18Z"/>
      </g>
      <path class="cls-2" d="M263.06,144.98c8.63,14.78,13.87,36.71,13.87,36.71l7.54,3.93c10.25,1.12,12.64,11.84,12.64,11.84-1.02,7.82-7.87,2.07-7.87,2.07-7.51-7.58-20.4-3-20.4-3-10.85,2.31-12.77,3.97-12.77,3.97-8.85-13.47-.64-27.29-.64-27.29,11.26-18.11,7.64-28.22,7.64-28.22Z"/>
      <g>
        <path class="cls-1" d="M259.95,139.15s-.04-.08-.07-.12c0,0,.03.05.07.12Z"/>
        <path class="cls-1" d="M259.95,139.15c7.72,12.31-.93,27.56-.93,27.56-14.12,22.39-2.8,32.16-2.8,32.16-7.52,4.16-14.03,1.94-14.03,1.94-5.34-22.04,10.81-38.74,10.81-38.74,10.27-15.33,7.43-22,6.95-22.92Z"/>
      </g>
    </g>
    <g>
      <path class="cls-13" d="M316.44,154.17c4.96,1.62,7.61,7.21,5.93,12.48-1.68,5.27-7.06,8.23-12.02,6.6-4.96-1.62-7.61-7.21-5.93-12.48,1.68-5.27,7.06-8.22,12.02-6.6Z"/>
      <path class="cls-16" d="M320.48,163.38c1.82.6,2.78,2.67,2.14,4.64-.63,1.97-2.61,3.09-4.42,2.5-1.82-.6-2.78-2.67-2.15-4.65.63-1.98,2.61-3.09,4.43-2.5Z"/>
    </g>
    <g>
      <path class="cls-13" d="M235.98,148.86c4.49,1.47,6.9,6.54,5.38,11.32-1.53,4.78-6.41,7.46-10.91,5.99-4.5-1.47-6.91-6.54-5.38-11.32,1.53-4.78,6.41-7.46,10.91-5.99Z"/>
      <path class="cls-16" d="M239.65,157.22c1.65.54,2.52,2.42,1.95,4.21-.57,1.79-2.37,2.8-4.01,2.26-1.65-.54-2.52-2.43-1.95-4.21.57-1.79,2.37-2.8,4.01-2.26Z"/>
    </g>
    <g>
      <g>
        <path class="cls-4" d="M232.92,114.56s5.63,6,10,10.05c0,0,3.57,3.89,7.62,3.82,1.76-.03,3.59-3.03,7.01-.99,0,0,4.31,12.03-10.5,12.01,0,0-7.81-.98-10.36-4.43,0,0-4.25-5.92-14.48-5.17,0,0-14.13,3.78-10.67-6.8,0,0,5.02-19.14,21.38-8.48Z"/>
        <path class="cls-13" d="M208.42,122.1c-1.53,4.76-.18,7.54,1.24,9.03,3.69,3.89,10.96,2.46,13.07,1.94,7.92-.47,11.2,3.7,11.34,3.88,3.22,4.36,11.04,5.54,12.58,5.73l.4.03h.04c5.85,0,10.01-1.7,12.37-5.04,3.37-4.78,1.4-10.68,1.17-11.33l-.39-1.1-1-.6c-3.92-2.34-6.99-.6-8.47.24-.18.1-.34.21-.51.28-2.08-.12-4.4-2.19-4.92-2.76l-.19-.19c-4.23-3.92-9.78-9.82-9.83-9.88l-.27-.29-.33-.21c-5.72-3.72-11-4.69-15.69-2.88-7.52,2.9-10.28,12-10.6,13.16ZM214.64,124.05l.06-.19c.52-1.94,2.75-7.34,6.69-8.84,2.55-.98,5.72-.28,9.44,2.06,1.2,1.27,5.91,6.23,9.8,9.83.81.85,4.9,4.92,9.98,4.76,1.41-.03,2.49-.64,3.37-1.14.37-.21.63-.35.84-.44.14,1.14.12,2.68-.7,3.82-1.3,1.82-4.39,2.23-6.84,2.25-2.61-.37-6.81-1.57-7.95-3.11-.19-.27-5.43-7.36-17.34-6.49l-.61.1c-2.8.74-6.26.72-6.97-.04-.12-.13-.32-.85.25-2.6Z"/>
      </g>
      <path class="cls-5" d="M228.34,115.68s2.74.2,6.35,4.94c0,0,4.41,4.51,8.76,9.24,0,0,4.58,2.59-3.97,3.41,0,0-8.11-2.39-9.75-4.78,0,0-2.45-2.09-8.32-.97,0,0-6.54,1.67-5.04-6.29,0,0,4.47-9.69,11.96-5.55Z"/>
      <path class="cls-1" d="M221.12,114.53c1.45-2.13,9.74,2.43,9.74,2.43-12.98-2.77-9.67,9.51-9.67,9.51-4.11,4.01-7.13-.68-7.13-.68.61-11.81,7.06-11.27,7.06-11.27Z"/>
    </g>
    <g>
      <path class="cls-9" d="M240.18,49.73c98.28-39.37,190.49,20.5,190.49,20.5,10.81,65.83,6.69,105.02,6.69,105.02-125.77-56.7-229.72-46.1-229.72-46.1,17.37-67.35,32.54-79.42,32.54-79.42Z"/>
      <path class="cls-19" d="M204.48,128.33l-1.17,4.53,4.66-.47c1.04-.1,104.62-9.82,228.05,45.83l4.11,1.85.47-4.49c.17-1.62,4.04-40.38-6.71-105.89l-.23-1.42-1.21-.78c-.96-.62-23.87-15.35-59.28-25.42-32.73-9.31-82.59-16.06-134.2,4.62l-.44.18-.37.3c-.65.52-16.23,13.53-33.67,81.16ZM211.95,125.58c14.89-55.93,27.91-70.91,30.01-73.04,89.42-35.48,174.66,13,185.73,19.69,8.28,51.2,7.43,86.2,6.75,98.15-108.44-47.77-201.09-45.98-222.5-44.8Z"/>
    </g>
    <path class="cls-7" d="M319.7,70.86c38.32,28.12,27,68.06,27,68.06-60.76-20.07-131.03-18.41-131.03-18.41,21.35-48.52,25.46-53.18,25.46-53.18,49.77-24.89,78.58,3.52,78.58,3.52Z"/>
    <path class="cls-16" d="M315.08,55.04c-35.67,1.16-64.08,17.79-64.08,17.79-16.24,30.17-17.23,38.78-17.23,38.78,76.56,3.79,106.87,25.32,106.87,25.32-99.03-17.36-128.43-13.36-128.43-13.36,12.72-40.86,20.77-56.73,20.77-56.73,29.97-15.88,82.1-11.81,82.1-11.81Z"/>
    <path class="cls-7" d="M421.83,91.22s6.85,12.66-14.3,13.08c0,0,9.01,5.15,12.08,54.98,0,0-15.24-7.23-23.23-8.82,0,0-22.39-52.38-9.52-81.03,0,0,20.92,2.98,34.97,21.79Z"/>
    <path class="cls-16" d="M403.95,78.71c3.58,25.58-.34,60.35-.34,60.35-19.24-53.5-9.39-69.48-9.39-69.48l9.73,9.12Z"/>
    <g>
      <path class="cls-19" d="M406.5,71.53c.39,4.17.7,8.34.96,12.51.54,8.34.86,16.67,1.05,25,.23,8.33.25,16.66.25,24.98l-.12,12.48-.26,12.47-.55-12.46-.7-12.45c-.54-8.29-1.11-16.58-1.88-24.84-.74-8.27-1.6-16.51-2.67-24.72-.53-4.1-1.11-8.19-1.76-12.27-.65-4.05-1.36-8.19-2.22-12.03l6.39-1.3c.67,4.32,1.09,8.42,1.49,12.62Z"/>
      <path class="cls-19" d="M265.07,103.86c.44-5.69.94-11.38,1.76-17.05.79-5.67,1.76-11.34,3.05-16.97.67-2.81,1.36-5.62,2.19-8.41.84-2.83,1.68-5.5,2.96-8.46l5.81,2.98c-1.19,2.16-2.35,4.82-3.36,7.36-1.05,2.57-1.97,5.21-2.87,7.86-1.77,5.32-3.24,10.76-4.56,16.25-1.34,5.49-2.38,11.06-3.35,16.65-.48,2.8-.86,5.61-1.29,8.41l-1.06,8.46.24-8.53c.17-2.84.28-5.69.49-8.54Z"/>
    </g>
    <g>
      <g>
        <path class="cls-9" d="M392.92,83.31c1.91-.03,3.5,2.71,3.56,6.13.06,3.42-1.44,6.21-3.35,6.24-1.91.03-3.5-2.71-3.56-6.13-.06-3.42,1.44-6.22,3.35-6.25Z"/>
        <path class="cls-19" d="M387.64,83.63c-.89,1.66-1.36,3.79-1.32,5.99.09,5.34,3,9.33,6.78,9.33.03,0,.06,0,.09,0,2.13-.04,4.03-1.34,5.23-3.58.89-1.66,1.36-3.79,1.32-5.99-.09-5.39-3.11-9.44-6.87-9.34-2.13.03-4.03,1.34-5.23,3.58ZM392.84,89.5c-.01-.65.06-1.22.16-1.68.12.46.21,1.02.22,1.67.01.65-.06,1.22-.16,1.68-.12-.46-.21-1.02-.22-1.67Z"/>
      </g>
      <path class="cls-7" d="M392.94,87.25c1.12-.02,2.05,1.59,2.09,3.6.04,2.01-.84,3.65-1.97,3.67-1.12.02-2.05-1.59-2.09-3.6-.04-2.01.84-3.65,1.97-3.67Z"/>
      <path class="cls-16" d="M392.68,89.5c.77-.01,1.42,1.1,1.44,2.49.03,1.39-.58,2.52-1.36,2.54-.77.01-1.42-1.1-1.44-2.49-.02-1.39.58-2.52,1.36-2.54Z"/>
    </g>
    <g>
      <g>
        <path class="cls-9" d="M392.61,115.97c1.9-.03,3.5,2.71,3.56,6.13.06,3.42-1.44,6.21-3.35,6.24-1.9.04-3.5-2.71-3.56-6.13-.06-3.42,1.44-6.21,3.35-6.25Z"/>
        <path class="cls-19" d="M386,122.28c.05,3.13,1.12,5.99,2.86,7.67,1.11,1.08,2.5,1.66,3.92,1.66.03,0,.06,0,.09,0,2.13-.04,4.03-1.34,5.23-3.57.89-1.66,1.36-3.79,1.32-5.99-.09-5.34-3-9.34-6.79-9.34h-.08c-3.83.07-6.65,4.18-6.56,9.57ZM392.52,122.17c-.01-.65.06-1.21.16-1.67.12.46.21,1.02.22,1.67.01.65-.06,1.22-.16,1.68-.12-.46-.21-1.02-.22-1.67Z"/>
      </g>
      <path class="cls-7" d="M392.62,119.91c1.12-.02,2.06,1.59,2.09,3.6.03,2.01-.84,3.65-1.97,3.67-1.12.02-2.05-1.59-2.09-3.6-.04-2.01.84-3.65,1.97-3.67Z"/>
      <path class="cls-16" d="M392.36,122.17c.77,0,1.42,1.1,1.44,2.49.03,1.39-.58,2.52-1.36,2.54-.77.01-1.42-1.1-1.44-2.49-.02-1.39.58-2.52,1.36-2.54Z"/>
    </g>
    <g>
      <g>
        <path class="cls-9" d="M237.27,43.87c33.99-16.22,66.54-12.46,66.54-12.46,80.51-.2,129.89,40.06,129.89,40.06,4.51,18.95.2,20.48.2,20.48-41.42-30.6-99.75-38.19-99.75-38.19-46.99-8.66-102.04,8.6-102.04,8.6-2.93-1.12-2.45-2.73-2.52-4.67-.1-2.91,1.82-6.37,3.76-9.1,1.94-2.72,3.91-4.72,3.91-4.72Z"/>
        <path class="cls-19" d="M230.7,46.69c-3.01,4.22-4.48,7.96-4.37,11.1,0,.22,0,.44,0,.66,0,1.68-.03,5.19,4.61,6.95l1.06.4,1.08-.34c.54-.17,54.85-16.92,100.48-8.51l.17.03c.58.07,58,7.86,98.23,37.58l1.4,1.03,1.63-.58c3.23-1.14,6.17-6.29,1.88-24.31l-.26-1.07-.86-.7c-2.05-1.67-50.97-40.79-131.35-40.79-.14,0-.28,0-.43,0-3.08-.33-34.69-3.18-68.12,12.78l-.52.25-.4.41c-.09.09-2.17,2.21-4.24,5.12ZM232.86,58.49c0-.3,0-.6,0-.92-.06-1.61,1.1-4.2,3.16-7.09,1.28-1.79,2.58-3.26,3.21-3.93,32.49-15.3,63.9-11.94,64.21-11.9l.38.02c.19,0,.39,0,.58,0,72.46,0,119.57,33.51,126.39,38.67,1.63,7.14,1.82,11.26,1.66,13.55-40.85-28.44-94.43-35.91-97.78-36.36-43.12-7.92-91.91,5.29-101.8,8.19,0-.08,0-.16,0-.23Z"/>
      </g>
      <path class="cls-7" d="M254.57,41.26c57.34-14.61,107.45,1.38,107.45,1.38-80.61-6.31-112.09,11.16-112.09,11.16-8.86.72,4.64-12.54,4.64-12.54Z"/>
      <path class="cls-16" d="M278.83,38.94c-14.25,8.62-40.02,18.33-40.02,18.33-6.7,5.08-5.61-3.81-5.61-3.81,9.76-19.36,45.64-14.52,45.64-14.52Z"/>
      <g>
        <g>
          <path class="cls-9" d="M257.9,40.83c1.66.36,2.46,2.97,1.8,5.81-.67,2.84-2.55,4.86-4.21,4.49-1.66-.36-2.47-2.97-1.8-5.81.67-2.85,2.56-4.86,4.22-4.49Z"/>
          <path class="cls-19" d="M258.6,37.64c1.38.3,2.59,1.18,3.41,2.47,1.19,1.89,1.51,4.54.87,7.27-.99,4.22-3.87,7.05-6.98,7.05-.37,0-.74-.04-1.11-.12-1.38-.3-2.59-1.18-3.4-2.47-1.19-1.89-1.51-4.54-.87-7.28,1.11-4.72,4.58-7.71,8.09-6.93Z"/>
        </g>
        <path class="cls-7" d="M257.09,44.1c.97.21,1.45,1.75,1.06,3.42-.39,1.67-1.5,2.85-2.48,2.64-.98-.21-1.45-1.74-1.06-3.42.39-1.67,1.5-2.85,2.48-2.64Z"/>
        <path class="cls-16" d="M256.38,45.91c.67.15,1,1.2.73,2.36-.27,1.16-1.04,1.97-1.71,1.82-.68-.15-1-1.2-.73-2.36.27-1.15,1.04-1.97,1.71-1.82Z"/>
      </g>
      <g>
        <g>
          <path class="cls-9" d="M377.27,47.47c1.99.13,3.42,3,3.2,6.4-.22,3.41-2.01,6.07-4,5.95-1.99-.13-3.42-3-3.2-6.41.22-3.41,2.01-6.07,4-5.95Z"/>
          <path class="cls-19" d="M370.01,53.2c-.35,5.37,2.34,9.62,6.25,9.87h0c.12,0,.23.01.35.01,3.75,0,6.78-3.8,7.11-9.01.14-2.21-.25-4.38-1.11-6.1-1.13-2.26-3-3.63-5.14-3.77-3.9-.23-7.12,3.61-7.46,8.99ZM376.52,53.62c.06-.91.26-1.62.48-2.13.15.53.27,1.26.21,2.16-.06.91-.26,1.62-.48,2.13-.15-.53-.27-1.26-.21-2.17Z"/>
        </g>
        <path class="cls-7" d="M376.96,51.39c1.17.07,2.01,1.76,1.88,3.77-.13,2-1.18,3.56-2.35,3.49-1.17-.08-2.01-1.76-1.88-3.77.13-2,1.18-3.57,2.35-3.49Z"/>
        <path class="cls-16" d="M376.5,53.62c.8.05,1.39,1.21,1.3,2.6-.09,1.38-.82,2.46-1.62,2.41-.8-.05-1.39-1.21-1.3-2.6.09-1.38.82-2.46,1.62-2.41Z"/>
      </g>
      <g>
        <g>
          <path class="cls-9" d="M414.96,64.45c1.99-.05,3.7,2.68,3.82,6.09.11,3.42-1.41,6.23-3.4,6.28-1.99.05-3.7-2.68-3.82-6.09-.11-3.42,1.41-6.23,3.4-6.28Z"/>
          <path class="cls-19" d="M410.79,63.1c-1.69,1.8-2.6,4.62-2.5,7.74.18,5.31,3.19,9.25,7.02,9.25.05,0,.09,0,.14,0,1.5-.04,2.95-.72,4.07-1.91,1.69-1.8,2.6-4.62,2.5-7.74-.18-5.37-3.29-9.29-7.16-9.25-1.51.04-2.96.72-4.08,1.91ZM414.82,70.62c-.03-.89.1-1.61.27-2.13.21.52.4,1.24.43,2.16.03.9-.1,1.61-.27,2.13-.21-.52-.4-1.24-.43-2.17Z"/>
        </g>
        <path class="cls-7" d="M415.03,68.39c1.17-.03,2.18,1.57,2.24,3.58.07,2.01-.83,3.66-2,3.69-1.17.03-2.17-1.57-2.24-3.58-.07-2.01.83-3.66,1.99-3.69Z"/>
        <path class="cls-16" d="M414.8,70.65c.81-.02,1.5,1.09,1.55,2.47.05,1.39-.57,2.53-1.38,2.55-.81.02-1.5-1.09-1.55-2.47-.05-1.39.57-2.53,1.38-2.55Z"/>
      </g>
      <g>
        <g>
          <path class="cls-9" d="M301.64,34.8c1.97.28,3.16,3.25,2.65,6.63-.51,3.38-2.52,5.89-4.49,5.61-1.98-.28-3.16-3.25-2.65-6.63.51-3.38,2.52-5.89,4.5-5.61Z"/>
          <path class="cls-19" d="M293.92,39.92c-.47,3.08.11,5.99,1.58,7.97.98,1.32,2.34,2.16,3.83,2.37.26.04.53.06.79.06,3.55,0,6.65-3.46,7.4-8.41.46-3.09-.11-6-1.59-7.98-.98-1.31-2.34-2.15-3.82-2.36-3.85-.57-7.38,3.04-8.18,8.35ZM300.37,40.89c.14-.91.41-1.61.67-2.1.1.53.15,1.26.02,2.15-.14.91-.41,1.61-.67,2.1-.1-.53-.15-1.26-.02-2.15Z"/>
        </g>
        <path class="cls-7" d="M301,38.68c1.16.17,1.86,1.91,1.56,3.9-.3,1.98-1.48,3.46-2.64,3.3-1.16-.17-1.85-1.91-1.56-3.9.3-1.98,1.48-3.46,2.64-3.3Z"/>
        <path class="cls-16" d="M300.35,40.86c.8.11,1.28,1.32,1.07,2.69-.21,1.37-1.02,2.39-1.82,2.27-.8-.11-1.28-1.32-1.08-2.69.21-1.37,1.02-2.39,1.83-2.28Z"/>
      </g>
    </g>
    <g>
      <g>
        <path class="cls-9" d="M243.18,74.64c1.86.43,2.73,3.48,1.96,6.81-.78,3.33-2.91,5.68-4.77,5.25-1.85-.43-2.73-3.48-1.96-6.81.77-3.33,2.91-5.67,4.76-5.24Z"/>
        <path class="cls-19" d="M235.24,79.15c-1.22,5.24.67,9.86,4.39,10.73h0c.4.09.79.14,1.19.14,3.3,0,6.4-3.14,7.49-7.82,1.22-5.25-.67-9.86-4.4-10.73-3.73-.86-7.46,2.44-8.68,7.68ZM241.4,82.3c0-.47.05-1.04.2-1.68.15-.64.35-1.17.56-1.59,0,.47-.05,1.04-.19,1.68-.15.64-.35,1.17-.56,1.59Z"/>
      </g>
      <path class="cls-7" d="M242.24,78.47c1.09.25,1.61,2.05,1.15,4-.46,1.96-1.71,3.34-2.8,3.08-1.09-.25-1.6-2.05-1.15-4,.45-1.96,1.71-3.34,2.8-3.08Z"/>
      <path class="cls-16" d="M241.43,80.59c.75.18,1.11,1.41.79,2.77-.31,1.35-1.18,2.3-1.93,2.13-.75-.18-1.11-1.41-.79-2.77.31-1.35,1.18-2.3,1.93-2.13Z"/>
    </g>
    <g>
      <g>
        <path class="cls-9" d="M233.38,101.84c1.86.43,2.74,3.48,1.96,6.81-.78,3.33-2.91,5.68-4.77,5.25-1.85-.43-2.73-3.49-1.96-6.81.77-3.33,2.91-5.68,4.76-5.24Z"/>
        <path class="cls-19" d="M225.44,106.34c-1.22,5.25.67,9.86,4.39,10.73h0c.4.09.79.14,1.19.14,3.3,0,6.4-3.14,7.49-7.82.71-3.04.37-6.08-.91-8.14-.84-1.34-2.08-2.26-3.49-2.59-1.41-.33-2.92-.05-4.27.79-2.05,1.28-3.7,3.85-4.41,6.9ZM231.6,109.5c0-.47.05-1.04.2-1.68.15-.64.35-1.17.56-1.59,0,.47-.05,1.04-.19,1.68-.15.64-.35,1.17-.56,1.59Z"/>
      </g>
      <path class="cls-7" d="M232.44,105.66c1.09.25,1.61,2.05,1.15,4-.46,1.95-1.71,3.34-2.8,3.08-1.09-.25-1.61-2.05-1.15-4,.46-1.96,1.71-3.34,2.8-3.08Z"/>
      <path class="cls-16" d="M231.64,107.78c.75.18,1.11,1.41.79,2.76-.31,1.35-1.18,2.31-1.93,2.13-.75-.18-1.11-1.41-.8-2.76.32-1.35,1.18-2.3,1.93-2.13Z"/>
    </g>
    <g>
      <g>
        <path class="cls-9" d="M240.18,171.51l7.15-44.89s7.75-18.1,19.33-20.57c0,0,12.17,8.09,10.88,25.7,0,0-2.71,22.31-6.89,40.98,48.01,5.23,92.16,13,92.16,13,1.97-40.13-2.15-56.42-2.15-56.42,50.5,12.18,85.75,32.13,85.75,32.13,4.44,7.07,4.52.3,4.53,5.44.22,70.76-13.58,118.49-13.58,118.49-19.58-.69-29.53,2.7-29.53,2.7-66.04,43.43-165.79,44.31-165.79,44.31-20.65-8.08-25.25-17.69-25.25-17.69-17.2-69.82-14.75-139.41-14.75-139.41,15.69-2.34,28.36-3.37,38.13-3.76Z"/>
        <path class="cls-19" d="M198.79,175.16c-.02.7-2.27,70.85,14.84,140.31l.22.63c.21.44,5.4,10.87,27,19.32l.59.23h.63c1-.01,101.08-1.39,167.16-44.59,1.89-.55,11.39-3.01,28.02-2.42l2.54.09.71-2.44c.14-.48,13.93-49,13.71-119.41,0-2.25-.01-3.73-1.58-4.79-.41-.28-1.16-.65-2.15-.57-.28-.31-.71-.86-1.3-1.8l-.44-.7-.72-.41c-.36-.2-36.23-20.32-86.59-32.46l-5.25-1.27,1.32,5.24c.04.15,3.72,15.46,2.22,51.78-11.24-1.9-46.79-7.72-85.11-12.01,3.73-17.79,6.15-37.53,6.18-37.74,1.43-19.45-11.76-28.44-12.32-28.81l-1.14-.76-1.34.29c-13.08,2.8-21.3,21.67-21.65,22.48l-.16.37-6.8,42.66c-11.01.54-23.04,1.77-35.81,3.67l-2.68.4-.1,2.71ZM205.25,178.1c12.56-1.79,24.34-2.91,35.06-3.33l2.67-.1,7.51-47.12c2.04-4.57,8.17-15.26,15.47-17.91,2.69,2.33,9.25,9.35,8.33,21.87-.01.07-2.73,22.22-6.82,40.5l-.8,3.56,3.63.39c47.36,5.16,91.51,12.9,91.95,12.98l3.64.64.18-3.69c1.37-28.02-.18-44.54-1.3-52.2,43.09,11.03,74.35,27.49,79.33,30.2.79,1.21,1.99,2.82,3.58,3.69.11,60.21-10.1,103.94-12.81,114.45-.92-.02-1.82-.02-2.69-.02-16.48,0-25.02,2.84-25.41,2.97l-.39.13-.35.23c-61.76,40.62-154.88,43.58-163.4,43.76-16.65-6.64-21.9-14.2-22.78-15.63-14.9-60.77-14.83-121.93-14.61-135.38Z"/>
      </g>
      <path class="cls-7" d="M263.6,110.13c10.3,1.12,10.43,21.57,10.43,21.57l-8.64,47.25c70.27,7.98,105.36,15.35,105.36,15.35,1.01-47.33-1.86-59.89-1.86-59.89,15.43,3.24,19.61,12.84,19.61,12.84-1.75,109.16-16.54,146.81-16.54,146.81-36.88,26.66-133.23,31.25-133.23,31.25,3.55-104.78,9.5-136.7,9.5-136.7,7.22-46.96,15.38-78.47,15.38-78.47Z"/>
      <path class="cls-7" d="M244.94,177.08l4.25-29.26c.35-26.54,14.12-32.8,14.12-32.8-6.91,29.81-13.65,76.94-13.65,76.94-1.64,16.92-15.36,20.33-15.36,20.33-17.81,18.43-3.97,38.98-3.97,38.98,15.1,28.86-9.17,55.83-9.17,55.83-15.88-77.36-14.02-125.85-14.02-125.85,25.39-6.65,37.8-4.16,37.8-4.16Z"/>
      <g>
        <g>
          <path class="cls-9" d="M263.81,114.72c1.89.27,3.03,3.22,2.56,6.61-.47,3.38-2.38,5.91-4.27,5.65-1.89-.26-3.04-3.22-2.56-6.61.47-3.38,2.39-5.92,4.27-5.65Z"/>
          <path class="cls-19" d="M256.31,119.92c-.31,2.18-.1,4.34.58,6.1.92,2.36,2.65,3.89,4.75,4.19h0c.24.04.49.05.73.05,3.49,0,6.53-3.5,7.23-8.48.74-5.33-1.55-9.75-5.34-10.29-2.11-.29-4.2.7-5.73,2.72-1.14,1.5-1.93,3.53-2.23,5.71ZM262.72,122.51c-.05-.47-.05-1.04.05-1.68.09-.65.25-1.19.42-1.63.05.47.04,1.03-.05,1.68-.09.65-.24,1.19-.42,1.63Z"/>
        </g>
        <path class="cls-7" d="M263.22,118.61c1.11.15,1.78,1.89,1.5,3.88-.28,1.99-1.4,3.48-2.51,3.32-1.11-.16-1.78-1.89-1.5-3.88.28-1.99,1.4-3.48,2.51-3.32Z"/>
        <path class="cls-16" d="M262.6,120.8c.77.1,1.23,1.31,1.04,2.68-.19,1.37-.97,2.4-1.73,2.29-.77-.11-1.23-1.31-1.04-2.68.19-1.38.97-2.4,1.73-2.29Z"/>
      </g>
      <g>
        <g>
          <path class="cls-9" d="M382.06,141.8c1.9-.08,3.57,2.62,3.71,6.03.15,3.42-1.28,6.25-3.18,6.33-1.9.08-3.56-2.62-3.71-6.03-.15-3.42,1.28-6.24,3.18-6.33Z"/>
          <path class="cls-19" d="M375.62,148.27c.09,2.2.69,4.29,1.68,5.9,1.28,2.08,3.17,3.26,5.2,3.26.08,0,.15,0,.23,0,1.45-.06,2.83-.74,3.9-1.9,1.64-1.78,2.53-4.71,2.4-7.83-.23-5.38-3.27-9.33-7.11-9.15-3.83.17-6.54,4.35-6.3,9.73ZM382.14,147.99c-.03-.65.03-1.22.12-1.68.13.45.23,1.01.26,1.66.03.65-.03,1.22-.12,1.68-.13-.45-.23-1.01-.26-1.66Z"/>
        </g>
        <path class="cls-7" d="M382.17,145.74c1.12-.05,2.1,1.54,2.18,3.55.09,2-.75,3.67-1.87,3.72-1.12.05-2.09-1.54-2.18-3.55-.09-2.01.75-3.67,1.87-3.72Z"/>
        <path class="cls-16" d="M381.97,148c.77-.04,1.45,1.06,1.51,2.45.06,1.39-.52,2.54-1.29,2.57-.77.03-1.45-1.06-1.51-2.45-.06-1.39.52-2.54,1.29-2.57Z"/>
      </g>
      <path class="cls-16" d="M362.11,132.67l6.78,1.74c6.08,22.83,4.92,63.34,4.92,63.34-60.62-9.62-106.45-14.45-106.45-14.45l-1.2-7.27c29.69,2.76,99.63,14.79,99.63,14.79,2.12-52.08-3.68-58.15-3.68-58.15Z"/>
      <g>
        <g>
          <path class="cls-9" d="M410.78,153.32c1.9-.08,3.57,2.62,3.71,6.03.15,3.42-1.28,6.25-3.18,6.33-1.9.08-3.56-2.62-3.71-6.03-.15-3.42,1.28-6.25,3.18-6.33Z"/>
          <path class="cls-19" d="M404.34,159.79c.1,2.2.69,4.29,1.68,5.9,1.28,2.08,3.17,3.26,5.2,3.26.08,0,.15,0,.23,0,1.45-.06,2.83-.74,3.9-1.9,1.63-1.78,2.53-4.71,2.4-7.83-.23-5.38-3.31-9.32-7.11-9.15-3.83.17-6.54,4.35-6.3,9.73ZM410.86,159.51c-.03-.65.03-1.21.12-1.68.13.45.23,1.01.26,1.66.03.65-.03,1.21-.12,1.68-.13-.45-.23-1.01-.26-1.66Z"/>
        </g>
        <path class="cls-7" d="M410.9,157.26c1.12-.05,2.09,1.54,2.18,3.55.09,2.01-.75,3.67-1.87,3.72-1.12.05-2.1-1.54-2.18-3.55-.09-2.01.75-3.67,1.87-3.72Z"/>
        <path class="cls-16" d="M410.7,159.52c.77-.03,1.45,1.06,1.51,2.45.06,1.39-.52,2.54-1.29,2.57s-1.45-1.06-1.51-2.45c-.06-1.39.52-2.54,1.29-2.57Z"/>
      </g>
      <g>
        <g>
          <path class="cls-9" d="M409.37,194.07c1.89.23,3.09,3.17,2.67,6.56-.42,3.39-2.29,5.95-4.18,5.72-1.89-.24-3.09-3.17-2.67-6.56.42-3.39,2.29-5.95,4.18-5.72Z"/>
          <path class="cls-19" d="M401.95,199.4c-.66,5.34,1.71,9.73,5.51,10.2h0c.21.03.43.04.64.04,1.88,0,3.69-1.01,5.03-2.85,1.11-1.52,1.87-3.56,2.14-5.75.27-2.18.02-4.35-.68-6.09-.96-2.35-2.71-3.85-4.83-4.11-3.8-.47-7.16,3.21-7.82,8.56ZM408.41,201.88c-.05-.47-.06-1.03.02-1.68.08-.65.23-1.2.39-1.64.05.47.06,1.03-.02,1.68-.08.65-.23,1.2-.39,1.64Z"/>
        </g>
        <path class="cls-7" d="M408.84,197.97c1.11.13,1.81,1.86,1.57,3.85-.25,1.99-1.34,3.5-2.46,3.36-1.11-.14-1.81-1.86-1.57-3.86.24-1.99,1.34-3.49,2.45-3.36Z"/>
        <path class="cls-16" d="M408.26,200.17c.77.1,1.25,1.29,1.09,2.66-.17,1.38-.93,2.41-1.7,2.32-.77-.1-1.25-1.29-1.08-2.66.17-1.38.93-2.42,1.69-2.32Z"/>
      </g>
      <g>
        <g>
          <path class="cls-9" d="M405.69,228.17c1.89.23,3.09,3.17,2.67,6.56-.42,3.39-2.29,5.95-4.18,5.72-1.89-.23-3.09-3.17-2.67-6.56s2.29-5.95,4.18-5.72Z"/>
          <path class="cls-19" d="M398.28,233.49c-.27,2.18-.02,4.35.69,6.1.96,2.35,2.71,3.84,4.82,4.1.22.03.43.04.65.04,3.53,0,6.55-3.56,7.17-8.6.38-3.1-.28-6.09-1.77-7.99-.97-1.25-2.31-2.03-3.75-2.2-1.43-.18-2.91.26-4.16,1.23-1.91,1.49-3.27,4.23-3.65,7.33ZM404.73,235.97c-.05-.47-.06-1.03.02-1.68.08-.65.23-1.2.39-1.64.05.47.06,1.03-.02,1.68-.08.65-.23,1.2-.39,1.64Z"/>
        </g>
        <path class="cls-7" d="M405.16,232.07c1.11.14,1.81,1.86,1.57,3.85-.25,1.99-1.34,3.5-2.45,3.36-1.11-.14-1.82-1.86-1.57-3.86.24-1.99,1.34-3.5,2.45-3.36Z"/>
        <path class="cls-16" d="M404.59,234.27c.77.1,1.25,1.29,1.08,2.66-.17,1.38-.93,2.42-1.7,2.32-.77-.1-1.25-1.29-1.08-2.66.17-1.38.93-2.41,1.7-2.32Z"/>
      </g>
      <g>
        <g>
          <path class="cls-9" d="M402.12,260.64c1.89.23,3.09,3.17,2.67,6.56-.42,3.39-2.29,5.95-4.18,5.72-1.89-.23-3.09-3.17-2.67-6.56.42-3.39,2.29-5.95,4.18-5.72Z"/>
          <path class="cls-19" d="M394.7,265.96c-.27,2.18-.02,4.34.69,6.09.96,2.35,2.72,3.84,4.83,4.1.22.03.43.04.65.04,3.53,0,6.55-3.56,7.17-8.6.38-3.1-.28-6.09-1.77-7.99-.97-1.25-2.31-2.03-3.75-2.2-2.1-.26-4.17.77-5.67,2.81-1.11,1.52-1.87,3.57-2.14,5.75ZM401.16,268.44c-.05-.47-.06-1.03.02-1.68.08-.65.23-1.2.39-1.64.05.47.06,1.03-.02,1.68-.08.65-.23,1.2-.39,1.64Z"/>
        </g>
        <path class="cls-7" d="M401.59,264.54c1.11.14,1.81,1.86,1.57,3.86-.25,1.99-1.34,3.5-2.45,3.36s-1.82-1.86-1.57-3.86c.24-1.99,1.34-3.5,2.46-3.36Z"/>
        <path class="cls-16" d="M401.01,266.73c.77.1,1.25,1.29,1.09,2.66-.17,1.38-.93,2.42-1.7,2.32-.77-.1-1.25-1.28-1.08-2.66.17-1.38.93-2.41,1.69-2.32Z"/>
      </g>
      <path class="cls-7" d="M426.84,157.16s13.15,1.54,13.44,5.7c0,0-.05,52.15-15.67,118.23,0,0-6.97,4.24-3.63-12.13,0,0,8.08-44.52,3.92-61.75,0,0-16.51-48.25,1.94-50.06Z"/>
      <path class="cls-16" d="M447.98,166.73c2.06,51.43-13.65,114.95-13.65,114.95-5.6.43-9.62-2.21-9.62-2.21,13.8-65.93,15.57-116.61,15.57-116.61l7.69,3.86Z"/>
      <path class="cls-19" d="M411.42,252.47c1.51-11.32,2.81-22.66,3.88-34,1.04-11.35,1.89-22.72,2.4-34.09.48-11.33.78-22.81.35-33.96l6.52-.2c-.1,11.69-.96,23.05-1.99,34.5-1.07,11.42-2.46,22.79-4.04,34.13-1.62,11.33-3.46,22.63-5.51,33.88-.99,5.63-2.15,11.23-3.22,16.84l-3.51,16.78,2.71-16.92c.8-5.65,1.69-11.29,2.41-16.95Z"/>
      <path class="cls-19" d="M243.32,236.91c1.18-15.94,2.42-31.92,5.06-47.74,2.6-15.76,5.68-31.47,9.51-46.97-3.23,15.65-5.68,31.42-7.67,47.25-2.1,15.77-2.83,31.72-3.49,47.65-.6,15.94-.92,31.89-1.12,47.84-.19,15.95-.24,31.92-.14,47.85l-6.53-.05c.43-16,.99-31.96,1.7-47.94.71-15.97,1.55-31.94,2.67-47.89Z"/>
    </g>
    <g>
      <path class="cls-7" d="M219.87,130.79s-7.58,11.31-7.74,41.24l-9.98,1.62s-.82-27.2,5.4-42.87c0,0,4.71-4.43,12.33.01Z"/>
      <path class="cls-19" d="M204.51,129.57c-6.39,16.1-5.66,43.03-5.62,44.17l.11,3.72,16.38-2.65.02-2.76c.16-28.27,7.14-39.35,7.21-39.46l1.86-2.87-2.94-1.74c-9.61-5.61-15.95.18-16.21.43l-.53.5-.27.67ZM205.38,169.82c.03-7.67.61-25.45,4.87-36.99.8-.47,2.55-1.17,5.15-.45-2.3,5.22-6.07,16.76-6.5,36.87l-3.52.57Z"/>
    </g>
    <path class="cls-16" d="M241.54,183.26c-18.14.51-27.22,1.68-27.22,1.68-5.13,37.98,6.74,123.78,6.74,123.78-15.9-34.06-15.85-131.62-15.85-131.62,17.27-3,36.51-3.86,36.51-3.86l-.18,10.02Z"/>
    <path class="cls-16" d="M259.32,219.88c12.19,19.55-1,38.34-1,38.34-11.56,27.48,9.11,36.11,9.11,36.11,21.32,7.06,25.71,25.08,25.71,25.08-38.14,8.02-50.08,6.15-50.08,6.15-2.51-79.4,10.83-153.72,10.83-153.72-3.99,24.34,5.44,48.04,5.44,48.04Z"/>
  </g>
  <g>
    <g>
      <path class="cls-9" d="M478.99,236.43c58.1-10.91,98.89-6.23,98.89-6.23,33.98,112.08,31.58,140.44,31.58,140.44,12.1,92.78-70.93,160.83-71.95,160.56-.86.61-102.92-32.68-125.3-123.52,0,0-12.53-25.56-21.52-142.33,0,0,9.45-14.11,88.29-28.92Z"/>
      <path class="cls-19" d="M387.98,263.53l-.63.94.09,1.13c8.49,110.3,20.1,139.61,21.68,143.16,20.56,82.71,104.39,117.41,121,123.54,3.87,1.43,5.87,2.05,7.1,2.18.15.02.29.04.43.04s.31-.02.47-.05c.32-.05.59-.16.84-.31,1.1-.56,2.74-1.87,5.85-4.62,13.26-11.73,78.77-74.48,67.92-159,.18-3.88.37-35.41-31.73-141.27l-.62-2.05-2.13-.24c-.41-.05-41.95-4.61-99.87,6.27-77.95,14.64-89.36,28.75-90.4,30.31ZM394.06,266.57c3.42-2.95,20.52-14.72,85.53-26.93,49.54-9.3,86.75-7.14,95.8-6.39,32.53,107.72,30.83,136.85,30.81,137.14l-.02.33.04.35c6.01,46.11-12.5,85.69-29.09,110.79-16.96,25.65-35.64,42.25-40.23,45.83h-.06s-.05.02-.05.02c-5.59-1.67-29.01-10.36-54.12-28.11-24.56-17.36-56.18-47.54-67.3-92.68l-.24-.66c-.12-.24-12.31-26.9-21.08-139.67Z"/>
    </g>
    <path class="cls-7" d="M561.5,234.15c30.99,105.24,30.12,136.32,30.12,136.32,11.71,86.91-59.68,149.49-60.57,149.23-.74.56-89.96-31.86-110.58-117.1,0,0-11.23-24.06-20.53-133.37,0,0,25.16-17.48,79.11-26.42,53.52-11.24,82.45-8.67,82.45-8.67Z"/>
    <path class="cls-16" d="M479.23,241.12c33.42-6.28,60.93-7.23,77.77-6.97-15.35.9-36.52,3.02-61.98,7.81-74.23,13.94-85.81,29.27-85.81,29.27,8.46,109.93,20.26,134,20.26,134,21.07,85.53,103.94,111.87,104.74,111.29.59.15,26.68-14.45,57.25-61.63-20.65,44.2-54.88,72.02-55.53,71.86-.83.59-99.72-31.66-121.41-119.69,0,0-12.14-24.77-20.85-137.91,0,0,9.15-13.68,85.55-28.02Z"/>
    <g>
      <g>
        <path class="cls-18" d="M475.29,324.14c-7.98-29.39-18.02-52.33-18.02-52.33,19.5-18.81,48.4-7.48,48.4-7.48-8.52,17.89-6.79,36.18-6.05,54.61,34.06-3.68,59.09-20.44,59.09-20.44,22.12,22.01,6.74,40.45,6.74,40.45-23.66-3.63-45.54-5.57-64.09-2.26,17.2,93.08,48.12,123.41,48.12,123.41-28.04,41.01-57.43,12.47-57.43,12.47,3.1-51.92-8.83-104.97-12.98-130.51-33.78,10.3-53.07,20.33-53.07,20.33-18.28-19.49-4.87-40.79-4.87-40.79,16.4,3.95,39.07,5.39,54.15,2.53Z"/>
        <path class="cls-13" d="M419.07,320.31c-.14.23-14.19,23.14,5.16,43.77l1.27,1.35,1.64-.85c.19-.1,18.49-9.52,49.99-19.33.58,3.43,1.27,7.25,2.04,11.53,5.19,28.81,13.04,72.35,10.45,115.67l-.07,1.12.81.78c.46.45,10.84,10.35,25.47,10.36,1.05,0,2.13-.05,3.23-.16,11.9-1.2,22.82-8.95,32.46-23.04l1.16-1.69-1.46-1.44c-.3-.29-30.07-30.56-46.97-119.66,19.21-2.9,41.46-.3,60.85,2.67l1.36.21.88-1.06c.17-.2,16.55-20.43-6.89-43.75l-1.42-1.41-1.67,1.11c-.24.16-23.69,15.62-55.4,19.73-.03-.75-.07-1.5-.1-2.24-.76-16.88-1.49-32.82,6.02-48.58l1.13-2.37-2.45-.96c-1.24-.49-30.6-11.68-51,8l-1.23,1.18.68,1.56c.1.22,9.46,21.76,17.18,49.39-13.93,2.05-34.6.89-50.5-2.95l-1.71-.41-.94,1.49ZM422.38,324.41c17.51,3.93,39.18,4.82,53.36,2.13l2.6-.49-.69-2.55c-6.74-24.82-15.04-45.31-17.45-51.06,14.89-13.07,35.18-8.69,42.13-6.64-6.82,16.07-6.08,32.48-5.36,48.38.07,1.62.15,3.24.21,4.86l.11,2.62,2.6-.28c29.58-3.19,52.16-15.88,58.46-19.74,15.84,16.89,8.63,30.78,6.01,34.68-20.27-3.06-43.46-5.59-63.42-2.03l-2.42.43.45,2.42c15.26,82.56,41,115.95,47.39,123.19-8.49,11.83-17.83,18.33-27.78,19.33-11.86,1.19-21.26-5.82-24-8.12,2.41-43.5-5.4-86.86-10.59-115.64-.98-5.45-1.83-10.15-2.49-14.22l-.45-2.76-2.68.82c-27.99,8.53-46.32,17-51.78,19.65-12.67-14.79-6.63-30.16-4.21-34.97Z"/>
      </g>
      <path class="cls-20" d="M500.91,265.51c-9.45-1.74-22.53-1.44-34.94,10.16,0,0,9.59,22.45,16.95,49.34-5.04.96-9.19.63-6.3.08-1.5-16.64-16.25-52.48-16.25-52.48,18.92-18.25,40.64-7.32,40.54-7.1Z"/>
      <path class="cls-20" d="M560.22,304.28c-7.76,4.36-27.61,14.25-52.52,17.03,0-.27-.02-.53-.03-.79,29.31-4.9,50.12-18.82,50.12-18.82.87.87,1.66,1.73,2.42,2.59Z"/>
      <path class="cls-20" d="M566.59,334.02c-.85,1.45-1.51,2.26-1.51,2.26-20-3.07-38.69-4.89-55.06-3.19-.01-.06-.02-.11-.03-.17,16.51-2.96,35.78-1.7,56.61,1.1Z"/>
      <path class="cls-20" d="M487.38,338.25c3.93,24.39,17.66,80.72,14.7,130.32,0,0,22.42,12.66,43.48-8.11.47.54.73.81.73.81-25.68,34.71-51.52,10.02-51.52,10.02,2.63-51.75-8.96-104.72-13.3-130.93,2.38-.78,3.36-1.32,5.91-2.1Z"/>
      <path class="cls-20" d="M427.47,326.6c-1.73,4.61-7.84,15.32,2.43,30.13-3.64,1.96-4.42,2.99-4.42,2.99-14.4-19.46-4.41-35.09-4.41-35.09,2.02.72,4.18,1.37,6.41,1.97Z"/>
    </g>
  </g>
</svg>