<?xml version="1.0" encoding="UTF-8"?>
<svg id="Layer_1" data-name="Layer 1" xmlns="http://www.w3.org/2000/svg" version="1.1" viewBox="0 0 150 150">
  <defs>
    <style>
      .cls-1 {
        fill: #f3e0d8;
      }

      .cls-1, .cls-2, .cls-3, .cls-4, .cls-5, .cls-6, .cls-7, .cls-8, .cls-9, .cls-10, .cls-11, .cls-12, .cls-13, .cls-14, .cls-15, .cls-16, .cls-17, .cls-18, .cls-19, .cls-20 {
        stroke-width: 0px;
      }

      .cls-2 {
        fill: #fccaa7;
      }

      .cls-3 {
        fill: #f9edee;
      }

      .cls-4 {
        fill: #f4956e;
      }

      .cls-5 {
        fill: #fbe6a9;
      }

      .cls-6 {
        fill: #282728;
      }

      .cls-7 {
        fill: #ccc7ca;
      }

      .cls-8 {
        fill: #887f7c;
      }

      .cls-21 {
        opacity: .78;
      }

      .cls-9 {
        fill: #9584ab;
      }

      .cls-10 {
        fill: #bed5ef;
      }

      .cls-11 {
        fill: #442d3e;
      }

      .cls-12 {
        fill: #eaa498;
      }

      .cls-13 {
        fill: #683a57;
      }

      .cls-14 {
        fill: #4e3b6e;
      }

      .cls-15 {
        fill: #785b72;
      }

      .cls-16 {
        fill: #fff;
      }

      .cls-17 {
        fill: #8c2e26;
      }

      .cls-18 {
        fill: #cd1e54;
      }

      .cls-19 {
        fill: #695a64;
      }

      .cls-20 {
        fill: #f1749b;
      }
    </style>
  </defs>
  <g>
    <g>
      <path class="cls-19" d="M48.91,88.07c1.7-2.28,4-3.35,6-2.28,2,1.08,2.76,3.6,1.68,5.6l-.96,1.79c-1.08,2-3.6,2.76-5.6,1.68l-.36.28c-2-1.08-2.5-4.37-1.42-6.37l.66-.69Z"/>
      <path class="cls-14" d="M47.86,88.55c-.57,1.06-.75,2.5-.49,3.83.29,1.44,1.05,2.59,2.09,3.15l.26.14.37-.28c.6.27,1.24.41,1.89.41.45,0,.89-.07,1.33-.2,1.18-.35,2.14-1.14,2.72-2.21l.96-1.79c1.2-2.22.36-5.01-1.86-6.21-2.1-1.13-4.61-.21-6.55,2.38l-.68.72-.03.05ZM48.62,89.02l.65-.69c1.22-1.63,2.66-2.51,4-2.51.49,0,.97.12,1.42.36,1.79.96,2.46,3.2,1.5,4.99l-.96,1.79c-.46.86-1.24,1.5-2.19,1.78-.95.28-1.94.18-2.8-.28l-.26-.14-.34.27c-.68-.48-1.19-1.33-1.4-2.38-.22-1.12-.08-2.3.37-3.18Z"/>
    </g>
    <path class="cls-14" d="M47.73,88.83c-1.16,2.15-.57,5.46,1.73,6.7l.26.14.37-.28c1.01.46,2.14.54,3.22.21.96-.29,1.79-.87,2.37-1.66.13-.17.25-.36.35-.55l.96-1.79c.58-1.08.7-2.32.35-3.49-.35-1.18-1.14-2.14-2.22-2.72-2.1-1.13-4.61-.22-6.56,2.38l-.81,1.01-.03.05ZM48.63,89.03l.65-.69c1.66-2.23,3.74-3.05,5.42-2.15.86.46,1.49,1.24,1.78,2.18.28.94.18,1.94-.28,2.8l-.96,1.79c-.96,1.79-3.2,2.46-4.98,1.5l-.26-.14-.34.27c-.68-.48-1.18-1.33-1.39-2.38-.22-1.12-.08-2.3.37-3.18Z"/>
    <g>
      <path class="cls-11" d="M55.6,90.22l2.68,6.02s.92,2.14,2.07,4.01c0,0,1.14,1.47-.04,2.28,0,0-5.84,2.44-6.2,2.58,0,0-1.19.49-1.68.33,0,0-1.28-.9.93-3.9l.54-.96-5.01-7.06,6.71-3.29Z"/>
      <path class="cls-6" d="M48.22,93.34l5.15,7.26-.39.69c-1.04,1.42-1.5,2.61-1.35,3.54.1.64.46.92.53.97l.06.04.07.02c.11.03.24.05.37.05.6,0,1.36-.29,1.62-.39.35-.14,5.97-2.48,6.2-2.58l.08-.04c.4-.27.64-.65.71-1.09.13-.85-.43-1.66-.56-1.82-1.12-1.81-2.02-3.91-2.03-3.93h0s-2.87-6.45-2.87-6.45l-7.6,3.73ZM54.43,100.55l-4.87-6.86,5.82-2.86,2.49,5.59c.05.12.96,2.21,2.1,4.06l.03.04c.13.17.46.71.39,1.15-.03.18-.12.33-.3.46-2.03.85-5.86,2.45-6.14,2.56-.49.2-1.05.34-1.31.33-.14-.2-.51-1.06,1.08-3.22l.03-.05.68-1.21Z"/>
    </g>
    <path class="cls-15" d="M54.43,101.23s2.48-1.53,4.3.43c0,0,.88.91-5.15,2.91,0,0-1.33.4-1.17-.26,0,0,.79-2.65,2.02-3.08Z"/>
    <g>
      <path class="cls-11" d="M52.63,103.54h8.56c.37,0,.67.3.67.67v.28c0,.37-.3.68-.68.68h-8.56c-.37,0-.68-.3-.68-.68v-.28c0-.37.3-.68.68-.68Z" transform="translate(-33.61 27.31) rotate(-20.99)"/>
      <path class="cls-6" d="M51.81,106.16l.1.26c.11.28.32.5.59.62.15.07.3.1.46.1.14,0,.27-.02.4-.07l7.99-3.06c.58-.22.87-.87.65-1.45l-.1-.26c-.11-.28-.32-.5-.59-.62-.27-.12-.58-.13-.86-.02l-7.99,3.06c-.58.22-.87.87-.65,1.45ZM52.65,105.84c-.04-.12.02-.25.13-.29l7.99-3.06s.06-.01.08-.01c.04,0,.07.01.09.02.03.01.09.05.12.13l.1.26c.04.12-.02.25-.13.29l-7.99,3.06c-.08.03-.14,0-.17,0-.03-.01-.09-.05-.12-.13l-.1-.26Z"/>
    </g>
    <g>
      <path class="cls-19" d="M54.14,88.65c2.59-.74,5.03,7.85,5.03,7.85-1.37,2.18-4.83,3.17-4.83,3.17-.99.54-2.01.17-2.01.17-4.86-5.57-4.33-7.27-4.33-7.27,1.19-3.38,6.14-3.92,6.14-3.92Z"/>
      <path class="cls-14" d="M47.58,92.41c-.11.34-.37,2.23,4.41,7.72l.08.09.11.04s.43.15.98.15c.4,0,.88-.07,1.35-.32.45-.14,3.67-1.17,5.04-3.35l.11-.17-.05-.19c-.19-.68-1.96-6.7-4.24-7.97-.44-.24-.88-.31-1.31-.2-.51.06-5.25.73-6.48,4.21ZM48.43,92.68c1.08-3.03,5.71-3.58,5.76-3.59h.07c.21-.07.43-.04.67.1,1.6.89,3.2,5.35,3.75,7.24-1.33,1.89-4.43,2.8-4.47,2.81l-.09.04c-.63.35-1.3.23-1.54.17-4.22-4.86-4.16-6.61-4.15-6.76ZM48.43,92.7s0,0,0,0c0,0,0,0,0,0Z"/>
    </g>
    <g>
      <g>
        <path class="cls-9" d="M54.67,100.34c1.05.62.59,1.23.59,1.23-.83,1.25-1.1,1.52-1.1,1.52-.54.9-1.93-.56-1.93-.56.36-.94,1.47-2.51,1.47-2.51.22-.36.96.32.96.32Z"/>
        <path class="cls-19" d="M52.03,102.45l-.05.13.1.1c.09.1.9.92,1.6.92.03,0,.06,0,.09,0,.24-.03.44-.16.58-.37.08-.08.38-.45,1.1-1.53.01-.02.19-.27.12-.63-.07-.34-.32-.64-.76-.9-.16-.14-.61-.51-.97-.46-.13.02-.24.09-.31.2-.08.11-1.14,1.62-1.5,2.56ZM52.5,102.47c.39-.91,1.38-2.31,1.39-2.33h0s0-.01.01-.01c.1,0,.39.17.61.37l.04.03c.33.19.53.4.57.61.04.17-.04.29-.05.3-.8,1.2-1.07,1.49-1.08,1.49l-.03.04c-.09.15-.19.17-.26.18-.37.04-.94-.42-1.22-.68Z"/>
      </g>
      <g>
        <path class="cls-11" d="M53.92,100.92c.44.26.25.51.25.51-.34.52-.46.63-.46.63-.23.37-.8-.23-.8-.23.15-.39.61-1.04.61-1.04.09-.15.4.13.4.13Z"/>
        <path class="cls-6" d="M52.7,101.75l-.05.13.1.1c.07.07.42.42.76.42.02,0,.03,0,.05,0,.14-.01.25-.09.33-.21.05-.05.18-.22.46-.64.01-.02.11-.16.07-.36-.04-.17-.16-.33-.37-.45-.11-.1-.31-.25-.5-.22-.09.01-.17.06-.22.14-.04.06-.48.69-.64,1.09ZM53.18,101.77c.12-.26.34-.59.47-.78.04.03.09.06.12.09l.04.03c.14.08.19.16.17.19-.32.48-.43.59-.43.6l-.03.04c-.05.02-.2-.05-.34-.17Z"/>
      </g>
    </g>
    <path class="cls-19" d="M50.96,87.68c2.01-1.12,4.28-.93,5.05.44l.74,2.32c1.63,4.62-.92,5.48-2.1,4.75v-.8c-2,1.12-4.2,1.92-4.96.55l-1.23-1.45c-.76-1.37.49-4.69,2.5-5.82Z"/>
    <path class="cls-8" d="M49.09,88.81c.47-1.13,2.03-1.93,3.16-1.46,1.13.47,1.66,1.77,1.2,2.9l-1.06,2.55c-.47,1.13-.82,2.25-1.94,1.79l-.63.25c-1.13-.47-2.47-3.13-1.04-5.68l.32-.34Z"/>
    <path class="cls-8" d="M53.71,91.27c1.84-.53,3.57,5.57,3.57,5.57-.97,1.54-3.43,2.25-3.43,2.25-.7.38-1.43.12-1.43.12-3.45-3.95-3.07-5.16-3.07-5.16.84-2.39,4.35-2.78,4.35-2.78Z"/>
  </g>
  <g>
    <g>
      <path class="cls-9" d="M43.03,56.37s2.22,2.96,4.14,5.33c.68.84,3.84.82,5.87,1.39,2.36.66,3.1,5.31-.73,5.96-.53.09-4.99.62-8.25-1.36,0,0-3.73-2.53-6.36-7.06,0,0,4.24-1,5.33-4.25Z"/>
      <path class="cls-19" d="M37.6,60.18l-.59.14.3.52c2.66,4.57,6.34,7.1,6.5,7.21h.02c2.12,1.3,4.7,1.57,6.47,1.57,1.23,0,2.07-.13,2.09-.13,1.83-.31,2.97-1.51,3.06-3.21.09-1.67-.89-3.23-2.28-3.62-.81-.23-1.76-.36-2.69-.49-1.18-.17-2.65-.37-2.96-.75-1.9-2.34-4.11-5.29-4.13-5.32l-.51-.68-.27.81c-1,2.98-4.97,3.95-5.01,3.96ZM38.39,60.89c1.13-.37,3.61-1.41,4.75-3.63.76,1,2.3,3.02,3.69,4.72.53.66,1.92.85,3.53,1.08.89.13,1.82.25,2.57.46.98.27,1.69,1.46,1.63,2.71-.03.6-.32,2.04-2.31,2.37-.05,0-4.61.71-7.93-1.3-.19-.13-3.46-2.44-5.92-6.42Z"/>
    </g>
    <path class="cls-7" d="M45.75,60.68s1.06,1.5,1.52,1.72c0,0,2.51.68,4.6.94,0,0,1.15.05,1.49.64,0,0,1.73,1.53-2.29,2.97,0,0-3.26.09-5.63-1.29,0,0-1.15-.89-1.65-1.53,0,0,1.58-1.13,1.96-3.45Z"/>
    <g>
      <g>
        <path class="cls-11" d="M42.7,55.44l3.88,3.8c-2.14,5.27-7.48,5.46-7.48,5.46-1.16-1.56-1.81-4.69-1.81-4.69,4.58-.92,5.41-4.56,5.41-4.56Z"/>
        <path class="cls-6" d="M37.2,59.57l-.44.09.09.44c.03.13.69,3.25,1.89,4.87l.14.19h.24c.06-.01,5.65-.27,7.88-5.74l.11-.28-4.67-4.57-.18.78c-.03.14-.84,3.37-5.06,4.22ZM37.83,60.35c3.26-.82,4.58-2.96,5.06-4.09l3.16,3.09c-1.82,4.08-5.73,4.77-6.73,4.88-.76-1.16-1.28-3.04-1.49-3.88Z"/>
      </g>
      <path class="cls-15" d="M42.65,56.29l3.32,3.02s-3.7,5.8-7.52,1c0,0,2.64-.66,4.21-4.02Z"/>
      <g>
        <path class="cls-6" d="M41.31,59.55c.23-.01.46,0,.69.01.23.02.46.06.69.14-.22.1-.45.16-.68.21-.23.04-.45.07-.68.08-.23.01-.46,0-.69-.01-.23-.02-.46-.06-.69-.14.22-.11.45-.16.68-.21.23-.04.45-.07.68-.08Z"/>
        <path class="cls-6" d="M41.02,59.82c.09-.21.19-.42.31-.62.12-.2.25-.39.42-.57,0,.25-.04.48-.1.7-.06.22-.13.44-.22.66-.09.21-.19.42-.31.62-.12.2-.25.39-.42.57,0-.25.05-.48.1-.7.06-.23.13-.44.22-.66Z"/>
      </g>
      <g>
        <path class="cls-6" d="M42.31,61.07c.23-.01.46,0,.69.01.23.02.46.06.69.14-.22.1-.45.16-.68.21-.23.04-.45.07-.68.08-.23.01-.46,0-.69-.01-.23-.02-.46-.06-.69-.14.22-.11.45-.16.68-.21.23-.04.45-.07.68-.08Z"/>
        <path class="cls-6" d="M42.02,61.34c.09-.21.19-.42.31-.62.12-.2.25-.39.42-.57,0,.25-.04.48-.1.7-.06.22-.13.44-.22.66-.09.21-.19.42-.31.62-.12.2-.25.39-.42.57,0-.25.05-.48.1-.7.06-.23.13-.44.22-.66Z"/>
      </g>
    </g>
  </g>
  <g>
    <g>
      <path class="cls-11" d="M71.42,90.73l2.55,6.07s.87,2.16,1.99,4.05c0,0,1.11,1.49-.09,2.28,0,0-5.89,2.32-6.25,2.45,0,0-1.21.46-1.69.3,0,0-1.26-.93,1.01-3.88l.56-.95-4.86-7.16,6.78-3.15Z"/>
      <path class="cls-6" d="M63.97,93.7l5,7.36-.4.68c-1.07,1.4-1.55,2.58-1.42,3.51.09.65.44.93.51.98l.06.04.07.02c.12.04.26.06.41.06.59,0,1.33-.26,1.58-.36.36-.13,6.02-2.36,6.26-2.45l.08-.04c.4-.27.66-.64.73-1.07.15-.85-.4-1.66-.52-1.83-1.08-1.83-1.94-3.95-1.95-3.97h0s-2.73-6.51-2.73-6.51l-7.68,3.57ZM70.03,101.03l-4.73-6.96,5.88-2.74,2.37,5.64c.05.13.91,2.23,2.02,4.11l.03.04c.13.17.45.72.37,1.16-.03.18-.13.33-.31.45-2.05.81-5.91,2.33-6.19,2.43-.49.19-1.07.32-1.31.31-.13-.2-.49-1.07,1.14-3.19l.03-.05.7-1.19Z"/>
    </g>
    <path class="cls-15" d="M70.01,101.71s2.52-1.48,4.29.52c0,0,.86.93-5.21,2.8,0,0-1.34.37-1.16-.29,0,0,.84-2.63,2.08-3.03Z"/>
    <g>
      <path class="cls-11" d="M68.15,104.07h8.55c.37,0,.68.3.68.68v.28c0,.37-.3.68-.68.68h-8.56c-.37,0-.68-.3-.68-.68v-.28c0-.37.3-.68.68-.68Z" transform="translate(-31.24 30.73) rotate(-19.8)"/>
      <path class="cls-6" d="M67.29,106.59l.09.26c.1.28.31.51.58.64.15.07.32.11.48.11.13,0,.26-.02.38-.07l8.05-2.9c.28-.1.51-.31.64-.58.13-.27.14-.58.04-.86l-.09-.26c-.1-.28-.31-.51-.58-.64-.27-.13-.58-.14-.86-.04l-8.05,2.9c-.58.21-.89.86-.68,1.44ZM68.14,106.28c-.04-.12.02-.25.14-.29l8.05-2.9s.05-.01.08-.01c.04,0,.08.01.1.02.03.02.09.05.12.13l.09.26c.03.08,0,.14,0,.17-.02.03-.05.09-.13.12l-8.05,2.9c-.08.03-.14,0-.17,0-.03-.02-.09-.05-.12-.13l-.09-.26Z"/>
    </g>
    <g>
      <g>
        <path class="cls-19" d="M69.99,89.12c2.61-.69,4.87,7.96,4.87,7.96-1.41,2.15-4.9,3.07-4.9,3.07-1,.52-2.01.12-2.01.12-4.74-5.67-4.18-7.36-4.18-7.36,1.26-3.35,6.22-3.79,6.22-3.79Z"/>
        <path class="cls-14" d="M63.35,92.75c-.11.34-.41,2.22,4.25,7.81l.07.09.11.04s.46.17,1.05.17c.38,0,.84-.07,1.29-.3.45-.13,3.69-1.09,5.11-3.24l.11-.17-.05-.19c-.18-.69-1.82-6.74-4.07-8.06-.43-.25-.87-.33-1.31-.23-.51.05-5.27.62-6.56,4.07ZM64.2,93.04c1.15-3.02,5.78-3.46,5.83-3.47h.07c.21-.07.43-.03.66.11,1.58.92,3.08,5.41,3.6,7.31-1.37,1.86-4.49,2.71-4.52,2.72l-.09.04c-.63.33-1.3.2-1.55.13-4.11-4.94-4.02-6.7-4-6.85ZM64.19,93.06s0,0,0,0c0,0,0,0,0,0Z"/>
      </g>
      <path class="cls-8" d="M69.79,91.87c1.85-.49,3.45,5.64,3.45,5.64-1,1.52-3.47,2.18-3.47,2.18-.71.37-1.43.09-1.43.09-3.36-4.02-2.96-5.22-2.96-5.22.89-2.38,4.41-2.69,4.41-2.69Z"/>
    </g>
    <g>
      <g>
        <path class="cls-9" d="M70.28,100.83c1.04.64.57,1.24.57,1.24-.86,1.23-1.13,1.49-1.13,1.49-.56.88-1.92-.6-1.92-.6.37-.93,1.53-2.48,1.53-2.48.23-.35.96.34.96.34Z"/>
        <path class="cls-19" d="M67.58,102.88l-.05.13.1.1c.09.1.89.95,1.6.95.03,0,.05,0,.07,0,.24-.02.44-.15.59-.36.08-.08.39-.44,1.14-1.51.01-.02.2-.27.13-.63-.06-.34-.31-.65-.75-.92-.15-.14-.6-.53-.97-.49-.13.02-.24.08-.31.19-.08.11-1.18,1.6-1.55,2.53ZM68.06,102.92c.41-.9,1.43-2.28,1.44-2.3h0s0-.01.01-.01c.09,0,.39.18.6.39l.04.03c.32.2.52.41.56.62.03.17-.05.29-.05.3-.83,1.19-1.1,1.47-1.11,1.47l-.03.04c-.09.14-.19.17-.26.18-.34.03-.88-.38-1.21-.7Z"/>
      </g>
      <g>
        <path class="cls-11" d="M69.51,101.39c.43.27.23.52.23.52-.36.51-.47.62-.47.62-.23.37-.8-.25-.8-.25.16-.39.63-1.03.63-1.03.09-.15.4.14.4.14Z"/>
        <path class="cls-6" d="M68.27,102.2l-.05.13.1.1c.07.08.42.44.76.44.01,0,.03,0,.04,0,.14-.01.25-.08.34-.2.05-.05.18-.21.48-.63.01-.02.11-.16.08-.36-.03-.17-.15-.33-.36-.46-.1-.09-.3-.25-.5-.23-.09.01-.17.06-.22.13-.05.06-.5.68-.66,1.08ZM68.75,102.23c.14-.27.38-.62.49-.77.04.02.08.06.12.09l.04.03c.14.08.19.16.17.2-.33.47-.44.59-.44.59l-.03.04c-.06.02-.21-.07-.34-.18Z"/>
      </g>
    </g>
  </g>
  <g>
    <g>
      <path class="cls-9" d="M55.19,64.93c9.41,3.68,15.1,2.15,15.1,2.15,2.02-1.13,1.37.4,1.37.4-2.91,1.45-3.88,4.43-3.88,4.43-.48,1.33-2.44,1.23-2.44,1.23-7.44-.29-13.98-3.11-13.98-3.11,1.8-4.08,3.83-5.09,3.83-5.09Z"/>
      <path class="cls-19" d="M50.95,69.84l-.18.41.42.18c.07.03,6.7,2.85,14.14,3.14.01,0,.05,0,.12,0,.48,0,2.24-.1,2.75-1.53.01-.04.96-2.84,3.66-4.18l.15-.07.06-.15c.06-.14.33-.85-.12-1.25-.46-.41-1.21-.09-1.83.25-.58.13-6.08,1.25-14.77-2.14l-.19-.07-.18.09c-.09.04-2.2,1.13-4.04,5.31ZM51.96,69.78c1.36-2.89,2.8-4.04,3.27-4.35,9.32,3.59,14.93,2.14,15.17,2.08h.05s.05-.04.05-.04c.42-.23.66-.32.79-.35,0,.01,0,.02,0,.04-2.91,1.54-3.9,4.48-3.94,4.6-.35.99-1.97.92-1.99.92-6.21-.24-11.84-2.29-13.4-2.9Z"/>
    </g>
    <path class="cls-7" d="M55.06,65.82c6.24,2.19,11.41,2.44,11.41,2.44-3.27,6.55-13.71,1.23-13.71,1.23.86-2.36,2.3-3.68,2.3-3.68Z"/>
  </g>
  <g>
    <g>
      <g>
        <path class="cls-18" d="M53.47,64l15.33.7c11.85,10.74,11.16,27.16,11.16,27.16-2.75,1.21-5.94,1.37-5.94,1.37-12.77,2.12-26.06-3.6-26.06-3.6l.67-1.48c-4.52-.48-8.17-3.88-8.17-3.88,8.47-9.85,13.02-20.26,13.02-20.26Z"/>
        <path class="cls-13" d="M40.1,83.97l-.28.33.32.29c.15.14,3.5,3.22,7.82,3.92l-.61,1.35.42.18c.11.05,9.67,4.11,20.31,4.11,1.97,0,3.98-.14,5.97-.47.34-.02,3.38-.21,6.07-1.4l.26-.11v-.28c.02-.17.17-4.23-1.13-9.68-1.21-5.03-3.95-12.21-10.16-17.84l-.12-.11-15.8-.72-.12.28c-.05.1-4.63,10.47-12.95,20.15ZM41.08,84.22c7.46-8.79,11.89-18.03,12.68-19.75l14.86.68c10.6,9.71,10.91,24.23,10.89,26.42-2.58,1.06-5.49,1.21-5.52,1.22h-.05c-11.24,1.87-23.03-2.46-25.39-3.39l.73-1.63-.62-.07c-3.57-.38-6.62-2.68-7.59-3.48Z"/>
      </g>
      <path class="cls-17" d="M72.66,69.26s5.75,14.62,4.68,21.2c0,0-7.24.95-13.84.35,0,0-3.81-25.56,9.16-21.55Z"/>
      <g class="cls-21">
        <path class="cls-3" d="M44.25,84.08c3.03,2.8,3.55,3.67,3.55,3.67-3.28-.92-6.27-3.62-6.27-3.62,5.26-6.13,9.1-13.31,9.1-13.31-1.63,6.24-6.38,13.26-6.38,13.26Z"/>
      </g>
    </g>
    <g>
      <g>
        <path class="cls-10" d="M75.38,82.7c-.04.07-.06.09-.07.11.03-.04.07-.11.07-.11Z"/>
        <path class="cls-10" d="M55.85,65.15c4.59,4.99,14.44,1.92,14.44,1.92,4.85,4.01,5.1,9.4,5.1,9.4,0,0,.2,5.9,0,6.22,0,0-6.38,2.98-17.23,1.24-11.02-1.77-9.51-3.62-9.51-3.62,2.51-14.18,7.2-15.17,7.2-15.17Z"/>
        <path class="cls-10" d="M75.31,82.81s-.02.03,0,0h0Z"/>
      </g>
      <path class="cls-14" d="M48.22,80.16c-.09.18-.14.46-.02.76.5,1.32,3.83,2.48,9.89,3.45,2.5.4,4.77.56,6.77.56,6.7,0,10.51-1.74,10.72-1.83l-.06-.13.16.1.09-.14s0,0,0,0l.79-1.28-.66.31c.03-.84.03-2.42-.07-5.5-.01-.23-.32-5.65-5.26-9.73l-.19-.15-.23.07c-.1.03-9.63,2.92-13.97-1.8l-.17-.19-.25.05c-.2.04-5,1.21-7.54,15.45ZM49.02,80.57l.04-.05.02-.12c2.12-11.97,5.72-14.32,6.64-14.73,4.44,4.48,12.89,2.34,14.46,1.9,4.46,3.82,4.75,8.87,4.76,8.93.08,2.44.12,5.14.05,5.88-1.16.47-7.25,2.64-16.76,1.11-7.28-1.17-8.81-2.33-9.13-2.78-.06-.08-.07-.13-.07-.15Z"/>
    </g>
    <g>
      <path class="cls-16" d="M73.12,79.66c-.16.23,0,0,0,0h0Z"/>
      <path class="cls-16" d="M56.38,66.51c3.95,3.71,12.11,1.73,12.11,1.73,4.15,3.01,4.49,6.92,4.49,6.92,0,0,.31,4.27.14,4.5,0,0-5.26,2-14.37.49-9.25-1.54-8.03-2.84-8.03-2.84,1.76-10.19,5.66-10.8,5.66-10.8Z"/>
    </g>
    <g>
      <path class="cls-10" d="M74.71,85.82l.18,5.33c-4.37,1.73-12.09.91-12.09.91-11.06-.78-16.08-5.44-16.08-5.44l1.47-5.42c6.14,5.83,26.52,4.62,26.52,4.62Z"/>
      <path class="cls-14" d="M47.96,80.35l-1.74,6.41.2.18c.21.19,5.27,4.78,16.35,5.56.14.02,1.94.2,4.26.2,2.54,0,5.71-.22,8.03-1.14l.29-.12-.21-6.11-.46.03c-.2.01-20.25,1.13-26.18-4.5l-.55-.52ZM47.23,86.46l1.21-4.46c6.26,4.96,22.79,4.43,25.84,4.29l.15,4.55c-4.27,1.52-11.51.77-11.58.77-9.56-.67-14.58-4.32-15.62-5.15Z"/>
    </g>
    <path class="cls-16" d="M50.21,82.55l-1.17,4.64-1.42-.9,1.23-4.75s1.27.81,1.36,1.02Z"/>
    <g>
      <g>
        <path class="cls-10" d="M58.54,85.13s-.53,3.94-1.24,7.47c0,0-4.21-.23-7.84-2.39l1.39-7.11s6.11,1.69,7.68,2.04Z"/>
        <path class="cls-14" d="M50.51,82.53l-1.55,7.9.27.16c3.68,2.2,7.87,2.45,8.04,2.46l.39.02.08-.38c.7-3.5,1.23-7.46,1.24-7.5l.06-.41-.4-.09c-1.54-.34-7.6-2.02-7.66-2.04l-.47-.13ZM49.97,89.98l1.24-6.33c1.34.37,5.17,1.42,6.83,1.82-.15,1.04-.57,3.93-1.1,6.64-1.07-.11-4.18-.56-6.97-2.14Z"/>
      </g>
      <path class="cls-16" d="M53.23,84.86l3.73,1.77s-1.68,5.32-6.67,3.28l.94-5.66,2.01.61Z"/>
    </g>
    <g>
      <g>
        <g>
          <path class="cls-9" d="M48.82,77.67c18.49,7.4,26.35,2.74,26.35,2.74.54-.32.75-.1.78.46.03.67-.31,3.71-.31,3.71-.05.5-.67,1.06-.67,1.06-14.95,4.12-27.23-3.27-27.23-3.27-.96-.21.24-4.8.24-4.8.8-1.1.84.1.84.1Z"/>
          <path class="cls-13" d="M47.54,77.46c-.24.93-.99,4.03-.41,4.98.13.21.29.3.42.35.7.4,8.14,4.54,18.18,4.54,2.93,0,6.08-.35,9.35-1.25l.1-.03.08-.07c.13-.11.75-.7.81-1.35.03-.31.35-3.09.32-3.77,0-.18-.03-.72-.45-.95-.41-.22-.86.04-1,.12-.08.05-7.87,4.4-25.71-2.67-.06-.25-.19-.57-.52-.67-.53-.16-.94.41-1.1.62l-.05.07-.02.08ZM48.37,77.81v.17s.28.11.28.11c18.48,7.4,26.41,2.9,26.74,2.71.03-.02.06-.03.09-.05,0,.04,0,.08.01.14.02.52-.22,2.81-.31,3.64-.02.21-.27.52-.45.7-3.15.86-6.19,1.19-9.01,1.19-10.21,0-17.67-4.38-17.76-4.44l-.08-.04c-.21-.39.01-2.26.49-4.13Z"/>
        </g>
        <path class="cls-7" d="M48.87,78.35c16.97,6.29,25.43,3.05,25.43,3.05.14-.06.22.13.32.13-.43,1.46-1.18,3.7-4.19,4.69-15.67,1-22.47-4.23-22.47-4.23-.93-.2.1-3.74.1-3.74.73-.77.81.11.81.11Z"/>
        <g>
          <path class="cls-16" d="M47.71,81.86s.02.06.03.08c0,0-.03-.02-.03-.08Z"/>
          <path class="cls-16" d="M47.86,78.74c.16-1.38,1.23-.35,1.23-.35,14.19,5.54,24.08,3.33,24.08,3.33,1.86-.35-.85.89-.85.89-9.13,2.93-23.4-2.82-23.4-2.82-1.1,1.45-1.22,1.93-1.21,2.08-.47-.87.14-3.12.14-3.12Z"/>
        </g>
      </g>
      <g>
        <g>
          <path class="cls-9" d="M55.28,78.87c2.09.37,3.48,2.36,3.11,4.45-.37,2.09-2.36,3.48-4.45,3.11-2.09-.37-3.48-2.36-3.11-4.45.37-2.09,2.36-3.48,4.45-3.11Z"/>
          <path class="cls-13" d="M50.39,81.9c-.2,1.13.05,2.27.71,3.21.66.94,1.64,1.57,2.77,1.77.25.04.51.07.76.07.87,0,1.72-.27,2.45-.77.94-.66,1.57-1.64,1.77-2.77.41-2.33-1.15-4.56-3.48-4.97-1.13-.2-2.27.05-3.21.71-.94.66-1.57,1.64-1.77,2.77ZM51.27,82.06c.16-.89.65-1.67,1.4-2.19.58-.4,1.25-.61,1.94-.61.2,0,.4.02.6.05,1.84.33,3.07,2.09,2.75,3.93-.16.89-.65,1.67-1.4,2.19s-1.64.72-2.54.56c-.89-.16-1.67-.65-2.19-1.4-.52-.74-.72-1.64-.56-2.54Z"/>
        </g>
        <path class="cls-7" d="M54.88,79.46c1.66.29,2.74,1.97,2.43,3.74-.31,1.77-1.91,2.97-3.57,2.67-1.65-.29-2.74-1.97-2.43-3.74.31-1.77,1.91-2.97,3.57-2.68Z"/>
        <g>
          <g>
            <path class="cls-9" d="M54.75,80.19c1.25.42,1.94,1.83,1.54,3.15-.4,1.32-1.74,2.05-2.99,1.63-1.25-.42-1.94-1.83-1.54-3.15.4-1.32,1.74-2.05,2.99-1.63Z"/>
            <path class="cls-13" d="M51.44,81.72c-.45,1.49.33,3.09,1.75,3.57.27.09.55.14.83.14.41,0,.82-.1,1.19-.29.67-.35,1.17-.95,1.39-1.7.45-1.49-.34-3.09-1.75-3.57-.67-.23-1.39-.17-2.03.16-.67.35-1.17.95-1.39,1.69ZM52.08,81.91h0c.17-.57.55-1.03,1.06-1.29.28-.14.58-.22.89-.22.21,0,.41.03.62.1,1.08.36,1.67,1.59,1.33,2.74-.17.57-.55,1.03-1.06,1.29-.47.24-1,.28-1.5.12-1.08-.36-1.67-1.59-1.33-2.74Z"/>
          </g>
          <path class="cls-7" d="M54.18,80.31c.95.2,1.52,1.31,1.28,2.47-.24,1.16-1.2,1.94-2.14,1.74-.94-.2-1.52-1.31-1.28-2.47.24-1.16,1.2-1.94,2.14-1.74Z"/>
          <path class="cls-16" d="M53.47,80.67c.64.11,1.03.92.87,1.8-.16.88-.8,1.5-1.44,1.39-.64-.11-1.03-.92-.87-1.8.16-.88.8-1.5,1.44-1.39Z"/>
        </g>
      </g>
    </g>
    <g>
      <path class="cls-18" d="M54.13,72.94c.75.45,1.59.73,2.4.91.15-1.19-.22-2.03-.22-2.03,1.75-.38,3.14.47,3.14.47-.77.48-1.26,1.1-1.57,1.77,1.66.17,2.98-.02,2.98-.02,1.49,1.36,0,1.85,0,1.85-1.13-.57-2.23-.94-3.23-1.17-.53,1.82.03,3.7.03,3.7-2.55.83-3.63-.69-3.63-.69,1.44-1.1,2.09-2.25,2.37-3.23-1.9-.27-3.21-.06-3.21-.06-.81-.93.93-1.5.93-1.5Z"/>
      <path class="cls-13" d="M52.67,73.73c-.06.22-.06.56.27.94l.12.14.18-.03s1.1-.16,2.71.01c-.36.98-1.08,1.88-2.13,2.68l-.26.2.19.26c.04.05.79,1.08,2.45,1.08.45,0,.97-.08,1.55-.27l.31-.1-.09-.32s-.46-1.6-.11-3.2c.98.25,1.94.61,2.83,1.06l.12.06.13-.04c.08-.02.74-.26.87-.88.1-.47-.15-.99-.75-1.54l-.12-.11-.16.02s-1.04.14-2.39.06c.3-.48.71-.88,1.21-1.19l.46-.29-.46-.29c-.06-.04-1.52-.92-3.39-.51l-.4.09.17.38s.26.6.22,1.47c-.72-.19-1.37-.45-1.93-.78l-.13-.08-.15.05c-.12.04-1.16.4-1.35,1.11ZM57.58,74.38l.26.03c1.36.14,2.48.05,2.89,0,.32.32.48.6.44.8-.03.16-.19.27-.31.33-1-.49-2.06-.87-3.16-1.12l-.12-.03ZM56.72,74.6l.09-.33h0s0-.04,0-.04h0s.04-.33.04-.33c.1-.78,0-1.42-.11-1.8.85-.1,1.58.09,2.03.26-.52.42-.93.95-1.22,1.57l-.2.43h.02s-.08.28-.08.28c-.42,1.45-.19,2.92-.05,3.56-1.49.39-2.35-.1-2.72-.42,1.13-.94,1.87-2.01,2.19-3.18ZM53.32,73.91c.06-.22.46-.46.77-.59.66.37,1.42.66,2.27.85-1.47-.2-2.57-.12-3.01-.08-.05-.1-.03-.16-.03-.18Z"/>
    </g>
    <path class="cls-16" d="M72.39,87.33s-.05,3.39-2.57,3.91c0,0-4.3.82-10.82-.49,0,0-.58-1.65-.2-3.72,0,0,5.25,1.7,13.58.3Z"/>
  </g>
  <g>
    <g>
      <path class="cls-9" d="M58.83,44.32c-.74,3.87-7.23,1.61-7.23,1.61.11-3.88,2.79-7.1,2.79-7.1,6.17-.4,4.45,5.49,4.45,5.49Z"/>
      <path class="cls-19" d="M51.15,45.92v.33s.3.11.3.11c.11.04,1.98.68,3.87.68.89,0,1.79-.14,2.52-.56.77-.44,1.25-1.13,1.43-2.05.08-.28.75-2.89-.63-4.61-.86-1.07-2.3-1.55-4.28-1.43h-.19s-.12.16-.12.16c-.11.14-2.78,3.38-2.89,7.37ZM52.06,45.61c.21-3.08,2.06-5.7,2.55-6.34.12,0,.24,0,.35,0,1.38,0,2.38.37,2.97,1.11,1.14,1.43.47,3.8.46,3.82v.04c-.14.67-.47,1.15-1.01,1.46-1.57.9-4.38.19-5.33-.09Z"/>
    </g>
    <g>
      <path class="cls-12" d="M52.98,49.27s-2.2-4.14,1.09-5.93c0,0,1.16-1.39.99-3.18l.44-1.28s4.19.62,6.47,1.16c0,0,13.92,3.98,17.37,9.55,0,0-3.29,1.89-4.41,1.51,0,0,.63,3.11-1.57,4.31,0,0-3.08,2.4-5.58,1.61,0,0-.2-.47-.94-1.52l-14.16-4.83s-1.38-.98.31-1.39Z"/>
      <path class="cls-13" d="M51.71,49.74c-.13.66.56,1.19.7,1.29l.05.04,14.08,4.8c.62.9.81,1.32.81,1.32l.08.18.19.06c.4.13.82.18,1.23.18,2.24,0,4.44-1.61,4.73-1.84,1.84-1.02,1.92-3.16,1.84-4.19,1.42-.1,3.63-1.32,4.12-1.6l.4-.23-.24-.4c-3.5-5.65-17.05-9.58-17.62-9.75-2.29-.55-6.35-1.15-6.53-1.17l-.37-.05-.59,1.72v.1c.13,1.38-.63,2.52-.84,2.79-2.55,1.45-2.13,4.33-1.41,6.01-.37.18-.59.42-.65.73ZM52.6,49.92s.15-.12.49-.21l.56-.14-.27-.51c-.08-.15-1.95-3.77.91-5.32l.08-.04.06-.07c.05-.06,1.23-1.51,1.1-3.41l.29-.84c1.07.16,4.22.66,6.06,1.1.12.03,13.11,3.8,16.83,8.96-1.29.69-3.05,1.43-3.63,1.24l-.74-.25.16.76s.53,2.8-1.35,3.82l-.06.04s-2.78,2.13-4.99,1.58c-.13-.24-.39-.7-.88-1.4l-.08-.12-14.23-4.85c-.14-.11-.27-.27-.29-.34Z"/>
    </g>
    <path class="cls-16" d="M68.04,46.26c.45.82.04,1.28.04,1.28l-.21-.02c-1.25-.4.18-1.25.18-1.25Z"/>
    <path class="cls-16" d="M57.34,43.12c.5.66-.39,1.23-.39,1.23-.98-1.01.39-1.23.39-1.23Z"/>
    <path class="cls-2" d="M55.22,44.13c1.6-.98.72-4.27.72-4.27,7.04-.73,16.52,5.71,16.52,5.71-1.8,1.81-1.57,4.02-1.57,4.02.99,3.73-.75,3.74-.75,3.74-.97.39-2.06-.09-2.06-.09l-.84-.56c-4.85-3.87-11.39-5.18-11.39-5.18-.61-.08-2.64.15-2.64.15-.19-.88-.09-1.33-.09-1.33.66-1.21,2.1-2.18,2.1-2.18Z"/>
    <path class="cls-16" d="M64.92,46.85c1.02-2.5,2.77-1.98,3.66-1.45,1.57.93,1.13,3.63,1.13,3.63-.22.37-.64.4-.93.35-.23-.04-1.02-.21-1.02-.21-3.46-.75-2.9-2.16-2.9-2.16l.05-.16Z"/>
    <g>
      <g>
        <path class="cls-4" d="M63.45,41.69c.77.56,1.22.58,1.53.42,3.41-1.69,4-1.75,5.16-.93,2.29,1.61,2.96,4.53,2.96,4.53-.79,1.87-2.42-.57-2.42-.57-1.41-2.68-4.88-1.22-4.88-1.22-.94.65-2.42-.57-2.42-.57-1.26-1.69-.27-1.92.07-1.67Z"/>
        <path class="cls-13" d="M62.56,41.4c-.31.31-.48.95.47,2.22l.03.04.04.03c.07.06,1.71,1.39,2.92.62.36-.14,3.13-1.15,4.27,1.03l.02.04c.17.25,1.03,1.47,2,1.47.03,0,.07,0,.1,0,.33-.03.79-.22,1.11-.97l.06-.13-.03-.14c-.03-.13-.74-3.11-3.14-4.8-1.44-1.01-2.35-.73-5.62.89-.22.11-.58-.02-1.07-.38h0c-.3-.22-.83-.25-1.16.08ZM63.21,42.07c.51.37,1.25.8,1.97.44,3.43-1.7,3.78-1.61,4.71-.96,1.84,1.3,2.58,3.53,2.74,4.12-.07.14-.18.29-.3.3-.34.02-.94-.59-1.26-1.05-1.27-2.39-4.11-1.96-5.44-1.4l-.08.04c-.52.36-1.48-.23-1.84-.51-.41-.57-.49-.86-.5-.98Z"/>
      </g>
      <path class="cls-5" d="M63.55,42.03c.55.34,1.61.38,1.82.26,2.23-1.32,2.88-1.7,3.71-1.2,1.63.98,2.23,2.93,2.23,2.93.05,1.46-1-.1-1-.1-1.61-1.65-4.04-.74-4.04-.74-1.01.89-1.78.2-1.78.2-1.26-.6-1.17-1.5-.93-1.35Z"/>
      <path class="cls-1" d="M64.55,42.41c-.51.23-.04.48-.04.48.61.3,1.14.31,1.14.31.49.44-.61.51-.61.51-1.76-.3-1.78-1.5-1.78-1.5.43-.56,1.28.2,1.28.2Z"/>
    </g>
    <path class="cls-13" d="M65.87,44.95s.1-.07.16-.1c.08-.04.12-.05.17-.07.1-.04.2-.09.31-.12l.33-.08c.45-.07.93-.01,1.36.15.43.16.79.43,1.1.73.16.16.29.31.43.52.12.2.22.42.27.63.11.43.11.86.05,1.26-.06.4-.16.8-.34,1.16-.01-.4-.03-.78-.09-1.16-.05-.37-.14-.73-.28-1.03-.06-.16-.16-.29-.25-.41-.09-.11-.23-.24-.36-.34-.26-.22-.55-.41-.85-.52-.3-.12-.61-.16-.93-.14l-.24.03c-.08.02-.16.04-.24.06-.04.01-.09.02-.1.03-.03,0-.06.03-.1.04-.07.03-.14.07-.21.12-.28.19-.53.44-.75.74-.23.29-.41.63-.6.98,0-.79.27-1.64.91-2.27.08-.08.17-.15.26-.22Z"/>
    <path class="cls-16" d="M53.94,43.97c2.24-1.86,1.46-4.22,1.46-4.22l.59.14c1.15,2.21-.57,3.97-.57,3.97-1.8,1.45-1.65,4.33-1.65,4.33l-.96-.21c-.53-3.45,1.13-4.02,1.13-4.02Z"/>
    <path class="cls-16" d="M55.63,42.35c2.28-1.3,3.49,1.04,3.2,1.97-.51,1.6-1.73,1.25-1.73,1.25-.73-.1-1.96-.67-1.96-.67-1.18-1.46.5-2.55.5-2.55Z"/>
    <path class="cls-13" d="M55.89,41.54c.1-.04.2-.09.3-.13.1-.04.21-.06.32-.09.44-.1.92-.05,1.34.11.42.16.78.44,1.07.74.14.16.28.31.39.53.11.2.18.42.22.63.08.42.06.83,0,1.22-.07.39-.18.77-.36,1.11-.02-.39-.03-.76-.08-1.13-.05-.36-.11-.71-.24-1.02-.03-.08-.06-.15-.1-.22-.03-.07-.08-.13-.12-.19-.07-.1-.2-.24-.32-.34-.25-.22-.51-.4-.79-.51-.28-.11-.57-.14-.87-.11-.07.01-.15.02-.23.04-.08.02-.15.05-.23.07-.05,0-.11.04-.18.08-.07.04-.13.08-.2.13-.53.4-.93,1.03-1.29,1.71,0-.77.23-1.58.81-2.22.15-.16.3-.31.55-.43Z"/>
    <g>
      <g>
        <path class="cls-12" d="M60.1,41s.12.38.14.91l-.14-.91Z"/>
        <path class="cls-12" d="M59.11,44.4c.99-.68,1.15-1.73,1.13-2.49l1,6.65c2.14.36,2.6,2.52,2.6,2.52.18,2.2-2.05,1.6-2.05,1.6-1.29-1.02-2.26-.71-2.26-.71-2.01.53-3.55-.55-3.55-.55-1.63-1.47.36-4.15.36-4.15.94-1.51,2.77-2.87,2.77-2.87Z"/>
        <g>
          <path class="cls-13" d="M55.95,46.98s0,.01-.01.02c0,0,0,0,0,.01l.02-.03Z"/>
          <path class="cls-13" d="M55.3,48.03c.18-.37.38-.69.64-1.03.39-.58.85-1.07,1.34-1.53.49-.46,1.01-.87,1.55-1.25l.11-.08.09-.06c.06-.04.12-.08.18-.13.11-.09.22-.19.31-.3.19-.22.34-.49.44-.77.2-.58.24-1.24.14-1.88.24.61.33,1.29.21,1.97-.06.34-.19.68-.38.98-.1.15-.21.29-.33.43-.06.06-.13.13-.2.18l-.1.08-.08.07c-.48.42-.93.87-1.35,1.33-.42.46-.8.96-1.11,1.47l-.02.03c-.18.27-.35.6-.49.91-.14.32-.25.65-.31.96-.06.32-.06.63,0,.89.04.13.09.25.15.37.06.1.15.2.24.29-.01,0-.02-.01-.03-.02l.05.04s-.01-.02-.02-.02c.06.04.15.09.23.13.1.05.2.1.31.14.21.09.42.15.64.21.44.1.89.14,1.34.09.11-.01.22-.03.33-.05.06,0,.1-.02.16-.03h.04s.08-.03.08-.03c.05,0,.09-.02.13-.02.34-.04.65,0,.95.07.56.15,1.04.43,1.45.77-.03,0-.07-.02-.09-.02l.16.08s-.05-.04-.07-.06c.07.02.15.03.22.04.11.02.22.02.33.02.22,0,.41-.05.56-.14.14-.09.26-.22.33-.41.07-.19.1-.42.09-.65,0,0,0,.02,0,.03v-.04s0,0,0,.01c-.05-.26-.15-.55-.26-.81-.12-.27-.28-.53-.48-.76-.19-.23-.42-.44-.68-.61-.26-.17-.55-.29-.86-.39.32.02.65.09.95.21.31.13.6.31.85.53.25.23.47.49.66.78.19.29.33.58.44.94h0s0,.04,0,.04c.04.29.04.59-.03.92-.07.32-.27.66-.56.86-.29.21-.63.3-.94.33-.16.02-.31.02-.47,0-.16-.01-.29-.02-.47-.06h-.07s-.1-.08-.1-.08c-.38-.26-.78-.48-1.19-.55-.2-.04-.41-.05-.57-.02-.02,0-.04,0-.05.01h-.01s-.05.02-.05.02c-.07.02-.15.04-.22.05-.14.03-.28.06-.42.08-.57.07-1.15.05-1.71-.08-.28-.06-.55-.15-.82-.25-.13-.05-.26-.11-.39-.18-.13-.07-.24-.13-.4-.23l-.03-.02-.02-.02c-.18-.16-.34-.35-.47-.56-.13-.21-.22-.45-.28-.68-.11-.48-.08-.94.01-1.37.09-.43.25-.82.43-1.19Z"/>
        </g>
        <path class="cls-13" d="M62.06,52.32l-.16-.08s.06.02.09.02c.02.02.05.04.07.06Z"/>
        <path class="cls-13" d="M56.35,51l-.05-.04s.02.01.03.02c0,0,.01.02.02.02Z"/>
        <path class="cls-13" d="M63.52,51.12s0,0,0-.01v.04s0-.02,0-.03Z"/>
      </g>
      <path class="cls-2" d="M60.7,43.08c.66,2.26.63,5.36.63,5.36l.88.77c1.33.49,1.29,2,1.29,2-.4,1.01-1.12.02-1.12.02-.75-1.26-2.62-1.08-2.62-1.08-1.52-.05-1.84.11-1.84.11-.73-2.09.82-3.67.82-3.67,2.1-2.04,1.96-3.51,1.96-3.51Z"/>
      <g>
        <path class="cls-1" d="M60.48,42.24s0-.04-.01-.06c0,0,0,.02.01.06Z"/>
        <path class="cls-1" d="M58.79,45.03c1.75-1.59,1.73-2.55,1.7-2.79.58,1.88-1.05,3.6-1.05,3.6-2.63,2.52-1.44,4.2-1.44,4.2-1.14.31-1.94-.21-1.94-.21.02-3.12,2.73-4.81,2.73-4.81Z"/>
      </g>
    </g>
    <g>
      <path class="cls-13" d="M67.52,46.08c.61.38.78,1.21.38,1.86-.4.65-1.22.86-1.82.48-.61-.38-.78-1.22-.38-1.86.4-.65,1.22-.86,1.82-.48Z"/>
      <path class="cls-16" d="M67.75,47.44c.22.14.28.45.13.69-.15.24-.45.33-.67.19-.22-.14-.28-.45-.13-.69.15-.24.45-.33.67-.19Z"/>
    </g>
    <g>
      <path class="cls-13" d="M56.95,42.7c.55.35.71,1.1.34,1.69-.36.59-1.1.78-1.65.44-.55-.35-.7-1.1-.34-1.69.36-.59,1.1-.78,1.65-.44Z"/>
      <path class="cls-16" d="M57.16,43.94c.2.13.26.41.12.63-.14.22-.41.3-.61.17-.2-.13-.26-.41-.12-.63.14-.22.41-.3.61-.17Z"/>
    </g>
    <g>
      <g>
        <path class="cls-4" d="M57.68,38.02s.55.99,1,1.67c0,0,.35.64.89.76.24.05.58-.29.97.1,0,0,.18,1.75-1.8,1.25,0,0-1.01-.39-1.24-.94,0,0-.37-.93-1.76-1.17,0,0-2.01.04-1.2-1.26,0,0,1.3-2.39,3.14-.42Z"/>
        <path class="cls-13" d="M54.16,38.21c-.36.59-.27,1-.13,1.25.36.64,1.38.69,1.68.69,1.08.2,1.38.88,1.38.89.29.69,1.29,1.11,1.49,1.19l.05.02c.27.07.52.1.75.1.43,0,.79-.12,1.07-.36.61-.53.54-1.38.53-1.47l-.02-.16-.11-.11c-.45-.44-.91-.31-1.14-.25-.03,0-.05.02-.08.02-.26-.08-.5-.42-.57-.53l-.02-.03c-.43-.66-.98-1.64-.98-1.65l-.03-.05-.04-.04c-.64-.69-1.31-.99-2-.91-1.1.14-1.77,1.26-1.85,1.4ZM54.81,39.02s-.01-.13.12-.34v-.02c.15-.24.62-.89,1.2-.96.37-.05.77.15,1.19.59.12.21.58,1.03.98,1.64.08.14.49.81,1.17.97.19.04.36,0,.49-.04.06-.02.1-.03.13-.03-.02.16-.07.36-.22.49-.23.2-.66.15-.99.07-.34-.14-.86-.44-.96-.68-.02-.04-.48-1.16-2.1-1.44h-.04s-.04,0-.04,0c-.4,0-.86-.11-.93-.24Z"/>
      </g>
      <path class="cls-5" d="M57.03,38.02s.36.12.68.87c0,0,.44.75.86,1.52,0,0,.52.5-.64.32,0,0-1-.59-1.14-.96,0,0-.26-.36-1.08-.4,0,0-.93,0-.46-1.01,0,0,.92-1.15,1.78-.34Z"/>
      <path class="cls-1" d="M56.11,37.62c.26-.24,1.22.65,1.22.65-1.64-.8-1.61.95-1.61.95-.68.4-.93-.33-.93-.33.47-1.56,1.32-1.27,1.32-1.27Z"/>
    </g>
    <g>
      <path class="cls-9" d="M60.8,29.6c14.43-1.99,24.75,9.06,24.75,9.06-.74,9.15-2.59,14.24-2.59,14.24-14.91-11.75-29.14-13.78-29.14-13.78,4.56-8.41,6.98-9.52,6.98-9.52Z"/>
      <path class="cls-19" d="M53.43,38.91l-.31.57.64.09c.14.02,14.29,2.16,28.93,13.69l.49.38.21-.58c.08-.21,1.88-5.26,2.62-14.36l.02-.2-.14-.14c-.11-.11-2.68-2.84-7.07-5.36-4.06-2.33-10.49-4.89-18.07-3.84h-.07s-.06.04-.06.04c-.1.05-2.62,1.27-7.19,9.72ZM54.52,38.79c3.85-6.99,6.09-8.55,6.43-8.76,13.12-1.77,22.89,7.53,24.15,8.8-.59,7.11-1.87,11.75-2.36,13.33-12.89-9.98-25.32-12.82-28.22-13.37Z"/>
    </g>
    <path class="cls-7" d="M60.34,31.99c7.47-1.67,10.37,3.08,10.37,3.08,4.18,5.03,1.34,9.98,1.34,9.98-7.45-4.7-16.88-6.81-16.88-6.81,4.46-5.77,5.16-6.25,5.16-6.25Z"/>
    <path class="cls-16" d="M70.63,32.8c-4.8-1.03-9.15.25-9.15.25-3.17,3.49-3.59,4.61-3.59,4.61,10.1,3.05,13.43,6.93,13.43,6.93-12.65-5.61-16.7-6.05-16.7-6.05,3.05-5.03,4.66-6.88,4.66-6.88,4.53-1.13,11.35,1.15,11.35,1.15Z"/>
    <path class="cls-7" d="M83.68,41.17s.49,1.92-2.34,1.27c0,0,1.03.99-.21,7.74,0,0-1.79-1.47-2.81-1.95,0,0-1.25-7.74,1.42-11.13,0,0,2.69,1.09,3.95,4.07Z"/>
    <path class="cls-16" d="M81.71,38.91c-.37,3.53-2.05,8.05-2.05,8.05-.79-7.78,1.05-9.59,1.05-9.59l1,1.54Z"/>
    <g>
      <path class="cls-19" d="M80.29,46.41c.2-1.12.4-2.25.57-3.38.18-1.13.33-2.26.46-3.39.07-.57.12-1.13.17-1.7.05-.56.09-1.14.1-1.68l.9.04c-.05.6-.13,1.16-.22,1.73-.09.57-.18,1.14-.29,1.7-.21,1.13-.44,2.25-.69,3.37-.25,1.12-.52,2.23-.8,3.34l-.43,1.66-.45,1.66.34-1.68.32-1.69Z"/>
      <path class="cls-19" d="M62.33,37.66c.25-.74.5-1.49.8-2.22.29-.73.61-1.46.97-2.16.18-.35.37-.71.57-1.05.21-.35.41-.68.68-1.03l.68.59c-.23.25-.47.57-.69.87-.22.31-.44.63-.64.95-.41.65-.79,1.33-1.15,2.02-.36.69-.68,1.4-1,2.11-.16.36-.3.72-.45,1.08l-.42,1.09.32-1.13c.12-.37.23-.75.35-1.12Z"/>
    </g>
    <g>
      <g>
        <path class="cls-9" d="M80.08,39.16c.26.06.38.48.27.94-.11.46-.4.78-.65.72-.26-.06-.38-.48-.27-.94.11-.46.4-.78.65-.72Z"/>
        <path class="cls-19" d="M79.59,38.83c-.28.18-.51.53-.6.95-.07.29-.07.59,0,.84.1.33.32.56.6.63h0c.05.01.11.02.16.02.23,0,.46-.11.65-.32.17-.19.31-.46.38-.76.07-.29.07-.59,0-.84-.1-.34-.32-.57-.6-.63-.19-.04-.4,0-.59.11ZM79.84,40.21c0-.06,0-.14.03-.23.02-.09.05-.16.08-.22,0,.06,0,.14-.03.23s-.05.16-.08.22Z"/>
      </g>
      <path class="cls-7" d="M79.95,39.69c.15.03.22.28.16.55-.06.27-.23.46-.38.42-.15-.03-.22-.28-.16-.55.06-.27.23-.46.38-.42Z"/>
      <path class="cls-16" d="M79.84,39.98c.1.02.15.19.11.38-.04.19-.16.32-.27.29-.1-.02-.15-.19-.11-.38.04-.19.16-.32.27-.29Z"/>
    </g>
    <g>
      <g>
        <path class="cls-9" d="M78.95,43.51c.26.06.38.48.27.94-.11.46-.4.78-.65.72-.26-.06-.38-.48-.27-.94.11-.46.4-.78.65-.72Z"/>
        <path class="cls-19" d="M77.86,44.13c-.1.42-.05.84.13,1.12.12.18.29.31.48.36h0c.05.01.11.02.16.02.23,0,.46-.11.65-.32.17-.19.31-.46.38-.76.1-.42.05-.84-.13-1.12-.12-.18-.29-.31-.48-.36-.51-.12-1.03.34-1.19,1.06ZM78.71,44.56c0-.06,0-.14.03-.23.02-.09.05-.16.08-.22,0,.06,0,.14-.03.23-.02.09-.05.16-.08.22ZM78.67,44.73h0,0Z"/>
      </g>
      <path class="cls-7" d="M78.83,44.04c.15.03.22.28.16.55-.06.27-.23.46-.38.42-.15-.03-.22-.28-.16-.55.06-.27.23-.46.38-.42Z"/>
      <path class="cls-16" d="M78.72,44.33c.1.02.15.19.11.38-.04.19-.16.32-.27.29-.1-.02-.15-.19-.11-.38.04-.19.16-.32.27-.29Z"/>
    </g>
    <g>
      <g>
        <path class="cls-9" d="M59.93,29.23c.35-.3.68-.5.68-.5,5.08-1.04,9.3.55,9.3.55,10.76,2.65,16.01,9.66,16.01,9.66-.03,2.68-.65,2.74-.65,2.74-4.51-5.46-12.05-8.41-12.05-8.41-5.99-2.72-13.91-2.24-13.91-2.24-.35-.25-.24-.45-.18-.71.08-.39.45-.79.8-1.09Z"/>
        <path class="cls-19" d="M58.66,30.31c-.06.22-.18.69.39,1.08l.13.09h.16c.08-.01,7.88-.45,13.7,2.19h.02c.07.04,7.48,2.98,11.87,8.29l.15.18.24-.02c.47-.05,1.03-.63,1.06-3.18v-.15s-.09-.12-.09-.12c-.22-.29-5.47-7.16-16.24-9.82-.4-.15-4.53-1.58-9.52-.56l-.08.02-.07.04s-.36.22-.74.54c-.54.46-.86.91-.95,1.34,0,.03-.01.06-.02.09ZM59.53,30.56s0-.02,0-.03c.01-.04.02-.08.03-.12.05-.22.29-.52.66-.84.23-.2.45-.35.56-.42,4.86-.97,8.93.53,8.97.54l.05.02c9.71,2.39,14.93,8.46,15.67,9.38-.02,1.01-.13,1.56-.23,1.86-4.51-5.15-11.41-7.93-11.85-8.1-5.49-2.49-12.45-2.34-13.86-2.29Z"/>
      </g>
      <path class="cls-7" d="M63.01,28.95c8.14-.05,14.3,3.75,14.3,3.75-10.55-3.52-15.34-2.23-15.34-2.23-1.21-.2,1.04-1.52,1.04-1.52Z"/>
      <path class="cls-16" d="M66.32,29.45c-2.19.68-5.95,1.12-5.95,1.12-1.06.46-.62-.69-.62-.69,1.95-2.26,6.58-.42,6.58-.42Z"/>
      <g>
        <g>
          <path class="cls-9" d="M63.46,29c.21.1.23.48.05.84s-.5.56-.71.46c-.21-.1-.23-.48-.05-.84s.5-.56.71-.46Z"/>
          <path class="cls-19" d="M63.66,28.6c.17.09.31.24.37.44.1.29.05.66-.13,1-.24.46-.62.73-.99.73-.11,0-.22-.02-.32-.07h0c-.17-.09-.31-.24-.37-.44-.1-.29-.05-.66.13-1,.3-.59.87-.88,1.31-.66Z"/>
        </g>
        <path class="cls-7" d="M63.25,29.41c.12.06.14.28.03.49-.11.21-.29.33-.42.27-.12-.06-.14-.28-.03-.49.11-.21.3-.33.42-.27Z"/>
        <path class="cls-16" d="M63.09,29.63c.09.04.09.19.02.34-.07.14-.2.23-.29.19-.09-.04-.09-.19-.02-.34.07-.15.2-.23.29-.19Z"/>
      </g>
      <g>
        <g>
          <path class="cls-9" d="M79.18,33.85c.26.08.36.51.22.96-.14.45-.47.74-.73.66-.26-.08-.36-.51-.21-.96.14-.45.47-.74.73-.66Z"/>
          <path class="cls-19" d="M78.02,34.38c-.13.4-.11.82.04,1.12.1.2.27.34.47.41.08.02.15.04.23.04.44,0,.87-.39,1.07-.99.22-.71,0-1.36-.51-1.53-.51-.16-1.07.25-1.29.95ZM78.83,34.95c0-.08,0-.18.04-.3.04-.12.09-.21.14-.27,0,.08,0,.18-.04.3s-.09.21-.14.27Z"/>
        </g>
        <path class="cls-7" d="M79.01,34.37c.15.05.21.3.13.57-.08.26-.28.44-.43.39-.15-.05-.21-.3-.13-.57.08-.26.28-.44.43-.39Z"/>
        <path class="cls-16" d="M78.87,34.65c.11.03.15.21.09.39s-.19.3-.3.27-.14-.21-.09-.39c.06-.18.19-.3.3-.27Z"/>
      </g>
      <g>
        <g>
          <path class="cls-9" d="M83.65,37.37c.27.06.41.48.31.94-.1.46-.39.78-.66.73-.27-.06-.41-.48-.31-.94.1-.46.39-.78.66-.73Z"/>
          <path class="cls-19" d="M82.55,38c-.15.72.13,1.36.65,1.47h0c.05.01.11.02.16.02.15,0,.31-.05.45-.14.29-.18.5-.53.59-.95.15-.72-.12-1.36-.65-1.47-.2-.04-.42,0-.61.12-.28.18-.5.54-.59.95ZM83.41,38.49c-.01-.08-.01-.18.01-.3.03-.12.07-.21.11-.28.01.08.01.18-.01.3-.03.12-.07.21-.11.28Z"/>
        </g>
        <path class="cls-7" d="M83.53,37.9c.16.03.24.28.18.55-.06.27-.23.46-.39.43-.16-.03-.24-.28-.18-.55.06-.27.23-.46.39-.43Z"/>
        <path class="cls-16" d="M83.42,38.19c.11.02.16.19.12.38-.04.19-.16.32-.27.29s-.16-.19-.13-.38c.04-.19.16-.32.27-.29Z"/>
      </g>
      <g>
        <g>
          <path class="cls-9" d="M69.5,29.65c.25.1.31.54.13.97-.18.43-.53.7-.79.6-.25-.1-.31-.54-.13-.97.18-.43.53-.7.79-.6Z"/>
          <path class="cls-19" d="M68.3,30.08c-.16.4-.18.81-.05,1.12.09.21.24.36.43.44.09.04.19.06.29.06.42,0,.85-.34,1.08-.9.16-.4.18-.8.05-1.12-.09-.21-.24-.37-.43-.44-.5-.2-1.09.16-1.37.84ZM69.06,30.71c0-.07.02-.17.07-.29.05-.12.11-.2.16-.26,0,.07-.02.17-.07.29-.05.12-.11.2-.16.26Z"/>
        </g>
        <path class="cls-7" d="M69.29,30.15c.15.06.18.32.08.57-.11.26-.31.41-.46.35-.15-.06-.18-.32-.08-.57.11-.26.31-.41.46-.35Z"/>
        <path class="cls-16" d="M69.13,30.42c.1.04.13.22.05.4-.07.18-.22.29-.32.24-.1-.04-.13-.22-.05-.39.07-.18.22-.29.32-.24Z"/>
      </g>
    </g>
    <g>
      <g>
        <path class="cls-9" d="M60.38,33.03c.23.12.25.56.04.97-.21.42-.58.66-.81.54-.23-.12-.25-.56-.04-.97.21-.42.58-.66.81-.54Z"/>
        <path class="cls-19" d="M59.17,33.37c-.14.27-.21.56-.2.82.01.35.17.63.43.76h0c.11.05.22.08.33.08.4,0,.82-.31,1.08-.82.34-.66.24-1.34-.23-1.58-.26-.13-.58-.1-.87.1-.22.14-.41.37-.55.64ZM59.88,33.99c.02-.06.04-.14.08-.22.04-.08.09-.14.13-.19-.02.06-.04.14-.08.22-.04.08-.09.14-.13.19Z"/>
      </g>
      <path class="cls-7" d="M60.12,33.51c.14.07.15.33.02.57-.13.25-.34.39-.48.32-.14-.07-.15-.33-.02-.57.13-.25.34-.39.48-.32Z"/>
      <path class="cls-16" d="M59.95,33.77c.1.05.1.23.01.4-.09.17-.23.27-.33.22-.09-.05-.1-.23-.01-.4s.23-.27.33-.22Z"/>
    </g>
    <g>
      <g>
        <path class="cls-9" d="M58.16,36.34c.23.12.25.56.04.97-.21.42-.58.66-.81.54s-.25-.56-.03-.97c.21-.42.58-.66.81-.54Z"/>
        <path class="cls-19" d="M56.96,36.67c-.34.66-.24,1.34.23,1.58h0c.11.05.22.08.33.08.4,0,.82-.31,1.08-.82.34-.66.24-1.34-.23-1.58-.47-.24-1.08.08-1.41.74ZM57.67,37.3c.02-.06.04-.14.08-.22.04-.08.09-.14.13-.19-.02.06-.04.14-.08.22-.04.08-.09.14-.13.19Z"/>
      </g>
      <path class="cls-7" d="M57.91,36.82c.14.07.15.33.02.57-.13.25-.34.39-.48.32-.14-.07-.15-.33-.02-.57.13-.25.34-.39.48-.32Z"/>
      <path class="cls-16" d="M57.73,37.07c.1.05.1.23.01.4-.09.17-.23.27-.33.22-.09-.05-.1-.23-.01-.4.09-.17.23-.27.33-.22Z"/>
    </g>
    <g>
      <g>
        <path class="cls-9" d="M56.76,45.86l2.45-5.76s1.64-2.16,3.26-2.11c0,0,1.36,1.48.6,3.79,0,0-1.1,2.89-2.28,5.24,6.24,2.29,11.87,4.8,11.87,4.8,1.6-5.29,1.59-7.6,1.59-7.6,6.34,3.3,10.38,7.14,10.38,7.14.36,1.09.59.19.43.88-2.32,9.45-5.75,15.37-5.75,15.37-2.59-.74-4.03-.62-4.03-.62-10.26,3.61-23.61.41-23.61.41-2.49-1.76-2.78-3.2-2.78-3.2.02-9.89,2.66-19.1,2.66-19.1,2.17.21,3.9.49,5.22.76Z"/>
        <path class="cls-19" d="M48.44,64.2v.05s0,.05,0,.05c.01.07.36,1.63,2.96,3.48l.07.05.08.02c.09.02,5.57,1.31,12.2,1.31,3.76,0,7.89-.41,11.6-1.71.27-.01,1.62-.02,3.82.61l.34.1.18-.3c.03-.06,3.49-6.08,5.79-15.49.07-.3.12-.5-.05-.69-.05-.05-.13-.12-.27-.15-.03-.05-.07-.14-.11-.28l-.04-.11-.08-.08s-4.16-3.92-10.48-7.21l-.66-.34v.74s-.01,2.19-1.42,6.99c-1.44-.63-5.99-2.58-10.96-4.43,1.09-2.25,2.07-4.81,2.08-4.83.84-2.55-.63-4.19-.69-4.26l-.13-.14h-.19c-1.84-.07-3.56,2.18-3.64,2.28l-.03.04-2.32,5.47c-1.49-.29-3.14-.53-4.9-.7l-.37-.04-.1.36c-.03.09-2.66,9.38-2.68,19.23ZM49.33,64.15c.03-8.6,2.07-16.77,2.54-18.56,1.74.18,3.35.42,4.79.72l.36.07,2.57-6.04c.42-.54,1.6-1.77,2.66-1.88.28.4.92,1.56.39,3.2,0,0-1.1,2.88-2.26,5.18l-.22.45.47.17c6.15,2.26,11.79,4.76,11.85,4.78l.47.21.15-.49c1.11-3.7,1.46-5.95,1.56-7.01,5.39,2.9,9.01,6.14,9.59,6.67.07.19.17.44.36.61-1.98,8.04-4.8,13.54-5.51,14.86-1.8-.48-3.02-.55-3.55-.55-.18,0-.29,0-.3,0h-.06s-.05.02-.05.02c-9.6,3.37-22.12.68-23.27.42-2.02-1.45-2.46-2.63-2.52-2.84Z"/>
      </g>
      <path class="cls-7" d="M61.92,38.45c1.34.49.68,3.23.68,3.23l-2.72,6.02c9.12,3.4,13.56,5.55,13.56,5.55,1.71-6.29,1.74-8.06,1.74-8.06,1.95.94,2.19,2.37,2.19,2.37-3.86,14.52-7.08,19.05-7.08,19.05-5.81,2.34-18.83-.25-18.83-.25,3.95-13.87,5.81-17.94,5.81-17.94,2.52-6.03,4.66-9.97,4.66-9.97Z"/>
      <path class="cls-7" d="M57.21,46.76l1.54-3.77c.93-3.53,2.97-3.91,2.97-3.91-1.91,3.75-4.38,9.82-4.38,9.82-.78,2.2-2.73,2.2-2.73,2.2-2.99,1.87-1.82,5.07-1.82,5.07,1.06,4.35-3.08,7.15-3.08,7.15.45-10.85,2.31-17.27,2.31-17.27,3.61-.05,5.18.7,5.18.7Z"/>
      <g>
        <g>
          <path class="cls-9" d="M61.8,39.07c.24.1.3.53.12.97-.18.44-.51.71-.76.61-.24-.1-.3-.53-.12-.97.18-.44.52-.71.76-.61Z"/>
          <path class="cls-19" d="M60.63,39.51c-.28.69-.12,1.35.37,1.55h0c.09.04.18.05.27.05.42,0,.84-.35,1.07-.91.28-.69.12-1.35-.37-1.55-.49-.2-1.07.17-1.34.86ZM61.4,40.07c0-.06.03-.14.06-.22.03-.08.07-.15.11-.2,0,.06-.03.14-.06.22-.03.08-.07.15-.11.2Z"/>
        </g>
        <path class="cls-7" d="M61.59,39.57c.14.06.18.31.07.57-.1.26-.3.42-.45.36-.14-.06-.18-.31-.07-.57.1-.26.3-.42.45-.36Z"/>
        <path class="cls-16" d="M61.44,39.84c.1.04.12.22.05.39-.07.18-.21.29-.31.25-.1-.04-.12-.22-.05-.39.07-.18.21-.29.31-.25Z"/>
      </g>
      <g>
        <g>
          <path class="cls-9" d="M76.69,46.61c.26.05.39.47.3.93-.09.46-.38.79-.64.74-.26-.05-.39-.47-.3-.93.09-.46.38-.79.64-.74Z"/>
          <path class="cls-19" d="M75.61,47.26c-.15.73.13,1.35.65,1.46h0s.1.01.14.01c.24,0,.48-.12.66-.34.17-.2.3-.47.36-.77.06-.3.05-.6-.03-.84-.11-.33-.33-.56-.62-.61-.52-.11-1.02.36-1.16,1.09ZM76.47,47.67c0-.07,0-.14.02-.23.02-.09.04-.16.07-.22,0,.06,0,.14-.02.23-.02.09-.04.16-.07.22Z"/>
        </g>
        <path class="cls-7" d="M76.57,47.14c.15.03.23.28.17.55-.05.27-.22.47-.37.43-.15-.03-.23-.27-.17-.55.06-.27.22-.47.37-.43Z"/>
        <path class="cls-16" d="M76.47,47.43c.1.02.16.19.12.38-.04.19-.15.32-.26.3-.1-.02-.16-.19-.12-.38.04-.19.15-.32.26-.3Z"/>
      </g>
      <path class="cls-16" d="M72.89,52.61c2.01-6.88,1.44-7.89,1.44-7.89l.85.46c.05,3.25-1.45,8.62-1.45,8.62-7.77-3.3-13.73-5.46-13.73-5.46l.08-1.01c3.87,1.35,12.81,5.28,12.81,5.28Z"/>
      <g>
        <g>
          <path class="cls-9" d="M80.14,49.1c.26.05.39.47.3.93-.09.46-.38.79-.63.74-.26-.05-.39-.47-.3-.93.09-.46.38-.79.63-.74Z"/>
          <path class="cls-19" d="M79.07,49.75c-.06.3-.05.6.03.84.11.33.33.56.62.62h0s.1.01.14.01c.24,0,.48-.12.66-.34.17-.2.3-.47.36-.77.06-.3.05-.6-.03-.84-.11-.33-.33-.56-.62-.61-.52-.1-1.02.36-1.16,1.09ZM79.93,50.16c0-.06,0-.14.02-.23.02-.09.04-.16.07-.22,0,.06,0,.14-.02.23s-.04.16-.07.22Z"/>
        </g>
        <path class="cls-7" d="M80.03,49.63c.15.03.23.28.17.55-.05.27-.22.47-.37.43-.15-.03-.23-.28-.17-.55.06-.27.22-.46.37-.43Z"/>
        <path class="cls-16" d="M79.92,49.92c.1.02.16.19.12.38-.04.19-.15.32-.26.3-.1-.02-.16-.19-.12-.38.04-.19.15-.32.26-.3Z"/>
      </g>
      <g>
        <g>
          <path class="cls-9" d="M78.6,54.49c.24.09.31.53.14.96-.17.44-.5.72-.75.63-.24-.09-.31-.53-.14-.96.17-.44.5-.72.75-.63Z"/>
          <path class="cls-19" d="M77.43,54.96c-.27.69-.09,1.36.4,1.54h0c.08.03.17.05.26.05.2,0,.41-.08.59-.24.2-.17.37-.41.48-.7.15-.4.16-.82.03-1.12-.09-.2-.24-.35-.43-.42-.19-.07-.4-.06-.6.03-.3.13-.58.46-.73.86ZM78.21,55.5c0-.06.03-.14.06-.22.03-.08.07-.15.11-.21,0,.06-.03.14-.06.22-.03.08-.07.15-.11.21Z"/>
        </g>
        <path class="cls-7" d="M78.4,55c.14.06.18.31.08.57-.1.26-.3.42-.44.37-.14-.06-.18-.31-.08-.57.1-.26.3-.42.44-.37Z"/>
        <path class="cls-16" d="M78.25,55.27c.1.04.12.21.06.39-.07.18-.2.29-.3.25-.1-.04-.12-.21-.06-.39.07-.18.2-.29.3-.25Z"/>
      </g>
      <g>
        <g>
          <path class="cls-9" d="M76.98,58.92c.24.09.31.53.14.96-.17.44-.5.72-.75.63-.24-.09-.31-.53-.14-.96.17-.44.5-.72.75-.63Z"/>
          <path class="cls-19" d="M75.81,59.39c-.27.69-.09,1.36.4,1.54h0c.08.03.17.05.26.05.42,0,.85-.36,1.07-.93.15-.4.16-.82.03-1.12-.09-.2-.24-.35-.43-.42-.19-.07-.4-.06-.6.03-.3.14-.58.46-.73.86ZM76.59,59.93c0-.06.03-.14.06-.22.03-.08.07-.15.11-.21,0,.06-.03.14-.06.22-.03.08-.07.15-.11.21Z"/>
        </g>
        <path class="cls-7" d="M76.78,59.43c.14.06.18.31.08.57-.1.26-.3.42-.44.37-.14-.06-.18-.31-.08-.57.1-.26.3-.42.44-.37Z"/>
        <path class="cls-16" d="M76.63,59.7c.1.04.12.21.06.39-.07.18-.2.29-.3.25-.1-.04-.12-.21-.06-.39.07-.18.2-.29.3-.25Z"/>
      </g>
      <g>
        <g>
          <path class="cls-9" d="M75.42,63.14c.24.09.31.53.14.96-.17.44-.5.72-.75.63-.24-.09-.31-.53-.14-.96s.5-.72.75-.63Z"/>
          <path class="cls-19" d="M74.25,63.6c-.27.69-.09,1.36.4,1.54h0c.08.03.17.05.26.05.2,0,.41-.08.59-.24.2-.17.37-.41.48-.7.15-.4.17-.82.03-1.13-.09-.2-.24-.35-.43-.42-.18-.07-.4-.06-.6.03-.3.14-.58.46-.73.86ZM75.03,64.15c0-.06.03-.14.06-.22.03-.08.07-.15.11-.21,0,.06-.03.14-.06.22-.03.08-.07.15-.11.21Z"/>
        </g>
        <path class="cls-7" d="M75.22,63.64c.14.05.18.31.08.57-.1.26-.3.42-.44.37-.14-.06-.18-.31-.08-.57.1-.26.3-.42.44-.37Z"/>
        <path class="cls-16" d="M75.07,63.92c.1.04.12.21.06.39-.07.18-.2.29-.3.25-.1-.04-.12-.21-.06-.39.07-.18.2-.29.3-.25Z"/>
      </g>
      <path class="cls-7" d="M80.24,56.76s-.6-6.99,1.92-6.62c0,0,1.7.64,1.61,1.21,0,0-1.74,6.96-6.02,15.27,0,0-1.07.33-.08-1.74,0,0,2.56-5.68,2.57-8.11Z"/>
      <path class="cls-16" d="M84.66,52.12c-1.43,6.94-5.64,14.89-5.64,14.89-.76-.13-1.21-.61-1.21-.61,4.03-8.35,5.95-15.05,5.95-15.05l.9.77Z"/>
      <path class="cls-19" d="M76.93,62.36c.58-1.46,1.13-2.93,1.65-4.41.52-1.48,1.01-2.97,1.45-4.47.44-1.5.86-3.02,1.17-4.52l.88.19c-.4,1.56-.89,3.05-1.41,4.54-.52,1.49-1.09,2.96-1.67,4.42-.59,1.46-1.21,2.91-1.86,4.34-.32.72-.66,1.43-.99,2.14l-1.03,2.12.92-2.17c.29-.73.6-1.45.88-2.18Z"/>
      <path class="cls-19" d="M55.01,54.7c.69-2.09,1.38-4.18,2.26-6.21.87-2.02,1.8-4.01,2.83-5.96-.95,1.98-1.8,4.01-2.59,6.05-.8,2.04-1.43,4.14-2.05,6.25-.61,2.11-1.18,4.23-1.74,6.35-.55,2.12-1.09,4.25-1.61,6.38l-.87-.22c.59-2.12,1.19-4.23,1.82-6.34.63-2.11,1.27-4.21,1.95-6.3Z"/>
    </g>
    <g>
      <path class="cls-7" d="M55.4,39.75s-1.39,1.26-2.4,5.25l-1.39-.12s.79-3.66,2.14-5.54c0,0,.78-.44,1.65.41Z"/>
      <path class="cls-19" d="M51.17,44.79l-.11.5,2.27.19.09-.37c.97-3.82,2.26-5.02,2.27-5.03l.35-.32-.34-.33c-1.1-1.07-2.13-.5-2.18-.48l-.09.05-.06.08c-1.39,1.94-2.18,5.56-2.22,5.71ZM52.17,44.48c.26-1.02.93-3.38,1.88-4.78.12-.04.38-.07.7.11-.48.62-1.37,2.04-2.09,4.71l-.49-.04Z"/>
    </g>
    <path class="cls-16" d="M56.91,46.15l-.36,1.33c-2.44-.53-3.69-.68-3.69-.68-1.95,4.9-3.21,16.75-3.21,16.75-.99-5.08,2.25-18.1,2.25-18.1,2.41.17,5,.7,5,.7Z"/>
    <path class="cls-16" d="M57.71,52.96c.98,3.01-1.41,5.09-1.41,5.09-2.46,3.28.02,5.12.02,5.12,2.61,1.65,2.6,4.2,2.6,4.2-5.36-.2-6.89-.84-6.89-.84,2.3-10.68,6.55-20.16,6.55-20.16-1.34,3.12-.87,6.59-.87,6.59Z"/>
  </g>
  <g>
    <g>
      <path class="cls-9" d="M68.2,68.24c.47-.26,4.51-2.21,8.24-1.4,0,0,4.35,1.17,8.32,4.6,0,0-3.68,2.33-3.65,5.76,0,0-3.06-2.07-5.65-3.69-.92-.57-3.9.47-6.01.6-2.45.14-4.66-4.01-1.25-5.87Z"/>
      <path class="cls-19" d="M66.14,71.88c.46,1.61,1.89,2.76,3.33,2.68.84-.05,1.78-.23,2.7-.41,1.17-.23,2.63-.51,3.04-.25,2.56,1.59,5.61,3.66,5.64,3.68l.71.48v-.85c-.03-3.14,3.4-5.35,3.44-5.37l.51-.32-.46-.4c-4-3.46-8.31-4.65-8.49-4.7h-.02c-4.11-.89-8.51,1.41-8.55,1.44-1.63.89-2.32,2.39-1.85,4.03ZM68.42,68.64s4.14-2.17,7.92-1.36c.22.06,4.06,1.18,7.69,4.14-.95.72-2.95,2.51-3.31,4.98-1.04-.7-3.16-2.1-5.02-3.26-.72-.45-2.1-.18-3.69.13-.89.17-1.8.35-2.58.4-1.01.06-2.08-.83-2.42-2.03-.17-.58-.36-2.03,1.41-3Z"/>
    </g>
    <path class="cls-7" d="M71.24,68.88s1.91-.8,4.37-.65c0,0,.78-.18,3.13,1.45,0,0-1.84,1.52-1.78,4.1,0,0-.61-.53-1.93-1.02,0,0-2.31.04-4.58.63,0,0-2.38.74-3.01-1.53,0,0-.37-1.76,3.81-2.97Z"/>
    <g>
      <g>
        <g>
          <path class="cls-11" d="M82.61,68.08c1.53,1.19,2.99,4.04,2.99,4.04-4.17,2.11-4,5.84-4,5.84l-4.75-2.63c.66-5.65,5.76-7.25,5.76-7.25Z"/>
          <path class="cls-6" d="M76.41,75.28l-.03.3,5.72,3.17-.04-.8c0-.14-.09-3.48,3.75-5.42l.4-.2-.21-.4c-.06-.12-1.53-2.95-3.12-4.19l-.19-.14-.22.07c-.05.02-5.38,1.75-6.07,7.63ZM77.34,75.09c.66-4.42,4.25-6.12,5.18-6.49,1.04.91,2.05,2.59,2.47,3.35-2.92,1.65-3.62,4.07-3.79,5.29l-3.87-2.14Z"/>
        </g>
        <path class="cls-15" d="M84.41,72.13s-2.37,1.34-2.99,5l-4-2.03s2.02-6.58,6.99-2.97Z"/>
        <g>
          <path class="cls-6" d="M81.71,73.2c.22-.07.44-.13.67-.17.23-.04.46-.07.71-.05-.19.16-.39.28-.6.38-.21.1-.42.19-.64.26-.22.07-.44.13-.67.17-.23.04-.46.07-.71.05.19-.16.39-.28.6-.38.21-.1.42-.19.64-.26Z"/>
          <path class="cls-6" d="M81.74,72.56c.06-.22.14-.45.26-.66.07.24.08.47.09.71,0,.23,0,.46-.03.69-.03.23-.07.45-.13.68-.06.22-.14.45-.26.66-.07-.24-.09-.47-.09-.7,0-.23,0-.46.03-.69.03-.23.07-.45.13-.68Z"/>
        </g>
        <g>
          <path class="cls-6" d="M80.34,72c.22-.07.44-.13.67-.17.23-.04.46-.07.71-.05-.19.16-.39.28-.6.38-.21.1-.42.19-.64.26-.22.07-.44.13-.67.17-.23.04-.46.07-.71.05.19-.16.39-.28.6-.38.21-.1.42-.19.64-.26Z"/>
          <path class="cls-6" d="M80.37,71.36c.06-.22.14-.45.26-.66.07.24.08.47.09.7,0,.23,0,.46-.03.69-.03.23-.07.45-.13.68-.06.22-.14.45-.26.66-.07-.24-.08-.47-.09-.71,0-.23,0-.46.04-.69.03-.23.07-.45.13-.68Z"/>
        </g>
      </g>
      <g>
        <g>
          <path class="cls-11" d="M83.48,73.3c1.95-2.18,3.5-1.27,3.5-1.27,1.42.78,3,2.1,3,2.1l-.26,1.31c.54.31.51.45.51.45l-.36,1.29c.39.48.11,1.38.11,1.38-1.06,1.25-.86,2.7-.86,2.7-.05.8-2.32.2-2.32.2-.64,1.03-1.92.38-1.92.38-.62-.98-3.06-1.51-3.06-1.51-1.1-4.6,1.66-7.03,1.66-7.03Z"/>
          <path class="cls-6" d="M83.16,72.98c-.29.27-2.88,2.81-1.77,7.45l.07.27.28.06c.87.19,2.4.72,2.78,1.31l.07.1.11.06c.25.13.65.26,1.06.26s.88-.13,1.24-.53c.61.14,1.72.31,2.25-.07.2-.14.32-.36.33-.6v-.05s0-.04,0-.04c0-.01-.15-1.28.76-2.35l.06-.07.03-.09c.03-.1.28-.95-.05-1.59l.32-1.13c.06-.32-.2-.58-.45-.75l.25-1.27-.2-.17c-.07-.05-1.63-1.36-3.07-2.15-.16-.09-1.93-1-4.04,1.35ZM83.78,73.64l.04-.04c1.68-1.89,2.93-1.19,2.94-1.18h0c1.07.6,2.26,1.52,2.73,1.89l-.27,1.36.28.16c.11.06.19.12.24.15l-.37,1.3.15.18c.16.2.11.64.05.88-.93,1.15-.94,2.42-.91,2.84-.25.09-1.05.02-1.74-.16l-.32-.08-.17.28c-.34.55-.99.36-1.24.25-.65-.85-2.3-1.35-2.98-1.52-.86-4.09,1.48-6.23,1.58-6.32Z"/>
        </g>
        <path class="cls-15" d="M84.57,74.46c.58-.48,1.47-.68,1.47-.68,1.4.24,2.32,1.33,2.32,1.33.62.94-.18,1.35-.18,1.35.96.78.47,2.42.47,2.42-.37,1.12-.17,2.18-.17,2.18-.39.41-1.22-.1-1.22-.1-.29-2.53-1.93-2.6-1.93-2.6.75.74.88,2.1.88,2.1.02.99-1.09.84-1.09.84-1.86-1.5-2.67-1.3-2.67-1.3-.17-4.31,2.12-5.54,2.12-5.54Z"/>
        <g>
          <g>
            <path class="cls-6" d="M86.41,81.22h0s0,0,0,0c0,0-.01,0,0,0Z"/>
            <path class="cls-6" d="M85.96,77.6l.16-.17-.13.2c-.03.07-.07.14-.1.21-.05.14-.09.29-.09.44,0,.14.04.28.11.4.06.12.17.23.27.29h0s.02.02.02.02c.18.18.37.35.53.55.17.2.32.42.45.66.12.25.22.55.19.89-.01.17-.07.35-.16.51-.04.08-.1.15-.16.22-.03.03-.06.07-.1.1-.02.02-.04.03-.06.05-.02.02-.04.03-.08.05l-.41-.8s0,0,.01,0c.01,0,.02-.01.04-.02.02-.02.05-.04.07-.06.04-.05.08-.1.1-.17.05-.14.04-.34-.02-.54-.06-.2-.15-.41-.27-.61-.11-.2-.25-.4-.39-.59l.03.02c-.15-.14-.24-.29-.3-.46-.06-.17-.07-.35-.04-.52.03-.17.1-.32.19-.46.04-.07.1-.13.14-.2Z"/>
          </g>
          <path class="cls-6" d="M87.61,78.83c.18.03.35.06.52.11-.35.05-.68.16-1.01.26-.33.11-.66.22-.99.34l-.13-.89c.36.03.71.06,1.07.1.18.02.35.04.53.07Z"/>
          <polygon class="cls-6" points="89.62 77.55 87.67 75.68 90.12 76.81 89.62 77.55"/>
          <polygon class="cls-6" points="89.46 75.8 88.09 74.2 90 75.08 89.46 75.8"/>
        </g>
      </g>
    </g>
  </g>
  <g>
    <g>
      <path class="cls-9" d="M87.09,57.83c8-1.46,13.61-.79,13.61-.79,4.6,15.44,4.25,19.34,4.25,19.34,1.6,12.77-9.87,22.08-10.01,22.04-.12.08-14.14-4.57-17.15-17.08,0,0-1.71-3.53-2.86-19.6,0,0,1.31-1.94,12.17-3.92Z"/>
      <path class="cls-19" d="M74.55,61.5l-.09.13v.15c1.1,15.18,2.68,19.22,2.89,19.71,2.77,11.4,14.28,16.23,16.57,17.08.53.2.8.28.97.3.02,0,.04,0,.06,0s.04,0,.06,0c.04,0,.08-.02.12-.04.15-.08.38-.26.81-.63,1.83-1.6,10.89-10.19,9.45-21.82.03-.53.08-4.87-4.27-19.46l-.08-.28-.29-.04c-.06,0-5.77-.66-13.74.79-10.73,1.96-12.31,3.89-12.46,4.11ZM75.39,61.92c.47-.4,2.83-2.01,11.79-3.65,6.83-1.25,11.94-.92,13.18-.81,4.4,14.84,4.15,18.85,4.14,18.89v.05s0,.05,0,.05c.8,6.35-1.78,11.78-4.08,15.22-2.35,3.52-4.93,5.79-5.57,6.28h0s0,0,0,0c-.77-.23-3.98-1.45-7.42-3.91-3.37-2.41-7.7-6.58-9.19-12.8l-.03-.09s-1.68-3.71-2.8-19.23Z"/>
    </g>
    <path class="cls-7" d="M98.44,57.58c4.19,14.5,4.05,18.78,4.05,18.78,1.55,11.96-8.31,20.52-8.44,20.49-.1.08-12.35-4.45-15.13-16.19,0,0-1.53-3.32-2.73-18.36,0,0,3.47-2.39,10.9-3.58,7.37-1.51,11.35-1.13,11.35-1.13Z"/>
    <path class="cls-16" d="M87.12,58.48c4.6-.84,8.39-.95,10.7-.9-2.11.11-5.03.39-8.53,1.03-10.22,1.87-11.83,3.97-11.83,3.97,1.09,15.13,2.69,18.45,2.69,18.45,2.84,11.78,14.22,15.46,14.33,15.38.08.02,3.68-1.97,7.92-8.44-2.87,6.07-7.6,9.87-7.69,9.85-.11.08-13.7-4.43-16.62-16.55,0,0-1.65-3.42-2.77-18.99,0,0,1.27-1.88,11.79-3.8Z"/>
    <g>
      <g>
        <path class="cls-18" d="M86.52,69.9c-1.08-4.05-2.44-7.21-2.44-7.21,2.7-2.57,6.66-1,6.66-1-1.19,2.46-.96,4.97-.87,7.51,4.69-.48,8.14-2.77,8.14-2.77,3.03,3.04.9,5.57.9,5.57-3.25-.52-6.26-.8-8.81-.36,2.3,12.82,6.53,17.01,6.53,17.01-3.89,5.62-7.91,1.68-7.91,1.68.46-7.14-1.14-14.45-1.69-17.96-4.65,1.39-7.32,2.76-7.32,2.76-2.5-2.69-.64-5.62-.64-5.62,2.25.56,5.37.77,7.45.39Z"/>
        <path class="cls-13" d="M78.79,69.33s-1.97,3.17.68,6.03l.17.19.23-.12s2.55-1.3,6.89-2.62c.08.47.17,1,.27,1.59.69,3.97,1.74,9.96,1.36,15.92v.15s.1.11.1.11c.06.06,1.5,1.44,3.52,1.44.14,0,.28,0,.42-.02,1.64-.16,3.15-1.21,4.48-3.15l.16-.23-.2-.2s-4.12-4.23-6.38-16.5c2.64-.39,5.7-.01,8.37.41l.19.03.12-.15s2.29-2.8-.92-6.02l-.19-.2-.23.15s-3.27,2.13-7.64,2.68c0-.1,0-.21-.01-.31-.09-2.32-.18-4.51.86-6.68l.16-.33-.34-.13c-.17-.07-4.2-1.63-7.02,1.06l-.17.16.09.22s1.29,3,2.33,6.81c-1.92.27-4.76.1-6.95-.44l-.23-.06-.13.2ZM79.24,69.9c2.41.55,5.38.69,7.34.33l.36-.07-.09-.35c-.91-3.42-2.04-6.24-2.37-7.04,2.05-1.78,4.84-1.17,5.8-.88-.95,2.21-.86,4.46-.77,6.65,0,.22.02.45.03.67v.36s.37-.04.37-.04c4.07-.42,7.19-2.15,8.06-2.67,2.17,2.33,1.17,4.24.8,4.78-2.79-.44-5.98-.8-8.72-.32l-.33.06.06.33c2.04,11.37,5.56,15.98,6.43,16.98-1.18,1.62-2.47,2.51-3.84,2.64-1.63.15-2.92-.82-3.3-1.13.36-5.98-.68-11.96-1.38-15.92-.13-.75-.24-1.4-.33-1.96l-.06-.38-.37.11c-3.86,1.15-6.38,2.31-7.14,2.67-1.71-2.03-.88-4.15-.55-4.81Z"/>
      </g>
      <path class="cls-20" d="M90.09,61.85c-1.3-.25-3.1-.21-4.81,1.37,0,0,1.3,3.09,2.3,6.8-.69.13-1.26.08-.87,0-.19-2.29-2.2-7.23-2.2-7.23,2.62-2.5,5.6-.98,5.58-.95Z"/>
      <path class="cls-20" d="M98.22,67.23c-1.07.6-3.81,1.94-7.24,2.31,0-.04,0-.07,0-.11,4.04-.65,6.91-2.55,6.91-2.55.12.12.23.24.33.36Z"/>
      <path class="cls-20" d="M99.07,71.32c-.12.2-.21.31-.21.31-2.75-.44-5.32-.7-7.57-.48,0,0,0-.02,0-.02,2.27-.4,4.92-.21,7.79.19Z"/>
      <path class="cls-20" d="M88.17,71.85c.52,3.36,2.37,11.12,1.93,17.94,0,0,3.08,1.76,5.99-1.09.06.07.1.11.1.11-3.56,4.76-7.09,1.34-7.09,1.34.4-7.12-1.16-14.41-1.74-18.02.33-.11.46-.18.82-.29Z"/>
      <path class="cls-20" d="M79.94,70.2c-.24.63-1.09,2.1.31,4.15-.5.27-.61.41-.61.41-1.97-2.69-.58-4.83-.58-4.83.28.1.57.19.88.28Z"/>
    </g>
  </g>
  <g>
    <g>
      <g>
        <path class="cls-11" d="M35.64,52.29c-1.44-1.2.71-2.58.71-2.58l1.37-.64c1.88.05,2.65,1.04,2.65,1.04l2.52.9c2.06,2.88-.84,5.54-.84,5.54l-.43,1.74-.93,1.02c-1.7,1.31-5.63-1.05-5.63-1.05-1.28-1.78.11-3.78.11-3.78-1.06-1.35.48-2.19.48-2.19Z"/>
        <path class="cls-6" d="M34.63,54.49c-.36.66-1.1,2.4.06,4.02l.05.08.08.05c.32.19,2.58,1.51,4.48,1.51.61,0,1.19-.14,1.65-.49l.06-.05,1.01-1.1.42-1.73c1.1-1.07,2.56-3.58.8-6.03l-.08-.11-2.55-.91c-.28-.29-1.18-1.05-2.89-1.1h-.11s-1.51.71-1.51.71c-.14.09-1.35.9-1.41,1.96-.02.25.03.59.28.94-.24.22-.51.56-.6,1.01-.09.42,0,.84.26,1.26ZM35.53,54.73l.19-.27-.21-.26c-.22-.28-.31-.54-.26-.78.07-.37.46-.65.61-.74l.57-.32-.5-.42c-.35-.29-.34-.52-.33-.6.03-.5.71-1.07.98-1.25l1.24-.58c1.55.08,2.2.85,2.2.86l.08.1,2.51.9c1.66,2.48-.75,4.74-.86,4.83l-.1.09-.43,1.77-.83.9c-1.18.86-3.94-.42-5.01-1.05-.99-1.49.15-3.17.16-3.19Z"/>
      </g>
      <path class="cls-6" d="M34.63,54.49c-.36.66-1.1,2.4.06,4.02l.05.08.08.05c.43.26,4.24,2.47,6.13,1.02l.06-.05,1.01-1.1.42-1.73c1.1-1.07,2.56-3.58.8-6.03l-.08-.11-2.55-.91c-.28-.29-1.18-1.05-2.89-1.1h-.11s-1.51.71-1.51.71c-.14.09-1.35.9-1.41,1.96-.02.25.03.59.27.94-.24.22-.51.56-.6,1.01-.09.42,0,.84.26,1.26ZM35.53,54.73l.19-.27-.21-.26c-.23-.29-.31-.54-.26-.78.09-.43.6-.73.6-.73l.58-.32-.51-.42c-.35-.29-.34-.52-.33-.6.03-.51.71-1.07.98-1.25l1.24-.58c1.54.08,2.18.83,2.21.87l.08.1.12.05,2.39.85c1.66,2.48-.75,4.74-.86,4.83l-.1.09-.43,1.77-.83.9c-1.18.85-3.94-.42-5.01-1.05-.99-1.49.15-3.17.16-3.19Z"/>
    </g>
    <g>
      <rect class="cls-9" x="29.77" y="52.3" width="15.45" height="4.27" transform="translate(-26.6 70.59) rotate(-69.59)"/>
      <path class="cls-19" d="M37.93,45.88l-5.7,15.32,4.84,1.8,5.7-15.32-4.84-1.8ZM33.38,60.67l5.07-13.63,3.16,1.17-5.07,13.63-3.16-1.18Z"/>
    </g>
    <g>
      <g>
        <path class="cls-9" d="M39.66,62.52c-1.53,2.93-5.24,1.54-5.24,1.54-4.61-1.7-3.21-4.69-3.21-4.69,4.62-.08,8.45,3.15,8.45,3.15Z"/>
        <path class="cls-19" d="M30.81,59.18s-.54,1.18,0,2.5c.49,1.19,1.65,2.13,3.46,2.8.52.19,1.26.36,2.06.36,1.36,0,2.88-.48,3.73-2.12l.17-.32-.28-.23c-.16-.13-3.92-3.25-8.57-3.25-.06,0-.11,0-.17,0h-.28s-.12.26-.12.26ZM31.53,59.82c3.55.06,6.6,2.11,7.54,2.81-1.42,2.11-4.37,1.06-4.5,1.01-1.55-.57-2.54-1.34-2.93-2.28-.27-.64-.2-1.22-.11-1.54Z"/>
      </g>
      <path class="cls-7" d="M34.72,60.16c1.32.54,2.24,1.26,2.24,1.26-2.38-.84-3.66.05-3.66.05-.45,1.17,1.33,2.31,1.33,2.31-3.63-.99-2.61-3.82-2.61-3.82,1.7-.18,2.71.19,2.71.19Z"/>
      <path class="cls-16" d="M34.08,60.01c-1.63-.24-1.96.47-1.96.47-.27,1.91,1.79,3.16,1.79,3.16-3.19-1.19-2.53-3.93-2.53-3.93,1.36-.2,2.7.29,2.7.29Z"/>
    </g>
    <g>
      <path class="cls-13" d="M40.42,55.77c-.1-.08-.2-.16-.3-.25.13-.05.26-.1.4-.13l-.11.38Z"/>
      <path class="cls-6" d="M39.42,55.92c.16-.13.33-.24.52-.32.06-.03.12-.06.19-.08.09.09.2.18.3.25l.11-.38c-.15.03-.28.08-.4.13-.08-.08-.15-.17-.21-.28-.13-.22-.21-.49-.21-.75,0-.26.04-.51.12-.74.04-.12.08-.23.14-.34.06-.11.1-.21.19-.33l.7.56s-.11.12-.16.19c-.05.07-.1.15-.14.22-.09.15-.15.32-.18.48-.03.16-.02.32.04.47.04.16.16.3.28.43l.32.37-.43.02c-.16,0-.36.04-.53.08-.18.05-.35.11-.51.2-.16.09-.31.2-.43.34-.13.14-.21.31-.27.5.03-.19.08-.39.19-.56.1-.17.24-.33.4-.46Z"/>
    </g>
    <g>
      <path class="cls-11" d="M36.18,49.13l.7-.28c1.75-.49,3.36,1.59,3.36,1.59-2.19-.9-2.09,2.08-2.09,2.08-1.27-1.66-3.13-.4-3.13-.4-1.14-1.76,1.16-2.99,1.16-2.99Z"/>
      <path class="cls-6" d="M34.32,50.64c-.15.58-.04,1.16.32,1.73l.25.38.38-.26c.16-.1,1.55-.97,2.53.3l.85,1.11-.05-1.4c-.01-.33.06-1.36.53-1.68.21-.15.53-.14.94.03l1.54.63-1.02-1.32c-.07-.1-1.81-2.32-3.84-1.75l-.04.02-.75.3c-.05.03-1.35.73-1.65,1.9ZM35.19,50.87c.19-.73,1.05-1.25,1.19-1.33l.65-.26c.74-.2,1.47.19,2.01.61-.15.04-.29.11-.42.2-.5.35-.73.96-.83,1.48-.89-.56-1.89-.38-2.57-.07-.07-.22-.08-.43-.03-.64Z"/>
    </g>
    <g>
      <g>
        <path class="cls-11" d="M34.88,52.22c2.32-1.19,3.13.1,3.13.1,1.06.96.71,3.01.71,3.01-.52,1.07-2.25-.07-2.25-.07-1.81-1.27-2.22-.17-2.22-.17-1.22-2,.63-2.87.63-2.87Z"/>
        <path class="cls-6" d="M33.48,53.22c-.19.65-.06,1.36.4,2.11l.48.78.32-.86s.05-.1.19-.14c.14-.04.54-.06,1.35.52.12.08.95.61,1.74.61.13,0,.27-.02.39-.05.35-.1.62-.33.78-.66l.03-.06v-.06c.03-.09.38-2.27-.81-3.39-.22-.29-1.29-1.42-3.67-.19-.03.01-.92.44-1.2,1.4ZM34.34,53.48c.16-.57.74-.85.74-.86,1.9-.97,2.54-.1,2.57-.06l.03.04.04.04c.69.62.66,1.98.58,2.53-.06.09-.12.12-.18.14-.39.11-1.1-.25-1.39-.43-.84-.59-1.56-.8-2.13-.63-.07.02-.14.05-.2.08-.11-.31-.13-.6-.05-.86Z"/>
      </g>
      <path class="cls-6" d="M33.48,53.22c-.19.65-.06,1.36.4,2.11l.48.78.32-.86s.05-.1.19-.14c.14-.04.54-.06,1.35.51.14.09,1.25.8,2.13.56.35-.1.62-.33.78-.66l.03-.06v-.06c.03-.09.38-2.27-.81-3.39-.22-.29-1.29-1.42-3.67-.2-.1.05-.93.48-1.21,1.4ZM34.34,53.48c.17-.56.73-.84.74-.85h.01c1.89-.97,2.53-.1,2.56-.06l.03.04.04.04c.69.62.66,1.98.58,2.53-.06.09-.12.12-.18.14-.38.11-1.11-.24-1.39-.44-.08-.06-.16-.11-.24-.16-.74-.47-1.38-.63-1.9-.47-.07.02-.14.05-.2.08-.11-.32-.13-.61-.05-.87Z"/>
      <polygon class="cls-13" points="34.68 55.25 34.68 55.25 34.68 55.25 34.68 55.25"/>
    </g>
    <g>
      <g>
        <path class="cls-11" d="M36,54.8c3.07,1.9,1.49,3.62,1.49,3.62-1.05.98-3.65-.58-3.65-.58-.7-1.47.11-2.65.11-2.65.76-.73,2.04-.39,2.04-.39Z"/>
        <path class="cls-6" d="M33.58,54.94c-.04.06-.95,1.42-.15,3.1l.06.12.12.07c.21.13,1.66.96,2.91.96.48,0,.93-.12,1.27-.45l.02-.02s.64-.72.5-1.73c-.13-.93-.83-1.8-2.09-2.57l-.06-.03-.06-.02c-.06-.02-1.54-.4-2.47.5l-.06.07ZM34.3,55.48c.49-.43,1.3-.3,1.52-.26.96.61,1.51,1.25,1.61,1.88.08.55-.21.93-.27,1.01-.59.51-2.17-.13-2.97-.58-.43-1.03,0-1.86.11-2.05Z"/>
      </g>
      <path class="cls-6" d="M33.58,54.94c-.04.06-.95,1.42-.15,3.1l.06.12.12.07c.3.18,2.93,1.7,4.18.52l.02-.02s.64-.72.5-1.73c-.13-.93-.83-1.8-2.09-2.57l-.06-.03-.06-.02c-.06-.02-1.54-.4-2.47.5l-.06.07ZM34.3,55.48c.49-.43,1.3-.3,1.52-.26,0,0,.02,0,.02.01.95.6,1.49,1.25,1.59,1.87.08.55-.21.93-.27,1.01-.58.51-2.17-.13-2.97-.58-.43-1.03,0-1.87.11-2.05Z"/>
    </g>
    <g>
      <path class="cls-15" d="M35.49,54.95c1.16.42,1.63,1.45,1.63,1.45-.18,1.69-1.79.11-1.79.11-.28.69-1.11.64-1.11.64-.68-.44-.31-1.74-.31-1.74.35-.93,1.58-.46,1.58-.46Z"/>
      <path class="cls-6" d="M35.42,55.33c.04-.21.08-.41.14-.63l.81.38c-.11.15-.22.32-.33.49-.1.17-.2.34-.3.52-.09.18-.17.36-.24.54-.06.19-.11.38-.08.58-.11-.18-.14-.4-.15-.61,0-.21,0-.43.03-.64.03-.21.06-.42.1-.63Z"/>
    </g>
    <g>
      <path class="cls-15" d="M36.23,52.17c1.44-.07,1.82,1.2,1.82,1.2.07,1.7-1.7.15-1.7.15-.18.73-1.66.63-1.66.63-.73-.34-.33-.7-.33-.7.21-.97,1.88-1.28,1.88-1.28Z"/>
      <path class="cls-6" d="M36.27,51.92l.86.26c-.09.16-.17.35-.25.53-.08.18-.15.37-.22.55-.06.19-.12.38-.16.57-.03.19-.06.39,0,.59-.13-.16-.19-.38-.23-.59-.04-.21-.05-.42-.06-.64,0-.21,0-.43,0-.64,0-.21.02-.42.05-.64Z"/>
    </g>
    <g>
      <path class="cls-15" d="M37.19,49.17c1.21.25,1.7.72,1.7.72.07,1.7-1.86.8-1.86.8-.18.73-1.66.63-1.66.63-.36-.49-.06-.86-.06-.86.21-.97,1.88-1.28,1.88-1.28Z"/>
      <path class="cls-6" d="M37.01,48.87l.86.26c-.09.16-.17.35-.25.53-.08.18-.15.37-.22.55-.06.19-.12.38-.16.57-.04.19-.06.39,0,.59-.13-.16-.19-.38-.23-.59-.04-.21-.05-.42-.06-.64,0-.21,0-.43,0-.64.01-.21.02-.42.05-.64Z"/>
    </g>
    <g>
      <g>
        <path class="cls-11" d="M40.3,49.56l.89.2c2.24,1,2.34,2.8,2.34,2.8l-2.74.18c-1.89,2.13-2.8,1-2.8,1-.62-.64.11-1.74.11-1.74.96-3.28,2.21-2.43,2.21-2.43Z"/>
        <path class="cls-6" d="M39.48,49.1c.45-.16.81-.04.98.04l.82.18.09.03c2.46,1.1,2.6,3.1,2.6,3.18l-.9.05c0-.06-.13-1.53-2.03-2.4l-.93-.2-.07-.05s-.11-.05-.26,0c-.21.08-.76.44-1.27,2.18l-.02.07-.04.06s-.51.82-.16,1.17l.02.02s.14.15.4.14c.26,0,.84-.15,1.72-1.15l.67.6c-.87.98-1.69,1.47-2.44,1.45-.33,0-.59-.12-.76-.23-.14-.09-.22-.18-.26-.22-.66-.68-.31-1.69.03-2.23.46-1.53,1.07-2.45,1.81-2.71Z"/>
      </g>
      <path class="cls-15" d="M40.56,51.62c-1.26,2.52-2.19,1.07-2.19,1.07.02-1.28,1.14-2.69,1.14-2.69,1.73.73,1.05,1.62,1.05,1.62Z"/>
    </g>
    <g>
      <g>
        <g>
          <g>
            <path class="cls-9" d="M56.29,5.01l.16.06c.73,1,.32,4.53.32,4.53-1.91,10.71-12.64,38.79-12.64,38.79l-3.34-1.24-.16-.06-3.34-1.24s10.24-28.26,15.8-37.62c0,0,2-2.93,3.21-3.21Z"/>
            <path class="cls-19" d="M36.86,45.69l-.15.42,7.68,2.86.16-.42c.11-.28,10.77-28.24,12.66-38.87v-.03c.08-.62.39-3.76-.4-4.84l-.08-.11-.41-.15-.13.03c-1.31.31-3.13,2.89-3.48,3.4l-.02.02c-5.51,9.28-15.73,37.41-15.83,37.69ZM37.86,45.58c1.3-3.54,10.5-28.51,15.6-37.11.68-.99,1.94-2.55,2.73-2.94.34.81.28,2.82.14,4.01-1.76,9.85-11.12,34.75-12.46,38.28l-6.01-2.24Z"/>
          </g>
          <path class="cls-7" d="M39.35,43.49C50.44,12.42,56.1,5.51,56.1,5.51c-1.88,13.84-15.65,42.37-15.65,42.37-5.18-.83-1.11-4.39-1.11-4.39Z"/>
          <path class="cls-16" d="M56.06,5.63s.14-.07.16-.02c-.53.64-2.18,3.87-2.18,3.87-4.53,8.45-12.35,31.08-14.33,36.89l-1.94-.72s10.01-27.62,15.44-36.77c0,0,1.67-2.97,2.85-3.25Z"/>
          <path class="cls-16" d="M44.78,42.75c-1.6,3.19-2.63,2.99-2.63,2.99,3.03-7.77,8.94-25.38,8.94-25.38-1.05,10.71-6.31,22.39-6.31,22.39Z"/>
          <g>
            <path class="cls-19" d="M39.45,47.02l.38.17c-.05.13-.09.26-.14.38l-.24-.56Z"/>
            <path class="cls-19" d="M40.69,48.1c.06-.14.11-.28.17-.42l.42.19-.59.23Z"/>
            <path class="cls-19" d="M42.21,38.18c1.16-3.02,2.33-6.03,3.56-9.03,1.22-2.99,2.49-5.97,3.8-8.93.67-1.47,1.33-2.95,2.03-4.41.35-.73.68-1.47,1.05-2.19l1.09-2.17c-.64,1.49-1.29,2.96-1.92,4.45-.64,1.48-1.23,2.99-1.84,4.48-1.21,2.99-2.39,6-3.56,9.02-1.15,3.02-2.31,6.04-3.42,9.07-1.08,2.9-2.14,5.81-3.18,8.72l-.38-.17.24.56c.05-.13.09-.26.14-.38l1.03.48c-.06.14-.11.28-.17.42l.59-.23-.42-.19c1.11-2.63,2.1-5.33,3.1-8.02.52-1.42,1.03-2.84,1.54-4.27l1.52-4.27,6.02-17.13c-.83,2.91-1.73,5.8-2.61,8.7-.9,2.89-1.82,5.78-2.76,8.65-.94,2.88-1.92,5.74-2.92,8.6-1,2.86-2.05,5.7-3.23,8.51l-.18.42-.42-.19-1.83-.84-.37-.17.14-.39c1.09-3.05,2.21-6.08,3.36-9.1Z"/>
          </g>
        </g>
        <g>
          <path class="cls-9" d="M40.83,46.85c4.22,1.57,7.47,3.32,7.26,3.89-.22.58-3.81-.23-8.04-1.8-4.22-1.57-7.47-3.32-7.26-3.89.22-.58,3.81.23,8.04,1.8Z"/>
          <path class="cls-19" d="M32.38,44.89c-.18.48.12,1.03,2.17,2.13,1.39.75,3.29,1.58,5.35,2.34,2.06.77,4.04,1.38,5.58,1.72.91.2,1.55.29,2,.29.67,0,.92-.19,1.03-.48.18-.48-.12-1.03-2.17-2.13-1.39-.74-3.29-1.58-5.35-2.34-2.06-.77-4.04-1.38-5.58-1.72-2.27-.51-2.86-.29-3.03.19ZM33.48,45.3c.99.03,3.62.63,7.2,1.97,3.58,1.33,5.97,2.59,6.73,3.22-.99-.03-3.62-.63-7.2-1.97-3.58-1.33-5.97-2.59-6.73-3.22Z"/>
        </g>
      </g>
      <path class="cls-7" d="M38,46.22c1.79.63,3.18,1.31,3.01,1.75-.17.45-1.65.02-3.42-.64-2.35-.88-3.64-1.99-3.64-1.99,0,0,.79-.28,4.06.88Z"/>
    </g>
  </g>
</svg>