<?xml version="1.0" encoding="UTF-8"?>
<svg id="Layer_1" data-name="Layer 1" xmlns="http://www.w3.org/2000/svg" version="1.1" viewBox="0 0 200 200">
  <defs>
    <style>
      .cls-1 {
        fill: #f3e0d8;
      }

      .cls-1, .cls-2, .cls-3, .cls-4, .cls-5, .cls-6, .cls-7, .cls-8, .cls-9, .cls-10, .cls-11, .cls-12, .cls-13, .cls-14, .cls-15, .cls-16, .cls-17, .cls-18, .cls-19, .cls-20, .cls-21, .cls-22 {
        stroke-width: 0px;
      }

      .cls-2 {
        fill: #fccaa7;
      }

      .cls-3 {
        fill: #f9edee;
      }

      .cls-4 {
        fill: #f4956e;
      }

      .cls-5 {
        fill: #fbe6a9;
      }

      .cls-6 {
        fill: #282728;
      }

      .cls-7 {
        fill: #ccc7ca;
      }

      .cls-8 {
        fill: #887f7c;
      }

      .cls-9 {
        fill: #eb2627;
      }

      .cls-23 {
        opacity: .9;
      }

      .cls-24 {
        opacity: .78;
      }

      .cls-10 {
        fill: #9584ab;
      }

      .cls-11 {
        fill: #bed5ef;
      }

      .cls-12 {
        fill: #442d3e;
      }

      .cls-13 {
        fill: #eaa498;
      }

      .cls-14 {
        fill: #683a57;
      }

      .cls-15 {
        fill: #4e3b6e;
      }

      .cls-16 {
        fill: #785b72;
      }

      .cls-17 {
        fill: #fff;
      }

      .cls-18 {
        fill: #8c2e26;
      }

      .cls-19 {
        fill: #cd1e54;
      }

      .cls-20 {
        fill: #ede81b;
      }

      .cls-21 {
        fill: #695a64;
      }

      .cls-22 {
        fill: #f1749b;
      }
    </style>
  </defs>
  <g class="cls-23">
    <path class="cls-9" d="M54.44,17.31s-8.79,8.61-12.27,18.98c0,0,18.17-29.18,53.09-32.03,0,0-20.18,2.05-33.1,17.64,0,0,7.74-5.25,11.13-5.85-1.27.57-3.81-.29-12.32,14.98,0,0,23.08-24.77,44.43-24.88,0,0-33.53,4.84-49.34,49.81,0,0,10.1-20.56,19-25.34,0,0-19.18,13.23-17.66,73.96,0,0,1.07-7.53,2.42-8.57,0,0-1.71,7.52.54,25.81,0,0-31.52,10.59-44.03,6.38,0,0-9.91-72.16,38.11-110.9Z"/>
    <path class="cls-20" d="M38.39,44.86s12.92-24.78,36.57-34.99c0,0-10.51,4.9-21.2,20.38,0,0,8.47-7.01,11.47-7.91,0,0-5.66,4.97-11.06,20.66,0,0,12.48-18.79,30.48-29.16,0,0-28.37,17.07-34.36,58.68,0,0,11.29-28.51,17.83-33.82,0,0-16.11,22.73-12.55,75.55,0,0,1.4-8.67,2.55-9.76,0,0-.85,5.34.88,16,0,0-27.48,11.83-38.87,9.37,0,0-9.83-58.49,23.27-99.4,0,0-4.56,7.73-5.02,14.4Z"/>
    <path class="cls-17" d="M24.46,112.97c-1.6-10.73.21-25.78.21-25.78-.81,15.45,2.04,35.79,2.04,35.79-2.5-3.92-3.75-6.64-3.75-6.64,1.98,9.65,2.03,12.23,2.03,12.23l-2.97-1.05c-1.92-13.22-1.6-32.37-1.6-32.37.18,15.91,4.03,17.83,4.03,17.83Z"/>
    <path class="cls-17" d="M38.76,82.54s-.41,13.3,1.62,23.05l.63-10s.76,10.51,2.92,17.53c0,0-1.25-13.28.66-23.63,0,0-.72,17.44,3.25,29.95l-2.51-3.28s.14,7.86.74,9.83l-8.04,1.11s-1.35-7.99-1.85-18.83c0,0,2.11,6.22,2.93,9.11,0,0-3.05-19.45-.36-34.84Z"/>
    <path class="cls-17" d="M31.62,127.27l-5.39,1.25s-3.24-37.76,3.88-56.85c0,0-3.49,31.16,1.52,55.59Z"/>
    <path class="cls-17" d="M47.32,66.02c2.81-10.59,7.11-15.22,7.11-15.22-9.24,18.17-5.08,37.04-5.08,37.04-4.57-11.19-3.88,11.54-3.88,11.54-1.01-3.88-1.38-6.43-1.38-6.43-.33-9.59-3.06,2.87-3.06,2.87-1.71-24.94,4.78-37.13,4.78-37.13,1.14,7.91,1.52,7.32,1.52,7.32Z"/>
    <path class="cls-17" d="M36.64,72.39s.97-1.46,2.07-1.33c0,0,.39-4.38,5.06-11.06,0,0-4.05,9.13-4.69,15.38,0,0,1.69-2.68.29,2.47,0,0-3.31,10.52-3.44,19.31,0,0-1.31-13.57.56-20.85,0,0-.71-2.38-3.03.18,0,0,.61-8.23,5.65-13.93,0,0-1.97,5.15-2.47,9.83Z"/>
    <path class="cls-17" d="M50.84,111.36s.74-1.61,1.15-7.18c0,0,1.18,4.18-.75,12.33,0,0-2.36-4.61-2.74-8.29,0,0-.81-7.83,1.08-12.18,0,0,.07,6.5,1.26,15.31Z"/>
    <g>
      <path class="cls-17" d="M33.45,116.02s.01.09.02.13c0,0,0-.04-.02-.13Z"/>
      <path class="cls-17" d="M31.17,94.33c1.35-8.79,5.26-13.53,5.26-13.53-4.46,22.57-3.16,33.88-2.98,35.22-1.97-13.33-.73-19.17-.73-19.17-2.13,5.73-1.99,10.35-1.99,10.35-1.47-13.64.26-26.97.26-26.97-.3,4.7.18,14.11.18,14.11Z"/>
    </g>
  </g>
  <g>
    <g>
      <g>
        <path class="cls-12" d="M73.57,116.73l2.33-.64,1.81.43c2.66,1.14,2.46,7.31,2.46,7.31-1.26,2.67-4.51,2.36-4.51,2.36-.89,2.13-2.88.87-2.88.87-.46,2.48-3.5.86-3.5.86l-1.65-1.18c-1.17-2.25-.52-3.8-.52-3.8l-.6-3.56c2.03-4.31,7.06-2.64,7.06-2.64Z"/>
        <path class="cls-6" d="M65.88,119.29l.6,3.6c-.16.52-.46,2.08.6,4.12l.07.13,1.84,1.31c.14.08,1.15.59,2.19.59.36,0,.71-.06,1.04-.22.3-.15.67-.42.92-.94.42.14.99.23,1.58.05.55-.17.99-.55,1.31-1.13,1.01,0,3.54-.28,4.69-2.72l.05-.11v-.13c.03-.67.13-6.61-2.82-7.88l-.1-.03-1.96-.46-2.31.64c-1.98-.59-5.89-.66-7.62,3.02l-.08.17ZM67.13,119.47c1.82-3.56,6.06-2.22,6.25-2.16l.17.06,2.36-.65,1.6.38c1.78.83,2.09,4.91,2.05,6.58-1.1,2.14-3.83,1.9-3.85,1.9l-.44-.04-.17.41c-.19.45-.44.72-.74.82-.48.15-1.07-.11-1.26-.23l-.75-.46-.16.86c-.11.61-.39.74-.49.79-.62.3-1.72-.14-2.11-.33l-1.5-1.07c-.92-1.87-.44-3.14-.43-3.16l.07-.16-.59-3.54Z"/>
      </g>
      <path class="cls-6" d="M65.88,119.29l.6,3.6c-.16.52-.46,2.08.6,4.12l.07.13,1.84,1.31c.19.1,1.94.99,3.23.37.3-.15.67-.42.92-.94.42.14.99.23,1.58.05.55-.17.99-.55,1.31-1.13,1.01,0,3.54-.28,4.69-2.72l.05-.11v-.13c.03-.67.13-6.61-2.82-7.88l-.1-.03-1.96-.46-2.31.64c-1.98-.59-5.89-.66-7.62,3.02l-.08.17ZM67.13,119.47c1.83-3.57,6.06-2.22,6.24-2.16l.17.06,2.36-.65,1.6.38c1.78.83,2.09,4.9,2.06,6.58-1.1,2.14-3.83,1.91-3.86,1.9l-.45-.04-.17.41c-.19.45-.43.72-.75.82-.57.18-1.25-.22-1.25-.23l-.75-.47-.16.87c-.11.6-.39.74-.49.78-.62.3-1.72-.14-2.11-.33l-1.5-1.07c-.92-1.87-.45-3.11-.43-3.16l.06-.16-.03-.17-.56-3.37Z"/>
    </g>
    <g>
      <rect class="cls-10" x="63.68" y="120.59" width="20.8" height="5.75" transform="translate(-17.92 12.71) rotate(-8.75)"/>
      <path class="cls-21" d="M84.42,118.35l-21.75,3.35,1.06,6.87,21.75-3.35-1.06-6.87ZM84.1,124.22l-19.36,2.98-.69-4.48,19.36-2.98.69,4.48Z"/>
    </g>
    <g>
      <g>
        <path class="cls-10" d="M87.41,120.77c1.03,6.54-3.41,6.85-3.41,6.85-3.12-5.38-1.85-12-1.85-12,4.44-.13,5.25,5.15,5.25,5.15Z"/>
        <path class="cls-21" d="M81.56,115.5c-.05.28-1.28,6.9,1.92,12.42l.19.33.38-.03c.07,0,1.74-.14,2.94-1.65,1.08-1.36,1.42-3.34,1.02-5.9-.31-2.01-1.93-5.78-5.87-5.66h-.48s-.09.49-.09.49ZM82.67,116.23c3.43.28,4.11,4.44,4.14,4.63.35,2.21.09,3.88-.77,4.96-.57.72-1.3,1.01-1.72,1.12-2.26-4.21-1.85-9.14-1.65-10.71Z"/>
      </g>
      <path class="cls-7" d="M85.12,123.78c1.68-.24,1.85-3.08,1.85-3.08,1.22,4.93-2.78,5.57-2.78,5.57-1.33-1.88-1.55-3.31-1.55-3.31-.23-1.9.02-3.46.02-3.46.58,3.35,2.47,4.27,2.47,4.27Z"/>
      <path class="cls-17" d="M84.72,125.83c2.42-.94,2.54-4.18,2.54-4.18.7,4.52-2.95,5.56-2.95,5.56-1.13-1.47-1.43-3.37-1.43-3.37.79,2.08,1.85,2,1.85,2Z"/>
    </g>
    <g>
      <path class="cls-14" d="M73.62,119.66c-.14-.12-.28-.24-.42-.39l.52-.12c-.02.17-.05.34-.1.51Z"/>
      <path class="cls-6" d="M71.26,120.1c.12.01.24.03.36.02.24,0,.47-.03.68-.1.21-.07.38-.19.53-.35.16-.16.24-.38.32-.62l.22-.62.3.5c.12.19.28.39.45.57.17.18.36.34.57.47.21.13.44.22.69.28.25.06.5.04.76,0-.24.09-.51.16-.78.15-.27,0-.54-.06-.8-.16-.26-.1-.5-.24-.72-.4-.07-.05-.15-.11-.22-.17.05-.17.08-.35.1-.51l-.52.12c.14.15.27.28.42.39-.04.15-.1.29-.19.43-.17.3-.44.56-.74.73-.3.17-.63.28-.95.34-.16.03-.33.05-.49.06-.17,0-.31.02-.52,0l.21-1.19c.08.02.22.05.33.06Z"/>
    </g>
    <g>
      <path class="cls-12" d="M71.39,123.95c-1.11,2.58,1.58,3.94,1.58,3.94-1.33,2.5-4.28.6-4.28.6l-.79-.64c-1.73-1.74-.33-4.99-.33-4.99.38,3.17,3.81,1.09,3.81,1.09Z"/>
      <path class="cls-6" d="M67.02,122.62c-.06.15-1.54,3.65.46,5.66l.05.04.84.68c.07.04,1.74,1.1,3.32.69.78-.2,1.39-.71,1.82-1.51l.29-.54-.55-.28c-.23-.12-2.16-1.19-1.3-3.17l.75-1.74-1.62.98c-.38.23-1.64.82-2.32.48-.31-.15-.51-.53-.58-1.13l-.27-2.23-.89,2.06ZM67.71,124.64c.15.15.32.27.52.36.74.36,1.6.23,2.29,0-.07,1.41.79,2.47,1.6,3.07-.21.23-.45.37-.73.45-.98.26-2.16-.41-2.34-.52l-.73-.59c-.72-.74-.74-1.86-.6-2.77Z"/>
    </g>
    <g>
      <g>
        <path class="cls-12" d="M74.32,121.43c1.6-.1,1.4,2.69,1.4,2.69-.31,2.96,1.26,2.72,1.26,2.72-1.55,2.74-3.79,1.15-3.79,1.15-2.92-1.95-1.94-3.75-1.94-3.75.43-1.88,3.07-2.81,3.07-2.81Z"/>
        <path class="cls-6" d="M70.67,124.04c-.19.45-.82,2.44,2.18,4.45.03.02.8.56,1.83.56.19,0,.4-.02.6-.07.89-.2,1.64-.82,2.22-1.85l.61-1.08-1.22.18s-.15,0-.29-.14c-.13-.14-.42-.59-.28-1.93.02-.22.12-2-.74-2.87-.34-.35-.79-.51-1.29-.48h-.08s-.08.03-.08.03c-.12.04-2.91,1.05-3.45,3.18ZM71.78,124.52l.03-.06.02-.08c.28-1.22,1.89-2.07,2.6-2.34.15,0,.22.07.28.12.38.38.43,1.46.4,1.92-.14,1.37.08,2.36.66,2.92.08.07.15.13.23.18-.3.34-.62.55-.98.63-.78.18-1.49-.31-1.49-.31-2.39-1.59-1.78-2.92-1.75-2.98Z"/>
      </g>
      <path class="cls-6" d="M70.67,124.04c-.19.45-.82,2.44,2.18,4.45.13.09,1.18.78,2.43.5.89-.2,1.64-.82,2.22-1.85l.61-1.08-1.22.18h0s-.15,0-.28-.14c-.13-.13-.42-.59-.28-1.93.02-.22.12-2-.74-2.87-.34-.35-.79-.51-1.29-.48h-.08s-.08.03-.08.03c-.12.04-2.91,1.05-3.45,3.18ZM71.78,124.52l.03-.06.02-.08c.28-1.21,1.89-2.07,2.6-2.34.15,0,.22.07.28.12.38.38.44,1.46.4,1.92-.01.13-.02.26-.03.38-.07,1.17.17,2.03.69,2.54.08.07.15.13.23.18-.3.34-.63.55-.99.63-.77.17-1.47-.31-1.48-.31h-.02c-2.38-1.6-1.77-2.92-1.74-2.98Z"/>
      <polygon class="cls-14" points="76.89 126.25 76.89 126.25 76.89 126.25 76.89 126.25"/>
    </g>
    <g>
      <g>
        <path class="cls-12" d="M78.76,120.86c1.84.58,1.71,4.67,1.71,4.67-1.26,1.79-3.19,1.61-3.19,1.61-1.36-.41-1.8-2.15-1.8-2.15.22-4.86,3.28-4.13,3.28-4.13Z"/>
        <path class="cls-6" d="M74.88,124.96v.09s.02.09.02.09c.02.08.55,2.08,2.21,2.58l.12.02s.09,0,.2,0c.59,0,2.33-.16,3.54-1.87l.1-.15v-.18c.02-.46.08-4.56-2.13-5.26h-.04c-.05-.02-1.26-.3-2.37.53-1.01.76-1.57,2.16-1.66,4.15ZM76.09,124.92c.08-1.54.49-2.62,1.17-3.14.59-.44,1.23-.36,1.34-.34.99.35,1.28,2.64,1.27,3.88-.93,1.19-2.2,1.22-2.48,1.22-.83-.29-1.21-1.33-1.3-1.62Z"/>
      </g>
      <path class="cls-6" d="M74.88,124.96v.09s.02.09.02.09c.02.08.55,2.08,2.21,2.58l.12.02c.09,0,2.29.19,3.74-1.86l.1-.15v-.18c.02-.46.09-4.56-2.13-5.26h-.04c-.05-.02-1.26-.3-2.37.53-1.01.76-1.57,2.16-1.66,4.15ZM76.09,124.92s0-.02,0-.04c.09-1.51.48-2.57,1.15-3.09.59-.45,1.23-.37,1.36-.35.99.35,1.27,2.64,1.27,3.88-.93,1.19-2.2,1.22-2.48,1.22-.82-.29-1.21-1.33-1.3-1.62Z"/>
    </g>
    <g>
      <path class="cls-16" d="M77.94,124.66c1-.12,1.48.88,1.48.88-.07,1.09-1.84,1.51-1.84,1.51-1.32.2-1.58-1.56-1.58-1.56-.26-1.64.64-2.86.64-2.86,2.11-.9,1.3,2.03,1.3,2.03Z"/>
      <path class="cls-6" d="M77.17,124.43c.27,0,.53-.03.8-.08.26-.05.52-.12.74-.29-.14.25-.38.43-.63.58-.25.15-.51.27-.77.38-.26.11-.53.21-.81.3-.27.09-.54.17-.83.25l-.08-1.21c.25.03.52.05.79.06.27.01.53.01.8,0Z"/>
    </g>
    <g>
      <path class="cls-16" d="M73.76,125.42c.97-.26,1.83,1.54,1.83,1.54.08,1.09-.6.85-.6.85-1.28.39-2.74-1.37-2.74-1.37-1.03-1.64.22-2.93.22-2.93,1.96-1.19,1.29,1.9,1.29,1.9Z"/>
      <path class="cls-6" d="M73.25,125.22c.26-.05.52-.11.78-.19.25-.09.5-.19.69-.4-.1.26-.32.48-.54.66-.22.18-.46.34-.71.49-.25.15-.5.28-.75.41-.26.13-.51.25-.79.36l-.26-1.18c.25,0,.53-.03.79-.05.27-.03.53-.06.8-.11Z"/>
    </g>
    <g>
      <path class="cls-16" d="M69.97,126.47c.97-.26,1.83,1.54,1.83,1.54-.34.74-.97.64-.97.64-1.28.39-2.74-1.37-2.74-1.37-.5-1.58-.28-2.47-.28-2.47,1.95-1.2,2.16,1.66,2.16,1.66Z"/>
      <path class="cls-6" d="M69.18,126.35c.26-.05.52-.11.78-.19.25-.09.5-.19.69-.4-.1.26-.32.48-.54.66-.22.18-.46.34-.71.49-.25.15-.5.28-.75.41-.26.13-.51.25-.79.36l-.26-1.18c.25,0,.53-.02.79-.05.27-.03.53-.06.8-.11Z"/>
    </g>
    <g>
      <g>
        <path class="cls-12" d="M67.91,117.61l2.01,3.11c3.75.83,3.01,2.64,3.01,2.64-.34,1.15-2.12,1.01-2.12,1.01-4.49,1.02-4.31-1.01-4.31-1.01l-.35-1.17c-.29-3.29,1.76-4.58,1.76-4.58Z"/>
        <path class="cls-6" d="M67.59,117.1l.65,1.02c-.07.05-1.71,1.15-1.49,3.96l.37,1.22v.12s0,.16.17.31c.23.2,1.01.6,3.4.06l.09-.02h.09s1.3.07,1.49-.57v-.04s.1-.25-.08-.56c-.18-.31-.73-.89-2.48-1.28l.26-1.18c1.72.38,2.84,1.03,3.31,1.92.21.4.25.77.23,1.04-.01.22-.06.38-.09.45-.37,1.22-1.79,1.47-2.64,1.43-2.1.47-3.57.35-4.37-.34-.49-.43-.58-.93-.59-1.18l-.33-1.09-.02-.12c-.32-3.62,1.94-5.09,2.04-5.15Z"/>
      </g>
      <path class="cls-16" d="M68.76,121.71c3.79-.17,2.69,1.87,2.69,1.87-1.51.82-3.91.42-3.91.42-.27-2.51,1.22-2.3,1.22-2.3Z"/>
    </g>
    <g>
      <g>
        <g>
          <g>
            <path class="cls-10" d="M8.7,130.23c13.85-4.78,53.91-10.59,53.91-10.59l.73,4.75.03.23.73,4.75s-39.95,6.51-54.6,6.11c0,0-4.76-.43-5.88-1.66l-.03-.23c.7-1.52,5.11-3.35,5.11-3.35Z"/>
            <path class="cls-21" d="M3.04,133.33l-.08.16.09.59.12.14c1.22,1.34,5.44,1.78,6.28,1.86h.04c.43.01.88.02,1.35.02,15.49,0,52.98-6.08,53.37-6.14l.59-.1-1.68-10.9-.59.09c-.4.06-40.28,5.87-54.02,10.62h-.04c-.77.34-4.67,2.03-5.43,3.67ZM4.29,133.59c.73-.93,3.14-2.17,4.62-2.8,12.74-4.39,48.16-9.73,53.19-10.47l1.31,8.53c-5.02.8-40.41,6.37-53.88,6.01-1.61-.15-4.28-.61-5.25-1.28Z"/>
          </g>
          <path class="cls-7" d="M59.99,128.48c-43.81,7.34-55.66,5.22-55.66,5.22,17.51-6.87,60.09-9.4,60.09-9.4,2.43,6.64-4.43,4.18-4.43,4.18Z"/>
          <path class="cls-17" d="M10.36,133.52c12.91-.23,44.64-5.88,52.78-7.36l.42,2.76s-39.05,6.36-53.36,5.98c0,0-4.59-.02-5.69-1.23,0,0-.17-.11-.13-.18,1.1.2,5.98.03,5.98.03Z"/>
          <path class="cls-17" d="M60.8,123.69c-11.12,1.53-35.71,6.14-35.71,6.14,13.28-5.79,30.46-7.27,30.46-7.27,4.8-.22,5.25,1.13,5.25,1.13Z"/>
          <g>
            <path class="cls-21" d="M64.08,126.03l-.04-.56c.18-.03.36-.06.54-.09l-.5.64Z"/>
            <path class="cls-21" d="M25.86,131.13c4.32-.54,8.63-1.13,12.93-1.74,4.3-.63,8.61-1.25,12.91-1.93,4.12-.63,8.23-1.29,12.34-1.99l.04.56.5-.64c-.18.03-.36.06-.54.09l-.12-1.53c.2-.02.41-.06.61-.08l-.66-.55.05.63c-3.82.43-7.64,1.02-11.46,1.62-2.01.32-4.02.65-6.03.99l-6.03,1.02-24.09,4.17c3.97-.93,7.96-1.77,11.94-2.63,3.99-.84,7.98-1.66,11.99-2.43,4-.79,8.01-1.51,12.03-2.21,4.02-.7,8.05-1.33,12.13-1.79l.61-.07.05.62.22,2.71.05.55-.54.09c-4.3.72-8.6,1.39-12.91,2.02-4.31.61-8.63,1.22-12.95,1.73-4.32.53-8.66.99-12.99,1.39-2.17.17-4.34.37-6.52.5-1.09.07-2.17.16-3.26.21l-3.26.14c2.17-.22,4.33-.42,6.5-.67,2.16-.22,4.32-.51,6.48-.77Z"/>
            <path class="cls-21" d="M64.52,123.87c-.2.02-.41.06-.61.08l-.05-.63.66.55Z"/>
          </g>
        </g>
        <g>
          <path class="cls-10" d="M65.94,124.06c.92,6,1.01,10.96.18,11.09-.82.13-2.24-4.63-3.16-10.63-.92-6-1.01-10.96-.18-11.09.82-.13,2.24,4.63,3.16,10.63Z"/>
          <path class="cls-21" d="M61.61,116.78c.04,2.12.3,4.9.75,7.83.45,2.93,1.03,5.66,1.64,7.69.83,2.78,1.44,3.46,2.06,3.46.05,0,.1,0,.15-.01.68-.11,1.13-.82,1.08-3.95-.04-2.12-.3-4.9-.75-7.83-.45-2.93-1.03-5.66-1.64-7.69-.89-3-1.53-3.55-2.21-3.44-.68.1-1.13.82-1.08,3.95ZM62.93,114.4c.62,1.18,1.63,4.67,2.41,9.76.78,5.09.87,8.72.63,10.03-.62-1.18-1.63-4.67-2.41-9.76-.78-5.09-.87-8.72-.63-10.03Z"/>
        </g>
      </g>
      <path class="cls-7" d="M64.17,123.57c.63-.1,1.11,1.92,1.49,4.45.51,3.34.05,5.59.05,5.59,0,0-.84-.74-1.63-5.34-.43-2.52-.55-4.59.09-4.69Z"/>
    </g>
  </g>
  <g>
    <g>
      <path class="cls-21" d="M105.4,119.5c2.4-2.98,5.54-4.32,8.18-2.77,2.64,1.55,3.53,4.98,1.99,7.62l-1.38,2.36c-1.55,2.64-4.98,3.54-7.62,1.99l-.5.36c-2.64-1.55-3.15-6.01-1.6-8.65l.92-.9Z"/>
      <path class="cls-15" d="M103.96,120.09c-1.66,2.83-1.22,7.69,1.81,9.48l.34.2.51-.36c.86.43,1.8.65,2.75.65.53,0,1.05-.07,1.58-.2,1.6-.42,2.94-1.43,3.77-2.84l1.38-2.36c1.72-2.93.73-6.72-2.2-8.44-2.77-1.62-6.19-.52-8.94,2.88l-.95.93-.04.07ZM104.96,120.77l.91-.89c1.67-2.08,3.59-3.19,5.35-3.19.72,0,1.41.18,2.05.56,2.36,1.38,3.15,4.43,1.77,6.79l-1.38,2.36c-.67,1.14-1.74,1.95-3.03,2.29-1.29.34-2.62.15-3.76-.51l-.34-.2-.48.34c-2.04-1.54-2.34-5.34-1.1-7.54Z"/>
    </g>
    <path class="cls-15" d="M103.76,120.47c-1.66,2.84-1.04,7.32,2,9.1l.34.2.51-.36c1.34.67,2.86.83,4.33.45,1.31-.34,2.45-1.08,3.27-2.12.18-.23.35-.47.5-.72l1.38-2.36c.83-1.42,1.06-3.08.64-4.68-.42-1.6-1.43-2.94-2.85-3.77-2.77-1.62-6.2-.52-8.95,2.89l-1.14,1.32-.04.07ZM104.96,120.78l.91-.9c2.35-2.92,5.18-3.93,7.4-2.63,1.14.67,1.95,1.74,2.28,3.03.34,1.28.15,2.62-.51,3.75l-1.38,2.36c-1.38,2.36-4.42,3.15-6.78,1.77l-.34-.2-.48.34c-.89-.68-1.52-1.84-1.75-3.27-.24-1.51,0-3.1.66-4.26Z"/>
    <g>
      <path class="cls-12" d="M114.29,122.72l3.31,8.23s1.13,2.93,2.59,5.5c0,0,1.47,2.03-.17,3.07,0,0-7.98,3-8.47,3.17,0,0-1.63.6-2.28.36,0,0-1.68-1.28,1.45-5.2l.77-1.27-6.39-9.75,9.19-4.1Z"/>
      <path class="cls-6" d="M104.21,126.56l6.57,10.02-.56.91c-1.47,1.86-2.14,3.44-1.98,4.69.11.87.57,1.27.67,1.34l.07.06.09.03c.17.06.38.09.6.09.79,0,1.76-.33,2.1-.45.48-.16,8.15-3.05,8.48-3.17l.11-.06c.55-.35.9-.84,1.01-1.43.22-1.14-.5-2.25-.66-2.47-1.42-2.49-2.53-5.36-2.54-5.39h0s-3.54-8.82-3.54-8.82l-10.41,4.65ZM112.21,136.56l-6.21-9.48,7.97-3.56,3.07,7.64c.07.17,1.18,3.02,2.63,5.57l.03.05c.17.24.58.98.47,1.57-.05.24-.18.44-.42.6-2.77,1.04-8.01,3.01-8.39,3.14-.67.24-1.44.4-1.77.38-.18-.28-.64-1.46,1.61-4.27l.04-.06.97-1.59Z"/>
    </g>
    <path class="cls-16" d="M112.17,137.49s3.42-1.94,5.76.79c0,0,1.13,1.27-7.07,3.66,0,0-1.81.47-1.56-.41,0,0,1.19-3.53,2.86-4.04Z"/>
    <g>
      <path class="cls-12" d="M109.58,140.71h11.52c.5,0,.91.41.91.91v.37c0,.5-.41.91-.91.91h-11.52c-.5,0-.91-.41-.91-.91v-.37c0-.5.41-.91.91-.91Z" transform="translate(-39.7 44.98) rotate(-18.89)"/>
      <path class="cls-6" d="M108.4,143.99l.12.36c.22.63.8,1.02,1.43,1.02.16,0,.33-.03.49-.08l10.9-3.73c.38-.13.69-.4.87-.77s.2-.77.07-1.16l-.12-.35c-.13-.38-.4-.69-.77-.87-.36-.18-.77-.2-1.16-.07l-10.9,3.73c-.79.27-1.21,1.13-.94,1.92ZM109.55,143.6c-.05-.16.03-.33.19-.39l10.9-3.73s.07-.02.1-.02c.06,0,.11.02.14.03.04.02.12.07.15.17l.12.35c.03.1,0,.19-.02.23-.02.04-.07.12-.17.16l-10.9,3.73c-.16.05-.33-.03-.39-.19l-.12-.35Z"/>
    </g>
    <g>
      <path class="cls-21" d="M112.4,120.54c3.53-.87,6.38,10.81,6.38,10.81-1.95,2.86-6.66,4.03-6.66,4.03-1.35.68-2.71.12-2.71.12-6.27-7.74-5.47-10-5.47-10,1.76-4.48,8.46-4.97,8.46-4.97Z"/>
      <path class="cls-15" d="M103.38,125.28c-.16.45-.61,2.98,5.56,10.6l.1.12.14.06s.65.26,1.48.26c.5,0,1.09-.09,1.68-.37.62-.16,5-1.39,6.95-4.26l.15-.22-.06-.26c-.23-.93-2.3-9.12-5.31-10.94-.58-.35-1.17-.46-1.75-.33-.68.06-7.11.72-8.93,5.34ZM104.53,125.68c1.61-4.03,7.86-4.54,7.92-4.54l.1-.02c.28-.07.57-.01.89.18,2.11,1.28,4.04,7.35,4.69,9.92-1.88,2.48-6.1,3.55-6.15,3.56l-.07.02-.06.03c-.86.43-1.75.24-2.08.15-5.43-6.75-5.27-9.11-5.25-9.3ZM104.52,125.7s0,0,0,0c0,0,0,0,0,0Z"/>
    </g>
    <g>
      <g>
        <path class="cls-10" d="M112.54,136.3c1.38.88.74,1.68.74,1.68-1.18,1.64-1.55,1.99-1.55,1.99-.77,1.18-2.57-.85-2.57-.85.52-1.24,2.11-3.31,2.11-3.31.32-.47,1.28.48,1.28.48Z"/>
        <path class="cls-21" d="M108.88,139.01l-.07.18.13.14c.12.14,1.2,1.32,2.15,1.32.03,0,.05,0,.08,0,.32-.02.6-.19.8-.48.11-.11.54-.58,1.56-2,.02-.02.27-.36.19-.85-.07-.45-.41-.88-.98-1.25-.2-.2-.8-.72-1.29-.67-.18.02-.33.11-.43.25-.11.15-1.62,2.13-2.14,3.37ZM109.51,139.06c.57-1.21,1.97-3.04,1.99-3.06v-.02s.02,0,.03,0c.13,0,.52.25.8.53l.05.04c.44.28.69.58.74.86.04.23-.08.38-.08.38-1.14,1.58-1.52,1.96-1.52,1.96l-.04.05c-.13.19-.26.22-.36.23-.51.04-1.25-.61-1.61-.97Z"/>
      </g>
      <g>
        <path class="cls-12" d="M111.51,137.04c.57.37.31.7.31.7-.49.68-.64.83-.64.83-.32.49-1.07-.35-1.07-.35.22-.52.87-1.37.87-1.37.13-.19.53.2.53.2Z"/>
        <path class="cls-6" d="M109.82,138.1l-.07.18.13.14c.09.1.56.61,1.03.61.02,0,.03,0,.05,0,.18-.01.34-.11.45-.26.07-.07.25-.28.66-.84.02-.02.16-.21.11-.48-.04-.24-.2-.45-.47-.63-.13-.12-.4-.34-.66-.32-.12.01-.23.07-.3.17-.06.08-.69.91-.91,1.43ZM110.46,138.15c.18-.34.49-.78.67-1.02.05.03.11.08.16.13l.05.04c.16.1.22.19.23.24h0s0,.03,0,.03c-.45.63-.6.78-.61.78l-.04.05c-.08.03-.28-.09-.45-.25Z"/>
      </g>
    </g>
    <path class="cls-21" d="M108.18,119.08c2.76-1.41,5.81-1.03,6.77.84l.88,3.16c1.96,6.3-1.5,7.33-3.06,6.29l.05-1.08c-2.76,1.41-5.76,2.37-6.71.5l-1.58-2.01c-.96-1.88.88-6.29,3.65-7.7Z"/>
    <path class="cls-8" d="M105.59,120.51c.69-1.49,2.83-2.5,4.32-1.81,1.49.69,2.15,2.47,1.46,3.96l-1.55,3.38c-.69,1.49-1.21,2.99-2.71,2.31l-.86.3c-1.49-.69-3.17-4.33-1.12-7.69l.45-.44Z"/>
    <path class="cls-8" d="M111.69,124.04c2.5-.62,4.53,7.67,4.53,7.67-1.38,2.03-4.72,2.85-4.72,2.85-.96.48-1.92.09-1.92.09-4.44-5.49-3.88-7.09-3.88-7.09,1.25-3.18,6-3.52,6-3.52Z"/>
  </g>
  <g>
    <g>
      <path class="cls-21" d="M89.91,116.55c2.98-2.4,6.33-3.04,8.59-.96,2.25,2.07,2.39,5.61.32,7.87l-1.85,2.01c-2.08,2.25-5.61,2.4-7.87.32l-.56.24c-2.25-2.07-1.8-6.54.28-8.79l1.09-.68Z"/>
      <path class="cls-15" d="M88.38,116.82c-1.1,1.19-1.82,3-1.92,4.84-.11,1.97.5,3.72,1.68,4.81l.29.27.57-.25c1.1.89,2.45,1.37,3.87,1.37.09,0,.17,0,.26,0,1.65-.07,3.17-.77,4.29-1.98l1.85-2.01c2.31-2.5,2.15-6.41-.35-8.72-2.36-2.17-5.94-1.82-9.35.92l-1.13.71-.06.06ZM87.66,121.73c.09-1.53.66-3.03,1.55-4.03l1.08-.68c1.7-1.37,3.43-2.07,4.95-2.07,1.08,0,2.06.36,2.85,1.08,2.01,1.85,2.14,5,.28,7.01l-1.85,2.01c-.89.97-2.12,1.53-3.45,1.59-1.33.06-2.59-.41-3.56-1.3l-.29-.27-.54.23c-.73-.85-1.1-2.13-1.02-3.57Z"/>
    </g>
    <path class="cls-15" d="M88.11,117.16c-2.23,2.42-2.57,6.93.02,9.32l.29.27.57-.25c1.16.94,2.62,1.42,4.13,1.36,1.36-.06,2.62-.54,3.65-1.38.23-.18.44-.38.64-.6l1.85-2.01c1.11-1.21,1.69-2.79,1.62-4.44-.07-1.65-.77-3.18-1.98-4.29-2.36-2.18-5.94-1.82-9.35.91l-1.4,1.04-.06.06ZM87.67,121.73c.08-1.53.66-3.03,1.55-4.02l1.08-.68c2.91-2.35,5.9-2.73,7.79-.99.97.89,1.53,2.11,1.59,3.44.05,1.33-.41,2.59-1.3,3.56l-1.85,2.01c-1.85,2.01-4.99,2.14-7,.28l-.29-.27-.54.23c-.73-.85-1.1-2.13-1.02-3.57Z"/>
    <g>
      <path class="cls-12" d="M97.92,121.6l1.48,8.74s.48,3.1,1.36,5.92c0,0,1,2.3-.82,2.96,0,0-8.44,1.23-8.95,1.29,0,0-1.72.23-2.31-.13,0,0-1.37-1.6,2.52-4.77l1.03-1.07-4.17-10.89,9.85-2.05Z"/>
      <path class="cls-6" d="M87.24,123.2l4.29,11.19-.74.77c-1.84,1.5-2.82,2.9-2.94,4.16-.08.87.29,1.36.37,1.45l.06.07.08.05c.38.24.98.3,1.54.3.5,0,.96-.05,1.17-.08.51-.06,8.61-1.24,8.96-1.29l.12-.03c.61-.22,1.06-.63,1.29-1.18.46-1.06-.01-2.3-.12-2.56-.85-2.74-1.33-5.77-1.34-5.81h0s-1.58-9.37-1.58-9.37l-11.16,2.32ZM92.93,134.67l-4.05-10.58,8.54-1.78,1.37,8.12c.03.18.51,3.2,1.38,6.01l.02.06c.11.27.36,1.09.13,1.63-.1.23-.27.39-.54.5-2.93.43-8.47,1.23-8.87,1.28-.72.1-1.49.09-1.81,0-.11-.31-.32-1.56,2.48-3.84l.06-.05,1.29-1.35Z"/>
    </g>
    <path class="cls-16" d="M92.7,135.57s3.75-1.16,5.46,2c0,0,.84,1.48-7.69,2.07,0,0-1.87.07-1.44-.73,0,0,1.91-3.19,3.66-3.34Z"/>
    <g>
      <path class="cls-12" d="M89.03,140.04l11.44-1.32c.5-.06.95.3,1.01.8l.04.37c.06.5-.3.95-.8,1.01l-11.44,1.32c-.5.06-.95-.3-1.01-.8l-.04-.37c-.06-.5.3-.95.8-1.01Z"/>
      <path class="cls-6" d="M87.95,140.01c-.25.32-.37.71-.32,1.11l.04.37c.09.77.75,1.34,1.5,1.34.06,0,.12,0,.18-.01l11.44-1.32c.83-.1,1.43-.85,1.33-1.68l-.04-.37c-.05-.4-.25-.76-.56-1.01s-.71-.37-1.11-.32l-11.44,1.32c-.4.05-.76.25-1.01.56ZM88.83,140.98c-.01-.11.04-.19.07-.23.03-.04.1-.1.2-.11l11.44-1.32s.02,0,.04,0c.09,0,.16.04.19.07.04.03.1.09.11.2l.04.37c.02.17-.1.32-.27.34l-11.44,1.32c-.17.02-.32-.1-.34-.27l-.04-.37Z"/>
    </g>
    <g>
      <path class="cls-21" d="M96.54,119.06c3.63-.1,3.93,11.93,3.93,11.93-2.51,2.38-7.36,2.52-7.36,2.52-1.47.38-2.68-.46-2.68-.46-4.47-8.9-3.21-10.93-3.21-10.93,2.68-4,9.32-3.05,9.32-3.05Z"/>
      <path class="cls-15" d="M86.71,121.77c-.25.41-1.23,2.79,3.17,11.54l.07.14.13.09s.98.66,2.24.66c.27,0,.56-.03.86-.1.63-.03,5.18-.29,7.69-2.68l.19-.19v-.27c-.03-.96-.31-9.4-2.86-11.82-.49-.47-1.04-.69-1.64-.7-.68-.09-7.1-.81-9.86,3.32ZM87.73,122.43c2.42-3.62,8.66-2.78,8.72-2.77h.05s.05,0,.05,0c.3-.01.56.11.83.37,1.79,1.7,2.38,8.04,2.47,10.69-2.37,2.02-6.72,2.17-6.77,2.17l-.13.02c-.93.24-1.76-.13-2.07-.3-3.98-7.96-3.17-10.17-3.16-10.19Z"/>
    </g>
    <g>
      <g>
        <path class="cls-10" d="M92.17,133.74c.41-.39,1.15.75,1.15.75,1.16,1.16.36,1.8.36,1.8-1.5,1.35-1.94,1.61-1.94,1.61-1.01.99-2.33-1.38-2.33-1.38.78-1.1,2.76-2.78,2.76-2.78Z"/>
        <path class="cls-21" d="M89.16,136.35l-.11.16.09.17c.09.17.94,1.62,1.9,1.76.05,0,.1.01.15.01.27,0,.52-.1.73-.3.13-.08.65-.45,1.95-1.62.02-.02.34-.29.37-.79.02-.46-.21-.94-.7-1.43-.16-.24-.63-.88-1.12-.93-.18-.02-.34.03-.47.15-.14.12-2.03,1.73-2.81,2.83ZM89.77,136.54c.81-1.06,2.58-2.55,2.6-2.57h.02c.11-.01.45.33.68.68l.04.05c.37.37.56.71.54.99-.01.23-.16.36-.16.36-1.45,1.3-1.9,1.59-1.91,1.59l-.05.04c-.17.16-.3.16-.4.15-.5-.07-1.09-.86-1.36-1.29Z"/>
      </g>
      <g>
        <path class="cls-12" d="M91.67,134.68c.17-.16.48.31.48.31.48.48.15.75.15.75-.62.56-.8.67-.8.67-.42.41-.97-.57-.97-.57.32-.46,1.15-1.16,1.15-1.16Z"/>
        <path class="cls-6" d="M90.27,135.67l-.11.16.09.17c.07.12.44.75.92.82.03,0,.06,0,.09,0,.15,0,.29-.06.41-.16.08-.05.31-.22.82-.68.02-.02.2-.17.21-.45.01-.24-.1-.48-.33-.72-.1-.14-.32-.42-.58-.45-.12-.01-.24.02-.33.11-.08.07-.86.74-1.19,1.21ZM90.89,135.86c.25-.29.65-.66.87-.86.04.05.1.11.13.16l.04.05c.13.13.18.23.17.28h0s0,.03,0,.03c-.57.52-.75.63-.76.64l-.05.04c-.08,0-.25-.15-.39-.34Z"/>
      </g>
    </g>
    <path class="cls-21" d="M92.72,116.74c3-.79,5.9.23,6.43,2.26l.19,3.27c.58,6.57-3.03,6.84-4.32,5.49l.28-1.04c-3,.79-6.13,1.09-6.67-.94l-1.12-2.3c-.54-2.04,2.2-5.96,5.21-6.75Z"/>
    <path class="cls-8" d="M89.89,117.58c.99-1.31,3.29-1.84,4.61-.85,1.31.99,1.58,2.87.59,4.18l-2.24,2.97c-.99,1.31-1.82,2.67-3.13,1.68l-.9.11c-1.31-.99-2.18-4.91.55-7.75l.53-.34Z"/>
    <path class="cls-8" d="M95.09,122.33c2.57-.07,2.79,8.46,2.79,8.46-1.78,1.69-5.22,1.78-5.22,1.78-1.04.27-1.9-.32-1.9-.32-3.17-6.31-2.28-7.75-2.28-7.75,1.9-2.84,6.61-2.16,6.61-2.16Z"/>
  </g>
  <g>
    <g>
      <path class="cls-10" d="M95.74,92.84c13.49,1.77,20.43-2.07,20.43-2.07,2.27-2.13,1.92.08,1.92.08-3.34,2.83-3.64,7.04-3.64,7.04-.19,1.9-2.79,2.39-2.79,2.39-9.82,2.02-19.28.45-19.28.45,1.03-5.92,3.36-7.89,3.36-7.89Z"/>
      <path class="cls-21" d="M91.78,100.63l-.1.6.6.1c.06,0,3.61.59,8.59.59,3.23,0,7.05-.24,10.91-1.04.12-.02,3.03-.61,3.27-2.92,0-.06.34-4.02,3.43-6.64l.17-.14.04-.22c.03-.2.15-1.22-.56-1.59-.73-.39-1.61.27-2.31.92-.71.36-7.55,3.6-20,1.97l-.27-.03-.2.17c-.1.09-2.51,2.19-3.57,8.25ZM93.09,100.23c.84-4.22,2.36-6.18,2.87-6.75,13.34,1.68,20.22-2.02,20.5-2.18l.07-.04.06-.05c.47-.44.76-.63.92-.71,0,.02,0,.03,0,.05-3.31,2.95-3.65,7.11-3.66,7.29-.14,1.4-2.28,1.84-2.3,1.84-8.2,1.69-16.22.83-18.45.53Z"/>
    </g>
    <path class="cls-7" d="M111.56,93.56c-2.16,9.62-17.52,6.03-17.52,6.03.36-3.36,1.82-5.55,1.82-5.55,8.87.85,15.7-.49,15.7-.49Z"/>
  </g>
  <g>
    <g>
      <g>
        <path class="cls-19" d="M112.36,88.16c19.85,10.22,24.45,31.91,24.45,31.91-3.36,2.47-7.67,3.7-7.67,3.7-16.77,6.9-36.89,3.7-36.89,3.7l.41-2.16c-6.35.83-12.5-2.44-12.5-2.44,8.26-15.61,10.98-30.69,10.98-30.69l21.22-4.03Z"/>
        <path class="cls-14" d="M79.63,122.6l-.28.53.53.28c.25.13,5.88,3.09,12.04,2.59l-.38,1.97.62.1c.1.02,4.75.73,11.41.73,7.31,0,17.02-.86,25.78-4.46.45-.13,4.54-1.36,7.83-3.79l.31-.23-.08-.38c-.05-.22-1.21-5.59-4.84-12.29-3.35-6.19-9.53-14.69-19.92-20.04l-.19-.1-.2.04-21.63,4.11-.07.41c-.03.15-2.8,15.17-10.92,30.51ZM80.99,122.61c7.24-13.9,10.17-27.4,10.67-29.9l20.61-3.91c17.78,9.26,23.13,28.11,23.86,31.02-3.18,2.23-7.11,3.36-7.16,3.38l-.06.02c-14.78,6.08-32.44,4.2-35.94,3.75l.45-2.35-.83.11c-5.03.66-9.99-1.37-11.6-2.11Z"/>
      </g>
      <path class="cls-18" d="M119.19,92.87s12.81,17.25,13.56,26.21c0,0-9.59,3.58-18.82,4.92,0,0-13.86-32.19,5.26-31.13Z"/>
      <g class="cls-24">
        <path class="cls-3" d="M85.31,121.41c5.1,2.68,6.09,3.65,6.09,3.65-4.8-.15-9.8-2.72-9.8-2.72,5.13-9.71,7.96-20.34,7.96-20.34-.12,8.69-4.25,19.4-4.25,19.4Z"/>
      </g>
    </g>
    <g>
      <g>
        <path class="cls-11" d="M127.88,109.56c-.16.49,0,0,0,0h0Z"/>
        <path class="cls-11" d="M96.68,92.93c7.61,5.04,19.49-2.15,19.49-2.15,7.63,3.67,9.7,10.65,9.7,10.65,0,0,2.17,7.65,2.01,8.14,0,0-7.38,5.95-22.13,7.18-14.98,1.24-13.6-1.66-13.6-1.66-1.29-19.35,4.52-22.16,4.52-22.16Z"/>
      </g>
      <path class="cls-15" d="M91.54,115.01c-.06.27-.03.64.22,1,.75,1.09,3.28,1.64,7.53,1.64,1.85,0,4.02-.1,6.51-.31,14.76-1.22,22.15-7.06,22.45-7.31l-.12-.15.24.08.07-.22s0,0,0-.01l.62-1.92-.76.61c-.22-1.1-.74-3.18-1.87-7.17-.09-.3-2.24-7.28-10.02-11.03l-.3-.14-.28.17c-.12.07-11.65,6.93-18.84,2.16l-.29-.19-.31.15c-.25.12-6.15,3.19-4.87,22.63ZM92.77,115.2v-.16c-1.09-16.15,2.86-20.52,3.92-21.39,7.25,4.41,17.6-1.1,19.5-2.19,7.05,3.54,9.08,10.07,9.1,10.14.89,3.16,1.82,6.68,1.97,7.67-1.37.99-8.63,5.8-21.56,6.87-9.89.82-12.27-.21-12.83-.69-.1-.08-.13-.14-.14-.17l.04-.08Z"/>
    </g>
    <g>
      <path class="cls-17" d="M123.94,106.31s-.14.35,0,0h0Z"/>
      <path class="cls-17" d="M97.81,94.53c6.37,3.58,16.39-1.65,16.39-1.65,6.39,2.6,8.1,7.6,8.1,7.6,0,0,1.78,5.48,1.64,5.84,0,0-6.23,4.32-18.63,5.28-12.59.97-11.42-1.12-11.42-1.12-.98-13.9,3.92-15.94,3.92-15.94Z"/>
    </g>
    <g>
      <path class="cls-11" d="M128,113.86l1.96,6.91c-5.15,3.67-15.51,5.09-15.51,5.09-14.71,2.55-22.78-1.92-22.78-1.92l.17-7.56c9.91,5.65,36.16-2.51,36.16-2.51Z"/>
      <path class="cls-15" d="M91.26,115.34l-.2,8.94.32.18c.26.14,5.17,2.79,14.23,2.79,2.64,0,5.62-.22,8.95-.8.41-.06,10.54-1.48,15.76-5.19l.35-.25-2.24-7.92-.59.18c-.19.06-14.58,4.47-25.86,4.47-3.87,0-7.38-.52-9.82-1.91l-.88-.5ZM92.28,123.56l.14-6.22c2.58,1.18,5.97,1.63,9.64,1.63,10.24,0,22.62-3.49,25.52-4.36l1.67,5.9c-5.08,3.36-14.79,4.73-14.89,4.74-12.71,2.2-20.46-.94-22.08-1.7Z"/>
    </g>
    <path class="cls-17" d="M94.92,117.5l-.03,6.44-2.15-.72.07-6.61s1.93.65,2.1.9Z"/>
    <g>
      <g>
        <path class="cls-11" d="M106.64,118.18s.58,5.32.79,10.16c0,0-5.58,1.06-11.02-.6l-.48-9.75s8.53.24,10.7.19Z"/>
        <path class="cls-15" d="M95.96,117.38l-.65-.02.53,10.83.41.12c2.47.75,4.94.96,6.94.97,2.48,0,4.24-.32,4.37-.35l.51-.1-.02-.52c-.21-4.8-.79-10.15-.8-10.2l-.06-.55h-.55c-2.13.06-10.58-.18-10.67-.18ZM96.58,118.61c1.87.05,7.22.18,9.52.18.14,1.41.52,5.32.71,9.04-1.44.2-5.65.62-9.81-.55l-.42-8.67Z"/>
      </g>
      <path class="cls-17" d="M105.05,120.65s-.47,7.5-7.67,6.44l-.6-7.7,2.82.15,5.44,1.11Z"/>
    </g>
    <g>
      <g>
        <g>
          <path class="cls-10" d="M91.52,111.56c26.56,3.71,35.33-4.92,35.33-4.92.61-.59.95-.38,1.16.35.26.87.79,4.95.79,4.95.1.67-.53,1.6-.53,1.6-18.22,10.21-36.66,4.52-36.66,4.52-1.32.03-1.23-6.36-1.23-6.36.69-1.7,1.14-.14,1.14-.14Z"/>
          <path class="cls-14" d="M89.78,111.69c-.02,1.29,0,5.59,1.07,6.64.23.23.47.3.66.32.68.2,5.67,1.55,12.73,1.55s15.64-1.28,24.33-6.15l.12-.07.08-.12c.13-.19.76-1.16.63-2.03-.05-.41-.54-4.15-.8-5.03-.07-.23-.27-.93-.89-1.09-.61-.16-1.11.32-1.27.48-.09.08-8.88,8.29-34.48,4.81-.16-.31-.43-.68-.89-.71-.75-.04-1.1.84-1.24,1.17l-.04.11v.11ZM90.99,111.89l.06.21.39.05c26.55,3.71,35.47-4.73,35.84-5.09.04-.04.07-.07.1-.09.02.04.04.1.06.18.2.68.62,3.74.77,4.86.04.28-.18.77-.36,1.06-17.73,9.85-35.87,4.45-36.05,4.39l-.09-.03h-.02c-.4-.44-.71-2.96-.69-5.56Z"/>
        </g>
        <path class="cls-7" d="M91.81,112.43c24.22,2.75,34.24-4.22,34.24-4.22.17-.12.33.1.46.06-.09,2.05-.34,5.22-3.97,7.48-20.16,6.36-30.74,1.71-30.74,1.71-1.28.04-1.08-4.92-1.08-4.92.7-1.25,1.1-.11,1.1-.11Z"/>
        <g>
          <path class="cls-17" d="M92.1,112.41c20.34,2.66,32.56-3.42,32.56-3.42,2.32-1.06-.82,1.44-.82,1.44-10.99,6.78-31.5,3.86-31.5,3.86-.97,2.26-.98,2.91-.91,3.11-.9-.99-.82-4.13-.82-4.13-.24-1.86,1.49-.86,1.49-.86Z"/>
          <path class="cls-17" d="M91.43,117.39s.04.07.07.09c0,0-.04-.01-.07-.09Z"/>
        </g>
      </g>
      <g>
        <g>
          <path class="cls-10" d="M100.36,111.04c2.85-.19,5.32,1.97,5.51,4.82.19,2.85-1.97,5.32-4.82,5.5-2.85.19-5.31-1.97-5.5-4.82-.19-2.85,1.97-5.32,4.82-5.5Z"/>
          <path class="cls-14" d="M96.36,112.39c-1.02,1.16-1.52,2.65-1.42,4.19.1,1.54.8,2.95,1.96,3.96,1.06.93,2.4,1.43,3.79,1.43.13,0,.26,0,.39-.01,1.54-.1,2.95-.8,3.96-1.96,1.02-1.16,1.52-2.65,1.42-4.19-.1-1.54-.8-2.95-1.96-3.96s-2.65-1.52-4.19-1.42c-1.54.1-2.95.8-3.96,1.96ZM96.15,116.5c-.08-1.22.32-2.39,1.12-3.31.8-.92,1.92-1.47,3.13-1.55.1,0,.21-.01.31-.01,1.11,0,2.16.4,3,1.13.92.8,1.47,1.92,1.55,3.13.08,1.22-.32,2.39-1.12,3.31-.8.92-1.92,1.47-3.13,1.55-1.22.08-2.39-.32-3.31-1.12-.92-.8-1.47-1.92-1.55-3.13Z"/>
        </g>
        <path class="cls-7" d="M100.03,111.94c2.26-.15,4.22,1.69,4.38,4.1.16,2.42-1.54,4.5-3.8,4.65-2.26.15-4.22-1.69-4.38-4.1-.16-2.42,1.54-4.5,3.8-4.65Z"/>
        <g>
          <g>
            <path class="cls-10" d="M100.09,112.94c1.77.15,3.13,1.77,3.03,3.63-.1,1.86-1.61,3.24-3.38,3.1-1.77-.15-3.13-1.77-3.03-3.63.1-1.86,1.61-3.24,3.38-3.09Z"/>
            <path class="cls-14" d="M97.53,113.34c-.77.67-1.22,1.62-1.27,2.66-.11,2.1,1.44,3.94,3.45,4.1.1,0,.2.01.3.01.85,0,1.65-.3,2.3-.87.77-.67,1.22-1.62,1.27-2.67.11-2.1-1.44-3.94-3.45-4.1-.95-.08-1.88.23-2.6.86ZM97.16,116.05c.04-.8.38-1.52.96-2.03.48-.42,1.08-.65,1.71-.65.07,0,.15,0,.22,0,1.53.13,2.7,1.54,2.62,3.15-.04.8-.38,1.52-.96,2.03-.54.47-1.22.7-1.93.64-1.53-.13-2.7-1.54-2.62-3.15h0Z"/>
          </g>
          <path class="cls-7" d="M99.38,113.28c1.3-.04,2.4,1.22,2.47,2.81.06,1.6-.94,2.92-2.24,2.96-1.3.04-2.4-1.22-2.47-2.81-.06-1.6.94-2.92,2.24-2.96Z"/>
          <path class="cls-17" d="M98.58,113.99c.87-.06,1.64.87,1.72,2.07.08,1.2-.56,2.22-1.43,2.28-.87.06-1.64-.87-1.72-2.07-.08-1.2.56-2.22,1.43-2.28Z"/>
        </g>
      </g>
    </g>
    <g>
      <path class="cls-19" d="M96.94,103.67c1.13.34,2.31.45,3.44.42-.19-1.61-.94-2.58-.94-2.58,2.17-1.07,4.25-.4,4.25-.4-.85.87-1.3,1.85-1.49,2.82,2.22-.31,3.88-.98,3.88-.98,2.39,1.3.6,2.42.6,2.42-1.66-.38-3.21-.51-4.59-.48-.1,2.54,1.23,4.82,1.23,4.82-3.07,1.9-4.96.27-4.96.27,1.52-1.91,2.01-3.62,2.05-4.99-2.57.27-4.21.95-4.21.95-1.36-.95.74-2.27.74-2.27Z"/>
      <path class="cls-14" d="M95.29,105.17c0,.31.1.75.65,1.14l.2.14.23-.1s1.39-.57,3.55-.86c-.16,1.39-.8,2.8-1.91,4.2l-.27.34.33.28c.06.05.92.77,2.38.77.85,0,1.9-.24,3.12-1l.38-.23-.22-.38s-1.12-1.94-1.18-4.14c1.37,0,2.72.17,4.04.47l.18.04.16-.1c.09-.06.88-.58.85-1.43-.02-.65-.52-1.25-1.48-1.77l-.19-.1-.2.08s-1.31.52-3.1.85c.24-.73.64-1.38,1.2-1.95l.51-.52-.7-.22c-.09-.03-2.29-.71-4.59.42l-.5.25.34.44s.53.7.77,1.85c-1.01-.02-1.94-.15-2.77-.4l-.2-.06-.17.11c-.14.09-1.38.9-1.41,1.88ZM102.08,104.43h-.17s.35-.05.35-.05c1.82-.26,3.26-.74,3.78-.93.53.31.82.63.83.9,0,.22-.17.41-.3.53-1.46-.32-2.97-.47-4.49-.45ZM100.87,104.99l.02-.47v-.02s0-.03,0-.03h0s-.05-.44-.05-.44c-.12-1.05-.47-1.85-.73-2.32,1.08-.41,2.09-.39,2.74-.31-.54.72-.91,1.54-1.08,2.45l-.12.62h.02s-.02.39-.02.39c-.08,2.03.69,3.88,1.08,4.67-1.82.99-3.1.62-3.7.33,1.18-1.6,1.8-3.23,1.84-4.86ZM96.2,105.19c0-.31.45-.75.82-1.03.98.27,2.07.4,3.24.38-1.98.22-3.41.67-3.97.87-.1-.11-.1-.19-.1-.23Z"/>
    </g>
    <path class="cls-17" d="M125.46,116.59s1.03,4.45-2.09,5.94c0,0-5.35,2.46-14.3,2.85,0,0-1.29-1.97-1.46-4.8,0,0,7.41.53,17.85-4Z"/>
  </g>
  <g>
    <g>
      <path class="cls-10" d="M84.03,75.63c1.92,4.94-7.09,7.02-7.09,7.02-2.66-4.51-1.91-10.09-1.91-10.09,6.74-4.87,9,3.07,9,3.07Z"/>
      <path class="cls-21" d="M74.43,72.49c-.03.24-.74,5.84,1.99,10.48l.23.38.43-.1c.23-.05,5.73-1.36,7.37-4.45.56-1.05.61-2.18.16-3.36-.11-.38-1.21-3.83-4.02-4.81-1.75-.61-3.74-.12-5.9,1.45l-.21.15-.03.26ZM75.6,72.9c1.27-.87,2.43-1.31,3.47-1.31.39,0,.76.06,1.12.18,2.33.81,3.26,3.99,3.27,4.02l.02.05c.33.85.3,1.63-.09,2.38-1.14,2.16-4.86,3.36-6.14,3.72-1.97-3.66-1.73-7.97-1.64-9.05Z"/>
    </g>
    <g>
      <path class="cls-13" d="M111.19,66.94s-2.4,4.51-3.95,4.88c0,0,2.95,3.09,1.29,6.04,0,0-1.78,4.95-5.21,5.83,0,0-.57-.39-2.16-1.06l-19.6,4.65s-2.27-.13-.64-1.81c0,0-5.48-3.14-3.01-7.54,0,0,.32-2.42-1.15-4.34l-.41-1.78s5.22-2.31,8.2-3.32c0,0,18.72-5.44,26.64-1.57Z"/>
      <path class="cls-14" d="M76.1,71.27l-.46.2.56,2.39.08.1c1.14,1.49,1.08,3.34,1.04,3.79-1.87,3.49.68,6.47,2.7,7.87-.3.47-.37.9-.22,1.3.33.84,1.49.95,1.72.96h.09s19.49-4.62,19.49-4.62c1.35.58,1.87.92,1.87.93l.23.15.27-.07c3.54-.92,5.4-5.6,5.61-6.17,1.37-2.49-.08-4.98-.91-6.1,1.55-1.13,3.19-4.11,3.55-4.79l.29-.55-.56-.27c-8.04-3.93-26.3,1.3-27.08,1.53-3,1.02-8.06,3.25-8.28,3.34ZM77.05,72.17c1.34-.58,5.28-2.28,7.69-3.1.16-.04,17.67-5.06,25.6-1.85-.98,1.71-2.45,3.82-3.25,4.01l-1.02.25.72.76s2.62,2.81,1.21,5.32l-.04.09s-1.63,4.42-4.55,5.38c-.32-.18-.95-.52-2.01-.96l-.18-.08-19.7,4.67c-.23-.03-.5-.11-.58-.18.01-.06.08-.25.41-.59l.54-.56-.67-.39c-.2-.12-4.93-2.9-2.78-6.72l.06-.1.02-.12c.01-.11.32-2.6-1.19-4.68l-.27-1.16Z"/>
    </g>
    <path class="cls-17" d="M96.88,72.67l-.26.13c-1.71.44-.7-1.55-.7-1.55,1.1.61.96,1.43.96,1.43Z"/>
    <path class="cls-17" d="M81.48,75.34c1.04.39.44,1.68.44,1.68-1.84-.45-.44-1.68-.44-1.68Z"/>
    <path class="cls-2" d="M100.46,67.29c-.75,3.36,1.09,5.71,1.09,5.71,3.8,3.54,1.82,4.8,1.82,4.8-.83,1.13-2.42,1.37-2.42,1.37l-1.36-.04c-8.3-.93-16.7,2.26-16.7,2.26-.76.34-2.9,2.06-2.9,2.06-.85-.87-1.05-1.45-1.05-1.45-.11-1.85.83-4,.83-4,1.12-2.27-2.24-5.38-2.24-5.38,7.5-5.87,22.92-5.33,22.92-5.33Z"/>
    <path class="cls-17" d="M95.92,69.87c2.46-.07,3.9,3.33,3.9,3.33.02.58-.44.92-.81,1.06-.3.12-1.31.5-1.31.5-4.48,1.63-4.86-.38-4.86-.38l-.06-.22c-.63-3.58,1.74-4.24,3.14-4.28Z"/>
    <g>
      <g>
        <path class="cls-4" d="M87.41,69.32c1.28.09,1.8-.21,2.05-.62,2.67-4.37,3.3-4.86,5.22-4.76,3.76.19,6.62,3.04,6.62,3.04.44,2.7-3.17,1.09-3.17,1.09-3.53-2.05-6.44,2.11-6.44,2.11-.61,1.41-3.17,1.09-3.17,1.09-2.65-1.02-1.68-1.99-1.12-1.95Z"/>
        <path class="cls-14" d="M86.19,69.64c-.13.58.14,1.43,2.13,2.2l.07.03h.07s.3.05.68.05c.92,0,2.51-.19,3.09-1.42.31-.43,2.74-3.55,5.61-1.89l.06.03c.39.17,2.37.99,3.45.17.35-.27.74-.82.56-1.9l-.03-.19-.14-.14c-.12-.12-3.07-3.02-7.02-3.22-2.36-.12-3.2.85-5.77,5.05-.17.28-.67.39-1.49.33-.5-.04-1.13.31-1.26.92ZM87.41,69.92c.84.05,2,0,2.56-.91,2.69-4.4,3.15-4.55,4.68-4.47,3.02.16,5.47,2.18,6.08,2.73.02.21,0,.46-.13.56-.36.27-1.49,0-2.19-.3-.78-.44-1.54-.63-2.26-.63-2.23,0-4.11,1.73-4.94,2.93l-.06.11c-.33.78-1.86.79-2.46.73-.88-.35-1.17-.63-1.27-.75Z"/>
      </g>
      <path class="cls-5" d="M90.03,68.63c1.59-3.11,2.07-4,3.37-4.03,2.56-.05,4.64,1.74,4.64,1.74,1.1,1.63-1.21.6-1.21.6-3.02-.73-5.14,2.06-5.14,2.06-.51,1.74-1.89,1.51-1.89,1.51-1.87.22-2.41-.88-2.03-.88.87,0,2.11-.72,2.26-1.01Z"/>
      <path class="cls-1" d="M89.19,69.36c-.41.63.3.57.3.57.91-.09,1.53-.46,1.53-.46.88.15-.32,1.02-.32,1.02-2.22.92-3.1-.44-3.1-.44.08-.94,1.6-.69,1.6-.69Z"/>
    </g>
    <path class="cls-14" d="M92.51,71.3c.03-.07.06-.15.11-.22.06-.1.1-.14.14-.21.09-.12.17-.24.27-.36l.32-.32c.47-.41,1.05-.69,1.66-.8.6-.12,1.21-.08,1.78.04.29.07.55.14.86.28.28.15.54.32.76.53.44.41.74.9.97,1.4.22.51.38,1.03.44,1.57-.3-.44-.6-.87-.94-1.25-.33-.38-.68-.73-1.06-.98-.19-.13-.38-.21-.57-.29-.18-.05-.43-.11-.65-.14-.46-.06-.92-.07-1.34.02-.43.08-.82.25-1.16.51l-.25.21c-.08.08-.15.16-.23.24-.04.04-.09.09-.1.1-.03.03-.05.07-.08.12-.05.09-.11.19-.15.29-.18.41-.29.89-.33,1.38-.05.5-.02,1.01.02,1.55-.56-.91-.87-2.06-.59-3.23.03-.15.08-.29.14-.44Z"/>
    <path class="cls-17" d="M79.82,77.56c-1.01,2.94,1.23,6.12,1.23,6.12l-1.24.45c-3.08-3.55-1.59-5.39-1.59-5.39,1.22-3.73-1.36-5.85-1.36-5.85l.78-.26c2.89,1.7,2.19,4.94,2.19,4.94Z"/>
    <path class="cls-17" d="M84.03,75.63c.56,2.19-1.08,2.67-1.08,2.67-.9.41-2.72.64-2.72.64-2.39-.82-1.26-3.26-1.26-3.26,1.67-3.12,4.73-1.32,5.05-.05Z"/>
    <path class="cls-14" d="M78.69,74.58c.08-.12.16-.24.25-.36.09-.12.2-.22.3-.33.43-.43,1.01-.72,1.61-.84.6-.12,1.2-.06,1.75.08.28.08.54.16.83.33.27.15.5.35.7.56.4.42.67.9.87,1.39.2.5.34,1,.39,1.53-.3-.43-.58-.85-.9-1.23-.31-.38-.64-.73-1-.99-.09-.06-.18-.13-.27-.18-.09-.06-.18-.1-.27-.13-.16-.07-.4-.12-.61-.16-.43-.07-.87-.09-1.27,0-.4.08-.76.25-1.07.5-.07.07-.16.13-.23.21-.07.08-.14.16-.21.24-.05.05-.1.13-.14.22-.05.09-.09.19-.13.29-.32.83-.32,1.84-.25,2.87-.54-.88-.87-1.97-.67-3.12.06-.29.12-.56.32-.88Z"/>
    <g>
      <g>
        <path class="cls-13" d="M83.91,71.88l-.81-.94s.4.35.81.94Z"/>
        <path class="cls-13" d="M84.41,75.52c.64-1.48.07-2.8-.5-3.64l5.9,6.86c2.69-1.12,4.77,1.01,4.77,1.01,1.78,2.38-1.19,3.29-1.19,3.29-2.2-.24-3.08.81-3.08.81-1.9,2.05-4.44,1.92-4.44,1.92-2.92-.51-2.56-4.99-2.56-4.99,0-2.4,1.1-5.25,1.1-5.25Z"/>
        <g>
          <path class="cls-14" d="M82.65,80.73s0,.02,0,.04c0,0,0,0,0,.01v-.05Z"/>
          <path class="cls-14" d="M83.96,75.52l.07-.16.06-.14c.05-.09.07-.18.11-.27.06-.18.11-.37.14-.57.06-.39.04-.79-.06-1.19-.18-.8-.62-1.58-1.18-2.25.71.52,1.3,1.23,1.66,2.09.17.43.27.91.27,1.39,0,.24-.03.48-.08.72-.03.12-.06.24-.1.35l-.06.17-.04.14c-.24.82-.43,1.66-.59,2.49-.15.83-.23,1.67-.21,2.47v.05c-.01.44.02.94.09,1.4.07.46.18.91.34,1.32.16.41.38.76.65,1.01.14.13.28.23.44.31.15.07.31.12.48.16-.02,0-.04,0-.05,0h.09s-.03,0-.04,0c.1,0,.24,0,.36-.02.15-.01.3-.03.45-.06.3-.05.59-.13.88-.23.57-.2,1.12-.48,1.59-.85.12-.09.24-.19.35-.29.06-.05.1-.1.16-.15l.04-.04.08-.08s.09-.09.14-.12c.36-.29.74-.47,1.13-.6.74-.24,1.5-.26,2.21-.17-.04.02-.09.03-.12.04l.25-.02s-.08,0-.12-.01c.09-.03.19-.07.28-.11.14-.06.27-.13.39-.21.24-.16.43-.35.54-.56.1-.21.14-.44.08-.71-.06-.26-.19-.54-.36-.81,0,0,.02.02.03.03l-.04-.04s0,0,0,.01c-.24-.26-.56-.52-.88-.73-.34-.22-.7-.4-1.09-.53-.39-.13-.8-.2-1.22-.2-.42,0-.84.06-1.26.18.38-.21.8-.36,1.24-.44.44-.08.9-.08,1.35,0,.45.08.89.22,1.31.41.42.2.8.43,1.18.76h0s.03.04.03.04c.25.3.48.65.62,1.07.15.41.17.94-.02,1.39-.18.45-.5.8-.84,1.06-.17.13-.34.24-.53.34-.19.1-.35.18-.58.27l-.09.03h-.16c-.62-.04-1.23,0-1.75.21-.26.1-.5.23-.67.39-.02.02-.04.04-.05.05h-.01s-.05.07-.05.07c-.07.07-.14.15-.21.22-.14.14-.28.27-.43.39-.6.49-1.28.88-2,1.14-.36.13-.73.23-1.11.3-.19.03-.38.06-.57.08-.2.02-.37.03-.62.02h-.05s-.04-.01-.04-.01c-.32-.06-.63-.16-.93-.31-.3-.15-.57-.35-.81-.58-.47-.46-.77-1.02-.97-1.57-.2-.55-.31-1.11-.36-1.66-.06-.55-.06-1.06-.01-1.63.03-.94.2-1.83.43-2.7.22-.87.52-1.72.87-2.54Z"/>
        </g>
        <path class="cls-14" d="M93.45,82.43l-.25.02s.08-.02.12-.04c.04,0,.08,0,.12.01Z"/>
        <path class="cls-14" d="M86,85.03h-.09s.03-.01.05-.01c.01,0,.03,0,.04.01Z"/>
        <path class="cls-14" d="M94.25,80.02s0,0,0-.01l.04.04s-.02-.02-.03-.03Z"/>
      </g>
      <path class="cls-2" d="M89.83,78.54l1.55.25c1.87-.4,2.91,1.35,2.91,1.35.27,1.44-1.27.82-1.27.82-1.76-.9-3.76.65-3.76.65-1.77,1.04-2.02,1.44-2.02,1.44-2.34-1.86-1.69-4.77-1.69-4.77.93-3.84-.29-5.41-.29-5.41,2.37,2.1,4.57,5.66,4.57,5.66Z"/>
      <g>
        <path class="cls-1" d="M84.42,72.08s-.04-.04-.06-.06c0,0,.02.02.06.06Z"/>
        <path class="cls-1" d="M84.42,72.08c2.01,1.73,1.39,4.86,1.39,4.86-1.19,4.76,1.37,5.82,1.37,5.82-1.08,1.17-2.36,1.15-2.36,1.15-2.22-3.57-.34-7.44-.34-7.44.86-3.06.15-4.15-.06-4.39Z"/>
      </g>
    </g>
    <g>
      <path class="cls-14" d="M95.19,71.41c.97,0,1.76.83,1.77,1.85,0,1.02-.77,1.86-1.73,1.86-.97,0-1.76-.83-1.77-1.85,0-1.02.77-1.86,1.73-1.86Z"/>
      <path class="cls-17" d="M96.44,72.8c.35,0,.64.31.65.69,0,.38-.28.69-.63.7-.35,0-.64-.31-.65-.69,0-.38.28-.7.63-.7Z"/>
    </g>
    <g>
      <path class="cls-14" d="M80.73,75.14c.88,0,1.59.75,1.6,1.68,0,.93-.7,1.68-1.57,1.68-.88,0-1.59-.75-1.6-1.68,0-.93.7-1.68,1.57-1.69Z"/>
      <path class="cls-17" d="M81.86,76.39c.32,0,.58.28.59.63,0,.35-.26.63-.58.63-.32,0-.58-.28-.59-.63,0-.35.25-.63.58-.63Z"/>
    </g>
    <g>
      <g>
        <path class="cls-4" d="M78.2,69.28s1.34.73,2.34,1.19c0,0,.85.48,1.56.23.31-.11.46-.74,1.18-.58,0,0,1.46,1.87-1.15,2.72,0,0-1.43.28-2.08-.18,0,0-1.09-.79-2.85-.07,0,0-2.27,1.48-2.27-.58,0,0-.23-3.66,3.27-2.73Z"/>
        <path class="cls-14" d="M75.43,69.09c-1.15.95-1.11,2.71-1.1,2.93,0,.93.41,1.34.74,1.52.22.12.46.16.7.16.72,0,1.46-.42,1.72-.58,1.37-.54,2.19,0,2.22.03.82.58,2.26.34,2.54.28l.07-.02c1.03-.34,1.67-.88,1.89-1.6.32-1.04-.37-1.96-.45-2.06l-.13-.17-.21-.05c-.83-.19-1.27.3-1.48.53-.03.03-.05.06-.07.08-.36.1-.87-.12-1.03-.2l-.04-.02c-.97-.44-2.29-1.16-2.3-1.17l-.06-.04-.07-.02c-1.22-.32-2.21-.19-2.93.4ZM75.53,71.97c-.02-.37.06-1.45.66-1.94.39-.32.99-.38,1.78-.18.28.15,1.4.75,2.29,1.16.19.1,1.14.57,2.03.26.25-.09.4-.26.53-.4.05-.06.09-.1.12-.13.09.19.18.47.1.71-.12.39-.64.65-1.07.79-.48.09-1.29.12-1.58-.09-.03-.03-.68-.49-1.76-.49-.48,0-1.04.09-1.67.35l-.1.05c-.45.29-1.06.49-1.23.4-.03-.02-.11-.13-.11-.47v-.04Z"/>
      </g>
      <path class="cls-5" d="M77.46,69.74s.49-.12,1.4.5c0,0,1.04.54,2.08,1.12,0,0,.96.19-.5.83,0,0-1.57.05-1.99-.28,0,0-.55-.23-1.52.31,0,0-1.05.67-1.25-.82,0,0,.23-1.96,1.78-1.67Z"/>
      <path class="cls-1" d="M76.12,69.95c.13-.46,1.86-.14,1.86-.14-2.45.26-1.15,2.23-1.15,2.23-.49.94-1.29.29-1.29.29-.58-2.11.59-2.39.59-2.39Z"/>
    </g>
    <g>
      <path class="cls-10" d="M110.44,50.03c5.71,10.96,7.26,18.09,7.26,18.09-25.42-2.7-43.1,5.19-43.1,5.19-.84-12.86,1.13-15.86,1.13-15.86,15.02-12.62,34.71-7.42,34.71-7.42Z"/>
      <path class="cls-21" d="M75.22,57.12c-.08.13-2.07,3.32-1.23,16.23l.06.87.79-.35c.18-.08,17.84-7.79,42.79-5.14l.83.09-.18-.82c-.06-.29-1.63-7.34-7.31-18.25l-.12-.24-.26-.07c-.2-.05-5.09-1.32-11.9-1.04-6.3.26-15.46,1.96-23.35,8.58l-.07.06-.05.07ZM76.2,57.84c13.68-11.42,31.49-7.83,33.83-7.29,4.42,8.53,6.3,14.74,6.87,16.88-3.38-.33-6.63-.47-9.71-.47-16.85,0-28.91,4.25-32.04,5.47-.62-10.7.81-14.1,1.05-14.59Z"/>
    </g>
    <path class="cls-7" d="M90.94,56.56c8.37,2.73,8.69,10.42,8.69,10.42-11.85-.01-24.13,4.35-24.13,4.35.95-9.77,1.4-10.83,1.4-10.83,7.32-7.26,14.03-3.93,14.03-3.93Z"/>
    <path class="cls-17" d="M89.22,54.05c-6.21,2.27-10.25,6.84-10.25,6.84-1.11,6.25-.79,7.82-.79,7.82,13.69-3.77,20.27-1.73,20.27-1.73-18.43,2.68-23.38,5.09-23.38,5.09-.13-7.93.37-11.19.37-11.19,4.35-4.53,13.77-6.83,13.77-6.83Z"/>
    <path class="cls-7" d="M110.1,54.23s1.94,1.83-1.76,3.13c0,0,1.88.39,5.31,8.98,0,0-3.1-.39-4.6-.21,0,0-6.97-7.92-6.37-13.71,0,0,3.86-.69,7.42,1.81Z"/>
    <path class="cls-17" d="M106.23,53.07c2.11,4.3,3.43,10.64,3.43,10.64-6.48-8.3-5.68-11.68-5.68-11.68l2.24,1.04Z"/>
    <g>
      <path class="cls-21" d="M106.26,51.65c.31.71.61,1.43.89,2.15.58,1.44,1.12,2.88,1.63,4.34.52,1.45,1.01,2.92,1.49,4.38l.7,2.2.68,2.21-.82-2.16-.84-2.15c-.57-1.43-1.16-2.85-1.77-4.26-.61-1.41-1.24-2.81-1.9-4.2-.33-.69-.67-1.38-1.02-2.06-.35-.67-.71-1.36-1.09-1.99l1.05-.6c.37.72.68,1.42.99,2.13Z"/>
      <path class="cls-21" d="M83.24,56.19c-.08.45-.13.98-.17,1.49-.03.51-.05,1.03-.05,1.55,0,1.04.05,2.08.14,3.12.08,1.04.22,2.08.37,3.12.08.52.17,1.04.26,1.56l.3,1.55-.45-1.52c-.14-.51-.28-1.02-.41-1.53-.25-1.03-.49-2.06-.68-3.1-.19-1.04-.35-2.1-.45-3.16-.05-.53-.09-1.07-.1-1.61-.02-.55-.02-1.06.03-1.66l1.19.19Z"/>
    </g>
    <g>
      <g>
        <path class="cls-10" d="M104.55,54.51c.33-.12.77.27.98.87.21.6.11,1.18-.23,1.29-.33.12-.77-.27-.98-.87-.21-.6-.11-1.18.23-1.29Z"/>
        <path class="cls-21" d="M103.76,54.49c-.19.4-.2.97,0,1.52.28.79.85,1.3,1.43,1.3.11,0,.21-.02.32-.05h0c.67-.23.93-1.12.6-2.06-.19-.55-.54-.99-.95-1.18-.26-.13-.55-.15-.8-.06-.25.09-.46.28-.59.55ZM104.83,55.3c.05.07.09.17.13.28.04.11.06.22.07.3-.05-.07-.09-.17-.13-.28-.04-.11-.06-.22-.07-.3Z"/>
      </g>
      <path class="cls-7" d="M105.36,55.72c.12.35.06.69-.13.76-.2.07-.45-.16-.58-.51-.12-.35-.06-.69.13-.76s.45.16.58.51Z"/>
      <path class="cls-17" d="M105.27,55.97c.08.24.04.48-.09.53-.14.05-.31-.11-.4-.35-.08-.24-.04-.48.09-.52.14-.05.31.11.4.35Z"/>
    </g>
    <g>
      <g>
        <path class="cls-10" d="M106.39,60.28c.33-.12.77.27.98.87.21.6.11,1.18-.23,1.29-.33.12-.77-.27-.98-.87-.21-.6-.11-1.18.23-1.29Z"/>
        <path class="cls-21" d="M105.47,60.64c-.06.34-.02.75.11,1.13.19.55.54.99.95,1.18.16.08.32.11.48.11.11,0,.22-.02.32-.05.67-.23.93-1.12.6-2.06-.19-.55-.54-.99-.95-1.18-.26-.13-.55-.15-.8-.06-.37.13-.63.47-.71.93ZM106.66,61.07c.05.07.09.17.13.28.04.11.06.22.07.3-.05-.07-.09-.17-.13-.28-.04-.11-.06-.22-.07-.3Z"/>
      </g>
      <path class="cls-7" d="M107.19,61.48c.12.35.06.69-.13.76-.2.07-.45-.16-.58-.51-.12-.35-.06-.69.13-.76.2-.07.45.16.58.51Z"/>
      <path class="cls-17" d="M107.1,61.74c.08.24.04.48-.09.53-.14.05-.31-.11-.4-.35-.08-.24-.04-.48.09-.52.14-.05.31.11.4.35Z"/>
    </g>
    <g>
      <g>
        <path class="cls-10" d="M74.87,56.58c5.04-4.82,10.99-6.04,10.99-6.04,14.16-4.7,25.18-.47,25.18-.47,1.89,3.07,1.22,3.59,1.22,3.59-9.06-2.99-19.76-.95-19.76-.95-8.77,1.2-17.46,7.42-17.46,7.42-.58-.03-.59-.34-.71-.68-.19-.51-.05-1.23.14-1.82.18-.59.41-1.06.41-1.06Z"/>
        <path class="cls-21" d="M73.88,57.46c-.29.91-.33,1.66-.13,2.21.01.04.03.08.04.12.1.3.3.91,1.21.96h.21s.17-.11.17-.11c.09-.06,8.67-6.15,17.19-7.31h.03c.11-.02,10.66-1.98,19.46.92l.31.1.25-.2c.5-.39.72-1.46-1.08-4.39l-.11-.17-.19-.07c-.46-.18-11.37-4.24-25.55.45-.56.12-6.29,1.45-11.25,6.19l-.08.07-.05.09s-.25.52-.45,1.15ZM111.76,53.34h0s0,0,0,0ZM75.04,57.82c.12-.39.27-.72.34-.88,4.84-4.58,10.55-5.8,10.61-5.81l.07-.02c12.78-4.24,23.08-1.06,24.58-.55.7,1.16.97,1.88,1.08,2.29-8.83-2.64-18.7-.85-19.31-.74-8.05,1.1-15.87,6.25-17.44,7.34,0-.01,0-.03-.01-.04-.02-.05-.03-.11-.05-.16-.1-.28-.05-.8.15-1.43Z"/>
      </g>
      <path class="cls-7" d="M96.76,49.15c-14.55,3.56-19.08,8.45-19.08,8.45-1.52.64.09-2.48.09-2.48,9.24-5.89,18.99-5.98,18.99-5.98Z"/>
      <path class="cls-17" d="M81.9,53.31c-2.01,2.34-5.98,5.54-5.98,5.54-.88,1.28-1.21-.35-1.21-.35.6-3.97,7.19-5.2,7.19-5.2Z"/>
      <g>
        <g>
          <path class="cls-10" d="M78.33,54.85c.31-.03.61.38.65.92.05.54-.17,1-.48,1.03-.31.03-.61-.38-.65-.92-.05-.54.17-1,.48-1.03Z"/>
          <path class="cls-21" d="M78.27,54.25c.26-.03.52.06.74.24.32.26.53.71.57,1.23.08.89-.36,1.62-1.02,1.69-.03,0-.06,0-.1,0-.23,0-.46-.08-.65-.24-.32-.26-.53-.71-.57-1.23-.08-.9.36-1.62,1.02-1.69Z"/>
        </g>
        <path class="cls-7" d="M78.38,55.48c.18-.02.36.22.38.54.03.32-.1.59-.28.61-.18.02-.36-.22-.38-.54-.03-.32.1-.59.28-.61Z"/>
        <path class="cls-17" d="M78.36,55.84c.13-.01.25.15.26.37s-.07.41-.2.42c-.13.01-.25-.15-.26-.37-.02-.22.07-.41.2-.42Z"/>
      </g>
      <g>
        <g>
          <path class="cls-10" d="M99.72,49.11c.36-.09.78.33.93.94.16.61,0,1.18-.36,1.28-.36.09-.78-.33-.93-.94-.16-.61,0-1.18.36-1.28Z"/>
          <path class="cls-21" d="M98.77,49.39c-.1.34-.09.75.01,1.15.15.56.45,1.01.85,1.25.18.11.38.16.57.16.08,0,.17-.01.25-.03.7-.18,1.04-1.05.79-2.01-.25-.97-.97-1.56-1.67-1.38-.38.1-.68.41-.8.86ZM99.91,49.84c.06.08.12.21.16.37.04.16.05.3.04.4-.06-.08-.12-.21-.16-.37-.04-.16-.05-.3-.04-.4Z"/>
        </g>
        <path class="cls-7" d="M100.44,50.37c.09.36,0,.7-.21.75-.21.05-.46-.19-.55-.55-.09-.36,0-.7.21-.75.21-.05.46.19.55.55Z"/>
        <path class="cls-17" d="M100.32,50.62c.06.25,0,.48-.15.52-.15.04-.31-.13-.38-.38-.06-.25,0-.48.15-.52.15-.04.32.13.38.38Z"/>
      </g>
      <g>
        <g>
          <path class="cls-10" d="M107.34,49.92c.35-.12.81.26,1.02.85.22.59.11,1.18-.23,1.3-.35.12-.81-.26-1.02-.85-.22-.59-.11-1.18.23-1.3Z"/>
          <path class="cls-21" d="M106.53,49.92c-.19.41-.19.97,0,1.51.29.78.87,1.27,1.45,1.27.12,0,.23-.02.34-.06.26-.09.48-.3.61-.57.19-.41.19-.96,0-1.51-.34-.94-1.12-1.46-1.8-1.21-.26.09-.48.3-.61.57ZM107.92,51.5h0,0ZM107.59,50.62c.07.08.14.2.2.36.06.16.08.29.08.39-.07-.08-.14-.2-.2-.36-.06-.16-.08-.29-.08-.39Z"/>
        </g>
        <path class="cls-7" d="M108.18,51.11c.13.35.07.69-.14.77-.2.07-.47-.15-.6-.5-.13-.35-.07-.69.14-.77.2-.07.47.15.6.5Z"/>
        <path class="cls-17" d="M108.08,51.36c.09.24.05.48-.09.53-.14.05-.33-.1-.42-.35-.09-.24-.05-.48.1-.53.14-.05.33.1.41.35Z"/>
      </g>
      <g>
        <g>
          <path class="cls-10" d="M85.68,51.26c.36-.06.74.39.85,1.01.11.62-.1,1.18-.47,1.25-.36.06-.74-.39-.85-1.01-.11-.62.1-1.18.47-1.25Z"/>
          <path class="cls-21" d="M84.62,52.61c.1.57.37,1.05.74,1.31.2.14.42.21.64.21.06,0,.12,0,.17-.02.71-.13,1.12-.96.96-1.94-.1-.57-.37-1.05-.74-1.31-.25-.18-.54-.24-.81-.2-.71.13-1.12.96-.96,1.94ZM85.8,52c.05.09.1.21.13.38.03.17.02.31,0,.41-.05-.09-.1-.21-.13-.38-.03-.17-.02-.31,0-.41Z"/>
        </g>
        <path class="cls-7" d="M86.29,52.58c.06.37-.06.69-.27.73-.21.04-.44-.23-.5-.6-.06-.37.06-.69.27-.73.21-.04.44.23.5.6Z"/>
        <path class="cls-17" d="M86.15,52.81c.04.25-.04.48-.19.51-.15.03-.3-.16-.34-.41-.04-.25.04-.48.19-.51.15-.03.3.16.35.41Z"/>
      </g>
    </g>
    <g>
      <g>
        <path class="cls-10" d="M77.7,61.66c.35-.03.68.45.74,1.08.06.63-.18,1.17-.53,1.2-.35.03-.68-.45-.74-1.09-.06-.63.18-1.17.53-1.2Z"/>
        <path class="cls-21" d="M76.72,61.79c-.14.32-.2.72-.16,1.12.09.95.64,1.64,1.31,1.64.03,0,.06,0,.09,0h0c.71-.06,1.17-.86,1.08-1.85-.09-.99-.69-1.7-1.39-1.63-.39.03-.73.3-.92.73ZM77.76,62.8c-.01-.12,0-.23,0-.31.03.08.05.18.06.31.01.12,0,.23,0,.31-.03-.08-.05-.18-.06-.31Z"/>
      </g>
      <path class="cls-7" d="M77.75,62.38c.21-.02.4.27.43.64.03.37-.11.69-.31.7-.21.02-.4-.27-.43-.64-.03-.37.11-.69.31-.7Z"/>
      <path class="cls-17" d="M77.73,62.81c.14-.01.28.18.3.44.02.26-.07.47-.22.49-.14.01-.28-.18-.3-.44-.02-.26.07-.47.22-.49Z"/>
    </g>
    <g>
      <g>
        <path class="cls-10" d="M77.55,67.01c.35-.03.68.45.74,1.09.06.63-.18,1.17-.54,1.2-.35.03-.68-.46-.74-1.09-.06-.63.18-1.17.53-1.2Z"/>
        <path class="cls-21" d="M76.58,67.14c-.14.32-.2.72-.16,1.12.09.95.64,1.64,1.31,1.64.03,0,.06,0,.09,0h0c.71-.06,1.17-.86,1.08-1.85-.09-.99-.69-1.7-1.39-1.63-.39.04-.73.3-.92.73ZM77.62,68.16c-.01-.12,0-.23,0-.31.03.08.05.19.06.31.01.12,0,.22,0,.31-.03-.08-.05-.18-.06-.31Z"/>
      </g>
      <path class="cls-7" d="M77.6,67.74c.21-.02.4.27.43.64.03.37-.11.69-.31.7-.21.02-.4-.27-.43-.64-.03-.37.11-.69.31-.7Z"/>
      <path class="cls-17" d="M77.58,68.16c.14-.01.28.18.3.44.02.26-.07.47-.22.49-.14.01-.28-.18-.3-.44-.02-.26.07-.47.22-.49Z"/>
    </g>
    <g>
      <g>
        <path class="cls-10" d="M81.44,70.57s.32-3.63,2.21-4.74c0,0,2.61.72,3.4,3.89,0,0,.81,4.08,1.16,7.61,8.75-1.86,16.97-3.05,16.97-3.05-1.98-7.18-3.64-9.81-3.64-9.81,9.59-.78,16.95.69,16.95.69,1.19.99.81-.21,1.11.69,4.14,12.44,4.47,21.64,4.47,21.64-3.49,1.01-5.04,2.19-5.04,2.19-9.11,11.47-26.61,17.4-26.61,17.4-4.1-.23-5.47-1.65-5.47-1.65-7.07-11.29-10.67-23.68-10.67-23.68,2.63-1.32,4.8-2.24,6.49-2.87l-1.34-8.31Z"/>
        <path class="cls-21" d="M76.01,81.21l-.45.23.14.48c.04.12,3.7,12.6,10.74,23.83l.08.1c.06.06,1.58,1.6,5.87,1.84h.12s.11-.03.11-.03c.18-.06,17.71-6.1,26.84-17.52.3-.21,1.83-1.19,4.79-2.05l.45-.13-.02-.47c0-.09-.39-9.43-4.5-21.81-.13-.39-.22-.66-.56-.75-.09-.03-.24-.05-.41.03-.07-.04-.17-.11-.33-.24l-.12-.1-.15-.03c-.07-.01-7.55-1.48-17.12-.7l-1,.08.54.84s1.55,2.5,3.39,8.98c-2.09.32-8.68,1.35-15.67,2.81-.37-3.35-1.09-6.96-1.1-7-.87-3.5-3.71-4.32-3.84-4.36l-.25-.07-.22.13c-2.14,1.25-2.49,5.05-2.51,5.21v.07s1.27,7.9,1.27,7.9c-1.91.73-3.95,1.65-6.09,2.72ZM77.01,82.06c2.11-1.04,4.11-1.92,5.98-2.62l.46-.17-1.41-8.73c.09-.92.55-3.16,1.69-4.05.61.25,2.17,1.11,2.73,3.37,0,.01.81,4.07,1.15,7.52l.07.67.66-.14c8.63-1.83,16.85-3.03,16.93-3.04l.68-.1-.18-.66c-1.38-5.01-2.61-7.83-3.25-9.11,8.22-.55,14.68.53,15.71.72.21.17.51.38.84.44,3.51,10.6,4.24,18.88,4.37,20.88-3.23,1-4.71,2.1-4.77,2.15l-.06.05-.05.06c-8.52,10.73-24.73,16.64-26.22,17.16-3.32-.2-4.68-1.23-4.91-1.43-6.14-9.83-9.67-20.6-10.41-22.98Z"/>
      </g>
      <path class="cls-7" d="M86.43,69.91l1.21,8.82c12.83-2.66,19.43-3.4,19.43-3.4-2.56-8.39-3.79-10.43-3.79-10.43,2.9-.32,4.19,1.12,4.19,1.12,6.01,19.31,5.59,26.79,5.59,26.79-4.95,6.83-21.64,13.21-21.64,13.21-5.44-18.64-6.24-24.61-6.24-24.61-1.45-8.68-1.84-14.7-1.84-14.7,1.88-.4,3.09,3.19,3.09,3.19Z"/>
      <path class="cls-7" d="M82.99,74.19c-1.47-4.69.59-6.59.59-6.59.51,5.65,2.05,14.33,2.05,14.33.69,3.07-1.53,4.47-1.53,4.47-2.07,4.27,1.56,7.09,1.56,7.09,4.33,4.21,1.62,10.36,1.62,10.36-7.27-12.69-9.75-21.34-9.75-21.34,4.08-2.64,6.41-2.92,6.41-2.92l-.95-5.4Z"/>
      <g>
        <g>
          <path class="cls-10" d="M83.65,67.52c.35-.06.72.39.83,1.01.11.62-.08,1.18-.42,1.24s-.72-.39-.83-1.01c-.11-.62.08-1.18.43-1.24Z"/>
          <path class="cls-21" d="M82.63,68.86c.16.9.73,1.52,1.36,1.52.06,0,.12,0,.17-.02h0c.39-.07.7-.37.85-.81.11-.33.14-.73.06-1.13-.18-.98-.84-1.63-1.53-1.5-.7.13-1.09.96-.91,1.94ZM83.8,68.34c.03.08.07.18.09.3.02.12.03.22.02.31-.04-.08-.07-.18-.09-.3-.02-.12-.03-.22-.02-.31Z"/>
        </g>
        <path class="cls-7" d="M84.26,68.83c.07.37-.05.69-.25.73-.2.04-.42-.23-.49-.6-.07-.37.04-.69.25-.73.2-.04.42.23.49.6Z"/>
        <path class="cls-17" d="M84.13,69.07c.04.25-.03.48-.17.5-.14.03-.29-.16-.34-.41-.05-.25.03-.48.17-.5.14-.03.29.16.34.41Z"/>
      </g>
      <g>
        <g>
          <path class="cls-10" d="M106.03,65.44c.33-.12.78.25,1,.85.22.59.14,1.17-.19,1.3-.33.12-.78-.25-1-.85-.22-.59-.14-1.17.19-1.3Z"/>
          <path class="cls-21" d="M105.27,66.95c.29.78.87,1.26,1.44,1.26.12,0,.23-.02.34-.06h0c.66-.25.9-1.14.55-2.08-.35-.93-1.12-1.45-1.78-1.2-.66.25-.9,1.14-.55,2.08ZM106.32,66.22c.05.07.1.16.14.28.04.11.07.22.08.3-.05-.07-.1-.16-.14-.28-.04-.11-.07-.22-.08-.3Z"/>
        </g>
        <path class="cls-7" d="M106.86,66.62c.13.35.08.69-.11.76-.19.07-.46-.15-.59-.5-.13-.35-.08-.69.11-.76.19-.07.46.15.59.5Z"/>
        <path class="cls-17" d="M106.78,66.88c.09.24.06.48-.08.53-.13.05-.32-.1-.41-.34-.09-.24-.06-.48.08-.53.13-.05.32.1.41.34Z"/>
      </g>
      <path class="cls-17" d="M101.99,64.98l1.29-.09c2.39,3.67,4.53,10.86,4.53,10.86-11.23,1.82-19.57,3.62-19.57,3.62l-.63-1.21c5.39-1.23,18.39-3.17,18.39-3.17-2.64-9.29-4.01-10.02-4.01-10.02Z"/>
      <g>
        <g>
          <path class="cls-10" d="M111.75,65.8c.33-.12.78.25,1,.85.22.59.14,1.17-.19,1.3-.33.12-.78-.25-1-.85-.22-.59-.14-1.17.19-1.3Z"/>
          <path class="cls-21" d="M110.85,66.19c-.05.35,0,.75.14,1.13.29.77.87,1.26,1.44,1.26.12,0,.23-.02.34-.06.25-.09.46-.29.58-.56.18-.41.17-.97-.03-1.52-.14-.38-.37-.71-.64-.94-.36-.3-.78-.4-1.14-.26-.37.14-.62.49-.69.95ZM112.04,66.58c.05.07.1.16.14.28.04.11.07.22.08.3-.05-.07-.1-.16-.14-.28-.04-.11-.07-.22-.08-.3Z"/>
        </g>
        <path class="cls-7" d="M112.59,66.98c.13.35.08.69-.11.76-.19.07-.46-.15-.59-.5-.13-.35-.08-.69.11-.76.19-.07.46.15.59.5Z"/>
        <path class="cls-17" d="M112.5,67.24c.09.24.06.48-.08.53-.13.05-.32-.1-.41-.34-.09-.24-.06-.48.08-.53.13-.05.32.1.41.34Z"/>
      </g>
      <g>
        <g>
          <path class="cls-10" d="M113.86,73.05c.35-.07.73.38.85,1,.12.62-.06,1.18-.4,1.25-.35.07-.73-.38-.85-1-.12-.62.06-1.18.4-1.25Z"/>
          <path class="cls-21" d="M113.08,72.92c-.25.37-.33.93-.22,1.5.08.4.25.77.47,1.03.25.3.57.46.9.46.06,0,.13,0,.19-.02h0c.7-.14,1.07-.98.88-1.96-.11-.57-.4-1.05-.77-1.3-.24-.16-.52-.22-.79-.17-.26.05-.5.21-.66.46ZM114.02,73.87c.04.08.07.18.09.3s.03.22.03.31c-.04-.08-.07-.18-.09-.3-.02-.12-.03-.22-.03-.31Z"/>
        </g>
        <path class="cls-7" d="M114.49,74.36c.07.37-.03.69-.24.73-.2.04-.43-.22-.5-.59-.07-.36.03-.69.24-.73.2-.04.43.22.5.59Z"/>
        <path class="cls-17" d="M114.36,74.6c.05.25-.02.48-.16.51-.14.03-.29-.15-.35-.41-.05-.25.02-.48.16-.51.14-.03.3.15.34.41Z"/>
      </g>
      <g>
        <g>
          <path class="cls-10" d="M115.19,79.27c.35-.07.73.38.85,1,.12.62-.06,1.18-.4,1.25-.35.07-.73-.38-.85-1-.12-.62.06-1.18.4-1.25Z"/>
          <path class="cls-21" d="M114.41,79.13c-.25.37-.33.93-.22,1.5.18.89.75,1.49,1.37,1.49.06,0,.13,0,.19-.02h0c.7-.14,1.07-.98.88-1.96-.11-.57-.4-1.06-.77-1.3-.24-.16-.52-.22-.79-.17-.26.05-.5.21-.66.46ZM115.35,80.09c.04.08.07.18.09.3.02.12.03.22.03.31-.04-.08-.07-.18-.09-.3-.02-.12-.03-.22-.03-.31Z"/>
        </g>
        <path class="cls-7" d="M115.82,80.57c.07.37-.03.69-.24.73-.2.04-.43-.22-.5-.59-.07-.37.03-.69.24-.73.2-.04.43.22.5.59Z"/>
        <path class="cls-17" d="M115.69,80.81c.05.25-.02.48-.16.51-.14.03-.3-.15-.35-.41-.05-.25.02-.48.16-.51.14-.03.29.15.34.41Z"/>
      </g>
      <g>
        <g>
          <path class="cls-10" d="M116.44,85.19c.35-.07.73.38.85,1,.12.62-.06,1.18-.4,1.25-.35.07-.73-.38-.85-1-.12-.62.06-1.18.4-1.25Z"/>
          <path class="cls-21" d="M115.66,85.05c-.25.37-.33.93-.22,1.5.18.89.75,1.49,1.37,1.49.06,0,.12,0,.19-.02h0c.39-.08.69-.38.84-.82.11-.33.12-.74.04-1.14-.11-.57-.4-1.05-.77-1.3-.24-.16-.52-.22-.79-.17-.26.05-.5.21-.66.46ZM116.6,86.01c.04.08.07.18.09.3.02.12.03.22.03.31-.04-.08-.07-.18-.09-.3-.02-.12-.03-.22-.03-.31Z"/>
        </g>
        <path class="cls-7" d="M117.07,86.49c.07.37-.03.69-.24.73-.2.04-.43-.22-.5-.59-.07-.36.03-.69.24-.73.2-.04.43.22.5.59Z"/>
        <path class="cls-17" d="M116.94,86.73c.05.25-.02.48-.16.51-.14.03-.29-.15-.34-.41-.05-.25.02-.48.16-.51.14-.03.29.15.34.41Z"/>
      </g>
      <path class="cls-7" d="M114.8,65.55s2.4-.49,2.7.22c0,0,3.01,9.18,4.09,21.71,0,0-.98,1.15-1.34-1.92,0,0-1.15-8.3-2.89-11.09,0,0-5.7-7.54-2.56-8.92Z"/>
      <path class="cls-17" d="M123.32,87.03c-.96.4-1.82.17-1.82.17-1.39-12.4-4.01-21.42-4.01-21.42l1.58.23c3.34,8.93,4.25,21.02,4.25,21.02Z"/>
      <path class="cls-21" d="M115.64,70.64c.47,2.07.89,4.15,1.26,6.24.37,2.09.7,4.18.99,6.28.15,1.05.27,2.1.41,3.15l.35,3.16-.5-3.13c-.19-1.04-.36-2.08-.56-3.12-.39-2.08-.82-4.15-1.29-6.21-.47-2.06-.98-4.11-1.55-6.14-.57-2.02-1.18-4.06-1.9-6l1.14-.41c.66,2.06,1.17,4.11,1.65,6.19Z"/>
      <path class="cls-21" d="M87.73,90.04c.82,2.84,1.68,5.67,2.57,8.48.89,2.82,1.81,5.63,2.74,8.43l-1.15.37c-.85-2.84-1.68-5.68-2.48-8.53-.8-2.85-1.58-5.71-2.3-8.58-.71-2.87-1.42-5.76-1.87-8.69-.45-2.93-.82-5.87-1.04-8.82.34,2.94.82,5.86,1.39,8.76.54,2.9,1.34,5.75,2.15,8.59Z"/>
    </g>
    <g>
      <path class="cls-7" d="M76.85,72.89s-.68,2.43,1.02,7.71l-1.66.86s-1.72-4.74-1.53-7.86c0,0,.57-1.05,2.17-.71Z"/>
      <path class="cls-21" d="M74.08,73.43v.13c-.2,3.2,1.49,7.9,1.56,8.1l.23.65,2.73-1.41-.16-.49c-1.61-4.98-1.02-7.34-1.02-7.36l.16-.61-.62-.14c-2.02-.43-2.8.96-2.83,1.02l-.06.12ZM75.27,73.8c.11-.13.38-.35.88-.38-.1,1.05-.1,3.3.99,6.86l-.59.3c-.44-1.35-1.37-4.51-1.28-6.79Z"/>
    </g>
    <path class="cls-17" d="M83.7,80.87c-3.16,1.14-4.69,1.87-4.69,1.87,1.29,6.98,8.35,21.39,8.35,21.39-4.77-5.07-10.41-22.25-10.41-22.25,2.87-1.53,6.2-2.79,6.2-2.79l.55,1.77Z"/>
    <path class="cls-17" d="M90.99,93.09c-.44,5.5,3.69,5.83,3.69,5.83,4.16,0,5.98,2.92,5.98,2.92-6.25,3.62-8.46,3.98-8.46,3.98-5.04-13.83-6.99-27.68-6.99-27.68.71,4.51,3.74,8.14,3.74,8.14,3.28,2.73,2.04,6.81,2.04,6.81Z"/>
  </g>
  <g>
    <g>
      <path class="cls-10" d="M123.96,86.32s5.62-2.27,12.67-1.81c0,0-2.07,5.49.75,9.15,0,0-4.97.26-9.07.63-1.46.13-3.8,3.67-5.97,5.52-2.52,2.14-8.26-.52-6.11-5.3.3-.66,3.06-6.04,7.72-8.2Z"/>
      <path class="cls-21" d="M115.69,94.27c-1.03,2.27-.54,4.45,1.29,5.83.94.71,2.07,1.07,3.14,1.07.98,0,1.91-.3,2.61-.9.86-.73,1.73-1.7,2.57-2.64,1.07-1.19,2.4-2.68,3.06-2.74,4.04-.37,9-.63,9.05-.63l1.15-.06-.7-.91c-2.57-3.35-.68-8.52-.66-8.57l.28-.76-.81-.05c-7.11-.47-12.7,1.75-12.94,1.85h-.03c-5.14,2.39-7.99,8.45-8.02,8.51ZM116.79,94.77c.03-.06,2.68-5.69,7.41-7.89.29-.11,5.32-2.04,11.62-1.8-.43,1.55-1.13,5.1.49,8.04-1.68.1-5.11.31-8.05.57-1.14.1-2.4,1.51-3.86,3.14-.81.91-1.65,1.84-2.45,2.52-1.04.89-2.91.79-4.25-.22-.65-.49-2.04-1.89-.92-4.37Z"/>
    </g>
    <path class="cls-7" d="M124.19,88.5s.7-.83,4.53-.99c0,0-.74,3.13,1.42,5.84,0,0-1.08-.08-2.9.47,0,0-2.45,1.92-4.41,4.39,0,0-1.96,2.72-4.48.8,0,0-1.82-1.59,1.68-6.29,0,0,1.4-2.41,4.16-4.24Z"/>
    <g>
      <g>
        <g>
          <path class="cls-12" d="M138.08,84.56c-2.77,5.65.45,9.52.45,9.52l-7.24,1.03c-3.87-6.61.3-12.46.3-12.46,2.61.04,6.5,1.91,6.5,1.91Z"/>
          <path class="cls-6" d="M131.09,82.3c-.04.06-4.35,6.25-.33,13.12l.21.35,8.71-1.24-.69-.83c-.12-.15-2.92-3.66-.37-8.87l.27-.55-.55-.26c-.16-.08-4.04-1.93-6.75-1.97h-.32s-.18.25-.18.25ZM131.9,83.27c1.86.13,4.3,1.12,5.37,1.59-1.8,4.15-.59,7.31.22,8.76l-5.89.84c-2.91-5.33-.43-10.02.29-11.19Z"/>
        </g>
        <path class="cls-16" d="M136.81,85.55s-1.45,3.36.85,7.79l-5.95,1.07s-3.17-8.71,5.1-8.86Z"/>
        <g>
          <path class="cls-6" d="M134.78,88.88c.17-.25.37-.49.58-.72.21-.23.44-.44.72-.63-.07.33-.19.62-.33.9-.14.28-.3.54-.47.8-.18.25-.37.5-.58.72-.21.23-.44.44-.72.63.07-.33.2-.61.33-.9.14-.28.3-.54.47-.8Z"/>
          <path class="cls-6" d="M135.23,88.7c.16.27.29.54.41.83.11.29.22.59.26.92-.26-.2-.47-.44-.67-.68-.19-.25-.37-.5-.52-.77-.16-.27-.29-.55-.41-.83-.11-.29-.22-.59-.26-.92.27.2.47.44.67.68.19.25.37.5.52.77Z"/>
        </g>
        <g>
          <path class="cls-6" d="M132.33,88.71c.17-.25.37-.5.58-.72.21-.23.44-.44.72-.63-.07.33-.19.62-.33.9-.14.28-.3.54-.47.8-.18.25-.37.5-.58.72-.21.23-.44.44-.72.63.07-.32.2-.61.33-.9.14-.28.3-.54.47-.8Z"/>
          <path class="cls-6" d="M132.78,88.52c.16.27.29.55.41.83.11.29.22.59.26.92-.26-.2-.47-.44-.67-.68-.19-.24-.37-.5-.52-.77-.16-.27-.29-.55-.41-.83-.11-.29-.21-.59-.26-.92.26.2.47.44.67.68.19.25.37.5.52.77Z"/>
        </g>
      </g>
      <g>
        <g>
          <path class="cls-12" d="M139.49,83.34c2.16-.31,4.93-.18,4.93-.18l.78,1.62c.83-.1.91.07.91.07l.66,1.68c.81.2,1.24,1.4,1.24,1.4-.12,2.2,1.27,3.6,1.27,3.6.59.89-2.33,2.09-2.33,2.09.15,1.63-1.75,1.96-1.75,1.96-1.46-.55-4.52.86-4.52.86-4.91-4.05-3.93-8.89-3.93-8.89.32-3.93,2.73-4.21,2.73-4.21Z"/>
          <path class="cls-6" d="M136.16,87.47c-.09.52-.82,5.36,4.14,9.44l.29.24.34-.16c1.09-.5,3.16-1.18,4.05-.85l.15.06.16-.03c.77-.14,2.13-.76,2.25-2.16.76-.35,2.1-1.07,2.36-1.91.1-.32.05-.64-.13-.92l-.08-.09s-1.2-1.25-1.1-3.14v-.12s-.03-.11-.03-.11c-.05-.14-.46-1.25-1.34-1.67l-.58-1.47c-.19-.39-.69-.46-1.09-.45l-.76-1.56-.36-.02c-.12,0-2.85-.13-5.04.18-.24.03-2.89.5-3.25,4.73ZM137.35,87.67v-.07c.28-3.34,2.14-3.65,2.22-3.66l-.08-.6.09.6c1.63-.23,3.65-.21,4.46-.18l.82,1.68.43-.05c.17-.02.29-.03.38-.03l.66,1.69.31.07c.33.08.63.6.77.91-.06,1.99.96,3.36,1.33,3.79-.19.3-1.11.88-2.01,1.24l-.41.17.04.45c.08.87-.77,1.19-1.12,1.28-.26-.07-.54-.1-.84-.1-1.31,0-2.88.59-3.6.89-4.26-3.72-3.45-8.02-3.44-8.07Z"/>
        </g>
        <path class="cls-16" d="M139.9,86c1.7-.88,3.58-.46,3.58-.46,1.44.51.9,1.6.9,1.6,1.67.06,2.47,2.22,2.47,2.22.51,1.51,1.59,2.48,1.59,2.48-.08.75-1.4.88-1.4.88-2.36-2.48-4.18-1.23-4.18-1.23,1.4.19,2.65,1.54,2.65,1.54.83,1.04-.49,1.79-.49,1.79-3.21-.1-3.93.77-3.93.77-3.68-4.49-2.22-7.67-2.22-7.67.24-.98,1.03-1.92,1.03-1.92Z"/>
        <g>
          <g>
            <path class="cls-6" d="M146.34,93.69h0s0,0,0,0c0,0-.01.02,0,0Z"/>
            <path class="cls-6" d="M142.98,90.15c.02.1.04.21.06.31.06.2.14.39.26.54.12.15.27.27.44.34.16.07.37.1.52.09h0s.04,0,.04,0c.34.04.68.08,1.02.16.34.07.68.19,1.02.35.33.17.68.41.93.81.12.19.21.43.24.67.02.12.02.25,0,.37,0,.06-.01.12-.03.19,0,.03-.01.06-.02.1-.01.04-.02.06-.04.12l-1.08-.52s0,0,0-.01c0-.01.01-.03.02-.05.01-.04.03-.08.03-.12.01-.08,0-.17-.03-.27-.07-.19-.24-.39-.46-.57-.23-.17-.5-.32-.79-.44-.29-.13-.59-.22-.9-.32h.05c-.28-.03-.49-.11-.7-.25-.2-.13-.36-.32-.47-.53-.11-.21-.15-.43-.17-.65,0-.11,0-.22,0-.33l.03-.32.03.32Z"/>
          </g>
          <path class="cls-6" d="M145.69,90.13c.21-.11.43-.22.65-.3-.33.34-.6.72-.87,1.1-.27.38-.53.78-.78,1.17l-.86-.85c.41-.26.81-.51,1.23-.76.21-.12.42-.24.63-.35Z"/>
          <polygon class="cls-6" points="146.81 87.13 143.2 86.7 146.74 85.92 146.81 87.13"/>
          <polygon class="cls-6" points="145.21 85.38 142.45 84.77 145.21 84.17 145.21 85.38"/>
        </g>
      </g>
    </g>
  </g>
  <g>
    <g>
      <path class="cls-10" d="M139.12,64.61c10.65-2.55,18.24-2.06,18.24-2.06,7.32,20.42,7.14,25.69,7.14,25.69,3.1,17.06-11.64,30.41-11.83,30.37-.15.12-19.35-5.1-24.32-21.7,0,0-2.55-4.61-5.29-26.14,0,0,1.62-2.7,16.07-6.17Z"/>
      <path class="cls-21" d="M122.53,70.47l-.11.18.03.21c2.59,20.33,5.01,25.65,5.33,26.29,4.56,15.11,20.39,20.76,23.52,21.74.73.23,1.11.33,1.34.34.02,0,.04,0,.06,0,.03,0,.07,0,.11-.01.06-.01.11-.04.15-.07.2-.11.49-.37,1.05-.92,2.34-2.29,13.88-14.51,11.09-30.04,0-.72-.26-6.55-7.17-25.85l-.13-.37-.4-.03c-.08,0-7.8-.47-18.42,2.08-14.29,3.43-16.27,6.14-16.45,6.44ZM123.68,70.97c.61-.58,3.66-2.91,15.58-5.77,9.08-2.18,15.99-2.12,17.67-2.07,7.06,19.77,6.97,25.04,6.97,25.09v.06s0,.06,0,.06c1.54,8.48-1.52,15.97-4.36,20.77-2.9,4.9-6.21,8.15-7.02,8.85h-.01s0,0,0,0c-1.05-.26-5.46-1.65-10.27-4.7-4.71-2.99-10.83-8.28-13.31-16.53l-.05-.12s-2.53-4.86-5.19-25.65Z"/>
    </g>
    <path class="cls-7" d="M154.36,63.43c6.7,19.19,6.83,24.95,6.83,24.95,2.97,15.97-9.66,28.21-9.83,28.17-.13.11-16.94-5.07-21.54-20.65,0,0-2.3-4.35-5.03-24.49,0,0,4.49-3.47,14.39-5.62,9.8-2.57,15.18-2.36,15.18-2.36Z"/>
    <path class="cls-17" d="M139.21,65.48c6.13-1.47,11.21-1.9,14.33-2.01-2.83.31-6.73.9-11.4,2.02-13.61,3.26-15.61,6.21-15.61,6.21,2.58,20.26,4.99,24.61,4.99,24.61,4.69,15.63,20.26,19.74,20.41,19.63.11.02,4.8-2.92,10.02-11.93-3.41,8.37-9.49,13.83-9.61,13.81-.15.12-18.74-4.94-23.57-21.03,0,0-2.47-4.47-5.13-25.33,0,0,1.57-2.62,15.57-5.97Z"/>
    <g>
      <g>
        <path class="cls-19" d="M139.24,80.88c-1.75-5.36-3.82-9.52-3.82-9.52,3.44-3.66,8.89-1.83,8.89-1.83-1.41,3.39-.92,6.76-.62,10.16,6.27-.99,10.75-4.33,10.75-4.33,4.3,3.87,1.62,7.42,1.62,7.42-4.41-.45-8.48-.61-11.88.17,4.04,17.06,10.04,22.39,10.04,22.39-4.81,7.84-10.51,2.84-10.51,2.84.1-9.63-2.6-19.34-3.61-24.03-6.16,2.22-9.63,4.25-9.63,4.25-3.56-3.44-1.28-7.5-1.28-7.5,3.07.58,7.28.64,10.04-.03Z"/>
        <path class="cls-14" d="M128.8,80.69s-2.41,4.41,1.36,8.05l.25.24.3-.17s3.33-1.93,9.07-4.04c.14.63.3,1.33.48,2.11,1.23,5.28,3.08,13.27,3,21.31v.21s.15.14.15.14c.09.08,1.96,1.69,4.51,1.69.29,0,.59-.02.9-.07,2.19-.33,4.14-1.87,5.79-4.56l.2-.32-.28-.25c-.06-.05-5.85-5.38-9.79-21.71,3.52-.71,7.67-.44,11.28-.07l.25.03.15-.2s2.87-3.93-1.68-8.03l-.28-.25-.3.22s-4.24,3.11-10.07,4.16c-.01-.14-.03-.28-.04-.41-.3-3.12-.58-6.06.67-9.05l.19-.45-.46-.15c-.23-.08-5.77-1.88-9.36,1.95l-.22.23.14.28s1.95,3.94,3.63,8.98c-2.56.51-6.39.48-9.37-.08l-.32-.06-.16.28ZM129.46,81.42c3.27.57,7.29.53,9.89-.1l.48-.12-.15-.47c-1.48-4.53-3.2-8.25-3.7-9.29,2.63-2.55,6.43-1.93,7.74-1.62-1.11,3.04-.83,6.07-.55,9,.03.3.06.6.08.9l.04.48.48-.08c5.44-.86,9.51-3.42,10.64-4.19,3.07,2.96,1.87,5.61,1.43,6.36-3.78-.38-8.09-.63-11.75.21l-.44.1.11.44c3.58,15.14,8.65,21.08,9.9,22.36-1.46,2.27-3.13,3.56-4.96,3.83-2.18.33-3.99-.88-4.52-1.28.05-8.07-1.8-16.02-3.03-21.3-.23-1-.43-1.86-.59-2.61l-.11-.51-.49.18c-5.1,1.84-8.41,3.57-9.4,4.11-2.45-2.6-1.49-5.52-1.1-6.43Z"/>
      </g>
      <path class="cls-22" d="M143.44,69.79c-1.77-.23-4.18-.06-6.37,2.2,0,0,1.98,4.06,3.59,8.97-.92.22-1.69.2-1.16.07-.43-3.07-3.49-9.56-3.49-9.56,3.33-3.55,7.45-1.73,7.44-1.69Z"/>
      <path class="cls-22" d="M154.77,76.42c-1.4.88-4.98,2.89-9.56,3.64,0-.05,0-.1-.01-.15,5.38-1.18,9.1-3.95,9.1-3.95.17.15.32.31.47.46Z"/>
      <path class="cls-22" d="M156.23,81.87c-.14.28-.26.43-.26.43-3.73-.38-7.2-.55-10.22-.08,0-.01,0-.02,0-.03,3.03-.7,6.61-.64,10.48-.32Z"/>
      <path class="cls-22" d="M145.53,107.35s4.27,2.14,7.97-1.9c.09.1.14.14.14.14-4.43,6.66-9.44,2.33-9.44,2.33,0-9.6-2.62-19.29-3.67-24.1.43-.17.61-.27,1.07-.44.95,4.48,4.01,14.77,3.92,23.98Z"/>
      <path class="cls-22" d="M130.42,81.78c-.28.87-1.31,2.91.73,5.55-.66.4-.79.59-.79.59-2.84-3.47-1.14-6.45-1.14-6.45.38.11.79.22,1.2.3Z"/>
    </g>
  </g>
</svg>