<?xml version="1.0" encoding="UTF-8"?>
<svg id="Layer_1" data-name="Layer 1" xmlns="http://www.w3.org/2000/svg" version="1.1" viewBox="0 0 150 150">
  <defs>
    <style>
      .cls-1 {
        fill: #f3e0d8;
      }

      .cls-1, .cls-2, .cls-3, .cls-4, .cls-5, .cls-6, .cls-7, .cls-8, .cls-9, .cls-10, .cls-11, .cls-12, .cls-13, .cls-14, .cls-15, .cls-16, .cls-17, .cls-18, .cls-19, .cls-20 {
        stroke-width: 0px;
      }

      .cls-2 {
        fill: #fccaa7;
      }

      .cls-3 {
        fill: #f9edee;
      }

      .cls-4 {
        fill: #f4956e;
      }

      .cls-5 {
        fill: #fbe6a9;
      }

      .cls-6 {
        fill: #282728;
      }

      .cls-7 {
        fill: #ccc7ca;
      }

      .cls-8 {
        fill: #887f7c;
      }

      .cls-21 {
        opacity: .78;
      }

      .cls-9 {
        fill: #9584ab;
      }

      .cls-10 {
        fill: #bed5ef;
      }

      .cls-11 {
        fill: #442d3e;
      }

      .cls-12 {
        fill: #eaa498;
      }

      .cls-13 {
        fill: #683a57;
      }

      .cls-14 {
        fill: #4e3b6e;
      }

      .cls-15 {
        fill: #785b72;
      }

      .cls-16 {
        fill: #fff;
      }

      .cls-17 {
        fill: #8c2e26;
      }

      .cls-18 {
        fill: #cd1e54;
      }

      .cls-19 {
        fill: #695a64;
      }

      .cls-20 {
        fill: #f1749b;
      }
    </style>
  </defs>
  <g>
    <g>
      <g>
        <path class="cls-11" d="M24.94,31.71c.51-2.14,2.58-1.26,2.58-1.26.06-2.4,3.16-1.34,3.16-1.34l1.73.86c1.44,1.93,1.06,3.49,1.06,3.49l1.1,3.25c-1.26,4.36-6.24,3.55-6.24,3.55l-2.09.95-1.76-.13c-2.67-.67-3.42-6.49-3.42-6.49.78-2.7,3.88-2.9,3.88-2.9Z"/>
        <path class="cls-6" d="M20.5,34.45l-.03.11.02.12c.08.64.88,6.23,3.85,6.98l.1.02,1.91.14,2.08-.95c1.95.25,5.63-.27,6.7-3.98l.05-.17-1.11-3.29c.07-.51.12-2.03-1.19-3.78l-.08-.11-1.92-.95c-.2-.07-1.97-.64-3.09.14-.26.18-.57.5-.72,1.02-.42-.07-.97-.07-1.49.2-.49.25-.85.67-1.06,1.26-.95.16-3.28.8-3.99,3.26ZM21.64,34.66c.71-2.16,3.23-2.36,3.34-2.37l.42-.03.1-.41c.11-.46.3-.75.58-.89.51-.25,1.21.02,1.21.03l.78.33.02-.85c.02-.58.26-.75.34-.81.53-.37,1.64-.13,2.03,0l1.57.78c1.15,1.61.89,2.85.88,2.91l-.03.16.05.16,1.04,3.08c-1.18,3.62-5.36,3-5.54,2.97l-.17-.03-2.12.96-1.56-.11c-1.8-.51-2.7-4.29-2.92-5.88Z"/>
      </g>
      <path class="cls-6" d="M20.5,34.45l-.03.11v.12c.1.64.89,6.23,3.86,6.98l.1.02,1.91.14,2.07-.95c1.95.25,5.63-.27,6.7-3.98l.05-.17-1.11-3.29c.07-.51.12-2.03-1.19-3.78l-.08-.11-1.92-.95c-.2-.07-1.97-.64-3.09.14-.26.18-.57.5-.72,1.02-.42-.07-.97-.07-1.49.2-.49.25-.85.67-1.06,1.26-.95.16-3.28.8-3.99,3.26ZM21.64,34.66c.71-2.18,3.31-2.37,3.33-2.37l.42-.03.1-.41c.11-.46.3-.75.58-.89.51-.25,1.21.02,1.21.03l.78.33.02-.85c.02-.59.26-.75.34-.81.54-.37,1.64-.13,2.03,0l1.57.78c1.15,1.61.89,2.85.88,2.91l-.03.16.05.16,1.04,3.08c-1.18,3.64-5.36,3-5.54,2.97l-.17-.03-2.12.97-1.56-.11c-1.8-.51-2.7-4.29-2.93-5.88Z"/>
    </g>
    <g>
      <rect class="cls-9" x="16.94" y="31.29" width="19.79" height="5.47" transform="translate(-9.15 9.89) rotate(-17.89)"/>
      <path class="cls-19" d="M35.78,27.66l-19.93,6.43,2.03,6.3,19.93-6.43-2.03-6.3ZM35.04,29.11l1.33,4.11-17.74,5.73-1.33-4.11,17.74-5.73Z"/>
    </g>
    <g>
      <g>
        <path class="cls-9" d="M16.88,31.63c3.75,4.58,3.55,11,3.55,11-4.15.79-5.71-4.05-5.71-4.05-1.96-5.99,2.17-6.95,2.17-6.95Z"/>
        <path class="cls-19" d="M14.23,33.06c-.81,1.44-.83,3.36-.07,5.7.54,1.67,2.31,4.53,5.38,4.53.32,0,.65-.03.99-.1l.45-.09v-.46c.02-.27.17-6.68-3.66-11.38l-.23-.28-.35.08c-.07.02-1.61.39-2.51,1.99ZM15.22,33.65c.43-.78,1.07-1.17,1.46-1.34,2.75,3.61,3.12,8.31,3.16,9.81-3.25.26-4.53-3.55-4.59-3.72-.66-2.01-.67-3.61-.03-4.76Z"/>
      </g>
      <path class="cls-7" d="M16.91,32.92c1.54,1.57,1.96,2.87,1.96,2.87.5,1.75.51,3.25.51,3.25-1.05-3.06-2.96-3.64-2.96-3.64-1.54.48-1.27,3.17-1.27,3.17-1.89-4.44,1.77-5.65,1.77-5.65Z"/>
      <path class="cls-16" d="M16.65,32.06c1.28,1.21,1.85,2.95,1.85,2.95-1.06-1.83-2.04-1.6-2.04-1.6-2.14,1.25-1.75,4.31-1.75,4.31-1.34-4.15,1.94-5.67,1.94-5.67Z"/>
    </g>
    <g>
      <path class="cls-13" d="M28.28,37.84l-.47.19c0-.16,0-.33.02-.5.15.09.3.18.45.3Z"/>
      <path class="cls-6" d="M26.87,37.15c.26.06.5.15.74.26.08.04.15.08.23.12-.02.17-.02.34-.02.5l.47-.19c-.15-.12-.3-.22-.45-.3.02-.15.05-.29.11-.43.12-.31.33-.59.59-.8.26-.21.55-.36.84-.47.15-.06.3-.1.45-.13.16-.03.29-.06.49-.08v1.15c-.09-.01-.22-.01-.33,0-.11,0-.23.01-.34.03-.22.04-.43.1-.62.2-.19.1-.33.24-.45.41-.12.17-.17.4-.21.63l-.11.62-.36-.42c-.14-.16-.32-.33-.51-.46-.19-.14-.39-.26-.61-.36-.22-.09-.45-.14-.69-.16-.24-.02-.48.04-.72.12.21-.12.45-.23.71-.26.25-.03.52-.02.78.03Z"/>
    </g>
    <g>
      <path class="cls-11" d="M31.12,28.49l.84.48c1.89,1.37,1.06,4.64,1.06,4.64-.84-2.92-3.75-.45-3.75-.45.66-2.59-2.08-3.47-2.08-3.47.87-2.55,3.93-1.21,3.93-1.21Z"/>
      <path class="cls-6" d="M26.65,29.51l-.19.55.56.18c.23.08,2.21.79,1.7,2.78l-.44,1.74,1.37-1.16c.33-.27,1.41-1.01,2.1-.8.32.1.56.42.72.97l.59,2.05.52-2.07c.04-.15.9-3.67-1.28-5.25l-.05-.03-.89-.51c-.07-.03-1.8-.77-3.23-.15-.7.31-1.2.88-1.48,1.7ZM27.97,29.4c.16-.24.37-.42.62-.53.89-.39,2.09.06,2.28.14l.78.45c.78.59.98,1.63.98,2.51-.16-.12-.35-.2-.54-.26-.75-.23-1.54.03-2.15.34-.14-1.33-1.12-2.2-1.97-2.64Z"/>
    </g>
    <g>
      <g>
        <path class="cls-11" d="M26.98,29.64c3.04,1.39,2.39,3.23,2.39,3.23-.12,1.83-2.46,3.11-2.46,3.11-1.49.33-1.72-2.32-1.72-2.32-.15-2.83-1.59-2.37-1.59-2.37,1.04-2.81,3.38-1.65,3.38-1.65Z"/>
        <path class="cls-6" d="M23.06,31.09l-.41,1.11,1.12-.36s.01,0,.04,0c.05,0,.15.01.25.09.14.11.48.49.55,1.77.02.21.19,1.9,1.13,2.59.27.2.58.3.91.3.12,0,.25-.01.38-.04l.08-.02.07-.04c.11-.06,2.58-1.43,2.76-3.51.11-.45.4-2.42-2.72-3.85-.03-.02-1.17-.57-2.36-.1-.81.32-1.42,1.02-1.81,2.07ZM24.46,30.83c.23-.36.5-.61.82-.74.7-.28,1.44.06,1.45.07,2.49,1.14,2.12,2.48,2.1,2.53l-.02.06v.08c-.09,1.19-1.47,2.23-2.09,2.59-.14.01-.22-.03-.28-.07-.41-.3-.63-1.3-.67-1.74-.07-1.31-.43-2.21-1.06-2.64-.08-.06-.16-.1-.24-.14Z"/>
      </g>
      <path class="cls-6" d="M23.06,31.09l-.41,1.1,1.12-.36h0s.14-.03.29.09c.14.11.49.5.56,1.77.02.21.19,1.9,1.13,2.59.37.27.82.36,1.29.26l.08-.02.07-.04c.11-.06,2.58-1.43,2.76-3.51.11-.45.4-2.42-2.72-3.85-.13-.06-1.23-.55-2.36-.1-.81.32-1.41,1.02-1.81,2.08ZM24.46,30.83c.23-.36.51-.61.83-.74.7-.28,1.43.07,1.44.07h.02c2.47,1.14,2.1,2.48,2.09,2.53l-.02.06v.08c-.08,1.18-1.47,2.23-2.09,2.6-.14.01-.22-.03-.28-.07-.41-.3-.64-1.3-.67-1.74,0-.12-.02-.25-.03-.36-.11-1.11-.46-1.89-1.04-2.28-.08-.06-.16-.1-.24-.14Z"/>
      <polygon class="cls-13" points="23.77 31.84 23.77 31.84 23.77 31.84 23.77 31.84"/>
    </g>
    <g>
      <g>
        <path class="cls-11" d="M23.26,31.07c1.34.18,2.02,1.75,2.02,1.75.53,4.6-2.46,4.38-2.46,4.38-1.82-.27-2.32-4.12-2.32-4.12.92-1.87,2.76-2,2.76-2Z"/>
        <path class="cls-6" d="M19.99,32.81l-.08.16.02.17c.06.44.61,4.3,2.8,4.62h.04s.04,0,.1,0c.31,0,1.27-.07,2.04-.87.83-.87,1.15-2.26.93-4.15v-.08s-.04-.08-.04-.08c-.03-.08-.83-1.87-2.47-2.09h-.06s-.06,0-.06,0c-.09,0-2.18.17-3.23,2.32ZM21.1,33.16c.7-1.25,1.88-1.48,2.15-1.52.82.15,1.34,1.06,1.47,1.33.15,1.45-.06,2.52-.61,3.11-.48.51-1.1.53-1.22.53-.98-.18-1.6-2.29-1.78-3.45Z"/>
      </g>
      <path class="cls-6" d="M19.99,32.81l-.08.15.02.17c.06.44.61,4.29,2.8,4.62h.04c.05,0,1.23.08,2.14-.86.83-.87,1.14-2.27.93-4.15v-.08s-.04-.08-.04-.08c-.03-.08-.83-1.87-2.47-2.09h-.11c-.09,0-2.18.17-3.23,2.31ZM21.1,33.16c.7-1.25,1.88-1.48,2.15-1.52.82.15,1.34,1.06,1.47,1.33,0,.01,0,.02,0,.03.15,1.43-.07,2.49-.62,3.08-.48.51-1.1.53-1.22.53-.98-.18-1.6-2.29-1.78-3.45Z"/>
    </g>
    <g>
      <path class="cls-15" d="M23,31.18c1.21-.39,1.72,1.23,1.72,1.23.5,1.5-.17,2.79-.17,2.79-1.84,1.17-1.53-1.71-1.53-1.71-.92.26-1.52-.61-1.52-.61-.09-1.03,1.5-1.7,1.5-1.7Z"/>
      <path class="cls-6" d="M22.9,33.54c.21-.18.44-.33.67-.48.23-.14.47-.28.71-.4.24-.13.48-.24.75-.36l.26,1.12c-.24,0-.5.03-.75.06-.25.03-.5.07-.75.11-.25.05-.5.11-.74.19-.24.08-.47.19-.65.39.09-.25.3-.46.5-.64Z"/>
    </g>
    <g>
      <path class="cls-15" d="M25.31,30.08c1.15-.56,2.78.87,2.78.87,1.21,1.39.23,2.78.23,2.78-1.66,1.42-1.5-1.59-1.5-1.59-.88.39-1.96-1.17-1.96-1.17-.24-1.01.44-.89.44-.89Z"/>
      <path class="cls-6" d="M27.05,31.76c.21-.18.42-.34.65-.5.22-.16.44-.31.69-.46l.42,1.07c-.23.04-.49.1-.73.17-.25.07-.49.14-.73.22-.24.08-.47.18-.7.29-.22.12-.44.25-.59.48.05-.26.23-.5.41-.7.18-.2.38-.39.59-.57Z"/>
    </g>
    <g>
      <path class="cls-15" d="M29.09,28.67c1.15-.56,2.78.87,2.78.87.71,1.41.63,2.28.63,2.28-1.66,1.42-2.28-1.23-2.28-1.23-.88.39-1.96-1.17-1.96-1.17.21-.75.82-.75.82-.75Z"/>
      <path class="cls-6" d="M30.71,30.08c.21-.18.42-.34.65-.5.22-.16.44-.31.69-.46l.42,1.07c-.24.04-.49.1-.73.17-.25.06-.49.14-.73.22-.24.08-.47.18-.7.3-.22.12-.44.25-.59.48.05-.26.23-.5.41-.7.18-.2.38-.39.59-.57Z"/>
    </g>
    <g>
      <g>
        <path class="cls-11" d="M29.75,32.68c4.06-1.64,4.2.3,4.2.3l.51,1.05c.77,3.05-.96,4.57-.96,4.57l-2.36-2.62c-3.65-.21-3.23-2.03-3.23-2.03.14-1.13,1.84-1.27,1.84-1.27Z"/>
        <path class="cls-6" d="M29.62,32.12c1.91-.76,3.31-.87,4.16-.34.52.33.68.79.73,1.02l.47.97.04.11c.85,3.35-1.06,5.07-1.14,5.15l-.76-.86c.06-.05,1.44-1.34.8-3.95l-.53-1.09v-.11s-.04-.15-.22-.26c-.24-.15-1.04-.41-3.2.46l-.08.03h-.09s-1.23.15-1.31.78v.04s-.05.25.17.51c.21.26.82.73,2.52.82l-.07,1.15c-1.68-.1-2.82-.54-3.4-1.31-.26-.34-.35-.68-.38-.94-.02-.21,0-.37.01-.44.16-1.2,1.46-1.65,2.27-1.74Z"/>
      </g>
      <path class="cls-15" d="M32.89,32.53c.63,2.32-.8,2.34-.8,2.34-3.54.73-2.81-1.35-2.81-1.35,1.3-1,3.61-.99,3.61-.99Z"/>
    </g>
    <g>
      <g>
        <g>
          <g>
            <path class="cls-9" d="M91.46,13.67l.07.21c-.43,1.53-4.3,3.92-4.3,3.92-12.29,6.58-49.05,18.1-49.05,18.1l-1.4-4.35-.07-.21-1.4-4.35s36.56-12.15,50.38-13.99c0,0,4.54-.32,5.78.67Z"/>
            <path class="cls-19" d="M35.12,26.44l-.54.18,3.22,9.99.54-.17c.37-.12,36.96-11.6,49.15-18.14l.03-.02c.68-.42,4.08-2.6,4.55-4.26l.05-.17-.17-.54-.14-.11c-1.35-1.08-5.38-.85-6.18-.8h-.04c-13.71,1.83-50.12,13.9-50.48,14.02ZM36.03,27.36c4.59-1.51,37.01-12.09,49.71-13.79,1.53-.11,4.11-.07,5.13.41-.54.98-2.62,2.52-3.92,3.33-11.3,6.05-43.78,16.42-48.39,17.87l-2.52-7.82Z"/>
          </g>
          <path class="cls-7" d="M39.31,27.19c40.06-13.52,51.5-13.31,51.5-13.31-15.42,9.1-55.03,17.91-55.03,17.91-3.28-5.87,3.53-4.6,3.53-4.6Z"/>
          <path class="cls-16" d="M90.66,13.94s.18.08.15.15c-1.06-.02-5.62.87-5.62.87-12.09,2.16-41.06,12.26-48.48,14.89l-.82-2.53s35.73-11.88,49.24-13.68c0,0,4.32-.68,5.53.29Z"/>
          <path class="cls-16" d="M44.37,32.08c-4.48.93-5.1-.27-5.1-.27,10.22-3.12,32.62-11.17,32.62-11.17-11.6,7.45-27.52,11.43-27.52,11.43Z"/>
          <g>
            <path class="cls-19" d="M35.84,30.11l.12.52c-.17.06-.33.11-.5.16l.37-.68Z"/>
            <path class="cls-19" d="M35.75,32.2c.19-.05.37-.11.56-.17l.14.58-.7-.42Z"/>
            <path class="cls-19" d="M46.92,25.85c3.96-1.23,7.92-2.45,11.91-3.59,3.98-1.15,7.98-2.24,12-3.27,2.01-.49,4.02-1,6.05-1.45,1.01-.23,2.02-.48,3.03-.69l3.04-.63c-2,.54-4.01,1.05-6,1.61-2,.54-3.98,1.13-5.97,1.7-3.97,1.16-7.93,2.37-11.89,3.59-3.95,1.24-7.9,2.48-11.83,3.76-3.77,1.22-7.54,2.46-11.29,3.73l-.12-.52-.37.68c.17-.06.33-.11.5-.16l.34,1.42c-.19.05-.37.11-.56.17l.7.42-.14-.58c3.53-.98,7.03-2.12,10.52-3.25,1.84-.6,3.68-1.22,5.51-1.84l5.51-1.87,22.01-7.56c-3.59,1.47-7.21,2.87-10.82,4.28-3.62,1.39-7.25,2.76-10.9,4.09-3.64,1.34-7.3,2.63-10.97,3.89-3.67,1.26-7.36,2.46-11.12,3.52l-.56.16-.14-.57-.62-2.51-.13-.51.5-.17c3.93-1.33,7.87-2.6,11.83-3.85Z"/>
          </g>
        </g>
        <g>
          <path class="cls-9" d="M37.11,31.36c1.77,5.5,2.6,10.15,1.85,10.39-.75.24-2.8-4.02-4.58-9.51-1.77-5.5-2.6-10.15-1.85-10.39.75-.24,2.8,4.02,4.58,9.51Z"/>
          <path class="cls-19" d="M31.95,25.17c.35,1.99,1.02,4.56,1.89,7.24.87,2.68,1.82,5.16,2.7,6.98,1.11,2.32,1.77,2.95,2.34,2.95.09,0,.18-.02.26-.04.63-.2.94-.94.41-3.87-.35-1.99-1.03-4.56-1.89-7.24-.87-2.68-1.82-5.16-2.7-6.98-1.29-2.69-1.97-3.1-2.6-2.9s-.94.94-.41,3.87ZM32.82,22.73c.76,1.02,2.24,4.14,3.74,8.8,1.51,4.66,2.13,8.06,2.11,9.33-.76-1.02-2.24-4.14-3.74-8.8-1.51-4.66-2.13-8.06-2.11-9.33Z"/>
        </g>
      </g>
      <path class="cls-7" d="M35.49,28.01c.79,2.3,1.21,4.23.63,4.42-.58.19-1.33-1.64-2.08-3.95-.99-3.06-.89-5.24-.89-5.24,0,0,.9.57,2.34,4.77Z"/>
    </g>
  </g>
  <g>
    <g>
      <path class="cls-19" d="M55.08,91.86c2.87-.47,5.61,1.5,6.08,4.37l.42,2.57c.47,2.88-1.49,5.61-4.37,6.08l-.15.56c-2.87.47-5.95-2.49-6.43-5.36l.13-1.22c-.06-3.64,1.43-6.53,4.31-7Z"/>
      <path class="cls-14" d="M50.2,98.83l-.13,1.26v.08c.26,1.53,1.2,3.12,2.51,4.28,1.2,1.05,2.58,1.62,3.89,1.62.24,0,.47-.02.7-.06l.37-.06.15-.58c1.39-.32,2.6-1.13,3.44-2.3.92-1.28,1.28-2.83,1.03-4.37l-.42-2.57c-.52-3.19-3.55-5.37-6.75-4.84-3.01.49-4.85,3.38-4.79,7.54ZM51.22,100.06l.12-1.17v-.03c-.06-3.57,1.41-6.03,3.83-6.43,2.57-.42,5,1.33,5.42,3.9l.42,2.57c.2,1.24-.09,2.49-.83,3.52-.74,1.03-1.83,1.71-3.07,1.91l-.37.06-.14.54c-1.07.04-2.24-.42-3.28-1.33-1.1-.96-1.88-2.27-2.11-3.52Z"/>
    </g>
    <path class="cls-14" d="M50.19,98.83l-.03,1.66v.08c.52,3.09,3.7,5.99,7.01,5.45l.37-.06.15-.58c1.39-.32,2.6-1.13,3.44-2.3.75-1.05,1.13-2.28,1.11-3.54,0-.28-.03-.56-.08-.83l-.42-2.57c-.25-1.54-1.1-2.9-2.38-3.82-1.28-.92-2.83-1.28-4.38-1.03-3.02.49-4.85,3.39-4.8,7.55ZM51.23,100.06l.12-1.21c-.06-3.56,1.41-6.02,3.82-6.42,1.24-.2,2.48.09,3.51.83,1.03.74,1.7,1.82,1.91,3.06l.42,2.57c.42,2.57-1.32,5-3.89,5.42l-.37.06-.14.54c-1.06.05-2.24-.42-3.27-1.33-1.1-.96-1.88-2.27-2.11-3.52Z"/>
    <g>
      <path class="cls-11" d="M66.67,99.83s2.61,1.46,5.24,2.45c0,0,2.31.6,1.74,2.35,0,0-4.02,7.05-4.28,7.47,0,0-.83,1.43-1.45,1.65,0,0-2.01.09-2.1-4.69l-.2-1.4-10.61-3.25,4.24-8.59,7.42,4.02Z"/>
      <path class="cls-6" d="M58.99,95.02l-4.8,9.73,10.91,3.35.15,1c.05,2.26.52,3.82,1.4,4.64.56.53,1.1.57,1.27.57.01,0,.03,0,.03,0h.09s.08-.03.08-.03c.76-.27,1.53-1.53,1.75-1.9.25-.41,4.12-7.18,4.28-7.47l.05-.11c.19-.59.15-1.16-.13-1.66-.53-.97-1.73-1.34-1.98-1.41-2.55-.96-5.11-2.39-5.14-2.4h0s-7.95-4.3-7.95-4.3ZM55.82,104.05l3.67-7.45,6.89,3.73c.15.09,2.7,1.5,5.31,2.48l.06.02c.27.07,1.03.37,1.3.86.11.21.13.43.06.7-1.4,2.45-4.04,7.07-4.24,7.4-.34.58-.81,1.17-1.07,1.36-.3-.1-1.35-.68-1.42-4.11v-.07s-.26-1.76-.26-1.76l-10.31-3.16Z"/>
    </g>
    <path class="cls-15" d="M71.37,104.99s1.6.24-2.96,6.98c0,0-1.04,1.44-1.39.65,0,0-1.27-3.3-.36-4.7,0,0,1.33-3.5,4.7-2.92Z"/>
    <g>
      <rect class="cls-11" x="65.27" y="108.11" width="12.7" height="2.09" rx=".87" ry=".87" transform="translate(-58.86 113.38) rotate(-58.59)"/>
      <path class="cls-6" d="M67.38,112.99c-.41.68-.2,1.57.48,1.98l.3.19c.23.14.49.21.75.21.49,0,.96-.25,1.23-.69l5.71-9.36c.2-.33.26-.71.17-1.09-.09-.37-.32-.69-.65-.89l-.3-.19c-.33-.2-.71-.26-1.09-.17-.37.09-.69.32-.89.65l-5.72,9.36ZM68.36,113.59l5.71-9.36c.05-.09.14-.12.18-.13.02,0,.04,0,.07,0,.04,0,.1,0,.15.04l.3.19c.09.05.12.14.13.18.01.04.02.13-.03.22l-5.71,9.36c-.05.09-.14.12-.18.13-.04.01-.13.02-.22-.03l-.3-.19c-.13-.08-.18-.27-.1-.4Z"/>
    </g>
    <g>
      <path class="cls-19" d="M67.78,99.4c.31,3.28-2.43,6.99-2.43,6.99-.58,1.32-1.91,1.74-1.91,1.74-9.29-1.86-10.08-4-10.08-4-1.43-4.36,3.17-8.78,3.17-8.78,2.05-2.78,11.25,4.04,11.25,4.04Z"/>
      <path class="cls-14" d="M56.1,94.98c-.47.46-4.77,4.85-3.29,9.34.16.43,1.37,2.55,10.51,4.38l.14.03.14-.04c.06-.02,1.55-.5,2.24-2,.35-.49,2.81-4.06,2.5-7.34l-.02-.25-.21-.15c-.73-.54-7.23-5.28-10.53-4.78-.64.1-1.14.37-1.49.82ZM53.89,103.93s0,0,0,0c0,0,0,0,0,0ZM56.93,95.78l.06-.07c.16-.22.41-.36.76-.41,2.32-.35,7.42,2.93,9.47,4.41.13,2.96-2.31,6.31-2.34,6.35l-.06.11c-.37.84-1.14,1.25-1.44,1.37-8.08-1.64-9.4-3.46-9.5-3.62-1.27-3.93,3-8.1,3.04-8.14Z"/>
    </g>
    <g>
      <g>
        <path class="cls-9" d="M66.22,106.82c1.55-.19,1.56.79,1.56.79.13,1.92.07,2.4.07,2.4.15,1.33-2.4.94-2.4.94-.37-1.23-.47-3.7-.47-3.7-.05-.53,1.23-.42,1.23-.42Z"/>
        <path class="cls-19" d="M64.86,106.82c-.12.12-.17.28-.16.44,0,.18.11,2.54.48,3.77l.05.17.18.03c.08.01.41.06.82.06.55,0,1.23-.08,1.62-.45.22-.21.33-.5.3-.83.01-.15.04-.75-.07-2.42,0-.03-.02-.43-.37-.74-.33-.29-.83-.4-1.48-.32-.27-.02-1.03-.04-1.35.29ZM65.27,107.21c.07-.08.53-.14.92-.11h.03s.03,0,.03,0c.12-.02.24-.02.35-.02.31,0,.55.07.71.19.17.14.18.33.18.34.13,1.85.07,2.35.07,2.36v.03s0,.03,0,.03c.02.22-.06.32-.12.39-.32.31-1.18.33-1.77.27-.32-1.23-.4-3.43-.41-3.45v-.02Z"/>
      </g>
      <g>
        <path class="cls-11" d="M65.91,108c.64-.08.65.33.65.33.05.8.03,1,.03,1,.06.55-1,.39-1,.39-.15-.51-.19-1.54-.19-1.54-.02-.22.51-.18.51-.18Z"/>
        <path class="cls-6" d="M65.22,107.88c-.08.08-.12.19-.11.31,0,.1.05,1.08.21,1.6l.05.17.18.03c.05,0,.19.03.36.03.26,0,.59-.04.79-.24.13-.12.19-.29.17-.47,0-.09.01-.36-.03-1.01,0-.03-.01-.25-.21-.42-.17-.15-.42-.21-.73-.17-.16-.01-.5,0-.68.17ZM65.69,108.29c.06,0,.13,0,.19,0h.03s.03,0,.03,0c.05,0,.09,0,.12,0,.13,0,.2.03.2.07.05.73.03.94.03.94v.03s0,.03,0,.03c-.04.06-.25.1-.48.09-.07-.36-.11-.87-.13-1.16Z"/>
      </g>
    </g>
    <path class="cls-19" d="M58.02,93.37l2.56,1.78c5.27,3.42,3.35,6.28,1.59,6.46l-.62-.82c-1.17,2.71-2.77,5.24-4.61,4.45l-2.38-.51c-1.84-.79-3.18-5.15-2.01-7.86,1.17-2.71,3.63-4.29,5.47-3.5Z"/>
    <path class="cls-8" d="M53.59,95.53c1.51-.4,3.08.5,3.48,2.01l.92,3.42c.4,1.51.93,2.93-.58,3.33l-.44.74c-1.51.4-4.96-1.24-5.49-4.95l.06-.6c-.4-1.51.55-3.55,2.06-3.95Z"/>
    <path class="cls-8" d="M66.12,101.23c.22,2.33-1.72,4.96-1.72,4.96-.41.94-1.36,1.24-1.36,1.24-6.59-1.32-7.15-2.84-7.15-2.84-1.02-3.09,2.25-6.22,2.25-6.22,1.46-1.97,7.98,2.87,7.98,2.87Z"/>
  </g>
  <g>
    <g>
      <path class="cls-19" d="M36.56,87.2c2.9.23,5.1,2.79,4.87,5.69l-.2,2.59c-.23,2.9-2.79,5.1-5.69,4.87l-.28.51c-2.9-.23-5.19-3.83-4.97-6.74l.41-1.15c.81-3.55,2.95-6,5.85-5.78Z"/>
      <path class="cls-14" d="M29.72,94.01v.08c-.13,1.54.4,3.32,1.41,4.75,1.08,1.54,2.57,2.49,4.08,2.61l.37.03.28-.52c1.43.02,2.79-.48,3.89-1.42,1.2-1.02,1.92-2.44,2.04-4l.2-2.59c.25-3.23-2.17-6.06-5.4-6.31-3.04-.24-5.51,2.13-6.45,6.19l-.43,1.19ZM30.86,94.25l.41-1.15c.79-3.48,2.8-5.53,5.25-5.33,2.59.2,4.54,2.48,4.34,5.07l-.2,2.59c-.1,1.25-.68,2.39-1.64,3.22-.96.82-2.18,1.22-3.43,1.12l-.37-.03-.26.49c-1.05-.21-2.08-.94-2.87-2.07-.84-1.2-1.29-2.66-1.21-3.92Z"/>
    </g>
    <path class="cls-14" d="M29.72,94.42v.08c-.25,3.12,2.15,6.69,5.49,6.95l.38.03.28-.52c1.42.02,2.79-.48,3.89-1.42.98-.84,1.64-1.95,1.92-3.18.06-.27.1-.55.12-.83l.2-2.59c.12-1.56-.38-3.08-1.4-4.27-1.02-1.2-2.45-1.92-4.01-2.04-3.05-.24-5.52,2.14-6.45,6.19l-.43,1.6ZM30.86,94.25l.41-1.15c.79-3.47,2.8-5.52,5.24-5.33,1.25.1,2.39.68,3.21,1.64.82.96,1.22,2.18,1.12,3.43l-.2,2.59c-.2,2.59-2.47,4.54-5.07,4.34l-.38-.03-.26.49c-1.05-.21-2.07-.94-2.86-2.07-.84-1.19-1.29-2.65-1.21-3.92Z"/>
    <g>
      <path class="cls-11" d="M39.66,92.04l6.25,5.67s2.19,2.04,4.51,3.62c0,0,2.1,1.13,1.13,2.7,0,0-5.58,5.89-5.93,6.24,0,0-1.15,1.19-1.8,1.26,0,0-1.97-.39-.93-5.05l.14-1.41-9.53-5.68,6.16-7.34Z"/>
      <path class="cls-6" d="M32.62,99.52l9.8,5.84-.1,1.01c-.49,2.2-.4,3.83.26,4.84.46.7,1.02.84,1.13.86l.09.02h.09c.8-.1,1.85-1.13,2.16-1.44.34-.34,5.71-6,5.94-6.24l.07-.09c.32-.53.42-1.1.27-1.64-.29-1.06-1.37-1.72-1.59-1.84-2.25-1.54-4.4-3.53-4.42-3.55h0s-6.7-6.07-6.7-6.07l-6.98,8.31ZM34.37,99.23l5.34-6.36,5.81,5.26c.13.12,2.26,2.1,4.57,3.67l.05.03c.24.13.91.6,1.06,1.15.06.23.03.45-.11.69-1.94,2.05-5.61,5.91-5.88,6.18-.47.49-1.06.95-1.36,1.07-.27-.17-1.15-.98-.4-4.33v-.07s.18-1.77.18-1.77l-9.26-5.52Z"/>
    </g>
    <path class="cls-15" d="M49.25,103.83s1.5.61-4.53,6.07c0,0-1.36,1.15-1.51.3,0,0-.45-3.51.77-4.65,0,0,2.12-3.08,5.26-1.72Z"/>
    <g>
      <path class="cls-11" d="M43.02,106.89h10.96c.48,0,.87.39.87.87v.36c0,.48-.39.87-.87.87h-10.96c-.48,0-.87-.39-.87-.87v-.36c0-.48.39-.87.87-.87Z" transform="translate(-61.96 65.51) rotate(-44.79)"/>
      <path class="cls-6" d="M43.47,110.65c-.27.27-.42.63-.42,1.02,0,.39.15.75.42,1.02l.25.25c.28.28.65.42,1.02.42s.74-.14,1.02-.42l7.78-7.73c.56-.56.57-1.48,0-2.04l-.25-.25c-.27-.27-.63-.42-1.02-.42-.39,0-.75.15-1.02.42l-7.78,7.73ZM44.2,111.67s.01-.13.08-.2l7.78-7.73c.07-.07.16-.08.2-.08h0s.13.01.21.08l.25.25c.11.11.11.3,0,.41l-7.78,7.73c-.11.11-.3.11-.41,0l-.25-.25c-.07-.07-.08-.16-.08-.21Z"/>
    </g>
    <g>
      <path class="cls-19" d="M37.13,90.95c2.66-2.21,9.96,6.6,9.96,6.6-.47,3.26-4.02,6.22-4.02,6.22-.87,1.15-2.27,1.24-2.27,1.24-8.58-4.02-8.84-6.28-8.84-6.28-.36-4.57,5.17-7.77,5.17-7.77Z"/>
      <path class="cls-14" d="M31.39,98.77c.05.45.72,2.81,9.17,6.76l.13.06h.15c.07-.01,1.63-.13,2.65-1.42.46-.39,3.7-3.27,4.17-6.53l.04-.25-.16-.2c-.58-.7-5.76-6.84-9.09-7.15-.64-.06-1.19.09-1.64.44-.56.33-5.78,3.57-5.42,8.29ZM32.53,98.65s0,.01,0,.01c0,0,0,0,0-.01ZM32.53,98.63c-.3-4.13,4.84-7.15,4.89-7.18l.08-.06c.21-.18.49-.25.84-.22,2.33.22,6.51,4.61,8.15,6.54-.58,2.91-3.75,5.58-3.78,5.61l-.05.04-.04.05c-.56.73-1.4.94-1.72.99-7.46-3.51-8.3-5.6-8.36-5.78Z"/>
    </g>
    <g>
      <g>
        <path class="cls-9" d="M43.81,104.39c1.55.18,1.33,1.13,1.33,1.13-.33,1.89-.5,2.35-.5,2.35-.17,1.33-2.56.35-2.56.35-.07-1.28.43-3.71.43-3.71.08-.53,1.3-.12,1.3-.12Z"/>
        <path class="cls-19" d="M42.23,104.45c-.04.18-.5,2.49-.43,3.77v.18s.18.07.18.07c.12.05.93.37,1.67.37.29,0,.56-.05.79-.18.27-.16.44-.41.49-.74.05-.14.22-.72.5-2.36,0-.03.09-.42-.19-.8-.25-.36-.71-.58-1.36-.66-.26-.08-.99-.29-1.38-.04-.14.09-.23.23-.26.39ZM42.37,108.01c-.01-1.27.42-3.43.43-3.45v-.02s.08-.03.16-.03c.19,0,.5.05.77.14h.06c.48.07.82.21.98.43.13.18.1.36.1.37-.32,1.82-.49,2.3-.49,2.31l-.02.06c-.03.22-.13.3-.21.35-.42.24-1.32,0-1.78-.16Z"/>
      </g>
      <g>
        <path class="cls-11" d="M43.23,105.45c.64.07.55.47.55.47-.14.79-.21.97-.21.97-.07.55-1.06.14-1.06.14-.03-.53.18-1.54.18-1.54.03-.22.54-.05.54-.05Z"/>
        <path class="cls-6" d="M42.41,105.45c-.02.1-.21,1.06-.18,1.61v.18s.18.07.18.07c.09.04.43.17.76.17.15,0,.29-.03.41-.1.15-.09.25-.23.28-.41.03-.09.1-.35.21-.99,0-.03.05-.24-.11-.46-.13-.19-.36-.3-.67-.34-.18-.06-.49-.12-.7,0-.1.06-.17.16-.19.28ZM42.8,106.84c.01-.39.11-.92.15-1.15.06,0,.14.03.19.04h.06c.2.04.31.1.3.15-.13.72-.19.92-.19.93v.06c-.07.06-.29.04-.5-.02Z"/>
      </g>
    </g>
    <path class="cls-19" d="M39.05,89.37l2.07,2.34c4.3,4.57,1.76,6.9,0,6.65l-.4-.94c-1.78,2.36-3.94,4.43-5.54,3.22l-2.19-1.06c-1.6-1.21-1.86-5.75-.08-8.11,1.78-2.36,4.54-3.3,6.14-2.1Z"/>
    <path class="cls-8" d="M34.23,90.41c1.56-.03,2.87,1.22,2.9,2.78l.08,3.54c.03,1.56.21,3.07-1.36,3.1l-.61.61c-1.56.03-4.52-2.39-4.16-6.12l.2-.56c-.03-1.56,1.38-3.32,2.94-3.35Z"/>
    <path class="cls-8" d="M37.98,94.25c1.88-1.57,7.07,4.68,7.07,4.68-.34,2.31-2.85,4.41-2.85,4.41-.62.81-1.61.88-1.61.88-6.09-2.85-6.27-4.46-6.27-4.46-.25-3.24,3.67-5.51,3.67-5.51Z"/>
  </g>
  <g>
    <g>
      <path class="cls-9" d="M41.76,61.92c12.06,4.71,19.35,2.75,19.35,2.75,2.58-1.45,1.75.51,1.75.51-3.73,1.85-4.97,5.68-4.97,5.68-.61,1.71-3.12,1.57-3.12,1.57-9.54-.37-17.91-3.98-17.91-3.98,2.3-5.23,4.9-6.53,4.9-6.53Z"/>
      <path class="cls-19" d="M36.33,68.21l-.23.53.53.23c.08.04,8.58,3.66,18.12,4.03.01,0,.07,0,.15,0,.62,0,2.87-.13,3.53-1.96.02-.05,1.23-3.64,4.69-5.35l.19-.09.08-.2c.07-.18.42-1.09-.15-1.6-.59-.53-1.55-.12-2.34.32-.74.17-7.8,1.6-18.93-2.74l-.24-.09-.23.11c-.11.06-2.82,1.45-5.18,6.81ZM37.63,68.14c1.74-3.71,3.59-5.17,4.19-5.58,11.94,4.59,19.14,2.75,19.44,2.67l.07-.02.06-.04c.53-.3.84-.41,1.01-.44,0,.02,0,.03-.01.05-3.73,1.97-4.99,5.74-5.05,5.9-.45,1.25-2.52,1.18-2.54,1.18-7.96-.31-15.18-2.93-17.17-3.72Z"/>
    </g>
    <path class="cls-7" d="M41.6,63.06c8,2.8,14.62,3.13,14.62,3.13-4.19,8.39-17.56,1.58-17.56,1.58,1.1-3.02,2.95-4.71,2.95-4.71Z"/>
  </g>
  <g>
    <g>
      <g>
        <path class="cls-18" d="M39.56,60.73l19.64.9c15.19,13.77,14.3,34.81,14.3,34.81-3.53,1.56-7.61,1.75-7.61,1.75-16.37,2.72-33.39-4.62-33.39-4.62l.86-1.9c-5.8-.61-10.47-4.98-10.47-4.98,10.85-12.62,16.69-25.96,16.69-25.96Z"/>
        <path class="cls-13" d="M22.43,86.32l-.36.42.4.38c.19.18,4.48,4.13,10.03,5.02l-.78,1.73.54.23c.14.06,12.4,5.26,26.03,5.26,2.53,0,5.1-.18,7.65-.6.44-.02,4.33-.27,7.78-1.8l.33-.14.02-.36c0-.22.21-5.42-1.47-12.4-1.55-6.45-5.06-15.65-13.02-22.86l-.15-.14-20.24-.93-.16.36c-.06.13-5.94,13.41-16.6,25.82ZM23.68,86.64c9.57-11.26,15.23-23.11,16.24-25.31l19.05.87c13.58,12.45,13.98,31.05,13.96,33.86-3.31,1.36-7.03,1.56-7.07,1.56h-.07c-14.39,2.4-29.51-3.15-32.53-4.35l.94-2.08-.79-.08c-4.58-.48-8.48-3.43-9.73-4.47Z"/>
      </g>
      <path class="cls-17" d="M64.15,67.47s7.37,18.73,5.99,27.17c0,0-9.28,1.22-17.73.44,0,0-4.89-32.76,11.74-27.61Z"/>
      <g class="cls-21">
        <path class="cls-3" d="M27.75,86.46c3.89,3.58,4.54,4.7,4.54,4.7-4.21-1.18-8.03-4.64-8.03-4.64,6.74-7.85,11.66-17.06,11.66-17.06-2.09,8-8.17,17-8.17,17Z"/>
      </g>
    </g>
    <g>
      <g>
        <path class="cls-10" d="M67.64,84.69c-.03.05-.04.06-.06.09.03-.05.06-.09.06-.09Z"/>
        <path class="cls-10" d="M67.59,84.79c-.05.07-.07.12,0,0h0Z"/>
        <path class="cls-10" d="M42.61,62.21c5.88,6.39,18.5,2.46,18.5,2.46,6.21,5.13,6.54,12.05,6.54,12.05,0,0,.26,7.56,0,7.98,0,0-8.18,3.82-22.08,1.59-14.12-2.27-12.19-4.63-12.19-4.63,3.22-18.18,9.23-19.44,9.23-19.44Z"/>
      </g>
      <path class="cls-14" d="M32.83,81.44c-.12.24-.18.59-.03.98.64,1.69,4.9,3.18,12.67,4.43,3.21.52,6.11.71,8.68.71,8.58,0,13.47-2.22,13.73-2.35l-.08-.16.21.13.11-.18s0,0,0,0l1.02-1.64-.84.39c.04-1.07.04-3.11-.09-7.05-.01-.3-.41-7.24-6.74-12.47l-.24-.2-.3.09c-.12.04-12.34,3.75-17.9-2.3l-.22-.24-.32.07c-.26.05-6.41,1.55-9.66,19.8ZM33.87,81.96l.05-.07.03-.15c2.72-15.34,7.33-18.35,8.51-18.87,5.69,5.74,16.52,3,18.52,2.43,5.72,4.89,6.09,11.37,6.09,11.44.11,3.12.15,6.59.07,7.54-1.49.6-9.29,3.39-21.48,1.43-9.33-1.5-11.29-2.99-11.7-3.56-.07-.1-.09-.16-.09-.19Z"/>
    </g>
    <g>
      <path class="cls-16" d="M64.74,80.79c-.05.06-.06.09-.08.11.03-.04.08-.11.08-.11Z"/>
      <path class="cls-16" d="M43.29,63.95c5.07,4.76,15.52,2.21,15.52,2.21,5.31,3.86,5.75,8.87,5.75,8.87,0,0,.39,5.47.19,5.77,0,0-6.74,2.57-18.42.63-11.86-1.97-10.3-3.64-10.3-3.64,2.26-13.06,7.26-13.84,7.26-13.84Z"/>
      <path class="cls-16" d="M64.67,80.9s-.02.02,0,0h0Z"/>
    </g>
    <g>
      <path class="cls-10" d="M66.78,88.69l.23,6.83c-5.6,2.21-15.49,1.16-15.49,1.16-14.17-1-20.61-6.97-20.61-6.97l1.88-6.95c7.87,7.48,33.98,5.93,33.98,5.93Z"/>
      <path class="cls-14" d="M32.5,81.68l-2.23,8.21.25.24c.27.25,6.75,6.12,20.96,7.13.19.02,2.49.26,5.45.26,3.26,0,7.32-.29,10.29-1.46l.38-.15-.27-7.83-.59.04c-.26.01-25.95,1.45-33.55-5.77l-.7-.66ZM31.57,89.51l1.55-5.71c8.02,6.36,29.2,5.68,33.11,5.5l.2,5.84c-5.47,1.95-14.75.99-14.84.98-12.28-.87-18.69-5.53-20.02-6.6Z"/>
    </g>
    <path class="cls-16" d="M35.38,84.51l-1.49,5.94-1.82-1.16,1.57-6.09s1.63,1.04,1.74,1.31Z"/>
    <g>
      <g>
        <path class="cls-10" d="M46.06,87.81s-.68,5.05-1.58,9.57c0,0-5.4-.29-10.04-3.07l1.78-9.12s7.83,2.17,9.84,2.62Z"/>
        <path class="cls-14" d="M35.77,84.47l-1.98,10.12.35.21c4.71,2.82,10.08,3.14,10.31,3.15l.5.03.1-.49c.9-4.48,1.58-9.55,1.59-9.6l.07-.52-.52-.11c-1.98-.44-9.73-2.59-9.81-2.61l-.6-.17ZM35.07,94.02l1.59-8.11c1.72.47,6.63,1.82,8.75,2.34-.19,1.34-.73,5.04-1.41,8.51-1.37-.14-5.36-.72-8.93-2.74Z"/>
      </g>
      <path class="cls-16" d="M39.25,87.46l4.78,2.27s-2.15,6.82-8.55,4.2l1.2-7.25,2.57.78Z"/>
    </g>
    <g>
      <g>
        <g>
          <path class="cls-9" d="M33.6,78.25c23.69,9.48,33.76,3.51,33.76,3.51.7-.41.96-.13.99.59.04.86-.4,4.76-.4,4.76-.06.64-.85,1.35-.85,1.35-19.16,5.28-34.9-4.19-34.9-4.19-1.23-.27.31-6.15.31-6.15,1.03-1.41,1.08.13,1.08.13Z"/>
          <path class="cls-13" d="M31.96,77.97c-.31,1.19-1.27,5.16-.52,6.38.16.26.37.39.54.45.89.51,10.43,5.81,23.3,5.81,3.76,0,7.79-.45,11.98-1.6l.13-.04.1-.09c.16-.14.97-.9,1.04-1.73.04-.39.44-3.95.41-4.83-.01-.23-.04-.92-.58-1.22-.53-.29-1.1.05-1.28.16-.1.06-10.09,5.64-32.95-3.42-.07-.33-.25-.73-.66-.86-.68-.21-1.21.52-1.41.8l-.06.09-.03.1ZM33.03,78.43v.21s.36.14.36.14c23.68,9.48,33.85,3.72,34.27,3.47.04-.03.08-.04.11-.06,0,.05.01.1.02.18.03.67-.28,3.6-.4,4.67-.03.27-.35.67-.57.9-4.04,1.1-7.93,1.53-11.55,1.53-13.09,0-22.64-5.62-22.76-5.69l-.1-.05c-.27-.5.02-2.9.63-5.29Z"/>
        </g>
        <path class="cls-7" d="M33.67,79.11c21.75,8.06,32.59,3.91,32.59,3.91.18-.07.28.17.41.16-.55,1.87-1.51,4.75-5.38,6-20.08,1.28-28.8-5.43-28.8-5.43-1.19-.26.13-4.8.13-4.8.93-.99,1.04.15,1.04.15Z"/>
        <g>
          <path class="cls-16" d="M32.18,83.62s.02.07.04.1c0,0-.03-.02-.04-.1Z"/>
          <path class="cls-16" d="M32.37,79.62c.2-1.77,1.57-.45,1.57-.45,18.19,7.09,30.86,4.26,30.86,4.26,2.38-.45-1.09,1.14-1.09,1.14-11.7,3.76-29.98-3.62-29.98-3.62-1.41,1.86-1.57,2.47-1.55,2.67-.6-1.12.18-4,.18-4Z"/>
        </g>
      </g>
      <g>
        <g>
          <path class="cls-9" d="M41.89,79.78c2.68.47,4.46,3.03,3.99,5.71s-3.03,4.46-5.71,3.99c-2.68-.47-4.46-3.03-3.99-5.71.47-2.68,3.03-4.46,5.71-3.99Z"/>
          <path class="cls-13" d="M35.62,83.67c-.26,1.45.07,2.91.91,4.11s2.1,2.01,3.55,2.26c.32.06.65.08.96.08,2.61,0,4.94-1.88,5.41-4.54.53-2.98-1.47-5.84-4.45-6.37-1.45-.26-2.9.07-4.11.91-1.2.84-2.01,2.1-2.26,3.55ZM36.75,83.87c.2-1.14.84-2.14,1.79-2.8.74-.52,1.6-.78,2.48-.78.25,0,.51.02.77.07,2.36.42,3.94,2.68,3.52,5.04-.42,2.36-2.68,3.94-5.04,3.52-1.14-.2-2.14-.84-2.8-1.79-.66-.95-.92-2.11-.72-3.25Z"/>
        </g>
        <path class="cls-7" d="M41.37,80.54c2.12.38,3.52,2.52,3.11,4.79-.4,2.27-2.45,3.8-4.57,3.43-2.12-.38-3.52-2.52-3.11-4.79.4-2.27,2.45-3.8,4.57-3.43Z"/>
        <g>
          <g>
            <path class="cls-9" d="M41.2,81.47c1.6.54,2.49,2.35,1.97,4.04-.51,1.69-2.23,2.63-3.83,2.09-1.6-.54-2.49-2.35-1.97-4.04.51-1.69,2.23-2.63,3.83-2.09Z"/>
            <path class="cls-13" d="M36.96,83.44c-.58,1.91.43,3.96,2.25,4.58.35.12.71.18,1.07.18.53,0,1.05-.13,1.53-.38.86-.44,1.49-1.21,1.78-2.17.58-1.91-.43-3.96-2.25-4.58-.86-.29-1.78-.22-2.6.2-.86.44-1.49,1.21-1.78,2.17ZM37.78,83.69h0c.22-.73.7-1.32,1.35-1.66.36-.19.75-.28,1.14-.28.26,0,.53.04.79.13,1.38.47,2.14,2.04,1.7,3.51-.22.73-.7,1.32-1.35,1.66-.6.31-1.29.36-1.93.15-1.38-.47-2.14-2.04-1.7-3.51Z"/>
          </g>
          <path class="cls-7" d="M40.47,81.63c1.21.26,1.94,1.67,1.64,3.16-.31,1.49-1.54,2.48-2.75,2.23-1.21-.26-1.94-1.67-1.64-3.16.31-1.49,1.54-2.48,2.75-2.23Z"/>
          <path class="cls-16" d="M39.56,82.1c.82.15,1.32,1.18,1.12,2.31-.2,1.13-1.03,1.93-1.85,1.78-.82-.15-1.32-1.18-1.12-2.31.2-1.13,1.03-1.93,1.85-1.78Z"/>
        </g>
      </g>
    </g>
    <g>
      <path class="cls-18" d="M40.4,72.19c.97.57,2.03.94,3.08,1.17.19-1.53-.28-2.6-.28-2.6,2.25-.49,4.02.6,4.02.6-.99.61-1.62,1.41-2.02,2.27,2.12.22,3.81-.02,3.81-.02,1.91,1.74,0,2.37,0,2.37-1.44-.73-2.85-1.2-4.13-1.49-.68,2.33.04,4.74.04,4.74-3.27,1.06-4.65-.88-4.65-.88,1.84-1.41,2.68-2.88,3.03-4.15-2.44-.34-4.11-.08-4.11-.08-1.04-1.19,1.2-1.93,1.2-1.93Z"/>
      <path class="cls-13" d="M38.54,73.2c-.08.28-.08.72.34,1.2l.16.18.23-.04s1.41-.21,3.47.02c-.47,1.25-1.38,2.41-2.73,3.44l-.33.25.24.34c.05.07,1.01,1.38,3.14,1.38.58,0,1.24-.1,1.99-.34l.4-.13-.12-.4s-.59-2.05-.14-4.1c1.26.32,2.48.78,3.63,1.36l.16.08.17-.06c.1-.03.94-.33,1.11-1.12.13-.61-.19-1.27-.96-1.97l-.15-.14-.2.03s-1.33.18-3.06.07c.39-.62.91-1.13,1.55-1.53l.59-.37-.59-.37c-.08-.05-1.95-1.18-4.34-.66l-.52.11.22.48s.33.76.29,1.88c-.93-.24-1.76-.58-2.47-1l-.17-.1-.19.06c-.15.05-1.48.51-1.73,1.42ZM44.83,74.03l.33.03c1.74.18,3.18.06,3.71,0,.41.41.61.77.56,1.02-.04.2-.25.34-.39.42-1.28-.63-2.64-1.11-4.05-1.44l-.16-.04ZM43.73,74.31l.12-.43h0s.01-.05.01-.05h0s.05-.42.05-.42c.13-1-.01-1.82-.14-2.31,1.09-.13,2.03.12,2.6.34-.67.54-1.19,1.22-1.56,2.01l-.25.55h.02s-.1.36-.1.36c-.54,1.86-.24,3.74-.06,4.56-1.91.5-3.01-.13-3.49-.54,1.45-1.21,2.4-2.58,2.81-4.07ZM39.37,73.43c.08-.29.59-.59.99-.76.84.47,1.82.84,2.91,1.09-1.88-.25-3.3-.16-3.86-.1-.07-.13-.04-.2-.04-.23Z"/>
    </g>
    <path class="cls-16" d="M63.81,90.63s-.06,4.34-3.29,5.01c0,0-5.51,1.05-13.86-.63,0,0-.75-2.11-.25-4.77,0,0,6.73,2.18,17.4.38Z"/>
  </g>
  <g>
    <g>
      <path class="cls-9" d="M46.43,35.51c-.95,4.95-9.27,2.06-9.27,2.06.14-4.98,3.57-9.1,3.57-9.1,7.9-.51,5.7,7.03,5.7,7.03Z"/>
      <path class="cls-19" d="M36.59,37.56v.42s.39.14.39.14c.15.05,2.54.87,4.96.87,1.15,0,2.3-.18,3.22-.72.98-.57,1.6-1.45,1.83-2.63.1-.36.97-3.7-.81-5.91-1.1-1.38-2.95-1.99-5.49-1.83l-.25.02-.16.19c-.15.17-3.56,4.33-3.7,9.45ZM37.76,37.16c.27-3.95,2.64-7.3,3.27-8.12.15,0,.3,0,.45,0,1.77,0,3.05.48,3.81,1.42,1.47,1.83.6,4.87.59,4.9v.05c-.18.86-.6,1.47-1.29,1.87-2.01,1.16-5.62.24-6.83-.11Z"/>
    </g>
    <g>
      <path class="cls-12" d="M38.94,41.86s-2.82-5.31,1.4-7.6c0,0,1.48-1.78,1.27-4.08l.57-1.64s5.38.79,8.29,1.48c0,0,17.83,5.11,22.25,12.24,0,0-4.22,2.42-5.66,1.93,0,0,.81,3.99-2.02,5.52,0,0-3.94,3.08-7.15,2.06,0,0-.26-.61-1.2-1.95l-18.14-6.19s-1.77-1.25.4-1.78Z"/>
      <path class="cls-13" d="M37.31,42.46c-.16.84.72,1.52.9,1.65l.07.05,18.04,6.15c.8,1.15,1.04,1.69,1.04,1.69l.1.24.25.08c.52.16,1.05.23,1.58.23,2.87,0,5.68-2.07,6.07-2.36,2.36-1.31,2.46-4.05,2.36-5.37,1.82-.12,4.65-1.69,5.28-2.06l.52-.3-.31-.51c-4.49-7.24-21.85-12.28-22.58-12.49-2.93-.7-8.14-1.47-8.36-1.5l-.47-.07-.76,2.21v.12c.17,1.77-.81,3.23-1.07,3.58-3.27,1.86-2.73,5.55-1.81,7.71-.48.22-.76.54-.84.94ZM38.44,42.68s.19-.16.63-.27l.72-.17-.35-.65c-.1-.2-2.5-4.84,1.16-6.82l.1-.05.07-.09c.07-.08,1.58-1.93,1.41-4.37l.37-1.08c1.37.21,5.41.84,7.77,1.4.15.04,16.8,4.87,21.56,11.48-1.65.88-3.91,1.84-4.65,1.58l-.95-.32.2.98s.68,3.59-1.73,4.9l-.08.05s-3.56,2.73-6.4,2.03c-.16-.31-.5-.9-1.13-1.79l-.11-.15-18.23-6.22c-.17-.14-.34-.34-.37-.44Z"/>
    </g>
    <path class="cls-16" d="M58.23,38c.58,1.05.05,1.64.05,1.64l-.28-.03c-1.6-.51.23-1.61.23-1.61Z"/>
    <path class="cls-16" d="M44.53,33.98c.64.84-.5,1.58-.5,1.58-1.25-1.3.5-1.58.5-1.58Z"/>
    <path class="cls-2" d="M41.8,35.27c2.05-1.26.92-5.47.92-5.47,9.02-.93,21.17,7.32,21.17,7.32-2.31,2.33-2.01,5.16-2.01,5.16,1.27,4.78-.97,4.79-.97,4.79-1.24.49-2.64-.12-2.64-.12l-1.07-.72c-6.22-4.95-14.59-6.64-14.59-6.64-.78-.11-3.38.19-3.38.19-.24-1.13-.11-1.7-.11-1.7.85-1.55,2.69-2.8,2.69-2.8Z"/>
    <path class="cls-16" d="M54.23,38.75c1.3-3.2,3.55-2.53,4.7-1.86,2.01,1.19,1.45,4.66,1.45,4.66-.28.47-.82.51-1.19.45-.3-.05-1.3-.26-1.3-.26-4.44-.96-3.72-2.77-3.72-2.77l.07-.21Z"/>
    <g>
      <g>
        <path class="cls-4" d="M52.35,32.13c.99.72,1.56.74,1.96.54,4.37-2.17,5.12-2.24,6.62-1.19,2.93,2.06,3.79,5.81,3.79,5.81-1.02,2.39-3.1-.73-3.1-.73-1.81-3.44-6.26-1.56-6.26-1.56-1.21.83-3.1-.73-3.1-.73-1.62-2.17-.34-2.45.08-2.14Z"/>
        <path class="cls-13" d="M51.21,31.77c-.4.4-.62,1.22.6,2.85l.04.06.05.04c.09.07,2.2,1.78,3.74.79.47-.18,4.01-1.47,5.48,1.32l.03.05c.22.32,1.33,1.89,2.56,1.89.04,0,.09,0,.13,0,.42-.04,1.01-.29,1.42-1.25l.07-.17-.04-.18c-.04-.16-.94-3.98-4.02-6.15-1.84-1.29-3.01-.94-7.21,1.14-.28.14-.74-.03-1.37-.49h0c-.39-.28-1.06-.32-1.48.1ZM52.05,32.62c.65.47,1.61,1.02,2.52.57,4.4-2.18,4.84-2.07,6.03-1.23,2.36,1.66,3.3,4.53,3.51,5.28-.09.18-.23.37-.39.38-.43.03-1.2-.75-1.61-1.35-1.63-3.06-5.27-2.51-6.97-1.79l-.1.06c-.66.46-1.9-.3-2.36-.66-.53-.72-.62-1.1-.64-1.25Z"/>
      </g>
      <path class="cls-5" d="M52.48,32.58c.71.44,2.06.49,2.33.33,2.86-1.7,3.69-2.17,4.76-1.53,2.09,1.25,2.86,3.76,2.86,3.76.06,1.87-1.28-.13-1.28-.13-2.06-2.12-5.18-.95-5.18-.95-1.3,1.15-2.29.26-2.29.26-1.62-.77-1.5-1.93-1.19-1.74Z"/>
      <path class="cls-1" d="M53.76,33.07c-.65.3-.05.61-.05.61.78.39,1.47.4,1.47.4.63.56-.78.65-.78.65-2.25-.39-2.28-1.93-2.28-1.93.54-.72,1.64.26,1.64.26Z"/>
    </g>
    <path class="cls-13" d="M55.46,36.32c.06-.04.13-.08.2-.13.1-.05.15-.07.22-.1.13-.05.26-.11.4-.15l.43-.1c.58-.09,1.2-.02,1.74.19.55.21,1.02.55,1.42.93.2.2.37.39.55.66.15.26.28.53.34.81.14.55.14,1.1.07,1.62-.08.52-.21,1.02-.44,1.48-.02-.51-.05-1.01-.12-1.48-.07-.48-.18-.93-.36-1.32-.08-.2-.2-.37-.32-.52-.12-.13-.29-.31-.46-.44-.34-.28-.7-.52-1.09-.66-.38-.15-.79-.21-1.19-.18l-.31.04c-.1.02-.21.05-.31.08-.05.01-.12.03-.13.03-.04.01-.08.03-.12.06-.09.04-.18.1-.27.16-.36.24-.68.57-.96.95-.29.38-.53.81-.77,1.26,0-1.02.34-2.1,1.16-2.9.1-.1.21-.19.34-.28Z"/>
    <path class="cls-16" d="M40.17,35.06c2.87-2.39,1.87-5.4,1.87-5.4l.76.18c1.47,2.84-.74,5.09-.74,5.09-2.31,1.86-2.11,5.55-2.11,5.55l-1.23-.27c-.68-4.42,1.45-5.15,1.45-5.15Z"/>
    <path class="cls-16" d="M42.33,32.99c2.93-1.67,4.48,1.33,4.1,2.52-.65,2.05-2.22,1.61-2.22,1.61-.93-.12-2.52-.86-2.52-.86-1.51-1.87.64-3.27.64-3.27Z"/>
    <path class="cls-13" d="M42.67,31.95c.13-.06.25-.11.38-.17.13-.05.27-.08.41-.11.56-.12,1.18-.07,1.72.14.54.21,1,.56,1.37.95.18.21.35.4.5.68.14.26.23.54.28.81.11.54.08,1.06,0,1.56-.09.5-.23.98-.46,1.43-.02-.5-.04-.98-.1-1.44-.06-.46-.14-.91-.3-1.3-.04-.1-.08-.19-.13-.28-.04-.09-.1-.17-.15-.25-.09-.13-.26-.3-.41-.44-.31-.28-.65-.52-1.02-.65-.36-.14-.73-.19-1.12-.14-.1.02-.19.03-.29.05-.1.03-.2.06-.3.09-.06.01-.14.06-.23.11-.09.05-.17.11-.25.17-.68.51-1.19,1.32-1.66,2.19,0-.99.3-2.03,1.04-2.85.2-.2.38-.39.7-.55Z"/>
    <g>
      <g>
        <path class="cls-12" d="M48.06,31.26s.15.49.17,1.16l-.17-1.16Z"/>
        <path class="cls-12" d="M46.79,35.61c1.26-.87,1.48-2.22,1.44-3.19l1.28,8.52c2.74.46,3.33,3.23,3.33,3.23.23,2.82-2.63,2.05-2.63,2.05-1.65-1.3-2.89-.91-2.89-.91-2.57.69-4.55-.7-4.55-.7-2.09-1.89.47-5.32.47-5.32,1.21-1.94,3.55-3.67,3.55-3.67Z"/>
        <g>
          <path class="cls-13" d="M41.91,40.27c.23-.47.49-.89.81-1.32.5-.74,1.09-1.37,1.71-1.96.62-.59,1.29-1.12,1.99-1.61l.14-.1.12-.08c.08-.05.15-.11.23-.16.14-.12.28-.24.4-.38.24-.28.43-.62.56-.99.26-.74.3-1.58.19-2.41.3.78.42,1.65.27,2.53-.08.44-.24.87-.49,1.26-.12.19-.27.38-.43.54-.08.08-.17.17-.25.23l-.13.11-.11.09c-.61.53-1.19,1.12-1.73,1.71-.54.59-1.03,1.23-1.42,1.89l-.03.04c-.23.35-.45.77-.63,1.17-.18.41-.32.83-.39,1.23-.08.41-.08.8,0,1.14.05.17.11.33.2.47.08.13.19.25.31.37-.01,0-.03-.02-.04-.03l.07.05s-.02-.02-.03-.03c.08.05.2.12.3.17.13.07.26.13.39.18.27.11.54.2.82.26.56.13,1.14.18,1.71.12.14-.01.29-.03.43-.06.07-.01.13-.03.2-.04h.05s.1-.03.1-.03c.06-.01.12-.02.17-.03.44-.05.83,0,1.21.09.72.19,1.33.55,1.86.98-.04-.01-.08-.02-.12-.03l.21.1s-.06-.05-.09-.07c.09.02.19.04.28.05.14.02.29.03.42.03.28,0,.53-.06.72-.18.19-.12.33-.28.42-.53.09-.24.12-.53.12-.84,0,.01,0,.02,0,.03v-.05s0,.01,0,.02c-.06-.33-.19-.7-.34-1.03-.16-.35-.36-.68-.61-.98-.25-.3-.54-.57-.88-.78-.33-.22-.71-.38-1.11-.5.41.02.83.11,1.22.27.39.16.76.39,1.09.68.32.29.61.63.84.99.24.37.43.75.56,1.21h0s0,.05,0,.05c.05.37.06.76-.04,1.17-.09.41-.34.84-.72,1.11-.38.27-.81.39-1.21.43-.2.02-.4.02-.6.01-.2-.01-.38-.03-.61-.08l-.09-.02-.12-.09c-.48-.34-1-.61-1.52-.71-.26-.05-.52-.07-.74-.03-.03,0-.05,0-.07.01h-.02s-.07.02-.07.02c-.09.02-.19.05-.28.07-.18.04-.36.08-.54.1-.73.1-1.48.06-2.19-.1-.36-.08-.71-.19-1.05-.33-.17-.07-.34-.14-.5-.23-.17-.09-.31-.17-.51-.3l-.04-.02-.03-.03c-.22-.21-.43-.45-.6-.72-.16-.27-.28-.57-.36-.87-.14-.61-.1-1.21.01-1.75.12-.55.32-1.05.55-1.52Z"/>
          <path class="cls-13" d="M42.74,38.92s-.01.02-.02.03c0,0,0,0,0,.01l.03-.04Z"/>
        </g>
        <path class="cls-13" d="M50.58,45.76l-.21-.1s.07.02.12.03c.03.02.06.05.09.07Z"/>
        <path class="cls-13" d="M43.26,44.08l-.07-.05s.03.02.04.03c0,0,.02.02.03.03Z"/>
        <path class="cls-13" d="M52.44,44.22s0-.01,0-.02v.05s0-.02,0-.03Z"/>
      </g>
      <path class="cls-2" d="M48.82,33.92c.85,2.9.81,6.87.81,6.87l1.12.99c1.7.63,1.66,2.56,1.66,2.56-.51,1.29-1.44.02-1.44.02-.96-1.62-3.36-1.38-3.36-1.38-1.95-.07-2.35.14-2.35.14-.94-2.68,1.05-4.7,1.05-4.7,2.7-2.62,2.51-4.5,2.51-4.5Z"/>
      <g>
        <path class="cls-1" d="M48.55,32.85s0-.05-.02-.08c0,0,0,.03.02.08Z"/>
        <path class="cls-1" d="M46.37,36.42c2.24-2.03,2.22-3.27,2.17-3.57.75,2.41-1.34,4.62-1.34,4.62-3.37,3.23-1.85,5.38-1.85,5.38-1.46.39-2.48-.26-2.48-.26.02-4,3.5-6.17,3.5-6.17Z"/>
      </g>
    </g>
    <g>
      <path class="cls-13" d="M57.56,37.77c.78.49,1,1.56.48,2.39-.51.83-1.56,1.11-2.34.62-.78-.49-1-1.56-.48-2.39.51-.83,1.56-1.11,2.34-.62Z"/>
      <path class="cls-16" d="M57.86,39.52c.28.18.36.58.17.89-.19.31-.58.42-.86.24-.28-.18-.36-.58-.17-.89.19-.31.58-.42.86-.24Z"/>
    </g>
    <g>
      <path class="cls-13" d="M44.02,33.44c.71.44.9,1.41.44,2.17-.46.75-1.41,1-2.12.56-.71-.44-.9-1.41-.44-2.17.46-.75,1.41-1,2.12-.56Z"/>
      <path class="cls-16" d="M44.29,35.02c.26.16.33.52.15.8-.17.28-.52.38-.78.22-.26-.16-.33-.52-.15-.8.17-.28.52-.38.78-.22Z"/>
    </g>
    <g>
      <g>
        <path class="cls-4" d="M44.96,27.44s.71,1.27,1.28,2.14c0,0,.45.82,1.14.98.3.07.74-.37,1.24.13,0,0,.23,2.24-2.31,1.61,0,0-1.29-.5-1.58-1.2,0,0-.48-1.19-2.26-1.5,0,0-2.58.05-1.54-1.62,0,0,1.67-3.06,4.02-.54Z"/>
        <path class="cls-13" d="M40.45,27.68c-.46.75-.35,1.28-.17,1.6.47.82,1.77.89,2.15.89,1.37.26,1.76,1.11,1.78,1.15.36.88,1.65,1.42,1.91,1.51l.07.02c.35.09.67.13.96.13.56,0,1.02-.16,1.37-.46.78-.67.69-1.77.68-1.89l-.02-.2-.15-.15c-.57-.57-1.17-.4-1.46-.32-.03,0-.07.02-.1.03-.35-.11-.66-.56-.72-.68l-.02-.04c-.56-.85-1.25-2.1-1.26-2.11l-.03-.06-.05-.05c-.82-.88-1.68-1.27-2.56-1.16-1.41.18-2.27,1.62-2.37,1.8ZM41.27,28.72s-.02-.16.15-.43l.02-.03c.17-.31.78-1.14,1.52-1.23.48-.06.99.2,1.53.75.15.27.75,1.32,1.26,2.1.1.18.63,1.04,1.5,1.24.24.06.46,0,.63-.05.07-.02.12-.03.16-.04-.02.2-.09.46-.28.62-.3.26-.85.2-1.27.09-.43-.17-1.1-.56-1.23-.87-.02-.05-.62-1.49-2.69-1.85h-.05s-.05,0-.05,0c-.51.02-1.1-.14-1.19-.3Z"/>
      </g>
      <path class="cls-5" d="M44.13,27.43s.46.15.88,1.11c0,0,.56.96,1.11,1.95,0,0,.67.64-.82.41,0,0-1.29-.75-1.46-1.23,0,0-.33-.46-1.38-.52,0,0-1.19,0-.59-1.29,0,0,1.18-1.47,2.28-.44Z"/>
      <path class="cls-1" d="M42.94,26.93c.34-.3,1.56.83,1.56.83-2.1-1.03-2.06,1.22-2.06,1.22-.87.51-1.19-.42-1.19-.42.61-2,1.69-1.63,1.69-1.63Z"/>
    </g>
    <g>
      <path class="cls-9" d="M48.96,16.65c18.49-2.55,31.72,11.61,31.72,11.61-.95,11.72-3.32,18.25-3.32,18.25-19.11-15.05-37.34-17.66-37.34-17.66,5.84-10.78,8.95-12.2,8.95-12.2Z"/>
      <path class="cls-19" d="M39.51,28.58l-.39.73.82.12c.18.03,18.32,2.77,37.07,17.54l.62.49.27-.75c.1-.27,2.41-6.74,3.36-18.4l.02-.25-.17-.19c-.14-.15-3.43-3.64-9.06-6.87-5.2-2.98-13.45-6.26-23.16-4.92h-.08s-.08.05-.08.05c-.13.06-3.35,1.63-9.21,12.45ZM40.9,28.43c4.93-8.94,7.79-10.95,8.24-11.22,16.81-2.27,29.33,9.65,30.94,11.27-.76,9.11-2.4,15.06-3.02,17.08-16.52-12.79-32.45-16.42-36.16-17.13Z"/>
    </g>
    <path class="cls-7" d="M48.37,19.71c9.57-2.14,13.29,3.95,13.29,3.95,5.36,6.44,1.72,12.79,1.72,12.79-9.54-6.02-21.64-8.72-21.64-8.72,5.72-7.39,6.62-8.01,6.62-8.01Z"/>
    <path class="cls-16" d="M61.55,20.75c-6.15-1.32-11.72.32-11.72.32-4.06,4.47-4.6,5.9-4.6,5.9,12.94,3.9,17.21,8.88,17.21,8.88-16.2-7.18-21.41-7.75-21.41-7.75,3.91-6.45,5.97-8.82,5.97-8.82,5.8-1.44,14.55,1.47,14.55,1.47Z"/>
    <path class="cls-7" d="M78.27,31.48s.63,2.46-3,1.63c0,0,1.32,1.27-.27,9.92,0,0-2.3-1.89-3.6-2.5,0,0-1.6-9.91,1.82-14.27,0,0,3.45,1.4,5.06,5.22Z"/>
    <path class="cls-16" d="M75.75,28.58c-.48,4.53-2.63,10.31-2.63,10.31-1.02-9.97,1.35-12.29,1.35-12.29l1.28,1.98Z"/>
    <g>
      <path class="cls-19" d="M73.94,38.19c.26-1.44.51-2.88.74-4.33.23-1.45.43-2.89.59-4.34.08-.72.16-1.45.22-2.17.06-.72.12-1.46.13-2.15l1.15.05c-.07.77-.17,1.49-.28,2.22-.11.73-.24,1.46-.37,2.18-.26,1.45-.56,2.89-.88,4.32-.32,1.43-.67,2.86-1.02,4.28l-.55,2.13-.58,2.12.44-2.15.41-2.16Z"/>
      <path class="cls-19" d="M50.91,26.97c.32-.95.65-1.91,1.03-2.84.38-.94.78-1.87,1.24-2.77.23-.45.47-.9.73-1.35.26-.45.52-.87.87-1.32l.87.76c-.29.32-.61.72-.89,1.11-.29.4-.56.81-.83,1.22-.53.84-1.01,1.7-1.47,2.59-.46.88-.88,1.79-1.28,2.71-.2.46-.39.92-.58,1.38l-.54,1.4.41-1.45c.15-.48.29-.96.45-1.44Z"/>
    </g>
    <g>
      <g>
        <path class="cls-9" d="M73.66,28.9c.33.08.48.61.35,1.2-.14.59-.51,1-.84.93-.33-.08-.48-.61-.35-1.2.14-.59.51-1,.84-.93Z"/>
        <path class="cls-19" d="M73.04,28.48c-.36.23-.65.68-.77,1.22-.09.38-.08.76,0,1.08.12.43.41.72.77.81h0c.07.02.14.02.21.02.3,0,.6-.14.84-.41.22-.25.39-.59.48-.97.09-.38.08-.76,0-1.08-.12-.43-.41-.72-.77-.81-.25-.06-.52,0-.75.14ZM73.35,30.25c0-.08,0-.18.03-.29.03-.11.06-.21.1-.28,0,.08,0,.18-.03.29s-.06.21-.1.28Z"/>
      </g>
      <path class="cls-7" d="M73.5,29.57c.19.04.28.36.2.7-.08.34-.3.59-.49.54-.19-.04-.28-.36-.2-.7.08-.35.3-.59.49-.54Z"/>
      <path class="cls-16" d="M73.36,29.95c.13.03.2.25.14.49-.05.24-.21.41-.34.38-.13-.03-.2-.25-.14-.49.06-.24.21-.41.34-.38Z"/>
    </g>
    <g>
      <g>
        <path class="cls-9" d="M72.22,34.47c.33.08.48.61.35,1.2-.14.59-.51,1-.84.93-.33-.08-.48-.61-.35-1.2.14-.59.51-1,.84-.93Z"/>
        <path class="cls-19" d="M70.82,35.27c-.12.54-.06,1.07.16,1.43.15.24.37.4.62.46.07.02.14.02.21.02.3,0,.59-.14.84-.41.22-.25.39-.59.48-.97.12-.54.06-1.07-.16-1.43-.15-.24-.37-.4-.62-.46-.66-.15-1.31.43-1.53,1.36ZM71.91,35.82c0-.08,0-.18.03-.29.03-.11.06-.21.1-.28,0,.08,0,.18-.03.29-.03.11-.06.21-.1.28Z"/>
      </g>
      <path class="cls-7" d="M72.05,35.15c.19.04.28.36.2.71-.08.35-.3.59-.49.54-.19-.04-.28-.36-.2-.7.08-.34.3-.59.49-.54Z"/>
      <path class="cls-16" d="M71.91,35.52c.13.03.2.25.14.49-.06.24-.21.41-.34.38-.13-.03-.2-.25-.14-.49.06-.24.21-.41.34-.38Z"/>
    </g>
    <g>
      <g>
        <path class="cls-9" d="M47.84,16.17c.45-.38.87-.64.87-.64,6.5-1.33,11.91.7,11.91.7,13.78,3.39,20.52,12.38,20.52,12.38-.03,3.43-.84,3.51-.84,3.51-5.78-7-15.44-10.78-15.44-10.78-7.67-3.48-17.82-2.87-17.82-2.87-.45-.32-.3-.57-.23-.91.11-.5.58-1.01,1.03-1.4Z"/>
        <path class="cls-19" d="M46.22,17.56c-.07.29-.23.89.49,1.39l.16.11h.2c.1-.02,10.1-.57,17.55,2.81h.03c.1.05,9.59,3.82,15.21,10.62l.19.24.3-.03c.6-.06,1.32-.81,1.36-4.08v-.19s-.11-.16-.11-.16c-.28-.37-7.01-9.18-20.81-12.59-.51-.19-5.8-2.02-12.2-.71l-.1.02-.09.05s-.47.29-.94.7c-.69.59-1.1,1.17-1.22,1.71,0,.04-.02.08-.03.11ZM47.32,17.88s0-.03.01-.04c.01-.05.03-.1.04-.16.06-.28.37-.67.84-1.08.29-.25.58-.45.72-.54,6.22-1.24,11.44.68,11.49.7l.06.02c12.44,3.06,19.13,10.84,20.08,12.02-.03,1.29-.17,2-.29,2.39-5.78-6.6-14.63-10.16-15.18-10.38-7.04-3.19-15.95-3-17.77-2.93Z"/>
      </g>
      <path class="cls-7" d="M51.78,15.82c10.43-.06,18.32,4.81,18.32,4.81-13.52-4.51-19.65-2.86-19.65-2.86-1.55-.25,1.33-1.95,1.33-1.95Z"/>
      <path class="cls-16" d="M56.03,16.45c-2.8.87-7.63,1.43-7.63,1.43-1.36.59-.8-.89-.8-.89,2.49-2.9,8.43-.54,8.43-.54Z"/>
      <g>
        <g>
          <path class="cls-9" d="M52.37,15.88c.27.13.3.61.06,1.07-.24.46-.64.72-.91.59-.27-.13-.3-.61-.06-1.07.24-.46.64-.72.91-.59Z"/>
          <path class="cls-19" d="M52.63,15.37c.22.11.39.31.48.57.12.37.06.84-.16,1.28-.3.59-.8.94-1.27.94-.14,0-.28-.03-.41-.09-.22-.11-.39-.31-.48-.57-.12-.37-.06-.84.16-1.28.39-.76,1.11-1.12,1.68-.84Z"/>
        </g>
        <path class="cls-7" d="M52.09,16.41c.16.08.17.36.04.63-.14.27-.38.42-.54.35-.16-.08-.17-.36-.04-.63s.38-.42.54-.35Z"/>
        <path class="cls-16" d="M51.89,16.69c.11.05.12.25.02.43-.09.19-.26.29-.37.24-.11-.05-.12-.25-.02-.43.1-.19.26-.29.37-.24Z"/>
      </g>
      <g>
        <g>
          <path class="cls-9" d="M72.51,22.1c.33.11.46.66.28,1.23-.18.57-.6.95-.94.85-.33-.11-.46-.66-.28-1.23.18-.57.6-.95.94-.85Z"/>
          <path class="cls-19" d="M71.02,22.77c-.12.37-.14.76-.07,1.09.1.43.36.75.72.86h0c.1.03.2.05.29.05.57,0,1.12-.49,1.37-1.27.29-.91,0-1.75-.65-1.96-.66-.21-1.37.32-1.66,1.22ZM72.06,23.5c0-.1,0-.23.06-.38.05-.15.11-.27.17-.34,0,.1,0,.23-.06.38-.05.15-.11.27-.17.34Z"/>
        </g>
        <path class="cls-7" d="M72.29,22.76c.2.06.27.39.16.72-.11.34-.35.56-.55.5-.2-.06-.27-.39-.16-.72.11-.34.35-.56.55-.5Z"/>
        <path class="cls-16" d="M72.12,23.12c.14.04.19.27.11.5-.07.23-.24.39-.38.34-.14-.04-.19-.27-.11-.5.07-.23.24-.39.38-.34Z"/>
      </g>
      <g>
        <g>
          <path class="cls-9" d="M78.24,26.61c.34.08.52.62.39,1.21-.13.59-.51,1.01-.85.93-.34-.08-.52-.62-.39-1.21.13-.59.51-1.01.85-.93Z"/>
          <path class="cls-19" d="M76.82,27.42c-.2.93.16,1.74.83,1.89h0c.07.02.14.02.2.02.2,0,.39-.06.57-.18.37-.24.64-.68.76-1.22.2-.93-.16-1.74-.83-1.89-.26-.06-.54,0-.78.15-.36.23-.64.69-.76,1.22ZM77.93,28.05c-.01-.1-.02-.23.02-.39.03-.15.09-.27.14-.35.01.1.02.23-.02.39-.03.15-.09.27-.14.35Z"/>
        </g>
        <path class="cls-7" d="M78.08,27.29c.2.04.31.36.23.71-.07.35-.3.59-.5.55-.2-.04-.31-.36-.23-.71.07-.35.3-.59.5-.55Z"/>
        <path class="cls-16" d="M77.94,27.66c.14.03.21.25.16.49-.05.24-.2.41-.34.38-.14-.03-.21-.25-.16-.49.05-.24.21-.41.34-.38Z"/>
      </g>
      <g>
        <g>
          <path class="cls-9" d="M60.11,16.71c.33.13.4.69.17,1.25-.23.56-.68.9-1.01.77-.33-.13-.4-.69-.17-1.25.23-.56.68-.9,1.01-.77Z"/>
          <path class="cls-19" d="M58.57,17.26c-.21.51-.24,1.03-.07,1.43.11.27.31.47.55.57.12.05.24.07.37.07.54,0,1.09-.44,1.39-1.15.21-.51.24-1.03.07-1.43-.11-.27-.31-.47-.55-.57-.64-.26-1.39.21-1.76,1.08ZM59.54,18.07c0-.1.03-.22.09-.37.06-.15.14-.26.2-.33,0,.1-.03.22-.09.37-.06.15-.14.26-.2.33Z"/>
        </g>
        <path class="cls-7" d="M59.83,17.35c.19.08.24.41.1.73-.14.33-.4.53-.59.45-.19-.08-.24-.41-.1-.73.14-.33.4-.53.59-.45Z"/>
        <path class="cls-16" d="M59.63,17.7c.13.05.16.28.07.51-.09.23-.28.37-.41.31-.13-.05-.16-.28-.07-.51.09-.23.28-.37.41-.31Z"/>
      </g>
    </g>
    <g>
      <g>
        <path class="cls-9" d="M48.41,21.04c.3.15.32.71.05,1.25-.27.54-.74.85-1.04.69-.3-.15-.32-.71-.04-1.25.27-.54.74-.85,1.04-.69Z"/>
        <path class="cls-19" d="M46.86,21.48c-.18.34-.27.72-.25,1.05.02.45.22.8.55.97h0c.13.07.28.1.43.1.51,0,1.05-.39,1.39-1.05.43-.85.31-1.71-.3-2.02-.34-.17-.74-.13-1.11.12-.28.19-.53.48-.7.82ZM47.78,22.28c.02-.08.05-.17.1-.28.05-.1.11-.18.16-.25-.02.08-.05.17-.1.28-.05.1-.11.18-.16.25Z"/>
      </g>
      <path class="cls-7" d="M48.09,21.66c.18.09.19.42.03.73-.16.31-.43.5-.61.41-.18-.09-.19-.42-.03-.73.16-.32.43-.5.61-.41Z"/>
      <path class="cls-16" d="M47.86,21.99c.12.06.13.29.02.51-.11.22-.3.34-.42.28-.12-.06-.13-.29-.02-.51s.3-.34.42-.28Z"/>
    </g>
    <g>
      <g>
        <path class="cls-9" d="M45.58,25.28c.3.15.32.71.05,1.25-.27.54-.74.85-1.04.69-.3-.15-.32-.71-.05-1.25.27-.54.74-.85,1.04-.7Z"/>
        <path class="cls-19" d="M44.03,25.71c-.43.85-.3,1.71.3,2.02h0c.13.07.28.1.43.1.51,0,1.05-.39,1.39-1.05.43-.84.31-1.71-.3-2.02-.6-.31-1.38.1-1.81.95ZM44.95,26.51c.02-.08.05-.17.1-.28.05-.1.11-.18.16-.25-.02.08-.05.18-.1.28-.05.1-.11.18-.16.25Z"/>
      </g>
      <path class="cls-7" d="M45.26,25.89c.18.09.19.42.03.73-.16.32-.43.5-.61.41-.18-.09-.19-.42-.03-.73.16-.32.43-.5.61-.41Z"/>
      <path class="cls-16" d="M45.03,26.22c.12.06.13.29.02.51-.11.22-.3.34-.42.28-.12-.06-.13-.29-.02-.51.11-.22.3-.34.42-.28Z"/>
    </g>
    <g>
      <g>
        <path class="cls-9" d="M43.78,37.49l3.13-7.38s2.1-2.77,4.18-2.7c0,0,1.74,1.9.77,4.86,0,0-1.41,3.7-2.92,6.72,7.99,2.94,15.21,6.15,15.21,6.15,2.04-6.78,2.03-9.74,2.03-9.74,8.12,4.23,13.3,9.14,13.3,9.14.46,1.4.76.24.54,1.12-2.97,12.12-7.36,19.7-7.36,19.7-3.32-.95-5.17-.79-5.17-.79-13.15,4.62-30.25.53-30.25.53-3.19-2.26-3.57-4.1-3.57-4.1.03-12.68,3.41-24.48,3.41-24.48,2.78.27,5,.63,6.68.98Z"/>
        <path class="cls-19" d="M33.11,60.99v.06s.01.06.01.06c.02.08.46,2.09,3.8,4.45l.09.06.11.03c.11.03,7.14,1.67,15.63,1.67,4.82,0,10.11-.53,14.87-2.19.35-.01,2.08-.03,4.9.78l.43.12.22-.39c.04-.08,4.47-7.79,7.43-19.85.09-.38.16-.64-.07-.89-.06-.06-.17-.16-.34-.19-.03-.06-.08-.18-.15-.36l-.05-.14-.11-.1c-.05-.05-5.33-5.02-13.43-9.24l-.84-.44v.95s-.02,2.8-1.82,8.95c-1.84-.8-7.68-3.31-14.05-5.68,1.4-2.88,2.65-6.16,2.66-6.19,1.07-3.27-.8-5.36-.88-5.45l-.16-.18h-.24c-2.36-.09-4.57,2.79-4.66,2.92l-.04.06-2.98,7.01c-1.91-.38-4.02-.68-6.28-.89l-.48-.05-.13.46c-.03.12-3.4,12.03-3.43,24.64ZM34.26,60.92c.04-11.02,2.65-21.49,3.26-23.79,2.22.23,4.29.54,6.14.92l.46.1,3.29-7.74c.54-.69,2.05-2.26,3.41-2.41.36.51,1.18,1.99.49,4.1,0,.01-1.41,3.69-2.89,6.64l-.29.58.6.22c7.88,2.9,15.11,6.1,15.18,6.13l.6.26.19-.62c1.43-4.74,1.87-7.63,2-8.99,6.91,3.72,11.55,7.87,12.29,8.54.08.24.22.57.46.78-2.54,10.31-6.15,17.35-7.06,19.04-2.31-.62-3.87-.7-4.55-.7-.24,0-.37.01-.39.01h-.07s-.07.03-.07.03c-12.3,4.32-28.35.87-29.82.54-2.59-1.86-3.15-3.37-3.23-3.64Z"/>
      </g>
      <path class="cls-7" d="M50.4,27.98c1.71.63.87,4.13.87,4.13l-3.49,7.72c11.68,4.36,17.37,7.11,17.37,7.11,2.19-8.05,2.23-10.33,2.23-10.33,2.5,1.21,2.81,3.03,2.81,3.03-4.94,18.6-9.07,24.41-9.07,24.41-7.45,2.99-24.13-.32-24.13-.32,5.06-17.78,7.44-22.98,7.44-22.98,3.23-7.73,5.97-12.77,5.97-12.77Z"/>
      <path class="cls-7" d="M44.36,38.64l1.97-4.83c1.19-4.53,3.81-5.01,3.81-5.01-2.45,4.81-5.61,12.58-5.61,12.58-1,2.82-3.49,2.82-3.49,2.82-3.83,2.4-2.34,6.5-2.34,6.5,1.36,5.58-3.94,9.16-3.94,9.16.58-13.91,2.96-22.13,2.96-22.13,4.63-.06,6.64.9,6.64.9Z"/>
      <g>
        <g>
          <path class="cls-9" d="M50.24,28.78c.31.13.38.68.16,1.24-.22.56-.66.91-.97.79-.31-.13-.38-.68-.16-1.24.23-.56.66-.91.97-.78Z"/>
          <path class="cls-19" d="M48.73,29.35c-.35.88-.15,1.73.47,1.99h0c.11.05.23.07.35.07.53,0,1.08-.45,1.37-1.17.35-.88.15-1.73-.48-1.99-.62-.25-1.36.22-1.72,1.1ZM49.72,30.06c.01-.08.04-.18.08-.29.04-.11.09-.19.14-.26-.01.08-.04.18-.08.28-.04.11-.09.19-.14.26Z"/>
        </g>
        <path class="cls-7" d="M49.97,29.42c.18.07.22.4.09.73-.13.33-.39.54-.57.46-.18-.07-.22-.4-.09-.73.13-.33.39-.53.57-.46Z"/>
        <path class="cls-16" d="M49.77,29.77c.13.05.16.28.06.5-.09.23-.27.37-.39.32-.13-.05-.15-.28-.06-.5.09-.23.27-.37.39-.32Z"/>
      </g>
      <g>
        <g>
          <path class="cls-9" d="M69.32,38.44c.33.07.5.6.38,1.19-.12.59-.48,1.01-.81.95s-.5-.6-.38-1.19c.12-.59.48-1.01.81-.95Z"/>
          <path class="cls-19" d="M67.94,39.27c-.19.93.17,1.73.83,1.87h0c.06.01.12.02.19.02.59,0,1.13-.57,1.31-1.42.19-.93-.17-1.73-.83-1.87-.66-.14-1.3.47-1.49,1.4ZM69.04,39.8c0-.08,0-.18.03-.3s.06-.21.09-.28c0,.08,0,.18-.03.3-.02.11-.06.21-.09.28Z"/>
        </g>
        <path class="cls-7" d="M69.17,39.12c.19.04.29.35.22.7-.07.35-.28.6-.48.56-.19-.04-.29-.35-.22-.7.07-.35.29-.6.48-.56Z"/>
        <path class="cls-16" d="M69.04,39.5c.13.03.2.24.15.48-.05.24-.2.41-.33.38-.13-.03-.2-.24-.15-.48.05-.24.2-.41.33-.38Z"/>
      </g>
      <path class="cls-16" d="M64.45,46.14c2.58-8.82,1.84-10.1,1.84-10.1l1.09.59c.07,4.17-1.85,11.05-1.85,11.05-9.96-4.22-17.6-7-17.6-7l.1-1.29c4.96,1.74,16.42,6.77,16.42,6.77Z"/>
      <g>
        <g>
          <path class="cls-9" d="M73.74,41.64c.33.07.5.6.38,1.19-.12.59-.48,1.01-.81.95-.33-.07-.5-.6-.38-1.19.12-.59.48-1.01.81-.95Z"/>
          <path class="cls-19" d="M72.36,42.47c-.19.93.17,1.73.83,1.87.06.01.12.02.19.02.31,0,.61-.15.85-.43.22-.25.38-.6.46-.98.08-.38.06-.76-.04-1.08-.14-.43-.42-.71-.79-.79-.66-.14-1.3.47-1.49,1.4ZM73.46,42.99c0-.08,0-.18.03-.3.02-.11.06-.21.09-.28,0,.08,0,.18-.03.3-.02.11-.06.21-.09.28Z"/>
        </g>
        <path class="cls-7" d="M73.59,42.31c.19.04.29.35.22.7-.07.35-.28.6-.48.56-.19-.04-.29-.35-.22-.7.07-.35.28-.6.48-.56Z"/>
        <path class="cls-16" d="M73.46,42.69c.13.03.2.24.15.48-.05.24-.2.41-.33.38-.13-.03-.2-.24-.15-.48.05-.24.2-.41.33-.38Z"/>
      </g>
      <g>
        <g>
          <path class="cls-9" d="M71.77,48.55c.31.12.39.67.18,1.24-.22.56-.64.92-.96.8-.31-.12-.39-.67-.18-1.24.22-.56.64-.92.96-.8Z"/>
          <path class="cls-19" d="M70.27,49.14c-.14.36-.19.74-.14,1.07.06.44.3.77.65.91h0c.11.04.22.06.33.06.26,0,.52-.1.76-.3.26-.21.47-.53.61-.89.2-.51.21-1.05.04-1.44-.11-.25-.31-.45-.55-.54-.24-.09-.51-.08-.76.03-.39.17-.74.58-.94,1.1ZM71.27,49.84c.01-.08.03-.18.07-.29.04-.11.09-.2.14-.26-.01.08-.03.18-.07.29-.04.11-.09.2-.14.26Z"/>
        </g>
        <path class="cls-7" d="M71.51,49.19c.18.07.23.4.1.73-.13.33-.38.54-.56.47-.18-.07-.23-.4-.1-.73.13-.33.38-.54.56-.47Z"/>
        <path class="cls-16" d="M71.32,49.54c.13.05.16.27.07.5-.09.23-.26.37-.39.33-.13-.05-.16-.27-.07-.5.09-.23.26-.37.39-.32Z"/>
      </g>
      <g>
        <g>
          <path class="cls-9" d="M69.69,54.22c.31.12.39.67.18,1.24-.21.56-.64.92-.96.8-.31-.12-.39-.67-.18-1.24.22-.56.64-.92.96-.8Z"/>
          <path class="cls-19" d="M68.19,54.82c-.34.89-.12,1.74.51,1.98h0c.11.04.22.06.33.06.26,0,.52-.1.76-.3.26-.21.47-.53.61-.89.2-.51.21-1.05.04-1.44-.11-.25-.31-.45-.55-.54-.24-.09-.51-.08-.76.03-.39.17-.74.58-.94,1.1ZM69.19,55.52c.01-.08.03-.18.07-.29.04-.11.09-.19.14-.26-.01.08-.03.18-.07.29-.04.11-.09.2-.14.26Z"/>
        </g>
        <path class="cls-7" d="M69.43,54.87c.18.07.23.4.1.73-.13.33-.38.54-.56.47-.18-.07-.23-.4-.1-.73.13-.33.38-.54.56-.47Z"/>
        <path class="cls-16" d="M69.24,55.22c.13.05.16.27.07.5-.09.23-.26.37-.39.33-.13-.05-.16-.27-.07-.5.09-.23.26-.37.39-.32Z"/>
      </g>
      <g>
        <g>
          <path class="cls-9" d="M67.69,59.63c.31.12.39.67.18,1.24-.22.56-.64.92-.96.8-.31-.12-.39-.67-.18-1.24.22-.56.64-.92.96-.8Z"/>
          <path class="cls-19" d="M66.2,60.22c-.34.89-.12,1.74.51,1.98h0c.11.04.22.06.33.06.26,0,.52-.1.76-.3.26-.21.47-.53.61-.89.2-.51.21-1.05.04-1.44-.11-.26-.31-.45-.55-.54-.35-.13-.75-.05-1.09.24-.26.21-.47.53-.61.89ZM67.2,60.92c.01-.08.03-.18.07-.29s.09-.19.14-.26c-.01.08-.03.18-.07.29-.04.11-.09.2-.14.26Z"/>
        </g>
        <path class="cls-7" d="M67.44,60.27c.18.07.23.4.1.73-.13.33-.38.54-.56.47-.18-.07-.23-.4-.1-.73.13-.33.38-.54.56-.47Z"/>
        <path class="cls-16" d="M67.24,60.62c.13.05.16.27.07.5-.09.23-.26.37-.39.33s-.16-.27-.07-.5c.09-.23.26-.37.39-.33Z"/>
      </g>
      <path class="cls-7" d="M73.86,51.46s-.77-8.96,2.46-8.48c0,0,2.18.82,2.06,1.55,0,0-2.23,8.92-7.71,19.56,0,0-1.37.43-.11-2.23,0,0,3.28-7.27,3.3-10.4Z"/>
      <path class="cls-16" d="M79.53,45.51c-1.84,8.89-7.22,19.09-7.22,19.09-.98-.16-1.55-.79-1.55-.79,5.17-10.69,7.62-19.29,7.62-19.29l1.15.99Z"/>
      <path class="cls-19" d="M69.63,58.63c.74-1.87,1.44-3.76,2.11-5.65.66-1.9,1.29-3.81,1.86-5.73.56-1.92,1.1-3.87,1.51-5.8l1.12.24c-.52,2-1.15,3.9-1.81,5.82-.67,1.91-1.39,3.8-2.14,5.67-.76,1.87-1.55,3.72-2.38,5.56-.41.92-.85,1.83-1.27,2.75l-1.31,2.72,1.18-2.78c.38-.93.77-1.86,1.13-2.8Z"/>
      <path class="cls-19" d="M41.53,48.81c.88-2.68,1.77-5.36,2.9-7.95,1.12-2.59,2.31-5.14,3.63-7.63-1.22,2.54-2.31,5.13-3.32,7.76-1.03,2.61-1.83,5.31-2.62,8-.78,2.7-1.52,5.42-2.23,8.14-.71,2.72-1.4,5.45-2.06,8.18l-1.11-.29c.75-2.72,1.53-5.43,2.33-8.13.8-2.7,1.62-5.4,2.49-8.08Z"/>
    </g>
    <g>
      <path class="cls-7" d="M42.04,29.66s-1.78,1.61-3.08,6.73l-1.78-.15s1.02-4.69,2.75-7.1c0,0,.99-.56,2.11.53Z"/>
      <path class="cls-19" d="M36.62,36.11l-.14.64,2.91.24.12-.47c1.24-4.89,2.89-6.43,2.91-6.44l.45-.41-.44-.43c-1.41-1.37-2.74-.65-2.79-.62l-.11.06-.07.1c-1.78,2.48-2.8,7.12-2.84,7.32ZM37.9,35.72c.33-1.31,1.19-4.33,2.41-6.12.16-.05.49-.09.9.14-.62.8-1.75,2.61-2.68,6.03l-.63-.05Z"/>
    </g>
    <path class="cls-16" d="M43.97,37.85l-.46,1.71c-3.13-.68-4.73-.87-4.73-.87-2.49,6.28-4.11,21.46-4.11,21.46-1.27-6.5,2.89-23.19,2.89-23.19,3.08.22,6.41.89,6.41.89Z"/>
    <path class="cls-16" d="M45,46.58c1.25,3.86-1.8,6.52-1.8,6.52-3.15,4.21.02,6.57.02,6.57,3.35,2.12,3.33,5.38,3.33,5.38-6.87-.25-8.83-1.08-8.83-1.08,2.95-13.69,8.39-25.84,8.39-25.84-1.72,3.99-1.11,8.45-1.11,8.45Z"/>
  </g>
  <g>
    <g>
      <path class="cls-9" d="M58.93,68.53c.64-.25,6.09-2.08,10.7-.45,0,0,5.34,2.19,9.83,7.19,0,0-5.05,2.36-5.57,6.73,0,0-3.56-3.13-6.59-5.6-1.08-.88-5.03-.02-7.73-.21-3.14-.21-5.28-5.85-.64-7.66Z"/>
      <path class="cls-19" d="M55.73,72.82c.33,2.12,1.96,3.82,3.81,3.94,1.07.07,2.31,0,3.5-.09,1.52-.1,3.42-.23,3.91.17,2.99,2.44,6.54,5.55,6.58,5.59l.82.72.13-1.09c.47-3.99,5.2-6.25,5.24-6.28l.7-.33-.52-.58c-4.53-5.04-9.82-7.25-10.04-7.34h-.03c-5.08-1.8-11.05.42-11.11.45-2.21.86-3.33,2.67-3,4.83ZM59.14,69.06c.05-.02,5.6-2.09,10.29-.45.27.12,4.98,2.15,9.11,6.5-1.32.77-4.16,2.72-5.01,5.8-1.21-1.05-3.68-3.18-5.86-4.96-.84-.68-2.64-.56-4.71-.43-1.15.08-2.35.16-3.34.09-1.3-.09-2.51-1.39-2.75-2.97-.12-.76-.13-2.64,2.28-3.58Z"/>
    </g>
    <path class="cls-7" d="M62.69,69.83s2.56-.71,5.65-.12c0,0,1.03-.1,3.74,2.34,0,0-2.58,1.64-2.92,4.92,0,0-.69-.77-2.29-1.6,0,0-2.94-.32-5.93.06,0,0-3.14.56-3.58-2.43,0,0-.19-2.29,5.32-3.16Z"/>
    <g>
      <g>
        <g>
          <path class="cls-11" d="M77.27,70.64c1.75,1.76,3.15,5.62,3.15,5.62-5.64,2.01-6.02,6.78-6.02,6.78l-5.62-4.11c1.75-7.08,8.49-8.29,8.49-8.29Z"/>
          <path class="cls-6" d="M68.23,78.79l-.09.37,6.76,4.94.08-1.03c.02-.18.45-4.43,5.64-6.28l.55-.19-.2-.54c-.06-.16-1.47-4-3.29-5.83l-.21-.21-.3.05c-.07.01-7.12,1.36-8.94,8.72ZM69.44,78.7c1.57-5.56,6.37-7.11,7.64-7.42,1.18,1.33,2.19,3.63,2.6,4.66-3.98,1.63-5.26,4.59-5.67,6.11l-4.57-3.34Z"/>
        </g>
        <path class="cls-15" d="M78.91,76.09s-3.23,1.33-4.6,5.87l-4.76-3.23s3.63-8.04,9.36-2.65Z"/>
        <g>
          <path class="cls-6" d="M75.31,77.01c.29-.06.58-.09.87-.11.3-.01.6,0,.91.05-.27.17-.54.29-.82.39-.28.1-.56.17-.85.23-.29.06-.58.09-.88.11-.3.01-.6,0-.91-.05.26-.17.54-.29.82-.39.28-.1.56-.17.85-.23Z"/>
          <path class="cls-6" d="M75.45,76.2c.12-.27.25-.55.43-.8.05.31.03.61,0,.91-.03.3-.08.59-.15.87-.07.29-.16.57-.27.84-.12.27-.25.55-.43.8-.05-.31-.03-.61,0-.91.03-.3.08-.59.16-.87.07-.29.16-.57.28-.84Z"/>
        </g>
        <g>
          <path class="cls-6" d="M73.75,75.27c.29-.06.58-.09.87-.11.3-.01.6,0,.91.05-.26.18-.54.29-.82.39-.28.1-.56.17-.85.23-.29.06-.58.09-.87.11-.3.01-.6,0-.91-.05.26-.17.54-.29.82-.39.28-.1.56-.17.85-.23Z"/>
          <path class="cls-6" d="M73.9,74.45c.12-.27.25-.55.43-.8.05.31.03.61,0,.91-.03.3-.08.59-.16.87-.07.29-.16.57-.28.84-.12.27-.25.54-.43.8-.05-.31-.03-.61,0-.91.03-.3.08-.59.16-.87.07-.29.16-.57.28-.84Z"/>
        </g>
      </g>
      <g>
        <g>
          <path class="cls-11" d="M77.54,77.42c2.83-2.46,4.66-1.05,4.66-1.05,1.68,1.22,3.48,3.16,3.48,3.16l-.54,1.62c.63.48.57.66.57.66l-.67,1.58c.42.67-.09,1.77-.09,1.77-1.55,1.42-1.53,3.3-1.53,3.3-.19,1-2.98-.12-2.98-.12-.98,1.21-2.5.17-2.5.17-.63-1.34-3.65-2.41-3.65-2.41-.66-6.02,3.24-8.66,3.24-8.66Z"/>
          <path class="cls-6" d="M73.73,86.15l.04.36.34.12c1.08.38,2.94,1.3,3.32,2.12l.07.14.13.09c.36.25.98.52,1.63.52.45,0,.93-.13,1.34-.49.75.27,2.14.67,2.87.27.28-.15.46-.4.52-.71v-.06s.01-.06.01-.06c0-.01.01-1.65,1.34-2.87l.08-.08.05-.1c.06-.13.51-1.16.19-2.03l.58-1.39c.13-.4-.17-.77-.45-1.03l.52-1.57-.23-.25c-.08-.08-1.86-1.99-3.56-3.23-.19-.14-2.3-1.58-5.35,1.06-.41.29-4.12,3.1-3.46,9.18ZM74.84,85.67c-.43-5.33,2.88-7.68,3.02-7.78l.05-.04c2.45-2.13,3.92-1.04,3.93-1.03h.01c1.26.93,2.63,2.3,3.16,2.85l-.56,1.69.33.25c.13.1.22.18.28.23l-.67,1.59.16.25c.17.27.03.83-.08,1.13-1.37,1.31-1.58,2.93-1.61,3.46-.33.08-1.34-.14-2.19-.49l-.4-.16-.27.33c-.52.65-1.32.29-1.62.12-.69-1.19-2.7-2.09-3.55-2.42Z"/>
        </g>
        <path class="cls-15" d="M78.74,79.07c.81-.51,1.97-.62,1.97-.62,1.75.53,2.74,2.07,2.74,2.07.64,1.3-.45,1.69-.45,1.69,1.09,1.15.21,3.15.21,3.15-.66,1.37-.57,2.74-.57,2.74-.56.46-1.54-.33-1.54-.33.04-3.26-2.03-3.62-2.03-3.62.83,1.06.78,2.81.78,2.81-.13,1.26-1.52.9-1.52.9-2.12-2.2-3.19-2.09-3.19-2.09.48-5.5,3.59-6.7,3.59-6.7Z"/>
        <g>
          <g>
            <path class="cls-6" d="M79.98,87.96h0s0,0,0,0c0,0-.02,0,0,0Z"/>
            <path class="cls-6" d="M79.48,84.07c.07-.21.18-.39.31-.56.07-.08.14-.15.21-.23l.23-.19-.19.23c-.06.08-.11.17-.16.25-.09.17-.16.36-.18.54-.02.18,0,.36.08.53.06.16.18.32.29.41h0s.02.03.02.03c.2.25.41.5.59.78.18.28.34.58.47.92.11.34.19.73.1,1.17-.05.21-.14.43-.28.62-.07.1-.15.18-.24.26-.05.04-.09.08-.14.11-.03.02-.05.03-.08.05-.03.02-.05.03-.11.06l-.39-1.08s0,0,.01,0c.02,0,.03-.01.05-.02.03-.02.07-.04.1-.06.06-.05.12-.12.16-.2.08-.17.1-.42.06-.69-.05-.27-.13-.55-.24-.82-.11-.28-.26-.55-.4-.82l.03.03c-.17-.2-.25-.4-.31-.63-.05-.22-.04-.46.03-.67Z"/>
          </g>
          <path class="cls-6" d="M81.91,85.11c.22.06.44.13.65.23-.45,0-.89.09-1.33.17-.44.08-.88.17-1.31.27l-.02-1.15c.45.09.9.19,1.34.3.22.05.44.11.66.18Z"/>
          <polygon class="cls-6" points="84.66 83.82 82.49 81.12 85.42 82.95 84.66 83.82"/>
          <polygon class="cls-6" points="84.74 81.56 83.26 79.31 85.54 80.73 84.74 81.56"/>
        </g>
      </g>
    </g>
  </g>
  <g>
    <g>
      <path class="cls-9" d="M80.35,54.03s2.84-.95,15.44,5.47c9.29,4.73,14.48,9.78,14.48,9.78-7.32,19.31-10.71,23.01-10.71,23.01-8.3,14.26-27.22,14.82-27.33,14.67-.19,0-10.85-15.64-4.2-30.73,0,0,1-4.92,12.32-22.19Z"/>
      <path class="cls-19" d="M67.48,76.03c-6.04,13.76,1.94,27.63,3.6,30.28.39.61.6.92.75,1.07.04.04.07.07.13.09.05.03.1.04.15.05.09.02.22.03.39.03.22,0,.52-.01.94-.04,3.11-.21,19.01-1.93,26.59-14.89.44-.52,3.86-4.91,10.78-23.14l.13-.35-.27-.26c-.05-.05-5.36-5.16-14.62-9.88-12.46-6.35-15.57-5.61-15.89-5.5l-.19.06-.11.17c-10.69,16.31-12.22,21.66-12.38,22.32ZM68.56,76.45l.04-.12s1.18-5.08,12.09-21.77c.8-.04,4.45.15,14.84,5.45,7.92,4.03,12.88,8.34,14.06,9.42-7.05,18.54-10.43,22.43-10.46,22.46l-.07.1c-4.12,7.09-10.97,10.62-15.99,12.34-5.13,1.76-9.52,2.06-10.55,2.07h-.02c-.6-.84-2.93-4.58-4.53-9.76-1.56-5.07-2.73-12.69.58-20.19Z"/>
    </g>
    <path class="cls-7" d="M81.22,55.57s5.39.27,13.89,4.83c8.68,4.19,12.44,7.67,12.44,7.67-7,18.03-10.47,22.28-10.47,22.28-7.72,13.39-24.43,14.45-24.52,14.32-.16,0-9.13-14.13-2.83-28.25,0,0,1.02-4.57,11.49-20.83Z"/>
    <path class="cls-16" d="M80.36,54.88s2.75-.92,14.96,5.3c5.34,2.72,9.29,5.55,11.61,7.4-2.24-1.53-5.42-3.51-9.49-5.58-11.86-6.04-15.13-5.15-15.13-5.15-10.65,16.26-11.6,20.89-11.6,20.89-6.27,14.21,2.47,26.81,2.64,26.81.07.08,5.28.85,14.63-2.44-7.64,3.95-15.42,4.15-15.49,4.05-.18,0-10.52-15.16-4.07-29.78,0,0,.97-4.77,11.93-21.5Z"/>
    <g>
      <g>
        <path class="cls-18" d="M74.83,71.38c-.45-4.69,3.71-6.22,3.71-6.22,1.86,2.32,4.87,4.96,7.29,6.18,2.05-4.96,3.12-9.25,3.12-9.25,4.75-.53,7.56,4.17,7.56,4.17-3.12,1.58-4.84,4.32-6.72,6.97,5.15,3.15,10.45,3.51,10.45,3.51.72,5.45-3.41,6.37-3.41,6.37-2.91-3.05-5.76-5.68-8.7-7.21-7.62,14.85-6.57,22.41-6.57,22.41-8.33,2.71-9.36-4.44-9.36-4.44,6.02-6.91,10.07-15.61,12.24-19.62-5.83-2.2-9.6-2.88-9.6-2.88Z"/>
        <path class="cls-13" d="M71.87,93.59l-.13.15.03.2c.02.12.46,2.99,2.91,4.51.98.61,2.12.91,3.43.91,1.09,0,2.28-.21,3.59-.63l.34-.11-.05-.36c-.01-.07-.91-7.5,6.32-21.76,2.99,1.66,5.82,4.42,8.21,6.92l.17.18.24-.05s4.51-1.07,3.75-6.85l-.05-.35-.35-.02c-.05,0-4.99-.37-9.86-3.21.08-.11.15-.22.23-.32,1.71-2.44,3.32-4.74,6.07-6.13l.41-.21-.24-.4c-.12-.2-3.02-4.93-7.98-4.37l-.3.03-.07.29s-1.02,4.06-2.92,8.75c-2.17-1.21-4.93-3.6-6.73-5.85l-.19-.24-.29.11s-4.47,1.7-3.99,6.67l.03.33.32.06s3.61.66,9.06,2.68c-.29.54-.6,1.15-.96,1.83-2.38,4.58-5.97,11.51-10.99,17.28ZM72.65,94c5.02-5.81,8.6-12.71,10.97-17.29.45-.87.84-1.61,1.18-2.25l.23-.43-.46-.17c-4.83-1.82-8.3-2.61-9.34-2.83-.18-3.43,2.32-4.92,3.18-5.34,2.02,2.43,4.95,4.89,7.22,6.04l.42.21.18-.43c1.73-4.19,2.78-7.95,3.06-9.01,3.48-.23,5.84,2.57,6.6,3.61-2.68,1.51-4.34,3.88-5.96,6.18-.16.23-.33.47-.49.7l-.27.38.39.24c4.47,2.74,8.99,3.4,10.29,3.54.39,4.06-2.11,5.23-2.89,5.49-2.5-2.61-5.47-5.46-8.64-7.11l-.38-.2-.2.39c-6.76,13.17-6.76,20.6-6.64,22.3-2.46.74-4.46.64-5.96-.29-1.78-1.11-2.34-3.1-2.48-3.72Z"/>
      </g>
      <path class="cls-20" d="M89.29,62.54c4.61-.51,6.46,3.35,6.42,3.37-1.13-1.26-2.99-2.63-5.97-2.34,0,0-1.08,4.17-2.95,8.71-.81-.41-1.35-.9-.89-.67,1.58-2.48,3.38-9.08,3.38-9.08Z"/>
      <path class="cls-20" d="M99.77,77.09c.03.22.05.42.06.62-1.55-.23-5.39-.98-9.17-3.28.03-.04.05-.08.08-.11,4.62,2.47,9.02,2.77,9.02,2.77Z"/>
      <path class="cls-20" d="M97.51,82.55c-.27.11-.45.15-.45.15-2.46-2.58-4.87-4.85-7.35-6.37,0,0,0-.02.01-.03,2.62,1.36,5.18,3.62,7.79,6.25Z"/>
      <path class="cls-20" d="M86,74.61c-2.08,3.83-6.22,13.17-11.98,19.78,0,0,1.77,4.18,6.94,3.55,0,.13.02.19.02.19-7.32,2.08-8.27-4.15-8.27-4.15,5.94-6.94,10.02-15.59,12.24-19.71.42.15.61.18,1.05.34Z"/>
      <path class="cls-20" d="M78.21,65.57c.21.32.44.64.68.96-.74.46-2.74,1.29-2.9,4.47-.72-.12-.94-.06-.94-.06.08-4.27,3.16-5.37,3.16-5.37Z"/>
    </g>
  </g>
</svg>