<?xml version="1.0" encoding="UTF-8"?>
<svg id="Layer_1" data-name="Layer 1" xmlns="http://www.w3.org/2000/svg" version="1.1" viewBox="0 0 150 150">
  <defs>
    <style>
      .cls-1 {
        fill: #f3e0d8;
      }

      .cls-1, .cls-2, .cls-3, .cls-4, .cls-5, .cls-6, .cls-7, .cls-8, .cls-9, .cls-10, .cls-11, .cls-12, .cls-13, .cls-14, .cls-15, .cls-16, .cls-17, .cls-18, .cls-19, .cls-20 {
        stroke-width: 0px;
      }

      .cls-2 {
        fill: #fccaa7;
      }

      .cls-3 {
        fill: #f9edee;
      }

      .cls-4 {
        fill: #f4956e;
      }

      .cls-5 {
        fill: #fbe6a9;
      }

      .cls-6 {
        fill: #282728;
      }

      .cls-7 {
        fill: #ccc7ca;
      }

      .cls-8 {
        fill: #887f7c;
      }

      .cls-21 {
        opacity: .78;
      }

      .cls-9 {
        fill: #9584ab;
      }

      .cls-10 {
        fill: #bed5ef;
      }

      .cls-11 {
        fill: #442d3e;
      }

      .cls-12 {
        fill: #eaa498;
      }

      .cls-13 {
        fill: #683a57;
      }

      .cls-14 {
        fill: #4e3b6e;
      }

      .cls-15 {
        fill: #785b72;
      }

      .cls-16 {
        fill: #fff;
      }

      .cls-17 {
        fill: #8c2e26;
      }

      .cls-18 {
        fill: #cd1e54;
      }

      .cls-19 {
        fill: #695a64;
      }

      .cls-20 {
        fill: #f1749b;
      }
    </style>
  </defs>
  <g>
    <g>
      <path class="cls-9" d="M64.96,86.28c1.11-.06,3-2.69,4.7-4.04,1.98-1.56,6.28.63,4.51,4.2-.25.5-2.5,4.52-6.11,6.03,0,0-4.35,1.57-9.71,1.02,0,0,1.73-4.12-.32-6.99,0,0,3.8-.06,6.93-.23Z"/>
      <path class="cls-19" d="M58.02,86.05h-.88s.51.73.51.73c1.87,2.62.28,6.51.27,6.55l-.24.57.62.06c.82.08,1.62.12,2.38.12,4.24,0,7.38-1.11,7.53-1.17h.02c3.98-1.68,6.32-6.22,6.34-6.26.85-1.7.54-3.38-.82-4.48-1.34-1.08-3.22-1.21-4.38-.29-.68.53-1.36,1.25-2.03,1.94-.85.88-1.91,1.98-2.41,2.01-3.09.17-6.87.23-6.91.23ZM58.84,86.95c1.29-.03,3.9-.09,6.15-.21.87-.05,1.87-1.08,3.03-2.29.64-.67,1.31-1.36,1.93-1.85.82-.65,2.24-.52,3.23.28.48.39,1.5,1.5.58,3.36-.02.04-2.2,4.26-5.86,5.81-.22.08-4.11,1.4-8.91,1.05.37-1.17,1-3.85-.15-6.14Z"/>
    </g>
    <path class="cls-7" d="M65.6,86.63s2.08-1.67,3.56-3.26c0,0,.74-.92,1.43-.86,0,0,2.32-.51,1.08,3.69,0,0-1.89,2.76-4.47,3.9,0,0-1.44.42-2.27.45,0,0,.01-2-1.68-3.71,0,0,1.89.02,2.35-.23Z"/>
    <g>
      <g>
        <path class="cls-11" d="M62.56,85.3c3.09,4.96.02,9.51.02,9.51-1.99.02-4.99-1.33-4.99-1.33,2-4.36-.53-7.25-.53-7.25l5.5-.93Z"/>
        <path class="cls-6" d="M62.79,84.79l-6.62,1.12.54.62c.09.11,2.3,2.73.46,6.75l-.19.42.42.19c.13.06,3.07,1.37,5.13,1.37.02,0,.04,0,.05,0h.24s.14-.2.14-.2c.03-.05,3.19-4.85-.01-10.01l-.16-.26ZM62.33,85.81c2.32,4.01.52,7.63,0,8.53-1.42-.06-3.3-.77-4.13-1.11,1.29-3.2.3-5.59-.34-6.67l4.47-.76Z"/>
      </g>
      <path class="cls-15" d="M62.25,85.84s2.59,6.57-3.71,6.86c0,0,1.04-2.59-.8-5.92l4.51-.93Z"/>
      <g>
        <path class="cls-6" d="M59.64,89.86c.13-.2.27-.38.43-.56.16-.18.33-.35.54-.49-.05.25-.14.47-.23.69-.1.22-.22.42-.34.62-.13.2-.27.39-.43.56-.16.18-.33.35-.54.49.05-.25.14-.47.23-.69.1-.22.22-.42.34-.62Z"/>
        <path class="cls-6" d="M60.08,90.03c.12.2.23.41.33.63.09.22.18.45.22.7-.21-.15-.37-.33-.53-.51-.15-.18-.29-.38-.41-.58-.12-.2-.23-.41-.33-.63-.09-.22-.18-.45-.22-.7.21.15.37.32.53.51.15.18.29.38.41.58Z"/>
      </g>
      <g>
        <path class="cls-6" d="M61.51,89.95c.13-.2.27-.38.43-.56.16-.18.33-.35.54-.49-.05.25-.14.47-.23.69-.1.22-.22.42-.34.62-.13.2-.27.38-.43.56-.16.18-.33.35-.54.49.05-.25.14-.47.23-.69.1-.22.22-.42.34-.62Z"/>
        <path class="cls-6" d="M61.95,90.11c.12.2.23.41.33.63.09.22.18.45.22.7-.21-.15-.37-.33-.53-.51-.15-.18-.29-.38-.41-.58-.12-.2-.23-.41-.33-.63-.09-.22-.18-.45-.22-.7.21.15.37.33.53.51.15.18.29.38.41.58Z"/>
      </g>
    </g>
  </g>
  <g>
    <g>
      <path class="cls-11" d="M64.42,106.36l.88-.72-2.13-8.63,7.65-.63.3,6.76s.07,2.39.48,4.61c0,0,.54,1.83-.9,2.17,0,0-6.5.14-6.9.14,0,0-1.33.02-1.73-.32,0,0-.89-1.34,2.36-3.38Z"/>
      <path class="cls-6" d="M61.53,108.86c-.14.65.09,1.06.14,1.13l.04.06.05.04c.47.38,1.54.42,1.96.42.03,0,.05,0,.09,0,.54,0,6.62-.13,6.88-.14h.09c.48-.12.86-.39,1.09-.78.44-.76.21-1.75.15-1.95-.39-2.15-.46-4.5-.47-4.52h0s-.32-7.24-.32-7.24l-8.67.71,2.19,8.87-.63.51c-1.53.96-2.41,1.93-2.62,2.88ZM64.66,106.75l.05-.03,1.1-.9-2.07-8.39,6.63-.54.28,6.27c0,.14.08,2.47.48,4.68v.05c.07.21.18.86-.05,1.25-.1.16-.24.27-.46.33-2.26.05-6.52.14-6.83.13-.54,0-1.14-.07-1.37-.17-.06-.25-.09-1.21,2.24-2.67Z"/>
    </g>
    <path class="cls-15" d="M65.55,106.47s2.95-.53,3.95,2.03c0,0,.5,1.2-6.01.84,0,0-1.42-.12-1.02-.69,0,0,1.75-2.24,3.08-2.18Z"/>
    <g>
      <path class="cls-11" d="M66.6,105.3h.28c.38,0,.69.31.69.69v8.79c0,.38-.31.69-.69.69h-.29c-.38,0-.69-.31-.69-.69v-8.79c0-.38.31-.69.69-.69Z" transform="translate(-44.21 176.18) rotate(-89.51)"/>
      <path class="cls-6" d="M61.19,110.2v.28c0,.31.11.6.33.82.22.22.51.34.81.35l8.79.07h0c.3,0,.59-.12.81-.33.22-.22.34-.51.35-.81v-.29c0-.31-.11-.6-.33-.82-.22-.22-.51-.34-.81-.35l-8.79-.07c-.31,0-.6.11-.82.33-.22.22-.34.51-.35.81ZM62.11,110.49v-.28c0-.08.05-.14.07-.16.03-.03.08-.07.16-.07h0l8.79.07c.08,0,.14.04.16.07s.07.08.07.16v.29c0,.13-.11.23-.24.23h0l-8.79-.07c-.13,0-.23-.11-.23-.24Z"/>
    </g>
    <g>
      <g>
        <path class="cls-19" d="M70.01,94.33c2.76.27,1.85,9.4,1.85,9.4-2.13,1.57-5.81,1.21-5.81,1.21-1.15.15-1.98-.6-1.98-.6-2.55-7.15-1.4-8.58-1.4-8.58,2.4-2.78,7.34-1.43,7.34-1.43Z"/>
        <path class="cls-14" d="M62.32,95.47c-.23.28-1.19,1.99,1.32,9.03l.04.11.09.08s.99.86,2.3.72c.13.01.46.03.92.03,1.29,0,3.58-.18,5.15-1.34l.17-.12.02-.2c.07-.72.65-7.14-1.05-9.21-.33-.4-.72-.63-1.18-.68-.51-.13-5.29-1.28-7.77,1.59ZM63.03,96.05s0,0,0,0c0,0,0,0,0,0ZM63.04,96.04c2.18-2.5,6.8-1.28,6.85-1.26h.08c.22.04.42.15.59.37,1.19,1.45,1.04,6.31.87,8.33-1.99,1.31-5.29,1.01-5.32,1.01h-.05s-.05,0-.05,0c-.73.09-1.32-.27-1.54-.42-2.2-6.23-1.49-7.88-1.42-8.02Z"/>
      </g>
      <path class="cls-8" d="M68.84,96.91c1.96.19,1.32,6.66,1.32,6.66-1.51,1.11-4.12.86-4.12.86-.81.1-1.41-.42-1.41-.42-1.81-5.07-.99-6.08-.99-6.08,1.7-1.97,5.21-1.02,5.21-1.02Z"/>
    </g>
    <g>
      <g>
        <path class="cls-9" d="M66.12,105.71c.77.98.1,1.4.1,1.4-1.26.88-1.62,1.04-1.62,1.04-.86.65-1.64-1.26-1.64-1.26.69-.76,2.35-1.85,2.35-1.85.34-.26.8.67.8.67Z"/>
        <path class="cls-19" d="M62.79,106.73l-.1.11.06.13c.05.13.56,1.32,1.28,1.51.07.02.14.03.21.03.17,0,.33-.06.49-.17.1-.05.53-.28,1.63-1.05.02-.01.29-.19.35-.56.06-.35-.07-.73-.39-1.15-.1-.19-.39-.72-.76-.81-.13-.03-.26,0-.37.07-.12.08-1.7,1.12-2.39,1.88ZM63.24,106.93c.71-.72,2.19-1.69,2.21-1.7h.01c.08,0,.31.29.45.58l.03.04c.24.31.35.59.32.8-.03.17-.15.25-.15.25-1.22.85-1.59,1.02-1.59,1.02l-.04.03c-.14.11-.25.09-.31.08-.34-.09-.71-.68-.91-1.11Z"/>
      </g>
      <g>
        <path class="cls-11" d="M65.18,105.98c.32.41.04.58.04.58-.52.37-.67.43-.67.43-.36.27-.68-.52-.68-.52.29-.32.98-.77.98-.77.14-.11.33.28.33.28Z"/>
        <path class="cls-6" d="M63.7,106.32l-.1.11.05.13c.04.1.27.61.62.71.04.01.08.02.12.02.09,0,.19-.03.27-.09.07-.03.25-.14.68-.44.02-.01.17-.11.2-.32.03-.18-.03-.37-.18-.57-.06-.12-.2-.35-.4-.4-.09-.02-.18,0-.26.05-.07.04-.72.48-1.02.8ZM64.15,106.52c.22-.2.55-.44.74-.57.03.04.06.09.08.13l.03.04c.09.11.11.19.1.23h0s0,.02,0,.02c-.48.34-.63.41-.64.41l-.04.03h0c-.06,0-.17-.13-.26-.29Z"/>
      </g>
    </g>
  </g>
  <g>
    <g>
      <path class="cls-11" d="M80.32,106.36l.88-.72-2.13-8.63,7.65-.63.3,6.76s.07,2.39.48,4.61c0,0,.54,1.83-.9,2.17,0,0-6.5.14-6.9.14,0,0-1.33.02-1.73-.32,0,0-.89-1.34,2.36-3.38Z"/>
      <path class="cls-6" d="M77.43,108.86c-.14.65.09,1.06.14,1.13l.04.06.05.04c.47.38,1.54.42,1.96.42.03,0,.05,0,.09,0,.54,0,6.62-.13,6.88-.14h.09c.48-.12.86-.39,1.09-.78.44-.76.21-1.75.15-1.95-.39-2.15-.46-4.5-.47-4.52h0s-.32-7.24-.32-7.24l-8.67.71,2.19,8.87-.63.51c-1.53.96-2.41,1.93-2.62,2.88ZM80.56,106.75l.05-.03,1.1-.9-2.07-8.39,6.63-.54.28,6.27c0,.14.08,2.47.48,4.68v.05c.07.21.18.86-.05,1.25-.1.16-.24.27-.46.33-2.26.05-6.53.14-6.83.13-.54,0-1.14-.07-1.37-.17-.06-.25-.09-1.21,2.24-2.67Z"/>
    </g>
    <path class="cls-15" d="M81.45,106.47s2.95-.53,3.95,2.03c0,0,.5,1.2-6.01.84,0,0-1.42-.12-1.02-.69,0,0,1.75-2.24,3.08-2.18Z"/>
    <g>
      <path class="cls-11" d="M82.5,105.3h.28c.38,0,.69.31.69.69v8.79c0,.38-.31.69-.69.69h-.29c-.38,0-.69-.31-.69-.69v-8.79c0-.38.31-.69.69-.69Z" transform="translate(-28.44 192.08) rotate(-89.51)"/>
      <path class="cls-6" d="M77.09,110.2v.28c0,.31.11.6.33.82.22.22.51.34.81.35l8.79.07h0c.3,0,.59-.12.81-.33.22-.22.34-.51.35-.81v-.29c0-.31-.11-.6-.33-.82-.22-.22-.51-.34-.81-.35l-8.79-.07c-.31,0-.6.11-.82.33-.22.22-.34.51-.35.81ZM78.01,110.49v-.28c0-.08.05-.14.07-.16.03-.03.08-.07.16-.07h0l8.79.07c.08,0,.14.04.16.07s.07.08.07.16v.29c0,.13-.12.23-.24.23l-8.79-.07c-.13,0-.23-.11-.23-.24Z"/>
    </g>
    <g>
      <g>
        <path class="cls-19" d="M85.91,94.33c2.76.27,1.85,9.4,1.85,9.4-2.13,1.57-5.81,1.21-5.81,1.21-1.15.15-1.98-.6-1.98-.6-2.55-7.15-1.4-8.58-1.4-8.58,2.4-2.78,7.34-1.43,7.34-1.43Z"/>
        <path class="cls-14" d="M78.22,95.47c-.23.28-1.19,1.99,1.32,9.03l.04.11.09.08s.99.86,2.3.72c.13.01.46.03.92.03,1.29,0,3.58-.18,5.15-1.34l.17-.12.02-.2c.07-.72.65-7.14-1.05-9.21-.33-.4-.72-.63-1.18-.68-.51-.13-5.29-1.28-7.77,1.59ZM78.93,96.06c2.18-2.52,6.81-1.29,6.86-1.28h.08c.22.04.42.15.59.37,1.19,1.45,1.04,6.31.87,8.33-1.98,1.31-5.29,1.01-5.32,1.01h-.05s-.05,0-.05,0c-.73.09-1.32-.27-1.54-.42-2.26-6.4-1.44-7.99-1.43-8.01Z"/>
      </g>
      <path class="cls-8" d="M84.74,96.91c1.96.19,1.32,6.66,1.32,6.66-1.51,1.11-4.12.86-4.12.86-.81.1-1.41-.42-1.41-.42-1.81-5.07-.99-6.08-.99-6.08,1.7-1.97,5.21-1.02,5.21-1.02Z"/>
    </g>
    <g>
      <g>
        <path class="cls-9" d="M82.02,105.71c.77.98.1,1.4.1,1.4-1.26.88-1.62,1.04-1.62,1.04-.86.65-1.64-1.26-1.64-1.26.69-.76,2.35-1.85,2.35-1.85.34-.26.8.67.8.67Z"/>
        <path class="cls-19" d="M78.7,106.73l-.1.11.06.13c.05.13.56,1.32,1.28,1.51.07.02.14.03.21.03.17,0,.33-.06.49-.17.1-.05.53-.28,1.63-1.05.02-.01.29-.19.35-.56.06-.35-.07-.73-.39-1.15-.1-.19-.39-.72-.76-.81-.13-.03-.26,0-.37.07-.12.08-1.7,1.12-2.39,1.88ZM79.14,106.93c.71-.72,2.19-1.69,2.21-1.7h.01c.08,0,.31.29.45.58l.03.04c.24.31.35.59.32.8-.03.17-.15.26-.15.26-1.22.85-1.59,1.02-1.59,1.02l-.04.03c-.14.11-.25.09-.31.08-.34-.09-.71-.68-.91-1.11Z"/>
      </g>
      <g>
        <path class="cls-11" d="M81.08,105.98c.32.41.04.58.04.58-.52.37-.67.43-.67.43-.36.27-.68-.52-.68-.52.29-.32.98-.77.98-.77.14-.11.33.28.33.28Z"/>
        <path class="cls-6" d="M79.61,106.32l-.1.11.05.13c.04.1.27.61.62.71.04.01.08.02.12.02.09,0,.19-.03.27-.09.07-.03.25-.14.68-.44.02-.01.17-.11.2-.32.03-.18-.03-.37-.18-.57-.06-.12-.2-.35-.4-.4-.09-.02-.18,0-.26.05-.07.04-.72.48-1.02.8ZM80.05,106.52c.22-.2.55-.44.74-.57.03.04.06.09.08.13l.03.04c.09.11.11.19.1.23h0s0,.02,0,.02c-.48.34-.63.41-.64.41l-.04.03h0c-.06,0-.17-.13-.26-.29Z"/>
      </g>
    </g>
  </g>
  <g>
    <path class="cls-9" d="M85.16,75.46c.55-.09,5.12-.63,8.47,1.41,0,0,3.83,2.6,6.53,7.26,0,0-4.35,1.02-5.48,4.36,0,0-2.28-3.04-4.25-5.48-.7-.87-3.94-.85-6.03-1.44-2.43-.68-3.18-5.45.76-6.12Z"/>
    <path class="cls-19" d="M81.94,78.31c-.09,1.72.91,3.32,2.34,3.72.83.23,1.81.37,2.76.51,1.21.17,2.72.38,3.04.78,1.95,2.4,4.22,5.43,4.24,5.46l.53.7.28-.83c1.03-3.05,5.1-4.05,5.14-4.06l.6-.14-.31-.54c-2.72-4.7-6.51-7.3-6.67-7.41h-.02c-3.69-2.25-8.74-1.49-8.79-1.48-1.88.32-3.05,1.55-3.15,3.3ZM82.86,78.36c.03-.62.33-2.09,2.38-2.44.05,0,4.74-.72,8.14,1.34.19.14,3.55,2.5,6.08,6.6-1.16.38-3.71,1.45-4.89,3.72-.78-1.03-2.36-3.1-3.78-4.85-.55-.68-1.97-.88-3.63-1.11-.92-.13-1.87-.26-2.64-.48-1-.28-1.74-1.5-1.67-2.78Z"/>
  </g>
  <path class="cls-7" d="M87.89,77.11s2.12-.14,4.45.84c0,0,.82.09,2.55,2.45,0,0-2.29.86-3.1,3.38,0,0-.41-.72-1.53-1.63,0,0-2.26-.74-4.66-.93,0,0-2.56-.08-2.41-2.5,0,0,.23-1.83,4.69-1.61Z"/>
  <g>
    <g>
      <path class="cls-9" d="M67.36,75.72c10.1,2.38,15.66,0,15.66,0,1.89-1.44,1.45.21,1.45.21-2.75,1.89-3.31,5.06-3.31,5.06-.29,1.42-2.3,1.6-2.3,1.6-7.61.78-14.66-1.14-14.66-1.14,1.24-4.41,3.16-5.73,3.16-5.73Z"/>
      <path class="cls-19" d="M63.76,81.33l-.13.45.45.12c.06.02,5.01,1.34,11.04,1.34,1.23,0,2.5-.05,3.79-.19.09,0,2.34-.23,2.7-1.97,0-.04.57-3.02,3.12-4.78l.14-.1.04-.17c.04-.15.21-.91-.3-1.25-.53-.35-1.24.08-1.82.52-.57.22-6.01,2.15-15.33-.04l-.2-.05-.17.12c-.08.06-2.07,1.47-3.34,5.99ZM64.78,81.12c.96-3.14,2.26-4.51,2.7-4.9,9.99,2.3,15.49.02,15.72-.08l.05-.02.05-.04c.39-.3.62-.42.75-.47,0,.01,0,.03,0,.04-2.74,1.99-3.31,5.12-3.34,5.25-.22,1.05-1.87,1.22-1.89,1.22-6.35.65-12.37-.62-14.04-1.01Z"/>
    </g>
    <path class="cls-7" d="M79.31,77.48c-2.38,7.13-13.76,3.23-13.76,3.23.53-2.52,1.81-4.07,1.81-4.07,6.66,1.32,11.95.84,11.95.84Z"/>
  </g>
  <g>
    <g>
      <g>
        <path class="cls-18" d="M65.48,75.03l15.69-1.5c13.6,9.21,15.27,26.01,15.27,26.01-2.62,1.63-5.84,2.25-5.84,2.25-12.68,4.01-27.02.1-27.02.1l.46-1.61c-4.67.17-8.87-2.77-8.87-2.77,7.18-11.24,10.31-22.48,10.31-22.48Z"/>
        <path class="cls-13" d="M54.77,97.26l-.24.37.36.25c.17.12,4.02,2.77,8.52,2.86l-.42,1.46.45.12c.1.03,6.41,1.71,14.33,1.71,4.09,0,8.61-.45,12.92-1.81.34-.07,3.41-.71,5.97-2.3l.24-.15-.03-.29c-.02-.17-.45-4.32-2.56-9.67-1.95-4.94-5.78-11.85-12.91-16.67l-.14-.09-16.17,1.55-.09.31c-.03.11-3.2,11.31-10.26,22.36ZM55.8,97.37c6.32-10.02,9.48-20.05,10.03-21.91l15.21-1.46c12.18,8.34,14.59,23.06,14.9,25.29-2.47,1.46-5.41,2.03-5.44,2.03h-.05c-11.15,3.54-23.77.83-26.3.22l.51-1.76-.64.02c-3.68.14-7.11-1.77-8.22-2.45Z"/>
      </g>
      <path class="cls-17" d="M85.75,77.6s7.96,14.03,7.82,20.88c0,0-7.22,2.01-14.02,2.35,0,0-7.57-25.44,6.2-23.23Z"/>
      <g class="cls-21">
        <path class="cls-3" d="M59,96.77c3.49,2.41,4.13,3.22,4.13,3.22-3.47-.46-6.9-2.78-6.9-2.78,4.46-6.99,7.33-14.85,7.33-14.85-.75,6.58-4.57,14.41-4.57,14.41Z"/>
      </g>
    </g>
    <g>
      <g>
        <path class="cls-10" d="M90.43,90.95c-.05.12-.03.07,0,0h0Z"/>
        <path class="cls-10" d="M90.46,90.87s-.02.03-.03.07c.01-.02.01-.03.03-.07Z"/>
        <path class="cls-10" d="M68.06,75.85c5.39,4.41,14.95-.13,14.95-.13,5.51,3.37,6.54,8.82,6.54,8.82,0,0,1.06,5.97.9,6.33,0,0-6.06,3.95-17.34,3.75-11.46-.21-10.19-2.3-10.19-2.3.5-14.78,5.13-16.46,5.13-16.46Z"/>
      </g>
      <path class="cls-14" d="M62.47,92.22c-.07.2-.07.49.09.78.7,1.27,4.25,1.97,10.55,2.08.29,0,.58,0,.86,0,10.74,0,16.49-3.67,16.74-3.83l-.08-.12.18.08.7-1.58-.62.41c-.09-.85-.32-2.47-.87-5.58-.05-.24-1.14-5.7-6.76-9.14l-.21-.13-.23.11c-.09.04-9.37,4.36-14.46.19l-.2-.17-.25.09c-.2.07-4.91,1.95-5.43,16.8ZM63.35,92.51l.04-.06v-.12c.42-12.34,3.76-15.35,4.63-15.93,5.16,3.9,13.44.51,14.97-.16,5.08,3.23,6.12,8.34,6.13,8.39.44,2.46.86,5.21.9,5.97-1.12.65-6.99,3.74-16.88,3.56-7.57-.14-9.3-1.1-9.69-1.51-.07-.07-.09-.12-.09-.14Z"/>
    </g>
    <g>
      <path class="cls-16" d="M68.8,77.16c4.56,3.21,12.56,0,12.56,0,4.65,2.46,5.56,6.39,5.56,6.39,0,0,.93,4.3.8,4.55,0,0-5.06,2.8-14.54,2.57-9.63-.23-8.58-1.72-8.58-1.72.32-10.62,4.2-11.8,4.2-11.8Z"/>
      <path class="cls-16" d="M87.72,88.11c-.13.26,0,0,0,0h0Z"/>
    </g>
    <g>
      <path class="cls-10" d="M90.23,94.14l.95,5.4c-4.19,2.39-12.16,2.67-12.16,2.67-11.35.8-17.14-3.21-17.14-3.21l.71-5.73c7.09,5.04,27.63.87,27.63.87Z"/>
      <path class="cls-14" d="M62.23,92.45l-.84,6.77.23.16c.22.15,5.02,3.4,14.4,3.4.96,0,1.97-.03,3.03-.11.31-.01,8.11-.31,12.36-2.73l.28-.16-1.09-6.18-.46.09c-.2.04-20.43,4.08-27.27-.79l-.63-.45ZM62.38,98.76l.58-4.71c7.08,4.14,23.81,1.21,26.89.63l.82,4.61c-4.12,2.16-11.59,2.45-11.66,2.45-9.84.7-15.45-2.28-16.63-2.98Z"/>
    </g>
    <path class="cls-16" d="M64.84,94.36l-.52,4.88-1.57-.71.56-5.01s1.41.64,1.53.84Z"/>
    <g>
      <g>
        <path class="cls-10" d="M73.68,95.78s.03,4.08-.18,7.77c0,0-4.31.38-8.31-1.3l.39-7.44s6.46.84,8.1.97Z"/>
        <path class="cls-14" d="M65.15,94.29l-.43,8.26.3.13c2.83,1.19,5.77,1.38,7.36,1.38.69,0,1.12-.04,1.18-.04l.4-.03.02-.4c.21-3.66.18-7.76.18-7.8v-.42s-.42-.03-.42-.03c-1.62-.13-8.02-.96-8.08-.96l-.49-.06ZM65.67,101.95l.34-6.61c1.42.18,5.46.7,7.21.87,0,1.08-.01,4.08-.16,6.91-1.11.04-4.33.04-7.4-1.17Z"/>
      </g>
      <path class="cls-16" d="M68.25,96.27l4.05,1.26s-.93,5.66-6.31,4.29l.13-5.89,2.13.33Z"/>
    </g>
    <g>
      <g>
        <g>
          <path class="cls-9" d="M62.72,89.6c19.87,4.85,27.19-1.02,27.19-1.02.51-.4.75-.21.86.36.13.68.22,3.82.22,3.82.03.52-.52,1.17-.52,1.17-14.61,6.35-28.16.61-28.16.61-1.01-.08-.45-4.92-.45-4.92.65-1.23.87-.02.87-.02Z"/>
          <path class="cls-13" d="M61.39,89.56c-.11.98-.43,4.24.31,5.12.16.19.33.27.48.29.62.25,6.14,2.37,13.68,2.37,4.43,0,9.55-.73,14.79-3.01l.1-.04.07-.08c.11-.13.66-.82.63-1.49,0-.32-.09-3.19-.22-3.88-.03-.18-.14-.73-.59-.9-.3-.11-.64-.02-1,.27-.07.06-7.37,5.61-26.53,1-.09-.25-.28-.55-.62-.6-.56-.09-.9.55-1.03.79l-.04.08v.09ZM62.29,89.81l.03.17.29.07c5.88,1.44,10.67,1.95,14.5,1.95,9.13,0,12.86-2.88,13.08-3.06.03-.02.06-.04.08-.06.01.04.02.08.03.14.1.53.18,2.88.21,3.75,0,.21-.19.56-.35.78-14.21,6.12-27.56.62-27.69.57l-.09-.03c-.27-.36-.31-2.3-.1-4.27Z"/>
        </g>
        <path class="cls-7" d="M62.87,90.28c18.17,3.95,26.3-.57,26.3-.57.13-.08.24.1.34.08-.22,1.55-.66,3.94-3.59,5.37-15.79,3.28-23.46-1.06-23.46-1.06-.97-.07-.44-3.82-.44-3.82.63-.89.84,0,.84,0Z"/>
        <g>
          <path class="cls-16" d="M62.2,94.02s.03.05.04.07c0,0-.03-.01-.04-.07Z"/>
          <path class="cls-16" d="M61.9,90.82c-.04-1.43,1.2-.54,1.2-.54,15.23,3.58,24.97-.1,24.97-.1,1.84-.63-.73,1.03-.73,1.03-8.86,4.3-24.2.51-24.2.51-.91,1.64-.97,2.14-.93,2.29-.6-.82-.3-3.19-.3-3.19Z"/>
        </g>
      </g>
      <g>
        <g>
          <path class="cls-9" d="M69.47,89.88c2.18.07,3.88,1.9,3.81,4.08-.07,2.18-1.9,3.88-4.08,3.81-2.18-.07-3.88-1.9-3.81-4.08.07-2.18,1.9-3.88,4.08-3.81Z"/>
          <path class="cls-13" d="M66.33,90.6c-.86.8-1.36,1.89-1.4,3.07-.08,2.43,1.82,4.47,4.25,4.55.05,0,.1,0,.15,0,1.12,0,2.18-.42,3-1.19.86-.8,1.36-1.89,1.4-3.07.04-1.18-.38-2.3-1.18-3.16-.8-.86-1.89-1.36-3.07-1.4-1.18-.04-2.3.38-3.16,1.18ZM65.85,93.7c.03-.93.42-1.79,1.1-2.43.65-.61,1.49-.94,2.37-.94.04,0,.08,0,.12,0,.93.03,1.79.42,2.43,1.1.64.68.97,1.57.94,2.5s-.42,1.79-1.1,2.43c-.68.64-1.57.97-2.5.94-1.92-.07-3.43-1.68-3.36-3.6Z"/>
        </g>
        <path class="cls-7" d="M69.15,90.54c1.73.06,3.07,1.6,3.01,3.45-.06,1.85-1.51,3.29-3.24,3.24-1.73-.06-3.07-1.6-3.01-3.45.06-1.85,1.51-3.29,3.24-3.24Z"/>
        <g>
          <g>
            <path class="cls-9" d="M69.12,91.3c1.33.25,2.24,1.58,2.02,2.99-.22,1.4-1.47,2.34-2.8,2.09-1.33-.25-2.24-1.58-2.02-2.99.22-1.4,1.47-2.34,2.8-2.09Z"/>
            <path class="cls-13" d="M65.97,93.33c-.24,1.58.79,3.1,2.3,3.38.16.03.33.05.49.05.55,0,1.08-.17,1.55-.5.63-.45,1.05-1.13,1.17-1.92.24-1.58-.79-3.1-2.3-3.38-.72-.13-1.44.03-2.04.45-.63.45-1.05,1.13-1.17,1.92ZM66.66,93.44c.09-.61.41-1.13.89-1.47.34-.24.74-.37,1.15-.37.12,0,.24.01.37.03,1.15.21,1.93,1.38,1.74,2.59-.09.61-.41,1.13-.89,1.47-.44.31-.98.43-1.51.34-1.15-.21-1.93-1.38-1.74-2.59h0Z"/>
          </g>
          <path class="cls-7" d="M68.55,91.5c.99.07,1.73,1.11,1.66,2.32-.08,1.22-.94,2.14-1.93,2.08-.99-.07-1.73-1.11-1.66-2.32s.94-2.14,1.93-2.08Z"/>
          <path class="cls-16" d="M67.89,91.98c.67.02,1.18.79,1.15,1.7-.03.92-.6,1.64-1.26,1.62-.67-.02-1.18-.79-1.15-1.7.03-.92.6-1.64,1.26-1.62Z"/>
        </g>
      </g>
    </g>
    <g>
      <path class="cls-18" d="M67.44,84.02c.83.35,1.72.52,2.58.58-.02-1.24-.52-2.03-.52-2.03,1.73-.64,3.26.02,3.26.02-.71.6-1.12,1.3-1.34,2.03,1.71-.07,3.02-.45,3.02-.45,1.71,1.17.27,1.88.27,1.88-1.23-.42-2.4-.63-3.45-.72-.27,1.92.57,3.75.57,3.75-2.48,1.21-3.79-.18-3.79-.18,1.3-1.33,1.8-2.59,1.94-3.63-1.97,0-3.27.4-3.27.4-.96-.82.73-1.66.73-1.66Z"/>
      <path class="cls-13" d="M66.07,85.03c-.03.23.02.58.41.92l.14.12.18-.05s1.1-.33,2.76-.38c-.23,1.05-.82,2.06-1.77,3.04l-.23.24.23.24s.76.78,2.1.78c.58,0,1.28-.14,2.09-.53l.3-.15-.14-.31s-.7-1.56-.57-3.23c1.04.11,2.05.34,3.03.67l.14.05.13-.06c.07-.04.71-.37.76-1.02.03-.5-.3-.99-.99-1.46l-.13-.09-.16.05s-1.03.29-2.42.4c.24-.53.59-1,1.06-1.39l.43-.36-.51-.22c-.07-.03-1.68-.71-3.52-.03l-.4.15.23.36s.35.57.44,1.46c-.76-.09-1.46-.26-2.07-.52l-.15-.06-.14.07c-.11.06-1.12.58-1.21,1.32ZM71.28,85h-.13s.27-.02.27-.02c1.4-.06,2.53-.31,2.94-.42.37.28.57.54.56.75-.01.16-.16.3-.27.38-1.09-.36-2.22-.59-3.37-.68ZM70.32,85.33l.05-.35h0s0-.04,0-.04h0v-.34c-.02-.81-.22-1.44-.38-1.82.85-.22,1.62-.14,2.1-.03-.47.51-.8,1.1-1.01,1.77l-.14.46h.02s-.04.3-.04.3c-.22,1.54.23,3,.46,3.63-1.46.61-2.4.23-2.83-.04,1.02-1.12,1.61-2.32,1.77-3.55ZM66.76,85.12c.03-.24.4-.54.7-.72.72.28,1.54.46,2.43.54-1.52.01-2.63.25-3.08.36-.07-.09-.06-.15-.06-.18Z"/>
    </g>
    <path class="cls-16" d="M88.09,96.02s.44,3.45-2.04,4.35c0,0-4.25,1.46-11.07,1.07,0,0-.83-1.59-.74-3.75,0,0,5.58.97,13.85-1.66Z"/>
  </g>
  <g>
    <g>
      <path class="cls-9" d="M65.76,56.18c.46,4.02-6.59,3.8-6.59,3.8-1.08-3.84.55-7.81.55-7.81,5.92-2.28,6.04,4.01,6.04,4.01Z"/>
      <path class="cls-19" d="M59.29,51.99c-.07.17-1.69,4.16-.57,8.11l.09.32h.34s.1.01.23.01c.94,0,4.48-.12,6.07-1.85.62-.67.88-1.49.77-2.45,0-.3-.15-3.06-2.03-4.33-1.17-.79-2.73-.82-4.64-.08l-.18.07-.08.18ZM60.08,52.52c.73-.26,1.39-.4,1.98-.4.63,0,1.17.15,1.62.46,1.56,1.05,1.62,3.58,1.63,3.6v.04c.08.69-.09,1.26-.53,1.74-1.26,1.37-4.24,1.53-5.25,1.55-.74-3.09.27-6.21.55-6.99Z"/>
    </g>
    <g>
      <path class="cls-12" d="M60.8,56.68s.7-1.72,0-3.42l.04-1.39s4.3-.68,6.69-.85c0,0,14.86-.37,19.95,4.03,0,0-2.65,2.86-3.87,2.83,0,0,1.57,2.86-.22,4.7,0,0-2.28,3.3-4.98,3.29,0,0-.35-.4-1.39-1.2l-15.36-.39s-1.65-.54-.12-1.46c0,0-3.43-3.39-.75-6.14Z"/>
      <path class="cls-13" d="M60.86,62.76c-.31.29-.45.59-.42.92.08.68.92.99,1.08,1.04l.06.02h.07s15.21.38,15.21.38c.88.69,1.2,1.04,1.2,1.05l.14.16h.21s.01,0,.02,0c2.78,0,5.05-3.08,5.32-3.46,1.49-1.57.91-3.69.52-4.68,1.36-.53,3.15-2.41,3.55-2.84l.32-.35-.36-.31c-5.17-4.46-19.65-4.16-20.26-4.14-2.41.17-6.58.83-6.76.85l-.38.06-.05,1.87.04.09c.55,1.32.14,2.67.03,3-2.06,2.21-.76,4.9.46,6.33ZM62.3,62.91l-.42-.42c-.13-.12-3.07-3.1-.75-5.49l.06-.06.03-.08c.03-.08.74-1.86.03-3.68l.03-.91c1.1-.17,4.34-.65,6.28-.79.12,0,14.01-.3,19.24,3.62-1.05,1.07-2.53,2.32-3.16,2.32h-.01l-.8-.02.39.7s1.38,2.58-.15,4.16l-.05.06s-2.07,2.94-4.41,3.08c-.2-.2-.6-.57-1.3-1.1l-.12-.09h-.15s-15.28-.39-15.28-.39c-.17-.07-.34-.18-.39-.25.02-.04.11-.17.42-.35l.51-.31Z"/>
    </g>
    <path class="cls-16" d="M75.81,56.49l-.22.04c-1.35,0-.21-1.28-.21-1.28.69.67.43,1.24.43,1.24Z"/>
    <path class="cls-16" d="M63.94,55.46c.69.49,0,1.33,0,1.33-1.27-.69,0-1.33,0-1.33Z"/>
    <path class="cls-2" d="M61.56,52.69c6.67-2.87,17.94.53,17.94.53-1.21,2.33-.31,4.43-.31,4.43,2.12,3.35.41,3.89.41,3.89-.83.67-2.05.54-2.05.54l-.99-.29c-5.94-2.3-12.75-1.59-12.75-1.59-.62.11-2.54.96-2.54.96-.45-.81-.49-1.28-.49-1.28.28-1.38,1.39-2.78,1.39-2.78,1.27-1.45-.6-4.4-.6-4.4Z"/>
    <path class="cls-16" d="M75.65,54.24c1.83.43,2.22,3.21,2.22,3.21-.1.43-.51.59-.8.63-.24.03-1.06.11-1.06.11-3.62.33-3.51-1.23-3.51-1.23v-.18c.23-2.76,2.11-2.79,3.15-2.55Z"/>
    <g>
      <g>
        <path class="cls-4" d="M69.48,52.18c.93.32,1.37.19,1.63-.06,2.82-2.7,3.38-2.94,4.78-2.49,2.74.88,4.29,3.53,4.29,3.53-.2,2.07-2.55.19-2.55.19-2.21-2.2-5.16.31-5.16.31-.72.92-2.55.19-2.55.19-1.76-1.27-.85-1.8-.45-1.66Z"/>
        <path class="cls-13" d="M68.52,52.17c-.21.4-.18,1.08,1.14,2.04l.05.03.05.02c.09.04,2.11.84,3.05-.29.31-.25,2.71-2.09,4.5-.3l.04.03c.21.17,1.15.89,2.01.89.17,0,.34-.03.49-.09.31-.13.7-.46.79-1.29v-.15s-.06-.13-.06-.13c-.07-.11-1.68-2.82-4.55-3.74-1.72-.55-2.53,0-5.24,2.6-.18.17-.57.16-1.16-.05h0c-.36-.12-.89,0-1.11.43ZM69.36,52.62c.61.2,1.47.4,2.07-.17,2.84-2.72,3.21-2.74,4.32-2.39,2.2.7,3.61,2.67,3.95,3.2-.03.16-.09.34-.2.38-.32.13-1.1-.29-1.56-.65-1.98-1.95-4.63-.66-5.76.3l-.06.07c-.4.51-1.53.22-1.96.06-.58-.43-.74-.69-.79-.8Z"/>
      </g>
      <path class="cls-5" d="M71.55,52.18c1.78-1.98,2.3-2.55,3.27-2.31,1.9.46,3.08,2.19,3.08,2.19.5,1.42-1.01.21-1.01.21-2.08-1.13-4.19.52-4.19.52-.72,1.19-1.69.75-1.69.75-1.42-.2-1.61-1.11-1.33-1.04.65.17,1.69-.12,1.86-.3Z"/>
      <path class="cls-1" d="M70.78,52.55c-.43.38.11.48.11.48.69.11,1.22-.04,1.22-.04.62.28-.44.69-.44.69-1.82.24-2.2-.93-2.2-.93.25-.68,1.32-.2,1.32-.2Z"/>
    </g>
    <path class="cls-13" d="M72.86,54.63s.08-.09.12-.14c.06-.06.1-.09.14-.13.09-.07.17-.15.27-.21l.3-.18c.42-.21.91-.3,1.38-.27.47.03.91.17,1.31.37.2.11.38.21.58.38.18.16.34.34.46.54.24.39.37.81.44,1.22.06.42.08.83.02,1.24-.14-.39-.28-.76-.45-1.11-.17-.35-.36-.67-.59-.93-.11-.13-.24-.23-.37-.32-.12-.07-.3-.16-.45-.23-.33-.13-.66-.23-.99-.24-.33-.02-.65.03-.96.15l-.23.1c-.07.04-.14.09-.22.13-.03.02-.08.05-.09.06-.03.02-.05.05-.08.07-.06.06-.11.12-.17.18-.21.27-.38.6-.51.96-.13.36-.21.75-.29,1.15-.24-.78-.24-1.68.19-2.5.05-.1.12-.2.19-.3Z"/>
    <path class="cls-16" d="M60.86,57.33c1.62-2.51.14-4.58.14-4.58l.62-.04c1.8,1.82.65,4.07.65,4.07-1.32,1.97-.29,4.75-.29,4.75l-1,.09c-1.58-3.22-.13-4.28-.13-4.28Z"/>
    <path class="cls-16" d="M65.76,56.18c0,1.72-1.31,1.76-1.31,1.76-.74.13-2.13-.05-2.13-.05-1.6-1.07-.29-2.65-.29-2.65,1.84-1.98,3.74-.05,3.74.95Z"/>
    <path class="cls-13" d="M62.03,54.36c.08-.07.17-.15.25-.22.09-.07.19-.12.29-.19.4-.23.89-.34,1.35-.3.47.03.89.19,1.28.4.19.12.37.22.55.4.17.16.3.36.41.55.21.39.32.79.37,1.2.05.4.06.81,0,1.2-.13-.38-.26-.74-.42-1.08-.16-.34-.33-.67-.54-.92-.05-.06-.1-.13-.16-.18-.05-.06-.11-.11-.17-.15-.1-.08-.27-.17-.42-.24-.31-.14-.62-.24-.93-.25-.31-.02-.61.03-.89.16-.07.04-.14.07-.21.11-.07.05-.14.09-.21.14-.05.02-.1.08-.15.14-.05.06-.1.12-.15.19-.4.55-.6,1.29-.74,2.07-.23-.76-.26-1.62.11-2.43.1-.2.2-.39.41-.59Z"/>
    <g>
      <g>
        <path class="cls-12" d="M65.99,52.53s.23.34.41.85l-.41-.85Z"/>
        <path class="cls-12" d="M66.06,56.17c.76-.97.6-2.05.34-2.78l3.02,6.21c2.2-.3,3.32,1.68,3.32,1.68.85,2.1-1.52,2.19-1.52,2.19-1.57-.6-2.43,0-2.43,0-1.8,1.14-3.65.55-3.65.55-2.05-.94-.92-4.18-.92-4.18.46-1.77,1.84-3.66,1.84-3.66Z"/>
        <g>
          <path class="cls-13" d="M63.75,59.69c.2-.69.51-1.31.84-1.91.33-.6.72-1.16,1.14-1.7l.08-.11.07-.09c.05-.06.09-.12.13-.18.08-.12.15-.25.21-.39.12-.28.18-.58.19-.89.02-.63-.15-1.28-.43-1.89.42.52.72,1.16.81,1.87.04.35.02.72-.07,1.08-.05.18-.11.35-.2.52-.05.08-.09.17-.14.24l-.07.11-.06.1c-.34.55-.64,1.14-.92,1.72-.27.58-.49,1.19-.64,1.78v.04c-.11.32-.18.7-.22,1.05-.04.36-.04.71,0,1.04.04.33.13.63.28.87.08.12.16.22.26.31.1.08.21.15.32.21-.01,0-.03,0-.04,0l.07.03s-.02-.01-.03-.02c.07.02.18.04.27.06.11.02.23.03.34.04.23.02.46.02.69,0,.46-.03.92-.14,1.34-.32.11-.05.21-.09.31-.15.05-.03.09-.05.14-.08l.04-.02.07-.04s.09-.05.13-.06c.32-.14.64-.2.95-.22.59-.03,1.15.1,1.66.3-.04,0-.07,0-.1,0l.18.03s-.06-.02-.09-.03c.07,0,.16-.02.23-.03.11-.02.23-.05.33-.08.21-.07.39-.17.51-.31.11-.13.19-.29.19-.51,0-.21-.03-.44-.11-.67,0,0,0,.02.01.02l-.02-.04s0,0,0,.01c-.13-.23-.31-.49-.51-.71-.21-.23-.44-.43-.7-.6-.26-.17-.55-.3-.86-.39-.31-.08-.63-.12-.96-.11.32-.08.66-.11,1-.09.34.03.68.12,1,.26.32.14.61.33.88.56.27.23.51.47.72.79h0s.02.04.02.04c.12.27.23.57.25.91.03.33-.06.73-.29,1.02-.22.3-.53.49-.82.62-.15.06-.3.11-.45.15-.16.04-.3.07-.48.08h-.07s-.12-.03-.12-.03c-.45-.14-.91-.23-1.34-.18-.21.02-.41.07-.57.15-.02,0-.03.02-.05.03h-.01s-.05.04-.05.04c-.06.04-.13.09-.2.12-.13.07-.26.14-.39.21-.54.25-1.11.4-1.7.45-.29.02-.59.02-.88,0-.15-.01-.29-.03-.44-.05-.15-.03-.28-.05-.46-.11h-.03s-.03-.03-.03-.03c-.22-.11-.44-.24-.63-.41-.19-.17-.35-.37-.48-.58-.25-.43-.37-.9-.41-1.35-.04-.45,0-.88.06-1.3.07-.41.16-.8.31-1.21Z"/>
          <path class="cls-13" d="M63.75,59.66s0,.02,0,.02c0,0,0,0,0,.01v-.04Z"/>
        </g>
        <path class="cls-13" d="M71.39,63.02l-.18-.03s.06,0,.1,0c.03.01.06.02.09.03Z"/>
        <path class="cls-13" d="M65.38,63.49l-.07-.03s.02,0,.04,0c0,0,.02.01.03.02Z"/>
        <path class="cls-13" d="M72.45,61.4s0,0,0-.01l.02.04s0-.02-.01-.02Z"/>
      </g>
      <path class="cls-2" d="M67.21,54.39c1.34,2.01,2.27,5.06,2.27,5.06l1.1.49c1.45.07,1.88,1.56,1.88,1.56-.08,1.11-1.09.36-1.09.36-1.12-1.01-2.9-.25-2.9-.25-1.51.42-1.77.67-1.77.67-1.36-1.82-.32-3.84-.32-3.84,1.43-2.65.84-4.04.84-4.04Z"/>
      <g>
        <path class="cls-1" d="M66.74,53.63s-.02-.04-.03-.06c0,0,.01.02.03.06Z"/>
        <path class="cls-1" d="M66.74,53.63c1.15,1.67.08,3.85.08,3.85-1.8,3.28-.12,4.56-.12,4.56-1.03.65-1.96.39-1.96.39-.94-3.06,1.2-5.56,1.2-5.56,1.23-2.09.92-3.03.81-3.25Z"/>
      </g>
    </g>
    <g>
      <path class="cls-13" d="M74.81,55.24c.71.19,1.13.95.94,1.71-.19.76-.93,1.22-1.64,1.03-.71-.19-1.13-.95-.94-1.71.19-.76.93-1.22,1.64-1.03Z"/>
      <path class="cls-16" d="M75.46,56.5c.26.07.41.35.34.64-.07.28-.34.46-.6.39-.26-.07-.41-.35-.34-.64.07-.28.34-.46.6-.39Z"/>
    </g>
    <g>
      <path class="cls-13" d="M63.42,55.17c.65.17,1.03.86.85,1.55-.17.69-.84,1.11-1.49.94-.65-.17-1.03-.86-.85-1.55.18-.69.84-1.11,1.49-.94Z"/>
      <path class="cls-16" d="M64.01,56.31c.24.06.38.32.31.58-.07.26-.31.41-.55.35-.24-.06-.38-.32-.31-.58.07-.26.31-.42.55-.35Z"/>
    </g>
    <g>
      <g>
        <path class="cls-4" d="M62.7,50.35s.84.8,1.49,1.33c0,0,.54.52,1.11.47.25-.02.48-.46.98-.2,0,0,.71,1.66-1.38,1.78,0,0-1.11-.07-1.5-.54,0,0-.65-.8-2.09-.61,0,0-1.96.65-1.56-.87,0,0,.55-2.74,2.94-1.38Z"/>
        <path class="cls-13" d="M59.31,51.62c-.18.68.04,1.06.25,1.26.55.52,1.57.25,1.86.16,1.12-.14,1.62.44,1.63.45.5.59,1.61.69,1.83.71h.03s.03,0,.03,0c.83-.05,1.4-.32,1.71-.82.43-.7.11-1.52.07-1.61l-.06-.15-.15-.08c-.57-.3-.99-.03-1.19.11-.02.02-.05.03-.07.04h0c-.29,0-.64-.27-.72-.35l-.03-.02c-.63-.52-1.46-1.3-1.47-1.31l-.04-.04-.05-.03c-.84-.48-1.59-.57-2.24-.27-1.04.47-1.35,1.78-1.38,1.95ZM60.2,51.85v-.03c.06-.28.33-1.06.87-1.3.35-.16.8-.09,1.35.21.18.17.89.83,1.46,1.3.12.11.73.64,1.45.59.2-.02.35-.11.47-.19.05-.03.09-.06.11-.07.03.16.04.38-.07.55-.17.27-.6.35-.95.38-.37-.03-.97-.16-1.15-.37-.03-.04-.83-.99-2.5-.77l-.08.02c-.39.13-.88.16-.98.05-.02-.02-.05-.12.01-.37Z"/>
      </g>
      <path class="cls-5" d="M62.06,50.55s.39,0,.94.64c0,0,.66.6,1.31,1.23,0,0,.67.33-.53.51,0,0-1.16-.27-1.42-.59,0,0-.36-.27-1.18-.07,0,0-.91.29-.76-.84,0,0,.55-1.4,1.64-.88Z"/>
      <path class="cls-1" d="M61.04,50.45c.19-.31,1.39.26,1.39.26-1.85-.28-1.28,1.42-1.28,1.42-.55.6-1.01-.04-1.01-.04-.01-1.67.9-1.65.9-1.65Z"/>
    </g>
    <g>
      <path class="cls-9" d="M63.18,41.15c13.53-6.38,27.04,1.28,27.04,1.28,2.08,9.19,1.83,14.75,1.83,14.75-18.22-6.94-32.79-4.56-32.79-4.56,1.88-9.65,3.92-11.48,3.92-11.48Z"/>
      <path class="cls-19" d="M58.81,52.54l-.13.65.65-.11c.14-.02,14.67-2.27,32.55,4.54l.6.23.03-.64c.01-.23.23-5.73-1.84-14.88l-.05-.2-.18-.1c-.14-.08-3.5-1.96-8.57-3.08-4.7-1.04-11.78-1.57-18.89,1.78l-.06.03-.05.05c-.09.08-2.17,2.05-4.06,11.73ZM59.84,52.08c1.63-8.01,3.34-10.24,3.62-10.56,12.31-5.76,24.74.36,26.36,1.21,1.6,7.15,1.77,12.09,1.78,13.79-15.7-5.82-28.75-4.79-31.76-4.44Z"/>
    </g>
    <path class="cls-7" d="M74.57,43.46c5.64,3.64,4.38,9.37,4.38,9.37-8.74-2.32-18.64-1.49-18.64-1.49,2.6-7.02,3.14-7.71,3.14-7.71,6.81-3.93,11.11-.17,11.11-.17Z"/>
    <path class="cls-16" d="M73.79,41.27c-5.02.46-8.89,3.05-8.89,3.05-2.04,4.39-2.1,5.61-2.1,5.61,10.83-.11,15.29,2.67,15.29,2.67-14.11-1.61-18.23-.8-18.23-.8,1.45-5.87,2.45-8.18,2.45-8.18,4.09-2.49,11.48-2.36,11.48-2.36Z"/>
    <path class="cls-7" d="M89.15,45.47s1.07,1.73-1.91,1.96c0,0,1.31.65,2.17,7.65,0,0-2.21-.89-3.35-1.05,0,0-3.6-7.2-2.03-11.35,0,0,2.98.24,5.12,2.78Z"/>
    <path class="cls-16" d="M86.52,43.85c.72,3.58.46,8.51.46,8.51-3.16-7.38-1.91-9.72-1.91-9.72l1.45,1.2Z"/>
    <g>
      <path class="cls-19" d="M86.82,42.82c.09.59.17,1.17.24,1.76.15,1.17.26,2.34.36,3.52.1,1.17.18,2.35.25,3.52l.09,1.76.07,1.76-.18-1.75-.2-1.75c-.15-1.16-.3-2.33-.47-3.49-.17-1.16-.37-2.32-.59-3.46-.11-.57-.23-1.15-.35-1.72-.13-.57-.26-1.14-.41-1.68l.89-.24c.13.6.23,1.18.32,1.77Z"/>
      <path class="cls-19" d="M67.54,43.73c.07-.4.14-.8.24-1.2.09-.41.19-.79.35-1.22l.84.37c-.15.31-.29.7-.41,1.07-.13.37-.23.75-.34,1.13-.2.77-.37,1.55-.51,2.33-.14.79-.24,1.58-.33,2.38-.04.4-.07.8-.11,1.2l-.08,1.2-.04-1.21c0-.4,0-.81,0-1.21.01-.81.04-1.61.1-2.42.06-.81.15-1.61.29-2.42Z"/>
    </g>
    <g>
      <g>
        <path class="cls-9" d="M85,44.6c.27-.02.52.35.55.83.04.48-.15.89-.42.91s-.52-.35-.55-.83c-.04-.48.15-.89.42-.91Z"/>
        <path class="cls-19" d="M84.26,44.68c-.11.24-.16.55-.14.86.02.31.12.6.27.82.19.28.45.44.73.44.02,0,.04,0,.06,0,.54-.04.9-.65.84-1.4-.06-.76-.51-1.3-1.05-1.26-.3.02-.56.22-.71.55ZM85.04,45.47c0-.09,0-.17,0-.24.02.06.04.14.04.23,0,.09,0,.17,0,.24-.02-.06-.04-.14-.04-.23Z"/>
      </g>
      <path class="cls-7" d="M85.04,45.15c.16-.01.3.21.33.49.02.28-.09.52-.25.53-.16.01-.3-.21-.33-.49-.02-.28.09-.52.25-.53Z"/>
      <path class="cls-16" d="M85.02,45.47c.11,0,.21.14.22.34.01.2-.06.36-.17.37-.11,0-.21-.14-.22-.34-.02-.2.06-.36.17-.37Z"/>
    </g>
    <g>
      <g>
        <path class="cls-9" d="M85.23,49.21c.27-.02.52.35.55.83.04.48-.15.89-.42.91-.27.02-.52-.35-.55-.83-.04-.48.15-.89.42-.91Z"/>
        <path class="cls-19" d="M84.49,49.29c-.11.24-.16.55-.14.86.02.31.12.6.27.82.19.28.45.44.73.44.02,0,.04,0,.06,0,.54-.04.9-.65.84-1.4-.06-.76-.51-1.3-1.05-1.26-.3.02-.56.22-.71.55ZM85.27,50.08c0-.09,0-.17,0-.24.02.06.04.14.04.23,0,.09,0,.17,0,.24-.02-.06-.04-.14-.04-.23Z"/>
      </g>
      <path class="cls-7" d="M85.27,49.76c.16-.01.3.21.33.49.02.28-.09.52-.25.53-.16.01-.3-.21-.33-.49-.02-.28.09-.52.25-.53Z"/>
      <path class="cls-16" d="M85.25,50.08c.11,0,.21.14.22.34.01.2-.06.36-.17.37-.11,0-.21-.14-.22-.34s.06-.36.17-.37Z"/>
    </g>
    <g>
      <g>
        <path class="cls-9" d="M62.72,40.35c4.66-2.57,9.28-2.32,9.28-2.32,11.35-.71,18.66,4.55,18.66,4.55.8,2.63.2,2.89.2,2.89-6.1-3.97-14.39-4.55-14.39-4.55-6.7-.83-14.32,2.07-14.32,2.07-.42-.13-.37-.36-.39-.64-.04-.41.2-.91.45-1.31.25-.4.51-.7.51-.7Z"/>
        <path class="cls-19" d="M61.81,40.8c-.39.62-.56,1.16-.52,1.6,0,.03,0,.06,0,.09.01.24.04.73.71.94l.15.05.15-.06c.08-.03,7.59-2.85,14.1-2.05h.02c.08,0,8.25.62,14.17,4.47l.21.13.23-.1c.45-.19.82-.94.06-3.44l-.05-.15-.13-.09c-.3-.22-7.56-5.34-18.93-4.64-.44-.02-4.92-.16-9.5,2.38l-.07.04-.05.06s-.29.33-.56.76ZM62.21,42.32c-.02-.23.12-.6.39-1.03.17-.26.34-.48.42-.58,4.45-2.43,8.91-2.22,8.96-2.22h.03s.03,0,.03,0c10.25-.64,17.22,3.71,18.23,4.38.29.99.35,1.57.35,1.9-6-3.67-13.62-4.27-14.1-4.3-6.15-.75-12.92,1.52-14.29,2.01,0-.01,0-.02,0-.03,0-.04,0-.09,0-.13Z"/>
      </g>
      <path class="cls-7" d="M80.3,39.12c-11.42-.21-15.71,2.52-15.71,2.52-1.24.18.55-1.81.55-1.81,7.96-2.54,15.17-.71,15.17-.71Z"/>
      <path class="cls-16" d="M68.54,39.3c-1.94,1.34-5.49,2.92-5.49,2.92-.9.77-.82-.49-.82-.49,1.21-2.81,6.31-2.43,6.31-2.43Z"/>
      <g>
        <g>
          <path class="cls-9" d="M65.6,39.74c.24.04.37.4.3.8-.07.41-.32.71-.56.67-.24-.04-.37-.4-.3-.8.07-.41.32-.71.56-.67Z"/>
          <path class="cls-19" d="M65.67,39.29c.2.03.38.15.5.32.18.26.25.63.18,1.02-.11.62-.51,1.06-.97,1.06-.04,0-.08,0-.11,0-.2-.03-.38-.14-.5-.32-.18-.26-.25-.63-.18-1.02.12-.68.58-1.13,1.08-1.05Z"/>
        </g>
        <path class="cls-7" d="M65.51,40.21c.14.02.22.23.18.47-.04.24-.19.42-.33.39s-.22-.23-.18-.47c.04-.24.19-.42.33-.39Z"/>
        <path class="cls-16" d="M65.43,40.47c.1.02.15.16.12.33-.03.16-.13.29-.23.27-.1-.02-.15-.16-.12-.33s.13-.29.23-.27Z"/>
      </g>
      <g>
        <g>
          <path class="cls-9" d="M82.49,39.67c.28,0,.51.39.51.88,0,.48-.23.87-.51.87-.28,0-.51-.39-.51-.88,0-.48.23-.87.51-.87Z"/>
          <path class="cls-19" d="M81.52,40.54c0,.31.07.62.21.85.18.31.45.49.76.49h0c.55,0,.97-.57.97-1.33,0-.31-.07-.62-.21-.85-.18-.31-.45-.49-.76-.49h0c-.55,0-.97.57-.97,1.33ZM82.49,41.42v-.46s0,.46,0,.46ZM82.44,40.55c0-.13.02-.23.05-.3.03.07.05.18.05.3,0,.13-.02.23-.05.3-.03-.07-.05-.18-.05-.3Z"/>
        </g>
        <path class="cls-7" d="M82.48,40.23c.17,0,.3.23.3.51,0,.28-.14.51-.3.51-.17,0-.3-.23-.3-.51s.14-.51.3-.51Z"/>
        <path class="cls-16" d="M82.44,40.55c.11,0,.21.16.21.36,0,.2-.09.35-.21.35-.11,0-.21-.16-.21-.36,0-.2.09-.35.21-.35Z"/>
      </g>
      <g>
        <g>
          <path class="cls-9" d="M87.95,41.75c.28-.02.54.35.59.83s-.15.89-.43.91c-.28.02-.54-.35-.59-.83-.05-.48.15-.89.43-.91Z"/>
          <path class="cls-19" d="M87.35,41.59c-.22.27-.33.67-.29,1.11.07.72.5,1.25,1.02,1.25.02,0,.04,0,.07,0h0c.21-.02.41-.13.56-.3.22-.27.33-.67.29-1.11-.07-.76-.54-1.3-1.09-1.24-.21.02-.41.13-.56.3ZM87.98,42.62c-.01-.13,0-.23.02-.3.03.07.07.17.08.3.01.13,0,.23-.02.3-.03-.07-.07-.17-.08-.3Z"/>
        </g>
        <path class="cls-7" d="M88,42.3c.16-.01.32.2.35.49.03.28-.09.52-.25.54-.16.01-.32-.2-.35-.49s.09-.52.25-.54Z"/>
        <path class="cls-16" d="M87.98,42.63c.11,0,.22.14.24.34.02.19-.06.36-.17.37-.11,0-.22-.14-.24-.34-.02-.19.06-.36.17-.37Z"/>
      </g>
      <g>
        <g>
          <path class="cls-9" d="M71.72,38.52c.28.02.47.43.43.91-.04.48-.31.85-.59.83-.28-.02-.47-.43-.43-.91.04-.48.31-.85.59-.83Z"/>
          <path class="cls-19" d="M70.67,39.31c-.04.44.07.85.29,1.11.15.18.35.28.56.3.02,0,.04,0,.07,0,.52,0,.95-.52,1.02-1.25.04-.44-.07-.85-.29-1.11-.15-.18-.35-.28-.56-.3-.55-.05-1.01.49-1.08,1.25ZM71.59,39.39c.01-.13.04-.23.08-.3.02.07.03.18.02.3-.01.13-.04.23-.08.3-.02-.07-.03-.18-.02-.3Z"/>
        </g>
        <path class="cls-7" d="M71.66,39.08c.16.01.28.25.25.54-.03.28-.18.5-.34.49-.16-.01-.28-.25-.25-.54.03-.28.18-.5.34-.49Z"/>
        <path class="cls-16" d="M71.59,39.39c.11,0,.19.18.17.37-.02.2-.12.35-.24.34-.11,0-.19-.18-.17-.37.02-.2.12-.35.24-.34Z"/>
      </g>
    </g>
    <g>
      <g>
        <path class="cls-9" d="M63.81,44.64c.27.05.41.47.33.94-.08.48-.36.83-.63.78-.27-.05-.41-.47-.33-.94.08-.48.36-.83.63-.78Z"/>
        <path class="cls-19" d="M62.73,45.34c-.13.75.18,1.38.71,1.48.04,0,.08.01.12.01.25,0,.5-.13.69-.37.17-.21.29-.49.34-.8.13-.75-.18-1.38-.71-1.48-.3-.05-.6.08-.82.36-.17.21-.29.49-.34.8ZM63.62,45.73c0-.07,0-.15.01-.24.02-.09.04-.17.07-.23,0,.07,0,.15-.01.24s-.04.17-.07.23Z"/>
      </g>
      <path class="cls-7" d="M63.71,45.18c.16.03.24.27.2.55-.05.28-.21.49-.37.46-.16-.03-.24-.28-.2-.55.05-.28.21-.49.37-.46Z"/>
      <path class="cls-16" d="M63.61,45.49c.11.02.17.19.14.38-.03.19-.15.33-.25.32-.11-.02-.17-.19-.14-.38.03-.19.15-.33.25-.32Z"/>
    </g>
    <g>
      <g>
        <path class="cls-9" d="M62.66,48.55c.27.05.41.47.33.94-.08.48-.36.83-.63.78-.27-.05-.41-.47-.33-.94.08-.48.36-.83.63-.78Z"/>
        <path class="cls-19" d="M61.58,49.26c-.13.75.18,1.38.71,1.48h0s.08.01.12.01c.48,0,.92-.48,1.03-1.17.13-.75-.18-1.38-.71-1.48-.3-.05-.6.08-.82.36-.17.21-.29.49-.34.8ZM62.47,49.65c0-.07,0-.15.01-.24.02-.09.04-.17.07-.23,0,.07,0,.15-.01.24-.02.09-.04.17-.07.23Z"/>
      </g>
      <path class="cls-7" d="M62.56,49.1c.16.03.24.27.2.55s-.21.48-.37.46c-.16-.03-.24-.28-.2-.55s.21-.48.37-.46Z"/>
      <path class="cls-16" d="M62.46,49.41c.11.02.17.19.14.38-.03.19-.15.33-.25.32-.11-.02-.17-.19-.14-.38.03-.19.15-.33.25-.32Z"/>
    </g>
    <g>
      <g>
        <path class="cls-9" d="M64.84,51.93s.94-2.62,2.55-3.06c0,0,1.79,1.04,1.75,3.53,0,0-.19,3.17-.63,5.84,6.82.33,13.11,1.06,13.11,1.06-.06-5.68-.78-7.94-.78-7.94,7.22,1.29,12.36,3.81,12.36,3.81.69.96.64,0,.69.73.63,9.98-.92,16.83-.92,16.83-2.77.07-4.14.63-4.14.63-8.95,6.68-23.01,7.65-23.01,7.65-2.98-.97-3.71-2.28-3.71-2.28-3.01-9.7-3.26-19.54-3.26-19.54,2.19-.46,3.97-.72,5.35-.85l.63-6.39Z"/>
        <path class="cls-19" d="M58.76,58.73l-.38.08v.38c.01.1.29,10.01,3.29,19.66l.04.09c.03.06.85,1.49,3.97,2.5l.08.03h.09c.14-.02,14.24-1.05,23.2-7.7.26-.09,1.58-.52,3.93-.58h.36s.08-.36.08-.36c.02-.07,1.55-7.03.93-16.96-.02-.32-.03-.53-.26-.66-.06-.04-.17-.08-.31-.06-.04-.04-.11-.12-.2-.24l-.07-.09-.1-.05c-.05-.03-5.28-2.56-12.49-3.85l-.75-.13.23.73s.65,2.15.75,7.28c-1.6-.17-6.66-.69-12.11-.98.38-2.54.55-5.35.55-5.38.04-2.75-1.9-3.91-1.98-3.96l-.17-.1-.19.05c-1.82.5-2.82,3.24-2.86,3.35l-.02.05-.6,6.07c-1.55.17-3.23.44-5.02.82ZM59.33,59.55c1.76-.36,3.41-.62,4.92-.77l.38-.04.66-6.71c.25-.66,1.02-2.22,2.03-2.66.4.31,1.38,1.24,1.36,3.01,0,0-.2,3.16-.62,5.77l-.08.51.51.03c6.72.33,13.01,1.05,13.08,1.05l.52.06v-.52c-.05-3.96-.41-6.28-.63-7.35,6.18,1.19,10.72,3.25,11.44,3.59.12.16.31.38.54.49.52,8.5-.55,14.75-.84,16.25-2.58.11-3.88.63-3.94.65l-.05.02-.05.04c-8.37,6.25-21.48,7.45-22.68,7.55-2.4-.8-3.21-1.82-3.34-2.01-2.61-8.44-3.12-17.07-3.2-18.97Z"/>
      </g>
      <path class="cls-7" d="M66.99,49.47c1.46.07,1.65,2.95,1.65,2.95l-.82,6.74c9.98.53,14.99,1.28,14.99,1.28-.26-6.68-.77-8.43-.77-8.43,2.2.33,2.87,1.65,2.87,1.65.67,15.41-1.09,20.84-1.09,20.84-4.98,4.07-18.53,5.53-18.53,5.53-.38-14.81.19-19.36.19-19.36.62-6.68,1.51-11.2,1.51-11.2Z"/>
      <path class="cls-7" d="M64.92,59.07l.35-4.16c-.17-3.75,1.71-4.75,1.71-4.75-.72,4.26-1.28,10.97-1.28,10.97-.09,2.4-1.99,3-1.99,3-2.36,2.75-.23,5.53-.23,5.53,2.37,3.94-.82,7.95-.82,7.95-2.89-10.78-3.04-17.63-3.04-17.63,3.52-1.15,5.3-.91,5.3-.91Z"/>
      <g>
        <g>
          <path class="cls-9" d="M67.06,50.11c.27.02.46.43.42.91-.04.48-.29.85-.55.83-.27-.02-.46-.43-.42-.91.04-.48.29-.85.55-.83Z"/>
          <path class="cls-19" d="M66.04,50.91c-.06.76.3,1.36.84,1.41h0s.04,0,.06,0c.51,0,.93-.53.99-1.26.06-.76-.3-1.36-.84-1.41-.54-.04-.99.5-1.05,1.26ZM66.96,50.98c0-.09.02-.17.05-.23.01.07.02.15,0,.24,0,.09-.02.17-.05.23-.01-.07-.02-.14,0-.24Z"/>
        </g>
        <path class="cls-7" d="M67.01,50.67c.16.01.27.25.24.53-.02.28-.17.5-.33.49-.16-.01-.27-.25-.24-.53.02-.28.17-.5.33-.49Z"/>
        <path class="cls-16" d="M66.94,50.98c.11,0,.18.17.17.37-.02.2-.12.35-.23.34-.11,0-.18-.17-.17-.37.02-.2.12-.35.23-.34Z"/>
      </g>
      <g>
        <g>
          <path class="cls-9" d="M83.96,52.94c.27-.03.53.34.57.82.05.48-.13.89-.4.92-.27.03-.53-.34-.57-.82s.13-.89.4-.92Z"/>
          <path class="cls-19" d="M83.11,53.9c.07.72.5,1.24,1,1.24.03,0,.05,0,.08,0,.3-.03.55-.24.69-.57.1-.24.15-.55.11-.86-.08-.76-.54-1.29-1.08-1.23-.54.06-.88.67-.81,1.43ZM84.03,53.81c0-.09,0-.17,0-.24.02.06.04.14.05.23s0,.17,0,.24c-.02-.06-.04-.14-.05-.23Z"/>
        </g>
        <path class="cls-7" d="M84.01,53.49c.16-.02.31.2.34.48s-.08.52-.23.54c-.16.02-.31-.2-.34-.48-.03-.28.08-.52.23-.54Z"/>
        <path class="cls-16" d="M84,53.81c.11-.01.21.14.23.33.02.19-.05.36-.16.37-.11.01-.21-.14-.23-.33-.02-.19.05-.36.16-.37Z"/>
      </g>
      <path class="cls-16" d="M81.07,51.82l.97.19c1.05,3.17,1.23,8.89,1.23,8.89-8.63-.84-15.13-1.14-15.13-1.14l-.23-1.01c4.21.14,14.18,1.25,14.18,1.25-.14-7.36-1.01-8.17-1.01-8.17Z"/>
      <g>
        <g>
          <path class="cls-9" d="M88.11,54.32c.27-.03.53.34.57.82.05.48-.13.89-.4.92-.27.03-.53-.34-.57-.82s.13-.89.4-.92Z"/>
          <path class="cls-19" d="M87.26,55.29c.07.72.5,1.23,1,1.23.03,0,.05,0,.08,0,.3-.03.55-.24.69-.57.1-.24.15-.55.11-.86-.08-.76-.54-1.29-1.08-1.23-.54.06-.88.67-.81,1.43ZM88.18,55.19c0-.09,0-.17,0-.24.02.06.04.14.05.23,0,.09,0,.17,0,.24-.02-.06-.04-.14-.05-.23Z"/>
        </g>
        <path class="cls-7" d="M88.16,54.87c.16-.02.31.2.34.48s-.08.52-.23.54c-.16.02-.31-.2-.34-.48-.03-.28.08-.52.23-.54Z"/>
        <path class="cls-16" d="M88.15,55.19c.11-.01.21.14.23.33.02.19-.05.36-.16.37-.11.01-.21-.14-.23-.33-.02-.19.05-.36.16-.37Z"/>
      </g>
      <g>
        <g>
          <path class="cls-9" d="M88.26,60.08c.27.02.46.42.43.9-.03.48-.27.86-.54.84-.27-.02-.46-.42-.43-.9.03-.48.27-.86.54-.84Z"/>
          <path class="cls-19" d="M87.71,59.83c-.26.23-.43.62-.45,1.06-.05.76.32,1.36.86,1.39h0s.03,0,.05,0c.52,0,.94-.54.98-1.28.03-.44-.09-.86-.32-1.11-.15-.17-.34-.27-.55-.28-.2-.01-.41.06-.58.21ZM88.18,60.95c0-.09.02-.17.04-.23.01.07.02.15.01.24,0,.09-.02.17-.04.23-.01-.07-.02-.15-.01-.24Z"/>
        </g>
        <path class="cls-7" d="M88.22,60.63c.16,0,.27.25.25.53-.02.28-.16.5-.32.49s-.27-.25-.25-.53c.02-.28.16-.5.32-.49Z"/>
        <path class="cls-16" d="M88.15,60.95c.11,0,.19.17.18.37-.01.2-.11.35-.22.34-.11,0-.19-.17-.18-.37.01-.2.11-.35.22-.34Z"/>
      </g>
      <g>
        <g>
          <path class="cls-9" d="M88.03,64.92c.27.02.46.42.43.9-.03.48-.27.86-.54.84-.27-.02-.46-.42-.43-.9.03-.48.27-.86.54-.84Z"/>
          <path class="cls-19" d="M87.48,64.67c-.26.23-.43.62-.45,1.06-.05.76.32,1.36.86,1.39h0s.03,0,.05,0c.52,0,.94-.54.98-1.28.03-.44-.09-.86-.32-1.11-.15-.17-.34-.27-.55-.28-.2-.01-.41.06-.58.21ZM87.95,65.79c0-.09.02-.17.04-.23.01.07.02.15.01.24,0,.09-.02.17-.04.23-.01-.07-.02-.15-.01-.24Z"/>
        </g>
        <path class="cls-7" d="M87.98,65.47c.16,0,.27.25.25.53-.02.28-.16.5-.32.49-.16,0-.27-.25-.25-.53.02-.28.16-.5.32-.49Z"/>
        <path class="cls-16" d="M87.92,65.79c.11,0,.19.17.18.37-.01.2-.11.35-.22.34-.11,0-.19-.17-.18-.37.01-.2.11-.35.22-.34Z"/>
      </g>
      <g>
        <g>
          <path class="cls-9" d="M87.8,69.53c.27.02.46.42.43.9-.03.48-.27.86-.54.84-.27-.02-.46-.42-.43-.9.03-.48.27-.86.54-.84Z"/>
          <path class="cls-19" d="M87.25,69.28c-.26.23-.43.62-.45,1.06-.05.76.32,1.36.86,1.39h0s.03,0,.05,0c.52,0,.94-.54.98-1.28.03-.44-.09-.86-.32-1.11-.15-.17-.34-.27-.55-.28-.2-.01-.41.06-.58.21ZM87.72,70.4c0-.09.02-.17.04-.23.01.07.02.15.01.24,0,.09-.02.17-.04.23-.01-.07-.02-.15-.01-.24Z"/>
        </g>
        <path class="cls-7" d="M87.75,70.08c.16,0,.27.25.25.53s-.16.5-.32.49c-.16,0-.27-.25-.25-.53.02-.28.16-.5.32-.49Z"/>
        <path class="cls-16" d="M87.69,70.4c.11,0,.19.17.18.37-.01.2-.11.35-.22.34-.11,0-.19-.17-.18-.37.01-.2.11-.35.22-.34Z"/>
      </g>
      <path class="cls-7" d="M90.41,54.73s1.87.11,1.94.69c0,0,.43,7.36-1.21,16.81,0,0-.95.66-.61-1.68,0,0,.76-6.35.03-8.74,0,0-2.74-6.67-.15-7.08Z"/>
      <path class="cls-16" d="M92.35,55.42l1.12.48c.72,7.24-.95,16.33-.95,16.33-.79.11-1.38-.23-1.38-.23,1.39-9.42,1.21-16.58,1.21-16.58Z"/>
      <path class="cls-19" d="M89.04,68.3c.12-1.61.2-3.22.26-4.83.05-1.61.07-3.22.05-4.83-.03-1.6-.08-3.22-.24-4.79l.92-.08c.08,1.65.06,3.26,0,4.88-.05,1.62-.15,3.24-.28,4.85-.13,1.61-.3,3.22-.49,4.82-.09.8-.21,1.6-.31,2.4l-.35,2.4.24-2.41c.06-.8.14-1.61.2-2.41Z"/>
      <path class="cls-19" d="M66.46,54.04c-.32,2.23-.54,4.48-.68,6.73-.16,2.24-.13,4.5-.09,6.75.05,2.25.14,4.51.25,6.76.11,2.25.24,4.5.38,6.75l-.92.05c-.07-2.26-.13-4.52-.16-6.78-.03-2.26-.05-4.52-.03-6.78.03-2.26.07-4.52.31-6.78.23-2.25.54-4.49.95-6.71Z"/>
    </g>
    <g>
      <path class="cls-7" d="M61,52.75s-.97,1.66-.74,5.88l-1.39.31s-.34-3.83.4-6.09c0,0,.63-.67,1.74-.1Z"/>
      <path class="cls-19" d="M58.82,52.71c-.77,2.32-.43,6.12-.42,6.28l.05.52,2.29-.51-.02-.39c-.22-4.04.67-5.61.68-5.62l.25-.42-.44-.22c-1.4-.71-2.25.16-2.28.2l-.07.07-.03.1ZM59.66,53.12c.11-.07.35-.19.72-.11-.28.76-.72,2.41-.61,5.25l-.49.11c-.06-1.08-.13-3.59.38-5.26Z"/>
    </g>
    <path class="cls-16" d="M64.5,59.97c-2.55.23-3.82.47-3.82.47-.4,5.4,1.99,17.4,1.99,17.4-2.53-4.67-3.35-18.43-3.35-18.43,2.41-.57,5.12-.85,5.12-.85l.06,1.41Z"/>
    <path class="cls-16" d="M67.31,64.98c1.88,2.65.18,5.42.18,5.42-1.4,3.97,1.59,5.02,1.59,5.02,3.07.82,3.84,3.32,3.84,3.32-5.31,1.45-7.01,1.29-7.01,1.29-1.02-11.18.23-21.77.23-21.77-.36,3.47,1.17,6.73,1.17,6.73Z"/>
  </g>
  <g>
    <g>
      <g>
        <path class="cls-11" d="M99.19,80.14c1.08,1.67,1.55,4.93,1.55,4.93-4.75.65-5.84,4.33-5.84,4.33l-3.73-4.15c2.54-5.26,8.02-5.11,8.02-5.11Z"/>
        <path class="cls-6" d="M90.76,85.05l-.13.28,4.49,4.99.23-.79c.04-.14,1.08-3.4,5.46-4l.46-.06-.07-.46c-.02-.14-.49-3.38-1.62-5.11l-.13-.2h-.24c-.06,0-5.81-.11-8.45,5.36ZM91.73,85.17c2.13-4.06,6.18-4.52,7.21-4.57.71,1.24,1.12,3.2,1.27,4.08-3.39.62-4.88,2.73-5.45,3.86l-3.03-3.37Z"/>
      </g>
      <path class="cls-15" d="M99.58,84.68s-2.75.51-4.57,3.85l-3.2-3.31s4.17-5.71,7.78-.54Z"/>
      <g>
        <path class="cls-6" d="M96.6,84.81c.23,0,.47.02.7.06.23.04.47.09.7.19-.24.09-.47.14-.71.17-.24.03-.47.04-.71.04s-.47-.02-.7-.06c-.23-.04-.47-.09-.7-.19.24-.09.47-.14.71-.17.24-.03.47-.04.71-.04Z"/>
        <path class="cls-6" d="M96.5,84.81c.1-.21.22-.42.35-.61.14-.2.28-.39.47-.56-.02.25-.08.49-.15.72-.07.23-.16.45-.27.66-.1.21-.22.42-.35.61-.14.2-.28.39-.47.56.02-.25.08-.49.15-.72.07-.23.16-.45.27-.66Z"/>
      </g>
      <g>
        <path class="cls-6" d="M95.67,83.19c.23,0,.47.02.7.06.23.04.47.09.7.19-.24.09-.47.14-.71.17-.24.03-.47.04-.71.04-.23,0-.47-.02-.7-.06-.23-.04-.47-.09-.7-.19.24-.09.47-.14.71-.17.24-.03.47-.04.71-.04Z"/>
        <path class="cls-6" d="M95.57,83.19c.1-.21.22-.42.35-.61.14-.2.28-.39.47-.56-.02.25-.08.49-.15.72-.07.23-.16.45-.26.66-.1.21-.22.42-.35.61-.14.2-.28.39-.47.56.02-.25.08-.49.15-.72.07-.23.16-.45.27-.66Z"/>
      </g>
    </g>
    <g>
      <g>
        <path class="cls-11" d="M98.29,85.5c2.62-1.47,3.83-.06,3.83-.06,1.11,1.24,2.21,3.05,2.21,3.05l-.69,1.18c.42.48.34.61.34.61l-.78,1.13c.22.6-.36,1.38-.36,1.38-1.45.86-1.74,2.33-1.74,2.33-.31.76-2.31-.59-2.31-.59-.97.79-1.99-.28-1.99-.28-.27-1.16-2.47-2.49-2.47-2.49.48-4.83,3.97-6.26,3.97-6.26Z"/>
        <path class="cls-6" d="M93.87,91.72l-.03.29.25.15c.78.48,2.09,1.5,2.26,2.21l.03.12.09.09c.41.43,1.38,1.03,2.33.51.47.29,1.28.72,1.91.72.11,0,.21-.01.3-.04.24-.07.43-.24.53-.47l.03-.09s.28-1.29,1.52-2.03l.08-.05.06-.07c.07-.09.59-.82.49-1.56l.69-.99c.17-.29,0-.63-.18-.88l.67-1.15-.14-.23c-.05-.08-1.13-1.86-2.26-3.12-.12-.14-1.54-1.62-4.37-.05-.37.16-3.74,1.76-4.22,6.63ZM94.82,91.53c.55-4.28,3.62-5.59,3.65-5.6l.05-.02c2.23-1.25,3.22-.2,3.26-.16l.35-.3-.34.31c.84.93,1.68,2.23,2.01,2.75l-.72,1.23.22.25c.09.1.14.18.18.23l-.79,1.14.08.23c.09.24-.11.66-.25.87-1.29.81-1.72,2.04-1.83,2.45-.27,0-1.03-.33-1.64-.74l-.28-.19-.26.22c-.52.42-1.09,0-1.29-.17-.35-1.05-1.78-2.08-2.38-2.48Z"/>
      </g>
      <path class="cls-15" d="M98.96,86.99c.72-.27,1.65-.16,1.65-.16,1.28.7,1.81,2.07,1.81,2.07.29,1.12-.63,1.25-.63,1.25.67,1.08-.36,2.51-.36,2.51-.74.97-.9,2.06-.9,2.06-.51.27-1.15-.51-1.15-.51.56-2.55-1-3.17-1-3.17.48.97.15,2.33.15,2.33-.31.97-1.34.45-1.34.45-1.3-2.08-2.16-2.16-2.16-2.16,1.28-4.24,3.91-4.66,3.91-4.66Z"/>
      <g>
        <g>
          <path class="cls-6" d="M98.53,94.17s.06-.02.09-.03c.06-.03.11-.07.16-.13.09-.12.15-.32.16-.53,0-.22,0-.45-.06-.69-.04-.24-.11-.47-.18-.71l.02.03c-.1-.19-.13-.36-.14-.55,0-.18.05-.37.13-.52.09-.16.21-.28.34-.38.07-.05.14-.1.2-.14l.22-.11-.19.15c-.06.06-.12.11-.17.17-.1.12-.19.25-.23.39-.05.14-.05.29-.03.42.02.13.09.28.16.37h0s.01.03.01.03c.12.23.24.46.33.71.1.25.17.51.21.8.03.29.03.61-.12.93-.07.16-.18.32-.32.44-.07.06-.15.12-.23.16-.04.02-.08.04-.13.06-.02,0-.04.02-.07.03-.03,0-.05.02-.1.03l-.13-.91s0,0,.01,0c.01,0,.03,0,.04,0Z"/>
          <path class="cls-6" d="M98.47,94.17h0s0,0,0,0c0,0-.02,0,0,0Z"/>
        </g>
        <path class="cls-6" d="M99.96,92c.17.08.33.16.49.25.16.09.32.18.47.28-.35-.07-.71-.07-1.07-.08-.36,0-.72,0-1.07,0l.18-.9c.34.15.67.3,1,.46Z"/>
        <polygon class="cls-6" points="102.83 91.69 101.56 89.22 103.56 91.13 102.83 91.69"/>
        <polygon class="cls-6" points="103.25 89.93 102.47 87.92 104.02 89.41 103.25 89.93"/>
      </g>
    </g>
  </g>
  <g>
    <g>
      <path class="cls-9" d="M99,69.57c8.35,0,13.9,1.71,13.9,1.71,1.8,16.45.72,20.33.72,20.33-.74,13.2-14.04,20.48-14.18,20.42-.13.06-13.44-7.22-14.18-20.42,0,0-1.07-3.88.72-20.33,0,0,1.68-1.71,13.01-1.71Z"/>
      <path class="cls-19" d="M85.53,71.24c-1.7,15.54-.85,19.91-.72,20.44.7,12.02,11.43,19.03,13.58,20.31.5.3.76.44.93.49.04.01.08.02.13.02h0s.08,0,.12-.02c.17-.05.43-.19.93-.49,2.15-1.28,12.88-8.29,13.58-20.31.13-.53.97-4.91-.72-20.44l-.03-.3-.29-.09c-.06-.02-5.71-1.73-14.03-1.73-11.21,0-13.16,1.66-13.34,1.85l-.11.11-.02.16ZM86.42,71.54c.55-.32,3.23-1.51,12.58-1.51,7.13,0,12.23,1.27,13.47,1.61,1.72,15.92.71,19.81.7,19.84l-.02.1c-.37,6.56-3.97,11.57-6.93,14.63-3.02,3.12-6.05,4.94-6.78,5.31h0s0,0,0,0c-.73-.38-3.76-2.19-6.78-5.31-2.96-3.05-6.56-8.07-6.93-14.63l-.02-.1s-1.01-4.06.71-19.94Z"/>
    </g>
    <path class="cls-7" d="M98.84,70.46c7.73-.17,11.67.95,11.67.95,1.56,15.42.63,19.72.63,19.72-.64,12.37-12.19,19.2-12.3,19.14-.12.06-11.66-6.77-12.3-19.14,0,0-.93-3.63.63-19.06,0,0,3.95-1.77,11.67-1.61Z"/>
    <path class="cls-16" d="M98.91,70.23c4.8,0,8.65.59,10.98,1.06-2.16-.28-5.15-.53-8.81-.53-10.67,0-12.68,1.83-12.68,1.83-1.69,15.49-.68,19.14-.68,19.14.7,12.43,11.52,18.25,11.64,18.19.08.04,4.08-1.31,9.56-7.06-4.02,5.6-9.5,8.57-9.58,8.53-.13.06-13.02-7-13.74-19.79,0,0-1.04-3.76.7-19.69,0,0,1.63-1.66,12.61-1.66Z"/>
    <g>
      <g>
        <path class="cls-18" d="M96.2,81.66c-.34-4.29-1.14-7.74-1.14-7.74,3.2-2.1,6.92.22,6.92.22-1.65,2.26-1.89,4.85-2.26,7.43,4.83.38,8.74-1.3,8.74-1.3,2.5,3.63-.12,5.79-.12,5.79-3.19-1.12-6.18-1.96-8.84-1.99-.04,13.37,3.46,18.39,3.46,18.39-4.96,4.96-8.3.23-8.3.23,1.78-7.13,1.51-14.81,1.6-18.46-4.96.55-7.9,1.44-7.9,1.44-2.03-3.18.39-5.79.39-5.79,2.17.98,5.28,1.77,7.45,1.76Z"/>
        <path class="cls-13" d="M88.49,79.66s-2.57,2.84-.42,6.21l.14.22.25-.08s2.82-.84,7.45-1.38c0,.49-.01,1.04-.02,1.65-.03,4.14-.08,10.39-1.57,16.34l-.04.15.09.13c.06.08,1.41,1.97,3.72,2.16.13.01.26.02.39.02,1.56,0,3.14-.8,4.72-2.37l.2-.2-.17-.24s-3.38-5.03-3.4-17.84c2.74.1,5.77,1.04,8.38,1.96l.18.06.15-.12s2.83-2.41.18-6.26l-.16-.23-.26.11s-3.7,1.55-8.21,1.29c.01-.11.03-.21.04-.32.33-2.36.65-4.59,2.1-6.59l.22-.3-.31-.2c-.16-.1-3.94-2.42-7.29-.22l-.2.13.05.23s.75,3.27,1.1,7.31c-1.99-.08-4.83-.78-6.94-1.73l-.23-.1-.17.18ZM88.84,80.31c2.32,1,5.3,1.69,7.34,1.69h.01s.37,0,.37,0l-.03-.37c-.29-3.62-.91-6.68-1.09-7.55,2.41-1.43,5.11-.29,6.02.18-1.37,2.05-1.69,4.35-2.01,6.58-.03.23-.06.45-.1.68l-.05.37.37.03c4.19.33,7.66-.84,8.63-1.22,1.76,2.76.4,4.5-.07,4.97-2.73-.95-5.89-1.91-8.75-1.94h-.35s0,.34,0,.34c-.03,11.86,2.67,17.17,3.37,18.34-1.49,1.42-2.95,2.08-4.36,1.96-1.68-.14-2.8-1.36-3.12-1.75,1.47-5.98,1.52-12.2,1.55-16.34,0-.78.01-1.46.02-2.04v-.4s-.38.04-.38.04c-4.11.46-6.88,1.15-7.7,1.38-1.37-2.38-.13-4.36.33-4.97Z"/>
      </g>
      <path class="cls-20" d="M101.29,74.18c-1.27-.49-3.09-.79-5.12.5,0,0,.75,3.37,1.07,7.29-.72,0-1.29-.15-.88-.15.23-2.35-.89-7.71-.89-7.71,3.1-2.04,5.83.04,5.81.07Z"/>
      <path class="cls-20" d="M108.24,80.69c.1.14.19.28.27.42-1.19.4-4.21,1.26-7.74.99,0-.04.01-.07.02-.11,4.2.08,7.45-1.31,7.45-1.31Z"/>
      <path class="cls-20" d="M108.35,85.68c-2.7-.95-5.24-1.69-7.56-1.88v-.02c2.37.02,5.01.7,7.83,1.63-.16.18-.27.27-.27.27Z"/>
      <path class="cls-20" d="M97.51,83.93c-.09,3.49.35,11.67-1.36,18.48,0,0,2.78,2.34,6.25,0,.05.09.08.13.08.13-4.47,4.15-7.42.05-7.42.05,1.72-7.12,1.49-14.77,1.57-18.53.35-.05.5-.1.88-.14Z"/>
      <path class="cls-20" d="M89.49,80.75c-.36.6-1.49,1.92-.45,4.25-.56.18-.69.3-.69.3-1.49-3.08.3-4.99.3-4.99.26.15.55.3.84.44Z"/>
    </g>
  </g>
  <g>
    <g>
      <g>
        <path class="cls-11" d="M49.23,87.18c1.56-1.13,2.81-.82,2.81-.82l2.62-.85c3.48,1.05,2.79,5.03,2.79,5.03l.75,1.69-.12,1.41c-.56,2.13-5.23,2.68-5.23,2.68-2.16-.65-2.29-3.14-2.29-3.14-1.71-.43-.98-2.08-.98-2.08-1.92-.07-1.04-2.55-1.04-2.55l.71-1.38Z"/>
        <path class="cls-6" d="M48.09,88.41c-.06.16-.53,1.57.08,2.48.14.21.39.46.81.59-.06.34-.06.78.14,1.19.19.4.53.68,1,.86.12.77.61,2.64,2.58,3.23l.09.03h.09c.51-.07,5-.66,5.63-3.03v-.08s.14-1.53.14-1.53l-.74-1.67c.22-1.56-.16-4.51-3.13-5.41l-.14-.04-2.64.86c-.41-.06-1.62-.11-3.04.92l-.09.06-.78,1.53ZM48.95,88.74l.64-1.25c1.3-.91,2.3-.69,2.34-.68l.12.03.13-.04,2.48-.8c2.89.98,2.36,4.32,2.33,4.47l-.02.14.75,1.71-.11,1.25c-.42,1.44-3.47,2.13-4.73,2.29-1.74-.59-1.87-2.67-1.87-2.69l-.02-.34-.33-.08c-.36-.09-.6-.25-.71-.47-.2-.41.03-.97.03-.97l.27-.62-.68-.02c-.47-.02-.6-.21-.65-.28-.29-.43-.09-1.31.01-1.63Z"/>
      </g>
      <path class="cls-6" d="M48.09,88.41c-.06.16-.53,1.57.08,2.48.14.21.39.46.81.59-.06.34-.06.78.14,1.19.19.4.53.68,1,.86.12.76.61,2.64,2.58,3.23l.09.03h.09c.51-.07,5-.66,5.63-3.03v-.08s.14-1.53.14-1.53l-.74-1.67c.22-1.56-.16-4.51-3.13-5.41l-.14-.04-2.64.86c-.41-.06-1.62-.11-3.04.92l-.09.07-.78,1.53ZM48.95,88.74l.64-1.25c1.3-.91,2.3-.69,2.34-.68l.12.03.13-.04,2.48-.8c2.9.98,2.36,4.32,2.33,4.47l-.02.14.76,1.71-.11,1.25c-.42,1.44-3.46,2.13-4.73,2.29-1.74-.59-1.87-2.67-1.87-2.69l-.02-.34-.33-.08c-.36-.09-.59-.25-.7-.47-.2-.41.03-.97.03-.97l.27-.62-.68-.02c-.47-.02-.6-.21-.65-.28-.29-.43-.09-1.31.01-1.63Z"/>
    </g>
    <g>
      <rect class="cls-9" x="50.23" y="83.76" width="4.38" height="15.86" transform="translate(-24.82 19.66) rotate(-17.24)"/>
      <path class="cls-19" d="M52.46,82.89l-5.07,1.57,4.98,16.03,5.07-1.57-4.98-16.03ZM51.86,84.04l4.43,14.27-3.3,1.03-4.43-14.27,3.3-1.03Z"/>
    </g>
    <g>
      <g>
        <path class="cls-9" d="M59.25,96.9c.59,3.34-3.29,4.54-3.29,4.54-4.82,1.51-5.55-1.8-5.55-1.8,3.71-2.96,8.84-2.75,8.84-2.75Z"/>
        <path class="cls-19" d="M50.12,99.29l-.22.18.06.28c.01.05.3,1.3,1.57,2.03.61.35,1.32.52,2.14.52.73,0,1.54-.14,2.43-.42,1.48-.46,4.14-2.11,3.61-5.06l-.06-.36-.37-.02c-.22,0-5.35-.19-9.15,2.85ZM50.95,99.81c2.92-2.18,6.69-2.43,7.89-2.45.18,2.62-2.89,3.6-3.02,3.64-1.63.51-2.92.5-3.83-.02-.61-.35-.91-.86-1.04-1.17Z"/>
      </g>
      <path class="cls-7" d="M56.37,97.71c-2.46.81-2.95,2.34-2.95,2.34.37,1.24,2.53,1.05,2.53,1.05-3.58,1.47-4.51-1.47-4.51-1.47,1.27-1.22,2.32-1.54,2.32-1.54,1.41-.39,2.61-.38,2.61-.38Z"/>
      <path class="cls-16" d="M51.84,99.99c.98,1.72,3.44,1.44,3.44,1.44-3.33,1.03-4.52-1.6-4.52-1.6.98-1.02,2.38-1.46,2.38-1.46-1.48.83-1.3,1.62-1.3,1.62Z"/>
    </g>
    <g>
      <path class="cls-13" d="M55.64,90.94c-.13,0-.26,0-.4-.02.07-.12.15-.24.25-.36l.15.38Z"/>
      <path class="cls-6" d="M54.64,89.19c0,.09,0,.18.02.27.03.18.08.35.15.5.08.15.19.27.33.36.14.1.32.14.5.17l.49.09-.34.28c-.13.11-.26.25-.38.4-.11.15-.21.31-.29.48-.07.17-.12.36-.13.55-.01.19.03.39.09.58-.1-.17-.18-.36-.2-.57-.02-.2-.01-.42.03-.62.05-.2.12-.4.22-.59.03-.06.07-.12.1-.18.14.02.27.02.4.02l-.15-.38c-.1.12-.18.24-.25.36-.12-.02-.23-.04-.35-.09-.24-.1-.47-.27-.64-.48-.17-.21-.28-.44-.37-.68-.04-.12-.08-.24-.1-.36-.03-.13-.05-.24-.06-.39l.92.02c-.01.06-.01.17-.01.25Z"/>
    </g>
    <g>
      <path class="cls-11" d="M48.42,87.53c1.12-1.5,3.73-.81,3.73-.81-2.35.65-.4,3-.4,3-2.07-.55-2.8,1.64-2.8,1.64-2.03-.72-.93-3.16-.93-3.16l.39-.67Z"/>
      <path class="cls-6" d="M47.6,88.01c-.03.06-.64,1.44-.15,2.58.24.57.69.97,1.35,1.2l.44.16.15-.45c.06-.18.65-1.76,2.24-1.34l1.39.37-.92-1.11c-.22-.26-.8-1.14-.62-1.69.08-.25.34-.45.79-.57l1.65-.45-1.65-.44c-.12-.03-2.93-.75-4.22.98l-.03.04-.42.71ZM48.43,88.41l.37-.62c.48-.62,1.32-.77,2.02-.77-.09.13-.17.28-.22.43-.19.6.01,1.23.26,1.73-1.07.1-1.77.88-2.14,1.55-.19-.13-.33-.3-.42-.5-.31-.71.07-1.68.13-1.83Z"/>
    </g>
    <g>
      <g>
        <path class="cls-11" d="M51.51,89.64c1.47.11,2.47,2,2.47,2,.25,1.2-1.87,1.36-1.87,1.36-2.27.1-1.91,1.26-1.91,1.26-2.24-.86-1.29-2.73-1.29-2.73,1.14-2.42,2.61-1.89,2.61-1.89Z"/>
        <g>
          <polygon class="cls-6" points="50.64 94.12 50.64 94.12 50.64 94.12 50.64 94.12"/>
          <path class="cls-6" d="M48.49,91.33s-.47.94-.1,1.89c.25.65.8,1.14,1.65,1.47l.88.34-.28-.9h0s0,0,0,0h0s-.02-.11.07-.23c.09-.11.4-.38,1.42-.43.17-.01,1.52-.13,2.08-.88.22-.3.3-.65.22-1.03v-.06s-.04-.06-.04-.06c-.05-.09-1.12-2.08-2.79-2.24-.36-.09-1.94-.34-3.11,2.15ZM49.32,91.74c.94-1.98,2-1.67,2.05-1.66l.05.02h.06c.95.08,1.78,1.2,2.06,1.7.01.11-.02.18-.06.23-.25.33-1.05.49-1.4.52-1.05.05-1.77.32-2.13.83-.05.06-.08.13-.11.19-.29-.19-.49-.41-.59-.67-.22-.56.07-1.15.07-1.15Z"/>
        </g>
      </g>
      <path class="cls-6" d="M48.49,91.33c-.05.1-.45.98-.1,1.89.25.65.8,1.14,1.65,1.47l.88.34-.28-.9s-.02-.11.07-.23c.09-.11.4-.39,1.42-.43.17-.01,1.52-.13,2.08-.88.22-.3.3-.65.22-1.03v-.06s-.04-.06-.04-.06c-.05-.09-1.12-2.08-2.79-2.24-.36-.09-1.93-.34-3.11,2.14ZM49.32,91.74h0c.93-1.99,2-1.68,2.04-1.66l.05.02h.06c.95.08,1.77,1.2,2.06,1.7.01.11-.03.18-.06.23-.25.33-1.05.5-1.4.52-.1,0-.2.01-.29.02-.89.08-1.51.35-1.84.81-.05.06-.08.13-.11.19-.29-.19-.49-.41-.59-.67-.22-.56.07-1.15.07-1.15Z"/>
      <polygon class="cls-13" points="50.64 94.12 50.64 94.12 50.64 94.12 50.64 94.12"/>
    </g>
    <g>
      <g>
        <path class="cls-11" d="M51.43,92.93c3.69-.38,3.48,2.01,3.48,2.01-.23,1.46-3.33,1.82-3.33,1.82-1.49-.75-1.57-2.23-1.57-2.23.15-1.07,1.42-1.6,1.42-1.6Z"/>
        <path class="cls-6" d="M49.56,94.46v.05s0,.05,0,.05c0,.07.12,1.75,1.83,2.61l.12.06.14-.02c.35-.04,3.45-.45,3.73-2.2v-.03s.08-.99-.67-1.72c-.69-.68-1.8-.94-3.31-.78h-.07s-.06.03-.06.03c-.06.03-1.5.65-1.69,1.96ZM50.48,94.54c.13-.65.87-1.06,1.08-1.16,1.17-.11,2.03.07,2.5.53.4.39.41.89.4.97-.15.78-1.85,1.26-2.78,1.4-1-.57-1.17-1.51-1.2-1.73Z"/>
      </g>
      <path class="cls-6" d="M49.56,94.46v.09c0,.07.11,1.75,1.82,2.61l.12.06.14-.02c.35-.04,3.45-.45,3.73-2.2v-.03s.08-.99-.67-1.72c-.69-.68-1.81-.94-3.31-.78h-.07s-.06.03-.06.03c-.06.03-1.5.65-1.69,1.96ZM50.48,94.54c.13-.65.86-1.06,1.08-1.17,0,0,.02,0,.03,0,1.15-.1,2,.08,2.46.52.41.39.42.89.41.99-.15.78-1.85,1.26-2.78,1.39-1-.57-1.17-1.52-1.2-1.73Z"/>
    </g>
    <g>
      <path class="cls-15" d="M51.1,93.37c1.2-.38,2.23.16,2.23.16.92,1.49-1.38,1.21-1.38,1.21.2.74-.5,1.22-.5,1.22-.83.07-1.35-1.22-1.35-1.22-.3-.98,1-1.37,1-1.37Z"/>
      <path class="cls-6" d="M51.96,93.52c.02.2.05.4.08.61.04.2.08.4.15.59.07.19.15.38.3.52-.2-.07-.37-.24-.5-.41-.14-.17-.26-.35-.38-.54-.11-.19-.22-.38-.32-.57-.1-.2-.19-.39-.28-.6l.9-.2c0,.19.02.4.04.6Z"/>
    </g>
    <g>
      <path class="cls-15" d="M49.97,90.65c1.12-.96,2.23-.16,2.23-.16,1.12,1.34-1.29,1.18-1.29,1.18.31.71-.95,1.56-.95,1.56-.81.18-.71-.36-.71-.36-.44-.92.72-2.22.72-2.22Z"/>
      <path class="cls-6" d="M50.83,90.68c.05.2.11.39.17.59.07.19.14.38.23.56.09.18.2.36.38.47-.21-.04-.4-.19-.56-.33-.16-.15-.31-.31-.45-.48-.14-.17-.27-.34-.4-.52-.13-.18-.24-.36-.36-.56l.86-.33c.03.19.08.39.13.59Z"/>
    </g>
    <g>
      <path class="cls-15" d="M50.7,87.12c1.12,1.34-1.01,1.82-1.01,1.82.31.71-.95,1.56-.95,1.56-.6-.17-.59-.66-.59-.66-.44-.92.72-2.22.72-2.22,1.14-.55,1.83-.49,1.83-.49Z"/>
      <path class="cls-6" d="M49.52,87.73c.05.2.11.39.17.59.07.19.14.38.23.56.09.18.2.36.38.47-.21-.05-.4-.19-.56-.33-.16-.15-.31-.31-.45-.48-.14-.17-.27-.34-.4-.52-.13-.18-.24-.36-.36-.56l.86-.33c.03.19.08.39.13.59Z"/>
    </g>
    <g>
      <g>
        <path class="cls-11" d="M51.64,85.97l.84-.4c2.45-.59,3.65.81,3.65.81l-2.12,1.87c-.2,2.92-1.65,2.57-1.65,2.57-.91-.12-1-1.48-1-1.48-1.28-3.27.27-3.37.27-3.37Z"/>
        <path class="cls-6" d="M51.5,85.52l.78-.37.09-.03c2.69-.65,4.06.89,4.11.96l-.7.6s-1.06-1.16-3.15-.68l-.88.42h-.09s-.12.03-.21.18c-.12.19-.34.83.34,2.57l.03.07v.07s.1.99.61,1.06h.03s.2.04.41-.13c.21-.17.59-.65.68-2.01l.92.06c-.09,1.34-.46,2.26-1.08,2.71-.28.2-.55.27-.76.29-.17.02-.29,0-.35-.01-.96-.14-1.31-1.18-1.38-1.83-.59-1.53-.67-2.66-.23-3.34.27-.42.64-.54.82-.58Z"/>
      </g>
      <path class="cls-15" d="M53.14,87.48c.56,2.84-1.11,2.24-1.11,2.24-.79-1.05-.76-2.9-.76-2.9,1.86-.49,1.87.66,1.87.66Z"/>
    </g>
    <g>
      <g>
        <g>
          <g>
            <path class="cls-9" d="M36.85,39.66c1.22.36,3.11,3.48,3.11,3.48,5.17,9.91,14.06,39.47,14.06,39.47l-3.5,1.09-.17.05-3.5,1.09s-9.41-29.41-10.76-40.5c0,0-.22-3.64.59-4.63l.17-.05Z"/>
            <path class="cls-19" d="M36.33,39.42c-.87,1.07-.73,4.31-.69,4.94v.03c1.34,11.01,10.69,40.29,10.78,40.58l.14.44,8.04-2.49-.13-.44c-.09-.3-8.97-29.72-14.09-39.55v-.03c-.34-.55-2.06-3.29-3.39-3.68l-.13-.04-.43.13-.09.11ZM36.92,40.19c.78.44,1.99,2.12,2.63,3.17,4.75,9.11,12.76,35.23,13.89,38.94l-6.29,1.95c-1.17-3.69-9.35-29.76-10.6-39.96-.07-1.23-.02-3.29.37-4.1Z"/>
          </g>
          <path class="cls-7" d="M36.85,40.24c7.15,12.44,13.86,44.26,13.86,44.26-4.74,2.58-3.65-2.87-3.65-2.87-10.47-32.22-10.21-41.39-10.21-41.39Z"/>
          <path class="cls-16" d="M37.01,40.24c-.03.85.65,4.51.65,4.51,1.62,9.71,9.46,33.01,11.5,38.98l-2.03.63s-9.19-28.74-10.52-39.58c0,0-.5-3.47.28-4.43,0,0,.07-.14.12-.12Z"/>
          <path class="cls-16" d="M50.75,81.7c-2.41-8.22-8.66-26.24-8.66-26.24,5.86,9.36,8.92,22.16,8.92,22.16.71,3.6-.26,4.09-.26,4.09Z"/>
          <g>
            <path class="cls-19" d="M51.04,84.53c-.04-.15-.09-.3-.13-.45l.47-.11-.34.56Z"/>
            <path class="cls-19" d="M49.36,84.44l.41-.1c.04.13.08.27.13.4l-.54-.3Z"/>
            <path class="cls-19" d="M41.21,56.18c.89,3.2,1.82,6.38,2.77,9.56.96,3.18,1.91,6.35,2.91,9.52.94,3.03,1.9,6.06,2.89,9.08l-.41.1.54.3c-.04-.13-.08-.27-.13-.4l1.14-.26c.04.15.09.3.13.45l.34-.56-.47.11c-.75-2.84-1.63-5.65-2.51-8.46-.47-1.48-.94-2.96-1.42-4.43l-1.44-4.43-5.86-17.7c1.15,2.89,2.23,5.8,3.33,8.71,1.08,2.91,2.15,5.84,3.18,8.77,1.04,2.93,2.05,5.87,3.02,8.83.98,2.95,1.91,5.92,2.72,8.95l.12.45-.46.11-2.02.47-.41.1-.13-.4c-1.03-3.16-2.02-6.33-2.98-9.51-.95-3.18-1.89-6.37-2.77-9.58-.88-3.2-1.72-6.42-2.51-9.64-.38-1.62-.76-3.23-1.11-4.86-.17-.81-.36-1.62-.52-2.44l-.48-2.44c.41,1.61.81,3.22,1.24,4.82.41,1.61.87,3.2,1.31,4.8Z"/>
          </g>
        </g>
        <g>
          <path class="cls-9" d="M50.37,83.43c4.42-1.37,8.16-1.99,8.34-1.39.19.61-3.24,2.21-7.66,3.58-4.42,1.37-8.16,1.99-8.34,1.39-.19-.61,3.24-2.21,7.66-3.58Z"/>
          <path class="cls-19" d="M42.27,87.14c.1.33.4.56,1.26.56.44,0,1.04-.06,1.84-.19,1.6-.27,3.66-.78,5.82-1.45s4.15-1.42,5.62-2.1c2.17-1.01,2.5-1.55,2.35-2.06-.16-.5-.74-.76-3.1-.37-1.6.27-3.66.78-5.82,1.45-2.16.67-4.15,1.42-5.62,2.1-2.17,1.01-2.5,1.55-2.35,2.06ZM43.42,86.79c.82-.6,3.34-1.76,7.09-2.92,3.75-1.16,6.48-1.65,7.5-1.61-.82.6-3.34,1.76-7.09,2.92-3.75,1.16-6.48,1.64-7.5,1.61Z"/>
        </g>
      </g>
      <path class="cls-7" d="M47.68,84.7c1.85-.61,3.4-.93,3.55-.46.14.47-1.33,1.05-3.19,1.63-2.46.76-4.21.67-4.21.67,0,0,.47-.72,3.85-1.83Z"/>
    </g>
  </g>
</svg>