<?xml version="1.0" encoding="UTF-8"?>
<svg id="Layer_1" data-name="Layer 1" xmlns="http://www.w3.org/2000/svg" version="1.1" viewBox="0 0 200 200">
  <defs>
    <style>
      .cls-1 {
        fill: #f3e0d8;
      }

      .cls-1, .cls-2, .cls-3, .cls-4, .cls-5, .cls-6, .cls-7, .cls-8, .cls-9, .cls-10, .cls-11, .cls-12, .cls-13, .cls-14, .cls-15, .cls-16, .cls-17, .cls-18, .cls-19, .cls-20 {
        stroke-width: 0px;
      }

      .cls-2 {
        fill: #fccaa7;
      }

      .cls-3 {
        fill: #f9edee;
      }

      .cls-4 {
        fill: #f4956e;
      }

      .cls-5 {
        fill: #fbe6a9;
      }

      .cls-6 {
        fill: #282728;
      }

      .cls-7 {
        fill: #ccc7ca;
      }

      .cls-8 {
        fill: #887f7c;
      }

      .cls-21 {
        opacity: .78;
      }

      .cls-9 {
        fill: #9584ab;
      }

      .cls-10 {
        fill: #bed5ef;
      }

      .cls-11 {
        fill: #442d3e;
      }

      .cls-12 {
        fill: #eaa498;
      }

      .cls-13 {
        fill: #683a57;
      }

      .cls-14 {
        fill: #4e3b6e;
      }

      .cls-15 {
        fill: #785b72;
      }

      .cls-16 {
        fill: #fff;
      }

      .cls-17 {
        fill: #8c2e26;
      }

      .cls-18 {
        fill: #cd1e54;
      }

      .cls-19 {
        fill: #695a64;
      }

      .cls-20 {
        fill: #f1749b;
      }
    </style>
  </defs>
  <g>
    <g>
      <path class="cls-9" d="M87.51,105.35c1.47-3.09,8.02-3,8,2.42,0,.75-.34,6.99-3.83,11,0,0-4.35,4.52-11.21,7.06,0,0-.37-6.05-4.57-8.32,0,0,4.59-2.34,8.3-4.42,1.32-.74,2.04-5.07,3.31-7.73Z"/>
      <path class="cls-19" d="M75.62,116.94l-1.06.54,1.05.57c3.85,2.08,4.24,7.75,4.24,7.81l.05.84.79-.29c6.91-2.56,11.26-7.02,11.44-7.21l.02-.02c3.85-4.42,3.98-11.34,3.98-11.41.01-2.58-1.37-4.43-3.68-4.96-2.28-.52-4.65.46-5.51,2.27-.5,1.05-.91,2.33-1.31,3.57-.51,1.58-1.14,3.55-1.74,3.89-3.66,2.05-8.23,4.39-8.28,4.41ZM77.15,117.56c1.55-.8,4.69-2.45,7.36-3.94,1.03-.58,1.63-2.44,2.32-4.6.38-1.2.78-2.43,1.25-3.41.61-1.28,2.41-1.98,4.1-1.59.82.19,2.72.93,2.71,3.74,0,.06-.12,6.5-3.66,10.58-.23.23-4.16,4.17-10.22,6.61-.24-1.64-1.08-5.29-3.85-7.39Z"/>
    </g>
    <path class="cls-7" d="M85.2,113.12s1.53-3.28,2.38-6.09c0,0,.35-1.57,1.23-1.9,0,0,2.52-2.01,3.53,3.84,0,0-.64,4.49-3.1,7.42,0,0-1.5,1.37-2.49,1.91,0,0-1.18-2.44-4.27-3.51,0,0,2.31-1.1,2.72-1.68Z"/>
    <g>
      <g>
        <path class="cls-11" d="M86.41,124.88c-2.41,1.22-6.87,1.37-6.87,1.37-.18-6.5-4.98-8.51-4.98-8.51l6.14-4.42c6.72,4.19,5.71,11.56,5.71,11.56Z"/>
        <path class="cls-6" d="M80.67,112.57l-7.38,5.32,1.03.43c.18.08,4.43,1.95,4.6,7.95l.02.63.63-.02c.19,0,4.63-.17,7.13-1.44l.29-.15.04-.32c.01-.08.98-7.82-6-12.18l-.36-.22ZM75.72,117.67l4.99-3.6c5.17,3.46,5.19,8.99,5.1,10.39-1.77.77-4.48,1.04-5.69,1.12-.35-4.66-2.97-6.98-4.41-7.91Z"/>
      </g>
      <path class="cls-15" d="M80.23,124.73s-.28-3.78-4.52-6.73l4.94-3.83s7.09,6.45-.41,10.57Z"/>
      <g>
        <path class="cls-6" d="M80.05,119.69c.09-.31.19-.62.36-.92.09.33.12.66.13.98,0,.32,0,.64-.05.96-.04.32-.1.63-.18.94-.09.31-.19.62-.36.92-.09-.33-.12-.66-.13-.98,0-.32.01-.64.05-.96.04-.32.1-.63.18-.94Z"/>
        <path class="cls-6" d="M80.5,120.56c.27.17.53.36.78.57.24.21.48.44.68.72-.34-.06-.65-.18-.94-.3-.3-.13-.58-.28-.85-.45-.27-.17-.53-.36-.78-.57-.24-.21-.48-.44-.68-.72.34.06.65.17.94.3.3.13.58.28.85.45Z"/>
      </g>
      <g>
        <path class="cls-6" d="M82.38,118.67c.09-.31.19-.62.36-.92.09.33.12.66.13.98,0,.32-.01.64-.05.96-.04.32-.1.63-.18.94-.09.31-.19.62-.36.92-.09-.33-.12-.66-.13-.98,0-.32.01-.64.05-.96.04-.32.1-.63.18-.94Z"/>
        <path class="cls-6" d="M82.83,119.54c.27.17.53.36.78.57.24.21.48.44.68.72-.34-.06-.65-.18-.94-.3-.3-.13-.58-.28-.85-.45-.27-.17-.53-.36-.78-.57-.24-.21-.48-.44-.68-.72.34.06.65.17.94.3.3.13.58.28.85.45Z"/>
      </g>
    </g>
  </g>
  <g>
    <g>
      <g>
        <path class="cls-11" d="M73.34,118.35l2.41-.66,1.87.44c2.75,1.18,2.55,7.56,2.55,7.56-1.3,2.76-4.67,2.44-4.67,2.44-.92,2.2-2.98.9-2.98.9-.48,2.56-3.63.89-3.63.89l-1.71-1.22c-1.21-2.32-.53-3.93-.53-3.93l-.62-3.68c2.1-4.46,7.31-2.73,7.31-2.73Z"/>
        <path class="cls-6" d="M65.39,121l.62,3.72c-.16.54-.48,2.15.62,4.27l.07.13,1.9,1.36c.15.08,1.19.61,2.26.61.37,0,.74-.06,1.08-.23.32-.15.69-.44.95-.97.44.14,1.03.24,1.63.05.57-.18,1.02-.57,1.36-1.17,1.05,0,3.66-.29,4.85-2.81l.05-.12v-.13c.03-.7.14-6.84-2.92-8.15l-.1-.03-2.03-.48-2.39.66c-2.05-.61-6.09-.69-7.88,3.12l-.08.18ZM66.68,121.18c1.89-3.68,6.27-2.3,6.46-2.24l.18.06,2.44-.67,1.66.39c1.85.86,2.16,5.07,2.13,6.81-1.14,2.22-3.96,1.97-3.99,1.97l-.46-.04-.18.43c-.19.46-.45.75-.77.85-.49.16-1.11-.12-1.31-.24l-.77-.48-.17.89c-.12.63-.41.77-.5.81-.64.31-1.78-.14-2.18-.34l-1.55-1.11c-.96-1.94-.45-3.25-.45-3.27l.07-.17-.61-3.66Z"/>
      </g>
      <path class="cls-6" d="M65.39,121l.62,3.72c-.16.54-.48,2.15.62,4.27l.07.13,1.9,1.36c.2.11,2,1.03,3.34.38.32-.15.7-.44.95-.97.44.14,1.03.24,1.63.05.57-.18,1.02-.57,1.36-1.17,1.05,0,3.66-.29,4.85-2.81l.06-.12v-.13c.03-.7.14-6.84-2.92-8.15l-.1-.03-2.02-.48-2.39.66c-2.05-.61-6.09-.69-7.88,3.12l-.08.18ZM66.68,121.18c1.9-3.7,6.27-2.3,6.46-2.24l.18.06,2.44-.67,1.66.39c1.84.86,2.16,5.07,2.13,6.81-1.14,2.22-3.96,1.97-3.99,1.97l-.46-.05-.18.43c-.2.47-.45.75-.77.85-.59.19-1.29-.23-1.3-.24l-.78-.49-.17.91c-.12.63-.41.77-.5.81-.64.31-1.78-.14-2.18-.34l-1.55-1.11c-.95-1.93-.46-3.22-.44-3.27l.06-.16-.03-.18-.58-3.48Z"/>
    </g>
    <g>
      <rect class="cls-9" x="63.11" y="122.34" width="21.52" height="5.94" transform="translate(-18.21 12.7) rotate(-8.75)"/>
      <path class="cls-19" d="M84.57,120.03l-22.5,3.47,1.1,7.11,22.5-3.46-1.09-7.11ZM84.24,126.09l-20.03,3.08-.71-4.64,20.03-3.08.71,4.64Z"/>
    </g>
    <g>
      <g>
        <path class="cls-9" d="M87.66,122.52c1.07,6.77-3.52,7.09-3.52,7.09-3.23-5.57-1.91-12.41-1.91-12.41,4.59-.13,5.43,5.33,5.43,5.33Z"/>
        <path class="cls-19" d="M81.62,117.08c-.06.29-1.32,7.14,1.98,12.85l.2.34.39-.03c.07,0,1.8-.14,3.04-1.7,1.12-1.4,1.47-3.46,1.06-6.1-.32-2.07-2-5.97-6.07-5.86h-.5s-.1.51-.1.51ZM82.76,117.83c3.55.29,4.25,4.59,4.28,4.79.36,2.29.09,4.01-.8,5.13-.59.74-1.34,1.04-1.78,1.16-2.34-4.36-1.91-9.46-1.7-11.08Z"/>
      </g>
      <path class="cls-7" d="M85.29,125.64c1.74-.25,1.91-3.19,1.91-3.19,1.26,5.1-2.87,5.76-2.87,5.76-1.38-1.95-1.61-3.42-1.61-3.42-.24-1.97.02-3.58.02-3.58.6,3.47,2.55,4.42,2.55,4.42Z"/>
      <path class="cls-16" d="M84.88,127.76c2.51-.97,2.63-4.32,2.63-4.32.72,4.68-3.06,5.75-3.06,5.75-1.17-1.52-1.48-3.49-1.48-3.49.82,2.15,1.91,2.06,1.91,2.06Z"/>
    </g>
    <g>
      <path class="cls-13" d="M73.4,121.38c-.15-.12-.29-.25-.43-.4l.54-.13c-.02.17-.05.35-.11.53Z"/>
      <path class="cls-6" d="M70.96,121.84c.12.02.25.03.37.02.25,0,.48-.03.7-.1.22-.07.4-.2.55-.37.16-.16.25-.4.33-.64l.22-.64.31.51c.12.2.29.41.46.59.18.18.37.35.59.49.22.13.46.23.71.29.26.06.52.04.79,0-.25.09-.52.16-.81.15-.28,0-.56-.07-.83-.17-.26-.11-.51-.25-.75-.41-.08-.06-.15-.11-.22-.17.05-.18.08-.36.11-.53l-.54.13c.14.16.28.28.43.4-.04.15-.1.3-.2.45-.18.31-.45.58-.77.76-.31.18-.65.29-.99.36-.17.04-.34.05-.51.07-.18,0-.32.02-.54,0l.21-1.23c.08.03.22.05.34.06Z"/>
    </g>
    <g>
      <path class="cls-11" d="M71.09,125.82c-1.15,2.67,1.64,4.08,1.64,4.08-1.37,2.58-4.43.62-4.43.62l-.82-.66c-1.79-1.8-.34-5.17-.34-5.17.39,3.28,3.94,1.13,3.94,1.13Z"/>
      <path class="cls-6" d="M66.57,124.44c-.07.15-1.59,3.78.47,5.86l.05.04.87.7c.07.05,1.8,1.14,3.44.72.81-.21,1.44-.74,1.88-1.57l.3-.56-.57-.29c-.23-.12-2.23-1.23-1.35-3.28l.78-1.8-1.67,1.01c-.4.24-1.69.84-2.4.5-.33-.16-.53-.55-.6-1.17l-.28-2.3-.92,2.13ZM67.29,126.53c.16.15.34.28.54.38.76.37,1.66.23,2.37,0-.08,1.46.82,2.55,1.66,3.18-.21.23-.46.39-.76.46-1.02.27-2.24-.43-2.43-.54l-.76-.61c-.74-.76-.77-1.92-.62-2.86Z"/>
    </g>
    <g>
      <g>
        <path class="cls-11" d="M74.12,123.21c1.66-.1,1.45,2.78,1.45,2.78-.32,3.06,1.3,2.82,1.3,2.82-1.6,2.84-3.92,1.19-3.92,1.19-3.02-2.01-2.01-3.88-2.01-3.88.44-1.94,3.18-2.91,3.18-2.91Z"/>
        <path class="cls-6" d="M70.35,125.91c-.2.46-.85,2.53,2.26,4.6.03.02.83.58,1.89.58.2,0,.41-.02.62-.07.92-.21,1.69-.85,2.3-1.91l.63-1.12-1.27.19s-.15,0-.3-.14c-.14-.14-.43-.61-.29-1.99.02-.23.12-2.07-.77-2.97-.35-.36-.81-.53-1.34-.5h-.09s-.08.03-.08.03c-.12.04-3.01,1.09-3.57,3.29ZM71.5,126.4l.03-.06.02-.08c.29-1.26,1.96-2.14,2.69-2.43.15,0,.23.07.29.13.39.39.45,1.51.41,1.99-.15,1.42.08,2.44.69,3.02.08.07.16.14.24.19-.31.35-.65.57-1.01.65-.8.18-1.54-.32-1.54-.32-2.47-1.65-1.84-3.02-1.81-3.08Z"/>
      </g>
      <path class="cls-6" d="M70.35,125.91c-.2.46-.85,2.53,2.25,4.6.13.09,1.22.81,2.52.52.92-.21,1.69-.85,2.3-1.92l.63-1.12-1.27.19s-.16,0-.3-.14c-.14-.14-.44-.62-.29-1.99.02-.22.13-2.07-.77-2.97-.35-.36-.82-.53-1.34-.5h-.09s-.08.03-.08.03c-.12.04-3.01,1.09-3.57,3.29ZM71.5,126.41l.03-.06.02-.08c.29-1.26,1.96-2.14,2.69-2.43.15,0,.23.07.29.13.39.39.46,1.51.41,1.99-.01.13-.03.27-.03.39-.07,1.22.17,2.1.72,2.63.08.08.16.14.24.19-.31.35-.65.57-1.02.65-.8.18-1.52-.32-1.53-.32h-.02c-2.46-1.65-1.83-3.02-1.8-3.08Z"/>
      <polygon class="cls-13" points="76.78 128.19 76.78 128.19 76.78 128.19 76.78 128.19"/>
    </g>
    <g>
      <g>
        <path class="cls-11" d="M78.72,122.62c1.91.6,1.77,4.83,1.77,4.83-1.31,1.85-3.3,1.67-3.3,1.67-1.4-.42-1.86-2.22-1.86-2.22.22-5.03,3.39-4.27,3.39-4.27Z"/>
        <path class="cls-6" d="M74.7,126.86v.09s.02.09.02.09c.02.09.57,2.15,2.29,2.67l.12.02s.09,0,.21,0c.61,0,2.41-.16,3.66-1.94l.11-.15v-.19c.02-.48.09-4.72-2.2-5.44h-.04c-.05-.03-1.31-.31-2.45.55-1.04.79-1.62,2.23-1.71,4.29ZM75.96,126.82c.09-1.59.5-2.71,1.21-3.24.61-.46,1.27-.37,1.39-.35,1.02.36,1.32,2.73,1.31,4.01-.96,1.23-2.28,1.26-2.57,1.26-.85-.3-1.25-1.37-1.35-1.68Z"/>
      </g>
      <path class="cls-6" d="M74.7,126.86v.09s.02.09.02.09c.02.09.57,2.15,2.29,2.66l.12.02c.1,0,2.37.19,3.87-1.93l.11-.15v-.19c.02-.48.09-4.72-2.2-5.44h-.04c-.05-.02-1.31-.31-2.45.55-1.04.79-1.62,2.23-1.71,4.29ZM75.96,126.82s0-.03,0-.04c.09-1.56.5-2.66,1.19-3.2.61-.47,1.27-.38,1.4-.36,1.02.36,1.32,2.73,1.31,4.01-.96,1.23-2.28,1.27-2.57,1.26-.85-.3-1.25-1.37-1.35-1.68Z"/>
    </g>
    <g>
      <path class="cls-15" d="M77.86,126.55c1.04-.12,1.53.92,1.53.92-.08,1.12-1.9,1.56-1.9,1.56-1.37.21-1.63-1.61-1.63-1.61-.27-1.69.66-2.96.66-2.96,2.18-.93,1.35,2.1,1.35,2.1Z"/>
      <path class="cls-6" d="M77.07,126.31c.28,0,.55-.03.82-.08.27-.05.54-.12.76-.3-.14.26-.4.44-.65.6-.26.15-.53.28-.8.4-.27.11-.55.22-.83.31-.28.09-.56.18-.86.25l-.09-1.25c.26.03.54.05.82.06.28.01.55.02.83,0Z"/>
    </g>
    <g>
      <path class="cls-15" d="M73.54,127.34c1.01-.27,1.9,1.59,1.9,1.59.09,1.12-.62.88-.62.88-1.32.4-2.84-1.41-2.84-1.41-1.06-1.7.23-3.03.23-3.03,2.02-1.24,1.33,1.97,1.33,1.97Z"/>
      <path class="cls-6" d="M73.02,127.13c.27-.05.54-.11.8-.2.26-.09.52-.19.71-.41-.1.27-.33.5-.56.68-.23.19-.48.35-.73.51-.25.15-.52.29-.78.43-.27.13-.53.26-.82.38l-.26-1.22c.26,0,.54-.03.82-.05.28-.03.55-.06.82-.11Z"/>
    </g>
    <g>
      <path class="cls-15" d="M69.63,128.42c1.01-.27,1.9,1.59,1.9,1.59-.35.77-1.01.66-1.01.66-1.33.4-2.84-1.41-2.84-1.41-.51-1.64-.29-2.56-.29-2.56,2.02-1.24,2.23,1.72,2.23,1.72Z"/>
      <path class="cls-6" d="M68.8,128.3c.27-.05.54-.11.8-.2.26-.09.52-.2.71-.41-.1.27-.33.5-.56.68-.23.19-.48.35-.73.51-.25.15-.51.29-.78.43-.27.13-.53.26-.82.38l-.27-1.22c.26,0,.54-.02.82-.05.28-.03.55-.06.82-.11Z"/>
    </g>
    <g>
      <g>
        <path class="cls-11" d="M67.49,119.26l2.08,3.22c3.88.86,3.11,2.73,3.11,2.73-.35,1.19-2.19,1.05-2.19,1.05-4.64,1.06-4.46-1.04-4.46-1.04l-.36-1.21c-.3-3.41,1.82-4.74,1.82-4.74Z"/>
        <path class="cls-6" d="M67.16,118.73l.67,1.06c-.07.05-1.77,1.19-1.54,4.1l.38,1.26v.12s0,.17.17.32c.24.21,1.05.62,3.51.06l.09-.02h.1s1.35.07,1.54-.59v-.04s.1-.26-.08-.58c-.18-.32-.76-.92-2.57-1.32l.27-1.22c1.78.39,2.93,1.06,3.42,1.99.22.41.26.79.24,1.08-.01.23-.06.39-.09.47-.38,1.26-1.85,1.52-2.73,1.48-2.18.48-3.7.36-4.52-.35-.5-.44-.6-.96-.61-1.22l-.34-1.13-.02-.13c-.34-3.74,2.01-5.26,2.11-5.33Z"/>
      </g>
      <path class="cls-15" d="M68.37,123.5c3.93-.18,2.78,1.94,2.78,1.94-1.57.85-4.04.44-4.04.44-.28-2.6,1.26-2.38,1.26-2.38Z"/>
    </g>
    <g>
      <g>
        <g>
          <g>
            <path class="cls-9" d="M6.24,132.31c14.33-4.95,55.77-10.96,55.77-10.96l.76,4.91.04.23.76,4.91s-41.33,6.73-56.48,6.32c0,0-4.92-.44-6.09-1.72l-.04-.23c.72-1.57,5.29-3.47,5.29-3.47Z"/>
            <path class="cls-19" d="M.38,135.52l-.08.17.09.61.13.14c1.26,1.39,5.63,1.84,6.49,1.92h.04c.44.01.91.02,1.39.02,16.03,0,54.81-6.28,55.21-6.35l.61-.1-1.74-11.28-.61.09c-.41.06-41.67,6.08-55.89,10.99h-.04c-.8.35-4.83,2.1-5.62,3.8ZM1.68,135.79c.75-.96,3.24-2.25,4.78-2.89,13.18-4.54,49.83-10.06,55.02-10.83l1.36,8.83c-5.19.83-41.8,6.59-55.74,6.22-1.66-.15-4.42-.63-5.43-1.32Z"/>
          </g>
          <path class="cls-7" d="M59.3,130.5c-45.33,7.6-57.58,5.4-57.58,5.4,18.11-7.1,62.16-9.73,62.16-9.73,2.51,6.87-4.58,4.32-4.58,4.32Z"/>
          <path class="cls-16" d="M7.95,135.71c13.35-.23,46.18-6.08,54.6-7.61l.44,2.85s-40.4,6.58-55.2,6.18c0,0-4.75-.02-5.89-1.27,0,0-.18-.12-.13-.18,1.14.21,6.19.03,6.19.03Z"/>
          <path class="cls-16" d="M60.14,125.55c-11.51,1.58-36.94,6.36-36.94,6.36,13.74-5.99,31.51-7.52,31.51-7.52,4.97-.23,5.43,1.17,5.43,1.17Z"/>
          <g>
            <path class="cls-19" d="M63.52,127.97l-.04-.57c.19-.03.38-.06.56-.09l-.52.67Z"/>
            <path class="cls-19" d="M23.99,133.24c4.47-.56,8.92-1.17,13.38-1.8,4.45-.65,8.91-1.29,13.35-2,4.26-.66,8.52-1.34,12.76-2.06l.04.57.52-.67c-.19.03-.38.06-.56.09l-.12-1.58c.21-.02.42-.06.63-.08l-.68-.57.05.65c-3.95.44-7.91,1.06-11.86,1.68-2.08.33-4.16.67-6.24,1.02l-6.23,1.05-24.92,4.31c4.11-.96,8.23-1.83,12.36-2.72,4.13-.87,8.26-1.71,12.4-2.51,4.14-.81,8.29-1.57,12.45-2.28,4.16-.72,8.33-1.37,12.55-1.85l.63-.07.05.64.23,2.8.05.57-.56.09c-4.45.75-8.9,1.44-13.36,2.09-4.46.63-8.92,1.26-13.4,1.79-4.47.54-8.96,1.03-13.44,1.44-2.25.18-4.49.38-6.74.52-1.12.07-2.25.17-3.37.21l-3.38.15c2.24-.23,4.48-.44,6.72-.69,2.24-.23,4.47-.53,6.7-.8Z"/>
            <path class="cls-19" d="M63.99,125.73c-.21.02-.42.06-.63.08l-.05-.65.68.57Z"/>
          </g>
        </g>
        <g>
          <path class="cls-9" d="M65.45,125.93c.96,6.21,1.04,11.34.19,11.47-.85.13-2.31-4.79-3.27-11-.96-6.21-1.04-11.34-.19-11.47.85-.13,2.31,4.79,3.27,11Z"/>
          <path class="cls-19" d="M60.97,118.4c.04,2.19.31,5.07.78,8.1.47,3.03,1.07,5.86,1.69,7.96.86,2.88,1.49,3.58,2.13,3.58.05,0,.1,0,.15-.01.71-.11,1.17-.85,1.11-4.09-.04-2.2-.31-5.07-.78-8.1-.47-3.03-1.07-5.85-1.69-7.96-.92-3.11-1.58-3.67-2.29-3.56-.71.11-1.17.84-1.11,4.09ZM62.33,115.93c.64,1.23,1.69,4.83,2.5,10.09.81,5.27.9,9.02.65,10.38-.64-1.23-1.69-4.83-2.5-10.1-.81-5.27-.9-9.02-.65-10.38Z"/>
        </g>
      </g>
      <path class="cls-7" d="M63.63,125.42c.66-.1,1.14,1.99,1.55,4.6.53,3.46.05,5.78.05,5.78,0,0-.87-.77-1.69-5.53-.45-2.6-.57-4.75.09-4.85Z"/>
    </g>
  </g>
  <g>
    <g>
      <path class="cls-19" d="M106.27,121.21c2.48-3.09,5.73-4.47,8.47-2.87,2.73,1.6,3.66,5.15,2.06,7.88l-1.43,2.44c-1.6,2.73-5.15,3.66-7.88,2.06l-.51.37c-2.73-1.6-3.25-6.21-1.65-8.95l.95-.93Z"/>
      <path class="cls-14" d="M104.78,121.82c-1.72,2.93-1.27,7.96,1.88,9.8l.35.21.53-.38c.89.45,1.86.68,2.84.68.54,0,1.09-.07,1.63-.21,1.65-.43,3.04-1.48,3.9-2.94l1.43-2.44c1.78-3.04.76-6.95-2.28-8.74-2.86-1.68-6.4-.53-9.25,2.98l-.99.96-.04.07ZM105.82,122.53l.94-.93c1.73-2.15,3.71-3.3,5.54-3.3.74,0,1.46.19,2.12.58,2.44,1.43,3.26,4.58,1.83,7.02l-1.43,2.44c-.69,1.18-1.8,2.02-3.13,2.36-1.33.35-2.71.16-3.89-.53l-.35-.21-.49.35c-2.11-1.59-2.42-5.52-1.14-7.8Z"/>
    </g>
    <path class="cls-14" d="M104.58,122.22c-1.72,2.94-1.07,7.57,2.07,9.41l.35.21.53-.38c1.38.7,2.96.86,4.48.46,1.36-.35,2.53-1.12,3.39-2.2.19-.23.36-.49.51-.75l1.43-2.44c.86-1.47,1.1-3.19.66-4.84-.43-1.66-1.48-3.04-2.95-3.9-2.87-1.68-6.41-.54-9.25,2.98l-1.18,1.36-.04.07ZM105.82,122.53l.94-.93c2.43-3.02,5.36-4.06,7.65-2.72,1.17.69,2.01,1.8,2.36,3.13.35,1.33.16,2.71-.53,3.88l-1.43,2.44c-1.43,2.44-4.58,3.26-7.01,1.83l-.36-.21-.49.35c-.92-.7-1.58-1.91-1.81-3.38-.25-1.57,0-3.21.68-4.4Z"/>
    <g>
      <path class="cls-11" d="M115.47,124.55l3.42,8.51s1.17,3.03,2.68,5.68c0,0,1.52,2.1-.17,3.17,0,0-8.26,3.1-8.76,3.28,0,0-1.69.62-2.36.37,0,0-1.74-1.32,1.5-5.38l.8-1.31-6.61-10.09,9.51-4.24Z"/>
      <path class="cls-6" d="M105.04,128.52l6.8,10.37-.57.94c-1.53,1.92-2.22,3.56-2.05,4.86.11.9.59,1.31.69,1.38l.08.06.09.03c.18.06.39.09.62.09.82,0,1.82-.34,2.17-.47.5-.17,8.43-3.15,8.77-3.28l.12-.06c.57-.36.93-.87,1.05-1.48.23-1.18-.52-2.33-.68-2.56-1.47-2.58-2.62-5.54-2.63-5.57h0s-3.66-9.12-3.66-9.12l-10.77,4.81ZM113.32,138.86l-6.43-9.8,8.24-3.68,3.18,7.91c.07.17,1.22,3.13,2.72,5.77l.04.06c.17.25.61,1.02.49,1.62-.05.25-.19.45-.44.62-2.87,1.08-8.29,3.11-8.68,3.25-.69.25-1.49.41-1.83.4-.18-.29-.66-1.51,1.66-4.42l.04-.06,1.01-1.65Z"/>
    </g>
    <path class="cls-15" d="M113.28,139.82s3.54-2,5.96.82c0,0,1.17,1.31-7.32,3.78,0,0-1.87.48-1.61-.42,0,0,1.23-3.65,2.96-4.18Z"/>
    <g>
      <path class="cls-11" d="M110.6,143.16h11.92c.52,0,.94.42.94.94v.39c0,.52-.42.94-.94.94h-11.92c-.52,0-.94-.42-.94-.94v-.39c0-.52.42-.94.94-.94Z" transform="translate(-40.43 45.5) rotate(-18.89)"/>
      <path class="cls-6" d="M109.38,146.55l.13.37c.22.65.83,1.06,1.48,1.06.17,0,.34-.03.51-.08l11.28-3.86c.39-.14.71-.42.9-.79s.21-.8.08-1.2l-.13-.37c-.13-.39-.42-.71-.79-.9-.38-.18-.8-.21-1.2-.08l-11.28,3.86c-.82.28-1.25,1.17-.98,1.99ZM110.56,146.14c-.06-.16.04-.35.2-.4l11.28-3.86s.07-.02.1-.02c.06,0,.11.02.14.03.04.02.12.07.16.18l.13.37c.04.11,0,.2-.02.24-.02.04-.07.12-.18.16l-11.28,3.86c-.16.06-.35-.03-.4-.2l-.13-.37Z"/>
    </g>
    <g>
      <path class="cls-19" d="M113.52,122.28c3.65-.9,6.6,11.19,6.6,11.19-2.01,2.96-6.89,4.16-6.89,4.16-1.4.7-2.81.13-2.81.13-6.48-8.01-5.66-10.34-5.66-10.34,1.83-4.64,8.75-5.14,8.75-5.14Z"/>
      <path class="cls-14" d="M104.19,127.19c-.17.47-.63,3.09,5.75,10.97l.1.12.15.06s.67.27,1.53.27c.52,0,1.13-.09,1.74-.39.64-.17,5.17-1.44,7.19-4.4l.16-.23-.07-.27c-.23-.96-2.38-9.43-5.49-11.31-.6-.36-1.21-.48-1.82-.34-.71.06-7.35.75-9.23,5.53ZM105.37,127.61c1.67-4.17,8.13-4.69,8.2-4.7l.1-.02c.29-.07.59-.01.92.19,2.18,1.32,4.17,7.61,4.86,10.26-1.95,2.57-6.32,3.68-6.36,3.69l-.07.02-.06.03c-.89.45-1.82.25-2.15.15-5.62-6.98-5.46-9.42-5.43-9.62ZM105.36,127.63s0,0,0,0c0,0,0,0,0,0Z"/>
    </g>
    <g>
      <g>
        <path class="cls-9" d="M113.66,138.59c1.43.91.76,1.74.76,1.74-1.22,1.69-1.6,2.06-1.6,2.06-.8,1.22-2.66-.88-2.66-.88.54-1.28,2.18-3.42,2.18-3.42.33-.48,1.33.5,1.33.5Z"/>
        <path class="cls-19" d="M109.87,141.39l-.08.18.13.15c.13.14,1.24,1.36,2.23,1.36.03,0,.06,0,.08,0,.34-.02.62-.19.83-.49.11-.11.55-.6,1.62-2.07.02-.02.28-.37.2-.88-.08-.47-.42-.91-1.02-1.29-.21-.2-.83-.74-1.33-.7-.18.02-.34.11-.44.26-.12.15-1.67,2.2-2.21,3.48ZM110.53,141.45c.59-1.25,2.04-3.15,2.06-3.17v-.02s.02,0,.03,0c.13,0,.53.26.83.55l.05.04c.45.29.72.59.76.89.04.23-.08.39-.08.4-1.18,1.64-1.57,2.02-1.58,2.03l-.05.05c-.13.2-.27.23-.37.24-.53.04-1.29-.63-1.66-1.01Z"/>
      </g>
      <g>
        <path class="cls-11" d="M112.59,139.36c.59.38.32.72.32.72-.51.7-.67.85-.67.85-.33.51-1.11-.36-1.11-.36.22-.53.9-1.42.9-1.42.14-.2.55.21.55.21Z"/>
        <path class="cls-6" d="M110.85,140.45l-.08.18.13.15c.1.11.58.63,1.06.63.02,0,.03,0,.05,0,.19-.01.35-.11.47-.27.07-.07.26-.29.68-.87.02-.02.16-.22.11-.5-.04-.24-.2-.46-.49-.65-.13-.12-.41-.36-.69-.33-.13.01-.24.08-.31.18-.06.08-.71.94-.94,1.48ZM111.51,140.51c.19-.35.51-.81.69-1.06.05.03.12.09.17.13l.05.04c.16.1.23.19.24.24h0s0,.03,0,.03c-.47.65-.62.81-.63.81l-.04.05c-.08.03-.29-.1-.47-.26Z"/>
      </g>
    </g>
    <path class="cls-19" d="M109.15,120.78c2.86-1.46,6.01-1.07,7,.87l.91,3.27c2.03,6.52-1.56,7.58-3.16,6.51l.05-1.11c-2.86,1.46-5.96,2.45-6.95.52l-1.63-2.08c-.99-1.94.91-6.51,3.78-7.97Z"/>
    <path class="cls-8" d="M106.48,122.26c.71-1.54,2.92-2.59,4.47-1.88,1.54.71,2.23,2.55,1.52,4.1l-1.6,3.49c-.71,1.54-1.26,3.1-2.8,2.39l-.88.31c-1.54-.71-3.28-4.48-1.16-7.95l.46-.46Z"/>
    <path class="cls-8" d="M112.78,125.91c2.59-.64,4.68,7.93,4.68,7.93-1.43,2.1-4.88,2.95-4.88,2.95-.99.5-1.99.09-1.99.09-4.6-5.68-4.01-7.34-4.01-7.34,1.29-3.29,6.2-3.64,6.2-3.64Z"/>
  </g>
  <g>
    <g>
      <path class="cls-19" d="M90.25,118.16c3.08-2.49,6.55-3.14,8.88-1,2.33,2.15,2.48,5.81.33,8.14l-1.92,2.08c-2.15,2.33-5.81,2.48-8.14.33l-.58.25c-2.33-2.15-1.86-6.76.29-9.09l1.13-.71Z"/>
      <path class="cls-14" d="M88.66,118.44c-1.14,1.24-1.88,3.11-1.99,5-.11,2.04.52,3.85,1.73,4.97l.3.28.59-.26c1.13.92,2.53,1.41,4.01,1.41.09,0,.18,0,.27,0,1.71-.07,3.28-.8,4.43-2.05l1.92-2.08c2.39-2.59,2.22-6.63-.37-9.02-2.44-2.25-6.14-1.88-9.67.95l-1.17.73-.06.06ZM87.92,123.52c.09-1.59.69-3.14,1.6-4.16l1.12-.7c1.76-1.42,3.55-2.15,5.12-2.15,1.12,0,2.13.37,2.95,1.12,2.08,1.92,2.21,5.17.29,7.25l-1.92,2.08c-.92,1-2.19,1.59-3.57,1.64-1.38.06-2.68-.42-3.69-1.35l-.3-.28-.56.24c-.76-.88-1.14-2.2-1.06-3.7Z"/>
    </g>
    <path class="cls-14" d="M88.39,118.79c-2.31,2.5-2.66,7.17.02,9.64l.3.28.59-.26c1.2.97,2.71,1.47,4.28,1.41,1.4-.06,2.71-.56,3.78-1.42.23-.19.46-.4.66-.62l1.92-2.08c1.15-1.25,1.75-2.88,1.68-4.59-.07-1.71-.8-3.29-2.05-4.44-2.44-2.25-6.15-1.89-9.68.95l-1.44,1.08-.06.06ZM87.93,123.52c.09-1.58.68-3.13,1.6-4.16l1.12-.7c3.01-2.43,6.1-2.83,8.06-1.02,1,.92,1.58,2.19,1.64,3.56.06,1.37-.42,2.68-1.35,3.68l-1.92,2.08c-1.92,2.08-5.17,2.21-7.24.29l-.3-.28-.56.24c-.75-.88-1.13-2.2-1.05-3.69Z"/>
    <g>
      <path class="cls-11" d="M98.53,123.38l1.53,9.05s.5,3.21,1.41,6.13c0,0,1.03,2.38-.84,3.06,0,0-8.73,1.27-9.26,1.34,0,0-1.78.24-2.39-.14,0,0-1.42-1.66,2.61-4.94l1.06-1.11-4.31-11.26,10.19-2.12Z"/>
      <path class="cls-6" d="M87.49,125.04l4.44,11.58-.76.8c-1.9,1.55-2.92,3-3.04,4.31-.08.9.3,1.4.38,1.5l.06.07.08.05c.39.24,1.02.31,1.59.31.52,0,.99-.05,1.21-.08.52-.06,8.91-1.28,9.27-1.34l.12-.03c.63-.23,1.09-.65,1.34-1.22.47-1.1-.01-2.38-.12-2.64-.88-2.83-1.38-5.97-1.38-6.01h0s-1.64-9.69-1.64-9.69l-11.55,2.4ZM93.38,136.91l-4.19-10.95,8.84-1.84,1.42,8.4c.03.18.52,3.31,1.43,6.21l.02.06c.12.28.37,1.12.13,1.69-.1.24-.28.4-.56.52-3.03.44-8.76,1.28-9.17,1.32-.74.1-1.54.09-1.88,0-.12-.32-.33-1.61,2.57-3.97l.06-.05,1.33-1.4Z"/>
    </g>
    <path class="cls-15" d="M93.14,137.83s3.88-1.2,5.65,2.07c0,0,.87,1.53-7.95,2.14,0,0-1.93.07-1.49-.76,0,0,1.98-3.3,3.79-3.45Z"/>
    <g>
      <path class="cls-11" d="M89.43,141.77h11.92c.52,0,.94.42.94.94v.39c0,.52-.42.94-.94.94h-11.92c-.52,0-.94-.42-.94-.94v-.39c0-.52.42-.94.94-.94Z" transform="translate(-15.78 11.9) rotate(-6.6)"/>
      <path class="cls-6" d="M88.22,142.43c-.26.33-.38.74-.33,1.15l.04.38c.09.8.77,1.39,1.56,1.39.06,0,.12,0,.18-.01l11.84-1.37c.86-.1,1.48-.88,1.38-1.74l-.04-.38c-.05-.42-.26-.79-.58-1.05s-.74-.38-1.15-.33l-11.84,1.37c-.41.05-.79.25-1.05.58ZM89.14,143.44c-.01-.11.04-.19.07-.23.03-.04.1-.1.21-.12l11.84-1.37s.03,0,.04,0c.09,0,.16.04.19.07.04.03.11.1.12.21l.04.38c.02.17-.11.33-.28.35l-11.84,1.37c-.17.02-.33-.11-.35-.28l-.04-.38Z"/>
    </g>
    <g>
      <path class="cls-19" d="M97.11,120.75c3.76-.1,4.07,12.34,4.07,12.34-2.6,2.46-7.62,2.6-7.62,2.6-1.52.39-2.77-.47-2.77-.47-4.63-9.2-3.32-11.31-3.32-11.31,2.77-4.14,9.64-3.16,9.64-3.16Z"/>
      <path class="cls-14" d="M86.94,123.56c-.26.42-1.27,2.88,3.28,11.94l.07.14.13.09s1.01.68,2.32.68c.28,0,.58-.03.89-.1.66-.03,5.36-.3,7.96-2.77l.2-.19v-.28c-.03-.99-.33-9.72-2.96-12.22-.51-.48-1.09-.72-1.7-.72-.7-.09-7.34-.84-10.2,3.44ZM88,124.24c2.5-3.74,8.96-2.88,9.02-2.87h.05s.05,0,.05,0c.3-.02.58.12.86.38,1.85,1.76,2.46,8.32,2.56,11.06-2.45,2.09-6.95,2.25-7,2.25l-.14.02c-.97.25-1.83-.14-2.14-.31-4.12-8.24-3.28-10.52-3.27-10.54Z"/>
    </g>
    <g>
      <g>
        <path class="cls-9" d="M92.59,135.95c.42-.4,1.19.77,1.19.77,1.2,1.2.37,1.86.37,1.86-1.55,1.39-2.01,1.67-2.01,1.67-1.04,1.02-2.41-1.42-2.41-1.42.8-1.14,2.86-2.88,2.86-2.88Z"/>
        <path class="cls-19" d="M89.47,138.65l-.11.16.1.17c.1.17.97,1.68,1.97,1.82.05,0,.1.01.16.01.28,0,.53-.11.76-.32.13-.09.67-.47,2.02-1.68.02-.02.35-.3.38-.81.03-.48-.22-.97-.72-1.48-.16-.24-.65-.91-1.15-.96-.18-.02-.35.04-.49.16-.15.13-2.1,1.79-2.91,2.93ZM90.1,138.84c.84-1.09,2.67-2.64,2.69-2.66h.02c.11-.01.47.34.71.7l.04.05c.38.38.57.73.56,1.03-.01.24-.16.37-.16.37-1.5,1.35-1.97,1.64-1.97,1.64l-.06.04c-.17.17-.32.17-.41.16-.52-.07-1.13-.89-1.41-1.34Z"/>
      </g>
      <g>
        <path class="cls-11" d="M92.07,136.92c.17-.17.49.32.49.32.5.5.15.77.15.77-.64.58-.83.69-.83.69-.43.42-1-.59-1-.59.33-.47,1.19-1.2,1.19-1.2Z"/>
        <path class="cls-6" d="M90.63,137.94l-.11.16.1.17c.07.13.46.78.95.85.03,0,.06,0,.09,0,.16,0,.3-.06.43-.17.08-.06.32-.23.85-.71.02-.02.2-.18.22-.46.01-.25-.1-.5-.34-.74-.1-.15-.33-.44-.6-.47-.13-.01-.25.02-.34.11-.08.07-.89.76-1.23,1.25ZM91.26,138.13c.26-.3.67-.68.9-.89.05.05.1.11.13.16l.04.05c.14.14.18.24.18.29h0s0,.03,0,.03c-.59.53-.78.65-.79.66l-.05.04c-.08,0-.26-.15-.4-.35Z"/>
      </g>
    </g>
    <path class="cls-19" d="M93.15,118.35c3.11-.82,6.1.24,6.66,2.34l.19,3.39c.6,6.8-3.13,7.08-4.47,5.68l.29-1.07c-3.11.82-6.34,1.13-6.9-.98l-1.15-2.38c-.55-2.11,2.28-6.17,5.39-6.98Z"/>
    <path class="cls-8" d="M90.23,119.23c1.02-1.36,3.41-1.9,4.77-.88,1.36,1.02,1.63,2.97.61,4.33l-2.31,3.07c-1.02,1.36-1.89,2.76-3.24,1.73l-.93.12c-1.36-1.02-2.25-5.08.56-8.02l.55-.35Z"/>
    <path class="cls-8" d="M95.61,124.14c2.66-.07,2.89,8.75,2.89,8.75-1.84,1.75-5.4,1.85-5.4,1.85-1.08.28-1.97-.33-1.97-.33-3.28-6.53-2.36-8.02-2.36-8.02,1.97-2.94,6.84-2.24,6.84-2.24Z"/>
  </g>
  <g>
    <g>
      <path class="cls-9" d="M96.28,93.64c13.96,1.83,21.14-2.14,21.14-2.14,2.35-2.21,1.98.08,1.98.08-3.45,2.93-3.77,7.29-3.77,7.29-.2,1.96-2.88,2.48-2.88,2.48-10.16,2.09-19.94.46-19.94.46,1.07-6.12,3.48-8.16,3.48-8.16Z"/>
      <path class="cls-19" d="M92.19,101.69l-.11.62.62.1c.06.01,3.73.61,8.88.61,3.34,0,7.29-.25,11.29-1.07.12-.02,3.13-.63,3.38-3.02,0-.06.35-4.16,3.55-6.87l.18-.15.04-.23c.03-.21.16-1.26-.58-1.65-.76-.4-1.67.28-2.39.95-.73.37-7.81,3.72-20.69,2.03l-.27-.04-.21.18c-.11.09-2.6,2.26-3.69,8.53ZM93.54,101.28c.87-4.37,2.44-6.39,2.97-6.98,13.8,1.74,20.91-2.09,21.21-2.25l.07-.04.06-.05c.49-.46.79-.65.95-.73,0,.02,0,.03,0,.05-3.42,3.05-3.77,7.36-3.79,7.54-.15,1.45-2.36,1.9-2.38,1.91-8.48,1.75-16.78.86-19.09.55Z"/>
    </g>
    <path class="cls-7" d="M112.65,94.38c-2.24,9.95-18.13,6.24-18.13,6.24.38-3.48,1.88-5.74,1.88-5.74,9.17.88,16.24-.5,16.24-.5Z"/>
  </g>
  <g>
    <g>
      <g>
        <path class="cls-18" d="M113.28,88.79c20.7,10.57,25.48,33.01,25.48,33.01-3.5,2.56-8,3.83-8,3.83-17.48,7.14-38.45,3.83-38.45,3.83l.43-2.23c-6.62.86-13.03-2.52-13.03-2.52,8.61-16.15,11.45-31.75,11.45-31.75l22.12-4.17Z"/>
        <path class="cls-13" d="M79.16,124.42l-.3.55.55.29c.26.14,6.13,3.2,12.55,2.68l-.39,2.04.64.1c.1.02,4.95.75,11.89.76,7.62,0,17.74-.89,26.87-4.61.46-.13,4.73-1.41,8.16-3.92l.33-.24-.08-.4c-.05-.23-1.26-5.78-5.04-12.71-3.49-6.4-9.93-15.19-20.77-20.73l-.19-.1-.21.04-22.54,4.25-.08.42c-.03.16-2.92,15.7-11.38,31.57ZM80.57,124.43c7.55-14.38,10.6-28.35,11.12-30.93l21.49-4.05c18.55,9.59,24.11,29.08,24.87,32.09-3.31,2.3-7.42,3.48-7.46,3.49l-.07.02c-15.42,6.3-33.84,4.35-37.48,3.88l.47-2.43-.86.11c-5.25.68-10.42-1.41-12.09-2.18Z"/>
      </g>
      <path class="cls-17" d="M120.4,93.67s13.36,17.85,14.14,27.11c0,0-10,3.7-19.62,5.09,0,0-14.44-33.3,5.48-32.2Z"/>
      <g class="cls-21">
        <path class="cls-3" d="M85.08,123.19c5.31,2.77,6.35,3.78,6.35,3.78-5.01-.15-10.22-2.81-10.22-2.81,5.35-10.05,8.3-21.04,8.3-21.04-.12,8.99-4.43,20.07-4.43,20.07Z"/>
      </g>
    </g>
    <g>
      <g>
        <path class="cls-10" d="M97.25,93.72c7.87,5.21,20.16-2.22,20.16-2.22,7.89,3.8,10.04,11.02,10.04,11.02,0,0,2.24,7.91,2.08,8.42,0,0-7.63,6.16-22.89,7.43-15.5,1.28-14.07-1.72-14.07-1.72-1.34-20.02,4.68-22.92,4.68-22.92Z"/>
        <path class="cls-10" d="M129.53,110.93c-.02.06-.02.06-.03.1.02-.05.03-.1.03-.1Z"/>
        <path class="cls-10" d="M129.49,111.03c-.03.1-.06.17,0,0h0Z"/>
      </g>
      <path class="cls-14" d="M91.94,116.57c-.06.28-.03.66.23,1.04.78,1.13,3.39,1.69,7.79,1.69,1.91,0,4.16-.11,6.74-.32,15.27-1.27,22.91-7.31,23.23-7.56l-.12-.15.25.08.07-.22s0,0,0-.01l.64-1.99-.78.63c-.23-1.14-.76-3.29-1.93-7.42-.09-.31-2.32-7.53-10.37-11.41l-.31-.15-.29.17c-.12.07-12.05,7.17-19.5,2.24l-.3-.2-.32.15c-.26.13-6.36,3.3-5.04,23.41ZM93.2,116.76v-.16c-1.13-16.71,2.96-21.23,4.06-22.13,7.5,4.56,18.21-1.14,20.18-2.26,7.29,3.66,9.39,10.42,9.41,10.49.92,3.27,1.88,6.91,2.04,7.94-1.42,1.02-8.92,6-22.3,7.1-10.24.85-12.69-.22-13.28-.71-.1-.09-.13-.15-.14-.17l.04-.08Z"/>
    </g>
    <g>
      <path class="cls-16" d="M125.45,107.57s-.14.36,0,0h0Z"/>
      <path class="cls-16" d="M98.42,95.38c6.59,3.7,16.96-1.71,16.96-1.71,6.61,2.69,8.38,7.86,8.38,7.86,0,0,1.84,5.67,1.7,6.04,0,0-6.45,4.47-19.28,5.46-13.03,1.01-11.81-1.16-11.81-1.16-1.02-14.38,4.06-16.49,4.06-16.49Z"/>
    </g>
    <g>
      <path class="cls-10" d="M129.66,115.38l2.02,7.15c-5.33,3.79-16.05,5.26-16.05,5.26-15.21,2.64-23.56-1.99-23.56-1.99l.18-7.82c10.26,5.84,37.41-2.6,37.41-2.6Z"/>
      <path class="cls-14" d="M91.65,116.91l-.21,9.25.33.18c.27.15,5.35,2.89,14.72,2.89,2.73,0,5.82-.23,9.26-.83.42-.06,10.91-1.53,16.3-5.37l.36-.26-2.32-8.19-.61.19c-.2.06-15.08,4.63-26.75,4.63-4,0-7.63-.54-10.16-1.98l-.91-.52ZM92.71,125.42l.15-6.43c2.67,1.22,6.18,1.68,9.97,1.68,10.59,0,23.4-3.62,26.4-4.51l1.73,6.11c-5.26,3.48-15.3,4.89-15.41,4.9-13.15,2.28-21.16-.97-22.85-1.76Z"/>
    </g>
    <path class="cls-16" d="M95.43,119.14l-.03,6.66-2.22-.75.07-6.84s2,.67,2.18.93Z"/>
    <g>
      <g>
        <path class="cls-10" d="M107.56,119.85s.6,5.51.82,10.51c0,0-5.77,1.1-11.4-.62l-.49-10.09s8.83.25,11.07.2Z"/>
        <path class="cls-14" d="M96.51,119.02l-.68-.02.55,11.2.42.13c2.55.78,5.11,1,7.18,1,2.56,0,4.38-.34,4.52-.36l.53-.1-.02-.54c-.22-4.97-.82-10.5-.83-10.55l-.06-.57h-.57c-2.2.06-10.95-.18-11.04-.18ZM97.15,120.29c1.94.05,7.47.19,9.85.19.15,1.46.54,5.5.73,9.35-1.49.21-5.84.64-10.14-.56l-.44-8.97Z"/>
      </g>
      <path class="cls-16" d="M105.92,122.4s-.49,7.76-7.93,6.66l-.62-7.96,2.92.15,5.63,1.15Z"/>
    </g>
    <g>
      <g>
        <g>
          <path class="cls-9" d="M91.92,113c27.47,3.83,36.55-5.09,36.55-5.09.63-.61.98-.39,1.2.36.26.9.81,5.12.81,5.12.1.7-.55,1.65-.55,1.65-18.85,10.56-37.92,4.67-37.92,4.67-1.37.03-1.27-6.58-1.27-6.58.71-1.76,1.18-.14,1.18-.14Z"/>
          <path class="cls-13" d="M90.12,113.13c-.02,1.34,0,5.78,1.11,6.87.24.24.49.31.68.33.7.2,5.87,1.61,13.16,1.61s16.18-1.32,25.17-6.36l.13-.07.08-.12c.13-.19.78-1.2.65-2.1-.05-.42-.56-4.29-.83-5.21-.07-.24-.28-.96-.92-1.13-.63-.17-1.15.33-1.31.5-.09.09-9.18,8.58-35.67,4.97-.16-.33-.45-.7-.92-.73-.77-.04-1.14.87-1.28,1.21l-.04.11v.12ZM91.37,113.34l.06.22.4.06c27.46,3.83,36.69-4.89,37.07-5.27.04-.04.07-.07.1-.09.02.05.04.11.06.18.21.7.64,3.87.79,5.03.04.29-.19.8-.37,1.1-18.34,10.19-37.11,4.6-37.29,4.55l-.1-.03h-.02c-.41-.45-.74-3.06-.71-5.75Z"/>
        </g>
        <path class="cls-7" d="M92.21,113.9c25.06,2.84,35.42-4.36,35.42-4.36.17-.12.34.1.47.06-.09,2.12-.36,5.4-4.11,7.74-20.86,6.58-31.8,1.77-31.8,1.77-1.32.04-1.11-5.09-1.11-5.09.73-1.29,1.14-.12,1.14-.12Z"/>
        <g>
          <path class="cls-16" d="M92.52,113.88c21.05,2.75,33.68-3.54,33.68-3.54,2.4-1.1-.85,1.49-.85,1.49-11.37,7.02-32.59,3.99-32.59,3.99-1,2.33-1.01,3.01-.94,3.22-.93-1.02-.85-4.27-.85-4.27-.25-1.92,1.54-.89,1.54-.89Z"/>
          <path class="cls-16" d="M91.82,119.03s.04.07.07.09c0,0-.04-.01-.07-.09Z"/>
        </g>
      </g>
      <g>
        <g>
          <path class="cls-9" d="M101.06,112.46c2.95-.2,5.5,2.03,5.7,4.98.2,2.95-2.03,5.5-4.98,5.69-2.95.2-5.5-2.03-5.69-4.98-.2-2.95,2.03-5.5,4.98-5.69Z"/>
          <path class="cls-13" d="M96.92,113.86c-1.05,1.2-1.57,2.74-1.47,4.33.11,1.59.83,3.05,2.03,4.1,1.1.96,2.48,1.48,3.93,1.48.14,0,.27,0,.41-.01,1.59-.11,3.05-.83,4.1-2.03,1.05-1.2,1.57-2.74,1.47-4.33-.11-1.59-.83-3.05-2.03-4.1-1.2-1.05-2.74-1.57-4.33-1.47-1.59.11-3.05.83-4.1,2.03ZM96.7,118.11c-.08-1.26.33-2.48,1.16-3.43.83-.95,1.98-1.52,3.24-1.6.11,0,.21-.01.32-.01,1.14,0,2.24.41,3.11,1.17.95.83,1.52,1.98,1.6,3.24.08,1.26-.33,2.48-1.16,3.43-.83.95-1.98,1.52-3.24,1.6-1.26.08-2.48-.33-3.43-1.16-.95-.83-1.52-1.98-1.6-3.24Z"/>
        </g>
        <path class="cls-7" d="M100.72,113.39c2.34-.16,4.37,1.74,4.53,4.25.17,2.5-1.59,4.65-3.93,4.81-2.34.16-4.37-1.74-4.53-4.24-.17-2.5,1.59-4.65,3.93-4.81Z"/>
        <g>
          <g>
            <path class="cls-9" d="M100.78,114.42c1.83.15,3.24,1.83,3.14,3.75-.1,1.92-1.67,3.35-3.5,3.2-1.83-.15-3.24-1.83-3.14-3.75.1-1.92,1.67-3.35,3.5-3.2Z"/>
            <path class="cls-13" d="M98.13,114.84c-.79.69-1.26,1.67-1.32,2.76-.11,2.17,1.49,4.07,3.57,4.25.1,0,.2.01.31.01.88,0,1.71-.31,2.38-.9.79-.69,1.26-1.67,1.32-2.76.11-2.17-1.49-4.07-3.56-4.24-.99-.08-1.94.23-2.69.89ZM97.75,117.65c.04-.83.4-1.58,1-2.1.5-.44,1.12-.67,1.77-.67.08,0,.15,0,.23,0,1.58.13,2.79,1.59,2.71,3.26-.04.83-.4,1.58-1,2.1-.56.49-1.27.72-1.99.66-1.58-.13-2.79-1.59-2.71-3.26h0Z"/>
          </g>
          <path class="cls-7" d="M100.05,114.77c1.35-.04,2.49,1.26,2.55,2.91.06,1.65-.97,3.02-2.32,3.07-1.34.04-2.49-1.26-2.55-2.91-.06-1.65.97-3.02,2.32-3.06Z"/>
          <path class="cls-16" d="M99.21,115.51c.9-.06,1.7.9,1.78,2.14.08,1.24-.58,2.3-1.48,2.36-.9.06-1.7-.9-1.78-2.14-.08-1.24.58-2.3,1.48-2.36Z"/>
        </g>
      </g>
    </g>
    <g>
      <path class="cls-18" d="M97.52,104.83c1.17.35,2.39.46,3.55.43-.19-1.67-.98-2.67-.98-2.67,2.24-1.1,4.4-.41,4.4-.41-.88.9-1.34,1.91-1.54,2.92,2.3-.32,4.02-1.02,4.02-1.02,2.47,1.34.62,2.5.62,2.5-1.71-.4-3.32-.52-4.75-.5-.11,2.63,1.28,4.99,1.28,4.99-3.18,1.97-5.13.28-5.13.28,1.57-1.97,2.08-3.74,2.12-5.17-2.66.28-4.36.99-4.36.99-1.41-.98.76-2.35.76-2.35Z"/>
      <path class="cls-13" d="M95.82,106.38c0,.32.1.78.68,1.18l.21.15.24-.1s1.44-.59,3.67-.89c-.17,1.44-.83,2.9-1.98,4.34l-.28.35.34.29c.06.05.95.79,2.46.79.88,0,1.97-.25,3.22-1.03l.39-.24-.23-.39s-1.16-2.01-1.22-4.28c1.41,0,2.82.17,4.18.49l.19.04.17-.1c.09-.06.91-.6.88-1.48-.02-.68-.54-1.29-1.53-1.83l-.19-.11-.21.08s-1.35.54-3.21.88c.25-.75.66-1.43,1.24-2.02l.53-.54-.72-.23c-.1-.03-2.36-.73-4.75.44l-.52.25.36.45s.55.72.79,1.91c-1.04-.02-2.01-.16-2.87-.42l-.2-.06-.18.11c-.15.09-1.43.93-1.46,1.95ZM102.84,105.62h-.17s.36-.05.36-.05c1.88-.27,3.37-.77,3.91-.97.54.32.85.65.86.93,0,.22-.17.43-.31.55-1.51-.33-3.08-.49-4.65-.46ZM101.59,106.2l.02-.48v-.02s0-.03,0-.03h0s-.05-.46-.05-.46c-.13-1.09-.49-1.91-.75-2.4,1.12-.42,2.17-.41,2.84-.32-.56.75-.94,1.59-1.12,2.53l-.13.65h.02s-.02.41-.02.41c-.09,2.1.72,4.01,1.12,4.83-1.88,1.02-3.21.64-3.82.34,1.22-1.66,1.86-3.35,1.91-5.03ZM96.75,106.41c0-.32.46-.78.85-1.06,1.01.28,2.14.41,3.35.39-2.05.22-3.52.69-4.1.9-.1-.12-.1-.2-.1-.24Z"/>
    </g>
    <path class="cls-16" d="M127.03,118.2s1.06,4.6-2.16,6.15c0,0-5.54,2.55-14.79,2.95,0,0-1.34-2.04-1.51-4.96,0,0,7.66.55,18.47-4.13Z"/>
  </g>
  <g>
    <g>
      <path class="cls-9" d="M84.17,75.83c1.99,5.11-7.33,7.26-7.33,7.26-2.75-4.66-1.98-10.44-1.98-10.44,6.98-5.04,9.31,3.17,9.31,3.17Z"/>
      <path class="cls-19" d="M74.24,72.58c-.03.24-.77,6.04,2.06,10.84l.23.39.45-.1c.24-.06,5.93-1.4,7.62-4.6.58-1.09.63-2.26.17-3.48-.12-.39-1.25-3.96-4.16-4.97-1.81-.63-3.87-.13-6.11,1.49l-.22.16-.04.27ZM75.45,73.01c1.31-.9,2.51-1.36,3.59-1.36.4,0,.79.06,1.15.19,2.41.84,3.37,4.13,3.38,4.16l.02.06c.34.88.31,1.69-.1,2.46-1.18,2.23-5.03,3.48-6.35,3.85-2.03-3.78-1.79-8.24-1.69-9.36Z"/>
    </g>
    <g>
      <path class="cls-12" d="M112.26,66.84s-2.48,4.66-4.09,5.05c0,0,3.05,3.2,1.34,6.24,0,0-1.85,5.12-5.39,6.04,0,0-.59-.41-2.23-1.1l-20.28,4.81s-2.35-.13-.67-1.87c0,0-5.67-3.25-3.11-7.8,0,0,.33-2.5-1.19-4.49l-.43-1.84s5.4-2.39,8.49-3.43c0,0,19.36-5.63,27.56-1.62Z"/>
      <path class="cls-13" d="M75.96,71.32l-.47.21.58,2.47.08.11c1.18,1.54,1.11,3.45,1.08,3.92-1.94,3.61.7,6.69,2.8,8.14-.31.48-.39.93-.23,1.34.34.87,1.55.98,1.78.99h.09s20.16-4.78,20.16-4.78c1.4.6,1.93.95,1.94.96l.23.16.27-.07c3.67-.95,5.58-5.8,5.8-6.38,1.42-2.57-.08-5.15-.94-6.31,1.6-1.17,3.3-4.25,3.67-4.95l.3-.57-.58-.28c-8.32-4.07-27.21,1.35-28.01,1.58-3.1,1.05-8.34,3.36-8.56,3.46ZM76.94,72.25c1.38-.6,5.47-2.36,7.96-3.2.16-.05,18.28-5.24,26.49-1.92-1.01,1.77-2.53,3.95-3.36,4.15l-1.06.25.75.79s2.71,2.91,1.25,5.51l-.04.09s-1.69,4.58-4.71,5.57c-.33-.19-.98-.53-2.08-1l-.19-.08-20.38,4.83c-.24-.03-.51-.11-.6-.19.01-.06.08-.25.43-.61l.56-.58-.7-.4c-.21-.12-5.1-3-2.88-6.95l.06-.11.02-.12c.01-.11.33-2.69-1.23-4.84l-.28-1.2Z"/>
    </g>
    <path class="cls-16" d="M97.46,72.77l-.27.13c-1.77.46-.72-1.61-.72-1.61,1.14.63.99,1.48.99,1.48Z"/>
    <path class="cls-16" d="M81.53,75.53c1.08.4.45,1.74.45,1.74-1.9-.47-.45-1.74-.45-1.74Z"/>
    <path class="cls-2" d="M101.16,67.2c-.78,3.48,1.13,5.91,1.13,5.91,3.94,3.66,1.88,4.96,1.88,4.96-.85,1.17-2.5,1.42-2.5,1.42l-1.41-.04c-8.59-.96-17.27,2.34-17.27,2.34-.78.36-3,2.13-3,2.13-.88-.9-1.09-1.5-1.09-1.5-.12-1.91.86-4.13.86-4.13,1.16-2.35-2.32-5.57-2.32-5.57,7.76-6.08,23.71-5.52,23.71-5.52Z"/>
    <path class="cls-16" d="M96.46,69.87c2.54-.07,4.03,3.45,4.03,3.45.02.6-.46.95-.84,1.1-.31.12-1.35.51-1.35.51-4.64,1.69-5.02-.39-5.02-.39l-.06-.23c-.65-3.7,1.8-4.39,3.24-4.43Z"/>
    <g>
      <g>
        <path class="cls-4" d="M87.66,69.3c1.33.09,1.86-.22,2.12-.64,2.76-4.52,3.42-5.03,5.4-4.92,3.89.2,6.85,3.15,6.85,3.15.45,2.79-3.28,1.13-3.28,1.13-3.66-2.12-6.66,2.19-6.66,2.19-.63,1.46-3.28,1.13-3.28,1.13-2.74-1.05-1.74-2.06-1.16-2.02Z"/>
        <path class="cls-13" d="M86.4,69.63c-.13.6.14,1.48,2.2,2.27l.07.03h.07s.31.05.7.05c.95,0,2.59-.2,3.19-1.47.32-.44,2.84-3.68,5.8-1.96l.06.03c.4.18,2.45,1.03,3.57.17.37-.28.76-.85.58-1.97l-.03-.2-.14-.14c-.13-.13-3.17-3.12-7.26-3.33-2.45-.13-3.31.88-5.97,5.22-.18.29-.69.4-1.54.34-.52-.04-1.16.32-1.31.95ZM87.66,69.93c.87.06,2.07,0,2.65-.94,2.78-4.55,3.26-4.71,4.84-4.63,3.12.16,5.66,2.26,6.29,2.83.02.22,0,.47-.13.58-.37.28-1.54,0-2.26-.31-.8-.46-1.59-.65-2.34-.65-2.31,0-4.25,1.79-5.11,3.03l-.06.11c-.34.8-1.92.82-2.55.76-.91-.36-1.21-.65-1.31-.78Z"/>
      </g>
      <path class="cls-5" d="M90.37,68.59c1.65-3.22,2.14-4.14,3.49-4.16,2.65-.06,4.8,1.8,4.8,1.8,1.14,1.69-1.26.62-1.26.62-3.12-.76-5.32,2.13-5.32,2.13-.53,1.8-1.95,1.56-1.95,1.56-1.94.23-2.49-.91-2.1-.91.9,0,2.18-.74,2.33-1.04Z"/>
      <path class="cls-1" d="M89.5,69.34c-.43.65.31.59.31.59.94-.09,1.58-.48,1.58-.48.91.15-.34,1.05-.34,1.05-2.3.95-3.21-.45-3.21-.45.09-.97,1.66-.71,1.66-.71Z"/>
    </g>
    <path class="cls-13" d="M92.94,71.35c.03-.08.07-.15.11-.23.06-.1.1-.15.15-.22.09-.12.18-.25.28-.37l.34-.34c.48-.42,1.09-.71,1.71-.83.63-.12,1.25-.09,1.84.04.3.07.57.15.89.29.29.15.56.33.78.55.45.43.77.93,1,1.45.23.52.4,1.06.45,1.62-.31-.46-.62-.9-.97-1.29-.34-.4-.71-.76-1.1-1.01-.19-.14-.4-.22-.59-.3-.19-.06-.45-.11-.68-.14-.47-.06-.95-.07-1.39.02-.44.09-.84.26-1.2.52l-.26.22c-.08.08-.16.17-.24.25-.04.04-.09.09-.1.11-.03.03-.06.08-.08.12-.06.09-.11.19-.16.3-.19.43-.3.92-.34,1.43-.05.52-.02,1.05.02,1.61-.58-.94-.9-2.13-.61-3.34.04-.15.09-.3.15-.45Z"/>
    <path class="cls-16" d="M79.81,77.83c-1.05,3.05,1.27,6.33,1.27,6.33l-1.29.47c-3.18-3.67-1.65-5.57-1.65-5.57,1.26-3.86-1.41-6.06-1.41-6.06l.81-.27c2.99,1.76,2.27,5.11,2.27,5.11Z"/>
    <path class="cls-16" d="M84.17,75.83c.58,2.26-1.11,2.76-1.11,2.76-.93.43-2.81.67-2.81.67-2.47-.85-1.3-3.38-1.3-3.38,1.72-3.23,4.89-1.37,5.23-.05Z"/>
    <path class="cls-13" d="M78.64,74.74c.08-.12.17-.25.26-.37.1-.12.21-.23.31-.34.45-.44,1.05-.75,1.67-.87.62-.12,1.24-.06,1.81.08.29.09.56.16.86.34.28.16.52.36.73.58.41.43.69.93.9,1.44.2.51.36,1.04.4,1.58-.31-.45-.6-.88-.93-1.27-.32-.39-.66-.76-1.03-1.02-.09-.07-.18-.13-.28-.18-.09-.06-.19-.1-.28-.14-.16-.07-.41-.13-.63-.17-.45-.07-.9-.1-1.31,0-.41.08-.78.25-1.11.52-.08.07-.16.14-.24.22-.07.09-.15.17-.22.25-.05.05-.1.13-.15.23-.05.09-.1.2-.13.3-.33.86-.33,1.9-.26,2.97-.56-.91-.9-2.04-.69-3.22.06-.3.12-.58.33-.91Z"/>
    <g>
      <g>
        <path class="cls-12" d="M84.04,71.95l-.83-.97s.42.36.83.97Z"/>
        <path class="cls-12" d="M84.56,75.72c.66-1.53.08-2.9-.52-3.77l6.11,7.1c2.79-1.16,4.94,1.05,4.94,1.05,1.84,2.46-1.23,3.4-1.23,3.4-2.27-.24-3.19.84-3.19.84-1.97,2.12-4.59,1.99-4.59,1.99-3.02-.53-2.65-5.17-2.65-5.17,0-2.48,1.14-5.44,1.14-5.44Z"/>
        <g>
          <path class="cls-13" d="M82.74,81.1s0,.03,0,.04c0,0,0,0,0,.01v-.05Z"/>
          <path class="cls-13" d="M84.09,75.72l.07-.17.07-.14c.05-.09.08-.19.11-.28.06-.19.12-.39.14-.59.06-.4.04-.82-.06-1.24-.19-.83-.64-1.63-1.22-2.32.73.54,1.35,1.28,1.71,2.17.18.45.28.94.28,1.44,0,.25-.03.5-.08.75-.03.12-.06.25-.1.36l-.06.17-.04.15c-.25.84-.45,1.71-.61,2.57-.16.86-.23,1.73-.22,2.56v.06c-.01.45.03.97.09,1.44.07.48.19.94.35,1.36.17.42.39.79.67,1.05.14.13.29.24.45.32.15.07.32.12.5.16-.02,0-.04,0-.05,0h.09s-.03,0-.04,0c.1,0,.25,0,.37-.02.15-.01.31-.03.46-.06.31-.05.62-.13.91-.23.59-.2,1.15-.5,1.64-.88.12-.1.24-.2.36-.3.06-.05.11-.1.16-.15l.04-.04.08-.08s.1-.09.14-.13c.37-.3.77-.49,1.17-.62.77-.24,1.55-.27,2.28-.18-.05.02-.09.03-.13.04l.25-.02s-.09-.01-.13-.02c.09-.03.2-.07.29-.12.14-.06.28-.14.4-.22.25-.16.45-.36.56-.58.1-.21.14-.45.08-.73-.06-.27-.2-.56-.38-.84,0,0,.02.02.03.03l-.04-.04s0,.01,0,.01c-.25-.26-.58-.53-.91-.75-.35-.23-.73-.42-1.13-.55-.4-.13-.82-.21-1.26-.21-.43,0-.87.06-1.3.18.39-.22.82-.38,1.28-.46.46-.08.93-.08,1.4,0,.47.08.92.23,1.35.43.44.21.83.44,1.22.79h0s.03.04.03.04c.26.31.49.67.64,1.1.15.43.17.97-.02,1.44-.19.47-.52.82-.87,1.09-.17.14-.36.25-.54.36-.19.11-.36.19-.6.28l-.09.03h-.16c-.64-.04-1.27,0-1.81.22-.27.1-.52.24-.69.4-.02.02-.04.04-.06.05h-.01s-.05.07-.05.07c-.07.08-.15.16-.22.23-.14.14-.29.28-.44.41-.62.51-1.32.91-2.07,1.18-.38.13-.76.24-1.15.31-.2.04-.39.06-.59.08-.21.02-.39.03-.64.02h-.05s-.05-.01-.05-.01c-.33-.06-.66-.16-.97-.32-.31-.16-.59-.36-.83-.6-.48-.48-.8-1.05-1-1.62-.21-.57-.32-1.15-.38-1.72-.06-.56-.06-1.1-.01-1.68.03-.97.21-1.9.44-2.8.23-.9.54-1.77.9-2.63Z"/>
        </g>
        <path class="cls-13" d="M93.92,82.87l-.25.02s.08-.02.13-.04c.04,0,.08,0,.13.02Z"/>
        <path class="cls-13" d="M86.2,85.55h-.09s.03-.01.05-.01c.01,0,.03,0,.04.01Z"/>
        <path class="cls-13" d="M94.74,80.37s0,0,0-.01l.04.04s-.02-.02-.03-.03Z"/>
      </g>
      <path class="cls-2" d="M90.17,78.84l1.61.26c1.93-.41,3.01,1.4,3.01,1.4.28,1.49-1.31.85-1.31.85-1.82-.93-3.89.67-3.89.67-1.84,1.07-2.09,1.49-2.09,1.49-2.42-1.92-1.75-4.93-1.75-4.93.96-3.97-.3-5.6-.3-5.6,2.46,2.17,4.72,5.85,4.72,5.85Z"/>
      <g>
        <path class="cls-1" d="M84.57,72.16s-.04-.04-.06-.06c0,0,.03.02.06.06Z"/>
        <path class="cls-1" d="M84.57,72.16c2.08,1.79,1.44,5.03,1.44,5.03-1.23,4.92,1.42,6.02,1.42,6.02-1.12,1.21-2.44,1.19-2.44,1.19-2.29-3.69-.35-7.7-.35-7.7.89-3.17.15-4.29-.07-4.54Z"/>
      </g>
    </g>
    <g>
      <path class="cls-13" d="M95.72,71.47c1,0,1.82.86,1.83,1.92,0,1.06-.79,1.92-1.79,1.92-1,0-1.82-.86-1.83-1.92,0-1.06.79-1.92,1.79-1.92Z"/>
      <path class="cls-16" d="M97,72.9c.37,0,.67.32.67.72,0,.4-.29.72-.66.72-.37,0-.66-.32-.67-.72,0-.4.29-.72.66-.72Z"/>
    </g>
    <g>
      <path class="cls-13" d="M80.75,75.32c.91,0,1.65.78,1.66,1.74,0,.96-.72,1.74-1.63,1.74-.91,0-1.65-.78-1.66-1.74,0-.96.72-1.74,1.63-1.74Z"/>
      <path class="cls-16" d="M81.92,76.62c.33,0,.6.29.61.65,0,.36-.26.65-.6.65-.33,0-.6-.29-.61-.65,0-.36.26-.65.6-.65Z"/>
    </g>
    <g>
      <g>
        <path class="cls-4" d="M78.14,69.26s1.38.76,2.42,1.23c0,0,.88.49,1.62.24.32-.11.47-.77,1.22-.6,0,0,1.51,1.93-1.19,2.82,0,0-1.48.29-2.15-.19,0,0-1.13-.82-2.95-.07,0,0-2.35,1.53-2.35-.6,0,0-.23-3.78,3.38-2.82Z"/>
        <path class="cls-13" d="M75.27,69.07c-1.19.98-1.15,2.8-1.14,3.03,0,.96.42,1.38.77,1.57.23.12.47.17.72.17.75,0,1.51-.43,1.77-.6,1.41-.56,2.26,0,2.3.03.85.6,2.34.35,2.63.29l.07-.02c1.07-.35,1.73-.91,1.96-1.66.33-1.07-.38-2.03-.47-2.13l-.14-.18-.22-.05c-.85-.19-1.31.31-1.53.55-.03.03-.05.06-.08.08-.37.1-.9-.12-1.06-.21l-.04-.02c-1-.46-2.37-1.2-2.38-1.21l-.07-.04-.07-.02c-1.26-.34-2.28-.2-3.03.42ZM75.38,72.04c-.02-.38.06-1.5.69-2.01.41-.33,1.03-.39,1.84-.19.29.16,1.45.78,2.37,1.2.2.1,1.18.59,2.1.27.26-.09.42-.27.55-.41.05-.06.09-.1.13-.13.09.2.18.48.1.74-.13.41-.67.67-1.11.82-.5.09-1.33.12-1.63-.09-.04-.03-.71-.5-1.82-.5-.49,0-1.07.09-1.72.36l-.1.06c-.47.3-1.1.51-1.27.41-.03-.02-.11-.14-.11-.49v-.04Z"/>
      </g>
      <path class="cls-5" d="M77.37,69.74s.51-.13,1.45.52c0,0,1.07.56,2.15,1.16,0,0,.99.2-.52.86,0,0-1.62.05-2.06-.29,0,0-.57-.23-1.57.32,0,0-1.09.7-1.29-.84,0,0,.23-2.03,1.84-1.73Z"/>
      <path class="cls-1" d="M75.99,69.96c.14-.47,1.92-.14,1.92-.14-2.53.27-1.19,2.31-1.19,2.31-.51.98-1.34.3-1.34.3-.6-2.19.61-2.48.61-2.48Z"/>
    </g>
    <g>
      <path class="cls-9" d="M111.49,49.34c5.91,11.34,7.51,18.72,7.51,18.72-26.29-2.79-44.58,5.37-44.58,5.37-.87-13.3,1.17-16.41,1.17-16.41,15.53-13.05,35.91-7.68,35.91-7.68Z"/>
      <path class="cls-19" d="M75.06,56.68c-.09.13-2.14,3.44-1.27,16.79l.06.9.82-.36c.18-.08,18.46-8.05,44.26-5.32l.86.09-.18-.85c-.07-.3-1.68-7.59-7.56-18.87l-.13-.24-.27-.07c-.21-.06-5.26-1.36-12.31-1.08-6.52.27-16,2.02-24.16,8.88l-.07.06-.05.08ZM76.07,57.42c14.16-11.82,32.58-8.1,34.99-7.54,4.57,8.82,6.51,15.25,7.11,17.46-3.5-.34-6.86-.49-10.05-.49-17.43,0-29.91,4.39-33.14,5.66-.64-11.07.83-14.58,1.09-15.1Z"/>
    </g>
    <path class="cls-7" d="M91.32,56.1c8.66,2.83,8.99,10.77,8.99,10.77-12.26-.01-24.96,4.5-24.96,4.5.98-10.11,1.45-11.21,1.45-11.21,7.57-7.51,14.52-4.07,14.52-4.07Z"/>
    <path class="cls-16" d="M89.53,53.5c-6.42,2.35-10.6,7.08-10.6,7.08-1.15,6.46-.81,8.09-.81,8.09,14.17-3.9,20.97-1.79,20.97-1.79-19.07,2.77-24.18,5.26-24.18,5.26-.13-8.2.38-11.57.38-11.57,4.5-4.68,14.24-7.07,14.24-7.07Z"/>
    <path class="cls-7" d="M111.13,53.69s2.01,1.9-1.82,3.24c0,0,1.95.4,5.49,9.29,0,0-3.21-.4-4.76-.21,0,0-7.21-8.2-6.59-14.18,0,0,3.99-.71,7.67,1.87Z"/>
    <path class="cls-16" d="M107.13,52.49c2.18,4.44,3.55,11.01,3.55,11.01-6.71-8.59-5.87-12.09-5.87-12.09l2.32,1.08Z"/>
    <g>
      <path class="cls-19" d="M107.16,51.03c.32.74.63,1.48.92,2.22.6,1.49,1.15,2.98,1.69,4.49.54,1.5,1.04,3.02,1.54,4.53l.73,2.28.7,2.29-.85-2.24-.87-2.22c-.59-1.48-1.2-2.95-1.83-4.41-.63-1.46-1.28-2.91-1.97-4.34-.34-.72-.69-1.43-1.05-2.13-.36-.7-.74-1.41-1.12-2.06l1.09-.62c.38.75.7,1.47,1.03,2.21Z"/>
      <path class="cls-19" d="M83.35,55.72c-.09.46-.14,1.02-.17,1.54-.04.53-.05,1.07-.05,1.6,0,1.07.05,2.15.14,3.23.08,1.08.23,2.15.39,3.23.08.54.18,1.07.27,1.61l.31,1.6-.47-1.57c-.14-.53-.29-1.05-.42-1.58-.26-1.06-.51-2.13-.7-3.21-.19-1.08-.36-2.17-.46-3.27-.05-.55-.09-1.1-.1-1.66-.02-.57-.02-1.1.03-1.72l1.23.19Z"/>
    </g>
    <g>
      <g>
        <path class="cls-9" d="M105.4,53.98c.35-.12.8.28,1.01.9.22.62.11,1.22-.23,1.34-.35.12-.8-.28-1.01-.9-.22-.62-.11-1.22.23-1.34Z"/>
        <path class="cls-19" d="M104.58,53.96c-.2.42-.2,1,0,1.57.29.82.88,1.34,1.48,1.34.11,0,.22-.02.33-.06h0c.69-.24.96-1.16.62-2.13-.2-.57-.56-1.02-.98-1.22-.27-.13-.57-.15-.83-.06-.26.09-.48.29-.61.56ZM105.68,54.8c.05.08.1.17.14.29.04.12.06.23.07.32-.05-.08-.1-.17-.14-.29-.04-.12-.06-.23-.07-.31Z"/>
      </g>
      <path class="cls-7" d="M106.23,55.23c.13.36.06.72-.14.79-.2.07-.47-.17-.6-.53-.13-.36-.06-.72.14-.79s.47.17.6.53Z"/>
      <path class="cls-16" d="M106.13,55.49c.09.25.05.49-.1.54-.14.05-.32-.12-.41-.37-.09-.25-.05-.49.09-.54.14-.05.32.12.41.37Z"/>
    </g>
    <g>
      <g>
        <path class="cls-9" d="M107.29,59.95c.35-.12.8.28,1.01.9.22.62.11,1.22-.23,1.34-.35.12-.8-.28-1.01-.9-.22-.62-.11-1.22.23-1.34Z"/>
        <path class="cls-19" d="M106.35,60.32c-.06.36-.02.77.12,1.17.2.56.56,1.02.98,1.22.16.08.33.12.5.12.11,0,.23-.02.33-.06.69-.24.96-1.16.62-2.13-.2-.56-.56-1.02-.98-1.22-.27-.13-.57-.15-.83-.06-.38.13-.65.48-.74.96ZM107.58,60.77c.05.08.1.17.14.29.04.12.06.23.07.32-.05-.08-.1-.17-.14-.29-.04-.12-.06-.22-.07-.32Z"/>
      </g>
      <path class="cls-7" d="M108.13,61.2c.13.36.06.72-.14.79-.2.07-.47-.17-.6-.53-.13-.36-.06-.72.14-.79.2-.07.47.17.6.53Z"/>
      <path class="cls-16" d="M108.03,61.46c.09.25.04.49-.1.54-.14.05-.32-.12-.41-.37-.09-.25-.04-.49.1-.54.14-.05.32.11.41.37Z"/>
    </g>
    <g>
      <g>
        <path class="cls-9" d="M74.7,56.13c5.21-4.99,11.37-6.25,11.37-6.25,14.65-4.86,26.05-.49,26.05-.49,1.96,3.18,1.26,3.72,1.26,3.72-9.37-3.09-20.45-.98-20.45-.98-9.08,1.24-18.06,7.68-18.06,7.68-.6-.03-.61-.35-.74-.7-.19-.52-.05-1.27.14-1.88.19-.61.43-1.09.43-1.09Z"/>
        <path class="cls-19" d="M73.67,57.03c-.3.95-.34,1.71-.13,2.28.01.04.03.08.04.12.1.31.31.95,1.26.99h.22s.18-.12.18-.12c.09-.06,8.97-6.37,17.78-7.57h.03c.11-.03,11.03-2.05,20.13.95l.32.1.26-.2c.52-.4.75-1.52-1.11-4.54l-.11-.18-.2-.08c-.47-.18-11.76-4.39-26.43.47-.58.12-6.51,1.5-11.64,6.41l-.08.08-.05.1s-.26.53-.47,1.19ZM112.86,52.77h0s0,0,0,0ZM74.86,57.41c.13-.4.27-.75.35-.91,5.01-4.74,10.92-6,10.98-6.01l.07-.02c13.22-4.38,23.87-1.1,25.43-.56.72,1.2,1.01,1.94,1.11,2.37-9.14-2.73-19.34-.88-19.98-.76-8.33,1.14-16.42,6.47-18.04,7.59,0-.01,0-.03-.01-.04-.02-.05-.04-.11-.06-.17-.11-.29-.05-.83.15-1.48Z"/>
      </g>
      <path class="cls-7" d="M97.33,48.43c-15.05,3.68-19.74,8.74-19.74,8.74-1.57.66.09-2.56.09-2.56,9.56-6.09,19.64-6.18,19.64-6.18Z"/>
      <path class="cls-16" d="M81.97,52.74c-2.08,2.42-6.19,5.73-6.19,5.73-.91,1.33-1.25-.36-1.25-.36.62-4.11,7.44-5.38,7.44-5.38Z"/>
      <g>
        <g>
          <path class="cls-9" d="M78.27,54.34c.32-.03.63.39.68.95.05.56-.17,1.04-.5,1.07-.33.03-.63-.39-.68-.95s.17-1.04.5-1.07Z"/>
          <path class="cls-19" d="M78.21,53.71c.27-.03.54.06.77.25.33.27.55.74.59,1.27.08.93-.37,1.68-1.06,1.75-.03,0-.07,0-.1,0-.24,0-.47-.09-.67-.25-.33-.27-.55-.74-.59-1.27-.08-.93.37-1.68,1.06-1.75Z"/>
        </g>
        <path class="cls-7" d="M78.32,54.98c.19-.02.37.23.4.56.03.33-.1.61-.29.63-.19.02-.37-.23-.4-.56-.03-.33.1-.61.29-.63Z"/>
        <path class="cls-16" d="M78.3,55.35c.13-.01.25.16.27.39s-.07.42-.2.43c-.13.01-.25-.16-.27-.39-.02-.23.07-.42.2-.43Z"/>
      </g>
      <g>
        <g>
          <path class="cls-9" d="M100.4,48.4c.37-.1.8.34.97.97.16.63,0,1.23-.37,1.32-.37.1-.8-.34-.97-.97-.16-.63,0-1.23.37-1.32Z"/>
          <path class="cls-19" d="M99.41,48.69c-.1.36-.1.78.01,1.19.15.58.47,1.05.88,1.29.19.11.39.17.59.17.09,0,.17-.01.26-.03.73-.19,1.08-1.08.82-2.08-.26-1-1-1.61-1.73-1.42-.4.1-.7.43-.83.89ZM100.59,49.14c.06.09.12.21.17.38.04.17.05.31.04.42-.06-.09-.12-.21-.17-.38-.04-.17-.05-.31-.04-.42Z"/>
        </g>
        <path class="cls-7" d="M101.15,49.7c.1.37,0,.72-.22.78-.22.06-.47-.2-.57-.57-.1-.37,0-.72.22-.78.22-.06.47.2.57.57Z"/>
        <path class="cls-16" d="M101.02,49.96c.07.26,0,.5-.15.54-.15.04-.33-.14-.39-.39-.07-.26,0-.5.15-.54.15-.04.33.14.39.4Z"/>
      </g>
      <g>
        <g>
          <path class="cls-9" d="M108.28,49.23c.36-.13.83.27,1.06.88.23.61.12,1.22-.24,1.35-.36.13-.83-.27-1.06-.88-.23-.61-.12-1.22.24-1.35Z"/>
          <path class="cls-19" d="M107.44,49.23c-.2.42-.19,1.01,0,1.56.3.81.9,1.32,1.5,1.32.12,0,.24-.02.36-.06.27-.1.49-.31.63-.59.2-.43.2-1,0-1.56-.36-.97-1.16-1.51-1.86-1.25-.27.1-.49.31-.63.59ZM108.88,50.87h0,0ZM108.54,49.96c.07.08.15.2.21.37.06.16.08.3.08.4-.07-.08-.15-.2-.21-.37-.06-.16-.08-.3-.08-.4Z"/>
        </g>
        <path class="cls-7" d="M109.15,50.46c.13.36.07.72-.14.79-.21.08-.49-.16-.62-.52-.13-.36-.07-.72.14-.79.21-.08.49.16.62.52Z"/>
        <path class="cls-16" d="M109.05,50.73c.09.25.05.49-.1.55-.15.05-.34-.11-.43-.36-.09-.25-.05-.49.1-.55.15-.05.34.11.43.36Z"/>
      </g>
      <g>
        <g>
          <path class="cls-9" d="M85.87,50.62c.38-.07.77.4.88,1.05.11.65-.11,1.22-.48,1.29-.38.07-.77-.4-.88-1.05-.11-.65.11-1.22.48-1.29Z"/>
          <path class="cls-19" d="M84.77,52.01c.1.59.38,1.09.77,1.36.2.14.43.22.66.22.06,0,.12,0,.18-.02.74-.13,1.16-.99.99-2.01-.1-.59-.38-1.09-.77-1.36-.26-.18-.55-.25-.84-.2-.74.13-1.16,1-.99,2.01ZM86,51.38c.05.09.1.22.13.39.03.17.02.32,0,.42-.05-.09-.1-.22-.13-.39-.03-.17-.02-.32,0-.42Z"/>
        </g>
        <path class="cls-7" d="M86.51,51.98c.06.38-.06.72-.28.76-.22.04-.45-.24-.52-.62-.06-.38.06-.72.28-.76.22-.04.45.24.52.62Z"/>
        <path class="cls-16" d="M86.36,52.23c.04.26-.04.5-.2.52-.15.03-.31-.16-.36-.43-.04-.26.04-.5.19-.52.15-.03.31.16.36.43Z"/>
      </g>
    </g>
    <g>
      <g>
        <path class="cls-9" d="M77.62,61.37c.36-.03.71.47.76,1.12.06.65-.19,1.21-.55,1.24-.36.03-.7-.47-.76-1.12-.06-.65.19-1.21.55-1.24Z"/>
        <path class="cls-19" d="M76.61,61.51c-.15.33-.21.74-.17,1.16.09.99.66,1.69,1.35,1.69.03,0,.06,0,.09,0h0c.73-.07,1.21-.89,1.12-1.92-.09-1.03-.72-1.75-1.44-1.69-.41.04-.75.31-.95.76ZM77.69,62.56c-.01-.12,0-.23,0-.32.03.09.05.19.06.32.01.12,0,.23,0,.32-.03-.09-.05-.19-.06-.32Z"/>
      </g>
      <path class="cls-7" d="M77.67,62.13c.21-.02.41.28.45.66.03.38-.11.71-.32.73-.21.02-.42-.28-.45-.66-.03-.38.11-.71.32-.73Z"/>
      <path class="cls-16" d="M77.65,62.56c.15-.01.29.19.31.46.02.26-.08.49-.22.5-.15.01-.29-.19-.31-.46-.02-.27.08-.49.22-.5Z"/>
    </g>
    <g>
      <g>
        <path class="cls-9" d="M77.46,66.91c.36-.03.71.47.76,1.12.06.65-.19,1.21-.55,1.24-.36.03-.71-.47-.76-1.12-.06-.65.19-1.21.55-1.24Z"/>
        <path class="cls-19" d="M76.45,67.05c-.15.33-.21.74-.17,1.16.09.99.66,1.69,1.35,1.69.03,0,.06,0,.09,0h0c.73-.07,1.21-.89,1.12-1.92-.09-1.03-.71-1.76-1.44-1.69-.41.04-.75.31-.95.76ZM77.53,68.1c-.01-.12,0-.23,0-.32.03.09.05.19.06.32.01.12,0,.23,0,.32-.03-.09-.05-.19-.06-.32Z"/>
      </g>
      <path class="cls-7" d="M77.52,67.66c.21-.02.41.28.45.66.03.38-.11.71-.32.73-.21.02-.42-.28-.45-.66-.03-.38.11-.71.32-.73Z"/>
      <path class="cls-16" d="M77.5,68.1c.15-.01.29.19.31.46.02.26-.08.49-.22.5-.15.01-.29-.19-.31-.46-.02-.26.08-.49.22-.5Z"/>
    </g>
    <g>
      <g>
        <path class="cls-9" d="M81.49,70.59s.33-3.76,2.29-4.9c0,0,2.7.74,3.52,4.03,0,0,.84,4.23,1.2,7.87,9.05-1.92,17.56-3.15,17.56-3.15-2.05-7.43-3.77-10.14-3.77-10.14,9.92-.81,17.53.71,17.53.71,1.23,1.02.84-.22,1.15.72,4.28,12.87,4.62,22.39,4.62,22.39-3.61,1.05-5.21,2.26-5.21,2.26-9.42,11.86-27.53,18-27.53,18-4.24-.23-5.66-1.71-5.66-1.71-7.31-11.68-11.03-24.5-11.03-24.5,2.72-1.36,4.96-2.31,6.72-2.97l-1.39-8.6Z"/>
        <path class="cls-19" d="M75.87,81.6l-.46.23.14.5c.04.13,3.83,13.03,11.11,24.65l.08.1c.06.07,1.63,1.66,6.07,1.9h.12s.11-.03.11-.03c.18-.06,18.32-6.31,27.76-18.13.31-.21,1.89-1.23,4.96-2.12l.47-.14-.02-.49c0-.1-.4-9.75-4.66-22.56-.14-.41-.23-.68-.57-.78-.09-.03-.25-.05-.43.03-.07-.04-.18-.11-.34-.25l-.12-.1-.15-.03c-.08-.02-7.81-1.53-17.71-.72l-1.03.08.56.87s1.6,2.59,3.51,9.29c-2.16.33-8.98,1.4-16.21,2.91-.39-3.46-1.13-7.2-1.14-7.24-.9-3.63-3.84-4.47-3.97-4.51l-.25-.07-.23.13c-2.21,1.29-2.58,5.22-2.59,5.39v.08s1.31,8.17,1.31,8.17c-1.97.76-4.09,1.7-6.3,2.81ZM76.91,82.48c2.18-1.08,4.26-1.99,6.18-2.71l.48-.18-1.45-9.03c.1-.95.57-3.27,1.74-4.19.63.26,2.24,1.15,2.83,3.48,0,.01.83,4.21,1.18,7.78l.07.7.68-.15c8.93-1.9,17.43-3.13,17.52-3.14l.7-.1-.19-.68c-1.43-5.18-2.7-8.1-3.36-9.43,8.51-.57,15.18.55,16.25.75.22.17.53.39.87.46,3.63,10.97,4.39,19.53,4.52,21.6-3.34,1.03-4.87,2.17-4.94,2.22l-.06.05-.05.06c-8.82,11.1-25.59,17.21-27.13,17.75-3.43-.21-4.84-1.27-5.08-1.48-6.35-10.17-10-21.31-10.77-23.77Z"/>
      </g>
      <path class="cls-7" d="M86.65,69.91l1.26,9.12c13.27-2.76,20.1-3.52,20.1-3.52-2.65-8.68-3.92-10.79-3.92-10.79,3-.33,4.34,1.16,4.34,1.16,6.22,19.98,5.78,27.72,5.78,27.72-5.12,7.06-22.38,13.67-22.38,13.67-5.63-19.29-6.46-25.46-6.46-25.46-1.5-8.98-1.9-15.21-1.9-15.21,1.94-.41,3.19,3.3,3.19,3.3Z"/>
      <path class="cls-7" d="M83.09,74.34c-1.52-4.85.61-6.82.61-6.82.53,5.84,2.12,14.82,2.12,14.82.71,3.18-1.58,4.62-1.58,4.62-2.14,4.42,1.61,7.33,1.61,7.33,4.48,4.35,1.67,10.71,1.67,10.71-7.52-13.13-10.09-22.07-10.09-22.07,4.22-2.73,6.63-3.02,6.63-3.02l-.98-5.58Z"/>
      <g>
        <g>
          <path class="cls-9" d="M83.77,67.43c.36-.06.75.4.86,1.05.12.64-.08,1.22-.44,1.28s-.75-.4-.86-1.05c-.12-.65.08-1.22.44-1.29Z"/>
          <path class="cls-19" d="M82.72,68.83c.17.93.76,1.57,1.41,1.57.06,0,.12,0,.18-.02h0c.4-.07.72-.38.88-.84.12-.34.14-.76.06-1.17-.18-1.02-.86-1.68-1.59-1.55-.72.13-1.13,1-.94,2.01ZM83.93,68.29c.04.08.07.19.09.31.02.12.03.23.02.32-.04-.08-.07-.19-.09-.31-.02-.12-.03-.23-.02-.32Z"/>
        </g>
        <path class="cls-7" d="M84.4,68.8c.07.38-.05.72-.26.76-.21.04-.44-.24-.51-.62-.07-.38.05-.72.26-.75.21-.04.44.24.51.62Z"/>
        <path class="cls-16" d="M84.27,69.04c.05.26-.03.49-.18.52-.15.03-.3-.16-.35-.43-.05-.26.03-.5.18-.52.15-.03.3.16.35.43Z"/>
      </g>
      <g>
        <g>
          <path class="cls-9" d="M106.92,65.28c.34-.13.81.26,1.04.88.23.61.14,1.21-.2,1.34-.34.13-.81-.26-1.04-.88-.23-.61-.14-1.21.2-1.34Z"/>
          <path class="cls-19" d="M106.14,66.85c.3.8.9,1.31,1.49,1.31.12,0,.24-.02.36-.06h0c.69-.26.93-1.18.56-2.15-.37-.97-1.16-1.5-1.84-1.24-.69.26-.93,1.18-.56,2.15ZM107.23,66.09c.05.07.1.17.15.29.04.12.07.22.08.31-.05-.08-.1-.17-.15-.29-.04-.12-.07-.22-.08-.31Z"/>
        </g>
        <path class="cls-7" d="M107.79,66.51c.14.36.08.71-.12.79-.2.08-.47-.15-.61-.52-.14-.36-.08-.71.12-.79.2-.08.47.15.61.51Z"/>
        <path class="cls-16" d="M107.7,66.77c.09.25.06.49-.08.54-.14.05-.33-.11-.42-.36-.09-.25-.06-.49.08-.54.14-.05.33.11.42.36Z"/>
      </g>
      <path class="cls-16" d="M102.74,64.81l1.34-.09c2.47,3.79,4.69,11.24,4.69,11.24-11.61,1.88-20.24,3.74-20.24,3.74l-.65-1.25c5.57-1.28,19.02-3.27,19.02-3.27-2.73-9.61-4.15-10.37-4.15-10.37Z"/>
      <g>
        <g>
          <path class="cls-9" d="M112.84,65.66c.34-.13.81.26,1.04.88.23.61.14,1.21-.2,1.34-.34.13-.81-.26-1.04-.88-.23-.61-.14-1.21.2-1.34Z"/>
          <path class="cls-19" d="M111.91,66.06c-.05.36,0,.77.15,1.17.3.8.9,1.31,1.49,1.31.12,0,.24-.02.36-.06.26-.1.47-.3.6-.58.19-.42.18-1.01-.03-1.57-.15-.39-.38-.74-.66-.97-.37-.31-.8-.41-1.18-.27-.38.14-.64.5-.71.98ZM113.15,66.47c.05.07.1.17.15.29.04.12.07.22.08.31-.05-.07-.1-.17-.15-.29-.04-.12-.07-.22-.08-.31Z"/>
        </g>
        <path class="cls-7" d="M113.71,66.88c.14.36.08.71-.12.79-.2.08-.47-.16-.61-.52-.14-.36-.08-.71.12-.79.2-.08.47.15.61.51Z"/>
        <path class="cls-16" d="M113.62,67.15c.09.25.06.49-.08.55-.14.05-.33-.11-.42-.36-.09-.25-.06-.49.08-.54.14-.05.33.11.42.35Z"/>
      </g>
      <g>
        <g>
          <path class="cls-9" d="M115.02,73.16c.36-.07.75.39.88,1.03.13.64-.06,1.22-.42,1.29-.36.07-.75-.39-.88-1.03-.13-.64.06-1.22.42-1.29Z"/>
          <path class="cls-19" d="M114.22,73.02c-.26.38-.34.97-.23,1.55.08.41.26.79.49,1.07.26.31.59.48.93.48.06,0,.13,0,.2-.02h0c.72-.14,1.11-1.01.91-2.03-.12-.59-.41-1.09-.8-1.35-.25-.17-.54-.23-.81-.18-.27.05-.51.22-.68.47ZM115.19,74.01c.04.08.07.18.1.31s.03.23.03.32c-.04-.08-.07-.18-.1-.31-.02-.12-.03-.23-.03-.32Z"/>
        </g>
        <path class="cls-7" d="M115.68,74.51c.07.38-.04.72-.25.76-.21.04-.44-.23-.52-.61-.07-.38.04-.72.25-.76.21-.04.44.23.52.61Z"/>
        <path class="cls-16" d="M115.54,74.76c.05.26-.02.5-.17.52-.15.03-.3-.16-.36-.42-.05-.26.02-.5.17-.52.14-.03.3.16.36.42Z"/>
      </g>
      <g>
        <g>
          <path class="cls-9" d="M116.4,79.59c.36-.07.75.39.88,1.03.13.64-.06,1.22-.42,1.29-.36.07-.75-.39-.88-1.03-.13-.64.06-1.22.42-1.29Z"/>
          <path class="cls-19" d="M115.59,79.45c-.26.38-.34.96-.23,1.55.18.92.77,1.55,1.42,1.55.06,0,.13,0,.2-.02h0c.72-.14,1.11-1.02.91-2.03-.12-.59-.42-1.09-.8-1.35-.25-.17-.54-.23-.81-.18-.27.05-.51.22-.68.47ZM116.57,80.44c.04.08.07.18.1.31.02.12.03.23.03.32-.04-.08-.07-.18-.1-.31-.02-.12-.03-.23-.03-.32Z"/>
        </g>
        <path class="cls-7" d="M117.05,80.94c.07.38-.04.72-.25.76-.21.04-.44-.23-.52-.61-.07-.38.04-.72.25-.76.21-.04.44.23.52.61Z"/>
        <path class="cls-16" d="M116.92,81.19c.05.26-.02.5-.17.52-.15.03-.31-.16-.36-.42-.05-.26.02-.49.17-.52.14-.03.3.16.36.42Z"/>
      </g>
      <g>
        <g>
          <path class="cls-9" d="M117.69,85.72c.36-.07.75.39.88,1.03.13.64-.06,1.22-.42,1.29-.36.07-.75-.39-.88-1.03-.13-.64.06-1.22.42-1.29Z"/>
          <path class="cls-19" d="M116.89,85.58c-.26.38-.34.97-.23,1.55.18.92.77,1.55,1.42,1.55.06,0,.13,0,.19-.02h0c.4-.08.71-.39.86-.85.11-.34.13-.76.05-1.17-.12-.59-.41-1.09-.8-1.35-.25-.17-.54-.23-.81-.18-.27.05-.51.22-.68.47ZM117.86,86.57c.04.08.07.18.1.31.02.12.03.23.03.32-.04-.08-.07-.18-.1-.31-.02-.12-.03-.23-.03-.32Z"/>
        </g>
        <path class="cls-7" d="M118.34,87.07c.07.38-.04.72-.25.76-.21.04-.44-.23-.52-.61-.07-.38.04-.72.25-.76.21-.04.44.23.52.61Z"/>
        <path class="cls-16" d="M118.21,87.31c.05.26-.02.5-.17.52-.15.03-.3-.16-.36-.42-.05-.26.02-.5.17-.52.15-.03.3.16.36.42Z"/>
      </g>
      <path class="cls-7" d="M115.99,65.4s2.49-.51,2.79.23c0,0,3.12,9.5,4.23,22.46,0,0-1.02,1.19-1.39-1.99,0,0-1.19-8.59-2.98-11.48,0,0-5.9-7.8-2.64-9.23Z"/>
      <path class="cls-16" d="M124.82,87.62c-.99.41-1.88.17-1.88.17-1.44-12.83-4.15-22.16-4.15-22.16l1.63.24c3.46,9.24,4.4,21.74,4.4,21.74Z"/>
      <path class="cls-19" d="M116.87,70.67c.49,2.14.92,4.3,1.31,6.46.38,2.16.73,4.33,1.03,6.5.16,1.08.28,2.17.42,3.26l.37,3.26-.52-3.24c-.19-1.08-.37-2.16-.58-3.23-.4-2.15-.85-4.29-1.33-6.42-.49-2.13-1.02-4.25-1.6-6.35-.59-2.09-1.22-4.2-1.97-6.2l1.18-.43c.68,2.13,1.21,4.25,1.7,6.4Z"/>
      <path class="cls-19" d="M87.99,90.74c.84,2.94,1.74,5.86,2.66,8.78.92,2.92,1.87,5.83,2.84,8.72l-1.19.38c-.88-2.94-1.73-5.88-2.56-8.83-.83-2.95-1.63-5.91-2.38-8.88-.74-2.97-1.47-5.96-1.94-8.99-.47-3.03-.85-6.07-1.08-9.12.35,3.04.85,6.06,1.43,9.06.56,3,1.38,5.94,2.22,8.88Z"/>
    </g>
    <g>
      <path class="cls-7" d="M76.74,72.99s-.7,2.51,1.06,7.97l-1.72.89s-1.78-4.9-1.59-8.13c0,0,.59-1.09,2.24-.74Z"/>
      <path class="cls-19" d="M73.87,73.55v.14c-.21,3.31,1.54,8.17,1.61,8.38l.24.67,2.82-1.46-.16-.5c-1.66-5.16-1.06-7.59-1.05-7.62l.17-.63-.64-.14c-2.09-.45-2.89.99-2.92,1.05l-.07.12ZM75.11,73.94c.12-.13.39-.37.91-.39-.11,1.09-.1,3.41,1.02,7.1l-.61.31c-.45-1.4-1.41-4.67-1.33-7.03Z"/>
    </g>
    <path class="cls-16" d="M83.82,81.25c-3.27,1.18-4.85,1.94-4.85,1.94,1.34,7.22,8.64,22.13,8.64,22.13-4.93-5.25-10.77-23.01-10.77-23.01,2.97-1.58,6.42-2.89,6.42-2.89l.57,1.83Z"/>
    <path class="cls-16" d="M91.37,93.89c-.46,5.69,3.82,6.03,3.82,6.03,4.3,0,6.18,3.03,6.18,3.03-6.46,3.74-8.75,4.12-8.75,4.12-5.21-14.31-7.24-28.63-7.24-28.63.73,4.67,3.87,8.42,3.87,8.42,3.39,2.83,2.11,7.04,2.11,7.04Z"/>
  </g>
  <g>
    <g>
      <path class="cls-9" d="M125.47,86.89s5.82-2.35,13.11-1.87c0,0-2.14,5.68.78,9.46,0,0-5.14.27-9.38.65-1.51.14-3.93,3.8-6.17,5.71-2.6,2.22-8.55-.54-6.32-5.48.31-.68,3.16-6.24,7.99-8.48Z"/>
      <path class="cls-19" d="M116.92,95.11c-1.06,2.35-.56,4.61,1.33,6.03.98.73,2.14,1.11,3.25,1.11,1.01,0,1.97-.31,2.7-.93.89-.76,1.79-1.76,2.65-2.73,1.11-1.24,2.49-2.77,3.17-2.84,4.18-.38,9.31-.65,9.36-.65l1.19-.06-.73-.94c-2.66-3.46-.71-8.81-.69-8.86l.29-.79-.84-.06c-7.35-.48-13.14,1.81-13.39,1.91h-.03c-5.31,2.47-8.26,8.74-8.29,8.8ZM118.06,95.63c.03-.06,2.77-5.88,7.66-8.16.3-.12,5.5-2.11,12.02-1.86-.45,1.6-1.17,5.27.5,8.32-1.74.1-5.28.32-8.33.59-1.17.11-2.48,1.56-3.99,3.25-.84.94-1.71,1.9-2.53,2.61-1.08.92-3.01.82-4.39-.22-.67-.5-2.11-1.96-.95-4.52Z"/>
    </g>
    <path class="cls-7" d="M125.71,89.15s.72-.86,4.69-1.02c0,0-.76,3.23,1.46,6.05,0,0-1.12-.08-3,.49,0,0-2.54,1.98-4.57,4.54,0,0-2.02,2.82-4.63.83,0,0-1.89-1.64,1.74-6.5,0,0,1.45-2.5,4.31-4.39Z"/>
    <g>
      <g>
        <g>
          <path class="cls-11" d="M140.08,85.07c-2.86,5.84.46,9.85.46,9.85l-7.49,1.07c-4.01-6.84.31-12.89.31-12.89,2.7.04,6.72,1.98,6.72,1.98Z"/>
          <path class="cls-6" d="M132.85,82.73c-.05.06-4.5,6.47-.34,13.57l.21.36,9.01-1.29-.71-.86c-.12-.15-3.02-3.79-.38-9.17l.28-.57-.57-.27c-.17-.08-4.18-2-6.98-2.04h-.33s-.19.26-.19.26ZM133.69,83.73c1.93.14,4.45,1.16,5.56,1.65-1.86,4.29-.61,7.57.23,9.06l-6.09.87c-3.01-5.52-.44-10.37.3-11.57Z"/>
        </g>
        <path class="cls-15" d="M138.77,86.09s-1.5,3.48.88,8.06l-6.15,1.1s-3.28-9.01,5.27-9.17Z"/>
        <g>
          <path class="cls-6" d="M136.67,89.54c.18-.26.38-.51.6-.75.22-.23.46-.46.75-.65-.07.34-.2.64-.34.93-.14.29-.31.56-.49.82-.18.26-.38.51-.6.75-.22.23-.46.46-.74.65.07-.34.2-.64.34-.93.14-.29.31-.56.49-.83Z"/>
          <path class="cls-6" d="M137.13,89.34c.16.28.3.56.43.86.12.3.22.61.27.95-.27-.21-.49-.45-.69-.7-.2-.25-.38-.52-.54-.8-.16-.28-.3-.56-.42-.86-.12-.3-.22-.61-.27-.95.27.21.49.45.69.71.2.25.38.52.54.8Z"/>
        </g>
        <g>
          <path class="cls-6" d="M134.13,89.36c.18-.26.38-.51.6-.75.22-.23.46-.46.75-.65-.07.34-.2.64-.34.93-.14.29-.31.56-.49.82-.18.26-.38.51-.6.75-.22.23-.46.46-.75.65.07-.34.2-.64.34-.93.14-.29.31-.56.49-.83Z"/>
          <path class="cls-6" d="M134.6,89.17c.16.28.3.56.42.86.12.3.22.61.27.95-.27-.21-.49-.45-.7-.71-.2-.25-.38-.52-.54-.8-.16-.28-.3-.56-.42-.86-.12-.3-.22-.61-.27-.95.27.21.49.45.7.71.2.25.38.52.54.8Z"/>
        </g>
      </g>
      <g>
        <g>
          <path class="cls-11" d="M141.54,83.8c2.23-.32,5.1-.18,5.1-.18l.81,1.67c.85-.11.94.08.94.08l.68,1.74c.84.2,1.28,1.45,1.28,1.45-.13,2.28,1.32,3.72,1.32,3.72.61.93-2.41,2.17-2.41,2.17.16,1.68-1.81,2.03-1.81,2.03-1.51-.57-4.67.89-4.67.89-5.08-4.19-4.06-9.2-4.06-9.2.33-4.07,2.83-4.36,2.83-4.36Z"/>
          <path class="cls-6" d="M138.1,88.07c-.1.54-.85,5.54,4.28,9.77l.3.25.36-.16c1.13-.52,3.27-1.22,4.19-.88l.16.06.17-.03c.8-.14,2.2-.78,2.33-2.24.79-.36,2.17-1.1,2.44-1.97.1-.33.05-.67-.13-.95l-.08-.1s-1.24-1.29-1.13-3.25v-.13s-.03-.12-.03-.12c-.05-.14-.48-1.29-1.39-1.73l-.6-1.52c-.2-.41-.72-.47-1.13-.46l-.79-1.62-.37-.02c-.12,0-2.95-.14-5.22.19-.25.03-2.99.51-3.36,4.89ZM139.33,88.28v-.07c.29-3.45,2.21-3.78,2.29-3.79l-.08-.62.09.62c1.69-.24,3.78-.21,4.61-.19l.84,1.74.45-.06c.18-.02.3-.03.4-.03l.69,1.75.32.08c.34.08.66.62.8.94-.06,2.06,1,3.48,1.37,3.92-.2.31-1.15.91-2.07,1.29l-.43.18.04.46c.09.9-.8,1.23-1.16,1.32-.27-.07-.56-.11-.87-.11-1.36,0-2.98.61-3.72.92-4.41-3.85-3.56-8.3-3.56-8.35Z"/>
        </g>
        <path class="cls-15" d="M141.96,86.55c1.76-.91,3.7-.47,3.7-.47,1.49.52.93,1.65.93,1.65,1.72.07,2.55,2.29,2.55,2.29.53,1.56,1.64,2.56,1.64,2.56-.08.78-1.44.91-1.44.91-2.45-2.56-4.33-1.28-4.33-1.28,1.45.19,2.74,1.59,2.74,1.59.86,1.08-.5,1.86-.5,1.86-3.32-.1-4.06.8-4.06.8-3.8-4.65-2.3-7.93-2.3-7.93.24-1.02,1.06-1.98,1.06-1.98Z"/>
        <g>
          <g>
            <path class="cls-6" d="M148.62,94.51h0s0,0,0,0c0,0-.01.02,0,0Z"/>
            <path class="cls-6" d="M145.15,90.86c.02.11.04.21.06.32.06.21.14.4.27.56.12.16.28.28.46.35.17.08.38.11.54.09h0s.04,0,.04,0c.35.04.7.08,1.05.17.35.08.71.19,1.06.36.35.18.7.43.96.84.13.2.22.44.25.7.02.13.02.26,0,.38,0,.06-.01.13-.03.19,0,.03-.01.06-.03.1-.01.04-.02.06-.04.13l-1.12-.54s0,0,0-.01c.01-.01.01-.04.02-.05.01-.04.03-.08.03-.13.01-.09,0-.18-.03-.28-.07-.2-.24-.41-.47-.59-.24-.17-.51-.33-.81-.45-.3-.13-.61-.23-.93-.33h.05c-.28-.03-.51-.12-.72-.26-.21-.14-.38-.33-.49-.54-.11-.21-.16-.45-.18-.67,0-.11,0-.23,0-.34l.04-.33.03.33Z"/>
          </g>
          <path class="cls-6" d="M147.95,90.83c.22-.12.44-.23.67-.32-.34.35-.62.75-.9,1.14-.28.4-.55.8-.81,1.21l-.89-.88c.42-.27.84-.53,1.27-.78.21-.13.43-.25.65-.37Z"/>
          <polygon class="cls-6" points="149.11 87.73 145.38 87.28 149.04 86.48 149.11 87.73"/>
          <polygon class="cls-6" points="147.45 85.91 144.6 85.29 147.46 84.66 147.45 85.91"/>
        </g>
      </g>
    </g>
  </g>
  <g>
    <g>
      <path class="cls-9" d="M141.16,64.43c11.02-2.64,18.87-2.14,18.87-2.14,7.57,21.13,7.38,26.58,7.38,26.58,3.2,17.64-12.04,31.46-12.24,31.42-.16.13-20.01-5.27-25.16-22.45,0,0-2.64-4.77-5.48-27.04,0,0,1.67-2.79,16.63-6.38Z"/>
      <path class="cls-19" d="M123.99,70.49l-.11.19.03.21c2.68,21.03,5.18,26.53,5.52,27.2,4.72,15.63,21.1,21.48,24.34,22.49.76.24,1.15.34,1.38.35.02,0,.04,0,.06,0,.04,0,.07,0,.11-.01.06-.01.11-.04.16-.07.21-.12.51-.39,1.09-.95,2.42-2.37,14.35-15.01,11.47-31.07,0-.75-.27-6.78-7.42-26.74l-.14-.39-.41-.03c-.08,0-8.07-.48-19.06,2.15-14.78,3.55-16.83,6.36-17.02,6.66ZM125.19,71.01c.63-.6,3.79-3.01,16.11-5.97,9.39-2.25,16.54-2.19,18.28-2.14,7.3,20.45,7.21,25.9,7.21,25.95v.07s0,.07,0,.07c1.59,8.77-1.58,16.52-4.51,21.48-3,5.07-6.42,8.43-7.26,9.16h-.01s0,0,0,0c-1.09-.27-5.65-1.71-10.63-4.86-4.87-3.09-11.21-8.56-13.77-17.1l-.05-.12s-2.61-5.03-5.37-26.53Z"/>
    </g>
    <path class="cls-7" d="M156.93,63.21c6.94,19.85,7.07,25.81,7.07,25.81,3.07,16.52-10,29.18-10.17,29.14-.14.11-17.52-5.24-22.28-21.36,0,0-2.38-4.5-5.2-25.33,0,0,4.65-3.59,14.89-5.81,10.14-2.66,15.7-2.44,15.7-2.44Z"/>
    <path class="cls-16" d="M141.25,65.33c6.34-1.52,11.6-1.96,14.82-2.07-2.93.32-6.96.93-11.79,2.09-14.08,3.38-16.15,6.42-16.15,6.42,2.67,20.96,5.16,25.46,5.16,25.46,4.85,16.17,20.96,20.42,21.11,20.3.11.02,4.97-3.02,10.37-12.34-3.53,8.66-9.82,14.31-9.94,14.28-.15.12-19.39-5.11-24.38-21.75,0,0-2.56-4.62-5.31-26.2,0,0,1.62-2.71,16.11-6.18Z"/>
    <g>
      <g>
        <path class="cls-18" d="M141.29,81.26c-1.81-5.55-3.95-9.85-3.95-9.85,3.55-3.79,9.19-1.89,9.19-1.89-1.46,3.51-.96,6.99-.64,10.51,6.48-1.03,11.12-4.48,11.12-4.48,4.44,4,1.67,7.68,1.67,7.68-4.56-.47-8.77-.63-12.29.18,4.18,17.65,10.39,23.16,10.39,23.16-4.98,8.12-10.88,2.93-10.88,2.93.1-9.97-2.69-20.01-3.73-24.86-6.37,2.29-9.96,4.4-9.96,4.4-3.69-3.56-1.32-7.76-1.32-7.76,3.18.6,7.53.66,10.39-.03Z"/>
        <path class="cls-13" d="M130.49,81.06s-2.5,4.56,1.41,8.33l.26.25.31-.18s3.45-2,9.38-4.18c.14.65.31,1.38.5,2.19,1.27,5.47,3.19,13.73,3.1,22.04v.21s.16.14.16.14c.09.08,2.02,1.75,4.66,1.75.3,0,.61-.02.93-.07,2.27-.34,4.28-1.93,5.99-4.72l.21-.34-.29-.26c-.06-.05-6.05-5.56-10.13-22.46,3.65-.74,7.93-.45,11.67-.07l.26.03.16-.21s2.97-4.07-1.74-8.31l-.29-.26-.31.23s-4.39,3.22-10.42,4.3c-.01-.14-.03-.28-.04-.43-.31-3.22-.6-6.27.69-9.36l.19-.46-.48-.16c-.24-.08-5.97-1.94-9.69,2.02l-.22.24.15.29s2.02,4.08,3.76,9.29c-2.65.53-6.62.5-9.69-.08l-.33-.06-.16.29ZM131.16,81.82c3.39.59,7.54.55,10.23-.1l.49-.12-.16-.48c-1.53-4.69-3.31-8.53-3.83-9.61,2.72-2.64,6.65-2,8-1.67-1.15,3.14-.85,6.28-.56,9.31.03.31.06.62.09.93l.05.5.5-.08c5.63-.89,9.83-3.54,11-4.34,3.17,3.06,1.94,5.81,1.48,6.58-3.91-.39-8.37-.66-12.16.22l-.46.11.11.46c3.71,15.66,8.95,21.8,10.25,23.13-1.51,2.35-3.24,3.68-5.13,3.96-2.26.34-4.13-.91-4.67-1.33.05-8.35-1.86-16.58-3.13-22.03-.24-1.03-.45-1.93-.61-2.7l-.11-.52-.5.18c-5.28,1.9-8.7,3.69-9.72,4.25-2.54-2.69-1.54-5.71-1.14-6.65Z"/>
      </g>
      <path class="cls-20" d="M145.63,69.79c-1.83-.24-4.33-.06-6.59,2.28,0,0,2.05,4.2,3.71,9.28-.96.23-1.75.21-1.2.08-.44-3.17-3.61-9.89-3.61-9.89,3.45-3.67,7.71-1.79,7.69-1.75Z"/>
      <path class="cls-20" d="M157.35,76.65c-1.44.91-5.15,2.99-9.89,3.76,0-.05,0-.1-.01-.15,5.56-1.22,9.41-4.08,9.41-4.08.18.16.34.32.49.47Z"/>
      <path class="cls-20" d="M158.86,82.28c-.15.29-.27.45-.27.45-3.86-.4-7.45-.57-10.57-.08,0-.01,0-.02,0-.03,3.13-.73,6.83-.67,10.85-.33Z"/>
      <path class="cls-20" d="M147.79,108.65s4.41,2.21,8.24-1.97c.1.1.15.15.15.15-4.58,6.89-9.77,2.41-9.77,2.41,0-9.93-2.71-19.96-3.8-24.93.45-.17.63-.28,1.11-.46.98,4.63,4.15,15.28,4.06,24.81Z"/>
      <path class="cls-20" d="M132.16,82.19c-.29.9-1.35,3.01.75,5.74-.68.41-.82.61-.82.61-2.94-3.59-1.18-6.67-1.18-6.67.39.12.81.22,1.25.32Z"/>
    </g>
  </g>
</svg>