<?xml version="1.0" encoding="UTF-8"?>
<svg id="Layer_1" data-name="Layer 1" xmlns="http://www.w3.org/2000/svg" version="1.1" viewBox="0 0 150 150">
  <defs>
    <style>
      .cls-1 {
        fill: #e88b62;
      }

      .cls-1, .cls-2, .cls-3, .cls-4, .cls-5, .cls-6, .cls-7, .cls-8, .cls-9, .cls-10, .cls-11, .cls-12, .cls-13, .cls-14, .cls-15, .cls-16, .cls-17, .cls-18, .cls-19, .cls-20, .cls-21, .cls-22, .cls-23, .cls-24, .cls-25, .cls-26, .cls-27 {
        stroke-width: 0px;
      }

      .cls-2 {
        fill: #f7d581;
      }

      .cls-3 {
        fill: #f3e0d8;
      }

      .cls-4 {
        fill: #fccaa7;
      }

      .cls-5 {
        fill: #f4956e;
      }

      .cls-6 {
        fill: #382823;
      }

      .cls-7 {
        fill: #fbe6a9;
      }

      .cls-8 {
        fill: #ba684e;
      }

      .cls-9 {
        fill: #1a2418;
      }

      .cls-10 {
        fill: #1b1312;
      }

      .cls-11 {
        fill: #c7715d;
      }

      .cls-12 {
        fill: #96414c;
      }

      .cls-13 {
        fill: #ccc7ca;
      }

      .cls-28 {
        opacity: .64;
      }

      .cls-29 {
        opacity: .85;
      }

      .cls-30 {
        opacity: .78;
      }

      .cls-14 {
        fill: #2b1e1a;
      }

      .cls-15 {
        fill: #fce4a9;
      }

      .cls-16 {
        fill: #9584ab;
      }

      .cls-17 {
        fill: #0f2824;
      }

      .cls-18 {
        fill: #644b46;
      }

      .cls-19 {
        fill: #54a047;
      }

      .cls-20 {
        fill: #eaa498;
      }

      .cls-21 {
        fill: #683a57;
      }

      .cls-22 {
        fill: #ee333e;
      }

      .cls-23 {
        fill: #fff;
      }

      .cls-24 {
        fill: #2d5c2d;
      }

      .cls-25 {
        fill: #cd1e54;
      }

      .cls-26 {
        fill: #695a64;
      }

      .cls-27 {
        fill: #f1749b;
      }
    </style>
  </defs>
  <path class="cls-11" d="M25.59,66.52s-8.29,8.39-8.64,19.88c0,0-3.82-5.91,2.34-15.04,0,0,3.71-4.84,6.29-4.84Z"/>
  <g>
    <path class="cls-20" d="M77.48,103.77s3.35,4.55,9.18,7.64c0,0,1.05-5.37,5.07-6.9,0,0-3.82-2.64-6.89-4.94-1.09-.82-1.22-4.78-2.04-7.3-.95-2.93-6.82-3.63-7.44,1.22-.09.67-.53,6.29,2.12,10.29Z"/>
    <path class="cls-21" d="M87.06,112.26l-.67-.36c-5.87-3.11-9.23-7.61-9.37-7.8l-.02-.02c-2.91-4.41-2.21-10.61-2.21-10.67.3-2.31,1.75-3.8,3.88-4,2.1-.19,4.1.96,4.66,2.68.32,1,.54,2.19.75,3.35.26,1.47.6,3.31,1.09,3.68,3.03,2.27,6.84,4.9,6.88,4.93l.88.61-1,.38c-3.69,1.4-4.71,6.43-4.72,6.48l-.15.75ZM77.94,103.44c.17.23,3.23,4.22,8.35,7.12.41-1.44,1.6-4.6,4.32-6.15-1.29-.9-3.9-2.74-6.11-4.39-.85-.64-1.16-2.37-1.53-4.38-.2-1.12-.41-2.27-.71-3.2-.39-1.21-1.92-2.05-3.48-1.91-.75.07-2.54.5-2.87,3.02,0,.06-.66,5.82,2.02,9.89Z"/>
  </g>
  <g>
    <path class="cls-12" d="M82.02,108.73s.43-5.06,5.42-7.44l5.91,3.65s-4.81,1.95-5.91,7.71c0,0-4.01-2.7-5.42-3.92Z"/>
    <path class="cls-21" d="M87.84,113.59l-.71-.48c-.16-.11-4.06-2.73-5.47-3.96l-.22-.19.02-.28c.02-.22.51-5.41,5.74-7.9l.28-.13,7.11,4.4-1.03.42c-.18.08-4.54,1.92-5.57,7.29l-.16.84ZM82.62,108.5c1.12.92,3.33,2.46,4.45,3.22,1.03-3.93,3.7-5.97,5.13-6.82l-4.79-2.97c-3.76,1.94-4.62,5.54-4.79,6.56Z"/>
  </g>
  <path class="cls-11" d="M87.37,102.05s-6.44,3.56-.36,8.3c0,0,.8-3.32,5-5.34l-4.64-2.97Z"/>
  <g>
    <path class="cls-21" d="M87.71,105.02c.11.29.15.58.19.87.03.29.04.58.03.86-.01.29-.04.57-.09.86-.06.29-.13.57-.26.85-.11-.29-.15-.58-.19-.87-.03-.29-.04-.58-.03-.86.01-.29.04-.57.09-.86.06-.29.13-.57.25-.85Z"/>
    <path class="cls-21" d="M85.89,107.54c.22-.22.46-.39.71-.54.25-.15.51-.28.77-.39.27-.11.54-.21.82-.28.28-.07.57-.13.88-.13-.22.22-.46.39-.71.54-.25.15-.51.28-.77.39-.27.11-.54.21-.82.28-.28.07-.57.13-.88.13Z"/>
  </g>
  <g>
    <path class="cls-21" d="M85.79,103.78c.11.29.15.58.19.87.03.29.04.58.03.86-.01.29-.04.57-.09.86-.06.29-.13.57-.25.85-.11-.29-.15-.58-.19-.87-.03-.29-.04-.58-.03-.86.01-.29.04-.57.09-.86.06-.29.13-.57.25-.85Z"/>
    <path class="cls-21" d="M83.97,106.3c.22-.22.46-.39.71-.54.25-.15.51-.28.77-.39.27-.11.54-.21.82-.28.28-.07.57-.13.88-.13-.22.22-.46.39-.71.54-.25.15-.51.28-.77.39-.27.11-.54.21-.82.28-.28.07-.57.13-.88.13Z"/>
  </g>
  <path class="cls-4" d="M81.67,91.92s-2.01-2.1-3.61,3.02c0,0,.04,4.09,1.89,7,0,0,1.18,1.4,2,2,0,0,1.35-2.04,4.23-2.63,0,0-1.93-1.26-2.23-1.82,0,0-.98-3.11-1.4-5.73,0,0-.12-1.44-.87-1.84Z"/>
  <g>
    <path class="cls-20" d="M102.15,107.21l-.18,3.36s.77,1.37-.08,3.57l-1.41,1.27s-2.65,1.82-3.34-.43c0,0-1.72,1.37-2.76-.51,0,0-2.98.63-4.43-1.71,0,0-.83-5.69,1.51-7.03l1.63-.59,2.23.35s4.49-2.07,6.82,1.71Z"/>
    <path class="cls-21" d="M98.53,116.67c-.23,0-.46-.03-.69-.11-.3-.1-.67-.32-.95-.77-.38.17-.9.32-1.46.21-.53-.1-.97-.41-1.33-.91-.94.1-3.31.11-4.63-2.03l-.06-.1-.02-.12c-.09-.62-.81-6.12,1.79-7.6l.09-.04,1.77-.64,2.21.35c1.77-.75,5.39-1.23,7.38,2l.09.15-.18,3.4c.2.47.65,1.88-.12,3.89l-.05.13-1.57,1.41c-.14.1-1.19.79-2.27.79ZM97.44,114.02l.24.79c.17.55.44.64.53.68.6.21,1.58-.31,1.92-.53l1.28-1.15c.66-1.83.07-2.96.07-2.97l-.08-.14.18-3.34c-2.07-3.12-5.85-1.42-6.01-1.35l-.15.07-2.26-.35-1.44.52c-1.56.96-1.42,4.77-1.21,6.32,1.24,1.86,3.67,1.38,3.77,1.36l.41-.08.2.36c.22.4.48.63.78.68.54.11,1.13-.34,1.14-.34l.65-.52Z"/>
  </g>
  <g>
    <path class="cls-18" d="M103.51,119.52s-1.89-8.55,1.23-14.65c0,0,.85-1.3,1.97.01,0,0-1.64,5.73-1.83,7.18,0,0-.04,5.85.21,7.71,0,0-1.54,1.13-1.58-.25Z"/>
    <path class="cls-6" d="M106.84,104.48s-2.08,6.96-1.65,15.12c0,0-1.95,1.62-3.23.06,0,0-1.24-2.66-.94-5.78l-9.55-.47s-.79-2.33,1.29-4.74l9.09.66s1.94-8.43,4.98-4.84Z"/>
    <path class="cls-14" d="M91.14,108.8s-.89-2.85-2.31-2.59l-1.82.89s1.55,2.82-1.99,5.21l.87,2.12s1.86.65,4.31-1.89l.93-3.74Z"/>
    <path class="cls-6" d="M106.84,104.48s-2.08,6.96-1.65,15.12c0,0-1.95,1.62-3.23.06,0,0-1.24-2.66-.94-5.78l-9.55-.47s-.79-2.33,1.29-4.74l9.09.66s1.94-8.43,4.98-4.84Z"/>
    <path class="cls-10" d="M93.45,109.07s-.89-1.19-1.97-.54c0,0-1.99,2.13-.92,4.55,0,0,.82.79,2.16.52,0,0-1.04-.98.72-4.54Z"/>
    <g>
      <path class="cls-12" d="M92.62,113.67l8.64.79c-.43,3.51,1.02,4.66,1.02,4.66,1.62,1.99,2.91.48,2.91.48-.31-7.55,1.39-15.43,1.39-15.43,0,0-2.68-1.84-4.72,5.14l-8.33-.6s-1.82-.94-2.39-.25c0,0-.98-1.83-1.76-2.25,0,0-1.74-.09-2.37.89,0,0,1.03,3.59-1.99,5.21l.87,2.12s2.02.7,4.24-1.63c0,0,.27.94,2.48.88Z"/>
      <path class="cls-21" d="M104,120.71h-.03c-.74,0-1.45-.41-2.1-1.2-.28-.26-1.45-1.53-1.23-4.54l-8.04-.73c-1.33.03-2.08-.29-2.5-.61-2.27,2.04-4.3,1.37-4.39,1.34l-.24-.08-1.16-2.82.45-.24c2.57-1.38,1.75-4.43,1.71-4.56l-.07-.24.13-.21c.78-1.22,2.66-1.16,2.87-1.15h.13s.11.07.11.07c.65.35,1.32,1.35,1.7,1.99.82-.21,1.91.25,2.32.45l7.77.56c.92-2.94,2.09-4.69,3.5-5.19.88-.31,1.64-.04,1.95.18l.31.21-.08.37c-.02.08-1.68,7.9-1.38,15.28v.22s-.14.17-.14.17c-.07.08-.66.74-1.62.74ZM92.64,113.11l9.25.84-.07.58c-.38,3.09.81,4.15.82,4.16l.08.08c.3.37.77.81,1.27.82.27-.01.49-.12.63-.22-.22-6.39.96-13.02,1.32-14.83-.16-.03-.38-.02-.63.08-.62.23-1.82,1.18-2.9,4.87l-.13.44-8.9-.64-.1-.05c-.78-.4-1.58-.52-1.69-.39l-.53.66-.4-.74c-.35-.65-.99-1.63-1.43-1.96-.4,0-1.18.1-1.58.47.3,1.4.2,3.88-1.9,5.3l.58,1.4c.53.07,1.9.07,3.43-1.54l.81-.85.13,1.06c.06.09.45.53,1.92.49h.03ZM90.68,112.64h0Z"/>
    </g>
    <g>
      <path class="cls-11" d="M106.07,105.97s-1.74,8.94-.86,13.36c0,0-.69,1.71-1.65-.37,0,0-1.39-3.58.81-11.17,0,0,1.05-3.85,1.88-3.29,0,0,.29.45-.18,1.47Z"/>
      <path class="cls-21" d="M104.51,120.41c-.74,0-1.19-.96-1.34-1.27-.07-.18-1.42-3.83.79-11.47.26-.97.98-3.27,1.86-3.6.23-.09.47-.06.67.08l.07.05.05.07c.07.11.38.69-.12,1.83-.13.71-1.68,9.02-.85,13.15l.02.12-.05.12c-.04.09-.39.91-1.07.93h-.02ZM105.91,105.06c-.33.46-.8,1.63-1.13,2.84-2.13,7.37-.84,10.87-.82,10.91.33.72.56.76.56.76h0c.05,0,.17-.14.26-.3-.83-4.49.82-13.02.89-13.38l.03-.1c.15-.31.2-.56.22-.73Z"/>
    </g>
    <g>
      <g>
        <path class="cls-16" d="M105.14,108.5s30.4-2.05,43.58,8.4c0,0-12.79,7.96-44.31-1.39,0,0-.41-4.89.73-7.01Z"/>
        <path class="cls-26" d="M132.08,120.62c-6.67,0-15.89-1.02-27.84-4.56l-.37-.11-.03-.38c-.02-.21-.41-5.08.8-7.33l.15-.27.31-.02c1.25-.09,30.77-1.95,43.97,8.52l.63.5-.68.42c-.14.08-3.39,2.07-10.57,2.89-1.78.2-3.9.35-6.37.35ZM104.94,115.08c15.92,4.67,26.87,4.8,33.27,4.08,5.06-.57,8.13-1.75,9.45-2.36-12.46-9.04-38.92-7.94-42.16-7.76-.73,1.72-.62,4.93-.56,6.04Z"/>
      </g>
      <path class="cls-13" d="M105.47,111.16s29.01-.03,41.82,5.65c0,0-13.19,6.98-42.3-1.59,0,0,.05-3.44.48-4.06Z"/>
      <path class="cls-23" d="M147.29,116.81s-11.1,7.03-42.3-1.59l.07-2.16s24.15,6.34,39.81,4.02c0,0-6.99-3.35-24.55-5.33,0,0,13.17-2,26.97,5.05Z"/>
      <path class="cls-26" d="M132.76,113.61c-2.31-.3-4.63-.57-6.94-.82-2.32-.24-4.63-.48-6.95-.65-2.32-.19-4.64-.33-6.96-.41-2.32-.08-4.64-.08-6.94.03l.51-.49-.16,1.83-.43-.58c1.6.34,3.21.66,4.83.95,1.61.31,3.23.59,4.86.86,3.24.53,6.5,1.02,9.76,1.41,3.26.41,6.54.71,9.82.95,3.28.2,6.57.29,9.87.24-3.28.33-6.59.42-9.9.37-3.3-.08-6.6-.3-9.9-.61-3.29-.35-6.57-.75-9.83-1.28-1.63-.26-3.26-.54-4.89-.84-1.63-.31-3.24-.63-4.86-.99l-.47-.1.04-.48.17-1.83.04-.47.47-.02c2.35-.1,4.7-.03,7.04.08,2.34.13,4.67.36,6.99.61,2.32.28,4.63.59,6.94.97,2.3.37,4.6.79,6.88,1.28Z"/>
    </g>
    <path class="cls-11" d="M89.72,110.82c-.08.2-.49.5-1.84.85,0,0,1.29-1.37.21-2.97,0,0,.47,1.93-2.5,3.65l.79,1.51s1.01.71,3.99-1.55c0,0,.28-1.14-.3-1.6-.12-.09-.29-.04-.35.1Z"/>
  </g>
  <path class="cls-21" d="M98.41,109.65c-.19.04-.32.05-.48.06-.15,0-.31,0-.46,0-.31-.02-.62-.09-.92-.22-.3-.13-.57-.34-.77-.6-.21-.26-.3-.56-.37-.85l.49.06c-.16.23-.34.41-.53.58-.19.17-.4.32-.63.44-.23.12-.47.2-.72.24-.25.04-.5,0-.74-.06.24.01.48,0,.71-.08.22-.08.43-.19.61-.33.18-.15.34-.31.48-.49.14-.18.27-.38.35-.57l.23-.49.27.55c.1.21.2.41.37.54.15.13.33.23.53.27.2.04.42.05.64.02.11-.01.22-.03.33-.06.1-.02.23-.06.3-.09l.32,1.08Z"/>
  <g>
    <g>
      <path class="cls-20" d="M97.04,115.78s2.36-1.55,1.05-3.82c0,0,3.4,1.57,3.42-1.41,0,0,1.64,2.87.22,4.66l-.66.68s-2.54,2.07-4.03-.1Z"/>
      <path class="cls-21" d="M98.8,117.34c-.13,0-.25,0-.38-.03-.74-.11-1.36-.52-1.84-1.21l-.32-.47.48-.31c.2-.13,1.88-1.32.88-3.07l-.88-1.53,1.6.74c.38.17,1.6.58,2.2.2.28-.18.42-.55.42-1.11l.02-2.09,1.04,1.82c.07.13,1.81,3.22.17,5.29l-.04.04-.71.72c-.06.04-1.26,1.02-2.62,1.02ZM97.85,115.85c.22.19.46.3.73.34.94.14,1.96-.61,2.11-.73l.62-.63c.58-.75.49-1.79.26-2.62-.12.15-.27.28-.44.39-.64.41-1.46.38-2.12.24.22,1.3-.47,2.37-1.16,3.01Z"/>
    </g>
    <g>
      <path class="cls-20" d="M96.86,115.89s-1.91,1.71-3.63-.67c0,0,1.48.05.88-2.66,0,0-.48-2.56,1.01-2.64,0,0,2.55.59,3.14,2.29,0,0,1.09,1.57-1.41,3.68Z"/>
      <path class="cls-21" d="M95.29,117.05c-.09,0-.18,0-.27-.01-.85-.09-1.61-.59-2.25-1.48l-.68-.94,1.15.04s.14-.01.25-.16c.11-.14.33-.59.06-1.81-.04-.2-.32-1.84.39-2.74.28-.36.68-.56,1.15-.58h.08s.08.01.08.01c.12.03,2.81.67,3.53,2.59.22.39,1.02,2.18-1.55,4.35-.1.09-.88.73-1.93.73ZM94.16,115.43c.31.28.64.44.97.48.74.09,1.35-.44,1.35-.45h.01c2.04-1.73,1.33-2.89,1.3-2.94l-.03-.05-.03-.07c-.39-1.1-1.97-1.72-2.65-1.9-.13.02-.2.08-.25.15-.31.4-.25,1.4-.17,1.82.28,1.26.18,2.2-.31,2.78-.06.07-.13.14-.19.19Z"/>
    </g>
    <g>
      <path class="cls-20" d="M89.84,114.37s-.55-3.77,1.1-4.5c0,0,2.76-1,3.47,3.48,0,0-.23,1.66-1.44,2.18,0,0-1.77.37-3.13-1.16Z"/>
      <path class="cls-21" d="M92.48,116.13c-.73,0-2.01-.2-3.06-1.39l-.11-.13-.02-.17c-.06-.43-.55-4.22,1.43-5.1l.04-.02s1.14-.4,2.25.25c1.02.6,1.68,1.84,1.97,3.67v.08s0,.08,0,.08c-.01.08-.29,1.98-1.78,2.62l-.11.03s-.25.05-.6.05ZM90.37,114.12c.98,1,2.16.9,2.43.87.73-.36.98-1.36,1.04-1.64-.24-1.42-.73-2.38-1.41-2.78-.59-.35-1.18-.2-1.28-.17-.88.43-.91,2.58-.77,3.73Z"/>
    </g>
    <g>
      <path class="cls-4" d="M93.99,113.87s-.05,1.66-1.3,1.61c0,0-1.68-.21-1.86-1.21,0,0,.34-.98,1.28-.98,0,0-1.05-2.63.99-2.02,0,0,.97,1.04.89,2.59Z"/>
      <path class="cls-21" d="M94.31,113.9c-.28-.04-.54-.08-.8-.14-.26-.06-.52-.12-.78-.19-.26-.08-.51-.16-.76-.28-.24-.11-.49-.25-.64-.47.22.14.47.18.71.19.25.01.5,0,.74-.01.25-.02.5-.05.74-.09.24-.04.5-.09.73-.14l.05,1.13Z"/>
    </g>
    <g>
      <path class="cls-4" d="M97.56,114.36s-1.17,1.78-2.4,1.55c0,0-.61.29-.65-.73,0,0,.61-1.76,1.54-1.62,0,0-.94-2.8.99-1.9,0,0,1.29,1.06.51,2.69Z"/>
      <path class="cls-21" d="M97.88,114.43c-.27-.08-.52-.16-.77-.25-.25-.09-.5-.19-.74-.3-.24-.11-.48-.24-.71-.38-.22-.14-.45-.32-.57-.55.19.17.44.24.68.29.24.05.49.08.74.09.25.01.5.02.75.02.25,0,.5-.01.74-.04l-.11,1.12Z"/>
    </g>
    <g>
      <path class="cls-4" d="M101.5,114.7s-1.17,1.78-2.4,1.55c0,0-.58.16-.97-.49,0,0,.61-1.76,1.54-1.62,0,0-.11-2.67,1.83-1.77,0,0,.3.8,0,2.32Z"/>
      <path class="cls-21" d="M101.77,115.05c-.27-.08-.52-.16-.77-.25-.25-.09-.5-.19-.74-.3-.24-.11-.48-.24-.71-.38-.22-.14-.45-.32-.57-.55.19.17.44.24.68.3.24.05.49.08.74.09.25.01.5.02.75.02.25,0,.5-.01.74-.04l-.11,1.12Z"/>
    </g>
    <g>
      <g>
        <path class="cls-20" d="M100.66,105.72s2.04.98,2.11,4.06l-.2,1.12s.38,1.86-3.89,1.39c0,0-1.63.32-2.07-.72,0,0-.87-1.6,2.51-2.76"/>
        <path class="cls-21" d="M99.94,112.93c-.38,0-.8-.02-1.25-.07-.79.13-2.13.04-2.6-1.05-.07-.15-.29-.7-.02-1.4.34-.88,1.3-1.6,2.86-2.13l.37,1.07c-1.58.54-2.03,1.14-2.17,1.44-.13.3-.03.52-.03.53l.02.04c.24.57,1.43.38,1.44.38l.08-.02h.09c2.22.26,2.92-.18,3.12-.38.17-.17.15-.33.15-.35l-.02-.11.02-.09.19-1.06c-.09-2.63-1.72-3.48-1.79-3.51l.49-1.01c.1.05,2.35,1.17,2.43,4.56v.06s-.2,1.1-.2,1.1c.01.23-.02.71-.42,1.16-.52.56-1.45.85-2.77.85Z"/>
      </g>
      <path class="cls-4" d="M101.67,111.61s-2.18.62-3.67.02c0,0-1.24-1.78,2.3-2.02,0,0,1.36-.36,1.37,2Z"/>
    </g>
  </g>
  <g>
    <path class="cls-20" d="M61.17,125.83l-.67-1.21,4.73-6.26.8-1.27c.02-.06-.08.02-.06-.04l.43-.94c.85-1.52-.69-4.43-2.19-5.73-1.99-1.74-4.41-.96-6.3,2.02h0s.05-.38,0,0l-2.85,6.72s-1.18,2.68-2.65,5.01c0,0-1.45,1.83.02,2.87,0,0,7.31,3.14,7.76,3.32,0,0,1.5.62,2.11.43,0,0,1.62-1.12-1.13-4.91Z"/>
    <path class="cls-21" d="M62.02,131.34c-.75,0-1.72-.38-2.05-.51-.44-.17-7.46-3.19-7.76-3.32l-.1-.06c-.5-.35-.8-.82-.88-1.38-.15-1.07.56-2.07.72-2.28,1.43-2.26,2.59-4.88,2.6-4.91l2.82-6.64v-.1s.2.03.2.03l-.13-.08c1.17-1.85,2.57-2.95,4.03-3.16,1.09-.16,2.17.19,3.11,1.02,1.65,1.44,3.32,4.57,2.32,6.41l-.25.56.04.04-.18.43-.83,1.31-4.51,5.97.47.86c1.29,1.8,1.85,3.3,1.65,4.46-.14.81-.59,1.15-.68,1.22l-.07.05-.08.03c-.13.04-.29.06-.45.06ZM52.71,126.49c2.54,1.09,7.34,3.15,7.68,3.29.61.26,1.33.45,1.64.43.18-.25.66-1.33-1.31-4.05l-.04-.06-.84-1.53,4.93-6.54.59-.94.1-.28.45-.98c.64-1.15-.62-3.77-2.07-5.03-.7-.61-1.44-.86-2.21-.75-1.11.16-2.25,1.09-3.22,2.61l-2.83,6.68c-.05.12-1.22,2.75-2.7,5.09l-.03.05c-.17.21-.59.89-.51,1.44.03.23.15.42.37.58Z"/>
  </g>
  <path class="cls-4" d="M62.59,129.2s-.95-3.34-2.5-3.89c0,0-3.1-1.95-5.41.49,0,0-1.11,1.13,6.43,3.71,0,0,1.67.51,1.47-.32Z"/>
  <g>
    <path class="cls-12" d="M61.41,132.07l-9.67-3.82c-.52-.21-.78-.8-.58-1.33h0c.21-.52.8-.78,1.33-.58l9.67,3.82c.52.21.78.8.58,1.33h0c-.21.52-.8.78-1.33.58Z"/>
    <path class="cls-21" d="M61.88,132.62c-.16,0-.31-.03-.47-.09l-10-3.95c-.31-.12-.56-.36-.7-.68-.14-.31-.14-.66-.02-.97l.13-.32c.26-.65,1-.97,1.65-.72l10,3.95c.65.26.97,1,.72,1.65l-.13.32c-.12.31-.37.56-.68.7-.16.07-.33.11-.51.11ZM52.01,126.65c-.17,0-.33.1-.4.27l-.13.32c-.04.11-.04.22,0,.33.05.1.13.19.23.23l10,3.95c.11.04.22.04.33,0,.1-.05.19-.13.23-.23l.13-.32c.09-.22-.02-.47-.24-.55l-9.99-3.95c-.05-.02-.1-.03-.16-.03Z"/>
  </g>
  <g>
    <g>
      <path class="cls-11" d="M53.55,122.04s2.86,1.85,2.53,5.63l-2.11-.96s1-1.21-1.4-3.23l.98-1.44Z"/>
      <path class="cls-21" d="M56.45,128.3l-3.16-1.43.35-.43s.66-.95-1.34-2.64l-.29-.25,1.42-2.09.35.22c.13.08,3.07,2.03,2.72,6.02l-.05.59ZM54.53,126.5l1.16.52c-.02-2.37-1.39-3.82-2.04-4.37l-.52.76c1.54,1.41,1.56,2.5,1.4,3.09Z"/>
    </g>
    <g>
      <path class="cls-11" d="M61.64,126.16s-2.37-.98-4.99,1.76l2.11.96s.77-1.31,3.87-.85l-.99-1.88Z"/>
      <path class="cls-21" d="M58.94,129.43l-3-1.36.41-.43c2.78-2.92,5.35-1.91,5.45-1.86l.14.06,1.46,2.75-.83-.13c-2.74-.41-3.43.63-3.44.64l-.19.33ZM57.39,127.8l1.27.57c.4-.38,1.34-.96,3.23-.84l-.54-1.02c-.47-.13-2.08-.4-3.95,1.29Z"/>
    </g>
  </g>
  <g>
    <path class="cls-20" d="M63.58,119.84l-.43-.36c-2.54,1.23-5.63.17-6.86-2.37l-1.1-2.27c-1.23-2.54-.17-5.63,2.37-6.86h0c2.54-1.23,5.33.22,7.33,3.13l.78.89c1.23,2.54.45,6.6-2.09,7.84Z"/>
    <path class="cls-21" d="M60.92,120.55c-.63,0-1.26-.11-1.88-.32-1.44-.5-2.6-1.52-3.26-2.89l-1.1-2.27c-.66-1.36-.75-2.91-.25-4.35.5-1.44,1.52-2.6,2.89-3.26,2.66-1.29,5.73-.03,8.02,3.29l.81.93.03.07c1.33,2.73.57,7.17-2.35,8.59l-.33.16-.44-.37c-.68.28-1.41.42-2.13.42ZM59.44,108.1c-.56,0-1.1.12-1.63.38-1.09.53-1.92,1.46-2.32,2.62-.4,1.16-.33,2.4.2,3.49l1.1,2.27c.53,1.09,1.46,1.92,2.62,2.32,1.16.4,2.4.33,3.49-.2l.33-.16.41.35c1.98-1.27,2.53-4.73,1.55-6.84l-.77-.89c-1.47-2.15-3.27-3.32-4.99-3.32Z"/>
  </g>
  <path class="cls-20" d="M58.2,120.08l-.25,1.18q-2.76.35-1.11-5.56l1.06-2.5c1.01-1.65,3.32-2.1,5.13-.99h0c1.81,1.11,3.71,2.66,2.69,4.32l-2.06,3.07c-1.01,1.66-3.66,1.6-5.47.49Z"/>
  <path class="cls-4" d="M64,118.18h0c-1.42.52-3.01-.21-3.54-1.63l-1.19-3.22c-.52-1.42.21-3.01,1.63-3.54h0c1.42-.52,3.2.81,3.73,2.23l1.2,2.02c.52,1.42-.42,3.61-1.84,4.13Z"/>
  <path class="cls-4" d="M59.45,118.46l-2.18,4.84s1.45.24,2.63,1.04l5.15-6.72s-3.31-2.34-5.6.84Z"/>
  <g>
    <path class="cls-20" d="M79.35,123.82l-.91-1.04,3.25-7.14.5-1.41c.01-.06-.08.04-.07-.02l.21-1.01c.5-1.67-1.64-4.17-3.38-5.12-2.32-1.26-4.52.02-5.71,3.34h0s-.03-.38,0,0l-1.32,7.18s-.57,2.87-1.5,5.46c0,0-1.02,2.1.64,2.79,0,0,7.81,1.48,8.29,1.56,0,0,1.6.29,2.16-.03,0,0,1.34-1.44-2.16-4.55Z"/>
    <path class="cls-21" d="M80.6,129.09c-.56,0-1.11-.09-1.34-.13-.47-.07-7.98-1.5-8.3-1.56l-.11-.03c-.56-.23-.96-.63-1.16-1.15-.38-1.01.1-2.15.21-2.38.9-2.51,1.47-5.33,1.47-5.36l1.31-7.1v-.1s.18-.02.18-.02l-.14-.05c.74-2.07,1.87-3.44,3.25-3.96,1.03-.39,2.16-.28,3.26.32,1.92,1.05,4.23,3.74,3.65,5.75l-.13.6.04.03-.08.46-.52,1.46-3.1,6.81.65.74c1.65,1.47,2.52,2.82,2.58,4,.04.82-.33,1.25-.4,1.33l-.06.06-.07.04c-.3.17-.75.23-1.19.23ZM71.24,126.31c2.72.51,7.84,1.48,8.21,1.54.65.12,1.39.14,1.69.07.12-.29.35-1.44-2.16-3.67l-.05-.05-1.15-1.31,3.4-7.45.37-1.05.04-.3.23-1.06c.38-1.26-1.42-3.55-3.11-4.46-.81-.44-1.59-.53-2.32-.25-1.04.4-1.96,1.55-2.58,3.25l-1.32,7.13c-.03.13-.59,2.95-1.53,5.55l-.02.06c-.12.25-.38,1-.18,1.52.08.22.24.37.49.49Z"/>
  </g>
  <path class="cls-4" d="M81.47,126.81s-1.66-3.05-3.28-3.25c0,0-3.45-1.23-5.17,1.65,0,0-.84,1.35,7.08,2.23,0,0,1.74.14,1.37-.63Z"/>
  <g>
    <path class="cls-12" d="M80.94,129.86l-10.27-1.63c-.56-.09-.94-.62-.85-1.17h0c.09-.56.61-.94,1.17-.85l10.27,1.63c.56.09.94.62.85,1.17h0c-.09.56-.62.94-1.17.85Z"/>
    <path class="cls-21" d="M81.24,130.32c-.07,0-.13,0-.2-.02h0l-10.61-1.68c-.69-.11-1.17-.76-1.06-1.46l.05-.35c.11-.69.76-1.17,1.46-1.06l10.61,1.68c.69.11,1.17.76,1.06,1.46l-.05.34c-.1.62-.64,1.07-1.26,1.07ZM81.17,129.47c.23.04.45-.12.49-.35l.05-.34c.04-.23-.12-.45-.35-.49l-10.61-1.68c-.23-.04-.45.12-.49.35l-.05.34c-.04.23.12.45.35.49l10.61,1.68Z"/>
  </g>
  <g>
    <g>
      <path class="cls-11" d="M71.09,121.78s3.19,1.18,3.69,4.94l-2.27-.48s.71-1.4-2.06-2.85l.64-1.62Z"/>
      <path class="cls-21" d="M75.28,127.26l-3.4-.71.25-.49s.44-1.07-1.88-2.28l-.34-.18.94-2.35.39.14c.14.05,3.44,1.32,3.97,5.28l.08.59ZM73.01,125.92l1.24.26c-.53-2.31-2.19-3.43-2.94-3.83l-.34.85c1.81,1.05,2.07,2.1,2.03,2.71Z"/>
    </g>
    <g>
      <path class="cls-11" d="M79.88,124.05s-2.53-.44-4.49,2.8l2.27.48s.47-1.45,3.59-1.66l-1.38-1.62Z"/>
      <path class="cls-21" d="M77.94,127.81l-.36-.06-2.85-.6.31-.51c2.08-3.45,4.81-3.02,4.92-3l.15.03,2.02,2.37-.84.06c-2.74.19-3.22,1.37-3.22,1.38l-.13.34ZM76.09,126.56l1.36.29c.31-.45,1.1-1.23,2.97-1.52l-.75-.88c-.49-.02-2.12.06-3.58,2.11Z"/>
    </g>
  </g>
  <g>
    <path class="cls-20" d="M80.4,117.45l-.5-.26c-2.21,1.76-5.46,1.38-7.21-.83l-1.57-1.97c-1.76-2.21-1.38-5.46.83-7.21h0c2.21-1.76,5.26-.94,7.83,1.47l.96.7c1.76,2.21,1.87,6.35-.34,8.1Z"/>
    <path class="cls-21" d="M76.72,118.86c-1.68,0-3.34-.74-4.47-2.15l-1.57-1.97c-.94-1.19-1.37-2.68-1.19-4.19.17-1.52.92-2.87,2.11-3.81,2.32-1.84,5.59-1.27,8.54,1.48l.99.73.05.06c.93,1.17,1.47,2.89,1.44,4.58-.03,1.82-.72,3.39-1.87,4.31l-.29.23-.51-.27c-.98.68-2.11,1.01-3.24,1.01ZM74.67,106.8c-.87,0-1.68.27-2.37.81-.95.76-1.55,1.84-1.69,3.06-.14,1.22.2,2.41.95,3.36l1.57,1.97c1.57,1.97,4.45,2.3,6.42.74l.29-.23.48.25c.73-.73,1.15-1.88,1.18-3.21.03-1.41-.4-2.83-1.15-3.8l-.95-.7c-1.59-1.48-3.25-2.25-4.73-2.25Z"/>
  </g>
  <path class="cls-20" d="M75.2,118.85v1.21q-2.6.94-2.28-5.19l.49-2.67c.63-1.84,2.79-2.77,4.79-2.08h0c2.01.69,4.2,1.8,3.57,3.63l-1.34,3.44c-.63,1.84-3.22,2.35-5.23,1.66Z"/>
  <path class="cls-4" d="M80.45,115.74h0c-1.27.82-2.99.45-3.81-.83l-1.85-2.88c-.82-1.27-.45-2.99.83-3.81h0c1.27-.82,3.3.1,4.12,1.37l1.61,1.71c.82,1.27.37,3.61-.9,4.43Z"/>
  <path class="cls-4" d="M76.08,117l-1.08,5.2s1.47-.08,2.8.44l3.57-7.68s-3.74-1.56-5.29,2.04Z"/>
  <g>
    <path class="cls-25" d="M75.79,103.57c-2.05,1.35-10.38,1.12-10.38,1.12,0,0,12.05-.46,0,0-12.04.46-21.34-7.44-21.34-7.44,0,0,.11.47,0,0-.11-.47,2.48-7.41,2.48-7.41,0,0,2.46-6.33,9.83-9.16,0,0,10.5,7.58,17.96,3.47,0,0,2.54,1.98,2.58,3.42l-1,15.4.09.38s-.17.19-.22.23Z"/>
    <path class="cls-21" d="M64.39,105.27c-11.61,0-20.3-7.28-20.68-7.6l.13-.15-.27.06-.45-1.88.6.51c.28-.99.92-2.89,2.3-6.58.11-.27,2.64-6.6,10.15-9.49l.28-.11.25.18c.1.07,10.3,7.32,17.35,3.44l.33-.18.29.23c.28.22,2.75,2.19,2.8,3.84v.03s0,.03,0,.03l-1,15.32.13.58-.19.22c-.22.25-.3.3-.34.33h0c-2.12,1.4-9.73,1.24-10.68,1.21-.35.01-.69.02-1.03.02ZM44.68,97.01c1.51,1.19,10.09,7.53,20.72,7.12l5.35-.2v.1c1.95-.13,3.81-.39,4.64-.87l-.03-.14,1.01-15.46c-.05-.77-1.2-1.99-2.09-2.74-7.07,3.55-16.28-2.36-17.96-3.51-6.82,2.76-9.2,8.67-9.23,8.73-1.06,2.85-2.18,6.04-2.41,6.97Z"/>
  </g>
  <g class="cls-28">
    <path class="cls-27" d="M51.58,86.39s5.77,6.26,10.52,7.26c0,0-2.45,3.25-8.03,6.2,0,0-2.97.61-6.68-3.42,0,0,1.03-4.55,4.19-10.04Z"/>
  </g>
  <g>
    <g>
      <path class="cls-24" d="M61.6,104.24c-1.99.31-8.28-2.04-8.28-2.04l.95-.61c10.28-5.26,16.49-15.97,16.49-15.97,1.71-.39,3.6-1.17,3.6-1.17l1.41,1.54s3.23,3.03.98,18.32l-.67.24-.58-.22s-.25,1.05-13.82-.02"/>
      <path class="cls-9" d="M71.33,105.35c-2.12,0-5.2-.13-9.7-.48v-.06c-2.12.28-7.86-1.83-8.51-2.07l-1.05-.39,1.95-1.25c10.01-5.13,16.2-15.65,16.26-15.75l.12-.21.24-.05c1.64-.37,3.49-1.13,3.51-1.14l.36-.15,1.67,1.82c.33.34,3.32,3.89,1.13,18.79l-.05.33-1.18.42-.52-.2c-.54.22-1.69.41-4.22.41ZM61.51,103.68l.14.9.07-.84c10.3.81,12.75.38,13.28.21l.09-.39.99.38.15-.05c2.06-14.31-.83-17.47-.85-17.49l-.03-.03-1.15-1.25c-.6.23-1.86.69-3.08.99-.94,1.54-7.07,11.08-16.54,15.95,2.13.74,5.66,1.82,6.92,1.62Z"/>
    </g>
    <g class="cls-29">
      <path class="cls-17" d="M52.55,103.26s9.68-4.15,18.99-17.59l1.9-.69s1.75.83,1.36,1.4c-6.23,9.22-10.64,13.27-16.51,17.81l-5.74-.92Z"/>
    </g>
    <g class="cls-29">
      <path class="cls-17" d="M61.2,105.81s9.61-7.69,15.27-17.41l.76,5.21s-7.19,10.22-12.08,12.85l-3.96-.65Z"/>
    </g>
    <path class="cls-17" d="M76.87,98.44s-2.98,5.53-5.87,6.95l5.18.54.69-7.48Z"/>
    <g class="cls-30">
      <path class="cls-19" d="M58.95,99.18s9.75,2.68,17.74,1.44l.35-3.04s-6.5.48-14.45-1.04c0,0-2.05,1.83-3.65,2.64Z"/>
    </g>
    <g class="cls-30">
      <path class="cls-19" d="M64.6,94.2s6.49,1.49,12.53.69l-.12-3.44s-3.04.36-9.6-.27c0,0-.86,1.13-2.82,3.02Z"/>
    </g>
  </g>
  <g>
    <g>
      <path class="cls-24" d="M43.81,105.13s25.48,2.81,33.56-4.11l1.5,6.9s-6.6,5.53-20.52,5.8c0,0-9.74.54-15.11-1.91l.57-6.68Z"/>
      <path class="cls-9" d="M55.96,114.33c-3.27,0-9.12-.27-12.95-2.01l-.36-.16.65-7.65.57.06c.25.03,25.33,2.71,33.13-3.98l.72-.61,1.77,8.15-.26.22c-.28.23-6.91,5.66-20.87,5.93-.11,0-1.03.05-2.4.05ZM43.84,111.45c5.25,2.18,14.39,1.7,14.48,1.7,12.06-.24,18.57-4.49,19.92-5.47l-1.23-5.67c-8.17,5.83-28.87,4.11-32.68,3.74l-.48,5.7Z"/>
    </g>
    <g class="cls-29">
      <path class="cls-17" d="M44,105.53l2.98.26-.62,6.56s-2-.26-3.05-.85l.7-5.97Z"/>
    </g>
    <g class="cls-29">
      <path class="cls-17" d="M49.56,106.14c-.04.25-.64,6.76-.64,6.76l3.06.34s.31-6.73.48-7.15l-2.89.05Z"/>
    </g>
    <g class="cls-29">
      <path class="cls-17" d="M54.49,106.04s-.4,6.36-.2,7.3l2.67.07s.08-4.53.36-7.2l-2.83-.17Z"/>
    </g>
    <g class="cls-29">
      <polygon class="cls-17" points="59.29 105.96 59.26 113.5 62.52 113.11 62.18 105.77 59.29 105.96"/>
    </g>
    <g class="cls-29">
      <path class="cls-17" d="M75.62,102.8l1.17,5.89,1.84-1.04-1.24-6.04s-1.65.94-1.77,1.2Z"/>
    </g>
    <g class="cls-30">
      <path class="cls-19" d="M64.13,108.05c-11.25,1.36-20.04-.49-20.04-.49l-.27,2.28c7.22,2.45,20.52.73,20.52.73l-.21-2.52Z"/>
    </g>
    <g class="cls-30">
      <path class="cls-19" d="M74.65,105.46s1.29-.17,3.09-1.41l.32,1.92s-.8,1.19-3.12,1.75l-.29-2.26Z"/>
    </g>
  </g>
  <g>
    <g>
      <path class="cls-24" d="M64.14,105.29s.41,4.98,1.07,9.45c0,0,5.3-.02,9.98-2.5l-1.29-9.01s-7.77,1.73-9.76,2.07Z"/>
      <path class="cls-9" d="M64.73,115.3l-.07-.48c-.66-4.43-1.07-9.43-1.08-9.48l-.04-.52.51-.09c1.96-.33,9.66-2.05,9.73-2.07l.59-.13,1.44,10.01-.35.19c-4.75,2.52-10.02,2.57-10.24,2.57h-.49ZM64.75,105.76c.12,1.32.46,4.97.95,8.4,1.35-.07,5.28-.44,8.88-2.24l-1.15-8.01c-1.71.38-6.58,1.45-8.68,1.85Z"/>
    </g>
    <g class="cls-29">
      <path class="cls-17" d="M67.69,105.03l1.12,8.87-3.13.27s-1.05-6.58-1.08-8.51l3.08-.64Z"/>
    </g>
    <g class="cls-29">
      <path class="cls-17" d="M70.92,104.51l1.32,8.53s1.81-.23,2.44-1.12l-1.29-8.13-2.47.72Z"/>
    </g>
    <g class="cls-30">
      <path class="cls-19" d="M64.91,108.82s3.41-.25,9.13-1.86l.55,2.87s-5.29,1.98-9.22,1.96l-.47-2.96Z"/>
    </g>
  </g>
  <g>
    <g>
      <path class="cls-16" d="M77.22,108.22s-17.19,5.35-34.2-4.13c0,0-.59-.86-.5-1.49,0,0,.49-3.81.72-4.62.2-.68.52-.88,1.08-.33,0,0,8.2,8.03,32.97,4.51,0,0,.41-1.45,1.06.13,0,0,.1,5.96-1.13,5.93Z"/>
      <path class="cls-21" d="M65.33,110.25c-6.37,0-14.52-1.19-22.58-5.68l-.12-.06-.08-.11c-.12-.17-.71-1.08-.59-1.89.05-.38.5-3.87.74-4.7.06-.22.25-.87.83-1.02.57-.15,1.03.3,1.19.45.08.08,8.3,7.72,32.17,4.41.14-.29.4-.64.83-.66.7-.04,1.03.78,1.16,1.09l.04.1v.11c.02,1.2,0,5.21-.99,6.2-.21.21-.44.28-.62.3-.64.19-5.34,1.48-11.99,1.48ZM43.42,103.66c16.57,9.16,33.47,4.07,33.64,4.02l.09-.03h.02c.37-.41.66-2.76.63-5.19l-.06.2-.36.05c-24.75,3.51-33.1-4.33-33.44-4.67-.03-.03-.07-.06-.09-.08-.02.04-.04.1-.06.17-.18.63-.57,3.49-.7,4.54-.04.26.17.72.33.99Z"/>
    </g>
    <path class="cls-13" d="M78.06,103.07c-.66-1.16-1.03-.1-1.03-.1-22.58,2.62-31.94-3.86-31.94-3.86-.15-.11-.31.09-.42.06.09,1.91.33,4.87,3.72,6.97,18.82,5.89,28.68,1.53,28.68,1.53,1.19.03.99-4.6.99-4.6Z"/>
    <path class="cls-23" d="M46.38,99.83s11.4,5.64,30.37,3.12c0,0,1.62-.94,1.39.8,0,0,.09,3.1-.81,3.93,0,0,.47-.06-.79-2.98,0,0-19.12,2.77-29.39-3.53,0,0-2.93-2.32-.77-1.34Z"/>
  </g>
  <g>
    <g>
      <path class="cls-16" d="M73.56,106.81c-.17,2.66-2.47,4.68-5.12,4.51-2.66-.17-4.68-2.47-4.51-5.12.17-2.66,2.47-4.68,5.12-4.51,2.66.17,4.68,2.46,4.51,5.12Z"/>
      <path class="cls-21" d="M68.75,111.89c-.12,0-.24,0-.35-.01-1.44-.09-2.75-.74-3.7-1.82-.95-1.08-1.42-2.47-1.33-3.9.19-2.97,2.76-5.22,5.72-5.03,1.44.09,2.75.74,3.7,1.82.95,1.08,1.42,2.47,1.33,3.9-.09,1.44-.74,2.75-1.82,3.7-.99.87-2.24,1.34-3.55,1.34ZM68.74,102.24c-2.23,0-4.1,1.74-4.25,3.99-.07,1.14.3,2.23,1.05,3.09.75.85,1.79,1.37,2.93,1.44,1.14.08,2.23-.3,3.09-1.05.85-.75,1.37-1.79,1.44-2.93h0c.07-1.14-.3-2.23-1.05-3.09-.75-.85-1.79-1.37-2.93-1.44-.09,0-.18,0-.28,0Z"/>
    </g>
    <path class="cls-13" d="M72.92,106.86c-.14,2.25-1.97,3.97-4.08,3.84-2.11-.14-3.7-2.07-3.55-4.33.14-2.25,1.97-3.97,4.08-3.84,2.11.14,3.7,2.07,3.55,4.33Z"/>
    <g>
      <g>
        <path class="cls-16" d="M72.47,106.34c.09,1.73-1.17,3.25-2.82,3.39-1.65.14-3.07-1.15-3.16-2.88-.1-1.73,1.17-3.25,2.82-3.39,1.65-.14,3.07,1.15,3.16,2.88Z"/>
        <path class="cls-21" d="M69.4,110.16c-.79,0-1.54-.28-2.14-.81-.72-.62-1.14-1.5-1.19-2.48-.11-1.95,1.33-3.67,3.21-3.83.89-.08,1.75.21,2.43.79.72.62,1.14,1.5,1.19,2.48.11,1.95-1.33,3.67-3.21,3.83-.1,0-.19.01-.28.01ZM69.55,103.87c-.07,0-.14,0-.21,0-1.42.12-2.51,1.44-2.43,2.95.04.75.36,1.42.9,1.89.5.44,1.14.64,1.8.59,1.42-.12,2.52-1.44,2.43-2.95-.04-.75-.36-1.42-.9-1.89-.45-.39-1.01-.6-1.59-.6Z"/>
      </g>
      <path class="cls-13" d="M72.07,106.53c-.05,1.49-1.08,2.67-2.29,2.63-1.21-.04-2.15-1.27-2.1-2.76.05-1.49,1.08-2.67,2.29-2.63,1.21.04,2.15,1.27,2.1,2.76Z"/>
      <path class="cls-23" d="M72.07,106.56c-.07,1.12-.79,1.99-1.6,1.94-.81-.05-1.41-1-1.34-2.13.07-1.12.79-1.99,1.6-1.94s1.41,1,1.34,2.13Z"/>
    </g>
  </g>
  <g>
    <path class="cls-20" d="M48.79,77.95s-5.61-.72-11.86,1.36c0,0,3.16,4.46,1.48,8.43,0,0,4.55-.94,8.33-1.57,1.35-.22,4.3,2.42,6.69,3.57,2.78,1.34,7.33-2.42,4.26-6.22-.43-.53-4.18-4.73-8.9-5.58Z"/>
    <path class="cls-21" d="M54.69,90.58c-.53,0-1.04-.11-1.51-.33-.95-.46-1.96-1.13-2.94-1.77-1.25-.83-2.8-1.86-3.41-1.75-3.73.62-8.27,1.56-8.31,1.57l-1.05.22.42-.99c1.54-3.64-1.39-7.85-1.42-7.89l-.44-.62.72-.24c6.3-2.1,11.88-1.41,12.11-1.38h.03c5.2.94,9.2,5.73,9.24,5.78,1.46,1.81,1.54,3.89.21,5.57-.93,1.18-2.33,1.84-3.64,1.84ZM46.9,85.59c1.03,0,2.4.91,3.97,1.94.94.63,1.92,1.27,2.8,1.7,1.15.56,2.81.03,3.78-1.2.47-.59,1.39-2.19-.2-4.16-.04-.04-3.75-4.5-8.54-5.37-.29-.03-5.28-.58-10.91,1.12.76,1.29,2.22,4.33,1.46,7.37,1.54-.31,4.68-.93,7.4-1.38.08-.01.17-.02.26-.02Z"/>
  </g>
  <g>
    <path class="cls-12" d="M42.06,77.81s3.36,3.81,1.63,9.06l-6.72,1.75s1.92-4.82-1.49-9.6c0,0,4.72-1.03,6.58-1.21Z"/>
    <path class="cls-21" d="M36.03,89.43l.41-1.03c.07-.19,1.75-4.61-1.42-9.06l-.5-.7.83-.18c.19-.04,4.78-1.04,6.65-1.22l.28-.03.19.21c.15.16,3.56,4.11,1.74,9.61l-.1.29-8.1,2.1ZM36.41,79.39c2.12,3.46,1.76,6.81,1.38,8.42l5.46-1.42c1.2-4.06-.81-7.17-1.43-8-1.44.17-4.08.71-5.4.99Z"/>
  </g>
  <path class="cls-11" d="M43.2,86.28s1.88-7.11-5.76-6c0,0,1.85,2.87.4,7.3l5.35-1.31Z"/>
  <g>
    <path class="cls-21" d="M40.81,84.48c-.28-.12-.53-.29-.76-.47-.23-.18-.44-.37-.64-.58-.2-.21-.39-.43-.56-.66-.17-.24-.32-.49-.44-.77.28.12.53.29.76.47.23.18.44.37.64.58.2.21.39.43.56.66.17.24.33.49.44.77Z"/>
    <path class="cls-21" d="M40.25,81.42c0,.31-.04.6-.1.89-.06.28-.15.56-.25.83-.1.27-.22.53-.36.79-.14.25-.3.5-.51.73,0-.31.04-.6.1-.89.06-.28.15-.56.25-.83.1-.27.22-.53.36-.79.14-.25.3-.5.51-.73Z"/>
  </g>
  <g>
    <path class="cls-21" d="M43.04,83.95c-.28-.12-.53-.29-.76-.47-.23-.18-.44-.37-.64-.58-.2-.21-.39-.43-.56-.66-.17-.24-.33-.49-.44-.77.28.12.53.29.76.47.23.18.44.37.64.58.2.21.39.43.56.66.17.24.33.48.44.77Z"/>
    <path class="cls-21" d="M42.48,80.89c0,.31-.04.6-.1.89-.06.28-.15.56-.25.83-.1.27-.22.53-.36.79-.14.25-.3.5-.51.73,0-.31.04-.6.1-.89.06-.28.15-.56.25-.83.1-.27.22-.53.36-.79.14-.25.3-.5.51-.73Z"/>
  </g>
  <path class="cls-4" d="M44.77,80.14s1.4,2.65.1,5.61c0,0,.96-.32,2.73-.25,0,0,2.66,1.15,5.02,2.92,0,0,2.41,2,4.23-.33,0,0,1.27-1.86-3-5.28,0,0-1.83-1.85-4.76-2.84,0,0-.82-.59-4.32.18Z"/>
  <g>
    <g>
      <path class="cls-20" d="M34.2,79.03s2.24-.31,3.46,3.16c0,0,2.03,4.14-1.45,8.95,0,0-3.09-.55-4.28.28,0,0-1.8.15-2.05-1.36,0,0-2.92-.39-2.59-1.34,0,0,.93-1.59.3-3.55,0,0,.1-1.18.79-1.55l.2-1.67s.04-.18.81-.28l.33-1.64s2.47-.77,4.49-1Z"/>
      <path class="cls-21" d="M31.77,91.99c-.76,0-1.93-.3-2.33-1.43-.77-.14-2.15-.47-2.58-1.17-.16-.26-.2-.57-.1-.86l.05-.1s.79-1.41.25-3.09l-.03-.11v-.11c.02-.14.13-1.24.83-1.82l.17-1.46c.08-.4.52-.58.88-.66l.32-1.59.32-.1c.1-.03,2.54-.79,4.59-1.02.22-.03,2.72-.24,4.04,3.5.21.45,2,4.64-1.51,9.5l-.21.29-.35-.06c-1.11-.2-3.13-.32-3.86.19l-.13.09h-.15c-.07.02-.14.02-.21.02ZM27.86,88.86c.24.23,1.21.53,2.1.65l.41.06.07.41c.13.81.99.89,1.32.89,1.17-.68,3.32-.46,4.19-.34,2.97-4.36,1.22-8.05,1.2-8.09l-.03-.06c-1.05-3-2.83-2.79-2.85-2.79h-.01c-1.53.18-3.35.68-4.07.89l-.34,1.71-.4.05c-.16.02-.27.04-.35.06l-.2,1.69-.26.14c-.28.15-.43.69-.48,1,.53,1.78-.08,3.26-.31,3.73Z"/>
    </g>
    <path class="cls-4" d="M35.84,83.01s2.06,2.52-.2,7.45c0,0-.85-.62-3.73.23,0,0-1.36-.37-.86-1.5,0,0,.8-1.51,2.03-2.01,0,0-1.94-.69-3.49,2.1,0,0-1.22.2-1.47-.47,0,0,.74-1.13.85-2.61,0,0,.22-2.13,1.71-2.58,0,0-.74-.86.44-1.65,0,0,1.59-.83,3.34-.43,0,0,.93.66,1.38,1.49Z"/>
    <g>
      <path class="cls-21" d="M29.61,90.71c-.04-.05-.05-.07-.07-.1-.02-.03-.03-.05-.04-.08-.03-.05-.05-.11-.07-.16-.04-.11-.07-.22-.08-.34-.03-.23,0-.46.06-.66.13-.41.39-.71.65-.95.27-.23.55-.41.84-.55.29-.15.59-.27.88-.38h.03s0-.01,0-.01c.14-.02.32-.1.45-.2.14-.1.25-.25.32-.41.07-.17.1-.36.1-.55,0-.1-.01-.19-.02-.29l-.05-.29.11.28c.03.1.05.19.07.29.03.2.04.41,0,.63-.05.21-.15.42-.3.59-.15.17-.33.3-.57.39h.04c-.25.15-.51.3-.74.49-.23.18-.44.38-.61.58-.16.21-.27.43-.28.62,0,.09,0,.18.03.25.01.04.03.07.05.1.01.01.02.03.03.04,0,0,.01.02.01.02,0,0,.02.01,0,0l-.86.73Z"/>
      <path class="cls-21" d="M31.58,88.16c-.32-.29-.65-.59-.98-.87-.34-.28-.67-.57-1.05-.79.22.02.44.07.66.12.22.05.43.11.65.17.43.12.86.25,1.29.39l-.57.97Z"/>
      <polygon class="cls-21" points="28.27 83.07 31.65 82.94 28.49 84.18 28.27 83.07"/>
      <polygon class="cls-21" points="29.24 81.13 31.87 81.02 29.52 82.22 29.24 81.13"/>
    </g>
  </g>
  <g>
    <path class="cls-16" d="M44.41,85.52c-3.48,10.35-13.75,16.24-22.94,13.15-9.18-3.09-13.8-13.99-10.32-24.34,3.48-10.35,13.75-16.24,22.94-13.15s13.8,13.99,10.32,24.34Z"/>
    <path class="cls-21" d="M26.52,100.06c-1.77,0-3.52-.28-5.23-.86-9.46-3.19-14.25-14.43-10.67-25.06,1.73-5.14,5.13-9.37,9.59-11.92,4.47-2.56,9.47-3.12,14.07-1.58,4.6,1.55,8.24,5.01,10.25,9.76,2,4.72,2.15,10.16.42,15.29-1.73,5.14-5.13,9.37-9.59,11.92-2.82,1.61-5.84,2.43-8.84,2.43ZM29.04,60.92c-2.81,0-5.64.77-8.28,2.28-4.21,2.41-7.44,6.43-9.08,11.3-3.38,10.04,1.09,20.64,9.96,23.63,4.29,1.44,8.96.92,13.15-1.49,4.21-2.41,7.44-6.43,9.08-11.3h0c1.64-4.88,1.5-10.02-.39-14.49-1.89-4.45-5.28-7.69-9.57-9.13-1.58-.53-3.22-.8-4.86-.8Z"/>
  </g>
  <path class="cls-13" d="M43.5,85.13c-3.19,9.48-12.69,14.85-21.22,11.98-8.53-2.87-12.86-12.88-9.68-22.37,3.19-9.49,12.69-14.85,21.22-11.98,8.53,2.87,12.86,12.88,9.68,22.37Z"/>
  <g>
    <path class="cls-16" d="M39.54,83.66c-2.71,8.04-10.47,12.67-17.34,10.36-6.87-2.31-10.25-10.7-7.55-18.74,2.71-8.04,10.47-12.68,17.34-10.36,6.87,2.31,10.25,10.7,7.55,18.74Z"/>
    <path class="cls-21" d="M25.82,95.17c-1.28,0-2.55-.2-3.81-.62-7.16-2.41-10.7-11.14-7.9-19.45,2.8-8.32,10.9-13.13,18.06-10.72,3.48,1.17,6.22,3.85,7.71,7.55,1.48,3.66,1.54,7.89.19,11.91-2.31,6.86-8.23,11.34-14.25,11.34ZM28.36,64.89c-5.55,0-11.03,4.18-13.18,10.57-2.6,7.73.63,15.82,7.19,18.03,6.57,2.21,14.03-2.28,16.63-10.01,1.27-3.76,1.2-7.71-.17-11.13-1.36-3.38-3.86-5.84-7.02-6.9-1.13-.38-2.3-.56-3.45-.56Z"/>
  </g>
  <g>
    <path class="cls-12" d="M39.31,83.3c-2.56,7.6-9.79,12.03-16.14,9.89-6.36-2.14-9.43-10.04-6.87-17.64,2.56-7.6,9.79-12.03,16.14-9.89,6.36,2.14,9.43,10.04,6.87,17.64Z"/>
    <path class="cls-21" d="M26.48,94.16c-1.17,0-2.32-.19-3.44-.56-6.57-2.21-9.77-10.36-7.14-18.18,1.27-3.77,3.69-6.91,6.83-8.83,3.16-1.94,6.66-2.41,9.85-1.33,3.19,1.07,5.69,3.57,7.04,7.02,1.33,3.42,1.37,7.39.1,11.16h0c-1.27,3.77-3.69,6.91-6.83,8.83-2.05,1.26-4.25,1.9-6.41,1.9ZM29.13,65.54c-2.01,0-4.05.6-5.97,1.77-2.96,1.82-5.26,4.79-6.47,8.37-2.48,7.37.48,15.04,6.61,17.11,2.95.99,6.2.55,9.14-1.25,2.96-1.82,5.26-4.79,6.47-8.37,1.21-3.58,1.18-7.34-.09-10.58-1.25-3.21-3.57-5.53-6.52-6.52-1.03-.35-2.1-.52-3.17-.52Z"/>
  </g>
  <path class="cls-11" d="M30.41,65.48s-8.44,11.82-8.94,26.56c0,0,3.1,1.89,7.65.26,0,0-.06-10.28,5.75-24.28,0,0-.69-1.33-4.47-2.54Z"/>
  <path class="cls-11" d="M38.28,72.23s-2.57,7.63-3.18,16.84c0,0,6.93-7.58,3.18-16.84Z"/>
  <g>
    <g>
      <path class="cls-16" d="M20.96,76.88c-1.19,3.35-.02,6.87,2.61,7.86,2.63.99,5.72-.93,6.91-4.29,1.19-3.35.02-6.87-2.6-7.86-2.63-.99-5.72.93-6.91,4.29Z"/>
      <path class="cls-21" d="M24.99,85.56c-.56,0-1.11-.1-1.63-.29-2.91-1.09-4.23-4.94-2.94-8.57h0c.71-2.01,2.1-3.62,3.8-4.41,1.27-.59,2.63-.67,3.84-.21,2.91,1.09,4.23,4.94,2.94,8.57-.71,2.01-2.1,3.62-3.8,4.41-.72.34-1.48.51-2.21.51ZM26.43,72.9c-.57,0-1.16.14-1.73.4-1.43.66-2.6,2.04-3.21,3.77h0c-1.09,3.06-.07,6.26,2.27,7.14.94.35,1.96.29,2.97-.18,1.43-.66,2.6-2.04,3.21-3.77,1.08-3.06.07-6.26-2.27-7.14-.4-.15-.81-.22-1.24-.22Z"/>
    </g>
    <path class="cls-13" d="M21.55,77.22c-1.01,2.84-.14,5.78,1.95,6.56,2.08.78,4.59-.89,5.6-3.73,1.01-2.84.14-5.78-1.95-6.56-2.08-.78-4.59.89-5.6,3.73Z"/>
    <g>
      <g>
        <path class="cls-16" d="M22.23,76.79c-.97,2.09-.54,4.53.97,5.45,1.51.92,3.51-.03,4.49-2.13.97-2.09.54-4.53-.97-5.45-1.51-.92-3.51.03-4.49,2.13Z"/>
        <path class="cls-21" d="M24.45,83c-.52,0-1.02-.14-1.47-.41-1.68-1.02-2.19-3.71-1.13-5.99h0c.6-1.3,1.6-2.24,2.73-2.58.82-.25,1.66-.15,2.36.27,1.68,1.02,2.19,3.71,1.13,5.99-.6,1.3-1.6,2.24-2.73,2.58-.3.09-.6.13-.89.13ZM22.62,76.96c-.88,1.9-.52,4.1.81,4.91.5.3,1.08.37,1.67.19.89-.27,1.71-1.07,2.21-2.13.88-1.9.52-4.1-.81-4.91-.5-.3-1.08-.37-1.67-.19-.89.27-1.71,1.07-2.21,2.13h0Z"/>
      </g>
      <path class="cls-13" d="M22.52,77.21c-.71,1.86-.32,3.77.85,4.27,1.18.5,2.7-.6,3.41-2.46.71-1.86.32-3.77-.85-4.27-1.18-.5-2.7.6-3.41,2.46Z"/>
      <path class="cls-23" d="M22.51,77.24c-.5,1.41-.26,2.81.55,3.11.8.3,1.86-.6,2.36-2.02.5-1.41.26-2.81-.55-3.11-.8-.3-1.86.6-2.36,2.01Z"/>
    </g>
  </g>
  <path class="cls-23" d="M41.38,67.78s6.65,6,1.17,20.43c0,0-5.6,12.25-19.08,10.18,0,0,14.53.38,19.04-14.47,0,0,2.8-7.24-1.13-16.14Z"/>
  <g>
    <g>
      <path class="cls-2" d="M88.5,79.52s.42,3.24,3.97,4.42c0,0,2.32.56.54,1.66,0,0-2.88,1.46-4.96-.08,0,0,1.53,1.93,4.63,2.51,0,0,3.22.29.63,1.71,0,0-5.67,2.75-8.53.49l.86-1.86-1.27-4.31,1.41.87s.92-1.35-.33-3.25l3.05-2.16Z"/>
      <path class="cls-21" d="M87.79,91.68c-1.21,0-2.41-.26-3.36-1.01l-.35-.28.96-2.07-1.63-5.52,2.09,1.29c.04-.22.06-.52,0-.86l-.53-.66.44.32c-.09-.28-.23-.58-.44-.91l-.3-.46,4.26-3.01.12.93c.02.13.44,2.9,3.57,3.95.37.09,1.47.44,1.6,1.26.08.51-.23.99-.93,1.42l-.04.02c-.08.04-1.2.6-2.59.68.58.28,1.28.54,2.09.69.73.07,1.93.3,2.1,1.12.18.84-.88,1.42-1.28,1.64h-.03c-.17.1-3.01,1.45-5.77,1.45ZM85.5,90.03c2.59,1.5,7.28-.67,7.56-.8.33-.18.51-.32.61-.41-.22-.1-.65-.2-1.03-.24h-.05c-3.27-.62-4.9-2.64-4.97-2.72l-1.05-1.33c-.12.42-.28.67-.3.7l-.3.45-.61-.38.91,3.1-.75,1.62ZM86.67,83.81l1.71,1.26c1.71,1.25,4.12.15,4.36.04.21-.13.31-.23.36-.28-.13-.11-.46-.26-.75-.33h-.04c-2.7-.91-3.75-2.89-4.14-4.03l-1.96,1.38c.39.76.49,1.43.47,1.97Z"/>
    </g>
    <path class="cls-23" d="M87.45,85.4s1.35,1.92,5.71,3.03c0,0,1.14.58-.51,1.02,0,0-2.12,1.2-5.7.94,0,0,3.12-1.36,1.62-2.37,0,0-2.76-2.16-2.87-4.4,0,0,4.15,1.65,4.41.76,0,0-1.3-1.7-.86-1.85,0,0,.93,1.5,3.04,1.92,0,0,1.76.41-.17.86,0,0-1.62.66-4.68.08Z"/>
  </g>
  <g>
    <g>
      <path class="cls-23" d="M90.34,73.49s4.64-1.29,3.99,2.25c0,0-1.13,4.03-5.25,5.1l-.74-.31s.76-1.98.46-3.28c0,0,.07-2.14,1.53-3.76Z"/>
      <path class="cls-21" d="M89.04,81.44l-1.42-.6.19-.51c.19-.51.65-2.03.43-2.95l-.02-.07v-.07c0-.1.09-2.37,1.68-4.12l.11-.12.16-.04c.28-.08,2.8-.74,4.08.43.61.56.82,1.38.62,2.46v.05c-.06.18-1.28,4.35-5.66,5.49l-.19.05ZM89.05,80.22l.08.03c3.46-1.01,4.56-4.33,4.66-4.64.11-.65.02-1.12-.27-1.39-.64-.59-2.18-.38-2.86-.22-1.08,1.28-1.25,2.88-1.28,3.22.2,1.01-.11,2.3-.32,3Z"/>
    </g>
    <path class="cls-4" d="M89.87,74.35s3.14-1.22,2.63,1.51c0,0-.88,3.11-4.04,3.94l-.35-.13s1.02-1.31.79-2.31c0,0-.17-1.76.97-3.02Z"/>
    <path class="cls-21" d="M88.65,76.68c.37-.29.72-.52,1.1-.74.38-.22.77-.41,1.17-.56.41-.15.83-.27,1.26-.29.43-.03.87.04,1.24.22-.41-.09-.82-.05-1.19.06-.38.11-.73.3-1.06.52-.33.22-.64.47-.93.74-.28.27-.57.56-.79.85l-.8-.79Z"/>
    <g>
      <path class="cls-23" d="M91.69,75.61s.73.96-1.15,2.93"/>
      <path class="cls-21" d="M92.14,75.27c.07.11.07.14.1.21.02.06.03.11.04.16.02.11.03.21.03.3,0,.19-.03.38-.08.54-.1.33-.26.61-.44.85-.18.24-.38.46-.59.66s-.43.38-.66.55c.15-.24.3-.47.43-.72.13-.24.24-.5.31-.74.08-.25.12-.5.1-.72,0-.11-.03-.21-.06-.29-.02-.04-.04-.08-.06-.1-.01-.01-.02-.02-.03-.03,0,0-.03-.03,0,.03l.9-.69Z"/>
    </g>
  </g>
  <g>
    <g>
      <path class="cls-16" d="M91.21,54.24s7.11,2.75,12.78-2.74c0,0,2.89.13-2.88,7.68,0,0-4.31,5.3-9.52,4.97,0,0,2.31-6.41-.38-9.91Z"/>
      <path class="cls-21" d="M92.06,64.72c-.17,0-.33,0-.5-.02l-.75-.05.25-.71c.02-.06,2.17-6.16-.3-9.37l-1.23-1.59,1.88.73c.29.11,6.85,2.54,12.19-2.62l.17-.17h.24c.28.02.83.2,1.1.79.61,1.32-.55,3.87-3.56,7.81-.19.23-4.3,5.21-9.5,5.21ZM92.39,55.14c1.3,2.96.43,6.83-.03,8.44,4.54-.2,8.27-4.72,8.31-4.77,3.86-5.04,3.53-6.41,3.43-6.63,0,0,0,0,0-.01-4.28,3.91-9.31,3.48-11.7,2.97Z"/>
    </g>
    <path class="cls-13" d="M92.78,63.51s8.24-1.52,11.06-10.12c0,0,.66-1.3-.91.36,0,0-3.58,3.79-9.94,3.58,0,0-1.19,4.22-.21,6.18Z"/>
    <path class="cls-23" d="M103.84,53.4s-1.92,8.14-11.06,10.12l-.53-1.91s7.85-1.02,11.6-8.2Z"/>
  </g>
  <g>
    <path class="cls-12" d="M62.74,53.81s1.56-6.36,9.52-7.21c0,0,12.79-1.5,20.15,9.41,0,0,2.92,3.24,1.15,9.5,0,0-5.96-7.06-13.91-8.96,0,0-11.76-2.9-16.91-2.73Z"/>
    <path class="cls-21" d="M93.81,66.68l-.69-.81c-.06-.07-5.94-6.95-13.61-8.78-.12-.03-11.75-2.87-16.76-2.72l-.74.02.18-.72c.02-.07,1.75-6.76,10.01-7.64.13-.02,13.19-1.41,20.65,9.62.33.39,3,3.77,1.25,10l-.29,1.02ZM63.52,53.24c5.46.11,15.8,2.64,16.26,2.75,6.51,1.55,11.64,6.41,13.48,8.35,1.11-5.23-1.25-7.93-1.28-7.96l-.05-.06c-7.08-10.5-19.49-9.18-19.61-9.16-5.99.64-8.15,4.48-8.8,6.08Z"/>
  </g>
  <g>
    <path class="cls-16" d="M79.48,47.54s3.67,4.99.33,8.69c0,0,5.86,1.37,9.11,4.98,0,0,4.17-4.85-.23-10.35l-1.31-1.58-6.33-2.66-1.57.91Z"/>
    <path class="cls-21" d="M88.93,62.05l-.43-.47c-3.09-3.43-8.77-4.79-8.82-4.81l-.93-.22.64-.71c2.99-3.31-.22-7.79-.36-7.98l-.37-.51,2.36-1.37,6.71,2.82,1.4,1.68c4.65,5.8.27,11.02.23,11.08l-.42.49ZM80.77,55.91c1.67.5,5.46,1.84,8.09,4.42.87-1.32,2.69-5-.62-9.12l-1.21-1.46-5.94-2.49-.82.48c.81,1.35,2.62,5.05.5,8.18Z"/>
  </g>
  <path class="cls-13" d="M81.28,47.39l5.91,2.58s4.49,4.34,2.01,9.93c0,0-2.51-2.06-6.25-3.54,0,0,1.42-5.46-1.67-8.97Z"/>
  <path class="cls-23" d="M83.79,48.49l3.4,1.48s4.39,2.86,2.01,9.93c0,0-.94-1.39-3.27-2.04,0,0-.82-2.91,2.35-3.93,0,0,.58-.98.07-2.17,0,0-3.81-.33-4.56-3.28Z"/>
  <g>
    <path class="cls-20" d="M61.5,59.54s1.3,4.58,2.64,5.23c0,0-3.3,2.24-2.37,5.25,0,0,.65,4.86,3.6,6.35,0,0,.6-.25,2.18-.54l16.95,8.1s2.1.33.94-1.52c0,0,5.62-1.79,4.23-6.28,0,0,.19-2.27,1.9-3.73l.73-1.54s-4.31-3.13-6.83-4.64c0,0-15.99-8.65-23.98-6.68Z"/>
    <path class="cls-21" d="M84.84,84.51c-.2,0-.36-.02-.43-.03h-.08s-.07-.05-.07-.05l-16.79-8.02c-1.34.26-1.88.47-1.89.47l-.24.09-.23-.11c-3.05-1.53-3.82-6.17-3.9-6.73-.76-2.54,1.05-4.53,2.03-5.38-1.19-1.33-2.1-4.38-2.29-5.06l-.16-.56.57-.14c8.11-2,23.72,6.37,24.38,6.73,2.53,1.52,6.71,4.55,6.89,4.68l.38.27-.98,2.07-.09.08c-1.33,1.14-1.64,2.83-1.7,3.25,1.02,3.55-1.89,5.76-4.02,6.64.18.49.16.9-.06,1.23-.31.48-.91.57-1.33.57ZM84.66,83.37c.22.02.47,0,.56-.05,0-.06-.02-.24-.26-.62l-.38-.62.69-.22c.21-.07,5.07-1.67,3.86-5.57l-.03-.1v-.11c.02-.1.23-2.43,2.02-4.03l.48-1.01c-1.1-.79-4.37-3.12-6.4-4.34-.13-.07-15.11-8.1-22.98-6.74.55,1.75,1.48,3.96,2.17,4.29l.88.42-.81.55s-2.94,2.05-2.15,4.62l.02.09s.62,4.35,3.09,5.81c.33-.1.97-.28,2.02-.48l.18-.03.17.08,16.87,8.06Z"/>
  </g>
  <path class="cls-22" d="M90.5,63.87c-6.55-4.93-10.94-5.96-10.94-5.96l-.15.59s7.04,2.82,10.72,5.93l.37-.57Z"/>
  <g>
    <path class="cls-1" d="M61.66,60.76c-1.96-.98-4.65.19-6.8,2.71q-.58.35-1.8.65s-3.33.15-5.49-2.94c0,0-1.13-2.08-1.36.34,0,0-.66,5.11,4.84,5.88,0,0-3.8.21-8.2-4.06,0,0-2.6,8.47,9.51,12.18.34.51.77.91,1.29,1.17,2.6,1.31,6.5-1.2,8.71-5.6,2.21-4.4,1.9-9.02-.7-10.33Z"/>
    <path class="cls-21" d="M55.16,77.6c-.63,0-1.22-.14-1.77-.41-.54-.27-1.01-.67-1.39-1.19-6.34-1.99-8.66-5.33-9.48-7.78-.91-2.72-.25-4.95-.22-5.04l.27-.88.66.64c1.19,1.15,2.34,1.97,3.36,2.54-1.22-1.84-.96-3.99-.96-4.03.04-.39.14-1.49.91-1.65.71-.15,1.27.68,1.49,1.08,1.81,2.57,4.51,2.68,4.93,2.68h0c1.02-.25,1.08-.27,1.5-.52,2.39-2.75,5.3-3.84,7.42-2.77,1.44.73,2.32,2.31,2.46,4.47.14,2.05-.4,4.4-1.51,6.62-1.11,2.22-2.68,4.05-4.41,5.16-1.13.73-2.26,1.1-3.29,1.1ZM43.21,64.44c-.25,2.21.13,7.73,9.31,10.54l.19.06.11.17c.29.44.65.77,1.08.98,1.07.54,2.47.32,3.94-.63,1.56-1,2.99-2.68,4.01-4.72,1.02-2.04,1.52-4.18,1.39-6.03-.12-1.74-.77-3-1.85-3.54h0c-1.64-.82-4.1.21-6.12,2.57l-.06.07-.08.05c-.65.39-.72.41-1.95.72l-.11.02c-.15,0-3.66.13-5.98-3.18l-.03-.05c-.07-.12-.15-.25-.24-.35-.03.11-.05.27-.07.48-.03.2-.51,4.59,4.36,5.27l-.05,1.12c-.16,0-3.67.15-7.87-3.53Z"/>
  </g>
  <path class="cls-2" d="M61.08,63.23c-1.82-.92-2.98.12-4.91,1.7-.54.33-.71-.35-1.33-.56,0,0-4.16.86-6.85-1.69,0,0-.96-1.37-.57,1.15,0,0,.53,2.39,3.76,3.47,0,0-1.01,1.06-5.62-.62,0,0-.84-.57-.91.13-.16,1.63,1.19,5.98,9.06,8.39.31.47.93.69,1.42.94,2.42,1.22,4.12-1.36,6.19-5.46,2.06-4.1,2.17-6.23-.25-7.45Z"/>
  <path class="cls-15" d="M85.93,84.64"/>
  <g>
    <path class="cls-5" d="M82.67,82.7c-1.43.04-15.85-6.03-15.85-6.03-3.68-2.39-3.17-6.85-3.17-6.85.59-2.48,2.2-3.79,2.2-3.79,2.64-1.82,2.21-6.99,2.21-6.99-2.07-.41-2.07-.15-4.85-.08,2.96,4.12-6.12,10.28-6.12,10.28-3.2,2.39-4.56,6.11-4.56,6.11-2.26,5.21,1.88,11.77,1.88,11.77,4.88,8.4,14.17,12.57,14.17,12.57,1.52-1.72,4.49-.16,4.49-.16,2.89-2.79,6.39-5.01,6.39-5.01,5.11-3.17,7.68-8.53,7.68-8.53,0,0,1.31-2.05,1.8-4.29l.13-1.33s-.22-.51-.5.05l-.96.85s-1.17,1.34-4.95,1.44Z"/>
    <path class="cls-21" d="M68.74,100.37l-.38-.17c-.39-.17-9.51-4.34-14.43-12.8-.16-.26-4.26-6.84-1.92-12.26.12-.31,1.53-3.95,4.75-6.35.08-.05,5.83-3.99,6.44-7.45.14-.78,0-1.45-.44-2.05l-.62-.86,1.06-.03c.87-.02,1.46-.06,1.93-.1,1.03-.07,1.55-.11,3.04.19l.42.08.04.42c.02.22.43,5.5-2.43,7.49-.14.12-1.47,1.32-1.99,3.44-.04.41-.3,4.16,2.88,6.26,6.88,2.9,14.67,5.97,15.57,5.97,3.42-.09,4.53-1.24,4.55-1.25l.05-.05.89-.78c.24-.4.53-.47.74-.47.37.01.62.3.73.56l.06.13-.15,1.53c-.48,2.19-1.69,4.17-1.86,4.45-.24.49-2.83,5.6-7.88,8.74-.03.02-3.48,2.22-6.3,4.94l-.29.28-.36-.19s-2.6-1.33-3.81.04l-.28.31ZM64.15,59.48c.24.63.3,1.32.17,2.05-.7,3.92-6.64,8-6.9,8.17-3,2.24-4.34,5.8-4.35,5.84v.03c-2.13,4.87,1.79,11.18,1.83,11.24,4.22,7.25,11.88,11.35,13.58,12.19,1.47-1.23,3.62-.52,4.49-.16,2.83-2.67,6.06-4.72,6.2-4.81,4.92-3.06,7.45-8.25,7.48-8.3l.03-.06s1.25-1.98,1.72-4.08l.03-.3-.41.36c-.25.26-1.61,1.51-5.33,1.6h0s-.01,0-.02,0c-1.55,0-13.65-5.06-16.06-6.08l-.09-.05c-3.93-2.56-3.44-7.19-3.42-7.39v-.07c.64-2.64,2.34-4.04,2.41-4.1l.04-.03c1.93-1.33,2.01-4.84,1.98-6.06-1.01-.18-1.41-.15-2.31-.09-.3.02-.64.05-1.07.07ZM89.13,80.61h0Z"/>
  </g>
  <polygon class="cls-22" points="64.26 55.12 62 54.98 61.89 55.44 64.14 55.6 64.26 55.12"/>
  <polygon class="cls-22" points="76.42 56.88 67.91 55.32 67.81 55.99 76.32 57.43 76.42 56.88"/>
  <path class="cls-22" d="M63.04,59.67l14.1.38,13.3,6.78-.69,1.74s-3.13-2.48-5.91-3.88c0,0-12.16-5.48-20.8-5.02Z"/>
  <path class="cls-23" d="M74.57,66.47s.53,2.02-.94,1.28l-.21-.17s.03-.77,1.16-1.11Z"/>
  <path class="cls-23" d="M86.93,73.05s1.04,1.4-.73,1.45c0,0-.3-1.3.73-1.45Z"/>
  <path class="cls-15" d="M88.81,79.74"/>
  <path class="cls-2" d="M63.74,67.96s-3.08,5.19,3.85,10.3c0,0,9.34-.7,14.26,5.34,0,0,2.77.58,6.3-2.18,0,0,1.26-2.04-.22,1.91,0,0-6.72,10.97-15.25,13.43,0,0,.72-1.19.89-3.08,0,0-3.26,1.67-7.16.33,0,0,1.57-.57,2.37-2.54,0,0-7.34.07-11.8-6.33,0,0-4.56-6.93,2.11-14.56,0,0,4.54-4.8,4.64-2.62Z"/>
  <g>
    <g>
      <path class="cls-16" d="M62.15,53.75s11,.15,17.17,2.34c0,0,9.52,2.85,14.58,9.15l.66,1.06-2.24,5.16s-3.27-3.46-5.4-4.65c0,0-14.65-7.12-23.44-6.46,0,0-4.17.01-3.95-.9,0,0-.23-.72.64-1.98l1.99-3.72Z"/>
      <path class="cls-21" d="M92.49,72.47l-.59-.62s-3.22-3.39-5.25-4.54c-.53-.26-14.71-7.03-23.13-6.4h-.04c-1.36,0-3.74-.1-4.34-.86-.13-.17-.2-.37-.19-.57-.05-.33-.06-1.13.73-2.29l2.14-3.99h.34c.45.01,11.15.18,17.34,2.38.56.17,9.79,3.04,14.84,9.33l.04.05.82,1.31-2.7,6.22ZM64.68,59.74c8.87,0,21.9,6.28,22.47,6.56l.03.02c1.65.92,3.89,3.08,4.95,4.15l1.79-4.12-.48-.78c-4.9-6.07-14.19-8.91-14.28-8.93h-.03c-5.4-1.93-14.75-2.26-16.64-2.31l-1.86,3.46c-.66.97-.56,1.51-.56,1.51l.03.09c.42.22,1.92.41,3.36.4.4-.03.81-.04,1.23-.04Z"/>
    </g>
    <path class="cls-13" d="M62.85,54.59s9.58-1.1,21.99,4.48c0,0,6.44,3.24,9.1,7.5l-1.7,3.38s-7.03-7.98-28.45-10.71c0,0-2.72-2.46-.94-4.65Z"/>
    <path class="cls-23" d="M78.71,56.73s8.35,1.44,15.23,9.84c0,0-1.28,4.28-2.39,2.27,0,0-.88-1.09.09-2.49,0,0-3.98-5.94-14-8.92,0,0-1.9-1.58,1.07-.7Z"/>
  </g>
  <g>
    <path class="cls-20" d="M63.3,62.89s.24-2.6-4.25-3.99c0,0-4.94,2.19-3.88,6.12,0,0,.87,3.25,1.94,3.97,0,0,5.09-2.48,6.19-6.09Z"/>
    <path class="cls-21" d="M57.06,69.63l-.27-.18c-1.18-.8-2.01-3.71-2.17-4.29-.94-3.48,2.34-5.96,4.2-6.78l.19-.09.2.06c4.86,1.51,4.65,4.46,4.64,4.58l-.02.11c-1.16,3.81-6.27,6.33-6.48,6.44l-.29.14ZM59.09,59.5c-.85.43-4.2,2.32-3.38,5.37.3,1.11.92,2.77,1.48,3.43,1.11-.6,4.64-2.72,5.54-5.51,0-.34-.2-2.16-3.64-3.3Z"/>
  </g>
  <path class="cls-11" d="M92.15,56.88s2.13,2.67,1.37,6.88c0,0-.49-.8-1.47-1.75,0,0,.91-1.62.09-5.13Z"/>
  <path class="cls-11" d="M79.88,54.94s.02-.04.03-.06c.76-1.55-.08-3.53-1.88-4.42-1.81-.89-3.89-.36-4.65,1.19-.26.52-.33,1.09-.25,1.65,1.59.19,4.18.64,6.75,1.64Z"/>
  <path class="cls-4" d="M66.49,70.98s-1.56-1.54,2.6-4.02c0,0,2.15-1.78,2.12-4.99,0,0,14.16,2.55,19.85,9.38,0,0-3.68,2.18-3.1,4.46,0,0,.44,2.15-.03,3.81,0,0-.3.49-1.25,1.12,0,0-1.62-1.99-2.24-2.45,0,0-7.03-4.56-14.78-5.35l-1.25-.23s-1.4-.53-1.93-1.73Z"/>
  <path class="cls-23" d="M72.26,69.32s-.85-.54-1.09-.71c-.3-.2-.66-.6-.53-1.13,0,0,1.98-2.81,4.21-2.27,1.26.31,3.29,1.38,2.02,4.52l-.1.19s-.74,1.76-4.5-.61Z"/>
  <g>
    <g>
      <path class="cls-5" d="M70.51,61.52s3.17-2.04,6.64-1.47c1.77.29,2.25.86,3.82,5.37.15.42.56.8,1.75.97.51.07,1.21,1.15-1.41,1.56,0,0-2.4-.21-2.67-1.62,0,0-1.83-4.37-5.45-3.19,0,0-3.6.76-2.67-1.62Z"/>
      <path class="cls-21" d="M81.32,68.52h-.07c-.11-.02-2.76-.27-3.16-2.01-.2-.45-1.8-3.78-4.74-2.83l-.06.02c-.39.08-2.36.44-3.17-.53-.27-.32-.51-.9-.14-1.85l.07-.17.15-.1c.14-.09,3.39-2.15,7.03-1.55,2.18.35,2.75,1.4,4.26,5.74.1.29.54.49,1.29.6.46.07.97.5.97,1.09,0,.55-.41,1.28-2.37,1.59h-.07ZM74.38,62.38c2.5,0,4.18,2.31,4.77,3.74l.03.11c.15.78,1.54,1.09,2.1,1.16.87-.14,1.2-.35,1.3-.44-.76-.11-1.82-.38-2.16-1.33-1.59-4.54-1.98-4.77-3.38-5-2.79-.45-5.42.91-6.08,1.29-.06.19-.09.42,0,.53.27.32,1.36.3,2.06.16.47-.15.92-.22,1.34-.22Z"/>
    </g>
    <path class="cls-7" d="M73.6,61.59s2.25-1.23,4.58-.68c1.19.28,1.44,1.19,2.28,4.34.08.29,1.06,1.19,1.86,1.36.34.08-.36.97-2.02.4,0,0-1.3-.06-1.42-1.75,0,0-1.39-2.96-4.28-2.89,0,0-2.31.48-.99-.79Z"/>
    <path class="cls-3" d="M81.08,66.08s1.43.07,1.33.94c0,0-1.07,1.06-2.91-.21,0,0-.93-1.03-.1-.99,0,0,.49.46,1.3.72,0,0,.63.19.38-.46Z"/>
  </g>
  <path class="cls-21" d="M70.64,67.49c.16-.48.41-.92.71-1.34.3-.41.68-.79,1.16-1.09.24-.15.51-.26.8-.33.31-.07.56-.08.84-.09.54,0,1.1.09,1.63.32.53.23,1.01.6,1.35,1.06l.23.36c.07.12.12.25.18.38.03.07.06.11.09.22.02.08.04.15.05.23.02.15.04.29.04.43.02,1.13-.49,2.11-1.18,2.83.14-.48.27-.95.32-1.41.06-.46.06-.91-.03-1.33-.02-.1-.05-.2-.08-.29-.02-.04-.03-.09-.05-.12,0-.01-.04-.07-.07-.11-.06-.09-.11-.18-.16-.27l-.19-.24c-.27-.3-.59-.53-.96-.69-.37-.17-.79-.25-1.22-.28-.21-.02-.45-.02-.62,0-.19.03-.39.07-.58.15-.39.15-.79.4-1.16.68-.38.28-.74.61-1.1.96Z"/>
  <path class="cls-23" d="M91.64,71.73s-2.77,1.43-2.4,5.07c0,0,.99,1.97-2.51,4.6l-1.04-.66s2.66-2.45,2.32-5.33c0,0,0-3.09,2.97-4.07l.66.39Z"/>
  <path class="cls-23" d="M84.55,72.82c.55-1.09,3.69-2.13,4.6,1.04,0,0,.55,2.45-1.79,2.73,0,0-1.62-.57-2.35-1.12,0,0-1.4-.77-.46-2.65Z"/>
  <path class="cls-21" d="M83.05,73.72c.14-.47.38-.9.66-1.31.28-.41.62-.79,1.07-1.1.22-.15.47-.29.75-.37.3-.1.55-.11.82-.14.53-.02,1.09.05,1.61.27.52.22.99.61,1.3,1.08.07.12.15.24.21.36.05.13.11.25.16.38.12.33.12.59.12.86-.04,1.08-.55,2.01-1.22,2.71.27-.93.46-1.85.34-2.67-.02-.1-.03-.2-.06-.29-.03-.09-.05-.18-.09-.23-.05-.09-.1-.18-.15-.26-.05-.08-.12-.16-.17-.24-.24-.3-.53-.52-.88-.67-.34-.16-.75-.22-1.16-.24-.2,0-.43,0-.59.03-.09.02-.18.03-.27.07-.09.02-.19.07-.28.11-.38.16-.75.42-1.11.71-.37.28-.71.61-1.06.94Z"/>
  <g>
    <g>
      <path class="cls-1" d="M86.65,82.19s2.19,2.24-1.99,2.24c0,0,1.57,2.25.98,3.94-.27.75-.79,2.2-.11,2.89,0,0,2.97.68.35,1.08,0,0-3.78,2-7.25-1.74,0,0-1.31-2.11-.81-4.26l1.5-4.41-.3-.5-.53-.46h-.48s-.82-.03-.82-.03c0,0-4.51,4.09-5.87,4.39-1.82.4-6.52.11-7.43-.24-2-.78-6.06-2.87-5.93-6.25,0,0-.09-3.72,1.05-1.2,0,0,.22,1.16,1.69,1.71,0,0,.53-.47,2.63-1.85.65-.43,1.57-.63,3.03-.61.66.01,1.82.14,2.62-.36,0,0-.32-.75-1.52-1.21,0,0-.91-.67,1.8-.91,1.39-.12,3.92.02,7.23,1.96l1.24,1.08s.64,3.72,3.49,1.94c.19-.12.72,0,.72,0,0,0,1.91-.25,4.22,2.29l.48.52Z"/>
      <path class="cls-21" d="M83.41,93.42c-1.49,0-3.39-.5-5.2-2.44l-.07-.09c-.06-.09-1.42-2.33-.88-4.69l.02-.05,1.42-4.16-.12-.2-.31-.27-.88-.02c-1.06.95-4.61,4.07-5.96,4.37-1.93.43-6.73.13-7.75-.27-1.51-.59-6.43-2.81-6.29-6.78-.06-2.42.54-2.56.8-2.62.71-.16,1.12.75,1.32,1.19l.03.06v.06s.18.72,1.06,1.16c.35-.27,1.06-.79,2.4-1.67.77-.51,1.81-.72,3.35-.7.1,0,.2,0,.32,0,.41.02.91.03,1.36-.05-.18-.15-.44-.31-.79-.44l-.07-.03-.06-.04c-.23-.17-.46-.51-.35-.92.16-.58.87-.87,2.43-1.01,1.62-.14,4.25.09,7.57,2.03l.08.06,1.4,1.21.03.2c.07.41.42,1.56,1.12,1.87.39.18.91.07,1.52-.32.29-.18.72-.16,1.05-.09.48-.02,2.41.07,4.6,2.48l.48.51c.13.13,1.03,1.11.63,2.06-.26.61-.94.97-2.07,1.09.46.9,1,2.35.56,3.61l-.02.05c-.18.51-.58,1.65-.3,2.15,1.69.42,1.68.95,1.67,1.19-.02.68-.9.85-1.48.94-.31.14-1.31.54-2.64.54ZM79.08,90.26c3,3.19,6.21,1.74,6.51,1.6-.06-.02-.13-.03-.19-.05l-.16-.04-.12-.12c-.91-.93-.34-2.55-.04-3.42l.02-.05c.41-1.16-.52-2.87-.91-3.43l-.62-.89h1.08s0,0,0,0c1.41,0,1.91-.28,1.98-.44.08-.18-.18-.61-.4-.84l-.49-.52c-2.06-2.26-3.68-2.12-3.75-2.12h-.09s-.1,0-.1,0c-.12-.03-.27-.04-.35-.04-.93.57-1.78.69-2.53.36-1.16-.52-1.59-1.95-1.72-2.5l-1.06-.92c-3.04-1.77-5.41-1.99-6.86-1.86-.45.04-.77.09-.99.14.86.51,1.15,1.12,1.18,1.2l.19.44-.41.26c-.84.52-1.92.48-2.64.46-.11,0-.2,0-.29,0-1.29-.02-2.15.14-2.71.51-2.01,1.33-2.56,1.8-2.57,1.81l-.25.22-.32-.12c-1.29-.49-1.78-1.4-1.96-1.85-.02.25-.02.53-.02.8v.02s0,.02,0,.02c-.13,3.23,4.23,5.18,5.57,5.7.77.3,5.35.61,7.1.22.89-.2,3.92-2.72,5.62-4.26l.17-.15,1.73.04.75.66.49.8-1.58,4.64c-.39,1.74.55,3.47.72,3.77ZM81.45,79.9h0Z"/>
    </g>
    <path class="cls-2" d="M77.16,77.62s-3.27-1.63-5.87-1.43c0,0-1.6-.51,1.09,1.64,0,0-4.8-.37-8.77,2.22,0,0-2.7,1.08-4.95-1.19,0,0-.94.12.86,2.56,0,0,.86,1.38,4.45,2.96,0,0,3.39.82,6.73.2,0,0,1.1-.06,5.9-3.92,0,0,3.91-.62,2.69,4.59,0,0-1.18,3.76,1.58,5.51,0,0,.87.67,3.2.91,0,0,.33-.25-.76-1.54,0,0,.67-2.16.78-3.5,0,0,.15-1.69-1.16-3.06,0,0,2.2.13,2.99-.37,0,0-.18-.83-2.54-2.6,0,0-4.03-2.11-6.24-2.97Z"/>
    <path class="cls-23" d="M76.62,80.65s-2.85,2.82-5.41,4.17c0,0-4.85.49-7.23-.45,0,0-.38-1.1,1.73-1.04,0,0,2.88.49,5.36-.37,0,0,2.58-.83,4.34-2.57,0,0,1.14-.68,1.57-.47,0,0,.37.03-.36.71Z"/>
    <path class="cls-23" d="M81.36,79.75s2.05-.78,4.8,2.65c0,0,1.34,1.46-1.4,1.45l-1.1.21s1.1.32,1.49,3.4c0,0-1.44,3.21-.05,3.95,0,0,1.73.17-.3.59,0,0-2.25-.22-2.18-2.39,0,0,1.61-4.05.18-6.41,0,0,3.3.31,2.34-.65,0,0-2-2.75-3.79-2.81Z"/>
  </g>
  <g>
    <g>
      <path class="cls-20" d="M86.32,68.72s-2.59,1.41-2.1,3.92c0,0,.45,2.82-.03,5.01,0,0-.56,4.16-3.32,4.05,0,0-2.34-.38-3.67-2.63,0,0-.6-1.13-2.65-1.35,0,0-2.53-1.42-.44-3.23,0,0,2.32-1.54,4.55.02"/>
      <path class="cls-21" d="M86.32,68.72c-.65.5-1.19,1.12-1.52,1.81-.17.35-.26.71-.29,1.08-.01.18,0,.36.02.54.02.09.02.18.05.27l.03.14.03.16c.16.82.26,1.65.29,2.49.03.84.02,1.69-.14,2.56v-.05c-.06.54-.17,1.02-.33,1.52-.16.49-.37.98-.66,1.44-.29.46-.68.91-1.19,1.24-.26.16-.55.29-.85.37-.3.08-.61.1-.91.1h-.04s-.04,0-.04,0c-.23-.04-.38-.09-.56-.14-.17-.05-.34-.12-.51-.19-.33-.14-.65-.3-.96-.49-.61-.38-1.16-.87-1.6-1.44-.11-.14-.21-.29-.31-.44-.05-.07-.1-.16-.15-.24l-.04-.06v-.02s-.03-.04-.05-.06c-.12-.17-.32-.34-.53-.48-.43-.29-.98-.45-1.55-.55l-.15-.02-.07-.05c-.19-.12-.33-.23-.48-.36-.15-.13-.28-.26-.41-.42-.25-.3-.48-.68-.55-1.13-.08-.45.04-.93.25-1.27.21-.35.49-.62.77-.85l.04-.03h0c.41-.23.8-.37,1.23-.46.42-.09.85-.14,1.27-.12.43.02.84.12,1.23.27.39.16.74.38,1.04.65-.36-.19-.73-.33-1.11-.41-.38-.08-.77-.1-1.15-.05-.38.04-.75.13-1.1.26-.34.14-.7.32-.97.51l.04-.03c-.22.21-.4.44-.5.68-.11.23-.12.45-.07.66.05.21.19.42.38.61.09.1.2.19.31.27.11.08.25.17.34.22l-.22-.07c.7.05,1.42.22,2.09.6.33.19.64.43.91.77.03.04.07.09.1.14l.05.09.03.04c.04.06.07.11.11.17.08.12.17.23.26.33.36.43.8.8,1.28,1.09.24.15.5.27.76.38.13.05.26.1.4.14.13.04.28.08.37.1h-.09c.18,0,.35-.02.51-.06.16-.04.31-.11.46-.2.3-.18.57-.46.79-.79.23-.34.42-.72.57-1.13.15-.4.28-.85.36-1.25v-.05c.18-.73.28-1.51.31-2.3.02-.79.02-1.59-.04-2.38v-.14s-.03-.16-.03-.16c-.01-.11-.01-.23-.02-.34,0-.23.03-.45.07-.68.1-.44.28-.85.52-1.21.49-.71,1.18-1.24,1.92-1.58Z"/>
    </g>
    <path class="cls-4" d="M83.96,70.06s-1.42,1.19-1.33,4.87c0,0,.01,2.78-2.48,4.01,0,0-.14-.41-1.56-1.71,0,0-1.52-1.81-3.3-1.34,0,0-1.53.26-.99-1,0,0,1.29-1.39,2.92-.66l1.47.07s2.7-2.81,5.28-4.26Z"/>
    <path class="cls-3" d="M84.95,69.46s-1.2.6-.99,4.04c0,0,.95,3.9-1.78,6.72,0,0-1.16-.24-1.92-1.52,0,0,2.54-.47,2.4-5.04,0,0,.04-3.05,2.29-4.2Z"/>
  </g>
  <g>
    <path class="cls-21" d="M76.41,68.8c-.21.93-1.09,1.53-1.97,1.34-.88-.19-1.42-1.1-1.21-2.04s1.09-1.53,1.97-1.34c.88.19,1.42,1.1,1.21,2.04Z"/>
    <path class="cls-23" d="M73.07,68.29c.08-.35.4-.58.73-.5.32.07.52.41.44.76-.08.35-.4.57-.73.5-.32-.07-.52-.41-.44-.76Z"/>
  </g>
  <g>
    <path class="cls-21" d="M88.76,74.86c-.19.85-.99,1.39-1.79,1.22-.8-.17-1.29-1-1.1-1.85.19-.85.99-1.39,1.79-1.22.8.17,1.29,1,1.1,1.85Z"/>
    <path class="cls-23" d="M85.72,74.39c.07-.32.37-.52.66-.46.29.06.47.37.4.69-.07.32-.37.52-.66.46-.29-.06-.47-.37-.4-.69Z"/>
  </g>
  <path class="cls-4" d="M62.74,62.93s-.3-1.96-2.55-2.34c0,0-4.27,1.58-1.61,6.91,0,0,3.43-1.98,4.16-4.57Z"/>
  <g>
    <path class="cls-21" d="M58.41,61.88c.45-.16.95-.15,1.44,0,.24.08.47.2.68.35.11.07.2.17.29.25.05.05.1.09.14.14l.12.15c.17.2.31.41.45.63.13.22.2.46.24.71.01.25.02.5-.03.74-.06.24-.13.49-.27.72h-.11c-.18-.2-.3-.41-.41-.61-.11-.2-.21-.39-.28-.58-.19-.36-.17-.78-.35-1.12-.17-.34-.4-.65-.72-.88-.32-.24-.74-.37-1.17-.4l-.02-.11Z"/>
    <path class="cls-21" d="M60.91,63.86c-.18-.06-.44-.09-.67-.09-.23,0-.47,0-.69.07-.22.06-.43.16-.61.33-.18.16-.3.39-.39.64,0-.26.03-.55.17-.81.13-.26.34-.49.59-.66.25-.18.52-.3.8-.4.29-.1.56-.17.89-.2l-.08,1.12Z"/>
  </g>
  <g>
    <g>
      <path class="cls-12" d="M68.71,100.48s.96-2.82,4.34-1.54l.54,2.4s-3.52-.65-4.34,1.54l-.54-2.4Z"/>
      <path class="cls-21" d="M69.12,104.83l-.99-4.39.05-.15c.02-.05.46-1.32,1.76-1.93.94-.44,2.06-.43,3.32.05l.28.11.8,3.53-.84-.16s-3.06-.54-3.71,1.19l-.66,1.76ZM69.3,100.53l.23,1.01c.98-.82,2.43-.9,3.34-.85l-.3-1.32c-.84-.27-1.57-.27-2.16.01-.65.31-.99.89-1.11,1.15Z"/>
    </g>
    <g>
      <path class="cls-5" d="M73.58,101.55s1.45,2.41,5.48,3.31c0,0-3.6,5.05-8.03,5.93,0,0-2.66-4.14-1.49-7.99,0,0,.91-1.48,3.34-1.21l.7-.03Z"/>
      <path class="cls-21" d="M70.76,111.41l-.21-.32c-.11-.18-2.78-4.41-1.56-8.45l.02-.07.04-.06c.04-.07,1.12-1.76,3.84-1.48l.99-.05.17.29s1.42,2.23,5.12,3.05l.83.18-.49.69c-.15.21-3.78,5.24-8.37,6.15l-.38.08ZM70.05,103.05c-.84,2.92.69,6.08,1.26,7.1,3.06-.79,5.7-3.65,6.77-4.95-2.86-.85-4.29-2.41-4.79-3.06l-.43.02h-.04c-1.8-.2-2.59.67-2.77.9Z"/>
    </g>
    <g>
      <path class="cls-2" d="M71.02,110.89s1.02,2.44,2.86.27c0,0,.52-.6,2.16-.43l1.11-1.36s1.58,1.58,1.89-1.81c0,0,1.55-.96.46-2.71,0,0-2.02-1.45-3.29,1.1l-1.34.79s.32,2.31-2.26,1.43c0,0-1.07-.45-1.59,2.71Z"/>
      <path class="cls-21" d="M72.42,112.63c-.08,0-.17,0-.25-.02-1.09-.17-1.62-1.36-1.67-1.5l-.06-.15.03-.16c.27-1.67.74-2.67,1.42-3.05.35-.2.7-.18.92-.1.61.21,1.07.22,1.29.04.26-.21.25-.75.23-.87l-.05-.37,1.53-.9c.47-.88,1.09-1.41,1.85-1.6,1.16-.29,2.16.42,2.2.45l.09.07.06.1c.99,1.6.19,2.8-.41,3.31-.16,1.35-.56,2.12-1.23,2.37-.41.15-.8.05-1.09-.1l-.97,1.19-.3-.03c-1.17-.13-1.62.2-1.68.25l.02-.02s-.01.01-.02.02c0,0,0,0,0,0h0c-.61.72-1.23,1.08-1.86,1.08ZM71.6,110.81c.14.25.41.64.74.69.3.04.69-.2,1.1-.7.12-.13.73-.74,2.34-.65l1.32-1.61.44.44c.12.11.33.23.42.2,0,0,.38-.16.51-1.66l.03-.28.24-.15c.17-.11.97-.71.35-1.83-.19-.11-.68-.34-1.19-.21-.45.12-.85.51-1.18,1.16l-.07.15-1.2.7c-.01.42-.12,1.07-.65,1.5-.54.45-1.33.5-2.34.16-.07.03-.54.29-.85,2.08Z"/>
    </g>
    <path class="cls-8" d="M72.74,98.9s-1.38-.36-2.3.22c0,0-.37,1.62,2.65,1.29l-.35-1.51Z"/>
    <path class="cls-2" d="M71.62,102.33s-.24,1.79.25,3.48c0,0,1.03,1,.91-.26,0,0,.25.72,1.15,1.12,0,0,.63-.73,1.89-1.12,0,0-.27-.33.62-.82,0,0-2.45-1.41-2.94-2.54,0,0-.63-.61-1.89.13Z"/>
  </g>
  <g>
    <g>
      <path class="cls-5" d="M88.74,68.79s-.87.27-1.47-.1c-.26-.16-.27-.77-.96-.76,0,0-1.69,1.42.52,2.71,0,0,1.25.54,1.93.25,0,0,1.15-.51,2.61.5,0,0,1.78,1.8,2.18-.08,0,0,.93-3.29-2.44-3.13,0,0-1.36.4-2.37.62Z"/>
      <path class="cls-21" d="M92.78,72.72c-.78,0-1.54-.67-1.77-.9-1.14-.76-1.99-.43-2.03-.41-.86.37-2.13-.14-2.38-.25l-.06-.03c-.88-.51-1.35-1.13-1.41-1.84-.08-1.01.72-1.71.82-1.79l.15-.13h.2s0,0,0,0c.78,0,1.09.52,1.23.78.02.03.03.06.05.09.32.17.85.06.97.02h.04c.97-.23,2.32-.62,2.33-.62l.06-.02h.07c1.18-.06,2.05.26,2.59.94.87,1.09.48,2.69.43,2.89-.19.84-.63,1.14-.98,1.24-.12.03-.23.05-.35.05ZM89.53,70.19c.57,0,1.33.15,2.16.72l.08.07c.35.36.87.66,1.04.6.03,0,.12-.1.19-.41v-.03c.1-.33.24-1.33-.21-1.9-.3-.37-.83-.54-1.59-.52-.29.08-1.43.41-2.32.61-.19.06-1.15.29-1.9-.16-.21-.13-.32-.31-.4-.46-.04-.06-.06-.11-.09-.14-.12.16-.25.39-.23.63.03.38.46.72.82.93.42.17,1.15.36,1.46.23.03-.01.4-.17.99-.17Z"/>
    </g>
    <path class="cls-7" d="M90.32,68.92s-1.05.29-2.11.61c0,0-.91-.01.29.85,0,0,1.42.35,1.87.14,0,0,.55-.1,1.32.58,0,0,.83.82,1.3-.5,0,0,.18-1.83-1.3-1.87,0,0-.43-.21-1.38.18Z"/>
    <path class="cls-3" d="M92.87,69.19s1.01.48.07,2.3c0,0-.86.44-1.12-.52,0,0,1.57-1.54-.61-2.26,0,0,1.63.04,1.66.49Z"/>
  </g>
  <g>
    <g>
      <path class="cls-16" d="M75.44,46.56s-5.07-1.98-7.48-11.63c0,0-.28-1.47-1.06-1.77-.79-.3-2.08.59-3.36,3.79,0,0-3.02,8.7,2.6,15.78,0,0,4.26,3.24,8.32-.22,0,0,3.31-2.27.98-5.96Z"/>
      <path class="cls-21" d="M70.36,54.67c-2.57,0-4.53-1.46-4.56-1.48l-.06-.04-.04-.06c-5.76-7.24-2.82-15.95-2.7-16.32,1.78-4.45,3.45-4.37,4.09-4.13,1.01.38,1.35,1.84,1.42,2.17,2.3,9.18,7.09,11.2,7.14,11.22l.17.07.1.15c2.46,3.9-.75,6.43-1.11,6.7-1.52,1.29-3.07,1.71-4.45,1.71ZM66.54,52.33c.5.35,4.09,2.72,7.56-.24l.05-.04c.11-.08,2.74-1.96.91-5.05-.97-.47-5.41-3.04-7.64-11.93v-.03c-.1-.49-.4-1.23-.72-1.35-.28-.11-1.37.3-2.64,3.47-.02.06-2.82,8.43,2.48,15.16Z"/>
    </g>
    <path class="cls-13" d="M67.12,34.37s1.12,8.51,8.22,13.37c0,0,.85,3.86-3.33,5.47,0,0-1.57-2.58-4.3-1.97,0,0-3.64-3.7-2.69-7.75,0,0,1.91-.75-.16-3.06,0,0-.11-2.66.65-4.69,0,0,1.32-2.84,1.62-1.37Z"/>
    <path class="cls-23" d="M75.34,47.74s.9,1.72-1.29,4.25c0,0-10.24-7.97-7.49-17.44,0,0,.53-1.17.84,1.2,0,0,1.76,8.06,7.94,11.99Z"/>
  </g>
</svg>