<?xml version="1.0" encoding="UTF-8"?>
<svg id="Layer_1" data-name="Layer 1" xmlns="http://www.w3.org/2000/svg" version="1.1" viewBox="0 0 150 150">
  <defs>
    <style>
      .cls-1 {
        fill: #fccba9;
      }

      .cls-1, .cls-2, .cls-3, .cls-4, .cls-5, .cls-6, .cls-7, .cls-8, .cls-9, .cls-10, .cls-11, .cls-12, .cls-13, .cls-14, .cls-15, .cls-16, .cls-17, .cls-18, .cls-19, .cls-20, .cls-21, .cls-22, .cls-23, .cls-24, .cls-25, .cls-26, .cls-27 {
        stroke-width: 0px;
      }

      .cls-2 {
        fill: #e88b62;
      }

      .cls-3 {
        fill: #f7d581;
      }

      .cls-4 {
        fill: #f3e0d8;
      }

      .cls-5 {
        fill: #2e5d2d;
      }

      .cls-6 {
        fill: #9585ac;
      }

      .cls-7 {
        fill: #654c47;
      }

      .cls-8 {
        fill: #cd1e55;
      }

      .cls-9 {
        fill: #53a046;
      }

      .cls-10 {
        fill: #fae6a8;
      }

      .cls-11 {
        fill: #382823;
      }

      .cls-12 {
        fill: #bb684f;
      }

      .cls-13 {
        fill: #1b2519;
      }

      .cls-14 {
        fill: #c7725d;
      }

      .cls-15 {
        fill: #693b58;
      }

      .cls-16 {
        fill: #ccc7ca;
      }

      .cls-17 {
        fill: #ee353f;
      }

      .cls-28 {
        opacity: .64;
      }

      .cls-29 {
        opacity: .85;
      }

      .cls-30 {
        opacity: .78;
      }

      .cls-18 {
        fill: #2b1e1a;
      }

      .cls-19 {
        fill: #0f2824;
      }

      .cls-20 {
        fill: #fbe4a9;
      }

      .cls-21 {
        fill: #eaa498;
      }

      .cls-22 {
        fill: #1d1514;
      }

      .cls-23 {
        fill: #97424d;
      }

      .cls-24 {
        fill: #f4966e;
      }

      .cls-25 {
        fill: #fff;
      }

      .cls-26 {
        fill: #6a5b65;
      }

      .cls-27 {
        fill: #f0759b;
      }
    </style>
  </defs>
  <g>
    <g>
      <path class="cls-21" d="M79.15,104.29s-.07,2.32-.46,4.47c0,0-.52,1.78.87,2.1,0,0,6.3.13,6.69.13,0,0,1.29.01,1.68-.31,0,0,.86-1.3-2.29-3.27l-.85-.69,2.07-8.37-7.42-.61s-.29,6.55-.29,6.55Z"/>
      <path class="cls-15" d="M86.31,111.44h-.09c-.51,0-6.42-.13-6.67-.13h-.09c-.47-.12-.83-.38-1.06-.76-.43-.74-.2-1.69-.15-1.89.38-2.08.45-4.36.45-4.38h0l.31-7.02,8.41.69-2.13,8.61.61.5c1.48.93,2.34,1.87,2.54,2.79.14.63-.09,1.02-.14,1.1l-.04.06-.05.04c-.46.37-1.5.41-1.9.41v-.02ZM86.24,110.55c.53,0,1.1-.07,1.33-.17.05-.24.09-1.17-2.17-2.59l-.05-.03-1.07-.87,2.01-8.14-6.43-.53-.27,6.08c0,.13-.08,2.4-.47,4.53v.05c-.07.21-.18.83.05,1.21.09.16.23.26.44.32,2.19.05,6.33.13,6.62.13h.01Z"/>
    </g>
    <path class="cls-1" d="M82.15,102.59v4.21s.94-.43,2.06-.24l1.41-5.24s-2.86-1.78-3.48,1.27h0Z"/>
    <path class="cls-1" d="M87.53,109.63s-1.69-2.17-2.99-2.11c0,0-2.86-.51-3.83,1.97,0,0-.48,1.16,5.83.82,0,0,1.38-.12.99-.67h0Z"/>
    <g>
      <path class="cls-23" d="M87.51,112.09l-8.24.07c-.45,0-.81-.36-.82-.8h0c0-.45.36-.81.8-.82l8.24-.07c.45,0,.81.36.82.8h0c0,.45-.36.81-.8.82Z"/>
      <path class="cls-15" d="M79.13,112.5c-.27,0-.52-.1-.71-.29s-.3-.44-.3-.71v-.28c0-.56.44-1.01,1-1.02l8.52-.07h0c.27,0,.52.1.71.29s.3.44.3.71v.28c0,.56-.44,1.01-1,1.02h0l-8.52.07h0ZM87.64,110.8h0l-8.52.07c-.19,0-.34.15-.34.34v.28c0,.09.04.17.1.24s.15.09.24.1l8.52-.07h0c.19,0,.34-.15.33-.34v-.28c0-.09-.04-.17-.1-.24-.06-.06-.15-.1-.24-.1h0Z"/>
    </g>
    <g>
      <g>
        <path class="cls-14" d="M78.7,107.25s2.67.38,3.7,3.2h-1.84s.31-1.19-2.08-1.84l.23-1.36h0Z"/>
        <path class="cls-15" d="M80.12,110.81l.11-.42s.16-.9-1.84-1.45l-.29-.08.33-1.98.32.05c.12.02,2.89.44,3.96,3.42l.16.45-2.75.02h0ZM78.86,108.37c1.58.51,1.96,1.28,2.03,1.76h1.01c-.81-1.72-2.27-2.3-2.92-2.48l-.12.72Z"/>
      </g>
      <g>
        <path class="cls-14" d="M85.89,107.52s-2.03.09-3,2.93h1.84s.12-1.22,2.5-1.91l-1.34-1.02Z"/>
        <path class="cls-15" d="M82.42,110.79l.15-.45c1.03-3.02,3.21-3.15,3.3-3.16h.12l1.97,1.49-.64.19c-2.09.61-2.26,1.6-2.26,1.61l-.04.28h-.29l-2.31.03h0ZM85.8,107.87c-.38.06-1.63.41-2.42,2.24h1.1c.17-.41.65-1.15,2.04-1.69l-.73-.56h.01Z"/>
      </g>
    </g>
  </g>
  <g>
    <g>
      <path class="cls-21" d="M79.19,88.78s3,3.33,7.83,5.32c0,0,.41-4.32,3.47-5.83,0,0-3.22-1.79-5.82-3.36-.92-.56-1.33-3.68-2.17-5.61-.98-2.24-5.66-2.34-5.78,1.53-.02.54.07,5,2.47,7.95Z"/>
      <path class="cls-15" d="M87.41,94.73l-.56-.23c-4.87-2-7.87-5.29-8-5.43v-.02c-2.66-3.25-2.58-8.2-2.58-8.25.06-1.84,1.09-3.13,2.75-3.46,1.64-.31,3.31.44,3.88,1.76.33.77.6,1.69.85,2.58.32,1.14.73,2.56,1.15,2.82,2.57,1.56,5.77,3.34,5.81,3.36l.74.41-.76.38c-2.8,1.39-3.22,5.44-3.22,5.48,0,0-.06.6-.06.6ZM79.53,88.48c.16.17,2.87,3.08,7.14,4.97.21-1.17.9-3.75,2.94-5.18-1.09-.61-3.29-1.86-5.16-2.99-.72-.44-1.1-1.78-1.54-3.34-.24-.86-.5-1.76-.81-2.47-.4-.93-1.67-1.47-2.89-1.24-.59.11-1.97.59-2.03,2.6,0,.05-.07,4.65,2.36,7.65h0Z"/>
    </g>
    <g>
      <path class="cls-23" d="M83.16,92.34s-.05-4.03,3.7-6.29l4.94,2.43s-3.65,1.91-4.07,6.54c0,0-3.37-1.82-4.58-2.68h.01Z"/>
      <path class="cls-15" d="M88.12,95.73l-.6-.32c-.14-.08-3.41-1.84-4.62-2.71l-.18-.13v-.23c0-.17-.02-4.31,3.92-6.68l.21-.13,5.95,2.92-.78.41c-.14.07-3.44,1.86-3.83,6.18l-.06.67v.02ZM83.61,92.11c.96.64,2.82,1.68,3.76,2.2.51-3.18,2.46-5,3.52-5.78l-4.01-1.97c-2.84,1.83-3.22,4.72-3.27,5.55Z"/>
    </g>
    <path class="cls-14" d="M86.86,86.66s-4.81,3.31.36,6.58c0,0,.37-2.68,3.53-4.6l-3.89-1.98Z"/>
    <g>
      <path class="cls-15" d="M87.36,88.97c.11.22.17.45.22.67.05.23.07.45.09.68,0,.23,0,.46,0,.68-.02.23-.06.46-.14.69-.11-.22-.17-.45-.22-.67-.05-.23-.08-.45-.09-.68s0-.46,0-.69c.02-.23.06-.46.13-.69h0Z"/>
      <path class="cls-15" d="M86.12,91.1c.16-.19.34-.34.52-.48s.38-.26.58-.37.41-.2.63-.29c.22-.08.44-.15.69-.17-.16.19-.34.34-.52.48-.19.14-.38.26-.58.37s-.41.2-.63.29c-.22.08-.44.15-.69.17Z"/>
    </g>
    <g>
      <path class="cls-15" d="M85.75,88.14c.11.22.17.45.21.67.05.23.07.45.09.68,0,.23,0,.46,0,.68-.02.23-.06.46-.14.69-.11-.22-.17-.45-.22-.67-.05-.23-.07-.45-.09-.68,0-.23,0-.46,0-.69.02-.23.05-.46.13-.69h.02Z"/>
      <path class="cls-15" d="M84.5,90.27c.16-.19.34-.34.52-.48.19-.14.38-.26.58-.37s.41-.21.63-.29.44-.15.69-.17c-.16.19-.34.34-.52.48-.19.14-.38.26-.58.37s-.41.2-.63.28c-.22.08-.44.15-.69.17h0Z"/>
    </g>
    <path class="cls-1" d="M81.58,79.1s-1.75-1.5-2.61,2.66c0,0,.35,3.23,2.03,5.38,0,0,1.04,1.01,1.73,1.42,0,0,.91-1.72,3.13-2.4,0,0-1.62-.84-1.9-1.27,0,0-1.01-2.38-1.55-4.41,0,0-.21-1.13-.83-1.39h0Z"/>
  </g>
  <g>
    <g>
      <path class="cls-21" d="M63.95,104.29s-.07,2.32-.46,4.47c0,0-.52,1.78.87,2.1,0,0,6.3.13,6.69.13,0,0,1.29.01,1.68-.31,0,0,.86-1.3-2.29-3.27l-.85-.69,2.07-8.37-7.42-.61s-.29,6.55-.29,6.55Z"/>
      <path class="cls-15" d="M71.11,111.44h-.09c-.51,0-6.42-.13-6.67-.13h-.09c-.47-.12-.83-.38-1.06-.76-.43-.74-.2-1.69-.15-1.89.38-2.08.45-4.36.45-4.38h0l.31-7.02,8.41.69-2.13,8.61.61.5c1.48.93,2.34,1.87,2.54,2.79.14.63-.09,1.02-.14,1.1l-.04.06-.05.04c-.46.37-1.5.41-1.9.41v-.02ZM71.04,110.55c.52,0,1.1-.07,1.33-.17.05-.24.09-1.17-2.17-2.59l-.05-.03-1.07-.87,2.01-8.14-6.43-.53-.27,6.08c0,.13-.08,2.4-.47,4.53v.05c-.07.21-.18.83.05,1.21.09.16.23.26.44.32,2.19.05,6.33.13,6.62.13h.01Z"/>
    </g>
    <path class="cls-1" d="M66.95,102.59v4.21s.94-.43,2.06-.24l1.41-5.24s-2.86-1.78-3.48,1.27h0Z"/>
    <path class="cls-1" d="M72.33,109.63s-1.69-2.17-2.99-2.11c0,0-2.86-.51-3.83,1.97,0,0-.48,1.16,5.83.82,0,0,1.38-.12.99-.67h0Z"/>
    <g>
      <path class="cls-23" d="M72.32,112.09l-8.24.07c-.45,0-.81-.36-.82-.8h0c0-.45.36-.81.8-.82l8.24-.07c.45,0,.81.36.82.8h0c0,.45-.36.81-.8.82Z"/>
      <path class="cls-15" d="M63.93,112.5c-.27,0-.52-.1-.71-.29-.19-.19-.3-.44-.3-.71v-.28c0-.56.44-1.01,1-1.02l8.52-.07h0c.27,0,.52.1.71.29s.3.44.3.71v.28c0,.56-.44,1.01-1,1.02h0l-8.52.07h0ZM72.45,110.8h0l-8.52.07c-.19,0-.34.15-.34.34v.28c0,.09.04.17.1.24s.15.09.24.1l8.52-.07h0c.19,0,.34-.15.34-.34v-.28c0-.09-.04-.17-.1-.24-.06-.06-.15-.1-.24-.1Z"/>
    </g>
    <g>
      <g>
        <path class="cls-14" d="M63.51,107.25s2.67.38,3.69,3.2h-1.84s.31-1.19-2.08-1.84c0,0,.23-1.36.23-1.36Z"/>
        <path class="cls-15" d="M64.93,110.81l.11-.42s.16-.9-1.84-1.45l-.29-.08.33-1.98.32.05c.12.02,2.89.44,3.96,3.42l.16.45-2.75.02h0ZM63.66,108.37c1.58.51,1.96,1.28,2.03,1.76h1.01c-.81-1.72-2.27-2.3-2.92-2.48l-.12.72Z"/>
      </g>
      <g>
        <path class="cls-14" d="M70.7,107.52s-2.03.09-3,2.93h1.84s.12-1.22,2.5-1.91l-1.34-1.02Z"/>
        <path class="cls-15" d="M67.23,110.79l.15-.45c1.03-3.02,3.21-3.15,3.3-3.16h.12l1.97,1.49-.64.19c-2.09.61-2.26,1.6-2.26,1.61l-.04.28h-.29l-2.31.03h0ZM70.6,107.87c-.38.06-1.63.41-2.42,2.24h1.1c.17-.41.65-1.15,2.04-1.69l-.73-.56h0Z"/>
      </g>
    </g>
  </g>
  <g>
    <g>
      <path class="cls-8" d="M86.86,91.45c-1.41,1.35-7.93,2.36-7.93,2.36,0,0,9.33-2.09,0,0s-17.71-2.74-17.71-2.74c0,0,.15.35,0,0s.87-6.14.87-6.14c0,0,1.01-5.29,6.35-8.56,0,0,9.28,4.4,14.5.13,0,0,2.26,1.18,2.51,2.29l1.43,12.15.12.28s-.1.17-.14.21v.02Z"/>
      <path class="cls-15" d="M74.05,94.79c-7.16,0-12.76-3.17-13.04-3.33l.23-.2-.35.15-.62-1.4.54.31c.08-.82.3-2.38.85-5.46.04-.23,1.11-5.52,6.55-8.86l.21-.13.22.1c.09.04,9.09,4.23,14.03.19l.23-.19.26.14c.25.13,2.46,1.31,2.74,2.6v.04l1.43,12.09.19.43-.12.2c-.13.23-.19.28-.21.3h0c-1.46,1.4-7.41,2.37-8.16,2.48-1.71.38-3.38.54-4.97.54h0ZM61.66,90.8c1.35.71,8.94,4.42,17.18,2.58l4.14-.93.02.08c1.5-.38,2.91-.85,3.49-1.34l-.05-.11-1.44-12.2c-.15-.59-1.23-1.38-2.02-1.84-5,3.79-13.04.5-14.51-.16-4.92,3.13-5.93,8.08-5.94,8.13-.42,2.38-.83,5.02-.88,5.78h0Z"/>
    </g>
    <g class="cls-28">
      <path class="cls-27" d="M65.52,81.53s5.4,4.05,9.25,4.15c0,0-1.44,2.88-5.37,5.99,0,0-2.23.9-5.7-1.71,0,0,.15-3.69,1.83-8.43h0Z"/>
    </g>
    <g>
      <g>
        <path class="cls-5" d="M75.89,94c-1.51.53-6.75-.4-6.75-.4l.66-.62c7.26-5.58,10.57-14.82,10.57-14.82,1.28-.55,2.64-1.43,2.64-1.43l1.32.99s2.96,1.9,3.39,14.14l-.49.28-.49-.09s-.05.85-10.78,1.97"/>
        <path class="cls-13" d="M74.4,94.61c-2.06,0-4.92-.49-5.34-.57l-.88-.16,1.34-1.26c7.07-5.44,10.38-14.53,10.42-14.62l.07-.18.18-.08c1.23-.53,2.56-1.38,2.57-1.39l.26-.17,1.56,1.18c.3.22,3.15,2.56,3.58,14.49v.27l-.85.5-.44-.08c-.71.45-3.05,1.12-10.86,1.94v-.05c-.39.13-.96.18-1.61.18ZM75.74,93.58l.24.68-.07-.67c8.15-.85,10-1.53,10.39-1.74l.02-.32.82.15.11-.06c-.45-11.46-3.16-13.5-3.19-13.52h-.02l-1.07-.82c-.44.27-1.35.81-2.26,1.22-.52,1.34-3.92,9.65-10.6,14.81,1.77.27,4.68.61,5.63.27Z"/>
      </g>
      <g class="cls-29">
        <path class="cls-19" d="M68.7,94.54s6.95-4.63,12.28-16.44l1.38-.81s1.48.4,1.26.9c-3.54,8.08-6.39,11.88-10.32,16.25l-4.61.1h.01Z"/>
      </g>
      <g class="cls-29">
        <path class="cls-19" d="M75.8,95.29s6.39-7.38,9.41-15.77l1.34,3.95s-4.14,9-7.57,11.76c0,0-3.18.06-3.18.06Z"/>
      </g>
      <path class="cls-19" d="M86.97,87.29s-1.53,4.74-3.58,6.26l4.12-.33-.53-5.93h-.01Z"/>
      <g class="cls-30">
        <path class="cls-9" d="M73.1,90.44s7.98.69,14.04-1.43l-.16-2.42s-5,1.31-11.41,1.27c0,0-1.34,1.72-2.46,2.58h-.01Z"/>
      </g>
      <g class="cls-30">
        <path class="cls-9" d="M76.79,85.75s5.27.23,9.87-1.26l-.58-2.66s-2.32.72-7.52,1.17c0,0-.51,1-1.77,2.76h0Z"/>
      </g>
    </g>
  </g>
  <g>
    <g>
      <g>
        <path class="cls-5" d="M61.08,95.97s19.92,4.05,26.79-.84l.69,5.55s-5.61,3.89-16.62,3.11c0,0-7.73-.27-11.79-2.59,0,0,.93-5.23.93-5.23Z"/>
        <path class="cls-13" d="M74.85,104.34c-.93,0-1.91-.03-2.94-.11-.3-.01-7.87-.3-11.98-2.64l-.27-.16,1.06-5.99.45.09c.2.04,19.81,3.95,26.44-.77l.61-.43.81,6.56-.22.15c-.21.15-4.86,3.3-13.97,3.3h0ZM60.65,100.96c3.99,2.1,11.24,2.38,11.31,2.38,9.54.68,14.99-2.21,16.12-2.89l-.57-4.56c-6.87,4.02-23.09,1.18-26.08.61l-.79,4.47h0Z"/>
      </g>
      <g class="cls-29">
        <path class="cls-19" d="M61.19,96.3l2.33.42-.96,5.14s-1.56-.35-2.35-.89l.98-4.66h0Z"/>
      </g>
      <g class="cls-29">
        <path class="cls-19" d="M65.54,97.17c-.05.19-.99,5.29-.99,5.29l2.39.49s.73-5.29.89-5.61l-2.29-.17Z"/>
      </g>
      <g class="cls-29">
        <path class="cls-19" d="M69.44,97.45s-.77,4.99-.68,5.75l2.1.25s.39-3.57.8-5.66c0,0-2.22-.34-2.22-.34Z"/>
      </g>
      <g class="cls-29">
        <polygon class="cls-19" points="73.24 97.73 72.68 103.68 75.27 103.61 75.54 97.79 73.24 97.73"/>
      </g>
      <g class="cls-29">
        <path class="cls-19" d="M86.36,96.4l.5,4.73,1.53-.69-.54-4.86s-1.37.62-1.48.82h0Z"/>
      </g>
      <g class="cls-30">
        <path class="cls-9" d="M76.91,99.73c-8.98.27-15.79-1.82-15.79-1.82l-.38,1.78c5.53,2.46,16.15,2.05,16.15,2.05v-2.01h.02Z"/>
      </g>
      <g class="cls-30">
        <path class="cls-9" d="M85.4,98.44s1.03-.04,2.54-.89l.12,1.54s-.72.88-2.59,1.15l-.07-1.8Z"/>
      </g>
    </g>
    <g>
      <g>
        <path class="cls-5" d="M77.12,97.55s-.03,3.96.17,7.53c0,0,4.18.37,8.06-1.26l-.38-7.21s-6.26.81-7.86.94h.01Z"/>
        <path class="cls-13" d="M78.39,105.57c-.67,0-1.09-.03-1.14-.04l-.39-.03-.02-.39c-.2-3.55-.17-7.52-.17-7.56v-.41l.41-.03c1.57-.12,7.77-.93,7.83-.93l.48-.06.42,8.01-.29.12c-2.74,1.15-5.6,1.33-7.13,1.33h0ZM77.71,104.66c1.07.04,4.2.03,7.17-1.13l-.33-6.41c-1.38.18-5.3.68-6.99.84,0,1.05,0,3.95.15,6.7Z"/>
      </g>
      <g class="cls-29">
        <path class="cls-19" d="M79.93,97.6l.25,7.09h-2.49s-.36-5.28-.24-6.8c0,0,2.48-.29,2.48-.29Z"/>
      </g>
      <g class="cls-29">
        <path class="cls-19" d="M82.52,97.42l.43,6.83s1.44-.06,2.01-.71l-.44-6.51-2,.39Z"/>
      </g>
      <g class="cls-30">
        <path class="cls-9" d="M77.47,100.4s2.71.05,7.34-.82l.23,2.3s-4.32,1.18-7.42.89l-.16-2.37h.01Z"/>
      </g>
    </g>
  </g>
  <g>
    <g>
      <g>
        <path class="cls-6" d="M88.16,96.79s-13.14,5.56-27.31-.6c0,0-.53-.63-.51-1.13,0,0,.09-3.05.21-3.7.1-.55.34-.73.83-.35,0,0,7.1,5.7,26.36.99,0,0,.21-1.18.85.02,0,0,.54,4.69-.43,4.77Z"/>
        <path class="cls-15" d="M75.02,99.52c-4.3,0-9.27-.71-14.34-2.92l-.1-.04-.07-.08c-.11-.13-.64-.8-.61-1.44,0-.31.09-3.09.22-3.76.03-.17.13-.71.58-.87.29-.11.62-.02.97.26.07.06,7.15,5.44,25.72.97.09-.24.27-.53.6-.59.54-.09.87.53,1,.77l.04.07v.08c.12.95.42,4.11-.29,4.97-.15.18-.32.26-.46.28-.6.24-5.96,2.3-13.26,2.3ZM61.13,95.83c13.79,5.94,26.72.6,26.85.55l.08-.03c.26-.35.3-2.23.09-4.15l-.03.17-.28.07c-19.26,4.7-26.45-.84-26.75-1.08-.03-.02-.06-.04-.08-.06,0,.03-.02.08-.03.14-.1.51-.18,2.8-.2,3.63,0,.21.19.56.34.76h0Z"/>
      </g>
      <path class="cls-16" d="M88.42,92.67c-.61-.86-.82,0-.82,0-17.62,3.83-25.5-.56-25.5-.56-.13-.08-.23.1-.33.08.22,1.5.64,3.82,3.48,5.21,15.31,3.18,22.75-1.03,22.75-1.03.94-.07.43-3.7.43-3.7h-.01Z"/>
      <path class="cls-25" d="M63.17,92.58s9.44,3.56,24.21.09c0,0,1.2-.86,1.16.52,0,0,.31,2.44-.34,3.17,0,0,.37-.08-.86-2.29,0,0-14.87,3.68-23.46-.5,0,0-2.49-1.6-.71-1h0Z"/>
    </g>
    <g>
      <g>
        <path class="cls-6" d="M85.16,95.97c.07,2.11-1.58,3.88-3.69,3.95-2.11.07-3.88-1.58-3.95-3.69-.07-2.11,1.58-3.88,3.69-3.95,2.11-.07,3.88,1.58,3.95,3.69Z"/>
        <path class="cls-15" d="M81.33,100.37c-1.09,0-2.11-.41-2.91-1.15-.83-.78-1.31-1.84-1.35-2.98-.04-1.14.37-2.23,1.15-3.06.78-.83,1.84-1.31,2.98-1.35,1.14-.04,2.23.37,3.06,1.15.83.78,1.32,1.84,1.35,2.98.04,1.14-.37,2.23-1.15,3.06-.78.83-1.84,1.32-2.98,1.35h-.15ZM81.34,92.72h-.12c-.9.03-1.74.41-2.35,1.07-.62.66-.94,1.52-.91,2.42.03.9.41,1.74,1.07,2.35.66.62,1.52.94,2.42.91.9-.03,1.74-.41,2.35-1.07.62-.66.94-1.52.91-2.42-.03-.9-.41-1.74-1.07-2.35-.63-.59-1.44-.91-2.3-.91Z"/>
      </g>
      <path class="cls-16" d="M84.65,96.06c.06,1.79-1.25,3.29-2.92,3.35-1.67.06-3.08-1.35-3.14-3.14-.06-1.79,1.25-3.29,2.92-3.35,1.67-.06,3.08,1.35,3.14,3.14Z"/>
      <g>
        <g>
          <path class="cls-6" d="M84.26,95.68c.21,1.36-.67,2.66-1.96,2.9s-2.51-.67-2.72-2.03c-.21-1.36.67-2.65,1.96-2.89,1.29-.24,2.51.67,2.72,2.03h0Z"/>
          <path class="cls-15" d="M81.89,98.95c-.53,0-1.05-.17-1.5-.48-.61-.44-1.02-1.1-1.13-1.87-.24-1.53.76-3,2.23-3.28.69-.13,1.4.03,1.98.44.61.44,1.02,1.1,1.14,1.87h0c.24,1.53-.76,3-2.23,3.28-.16.03-.32.04-.48.04h0ZM81.96,93.95c-.12,0-.24,0-.35.03-1.11.21-1.87,1.34-1.69,2.51.09.59.4,1.09.86,1.42.43.31.95.42,1.47.33,1.11-.21,1.87-1.33,1.69-2.51h0c-.09-.59-.4-1.09-.86-1.42-.33-.24-.72-.36-1.11-.36h-.01Z"/>
        </g>
        <path class="cls-16" d="M83.96,95.87c.07,1.18-.65,2.19-1.6,2.25-.96.07-1.8-.83-1.87-2.01-.07-1.18.65-2.19,1.6-2.25.96-.07,1.8.83,1.87,2.01Z"/>
        <path class="cls-25" d="M83.96,95.89c.03.89-.47,1.63-1.11,1.65-.65.02-1.19-.68-1.23-1.57-.03-.89.47-1.63,1.11-1.65.65-.02,1.19.68,1.23,1.57Z"/>
      </g>
    </g>
  </g>
  <g>
    <path class="cls-21" d="M57.78,79.22s-3.71,2.52-6.33,7.04c0,0,4.22.99,5.31,4.23,0,0,2.21-2.95,4.12-5.31.68-.84,3.82-.82,5.85-1.39,2.35-.66,3.08-5.29-.74-5.93-.53-.09-4.97-.61-8.21,1.36Z"/>
    <path class="cls-15" d="M56.6,91.44l-.27-.81c-1-2.96-4.95-3.93-4.99-3.94l-.59-.14.3-.52c2.64-4.56,6.31-7.08,6.47-7.18h.02c3.58-2.19,8.47-1.44,8.52-1.43,1.82.31,2.96,1.5,3.05,3.2.09,1.67-.88,3.22-2.27,3.61-.8.23-1.75.36-2.67.49-1.18.17-2.64.37-2.95.75-1.89,2.33-4.09,5.27-4.11,5.3l-.51.68h0ZM52.13,85.99c1.13.37,3.6,1.4,4.74,3.61.75-.99,2.29-3.01,3.67-4.71.53-.66,1.92-.85,3.52-1.08.89-.13,1.81-.25,2.56-.46.97-.27,1.68-1.46,1.62-2.7-.03-.6-.32-2.03-2.31-2.36-.04,0-4.59-.7-7.9,1.3-.19.13-3.44,2.43-5.89,6.4h-.01Z"/>
  </g>
  <g>
    <path class="cls-23" d="M53.71,82.67s4,.49,5.73,4.52l-3.07,4.57s-1.39-3.87-5.93-4.92c0,0,2.26-3.1,3.27-4.17Z"/>
    <path class="cls-15" d="M56.24,92.74l-.3-.83c-.05-.15-1.38-3.66-5.61-4.63l-.66-.15.4-.55c.09-.13,2.29-3.13,3.31-4.22l.16-.17.23.03c.17.02,4.27.57,6.08,4.79l.1.22-3.7,5.5h0ZM51.18,86.58c3.08.94,4.62,3.12,5.25,4.28l2.5-3.71c-1.42-3.04-4.25-3.83-5.05-3.99-.77.86-2.05,2.57-2.69,3.43h0Z"/>
  </g>
  <path class="cls-14" d="M58.83,87.11s-2.62-5.21-6.57-.53c0,0,2.61.73,4.08,4.12l2.49-3.59Z"/>
  <g>
    <path class="cls-15" d="M56.47,87.29c-.23.08-.47.1-.7.12-.23,0-.46,0-.69,0-.23-.02-.45-.05-.68-.1-.22-.05-.45-.12-.67-.23.23-.08.47-.1.69-.12.23-.02.46,0,.69,0,.23.02.45.05.68.1.22.05.45.12.67.23h.01Z"/>
    <path class="cls-15" d="M54.53,85.77c.17.18.29.38.41.58.11.2.21.41.29.62.08.21.15.43.2.66.05.23.09.46.08.7-.17-.18-.29-.38-.41-.58-.11-.2-.21-.41-.29-.62-.08-.21-.15-.43-.2-.66-.05-.23-.09-.46-.08-.7Z"/>
  </g>
  <g>
    <path class="cls-15" d="M57.51,85.81c-.23.07-.47.1-.7.12-.23,0-.46,0-.69,0-.23-.02-.45-.05-.68-.1-.22-.05-.45-.12-.67-.23.23-.08.47-.1.69-.12.23-.02.46,0,.69,0,.23.02.45.05.68.1.22.05.45.12.67.23h.01Z"/>
    <path class="cls-15" d="M55.58,84.28c.17.18.29.38.41.58.11.2.21.41.29.62.08.21.15.43.2.66.05.23.09.46.08.7-.17-.18-.29-.38-.41-.58-.11-.2-.21-.41-.29-.62-.08-.21-.15-.43-.2-.66-.05-.23-.08-.46-.08-.7Z"/>
  </g>
  <path class="cls-1" d="M56.55,82.63s2.22.84,3.01,3.28c0,0,.4-.69,1.49-1.58,0,0,2.19-.72,4.52-.9,0,0,2.48-.08,2.34-2.42,0,0-.22-1.77-4.55-1.56,0,0-2.06-.13-4.32.81,0,0-.8.08-2.47,2.38h-.02Z"/>
  <g>
    <g>
      <path class="cls-21" d="M49.68,87.53s1.17-1.36,3.71.06c0,0,3.38,1.39,3.84,6.07,0,0-2.13,1.3-2.39,2.42,0,0-.99,1.03-1.93.27,0,0-1.94,1.3-2.24.57,0,0-.28-1.43-1.69-2.26,0,0-.56-.75-.35-1.33l-.76-1.09s-.07-.13.33-.59l-.67-1.15s1.06-1.76,2.14-2.95v-.02Z"/>
      <path class="cls-15" d="M51.07,97.58c-.1,0-.2,0-.29-.04-.23-.07-.42-.23-.51-.46l-.03-.09s-.27-1.25-1.48-1.97l-.08-.05-.05-.07c-.06-.09-.58-.8-.47-1.51l-.66-.96c-.16-.28,0-.61.17-.86l-.65-1.11.14-.23c.04-.07,1.09-1.81,2.19-3.02.12-.13,1.49-1.57,4.24-.04.36.16,3.63,1.71,4.09,6.43l.03.28-.24.15c-.76.46-2.03,1.46-2.19,2.14l-.03.12-.08.09c-.4.42-1.34,1-2.26.49-.45.28-1.24.7-1.85.7h.01ZM51.08,96.69h0c.27,0,.99-.32,1.58-.72l.28-.18.26.21c.5.41,1.05,0,1.25-.16.34-1.02,1.72-2.02,2.31-2.4-.53-4.15-3.51-5.42-3.54-5.43l-.05-.02c-2.2-1.23-3.15-.17-3.15-.16h0c-.82.91-1.63,2.17-1.95,2.67l.69,1.19-.21.24c-.08.1-.14.17-.17.22l.77,1.11-.08.22c-.09.24.1.63.24.85,1.25.78,1.67,1.98,1.78,2.38v-.02Z"/>
    </g>
    <path class="cls-1" d="M52.75,89.03s2.55.41,3.8,4.52c0,0-.83.08-2.09,2.09,0,0-1,.5-1.3-.44,0,0-.32-1.32.15-2.26,0,0-1.51.61-.97,3.08,0,0-.62.75-1.12.49,0,0-.15-1.06-.87-2,0,0-.99-1.38-.34-2.43,0,0-.89-.12-.61-1.21,0,0,.51-1.33,1.75-2.01,0,0,.9-.1,1.6.16h0Z"/>
    <g>
      <path class="cls-15" d="M53.09,96.88s-.07-.02-.09-.02c-.03,0-.05-.02-.07-.03-.05-.02-.09-.04-.13-.06-.08-.05-.16-.1-.22-.16-.14-.12-.25-.27-.31-.42-.14-.31-.14-.63-.11-.9.04-.28.11-.53.21-.77.09-.24.21-.47.32-.69v-.03h.02c.07-.09.14-.23.16-.36.03-.13.02-.28-.03-.41-.05-.14-.13-.26-.23-.38-.05-.06-.11-.11-.16-.16l-.18-.15.21.11c.07.04.13.09.2.14.12.1.24.22.33.37.08.15.13.33.13.51s-.04.35-.13.53l.02-.03c-.07.23-.14.46-.17.69-.04.23-.06.45-.05.66.02.21.07.4.16.52.04.06.09.1.15.13.03.02.06.03.09.03h.06s.01,0,0,0l-.13.88h-.05Z"/>
      <path class="cls-15" d="M52.92,94.33h-1.04c-.35,0-.69.02-1.04.08.14-.1.3-.19.46-.27s.32-.16.48-.24c.32-.15.64-.3.97-.44l.17.88h0Z"/>
      <polygon class="cls-15" points="48.29 93.05 50.22 91.19 49 93.59 48.29 93.05"/>
      <polygon class="cls-15" points="47.84 91.38 49.35 89.94 48.58 91.88 47.84 91.38"/>
    </g>
  </g>
  <g>
    <g>
      <path class="cls-21" d="M90.6,86.88l2.63.46s1.15-.47,2.81.4l.87,1.23s1.18,2.26-.65,2.59c0,0,.92,1.48-.66,2.13,0,0,.22,2.41-1.77,3.33,0,0-4.56.11-5.39-1.86l-.31-1.34.49-1.72s-1.21-3.73,1.99-5.21h-.01Z"/>
      <path class="cls-15" d="M93.61,97.46c-1.04,0-4.75-.14-5.59-2.13l-.02-.07-.33-1.45.48-1.71c-.42-1.47-.46-4.36,2.27-5.62l.13-.06,2.66.46c.39-.11,1.54-.33,3.05.47l.09.05.96,1.37c.08.14.73,1.44.26,2.39-.11.22-.32.49-.7.68.1.31.17.74.03,1.17-.13.41-.41.73-.84.96,0,.75-.23,2.62-2.03,3.45l-.08.04h-.34ZM88.86,95.01c.61,1.32,3.62,1.57,4.86,1.55,1.58-.8,1.43-2.76,1.43-2.84l-.03-.33.3-.13c.34-.14.54-.32.61-.55.14-.42-.16-.92-.16-.93l-.35-.56.65-.12c.45-.08.55-.29.58-.35.22-.45-.09-1.27-.23-1.56l-.79-1.11c-1.38-.69-2.32-.34-2.33-.34l-.12.05-2.61-.46c-2.64,1.33-1.67,4.47-1.63,4.61l.04.13-.49,1.74.27,1.19h0Z"/>
    </g>
    <g>
      <path class="cls-7" d="M100.42,86.97s-6.91.68-11.42-2.36c0,0-.95-.79.2-1.55,0,0,4.36,1.84,5.48,2.12,0,0,4.6.59,6.09.57,0,0,.74,1.32-.35,1.22Z"/>
      <path class="cls-11" d="M88.9,82.93s5.28,2.3,11.75,2.73c0,0,1.09,1.69-.26,2.55,0,0-2.21.73-4.64.19l-1.27,7.47s-1.91.4-3.61-1.47l1.38-7.1s-6.46-2.33-3.34-4.38h-.01Z"/>
      <path class="cls-18" d="M90.82,95.7s-2.33.43-2.25,1.57l.53,1.52s2.37-.96,3.91,2.06l1.75-.49s.69-1.4-1.08-3.57c0,0-2.86-1.09-2.86-1.09Z"/>
      <path class="cls-11" d="M88.9,82.93s5.28,2.3,11.75,2.73c0,0,1.09,1.69-.26,2.55,0,0-2.21.73-4.64.19l-1.27,7.47s-1.91.4-3.61-1.47l1.38-7.1s-6.46-2.33-3.34-4.38h-.01Z"/>
      <path class="cls-22" d="M91.25,93.91s-1.02.59-.61,1.5c0,0,1.49,1.76,3.5,1.15,0,0,.7-.57.62-1.65,0,0-.87.73-3.5-1h0Z"/>
      <g>
        <path class="cls-23" d="M94.79,94.99l1.44-6.72c2.72.67,3.77-.36,3.77-.36,1.72-1.09.65-2.24.65-2.24-5.97-.47-12.01-2.55-12.01-2.55,0,0-1.7,1.94,3.6,4.2l-1.26,6.5s-.91,1.35-.42,1.86c0,0-1.53.6-1.94,1.17,0,0-.24,1.36.48,1.95,0,0,2.92-.47,3.91,2.06l1.75-.49s.74-1.53-.89-3.5c0,0,.76-.13.92-1.87h0Z"/>
        <path class="cls-15" d="M92.74,101.38l-.15-.38c-.84-2.17-3.4-1.78-3.42-1.78l-.2.03-.16-.13c-.89-.73-.66-2.2-.63-2.37l.02-.1.06-.08c.34-.48,1.19-.91,1.72-1.15-.09-.67.38-1.48.58-1.79l1.18-6.06c-2.23-1-3.49-2.09-3.75-3.24-.16-.72.13-1.29.32-1.52l.2-.22.28.1c.06.02,6.06,2.07,11.9,2.53h.17l.12.14c.05.06.53.6.43,1.37-.08.58-.46,1.1-1.14,1.54-.23.2-1.35.99-3.69.54l-1.34,6.26c-.1,1.05-.42,1.61-.72,1.91,1.39,1.98.68,3.51.64,3.58l-.09.18-2.33.65h0ZM89.66,98.3c1.14,0,2.78.42,3.6,2.01l1.15-.32c.11-.41.23-1.49-.89-2.84l-.6-.72h.85c.08-.05.46-.3.57-1.47v-.05l1.54-7.17.45.11c2.4.59,3.34-.24,3.35-.25l.07-.05c.32-.2.71-.52.76-.91.03-.21-.05-.41-.11-.53-5.05-.43-10.16-1.99-11.55-2.44-.04.13-.05.3,0,.51.13.51.76,1.54,3.56,2.74l.33.14-1.35,6.94-.05.08c-.39.58-.56,1.2-.47,1.29l.47.48-.62.25c-.54.21-1.38.63-1.68.94-.03.32-.04.94.22,1.29.12,0,.26-.02.4-.02h0Z"/>
      </g>
      <g>
        <path class="cls-14" d="M90,83.68s6.87,2.22,10.43,1.94c0,0,1.28.7-.45,1.27,0,0-2.95.75-8.72-1.69,0,0-2.93-1.19-2.41-1.79,0,0,.38-.19,1.14.28h0Z"/>
        <path class="cls-15" d="M98.69,87.33c-1.43,0-3.95-.3-7.56-1.83-.74-.3-2.49-1.08-2.66-1.8-.05-.19,0-.37.13-.52l.04-.05.06-.03c.09-.04.58-.24,1.43.27.55.17,6.94,2.17,10.27,1.91h.1l.09.04c.07.04.68.39.63.93-.06.6-.87.86-1.13.95-.06,0-.52.13-1.39.13h0ZM89.27,83.72c.33.3,1.2.79,2.13,1.16,5.6,2.38,8.48,1.69,8.51,1.68.6-.2.65-.37.65-.37,0-.04-.08-.15-.21-.23-3.61.22-10.17-1.87-10.45-1.96l-.07-.03c-.23-.14-.42-.21-.55-.24h-.01Z"/>
      </g>
      <g>
        <g>
          <path class="cls-6" d="M91.9,84.65s1.26-24.12,10.73-33.51c0,0,5.06,10.82-5.29,34.75,0,0-3.89-.14-5.45-1.24h.01Z"/>
          <path class="cls-26" d="M97.64,86.35h-.3c-.16-.02-4.04-.17-5.69-1.33l-.2-.14v-.25c.06-.99,1.39-24.41,10.88-33.81l.45-.45.27.57c.05.11,1.31,2.86,1.28,8.59-.03,5.24-1.18,14.09-6.56,26.53l-.12.28h0ZM92.37,84.42c1.18.67,3.54.94,4.7,1.01,5.19-12.09,6.32-20.7,6.36-25.8.03-4.03-.61-6.57-.96-7.66-8.3,8.95-9.93,29.88-10.1,32.46h0Z"/>
        </g>
        <path class="cls-16" d="M94.03,84.64s2.73-22.84,8.4-32.39c0,0,4.25,11.04-5.25,33.15,0,0-2.7-.37-3.15-.76Z"/>
        <path class="cls-25" d="M102.43,52.26s4.48,9.4-5.25,33.15l-1.69-.26s7.28-18.41,6.93-30.95c0,0-3.3,5.19-6.52,18.82,0,0-.33-10.56,6.53-20.75h0Z"/>
        <path class="cls-26" d="M98.54,63.39c-.46,1.79-.88,3.59-1.3,5.39-.41,1.8-.82,3.6-1.17,5.41-.37,1.81-.7,3.62-.98,5.44s-.5,3.64-.63,5.47l-.34-.45,1.43.3-.5.28c.42-1.22.82-2.47,1.21-3.71.39-1.24.77-2.49,1.14-3.74.72-2.5,1.42-5.02,2.04-7.55.63-2.53,1.18-5.08,1.68-7.64.47-2.56.85-5.15,1.12-7.75-.05,2.62-.3,5.23-.65,7.83-.38,2.59-.86,5.17-1.41,7.73-.58,2.55-1.21,5.1-1.94,7.62-.36,1.26-.73,2.52-1.12,3.77s-.8,2.49-1.24,3.74l-.13.36-.37-.08-1.42-.31-.37-.08.03-.37c.15-1.86.42-3.7.73-5.53.32-1.83.72-3.64,1.14-5.44.44-1.8.9-3.59,1.42-5.37.51-1.78,1.06-3.55,1.66-5.3l-.03-.02Z"/>
      </g>
      <path class="cls-14" d="M92.27,97.01c.15.08.35.43.5,1.53,0,0-.96-1.14-2.31-.45,0,0,1.56-.19,2.64,2.31l1.27-.47s.65-.73-.84-3.29c0,0-.87-.33-1.29.09-.08.08-.06.23.05.28h-.02Z"/>
    </g>
    <path class="cls-15" d="M92.17,90.05c0,.15,0,.26,0,.38s-.02.24-.05.36c-.05.24-.13.48-.26.7-.13.22-.33.42-.55.55-.22.14-.47.18-.7.21l.09-.38c.16.15.29.3.41.47.12.17.22.35.29.54.07.19.11.39.12.59,0,.2-.05.4-.11.57.03-.19.05-.38,0-.56-.04-.18-.11-.35-.2-.51-.1-.16-.21-.3-.34-.42s-.28-.25-.42-.33l-.37-.23.46-.16c.17-.06.34-.12.46-.24.12-.11.21-.24.26-.39.05-.15.08-.32.08-.5,0-.09,0-.18,0-.26,0-.08-.03-.19-.04-.24,0,0,.88-.15.88-.15Z"/>
    <g>
      <g>
        <path class="cls-21" d="M96.87,91.71s-1-2-2.91-1.19c0,0,1.55-2.53-.79-2.82,0,0,2.41-1.02,3.69.27l.47.59s1.39,2.19-.46,3.16h0Z"/>
        <path class="cls-15" d="M96.67,92.32l-.2-.41c-.09-.17-.87-1.6-2.34-.98l-1.29.54.73-1.19c.17-.28.61-1.21.37-1.71-.11-.23-.39-.38-.83-.44l-1.65-.21,1.53-.65c.11-.05,2.71-1.12,4.18.37l.03.04.5.63s.81,1.29.5,2.46c-.15.58-.53,1.02-1.13,1.34l-.4.21h0ZM94.85,89.88c.99,0,1.73.62,2.16,1.2.17-.15.28-.33.34-.54.2-.73-.3-1.6-.38-1.74l-.44-.54c-.54-.53-1.37-.56-2.04-.46.11.11.2.24.27.39.26.55.16,1.19,0,1.69h.11-.01Z"/>
      </g>
      <g>
        <path class="cls-21" d="M96.94,91.87s1.17,1.66-.87,2.79c0,0,.18-1.16-2.01-.94,0,0-2.06.14-1.98-1.05,0,0,.7-1.95,2.1-2.26,0,0,1.34-.71,2.76,1.46Z"/>
        <path class="cls-15" d="M95.48,95.5l.14-.9h0s0-.11-.1-.21-.44-.31-1.42-.22c-.16,0-1.48.08-2.12-.56-.25-.25-.37-.59-.35-.96v-.06l.03-.06c.03-.09.79-2.15,2.37-2.53.33-.14,1.81-.59,3.28,1.63.06.09.57.88.36,1.8-.15.66-.62,1.21-1.38,1.63l-.8.44h-.01ZM94.57,93.25c.74,0,1.29.18,1.62.53.05.06.1.11.13.17.25-.22.41-.46.47-.73.13-.57-.22-1.09-.22-1.1h0c-1.16-1.78-2.15-1.33-2.19-1.31l-.05.02-.06.02c-.9.2-1.54,1.39-1.75,1.91,0,.11.05.17.09.21.28.28,1.08.33,1.42.31.19-.02.37-.03.54-.03Z"/>
      </g>
      <g>
        <path class="cls-21" d="M95.08,97.25s-3.02.07-3.44-1.29c0,0-.52-2.27,3.07-2.4,0,0,1.28.34,1.58,1.34,0,0,.12,1.43-1.21,2.35Z"/>
        <path class="cls-15" d="M94.95,97.7c-.69,0-3.28-.1-3.74-1.61v-.03s-.22-.94.41-1.75c.57-.74,1.6-1.15,3.08-1.2h.13c.06.03,1.53.43,1.89,1.66l.02.09c0,.07.13,1.7-1.4,2.76l-.11.08h-.28ZM92.07,95.84c.25.73,1.95.96,2.86.96.88-.68.92-1.62.91-1.83-.21-.61-.97-.9-1.19-.97-1.14.05-1.94.35-2.33.85-.33.43-.27.91-.26.99h0Z"/>
      </g>
      <g>
        <path class="cls-1" d="M95.08,93.93s1.3.2,1.14,1.18c0,0-.32,1.3-1.13,1.35,0,0-.74-.36-.65-1.1,0,0-2.17.58-1.49-.97,0,0,.91-.66,2.12-.46h.01Z"/>
        <path class="cls-15" d="M95.13,93.69c-.06.22-.12.41-.19.62-.07.2-.14.4-.23.59-.08.2-.18.39-.29.57s-.25.36-.43.46c.13-.16.18-.35.22-.54.03-.19.05-.39.06-.59v-.59c0-.2-.02-.4-.04-.58l.89.07h0Z"/>
      </g>
      <g>
        <path class="cls-1" d="M95.8,91.17s1.29,1.09,1,2.03c0,0,.17.51-.63.44,0,0-1.33-.65-1.13-1.36,0,0-2.29.48-1.4-.96,0,0,.95-.92,2.16-.15Z"/>
        <path class="cls-15" d="M95.88,90.93c-.09.21-.18.39-.27.58-.1.19-.2.37-.31.56-.11.18-.23.36-.37.52-.13.16-.3.32-.49.39.15-.14.23-.32.3-.51.06-.19.11-.38.14-.57.04-.19.06-.39.08-.59.02-.19.04-.4.04-.58l.87.2h.01Z"/>
      </g>
      <g>
        <path class="cls-1" d="M96.44,88.1s1.29,1.09,1,2.03c0,0,.07.47-.48.72,0,0-1.33-.65-1.13-1.36,0,0-2.11-.17-1.22-1.61,0,0,.66-.16,1.83.22Z"/>
        <path class="cls-15" d="M96.74,87.92c-.09.21-.18.39-.27.58-.1.19-.2.37-.31.56-.11.18-.23.36-.37.52-.13.16-.3.32-.49.39.15-.14.23-.32.3-.51.06-.19.11-.38.14-.57.04-.19.06-.39.08-.59.02-.19.04-.4.04-.58l.87.2h.01Z"/>
      </g>
      <g>
        <g>
          <path class="cls-21" d="M89.29,87.92s.96-1.51,3.4-1.28l.86.27s1.5-.12.72,3.19c0,0,.09,1.32-.76,1.56,0,0-1.34.54-1.94-2.24"/>
          <path class="cls-15" d="M93.24,92.15c-.19,0-.44-.04-.7-.18-.66-.35-1.13-1.18-1.41-2.46l.87-.19c.28,1.32.72,1.73.95,1.85.21.11.38.06.38.06h.04c.47-.15.44-1.1.44-1.11v-.14c.42-1.76.13-2.34-.01-2.51-.11-.12-.22-.13-.23-.13h-.09l-.9-.27c-2.08-.18-2.9,1.03-2.94,1.08l-.75-.48c.05-.07,1.14-1.74,3.82-1.48l.09.02.8.25c.18,0,.56.08.87.44.51.59.59,1.68.23,3.24.03.63-.17,1.68-1.07,1.95-.06.02-.21.06-.41.06h.02Z"/>
        </g>
        <path class="cls-1" d="M94.02,87.67s.28,1.77-.33,2.89c0,0-1.52.81-1.37-2,0,0-.15-1.1,1.71-.89h0Z"/>
      </g>
    </g>
  </g>
  <g>
    <g>
      <g>
        <path class="cls-3" d="M87.77,63.36s1.46,2.14,4.4,1.69c0,0,1.84-.44.98.98,0,0-1.51,2.06-3.54,1.73,0,0,1.78.81,4.18.11,0,0,2.38-.95,1.06.98,0,0-3.02,3.98-5.85,3.41l-.06-1.63-2.45-2.59,1.31.11s.16-1.28-1.4-2.18l1.38-2.62h-.01Z"/>
        <path class="cls-15" d="M89.56,72.77c-.22,0-.43-.02-.65-.06l-.35-.07-.07-1.81-3.14-3.32,1.94.16c-.05-.17-.14-.39-.31-.61l-.61-.28.43.07c-.16-.16-.37-.33-.64-.48l-.38-.21,1.93-3.66.42.61c.06.09,1.36,1.89,3.94,1.51.3-.07,1.2-.22,1.59.31.24.33.19.78-.14,1.34l-.02.03c-.04.06-.64.85-1.59,1.41.51,0,1.1-.08,1.72-.26.54-.21,1.47-.48,1.89.04.43.53-.11,1.32-.31,1.62v.02c-.13.16-2.81,3.64-5.65,3.65h0ZM89.43,71.87c2.37.13,4.91-3.09,5.05-3.28.17-.25.25-.41.28-.51-.19,0-.53.09-.81.2h-.04c-2.53.76-4.41-.08-4.49-.12l-1.22-.56c.07.34.04.57.04.6l-.05.43-.57-.05,1.76,1.86.05,1.42h0ZM88.02,67.05l1.66.27c1.66.27,2.96-1.37,3.09-1.54.1-.17.14-.27.15-.33-.13-.03-.42-.02-.65.03h-.04c-2.23.35-3.68-.68-4.37-1.34l-.89,1.68c.55.39.86.83,1.04,1.22h0Z"/>
      </g>
      <path class="cls-25" d="M89.14,67.89s1.65.87,5.12.09c0,0,1.01,0,0,.9,0,0-1.06,1.61-3.69,2.72,0,0,1.71-2.08.3-2.26,0,0-2.73-.53-3.61-2.07,0,0,3.53-.33,3.39-1.05,0,0-1.53-.74-1.27-1,0,0,1.2.72,2.84.27,0,0,1.39-.34.19.67,0,0-.91,1.05-3.28,1.74h.01Z"/>
    </g>
    <g>
      <g>
        <path class="cls-25" d="M86.9,58.44s2.81-2.58,3.63.15c0,0,.65,3.25-1.87,5.49l-.63.05s-.18-1.67-.86-2.48c0,0-.72-1.54-.27-3.21Z"/>
        <path class="cls-15" d="M87.63,64.61l-.05-.43c-.05-.43-.27-1.66-.75-2.24l-.04-.04-.02-.05c-.03-.07-.79-1.71-.3-3.52l.03-.12.1-.09c.17-.16,1.71-1.53,3.04-1.16.63.17,1.07.68,1.32,1.51v.04c.04.14.68,3.53-2,5.91l-.11.1-1.21.09h0ZM87.56,61.41c.51.64.75,1.66.85,2.24h.07c2.09-1.97,1.67-4.68,1.62-4.96-.15-.5-.39-.8-.7-.89-.67-.18-1.68.52-2.1.87-.3,1.3.15,2.49.26,2.73h0Z"/>
      </g>
      <path class="cls-1" d="M86.88,59.22s1.78-1.99,2.4.12c0,0,.5,2.51-1.44,4.24l-.29.04s.25-1.29-.27-1.92c0,0-.75-1.19-.4-2.48Z"/>
      <path class="cls-15" d="M86.85,61.3c.15-.34.32-.62.51-.92.19-.29.39-.56.63-.82.23-.25.49-.49.79-.66s.63-.28.96-.29c-.32.08-.59.26-.82.47s-.41.48-.56.75c-.16.27-.28.56-.39.85-.1.29-.2.6-.26.89l-.85-.27h-.01Z"/>
      <g>
        <path class="cls-25" d="M88.62,59.45s.86.41.24,2.48"/>
        <path class="cls-15" d="M88.81,59.04c.09.05.1.08.15.11.03.03.06.07.09.1.05.07.09.14.13.2.07.14.11.28.13.41.05.27.04.52,0,.76s-.1.46-.18.68c-.08.22-.17.42-.27.62.02-.22.04-.44.05-.66,0-.22,0-.43-.05-.64-.03-.2-.1-.4-.19-.55-.04-.08-.1-.14-.15-.19-.03-.02-.05-.04-.08-.05,0,0-.02,0-.03-.01,0,0-.03,0,0,.02l.39-.81h0Z"/>
      </g>
    </g>
    <g>
      <g>
        <path class="cls-6" d="M80.59,44.52s6.01-.62,8.04-6.54c0,0,2.09-.95.73,6.46,0,0-1.14,5.29-4.93,6.94,0,0-.68-5.36-3.84-6.86Z"/>
        <path class="cls-15" d="M84.05,52.03l-.07-.59s-.69-5.14-3.58-6.51l-1.44-.69,1.59-.16c.24-.03,5.76-.67,7.67-6.24l.06-.18.18-.08c.2-.09.65-.16,1.06.15.91.71,1,2.93.29,6.8-.05.24-1.23,5.55-5.2,7.27l-.55.24h-.01ZM81.75,44.74c1.99,1.62,2.76,4.67,3.01,5.98,3.13-1.77,4.15-6.31,4.16-6.36.88-4.76.26-5.73.05-5.91,0,0,0,0-.02-.02-1.62,4.3-5.33,5.81-7.2,6.31Z"/>
      </g>
      <path class="cls-16" d="M85.03,50.51s5.28-4.04,4.18-11.13c0,0,0-1.15-.52.58,0,0-1.16,3.97-5.73,6.1,0,0,.68,3.41,2.07,4.44h0Z"/>
      <path class="cls-25" d="M89.21,39.39s1.57,6.44-4.18,11.13l-1.07-1.16s5.18-3.55,5.24-9.97h.01Z"/>
    </g>
    <g>
      <path class="cls-23" d="M60.32,54.46s-1.19-5.06,4.13-8.52c0,0,8.5-5.66,17.62-.6,0,0,3.23,1.24,4.23,6.3,0,0-6.75-2.85-13.05-1.33,0,0-9.35,2.18-12.93,4.15Z"/>
      <path class="cls-15" d="M60.02,55.14l-.13-.57s-1.2-5.4,4.32-9c.08-.06,8.81-5.74,18.05-.63.38.16,3.48,1.59,4.48,6.61l.16.83-.78-.33c-.07-.03-6.7-2.77-12.77-1.31-.1.02-9.34,2.19-12.82,4.11l-.52.28h.01ZM74.05,43.7c-5.33,0-9.3,2.58-9.36,2.61-4,2.61-4.15,6.09-4.03,7.46,3.89-1.89,12.11-3.82,12.48-3.91,5.16-1.24,10.53.34,12.53,1.05-1.1-4.09-3.74-5.15-3.77-5.16l-.06-.03c-2.72-1.51-5.4-2.03-7.79-2.03h0Z"/>
    </g>
    <g>
      <path class="cls-6" d="M69.89,44.01s4.39,2.21,3.36,6.02c0,0,4.63-1.14,8.23.24,0,0,1.2-4.93-3.89-7.23l-1.49-.64-5.42.4-.78,1.21h-.01Z"/>
      <path class="cls-15" d="M81.79,50.87l-.47-.18c-3.42-1.31-7.92-.23-7.96-.22l-.74.18.2-.73c.92-3.41-2.96-5.42-3.13-5.51l-.44-.22,1.17-1.82,5.76-.42,1.59.69c5.37,2.42,4.16,7.69,4.15,7.74l-.12.49h0ZM77.27,49.14c1.22,0,2.58.13,3.86.53.14-1.24.1-4.5-3.72-6.22l-1.38-.6-5.09.37-.41.63c1.05.66,3.67,2.62,3.3,5.6.74-.13,2-.32,3.45-.32h0Z"/>
    </g>
    <path class="cls-16" d="M71.11,43.26l5.1-.3s4.73,1.45,5,6.29c0,0-2.52-.55-5.69-.25,0,0-.96-4.37-4.41-5.74Z"/>
    <path class="cls-25" d="M73.28,43.13l2.93-.17s4.13.44,5,6.29c0,0-1.16-.64-3.04-.26,0,0-1.63-1.76.24-3.62,0,0,.06-.91-.73-1.55,0,0-2.81,1.14-4.4-.68h0Z"/>
    <g>
      <path class="cls-21" d="M61.5,58.95s2.57,2.77,3.75,2.74c0,0-1.53,2.77.21,4.56,0,0,2.21,3.2,4.83,3.19,0,0,.34-.39,1.34-1.16l14.89-.38s1.6-.52.12-1.41c0,0,3.33-3.28.73-5.96,0,0-.68-1.67,0-3.32l-.04-1.35s-4.17-.66-6.49-.82c0,0-14.41-.36-19.35,3.91h.01Z"/>
      <path class="cls-15" d="M70.27,69.89c-2.7,0-4.9-2.99-5.16-3.35-1.45-1.52-.89-3.58-.5-4.53-1.32-.51-3.06-2.34-3.44-2.75l-.31-.34.35-.3c5.01-4.33,19.05-4.03,19.65-4.02,2.33.16,6.38.8,6.55.83l.37.06.05,1.82-.04.09c-.53,1.27-.14,2.59-.03,2.91,1.99,2.14.73,4.75-.45,6.13.3.28.44.58.4.89-.08.66-.89.96-1.05,1.01l-.06.02h-.07l-14.75.37c-.86.67-1.16,1.01-1.16,1.01l-.13.15h-.2s0,0-.02,0ZM66.02,61.23l-.38.68s-1.34,2.51.14,4.03l.05.06s2,2.85,4.27,2.99c.19-.19.58-.55,1.26-1.07l.12-.09h.15l14.82-.38c.16-.06.33-.17.38-.24-.02-.04-.1-.16-.41-.34l-.49-.3.41-.4c.12-.12,2.98-3.01.72-5.33l-.06-.06-.03-.08c-.03-.07-.72-1.8-.03-3.57l-.03-.88c-1.07-.16-4.21-.63-6.09-.76-.12,0-13.59-.29-18.66,3.51,1.02,1.03,2.46,2.25,3.07,2.25h.01s.78-.02.78-.02Z"/>
    </g>
    <path class="cls-17" d="M83.55,51.58c-6.4-1.12-9.87-.27-9.87-.27l.11.47s5.99-.54,9.71.34l.06-.54h-.01Z"/>
    <g>
      <path class="cls-2" d="M62.06,59.76c-1.74,0-3.21,1.81-3.83,4.36-.19.31-.53.68-1.03,1.11-.75.65-2.3,1.31-4.94-.1,0,0-1.55-1.06-.84.73,0,0,1.37,3.85,5.54,2.41,0,0-2.61,1.51-7.26.08,0,0,1.21,6.92,11.1,5.19.42.24.87.37,1.33.36,2.31,0,4.16-3.19,4.14-7.09-.02-3.9-1.91-7.06-4.21-7.05Z"/>
      <path class="cls-15" d="M62.12,74.35c-.48,0-.94-.12-1.4-.34-5.2.87-8.03-.65-9.5-2.09-1.62-1.6-1.95-3.41-1.97-3.48l-.13-.72.7.22c1.26.39,2.37.55,3.3.59-1.53-.86-2.13-2.48-2.13-2.51-.12-.29-.44-1.1.05-1.49.45-.36,1.14.03,1.44.23,2.23,1.18,4.16.27,4.45.12.63-.54.67-.58.87-.91.7-2.81,2.36-4.62,4.25-4.63h.02c1.27,0,2.46.81,3.33,2.27.84,1.4,1.3,3.25,1.31,5.22.02,4.21-1.99,7.52-4.59,7.54h-.02l.02-.02ZM60.87,73.07l.14.08c.36.2.73.31,1.1.31h.01c2.02,0,3.71-3.05,3.7-6.64,0-1.81-.43-3.5-1.19-4.76-.71-1.19-1.62-1.84-2.57-1.84h-.01c-1.45,0-2.82,1.62-3.4,4.02l-.02.07-.04.06c-.32.51-.36.55-1.12,1.21l-.07.05c-.1.06-2.54,1.41-5.37-.1l-.04-.03c-.09-.06-.2-.12-.29-.16.02.09.06.21.12.36.06.15,1.29,3.42,4.98,2.15l.37.81c-.11.06-2.54,1.43-6.83.34.62,1.65,2.87,5.41,10.37,4.1,0,0,.16-.03.16-.03Z"/>
    </g>
    <path class="cls-3" d="M62.54,61.71c-1.62,0-2.06,1.16-2.86,2.97-.26.42-.63,0-1.14.08,0,0-2.63,2.1-5.45,1.27,0,0-1.17-.62.01,1.02,0,0,1.23,1.5,3.91,1.1,0,0-.33,1.11-4.19,1.58,0,0-.8-.1-.59.42.47,1.21,2.99,3.8,9.42,2.67.39.22.9.16,1.34.15,2.15,0,2.43-2.44,2.41-6.08-.02-3.64-.71-5.19-2.86-5.18Z"/>
    <path class="cls-20" d="M87.79,67.9"/>
    <g>
      <path class="cls-24" d="M84.8,67.7c-1,.54-13.37,1.44-13.37,1.44-3.46-.37-4.7-3.7-4.7-3.7-.47-1.97.19-3.47.19-3.47,1.21-2.23-.96-5.73-.96-5.73-1.61.45-1.52.64-3.45,1.69,3.57,1.85-.63,9.47-.63,9.47-1.4,2.84-1.02,5.96-1.02,5.96.28,4.5,5.57,7.64,5.57,7.64,6.47,4.18,14.53,3.78,14.53,3.78.45-1.76,3.11-1.73,3.11-1.73,1.04-3.01,2.71-5.84,2.71-5.84,2.47-4.08,2.36-8.79,2.36-8.79,0,0,.19-1.92-.27-3.68l-.38-.98s-.34-.28-.34.22l-.37.94s-.34,1.37-2.98,2.8v-.02Z"/>
      <path class="cls-15" d="M80.32,85.22c-2.08,0-8.62-.31-14.14-3.86-.21-.12-5.47-3.3-5.77-7.97-.03-.26-.34-3.34,1.07-6.19.04-.07,2.68-4.92,1.87-7.58-.18-.6-.53-1.02-1.05-1.29l-.75-.39.74-.4c.6-.33,1-.57,1.33-.76.7-.42,1.06-.64,2.22-.96l.32-.09.18.29c.09.15,2.28,3.73.98,6.16-.06.14-.57,1.46-.17,3.14.12.3,1.28,3.05,4.28,3.39,5.91-.43,12.51-1.06,13.15-1.38,2.39-1.29,2.76-2.51,2.76-2.52l.02-.05.35-.87c.02-.36.2-.53.35-.6.26-.12.54-.01.72.13l.09.07.44,1.14c.45,1.72.31,3.56.29,3.81,0,.43,0,4.98-2.43,9.01,0,.02-1.66,2.82-2.67,5.75l-.11.3h-.32s-2.31,0-2.68,1.39l-.08.32-.33.02s-.28,0-.66,0v-.02ZM63.35,57.96c.4.36.68.82.86,1.39.92,3.02-1.82,8.04-1.93,8.25-1.32,2.67-.98,5.66-.97,5.69v.03c.26,4.21,5.3,7.25,5.35,7.28,5.59,3.61,12.47,3.74,13.98,3.73.59-1.4,2.37-1.67,3.11-1.72,1.04-2.9,2.58-5.52,2.65-5.63,2.37-3.92,2.3-8.51,2.3-8.55v-.06s.17-1.85-.25-3.5l-.09-.22-.16.4c-.08.27-.6,1.64-3.19,3.05h0c-1.03.56-11.47,1.34-13.55,1.49h-.08c-3.69-.39-5.02-3.84-5.07-3.99l-.02-.05c-.5-2.09.19-3.69.22-3.76l.02-.03c.89-1.63-.32-4.14-.78-4.99-.77.24-1.05.4-1.66.77-.2.12-.44.26-.73.43h-.01ZM88.6,63.9h0Z"/>
    </g>
    <polygon class="cls-17" points="61.86 54.84 60.22 55.55 60.31 55.92 61.95 55.22 61.86 54.84"/>
    <polygon class="cls-17" points="71.09 51.71 64.52 53.67 64.69 54.18 71.22 52.14 71.09 51.71"/>
    <path class="cls-17" d="M62.64,58.5l10.1-4.81h11.84l.13,1.48s-3.1-.63-5.57-.61c0,0-10.57.5-16.5,3.94Z"/>
    <path class="cls-25" d="M73.23,59.15s1.1,1.24-.21,1.24l-.21-.04s-.26-.56.42-1.2Z"/>
    <path class="cls-25" d="M84.33,59.35s1.24.61,0,1.29c0,0-.68-.81,0-1.29Z"/>
    <path class="cls-20" d="M88.07,63.4"/>
    <path class="cls-3" d="M66.12,64.1s-.3,4.77,6.43,5.9c0,0,6.35-3.85,12-1.36,0,0,2.17-.58,3.66-3.81,0,0,.16-1.89.53,1.43,0,0-.81,10.17-5.94,14.98,0,0,.08-1.1-.48-2.5,0,0-1.7,2.35-4.94,2.81,0,0,.9-.97.76-2.65,0,0-5.16,2.69-10.62-.23,0,0-5.71-3.25-3.75-11.05,0,0,1.48-5.02,2.34-3.52h.01Z"/>
    <g>
      <g>
        <path class="cls-6" d="M59.88,54.64s7.83-3.85,12.97-4.52c0,0,7.76-1.41,13.59,1.22l.85.51.28,4.45s-3.55-1.27-5.49-1.34c0,0-12.91.24-18.88,3.87,0,0-2.95,1.51-3.12.79,0,0-.42-.43-.26-1.63l.07-3.34h0Z"/>
        <path class="cls-15" d="M60.43,60.24c-.16,0-.3-.02-.42-.08-.16-.07-.27-.19-.34-.34-.16-.22-.45-.78-.31-1.88l.07-3.59.24-.12c.32-.16,7.94-3.89,13.1-4.56.46-.08,8.01-1.38,13.84,1.25l.05.02,1.05.63.33,5.36-.64-.23s-3.49-1.24-5.35-1.32c-.47.01-12.93.33-18.65,3.8l-.03.02c-.8.41-2.14,1.03-2.96,1.03h.02ZM60.46,59.35h0c.38,0,1.49-.41,2.51-.93,6.01-3.64,18.56-3.91,19.09-3.92h.03c1.5.06,3.86.78,4.99,1.15l-.22-3.55-.62-.37c-5.64-2.52-13.23-1.19-13.3-1.17h-.02c-4.51.59-11.23,3.71-12.59,4.36l-.07,3.12c-.12.92.15,1.27.15,1.27l.05.05h0Z"/>
      </g>
      <path class="cls-16" d="M60.68,54.97s6.37-4.22,17.15-4.75c0,0,5.72-.03,9.12,2.02l.02,3s-7.83-3.11-23.95,2.67c0,0-2.81-.76-2.34-2.94Z"/>
      <path class="cls-25" d="M72.66,50.78s6.42-1.99,14.3,1.47c0,0,.64,3.49-.87,2.47,0,0-1.01-.45-.83-1.79,0,0-4.95-2.77-13.1-1.27,0,0-1.91-.44.5-.88Z"/>
    </g>
    <g>
      <path class="cls-21" d="M63.98,60.68s-.77-1.92-4.44-1.29c0,0-2.7,3.32-.54,5.72,0,0,1.78,1.98,2.8,2.11,0,0,2.7-3.58,2.18-6.53h0Z"/>
      <path class="cls-15" d="M62,67.68l-.26-.03c-1.12-.14-2.76-1.9-3.07-2.25-1.91-2.12-.49-5.05.53-6.3l.11-.13.17-.03c3.98-.68,4.89,1.48,4.93,1.57l.03.09c.55,3.11-2.15,6.73-2.27,6.88l-.16.21h-.01ZM59.79,59.79c-.45.61-2.13,3.15-.46,5.01.61.68,1.64,1.63,2.28,1.89.57-.83,2.3-3.59,1.94-5.88-.12-.24-.92-1.45-3.76-1.02Z"/>
    </g>
    <path class="cls-14" d="M82.2,46.05s2.47,1.12,3.45,4.37c0,0-.63-.39-1.67-.71,0,0,.06-1.47-1.78-3.66Z"/>
    <path class="cls-14" d="M72.84,49.09v-.05c-.02-1.37-1.32-2.46-2.92-2.44s-2.88,1.15-2.86,2.51c0,.46.16.89.42,1.25,1.19-.44,3.18-1.05,5.36-1.27Z"/>
    <path class="cls-1" d="M69.15,65.24s-1.66-.52.39-3.77c0,0,.88-2.03-.3-4.29,0,0,10.92-3.3,17.4-.51,0,0-1.82,2.86-.59,4.27,0,0,1.08,1.36,1.35,2.7,0,0-.04.45-.48,1.24,0,0-1.86-.82-2.46-.93,0,0-6.6-.69-12.37,1.54l-.96.28s-1.18.13-1.99-.53h0Z"/>
    <path class="cls-25" d="M72.63,62s-.79-.08-1.03-.11c-.29-.04-.68-.19-.78-.61,0,0,.39-2.7,2.16-3.12,1-.24,2.83-.21,3.05,2.47v.17s.11,1.51-3.4,1.19h0Z"/>
    <g>
      <g>
        <path class="cls-24" d="M68.58,57.12s1.51-2.58,4.16-3.43c1.35-.43,1.9-.2,4.63,2.42.25.24.68.36,1.58.06.39-.13,1.27.38-.43,1.61,0,0-1.77.72-2.47-.18,0,0-2.86-2.43-5-.3,0,0-2.27,1.83-2.47-.18Z"/>
        <path class="cls-15" d="M69.38,58.51c-.17,0-.33-.03-.48-.09-.3-.13-.68-.45-.76-1.25v-.14l.06-.13c.07-.11,1.62-2.74,4.41-3.63,1.67-.53,2.45,0,5.08,2.52.17.17.55.15,1.13-.04.35-.12.86,0,1.08.42.2.39.17,1.05-1.11,1.97l-.04.03-.05.02c-.08.03-2.04.81-2.96-.28-.3-.25-2.63-2.02-4.37-.3l-.03.03c-.2.16-1.12.86-1.95.86h-.01ZM69.05,57.22c.03.15.08.33.2.37.31.13,1.07-.28,1.51-.63,1.92-1.89,4.49-.64,5.59.29l.06.07c.38.49,1.48.22,1.9.06.56-.42.72-.67.76-.78-.58.2-1.42.39-2-.17-2.75-2.64-3.11-2.66-4.19-2.31-2.13.68-3.5,2.59-3.83,3.1Z"/>
      </g>
      <path class="cls-10" d="M70.79,56.05s1.15-1.68,2.99-2.12c.94-.23,1.45.32,3.17,2.24.16.18,1.18.46,1.8.3.27-.07.09.81-1.29,1.01,0,0-.94.43-1.63-.72,0,0-2.04-1.6-4.06-.5,0,0-1.46,1.17-.98-.2h0Z"/>
      <path class="cls-4" d="M77.69,56.53s1.04-.47,1.28.19c0,0-.37,1.13-2.13.9,0,0-1.03-.39-.42-.67,0,0,.51.15,1.18.04,0,0,.52-.09.1-.47h0Z"/>
    </g>
    <path class="cls-15" d="M70.82,61.28c-.06-.4-.04-.8.02-1.2.07-.4.19-.81.43-1.18.11-.19.27-.37.44-.52.19-.16.36-.26.56-.36.39-.2.81-.34,1.27-.36.45-.03.93.06,1.34.26l.29.17c.09.06.18.13.26.2.04.04.08.06.14.12.05.05.08.09.12.14.07.09.13.19.18.29.42.79.42,1.67.19,2.42-.08-.39-.15-.77-.28-1.11-.12-.35-.29-.67-.5-.93-.05-.07-.11-.13-.16-.18-.03-.03-.06-.05-.08-.07,0,0-.06-.03-.09-.05-.07-.04-.14-.09-.21-.13l-.22-.1c-.3-.12-.61-.16-.93-.14s-.65.11-.96.24c-.15.06-.32.15-.44.22-.12.09-.25.19-.36.31-.23.25-.41.56-.57.9-.17.34-.3.7-.43,1.07h0Z"/>
    <path class="cls-25" d="M87.18,56.73s-1.44,2,.13,4.44c0,0,1.41,1.03-.12,4.15l-.97-.09s1-2.69-.28-4.6c0,0-1.11-2.18.63-3.94,0,0,.61.04.61.04Z"/>
    <path class="cls-25" d="M82.56,60.05c0-.97,1.84-2.84,3.62-.92,0,0,1.27,1.54-.28,2.57,0,0-1.35.18-2.07.05,0,0-1.27-.04-1.27-1.71h0Z"/>
    <path class="cls-15" d="M81.83,61.23c-.07-.38-.06-.77,0-1.16.05-.39.16-.78.36-1.16.1-.19.23-.37.4-.53.18-.18.35-.28.53-.39.37-.21.79-.36,1.24-.39.45-.03.92.07,1.31.3.09.06.19.12.28.18.08.07.17.14.25.21.2.19.29.37.39.57.36.78.33,1.62.11,2.35-.14-.75-.34-1.47-.72-2.01-.05-.07-.1-.13-.15-.18-.05-.06-.1-.11-.15-.13-.07-.04-.13-.09-.2-.13-.07-.04-.14-.07-.2-.1-.27-.12-.56-.18-.86-.16-.3.01-.61.11-.91.25-.14.07-.3.15-.4.23-.06.04-.12.09-.17.15-.06.05-.11.11-.16.18-.21.25-.38.57-.53.9-.16.33-.28.68-.41,1.05v-.03Z"/>
    <g>
      <g>
        <path class="cls-2" d="M87.42,65.91s2.35.79-.6,2.29c0,0,1.92,1.03,2.11,2.43.08.63.23,1.84.96,2.08,0,0,2.34-.59.64.64,0,0-1.95,2.77-5.75,1.38,0,0-1.68-1.02-2.1-2.72l-.52-3.66-.39-.24-.54-.14-.34.17-.59.28s-1.71,4.51-2.57,5.22c-1.14.94-4.57,2.42-5.33,2.5-1.7.17-5.32.16-6.44-2.28,0,0-1.41-2.6.31-1.22,0,0,.57.74,1.81.6,0,0,.21-.52,1.19-2.25.3-.54.88-1.01,1.92-1.52.47-.23,1.34-.56,1.72-1.2,0,0-.5-.41-1.51-.31,0,0-.88-.15.94-1.29.94-.59,2.78-1.4,5.82-1.22l1.27.31s1.79,2.4,3.17.11c.09-.15.5-.26.5-.26,0,0,1.26-.87,3.81.1l.53.19h-.02Z"/>
        <path class="cls-15" d="M71.16,76.66c-1.8,0-4.59-.38-5.61-2.59-.91-1.69-.54-2-.37-2.14.44-.37,1.06.13,1.36.37l.04.03.03.04s.38.45,1.16.45h0c.15-.31.47-.94,1.1-2.04.36-.64,1.01-1.16,2.12-1.7.07-.03.15-.07.23-.11.29-.14.66-.3.94-.53-.18-.04-.42-.06-.72-.03h-.12c-.22-.04-.51-.2-.57-.52-.09-.47.3-.93,1.35-1.59,1.09-.68,3.03-1.46,6.08-1.29h.08l1.42.37.1.13c.2.27.86.96,1.46.92.34-.02.67-.28.96-.77.14-.23.45-.37.71-.44.33-.19,1.73-.82,4.14.1l.52.19c.13.05,1.13.41,1.18,1.23.04.52-.31,1.02-1.07,1.51.64.47,1.55,1.3,1.69,2.35v.04c.06.42.19,1.37.56,1.63,1.35-.31,1.53.07,1.61.24.23.49-.33.92-.7,1.2-.35.44-2.49,2.84-6.22,1.47l-.08-.04c-.08-.05-1.85-1.14-2.3-2.99v-.04l-.5-3.45-.16-.1-.31-.08-.63.3c-.4,1.05-1.79,4.54-2.64,5.24-1.21,1-4.71,2.51-5.57,2.6-.29.03-.74.06-1.27.06v-.02ZM66.06,73.09c.08.18.18.38.28.57v.03c1.08,2.33,4.86,2.14,6,2.02.65-.07,4-1.5,5.1-2.4.56-.46,1.79-3.33,2.43-5.03l.06-.17,1.24-.6.77.19.63.39.55,3.84c.35,1.36,1.64,2.26,1.86,2.4,3.28,1.18,5-.98,5.18-1.22-.05,0-.1.02-.15.04l-.13.03-.12-.04c-.98-.33-1.16-1.68-1.26-2.41v-.04c-.13-.96-1.41-1.84-1.88-2.1l-.75-.4.76-.39c1-.51,1.25-.88,1.24-1.03,0-.16-.35-.37-.58-.45h0l-.53-.19c-2.27-.86-3.39-.16-3.4-.15l-.06.04-.08.02c-.09.02-.21.07-.26.1-.45.74-1.01,1.13-1.66,1.16-1,.04-1.83-.8-2.12-1.15l-1.08-.27c-2.79-.16-4.53.54-5.51,1.15-.3.19-.51.34-.65.45.79.05,1.21.38,1.27.42l.3.25-.2.33c-.4.67-1.18,1.03-1.7,1.27-.08.04-.15.07-.21.1-.92.45-1.47.87-1.73,1.34-.94,1.66-1.16,2.2-1.17,2.2l-.1.25-.27.03c-1.09.12-1.76-.34-2.05-.61l-.02.03Z"/>
      </g>
      <path class="cls-3" d="M79.08,66.09s-2.89.02-4.66,1.1c0,0-1.31.21,1.36.77,0,0-3.53,1.47-5.4,4.72,0,0-1.52,1.73-3.93.94,0,0-.62.43,1.53,1.5,0,0,1.1.67,4.21.49,0,0,2.69-.64,4.83-2.28,0,0,.75-.44,2.76-4.9,0,0,2.54-1.84,3.56,2.28,0,0,.52,3.08,3.1,3.32,0,0,.86.16,2.59-.51,0,0,.14-.3-1.09-.81,0,0-.31-1.77-.7-2.75,0,0-.5-1.25-1.92-1.75,0,0,1.6-.7,1.98-1.34,0,0-.43-.52-2.73-.93,0,0-3.61-.04-5.48.15h0Z"/>
      <path class="cls-25" d="M79.78,68.43s-1,3.02-2.32,4.89c0,0-3.25,2.09-5.27,2.28,0,0-.66-.64.85-1.35,0,0,2.21-.69,3.66-2.19,0,0,1.52-1.51,2.14-3.37,0,0,.56-.89.94-.89,0,0,.27-.12,0,.63Z"/>
      <path class="cls-25" d="M82.81,66.09s1.16-1.29,4.35.14c0,0,1.47.55-.47,1.53l-.7.55s.89-.17,2.27,1.87c0,0,.13,2.79,1.39,2.81,0,0,1.28-.5,0,.53,0,0-1.67.65-2.4-.91,0,0-.32-3.44-2.18-4.59,0,0,2.44-.97,1.42-1.3,0,0-2.4-1.23-3.69-.62h.01Z"/>
    </g>
    <g>
      <g>
        <path class="cls-21" d="M82.35,56.51s-1.32,1.93-.07,3.52c0,0,1.33,1.83,1.78,3.55,0,0,1.1,3.14-.89,4.06,0,0-1.79.57-3.54-.54,0,0-.83-.58-2.35,0,0,0-2.3-.09-1.47-2.13,0,0,1.08-1.92,3.22-1.63"/>
        <path class="cls-15" d="M82.35,56.51c-.28.58-.44,1.22-.42,1.83,0,.3.07.6.18.87.06.13.13.26.21.38.04.06.08.12.13.17l.07.09.08.1c.41.53.78,1.07,1.1,1.65s.62,1.19.82,1.86v-.04c.13.41.23.78.29,1.2.06.41.09.82.05,1.26-.04.43-.15.89-.4,1.3-.12.21-.28.4-.47.57-.19.16-.39.29-.61.4h-.03l-.03.02c-.18.05-.3.08-.45.1-.14.02-.28.04-.43.05-.28.02-.57.02-.85,0-.57-.05-1.13-.2-1.65-.44-.13-.06-.26-.13-.38-.2-.06-.03-.13-.08-.19-.12l-.05-.03h0s-.03-.03-.05-.03c-.15-.08-.35-.13-.55-.15-.41-.05-.86.03-1.29.17l-.11.04h-.07c-.18-.02-.31-.05-.47-.09-.15-.04-.3-.09-.44-.15-.29-.12-.58-.31-.8-.6-.22-.29-.31-.67-.28-.99.02-.33.12-.62.24-.88l.02-.03h0c.21-.31.44-.55.7-.77.26-.22.55-.4.86-.54.31-.14.64-.22.97-.25s.66,0,.97.08c-.32,0-.64.03-.93.11-.3.08-.58.21-.83.37-.25.16-.48.36-.68.58-.19.22-.38.48-.5.71l.02-.04c-.08.23-.12.46-.11.66,0,.21.08.36.19.49.11.13.29.23.49.3.1.03.21.06.32.08s.23.03.32.03l-.18.03c.51-.22,1.08-.36,1.69-.33.3.02.61.07.92.21l.12.06.07.04.03.02s.09.05.14.08c.1.05.2.1.3.14.41.18.85.28,1.3.31.22.02.45,0,.67,0,.11,0,.22-.02.33-.04.1-.02.23-.04.3-.06l-.06.02c.13-.06.24-.13.34-.22s.18-.19.26-.3c.15-.23.24-.53.27-.85.04-.32.04-.66,0-1.01-.04-.34-.11-.71-.2-1.02v-.04c-.15-.58-.36-1.16-.63-1.73s-.56-1.13-.89-1.67l-.06-.09-.07-.11c-.05-.07-.09-.16-.13-.23-.08-.16-.14-.33-.19-.5-.09-.35-.11-.7-.07-1.05.09-.68.38-1.3.79-1.81v.03Z"/>
      </g>
      <path class="cls-1" d="M81.16,58.31s-.58,1.35.81,3.92c0,0,1.01,1.96-.31,3.73,0,0-.25-.24-1.71-.65,0,0-1.73-.73-2.81.24,0,0-.99.73-1.06-.35,0,0,.41-1.45,1.82-1.52l1.06-.48s.9-2.96,2.2-4.91v.02Z"/>
      <path class="cls-4" d="M81.64,57.52s-.63.85.75,3.21c0,0,2.07,2.42,1.16,5.39,0,0-.91.25-1.9-.38,0,0,1.63-1.24-.12-4.42,0,0-1.07-2.17.11-3.79h0Z"/>
    </g>
    <g>
      <path class="cls-15" d="M75.37,60.14c.19.73-.22,1.48-.91,1.66s-1.4-.27-1.59-1,.22-1.48.91-1.66,1.4.27,1.59,1Z"/>
      <path class="cls-25" d="M72.83,60.98c-.07-.27.08-.55.33-.62.25-.07.51.1.58.38.07.28-.08.55-.33.62-.25.07-.51-.1-.58-.38Z"/>
    </g>
    <g>
      <path class="cls-15" d="M86.27,59.97c.17.67-.2,1.34-.83,1.5s-1.27-.24-1.44-.91.2-1.34.83-1.5,1.27.24,1.44.91Z"/>
      <path class="cls-25" d="M83.96,60.74c-.06-.25.07-.5.3-.56s.47.09.53.34c.06.25-.07.5-.3.56s-.47-.09-.53-.34Z"/>
    </g>
    <path class="cls-1" d="M63.6,60.91s-.92-1.28-2.64-.74c0,0-2.45,2.65,1.35,5.46,0,0,1.71-2.63,1.3-4.73h-.01Z"/>
    <g>
      <path class="cls-15" d="M60.16,61.72c.26-.27.62-.45,1.02-.52.2-.03.41-.03.61,0,.1,0,.2.05.3.07.05.02.1.03.15.05l.14.06c.19.08.37.18.54.28.17.11.31.26.42.42.1.17.19.34.25.53.05.19.08.39.07.61l-.08.05c-.21-.08-.36-.18-.51-.29-.15-.1-.29-.2-.4-.31-.26-.18-.4-.49-.65-.67-.24-.18-.52-.32-.83-.36-.31-.05-.66,0-.97.14l-.06-.07h0Z"/>
      <path class="cls-15" d="M62.64,62.22c-.15.03-.34.1-.51.18s-.33.18-.46.3c-.13.12-.25.27-.32.45s-.07.38-.05.6c-.09-.19-.18-.4-.17-.63,0-.23.07-.47.18-.68.11-.21.26-.4.42-.57.17-.17.33-.32.56-.46l.35.82h0Z"/>
    </g>
    <g>
      <g>
        <path class="cls-23" d="M81.33,85.28s-.34-2.33,2.51-2.65l1.25,1.5s-2.72.81-2.51,2.65l-1.25-1.5Z"/>
        <path class="cls-15" d="M83.19,88.22l-2.28-2.74-.02-.12s-.15-1.1.54-2c.5-.65,1.3-1.04,2.36-1.16l.24-.03,1.84,2.2-.65.19s-2.36.72-2.19,2.17l.17,1.48h-.01ZM81.76,85.11l.53.63c.4-.93,1.4-1.51,2.06-1.8l-.69-.83c-.69.11-1.2.38-1.52.78-.35.45-.38.98-.37,1.21h-.01Z"/>
      </g>
      <g>
        <path class="cls-24" d="M85.15,84.29s1.89,1.18,5.06.37c0,0-.72,4.86-3.54,7.07,0,0-3.37-1.97-3.93-5.1,0,0,.11-1.37,1.92-2.06l.48-.28h.01Z"/>
        <path class="cls-15" d="M86.71,92.27l-.26-.15c-.15-.09-3.55-2.11-4.14-5.41v-.12c0-.07.16-1.64,2.18-2.43l.68-.39.23.14s1.8,1.06,4.71.31l.65-.17-.1.67c-.03.21-.78,5.06-3.7,7.36l-.24.19h-.01ZM83.2,86.62c.46,2.37,2.68,4.04,3.44,4.56,1.88-1.66,2.71-4.63,3-5.94-2.32.43-3.9-.16-4.48-.44l-.33.18c-1.34.51-1.59,1.41-1.63,1.63h0Z"/>
      </g>
      <g>
        <path class="cls-3" d="M86.7,91.82s1.6,1.36,2.12-.84c0,0,.15-.61,1.37-1.08l.3-1.36s1.69.54.69-1.96c0,0,.75-1.24-.65-2.08,0,0-1.94-.3-1.93,1.96l-.66,1.04s1.06,1.52-1.08,1.83c0,0-.92.07-.15,2.49h0Z"/>
        <path class="cls-15" d="M87.72,92.68c-.66,0-1.23-.46-1.3-.52l-.1-.08-.04-.12c-.41-1.28-.44-2.15-.09-2.67.18-.27.43-.38.61-.4.51-.07.83-.23.92-.43.1-.24-.08-.59-.15-.7l-.17-.24.75-1.18c.02-.79.26-1.39.73-1.79.72-.62,1.67-.48,1.71-.48h.09l.08.06c1.27.77,1.14,1.91.9,2.48.37,1.01.37,1.7-.02,2.11-.24.26-.55.32-.81.32l-.26,1.19-.23.09c-.87.33-1.07.72-1.1.78v-.02.02h0c-.2.83-.57,1.33-1.11,1.51-.14.05-.28.07-.42.07h0ZM87.09,91.54c.18.13.52.3.77.22.22-.07.41-.39.53-.89.03-.14.25-.79,1.42-1.3l.35-1.61.47.15c.12.04.32.04.37,0,0,0,.21-.25-.23-1.36l-.08-.21.12-.19c.08-.14.43-.85-.41-1.41-.18,0-.61,0-.92.28-.28.25-.42.66-.42,1.24v.13l-.59.93c.14.3.3.8.08,1.29-.22.51-.76.83-1.6.96-.04.05-.27.4.15,1.78h-.01Z"/>
      </g>
      <path class="cls-12" d="M83.61,82.73s-1.1.24-1.54.98c0,0,.32,1.28,2.34-.04l-.79-.94h0Z"/>
      <path class="cls-3" d="M84.05,85.55s.48,1.35,1.43,2.37c0,0,1.09.34.55-.51,0,0,.43.42,1.22.38,0,0,.18-.74.93-1.47,0,0-.31-.14.15-.81,0,0-2.24-.11-2.99-.73,0,0-.67-.2-1.29.77Z"/>
    </g>
    <g>
      <g>
        <path class="cls-24" d="M84.08,55.69s-.52.5-1.07.46c-.24-.02-.47-.44-.95-.19,0,0-.69,1.61,1.34,1.73,0,0,1.08-.07,1.45-.52,0,0,.63-.77,2.02-.59,0,0,1.9.63,1.51-.84,0,0-.53-2.66-2.85-1.33,0,0-.82.78-1.45,1.29h0Z"/>
        <path class="cls-15" d="M83.4,58.13h-.03c-.8-.05-1.36-.31-1.66-.79-.42-.68-.1-1.47-.07-1.56l.06-.15.14-.07c.56-.29.96-.03,1.16.1.02.02.05.03.07.04h0c.28,0,.6-.25.7-.34l.03-.02c.61-.5,1.42-1.26,1.43-1.27l.04-.04.05-.03c.81-.46,1.54-.55,2.17-.27,1.01.46,1.31,1.73,1.34,1.89.17.66-.04,1.03-.24,1.23-.54.5-1.52.25-1.8.16-1.08-.13-1.56.41-1.58.44-.48.57-1.56.67-1.77.68h-.04ZM82.41,56.35c-.03.16-.04.37.06.53.16.26.58.34.92.36.36-.03.94-.16,1.11-.36.03-.03.8-.96,2.42-.74l.08.02c.38.12.85.15.95.05.02-.02.05-.11,0-.36v-.03c-.06-.27-.32-1.03-.85-1.26-.34-.15-.78-.09-1.31.21-.17.16-.86.8-1.42,1.26-.12.11-.71.62-1.4.57-.19-.02-.34-.11-.45-.18-.05-.03-.08-.05-.11-.07h0Z"/>
      </g>
      <path class="cls-10" d="M85.24,55.21s-.64.58-1.27,1.19c0,0-.65.32.51.5,0,0,1.13-.26,1.37-.57,0,0,.35-.27,1.15-.06,0,0,.88.28.74-.82,0,0-.53-1.36-1.59-.86,0,0-.38,0-.91.62Z"/>
      <path class="cls-4" d="M87.14,54.49s.89-.02.87,1.6c0,0-.45.62-.98.03,0,0,.55-1.65-1.25-1.38,0,0,1.17-.56,1.35-.25h.01Z"/>
    </g>
    <g>
      <g>
        <path class="cls-6" d="M66.69,44.77s-4.29.42-9.47-5.52c0,0-.73-.94-1.39-.87-.66.07-1.26,1.16-1.01,3.89,0,0,.99,7.24,7.52,10.21,0,0,4.18.76,5.8-3.15,0,0,1.52-2.79-1.45-4.56Z"/>
        <path class="cls-15" d="M63.13,52.98c-.52,0-.86-.06-.87-.06h-.05l-.05-.03c-6.67-3.04-7.73-10.25-7.77-10.56-.35-3.79.87-4.33,1.4-4.39.85-.1,1.62.81,1.78,1.03,4.93,5.66,9.04,5.36,9.08,5.36h.14l.13.06c3.14,1.87,1.79,4.82,1.63,5.13-1.28,3.04-4.01,3.46-5.42,3.46ZM62.47,52.05c.48.07,3.87.45,5.26-2.89l.02-.04c.05-.1,1.23-2.37-1.17-3.89-.86.02-4.92-.2-9.69-5.68l-.02-.02c-.24-.31-.72-.72-.98-.7-.24.03-.86.71-.62,3.4,0,.05,1.04,6.97,7.2,9.82Z"/>
      </g>
      <path class="cls-16" d="M56.42,39.15s3.85,5.61,10.62,6.49c0,0,1.99,2.42-.38,5.07,0,0-2.04-1.26-3.75.15,0,0-3.91-1.31-4.69-4.51,0,0,1.08-1.22-1.21-2.1,0,0-1.04-1.84-1.23-3.55,0,0-.09-2.49.65-1.55h-.01Z"/>
      <path class="cls-25" d="M67.04,45.64s1.26.89.62,3.47c0,0-10.1-1.95-11.57-9.63,0,0-.04-1.02,1.03.54,0,0,4.15,5.06,9.92,5.61h0Z"/>
    </g>
  </g>
  <g>
    <g>
      <ellipse class="cls-6" cx="60.02" cy="90.14" rx="13.91" ry="15.68"/>
      <path class="cls-15" d="M60.02,106.27c-7.92,0-14.36-7.23-14.36-16.13s6.44-16.13,14.36-16.13,14.36,7.23,14.36,16.13-6.44,16.13-14.36,16.13ZM60.02,74.91c-7.42,0-13.46,6.83-13.46,15.23s6.04,15.23,13.46,15.23,13.46-6.83,13.46-15.23-6.04-15.23-13.46-15.23Z"/>
    </g>
    <path class="cls-16" d="M73.14,90.08c0,7.93-5.78,14.37-12.92,14.37s-12.92-6.43-12.93-14.36c0-7.93,5.78-14.37,12.91-14.37s12.92,6.43,12.93,14.36h.01Z"/>
    <g>
      <path class="cls-6" d="M69.8,89.97c0,6.72-4.66,12.17-10.41,12.17s-10.41-5.45-10.41-12.17,4.66-12.17,10.41-12.17,10.41,5.45,10.41,12.17Z"/>
      <path class="cls-15" d="M59.38,102.59c-5.99,0-10.86-5.66-10.86-12.62s4.87-12.62,10.86-12.62,10.86,5.66,10.86,12.62-4.87,12.62-10.86,12.62ZM59.38,78.24c-5.5,0-9.97,5.26-9.97,11.73s4.47,11.73,9.97,11.73,9.97-5.26,9.97-11.73-4.47-11.73-9.97-11.73Z"/>
    </g>
    <g>
      <path class="cls-23" d="M69.53,89.76c0,6.36-4.31,11.52-9.63,11.52s-9.63-5.16-9.63-11.52,4.31-11.52,9.63-11.52,9.63,5.16,9.63,11.52Z"/>
      <path class="cls-15" d="M59.91,101.61c-5.49,0-9.96-5.32-9.96-11.85s4.47-11.85,9.96-11.85,9.96,5.32,9.96,11.85-4.47,11.85-9.96,11.85ZM59.91,78.58c-5.12,0-9.29,5.02-9.29,11.18s4.17,11.18,9.29,11.18,9.29-5.02,9.29-11.18-4.17-11.18-9.29-11.18Z"/>
    </g>
    <path class="cls-14" d="M54.98,80.62s-4.11,8.4-1.46,17.12c0,0-4.36-3.48-2.04-11.89,0,0,1.56-4.58,3.5-5.23Z"/>
    <path class="cls-14" d="M58.34,78.62s-3.35,11.01,0,22.22c0,0,2.81.64,5.82-1.74,0,0-2.65-7.71-1.82-19.7,0,0-.86-.82-4-.78Z"/>
    <path class="cls-14" d="M65.96,81.7s0,6.38,1.87,13.45c0,0,3.29-7.45-1.87-13.45Z"/>
    <g>
      <g>
        <path class="cls-6" d="M54.12,89.58c-.05,2.82,1.72,5.17,3.94,5.25,2.22.08,4.06-2.15,4.11-4.97.04-2.82-1.72-5.17-3.94-5.25-2.22-.08-4.06,2.15-4.11,4.97Z"/>
        <path class="cls-15" d="M58.17,95.27h-.12c-2.46-.08-4.43-2.64-4.38-5.7.03-1.69.66-3.25,1.74-4.28.8-.77,1.81-1.16,2.83-1.13,2.46.08,4.43,2.64,4.38,5.7-.03,1.69-.66,3.25-1.74,4.28-.77.73-1.73,1.13-2.71,1.13ZM58.12,85.05c-.76,0-1.48.31-2.09.89-.9.86-1.44,2.19-1.46,3.64h0c-.04,2.57,1.53,4.72,3.51,4.79.79.03,1.55-.28,2.19-.89.91-.86,1.44-2.19,1.46-3.64.04-2.57-1.54-4.72-3.51-4.79h-.1Z"/>
      </g>
      <path class="cls-16" d="M54.65,89.68c-.04,2.39,1.36,4.38,3.12,4.44,1.76.06,3.22-1.83,3.26-4.22s-1.36-4.38-3.12-4.44c-1.76-.06-3.22,1.83-3.26,4.22Z"/>
      <g>
        <g>
          <path class="cls-6" d="M55.06,89.18c-.2,1.82.74,3.54,2.11,3.85,1.36.31,2.63-.91,2.83-2.73.2-1.82-.74-3.54-2.11-3.85s-2.63.91-2.83,2.73Z"/>
          <path class="cls-15" d="M57.58,93.41c-.16,0-.33-.02-.49-.05-1.52-.34-2.58-2.23-2.37-4.21.12-1.13.63-2.09,1.4-2.63.55-.39,1.21-.53,1.84-.39,1.52.34,2.58,2.23,2.37,4.21-.12,1.13-.63,2.09-1.4,2.63-.41.29-.88.45-1.35.45h0ZM57.47,86.74c-.33,0-.66.11-.96.32-.6.43-1.02,1.23-1.12,2.16-.18,1.65.65,3.21,1.85,3.48.45.1.9,0,1.31-.28.6-.43,1.02-1.23,1.12-2.16.18-1.65-.65-3.21-1.85-3.48-.12-.03-.23-.04-.35-.04Z"/>
        </g>
        <path class="cls-16" d="M55.38,89.43c-.06,1.57.71,2.92,1.72,3s1.88-1.13,1.94-2.71c.06-1.57-.71-2.92-1.72-3s-1.88,1.13-1.94,2.71Z"/>
        <path class="cls-25" d="M55.38,89.45c-.02,1.19.52,2.17,1.2,2.2.68.02,1.25-.92,1.27-2.11.02-1.19-.52-2.17-1.2-2.2-.68-.02-1.25.92-1.27,2.11Z"/>
      </g>
    </g>
    <path class="cls-25" d="M67.16,77.57s6.52,2.83,6.05,15.05c0,0-1.11,10.62-11.76,12.47,0,0,11.01-3.39,10.64-15.69,0,0,.27-6.15-4.93-11.84h0Z"/>
  </g>
</svg>