<?xml version="1.0" encoding="UTF-8"?>
<svg id="Layer_1" data-name="Layer 1" xmlns="http://www.w3.org/2000/svg" version="1.1" viewBox="0 0 150 150">
  <defs>
    <style>
      .cls-1 {
        fill: #fccba9;
      }

      .cls-1, .cls-2, .cls-3, .cls-4, .cls-5, .cls-6, .cls-7, .cls-8, .cls-9, .cls-10, .cls-11, .cls-12, .cls-13, .cls-14, .cls-15, .cls-16, .cls-17, .cls-18, .cls-19, .cls-20, .cls-21, .cls-22, .cls-23, .cls-24, .cls-25, .cls-26, .cls-27 {
        stroke-width: 0px;
      }

      .cls-2 {
        fill: #e88b62;
      }

      .cls-3 {
        fill: #f7d581;
      }

      .cls-4 {
        fill: #f3e0d8;
      }

      .cls-5 {
        fill: #2e5d2d;
      }

      .cls-6 {
        fill: #9585ac;
      }

      .cls-7 {
        fill: #654c47;
      }

      .cls-8 {
        fill: #cd1e55;
      }

      .cls-9 {
        fill: #53a046;
      }

      .cls-10 {
        fill: #fae6a8;
      }

      .cls-11 {
        fill: #382823;
      }

      .cls-12 {
        fill: #bb684f;
      }

      .cls-13 {
        fill: #1b2519;
      }

      .cls-14 {
        fill: #c7725d;
      }

      .cls-15 {
        fill: #693b58;
      }

      .cls-16 {
        fill: #ccc7ca;
      }

      .cls-17 {
        fill: #ee353f;
      }

      .cls-28 {
        opacity: .64;
      }

      .cls-29 {
        opacity: .85;
      }

      .cls-30 {
        opacity: .78;
      }

      .cls-18 {
        fill: #2b1e1a;
      }

      .cls-19 {
        fill: #0f2824;
      }

      .cls-20 {
        fill: #fbe4a9;
      }

      .cls-21 {
        fill: #eaa498;
      }

      .cls-22 {
        fill: #1d1514;
      }

      .cls-23 {
        fill: #97424d;
      }

      .cls-24 {
        fill: #f4966e;
      }

      .cls-25 {
        fill: #fff;
      }

      .cls-26 {
        fill: #6a5b65;
      }

      .cls-27 {
        fill: #f0759b;
      }
    </style>
  </defs>
  <g>
    <g>
      <path class="cls-21" d="M78.81,104.34s-.07,2.31-.46,4.44c0,0-.52,1.77.86,2.09,0,0,6.27.13,6.65.13,0,0,1.28.01,1.67-.31,0,0,.85-1.29-2.27-3.25l-.85-.69,2.06-8.32-7.38-.6-.29,6.51h0Z"/>
      <path class="cls-15" d="M85.93,111.45h-.09c-.51,0-6.38-.13-6.64-.13h-.09c-.47-.12-.83-.38-1.05-.76-.43-.74-.2-1.68-.15-1.88.38-2.07.45-4.33.45-4.36h0l.31-6.98,8.36.68-2.11,8.55.61.49c1.48.93,2.32,1.86,2.52,2.77.14.63-.09,1.02-.14,1.09l-.04.06-.05.04c-.45.37-1.49.41-1.89.41v.02ZM85.86,110.56c.52,0,1.1-.07,1.32-.17.05-.24.09-1.17-2.16-2.57l-.04-.03-1.06-.87,2-8.09-6.39-.52-.27,6.05c0,.13-.08,2.38-.47,4.51v.05c-.07.21-.18.83.05,1.2.09.16.23.26.44.31,2.18.05,6.3.13,6.58.13Z"/>
    </g>
    <path class="cls-1" d="M81.8,102.65v4.18s.94-.43,2.05-.24l1.41-5.2s-2.84-1.77-3.46,1.26Z"/>
    <path class="cls-1" d="M87.14,109.65s-1.68-2.15-2.97-2.1c0,0-2.84-.51-3.81,1.96,0,0-.48,1.16,5.8.81,0,0,1.37-.12.98-.67Z"/>
    <g>
      <path class="cls-23" d="M87.13,112.1l-8.19.07c-.44,0-.81-.36-.81-.8h0c0-.44.36-.81.8-.81l8.19-.07c.44,0,.81.36.81.8h0c0,.44-.36.81-.8.81Z"/>
      <path class="cls-15" d="M78.79,112.5c-.55,0-1-.44-1-.99v-.27c0-.55.44-1.01.99-1.01l8.47-.07h0c.26,0,.51.1.7.29.19.19.3.44.3.71v.27c0,.55-.44,1.01-.99,1.01h0l-8.47.07h0ZM87.26,110.81h0l-8.47.07c-.19,0-.33.15-.33.34v.27c0,.18.15.33.34.33h0l8.47-.07h0c.19,0,.33-.15.33-.34v-.28c0-.09-.04-.17-.1-.24-.06-.06-.15-.1-.23-.1v.02Z"/>
    </g>
    <g>
      <g>
        <path class="cls-14" d="M78.37,107.28s2.66.38,3.67,3.19h-1.83s.31-1.18-2.07-1.83l.22-1.35h0Z"/>
        <path class="cls-15" d="M79.78,110.82l.11-.42s.16-.9-1.83-1.44l-.29-.08.33-1.97.32.05c.12.02,2.87.44,3.94,3.4l.16.44-2.74.02ZM78.52,108.4c1.57.5,1.95,1.27,2.02,1.75h1c-.8-1.71-2.26-2.29-2.91-2.46l-.12.71h0Z"/>
      </g>
      <g>
        <path class="cls-14" d="M85.52,107.55s-2.02.09-2.98,2.91h1.83s.12-1.21,2.49-1.9l-1.33-1.01h-.01Z"/>
        <path class="cls-15" d="M82.07,110.8l.15-.44c1.03-3.01,3.19-3.13,3.28-3.14h.12l1.95,1.48-.63.19c-2.08.61-2.25,1.59-2.25,1.6l-.04.28h-.29l-2.3.03h.01ZM85.42,107.9c-.38.06-1.62.4-2.4,2.23h1.1c.16-.41.64-1.14,2.03-1.68l-.73-.55Z"/>
      </g>
    </g>
  </g>
  <g>
    <g>
      <path class="cls-21" d="M82.72,89.08s2.9,3.39,7.65,5.48c0,0,.51-4.28,3.59-5.71,0,0-3.15-1.85-5.7-3.49-.91-.58-1.23-3.69-2.02-5.62-.92-2.25-5.57-2.46-5.78,1.38-.03.53-.05,4.97,2.25,7.96h0Z"/>
      <path class="cls-15" d="M90.75,95.2l-.55-.24c-4.79-2.11-7.69-5.45-7.81-5.59v-.02c-2.56-3.3-2.36-8.21-2.36-8.26.1-1.83,1.16-3.09,2.82-3.37,1.64-.27,3.28.52,3.81,1.84.31.77.55,1.69.78,2.59.29,1.14.66,2.57,1.07,2.83,2.51,1.61,5.66,3.46,5.69,3.48l.73.43-.77.36c-2.81,1.31-3.33,5.32-3.34,5.36l-.07.59ZM83.07,88.8c.15.17,2.78,3.13,6.97,5.12.24-1.16.99-3.71,3.04-5.08-1.07-.63-3.23-1.93-5.05-3.1-.71-.45-1.05-1.8-1.45-3.36-.22-.87-.45-1.76-.74-2.47-.38-.93-1.63-1.5-2.84-1.3-.59.1-1.97.54-2.08,2.54,0,.05-.19,4.62,2.15,7.66h0Z"/>
    </g>
    <g>
      <path class="cls-23" d="M86.58,92.72s.05-4,3.83-6.16l4.85,2.53s-3.67,1.8-4.2,6.4c0,0-3.31-1.89-4.48-2.77Z"/>
      <path class="cls-15" d="M91.43,96.21l-.58-.33c-.14-.08-3.34-1.91-4.53-2.8l-.18-.14v-.23c0-.17.1-4.28,4.06-6.54l.21-.12,5.85,3.05-.79.39c-.14.07-3.46,1.77-3.96,6.05l-.08.67ZM87.04,92.5c.93.66,2.76,1.74,3.68,2.28.59-3.15,2.57-4.91,3.64-5.66l-3.94-2.06c-2.87,1.75-3.32,4.61-3.39,5.43h0Z"/>
    </g>
    <path class="cls-14" d="M90.4,87.16s-4.86,3.17.2,6.55c0,0,.44-2.66,3.62-4.48l-3.82-2.07Z"/>
    <g>
      <path class="cls-15" d="M90.84,89.48c.1.22.15.45.2.67.04.23.06.45.07.68,0,.23,0,.45-.02.68-.03.23-.07.46-.15.68-.1-.22-.15-.45-.2-.67-.04-.23-.06-.45-.07-.68,0-.23,0-.45.03-.68s.07-.46.15-.69h0Z"/>
      <path class="cls-15" d="M89.55,91.56c.16-.19.34-.33.53-.47.19-.13.38-.25.59-.35.2-.1.41-.19.63-.27.22-.07.44-.13.69-.16-.16.19-.34.33-.53.47-.19.13-.38.25-.59.35-.2.1-.41.19-.63.27-.22.07-.44.13-.69.16Z"/>
    </g>
    <g>
      <path class="cls-15" d="M89.26,88.61c.1.22.15.45.2.67.04.23.06.45.07.68,0,.23,0,.45-.02.68-.03.23-.07.46-.15.69-.1-.22-.15-.45-.2-.67-.04-.23-.06-.45-.07-.68,0-.23,0-.45.02-.68.03-.23.07-.46.15-.68h0Z"/>
      <path class="cls-15" d="M87.97,90.7c.16-.19.34-.33.53-.47.19-.13.38-.25.59-.35.2-.1.41-.19.63-.27.22-.07.44-.13.69-.16-.16.19-.34.33-.53.47-.19.13-.38.25-.59.35-.2.1-.41.19-.63.27-.22.07-.44.13-.69.16Z"/>
    </g>
    <path class="cls-1" d="M85.34,79.53s-1.7-1.53-2.66,2.58c0,0,.27,3.21,1.89,5.4,0,0,1.01,1.03,1.69,1.46,0,0,.94-1.68,3.17-2.31,0,0-1.59-.88-1.86-1.3,0,0-.95-2.39-1.43-4.42,0,0-.18-1.13-.79-1.4h0Z"/>
  </g>
  <g>
    <g>
      <path class="cls-21" d="M63.71,104.34s-.07,2.31-.46,4.44c0,0-.52,1.77.86,2.09,0,0,6.27.13,6.65.13,0,0,1.28.01,1.67-.31,0,0,.85-1.29-2.27-3.25l-.85-.69,2.06-8.32-7.38-.6-.29,6.51h0Z"/>
      <path class="cls-15" d="M70.82,111.45h-.09c-.51,0-6.38-.13-6.64-.13h-.09c-.47-.12-.83-.38-1.05-.76-.43-.74-.2-1.68-.15-1.88.38-2.07.45-4.33.45-4.36h0l.31-6.98,8.36.68-2.11,8.55.61.49c1.48.93,2.32,1.86,2.52,2.77.14.63-.09,1.02-.14,1.09l-.04.06-.05.04c-.45.37-1.49.41-1.89.41v.02ZM70.76,110.56c.52,0,1.1-.07,1.32-.17.05-.24.09-1.17-2.16-2.57l-.04-.03-1.06-.87,2-8.09-6.4-.52-.27,6.05c0,.13-.08,2.38-.47,4.51v.05c-.07.21-.18.83.05,1.2.09.16.23.26.44.31,2.18.05,6.29.13,6.58.13h.01Z"/>
    </g>
    <path class="cls-1" d="M66.69,102.65v4.18s.94-.43,2.05-.24l1.41-5.2s-2.84-1.77-3.46,1.26Z"/>
    <path class="cls-1" d="M72.04,109.65s-1.68-2.15-2.97-2.1c0,0-2.84-.51-3.81,1.96,0,0-.48,1.16,5.8.81,0,0,1.37-.12.98-.67Z"/>
    <g>
      <path class="cls-23" d="M72.02,112.1l-8.19.07c-.44,0-.81-.36-.81-.8h0c0-.44.36-.81.8-.81l8.19-.07c.44,0,.81.36.81.8h0c0,.44-.36.81-.8.81Z"/>
      <path class="cls-15" d="M63.69,112.5c-.55,0-1-.44-1-.99v-.27c0-.55.44-1.01.99-1.01l8.47-.07h0c.26,0,.51.1.7.29.19.19.3.44.3.71v.27c0,.55-.44,1.01-.99,1.01h0l-8.47.07h0ZM72.15,110.81h0l-8.47.07c-.19,0-.33.15-.33.34v.27c0,.18.15.33.34.33h0l8.47-.07h0c.19,0,.33-.15.33-.34v-.28c0-.09-.04-.17-.1-.24-.06-.06-.15-.1-.23-.1v.02Z"/>
    </g>
    <g>
      <g>
        <path class="cls-14" d="M63.26,107.28s2.66.38,3.67,3.19h-1.83s.31-1.18-2.07-1.83l.22-1.35h.01Z"/>
        <path class="cls-15" d="M64.67,110.82l.11-.42s.16-.9-1.83-1.44l-.29-.08.33-1.97.32.05c.12.02,2.87.44,3.94,3.4l.16.44-2.74.02ZM63.42,108.4c1.57.5,1.95,1.27,2.02,1.75h1c-.8-1.71-2.26-2.29-2.91-2.46l-.12.71h.01Z"/>
      </g>
      <g>
        <path class="cls-14" d="M70.41,107.55s-2.02.09-2.98,2.91h1.83s.12-1.21,2.49-1.9l-1.33-1.01h-.01Z"/>
        <path class="cls-15" d="M66.96,110.8l.15-.44c1.03-3.01,3.19-3.13,3.28-3.14h.12l1.95,1.48-.63.19c-2.08.61-2.25,1.59-2.25,1.6l-.04.28h-.29l-2.3.03h.01ZM70.32,107.9c-.38.06-1.62.4-2.4,2.23h1.1c.16-.41.64-1.14,2.03-1.68l-.73-.55Z"/>
      </g>
    </g>
  </g>
  <g>
    <g>
      <path class="cls-8" d="M86.48,91.57c-1.4,1.34-7.88,2.35-7.88,2.35,0,0,9.27-2.07,0,0-9.27,2.08-17.6-2.72-17.6-2.72,0,0,.15.35,0,0s.87-6.1.87-6.1c0,0,1-5.25,6.31-8.51,0,0,9.22,4.38,14.41.13,0,0,2.25,1.17,2.49,2.28l1.42,12.08.12.28s-.1.17-.14.21Z"/>
      <path class="cls-15" d="M73.74,94.89c-7.12,0-12.68-3.15-12.97-3.31l.23-.2-.34.15-.61-1.39.54.31c.08-.81.3-2.37.84-5.43.04-.23,1.1-5.49,6.51-8.81l.21-.13.22.1c.09.04,9.03,4.21,13.94.19l.23-.19.26.14c.25.13,2.44,1.31,2.72,2.58v.04l1.42,12.02.18.43-.11.19c-.13.22-.19.28-.21.3h0c-1.45,1.39-7.36,2.35-8.11,2.47-1.7.38-3.36.53-4.94.53h0ZM61.43,90.93c1.34.71,8.89,4.39,17.07,2.56l4.12-.92.02.07c1.49-.38,2.9-.85,3.47-1.33l-.05-.11-1.43-12.12c-.15-.59-1.22-1.37-2.01-1.83-4.98,3.76-12.96.5-14.43-.16-4.89,3.11-5.9,8.04-5.9,8.09-.42,2.36-.83,4.99-.87,5.75h0Z"/>
    </g>
    <g class="cls-28">
      <path class="cls-27" d="M65.26,81.71s5.37,4.02,9.19,4.12c0,0-1.44,2.87-5.34,5.96,0,0-2.22.9-5.67-1.7,0,0,.15-3.67,1.82-8.38Z"/>
    </g>
    <g>
      <g>
        <path class="cls-5" d="M75.58,94.11c-1.5.53-6.71-.4-6.71-.4l.65-.61c7.21-5.55,10.5-14.74,10.5-14.74,1.27-.54,2.62-1.42,2.62-1.42l1.31.99s2.94,1.89,3.37,14.06l-.48.28-.48-.09s-.05.85-10.71,1.96"/>
        <path class="cls-13" d="M74.1,94.72c-2.05,0-4.89-.49-5.31-.56l-.87-.15,1.33-1.25c7.03-5.4,10.32-14.44,10.35-14.53l.07-.18.18-.08c1.22-.52,2.54-1.37,2.55-1.38l.26-.17,1.55,1.17c.3.22,3.13,2.54,3.56,14.4v.27l-.85.5-.43-.08c-.71.45-3.04,1.12-10.8,1.93v-.05c-.39.13-.95.17-1.6.17h0ZM75.43,93.7l.24.68-.07-.66c8.1-.84,9.94-1.53,10.33-1.73l.02-.32.82.15.11-.06c-.45-11.39-3.14-13.42-3.17-13.44h-.02l-1.07-.82c-.43.27-1.34.8-2.25,1.21-.51,1.33-3.89,9.59-10.54,14.72,1.76.27,4.65.6,5.6.27Z"/>
      </g>
      <g class="cls-29">
        <path class="cls-19" d="M68.43,94.65s6.91-4.6,12.21-16.35l1.37-.81s1.47.4,1.26.89c-3.51,8.03-6.35,11.81-10.26,16.16l-4.58.1h0Z"/>
      </g>
      <g class="cls-29">
        <path class="cls-19" d="M75.49,95.39s6.35-7.33,9.35-15.68l1.34,3.93s-4.12,8.95-7.52,11.69l-3.16.06h-.01Z"/>
      </g>
      <path class="cls-19" d="M86.58,87.44s-1.52,4.71-3.56,6.22l4.09-.32-.53-5.9Z"/>
      <g class="cls-30">
        <path class="cls-9" d="M72.8,90.57s7.94.69,13.96-1.42l-.16-2.41s-4.97,1.3-11.34,1.26c0,0-1.33,1.71-2.45,2.57h0Z"/>
      </g>
      <g class="cls-30">
        <path class="cls-9" d="M76.47,85.91s5.24.23,9.81-1.26l-.58-2.65s-2.31.71-7.48,1.17c0,0-.5,1-1.76,2.74h0Z"/>
      </g>
    </g>
  </g>
  <g>
    <g>
      <g>
        <path class="cls-5" d="M60.85,96.06s19.8,4.02,26.63-.84l.68,5.52s-5.57,3.87-16.52,3.09c0,0-7.68-.27-11.72-2.57l.92-5.2h.01Z"/>
        <path class="cls-13" d="M74.54,104.39c-.93,0-1.9-.03-2.92-.1-.3-.01-7.82-.3-11.91-2.63l-.27-.15,1.05-5.96.45.09c.2.04,19.69,3.93,26.29-.77l.61-.43.81,6.52-.22.15c-.21.15-4.84,3.28-13.88,3.28h-.01ZM60.42,101.03c3.97,2.08,11.17,2.36,11.24,2.36,9.49.67,14.9-2.2,16.03-2.87l-.56-4.54c-6.83,3.99-22.95,1.17-25.92.61l-.79,4.44Z"/>
      </g>
      <g class="cls-29">
        <path class="cls-19" d="M60.96,96.39l2.32.41-.95,5.11s-1.55-.35-2.34-.89l.97-4.64h0Z"/>
      </g>
      <g class="cls-29">
        <path class="cls-19" d="M65.29,97.26c-.05.19-.99,5.26-.99,5.26l2.38.49s.72-5.26.89-5.58l-2.28-.16h0Z"/>
      </g>
      <g class="cls-29">
        <path class="cls-19" d="M69.16,97.54s-.77,4.96-.68,5.71l2.09.24s.39-3.55.8-5.62l-2.21-.33Z"/>
      </g>
      <g class="cls-29">
        <polygon class="cls-19" points="72.94 97.82 72.38 103.73 74.96 103.66 75.22 97.87 72.94 97.82"/>
      </g>
      <g class="cls-29">
        <path class="cls-19" d="M85.98,96.5l.5,4.71,1.52-.69-.54-4.83s-1.36.62-1.47.81h0Z"/>
      </g>
      <g class="cls-30">
        <path class="cls-9" d="M76.59,99.8c-8.93.27-15.69-1.81-15.69-1.81l-.37,1.77c5.5,2.44,16.06,2.03,16.06,2.03v-1.99Z"/>
      </g>
      <g class="cls-30">
        <path class="cls-9" d="M85.03,98.52s1.03-.04,2.53-.89l.12,1.53s-.71.88-2.57,1.15l-.07-1.79h0Z"/>
      </g>
    </g>
    <g>
      <g>
        <path class="cls-5" d="M76.79,97.64s-.03,3.94.17,7.49c0,0,4.16.36,8.01-1.25l-.37-7.17s-6.22.81-7.81.93Z"/>
        <path class="cls-13" d="M78.06,105.61c-.66,0-1.08-.03-1.13-.04l-.38-.03-.02-.38c-.2-3.53-.17-7.48-.17-7.52v-.41l.41-.03c1.56-.12,7.73-.92,7.79-.93l.48-.06.41,7.96-.29.12c-2.73,1.14-5.56,1.33-7.09,1.33h0ZM77.39,104.71c1.06.04,4.17.03,7.13-1.12l-.33-6.37c-1.37.18-5.27.67-6.95.83,0,1.04,0,3.93.15,6.66Z"/>
      </g>
      <g class="cls-29">
        <path class="cls-19" d="M79.59,97.69l.25,7.05h-2.48s-.36-5.25-.24-6.76l2.46-.28h.01Z"/>
      </g>
      <g class="cls-29">
        <path class="cls-19" d="M82.17,97.51l.43,6.79s1.43-.06,2-.71l-.43-6.47-1.99.39h0Z"/>
      </g>
      <g class="cls-30">
        <path class="cls-9" d="M77.14,100.47s2.69.05,7.3-.81l.23,2.29s-4.3,1.17-7.37.88l-.15-2.36h0Z"/>
      </g>
    </g>
  </g>
  <g>
    <g>
      <g>
        <path class="cls-6" d="M87.77,96.44s-13.06,5.52-27.15-.59c0,0-.53-.63-.5-1.13,0,0,.09-3.03.21-3.68.1-.55.34-.73.82-.34,0,0,7.06,5.66,26.21.99,0,0,.21-1.17.84.02,0,0,.54,4.67-.43,4.74h0Z"/>
        <path class="cls-15" d="M74.7,99.15c-4.27,0-9.21-.71-14.26-2.9l-.1-.04-.07-.08c-.11-.13-.64-.79-.61-1.43,0-.3.09-3.07.22-3.74.03-.17.13-.7.57-.87.29-.11.61-.02.96.26.07.06,7.11,5.41,25.57.96.09-.24.27-.53.6-.58.54-.09.87.53.99.76l.04.07v.08c.12.94.42,4.09-.28,4.94-.15.18-.32.26-.46.28-.6.24-5.92,2.28-13.18,2.28h.01ZM60.9,95.49c13.71,5.9,26.56.6,26.69.55l.08-.03c.26-.35.3-2.22.09-4.12l-.03.16-.28.07c-19.14,4.67-26.29-.83-26.59-1.07-.03-.02-.06-.04-.08-.06,0,.03-.02.08-.03.13-.09.51-.18,2.78-.2,3.61-.01.21.19.55.34.75h0Z"/>
      </g>
      <path class="cls-16" d="M88.03,92.34c-.61-.86-.81,0-.81,0-17.51,3.8-25.35-.55-25.35-.55-.13-.08-.23.1-.33.08.22,1.49.64,3.79,3.46,5.18,15.22,3.16,22.61-1.02,22.61-1.02.94-.07.42-3.68.42-3.68h0Z"/>
      <path class="cls-25" d="M62.93,92.25s9.38,3.54,24.07.09c0,0,1.2-.86,1.15.52,0,0,.31,2.42-.33,3.15,0,0,.36-.08-.85-2.28,0,0-14.78,3.66-23.32-.49,0,0-2.48-1.59-.71-.99h-.01Z"/>
    </g>
    <g>
      <g>
        <path class="cls-6" d="M84.78,95.62c.07,2.1-1.57,3.86-3.67,3.93s-3.86-1.57-3.93-3.67,1.57-3.86,3.67-3.93,3.86,1.57,3.93,3.67Z"/>
        <path class="cls-15" d="M80.98,100c-1.08,0-2.1-.4-2.89-1.14-.83-.77-1.31-1.82-1.35-2.96-.04-1.13.37-2.21,1.14-3.04s1.82-1.31,2.96-1.35c1.13-.04,2.21.37,3.04,1.14s1.31,1.82,1.35,2.96c.04,1.13-.37,2.21-1.14,3.04s-1.82,1.31-2.96,1.35h-.15ZM80.99,92.4h-.12c-.9.03-1.73.41-2.34,1.06-.61.66-.93,1.51-.9,2.41s.41,1.73,1.06,2.34c.66.61,1.51.93,2.41.9s1.73-.41,2.34-1.06.93-1.51.9-2.41-.41-1.73-1.06-2.34c-.63-.58-1.44-.9-2.29-.9Z"/>
      </g>
      <path class="cls-16" d="M84.29,95.71c.06,1.78-1.24,3.27-2.9,3.33-1.66.06-3.06-1.34-3.12-3.12-.06-1.78,1.24-3.27,2.9-3.33,1.66-.06,3.06,1.34,3.12,3.12Z"/>
      <g>
        <g>
          <path class="cls-6" d="M83.9,95.34c.21,1.35-.66,2.64-1.95,2.88-1.28.24-2.49-.66-2.7-2.01s.66-2.64,1.95-2.88c1.28-.24,2.49.66,2.7,2.01Z"/>
          <path class="cls-15" d="M81.53,98.59c-.53,0-1.05-.16-1.49-.48-.61-.43-1.01-1.09-1.13-1.86-.24-1.52.76-2.99,2.22-3.26.69-.13,1.39.03,1.97.43.61.43,1.01,1.09,1.13,1.86h0c.24,1.52-.76,2.99-2.22,3.26-.16.03-.32.04-.48.04h0ZM81.61,93.62c-.12,0-.23,0-.35.03-1.11.21-1.86,1.33-1.68,2.5.09.58.39,1.09.85,1.41.43.3.95.42,1.46.32,1.11-.21,1.86-1.33,1.68-2.5h0c-.09-.58-.39-1.09-.86-1.41-.33-.23-.71-.36-1.11-.36h.01Z"/>
        </g>
        <path class="cls-16" d="M83.6,95.52c.07,1.17-.64,2.17-1.6,2.24-.95.07-1.79-.83-1.86-2s.64-2.17,1.6-2.24c.95-.07,1.79.83,1.86,2Z"/>
        <path class="cls-25" d="M83.6,95.54c.03.89-.47,1.62-1.11,1.64s-1.19-.68-1.22-1.56c-.03-.89.47-1.62,1.11-1.64s1.19.68,1.22,1.56Z"/>
      </g>
    </g>
  </g>
  <g>
    <path class="cls-21" d="M57.57,79.42s-3.69,2.5-6.29,7c0,0,4.2.99,5.28,4.2,0,0,2.19-2.93,4.1-5.28.68-.84,3.8-.82,5.81-1.38,2.34-.66,3.06-5.26-.73-5.9-.53-.09-4.94-.61-8.17,1.36Z"/>
    <path class="cls-15" d="M56.4,91.56l-.27-.8c-.99-2.94-4.92-3.9-4.96-3.91l-.58-.14.3-.52c2.62-4.53,6.27-7.04,6.43-7.14h.02c3.56-2.17,8.42-1.43,8.47-1.43,1.81.3,2.94,1.49,3.03,3.18.09,1.66-.88,3.2-2.25,3.59-.8.23-1.74.36-2.66.49-1.17.16-2.62.37-2.93.75-1.88,2.32-4.07,5.24-4.09,5.27l-.51.68v-.02ZM51.95,86.15c1.12.37,3.58,1.4,4.71,3.59.75-.99,2.28-2.99,3.65-4.68.53-.65,1.9-.85,3.5-1.07.88-.12,1.8-.25,2.54-.46.97-.27,1.67-1.45,1.61-2.68-.03-.6-.32-2.02-2.29-2.35-.05,0-4.57-.7-7.85,1.29-.19.13-3.42,2.41-5.86,6.36h0Z"/>
  </g>
  <g>
    <path class="cls-23" d="M53.52,82.85s3.97.49,5.69,4.49l-3.06,4.54s-1.39-3.85-5.89-4.89c0,0,2.25-3.08,3.25-4.15h0Z"/>
    <path class="cls-15" d="M56.04,92.86l-.3-.83c-.05-.15-1.37-3.64-5.57-4.61l-.66-.15.4-.54c.09-.13,2.27-3.11,3.29-4.19l.15-.16.22.03c.17.02,4.25.57,6.05,4.76l.1.22-3.68,5.47ZM51.01,86.74c3.06.93,4.59,3.1,5.22,4.25l2.48-3.69c-1.41-3.02-4.22-3.81-5.02-3.97-.76.86-2.04,2.55-2.67,3.41h0Z"/>
  </g>
  <path class="cls-14" d="M58.62,87.26s-2.61-5.18-6.53-.53c0,0,2.59.73,4.05,4.1l2.48-3.57Z"/>
  <g>
    <path class="cls-15" d="M56.27,87.44c-.23.07-.46.1-.69.12-.23,0-.46,0-.68,0-.23-.02-.45-.05-.67-.1s-.45-.12-.66-.23c.23-.08.46-.1.69-.12.23-.02.46,0,.68,0,.23.02.45.05.67.1s.45.12.66.23Z"/>
    <path class="cls-15" d="M54.34,85.93c.17.18.29.38.4.58.11.2.21.41.29.62.08.21.15.43.2.65.05.23.08.45.08.7-.17-.18-.29-.38-.4-.58-.11-.2-.21-.41-.29-.62-.08-.21-.15-.43-.2-.66-.05-.23-.08-.45-.08-.7h0Z"/>
  </g>
  <g>
    <path class="cls-15" d="M57.31,85.96c-.23.07-.46.1-.69.12-.23,0-.46,0-.68,0-.23-.02-.45-.05-.67-.1s-.45-.12-.66-.23c.23-.08.46-.1.69-.12.23-.02.46,0,.68,0,.23.02.45.05.67.1s.45.12.66.23Z"/>
    <path class="cls-15" d="M55.38,84.45c.17.18.29.38.4.58.11.2.21.41.29.62.08.21.15.43.2.65.05.23.08.45.08.7-.17-.18-.29-.38-.4-.58-.11-.2-.21-.41-.29-.62-.08-.21-.15-.43-.2-.66-.05-.23-.08-.45-.08-.7h0Z"/>
  </g>
  <path class="cls-1" d="M56.34,82.81s2.21.83,2.99,3.26c0,0,.4-.69,1.48-1.58,0,0,2.17-.71,4.49-.9,0,0,2.47-.08,2.32-2.41,0,0-.22-1.76-4.52-1.55,0,0-2.05-.13-4.29.81,0,0-.79.08-2.46,2.36h0Z"/>
  <g>
    <g>
      <path class="cls-21" d="M49.52,87.68s1.16-1.36,3.69.06c0,0,3.36,1.38,3.82,6.04,0,0-2.11,1.29-2.38,2.4,0,0-.99,1.03-1.92.27,0,0-1.93,1.29-2.23.56,0,0-.28-1.42-1.68-2.25,0,0-.56-.75-.35-1.33l-.76-1.09s-.07-.13.33-.59l-.66-1.14s1.05-1.75,2.13-2.94h0Z"/>
      <path class="cls-15" d="M50.9,97.67c-.1,0-.2,0-.29-.04-.23-.07-.41-.23-.51-.45l-.03-.08s-.27-1.24-1.47-1.95l-.08-.05-.05-.07c-.06-.09-.57-.79-.47-1.5l-.66-.95c-.16-.28,0-.61.17-.85l-.64-1.1.14-.23c.04-.07,1.09-1.8,2.18-3,.12-.13,1.48-1.56,4.22-.05.36.16,3.61,1.7,4.07,6.39l.03.28-.24.15c-.76.46-2.02,1.45-2.18,2.13l-.03.12-.08.09c-.4.42-1.33.99-2.24.49-.45.28-1.23.7-1.84.7v-.03ZM50.91,96.79c.26,0,.99-.32,1.58-.71l.27-.18.25.21c.5.41,1.04,0,1.24-.16.34-1.01,1.71-2,2.3-2.39-.53-4.13-3.49-5.39-3.52-5.4l-.05-.02c-2.19-1.22-3.13-.17-3.14-.16h0c-.81.91-1.62,2.15-1.94,2.66l.69,1.19-.21.24c-.08.1-.14.17-.17.22l.76,1.1-.08.22c-.09.23.1.63.24.84,1.24.78,1.66,1.96,1.77,2.36v-.02Z"/>
    </g>
    <path class="cls-1" d="M52.57,89.17s2.54.41,3.77,4.5c0,0-.83.08-2.08,2.08,0,0-1,.49-1.29-.44,0,0-.31-1.31.15-2.24,0,0-1.5.6-.96,3.06,0,0-.62.75-1.11.49,0,0-.15-1.05-.86-1.98,0,0-.98-1.37-.34-2.42,0,0-.88-.12-.61-1.21,0,0,.51-1.32,1.74-2,0,0,.89-.1,1.59.16Z"/>
    <g>
      <path class="cls-15" d="M52.91,96.97s-.07-.02-.09-.02c-.03,0-.05-.02-.07-.03-.05-.02-.09-.04-.13-.06-.08-.05-.16-.1-.22-.16-.14-.12-.25-.27-.31-.42-.14-.31-.14-.62-.11-.9.04-.27.11-.53.21-.77.09-.24.21-.46.32-.69v-.03h.02c.07-.09.14-.22.16-.35.03-.13.02-.27-.03-.41-.05-.14-.13-.26-.23-.38-.05-.06-.11-.11-.16-.16l-.18-.15.21.11c.07.04.13.09.2.14.12.1.24.22.32.37.08.15.13.32.13.5s-.04.35-.13.53l.02-.03c-.07.23-.13.45-.17.68s-.06.45-.05.66c.02.21.07.39.16.51.04.06.09.1.15.13.03.02.06.03.09.03h.06s.02,0,0,0l-.12.88-.05.02Z"/>
      <path class="cls-15" d="M52.74,94.44h-1.03c-.34,0-.69.02-1.03.08.14-.1.3-.19.45-.27.16-.08.31-.16.47-.24.32-.15.64-.3.97-.44l.17.87Z"/>
      <polygon class="cls-15" points="48.13 93.16 50.06 91.32 48.84 93.7 48.13 93.16"/>
      <polygon class="cls-15" points="47.69 91.51 49.19 90.07 48.43 92 47.69 91.51"/>
    </g>
  </g>
  <g>
    <g>
      <path class="cls-21" d="M94.11,87.48l2.6.52s1.15-.44,2.78.47l.83,1.24s1.12,2.27-.71,2.56c0,0,.88,1.5-.71,2.1,0,0,.16,2.4-1.84,3.26,0,0-4.53,0-5.31-1.98l-.27-1.34.53-1.7s-1.11-3.73,2.11-5.13h0Z"/>
      <path class="cls-15" d="M97.06,98.07c-.51,0-4.86-.06-5.72-2.26l-.02-.07-.3-1.45.52-1.68c-.39-1.47-.35-4.34,2.39-5.53l.13-.06,2.63.53c.39-.1,1.54-.29,3.02.54l.09.05.92,1.38c.07.15.69,1.45.2,2.38-.11.22-.33.48-.71.66.09.31.15.74,0,1.16-.14.4-.43.71-.86.94-.03.75-.29,2.6-2.1,3.38l-.08.04h-.11ZM92.18,95.52c.57,1.33,3.56,1.65,4.79,1.66,1.6-.76,1.49-2.77,1.49-2.79l-.02-.33.31-.12c.33-.13.54-.3.62-.53.12-.35-.06-.79-.14-.93l-.32-.56.64-.1c.45-.07.55-.27.59-.34.23-.45-.06-1.27-.2-1.56l-.75-1.13c-1.35-.72-2.3-.39-2.31-.39l-.12.05-2.59-.52c-2.66,1.26-1.77,4.4-1.73,4.54l.04.13-.53,1.72.24,1.19h-.01Z"/>
    </g>
    <g>
      <path class="cls-7" d="M103.87,87.81s-6.88.5-11.29-2.62c0,0-.92-.81.23-1.53,0,0,4.29,1.93,5.39,2.24,0,0,4.56.7,6.04.71,0,0,.7,1.33-.38,1.2h.01Z"/>
      <path class="cls-11" d="M92.52,83.51s5.19,2.42,11.61,3c0,0,1.04,1.7-.32,2.53,0,0-2.21.67-4.62.08l-1.45,7.39s-1.91.35-3.55-1.55l1.54-7.02s-6.36-2.47-3.21-4.43Z"/>
      <path class="cls-18" d="M94.11,96.24s-2.32.37-2.28,1.5l.49,1.52s2.38-.89,3.83,2.14l1.75-.44s.72-1.38-.98-3.58l-2.81-1.15h0Z"/>
      <path class="cls-11" d="M92.52,83.51s5.19,2.42,11.61,3c0,0,1.04,1.7-.32,2.53,0,0-2.21.67-4.62.08l-1.45,7.39s-1.91.35-3.55-1.55l1.54-7.02s-6.36-2.47-3.21-4.43Z"/>
      <path class="cls-22" d="M94.58,94.48s-1.03.56-.64,1.47c0,0,1.43,1.79,3.45,1.23,0,0,.71-.55.65-1.63,0,0-.88.7-3.46-1.08h0Z"/>
      <g>
        <path class="cls-23" d="M98.08,95.64l1.59-6.65c2.69.73,3.75-.27,3.75-.27,1.73-1.04.71-2.21.71-2.21-5.92-.62-11.87-2.83-11.87-2.83,0,0-1.74,1.88,3.48,4.26l-1.42,6.43s-.94,1.32-.46,1.83c0,0-1.54.56-1.96,1.12,0,0-.27,1.35.43,1.95,0,0,2.92-.39,3.83,2.14l1.75-.44s.77-1.5-.79-3.5c0,0,.76-.11.96-1.83Z"/>
        <path class="cls-15" d="M95.88,101.94l-.14-.38c-.78-2.16-3.25-1.87-3.36-1.85l-.2.03-.15-.13c-.87-.75-.6-2.21-.57-2.37l.02-.1.06-.08c.35-.46,1.2-.88,1.74-1.1-.07-.67.41-1.46.62-1.76l1.32-6c-2.19-1.05-3.42-2.16-3.65-3.32-.15-.72.16-1.28.36-1.5l.2-.22.28.1c.06.02,5.97,2.2,11.77,2.81l.17.02.11.13c.05.06.51.61.39,1.37-.09.58-.49,1.08-1.17,1.5-.24.19-1.36.95-3.68.45l-1.48,6.19c-.13,1.04-.46,1.59-.76,1.88,1.33,2,.58,3.51.55,3.57l-.09.18-2.33.59h0ZM92.79,98.8c1.14,0,2.84.43,3.64,2.09l1.15-.29c.12-.4.27-1.47-.81-2.85l-.57-.73.84.02c.08-.04.47-.29.6-1.44v-.05l1.71-7.09.44.12c2.37.65,3.33-.16,3.33-.17l.07-.05c.32-.19.72-.51.78-.89.03-.21-.04-.4-.1-.52-5.01-.55-10.05-2.23-11.42-2.71-.04.12-.06.3,0,.5.11.51.71,1.55,3.47,2.81l.33.15-1.51,6.87-.05.07c-.4.57-.59,1.18-.5,1.27l.45.49-.63.23c-.54.2-1.38.59-1.69.89-.04.32-.06.93.19,1.29h.29Z"/>
      </g>
      <g>
        <path class="cls-14" d="M93.59,84.28s6.77,2.37,10.32,2.19c0,0,1.26.73-.47,1.25,0,0-2.95.68-8.62-1.9,0,0-2.88-1.25-2.35-1.84,0,0,.38-.18,1.12.3Z"/>
        <path class="cls-15" d="M102.38,88.13c-1.37,0-3.95-.31-7.7-2.01-.73-.32-2.44-1.13-2.6-1.86-.04-.19,0-.37.14-.51l.05-.05.06-.03c.09-.04.58-.22,1.41.3.54.19,6.85,2.33,10.16,2.16h.1l.09.05c.07.04.66.4.6.94-.07.59-.88.84-1.15.92-.05,0-.44.09-1.15.09h0ZM92.87,84.31c.32.31,1.18.81,2.08,1.21,5.51,2.5,8.38,1.88,8.41,1.88.6-.18.66-.35.66-.35,0-.04-.08-.15-.2-.24-3.59.14-10.06-2.11-10.34-2.21l-.07-.03c-.23-.15-.41-.22-.54-.25h0Z"/>
      </g>
      <g>
        <g>
          <path class="cls-6" d="M95.46,85.3s1.85-23.94,11.49-33.04c0,0,4.76,10.88-6.11,34.4,0,0-3.86-.23-5.38-1.36Z"/>
          <path class="cls-26" d="M101.12,87.12l-.3-.02c-.16,0-4.01-.25-5.62-1.45l-.2-.15.02-.24c.08-.98,1.97-24.22,11.63-33.33l.46-.43.25.58c.05.11,1.23,2.88,1.06,8.57-.15,5.21-1.52,13.98-7.17,26.2l-.13.28h0ZM95.93,85.07c1.16.7,3.5,1.02,4.64,1.12,5.45-11.89,6.79-20.42,6.96-25.49.13-4.01-.44-6.54-.77-7.64-8.47,8.69-10.6,29.45-10.83,32h0Z"/>
        </g>
        <path class="cls-16" d="M97.58,85.34s3.27-22.63,9.15-31.98c0,0,3.95,11.08-6.03,32.81,0,0-2.68-.43-3.11-.83h-.01Z"/>
        <path class="cls-25" d="M106.72,53.36s4.22,9.45-6.03,32.81l-1.67-.3s7.68-18.12,7.65-30.59c0,0-3.41,5.07-6.94,18.54,0,0-.07-10.5,7-20.46h-.01Z"/>
        <path class="cls-26" d="M102.58,64.33c-.5,1.77-.97,3.55-1.43,5.32-.45,1.78-.9,3.56-1.3,5.35-.41,1.79-.78,3.58-1.11,5.38-.32,1.8-.59,3.61-.76,5.42l-.33-.46,1.41.33-.5.27c.45-1.21.88-2.43,1.29-3.66.42-1.22.83-2.45,1.22-3.69.78-2.47,1.53-4.95,2.21-7.45.69-2.5,1.3-5.02,1.85-7.55.53-2.54.97-5.09,1.31-7.67-.11,2.6-.42,5.19-.84,7.76-.44,2.57-.98,5.12-1.6,7.65-.64,2.52-1.33,5.04-2.11,7.52-.39,1.24-.79,2.48-1.21,3.72-.42,1.23-.86,2.46-1.33,3.68l-.13.36-.37-.09-1.41-.34-.36-.09.04-.37c.19-1.85.51-3.67.86-5.48.36-1.81.81-3.6,1.27-5.38.48-1.78.99-3.55,1.54-5.3.55-1.76,1.14-3.5,1.78-5.22h.01Z"/>
      </g>
      <path class="cls-14" d="M95.52,97.58c.15.09.34.44.46,1.54,0,0-.92-1.16-2.29-.5,0,0,1.56-.15,2.56,2.37l1.27-.44s.67-.71-.75-3.29c0,0-.86-.35-1.28.05-.09.08-.06.22.04.28h-.01Z"/>
    </g>
    <path class="cls-15" d="M95.6,90.67c0,.15,0,.26,0,.38,0,.12-.03.24-.06.36-.05.24-.14.47-.27.69-.13.22-.33.41-.56.53-.22.13-.47.17-.7.19l.1-.38c.16.15.28.31.39.48s.21.35.28.54c.07.19.1.39.1.59s-.06.39-.13.57c.04-.19.06-.38.02-.56-.03-.18-.1-.35-.19-.51s-.21-.3-.33-.43c-.12-.13-.27-.25-.41-.34l-.36-.23.46-.15c.17-.05.34-.11.46-.22s.21-.23.27-.38.08-.32.09-.49v-.26c0-.08-.02-.19-.04-.24l.88-.12v-.02Z"/>
    <g>
      <g>
        <path class="cls-21" d="M100.22,92.43s-.94-2.01-2.86-1.26c0,0,1.61-2.47-.71-2.83,0,0,2.42-.95,3.66.36l.45.59s1.33,2.21-.54,3.13h0Z"/>
        <path class="cls-15" d="M100.01,93.03l-.19-.41c-.08-.17-.82-1.61-2.3-1.03l-1.29.51.76-1.17c.18-.28.64-1.18.41-1.69-.11-.23-.38-.39-.82-.45l-1.63-.25,1.53-.6c.11-.04,2.72-1.05,4.15.47l.03.04.48.64s.77,1.31.43,2.46c-.17.57-.56,1.01-1.15,1.3l-.41.2v-.02ZM98.2,90.56c1.01,0,1.76.65,2.17,1.25.17-.15.29-.32.35-.53.21-.71-.26-1.6-.33-1.73l-.42-.55c-.52-.54-1.34-.58-2.01-.5.1.11.19.24.25.39.25.55.13,1.18-.05,1.68h.05-.01Z"/>
      </g>
      <g>
        <path class="cls-21" d="M100.29,92.59s1.12,1.68-.93,2.76c0,0,.21-1.15-1.97-.99,0,0-2.05.09-1.94-1.09,0,0,.75-1.92,2.14-2.19,0,0,1.35-.67,2.71,1.52h-.01Z"/>
        <path class="cls-15" d="M98.75,96.16l.16-.9h0s0-.11-.09-.21c-.1-.1-.43-.32-1.41-.25-.16,0-1.47.04-2.09-.61-.25-.26-.36-.59-.32-.96v-.06l.03-.06c.03-.09.84-2.11,2.42-2.46.33-.13,1.81-.55,3.22,1.7.06.09.54.89.31,1.8-.17.65-.64,1.19-1.41,1.59l-.81.42h0ZM97.78,93.9c.8,0,1.38.19,1.72.57.05.06.09.11.13.17.26-.21.42-.45.49-.71.14-.56-.19-1.09-.19-1.1h0c-1.11-1.8-2.1-1.38-2.14-1.36l-.05.02h-.06c-.9.19-1.57,1.35-1.78,1.87,0,.11.04.17.09.21.27.29,1.06.35,1.4.34.14,0,.28-.02.41-.02h-.02Z"/>
      </g>
      <g>
        <path class="cls-21" d="M98.31,97.89s-3,0-3.39-1.37c0,0-.46-2.27,3.11-2.31,0,0,1.27.37,1.54,1.37,0,0,.09,1.42-1.26,2.31Z"/>
        <path class="cls-15" d="M98.44,98.34h-.13c-.34,0-3.35-.05-3.82-1.69v-.03s-.19-.94.45-1.73c.58-.72,1.62-1.1,3.09-1.12h.07l.06.02c.06.02,1.51.45,1.84,1.68v.09c.02.07.1,1.69-1.44,2.71l-.11.07h-.01ZM95.35,96.42c.23.73,1.91,1,2.82,1.02.89-.65.95-1.58.95-1.8-.2-.61-.95-.92-1.16-.99-1.13.03-1.94.3-2.33.79-.34.42-.29.89-.28.98Z"/>
      </g>
      <g>
        <path class="cls-1" d="M98.39,94.6s1.29.23,1.11,1.2c0,0-.35,1.29-1.15,1.32,0,0-.73-.38-.62-1.11,0,0-2.17.52-1.46-1,0,0,.92-.64,2.12-.4h0Z"/>
        <path class="cls-15" d="M98.44,94.35c-.06.21-.13.41-.2.61s-.15.39-.24.58c-.09.19-.19.38-.3.56-.11.17-.25.35-.44.45.14-.15.19-.34.23-.53s.06-.39.07-.58c0-.2.02-.39,0-.59,0-.19,0-.4-.03-.58l.88.09h.02Z"/>
      </g>
      <g>
        <path class="cls-1" d="M99.17,91.87s1.25,1.11.94,2.05c0,0,.16.51-.64.42,0,0-1.3-.67-1.09-1.38,0,0-2.29.42-1.37-.99,0,0,.97-.89,2.15-.1h0Z"/>
        <path class="cls-15" d="M99.26,91.63c-.09.2-.18.39-.29.57-.1.19-.21.37-.32.54-.11.18-.24.35-.38.51s-.3.31-.5.38c.16-.13.24-.31.31-.5.07-.18.12-.37.16-.57.04-.19.07-.39.1-.58.02-.19.05-.4.06-.58l.86.22h0Z"/>
      </g>
      <g>
        <path class="cls-1" d="M99.89,88.83s1.25,1.11.94,2.05c0,0,.06.47-.49.7,0,0-1.3-.67-1.09-1.38,0,0-2.09-.22-1.17-1.63,0,0,.66-.14,1.81.26Z"/>
        <path class="cls-15" d="M100.19,88.66c-.09.2-.18.39-.29.57-.1.19-.21.37-.32.54-.11.18-.24.35-.38.51s-.3.31-.5.38c.16-.13.24-.31.31-.5.07-.18.12-.37.16-.57.04-.19.07-.39.1-.58.02-.19.05-.4.06-.58l.86.22h0Z"/>
      </g>
      <g>
        <g>
          <path class="cls-21" d="M92.78,88.48s1-1.48,3.41-1.19l.85.29s1.5-.08.64,3.19c0,0,.06,1.31-.79,1.53,0,0-1.35.5-1.87-2.27"/>
          <path class="cls-15" d="M96.64,92.78c-.2,0-.45-.04-.72-.2-.65-.37-1.1-1.2-1.34-2.47l.87-.16c.25,1.32.67,1.73.9,1.87.21.12.38.07.38.07h.04c.48-.14.46-1.09.46-1.1v-.14c.46-1.74.19-2.33.05-2.5-.1-.13-.22-.14-.22-.14h-.09l-.89-.29c-2.09-.23-2.93.99-2.94,1l-.74-.5c.05-.07,1.18-1.7,3.83-1.38l.09.02.79.27c.18,0,.55.09.85.46.49.6.54,1.69.15,3.22,0,.63-.21,1.66-1.11,1.91-.06.02-.19.05-.37.05h.01Z"/>
        </g>
        <path class="cls-1" d="M97.49,88.35s.23,1.77-.4,2.86c0,0-1.53.77-1.31-2.02,0,0-.12-1.1,1.72-.84h0Z"/>
      </g>
    </g>
  </g>
  <g>
    <g>
      <g>
        <path class="cls-3" d="M87.38,63.21s1.46,2.13,4.37,1.68c0,0,1.83-.44.97.97,0,0-1.5,2.05-3.51,1.72,0,0,1.77.81,4.15.11,0,0,2.36-.95,1.05.97,0,0-3,3.96-5.81,3.39l-.06-1.62-2.43-2.57,1.3.11s.16-1.28-1.4-2.16l1.37-2.6Z"/>
        <path class="cls-15" d="M89.16,72.56c-.22,0-.43-.02-.65-.06l-.34-.07-.07-1.8-3.12-3.3,1.93.16c-.05-.17-.14-.38-.31-.6l-.6-.28.43.07c-.16-.16-.37-.33-.63-.48l-.37-.21,1.91-3.64.42.61c.06.09,1.35,1.88,3.92,1.5.3-.07,1.19-.22,1.58.31.24.33.19.78-.14,1.33l-.02.03c-.04.06-.63.85-1.58,1.4.51,0,1.09-.08,1.71-.26.53-.21,1.47-.48,1.88.04.42.53-.11,1.31-.31,1.61v.02c-.13.16-2.8,3.62-5.62,3.62h-.02ZM89.03,71.66c2.36.13,4.88-3.07,5.02-3.26.17-.25.24-.41.28-.5-.19,0-.53.09-.81.2h-.04c-2.52.75-4.38-.08-4.46-.11l-1.21-.55c.07.34.04.57.04.6l-.05.42-.57-.05,1.75,1.85.05,1.41h0ZM87.63,66.87l1.65.27c1.64.27,2.95-1.37,3.07-1.53.1-.17.14-.27.15-.33-.13-.03-.42-.02-.65.03h-.04c-2.22.35-3.66-.67-4.34-1.34l-.88,1.67c.55.39.86.83,1.04,1.22h0Z"/>
      </g>
      <path class="cls-25" d="M88.75,67.71s1.64.87,5.09.09c0,0,1.01,0,0,.9,0,0-1.05,1.6-3.66,2.7,0,0,1.7-2.07.29-2.24,0,0-2.71-.53-3.59-2.06,0,0,3.51-.33,3.37-1.04,0,0-1.52-.73-1.26-.99,0,0,1.19.72,2.82.26,0,0,1.38-.34.19.66,0,0-.9,1.05-3.26,1.73h0Z"/>
    </g>
    <g>
      <g>
        <path class="cls-25" d="M86.52,58.32s2.8-2.57,3.61.15c0,0,.65,3.23-1.86,5.46l-.63.05s-.18-1.66-.85-2.47c0,0-.72-1.53-.27-3.19Z"/>
        <path class="cls-15" d="M87.24,64.45l-.05-.43c-.05-.43-.27-1.65-.75-2.23l-.04-.04-.02-.05c-.03-.07-.79-1.7-.29-3.5l.03-.12.09-.09c.17-.16,1.7-1.52,3.02-1.15.63.17,1.07.68,1.31,1.51v.04c.04.14.67,3.51-1.99,5.88l-.11.1-1.21.09h.01ZM87.17,61.27c.5.64.75,1.65.85,2.23h.06c2.08-1.96,1.66-4.65,1.61-4.93-.15-.5-.39-.8-.69-.88-.66-.18-1.67.51-2.09.87-.3,1.28.15,2.47.25,2.72h0Z"/>
      </g>
      <path class="cls-1" d="M86.49,59.09s1.76-1.98,2.39.12c0,0,.5,2.5-1.43,4.21l-.29.03s.25-1.28-.27-1.9c0,0-.75-1.18-.4-2.46Z"/>
      <path class="cls-15" d="M86.47,61.16c.15-.33.32-.62.51-.91.19-.29.39-.56.62-.81s.49-.48.78-.66c.29-.17.62-.28.95-.29-.32.08-.59.26-.82.47s-.41.47-.56.74-.28.56-.39.85c-.1.29-.2.6-.25.88l-.85-.27h.01Z"/>
      <g>
        <path class="cls-25" d="M88.23,59.32s.86.41.24,2.47"/>
        <path class="cls-15" d="M88.42,58.92c.09.05.1.07.14.11.03.03.06.07.09.1.05.07.09.14.13.2.07.14.11.28.13.41.05.27.04.52,0,.75-.04.24-.1.46-.18.67-.08.21-.17.42-.26.62.02-.22.04-.44.05-.66,0-.22,0-.43-.05-.64-.03-.2-.1-.39-.18-.54-.04-.08-.1-.14-.15-.18-.03-.02-.05-.04-.08-.05,0,0-.02,0-.03-.01,0,0-.03,0,0,.02l.38-.8h0Z"/>
      </g>
    </g>
    <g>
      <g>
        <path class="cls-6" d="M80.24,44.48s5.97-.61,8-6.5c0,0,2.08-.94.72,6.42,0,0-1.13,5.26-4.91,6.9,0,0-.67-5.33-3.81-6.82Z"/>
        <path class="cls-15" d="M83.69,51.94l-.08-.59s-.68-5.11-3.56-6.48l-1.43-.68,1.58-.16c.24-.03,5.72-.67,7.62-6.2l.06-.18.17-.08c.2-.09.65-.16,1.05.15.9.71,1,2.92.29,6.76-.05.24-1.23,5.52-5.17,7.22l-.54.23h.01ZM81.4,44.69c1.97,1.61,2.75,4.64,3,5.94,3.11-1.76,4.12-6.28,4.13-6.32.91-4.92.19-5.76.03-5.88h0c-1.61,4.28-5.3,5.77-7.16,6.27h0Z"/>
      </g>
      <path class="cls-16" d="M84.66,50.44s5.24-4.01,4.15-11.06c0,0,0-1.15-.51.58,0,0-1.16,3.94-5.7,6.07,0,0,.67,3.39,2.06,4.41Z"/>
      <path class="cls-25" d="M88.81,39.37s1.56,6.4-4.15,11.06l-1.06-1.15s5.15-3.53,5.21-9.91Z"/>
    </g>
    <g>
      <path class="cls-23" d="M60.09,54.36s-1.18-5.03,4.11-8.47c0,0,8.45-5.63,17.51-.6,0,0,3.21,1.23,4.21,6.26,0,0-6.71-2.83-12.97-1.32,0,0-9.3,2.17-12.86,4.13Z"/>
      <path class="cls-15" d="M59.79,55.03l-.13-.57s-1.19-5.37,4.3-8.94c.08-.06,8.76-5.7,17.95-.63.37.15,3.46,1.58,4.45,6.57l.16.82-.77-.32c-.07-.03-6.66-2.75-12.7-1.3-.1.02-9.28,2.18-12.75,4.09,0,0-.51.28-.51.28ZM73.74,43.66c-5.3,0-9.24,2.56-9.29,2.6-3.98,2.59-4.12,6.06-4,7.42,3.87-1.88,12.04-3.8,12.41-3.88,5.13-1.24,10.47.34,12.45,1.04-1.08-4.04-3.63-5.09-3.75-5.13l-.05-.03c-2.71-1.5-5.37-2.02-7.76-2.02h0Z"/>
    </g>
    <g>
      <path class="cls-6" d="M69.61,43.97s4.36,2.19,3.34,5.99c0,0,4.61-1.13,8.18.24,0,0,1.19-4.9-3.86-7.18l-1.48-.64-5.39.4-.78,1.2h-.01Z"/>
      <path class="cls-15" d="M81.44,50.79l-.47-.18c-3.4-1.3-7.87-.23-7.92-.22l-.73.18.2-.73c.92-3.4-3.07-5.45-3.11-5.47l-.44-.22,1.16-1.81,5.72-.42,1.58.68c5.34,2.41,4.13,7.65,4.12,7.7l-.12.49h0ZM76.94,49.07c1.22,0,2.56.13,3.83.53.14-1.23.1-4.47-3.7-6.19l-1.38-.59-5.06.37-.41.63c1.05.66,3.64,2.61,3.28,5.56.73-.13,1.99-.32,3.43-.32h.01Z"/>
    </g>
    <path class="cls-16" d="M70.82,43.22l5.07-.3s4.71,1.45,4.97,6.25c0,0-2.5-.55-5.66-.25,0,0-.95-4.34-4.38-5.7Z"/>
    <path class="cls-25" d="M72.98,43.1l2.92-.17s4.11.44,4.97,6.25c0,0-1.16-.64-3.02-.26,0,0-1.62-1.75.24-3.6,0,0,.06-.9-.73-1.54,0,0-2.79,1.13-4.37-.67h-.01Z"/>
    <g>
      <path class="cls-21" d="M61.27,58.83s2.55,2.75,3.73,2.73c0,0-1.52,2.75.21,4.53,0,0,2.2,3.18,4.8,3.17,0,0,.33-.39,1.34-1.16l14.8-.37s1.59-.52.12-1.4c0,0,3.31-3.26.72-5.92,0,0-.68-1.66,0-3.3l-.04-1.34s-4.15-.66-6.45-.82c0,0-14.33-.35-19.23,3.89h0Z"/>
      <path class="cls-15" d="M69.99,69.7c-2.68,0-4.87-2.97-5.13-3.33-1.44-1.51-.88-3.55-.5-4.51-1.31-.51-3.04-2.32-3.42-2.73l-.31-.34.35-.3c4.98-4.3,18.94-4.01,19.53-3.99,2.32.16,6.34.8,6.51.82l.36.06.05,1.8-.04.09c-.53,1.27-.14,2.57-.03,2.89,1.98,2.13.73,4.72-.45,6.1.3.28.44.57.4.88-.08.66-.88.95-1.05,1.01l-.06.02h-.06l-14.66.37c-.85.66-1.15,1-1.16,1.01l-.13.15h-.22.02ZM65.76,61.09l-.37.68s-1.33,2.49.14,4.01l.05.06s1.99,2.84,4.25,2.97c.19-.19.58-.55,1.25-1.06l.11-.09h.15l14.73-.37c.16-.06.33-.17.38-.24-.02-.04-.1-.16-.4-.34l-.49-.3.41-.4c.12-.12,2.96-2.99.72-5.3l-.06-.06-.03-.08c-.03-.07-.72-1.79-.03-3.55l-.02-.88c-1.06-.16-4.18-.63-6.05-.76-.12,0-13.51-.28-18.55,3.49,1.02,1.03,2.45,2.25,3.06,2.24l.77-.02h-.02Z"/>
    </g>
    <path class="cls-17" d="M83.19,51.5c-6.36-1.12-9.82-.27-9.82-.27l.11.47s5.95-.54,9.65.33l.06-.53Z"/>
    <g>
      <path class="cls-2" d="M61.82,59.63c-1.72,0-3.2,1.8-3.81,4.33-.19.3-.53.67-1.03,1.1-.75.65-2.28,1.3-4.91-.1,0,0-1.54-1.06-.84.73,0,0,1.36,3.82,5.51,2.4,0,0-2.59,1.5-7.21.08,0,0,1.2,6.88,11.03,5.16.42.23.86.36,1.33.36,2.29,0,4.14-3.17,4.12-7.05s-1.89-7.02-4.19-7h0Z"/>
      <path class="cls-15" d="M61.88,74.13c-.47,0-.94-.11-1.39-.34-5.17.87-7.98-.65-9.44-2.08-1.61-1.59-1.94-3.39-1.96-3.46l-.12-.72.69.21c1.26.39,2.35.55,3.28.59-1.52-.86-2.11-2.46-2.12-2.49-.11-.29-.43-1.1.05-1.48.45-.36,1.13.03,1.43.23,2.22,1.17,4.13.27,4.42.12.62-.54.66-.58.87-.91.7-2.79,2.35-4.59,4.22-4.6h.02c1.27,0,2.44.8,3.31,2.26.83,1.39,1.29,3.23,1.3,5.19.02,4.19-1.98,7.48-4.56,7.49h-.02.02ZM60.65,72.86l.14.08c.36.2.73.31,1.11.3,2.01,0,3.69-3.03,3.67-6.6,0-1.8-.43-3.48-1.18-4.74-.7-1.18-1.61-1.83-2.55-1.83h-.01c-1.45,0-2.8,1.61-3.38,3.99l-.02.07-.04.06c-.32.51-.36.55-1.12,1.2l-.07.05c-.1.06-2.53,1.4-5.34-.1l-.04-.03c-.09-.06-.2-.12-.29-.16.02.09.06.21.12.36.06.15,1.28,3.4,4.95,2.14l.37.8c-.11.06-2.52,1.42-6.79.34.61,1.64,2.86,5.38,10.31,4.07l.16-.03v.03Z"/>
    </g>
    <path class="cls-3" d="M62.3,61.57c-1.61,0-2.05,1.15-2.84,2.95-.26.42-.62,0-1.13.08,0,0-2.62,2.09-5.41,1.27,0,0-1.17-.62.01,1.01,0,0,1.22,1.49,3.88,1.09,0,0-.33,1.11-4.17,1.57,0,0-.79-.1-.59.42.47,1.2,2.97,3.77,9.36,2.65.39.22.9.15,1.33.15,2.14,0,2.41-2.43,2.39-6.05s-.7-5.16-2.84-5.15h.01Z"/>
    <path class="cls-20" d="M87.41,67.72"/>
    <g>
      <path class="cls-24" d="M84.43,67.52c-.99.54-13.29,1.43-13.29,1.43-3.44-.37-4.67-3.68-4.67-3.68-.47-1.96.19-3.45.19-3.45,1.21-2.22-.95-5.7-.95-5.7-1.6.45-1.51.63-3.43,1.68,3.55,1.83-.62,9.41-.62,9.41-1.39,2.82-1.02,5.92-1.02,5.92.27,4.47,5.53,7.59,5.53,7.59,6.43,4.15,14.45,3.76,14.45,3.76.45-1.75,3.09-1.72,3.09-1.72,1.03-2.99,2.7-5.8,2.7-5.8,2.45-4.06,2.35-8.74,2.35-8.74,0,0,.18-1.91-.27-3.66l-.38-.98s-.34-.28-.33.21l-.37.94s-.34,1.36-2.96,2.78h-.02Z"/>
      <path class="cls-15" d="M79.98,84.94c-2.07,0-8.57-.3-14.05-3.84-.21-.12-5.44-3.28-5.73-7.93-.03-.26-.34-3.32,1.06-6.16.04-.07,2.66-4.89,1.86-7.53-.18-.6-.52-1.02-1.04-1.29l-.74-.38.74-.4c.6-.33,1-.57,1.32-.76.7-.42,1.05-.63,2.2-.96l.32-.09.18.28c.09.15,2.27,3.71.98,6.13-.06.14-.56,1.45-.17,3.12.12.3,1.28,3.03,4.26,3.37,5.87-.43,12.43-1.05,13.07-1.38,2.37-1.28,2.74-2.49,2.75-2.5l.02-.05.34-.87c.02-.36.2-.52.35-.59.26-.12.54-.01.71.13l.09.07.44,1.13c.45,1.71.31,3.54.28,3.79,0,.43,0,4.95-2.41,8.95,0,.02-1.65,2.81-2.66,5.72l-.1.3h-.32s-2.3,0-2.66,1.38l-.08.32-.33.02s-.28,0-.66,0h-.02ZM63.11,57.84c.39.36.68.82.85,1.38.91,3.01-1.81,7.99-1.92,8.2-1.3,2.64-.97,5.63-.97,5.66v.03c.26,4.19,5.27,7.21,5.32,7.24,5.56,3.59,12.4,3.72,13.9,3.7.59-1.39,2.36-1.66,3.1-1.71,1.04-2.89,2.57-5.48,2.63-5.6,2.36-3.9,2.29-8.46,2.28-8.5v-.06s.17-1.84-.25-3.48l-.09-.22-.16.4c-.08.27-.6,1.63-3.17,3.03h0c-1.03.56-11.4,1.33-13.47,1.48h-.08c-3.67-.39-4.99-3.82-5.04-3.97l-.02-.05c-.5-2.08.19-3.67.22-3.73l.02-.03c.88-1.62-.31-4.12-.77-4.96-.77.24-1.04.4-1.65.77-.2.12-.44.26-.73.43h0ZM88.21,63.75"/>
    </g>
    <polygon class="cls-17" points="61.63 54.74 60 55.45 60.08 55.81 61.72 55.12 61.63 54.74"/>
    <polygon class="cls-17" points="70.8 51.62 64.27 53.57 64.44 54.08 70.93 52.05 70.8 51.62"/>
    <path class="cls-17" d="M62.4,58.37l10.04-4.78h11.76l.13,1.47s-3.09-.62-5.54-.61c0,0-10.5.5-16.4,3.92h.01Z"/>
    <path class="cls-25" d="M72.93,59.02s1.1,1.23-.2,1.24l-.21-.04s-.25-.55.41-1.19h0Z"/>
    <path class="cls-25" d="M83.97,59.22s1.23.61,0,1.28c0,0-.68-.81,0-1.28Z"/>
    <path class="cls-20" d="M87.68,63.25"/>
    <path class="cls-3" d="M65.86,63.94s-.3,4.75,6.39,5.86c0,0,6.31-3.83,11.92-1.35,0,0,2.15-.58,3.64-3.79,0,0,.15-1.88.53,1.42,0,0-.8,10.11-5.91,14.89,0,0,.08-1.1-.47-2.49,0,0-1.69,2.34-4.91,2.79,0,0,.9-.96.76-2.63,0,0-5.13,2.67-10.55-.23,0,0-5.68-3.23-3.72-10.98,0,0,1.47-5,2.32-3.5h0Z"/>
    <g>
      <g>
        <path class="cls-6" d="M59.66,54.53s7.78-3.83,12.89-4.49c0,0,7.71-1.4,13.51,1.21l.84.51.27,4.43s-3.53-1.26-5.46-1.33c0,0-12.83.24-18.77,3.84,0,0-2.93,1.5-3.1.78,0,0-.42-.42-.26-1.62l.07-3.32h.01Z"/>
        <path class="cls-15" d="M60.21,60.1c-.16,0-.3-.02-.41-.07-.16-.07-.27-.19-.34-.34-.16-.21-.45-.77-.31-1.87l.07-3.57.24-.12c.32-.16,7.9-3.86,13.02-4.53.45-.08,7.96-1.37,13.76,1.24l.05.02,1.04.63.33,5.33-.63-.23s-3.47-1.23-5.31-1.31c-.47.01-12.85.32-18.54,3.78l-.03.02c-.8.41-2.13,1.02-2.95,1.02h.01ZM60.23,59.23h0c.38,0,1.48-.4,2.5-.92,5.98-3.62,18.45-3.89,18.98-3.9h.03c1.49.06,3.84.77,4.96,1.14l-.22-3.53-.62-.37c-5.6-2.51-13.15-1.18-13.23-1.17h-.02c-4.48.59-11.16,3.69-12.51,4.34l-.07,3.1c-.12.92.15,1.26.15,1.26l.05.05Z"/>
      </g>
      <path class="cls-16" d="M60.46,54.87s6.34-4.2,17.05-4.72c0,0,5.68-.03,9.07,2.01l.02,2.98s-7.79-3.09-23.81,2.65c0,0-2.79-.76-2.32-2.93h-.01Z"/>
      <path class="cls-25" d="M72.36,50.7s6.38-1.97,14.21,1.46c0,0,.64,3.46-.86,2.45,0,0-1.01-.45-.83-1.78,0,0-4.92-2.75-13.02-1.26,0,0-1.9-.43.5-.87Z"/>
    </g>
    <g>
      <path class="cls-21" d="M63.74,60.54s-.76-1.91-4.41-1.29c0,0-2.69,3.3-.54,5.69,0,0,1.77,1.97,2.78,2.09,0,0,2.69-3.56,2.17-6.49Z"/>
      <path class="cls-15" d="M61.77,67.5l-.25-.03c-1.12-.14-2.74-1.89-3.06-2.24-1.9-2.11-.49-5.02.52-6.26l.11-.13.16-.03c3.95-.68,4.86,1.47,4.9,1.56l.02.09c.55,3.09-2.14,6.69-2.25,6.84,0,0-.15.2-.15.2ZM59.57,59.66c-.45.6-2.12,3.13-.45,4.98.61.67,1.63,1.62,2.27,1.88.56-.82,2.29-3.57,1.92-5.85-.12-.23-.91-1.44-3.74-1.01Z"/>
    </g>
    <path class="cls-14" d="M81.85,46s2.45,1.12,3.42,4.34c0,0-.63-.39-1.66-.71,0,0,.06-1.47-1.77-3.64h.01Z"/>
    <path class="cls-14" d="M72.54,49.03v-.05c-.02-1.36-1.32-2.45-2.9-2.43-1.59.02-2.86,1.14-2.84,2.5,0,.46.16.88.42,1.25,1.19-.43,3.16-1.05,5.33-1.27h0Z"/>
    <path class="cls-1" d="M68.87,65.08s-1.65-.52.39-3.75c0,0,.87-2.02-.29-4.27,0,0,10.86-3.28,17.29-.51,0,0-1.81,2.84-.58,4.24,0,0,1.07,1.35,1.34,2.68,0,0-.04.45-.48,1.23,0,0-1.85-.82-2.45-.92,0,0-6.56-.69-12.29,1.53l-.96.28s-1.17.13-1.97-.52h0Z"/>
    <path class="cls-25" d="M72.33,61.85s-.79-.08-1.02-.11c-.29-.04-.68-.19-.77-.6,0,0,.39-2.68,2.14-3.1,1-.23,2.81-.21,3.03,2.45v.17s.11,1.5-3.38,1.18h0Z"/>
    <g>
      <g>
        <path class="cls-24" d="M68.31,57s1.5-2.56,4.14-3.41c1.35-.43,1.89-.2,4.6,2.4.25.24.68.36,1.57.06.39-.13,1.26.38-.43,1.6,0,0-1.76.71-2.45-.18,0,0-2.84-2.41-4.97-.29,0,0-2.26,1.82-2.45-.18h0Z"/>
        <path class="cls-15" d="M69.1,58.38c-.16,0-.32-.03-.48-.09-.3-.13-.68-.45-.76-1.25v-.14l.06-.12c.06-.11,1.62-2.72,4.38-3.61,1.66-.53,2.43,0,5.05,2.51.17.17.55.15,1.12-.04.35-.12.86,0,1.07.42.2.39.17,1.04-1.1,1.96l-.04.03-.05.02c-.08.03-2.03.8-2.94-.28-.3-.24-2.62-2.01-4.34-.29l-.03.03c-.2.16-1.11.86-1.94.86h0ZM68.77,57.1c.03.15.08.32.2.37.31.13,1.06-.28,1.5-.62,1.91-1.88,4.47-.64,5.55.29l.06.06c.38.49,1.47.22,1.89.06.56-.41.72-.67.76-.78-.58.19-1.42.39-1.99-.16-2.74-2.62-3.1-2.64-4.16-2.3-2.12.68-3.48,2.58-3.81,3.08Z"/>
      </g>
      <path class="cls-10" d="M70.51,55.94s1.14-1.67,2.97-2.11c.93-.23,1.44.32,3.15,2.23.16.18,1.17.46,1.79.29.27-.07.09.81-1.28,1,0,0-.93.42-1.62-.72,0,0-2.03-1.59-4.04-.5,0,0-1.45,1.17-.98-.2h0Z"/>
      <path class="cls-4" d="M77.37,56.42s1.03-.46,1.27.19c0,0-.37,1.13-2.12.89,0,0-1.02-.39-.42-.66,0,0,.51.15,1.17.04,0,0,.51-.09.1-.46Z"/>
    </g>
    <path class="cls-15" d="M70.53,61.14c-.06-.39-.04-.79.02-1.19.07-.4.19-.8.42-1.18.11-.19.26-.36.44-.52.19-.16.36-.26.56-.36.38-.19.81-.33,1.26-.36.45-.03.92.06,1.33.26l.29.17c.09.06.17.13.26.2.04.04.08.06.14.12.05.05.08.09.12.14.07.09.13.19.18.29.42.79.41,1.66.18,2.41-.08-.39-.15-.76-.28-1.11-.12-.34-.29-.66-.49-.92-.05-.07-.11-.12-.16-.18-.03-.03-.06-.05-.08-.07,0,0-.06-.03-.09-.05-.07-.04-.14-.09-.21-.13l-.22-.1c-.29-.11-.6-.16-.92-.14s-.64.11-.96.24c-.15.06-.32.15-.44.22-.12.09-.25.18-.35.31-.22.25-.41.56-.57.89-.17.33-.3.69-.43,1.07h0Z"/>
    <path class="cls-25" d="M86.8,56.61s-1.44,1.99.13,4.42c0,0,1.4,1.03-.12,4.13l-.97-.09s1-2.67-.28-4.58c0,0-1.11-2.17.63-3.92l.6.04h0Z"/>
    <path class="cls-25" d="M82.21,59.91c0-.96,1.83-2.82,3.6-.91,0,0,1.27,1.53-.28,2.56,0,0-1.34.18-2.05.05,0,0-1.26-.04-1.27-1.7Z"/>
    <path class="cls-15" d="M81.48,61.09c-.07-.38-.06-.77,0-1.16.05-.39.15-.78.36-1.15.1-.19.23-.37.39-.53.18-.18.34-.28.53-.39.37-.2.78-.36,1.23-.39.45-.03.92.07,1.3.29.09.06.19.11.28.18.08.07.16.14.24.21.2.19.29.37.39.56.36.78.33,1.61.11,2.34-.14-.75-.34-1.46-.72-1.99-.05-.07-.1-.13-.15-.18-.05-.06-.1-.11-.14-.13-.07-.04-.13-.09-.2-.13-.07-.04-.14-.07-.2-.1-.27-.12-.56-.18-.86-.16-.3.01-.6.11-.9.24-.14.07-.3.15-.4.23-.06.04-.12.09-.17.15-.06.05-.11.11-.16.17-.21.25-.37.56-.52.89-.16.33-.28.68-.41,1.04h0Z"/>
    <g>
      <g>
        <path class="cls-2" d="M87.04,65.74s2.34.79-.6,2.28c0,0,1.91,1.02,2.1,2.42.08.62.23,1.83.95,2.07,0,0,2.32-.59.63.64,0,0-1.94,2.76-5.72,1.37,0,0-1.67-1.01-2.09-2.7l-.52-3.64-.39-.24-.54-.13-.34.17-.59.28s-1.7,4.49-2.55,5.19c-1.13.93-4.54,2.41-5.3,2.49-1.69.17-5.28.15-6.4-2.27,0,0-1.4-2.58.31-1.21,0,0,.57.73,1.8.6,0,0,.21-.52,1.18-2.24.3-.53.88-1,1.91-1.51.47-.23,1.33-.55,1.71-1.19,0,0-.5-.41-1.5-.31,0,0-.88-.14.94-1.28.93-.58,2.76-1.39,5.78-1.21l1.26.31s1.78,2.39,3.15.11c.09-.15.5-.26.5-.26,0,0,1.25-.86,3.79.1l.53.19v-.03Z"/>
        <path class="cls-15" d="M70.87,76.42c-1.79,0-4.56-.38-5.58-2.57-.91-1.68-.53-1.99-.37-2.12.44-.37,1.06.13,1.36.36l.04.03.03.04s.38.44,1.15.44h0c.15-.31.47-.93,1.09-2.03.36-.63,1.01-1.15,2.1-1.69.07-.03.14-.07.23-.11.29-.13.65-.3.94-.52-.18-.04-.42-.06-.71-.03h-.12c-.22-.04-.51-.2-.57-.52-.09-.46.3-.92,1.34-1.58,1.09-.68,3.02-1.45,6.04-1.28h.08l1.41.36.09.13c.2.26.85.95,1.45.91.34-.02.66-.28.96-.77.14-.23.45-.37.71-.44.33-.19,1.72-.81,4.12.09l.51.19c.13.05,1.12.41,1.18,1.22.04.52-.31,1.01-1.06,1.5.64.47,1.54,1.29,1.68,2.34v.04c.06.42.19,1.36.56,1.62,1.34-.31,1.52.07,1.6.24.23.49-.33.92-.7,1.19-.35.44-2.47,2.82-6.18,1.46l-.08-.04c-.08-.05-1.83-1.13-2.29-2.98v-.04l-.5-3.43-.15-.09-.31-.08-.63.3c-.4,1.05-1.78,4.51-2.62,5.2-1.2.99-4.68,2.5-5.54,2.59-.29.03-.73.06-1.26.06h0ZM65.81,72.88c.08.18.17.38.27.57v.03c1.08,2.32,4.84,2.13,5.96,2.01.65-.07,3.97-1.49,5.07-2.39.55-.46,1.78-3.31,2.42-5l.06-.17,1.23-.59.76.19.63.39.55,3.82c.34,1.35,1.63,2.24,1.85,2.39,3.25,1.16,4.99-1,5.14-1.21-.05,0-.1.02-.15.03l-.13.03-.12-.04c-.97-.32-1.15-1.67-1.25-2.39v-.04c-.13-.96-1.4-1.83-1.87-2.08l-.75-.4.76-.39c1-.51,1.24-.88,1.23-1.02,0-.15-.35-.36-.58-.45l-.53-.19c-2.26-.86-3.37-.16-3.38-.15l-.06.04-.08.02c-.09.02-.21.07-.26.1-.45.73-1.01,1.12-1.65,1.15-1,.05-1.82-.8-2.11-1.14l-1.07-.27c-2.77-.15-4.51.54-5.48,1.15-.3.19-.51.34-.65.45.79.05,1.21.38,1.26.42l.29.24-.2.33c-.4.67-1.18,1.03-1.69,1.26-.08.04-.15.07-.21.1-.91.45-1.46.87-1.72,1.33-.94,1.65-1.16,2.18-1.16,2.19l-.1.25-.26.03c-1.08.12-1.75-.34-2.04-.6h.02Z"/>
      </g>
      <path class="cls-3" d="M78.74,65.92s-2.88.02-4.63,1.1c0,0-1.31.21,1.35.76,0,0-3.51,1.46-5.37,4.7,0,0-1.51,1.72-3.9.93,0,0-.62.42,1.52,1.49,0,0,1.1.66,4.19.49,0,0,2.68-.63,4.8-2.27,0,0,.75-.43,2.74-4.87,0,0,2.53-1.83,3.53,2.26,0,0,.51,3.06,3.08,3.3,0,0,.85.16,2.57-.5,0,0,.14-.3-1.09-.81,0,0-.31-1.76-.7-2.74,0,0-.5-1.24-1.91-1.74,0,0,1.59-.69,1.96-1.33,0,0-.42-.52-2.71-.92,0,0-3.59-.04-5.45.15h.02Z"/>
      <path class="cls-25" d="M79.44,68.25s-.99,3-2.31,4.87c0,0-3.23,2.08-5.24,2.27,0,0-.66-.64.84-1.35,0,0,2.2-.69,3.63-2.18,0,0,1.52-1.5,2.13-3.35,0,0,.56-.89.94-.89,0,0,.27-.11,0,.63h0Z"/>
      <path class="cls-25" d="M82.45,65.92s1.16-1.28,4.32.14c0,0,1.46.55-.47,1.52l-.69.54s.89-.17,2.26,1.85c0,0,.13,2.77,1.38,2.79,0,0,1.27-.5,0,.52,0,0-1.66.65-2.38-.9,0,0-.31-3.42-2.17-4.56,0,0,2.43-.96,1.42-1.29,0,0-2.39-1.22-3.67-.62h0Z"/>
    </g>
    <g>
      <g>
        <path class="cls-21" d="M81.99,56.4s-1.31,1.92-.07,3.5c0,0,1.33,1.82,1.77,3.53,0,0,1.09,3.12-.89,4.03,0,0-1.78.57-3.51-.53,0,0-.82-.58-2.34,0,0,0-2.28-.09-1.47-2.11,0,0,1.08-1.91,3.2-1.62"/>
        <path class="cls-15" d="M81.99,56.4c-.28.58-.44,1.21-.42,1.82,0,.3.07.59.18.86.06.13.13.26.21.38.04.06.08.12.13.17l.07.09.08.1c.4.52.77,1.06,1.1,1.64.32.58.62,1.18.82,1.85v-.04c.13.41.23.78.29,1.19.06.4.09.82.05,1.25s-.15.88-.39,1.3c-.12.21-.28.4-.46.56-.19.16-.39.29-.61.39h-.03l-.03.02c-.18.05-.3.08-.45.1-.14.02-.28.04-.42.05-.28.02-.57.02-.85,0-.56-.05-1.12-.2-1.64-.43-.13-.06-.25-.13-.38-.2-.06-.03-.13-.08-.19-.12l-.05-.03h0s-.03-.02-.05-.03c-.15-.08-.35-.13-.55-.15-.41-.05-.85.03-1.29.17l-.11.04h-.07c-.18-.02-.31-.05-.46-.09-.15-.04-.29-.08-.44-.15-.29-.12-.58-.31-.79-.59-.22-.28-.31-.66-.28-.98.02-.33.12-.61.24-.87l.02-.03h0c.21-.31.43-.55.7-.77.26-.22.55-.4.85-.54.31-.14.63-.22.96-.25.33-.03.65,0,.96.08-.32,0-.63.03-.93.11s-.57.21-.83.37c-.25.16-.48.36-.68.58-.19.22-.38.47-.5.71l.02-.04c-.08.23-.12.45-.11.66,0,.2.08.36.19.49.11.13.29.23.49.3.1.03.21.06.32.08.1.02.23.03.32.03l-.18.03c.51-.22,1.08-.36,1.68-.33.3.02.61.07.92.21l.12.06.07.04.03.02s.09.05.14.08c.1.05.2.1.3.14.41.18.84.28,1.29.31.22.02.45,0,.67,0,.11,0,.22-.02.33-.04.1-.02.23-.04.29-.06l-.06.02c.12-.06.24-.13.34-.22s.18-.19.25-.3c.14-.23.23-.52.27-.84s.03-.66,0-1c-.04-.34-.11-.7-.2-1.01v-.04c-.15-.57-.36-1.16-.62-1.72-.27-.56-.56-1.12-.88-1.66l-.06-.09-.07-.11c-.05-.07-.09-.15-.13-.23-.08-.16-.14-.33-.19-.5-.09-.34-.11-.7-.07-1.04.09-.68.38-1.29.78-1.8Z"/>
      </g>
      <path class="cls-1" d="M80.81,58.19s-.57,1.35.81,3.9c0,0,1,1.95-.31,3.71,0,0-.25-.24-1.7-.64,0,0-1.72-.73-2.8.24,0,0-.98.73-1.05-.35,0,0,.41-1.44,1.81-1.51l1.06-.47s.89-2.94,2.18-4.88Z"/>
      <path class="cls-4" d="M81.29,57.41s-.63.85.75,3.19c0,0,2.06,2.4,1.16,5.35,0,0-.9.25-1.89-.38,0,0,1.62-1.24-.12-4.4,0,0-1.06-2.16.11-3.77h-.01Z"/>
    </g>
    <g>
      <path class="cls-15" d="M75.06,60c.19.73-.22,1.47-.91,1.65s-1.39-.27-1.58-1c-.19-.73.22-1.47.91-1.65s1.39.27,1.58,1Z"/>
      <path class="cls-25" d="M72.53,60.84c-.07-.27.08-.55.33-.61.25-.07.51.1.58.38.07.27-.08.55-.33.61-.25.07-.51-.1-.58-.38Z"/>
    </g>
    <g>
      <path class="cls-15" d="M85.9,59.84c.17.66-.2,1.33-.82,1.5-.62.16-1.27-.24-1.43-.9-.17-.66.2-1.33.82-1.49s1.27.24,1.43.9h0Z"/>
      <path class="cls-25" d="M83.6,60.6c-.06-.25.07-.5.3-.56s.46.09.53.34c.06.25-.07.5-.3.56s-.46-.09-.53-.34Z"/>
    </g>
    <path class="cls-1" d="M63.36,60.77s-.91-1.27-2.63-.73c0,0-2.44,2.64,1.34,5.43,0,0,1.7-2.62,1.29-4.7Z"/>
    <g>
      <path class="cls-15" d="M59.94,61.58c.26-.27.61-.45,1.01-.52.2-.03.4-.03.61,0,.1,0,.2.05.3.07.05.02.1.03.15.05l.14.06c.19.08.36.18.54.28.17.11.31.25.42.41.1.17.19.34.25.53.05.19.08.39.07.6l-.08.05c-.21-.08-.36-.18-.51-.29-.15-.1-.28-.2-.4-.31-.26-.18-.39-.49-.64-.66-.24-.18-.51-.32-.82-.36-.31-.05-.65,0-.97.14l-.06-.07v.02Z"/>
      <path class="cls-15" d="M62.4,62.07c-.15.03-.34.1-.5.17-.17.08-.33.18-.46.3-.13.12-.25.27-.31.45-.07.18-.07.38-.05.59-.09-.18-.18-.4-.17-.63,0-.23.07-.46.18-.68.11-.21.26-.4.42-.57.17-.17.33-.32.56-.46l.35.82h-.02Z"/>
    </g>
    <g>
      <g>
        <path class="cls-23" d="M80.98,85s-.34-2.32,2.5-2.63l1.24,1.49s-2.7.8-2.5,2.64l-1.24-1.49h0Z"/>
        <path class="cls-15" d="M82.83,87.92l-2.27-2.73-.02-.12s-.15-1.09.54-1.99c.5-.65,1.29-1.03,2.35-1.15l.24-.03,1.82,2.19-.65.19s-2.34.72-2.18,2.16l.16,1.47h.01ZM81.41,84.83l.52.63c.39-.93,1.39-1.5,2.04-1.79l-.68-.82c-.69.11-1.2.37-1.51.78-.35.45-.38.98-.37,1.2Z"/>
      </g>
      <g>
        <path class="cls-24" d="M84.78,84.02s1.88,1.18,5.03.36c0,0-.72,4.83-3.52,7.03,0,0-3.35-1.96-3.91-5.07,0,0,.11-1.36,1.91-2.05l.48-.27h.01Z"/>
        <path class="cls-15" d="M86.33,91.95l-.26-.15c-.14-.08-3.53-2.1-4.12-5.38v-.12c0-.07.15-1.63,2.17-2.42l.68-.39.22.14s1.79,1.06,4.68.31l.65-.17-.1.66c-.03.2-.78,5.03-3.68,7.32l-.24.19h0ZM82.84,86.33c.46,2.35,2.66,4.02,3.42,4.53,1.87-1.65,2.7-4.6,2.99-5.9-2.31.43-3.88-.16-4.46-.44l-.33.18c-1.33.51-1.58,1.4-1.62,1.62h0Z"/>
      </g>
      <g>
        <path class="cls-3" d="M86.32,91.49s1.59,1.35,2.11-.83c0,0,.15-.61,1.36-1.07l.29-1.35s1.68.54.68-1.95c0,0,.74-1.23-.64-2.07,0,0-1.93-.29-1.92,1.95l-.66,1.04s1.05,1.51-1.08,1.82c0,0-.92.07-.14,2.47h0Z"/>
        <path class="cls-15" d="M87.33,92.35c-.66,0-1.22-.46-1.29-.52l-.1-.08-.04-.12c-.41-1.27-.44-2.14-.09-2.65.18-.26.43-.38.61-.4.5-.07.83-.23.92-.43.1-.24-.09-.61-.15-.69l-.17-.24.75-1.18c.02-.78.26-1.38.72-1.78.71-.62,1.66-.48,1.7-.47h.09l.08.06c1.27.77,1.13,1.9.9,2.47.37,1,.37,1.69-.02,2.1-.24.25-.55.32-.8.32l-.26,1.18-.22.09c-.87.33-1.07.72-1.09.77v-.02.02h0c-.2.82-.57,1.32-1.11,1.5-.14.05-.28.07-.42.07h-.01ZM86.7,91.22c.18.12.52.3.77.22.22-.07.41-.39.53-.88.03-.14.25-.78,1.41-1.29l.35-1.6.47.15c.12.04.32.04.36,0,0,0,.21-.25-.23-1.35l-.08-.21.11-.19c.08-.14.43-.84-.41-1.41-.18,0-.6,0-.91.28-.28.24-.42.66-.41,1.23v.13l-.59.92c.14.3.3.79.08,1.28-.22.51-.75.83-1.59.95-.04.05-.27.4.15,1.77h-.01Z"/>
      </g>
      <path class="cls-12" d="M83.24,82.46s-1.1.24-1.54.98c0,0,.32,1.27,2.32-.04l-.79-.94h.01Z"/>
      <path class="cls-3" d="M83.68,85.26s.47,1.34,1.42,2.36c0,0,1.08.34.55-.51,0,0,.43.41,1.21.37,0,0,.18-.74.93-1.46,0,0-.31-.14.15-.8,0,0-2.23-.11-2.97-.73,0,0-.66-.2-1.28.77h0Z"/>
    </g>
    <g>
      <g>
        <path class="cls-24" d="M83.72,55.58s-.52.5-1.07.46c-.24-.02-.46-.44-.94-.19,0,0-.68,1.6,1.33,1.72,0,0,1.07-.07,1.44-.52,0,0,.62-.77,2.01-.58,0,0,1.89.63,1.51-.84,0,0-.53-2.64-2.84-1.33,0,0-.81.77-1.44,1.28Z"/>
        <path class="cls-15" d="M83.04,58.01h-.03c-.8-.05-1.35-.31-1.65-.79-.42-.68-.1-1.46-.07-1.55l.06-.15.14-.07c.55-.29.96-.02,1.15.1.02.02.04.03.07.04h0c.27,0,.6-.25.69-.34l.03-.02c.61-.5,1.41-1.26,1.42-1.26l.04-.04.05-.03c.81-.46,1.53-.55,2.16-.26,1,.46,1.3,1.72,1.33,1.87.17.66-.04,1.03-.24,1.22-.53.5-1.51.25-1.79.16-1.07-.13-1.55.41-1.57.43-.47.57-1.55.66-1.76.68h-.03ZM82.06,56.23c-.03.15-.04.36.06.53.16.26.58.34.91.36.36-.03.94-.16,1.11-.36.03-.03.8-.95,2.41-.74l.08.02c.37.12.85.15.95.05.02-.02.05-.11,0-.36v-.03c-.06-.27-.32-1.02-.84-1.26-.34-.15-.78-.08-1.3.2-.17.16-.85.8-1.41,1.26-.12.11-.7.62-1.4.57-.19-.02-.33-.11-.45-.18-.05-.03-.08-.05-.11-.07h0Z"/>
      </g>
      <path class="cls-10" d="M84.87,55.11s-.64.58-1.27,1.18c0,0-.64.32.51.5,0,0,1.12-.26,1.36-.57,0,0,.35-.26,1.14-.06,0,0,.88.28.74-.81,0,0-.53-1.35-1.58-.85,0,0-.37,0-.9.62h0Z"/>
      <path class="cls-4" d="M86.76,54.39s.88-.02.87,1.59c0,0-.45.61-.97.03,0,0,.55-1.64-1.24-1.37,0,0,1.16-.55,1.34-.25Z"/>
    </g>
    <g>
      <g>
        <path class="cls-6" d="M66.43,44.73s-4.27.42-9.41-5.49c0,0-.72-.94-1.38-.86-.66.07-1.25,1.16-1.01,3.86,0,0,.99,7.19,7.47,10.15,0,0,4.15.75,5.77-3.13,0,0,1.51-2.78-1.44-4.53Z"/>
        <path class="cls-15" d="M62.89,52.89c-.52,0-.86-.06-.87-.06h-.05l-.05-.03c-6.63-3.02-7.69-10.19-7.73-10.49-.34-3.76.86-4.31,1.4-4.37.85-.1,1.61.81,1.77,1.02,4.9,5.62,8.99,5.33,9.03,5.33h.14l.13.06c3.12,1.86,1.78,4.79,1.62,5.1-1.27,3.03-3.99,3.44-5.38,3.44h0ZM62.23,51.96c.48.07,3.85.45,5.23-2.87l.02-.04c.05-.1,1.23-2.36-1.17-3.87-.85.02-4.89-.2-9.63-5.65l-.02-.02c-.24-.31-.71-.72-.98-.69-.24.03-.86.7-.61,3.38,0,.05,1.03,6.93,7.16,9.76Z"/>
      </g>
      <path class="cls-16" d="M56.22,39.14s3.83,5.58,10.56,6.45c0,0,1.98,2.4-.38,5.04,0,0-2.03-1.25-3.73.15,0,0-3.88-1.3-4.66-4.48,0,0,1.07-1.21-1.21-2.09,0,0-1.03-1.83-1.22-3.53,0,0-.09-2.47.65-1.54h-.01Z"/>
      <path class="cls-25" d="M66.77,45.59s1.25.89.62,3.45c0,0-10.04-1.93-11.5-9.57,0,0-.04-1.01,1.02.54,0,0,4.12,5.03,9.86,5.58Z"/>
    </g>
  </g>
  <g>
    <g>
      <path class="cls-6" d="M69.66,90.72c0,8.61-6.19,15.59-13.83,15.59s-13.83-6.98-13.83-15.59,6.19-15.59,13.83-15.59,13.83,6.98,13.83,15.59Z"/>
      <path class="cls-15" d="M55.84,106.75c-7.87,0-14.27-7.19-14.27-16.03s6.4-16.03,14.27-16.03,14.27,7.19,14.27,16.03-6.4,16.03-14.27,16.03ZM55.84,75.57c-7.38,0-13.38,6.79-13.38,15.14s6,15.14,13.38,15.14,13.38-6.79,13.38-15.14-6-15.14-13.38-15.14Z"/>
    </g>
    <path class="cls-16" d="M68.89,90.65c0,7.89-5.74,14.28-12.84,14.28s-12.85-6.39-12.85-14.28,5.74-14.28,12.84-14.28,12.85,6.39,12.85,14.27h0Z"/>
    <g>
      <path class="cls-6" d="M65.56,90.55c0,6.68-4.63,12.1-10.35,12.1s-10.35-5.42-10.35-12.1,4.63-12.1,10.35-12.1,10.35,5.42,10.35,12.1Z"/>
      <path class="cls-15" d="M55.21,103.09c-5.95,0-10.79-5.63-10.79-12.54s4.84-12.54,10.79-12.54,10.79,5.63,10.79,12.54-4.84,12.54-10.79,12.54ZM55.21,78.89c-5.46,0-9.91,5.23-9.91,11.66s4.44,11.66,9.91,11.66,9.91-5.23,9.91-11.66-4.44-11.66-9.91-11.66Z"/>
    </g>
    <g>
      <path class="cls-23" d="M65.3,90.34c0,6.32-4.28,11.45-9.57,11.45s-9.57-5.13-9.57-11.45,4.28-11.45,9.57-11.45,9.57,5.13,9.57,11.45Z"/>
      <path class="cls-15" d="M55.73,102.12c-5.46,0-9.9-5.29-9.9-11.78s4.44-11.78,9.9-11.78,9.9,5.29,9.9,11.78-4.44,11.78-9.9,11.78ZM55.73,79.22c-5.09,0-9.24,4.99-9.24,11.12s4.14,11.12,9.24,11.12,9.24-4.99,9.24-11.12-4.14-11.12-9.24-11.12Z"/>
    </g>
    <path class="cls-14" d="M50.83,81.26s-4.08,8.35-1.45,17.02c0,0-4.34-3.46-2.03-11.82,0,0,1.55-4.55,3.48-5.2Z"/>
    <path class="cls-14" d="M54.17,79.26s-3.33,10.95,0,22.09c0,0,2.79.63,5.78-1.73,0,0-2.63-7.66-1.81-19.58,0,0-.85-.82-3.98-.78h0Z"/>
    <path class="cls-14" d="M61.74,82.32s0,6.34,1.86,13.37c0,0,3.27-7.4-1.86-13.37Z"/>
    <g>
      <g>
        <path class="cls-6" d="M49.97,90.16c-.05,2.8,1.71,5.14,3.92,5.21,2.21.08,4.04-2.14,4.08-4.94.04-2.8-1.71-5.14-3.92-5.21-2.21-.08-4.04,2.14-4.08,4.94Z"/>
        <path class="cls-15" d="M54,95.82h-.12c-2.45-.08-4.4-2.63-4.35-5.67.03-1.68.66-3.23,1.73-4.25.8-.76,1.8-1.16,2.82-1.13,2.45.08,4.4,2.63,4.35,5.67-.03,1.68-.66,3.23-1.73,4.25-.77.73-1.72,1.13-2.69,1.13h0ZM53.95,85.66c-.75,0-1.47.3-2.08.88-.9.86-1.43,2.17-1.45,3.62h0c-.04,2.56,1.53,4.7,3.49,4.76.78.03,1.54-.28,2.17-.88.9-.86,1.43-2.18,1.45-3.62.04-2.56-1.53-4.7-3.49-4.76h-.1,0Z"/>
      </g>
      <path class="cls-16" d="M50.5,90.26c-.04,2.38,1.35,4.35,3.1,4.41s3.2-1.82,3.24-4.2c.04-2.38-1.35-4.35-3.1-4.41s-3.2,1.82-3.24,4.2Z"/>
      <g>
        <g>
          <path class="cls-6" d="M50.9,89.76c-.2,1.81.74,3.52,2.09,3.82,1.36.31,2.62-.91,2.82-2.72.2-1.81-.74-3.52-2.09-3.82-1.36-.31-2.62.91-2.82,2.72Z"/>
          <path class="cls-15" d="M53.41,93.97c-.16,0-.33-.02-.49-.05-1.51-.34-2.57-2.22-2.35-4.19.12-1.12.63-2.07,1.39-2.62.55-.39,1.2-.53,1.83-.39,1.51.34,2.57,2.22,2.35,4.19-.12,1.12-.63,2.07-1.39,2.62-.41.29-.87.44-1.34.44ZM53.3,87.33c-.33,0-.66.11-.95.32-.6.42-1.01,1.23-1.11,2.15-.18,1.64.64,3.19,1.84,3.46.45.1.9,0,1.3-.28.6-.42,1.01-1.23,1.11-2.15.18-1.64-.64-3.19-1.84-3.46-.12-.03-.23-.04-.35-.04Z"/>
        </g>
        <path class="cls-16" d="M51.22,90.01c-.06,1.56.71,2.9,1.71,2.98,1.01.08,1.87-1.13,1.93-2.69.06-1.56-.71-2.9-1.71-2.98-1.01-.08-1.87,1.13-1.93,2.69Z"/>
        <path class="cls-25" d="M51.22,90.04c-.02,1.18.51,2.16,1.19,2.18s1.24-.92,1.26-2.1-.51-2.16-1.19-2.18-1.24.92-1.26,2.1Z"/>
      </g>
    </g>
    <path class="cls-25" d="M62.94,78.22s6.48,2.81,6.01,14.96c0,0-1.11,10.56-11.69,12.4,0,0,10.95-3.37,10.58-15.59,0,0,.27-6.11-4.9-11.77Z"/>
  </g>
</svg>