<?xml version="1.0" encoding="UTF-8"?>
<svg id="Layer_1" data-name="Layer 1" xmlns="http://www.w3.org/2000/svg" version="1.1" viewBox="0 0 500 500">
  <defs>
    <style>
      .cls-1 {
        fill: #e88b62;
      }

      .cls-1, .cls-2, .cls-3, .cls-4, .cls-5, .cls-6, .cls-7, .cls-8, .cls-9, .cls-10, .cls-11, .cls-12, .cls-13, .cls-14, .cls-15, .cls-16, .cls-17, .cls-18, .cls-19, .cls-20, .cls-21, .cls-22, .cls-23, .cls-24, .cls-25, .cls-26, .cls-27 {
        stroke-width: 0px;
      }

      .cls-2 {
        fill: #f7d581;
      }

      .cls-3 {
        fill: #f3e0d8;
      }

      .cls-4 {
        fill: #fccaa7;
      }

      .cls-5 {
        fill: #f4956e;
      }

      .cls-6 {
        fill: #382823;
      }

      .cls-7 {
        fill: #fbe6a9;
      }

      .cls-8 {
        fill: #ba684e;
      }

      .cls-9 {
        fill: #1a2418;
      }

      .cls-10 {
        fill: #1b1312;
      }

      .cls-11 {
        fill: #c7715d;
      }

      .cls-12 {
        fill: #96414c;
      }

      .cls-13 {
        fill: #ccc7ca;
      }

      .cls-28 {
        opacity: .64;
      }

      .cls-29 {
        opacity: .85;
      }

      .cls-30 {
        opacity: .78;
      }

      .cls-14 {
        fill: #2b1e1a;
      }

      .cls-15 {
        fill: #fce4a9;
      }

      .cls-16 {
        fill: #9584ab;
      }

      .cls-17 {
        fill: #0f2824;
      }

      .cls-18 {
        fill: #644b46;
      }

      .cls-19 {
        fill: #54a047;
      }

      .cls-20 {
        fill: #eaa498;
      }

      .cls-21 {
        fill: #683a57;
      }

      .cls-22 {
        fill: #ee333e;
      }

      .cls-23 {
        fill: #fff;
      }

      .cls-24 {
        fill: #2d5c2d;
      }

      .cls-25 {
        fill: #cd1e54;
      }

      .cls-26 {
        fill: #695a64;
      }

      .cls-27 {
        fill: #f1749b;
      }
    </style>
  </defs>
  <path class="cls-2" d="M251.61,616.55c-1.37,0-2.73-.19-4.05-.56l-57.71-16c-8.03-2.23-12.75-10.57-10.53-18.6l.52-1.88c.29-1.06.71-2.09,1.24-3.06-.17-3.47.53-6.7,1.43-9.33l-.68-.46,6.24-11.63c4.65-10.65,7.89-20.71,7.93-20.81l1.4-4.61c-2.67-.08-4.3-.22-4.54-.24l-9.62-.84-.16-2.79c-.27.65-.56,1.3-.86,1.95-.53,1.54-1.15,3.1-1.84,4.64l-1.53,4.29-.86,1.23c-.65.94-1.39,1.89-2.19,2.84-6.59,10.01-14.75,15.83-23.16,16.54l-7.1.98-10-.53-35.85-4.95v.06s-3.72,5.75-3.72,5.75c-1.22,2.13-2.51,4.13-3.84,5.93l-12.1,18.69-2.56-6.81c-.45.16-.91.3-1.36.43-2.2,1.88-4.91,3.12-7.8,3.51l-1.93.26c-.67.09-1.34.13-2.01.13-7.54,0-13.98-5.64-14.98-13.11l-7.94-59.38c-.54-4,.52-7.97,2.97-11.18,2.45-3.21,6.01-5.27,10.01-5.81l1.92-.26c.65-.09,1.31-.13,1.96-.13.45,0,.9.02,1.35.06.84-.41,1.69-.75,2.53-1.04l2.07-11.68c-20,17.05-44.69,26.76-69.59,26.76-7.07,0-14.16-.77-21.08-2.29-58.7-12.86-94.8-76.53-80.48-141.93,12.15-55.48,57.5-96.03,108.48-97.5-.57-1.58-.87-2.68-.99-3.13l-4.44-17.72,17.33,3.99c-.78-1.34-1.25-2.31-1.42-2.68-5.08-10.6-2.03-16.63,1.43-19.82,2.42-2.23,5.53-3.41,9-3.41,3.96,0,7.67,1.56,10.22,2.96,3.47,1.47,7.04,2.21,10.63,2.21,5.93,0,10.44-2,12.18-2.91,1.04-1.04,1.69-1.7,2.13-2.19-2.76-13.25,2.41-27.34,8.33-36.34-.12-1.52-.15-3.1-.08-4.73l-1.56-29.69,2.14-1.26c-.26-2.76-.41-6.1-.23-9.85-34.12-23.81-42.74-62.81-43.11-64.52l-.07-.36c-5.32-32.17,6.53-39.32,14.07-40.72.96-.18,1.95-.27,2.94-.27,8.21,0,14.76,6.08,17.35,8.9,28.76,28.47,51.22,30.69,57.43,30.69.45,0,.82-.01,1.12-.03,5.92-2.89,12.03-5.41,18.22-7.49l4.19-7.66,46.05-6.77,13.37,4.65c5.19,1.9,9.9,4.26,14.11,7.05,1.19.33,2.37.68,3.53,1.05,6.79-1.62,34.46-10.07,42.77-41.47l1.23-4.65,4.21-2.3c2.08-1.13,4.61-1.75,7.14-1.75,3.09,0,6.09.92,8.68,2.66,9.84,6.6,12.53,23.07,9.01,55.06l-.03.23c-.37,2.64-3.67,23.87-16.59,41.58l5.07,2.57,2.42,17.94c4.85,4.7,6.97,10.62,7.62,12.77.39,1.17.66,2.34.84,3.48,5.02,1.14,11.59,4.68,15.45,14.87l.27.79.05.19c.25.9,5.06,19.03-3.87,37.19,1.63-.01,3.32-.2,5.03-.57,1.83-.54,4.5-1.13,7.42-1.13,6.36,0,10.04,2.78,12.01,5.1,1.81,2.15,4.15,6.27,2.84,12.43.26-.01.52-.02.78-.02,5.34,0,8.64,2.34,10.47,4.29,4.85,5.21,4.75,12.27-.31,21l-.3.49c-1.05,1.62-9.6,14.43-22.01,23.35-.14,3.94-2.46,7.94-6.96,11.94-2.27,3.07-7.95,9.67-17.32,13.97-1.48,4.05-3.16,7.94-5,11.63,3.36,2.98,7.49,6.48,9.52,7.5,2.82-.05,5.91-.12,9.21-.21l.2-.4,37.56-3.96c.86-1.02,1.77-1.98,2.73-2.9-4.62-4.99-7.37-10.18-8.18-15.52-1.19-7.81,2.13-14.27,5.34-17.42l5.33-5.25,6.88,2.94s3.47,1.47,9.3,3.67c8-48.33,33.22-167.4,93.38-219.01l12.03-10.32,5.67,14.81c.86,2.25,8.31,23.17,5.13,64.4-2.66,34.59-13.87,91.45-51.6,168.6,2.16.39,4.27.74,6.33,1.05l4.34.66,2.73,3.44c.97,1.22,5.68,7.73,3.88,16.41-.92,4.45-3.33,8.39-7.15,11.72-1.34,1.41-2.94,2.62-4.77,3.61l-.9.49-.36.09c-1.99,1.23-5.41,2.87-10.31,3.75,0,2.87-.43,5.6-1.3,8.12-.97,2.81-2.43,5.29-4.36,7.44.58,3.62.37,7.25-.66,10.6-1.29,4.19-3.72,7.83-7.24,10.86-.74,4.94-3.3,13.6-12.02,20.04,1.93,11.01-2.11,18.5-2.67,19.48l-2.51,4.36-27.35,5.54-2.99-9.65c-2.31-7.48-9.87-8.59-14.18-8.59-.33,0-.56.01-.66.02l-4.91.43-3.65-3.46c-4.23-4.01-5.86-9.1-6.32-13.69-3.95.15-7.44.24-10.44.27-1.08,1.14-2.33,2.09-3.72,2.84l-1.12,7.82-5.48,2.55c-1.7.79-2.65,1.49-3.13,1.9-2.11,9.67-7.4,13.75-11.58,15.47-2.11.87-4.37,1.31-6.72,1.31-2.63,0-5.05-.56-7.11-1.29.21.36.41.73.62,1.11l.99,1.85.24,2.1c2.36,20.4,1.23,33.96-3.37,40.33l3.95,31.81-5.55,3.85c-.26.18-1.03.7-2.31,1.48,2.69,6.6,3.29,12.91,1.72,18.39l.06.06-2.34,7.92-4.26,8.67-.3.5c-.2.35-.41.7-.62,1.04l-17.71,29.48.06.02,3.83,5.68c1.48,1.96,2.81,3.93,3.95,5.86l12.43,18.46-7.27-.32c-.03.47-.08.95-.14,1.42.87,2.76.94,5.75.16,8.56l-.52,1.87c-1.08,3.88-3.6,7.12-7.13,9.11-2.28,1.29-4.85,1.97-7.44,1.97ZM83.06,301.74c.59-.02,1.17-.03,1.76-.04-.09-.23-.18-.46-.27-.69-.61.11-1.22.21-1.83.31.11.14.22.28.33.42Z"/>
  <g>
    <g>
      <g>
        <path class="cls-20" d="M244.45,571.27l-4.41-6.34,22.52-37.51,3.68-7.52c.09-.33-.44.16-.36-.16l1.83-5.48c3.83-8.94-6.45-24.15-15.48-30.5-12.05-8.46-25.03-2.76-33.75,14.91h0s.07-2.14,0,0l-11.85,38.93s-4.97,15.56-11.78,29.32c0,0-6.98,10.99,1.81,15.88,0,0,42.35,13.12,44.95,13.84,0,0,8.66,2.59,11.97,1.17,0,0,8.33-7.14-9.12-26.55Z"/>
        <path class="cls-21" d="M250.75,601.38c-3.9,0-8.39-1.23-10.04-1.72-2.55-.71-43.24-13.31-44.98-13.85l-.6-.26c-2.96-1.64-4.92-4.1-5.69-7.11-1.48-5.83,1.91-11.83,2.65-13.04,6.59-13.36,11.48-28.6,11.53-28.75l11.72-38.49.02-.54,1.04.03-.75-.37c5.42-10.97,12.51-17.85,20.51-19.89,5.98-1.52,12.15-.21,17.86,3.81,10,7.02,21.1,23.38,16.62,34.18l-1.08,3.23.22.2-.73,2.48-3.81,7.75-21.47,35.76,3.13,4.51c8.23,9.19,12.18,17.19,11.75,23.76-.3,4.55-2.6,6.74-3.05,7.13l-.37.31-.44.19c-1.13.48-2.55.67-4.06.67ZM197.92,579.91c14.72,4.56,42.51,13.15,44.52,13.71,3.54,1.06,7.59,1.66,9.32,1.45.83-1.5,2.87-7.75-9.65-21.7l-.24-.31-5.57-8.01,23.5-39.13,2.73-5.57.38-1.6,1.92-5.72c2.89-6.74-5.65-20.54-14.4-26.68-4.22-2.97-8.5-3.93-12.7-2.86-6.03,1.54-11.82,7.35-16.32,16.36l-11.78,38.68c-.22.69-5.13,15.99-11.96,29.8l-.16.29c-.8,1.28-2.73,5.29-1.96,8.29.32,1.26,1.08,2.21,2.38,3Z"/>
      </g>
      <path class="cls-4" d="M254.28,589.14s-7.25-17.93-16.11-20.08c0,0-18.34-9-29.68,5.89,0,0-5.5,6.93,37.83,16.81,0,0,9.54,1.87,7.97-2.61Z"/>
      <g>
        <path class="cls-12" d="M249.41,605.73l-55.85-15.49c-3.02-.84-4.81-4-3.97-7.02h0c.84-3.02,4-4.81,7.02-3.97l55.85,15.49c3.02.84,4.81,4,3.97,7.02h0c-.84,3.02-4,4.81-7.02,3.97Z"/>
        <path class="cls-21" d="M251.61,608.52c-.63,0-1.27-.09-1.9-.26l-57.73-16.01c-3.77-1.05-5.98-4.96-4.94-8.73l.52-1.87c1.04-3.77,4.96-5.98,8.73-4.94l57.73,16.01c3.77,1.04,5.98,4.96,4.94,8.73l-.52,1.87c-.5,1.82-1.69,3.34-3.34,4.27-1.08.61-2.28.93-3.49.93ZM194.41,581.17c-1.04,0-2,.69-2.29,1.74l-.52,1.87c-.35,1.26.39,2.57,1.66,2.92l57.73,16.01c.61.17,1.24.09,1.8-.23.56-.31.95-.82,1.12-1.43l.52-1.87c.35-1.26-.39-2.57-1.66-2.92l-57.72-16.01c-.21-.06-.43-.09-.63-.09Z"/>
      </g>
      <g>
        <g>
          <path class="cls-11" d="M199.98,554.76s16.95,8.57,17.35,29.7l-12.29-4.07s4.82-7.29-9.64-17.08l4.58-8.54Z"/>
          <path class="cls-21" d="M219.74,587.74l-18.37-6.08,1.7-2.57c.1-.18,3.1-5.64-8.99-13.83l-1.76-1.19,6.67-12.44,2.05,1.04c.74.38,18.22,9.46,18.64,31.75l.06,3.33ZM208.01,578.89l6.73,2.23c-1.5-13.11-9.97-20.36-13.87-23.04l-2.41,4.5c9.37,6.94,10.15,12.96,9.55,16.31Z"/>
        </g>
        <g>
          <path class="cls-11" d="M247.23,572.84s-13.72-4.02-26.61,12.7l12.29,4.07s3.51-7.73,20.94-6.96l-6.61-9.82Z"/>
          <path class="cls-21" d="M234.11,592.44l-1.94-.58-15.44-5.11,2.03-2.63c13.71-17.8,28.52-13.71,29.14-13.53l.82.24,9.7,14.4-4.67-.21c-15.29-.68-18.67,5.56-18.71,5.63l-.92,1.8ZM224.64,584.4l7.36,2.44c2.02-2.32,6.89-6.1,17.4-6.54l-3.6-5.35c-2.68-.45-11.78-.99-21.17,9.45Z"/>
        </g>
      </g>
      <g>
        <path class="cls-20" d="M254.28,536.64l-2.6-1.76c-13.35,8.33-31.1,4.22-39.43-9.13l-7.44-11.92c-8.33-13.35-4.22-31.09,9.13-39.42h0c13.35-8.33,29.7-1.91,42.45,13.08l4.87,4.49c8.33,13.35,6.36,36.34-6.99,44.67Z"/>
        <path class="cls-21" d="M236.65,542.34c-2.42,0-4.86-.28-7.27-.84-8.29-1.92-15.31-6.93-19.79-14.1l-7.44-11.92c-9.27-14.86-4.72-34.49,10.14-43.75,14.01-8.74,31.77-3.54,46.38,13.56l5.04,4.65.22.36c8.95,14.35,7.38,39.41-7.99,49l-1.73,1.08-2.66-1.8c-4.62,2.48-9.72,3.76-14.9,3.76ZM226.67,473.9c-3.9,0-7.64,1.04-11.05,3.17-11.92,7.43-15.56,23.18-8.13,35.09l7.44,11.92c3.58,5.75,9.22,9.76,15.87,11.3,6.65,1.54,13.48.41,19.22-3.17l1.73-1.08,2.5,1.69c10.24-8.18,11.24-27.71,4.57-38.84l-4.81-4.47c-8.67-10.2-18.43-15.61-27.34-15.61Z"/>
      </g>
      <path class="cls-20" d="M224.59,541.13l-.7,6.69q-15.07,3.56-9.4-30.17l4.39-14.5c4.66-9.77,17.2-13.61,27.87-8.52h0c10.67,5.08,22.12,12.6,17.47,22.37l-9.61,18.22c-4.66,9.77-19.34,11-30.01,5.92Z"/>
      <path class="cls-4" d="M255.62,527.2h0c-7.57,3.74-16.83.6-20.57-6.97l-8.46-17.14c-3.74-7.57-.6-16.83,6.97-20.57h0c7.57-3.74,18.24,2.62,21.98,10.19l7.85,10.5c3.74,7.57-.2,20.25-7.78,23.99Z"/>
      <path class="cls-4" d="M230.59,531.43l-9.24,28.11s8.18.46,15.21,4.2l24.6-40.27s-19.74-11.01-30.57,7.96Z"/>
    </g>
    <g>
      <g>
        <path class="cls-20" d="M89.29,547.12l4.1-6.54,43.34,5.99,8.36.43c.34-.04-.32-.34,0-.39l5.75-.47c9.73.01,19.68-15.42,21.97-26.21,3.05-14.4-7.29-24.1-26.96-25.19h0s2-.78,0,0l-40.46,4.38s-16.26,1.54-31.59.68c0,0-12.85-2.11-13.89,7.9,0,0,4.56,44.1,4.92,46.77,0,0,1.02,8.98,3.62,11.47,0,0,9.83,4.86,20.84-18.81Z"/>
        <path class="cls-21" d="M70.73,569.49c-2.02,0-3.33-.57-3.67-.74l-.43-.21-.35-.33c-3.18-3.04-4.3-11.01-4.57-13.38-.35-2.63-4.74-45-4.92-46.8l-.03-.33.03-.32c.35-3.36,1.84-6.14,4.31-8.02,4.78-3.65,11.63-2.88,13.03-2.68,14.89.82,30.81-.66,30.97-.68l40-4.33.5-.19.38.97.05-.84c12.22.67,21.33,4.5,26.35,11.06,3.75,4.89,4.96,11.09,3.52,17.92-2.53,11.95-13.22,28.59-24.91,28.7l-3.4.28-.1.28-2.29.32-8.9-.47-41.32-5.71-2.91,4.65c-5.23,11.17-11.02,17.95-17.24,20.13-1.56.55-2.94.74-4.09.74ZM70.28,563.19c1.7.16,8.26-.39,16.17-17.4l.19-.34,5.18-8.26,45.22,6.25,6.17.32,1.64-.28,6.01-.48h0c7.33,0,16.66-13.26,18.88-23.72,1.07-5.05.28-9.36-2.36-12.8-3.78-4.94-11.4-7.99-21.45-8.59l-40.2,4.35c-.72.07-16.72,1.56-32.11.69l-.33-.04c-1.5-.24-5.94-.43-8.4,1.45-1.03.79-1.61,1.86-1.82,3.37,1.59,15.33,4.6,44.26,4.87,46.33.42,3.67,1.46,7.64,2.33,9.14Z"/>
      </g>
      <path class="cls-4" d="M76.71,563.17s13.64-13.71,12.14-22.71c0,0,1.08-20.4-17.07-24.99,0,0-8.53-2.34-.61,41.39,0,0,2.03,9.51,5.53,6.3Z"/>
      <g>
        <path class="cls-12" d="M59.54,565.21l-7.68-57.45c-.42-3.11,1.79-5.99,4.9-6.41h0c3.11-.42,5.99,1.79,6.41,4.9l7.68,57.45c.42,3.11-1.79,5.99-4.9,6.41h0c-3.11.42-5.99-1.79-6.41-4.9Z"/>
        <path class="cls-21" d="M64.36,572.63c-3.5,0-6.55-2.59-7.02-6.15h0s-7.94-59.38-7.94-59.38c-.52-3.87,2.21-7.45,6.09-7.97l1.93-.26c3.88-.52,7.45,2.21,7.97,6.09l7.94,59.38c.52,3.87-2.21,7.45-6.09,7.97l-1.93.26c-.32.04-.63.06-.94.06ZM62.01,565.86c.18,1.3,1.36,2.22,2.67,2.04l1.92-.26c1.3-.17,2.21-1.37,2.04-2.67l-7.94-59.38c-.17-1.3-1.35-2.21-2.67-2.04l-1.92.26c-1.3.17-2.21,1.37-2.04,2.67l7.94,59.38h0Z"/>
      </g>
      <g>
        <g>
          <path class="cls-11" d="M87.01,499.73s-1.23,18.95-20.5,27.61l-1.08-12.9s8.6,1.57,11.93-15.57l9.65.86Z"/>
          <path class="cls-21" d="M64.44,530.86l-1.61-19.28,3.03.55c.2.01,6.41.65,9.19-13.7l.41-2.09,14.06,1.25-.15,2.3c-.05.83-1.55,20.47-21.89,29.61l-3.04,1.36ZM67.97,516.6l.59,7.07c11.58-6.56,14.86-17.16,15.76-21.8l-5.11-.45c-2.71,11.34-7.94,14.42-11.25,15.19Z"/>
        </g>
        <g>
          <path class="cls-11" d="M88.93,550.29s-1.69-14.2-22.13-19.49l1.08,12.9s8.48.19,14.62,16.52l6.43-9.93Z"/>
          <path class="cls-21" d="M81.94,565.43l-1.64-4.38c-5.42-14.44-12.4-14.99-12.47-15l-2.12-.05-1.54-18.32,3.22.83c21.76,5.62,23.81,20.84,23.88,21.49l.1.85-9.44,14.57ZM70.08,541.78c2.93.95,8.31,3.94,12.85,13.44l3.5-5.41c-.64-2.65-3.71-11.23-17-15.76l.65,7.73Z"/>
        </g>
      </g>
      <g>
        <path class="cls-20" d="M125,542.56l.6-3.09c-12.9-9.01-16.09-26.94-7.08-39.85l8.04-11.52c9.01-12.9,26.94-16.09,39.85-7.08h0c12.9,9.01,13.42,26.57,4.64,44.18l-2.22,6.24c-9.01,12.9-30.92,20.12-43.83,11.11Z"/>
        <path class="cls-21" d="M138.93,549.71c-5.94,0-11.4-1.55-15.73-4.57l-1.67-1.17.61-3.16c-6.01-4.8-10.03-11.56-11.39-19.25-1.49-8.38.36-16.8,5.2-23.73l8.04-11.52c4.84-6.93,12.12-11.56,20.49-13.05,8.37-1.49,16.8.36,23.73,5.2,13.53,9.45,15.72,27.82,5.74,47.98l-2.3,6.47-.24.35c-4.79,6.86-13.08,12.46-22.19,15-3.51.98-6.97,1.46-10.28,1.46ZM128.5,541.03c5.08,2.72,11.89,3.16,19.03,1.17,7.59-2.12,14.47-6.67,18.48-12.21l2.22-6.18c8.59-17.23,7.2-32.63-3.63-40.2-5.55-3.88-12.31-5.36-19.03-4.16-6.72,1.19-12.56,4.91-16.44,10.46l-8.04,11.52c-3.88,5.55-5.36,12.31-4.16,19.03,1.19,6.72,4.91,12.56,10.46,16.44l1.67,1.17-.57,2.96Z"/>
      </g>
      <path class="cls-20" d="M109.21,517.02l-6.43,1.98q-9.19-12.47,24.06-20.49l15.06-1.66c10.81.45,19.26,10.47,18.78,22.28h0c-.49,11.81-2.9,25.29-13.72,24.85l-20.53-1.69c-10.81-.45-17.71-13.47-17.22-25.28Z"/>
      <path class="cls-4" d="M134.21,540.08h0c-6.41-5.5-7.16-15.24-1.66-21.65l12.44-14.51c5.5-6.41,15.24-7.16,21.65-1.66h0c6.41,5.5,4.75,17.8-.74,24.21l-6.57,11.34c-5.5,6.41-18.7,7.76-25.11,2.27Z"/>
      <path class="cls-4" d="M120.49,518.72l-29.49,2.54s2.79,7.7,2.11,15.64l46.69,6.81s2.37-22.48-19.32-24.99Z"/>
    </g>
    <g>
      <g>
        <path class="cls-20" d="M277.03,367.09s30.33,8.63,66.52,2.34c0,0-13.71-27.23-1.17-47.72,0,0-25.84,1.41-47.24,1.75-7.61.12-21.68-16.9-33.91-25.24-14.2-9.69-42.43,7.26-28.64,30.75,1.91,3.25,19.14,29.52,44.44,38.12Z"/>
        <path class="cls-21" d="M316.12,374.89c-22.82,0-39.03-4.51-39.95-4.77l-.15-.05c-27.9-9.48-45.96-39.2-46.14-39.5-6.56-11.18-5.27-22.72,3.45-30.87,8.57-8.01,21.33-9.76,29.67-4.06,4.85,3.31,9.87,7.83,14.72,12.2,6.17,5.57,13.85,12.49,17.33,12.49h.04c21.09-.34,46.86-1.74,47.12-1.75l5.97-.33-3.12,5.1c-11.46,18.73,1.17,44.41,1.3,44.67l1.89,3.78-4.16.73c-9.94,1.73-19.42,2.36-27.97,2.36ZM277.96,364.09c1.56.43,28.64,7.6,61.08,2.88-3.09-7.76-8.67-25.73-1.92-41.84-8.76.43-26.57,1.23-41.92,1.48-5.98.04-13.23-6.48-21.68-14.11-4.69-4.23-9.54-8.61-14.05-11.68-5.88-4.01-15.47-2.49-21.84,3.47-3.08,2.88-9.48,10.9-2.32,23.1.16.28,16.95,27.92,42.65,36.7Z"/>
      </g>
      <g>
        <path class="cls-12" d="M314,373.44s-15.39-23.77-1.49-51.29l38.51-4.06s-14.57,24.99.25,54.15c0,0-26.89,1.79-37.27,1.2Z"/>
        <path class="cls-21" d="M319.32,376.7c-2.09,0-3.96-.04-5.49-.13l-1.59-.09-.87-1.34c-.67-1.03-16.21-25.61-1.66-54.41l.77-1.53,46.38-4.88-3.12,5.36c-.55.96-13.49,23.95.33,51.14l2.16,4.24-4.75.32c-.94.06-20.07,1.33-32.16,1.33ZM315.85,370.37c8.09.25,23.08-.54,30.63-.99-8.85-20.84-4.07-38.97-.64-47.59l-31.25,3.29c-10.07,21.56-1.54,40.16,1.27,45.28Z"/>
      </g>
      <path class="cls-11" d="M314.77,325.78s-16.23,37.67,26.77,37.82c0,0-7.82-17.38,3.82-40.59l-30.59,2.77Z"/>
      <g>
        <path class="cls-21" d="M326.43,337.67c1.46.92,2.66,2.04,3.79,3.2,1.12,1.17,2.14,2.41,3.07,3.72.93,1.3,1.78,2.67,2.52,4.11.73,1.45,1.39,2.94,1.79,4.63-1.47-.92-2.66-2.04-3.8-3.2-1.12-1.17-2.14-2.41-3.06-3.72-.93-1.31-1.77-2.67-2.52-4.11-.73-1.45-1.39-2.94-1.79-4.63Z"/>
        <path class="cls-21" d="M326.98,354.99c.22-1.72.72-3.29,1.29-4.81.59-1.51,1.28-2.97,2.07-4.37.79-1.4,1.67-2.75,2.66-4.04,1-1.28,2.08-2.52,3.44-3.6-.21,1.72-.72,3.29-1.29,4.81-.59,1.52-1.28,2.97-2.07,4.37-.79,1.4-1.67,2.75-2.66,4.04-1.01,1.28-2.08,2.52-3.44,3.6Z"/>
      </g>
      <g>
        <path class="cls-21" d="M313.71,338.77c1.46.92,2.66,2.04,3.79,3.2,1.12,1.17,2.14,2.41,3.07,3.72.93,1.3,1.78,2.67,2.52,4.11.73,1.45,1.39,2.94,1.79,4.63-1.47-.92-2.66-2.04-3.8-3.2-1.12-1.17-2.14-2.41-3.06-3.72-.93-1.31-1.77-2.67-2.51-4.11-.73-1.45-1.39-2.94-1.79-4.63Z"/>
        <path class="cls-21" d="M314.26,356.09c.22-1.72.72-3.28,1.29-4.81.59-1.52,1.28-2.97,2.07-4.37.79-1.4,1.67-2.75,2.66-4.04,1-1.28,2.08-2.52,3.44-3.6-.21,1.72-.72,3.29-1.29,4.81-.59,1.52-1.28,2.97-2.07,4.37-.79,1.4-1.67,2.75-2.66,4.04-1.01,1.28-2.08,2.52-3.44,3.6Z"/>
      </g>
      <path class="cls-4" d="M255.07,300.58s-16.03-2.39-5.61,25.62c0,0,14.16,17.89,32.23,24.41,0,0,9.97,2.14,15.63,2,0,0-1.04-13.61,9.68-26.01,0,0-12.81,1.05-16.06-.41,0,0-14.93-10.38-25.74-20.46,0,0-5.48-5.94-10.13-5.15Z"/>
    </g>
    <g>
      <g>
        <path class="cls-20" d="M362.44,307.31l18.2,4.55s8.3-2.75,19.47,4.23l5.46,9.05s7.15,16.43-5.88,17.82c0,0,5.69,10.86-5.71,14.58,0,0,.3,17-14.07,22.43,0,0-32.03-1.5-36.87-15.75l-1.48-9.54,4.28-11.83s-6.58-26.76,16.59-35.53Z"/>
        <path class="cls-21" d="M380.41,383.13l-.65-.03c-3.5-.16-34.32-2.06-39.69-17.88l-.13-.53-1.6-10.34,4.24-11.72c-2.23-10.51-1.03-30.78,18.75-38.27l.92-.35,18.39,4.6c2.76-.59,10.98-1.54,21.14,4.8l.64.4,6.04,10.06c.46,1.05,4.36,10.45.6,16.91-.88,1.52-2.46,3.31-5.24,4.4.54,2.25.79,5.25-.41,8.19-1.13,2.78-3.27,4.9-6.38,6.33-.45,5.26-2.9,18.24-16,23.19l-.61.23ZM346.1,363.44c3.58,9.59,24.58,12.83,33.28,13.35,11.56-4.84,11.45-19.06,11.45-19.21l-.04-2.32,2.21-.72c2.39-.78,3.92-1.96,4.57-3.51,1-2.41-.15-5.61-.67-6.64l-2.08-4.07,4.54-.5c3.18-.34,4-1.74,4.27-2.2,1.79-3.08,0-8.97-.86-11.06l-4.95-8.2c-9.32-5.55-16.12-3.55-16.19-3.53l-.86.29-18.1-4.53c-19.19,8-13.99,30.52-13.76,31.49l.22.92-4.33,11.97,1.31,8.46Z"/>
      </g>
      <g>
        <path class="cls-18" d="M431.27,312.9s-48.77,1.25-78.87-22.3c0,0-6.23-6.04,2.16-10.74,0,0,29.64,15.08,37.34,17.64,0,0,31.97,6.44,42.42,7.05,0,0,4.53,9.61-3.05,8.36Z"/>
        <path class="cls-6" d="M352.5,278.75s35.87,18.79,81.02,25.08c0,0,6.79,12.39-3.1,17.73,0,0-15.85,3.98-32.66-.98l-12.71,51.74s-13.58,1.83-24.58-12.12l13.25-49.07s-44.1-19.57-21.22-32.39Z"/>
        <path class="cls-14" d="M359.51,369.23s-16.54,1.86-16.6,9.87l2.96,10.93s17.11-5.51,26.38,16.41l12.5-2.53s5.52-9.48-5.75-25.61l-19.5-9.07Z"/>
        <path class="cls-6" d="M352.5,278.75s35.87,18.79,81.02,25.08c0,0,6.79,12.39-3.1,17.73,0,0-15.85,3.98-32.66-.98l-12.71,51.74s-13.58,1.83-24.58-12.12l13.25-49.07s-44.1-19.57-21.22-32.39Z"/>
        <path class="cls-10" d="M363.42,356.89s-7.47,3.62-5.02,10.19c0,0,9.54,13.13,23.93,9.84,0,0,5.21-3.66,5.16-11.27,0,0-6.48,4.65-24.07-8.75Z"/>
        <g>
          <path class="cls-12" d="M387.73,366.31l13.48-46.43c18.76,6.07,26.59-.66,26.59-.66,12.59-6.75,5.73-15.4,5.73-15.4-41.62-6.33-82.95-23.97-82.95-23.97,0,0-12.93,12.71,23.15,31.28l-12.14,44.95s-7.07,8.98-3.88,12.8c0,0-11.06,3.44-14.19,7.24,0,0-2.34,9.45,2.36,13.91,0,0,20.75-1.81,26.38,16.41l12.5-2.53s5.96-10.34-4.44-24.96c0,0,5.41-.5,7.42-12.63Z"/>
          <path class="cls-21" d="M370.09,410.08l-.84-2.72c-4.83-15.61-22.93-14.22-23.1-14.21l-1.41.12-1.03-.97c-5.87-5.56-3.54-15.8-3.25-16.95l.17-.69.46-.55c2.62-3.17,8.8-5.8,12.68-7.21-.28-4.73,3.41-10.18,4.95-12.24l11.32-41.92c-15.14-8.15-23.44-16.43-24.69-24.64-.78-5.15,1.54-9.02,3.03-10.49l1.5-1.48,1.94.83c.41.18,41.46,17.56,82.19,23.76l1.22.19.77.97c.35.44,3.41,4.49,2.31,9.8-.84,4.04-3.79,7.47-8.79,10.21-1.74,1.27-9.93,6.28-26.16,1.92l-12.54,43.22c-1.25,7.32-3.78,11.09-6.02,13.02,8.75,14.57,2.96,24.97,2.69,25.44l-.71,1.23-16.68,3.38ZM347.83,386.8c8.02,0,21.03,3.32,26.44,16.02l8.25-1.67c.96-2.8,2.39-10.32-4.78-20.39l-3.81-5.36,5.96.4c.58-.25,3.38-1.87,4.73-10.01l.08-.36,14.38-49.54,3.08,1c16.54,5.35,23.55-.03,23.62-.09l.52-.35c2.33-1.25,5.23-3.3,5.82-6.01.33-1.49-.12-2.87-.54-3.74-35.22-5.58-70.25-19.1-79.75-22.94-.31.87-.52,2.07-.26,3.55.63,3.64,4.53,11.21,23.58,21.02l2.26,1.16-12.97,48.02-.4.5c-3.02,3.86-4.55,8.11-3.94,8.84l3.02,3.61-4.5,1.4c-3.91,1.22-9.97,3.71-12.24,5.76-.4,2.22-.72,6.58.88,9.17.18,0,.37,0,.56,0Z"/>
        </g>
        <g>
          <path class="cls-11" d="M359.81,284.53s47.06,19.03,72.19,18.89c0,0,8.63,5.59-3.77,8.66,0,0-21.09,3.78-60.27-16.28,0,0-19.96-9.83-15.99-13.79,0,0,2.77-1.12,7.84,2.52Z"/>
          <path class="cls-21" d="M423.45,314.72c-8.72,0-27.88-2.14-56.55-16.82-5.03-2.47-16.89-8.82-17.74-13.97-.22-1.34.19-2.62,1.15-3.58l.34-.34.44-.18c.66-.27,4.18-1.37,9.86,2.62,3.73,1.48,47.28,18.62,70.78,18.62.09,0,.17,0,.26,0h.7s.59.38.59.38c.47.3,4.56,3.08,3.93,6.84-.7,4.17-6.5,5.61-8.41,6.09-.29.05-2.09.35-5.36.35ZM354.68,284.47c2.18,2.3,8.05,6.13,14.33,9.22,38.07,19.49,58.61,16.11,58.81,16.07,4.28-1.07,4.75-2.24,4.75-2.26.04-.26-.52-1.06-1.34-1.73-25.45-.24-70.38-18.28-72.3-19.06l-.49-.27c-1.57-1.13-2.82-1.7-3.75-1.98Z"/>
        </g>
        <g>
          <g>
            <path class="cls-16" d="M372.7,292.34s21.04-168.55,92.21-229.61c0,0,30.01,78.43-54.62,241.04,0,0-27.18-2.92-37.59-11.44Z"/>
            <path class="cls-26" d="M412.08,307.13l-2.13-.23c-1.15-.12-28.24-3.13-39.24-12.13l-1.34-1.1.21-1.72c.87-6.93,22.01-170.46,93.29-231.6l3.39-2.9,1.6,4.17c.32.83,7.72,20.73,4.63,60.91-2.83,36.73-15.43,98.24-59.4,182.71l-.99,1.9ZM376.06,290.91c7.96,5.32,24.35,8.41,32.44,9.48,70.71-136.77,59.35-213.26,54.78-231.98-62.71,58.6-84.73,204.55-87.22,222.51Z"/>
          </g>
          <path class="cls-13" d="M387.61,293.34s30.65-158.8,75.3-222.9c0,0,24.19,79.58-53.58,229.81,0,0-18.76-3.94-21.73-6.92Z"/>
          <path class="cls-23" d="M462.91,70.45s26.68,68.18-53.58,229.81l-11.72-2.66s60.33-125.44,64.26-213.59c0,0-25.77,34.72-55.21,128.7,0,0,3.03-74.21,56.25-142.26Z"/>
          <path class="cls-26" d="M430,146.58c-4.11,12.34-8.01,24.73-11.86,37.12-3.77,12.42-7.54,24.84-10.96,37.35-3.48,12.49-6.71,25.03-9.63,37.63-2.89,12.6-5.37,25.29-7.2,38.01l-2.16-3.33,9.85,2.81-3.65,1.71c3.57-8.37,7.03-16.89,10.35-25.42,3.39-8.51,6.67-17.07,9.86-25.66,6.32-17.2,12.46-34.47,18.1-51.91,5.69-17.42,10.83-35.01,15.61-52.72,4.6-17.75,8.57-35.65,11.79-53.76-1.67,18.32-4.72,36.52-8.5,54.55-3.96,17.99-8.63,35.83-13.83,53.51-5.38,17.62-11.08,35.15-17.43,52.44-3.15,8.65-6.39,17.28-9.76,25.85-3.4,8.57-6.9,17.07-10.59,25.57l-1.07,2.46-2.58-.75-9.84-2.88-2.55-.74.39-2.59c1.96-12.99,4.81-25.76,7.93-38.43,3.18-12.66,6.92-25.15,10.76-37.59,3.98-12.4,8.16-24.73,12.66-36.94,4.47-12.22,9.2-24.34,14.29-36.3Z"/>
        </g>
        <path class="cls-11" d="M369.04,379.16c1.02.66,2.23,3.19,2.71,11,0,0-6.13-8.51-16-4.32,0,0,11.06-.51,17.33,17.57l9.12-2.69s4.94-4.77-4.24-23.5c0,0-5.93-2.72-9.09-.05-.63.53-.51,1.55.18,2Z"/>
      </g>
      <path class="cls-21" d="M371.86,330.34c.01,1.06-.08,1.8-.2,2.68-.13.85-.29,1.68-.53,2.51-.46,1.66-1.15,3.3-2.17,4.8-1.02,1.5-2.49,2.77-4.11,3.56-1.63.86-3.39,1.03-5.03,1.12l.86-2.64c1.07,1.14,1.86,2.27,2.62,3.51.73,1.23,1.34,2.54,1.77,3.91.41,1.37.59,2.81.53,4.21-.06,1.41-.52,2.75-1.09,3.97.34-1.32.52-2.65.34-3.95-.18-1.3-.59-2.53-1.17-3.67-.61-1.14-1.35-2.18-2.2-3.14-.84-.94-1.82-1.87-2.75-2.55l-2.46-1.77,3.31-.87c1.25-.33,2.47-.68,3.34-1.43.9-.7,1.6-1.56,2.05-2.62.45-1.05.71-2.23.8-3.46.06-.61.06-1.24.03-1.86-.02-.59-.09-1.32-.19-1.73l6.26-.58Z"/>
      <g>
        <g>
          <path class="cls-20" d="M403.94,344.35s-5.98-14.54-19.8-9.83c0,0,12.17-16.93-4.1-20.21,0,0,17.45-5.93,25.75,3.76l3,4.35s8.65,16.08-4.84,21.93Z"/>
          <path class="cls-21" d="M402.25,348.51l-1.21-2.96c-.51-1.22-5.27-11.68-15.89-8.06l-9.3,3.17,5.74-7.98c1.35-1.89,4.9-8.14,3.44-11.82-.67-1.69-2.56-2.86-5.62-3.48l-11.43-2.3,11.04-3.75c.79-.27,19.57-6.48,29.15,4.69l.2.26,3.17,4.65c.21.38,5.02,9.48,2.23,17.51-1.37,3.96-4.26,6.92-8.59,8.8l-2.94,1.28ZM389.95,330.44c7.34.2,12.48,5.12,15.26,9.57,1.26-.98,2.12-2.17,2.62-3.61,1.75-4.99-1.26-11.37-1.76-12.36l-2.78-4.04c-3.5-3.97-9.28-4.57-14.07-4.23.69.84,1.24,1.77,1.65,2.81,1.56,3.96.51,8.4-.93,11.86Z"/>
        </g>
        <g>
          <path class="cls-20" d="M404.35,345.49s7.36,12.26-7.5,19.16c0,0,1.87-8.04-13.6-7.64,0,0-14.53-.08-13.37-8.35,0,0,5.93-13.34,15.84-14.78,0,0,9.74-4.31,18.63,11.61Z"/>
          <path class="cls-21" d="M392.33,370.21l1.46-6.27h0s.08-.78-.59-1.54c-.65-.74-2.91-2.43-9.87-2.24-1.14,0-10.41-.19-14.59-5.03-1.65-1.91-2.33-4.29-1.97-6.9l.06-.44.18-.4c.27-.6,6.64-14.66,17.93-16.56,2.39-.81,12.99-3.25,22.15,13.11.4.69,3.55,6.45,1.6,12.82-1.4,4.54-4.93,8.16-10.51,10.75l-5.84,2.71ZM384.4,353.85c6.57,0,11.22,1.56,13.74,4.65.34.42.62.84.86,1.26,1.87-1.4,3.09-3.01,3.66-4.81,1.24-3.94-.98-7.83-1.01-7.87l-.04-.07c-7.25-12.98-14.38-10.36-14.68-10.25l-.34.13-.42.08c-6.44.94-11.52,8.95-13.22,12.5-.02.76.25,1.19.53,1.52,1.82,2.11,7.38,2.84,9.78,2.86.38-.01.76-.01,1.13-.01Z"/>
        </g>
        <g>
          <path class="cls-20" d="M388.58,382.28s-21.21-1.01-23.48-10.8c0,0-2.53-16.17,22.75-15.3,0,0,8.84,3.01,10.39,10.21,0,0,.13,10.08-9.66,15.89Z"/>
          <path class="cls-21" d="M389.37,385.46l-.94-.04c-2.41-.12-23.66-1.46-26.4-13.23l-.04-.23c-.04-.27-.98-6.67,3.79-12.05,4.36-4.92,11.84-7.24,22.18-6.88l.46.02.44.15c.43.15,10.54,3.68,12.45,12.52l.07.62c0,.49.02,11.97-11.2,18.64l-.81.48ZM368.19,370.9c1.41,5.28,13.17,7.7,19.57,8.18,6.53-4.34,7.24-10.9,7.32-12.36-1.18-4.39-6.38-6.81-7.87-7.42-8.03-.21-13.78,1.45-16.74,4.78-2.54,2.86-2.35,6.23-2.29,6.82Z"/>
        </g>
        <g>
          <path class="cls-4" d="M390.27,359.03s9.01,2.06,7.44,8.83c0,0-2.92,8.98-8.58,8.92,0,0-5.01-2.89-3.98-8.04,0,0-15.53,2.97-9.98-7.57,0,0,6.73-4.19,15.11-2.15Z"/>
          <path class="cls-21" d="M390.74,357.3c-.5,1.49-1.03,2.84-1.62,4.23-.58,1.37-1.21,2.73-1.88,4.05-.69,1.32-1.44,2.62-2.31,3.84-.86,1.2-1.9,2.41-3.24,3.01,1.01-1.04,1.46-2.37,1.82-3.7.34-1.34.56-2.71.72-4.09.15-1.38.24-2.77.29-4.16.04-1.38.06-2.81,0-4.12l6.22.93Z"/>
        </g>
        <g>
          <path class="cls-4" d="M396.72,340s8.48,8.29,5.96,14.77c0,0,.93,3.64-4.66,2.77,0,0-8.98-5.2-7.22-10.14,0,0-16.33,2.19-9.33-7.45,0,0,7.15-5.96,15.26.04Z"/>
          <path class="cls-21" d="M397.43,338.36c-.71,1.41-1.43,2.66-2.2,3.95-.77,1.27-1.58,2.52-2.44,3.74-.87,1.21-1.8,2.39-2.83,3.47-1.02,1.06-2.23,2.11-3.64,2.52,1.15-.88,1.79-2.13,2.33-3.4.53-1.28.94-2.6,1.3-3.94.34-1.35.63-2.71.88-4.08.24-1.36.46-2.78.59-4.07l6.02,1.81Z"/>
        </g>
        <g>
          <path class="cls-4" d="M402.78,318.79s8.48,8.29,5.96,14.77c0,0,.26,3.33-3.72,4.79,0,0-8.98-5.2-7.22-10.14,0,0-14.72-2.23-7.72-11.88,0,0,4.71-.77,12.71,2.45Z"/>
          <path class="cls-21" d="M404.97,317.69c-.71,1.41-1.43,2.66-2.21,3.95-.77,1.27-1.58,2.52-2.44,3.74-.87,1.21-1.8,2.39-2.83,3.47-1.02,1.06-2.23,2.11-3.64,2.52,1.15-.88,1.79-2.13,2.33-3.4.53-1.28.94-2.6,1.3-3.94.34-1.35.63-2.71.88-4.08.24-1.36.46-2.78.59-4.07l6.02,1.81Z"/>
        </g>
        <g>
          <g>
            <path class="cls-20" d="M352.7,313.89s7.53-10.11,24.48-7.24l5.92,2.31s10.6-.09,3.45,22.76c0,0,0,9.28-6.11,10.56,0,0-9.7,3.08-12.45-16.68"/>
            <path class="cls-21" d="M379.01,345.6c-1.46,0-3.44-.33-5.52-1.64-4.45-2.8-7.35-8.83-8.62-17.93l6.22-.87c1.29,9.22,4.06,12.34,5.6,13.39,1.52,1.03,2.82.72,2.88.71l.22-.06c3.4-.71,3.61-7.41,3.61-7.48v-.48l.14-.46c3.72-11.89,2.07-16.2,1.19-17.5-.73-1.08-1.63-1.18-1.73-1.19h-.6s-.45-.21-.45-.21l-5.62-2.19c-14.48-2.32-20.87,5.74-21.14,6.09l-5.03-3.77c.36-.48,8.9-11.62,27.52-8.46l.62.17,5.51,2.15c1.28.17,3.87.84,5.87,3.55,3.28,4.42,3.27,12.09-.01,22.81-.13,4.44-2.04,11.69-8.5,13.11-.37.1-1.15.26-2.18.26Z"/>
          </g>
          <path class="cls-4" d="M386.03,314.57s1.07,12.57-3.8,20.09c0,0-11.05,4.9-8.61-14.71,0,0-.51-7.81,12.41-5.38Z"/>
        </g>
      </g>
    </g>
    <g>
      <g>
        <path class="cls-25" d="M261.16,417.59c-9.89,9.49-55.75,16.62-55.75,16.62,0,0,65.58-14.68,0,0-65.58,14.68-124.51-19.26-124.51-19.26,0,0,1.08,2.44,0,0-1.08-2.45,6.12-43.15,6.12-43.15,0,0,7.08-37.16,44.62-60.17,0,0,65.24,30.97,101.96.91,0,0,15.92,8.29,17.62,16.13l10.06,85.47.86,1.99s-.71,1.22-.97,1.47Z"/>
        <path class="cls-21" d="M171.05,441.08c-50.37,0-89.71-22.25-91.72-23.41l.57-.98-1.39.62-4.35-9.86,3.83,2.2c.56-5.74,2.12-16.76,5.94-38.4.31-1.61,7.79-38.84,46.08-62.3l1.45-.89,1.54.73c.63.3,63.87,29.76,98.62,1.32l1.6-1.31,1.84.96c1.76.92,17.29,9.23,19.24,18.25l.05.3,10.01,85.01,1.31,3.03-.81,1.37c-.93,1.58-1.32,1.95-1.5,2.13h0c-10.23,9.83-52.08,16.63-57.35,17.45-12,2.68-23.74,3.78-34.94,3.78ZM83.95,413.03c9.47,4.99,62.85,31.08,120.77,18.12l29.14-6.52.12.53c10.55-2.69,20.49-5.98,24.56-9.43l-.33-.76-10.09-85.75c-1.03-4.18-8.62-9.72-14.21-12.91-35.19,26.62-91.66,3.52-102.04-1.1-34.72,22.08-41.7,56.84-41.77,57.19-2.96,16.72-5.86,35.31-6.16,40.64Z"/>
      </g>
      <g class="cls-28">
        <path class="cls-27" d="M111.08,347.87s37.96,28.47,65.03,29.17c0,0-10.15,20.27-37.76,42.12,0,0-15.68,6.35-40.1-12.03,0,0,1.07-25.97,12.84-59.26Z"/>
      </g>
      <g>
        <g>
          <path class="cls-24" d="M184.03,435.58c-10.6,3.73-47.46-2.8-47.46-2.8l4.61-4.33c51.03-39.22,74.29-104.23,74.29-104.23,8.97-3.85,18.54-10.03,18.54-10.03l9.27,6.99s20.78,13.34,23.87,99.46l-3.43,1.99-3.42-.64s-.32,6-75.79,13.88"/>
          <path class="cls-9" d="M173.55,439.87c-14.47,0-34.62-3.47-37.53-3.99l-6.17-1.09,9.41-8.83c49.72-38.22,73.02-102.16,73.25-102.8l.46-1.29,1.26-.54c8.61-3.7,17.98-9.72,18.08-9.78l1.85-1.19,10.98,8.29c2.13,1.52,22.15,17.98,25.16,101.89l.07,1.89-6.07,3.52-3.06-.57c-4.99,3.19-21.47,7.9-76.39,13.63l-.04-.36c-2.71.89-6.7,1.23-11.25,1.23ZM182.99,432.62l1.69,4.8-.49-4.68c57.27-5.97,70.28-10.79,73.05-12.25l.12-2.25,5.8,1.08.78-.45c-3.17-80.6-22.22-94.94-22.41-95.08l-.14-.1-7.54-5.69c-3.08,1.89-9.48,5.68-15.9,8.56-3.62,9.4-27.55,67.85-74.55,104.15,12.42,1.89,32.87,4.27,39.59,1.9Z"/>
        </g>
        <g class="cls-29">
          <path class="cls-17" d="M133.45,439.34s48.89-32.55,86.34-115.62l9.7-5.72s10.42,2.79,8.89,6.3c-24.86,56.81-44.93,83.51-72.54,114.29l-32.39.74Z"/>
        </g>
        <g class="cls-29">
          <path class="cls-17" d="M183.4,444.63s44.92-51.88,66.15-110.89l9.45,27.8s-29.11,63.3-53.22,82.66l-22.37.43Z"/>
        </g>
        <path class="cls-17" d="M261.88,388.39s-10.74,33.31-25.19,44.02l28.94-2.29-3.75-41.73Z"/>
        <g class="cls-30">
          <path class="cls-19" d="M164.38,410.54s56.14,4.86,98.71-10.04l-1.14-17.04s-35.15,9.22-80.24,8.91c0,0-9.39,12.1-17.32,18.18Z"/>
        </g>
        <g class="cls-30">
          <path class="cls-19" d="M190.35,377.55s37.07,1.6,69.42-8.89l-4.1-18.73s-16.32,5.03-52.9,8.24c0,0-3.57,7.05-12.42,19.38Z"/>
        </g>
      </g>
    </g>
    <g>
      <g>
        <g>
          <path class="cls-24" d="M79.84,454.09s140.05,28.46,188.39-5.93l4.84,39.04s-39.42,27.36-116.83,21.88c0,0-54.32-1.92-82.91-18.19l6.51-36.79Z"/>
          <path class="cls-9" d="M176.66,512.95c-6.56,0-13.43-.23-20.65-.74-2.14-.07-55.32-2.13-84.24-18.6l-1.93-1.1,7.46-42.15,3.16.64c1.39.28,139.27,27.79,185.94-5.41l4.29-3.06,5.73,46.15-1.56,1.08c-1.49,1.04-34.21,23.17-98.2,23.18ZM76.82,489.21c28.06,14.74,79.01,16.71,79.53,16.73,67.11,4.75,105.37-15.55,113.36-20.33l-3.98-32.1c-48.28,28.24-162.34,8.28-183.35,4.28l-5.56,31.42Z"/>
        </g>
        <g class="cls-29">
          <path class="cls-17" d="M80.66,456.4l16.39,2.93-6.75,36.13s-10.94-2.47-16.52-6.27l6.87-32.79Z"/>
        </g>
        <g class="cls-29">
          <path class="cls-17" d="M111.23,462.57c-.36,1.35-6.98,37.19-6.98,37.19l16.81,3.43s5.1-37.18,6.26-39.46l-16.09-1.16Z"/>
        </g>
        <g class="cls-29">
          <path class="cls-17" d="M138.66,464.53s-5.43,35.08-4.81,40.4l14.8,1.73s2.75-25.13,5.62-39.77l-15.62-2.36Z"/>
        </g>
        <g class="cls-29">
          <polygon class="cls-17" points="165.34 466.51 161.4 508.32 179.66 507.84 181.51 466.88 165.34 466.51"/>
        </g>
        <g class="cls-29">
          <path class="cls-17" d="M257.62,457.16l3.51,33.28,10.73-4.87-3.82-34.16s-9.64,4.38-10.42,5.75Z"/>
        </g>
        <g class="cls-30">
          <path class="cls-19" d="M191.18,480.52c-63.14,1.91-111.01-12.79-111.01-12.79l-2.65,12.51c38.88,17.27,113.58,14.39,113.58,14.39l.08-14.11Z"/>
        </g>
        <g class="cls-30">
          <path class="cls-19" d="M250.89,471.46s7.27-.28,17.87-6.28l.83,10.83s-5.06,6.2-18.21,8.12l-.49-12.68Z"/>
        </g>
      </g>
      <g>
        <g>
          <path class="cls-24" d="M192.63,465.25s-.21,27.84,1.21,52.98c0,0,29.41,2.57,56.68-8.87l-2.64-50.7s-44.01,5.71-55.25,6.58Z"/>
          <path class="cls-9" d="M201.58,521.64c-4.7,0-7.65-.24-8.02-.28l-2.71-.24-.15-2.72c-1.4-24.95-1.21-52.9-1.21-53.18l.02-2.88,2.88-.23c11.03-.86,54.65-6.51,55.09-6.57l3.37-.44,2.93,56.29-2.04.86c-19.28,8.09-39.34,9.38-50.15,9.38ZM196.82,515.24c7.54.27,29.53.24,50.44-7.95l-2.35-45.07c-9.67,1.24-37.26,4.75-49.15,5.91,0,7.37.07,27.8,1.06,47.12Z"/>
        </g>
        <g class="cls-29">
          <path class="cls-17" d="M212.44,465.58l1.78,49.84-17.51-.06s-2.53-37.04-1.7-47.77l17.43-2.01Z"/>
        </g>
        <g class="cls-29">
          <path class="cls-17" d="M230.65,464.28l3.02,48.01s10.14-.39,14.14-5l-3.08-45.78-14.08,2.77Z"/>
        </g>
        <g class="cls-30">
          <path class="cls-19" d="M195.1,485.24s19.03.33,51.64-5.76l1.62,16.2s-30.39,8.31-52.17,6.25l-1.09-16.69Z"/>
        </g>
      </g>
    </g>
    <g>
      <g>
        <g>
          <path class="cls-16" d="M270.28,455.19s-92.41,39.08-192.01-4.19c0,0-3.74-4.44-3.57-7.97,0,0,.61-21.41,1.47-26.04.72-3.87,2.38-5.16,5.83-2.42,0,0,49.9,40.05,185.36,6.97,0,0,1.49-8.29,5.95.13,0,0,3.82,33-3.04,33.53Z"/>
          <path class="cls-21" d="M177.86,474.38c-30.2,0-65.15-4.99-100.84-20.5l-.68-.29-.48-.56c-.76-.9-4.52-5.62-4.3-10.15.06-2.15.64-21.73,1.52-26.46.23-1.23.93-4.96,4.05-6.13,2.05-.76,4.34-.15,6.82,1.83.49.39,50.26,38.26,180.88,6.81.64-1.71,1.89-3.75,4.25-4.12,3.8-.6,6.13,3.75,7,5.39l.28.52.07.59c.77,6.67,2.9,28.9-2.08,34.94-1.07,1.3-2.28,1.82-3.25,2-4.24,1.7-41.89,16.14-93.25,16.14ZM80.24,448.43c96.97,41.74,187.9,4.25,188.81,3.86l.59-.21c1.83-2.48,2.13-15.68.66-29.13l-.21,1.15-1.99.48c-135.4,33.07-185.98-5.9-188.07-7.57-.21-.17-.4-.3-.55-.41-.07.24-.15.55-.22.95-.67,3.6-1.25,19.67-1.42,25.55-.07,1.42,1.27,3.8,2.4,5.31Z"/>
        </g>
        <path class="cls-13" d="M272.09,426.17c-4.29-6.08-5.76,0-5.76,0-123.86,26.9-179.32-3.9-179.32-3.9-.92-.54-1.65.67-2.32.56,1.52,10.55,4.52,26.83,24.46,36.61,107.64,22.37,159.95-7.22,159.95-7.22,6.63-.48,3-26.04,3-26.04Z"/>
        <path class="cls-23" d="M94.59,425.56s66.36,25.04,170.22.66c0,0,8.46-6.08,8.17,3.67,0,0,2.21,17.14-2.36,22.27,0,0,2.57-.57-6.04-16.11,0,0-104.55,25.86-164.98-3.48,0,0-17.54-11.28-5.01-7Z"/>
      </g>
      <g>
        <g>
          <path class="cls-16" d="M249.15,449.4c.51,14.84-11.11,27.29-25.96,27.8-14.84.51-27.29-11.11-27.8-25.96-.51-14.85,11.11-27.29,25.96-27.8,14.85-.51,27.29,11.11,27.8,25.96Z"/>
          <path class="cls-21" d="M222.26,480.36c-16.09,0-29.45-12.8-30.01-29.01-.27-8.02,2.59-15.67,8.06-21.53,5.48-5.87,12.91-9.25,20.93-9.52,16.53-.53,30.48,12.44,31.05,28.99.27,8.02-2.59,15.66-8.06,21.53-5.47,5.87-12.91,9.25-20.93,9.52-.35.01-.7.02-1.04.02ZM222.29,426.57c-.27,0-.55,0-.83.01-6.34.22-12.22,2.89-16.55,7.53-4.33,4.64-6.59,10.68-6.38,17.03.45,13.09,11.49,23.4,24.55,22.92,6.34-.22,12.22-2.89,16.55-7.53,4.33-4.64,6.59-10.68,6.38-17.02-.44-12.81-11-22.94-23.73-22.94Z"/>
        </g>
        <path class="cls-13" d="M245.63,450c.43,12.59-8.76,23.12-20.52,23.52-11.77.4-21.66-9.47-22.09-22.06-.43-12.59,8.76-23.12,20.52-23.52,11.77-.4,21.66,9.47,22.09,22.06Z"/>
        <g>
          <g>
            <path class="cls-16" d="M242.88,447.37c1.47,9.55-4.7,18.67-13.78,20.35-9.09,1.69-17.65-4.69-19.12-14.24-1.47-9.55,4.7-18.67,13.78-20.35,9.09-1.69,17.65,4.69,19.12,14.24Z"/>
            <path class="cls-21" d="M226.16,470.36c-3.75,0-7.4-1.16-10.54-3.39-4.31-3.06-7.15-7.72-7.98-13.12-1.66-10.78,5.37-21.12,15.68-23.03,4.89-.91,9.82.19,13.9,3.08,4.31,3.06,7.15,7.72,7.98,13.12h0c1.66,10.79-5.37,21.12-15.68,23.03-1.12.21-2.25.31-3.36.31ZM226.68,435.22c-.83,0-1.66.08-2.49.23-7.83,1.46-13.16,9.39-11.88,17.68.64,4.13,2.79,7.68,6.05,10,3.03,2.15,6.69,2.96,10.31,2.29,7.83-1.45,13.16-9.38,11.88-17.68-.64-4.13-2.79-7.68-6.05-10-2.33-1.65-5.04-2.52-7.82-2.52Z"/>
          </g>
          <path class="cls-13" d="M240.75,448.67c.52,8.29-4.54,15.38-11.28,15.85-6.75.47-12.64-5.87-13.15-14.15-.52-8.29,4.54-15.38,11.28-15.85,6.75-.47,12.64,5.87,13.15,14.15Z"/>
          <path class="cls-23" d="M240.76,448.83c.22,6.26-3.29,11.46-7.84,11.62-4.54.16-8.4-4.79-8.61-11.05-.22-6.26,3.29-11.46,7.83-11.62,4.54-.16,8.4,4.79,8.61,11.05Z"/>
        </g>
      </g>
    </g>
    <g>
      <g>
        <g>
          <path class="cls-20" d="M63.92,316.28s-29.28,11.72-54.07,38.83c0,0,27.49,13.16,30.1,37.04,0,0,19.59-16.91,36.31-30.27,5.94-4.75,27.49.11,42.26-.76,17.16-1.01,29.13-31.69,3.86-41.84-3.5-1.4-33.19-11.66-58.47-2.99Z"/>
          <path class="cls-21" d="M37.48,398.44l-.65-5.95c-2.39-21.89-28.08-34.42-28.33-34.55l-3.82-1.83,2.86-3.13c24.99-27.32,54-39.13,55.22-39.62l.15-.06c27.86-9.55,60.34,2.92,60.66,3.05,12.03,4.83,18.07,14.75,16.15,26.54-1.89,11.58-10.91,20.76-21,21.36-5.86.35-12.59-.16-19.1-.66-8.32-.63-18.68-1.42-21.38.74-16.48,13.16-36.02,30.03-36.21,30.2l-4.53,3.91ZM14.93,354.3c7.19,4.25,22.59,15.06,27.1,31.93,6.67-5.7,20.27-17.22,32.27-26.81,4.64-3.7,14.43-2.96,25.78-2.09,6.3.48,12.81.98,18.25.65,7.1-.42,13.76-7.49,15.16-16.1.68-4.16.84-14.42-12.29-19.69-.3-.12-30.5-11.73-56.19-2.96-1.49.62-27.3,11.5-50.1,35.07Z"/>
        </g>
        <g>
          <path class="cls-12" d="M30.79,333.87s26.71,9.4,32.54,39.67l-27.99,26.76s-3.75-28.69-33.3-42.69c0,0,20.18-17.86,28.75-23.74Z"/>
          <path class="cls-21" d="M33.02,406.86l-.8-6.15c-.15-1.1-3.97-27.2-31.53-40.26l-4.3-2.04,3.56-3.15c.83-.74,20.42-18.06,29.06-23.98l1.31-.9,1.51.53c1.16.41,28.48,10.36,34.58,42.04l.32,1.68-33.71,32.22ZM7.57,356.93c19.74,11.08,27.05,28.35,29.61,37.26l22.72-21.71c-5.18-23.01-23.41-32.68-28.7-35.04-6.55,4.76-17.92,14.54-23.62,19.5Z"/>
        </g>
        <path class="cls-11" d="M59.32,372.05s-10.19-39.73-44.31-13.56c0,0,16.81,8.97,21.8,34.45l22.51-20.89Z"/>
        <g>
          <path class="cls-21" d="M42.82,369.77c-1.72.16-3.35.01-4.96-.21-1.6-.24-3.17-.6-4.7-1.06-1.53-.46-3.04-1.03-4.5-1.71-1.46-.7-2.9-1.48-4.24-2.57,1.72-.17,3.35-.02,4.96.21,1.6.24,3.17.6,4.7,1.07,1.53.46,3.04,1.03,4.5,1.71,1.46.7,2.9,1.48,4.25,2.57Z"/>
          <path class="cls-21" d="M31.8,356.4c.88,1.5,1.44,3.04,1.92,4.59.46,1.56.8,3.13,1.04,4.72.24,1.59.36,3.2.37,4.82-.01,1.63-.1,3.27-.52,4.95-.89-1.5-1.44-3.04-1.92-4.59-.46-1.56-.8-3.13-1.03-4.72-.23-1.59-.36-3.2-.37-4.82.01-1.63.1-3.27.52-4.95Z"/>
        </g>
        <g>
          <path class="cls-21" d="M52.21,361.12c-1.72.16-3.35.01-4.96-.21-1.6-.24-3.17-.6-4.7-1.06-1.53-.46-3.04-1.03-4.5-1.71-1.46-.7-2.9-1.48-4.24-2.57,1.72-.17,3.35-.02,4.96.21,1.6.24,3.17.6,4.7,1.07,1.53.47,3.04,1.03,4.5,1.71,1.46.7,2.9,1.48,4.25,2.57Z"/>
          <path class="cls-21" d="M41.19,347.75c.88,1.5,1.44,3.04,1.92,4.59.46,1.56.8,3.13,1.04,4.72.24,1.59.36,3.2.37,4.82-.01,1.63-.1,3.27-.52,4.95-.89-1.49-1.44-3.04-1.92-4.59-.46-1.56-.8-3.13-1.03-4.73-.23-1.59-.36-3.2-.37-4.82.01-1.63.1-3.27.52-4.95Z"/>
        </g>
        <path class="cls-4" d="M50.34,337.89s14.01,9.08,15.72,27.03c0,0,3.78-4.17,12.58-8.65,0,0,16.1-1.62,32.38.61,0,0,17.15,3.19,19.69-13.11,0,0,1.13-12.52-28.92-17.55,0,0-13.95-4.02-30.89-.94,0,0-5.61-.62-20.57,12.6Z"/>
        <g>
          <g>
            <path class="cls-20" d="M-4.16,361.17s10.07-7.61,25.41,5.99c0,0,21.15,14.63,17.27,47.51,0,0-16.55,5.7-20.06,13.01,0,0-8.37,5.6-13.64-1.05,0,0-15.28,6.02-16.27.52,0,0,.22-10.25-8.18-18.08,0,0-2.73-6.03-.39-9.69l-3.57-8.66s-.32-.99,3.16-3.56l-2.87-8.89s9.93-10.47,19.15-17.08Z"/>
            <path class="cls-21" d="M11.4,433.03c-2.52,0-5.13-.73-7.44-2.74-4.12,1.44-11.72,3.55-15.71,1.32-1.51-.84-2.51-2.23-2.81-3.91l-.06-.31v-.31c0-.07.03-9-7.17-15.72l-.46-.43-.26-.57c-.31-.69-2.75-6.35-.96-11.09l-3.12-7.59c-.7-2.18.94-4.22,2.49-5.62l-2.77-8.61,1.28-1.35c.41-.44,10.24-10.76,19.59-17.47,1.04-.75,12.64-8.51,29.2,6.08,2.23,1.61,22.35,17.17,18.43,50.34l-.23,1.96-1.87.64c-5.92,2.05-16.12,6.95-18.26,11.4l-.37.77-.71.48c-1.97,1.32-5.29,2.74-8.8,2.74ZM5.82,422.84l1.45,1.83c2.81,3.55,7.17,1.67,8.82.76,3.86-6.47,14.88-11.26,19.5-13.03,2.61-29.12-15.36-42.1-16.14-42.65l-.29-.23c-13.03-11.55-21.12-6.05-21.46-5.8l-1.86-2.53,1.83,2.55c-6.96,4.99-14.46,12.37-17.4,15.36l2.98,9.24-1.81,1.34c-.73.54-1.22.96-1.53,1.26l3.61,8.75-.88,1.38c-.95,1.49-.23,4.55.39,6.19,7.4,7.25,8.49,16.09,8.65,19,1.8.44,7.32-.7,12-2.55l2.17-.85Z"/>
          </g>
          <path class="cls-4" d="M14.64,376.12s16.89,6.69,19.27,36.78c0,0-5.83-.7-17.51,11.24,0,0-7.63,1.9-8.28-4.98,0,0-.19-9.54,4.41-15.29,0,0-11.31,1.88-11.27,19.68,0,0-5.39,4.25-8.41,1.71,0,0,.56-7.5-2.96-15.01,0,0-4.73-10.97,1.29-17.21,0,0-5.93-2.18-2.36-9.25,0,0,5.51-8.36,15.07-11.17,0,0,6.32.66,10.75,3.5Z"/>
          <g>
            <path class="cls-21" d="M5.19,430.54c-.33-.14-.43-.21-.61-.31-.17-.09-.29-.19-.44-.28-.29-.19-.53-.4-.79-.61-.49-.43-.94-.9-1.31-1.42-.77-1.02-1.29-2.22-1.52-3.39-.49-2.37-.05-4.52.58-6.38.7-1.83,1.57-3.48,2.59-4.99.99-1.53,2.13-2.89,3.24-4.26l.13-.15.03-.03c.61-.49,1.27-1.34,1.62-2.2.38-.88.53-1.86.44-2.87-.11-1.01-.49-2.01-.98-2.96-.27-.47-.58-.92-.87-1.38l-1.05-1.28,1.28,1.08c.38.4.79.8,1.15,1.24.7.9,1.33,1.9,1.68,3.06.34,1.16.4,2.44.12,3.67-.29,1.25-.78,2.35-1.7,3.45l.16-.18c-.8,1.48-1.62,2.94-2.23,4.45-.65,1.5-1.1,3.02-1.37,4.48-.21,1.46-.12,2.83.32,3.78.21.48.5.85.84,1.12.16.15.36.26.54.36.1.04.19.1.27.12.04,0,.1.04.12.03.01,0,.1.03-.03-.04l-2.19,5.89Z"/>
            <path class="cls-21" d="M7.86,412.76c-2.34-.57-4.74-1.09-7.13-1.57-2.4-.44-4.79-.94-7.24-1.01,1.13-.5,2.34-.86,3.54-1.2,1.2-.34,2.42-.65,3.63-.93,2.44-.58,4.86-1.1,7.34-1.58l-.14,6.28Z"/>
            <polygon class="cls-21" points="-22.07 396.97 -5.97 387.13 -17.98 401.75 -22.07 396.97"/>
            <polygon class="cls-21" points="-22.62 384.87 -10.1 377.21 -18.27 389.41 -22.62 384.87"/>
          </g>
        </g>
      </g>
      <g>
        <g>
          <path class="cls-16" d="M95.1,404.94c-13.03,59.48-66.37,98.33-119.14,86.77-52.77-11.56-84.99-69.15-71.96-128.63,13.03-59.48,66.37-98.33,119.14-86.77,52.77,11.56,84.99,69.15,71.96,128.63Z"/>
          <path class="cls-21" d="M-5.35,496.87c-6.42,0-12.89-.68-19.36-2.1-54.38-11.91-87.73-71.29-74.36-132.37,13.38-61.08,68.52-101.08,122.88-89.17,54.38,11.91,87.74,71.29,74.36,132.37h0c-11.79,53.81-55.99,91.26-103.52,91.26ZM4.44,277.42c-44.65,0-86.22,35.44-97.37,86.33-12.64,57.69,18.57,113.72,69.56,124.89,51,11.17,102.76-26.68,115.4-84.37h0c12.64-57.69-18.57-113.72-69.56-124.89-6.02-1.32-12.06-1.95-18.03-1.95Z"/>
        </g>
        <path class="cls-13" d="M89.81,403.33c-11.91,54.5-61.31,89.98-110.33,79.26-49.02-10.72-79.1-63.59-67.19-118.08,11.91-54.5,61.31-89.98,110.33-79.26,49.02,10.72,79.1,63.59,67.19,118.08Z"/>
        <g>
          <path class="cls-16" d="M66.99,397.54c-10.12,46.18-50.33,76.59-89.83,67.94s-63.32-53.1-53.2-99.27c10.11-46.18,50.33-76.59,89.83-67.94,39.5,8.65,63.32,53.1,53.2,99.27Z"/>
          <path class="cls-21" d="M-9.19,470.11c-4.78,0-9.57-.51-14.32-1.55-41.13-9.01-66.07-55.22-55.6-103.02,10.47-47.79,52.45-79.35,93.57-70.34,41.13,9.01,66.07,55.22,55.6,103.02-5.05,23.06-17.51,43.08-35.07,56.37-13.51,10.22-28.8,15.53-44.18,15.53ZM.26,299.94c-33.29,0-64.61,27.57-73.23,66.94-9.73,44.41,13.06,87.26,50.8,95.53,18.19,3.98,37.14-.58,53.37-12.85,16.37-12.38,27.99-31.1,32.72-52.7h0c9.73-44.41-13.06-87.26-50.8-95.53-4.29-.94-8.59-1.39-12.85-1.39Z"/>
        </g>
        <g>
          <ellipse class="cls-12" cx="-.62" cy="381.23" rx="80.98" ry="67.69" transform="translate(-372.89 299.05) rotate(-77.64)"/>
          <path class="cls-21" d="M-5.6,464.03c-4.29,0-8.59-.46-12.85-1.39-18.35-4.02-33.72-16.32-43.26-34.62-9.47-18.17-12.07-40.1-7.32-61.77,4.75-21.67,16.28-40.51,32.48-53.05,16.32-12.64,35.42-17.39,53.78-13.37,18.35,4.02,33.72,16.32,43.26,34.62,9.47,18.17,12.07,40.1,7.32,61.77h0c-4.74,21.67-16.28,40.51-32.48,53.05-12.54,9.71-26.71,14.76-40.93,14.76ZM4.38,303.14c-13.19,0-26.37,4.71-38.06,13.77-15.33,11.87-26.25,29.74-30.76,50.33-4.51,20.59-2.06,41.4,6.9,58.58,8.89,17.05,23.13,28.48,40.09,32.2,16.97,3.72,34.68-.72,49.88-12.49,15.33-11.87,26.25-29.74,30.76-50.33h0c4.51-20.59,2.06-41.4-6.9-58.59-8.89-17.05-23.13-28.48-40.09-32.2-3.91-.86-7.87-1.28-11.82-1.28Z"/>
        </g>
        <path class="cls-11" d="M-20.7,311.06s-40.86,51.53-35.8,115.4c0,0-24.75-30.45,3.86-84.76,0,0,17.61-29.08,31.94-30.64Z"/>
        <path class="cls-11" d="M5.35,302.33s-39.6,70.6-33.43,152.63c0,0,18.34,8.59,42.57-3.22,0,0-6.59-56.93,17.15-138.03,0,0-4.65-6.94-26.29-11.38Z"/>
        <path class="cls-11" d="M53.07,334.96s-9.6,43.83-7.4,95.23c0,0,33.78-46.2,7.4-95.23Z"/>
        <g>
          <g>
            <path class="cls-16" d="M-40.1,371.26c-4.55,19.31,4.04,38.1,19.2,41.97,15.16,3.87,31.14-8.64,35.7-27.95,4.55-19.31-4.04-38.1-19.2-41.97-15.16-3.87-31.14,8.64-35.69,27.95Z"/>
            <path class="cls-21" d="M-15.36,417.06c-2.13,0-4.25-.26-6.32-.79-16.79-4.29-26.42-24.8-21.48-45.73,2.73-11.59,9.43-21.34,18.37-26.76,6.68-4.05,14.2-5.29,21.16-3.52,16.78,4.28,26.42,24.8,21.48,45.73-2.73,11.59-9.43,21.34-18.37,26.76-4.69,2.84-9.8,4.31-14.84,4.31ZM-10.01,345.74c-3.87,0-7.78,1.15-11.51,3.41-7.51,4.55-13.16,12.87-15.51,22.82-4.16,17.62,3.43,34.76,16.92,38.2,5.39,1.38,11.05.41,16.35-2.8,7.51-4.55,13.16-12.87,15.51-22.82,4.16-17.62-3.43-34.76-16.92-38.2-1.59-.41-3.21-.61-4.83-.61Z"/>
          </g>
          <path class="cls-13" d="M-36.63,372.8c-3.86,16.37,2.75,32.13,14.77,35.2,12.02,3.07,24.89-7.72,28.75-24.09,3.86-16.37-2.75-32.13-14.77-35.2-12.02-3.07-24.89,7.72-28.75,24.09Z"/>
          <g>
            <g>
              <path class="cls-16" d="M-33.08,369.96c-4.11,12.18-.23,25.43,8.68,29.6s19.46-2.32,23.57-14.5c4.11-12.18.23-25.43-8.68-29.6-8.91-4.17-19.46,2.32-23.57,14.5Z"/>
              <path class="cls-21" d="M-18.77,403.17c-2.28,0-4.53-.49-6.63-1.48-9.94-4.65-14.39-19.23-9.91-32.48h0c2.55-7.56,7.49-13.38,13.56-15.97,4.4-1.88,9.11-1.85,13.24.09,9.94,4.65,14.39,19.23,9.91,32.48-2.55,7.56-7.49,13.38-13.56,15.97-2.17.93-4.41,1.39-6.61,1.39ZM-15.14,356.55c-1.57,0-3.17.34-4.76,1.02-4.76,2.03-8.85,6.95-10.95,13.14h0c-3.73,11.06-.39,23.04,7.44,26.71,2.95,1.38,6.2,1.39,9.39.02,4.76-2.03,8.85-6.95,10.95-13.14,3.73-11.06.4-23.04-7.44-26.71-1.48-.69-3.04-1.04-4.63-1.04Z"/>
            </g>
            <path class="cls-13" d="M-31.24,372.12c-2.78,10.73.5,21.1,7.33,23.17,6.83,2.07,14.61-4.95,17.39-15.67,2.78-10.73-.5-21.1-7.33-23.17-6.83-2.07-14.61,4.95-17.39,15.67Z"/>
            <path class="cls-23" d="M-31.29,372.31c-1.92,8.14.28,15.7,4.92,16.89,4.64,1.18,9.96-4.46,11.88-12.6,1.92-8.14-.28-15.7-4.92-16.89-4.64-1.18-9.96,4.46-11.88,12.6Z"/>
          </g>
        </g>
        <path class="cls-23" d="M67.56,308.44s40.51,29.23,18.91,112.49c0,0-23.62,71.27-99.56,67.98,0,0,80.74-6.73,96.71-91.73,0,0,11.14-41.82-16.06-88.75Z"/>
      </g>
    </g>
    <g>
      <g>
        <g>
          <path class="cls-2" d="M275.88,202.93s11.36,14.25,31.69,9.62c0,0,12.67-4.01,7.34,6.38,0,0-9.53,15.24-23.91,13.94,0,0,12.88,4.79,29.35-1.38,0,0,16.18-7.9,7.93,6.33,0,0-19.15,29.46-39.27,26.91l-1.26-11.38-18.5-16.91,9.23.1s.48-9.09-10.95-14.54l8.34-19.07Z"/>
          <path class="cls-21" d="M291.5,268.03c-.96,0-1.92-.06-2.88-.18l-2.46-.31-1.4-12.67-23.7-21.67,13.69.15c-.44-1.2-1.19-2.64-2.48-4.1l-4.41-1.64,3.05.28c-1.21-1.07-2.76-2.12-4.72-3.06l-2.74-1.31,11.64-26.64,3.24,4.07c.45.55,10.47,12.57,28.43,8.55,2.05-.63,8.29-2.16,11.28,1.38,1.87,2.22,1.76,5.4-.33,9.47l-.13.23c-.26.41-4.02,6.31-10.43,10.71,3.6-.32,7.65-1.11,11.96-2.71,3.65-1.77,10.09-4.12,13.27-.7,3.26,3.49-.12,9.31-1.39,11.5l-.08.14c-.79,1.21-18.78,28.5-39.42,28.5ZM277.45,239.67l13.3,12.16,1.09,9.91c16.71-.28,32.84-24.19,33.76-25.58,1.06-1.83,1.52-3,1.72-3.7-1.36.17-3.69.92-5.6,1.85l-.27.12c-17.37,6.5-30.98,1.59-31.55,1.38l-8.85-3.29c.65,2.35.58,4.01.57,4.19l-.16,3.01-4.02-.04ZM279.51,228.67l11.78,1.06c11.75,1.04,20.09-11.14,20.9-12.38.62-1.24.82-1.99.87-2.38-.93-.16-2.99.07-4.54.56l-.25.07c-15.49,3.52-26.18-2.9-31.34-7.25l-5.35,12.25c4.06,2.47,6.48,5.39,7.93,8.06Z"/>
        </g>
        <path class="cls-23" d="M287.82,234.01s11.99,5.27,35.98-2.01c0,0,7.1-.53.49,6.33,0,0-6.62,11.84-24.46,20.93,0,0,10.97-15.45.92-15.98,0,0-19.39-2.33-26.37-12.7,0,0,24.56-4.11,23.22-9.09,0,0-11.13-4.38-9.42-6.36,0,0,8.77,4.44,20.06.42,0,0,9.58-3.11,1.7,4.59,0,0-5.84,7.85-22.11,13.88Z"/>
      </g>
      <g>
        <g>
          <path class="cls-23" d="M267.28,168.85s18.41-19.56,25.53-.78c0,0,6.21,22.47-10.32,39.47l-4.41.65s-2.09-11.62-7.27-16.96c0,0-5.87-10.41-3.53-22.38Z"/>
          <path class="cls-21" d="M275.52,211.74l-.54-2.99c-.54-2.98-2.75-11.53-6.43-15.33l-.28-.29-.2-.35c-.26-.47-6.41-11.57-3.87-24.53l.18-.89.62-.66c1.12-1.19,11.23-11.58,20.71-9.69,4.5.9,7.88,4.24,10.04,9.95l.09.28c.27.99,6.49,24.42-11.1,42.49l-.74.76-8.48,1.24ZM273.39,189.39c3.89,4.26,6.11,11.29,7.11,15.27l.45-.07c13.69-14.85,9.35-33.62,8.86-35.55-1.34-3.45-3.13-5.42-5.33-5.86-4.74-.95-11.49,4.47-14.28,7.19-1.46,9.19,2.35,17.37,3.18,19.03Z"/>
        </g>
        <path class="cls-4" d="M267.5,174.33s11.44-14.88,16.91-.38c0,0,4.78,17.35-7.93,30.46l-2.03.39s1.12-9.18-2.86-13.31c0,0-5.88-7.93-4.08-17.17Z"/>
        <path class="cls-21" d="M268.39,188.96c.91-2.44,1.93-4.53,3.1-6.68,1.16-2.12,2.47-4.16,3.99-6.05,1.52-1.88,3.18-3.67,5.2-5.03,1.98-1.37,4.25-2.32,6.55-2.54-2.21.75-4.04,2.11-5.52,3.73-1.51,1.61-2.61,3.55-3.57,5.52-.95,1.98-1.7,4.06-2.3,6.18-.59,2.09-1.09,4.34-1.34,6.34l-6.11-1.48Z"/>
        <g>
          <path class="cls-23" d="M279.83,175.05s6.27,2.46,2.96,17.3"/>
          <path class="cls-21" d="M280.98,172.12c.65.32.77.47,1.08.7.25.22.47.43.68.65.4.44.73.9,1.02,1.37.54.94.93,1.88,1.15,2.82.47,1.86.51,3.64.36,5.33-.16,1.68-.49,3.29-.92,4.84-.43,1.55-.99,3.04-1.55,4.51.05-1.58.09-3.14-.01-4.68-.09-1.54-.3-3.04-.65-4.46-.35-1.41-.89-2.72-1.58-3.74-.33-.52-.75-.92-1.13-1.23-.2-.14-.39-.26-.57-.33-.09-.03-.17-.05-.24-.06-.02.01-.23-.04.07.12l2.3-5.85Z"/>
        </g>
      </g>
      <g>
        <g>
          <path class="cls-16" d="M215.91,74.47s41.83-7.38,53.09-49.93c0,0,14.18-7.73,8.38,44.94,0,0-5.28,37.68-31.07,51.16,0,0-7.48-37.24-30.39-46.17Z"/>
          <path class="cls-21" d="M244.05,125.36l-.83-4.1c-.07-.36-7.43-35.67-28.45-43.86l-10.45-4.07,11.04-1.95c1.63-.29,40.01-7.61,50.6-47.64l.35-1.31,1.19-.65c1.38-.75,4.51-1.48,7.5.53,6.73,4.51,8.53,20.06,5.5,47.52-.24,1.7-5.83,39.54-32.74,53.6l-3.71,1.94ZM224.18,75.38c14.75,10.35,21.75,31.34,24.18,40.38,21.09-14.04,25.86-46.39,25.9-46.73,3.73-33.83-1.11-40.29-2.68-41.46-.05-.04-.1-.07-.15-.1-9.17,31-34.41,43.46-47.26,47.9Z"/>
        </g>
        <path class="cls-13" d="M250.15,114.22s34.94-31.01,23.62-80.17c0,0-.59-8.08-3.32,4.36,0,0-6.14,28.42-37.09,45.72,0,0,6.49,23.56,16.79,30.09Z"/>
        <path class="cls-23" d="M273.76,34.05s14.27,44.36-23.62,80.17l-8.07-7.6s34.53-27.52,31.68-72.57Z"/>
      </g>
      <g>
        <path class="cls-12" d="M78.81,154.51s-10.92-34.85,24.63-61.86c0,0,56.71-44.01,123.24-13.2,0,0,23.26,7.04,32.9,42,0,0-48.82-16.52-92.19-2.66,0,0-64.49,20.08-88.59,35.72Z"/>
        <path class="cls-21" d="M77.05,159.4l-1.24-3.95c-.12-.37-11.16-37.28,25.73-65.3.55-.43,58.87-44.73,126.29-13.63,2.71.9,25.21,9.35,34.78,44.1l1.57,5.71-5.61-1.89c-.48-.16-48.38-16.01-90.22-2.64-.66.21-64.38,20.14-87.83,35.36l-3.47,2.25ZM177.92,71.72c-41.73,0-72.14,23.1-72.54,23.42-26.76,20.32-25.99,44.85-24.44,54.4,26.35-15.23,83.01-32.96,85.53-33.75,35.56-11.36,74.03-2.97,88.38.96-9.69-27.94-28.24-34.04-29.07-34.3l-.4-.15c-16.67-7.72-32.76-10.58-47.45-10.58Z"/>
      </g>
      <g>
        <path class="cls-16" d="M140.63,76.31s31.9,13.25,26.61,40.52c0,0,31.91-10.34,57.83-2.53,0,0,5.91-35.19-30.95-48.7l-10.79-3.75-37.84,5.56-4.86,8.9Z"/>
        <path class="cls-21" d="M163.15,121.46l1.01-5.22c4.73-24.4-23.53-36.52-24.73-37.02l-3.22-1.35,7.29-13.33,40.15-5.9,11.51,4c38.91,14.27,33.08,51.82,33.02,52.19l-.59,3.52-3.42-1.03c-24.65-7.43-55.65,2.41-55.96,2.51l-5.07,1.64ZM144.97,74.94c7.73,4.11,27.04,16.53,25.96,37.58,9.41-2.44,31.37-6.96,51.35-2.22.34-8.77-1.59-31.61-29.24-41.75l-10.01-3.48-35.53,5.22-2.54,4.64Z"/>
      </g>
      <path class="cls-13" d="M148.82,70.44l35.61-4.73s33.93,7.79,38.24,41.58c0,0-17.92-2.59-40.03,1.15,0,0-8.96-30.15-33.82-38Z"/>
      <path class="cls-23" d="M163.94,68.42l20.49-2.72s29.22,1,38.24,41.58c0,0-8.49-3.93-21.47-.3,0,0-12.3-11.53-.13-25.54,0,0-.06-6.38-5.93-10.52,0,0-19.13,9.43-31.19-2.5Z"/>
      <g>
        <path class="cls-20" d="M89.44,185.4s19.41,18.13,27.68,17.33c0,0-9.29,20.2,3.82,31.87,0,0,17.13,21.32,35.47,19.9,0,0,2.16-2.91,8.83-8.85l104.24-10.22s10.96-4.47.12-9.97c0,0,21.66-24.72,2.08-42.15,0,0-5.64-11.35-1.66-23.28l-.96-9.44s-29.58-2.53-45.94-2.46c0,0-101.24,4.85-133.68,37.27Z"/>
        <path class="cls-21" d="M154.62,257.71c-18.15,0-34.06-18.61-35.97-20.93-10.93-9.93-8.04-24.63-5.82-31.54-9.52-2.93-22.63-14.83-25.54-17.54l-2.38-2.22,2.3-2.3c32.92-32.9,131.57-37.99,135.75-38.19,16.45-.02,45.14,2.37,46.36,2.47l2.6.22,1.29,12.7-.21.64c-3.07,9.19.34,18.22,1.28,20.4,15.08,13.98,7.56,32.95-.02,43.25,2.27,1.79,3.37,3.81,3.28,6.02-.19,4.69-5.75,7.19-6.86,7.64l-.42.17-103.68,10.16c-5.67,5.11-7.63,7.68-7.65,7.71l-.85,1.13-1.42.12c-.68.05-1.35.08-2.02.08ZM122.25,199.08l-2.28,4.96c-.08.18-8.13,18.25,3.05,28.21l.36.38c.15.19,15.34,18.79,31.23,18.79.09,0,.17,0,.26,0,1.25-1.43,3.8-4.14,8.27-8.12l.76-.68,104.76-10.27c1.11-.53,2.26-1.38,2.54-1.88-.16-.26-.81-1.08-3.03-2.2l-3.61-1.83,2.67-3.04c.79-.91,19.35-22.6,2.35-37.73l-.45-.4-.27-.54c-.25-.5-5.97-12.25-2.04-25.02l-.63-6.19c-7.44-.6-29.17-2.24-42.46-2.24-.2,0-.4,0-.6,0-.84.04-95.43,4.91-129.05,34.1,7.69,6.77,18.46,14.63,22.73,14.24l5.44-.52Z"/>
      </g>
      <path class="cls-22" d="M240.32,122.47c-45.44-4.62-69.39,3.13-69.39,3.13l1,3.24s41.72-6.87,68.24-2.59l.15-3.78Z"/>
      <g>
        <path class="cls-1" d="M93.72,190.81c-12.16.95-21.62,14.31-24.65,32.52q-1.75,3.33-6.69,8.28s-15.43,10.33-34.67,1.79c0,0-11.4-6.66-5.52,5.56,0,0,11.57,26.29,40.08,14.1,0,0-17.52,11.94-50.85,4.26,0,0,12.01,47.92,80.47,30.71,3.07,1.44,6.28,2.12,9.54,1.86,16.17-1.26,27.56-24.46,25.43-51.82-2.13-27.36-16.96-48.52-33.13-47.27Z"/>
        <path class="cls-21" d="M64.55,294.86c-19.89,0-32.72-6.64-40.61-13.35-12.19-10.36-15.44-22.91-15.58-23.44l-1.25-4.98,5,1.15c9.06,2.09,16.89,2.68,23.44,2.45-11.15-5.26-16.17-16.3-16.25-16.48-.96-1.99-3.62-7.52-.39-10.5,2.98-2.75,8.02-.4,10.21.86,16.18,7.09,29.4-.31,31.27-1.45,4.12-4.12,4.37-4.39,5.65-6.83,3.48-20.03,14.2-33.6,27.42-34.63,8.96-.7,17.73,4.36,24.65,14.23,6.58,9.38,10.79,22.14,11.86,35.93,1.07,13.78-1.12,27.04-6.16,37.33-5.31,10.83-13.18,17.17-22.15,17.87-3.38.26-6.76-.31-10.08-1.69-10.21,2.49-19.18,3.53-27.05,3.53ZM16.32,261.52c5.17,11.26,22.9,36.5,74.8,23.46l1.09-.27,1.02.48c2.65,1.25,5.33,1.78,7.96,1.57,6.67-.52,12.71-5.62,17-14.37,4.56-9.29,6.53-21.39,5.54-34.07-.98-12.68-4.8-24.33-10.74-32.8-5.59-7.98-12.33-12.08-19.02-11.57h0c-10.19.79-18.95,12.81-21.8,29.9l-.08.5-.23.45c-1.97,3.76-2.27,4.06-7.25,9.04l-.47.39c-.69.46-17.11,11.19-37.7,2.05l-.31-.16c-.66-.38-1.45-.75-2.14-1,.2.61.52,1.42,1.04,2.49.47,1.04,10.78,23.35,36.01,12.57l3,5.49c-.72.49-17.05,11.3-47.71,5.87Z"/>
      </g>
      <path class="cls-2" d="M98.08,204.21c-11.34.88-13.89,9.16-18.52,22.28-1.63,3.11-4.4.35-7.96,1.13,0,0-17.39,16.1-37.54,11.7,0,0-8.56-3.78.6,7.12,0,0,9.4,9.9,27.96,5.71,0,0-1.75,7.97-28.59,13.24,0,0-5.65-.32-3.95,3.24,3.92,8.22,22.89,25.11,67.42,13.92,2.86,1.35,6.42.63,9.46.39,15.08-1.17,15.77-18.37,13.79-43.87-1.98-25.51-7.61-36.02-22.68-34.84Z"/>
      <path class="cls-15" d="M278.35,234.74"/>
      <g>
        <path class="cls-5" d="M257.24,234.87c-6.74,4.31-93.01,16.9-93.01,16.9-24.46-.82-34.86-23.57-34.86-23.57-4.33-13.55-.41-24.43-.41-24.43,7.36-16.28-9.63-39.73-9.63-39.73-11.05,4.01-10.33,5.24-23.34,13.6,26.01,11.12.43,66.71.43,66.71-8.37,20.6-4.15,42.3-4.15,42.3,4.23,31.39,42.93,50.73,42.93,50.73,47.51,25.98,103.85,19.11,103.85,19.11,2.3-12.56,20.95-13.71,20.95-13.71,5.76-21.63,16.05-42.32,16.05-42.32,15.23-29.88,12.07-62.86,12.07-62.86,0,0,.32-13.58-3.78-25.67l-3.2-6.7s-2.52-1.82-2.25,1.68l-2.15,6.81s-1.69,9.77-19.48,21.14Z"/>
        <path class="cls-21" d="M221.12,360.51c-20.75,0-55.79-3.05-87.45-20.37-1.54-.77-40.07-20.37-44.52-52.98-.34-1.82-4.08-23.25,4.34-43.99.22-.48,16.29-35.84,9.25-54.1-1.59-4.12-4.21-6.91-8-8.54l-5.45-2.33,4.99-3.2c4.06-2.61,6.76-4.51,8.93-6.03,4.72-3.33,7.1-5,15.05-7.88l2.23-.81,1.39,1.92c.74,1.02,17.88,25,10.02,42.73-.32,1-3.22,10.54.42,22.13.99,2.06,10.56,20.7,31.76,21.57,41.19-6.02,87.17-13.8,91.49-16.4,16.09-10.28,18.07-18.99,18.08-19.08l.09-.36,1.98-6.29c-.02-2.57,1.15-3.79,2.17-4.37,1.79-1,3.8-.37,5.08.55l.65.47,3.68,7.77c4.02,11.84,3.98,24.79,3.95,26.57.26,3.01,2.63,34.89-12.42,64.4-.09.18-10.21,20.65-15.81,41.7l-.58,2.19-2.26.14c-.16.01-16.23,1.17-18.06,11.14l-.42,2.27-2.3.28c-.79.1-7.67.89-18.28.89ZM101.9,177.51c2.97,2.32,5.21,5.43,6.71,9.31,7.99,20.73-8.64,57.31-9.35,58.85-7.87,19.38-3.96,40.18-3.92,40.39l.03.18c3.95,29.35,40.84,48.15,41.22,48.34,41.09,22.47,89.39,19.9,99.96,19.01,3.45-10.12,15.79-12.94,20.97-13.68,5.84-20.89,15.29-40.01,15.71-40.84,14.63-28.7,11.79-60.84,11.76-61.16l-.02-.18v-.19c0-.13.25-13.06-3.55-24.42l-.72-1.5-.91,2.9c-.43,1.97-3.36,11.84-20.84,23h0c-6.96,4.44-79.73,15.24-94.25,17.36l-.28.04h-.28c-26.11-.88-37.16-24.41-37.62-25.41l-.13-.35c-4.6-14.4-.55-25.97-.38-26.45l.09-.23c5.39-11.91-4.33-28.9-8-34.63-5.31,2.05-7.15,3.35-11.27,6.25-1.37.96-2.94,2.07-4.92,3.4Z"/>
      </g>
      <polygon class="cls-22" points="89.86 156.37 78.71 162.22 79.5 164.72 90.66 159.02 89.86 156.37"/>
      <polygon class="cls-22" points="152.95 129.71 107.86 146.81 109.32 150.32 154.07 132.64 152.95 129.71"/>
      <path class="cls-22" d="M97.18,181.63l68.39-38.85,83-6,1.69,10.29s-22.09-2.81-39.39-1.47c0,0-73.85,8.91-113.69,36.03Z"/>
      <path class="cls-23" d="M171.8,180.81s8.37,8.11-.8,8.82l-1.5-.19s-2.08-3.77,2.31-8.64Z"/>
      <path class="cls-23" d="M249.73,176.56s8.99,3.68.7,9.01c0,0-5.18-5.34-.7-9.01Z"/>
      <path class="cls-15" d="M277.97,203.06"/>
      <path class="cls-2" d="M124.4,219.13s.3,33.64,48.07,38.07c0,0,42.57-30.26,83.43-15.66,0,0,14.89-5.21,23.75-28.58,0,0,.13-13.34,4.44,9.77,0,0-.47,71.71-34.03,108.05,0,0,.01-7.78-4.62-17.3,0,0-10.72,17.37-33.19,22.21,0,0,5.85-7.24,4-18.96,0,0-34.83,21.48-74.56,3.82,0,0-41.71-19.91-31.89-75.57,0,0,7.79-35.99,14.59-25.87Z"/>
      <g>
        <g>
          <path class="cls-16" d="M75.84,155.95s52.93-31,88.67-38.31c0,0,53.68-13.84,95.94,1.6l6.19,3.14,4.2,31.09s-25.54-7.08-39.2-6.62c0,0-90.41,8.24-130.45,36.72,0,0-19.89,12.08-21.47,7.11,0,0-3.15-2.78-2.66-11.27l-1.23-23.46Z"/>
          <path class="cls-21" d="M81.82,194.99c-.82,0-1.56-.11-2.2-.35-1.13-.42-2.01-1.19-2.55-2.2-1.22-1.43-3.56-5.24-3.15-13.04l-1.32-25.21,1.65-.97c2.18-1.27,53.72-31.3,89.55-38.66,3.17-.81,55.45-13.73,97.72,1.72l.34.15,7.67,3.88,5.06,37.45-4.59-1.27c-.25-.07-25.12-6.91-38.16-6.51-3.28.31-90.48,8.87-128.83,36.15l-.19.13c-5.68,3.45-15.3,8.73-21.01,8.73ZM79.08,157.71l1.14,21.71v.17c-.38,6.54,1.67,8.81,1.69,8.83l.38.33c2.65-.18,10.25-3.6,17.19-7.8,40.31-28.6,128.17-36.89,131.89-37.23h.18c10.55-.36,27.46,3.49,35.56,5.52l-3.35-24.8-4.55-2.31c-40.8-14.82-93.38-1.59-93.9-1.45l-.15.04c-31.32,6.41-76.86,31.75-86.06,36.99Z"/>
        </g>
        <path class="cls-13" d="M81.64,157.91s42.55-32.84,117.84-42.03c0,0,40.08-3.12,65.02,9.55l1.63,21s-56.52-17.81-166.61,30.93c0,0-20.07-3.92-17.88-19.46Z"/>
        <path class="cls-23" d="M163.47,122.41s43.98-17.2,101.03,3.02c0,0,6.26,24.12-4.83,17.73,0,0-7.32-2.66-6.75-12.12,0,0-36.14-16.88-92.51-2.22,0,0-13.64-2.08,3.07-6.41Z"/>
      </g>
      <g>
        <path class="cls-20" d="M107.68,196.22s-6.37-13.1-31.77-6.82c0,0-17.27,24.68-.88,40.4,0,0,13.51,13,20.68,13.34,0,0,17.13-26.48,11.97-46.92Z"/>
        <path class="cls-21" d="M97.37,246.36l-1.81-.09c-7.94-.39-20.3-11.91-22.7-14.22-14.5-13.9-6.03-35.16.48-44.46l.68-.97,1.14-.28c27.56-6.81,35.05,7.86,35.35,8.49l.22.61c5.43,21.52-11.65,48.27-12.38,49.4l-.98,1.52ZM77.85,192.17c-2.84,4.49-13.36,23.16-.64,35.36,4.63,4.45,12.35,10.56,16.95,12.11,3.54-6.08,14.32-26.36,10.58-42.25-1-1.59-7.16-9.72-26.89-5.22Z"/>
      </g>
      <path class="cls-11" d="M228.03,84.35s17.87,6.61,26.39,28.87c0,0-4.64-2.41-12.05-4.13,0,0-.32-10.37-14.34-24.74Z"/>
      <path class="cls-11" d="M163.89,110.49c0-.13,0-.25,0-.37-.82-9.59-10.54-16.59-21.73-15.64-11.18.95-19.59,9.5-18.77,19.09.27,3.23,1.57,6.15,3.58,8.58,8.15-3.67,21.78-9.01,36.93-11.66Z"/>
      <path class="cls-4" d="M146.22,225.63s-11.89-2.83.84-26.67c0,0,5.11-14.68-4.27-29.94,0,0,74.93-28.68,121.74-12.45,0,0-11.28,20.99-1.93,30.25,0,0,8.27,8.97,10.83,18.25,0,0-.04,3.2-2.73,8.92,0,0-13.44-4.82-17.74-5.24,0,0-46.66-1.49-85.93,17.08l-6.61,2.49s-8.22,1.51-14.2-2.67Z"/>
      <path class="cls-23" d="M168.99,201.08s-5.6-.14-7.27-.23c-2.04-.1-4.87-.98-5.77-3.86,0,0,1.34-19.13,13.54-22.96,6.91-2.16,19.71-2.89,22.65,15.76l.09,1.2s1.56,10.53-23.24,10.08Z"/>
      <g>
        <g>
          <path class="cls-5" d="M138.14,168.93s9.25-18.84,27.42-26.15c9.27-3.73,13.21-2.39,33.72,14.6,1.91,1.58,4.97,2.19,11.13-.41,2.66-1.13,9.08,2.01-2.23,11.5,0,0-12.04,5.92-17.41,0,0,0-21.3-15.56-35.22.47,0,0-15,14-17.41,0Z"/>
          <path class="cls-21" d="M143.71,178.29c-.91,0-1.81-.13-2.68-.42-2.2-.74-5.02-2.8-5.98-8.41l-.17-1,.45-.91c.4-.81,10-20.01,29.07-27.68,11.41-4.58,17.18-1.23,36.89,15.09,1.3,1.08,3.96.78,7.9-.89,2.4-1.02,6.05-.39,7.76,2.4,1.61,2.64,1.75,7.28-6.74,14.4l-.29.25-.34.17c-.57.28-13.91,6.72-20.87-.44-2.25-1.57-19.48-12.85-30.78.15l-.23.24c-1.4,1.31-7.91,7.06-13.98,7.06ZM141.45,169.39c.28,1.06.76,2.24,1.58,2.52,2.23.75,7.34-2.49,10.26-5.17,12.52-14.23,31.19-6.77,39.33-.81l.47.43c2.95,3.25,10.49.77,13.37-.55,3.75-3.2,4.71-5.09,4.95-5.86-3.96,1.67-9.79,3.46-14.14-.14-20.66-17.11-23.19-17.06-30.54-14.1-14.64,5.88-23.22,19.97-25.29,23.7Z"/>
        </g>
        <path class="cls-7" d="M153.09,160.32s7.2-12.36,19.89-16.41c6.47-2.07,10.3,1.51,23.38,14.11,1.22,1.17,8.49,2.61,12.8,1.15,1.86-.63,1.06,5.66-8.51,7.74,0,0-6.37,3.48-11.83-4.24,0,0-15.15-10.14-28.75-1.45,0,0-9.65,8.98-6.98-.9Z"/>
        <path class="cls-3" d="M201.73,160.16s7.04-3.8,9.04.68c0,0-2.04,8.15-14.51,7.4,0,0-7.39-2.24-3.31-4.45,0,0,3.67.78,8.3-.31,0,0,3.58-.91.48-3.32Z"/>
      </g>
      <path class="cls-21" d="M155.95,196.99c-.64-2.74-.71-5.58-.49-8.43.26-2.85.95-5.75,2.39-8.52.69-1.39,1.68-2.7,2.83-3.89,1.26-1.22,2.42-2,3.74-2.84,2.6-1.57,5.52-2.77,8.69-3.2,3.16-.43,6.52-.06,9.5,1.16l2.15,1.05c.69.38,1.3.86,1.94,1.29.32.24.6.38,1.05.78.35.31.64.61.92.92.54.62,1.02,1.26,1.44,1.92,3.35,5.32,3.77,11.49,2.54,16.9-.73-2.71-1.45-5.3-2.53-7.67-1.04-2.37-2.36-4.53-3.95-6.24-.39-.43-.81-.82-1.22-1.17-.21-.17-.41-.34-.59-.45-.07-.05-.41-.2-.65-.34-.53-.26-1.04-.56-1.56-.8l-1.59-.6c-2.14-.66-4.35-.84-6.58-.53-2.24.27-4.48,1.09-6.63,2.15-1.04.52-2.19,1.21-2.98,1.78-.81.69-1.65,1.43-2.34,2.39-1.45,1.85-2.61,4.15-3.57,6.59-1.01,2.44-1.76,5.04-2.5,7.74Z"/>
      <path class="cls-23" d="M268.38,156.69s-9.1,14.79,3.18,31.09c0,0,10.4,6.52,1.26,29.18l-6.87-.12s5.65-19.37-4.29-32.14c0,0-8.92-14.73,2.44-27.98l4.27-.03Z"/>
      <path class="cls-23" d="M237.68,182.33c-.53-6.8,11.47-20.83,24.95-8.28,0,0,9.71,10.12-.67,18.18,0,0-9.37,1.94-14.47,1.43,0,0-8.9.39-9.81-11.32Z"/>
      <path class="cls-21" d="M233.14,190.99c-.66-2.65-.79-5.39-.66-8.16.18-2.76.69-5.58,1.94-8.32.63-1.36,1.41-2.72,2.51-3.93,1.15-1.33,2.28-2.12,3.52-3.01,2.49-1.63,5.33-2.91,8.48-3.35,3.14-.44,6.49.05,9.35,1.4.69.37,1.41.71,2.05,1.13.62.44,1.23.9,1.83,1.35,1.51,1.22,2.26,2.46,3.05,3.78,2.91,5.3,3.17,11.2,1.98,16.45-1.4-5.21-3.12-10.14-6.08-13.7-.36-.44-.74-.86-1.13-1.22-.4-.37-.75-.71-1.09-.85-.5-.27-.99-.54-1.46-.84-.49-.25-1-.41-1.49-.63-1.99-.73-4.04-.96-6.13-.66-2.09.25-4.2,1.11-6.22,2.18-.97.55-2.06,1.23-2.71,1.83-.39.34-.77.69-1.11,1.12-.38.38-.7.85-1.03,1.32-1.33,1.87-2.34,4.17-3.24,6.56-.93,2.4-1.62,4.93-2.35,7.54Z"/>
      <g>
        <g>
          <path class="cls-1" d="M274.75,220.99s16.89,4.38-3.04,16.4c0,0,14,6.21,16.05,15.97.91,4.36,2.56,12.79,7.79,14.12,0,0,16.1-5.33,4.79,4.16,0,0-12.25,20.44-39.64,12.6,0,0-12.32-6.29-16.13-18l-5.55-25.4-2.88-1.49-3.86-.68-2.33,1.37-3.99,2.27s-9.71,32.51-15.35,37.9c-7.52,7.17-30.81,19.32-36.14,20.25-11.8,2.07-37.2,3.8-46.29-12.71,0,0-11.18-17.48,1.55-8.73,0,0,4.4,4.87,12.98,3.3,0,0,1.18-3.75,7.2-16.42,1.86-3.91,5.66-7.53,12.71-11.64,3.18-1.85,9.09-4.58,11.48-9.29,0,0-3.7-2.65-10.75-1.42,0,0-6.26-.57,5.96-9.53,6.26-4.59,18.77-11.2,40.17-11.51l9.05,1.56s13.79,15.92,22.25-.82c.56-1.11,3.41-2.08,3.41-2.08,0,0,8.4-6.72,26.76-1.25l3.8,1.06Z"/>
          <path class="cls-21" d="M160.02,304.86c-12.2,0-27.48-2.82-34.54-15.51-7.25-11.38-4.77-13.78-3.71-14.8,2.92-2.82,7.53.35,9.75,1.87l.31.21.25.27c.1.1,2.9,2.93,8.36,2.53.9-2.28,2.81-6.81,6.65-14.9,2.21-4.65,6.52-8.66,13.96-13,.46-.27.98-.56,1.54-.87,1.98-1.1,4.44-2.46,6.35-4.18-1.3-.18-2.98-.2-5.04.15l-.41.07-.41-.04c-1.59-.15-3.67-1.12-4.3-3.37-.89-3.22,1.62-6.64,8.68-11.82,7.31-5.36,20.52-11.81,41.98-12.11h.29s10.44,1.8,10.44,1.8l.73.85c1.54,1.77,6.49,6.23,10.72,5.71,2.39-.3,4.53-2.28,6.35-5.89.87-1.72,2.98-2.82,4.76-3.48,2.24-1.49,11.69-6.63,29.11-1.44l3.72,1.04c.97.26,8.1,2.32,8.93,8.01.53,3.63-1.68,7.3-6.74,11.14,4.76,2.96,11.55,8.34,13.07,15.61l.06.3c.61,2.94,1.99,9.54,4.75,11.14,9.31-2.86,10.75-.28,11.38.85,1.86,3.34-1.83,6.65-4.32,8.75-2.25,3.27-16,21.19-42.87,13.5l-.57-.22c-.55-.28-13.52-7.03-17.69-19.83l-.08-.3-5.23-23.96-1.14-.59-2.25-.39-4.27,2.45c-2.3,7.59-10.24,32.73-15.83,38.06-7.97,7.6-31.74,20.02-37.77,21.08-3.06.54-8.61,1.31-15,1.31ZM128.61,282.19c.65,1.24,1.42,2.59,2.23,3.85l.1.18c8.7,15.8,35.11,12.51,43,11.13,4.52-.79,27.27-12.52,34.51-19.43,3.67-3.5,10.85-24.26,14.51-36.52l.36-1.21,8.36-4.82,5.48.96,4.61,2.4,5.83,26.68c3.12,9.35,12.63,14.98,14.28,15.9,23.49,6.55,34.66-9.59,35.68-11.16-.35.1-.69.21-1.03.32l-.87.29-.89-.23c-7.02-1.78-8.98-11.18-10.03-16.23l-.06-.29c-1.4-6.71-10.76-12.19-14.24-13.74l-5.52-2.45,5.17-3.12c6.76-4.08,8.33-6.84,8.19-7.82-.15-1.09-2.63-2.39-4.33-2.85l-3.85-1.08c-16.34-4.87-23.68.47-23.98.7l-.4.3-.51.19c-.63.22-1.42.59-1.78.83-2.81,5.4-6.53,8.43-11.04,8.98-7.04.87-13.22-4.69-15.44-6.97l-7.71-1.33c-19.63.33-31.53,6.1-38.07,10.89-2.02,1.48-3.39,2.64-4.33,3.52.05,0,.11,0,.16,0,5.48,0,8.54,2.05,8.94,2.33l2.2,1.57-1.22,2.41c-2.49,4.91-7.78,7.84-11.28,9.78-.51.29-1,.55-1.42.8-6.2,3.61-9.84,6.88-11.45,10.27-5.77,12.15-7.04,15.99-7.05,16.03l-.58,1.79-1.85.35c-7.57,1.39-12.54-1.52-14.68-3.2ZM243.31,225.07h0s0,0,0,0Z"/>
        </g>
        <path class="cls-2" d="M216.3,226.51s-20.29,1.62-32.12,10.11c0,0-9.11,2.17,9.92,4.67,0,0-23.99,12.07-35.45,35.87,0,0-9.76,12.92-27.06,8.57,0,0-4.14,3.31,11.49,9.73,0,0,8.07,4.12,29.78,1.31,0,0,18.55-5.85,32.71-18.45,0,0,5.07-3.45,16.86-35.75,0,0,16.89-14.23,26.1,14.16,0,0,5.2,21.32,23.41,21.72,0,0,6.1.69,17.9-4.87,0,0,.86-2.17-8.07-5.16,0,0-3.06-12.24-6.34-18.94,0,0-4.15-8.52-14.35-11.29,0,0,10.86-5.71,13.18-10.4,0,0-3.26-3.45-19.6-5.12,0,0-25.33,1.53-38.35,3.83Z"/>
        <path class="cls-23" d="M222.43,242.57s-5.48,21.67-13.77,35.51c0,0-21.72,16.33-35.8,18.69,0,0-4.99-4.14,5.25-9.92,0,0,15.14-5.96,24.53-17.21,0,0,9.92-11.39,13.3-24.75,0,0,3.5-6.53,6.14-6.75,0,0,1.85-.95.34,4.44Z"/>
        <path class="cls-23" d="M242.45,224.59s7.5-9.65,30.56-1.2c0,0,10.6,3.1-2.53,10.94l-4.62,4.19s6.16-1.64,16.9,11.92c0,0,2.35,19.46,11.16,18.97,0,0,8.72-4.17.29,3.68,0,0-11.35,5.42-17.26-5.13,0,0-3.97-23.97-17.62-31.08,0,0,16.65-8.03,9.33-9.84,0,0-17.48-7.38-26.19-2.46Z"/>
      </g>
      <g>
        <g>
          <path class="cls-20" d="M234.35,157.68s-8.29,14.22,1.29,24.74c0,0,10.28,12.16,14.29,23.98,0,0,9.3,21.47-4.18,28.89,0,0-12.24,4.91-25.07-1.95,0,0-6.1-3.66-16.51,1.21,0,0-16.16.52-11.42-14.16,0,0,6.62-14.01,21.76-13.04"/>
          <path class="cls-21" d="M234.35,157.68c-1.66,4.23-2.48,8.77-2.03,13.04.21,2.13.79,4.16,1.73,5.97.47.91,1.05,1.74,1.64,2.55.33.39.62.78,1,1.15l.54.56.63.69c3.12,3.48,6.01,7.11,8.58,11.03,2.58,3.91,4.97,8.03,6.7,12.64l-.1-.26c1.22,2.79,2.08,5.38,2.75,8.23.65,2.81,1.07,5.73,1.02,8.79-.06,3.04-.6,6.29-2.12,9.35-.77,1.52-1.78,2.95-2.99,4.21-1.22,1.24-2.62,2.25-4.07,3.09l-.2.12-.23.09c-1.22.46-2.07.69-3.09.95-.98.24-1.97.43-2.96.58-1.98.3-3.98.44-5.98.42-4-.04-8.02-.81-11.78-2.23-.94-.35-1.86-.77-2.76-1.21-.44-.2-.93-.48-1.39-.72l-.35-.19-.09-.05c-.1-.05-.21-.11-.35-.16-1.09-.47-2.52-.72-3.95-.77-2.9-.12-5.99.67-8.99,1.87l-.76.31h-.48c-1.28-.03-2.22-.15-3.32-.34-1.06-.19-2.11-.45-3.16-.81-2.08-.72-4.24-1.87-5.9-3.79-1.69-1.9-2.49-4.53-2.46-6.8,0-2.31.53-4.39,1.25-6.29l.09-.24v-.03c1.32-2.28,2.79-4.04,4.53-5.73,1.72-1.66,3.64-3.1,5.73-4.23,2.1-1.11,4.36-1.86,6.66-2.24,2.3-.36,4.62-.3,6.83.09-2.25.13-4.45.52-6.5,1.25-2.06.71-3.95,1.76-5.63,3.05-1.7,1.27-3.2,2.78-4.48,4.44-1.25,1.64-2.44,3.53-3.17,5.24l.1-.26c-.43,1.63-.62,3.27-.45,4.68.15,1.44.73,2.51,1.57,3.35.86.84,2.13,1.46,3.59,1.83.73.19,1.5.31,2.28.39.75.07,1.66.1,2.25.06l-1.24.3c3.49-1.78,7.43-3.06,11.71-3.17,2.15-.05,4.32.21,6.58,1.02.28.1.58.23.89.37l.51.26.25.12c.34.15.64.31,1.02.47.72.32,1.46.6,2.2.85,2.96,1.04,6.1,1.51,9.26,1.52,1.58,0,3.16-.13,4.72-.38.78-.12,1.55-.28,2.3-.47.71-.17,1.59-.43,2.05-.59l-.43.2c.85-.49,1.63-1.04,2.29-1.69.64-.67,1.18-1.42,1.64-2.26.9-1.69,1.38-3.81,1.48-6.07.11-2.26-.09-4.67-.55-7.06-.45-2.36-1.11-4.89-1.9-7.02l-.1-.26c-1.27-3.98-3.05-7.98-5.2-11.82-2.16-3.83-4.51-7.64-7.09-11.25l-.45-.63-.56-.73c-.38-.47-.71-1.04-1.06-1.56-.65-1.09-1.18-2.25-1.6-3.43-.82-2.38-1.13-4.88-1.02-7.29.3-4.83,2.02-9.33,4.61-13.1Z"/>
        </g>
        <path class="cls-4" d="M226.95,170.89s-3.36,9.79,7.71,27.09c0,0,8.07,13.22-.28,26.3,0,0-1.87-1.57-12.35-3.66,0,0-12.48-4.25-19.62,3.15,0,0-6.54,5.62-7.61-1.9,0,0,2.17-10.35,12.02-11.56l7.22-3.87s4.78-21.19,12.91-35.53Z"/>
        <path class="cls-3" d="M229.94,165.12s-3.99,6.29,6.91,22.11c0,0,15.77,15.89,10.89,37.19,0,0-6.24,2.22-13.54-1.7,0,0,10.78-9.55-3.09-30.95,0,0-8.59-14.68-1.17-26.65Z"/>
      </g>
      <g>
        <path class="cls-21" d="M187.31,186.62c1.69,5.05-.8,10.47-5.56,12.09-4.75,1.62-9.97-1.16-11.66-6.21-1.68-5.05.8-10.47,5.56-12.09,4.75-1.62,9.97,1.16,11.66,6.21Z"/>
        <path class="cls-23" d="M169.86,193.83c-.63-1.89.27-3.91,2.01-4.5,1.74-.59,3.66.46,4.29,2.35.63,1.89-.27,3.91-2.01,4.5-1.74.59-3.66-.46-4.29-2.35Z"/>
      </g>
      <g>
        <path class="cls-21" d="M263.66,179.94c1.53,4.59-.73,9.5-5.04,10.97-4.31,1.47-9.05-1.05-10.58-5.64-1.53-4.59.73-9.5,5.04-10.97,4.31-1.47,9.05,1.05,10.58,5.64Z"/>
        <path class="cls-23" d="M247.83,186.48c-.57-1.72.24-3.54,1.82-4.08s3.32.41,3.9,2.13c.57,1.72-.24,3.54-1.82,4.08-1.58.54-3.32-.42-3.9-2.13Z"/>
      </g>
      <path class="cls-4" d="M105.15,198.03s-7.07-8.5-18.91-3.84c0,0-15.85,19.84,12.23,37.64,0,0,10.63-19.34,6.68-33.8Z"/>
      <g>
        <path class="cls-21" d="M81.43,205.49c1.68-2.06,4.11-3.45,6.85-4.16,1.38-.32,2.83-.41,4.28-.3.74.01,1.42.22,2.13.37.35.08.72.15,1.06.25l1,.37c1.39.46,2.65,1.07,3.96,1.71,1.24.69,2.29,1.64,3.18,2.71.78,1.14,1.51,2.31,2,3.61.43,1.33.78,2.69.78,4.21l-.52.36c-1.49-.47-2.64-1.1-3.71-1.76-1.08-.64-2.11-1.23-2.99-1.96-1.93-1.15-3.03-3.22-4.88-4.34-1.78-1.16-3.79-1.96-5.99-2.1-2.2-.21-4.6.36-6.74,1.49l-.43-.46Z"/>
        <path class="cls-21" d="M99.08,207.72c-1.04.26-2.36.87-3.47,1.49-1.13.65-2.22,1.4-3.1,2.34-.88.93-1.59,2.03-1.99,3.32-.41,1.3-.31,2.74-.03,4.2-.75-1.25-1.45-2.7-1.53-4.34-.11-1.62.24-3.31.9-4.86.66-1.55,1.61-2.94,2.66-4.22,1.11-1.29,2.17-2.4,3.7-3.53l2.87,5.59Z"/>
      </g>
      <g>
        <g>
          <path class="cls-12" d="M241.88,359.96s-3.56-16.2,16.28-19.85l9.5,9.86s-18.65,7.03-16.27,19.87l-9.52-9.89Z"/>
          <path class="cls-21" d="M256.4,379.57l-17.4-18.07-.19-.87c-.07-.31-1.61-7.64,2.8-14.29,3.2-4.82,8.58-7.96,15.97-9.32l1.66-.3,13.99,14.51-4.47,1.68c-.16.06-16.16,6.27-14.29,16.36l1.91,10.3ZM244.85,358.51l4,4.16c2.31-6.73,9.03-11.29,13.5-13.68l-5.25-5.44c-4.77,1.14-8.2,3.23-10.21,6.21-2.26,3.36-2.2,7.14-2.05,8.75Z"/>
        </g>
        <g>
          <path class="cls-5" d="M268.17,351.06s13.86,7.34,35.67,0c0,0-2.61,34.44-21.21,51.41,0,0-24.63-12.11-30.15-33.8,0,0,.08-9.67,12.45-15.43l3.24-2.18Z"/>
          <path class="cls-21" d="M283.17,406.23l-1.92-.94c-1.06-.52-26-13.01-31.81-35.84l-.1-.39v-.41c0-.47.26-11.61,14.04-18.15l4.6-3.09,1.65.87c.25.13,13.19,6.54,33.21-.2l4.5-1.51-.36,4.73c-.11,1.46-2.92,35.89-22.22,53.5l-1.58,1.44ZM255.65,368.36c4.41,16.32,20.83,26.99,26.46,30.24,12.3-12.6,16.66-33.84,18.03-43.16-16.08,4.2-27.44.86-31.66-.8l-2.23,1.45c-9.2,4.29-10.44,10.74-10.61,12.27Z"/>
        </g>
        <g>
          <path class="cls-2" d="M282.89,403.02s11.92,8.72,14.43-6.97c0,0,.75-4.38,9.06-8.25l1.39-9.67s12.1,2.95,3.81-14.09c0,0,4.62-9.05-5.6-14.27,0,0-13.78-1.09-12.52,14.73l-4.13,7.64s8.2,10.12-6.68,13.36c0,0-6.43.94.25,17.51Z"/>
          <path class="cls-21" d="M289.68,408.59c-4.35,0-8.12-2.65-8.64-3.03l-.72-.53-.34-.83c-3.53-8.76-4.19-14.87-2.02-18.65,1.12-1.95,2.81-2.88,4.08-3.12,3.52-.78,5.74-2.02,6.26-3.5.61-1.75-.98-4.27-1.41-4.8l-1.32-1.63,4.7-8.69c-.26-5.54,1.14-9.9,4.19-12.95,4.71-4.71,11.49-4.23,11.77-4.21l.62.05.56.28c9.33,4.77,8.96,12.81,7.6,16.97,3.13,6.89,3.45,11.75.97,14.82-1.54,1.91-3.69,2.54-5.5,2.68l-1.22,8.49-1.54.72c-5.94,2.77-7.16,5.61-7.3,6.03l.02-.13s-.01.1-.02.14c0,.02-.01.04-.01.04v.07c-.99,5.84-3.36,9.56-7.05,11.08-1.23.5-2.47.71-3.66.71ZM285.44,400.93c1.35.78,3.81,1.85,5.52,1.14,1.53-.64,2.69-2.95,3.26-6.51.17-.98,1.36-5.66,9.29-9.83l1.64-11.46,3.37.82c.89.2,2.25.13,2.57-.27.01-.02,1.34-1.84-2.33-9.39l-.68-1.41.71-1.4c.49-1,2.58-6.16-3.62-9.71-1.24.04-4.25.35-6.3,2.42-1.84,1.86-2.6,4.87-2.28,8.92l.07.93-3.68,6.81c1.15,2.03,2.49,5.45,1.24,9.02-1.3,3.69-4.9,6.23-10.72,7.53-.26.35-1.72,2.93,1.94,12.39Z"/>
        </g>
        <path class="cls-8" d="M256.55,340.86s-7.6,2.27-10.33,7.69c0,0,2.91,8.78,16.38-1.49l-6.05-6.2Z"/>
        <path class="cls-2" d="M261.07,360.4s4.02,9.24,11.23,15.91c0,0,7.78,1.83,3.59-3.87,0,0,3.25,2.7,8.72,2.02,0,0,.9-5.28,5.81-10.78,0,0-2.24-.82.61-5.72,0,0-15.76.37-21.33-3.63,0,0-4.77-1.1-8.63,6.07Z"/>
      </g>
      <g>
        <g>
          <path class="cls-5" d="M246.11,151.02s-3.4,3.79-7.3,3.77c-1.69,0-3.5-2.87-6.76-.86,0,0-4.01,11.64,10.26,11.44,0,0,7.51-1.04,9.92-4.4,0,0,4.02-5.75,13.88-5.16,0,0,13.66,3.47,10.19-6.68,0,0-5.07-18.37-20.7-7.91,0,0-5.35,5.85-9.5,9.8Z"/>
          <path class="cls-21" d="M241.95,168.5c-5.44,0-9.35-1.58-11.61-4.7-3.3-4.56-1.48-10.27-1.26-10.9l.37-1.06.96-.59c3.75-2.31,6.73-.66,8.16.12.17.1.33.19.49.27,2.01-.14,4.21-2.16,4.71-2.72l.17-.18c4.03-3.82,9.3-9.59,9.35-9.64l.26-.28.32-.21c5.46-3.66,10.54-4.65,15.08-2.97,7.28,2.71,10.05,11.44,10.37,12.54,1.54,4.57.26,7.26-1.08,8.72-3.5,3.8-10.52,2.5-12.57,2.03-7.65-.37-10.74,3.7-10.87,3.87-3.05,4.24-10.57,5.47-12.04,5.67l-.39.03c-.14,0-.27,0-.41,0ZM234.73,156.46c-.12,1.1-.08,2.59.72,3.68,1.27,1.73,4.2,2.08,6.62,2.08,2.51-.38,6.54-1.6,7.62-3.09.18-.26,5.13-7.14,16.62-6.46l.58.09c2.71.68,6.04.62,6.72-.12.12-.13.3-.83-.27-2.5l-.06-.18c-.53-1.86-2.74-7.03-6.55-8.43-2.47-.91-5.52-.2-9.07,2.1-1.14,1.24-5.62,6.08-9.31,9.59-.76.82-4.63,4.7-9.56,4.71-1.36,0-2.41-.59-3.26-1.05-.36-.2-.61-.33-.81-.42ZM239.2,151.69h0Z"/>
        </g>
        <path class="cls-7" d="M253.98,147.08s-4.19,4.4-8.33,9.01c0,0-4.38,2.55,3.86,3.24,0,0,7.79-2.4,9.33-4.72,0,0,2.34-2.04,8-1.03,0,0,6.32,1.53,4.78-6.12,0,0-4.43-9.28-11.59-5.2,0,0-2.64.23-6.06,4.84Z"/>
        <path class="cls-3" d="M266.98,141.05s6.21-.6,6.94,10.77c0,0-2.85,4.55-6.86.74,0,0,3.04-11.87-9.43-9.05,0,0,7.93-4.5,9.35-2.46Z"/>
      </g>
      <g>
        <g>
          <path class="cls-16" d="M118.56,83.3s-29.9,5.14-69.21-33.9c0,0-5.57-6.23-10.18-5.37-4.61.86-8.25,8.8-5.11,27.78,0,0,10.65,50.24,57.91,67.78,0,0,29.67,3.2,39.09-25.04,0,0,9.25-20.36-12.49-31.24Z"/>
          <path class="cls-21" d="M94.36,142.81c-1.67,0-2.67-.1-2.73-.1l-.39-.04-.37-.14c-48.33-17.94-59.44-67.96-59.89-70.08-4.36-26.37,3.87-30.82,7.61-31.52,5.91-1.1,11.75,4.89,13.03,6.29,37.69,37.4,66.12,33.02,66.4,32.98l1.02-.18.92.46c22.98,11.49,14.97,32.86,14.03,35.16-8.39,24.95-31.65,27.17-39.64,27.17ZM92.67,136.49c3.4.26,27.36,1.17,35.4-22.94l.12-.31c.31-.7,7.44-17.27-10.21-26.71-5.99.58-34.58,1.11-70.85-34.91l-.13-.13c-1.85-2.05-5.42-4.73-7.26-4.38-1.66.31-5.69,5.41-2.59,24.18.08.34,10.83,48.36,55.51,65.2Z"/>
        </g>
        <path class="cls-13" d="M43.69,49.11s29.89,37.37,77.77,40.12c0,0,15.19,15.95-.11,35.72,0,0-14.95-7.8-26.22,2.98,0,0-28.07-7.17-35.2-29.21,0,0,6.95-9.08-9.59-14.14,0,0-8.2-12.39-10.43-24.25,0,0-1.88-17.39,3.77-11.23Z"/>
        <path class="cls-23" d="M121.46,89.23s9.27,5.63,6.12,24.01c0,0-71.82-8.5-86.01-61.61,0,0-.83-7.13,7.47,3.28,0,0,31.65,33.37,72.43,34.32Z"/>
      </g>
    </g>
  </g>
</svg>