<?xml version="1.0" encoding="UTF-8"?>
<svg id="Layer_1" data-name="Layer 1" xmlns="http://www.w3.org/2000/svg" version="1.1" viewBox="0 0 150 150">
  <defs>
    <style>
      .cls-1 {
        fill: #fccba9;
      }

      .cls-1, .cls-2, .cls-3, .cls-4, .cls-5, .cls-6, .cls-7, .cls-8, .cls-9, .cls-10, .cls-11, .cls-12, .cls-13, .cls-14, .cls-15, .cls-16, .cls-17, .cls-18, .cls-19, .cls-20, .cls-21, .cls-22, .cls-23, .cls-24, .cls-25, .cls-26, .cls-27 {
        stroke-width: 0px;
      }

      .cls-2 {
        fill: #e88b62;
      }

      .cls-3 {
        fill: #f7d581;
      }

      .cls-4 {
        fill: #f3e0d8;
      }

      .cls-5 {
        fill: #2e5d2d;
      }

      .cls-6 {
        fill: #9585ac;
      }

      .cls-7 {
        fill: #654c47;
      }

      .cls-8 {
        fill: #cd1e55;
      }

      .cls-9 {
        fill: #53a046;
      }

      .cls-10 {
        fill: #fae6a8;
      }

      .cls-11 {
        fill: #382823;
      }

      .cls-12 {
        fill: #bb684f;
      }

      .cls-13 {
        fill: #1b2519;
      }

      .cls-14 {
        fill: #c7725d;
      }

      .cls-15 {
        fill: #693b58;
      }

      .cls-16 {
        fill: #ccc7ca;
      }

      .cls-17 {
        fill: #ee353f;
      }

      .cls-28 {
        opacity: .64;
      }

      .cls-29 {
        opacity: .85;
      }

      .cls-30 {
        opacity: .78;
      }

      .cls-18 {
        fill: #2b1e1a;
      }

      .cls-19 {
        fill: #0f2824;
      }

      .cls-20 {
        fill: #fbe4a9;
      }

      .cls-21 {
        fill: #eaa498;
      }

      .cls-22 {
        fill: #1d1514;
      }

      .cls-23 {
        fill: #97424d;
      }

      .cls-24 {
        fill: #f4966e;
      }

      .cls-25 {
        fill: #fff;
      }

      .cls-26 {
        fill: #6a5b65;
      }

      .cls-27 {
        fill: #f0759b;
      }
    </style>
  </defs>
  <g>
    <g>
      <path class="cls-21" d="M79.1,104.32s-.07,2.32-.46,4.46c0,0-.52,1.77.87,2.09,0,0,6.28.13,6.67.13,0,0,1.28.01,1.68-.31,0,0,.86-1.3-2.28-3.26l-.85-.69,2.06-8.34-7.4-.6-.29,6.53h0Z"/>
      <path class="cls-15" d="M86.24,111.44h-.09c-.51,0-6.4-.13-6.65-.13h-.09c-.47-.12-.83-.38-1.05-.76-.43-.74-.2-1.69-.15-1.88.38-2.08.45-4.35.45-4.37h0l.31-7,8.38.69-2.12,8.58.61.5c1.48.93,2.33,1.87,2.53,2.78.14.63-.09,1.02-.14,1.09l-.04.06-.05.04c-.45.37-1.49.41-1.89.41h-.01ZM86.17,110.55c.52,0,1.1-.07,1.33-.17.05-.24.09-1.17-2.16-2.58l-.04-.03-1.07-.87,2-8.11-6.41-.52-.27,6.07c0,.13-.08,2.39-.47,4.52v.05c-.07.21-.18.83.05,1.21.09.16.23.26.44.32,2.19.05,6.31.13,6.6.13v-.02Z"/>
    </g>
    <path class="cls-1" d="M82.1,102.62v4.2s.94-.43,2.06-.24l1.41-5.22s-2.85-1.77-3.47,1.26Z"/>
    <path class="cls-1" d="M87.46,109.64s-1.69-2.16-2.98-2.11c0,0-2.85-.51-3.82,1.96,0,0-.48,1.16,5.81.81,0,0,1.37-.12.98-.67h0Z"/>
    <g>
      <path class="cls-23" d="M87.44,112.09l-8.22.07c-.44,0-.81-.36-.82-.8h0c0-.45.36-.81.8-.82l8.22-.07c.44,0,.81.36.82.8h0c0,.44-.36.81-.8.82Z"/>
      <path class="cls-15" d="M79.08,112.5c-.26,0-.51-.1-.7-.29-.19-.19-.3-.44-.3-.71v-.28c0-.55.44-1.01.99-1.01l8.49-.07h0c.26,0,.51.1.7.29.19.19.3.44.3.71v.28c0,.55-.44,1.01-.99,1.01h0l-8.49.07h0ZM87.57,110.81h0l-8.49.07c-.19,0-.34.15-.33.34v.28c0,.09.04.17.1.24.06.06.15.09.24.1l8.49-.07h0c.19,0,.34-.15.33-.34v-.28c0-.09-.04-.17-.1-.24-.06-.06-.15-.1-.24-.1Z"/>
    </g>
    <g>
      <g>
        <path class="cls-14" d="M78.66,107.26s2.67.38,3.68,3.2h-1.84s.31-1.18-2.07-1.84l.22-1.36h0Z"/>
        <path class="cls-15" d="M80.07,110.81l.11-.42s.16-.9-1.84-1.45l-.29-.08.33-1.97.32.05c.12.02,2.88.44,3.95,3.41l.16.44s-2.74.02-2.74.02ZM78.81,108.38c1.57.5,1.95,1.28,2.03,1.75h1.01c-.8-1.72-2.27-2.29-2.91-2.47l-.12.72h0Z"/>
      </g>
      <g>
        <path class="cls-14" d="M85.83,107.54s-2.03.09-2.99,2.92h1.83s.12-1.21,2.49-1.9l-1.34-1.02h0Z"/>
        <path class="cls-15" d="M82.37,110.79l.15-.45c1.03-3.02,3.2-3.14,3.29-3.15h.12l1.96,1.49-.64.19c-2.08.61-2.25,1.6-2.25,1.61l-.04.28h-.29l-2.31.03h.01ZM85.73,107.88c-.38.06-1.63.4-2.41,2.23h1.1c.16-.41.65-1.14,2.04-1.68l-.73-.55Z"/>
      </g>
    </g>
  </g>
  <g>
    <g>
      <path class="cls-21" d="M81.05,89s2.97,3.34,7.78,5.35c0,0,.44-4.3,3.5-5.79,0,0-3.2-1.8-5.78-3.39-.92-.57-1.3-3.67-2.13-5.6-.96-2.24-5.63-2.37-5.77,1.49-.02.53.04,4.99,2.41,7.94h0Z"/>
      <path class="cls-15" d="M89.21,94.99l-.55-.23c-4.85-2.02-7.81-5.33-7.94-5.47v-.02c-2.63-3.26-2.52-8.19-2.52-8.24.07-1.84,1.1-3.12,2.77-3.43,1.64-.3,3.29.46,3.86,1.78.33.77.58,1.69.83,2.58.32,1.14.71,2.56,1.12,2.82,2.55,1.57,5.74,3.36,5.77,3.38l.74.42-.76.37c-2.81,1.37-3.25,5.4-3.25,5.44l-.06.6h-.01ZM81.39,88.71c.15.17,2.84,3.09,7.08,5,.22-1.16.93-3.74,2.96-5.15-1.08-.62-3.27-1.88-5.13-3.02-.72-.44-1.09-1.78-1.52-3.34-.24-.86-.49-1.76-.79-2.47-.4-.93-1.66-1.48-2.88-1.25-.59.11-1.96.58-2.04,2.58,0,.05-.1,4.63,2.3,7.64h.02Z"/>
    </g>
    <g>
      <path class="cls-23" d="M84.98,92.57s-.03-4.02,3.73-6.25l4.91,2.45s-3.65,1.88-4.1,6.49c0,0-3.35-1.84-4.55-2.7h0Z"/>
      <path class="cls-15" d="M89.91,95.99l-.59-.32c-.14-.08-3.39-1.86-4.59-2.73l-.18-.13v-.23c0-.17,0-4.3,3.95-6.63l.21-.12,5.92,2.95-.78.4c-.14.07-3.44,1.84-3.86,6.14l-.07.67h-.01ZM85.44,92.35c.95.65,2.8,1.69,3.74,2.22.53-3.17,2.48-4.97,3.55-5.74l-3.99-1.99c-2.82,1.8-3.24,4.69-3.3,5.51Z"/>
    </g>
    <path class="cls-14" d="M88.71,86.94s-4.81,3.27.32,6.56c0,0,.39-2.67,3.55-4.56l-3.87-2Z"/>
    <g>
      <path class="cls-15" d="M89.2,89.25c.1.22.16.45.21.67.04.23.07.45.08.68,0,.23,0,.45,0,.68-.02.23-.06.46-.14.69-.11-.22-.16-.45-.21-.67-.04-.23-.07-.45-.08-.68,0-.23,0-.45,0-.68.02-.23.06-.46.14-.69Z"/>
      <path class="cls-15" d="M87.94,91.36c.16-.19.34-.34.52-.48.19-.14.38-.26.58-.37s.41-.2.63-.28c.22-.08.44-.14.69-.17-.16.19-.34.34-.52.48-.19.14-.38.26-.58.36-.2.11-.41.2-.63.28-.22.08-.44.14-.69.17h0Z"/>
    </g>
    <g>
      <path class="cls-15" d="M87.59,88.41c.1.22.16.45.21.67.04.23.07.45.08.68,0,.23,0,.45,0,.68-.02.23-.06.46-.14.69-.11-.22-.16-.45-.21-.67-.04-.22-.07-.45-.08-.68s0-.45,0-.68c.02-.23.06-.46.14-.69Z"/>
      <path class="cls-15" d="M86.34,90.52c.16-.19.34-.34.52-.48.19-.14.38-.26.58-.37s.41-.2.63-.28c.22-.08.44-.14.69-.17-.16.19-.34.34-.52.48-.19.14-.38.26-.58.36-.2.11-.41.2-.63.28-.22.08-.44.14-.69.17h0Z"/>
    </g>
    <path class="cls-1" d="M83.49,79.37s-1.73-1.51-2.62,2.64c0,0,.33,3.22,1.99,5.38,0,0,1.03,1.02,1.72,1.43,0,0,.91-1.71,3.14-2.37,0,0-1.61-.85-1.89-1.27,0,0-.99-2.38-1.52-4.41,0,0-.2-1.13-.82-1.39h0Z"/>
  </g>
  <g>
    <g>
      <path class="cls-21" d="M63.95,104.32s-.07,2.32-.46,4.46c0,0-.52,1.77.87,2.09,0,0,6.28.13,6.67.13,0,0,1.28.01,1.68-.31,0,0,.86-1.3-2.28-3.26l-.85-.69,2.06-8.34-7.4-.6-.29,6.53h0Z"/>
      <path class="cls-15" d="M71.09,111.44h-.09c-.51,0-6.4-.13-6.65-.13h-.09c-.47-.12-.83-.38-1.05-.76-.43-.74-.2-1.69-.15-1.88.38-2.08.45-4.35.45-4.37h0l.31-7,8.38.69-2.12,8.58.61.5c1.48.93,2.33,1.87,2.53,2.78.14.63-.09,1.02-.14,1.09l-.04.06-.05.04c-.45.37-1.49.41-1.89.41h-.01ZM71.02,110.55c.53,0,1.1-.07,1.33-.17.05-.24.09-1.17-2.16-2.58l-.04-.03-1.07-.87,2-8.11-6.41-.52-.27,6.07c0,.13-.08,2.39-.47,4.52v.05c-.07.21-.18.83.05,1.21.09.16.23.26.44.32,2.18.05,6.31.13,6.6.13v-.02Z"/>
    </g>
    <path class="cls-1" d="M66.95,102.62v4.2s.94-.43,2.06-.24l1.41-5.22s-2.85-1.77-3.47,1.26Z"/>
    <path class="cls-1" d="M72.31,109.64s-1.69-2.16-2.98-2.11c0,0-2.85-.51-3.82,1.96,0,0-.48,1.16,5.81.81,0,0,1.37-.12.98-.67h0Z"/>
    <g>
      <path class="cls-23" d="M72.29,112.09l-8.22.07c-.44,0-.81-.36-.82-.8h0c0-.45.36-.81.8-.82l8.22-.07c.44,0,.81.36.82.8h0c0,.44-.36.81-.8.82Z"/>
      <path class="cls-15" d="M63.93,112.5c-.26,0-.51-.1-.7-.29s-.3-.44-.3-.71v-.28c0-.55.44-1.01.99-1.01l8.49-.07h0c.26,0,.51.1.7.29.19.19.3.44.3.71v.28c0,.55-.44,1.01-.99,1.01h0l-8.49.07h0ZM72.42,110.81h0l-8.49.07c-.19,0-.34.15-.33.34v.28c0,.09.04.17.1.24.06.06.14.09.24.1l8.49-.07h0c.19,0,.34-.15.33-.34v-.28c0-.09-.04-.17-.1-.24-.06-.06-.15-.1-.24-.1Z"/>
    </g>
    <g>
      <g>
        <path class="cls-14" d="M63.51,107.26s2.67.38,3.68,3.2h-1.84s.31-1.18-2.07-1.84l.22-1.36h.01Z"/>
        <path class="cls-15" d="M64.92,110.81l.11-.42s.16-.9-1.84-1.45l-.29-.08.33-1.97.32.05c.12.02,2.88.44,3.95,3.41l.16.44s-2.74.02-2.74.02ZM63.66,108.38c1.57.5,1.95,1.28,2.03,1.75h1.01c-.8-1.72-2.27-2.29-2.91-2.47l-.12.72h-.01Z"/>
      </g>
      <g>
        <path class="cls-14" d="M70.68,107.54s-2.03.09-2.99,2.92h1.83s.12-1.21,2.49-1.9l-1.34-1.02h0Z"/>
        <path class="cls-15" d="M67.22,110.79l.15-.45c1.03-3.02,3.2-3.14,3.29-3.15h.12l1.96,1.49-.64.19c-2.09.61-2.25,1.6-2.26,1.61l-.04.28h-.29l-2.31.03h.02ZM70.58,107.88c-.38.06-1.63.4-2.41,2.23h1.1c.17-.41.65-1.14,2.04-1.68l-.73-.55Z"/>
      </g>
    </g>
  </g>
  <g>
    <g>
      <path class="cls-8" d="M86.8,91.51c-1.4,1.35-7.91,2.36-7.91,2.36,0,0,9.3-2.08,0,0s-17.65-2.73-17.65-2.73c0,0,.15.35,0,0s.87-6.12.87-6.12c0,0,1-5.27,6.33-8.53,0,0,9.25,4.39,14.46.13,0,0,2.26,1.17,2.5,2.29l1.43,12.12.12.28s-.1.17-.14.21h0Z"/>
      <path class="cls-15" d="M74.02,94.84c-7.14,0-12.72-3.16-13-3.32l.23-.2-.34.15-.62-1.4.54.31c.08-.81.3-2.38.84-5.44.04-.23,1.1-5.51,6.53-8.83l.21-.13.22.1c.09.04,9.06,4.22,13.98.19l.23-.19.26.14c.25.13,2.45,1.31,2.73,2.59v.04l1.43,12.05.19.43-.11.2c-.13.23-.19.28-.21.3h0c-1.45,1.39-7.38,2.36-8.13,2.47-1.7.38-3.37.54-4.96.54h-.02ZM61.67,90.86c1.34.71,8.91,4.41,17.12,2.57l4.13-.92.02.08c1.5-.38,2.91-.85,3.48-1.34l-.05-.11-1.43-12.16c-.15-.59-1.22-1.38-2.01-1.83-4.99,3.77-13,.5-14.47-.16-4.91,3.12-5.91,8.06-5.92,8.11-.42,2.37-.83,5.01-.87,5.76Z"/>
    </g>
    <g class="cls-28">
      <path class="cls-27" d="M65.51,81.62s5.38,4.04,9.22,4.14c0,0-1.44,2.87-5.36,5.97,0,0-2.22.9-5.69-1.71,0,0,.15-3.68,1.82-8.4h.01Z"/>
    </g>
    <g>
      <g>
        <path class="cls-5" d="M75.86,94.06c-1.5.53-6.73-.4-6.73-.4l.65-.61c7.24-5.56,10.53-14.78,10.53-14.78,1.27-.55,2.63-1.42,2.63-1.42l1.31.99s2.95,1.89,3.38,14.1l-.49.28-.48-.09s-.05.85-10.75,1.97"/>
        <path class="cls-13" d="M74.37,94.67c-2.05,0-4.91-.49-5.32-.57l-.87-.16,1.33-1.25c7.05-5.42,10.35-14.49,10.39-14.58l.07-.18.18-.08c1.22-.52,2.55-1.38,2.56-1.39l.26-.17,1.56,1.17c.3.22,3.14,2.55,3.57,14.45v.27l-.85.5-.43-.08c-.71.45-3.04,1.12-10.83,1.93v-.05c-.39.13-.96.17-1.6.17l-.02.02ZM75.71,93.64l.24.68-.07-.66c8.12-.85,9.97-1.53,10.36-1.74l.02-.32.82.15.11-.06c-.45-11.43-3.15-13.46-3.18-13.48h-.02l-1.07-.82c-.44.27-1.34.81-2.26,1.21-.51,1.33-3.91,9.62-10.57,14.77,1.76.27,4.66.6,5.61.27h0Z"/>
      </g>
      <g class="cls-29">
        <path class="cls-19" d="M68.69,94.59s6.93-4.62,12.24-16.39l1.38-.81s1.48.4,1.26.89c-3.52,8.06-6.37,11.84-10.29,16.21l-4.59.1Z"/>
      </g>
      <g class="cls-29">
        <path class="cls-19" d="M75.77,95.34s6.37-7.36,9.38-15.72l1.34,3.94s-4.13,8.98-7.55,11.72c0,0-3.17.06-3.17.06Z"/>
      </g>
      <path class="cls-19" d="M86.9,87.37s-1.52,4.72-3.57,6.24l4.1-.33-.53-5.92h0Z"/>
      <g class="cls-30">
        <path class="cls-9" d="M73.07,90.51s7.96.69,14-1.42l-.16-2.42s-4.98,1.31-11.38,1.26c0,0-1.33,1.72-2.46,2.58Z"/>
      </g>
      <g class="cls-30">
        <path class="cls-9" d="M76.75,85.83s5.26.23,9.84-1.26l-.58-2.66s-2.31.71-7.5,1.17c0,0-.51,1-1.76,2.75Z"/>
      </g>
    </g>
  </g>
  <g>
    <g>
      <g>
        <path class="cls-5" d="M61.08,96.02s19.86,4.03,26.71-.84l.69,5.54s-5.59,3.88-16.57,3.1c0,0-7.7-.27-11.76-2.58l.92-5.22h.01Z"/>
        <path class="cls-13" d="M74.81,104.36c-.93,0-1.91-.03-2.93-.11-.3-.01-7.84-.3-11.95-2.64l-.27-.16,1.06-5.98.45.09c.2.04,19.75,3.94,26.37-.77l.61-.43.81,6.54-.22.15c-.21.15-4.85,3.29-13.92,3.29v.02ZM60.66,101c3.98,2.09,11.2,2.37,11.28,2.37,9.51.67,14.94-2.2,16.07-2.88l-.56-4.55c-6.85,4-23.02,1.17-26,.61l-.79,4.46h0Z"/>
      </g>
      <g class="cls-29">
        <path class="cls-19" d="M61.2,96.34l2.32.42-.96,5.12s-1.55-.35-2.34-.89l.97-4.65h.01Z"/>
      </g>
      <g class="cls-29">
        <path class="cls-19" d="M65.54,97.22c-.05.19-.99,5.27-.99,5.27l2.38.49s.72-5.27.89-5.59l-2.28-.16h0Z"/>
      </g>
      <g class="cls-29">
        <path class="cls-19" d="M69.43,97.5s-.77,4.97-.68,5.73l2.1.24s.39-3.56.8-5.64l-2.21-.34h0Z"/>
      </g>
      <g class="cls-29">
        <polygon class="cls-19" points="73.21 97.78 72.65 103.71 75.24 103.64 75.5 97.83 73.21 97.78"/>
      </g>
      <g class="cls-29">
        <path class="cls-19" d="M86.29,96.45l.5,4.72,1.52-.69-.54-4.84s-1.37.62-1.48.81Z"/>
      </g>
      <g class="cls-30">
        <path class="cls-9" d="M76.87,99.76c-8.95.27-15.74-1.81-15.74-1.81l-.38,1.77c5.51,2.45,16.1,2.04,16.1,2.04v-2h.02Z"/>
      </g>
      <g class="cls-30">
        <path class="cls-9" d="M85.34,98.48s1.03-.04,2.53-.89l.12,1.54s-.72.88-2.58,1.15l-.07-1.8Z"/>
      </g>
    </g>
    <g>
      <g>
        <path class="cls-5" d="M77.08,97.6s-.03,3.95.17,7.51c0,0,4.17.37,8.04-1.26l-.37-7.19s-6.24.81-7.83.93h-.01Z"/>
        <path class="cls-13" d="M78.35,105.59c-.67,0-1.08-.03-1.14-.04l-.38-.03-.02-.39c-.2-3.54-.17-7.5-.17-7.54v-.41l.41-.03c1.56-.12,7.75-.92,7.81-.93l.48-.06.42,7.98-.29.12c-2.73,1.15-5.58,1.33-7.11,1.33h0ZM77.67,104.69c1.07.04,4.19.03,7.15-1.13l-.33-6.39c-1.37.18-5.28.67-6.97.84,0,1.04,0,3.94.15,6.68Z"/>
      </g>
      <g class="cls-29">
        <path class="cls-19" d="M79.89,97.65l.25,7.07h-2.48s-.36-5.26-.24-6.78l2.47-.29Z"/>
      </g>
      <g class="cls-29">
        <path class="cls-19" d="M82.47,97.46l.43,6.81s1.44-.06,2-.71l-.44-6.49-2,.39h0Z"/>
      </g>
      <g class="cls-30">
        <path class="cls-9" d="M77.43,100.43s2.7.05,7.32-.82l.23,2.3s-4.31,1.18-7.4.89l-.15-2.37Z"/>
      </g>
    </g>
  </g>
  <g>
    <g>
      <g>
        <path class="cls-6" d="M88.09,96.62s-13.1,5.54-27.23-.59c0,0-.53-.63-.51-1.13,0,0,.09-3.04.21-3.69.1-.55.34-.73.83-.34,0,0,7.08,5.68,26.28.99,0,0,.21-1.18.84.02,0,0,.54,4.68-.43,4.75h0Z"/>
        <path class="cls-15" d="M74.98,99.34c-4.28,0-9.24-.71-14.3-2.91l-.1-.04-.07-.08c-.11-.13-.64-.8-.61-1.44,0-.31.09-3.08.22-3.75.03-.17.13-.7.58-.87.29-.11.61-.02.97.26.07.06,7.13,5.42,25.65.97.09-.24.27-.53.6-.58.54-.09.87.53.99.76l.04.07v.08c.12.95.42,4.1-.29,4.95-.15.18-.32.26-.46.28-.6.24-5.94,2.29-13.22,2.29h0ZM61.14,95.66c13.75,5.92,26.64.6,26.77.55l.08-.03c.26-.35.3-2.23.09-4.13l-.03.16-.28.07c-19.2,4.69-26.37-.84-26.67-1.07-.03-.02-.06-.04-.08-.06,0,.03-.02.08-.03.14-.1.51-.18,2.79-.2,3.62-.01.21.19.55.34.75h0Z"/>
      </g>
      <path class="cls-16" d="M88.34,92.5c-.61-.86-.82,0-.82,0-17.56,3.81-25.43-.55-25.43-.55-.13-.08-.23.1-.33.08.22,1.5.64,3.8,3.47,5.19,15.26,3.17,22.68-1.02,22.68-1.02.94-.07.43-3.69.43-3.69h0Z"/>
      <path class="cls-25" d="M63.18,92.42s9.41,3.55,24.14.09c0,0,1.2-.86,1.16.52,0,0,.31,2.43-.34,3.16,0,0,.37-.08-.86-2.28,0,0-14.82,3.67-23.39-.49,0,0-2.49-1.6-.71-.99h0Z"/>
    </g>
    <g>
      <g>
        <path class="cls-6" d="M85.09,95.8c.07,2.11-1.58,3.87-3.68,3.94s-3.87-1.58-3.94-3.68,1.58-3.87,3.68-3.94c2.11-.07,3.87,1.58,3.94,3.68Z"/>
        <path class="cls-15" d="M81.28,100.19c-1.08,0-2.11-.4-2.9-1.15-.83-.78-1.31-1.83-1.35-2.97-.04-1.14.37-2.22,1.14-3.05.78-.83,1.83-1.31,2.97-1.35,1.14-.04,2.22.37,3.05,1.14.83.78,1.31,1.83,1.35,2.97.04,1.14-.37,2.22-1.14,3.05-.78.83-1.83,1.31-2.97,1.35h-.15,0ZM81.28,92.56h-.12c-.9.03-1.73.41-2.35,1.07-.61.66-.93,1.52-.9,2.41.03.9.41,1.73,1.07,2.35.66.61,1.52.93,2.41.9.9-.03,1.73-.41,2.35-1.07.61-.66.93-1.52.9-2.41-.03-.9-.41-1.73-1.07-2.35-.63-.59-1.44-.91-2.3-.91h0Z"/>
      </g>
      <path class="cls-16" d="M84.59,95.88c.06,1.78-1.24,3.28-2.91,3.34s-3.07-1.34-3.13-3.13c-.06-1.78,1.24-3.28,2.91-3.34s3.07,1.34,3.13,3.13Z"/>
      <g>
        <g>
          <path class="cls-6" d="M84.2,95.51c.21,1.35-.67,2.65-1.95,2.89-1.29.24-2.5-.67-2.71-2.02-.21-1.35.67-2.65,1.95-2.89,1.29-.24,2.5.66,2.71,2.02Z"/>
          <path class="cls-15" d="M81.83,98.77c-.53,0-1.05-.16-1.49-.48-.61-.43-1.01-1.09-1.13-1.86-.24-1.53.76-2.99,2.22-3.27.69-.13,1.39.03,1.97.44.61.43,1.01,1.09,1.13,1.86h0c.24,1.53-.76,2.99-2.22,3.27-.16.03-.32.04-.48.04ZM81.91,93.79c-.12,0-.23,0-.35.03-1.11.21-1.87,1.33-1.68,2.51.09.59.39,1.09.86,1.42.43.3.95.42,1.46.32,1.11-.21,1.87-1.33,1.68-2.51h0c-.09-.59-.4-1.09-.86-1.42-.33-.23-.71-.36-1.11-.36h0Z"/>
        </g>
        <path class="cls-16" d="M83.9,95.69c.07,1.17-.64,2.18-1.6,2.25s-1.79-.83-1.86-2.01c-.07-1.18.64-2.18,1.6-2.25s1.79.83,1.86,2.01Z"/>
        <path class="cls-25" d="M83.9,95.71c.03.89-.47,1.63-1.11,1.65s-1.19-.68-1.22-1.57c-.03-.89.47-1.63,1.11-1.65s1.19.68,1.22,1.57Z"/>
      </g>
    </g>
  </g>
  <g>
    <path class="cls-21" d="M57.79,79.32s-3.7,2.51-6.31,7.02c0,0,4.21.99,5.29,4.22,0,0,2.2-2.94,4.11-5.29.68-.84,3.81-.82,5.83-1.39,2.35-.66,3.07-5.27-.73-5.91-.53-.09-4.95-.61-8.19,1.36h0Z"/>
    <path class="cls-15" d="M56.63,91.5l-.27-.8c-.99-2.95-4.93-3.92-4.97-3.93l-.58-.14.3-.52c2.63-4.54,6.29-7.06,6.45-7.16h.02c3.57-2.18,8.45-1.44,8.49-1.43,1.81.3,2.95,1.5,3.04,3.19.09,1.66-.88,3.21-2.26,3.6-.8.23-1.75.36-2.67.49-1.17.16-2.63.37-2.94.75-1.88,2.32-4.08,5.25-4.1,5.28l-.51.68h0ZM52.16,86.07c1.13.37,3.59,1.4,4.72,3.6.75-.99,2.28-3,3.66-4.69.53-.65,1.91-.85,3.51-1.07.89-.12,1.8-.25,2.55-.46.97-.27,1.68-1.46,1.61-2.69-.03-.6-.32-2.02-2.3-2.36-.05,0-4.58-.7-7.87,1.29-.19.13-3.43,2.42-5.87,6.38h-.01Z"/>
  </g>
  <g>
    <path class="cls-23" d="M53.74,82.76s3.99.49,5.71,4.51l-3.07,4.56s-1.39-3.86-5.91-4.9c0,0,2.25-3.09,3.26-4.16h.01Z"/>
    <path class="cls-15" d="M56.26,92.8l-.3-.83c-.05-.15-1.37-3.65-5.59-4.62l-.66-.15.4-.55c.09-.13,2.28-3.12,3.3-4.2l.16-.16.22.03c.17.02,4.26.57,6.07,4.77l.1.22-3.69,5.49h0ZM51.22,86.66c3.07.94,4.61,3.11,5.23,4.26l2.49-3.7c-1.42-3.03-4.23-3.82-5.04-3.98-.76.86-2.04,2.56-2.68,3.42Z"/>
  </g>
  <path class="cls-14" d="M58.85,87.18s-2.62-5.19-6.55-.53c0,0,2.6.73,4.06,4.11l2.48-3.58h.01Z"/>
  <g>
    <path class="cls-15" d="M56.49,87.37c-.23.07-.46.1-.69.12-.23,0-.46,0-.68,0-.23-.02-.45-.05-.68-.1-.22-.05-.45-.12-.67-.23.23-.08.46-.1.69-.12.23-.02.46,0,.68,0,.23.02.45.05.68.1.22.05.45.12.67.23Z"/>
    <path class="cls-15" d="M54.56,85.85c.17.18.29.38.41.58.11.2.21.41.29.62.08.21.15.43.2.66.05.23.09.46.08.7-.17-.18-.29-.38-.41-.58-.11-.2-.21-.41-.29-.62-.08-.21-.15-.43-.2-.66-.05-.23-.09-.46-.08-.7Z"/>
  </g>
  <g>
    <path class="cls-15" d="M57.53,85.88c-.23.07-.46.1-.69.12-.23,0-.46,0-.68,0-.23-.02-.45-.05-.68-.1-.22-.05-.45-.12-.67-.23.23-.08.46-.1.69-.12.23-.02.46,0,.68,0,.23.02.45.05.68.1.22.05.45.12.67.23Z"/>
    <path class="cls-15" d="M55.6,84.37c.17.18.29.38.41.58.11.2.21.41.29.62.08.21.15.43.2.66.05.23.08.46.08.7-.17-.18-.29-.38-.41-.58-.11-.2-.21-.41-.29-.62-.08-.21-.15-.43-.2-.66-.05-.23-.08-.46-.08-.7Z"/>
  </g>
  <path class="cls-1" d="M56.57,82.72s2.22.83,3,3.27c0,0,.4-.69,1.48-1.58,0,0,2.18-.71,4.5-.9,0,0,2.47-.08,2.33-2.41,0,0-.22-1.77-4.54-1.55,0,0-2.05-.13-4.31.81,0,0-.8.08-2.47,2.37h.01Z"/>
  <g>
    <g>
      <path class="cls-21" d="M49.73,87.6s1.16-1.36,3.7.06c0,0,3.37,1.38,3.83,6.06,0,0-2.12,1.29-2.38,2.41,0,0-.99,1.03-1.92.27,0,0-1.93,1.3-2.24.57,0,0-.28-1.43-1.68-2.26,0,0-.56-.75-.35-1.33l-.76-1.09s-.07-.13.33-.59l-.67-1.14s1.06-1.75,2.13-2.95h.01Z"/>
      <path class="cls-15" d="M51.1,97.63c-.1,0-.2,0-.29-.04-.23-.07-.41-.23-.51-.46l-.03-.09s-.27-1.25-1.47-1.96l-.08-.05-.05-.07c-.06-.09-.57-.8-.47-1.51l-.66-.96c-.16-.28,0-.61.17-.85l-.65-1.11.14-.23c.04-.07,1.09-1.8,2.18-3.01.12-.13,1.49-1.56,4.23-.04.36.16,3.62,1.7,4.08,6.41l.03.28-.24.15c-.76.46-2.02,1.45-2.18,2.13l-.03.12-.08.09c-.4.42-1.34.99-2.25.49-.45.28-1.24.7-1.84.7h0ZM51.12,96.74h0c.27,0,.99-.32,1.58-.72l.27-.18.26.21c.5.41,1.04,0,1.25-.16.34-1.01,1.72-2.01,2.3-2.4-.53-4.14-3.5-5.41-3.53-5.42l-.05-.02c-2.19-1.23-3.14-.17-3.15-.16h0c-.81.91-1.63,2.16-1.94,2.66l.69,1.19-.21.24c-.08.1-.14.17-.17.22l.77,1.1-.08.22c-.09.24.1.63.24.85,1.24.78,1.66,1.97,1.77,2.37Z"/>
    </g>
    <path class="cls-1" d="M52.78,89.1s2.54.41,3.78,4.51c0,0-.83.08-2.08,2.09,0,0-1,.5-1.3-.44,0,0-.32-1.32.15-2.25,0,0-1.51.6-.96,3.07,0,0-.62.75-1.11.49,0,0-.15-1.06-.87-1.99,0,0-.99-1.38-.34-2.42,0,0-.89-.12-.61-1.21,0,0,.51-1.33,1.75-2.01,0,0,.9-.1,1.59.16Z"/>
    <g>
      <path class="cls-15" d="M53.13,96.93s-.07-.02-.09-.02c-.03,0-.05-.02-.07-.03-.05-.02-.09-.04-.13-.06-.08-.05-.16-.1-.22-.16-.14-.12-.25-.27-.31-.42-.14-.31-.14-.62-.11-.9.04-.27.11-.53.21-.77.09-.24.21-.47.32-.69v-.03h.02c.07-.09.14-.22.16-.35.03-.13.02-.27-.03-.41-.05-.14-.13-.26-.23-.38-.05-.06-.11-.11-.16-.16l-.18-.15.21.11c.07.04.13.09.2.14.12.1.24.22.33.37.08.15.13.33.13.5,0,.18-.04.35-.13.53l.02-.03c-.07.23-.13.46-.17.68-.04.23-.06.45-.05.66.02.21.07.4.16.51.04.06.09.1.15.13.03.02.06.03.09.03h.05s.02,0,0,0l-.13.88-.04.02Z"/>
      <path class="cls-15" d="M52.96,94.38h-1.04c-.35,0-.69.02-1.03.08.14-.1.3-.19.45-.27.16-.08.32-.16.47-.24.32-.15.64-.3.97-.44l.17.87h.01Z"/>
      <polygon class="cls-15" points="48.33 93.1 50.26 91.25 49.04 93.64 48.33 93.1"/>
      <polygon class="cls-15" points="47.89 91.44 49.39 90 48.63 91.94 47.89 91.44"/>
    </g>
  </g>
  <g>
    <g>
      <path class="cls-21" d="M92.44,87.18l2.62.47s1.15-.47,2.79.42l.86,1.23s1.16,2.26-.67,2.58c0,0,.91,1.48-.67,2.12,0,0,.2,2.4-1.78,3.31,0,0-4.55.09-5.36-1.89l-.3-1.34.5-1.71s-1.18-3.72,2.02-5.18h-.01Z"/>
      <path class="cls-15" d="M95.44,97.75c-.93,0-4.78-.12-5.63-2.16l-.02-.07-.32-1.45.49-1.7c-.41-1.47-.43-4.35,2.3-5.59l.13-.06,2.64.48c.39-.11,1.54-.32,3.04.48l.09.05.95,1.37c.07.14.71,1.44.24,2.39-.11.22-.32.49-.7.67.1.31.16.74.02,1.16-.13.4-.42.72-.84.96-.02.75-.24,2.61-2.05,3.43l-.08.04h-.26ZM90.65,95.28c.6,1.32,3.59,1.58,4.83,1.58,1.58-.79,1.45-2.74,1.44-2.82l-.03-.33.3-.12c.34-.13.54-.31.61-.54.14-.42-.15-.92-.16-.93l-.34-.56.65-.11c.45-.08.55-.28.58-.35.22-.45-.08-1.27-.22-1.56l-.78-1.11c-1.37-.7-2.29-.36-2.33-.35l-.12.04-.13-.02-2.48-.45c-2.64,1.31-1.7,4.45-1.65,4.58l.04.13-.5,1.73.26,1.18h.03Z"/>
    </g>
    <g>
      <path class="cls-7" d="M102.23,87.34s-6.89.63-11.37-2.42c0,0-.94-.8.21-1.54,0,0,4.33,1.86,5.45,2.15,0,0,4.58.61,6.07.6,0,0,.73,1.32-.35,1.21h-.01Z"/>
      <path class="cls-11" d="M90.77,83.23s5.25,2.33,11.7,2.8c0,0,1.08,1.69-.27,2.54,0,0-2.21.71-4.63.16l-1.32,7.44s-1.9.38-3.59-1.49l1.42-7.07s-6.42-2.36-3.3-4.39h-.01Z"/>
      <path class="cls-18" d="M92.6,95.97s-2.32.42-2.26,1.55l.52,1.52s2.37-.94,3.89,2.08l1.75-.47s.69-1.39-1.05-3.57l-2.84-1.1h-.01Z"/>
      <path class="cls-11" d="M90.77,83.23s5.25,2.33,11.7,2.8c0,0,1.08,1.69-.27,2.54,0,0-2.21.71-4.63.16l-1.32,7.44s-1.9.38-3.59-1.49l1.42-7.07s-6.42-2.36-3.3-4.39h-.01Z"/>
      <path class="cls-22" d="M93.04,94.19s-1.02.58-.62,1.49c0,0,1.47,1.77,3.48,1.17,0,0,.7-.57.62-1.64,0,0-.87.72-3.49-1.01h.01Z"/>
      <g>
        <path class="cls-23" d="M96.57,95.3l1.48-6.69c2.71.68,3.76-.34,3.76-.34,1.72-1.07.67-2.23.67-2.23-5.95-.51-11.96-2.62-11.96-2.62,0,0-1.71,1.92,3.57,4.21l-1.3,6.47s-.92,1.34-.43,1.85c0,0-1.53.59-1.94,1.16,0,0-.24,1.36.46,1.95,0,0,2.92-.45,3.89,2.08l1.75-.47s.75-1.52-.86-3.49c0,0,.76-.12.93-1.86l-.02-.02Z"/>
        <path class="cls-15" d="M94.48,101.65l-.14-.38c-.82-2.15-3.3-1.81-3.4-1.8l-.2.03-.15-.13c-.88-.73-.65-2.2-.62-2.37l.02-.1.06-.08c.34-.47,1.19-.9,1.73-1.14-.08-.67.39-1.47.59-1.78l1.21-6.04c-2.22-1.01-3.47-2.11-3.72-3.26-.16-.72.13-1.29.33-1.51l.2-.22.28.1c.06.02,6.03,2.1,11.85,2.6l.17.02.12.13c.05.06.52.6.42,1.36-.08.58-.47,1.09-1.15,1.53-.23.2-1.35.98-3.68.51l-1.37,6.23c-.11,1.05-.43,1.6-.73,1.9,1.37,1.98.65,3.51.62,3.57l-.09.18-2.33.63-.02.02ZM91.4,98.56c1.14,0,2.79.42,3.6,2.03l1.15-.31c.11-.41.24-1.48-.87-2.84l-.59-.72h.85c.08-.04.46-.3.58-1.46v-.05l1.58-7.14.45.11c2.39.6,3.33-.22,3.34-.23l.07-.05c.32-.2.71-.52.77-.9.03-.21-.04-.41-.11-.52-5.03-.46-10.12-2.05-11.5-2.5-.04.13-.05.3,0,.5.12.51.74,1.54,3.53,2.75l.33.14-1.39,6.92-.05.08c-.39.57-.57,1.19-.47,1.29l.46.48-.62.24c-.54.21-1.38.62-1.68.93-.04.32-.04.94.21,1.29.11,0,.24-.02.37-.02v-.02Z"/>
      </g>
      <g>
        <path class="cls-14" d="M91.86,83.99s6.84,2.25,10.39,2c0,0,1.27.71-.45,1.26,0,0-2.95.73-8.68-1.74,0,0-2.92-1.2-2.39-1.8,0,0,.38-.18,1.13.28Z"/>
        <path class="cls-15" d="M100.57,87.68c-1.41,0-3.95-.3-7.59-1.87-.73-.3-2.47-1.09-2.64-1.81-.04-.19,0-.37.13-.52l.04-.05.06-.03c.09-.04.58-.23,1.42.28.54.18,6.91,2.21,10.22,1.97h.1l.09.04c.07.04.67.39.62.93-.06.6-.87.85-1.13.94-.05,0-.5.12-1.33.12h.01ZM91.13,84.02c.33.3,1.2.79,2.11,1.17,5.57,2.4,8.44,1.74,8.47,1.73.6-.19.65-.36.65-.36,0-.04-.08-.15-.21-.23-3.6.2-10.13-1.93-10.41-2.02l-.07-.03c-.23-.15-.42-.21-.55-.24v-.02Z"/>
      </g>
      <g>
        <g>
          <path class="cls-6" d="M93.75,84.97s1.41-24.04,10.91-33.34c0,0,4.98,10.82-5.49,34.61,0,0-3.87-.16-5.42-1.27Z"/>
          <path class="cls-26" d="M99.46,86.7h-.3c-.16-.02-4.02-.19-5.67-1.36l-.2-.14v-.25c.07-.99,1.54-24.32,11.06-33.64l.45-.44.26.57c.05.11,1.29,2.86,1.22,8.57-.06,5.22-1.27,14.04-6.71,26.4l-.12.28h.01ZM94.21,84.74c1.17.68,3.52.96,4.68,1.04,8.73-20.01,6.42-30.73,5.59-33.33-8.33,8.87-10.09,29.73-10.27,32.29Z"/>
        </g>
        <path class="cls-16" d="M95.87,84.97s2.86-22.75,8.58-32.24c0,0,4.16,11.04-5.45,33.01,0,0-2.69-.38-3.14-.78h0Z"/>
        <path class="cls-25" d="M104.45,52.74s4.41,9.4-5.45,33.01l-1.68-.27s7.37-18.31,7.11-30.82c0,0-3.32,5.15-6.62,18.72,0,0-.26-10.53,6.64-20.65h0Z"/>
        <path class="cls-26" d="M100.5,63.81c-.47,1.78-.9,3.57-1.33,5.36-.42,1.79-.84,3.58-1.2,5.39-.38,1.8-.72,3.6-1.01,5.41-.29,1.81-.52,3.63-.67,5.45l-.34-.45,1.42.31-.5.28c.43-1.22.84-2.45,1.23-3.69.4-1.24.79-2.48,1.16-3.72.73-2.49,1.44-4.99,2.08-7.51.64-2.52,1.21-5.05,1.72-7.6.49-2.55.88-5.12,1.17-7.72-.07,2.61-.33,5.21-.7,7.8-.39,2.58-.89,5.15-1.46,7.7-.6,2.54-1.24,5.08-1.98,7.58-.37,1.25-.74,2.5-1.14,3.75-.4,1.24-.82,2.48-1.26,3.72l-.13.36-.37-.08-1.42-.32-.37-.08.03-.37c.16-1.86.44-3.69.76-5.51.33-1.82.74-3.62,1.17-5.42.45-1.79.92-3.57,1.45-5.34.52-1.77,1.08-3.53,1.68-5.27v-.03Z"/>
      </g>
      <path class="cls-14" d="M94.04,97.29c.15.08.34.43.49,1.53,0,0-.95-1.15-2.3-.46,0,0,1.56-.17,2.61,2.32l1.26-.47s.65-.72-.82-3.29c0,0-.86-.33-1.29.08-.08.08-.06.22.04.28h0Z"/>
    </g>
    <path class="cls-15" d="M93.99,90.36c0,.15,0,.26,0,.38s-.02.24-.05.36c-.05.24-.13.48-.26.7-.13.22-.33.41-.55.54-.22.14-.47.18-.7.21l.1-.38c.16.15.28.3.4.47.12.17.21.35.29.54.07.19.11.39.11.59s-.05.39-.12.57c.04-.19.05-.38,0-.56s-.11-.35-.2-.51c-.1-.16-.21-.3-.34-.42-.13-.13-.27-.25-.41-.33l-.36-.23.46-.15c.17-.06.34-.12.46-.23s.21-.24.27-.39c.05-.15.08-.32.08-.5,0-.09,0-.18,0-.26,0-.08-.03-.19-.04-.24l.88-.14-.02-.02Z"/>
    <g>
      <g>
        <path class="cls-21" d="M98.66,92.04s-.98-2-2.89-1.21c0,0,1.57-2.51-.77-2.82,0,0,2.41-1,3.68.29l.46.59s1.37,2.2-.48,3.15Z"/>
        <path class="cls-15" d="M98.46,92.64l-.2-.41c-.08-.17-.85-1.6-2.32-.99l-1.29.54.74-1.18c.17-.28.62-1.2.38-1.7-.11-.23-.39-.38-.83-.44l-1.64-.22,1.53-.63c.11-.05,2.71-1.1,4.17.39l.03.04.49.63s.8,1.29.48,2.46c-.16.57-.54,1.02-1.13,1.32l-.4.21v-.02ZM96.64,90.2c.99,0,1.73.63,2.16,1.21.17-.15.28-.33.34-.54.2-.72-.29-1.6-.36-1.73l-.43-.55c-.53-.53-1.36-.56-2.03-.47.11.11.19.24.26.38.26.55.15,1.18-.02,1.69h.09,0Z"/>
      </g>
      <g>
        <path class="cls-21" d="M98.72,92.2s1.16,1.67-.88,2.78c0,0,.19-1.15-2-.95,0,0-2.06.12-1.97-1.06,0,0,.71-1.94,2.1-2.24,0,0,1.34-.7,2.74,1.47h.01Z"/>
        <path class="cls-15" d="M97.25,95.81l.15-.9h0s0-.11-.1-.21-.43-.32-1.42-.23c-.16,0-1.47.07-2.11-.58-.25-.25-.37-.59-.34-.96v-.06l.03-.06c.03-.09.8-2.14,2.38-2.51.33-.14,1.81-.58,3.26,1.65.06.09.56.88.34,1.8-.16.66-.62,1.2-1.39,1.62,0,0-.8.44-.8.44ZM96.32,93.55c.75,0,1.31.18,1.64.54.05.06.1.11.13.17.25-.22.41-.46.47-.72.13-.57-.21-1.09-.22-1.09h0c-1.15-1.79-2.15-1.33-2.16-1.33l-.05.03h-.06c-.9.2-1.55,1.39-1.75,1.91,0,.11.05.17.09.21.28.28,1.07.33,1.41.31.18-.02.34-.02.5-.02h0Z"/>
      </g>
      <g>
        <path class="cls-21" d="M96.83,97.55s-3.01.05-3.42-1.31c0,0-.51-2.26,3.08-2.38,0,0,1.28.34,1.57,1.35,0,0,.11,1.42-1.22,2.34h-.01Z"/>
        <path class="cls-15" d="M96.75,97.99c-.62,0-3.3-.09-3.76-1.63v-.03s-.21-.93.42-1.74c.57-.74,1.61-1.13,3.07-1.18h.13c.06.03,1.53.43,1.88,1.67l.02.09c0,.07.11,1.69-1.41,2.74l-.11.08h-.24ZM93.84,96.13c.25.73,1.94.96,2.84.97.88-.67.92-1.6.92-1.82-.21-.61-.97-.9-1.18-.98-1.13.05-1.93.33-2.31.82-.34.43-.28.9-.27,1h0Z"/>
      </g>
      <g>
        <path class="cls-1" d="M96.86,94.24s1.29.21,1.13,1.18c0,0-.33,1.3-1.13,1.34,0,0-.74-.36-.64-1.1,0,0-2.17.56-1.48-.98,0,0,.91-.66,2.12-.44Z"/>
        <path class="cls-15" d="M96.91,93.99c-.06.22-.12.41-.19.61s-.15.4-.23.59c-.08.19-.18.38-.29.57-.11.18-.25.36-.43.46.13-.16.18-.35.22-.54.04-.19.05-.39.06-.59v-.59c0-.2-.02-.4-.04-.58l.89.07h0Z"/>
      </g>
      <g>
        <path class="cls-1" d="M97.59,91.49s1.28,1.09.98,2.03c0,0,.17.51-.63.44,0,0-1.32-.65-1.12-1.37,0,0-2.29.46-1.39-.97,0,0,.96-.91,2.16-.14h0Z"/>
        <path class="cls-15" d="M97.68,91.25c-.09.21-.18.39-.28.58-.1.19-.2.37-.31.55s-.23.35-.37.52c-.14.16-.3.32-.49.39.15-.14.23-.32.3-.5.06-.19.11-.38.15-.57s.06-.39.09-.59c.02-.19.04-.4.04-.58l.87.2Z"/>
      </g>
      <g>
        <path class="cls-1" d="M98.25,88.43s1.28,1.09.98,2.04c0,0,.07.47-.48.71,0,0-1.32-.65-1.12-1.37,0,0-2.1-.18-1.2-1.61,0,0,.66-.15,1.82.23Z"/>
        <path class="cls-15" d="M98.55,88.26c-.09.21-.18.39-.28.58-.1.19-.2.37-.31.55s-.23.35-.37.52c-.13.16-.3.32-.49.39.15-.14.23-.32.3-.5.06-.19.11-.38.15-.57s.06-.39.09-.59c.02-.19.04-.4.05-.58l.87.2h0Z"/>
      </g>
      <g>
        <g>
          <path class="cls-21" d="M91.12,88.21s.97-1.5,3.4-1.25l.86.27s1.5-.11.7,3.19c0,0,.09,1.31-.77,1.55,0,0-1.34.53-1.92-2.24"/>
          <path class="cls-15" d="M95.05,92.45c-.2,0-.44-.04-.7-.18-.66-.36-1.12-1.18-1.39-2.46l.87-.18c.27,1.29.69,1.71.92,1.84s.41.08.41.07h.03c.47-.14.44-1.09.44-1.1v-.14c.43-1.75.15-2.34,0-2.5-.11-.13-.22-.14-.22-.14h-.09l-.9-.28c-2.09-.2-2.92,1.04-2.93,1.05l-.75-.48c.05-.07,1.15-1.73,3.82-1.45l.09.02.8.25c.18,0,.56.08.86.45.5.6.58,1.68.21,3.23.02.63-.18,1.67-1.08,1.93-.06.02-.21.06-.4.06h0Z"/>
        </g>
        <path class="cls-1" d="M95.84,87.99s.27,1.77-.35,2.88c0,0-1.52.8-1.36-2,0,0-.14-1.1,1.71-.88Z"/>
      </g>
    </g>
  </g>
  <g>
    <g>
      <g>
        <path class="cls-3" d="M87.7,63.28s1.46,2.13,4.38,1.69c0,0,1.83-.44.97.98,0,0-1.5,2.06-3.52,1.73,0,0,1.77.81,4.16.11,0,0,2.37-.95,1.06.98,0,0-3.01,3.97-5.83,3.4l-.06-1.62-2.44-2.58,1.3.11s.16-1.28-1.4-2.17l1.37-2.61v-.02Z"/>
        <path class="cls-15" d="M89.48,72.66c-.22,0-.43-.02-.65-.06l-.34-.07-.07-1.81-3.13-3.31,1.93.16c-.05-.17-.14-.39-.31-.61l-.61-.28.43.07c-.16-.16-.37-.33-.64-.48l-.37-.21,1.92-3.65.42.61c.06.09,1.35,1.88,3.93,1.5.3-.07,1.19-.22,1.58.31.24.33.19.78-.14,1.34l-.02.03c-.04.06-.63.85-1.58,1.41.51,0,1.09-.08,1.72-.26.54-.21,1.47-.48,1.88.04.42.53-.11,1.32-.31,1.61v.02c-.13.16-2.81,3.63-5.64,3.63h0ZM89.35,71.77c2.37.12,4.89-3.08,5.04-3.27.17-.25.25-.41.28-.51-.19,0-.53.09-.81.2h-.04c-2.52.75-4.4-.08-4.48-.12l-1.22-.56c.07.34.04.57.04.6l-.05.42-.57-.05,1.76,1.86.05,1.41v.02ZM87.95,66.96l1.65.27c1.65.27,2.96-1.37,3.08-1.54.1-.17.14-.27.15-.33-.13-.03-.42-.02-.65.03h-.04c-2.23.35-3.67-.67-4.36-1.34l-.88,1.68c.55.39.86.83,1.04,1.22h.01Z"/>
      </g>
      <path class="cls-25" d="M89.07,67.8s1.64.87,5.11.09c0,0,1.01,0,0,.9,0,0-1.06,1.61-3.67,2.71,0,0,1.71-2.07.29-2.25,0,0-2.72-.53-3.6-2.07,0,0,3.52-.33,3.38-1.05,0,0-1.53-.73-1.27-1,0,0,1.19.72,2.83.26,0,0,1.39-.34.19.67,0,0-.91,1.05-3.27,1.74h0Z"/>
    </g>
    <g>
      <g>
        <path class="cls-25" d="M86.83,58.38s2.81-2.58,3.62.15c0,0,.65,3.24-1.86,5.48l-.63.05s-.18-1.67-.85-2.47c0,0-.72-1.53-.27-3.2h0Z"/>
        <path class="cls-15" d="M87.56,64.53l-.05-.43c-.05-.43-.27-1.66-.75-2.23l-.04-.04-.02-.05c-.03-.07-.79-1.7-.3-3.51l.03-.12.09-.09c.17-.16,1.71-1.52,3.03-1.16.63.17,1.07.68,1.32,1.51v.04c.04.14.68,3.52-2,5.9l-.11.1-1.21.09h.01ZM87.49,61.34c.51.64.75,1.66.85,2.23h.06c2.09-1.96,1.67-4.66,1.62-4.94-.15-.5-.39-.8-.69-.88-.66-.18-1.67.51-2.09.87-.3,1.29.15,2.48.25,2.72Z"/>
      </g>
      <path class="cls-1" d="M86.81,59.15s1.77-1.99,2.4.12c0,0,.5,2.5-1.43,4.23l-.29.03s.25-1.29-.27-1.91c0,0-.75-1.18-.4-2.47h0Z"/>
      <path class="cls-15" d="M86.78,61.23c.15-.34.32-.62.51-.91.19-.29.39-.56.63-.81.23-.25.49-.49.79-.66.29-.17.62-.28.95-.29-.32.08-.59.26-.82.47s-.41.48-.56.74c-.16.27-.28.56-.39.85-.1.29-.2.6-.26.88,0,0-.85-.27-.85-.27Z"/>
      <g>
        <path class="cls-25" d="M88.54,59.38s.86.41.24,2.48"/>
        <path class="cls-15" d="M88.74,58.98c.09.05.1.07.15.11.03.03.06.07.09.1.05.07.09.14.13.2.07.14.11.28.13.41.05.27.04.52,0,.76s-.1.46-.18.67c-.08.22-.17.42-.27.62.02-.22.04-.44.05-.66,0-.22,0-.43-.05-.64-.03-.2-.1-.39-.19-.54-.04-.08-.1-.14-.15-.18-.03-.02-.05-.04-.08-.05,0,0-.02,0-.03-.01,0,0-.03,0,0,.02l.38-.8h.02Z"/>
      </g>
    </g>
    <g>
      <g>
        <path class="cls-6" d="M80.54,44.5s5.99-.61,8.02-6.52c0,0,2.09-.95.72,6.44,0,0-1.13,5.28-4.92,6.92,0,0-.68-5.34-3.82-6.84Z"/>
        <path class="cls-15" d="M84,51.99l-.08-.59s-.68-5.12-3.57-6.5l-1.44-.68,1.58-.16c.24-.03,5.74-.67,7.65-6.22l.06-.18.17-.08c.2-.09.65-.16,1.06.15.91.71,1,2.92.29,6.78-.05.24-1.23,5.53-5.18,7.24l-.54.24ZM81.7,44.72c1.98,1.62,2.75,4.66,3,5.96,3.12-1.77,4.13-6.3,4.14-6.34.87-4.75.26-5.71.05-5.89,0,0,0,0-.02-.02-1.62,4.29-5.31,5.79-7.18,6.29h.01Z"/>
      </g>
      <path class="cls-16" d="M84.97,50.47s5.26-4.03,4.16-11.1c0,0,0-1.15-.51.58,0,0-1.16,3.96-5.71,6.08,0,0,.68,3.4,2.06,4.43h0Z"/>
      <path class="cls-25" d="M89.13,39.38s1.56,6.42-4.16,11.1l-1.06-1.16s5.17-3.54,5.23-9.94h0Z"/>
    </g>
    <g>
      <path class="cls-23" d="M60.33,54.41s-1.19-5.04,4.12-8.5c0,0,8.47-5.64,17.57-.6,0,0,3.22,1.23,4.22,6.28,0,0-6.73-2.84-13.01-1.32,0,0-9.33,2.18-12.89,4.14h-.01Z"/>
      <path class="cls-15" d="M60.03,55.09l-.13-.57s-1.19-5.39,4.31-8.97c.08-.06,8.79-5.72,18-.63.37.16,3.47,1.58,4.47,6.59l.16.82-.77-.33c-.07-.03-6.68-2.76-12.73-1.3-.1.02-9.31,2.19-12.78,4.1l-.51.28h-.02ZM74.02,43.68c-5.32,0-9.27,2.57-9.33,2.61-3.99,2.6-4.14,6.08-4.02,7.44,3.88-1.88,12.08-3.81,12.44-3.89,5.14-1.24,10.5.34,12.49,1.04-1.1-4.08-3.73-5.14-3.76-5.15l-.06-.03c-2.71-1.5-5.38-2.02-7.77-2.02h.01Z"/>
    </g>
    <g>
      <path class="cls-6" d="M69.87,43.99s4.37,2.2,3.35,6c0,0,4.62-1.14,8.2.24,0,0,1.2-4.92-3.88-7.21l-1.49-.64-5.41.4-.78,1.21h.01Z"/>
      <path class="cls-15" d="M81.74,50.83l-.47-.18c-3.41-1.3-7.89-.23-7.94-.22l-.73.18.2-.73c.92-3.4-2.95-5.41-3.12-5.49l-.44-.22,1.17-1.81,5.74-.42,1.59.68c5.36,2.42,4.15,7.67,4.13,7.72l-.12.49h-.01ZM77.23,49.1c1.22,0,2.57.13,3.84.53.14-1.24.1-4.49-3.71-6.21l-1.38-.59-5.08.37-.41.63c1.05.66,3.65,2.62,3.29,5.58.73-.13,2-.32,3.44-.32h.01Z"/>
    </g>
    <path class="cls-16" d="M71.09,43.24l5.09-.3s4.72,1.45,4.98,6.27c0,0-2.51-.55-5.67-.25,0,0-.96-4.36-4.39-5.72h-.01Z"/>
    <path class="cls-25" d="M73.25,43.11l2.93-.17s4.12.44,4.98,6.27c0,0-1.16-.64-3.03-.26,0,0-1.62-1.76.24-3.61,0,0,.06-.9-.73-1.55,0,0-2.8,1.14-4.39-.67h0Z"/>
    <g>
      <path class="cls-21" d="M61.51,58.89s2.56,2.76,3.74,2.74c0,0-1.52,2.76.21,4.55,0,0,2.2,3.19,4.81,3.18,0,0,.34-.39,1.34-1.16l14.85-.37s1.6-.52.12-1.41c0,0,3.32-3.27.73-5.94,0,0-.68-1.66,0-3.31l-.04-1.35s-4.16-.66-6.47-.82c0,0-14.37-.35-19.29,3.9h0Z"/>
      <path class="cls-15" d="M70.26,69.8c-2.69,0-4.89-2.98-5.14-3.34-1.44-1.52-.88-3.57-.5-4.52-1.32-.51-3.05-2.33-3.43-2.74l-.31-.34.35-.3c4.99-4.32,19-4.02,19.59-4.01,2.33.16,6.36.8,6.53.83l.37.06.05,1.81-.04.09c-.53,1.27-.14,2.58-.03,2.9,1.99,2.13.73,4.74-.45,6.12.3.28.44.57.4.89-.08.66-.89.96-1.05,1.01l-.06.02h-.06l-14.7.37c-.85.67-1.16,1.01-1.16,1.01l-.13.15h-.23ZM66.01,61.16l-.37.68s-1.34,2.5.14,4.02l.05.06s2,2.85,4.26,2.98c.19-.19.58-.55,1.25-1.06l.11-.09h.14l14.78-.38c.16-.06.33-.17.38-.24-.02-.04-.1-.16-.41-.34l-.49-.3.41-.4c.12-.12,2.97-3,.72-5.31l-.06-.06-.03-.08c-.03-.07-.72-1.79-.03-3.56l-.03-.88c-1.06-.16-4.2-.63-6.07-.76-.12,0-13.55-.29-18.6,3.5,1.02,1.04,2.46,2.26,3.07,2.25l.77-.02h.01Z"/>
    </g>
    <path class="cls-17" d="M83.5,51.54c-6.38-1.12-9.84-.27-9.84-.27l.11.47s5.97-.54,9.68.34l.06-.53h-.01Z"/>
    <g>
      <path class="cls-2" d="M62.06,59.7c-1.73,0-3.2,1.8-3.82,4.35-.19.3-.53.67-1.03,1.1-.75.65-2.29,1.3-4.92-.1,0,0-1.54-1.06-.84.73,0,0,1.37,3.84,5.52,2.41,0,0-2.6,1.51-7.24.08,0,0,1.21,6.9,11.07,5.17.42.24.87.36,1.33.36,2.3,0,4.15-3.18,4.13-7.07-.02-3.89-1.9-7.04-4.2-7.03Z"/>
      <path class="cls-15" d="M62.12,74.24c-.47,0-.94-.11-1.39-.34-5.18.87-8.01-.65-9.47-2.08-1.62-1.59-1.95-3.4-1.96-3.47l-.13-.72.7.21c1.26.39,2.36.55,3.29.59-1.52-.86-2.12-2.47-2.13-2.5-.11-.29-.43-1.1.05-1.49.45-.36,1.14.03,1.44.23,2.22,1.17,4.15.27,4.44.12.63-.54.66-.58.87-.91.7-2.8,2.35-4.61,4.23-4.62h.02c1.27,0,2.45.8,3.32,2.27.83,1.39,1.3,3.24,1.31,5.2.02,4.2-1.99,7.5-4.57,7.51,0,0-.02,0-.02,0ZM60.88,72.96l.14.08c.36.2.73.31,1.11.3,2.02,0,3.7-3.04,3.69-6.62,0-1.8-.43-3.49-1.18-4.75-.71-1.18-1.61-1.83-2.56-1.83h-.01c-1.45,0-2.81,1.62-3.39,4l-.02.07-.04.06c-.32.51-.36.55-1.12,1.2l-.07.05c-.1.06-2.53,1.41-5.35-.1l-.04-.03c-.09-.06-.2-.12-.29-.16.02.09.06.21.12.36.06.15,1.28,3.41,4.96,2.15l.37.81c-.11.06-2.53,1.42-6.81.34.62,1.65,2.86,5.4,10.34,4.09l.16-.03h-.01Z"/>
    </g>
    <path class="cls-3" d="M62.54,61.64c-1.61,0-2.06,1.15-2.85,2.96-.26.42-.63,0-1.14.08,0,0-2.62,2.1-5.43,1.27,0,0-1.17-.62.01,1.01,0,0,1.23,1.5,3.9,1.09,0,0-.33,1.11-4.18,1.58,0,0-.8-.1-.59.42.47,1.2,2.98,3.79,9.39,2.66.39.22.9.16,1.33.15,2.14,0,2.42-2.44,2.4-6.06-.02-3.63-.71-5.17-2.85-5.16h.01Z"/>
    <path class="cls-20" d="M87.72,67.81"/>
    <g>
      <path class="cls-24" d="M84.73,67.61c-1,.54-13.33,1.43-13.33,1.43-3.45-.37-4.69-3.69-4.69-3.69-.47-1.96.19-3.46.19-3.46,1.21-2.23-.95-5.72-.95-5.72-1.6.45-1.51.64-3.44,1.68,3.56,1.84-.63,9.44-.63,9.44-1.39,2.83-1.02,5.94-1.02,5.94.28,4.48,5.55,7.62,5.55,7.62,6.45,4.16,14.49,3.77,14.49,3.77.45-1.75,3.1-1.72,3.1-1.72,1.04-3,2.7-5.82,2.7-5.82,2.46-4.07,2.35-8.77,2.35-8.77,0,0,.18-1.92-.27-3.67l-.38-.98s-.34-.28-.34.22l-.37.94s-.34,1.36-2.97,2.79h.01Z"/>
      <path class="cls-15" d="M80.27,85.08c-2.08,0-8.59-.3-14.09-3.85-.21-.12-5.46-3.29-5.75-7.95-.03-.26-.34-3.33,1.07-6.18.04-.07,2.67-4.9,1.86-7.56-.18-.6-.52-1.02-1.04-1.29l-.75-.39.74-.4c.6-.33,1-.57,1.32-.76.7-.42,1.05-.63,2.21-.96l.32-.09.18.29c.09.15,2.27,3.72.98,6.15-.06.14-.56,1.46-.17,3.13.12.3,1.28,3.04,4.27,3.38,5.89-.43,12.47-1.06,13.11-1.38,2.38-1.29,2.75-2.5,2.75-2.51l.02-.05.35-.87c.02-.36.2-.52.35-.6.26-.12.54-.01.71.13l.09.07.44,1.14c.45,1.72.31,3.55.29,3.8,0,.43,0,4.96-2.42,8.98,0,.02-1.66,2.82-2.66,5.74l-.1.3h-.32s-2.31,0-2.67,1.39l-.08.32-.33.02s-.28,0-.66,0h-.02ZM63.36,57.9c.4.36.68.82.85,1.39.92,3.01-1.81,8.02-1.93,8.23-1.31,2.66-.97,5.64-.97,5.67v.03c.26,4.2,5.28,7.23,5.33,7.26,5.57,3.6,12.44,3.73,13.94,3.71.59-1.4,2.37-1.67,3.11-1.72,1.04-2.89,2.57-5.5,2.64-5.61,2.36-3.91,2.29-8.48,2.29-8.53v-.06s.17-1.84-.25-3.49l-.09-.22-.16.4c-.08.27-.6,1.64-3.18,3.04h0c-1.03.56-11.43,1.34-13.51,1.49h-.08c-3.68-.39-5-3.83-5.06-3.98l-.02-.05c-.5-2.08.19-3.68.22-3.74l.02-.03c.88-1.63-.32-4.13-.78-4.98-.77.24-1.05.4-1.66.77-.2.12-.44.26-.73.43h.02ZM88.53,63.82"/>
    </g>
    <polygon class="cls-17" points="61.87 54.79 60.23 55.5 60.32 55.86 61.96 55.17 61.87 54.79"/>
    <polygon class="cls-17" points="71.07 51.67 64.51 53.62 64.68 54.13 71.19 52.09 71.07 51.67"/>
    <path class="cls-17" d="M62.65,58.44l10.07-4.79h11.8l.13,1.48s-3.1-.62-5.56-.61c0,0-10.53.5-16.45,3.93h.01Z"/>
    <path class="cls-25" d="M73.21,59.09s1.1,1.23-.2,1.24l-.21-.04s-.26-.55.42-1.2h0Z"/>
    <path class="cls-25" d="M84.27,59.29s1.23.61,0,1.28c0,0-.68-.81,0-1.28Z"/>
    <path class="cls-20" d="M87.99,63.32"/>
    <path class="cls-3" d="M66.11,64.02s-.3,4.76,6.41,5.88c0,0,6.33-3.84,11.96-1.36,0,0,2.16-.58,3.65-3.8,0,0,.16-1.89.53,1.43,0,0-.8,10.14-5.92,14.93,0,0,.08-1.1-.48-2.49,0,0-1.69,2.35-4.92,2.8,0,0,.9-.96.76-2.64,0,0-5.15,2.68-10.58-.23,0,0-5.7-3.24-3.73-11.02,0,0,1.47-5.01,2.33-3.51h-.01Z"/>
    <g>
      <g>
        <path class="cls-6" d="M59.89,54.58s7.8-3.84,12.93-4.51c0,0,7.73-1.41,13.55,1.21l.84.51.27,4.44s-3.54-1.26-5.47-1.34c0,0-12.87.24-18.83,3.85,0,0-2.94,1.5-3.11.78,0,0-.42-.42-.26-1.62l.07-3.33h.01Z"/>
        <path class="cls-15" d="M60.44,60.17c-.16,0-.3-.02-.41-.08-.16-.07-.27-.19-.34-.34-.16-.21-.45-.78-.31-1.88l.07-3.58.24-.12c.32-.16,7.92-3.87,13.06-4.55.46-.08,7.98-1.37,13.8,1.25l.05.02,1.04.63.33,5.35-.64-.23s-3.48-1.24-5.33-1.31c-.47.01-12.89.32-18.59,3.79l-.03.02c-.8.41-2.13,1.02-2.95,1.02h0ZM60.47,59.29h0c.38,0,1.49-.41,2.51-.93,5.99-3.63,18.5-3.9,19.04-3.91h.02c1.5.06,3.85.78,4.97,1.15l-.22-3.54-.62-.37c-5.62-2.52-13.19-1.18-13.27-1.17h-.02c-4.5.59-11.2,3.7-12.55,4.35l-.07,3.11c-.12.92.15,1.26.15,1.27l.05.05h.01Z"/>
      </g>
      <path class="cls-16" d="M60.69,54.92s6.35-4.21,17.1-4.73c0,0,5.7-.03,9.1,2.02l.02,2.99s-7.81-3.1-23.88,2.66c0,0-2.8-.76-2.33-2.94h0Z"/>
      <path class="cls-25" d="M72.63,50.74s6.4-1.98,14.26,1.47c0,0,.64,3.48-.87,2.46,0,0-1.01-.45-.83-1.78,0,0-4.94-2.76-13.06-1.26,0,0-1.91-.43.5-.88h0Z"/>
    </g>
    <g>
      <path class="cls-21" d="M63.98,60.61s-.77-1.92-4.42-1.29c0,0-2.7,3.31-.54,5.7,0,0,1.78,1.98,2.79,2.1,0,0,2.7-3.57,2.18-6.51h-.01Z"/>
      <path class="cls-15" d="M62.01,67.59l-.25-.03c-1.12-.14-2.75-1.89-3.06-2.24-1.91-2.12-.49-5.04.52-6.28l.11-.13.16-.03c3.97-.68,4.88,1.47,4.91,1.56l.03.09c.55,3.1-2.14,6.71-2.26,6.86,0,0-.16.2-.16.2ZM59.8,59.73c-.45.61-2.13,3.14-.45,4.99.61.68,1.64,1.62,2.27,1.89.56-.82,2.3-3.58,1.93-5.87-.12-.23-.91-1.45-3.75-1.01Z"/>
    </g>
    <path class="cls-14" d="M82.15,46.02s2.46,1.12,3.44,4.35c0,0-.63-.39-1.66-.71,0,0,.06-1.47-1.77-3.65h0Z"/>
    <path class="cls-14" d="M72.81,49.06v-.05c-.02-1.36-1.32-2.45-2.91-2.43-1.59.02-2.87,1.14-2.85,2.51,0,.46.16.89.42,1.25,1.19-.44,3.17-1.05,5.34-1.27h0Z"/>
    <path class="cls-1" d="M69.13,65.16s-1.65-.52.39-3.76c0,0,.87-2.02-.3-4.28,0,0,10.89-3.29,17.35-.51,0,0-1.81,2.85-.58,4.26,0,0,1.08,1.35,1.34,2.69,0,0-.04.45-.48,1.23,0,0-1.85-.82-2.45-.92,0,0-6.58-.69-12.33,1.53l-.96.28s-1.18.13-1.98-.52Z"/>
    <path class="cls-25" d="M72.6,61.92s-.79-.08-1.03-.11c-.29-.04-.68-.19-.78-.6,0,0,.39-2.69,2.15-3.11,1-.24,2.82-.21,3.04,2.46v.17s.11,1.5-3.39,1.19h0Z"/>
    <g>
      <g>
        <path class="cls-24" d="M68.57,57.06s1.5-2.57,4.15-3.42c1.35-.43,1.89-.2,4.62,2.41.25.24.68.36,1.58.06.39-.13,1.26.38-.43,1.6,0,0-1.76.71-2.46-.18,0,0-2.85-2.42-4.99-.29,0,0-2.27,1.83-2.46-.18h-.01Z"/>
        <path class="cls-15" d="M69.36,58.45c-.16,0-.33-.03-.48-.09-.3-.13-.68-.45-.76-1.25v-.14l.06-.12c.06-.11,1.62-2.73,4.4-3.62,1.66-.53,2.44,0,5.06,2.51.17.17.55.15,1.13-.04.35-.12.86,0,1.07.42.2.39.17,1.05-1.1,1.97l-.04.03-.05.02c-.08.03-2.04.81-2.95-.28-.3-.24-2.62-2.02-4.35-.29l-.03.03c-.2.16-1.11.86-1.95.86h-.01ZM69.03,57.16c.03.15.08.32.2.37.31.13,1.06-.28,1.5-.63,1.92-1.88,4.48-.64,5.57.29l.06.07c.38.49,1.48.22,1.9.06.56-.41.72-.67.76-.78-.58.2-1.42.39-2-.16-2.75-2.63-3.1-2.65-4.17-2.31-2.12.68-3.49,2.59-3.82,3.09Z"/>
      </g>
      <path class="cls-10" d="M70.77,56s1.14-1.67,2.98-2.12c.94-.23,1.44.32,3.16,2.24.16.18,1.17.46,1.8.29.27-.07.09.81-1.28,1.01,0,0-.94.43-1.63-.72,0,0-2.04-1.59-4.05-.5,0,0-1.46,1.17-.98-.2Z"/>
      <path class="cls-4" d="M77.65,56.47s1.03-.47,1.27.19c0,0-.37,1.13-2.13.9,0,0-1.02-.39-.42-.66,0,0,.51.15,1.18.04,0,0,.52-.09.1-.46h0Z"/>
    </g>
    <path class="cls-15" d="M70.8,61.21c-.06-.39-.04-.8.02-1.2.07-.4.19-.8.43-1.18.11-.19.27-.36.44-.52.19-.16.36-.26.56-.36.38-.2.81-.33,1.26-.36.45-.03.92.06,1.33.26l.29.17c.09.06.18.13.26.2.04.04.08.06.14.12.05.05.08.09.12.14.07.09.13.19.18.29.42.79.42,1.66.19,2.42-.08-.39-.15-.76-.28-1.11-.12-.35-.29-.66-.49-.92-.05-.07-.11-.12-.16-.18-.03-.03-.06-.05-.08-.07,0,0-.06-.03-.09-.05-.07-.04-.14-.09-.21-.13l-.22-.1c-.3-.11-.61-.16-.92-.14-.32.02-.64.11-.96.24-.15.06-.32.15-.44.22-.12.09-.25.19-.36.31-.22.25-.41.56-.57.9-.17.34-.3.69-.43,1.07v-.02Z"/>
    <path class="cls-25" d="M87.11,56.67s-1.44,2,.13,4.43c0,0,1.4,1.03-.12,4.14l-.97-.09s1-2.68-.28-4.59c0,0-1.11-2.17.63-3.93l.6.04h0Z"/>
    <path class="cls-25" d="M82.51,59.98c0-.97,1.84-2.83,3.61-.92,0,0,1.27,1.53-.28,2.56,0,0-1.35.18-2.06.05,0,0-1.26-.04-1.27-1.7h0Z"/>
    <path class="cls-15" d="M81.78,61.16c-.07-.38-.06-.77,0-1.16.05-.39.16-.78.36-1.16.1-.19.23-.37.4-.53.18-.18.34-.28.53-.39.37-.2.78-.36,1.23-.39.45-.03.92.07,1.31.29.09.06.19.11.28.18.08.07.16.14.24.21.2.19.29.37.39.57.36.78.33,1.62.11,2.35-.14-.75-.34-1.47-.72-2-.05-.07-.1-.13-.15-.18-.05-.06-.1-.11-.14-.13-.07-.04-.13-.09-.2-.13-.07-.04-.14-.07-.2-.11-.27-.12-.56-.18-.86-.16-.3.01-.61.11-.9.24-.14.07-.3.15-.4.23-.06.04-.12.09-.17.15-.06.05-.11.11-.16.18-.21.25-.37.57-.53.89-.16.33-.28.68-.41,1.04h0Z"/>
    <g>
      <g>
        <path class="cls-2" d="M87.35,65.83s2.34.79-.6,2.29c0,0,1.92,1.02,2.1,2.42.08.63.23,1.84.96,2.08,0,0,2.33-.59.63.64,0,0-1.94,2.76-5.74,1.37,0,0-1.68-1.02-2.1-2.71l-.52-3.65-.39-.24-.54-.14-.34.17-.59.28s-1.71,4.5-2.56,5.2c-1.14.94-4.56,2.42-5.32,2.49-1.69.17-5.3.16-6.42-2.27,0,0-1.4-2.59.31-1.22,0,0,.57.73,1.8.6,0,0,.21-.52,1.19-2.25.3-.53.88-1.01,1.92-1.52.47-.23,1.33-.55,1.72-1.2,0,0-.5-.41-1.51-.31,0,0-.88-.15.94-1.29.93-.59,2.77-1.39,5.8-1.21l1.26.31s1.79,2.39,3.16.11c.09-.15.5-.26.5-.26,0,0,1.26-.86,3.8.1l.53.19v.02Z"/>
        <path class="cls-15" d="M71.14,76.54c-1.8,0-4.57-.38-5.59-2.58-.91-1.68-.53-2-.37-2.13.44-.37,1.06.13,1.36.36l.04.03.03.04s.38.44,1.16.44h0c.15-.31.47-.93,1.09-2.04.36-.64,1.01-1.16,2.11-1.7.07-.03.14-.07.23-.11.29-.14.65-.3.94-.53-.18-.04-.42-.06-.71-.03h-.12c-.22-.04-.51-.2-.57-.52-.09-.46.3-.92,1.35-1.58,1.09-.68,3.02-1.46,6.06-1.28h.08l1.42.37.1.13c.2.27.85.95,1.46.92.34-.02.66-.28.96-.77.14-.23.45-.37.71-.44.33-.19,1.72-.82,4.13.09l.52.19c.13.05,1.12.41,1.18,1.22.04.52-.31,1.02-1.07,1.51.64.47,1.55,1.3,1.69,2.34v.04c.06.42.19,1.37.56,1.62,1.35-.31,1.52.07,1.6.24.23.49-.33.92-.7,1.19-.35.44-2.48,2.83-6.2,1.47l-.08-.04c-.08-.05-1.84-1.13-2.3-2.99v-.04l-.5-3.44-.15-.1-.31-.08-.63.3c-.4,1.05-1.78,4.52-2.63,5.22-1.21.99-4.69,2.51-5.56,2.59-.29.03-.74.06-1.26.06l-.03.03ZM66.06,72.98c.08.18.17.38.28.57v.03c1.08,2.32,4.85,2.13,5.98,2.02.65-.07,3.98-1.49,5.08-2.39.55-.46,1.78-3.32,2.43-5.02l.06-.17,1.23-.6.77.19.63.39.55,3.83c.35,1.35,1.63,2.25,1.86,2.4,3.27,1.17,4.98-.98,5.16-1.21-.05,0-.1.02-.15.03l-.13.03-.12-.04c-.97-.32-1.16-1.67-1.25-2.4v-.04c-.13-.96-1.4-1.83-1.88-2.09l-.75-.4.76-.39c1-.51,1.25-.88,1.24-1.02,0-.16-.35-.37-.58-.45h0l-.53-.19c-2.26-.86-3.38-.16-3.39-.15l-.06.04-.08.02c-.09.02-.21.07-.26.1-.45.74-1.01,1.12-1.65,1.16-1,.05-1.82-.8-2.11-1.14l-1.08-.27c-2.78-.15-4.52.54-5.5,1.15-.3.19-.51.34-.65.45.79.05,1.21.38,1.26.42l.29.24-.2.33c-.4.67-1.18,1.03-1.7,1.27-.08.03-.15.07-.21.1-.91.45-1.46.87-1.73,1.33-.94,1.66-1.16,2.19-1.16,2.19l-.1.25-.27.03c-1.09.12-1.76-.34-2.04-.6Z"/>
      </g>
      <path class="cls-3" d="M79.03,66.01s-2.89.02-4.65,1.1c0,0-1.31.21,1.36.76,0,0-3.52,1.46-5.38,4.71,0,0-1.51,1.73-3.92.93,0,0-.62.43,1.52,1.49,0,0,1.1.67,4.2.49,0,0,2.68-.64,4.82-2.27,0,0,.75-.44,2.75-4.88,0,0,2.54-1.84,3.54,2.27,0,0,.52,3.07,3.09,3.31,0,0,.86.16,2.58-.5,0,0,.14-.3-1.09-.81,0,0-.31-1.76-.7-2.74,0,0-.5-1.25-1.91-1.74,0,0,1.59-.7,1.97-1.34,0,0-.43-.52-2.72-.92,0,0-3.6-.04-5.46.15h0Z"/>
      <path class="cls-25" d="M79.73,68.34s-1,3.01-2.31,4.88c0,0-3.24,2.09-5.25,2.28,0,0-.66-.64.85-1.35,0,0,2.2-.69,3.65-2.18,0,0,1.52-1.51,2.14-3.36,0,0,.56-.89.94-.89,0,0,.27-.11,0,.63h-.02Z"/>
      <path class="cls-25" d="M82.75,66s1.16-1.29,4.33.14c0,0,1.47.55-.47,1.52l-.7.54s.89-.17,2.27,1.86c0,0,.13,2.78,1.38,2.8,0,0,1.28-.5,0,.52,0,0-1.66.65-2.39-.9,0,0-.32-3.43-2.17-4.58,0,0,2.44-.96,1.42-1.3,0,0-2.4-1.22-3.68-.62v.02Z"/>
    </g>
    <g>
      <g>
        <path class="cls-21" d="M82.29,56.46s-1.32,1.93-.07,3.51c0,0,1.33,1.83,1.77,3.54,0,0,1.1,3.13-.89,4.04,0,0-1.78.57-3.52-.53,0,0-.83-.58-2.35,0,0,0-2.29-.09-1.47-2.12,0,0,1.08-1.91,3.21-1.62"/>
        <path class="cls-15" d="M82.29,56.46c-.28.58-.44,1.21-.42,1.82,0,.3.07.6.18.86.06.13.13.26.21.38.04.06.08.12.13.17l.07.09.08.1c.41.52.78,1.07,1.1,1.65s.62,1.19.82,1.86v-.04c.13.41.23.78.29,1.19.06.4.09.82.05,1.25s-.15.88-.4,1.3c-.12.21-.28.4-.47.56-.19.16-.39.29-.61.4h-.03l-.03.02c-.18.05-.3.08-.45.1-.14.02-.28.04-.42.05-.28.02-.57.02-.85,0-.57-.05-1.13-.2-1.64-.44-.13-.06-.25-.13-.38-.2-.06-.03-.13-.08-.19-.12l-.05-.03h0s-.03-.03-.05-.03c-.15-.08-.35-.13-.55-.15-.41-.05-.85.03-1.29.17l-.11.04h-.07c-.18-.02-.31-.05-.47-.09-.15-.04-.29-.08-.44-.15-.29-.12-.58-.31-.8-.6-.22-.29-.31-.67-.28-.99.02-.33.12-.61.24-.88l.02-.03h0c.21-.31.43-.55.7-.77.26-.22.55-.4.85-.54.31-.14.64-.22.96-.25.33-.03.66,0,.97.08-.32,0-.63.03-.93.11s-.58.21-.83.37c-.25.16-.48.36-.68.58-.19.22-.38.47-.5.71l.02-.04c-.08.23-.12.46-.11.66,0,.21.08.36.19.49.11.13.29.23.49.3.1.03.21.06.32.08s.23.03.32.03l-.18.03c.51-.22,1.08-.36,1.69-.33.3.02.61.07.92.21l.12.06.07.04.03.02s.09.05.14.08c.1.05.2.1.3.14.41.18.85.28,1.29.31.22.02.45,0,.67,0,.11,0,.22-.02.33-.04.1-.02.23-.04.3-.06l-.06.02c.13-.06.24-.13.34-.22s.18-.19.25-.3c.15-.23.23-.52.27-.84s.04-.66,0-1-.11-.7-.2-1.01v-.04c-.15-.58-.36-1.16-.63-1.73-.27-.56-.56-1.13-.89-1.66l-.06-.09-.07-.11c-.05-.07-.09-.16-.13-.23-.08-.16-.14-.33-.19-.5-.09-.35-.11-.7-.07-1.04.09-.68.38-1.3.79-1.8l.02.02Z"/>
      </g>
      <path class="cls-1" d="M81.11,58.25s-.58,1.35.81,3.91c0,0,1.01,1.95-.31,3.72,0,0-.25-.24-1.71-.64,0,0-1.72-.73-2.81.24,0,0-.98.73-1.06-.35,0,0,.41-1.44,1.82-1.51l1.06-.47s.89-2.95,2.19-4.89h.01Z"/>
      <path class="cls-4" d="M81.59,57.47s-.63.85.75,3.2c0,0,2.07,2.41,1.16,5.37,0,0-.91.25-1.9-.38,0,0,1.62-1.24-.12-4.41,0,0-1.06-2.16.11-3.78Z"/>
    </g>
    <g>
      <path class="cls-15" d="M75.34,60.07c.19.73-.22,1.47-.91,1.65s-1.4-.27-1.59-1,.22-1.47.91-1.65,1.4.27,1.59,1Z"/>
      <path class="cls-25" d="M72.8,60.91c-.07-.27.08-.55.33-.62.25-.07.51.1.58.38.07.27-.08.55-.33.62-.25.07-.51-.1-.58-.38Z"/>
    </g>
    <g>
      <path class="cls-15" d="M86.21,59.91c.17.66-.2,1.34-.83,1.5s-1.27-.24-1.44-.91c-.17-.66.2-1.34.83-1.5s1.27.24,1.44.91Z"/>
      <path class="cls-25" d="M83.9,60.67c-.06-.25.07-.5.3-.56s.47.09.53.34c.06.25-.07.5-.3.56s-.47-.09-.53-.34Z"/>
    </g>
    <path class="cls-1" d="M63.6,60.84s-.91-1.27-2.64-.74c0,0-2.44,2.64,1.34,5.45,0,0,1.7-2.63,1.29-4.71h0Z"/>
    <g>
      <path class="cls-15" d="M60.17,61.65c.26-.27.62-.45,1.01-.52.2-.03.4-.03.61,0,.1,0,.2.05.3.07.05.02.1.03.15.05l.14.06c.19.08.36.18.54.28.17.11.31.26.42.42.1.17.19.34.25.53.05.19.08.39.07.6l-.08.05c-.21-.08-.36-.18-.51-.29-.15-.1-.29-.2-.4-.31-.26-.18-.4-.49-.65-.66-.24-.18-.52-.32-.83-.36-.31-.05-.65,0-.97.14l-.06-.07h0Z"/>
      <path class="cls-15" d="M62.65,62.15c-.15.03-.34.1-.51.17-.17.08-.33.18-.46.3-.13.12-.25.27-.32.45s-.07.38-.05.59c-.09-.18-.18-.4-.17-.63,0-.23.07-.47.18-.68.11-.21.26-.4.42-.57.17-.17.33-.32.56-.46l.35.82h0Z"/>
    </g>
    <g>
      <g>
        <path class="cls-23" d="M81.28,85.14s-.34-2.33,2.51-2.64l1.24,1.49s-2.71.8-2.5,2.64l-1.24-1.5h0Z"/>
        <path class="cls-15" d="M83.13,88.07l-2.27-2.74-.02-.12s-.15-1.1.54-1.99c.5-.65,1.29-1.04,2.35-1.15l.24-.03,1.83,2.2-.65.19s-2.35.72-2.19,2.17l.16,1.48h0ZM81.71,84.97l.52.63c.4-.93,1.39-1.5,2.05-1.8l-.69-.82c-.69.11-1.2.38-1.51.78-.35.45-.38.98-.37,1.21Z"/>
      </g>
      <g>
        <path class="cls-24" d="M85.09,84.15s1.89,1.18,5.04.37c0,0-.72,4.84-3.53,7.05,0,0-3.36-1.97-3.92-5.09,0,0,.11-1.37,1.92-2.05l.48-.27h0Z"/>
        <path class="cls-15" d="M86.64,92.11l-.26-.15c-.14-.08-3.54-2.11-4.13-5.4v-.12c0-.07.16-1.64,2.17-2.42l.68-.39.22.14s1.8,1.06,4.7.31l.65-.17-.1.66c-.03.21-.78,5.05-3.69,7.34l-.24.19h0ZM83.14,86.47c.46,2.36,2.67,4.03,3.43,4.55,1.87-1.66,2.71-4.62,3-5.92-2.32.43-3.89-.16-4.47-.44l-.33.18c-1.33.51-1.58,1.4-1.63,1.63Z"/>
      </g>
      <g>
        <path class="cls-3" d="M86.64,91.65s1.6,1.36,2.11-.84c0,0,.15-.61,1.37-1.07l.3-1.35s1.68.54.68-1.95c0,0,.75-1.23-.65-2.08,0,0-1.94-.3-1.92,1.95l-.66,1.04s1.06,1.52-1.08,1.82c0,0-.92.07-.15,2.48Z"/>
        <path class="cls-15" d="M87.64,92.51c-.66,0-1.22-.46-1.3-.52l-.1-.08-.04-.12c-.41-1.28-.44-2.15-.09-2.66.18-.26.43-.38.61-.4.5-.07.83-.23.92-.43.1-.23-.08-.59-.15-.7l-.16-.24.75-1.18c.02-.79.26-1.39.73-1.79.71-.62,1.67-.48,1.71-.47h.09l.08.06c1.27.77,1.14,1.9.9,2.48.37,1.01.37,1.7-.02,2.11-.24.25-.55.32-.81.32l-.26,1.19-.23.09c-.87.33-1.07.72-1.1.78v-.02.02h0c-.2.83-.57,1.33-1.11,1.5-.14.05-.28.07-.42.07h0ZM87.02,91.38c.18.12.52.3.77.22.22-.07.41-.39.53-.89.03-.14.25-.79,1.41-1.29l.35-1.6.47.15c.12.04.32.04.37,0,0,0,.21-.25-.23-1.35l-.08-.21.11-.19c.08-.14.43-.84-.41-1.41-.18,0-.6,0-.92.28-.28.24-.42.66-.41,1.24v.13l-.59.92c.14.3.3.8.08,1.29-.22.51-.76.83-1.59.96-.04.05-.27.4.15,1.77h-.01Z"/>
      </g>
      <path class="cls-12" d="M83.55,82.59s-1.1.24-1.54.98c0,0,.32,1.27,2.33-.04l-.79-.94Z"/>
      <path class="cls-3" d="M83.99,85.4s.47,1.35,1.42,2.37c0,0,1.08.34.55-.51,0,0,.43.41,1.21.38,0,0,.18-.74.93-1.47,0,0-.31-.14.15-.8,0,0-2.23-.11-2.98-.73,0,0-.66-.2-1.28.77h0Z"/>
    </g>
    <g>
      <g>
        <path class="cls-24" d="M84.02,55.64s-.52.5-1.07.46c-.24-.02-.46-.44-.95-.19,0,0-.69,1.6,1.33,1.72,0,0,1.07-.07,1.45-.52,0,0,.63-.77,2.02-.59,0,0,1.9.63,1.51-.84,0,0-.53-2.65-2.85-1.33,0,0-.82.77-1.44,1.29Z"/>
        <path class="cls-15" d="M83.34,58.07h-.03c-.8-.05-1.36-.31-1.65-.79-.42-.68-.1-1.47-.07-1.55l.06-.15.14-.07c.55-.29.96-.03,1.15.1.02.02.04.03.07.04h0c.28,0,.6-.25.69-.34l.03-.02c.61-.5,1.41-1.26,1.42-1.27l.04-.04.05-.03c.81-.46,1.54-.55,2.16-.26,1,.46,1.3,1.72,1.34,1.88.17.66-.04,1.03-.24,1.22-.53.5-1.51.25-1.8.16-1.07-.13-1.56.41-1.58.44-.47.57-1.55.66-1.76.68h-.03.01ZM82.36,56.29c-.03.16-.04.37.06.53.16.26.58.34.92.36.36-.03.94-.16,1.11-.36.03-.03.8-.96,2.42-.74l.08.02c.38.12.85.15.95.05.02-.02.05-.11,0-.36v-.03c-.06-.27-.32-1.02-.85-1.26-.34-.15-.78-.09-1.3.2-.17.16-.86.8-1.42,1.26-.12.11-.71.62-1.4.57-.19-.01-.34-.11-.45-.18-.05-.03-.08-.05-.11-.07h0Z"/>
      </g>
      <path class="cls-10" d="M85.18,55.16s-.64.58-1.27,1.19c0,0-.65.32.51.5,0,0,1.13-.26,1.37-.57,0,0,.35-.26,1.14-.06,0,0,.88.28.74-.82,0,0-.53-1.36-1.59-.85,0,0-.38,0-.91.62h.01Z"/>
      <path class="cls-4" d="M87.08,54.44s.88-.02.87,1.59c0,0-.45.61-.98.03,0,0,.55-1.65-1.24-1.38,0,0,1.17-.56,1.35-.25h0Z"/>
    </g>
    <g>
      <g>
        <path class="cls-6" d="M66.68,44.75s-4.28.42-9.44-5.51c0,0-.72-.94-1.38-.86-.66.07-1.26,1.16-1.01,3.88,0,0,.99,7.21,7.49,10.18,0,0,4.16.76,5.78-3.14,0,0,1.52-2.78-1.45-4.55h.01Z"/>
        <path class="cls-15" d="M63.13,52.93c-.52,0-.86-.06-.87-.06h-.05l-.05-.03c-6.65-3.03-7.71-10.22-7.75-10.53-.35-3.77.86-4.32,1.4-4.38.85-.1,1.61.81,1.78,1.02,4.91,5.64,9.01,5.35,9.05,5.35h.14l.13.06c3.13,1.86,1.78,4.8,1.62,5.12-1.27,3.04-4,3.45-5.4,3.45ZM62.47,52.01c.48.07,3.86.45,5.24-2.88l.02-.04c.05-.1,1.23-2.37-1.17-3.88-.85.02-4.9-.2-9.66-5.67l-.02-.02c-.24-.31-.72-.72-.98-.69-.24.03-.86.71-.61,3.39,0,.05,1.03,6.95,7.18,9.79Z"/>
      </g>
      <path class="cls-16" d="M56.44,39.15s3.84,5.59,10.59,6.47c0,0,1.98,2.41-.38,5.05,0,0-2.03-1.26-3.74.15,0,0-3.9-1.3-4.68-4.49,0,0,1.08-1.21-1.21-2.1,0,0-1.03-1.84-1.23-3.54,0,0-.09-2.48.65-1.55h0Z"/>
      <path class="cls-25" d="M67.03,45.62s1.25.89.62,3.46c0,0-10.07-1.94-11.53-9.6,0,0-.04-1.02,1.02.54,0,0,4.13,5.04,9.89,5.6Z"/>
    </g>
  </g>
  <g>
    <g>
      <path class="cls-6" d="M71.91,90.43c0,8.63-6.21,15.63-13.87,15.63s-13.87-7-13.87-15.63,6.21-15.63,13.87-15.63,13.87,7,13.87,15.63Z"/>
      <path class="cls-15" d="M58.04,106.51c-7.89,0-14.32-7.21-14.32-16.08s6.42-16.08,14.32-16.08,14.32,7.21,14.32,16.08-6.42,16.08-14.32,16.08ZM58.04,75.24c-7.4,0-13.42,6.81-13.42,15.19s6.02,15.19,13.42,15.19,13.42-6.81,13.42-15.19-6.02-15.19-13.42-15.19Z"/>
    </g>
    <path class="cls-16" d="M71.13,90.37c0,7.91-5.76,14.32-12.88,14.33-7.12,0-12.89-6.41-12.89-14.32s5.76-14.32,12.88-14.33c7.12,0,12.89,6.41,12.89,14.32Z"/>
    <g>
      <path class="cls-6" d="M67.79,90.26c0,6.7-4.65,12.14-10.38,12.14s-10.38-5.43-10.38-12.14,4.65-12.14,10.38-12.14,10.38,5.43,10.38,12.14Z"/>
      <path class="cls-15" d="M57.41,102.84c-5.97,0-10.83-5.64-10.83-12.58s4.86-12.58,10.83-12.58,10.83,5.64,10.83,12.58-4.86,12.58-10.83,12.58ZM57.41,78.57c-5.48,0-9.94,5.24-9.94,11.69s4.46,11.69,9.94,11.69,9.94-5.24,9.94-11.69-4.46-11.69-9.94-11.69Z"/>
    </g>
    <g>
      <path class="cls-23" d="M67.53,90.05c0,6.34-4.3,11.48-9.6,11.48s-9.6-5.14-9.6-11.48,4.3-11.48,9.6-11.48,9.6,5.14,9.6,11.48Z"/>
      <path class="cls-15" d="M57.93,101.87c-5.48,0-9.93-5.3-9.93-11.82s4.46-11.82,9.93-11.82,9.93,5.3,9.93,11.82-4.46,11.82-9.93,11.82ZM57.93,78.9c-5.11,0-9.26,5-9.26,11.15s4.16,11.15,9.26,11.15,9.26-5,9.26-11.15-4.16-11.15-9.26-11.15Z"/>
    </g>
    <path class="cls-14" d="M53.02,80.94s-4.1,8.38-1.46,17.07c0,0-4.35-3.47-2.04-11.86,0,0,1.56-4.56,3.49-5.21h.01Z"/>
    <path class="cls-14" d="M56.37,78.94s-3.34,10.98,0,22.16c0,0,2.8.63,5.8-1.74,0,0-2.64-7.69-1.81-19.64,0,0-.85-.82-3.99-.78Z"/>
    <path class="cls-14" d="M63.97,82.01s0,6.36,1.86,13.41c0,0,3.28-7.42-1.86-13.41Z"/>
    <g>
      <g>
        <path class="cls-6" d="M52.16,89.87c-.04,2.81,1.72,5.15,3.93,5.23,2.22.08,4.05-2.14,4.1-4.95.04-2.81-1.72-5.15-3.93-5.23-2.22-.08-4.05,2.14-4.1,4.95Z"/>
        <path class="cls-15" d="M56.21,95.54h-.12c-2.45-.08-4.41-2.63-4.36-5.68.03-1.69.66-3.24,1.73-4.26.8-.76,1.81-1.16,2.82-1.13,2.45.08,4.41,2.63,4.36,5.68-.03,1.69-.66,3.24-1.73,4.26-.77.73-1.72,1.13-2.7,1.13ZM56.15,85.36c-.75,0-1.47.31-2.08.89-.9.86-1.43,2.18-1.46,3.63h0c-.04,2.57,1.53,4.71,3.5,4.78.79.03,1.54-.28,2.18-.88.9-.86,1.43-2.18,1.46-3.63.04-2.57-1.53-4.71-3.5-4.78h-.1,0Z"/>
      </g>
      <path class="cls-16" d="M52.69,89.97c-.04,2.38,1.36,4.37,3.11,4.43,1.76.06,3.21-1.82,3.25-4.21.04-2.38-1.36-4.37-3.11-4.43-1.76-.06-3.21,1.82-3.25,4.21Z"/>
      <g>
        <g>
          <path class="cls-6" d="M53.1,89.47c-.2,1.81.74,3.53,2.1,3.84s2.62-.91,2.82-2.72c.2-1.81-.74-3.53-2.1-3.84s-2.62.91-2.82,2.72Z"/>
          <path class="cls-15" d="M55.61,93.69c-.16,0-.33-.02-.49-.05-1.52-.34-2.58-2.23-2.36-4.2.12-1.12.63-2.08,1.39-2.62.55-.39,1.21-.53,1.84-.39,1.52.34,2.58,2.23,2.36,4.2-.12,1.12-.63,2.08-1.39,2.62-.41.29-.88.44-1.35.44ZM55.5,87.04c-.33,0-.66.11-.96.32-.6.43-1.02,1.23-1.12,2.15-.18,1.64.64,3.2,1.84,3.47.45.1.9,0,1.3-.28.6-.43,1.02-1.23,1.12-2.15.18-1.64-.64-3.2-1.84-3.47-.12-.03-.23-.04-.35-.04h.01Z"/>
        </g>
        <path class="cls-16" d="M53.42,89.72c-.06,1.57.71,2.91,1.72,2.99s1.87-1.13,1.93-2.7-.71-2.91-1.72-2.99-1.87,1.13-1.93,2.7Z"/>
        <path class="cls-25" d="M53.42,89.75c-.02,1.19.52,2.17,1.19,2.19.68.02,1.24-.92,1.26-2.11.02-1.19-.52-2.17-1.19-2.19-.68-.02-1.24.92-1.26,2.11Z"/>
      </g>
    </g>
    <path class="cls-25" d="M65.17,77.9s6.5,2.82,6.03,15.01c0,0-1.11,10.59-11.73,12.44,0,0,10.98-3.38,10.61-15.64,0,0,.27-6.13-4.92-11.81h.01Z"/>
  </g>
</svg>