<?xml version="1.0" encoding="utf-8"?>
<!-- Generator: Adobe Illustrator 28.5.0, SVG Export Plug-In . SVG Version: 9.03 Build 54727)  -->
<svg version="1.0" id="Layer_1" xmlns="http://www.w3.org/2000/svg" xmlns:xlink="http://www.w3.org/1999/xlink" x="0px" y="0px"
	 viewBox="0 0 800 400" style="enable-background:new 0 0 800 400;" xml:space="preserve">
<style type="text/css">
	.st0{fill:#008E80;}
	.st1{fill:#067D73;}
	.st2{fill:#2EAA92;}
	.st3{fill:#E0310E;}
	.st4{fill:#B5E1D9;}
	.st5{fill:#1D6459;}
	.st6{fill:#E0E54F;}
	.st7{fill:#FFF666;}
	.st8{fill:#3DC39F;}
	.st9{fill:#239D90;}
	.st10{fill:#A5CEC6;}
	.st11{fill:#FFF77A;}
	.st12{fill:#CCD03D;}
</style>
<g>
	<g>
		<g>
			<rect x="-5.08" y="28.15" class="st0" width="810.06" height="625.84"/>
			<path class="st1" d="M478.93,339.95c6.6,34.59,9.56,61.09,16.16,95.68c3.46,18.13,7.03,36.56,17.01,53.18
				c3.52,5.87,7.92,11.57,14.2,15.87c14.8,10.16,36.92,10.67,56.42,8.02c31.53-4.27,61.87-15.64,83.48-33.87
				c21.61-18.25,33.76-43.58,29.69-68.11c-1.54-9.25-5.63-18.71-14.58-24.96c-5.63-3.94-12.76-6.33-19.83-8.48
				c-33.34-10.21-68.58-17.07-99.91-30.55c-12.05-5.19-23.53-11.37-36.52-15.01c-12.98-3.64-28.19-4.41-40.04,1.05L478.93,339.95z"
				/>
			<path class="st2" d="M482.53,322.49c-8.67,13.11,0.38,29.26,5.14,43.5c8.79,26.34,17.56,52.69,26.35,79.03
				c2.41,7.25,5,14.77,11.2,20.54c5.02,4.68,12.05,7.83,19.2,10.39c31.17,11.24,68.33,13.18,100.27,3.3
				c31.94-9.89,57.68-32.05,64.4-58.1c3.26-12.65,2.19-25.81-1.6-38.38c-10.73-35.74-43-66.26-82.81-86.26
				c-15.17-7.61-31.9-13.98-49.88-15.59c-17.98-1.61-41.38-0.69-53.87,9.45C520.93,290.34,489.56,311.87,482.53,322.49z"/>
			<path class="st2" d="M416.53,384.45c-10.98-0.33-22.3,5.81-28.07,13.39c-5.75,7.58-7.07,16.64-8.16,25.4
				c-2.45,19.53-3.73,41.17,11.99,56.58c8.87,8.68,22.66,14.26,36.96,14.9c14.3,0.66,28.84-3.61,38.97-11.44
				c10.9-8.42,16.36-20.4,17.44-32.28c1.07-11.88-1.9-23.76-5.89-35.26c-1.86-5.38-4.05-10.88-8.63-15.19
				c-4.25-4-10.23-6.68-16.3-8.84c-10.63-3.77-22.01-6.24-33.62-7.27h-4.68V384.45z"/>
			<path class="st2" d="M383.8,312.46c-0.93-11.03-12.8-20.07-26.17-24.02s-28.07-3.87-42.39-3.71c-14.32,0.16-29.02,0.3-42.41-3.63
				c-5.47-1.61-10.71-3.87-16.51-4.53c-5.37-0.61-11.54,0.66-14.46,4.09c-0.95,3.08-0.73,6.58-0.43,9.91
				c3.36,22.87,5.06,45.91,5.06,68.93c0,19.95-1.15,40.4,6.91,59.35c4.98,11.68,15.01,23.42,30.48,26.35
				c14.08,2.67,28.64-2.67,40.3-9.3c10.19-5.79,19.48-12.86,24.89-21.69c4.52-7.35,6.1-15.52,8-23.51
				c4.8-20.18,11.87-40.05,21.1-59.29C381.15,325.3,384.37,318.99,383.8,312.46z"/>
			<path class="st1" d="M226.8,490.39c-4.23,19.77,9.7,38.86,23.09,56.02c6.06,7.76,12.19,15.59,20.33,22.1
				c8.14,6.51,18.61,11.7,30.26,12.83c15.29,1.49,30.54-4.2,41.84-12.29c20.48-14.65,30.2-38.28,22.3-58.97
				c-0.43-1.12-0.99-2.31-2.25-2.94c-1.07-0.54-2.43-0.56-3.71-0.54c-15.25,0.16-30.4,2.05-45.67,2.43
				c-15.25,0.38-31.05-0.87-44.44-6.55c-11.48-4.86-23.07-13.14-35.65-10.32L226.8,490.39z"/>
			<path class="st2" d="M334.42,479.87c-9.36-0.92-18.71,1.3-28.11,2c-13.12,0.98-26.61-1.07-38.26-5.84
				c-8.81-3.61-18.53-8.89-27.79-6.01c-6.66,2.08-10.13,7.78-11.87,13.18c-0.67,2.1-1.19,4.25-1.8,6.37
				c-0.49,2.38-0.81,4.79-0.61,7.19c0.06,0.75,0.12,1.97,0.28,3.22c0.26,0.51,0.53,1.03,0.77,1.54c0.51,1,1.09,1.97,1.7,2.92
				c7.41,8.09,12.8,17.31,18.35,26.3c7.07,11.47,14.97,23.07,27.63,31.18c12.66,8.11,31.23,11.95,45.87,6.17
				c4.78-1.89,8.85-4.66,12.78-7.5c16-11.58,30.72-25.71,33.54-42.52C369.7,501.28,356.17,482.02,334.42,479.87z"/>
			<g>
				<g>
					<g>
						<path class="st3" d="M767.88,355.59c-0.34,0.98-0.63,1.99-0.95,2.97C767.23,357.56,767.55,356.57,767.88,355.59z"/>
					</g>
				</g>
			</g>
			<path class="st1" d="M91.39,527.65c-4.54,12.04-6.14,24.74-4.68,37.25c1.19,10.17,4.48,20.38,11.38,29.09
				c8.77,11.06,22.66,19.02,36.21,26.66c5.37,3.04,10.77,6.09,16.85,8.19c14.36,4.97,31.72,4.02,45.43-1.97
				c13.69-5.97,23.59-16.69,27.24-28.52c1.19-3.84,1.74-7.91,0.34-11.7c-2.86-7.78-12.84-12.44-22.01-16.33
				c-32.02-13.59-64.06-27.17-96.08-40.78L91.39,527.65z"/>
			<path class="st2" d="M113.5,594.73c-10.35-9.71-17.9-21.18-21.99-33.38c-3.81-11.37-4.56-23.65,0.55-34.7
				c5.08-11.06,16.63-20.71,31.33-23.66c12.35-2.48,25.72-0.11,36.9,4.68c11.16,4.79,20.44,11.81,29,19.13
				c11.69,9.94,22.54,20.74,28.88,33.24c6.36,12.49,7.82,26.93,0.83,39.22c-9.92,17.48-37.53,27.67-61.35,22.66
				c-18-3.79-32.02-14.69-43.36-26.14L113.5,594.73z"/>
			<path class="st2" d="M594.96,586.9c-11.3-12.85-26.77-24.04-45.81-29.06c-36.01-9.48-77.47,6.14-98.17,30.8
				c-11.63,13.85-17.86,29.93-23.94,45.76c-2.51,6.53-5.02,13.06-7.53,19.59h207.11c2.59-7.84-1.24-17.28-5.35-25.27
				C613.81,614.31,606.26,599.75,594.96,586.9z"/>
			<path class="st1" d="M90.23,373c-1.46,20.87-1.56,41.02,12.58,58.86c5.55,7.01,12.92,13.05,20.23,19.02
				c7.29,5.96,14.58,11.93,21.89,17.89c3.61,2.95,7.45,6.02,12.5,7.2c3.95,0.94,8.22,0.57,12.25-0.08
				c27.79-4.59,49.54-25.42,49.48-47.37c-0.02-6.43-1.7-12.8-3.46-19.1c-2.82-10.01-5.89-19.99-8.95-29.96
				c-3.18-10.34-6.36-20.68-9.54-31.01c-0.28-0.9-0.63-1.89-1.64-2.38c-1.4-0.69-3.22-0.08-4.68,0.54
				c-27.58,11.85-55.57,27.35-87.05,25.68L90.23,373z"/>
			<path class="st2" d="M135.19,445.93c-24.67-17.98-42.41-36.84-44.98-60.68s10.21-48.39,33.46-64.21
				c7.29-4.96,15.84-9.17,25.44-10.29c17.5-2.02,34.75,7.07,43.46,18.97c8.71,11.9,10.49,26.04,10.82,39.71
				c0.32,13.67-0.57,27.53,3.48,40.84c2.55,8.37,7.03,17.1,3.63,25.29c-2.65,6.4-9.7,11.09-16.97,14.77
				c-8.81,4.43-18.79,7.94-29.31,8.09c-10.51,0.15-21.57-3.61-26.55-10.76L135.19,445.93z"/>
			<path class="st1" d="M603.89,558.75c4.27,17.72,11.24,35.33,23.92,50.46c12.68,15.13,31.57,27.67,54.08,32.41
				c20.76,4.36,43.81,1.69,61.99-7.19c8.26-4.04,15.8-9.65,18.49-16.9c3.22-8.7-1.11-17.93-6.06-26.14
				c-7.68-12.77-16.97-24.94-27.73-36.31c-6.93-7.32-14.95-14.59-25.88-17.89c-13.27-3.99-28.19-1.39-41.74,2
				c-16.91,4.23-33.32,9.65-48.95,16.16L603.89,558.75z"/>
			<path class="st2" d="M665.17,623.09c-18.17-12.5-36.66-25.32-48.67-41.68c-12.01-16.36-16.59-37.17-5.69-53.97
				c7.05-10.86,19.69-18.95,32.99-25.43c11.99-5.84,26.98-10.75,39.98-6.37c4.98,1.67,9.11,4.58,12.9,7.6
				c26,20.71,40.28,48.31,53.95,75.15c4.52,8.86,9.11,18.35,6.64,27.68c-3.32,12.54-19,21.33-35.2,23.97
				c-16.2,2.64-33.8,3.82-49.3-1.94L665.17,623.09z"/>
			<path class="st2" d="M241.95,615.77c-12.01,4.82-20.13,13.8-27.77,22.45c-4.66,5.25-9.3,10.52-13.93,15.77H369.2
				c-1.42-8.34-4.96-16.26-12.54-22.14c-5.41-4.2-12.42-6.94-19.46-9.25c-18.71-6.15-38.78-9.89-59.08-10.98
				C265.81,610.96,252.9,611.37,241.95,615.77z"/>
			<g>
				<g>
					<g>
						<g>
							<polygon class="st3" points="45.43,654 45.41,654 45.39,654 							"/>
						</g>
					</g>
				</g>
			</g>
			<path class="st2" d="M355.89,596.34c2.07-14.16,4.19-28.5,10.84-41.79c6.64-13.29,18.43-25.63,35.18-31.62
				c7.35-2.63,15.92-3.94,23.55-1.87c9.82,2.66,16.1,10.45,17.88,18.36s-0.18,16.02-2.35,23.88c-2.67,9.65-5.71,19.33-11.34,28.17
				c-5.63,8.84-14.12,16.9-25.44,21.43c-8.69,3.48-19.14,4.73-28.44,2.35c-9.3-2.38-17.03-8.75-18.25-16.24L355.89,596.34z"/>
			<path class="st2" d="M769.33,277.61c-2.25-2.56-5.41-4.55-8.67-6.32c-11.42-6.24-25.68-10.53-39.35-8.22
				c-4.52,0.77-8.89,2.23-13.51,2.41c-6.02,0.23-12.98-1.48-17.64,1.23c-7.47,5.89-11.77,14.59-12.58,22.89
				c0.28,7.61,3.5,15.08,8.55,21.63c6.66,8.65,17.68,16.23,30.68,16.52c12.37,0.28,23.25-5.92,32.77-12.03
				c7.51-4.81,15.07-9.93,19.63-16.59C773.79,292.48,774.82,283.85,769.33,277.61z"/>
			<path class="st2" d="M109.74,285.06c-1.24-2.18-3.32-3.99-5.39-5.74c-5.93-5.02-12.29-9.99-20.27-12.83
				c-13.29-4.71-28.8-2.79-43.02-0.16c-3.89,0.72-7.84,1.51-11.14,3.25c-3.3,1.74-5.87,4.61-5.67,7.7L24,277.05
				c-0.02,0.1-0.04,0.18-0.08,0.26c-0.83,4.41-0.57,9.29-0.08,13.85c1.15,7.22,3.24,14.29,7.55,20.72
				c5.71,8.52,15.19,15.51,26.51,19.48c1.96,0.69,3.99,1.3,6.14,1.51c2.27,0.23,4.56,0,6.8-0.36c10.63-1.74,20.37-6.61,26.75-13.41
				c5.02-5.35,7.94-11.68,10.65-17.95C110.46,295.94,112.61,290.11,109.74,285.06z"/>
			<path class="st4" d="M271.74,551.58c-4.76-5.27-7.31-11.5-10.82-17.33c-5.95-9.89-14.62-18.67-21.2-28.32
				c-6.14-9.01-10.41-19.38-8.14-29.32c-1.44,2.07-2.47,4.36-3.2,6.61c-0.67,2.1-1.19,4.25-1.8,6.37c-0.49,2.38-0.81,4.79-0.61,7.19
				c0.06,0.75,0.12,1.97,0.28,3.22c0.26,0.51,0.53,1.03,0.77,1.54c0.51,1,1.09,1.97,1.7,2.92c7.41,8.09,12.8,17.31,18.35,26.3
				c6.16,9.99,12.96,20.1,23.01,27.9c1.84,1.35,3.75,2.61,5.65,3.91c7.59,4.63,17.15,7.73,26.65,8.24c0.28-0.34-0.12,0.41,0,0
				C290.74,566.06,279.25,559.93,271.74,551.58z"/>
			<path class="st4" d="M203.41,369.44c-0.32-13.67-2.11-27.81-10.82-39.71c-5.55-7.56-14.54-14-24.87-17.15
				c10.33,7.2,15.94,18.23,17.88,29.06c2.33,12.86,0.43,25.94,0.85,38.92c0.47,14.18,3.71,28.39,1.48,42.47
				c-2.23,14.08-11.44,28.67-28.35,34.18l-0.34,0.95c1.66,0.16,3.34,0.28,5,0.26c10.51-0.15,20.5-3.66,29.31-8.09
				c7.29-3.66,14.32-8.37,16.97-14.77c3.4-8.19-1.07-16.92-3.63-25.29C202.84,396.97,203.73,383.1,203.41,369.44z"/>
			<path class="st4" d="M251.38,284.36c3.08-1.18,6.72-0.64,10.17-0.46c5.02,0.25,10.11-0.43,14.76-1.9
				c-1.15-0.28-2.33-0.54-3.48-0.89c-5.47-1.61-10.71-3.87-16.51-4.53c-5.37-0.61-11.54,0.66-14.46,4.09
				c-0.95,3.08-0.73,6.58-0.43,9.91c3.36,22.87,5.06,45.91,5.06,68.93c0,19.95-1.15,40.4,6.91,59.35
				c4.48,10.52,13.04,21.04,25.98,25.19c-8.51-6.4-13.45-15.39-17.03-24.25c-11.52-28.35-13.12-58.45-14.64-88.13
				c-0.61-11.77-1.19-23.53-1.8-35.3C245.67,291.87,246.16,286.36,251.38,284.36z"/>
			<path class="st4" d="M391.98,397.74c4.17-5.23,11.56-8.53,19.24-10.11c6.85-1.41,13.99-1.61,21.08-1.67
				c-3.69-0.62-7.39-1.17-11.14-1.49h-4.66c-10.98-0.33-22.3,5.81-28.07,13.39c-5.75,7.58-7.07,16.64-8.16,25.4
				c-2.45,19.53-3.73,41.17,11.99,56.58c4.76,4.68,11,8.4,17.92,10.99c-9.52-5.76-14.52-15.24-17.72-24.42
				c-6.24-17.85-8.1-36.61-5.45-54.99C387.69,406.67,388.74,401.79,391.98,397.74z"/>
			<path class="st4" d="M189.27,526.78c-8.59-7.3-17.84-14.34-29-19.12c-4.25-1.82-8.85-3.3-13.57-4.28
				c19.12,10.57,35.44,24.14,47.49,39.73c7.41,9.58,13.27,19.97,15.9,30.93c3.73,15.52-0.18,33.1-14.48,44.11
				c10.19-4.18,18.73-10.73,23.37-18.9c6.99-12.29,5.53-26.73-0.83-39.22C211.81,547.52,200.96,536.73,189.27,526.78z"/>
			<path class="st4" d="M382.97,533.82c-7.05,5.94-12.48,13.18-16.26,20.72c-6.64,13.29-8.77,27.63-10.84,41.79l1.62,2.66
				c0.69,4.22,3.46,8.04,7.39,11.04c-2.09-2.28-3.52-5-4.25-7.75c-1.46-5.5-0.55-11.17,0.43-16.74
				C364.23,567.36,368.75,548.18,382.97,533.82z"/>
			<path class="st4" d="M450.98,588.64c-11.63,13.85-17.86,29.93-23.94,45.76c-0.45,1.13-0.87,2.26-1.32,3.41
				c6.22-13.57,14.74-26.52,25.4-38.35c12.94-14.39,29.61-27.5,50.75-33.87c30.28-9.11,67.5-1.95,88.73,17.07
				c0.57,0.51,1.17,1.03,1.84,1.51c-11.04-11.68-25.64-21.66-43.3-26.3C513.13,548.36,471.68,563.98,450.98,588.64z"/>
			<path class="st4" d="M737.01,625.01c-13.06,2.13-26.59,2.64-39.88,1.46c-8.26-0.74-16.57-2.15-23.74-5.41
				c-5-2.28-9.28-5.37-13.51-8.43c-13.67-9.91-27.44-19.92-38.1-31.83c-9.03-10.11-15.7-21.82-17.09-33.98
				c-0.49,11.88,4.13,24.15,11.79,34.61c12.01,16.34,30.5,29.18,48.67,41.68l7.59,5c15.49,5.78,33.09,4.58,49.3,1.94
				c6.02-0.98,11.97-2.81,17.24-5.37C738.53,624.76,737.74,624.87,737.01,625.01z"/>
			<path class="st4" d="M658.53,473.96c25.32-11.37,44.82-30.67,50.53-52.84c3.26-12.65,2.19-25.81-1.6-38.38
				c-10.73-35.74-43-66.26-82.81-86.26c-6.97-3.51-14.3-6.71-21.89-9.35c29.12,23.14,62.58,43.98,80.69,72.92
				c4.39,7.02,7.78,14.37,10.96,21.77c2.53,5.89,4.92,11.86,5.55,18.05c1.2,11.8-4.11,23.37-9.82,34.34
				C682.57,448.81,673.64,463.56,658.53,473.96z"/>
			<path class="st4" d="M721.31,263.06c-4.52,0.77-8.89,2.23-13.51,2.41c-6.02,0.23-12.98-1.48-17.64,1.23
				c-7.47,5.89-11.77,14.59-12.58,22.89c0.28,7.61,3.5,15.08,8.55,21.63c2.88,3.72,6.56,7.27,10.88,10.11
				c-7.55-10.5-10.86-22.79-9.26-34.72c0.73-5.35,2.73-11.08,8.26-14.34c6.78-4.04,16.28-3.08,24.79-3.86
				c7.21-0.66,14.16-2.69,21.41-3.12c1.4-0.08,2.79-0.08,4.21-0.05C738.37,262.73,729.74,261.65,721.31,263.06z"/>
			<path class="st4" d="M97.54,319.11c5.02-5.35,7.94-11.68,10.65-17.95c2.27-5.23,4.42-11.06,1.54-16.1
				c-1.24-2.18-3.32-3.99-5.39-5.74c-5.93-5.02-12.29-9.99-20.27-12.83c-8.63-3.05-18.19-3.31-27.71-2.41
				c9.9,2.58,18.79,7.42,24.71,14.06c8.71,9.78,10.47,23.15,3.87,33.87c-5.81,9.44-18.13,16.33-31.47,17.62
				c1.44,0.62,2.9,1.21,4.39,1.76c1.96,0.69,3.99,1.3,6.14,1.51c2.27,0.23,4.56,0,6.8-0.36C81.44,330.79,91.16,325.92,97.54,319.11z
				"/>
			<path class="st2" d="M804.98,322c-3.24,0.3-6.42,0.94-9.46,1.95c-18.75,6.28-25.94,23.68-29.67,39.22
				c-12.09,50.29-10.23,102.57,5.41,152.29c3.77,11.96,10.75,25.63,25.96,28.83c3.34-1.35,5.63-3.41,7.76-5.64V322z"/>
			<path class="st4" d="M797.04,544.24c-20.62-15.75-27.16-39.55-29.71-61.96c-0.93-8.3-1.48-16.62-2.03-24.94
				c-1.58-24.24-3.16-48.62,0.79-72.69c3.4-20.79,11.2-41.5,25.58-59.17c-15.92,7.25-22.36,23.27-25.82,37.67
				c-12.09,50.29-10.23,102.57,5.41,152.29C775.01,527.37,781.97,540.96,797.04,544.24z"/>
			<path class="st4" d="M356.68,631.86c-5.41-4.2-12.42-6.94-19.46-9.25c-18.71-6.15-38.78-9.89-59.08-10.98
				c-12.31-0.66-25.21-0.26-36.17,4.15c-12.01,4.82-20.13,13.8-27.77,22.45c-2.15,2.43-4.29,4.86-6.44,7.29
				c3.99-3.3,7.96-6.58,11.95-9.88c3.91-3.22,7.86-6.48,12.74-8.78c11.91-5.6,26.88-4.46,40.81-4.33
				c15.09,0.15,30.66-1.03,44.86,2.92c6.44,1.79,12.33,4.56,18.49,6.88c8.77,3.28,18.07,5.61,27.42,7.75
				C362.19,637.05,359.78,634.28,356.68,631.86z"/>
		</g>
		<path class="st2" d="M81.1,608.22c-9.58-6.71-22.26-10.24-34.96-12.11c-16.83-2.49-34.29-2.36-51.06,0.3
			c-0.04,0.02-0.1,0.02-0.14,0.03V654h84.52c0.02-0.02,0.06-0.05,0.1-0.07c3.67-2.95,6.91-6.24,9.58-9.85
			c2.11-2.82,3.85-5.83,4.76-9.01C96.63,625.32,90.68,614.93,81.1,608.22z"/>
		<path class="st2" d="M804.98,596.42c-6.62,1.05-13.12,2.53-19.44,4.35c-13.45,4.97-11.22,19.92-7.68,29.73
			c2.23,4.48,4.8,8.88,6.56,13.49c1.26,3.27,2.15,6.69,3.32,10.01h17.22v-57.58H804.98z"/>
		<path class="st2" d="M53.49,359.79c-5.45-11.13-12.98-22.05-24.91-29.57c-9.34-5.87-21.83-9.29-33.6-8.24c-0.02,0-0.04,0-0.06,0
			v216.58c0.02-0.02,0.04-0.03,0.06-0.05c1.13-1.2,2.21-2.44,3.4-3.63c11.44-16.23,27.93-30.75,40.34-46.77
			C68.26,449.99,73.87,401.33,53.49,359.79z"/>
		<path class="st4" d="M28.58,330.22c-4.6-2.9-9.98-5.19-15.66-6.65c-0.36,0.79-0.49,1.64-0.3,2.53c0.32,1.56,1.52,2.92,2.79,4.15
			c4.42,4.2,10.35,7.37,14.42,11.77c3.71,4,5.63,8.8,7.47,13.5c7.25,18.51,14.12,37.25,16.43,56.5
			c2.31,19.25-0.14,39.22-10.82,56.71c-6.74,11.08-16.57,20.84-24.99,31.23c-7.43,9.16-13.91,19.18-15.72,29.83
			c11.1-14.21,25.42-27.32,36.5-41.65C68.26,450,73.85,401.37,53.47,359.8C48.05,348.66,40.53,337.73,28.58,330.22z"/>
	</g>
	<polygon class="st5" points="804.98,254.87 588.01,254.87 492.52,211.53 500.98,254.87 199.19,254.87 176.91,226.76 137.46,254.87 
		-5.08,254.87 -5.08,271.92 176.91,271.92 211.73,327.76 343.05,287.14 334.91,271.92 398.81,271.92 483.36,307.49 557.41,291.87 
		547.2,271.92 804.98,271.92 	"/>
	<path class="st6" d="M504.61,28.15c0,0-62.82-17.15-88.2-19.94C391.05,5.4,44.32,28.15,44.32,28.15h-49.4v226.72h151.01
		l31.01-15.01l40.65,70.61l106.79-25.79l-27.79-29.82h77.24l105.07,40.22l56.28-11.7l-24.45-53.82l60.74,25.3h233.5V28.15H504.61z"
		/>
	<path class="st7" d="M507.91,28.15c-16.32-3.74-77.79-17.74-91.48-19.94C400.59,5.67,44.32,28.15,44.32,28.15h-49.4v19.31h90.45
		c14.83-1.26,29.63-2.71,44.52-3.68c26.13-1.71,52.29-2.36,78.5-2.94c26.47-0.57,52.96-1.05,79.39-2.26
		c25.6-1.17,51-3.58,76.68-2.89c48,1.3,95.98,6.74,143.55,11.77h296.97V28.15H507.91z"/>
	<path class="st4" d="M659.99,366.15c19.2,45.53,1.32,90.87-39.92,101.24c-41.23,10.37-90.23-18.13-109.41-63.68
		c-19.2-45.53-1.32-90.87,39.92-101.24C591.82,292.1,640.79,320.6,659.99,366.15z"/>
	<path class="st8" d="M660.92,372.64c19.18,45.53,4.09,90.17-33.74,99.68c-37.83,9.52-84.05-19.69-103.23-65.23
		c-19.18-45.53-4.09-90.17,33.74-99.68C595.52,297.89,641.74,327.1,660.92,372.64z"/>
	<path class="st9" d="M558.1,350.99c-13.1,19.44-11.34,44.35,4.46,62.57c4.44,5.12,10.01,9.8,17.09,12.63
		c14.46,5.79,33.46,2.46,44.8-6.56c11.36-9.02,15.31-22.71,12.19-35.07c-3-11.88-14.91-23.88-30.56-23.6
		c-10.98,0.2-20.9,6.94-23.55,15.18c-2.67,8.24,1.48,17.34,9.5,23.15c1.68,1.21,3.56,2.33,5.69,3c7.39,2.36,16.97-1.8,18.19-7.93
		c1.22-6.12-6.3-12.31-14.28-11.77c2.73-2.99,8.61-3.54,12.82-1.85s6.89,5.1,8.12,8.65c2.88,8.2-1.48,17.62-10.45,22.55
		c-8.95,4.92-21.91,5.04-31.01,0.25c-11.32-5.96-15.15-17.48-15.9-28.04C564.44,373.59,562.53,361,558.1,350.99z"/>
	<path class="st4" d="M398.83,440.68c-0.45-22.09,15.41-40.19,35.42-40.43c20.01-0.23,36.58,17.48,37,39.56
		c0.45,22.09-15.41,40.19-35.42,40.43C415.84,480.49,399.27,462.77,398.83,440.68z"/>
	<path class="st8" d="M399.56,437.73c-0.45-22.09,14.08-40.17,32.43-40.4c18.35-0.21,33.58,17.51,34.02,39.59
		s-14.08,40.17-32.43,40.38C415.21,477.54,399.98,459.82,399.56,437.73z"/>
	<path class="st9" d="M441.05,458.08c9.19-7.19,12.8-18.36,9.05-28.04c-1.05-2.72-2.69-5.37-5.31-7.37
		c-5.35-4.07-14.32-4.59-20.9-1.82c-6.58,2.79-10.75,8.4-11.54,14.18c-0.77,5.55,2.37,12.09,9.32,13.6
		c4.88,1.07,10.43-0.87,13.06-4.22s2.41-7.79-0.12-11.21c-0.53-0.72-1.15-1.39-1.98-1.92c-2.86-1.82-7.8-0.98-9.4,1.58
		c-1.62,2.56,0.61,6.09,4.21,6.68c-1.74,1.03-4.42,0.66-5.97-0.53c-1.56-1.18-2.13-2.97-2.05-4.66c0.18-3.92,3.77-7.61,8.57-8.84
		c4.82-1.23,10.55,0.08,13.71,3.15c3.95,3.82,3.61,9.29,2.07,14.03C442.25,447.44,440.87,453.19,441.05,458.08z"/>
	<path class="st4" d="M646.64,575.86c-12.84-21.99-5.69-44.99,15.96-51.38c21.65-6.38,49.62,6.27,62.48,28.27
		c12.84,21.99,5.69,44.99-15.96,51.38C687.47,610.5,659.5,597.85,646.64,575.86z"/>
	<path class="st8" d="M645.79,572.66c-12.84-21.99-7.15-44.57,12.72-50.42c19.87-5.86,46.38,7.22,59.22,29.22
		c12.84,21.99,7.15,44.57-12.72,50.42C685.14,607.74,658.63,594.67,645.79,572.66z"/>
	<path class="st9" d="M702.4,580.29c5.99-10.03,3.69-22.33-5.83-30.88c-2.67-2.4-5.93-4.55-9.9-5.74
		c-8.12-2.44-18.17-0.21-23.8,4.59s-7.01,11.72-4.64,17.75c2.27,5.79,9.34,11.39,17.78,10.78c5.91-0.43,10.88-4.07,11.87-8.24
		c0.99-4.17-1.74-8.55-6.4-11.19c-0.97-0.56-2.05-1.05-3.24-1.31c-4.11-0.95-9.05,1.41-9.36,4.48c-0.32,3.07,4.07,5.91,8.34,5.4
		c-1.32,1.56-4.46,2.02-6.8,1.31c-2.37-0.71-3.99-2.33-4.84-4.04c-2.01-3.99-0.16-8.78,4.39-11.49c4.56-2.71,11.52-3.15,16.69-1.07
		c6.44,2.61,9.13,8.2,10.11,13.42C697.74,569.28,699.46,575.47,702.4,580.29z"/>
	<path class="st4" d="M281.32,545.06c-20.66-12.77-29.83-34.31-20.5-48.13c9.34-13.82,33.64-14.69,54.3-1.92
		c20.66,12.77,29.83,34.31,20.5,48.13C326.28,556.96,301.98,557.81,281.32,545.06z"/>
	<path class="st8" d="M278.93,542.81c-20.66-12.77-30.46-33.38-21.89-46.06c8.57-12.68,32.24-12.62,52.88,0.15
		c20.66,12.77,30.46,33.38,21.89,46.06C323.26,555.63,299.57,555.56,278.93,542.81z"/>
	<path class="st9" d="M317.57,526.45c-2.27-10.55-10.88-19.63-21.63-22.78c-3.02-0.89-6.26-1.33-9.36-0.72
		c-6.32,1.25-11.1,7.07-11.67,13.23c-0.57,6.15,2.65,12.32,7.62,16.28c4.78,3.81,12.31,5.53,17.05,1.67
		c3.32-2.71,4.17-7.65,2.33-11.42s-6.08-6.25-10.41-6.55c-0.91-0.07-1.84-0.03-2.73,0.21c-3.04,0.87-4.64,4.76-3.04,7.37
		c1.6,2.63,5.91,3.18,8.2,1.07c0.12,1.79-1.5,3.41-3.34,3.77c-1.84,0.36-3.77-0.3-5.31-1.35c-3.54-2.44-5.25-7.07-4.09-11.09
		c1.15-4.02,5.1-7.15,9.46-7.52c5.41-0.44,10.33,3.04,13.97,6.88C308.3,519.35,312.97,523.7,317.57,526.45z"/>
	<path class="st4" d="M168.47,528.41c25.07,17.18,36.64,46.67,25.82,65.85c-10.82,19.18-39.92,20.81-64.99,3.63
		s-36.64-46.67-25.82-65.85C114.29,512.83,143.4,511.21,168.47,528.41z"/>
	<path class="st8" d="M171.39,531.44c25.07,17.18,37.37,45.39,27.44,62.98c-9.92,17.61-38.3,17.93-63.37,0.75
		s-37.37-45.39-27.44-62.98C117.94,514.61,146.31,514.26,171.39,531.44z"/>
	<path class="st9" d="M125.51,554.66c2.98,14.47,13.55,26.8,26.51,30.95c3.65,1.17,7.53,1.72,11.22,0.82
		c7.55-1.84,13.1-9.93,13.63-18.41s-3.48-16.9-9.54-22.27c-5.81-5.15-14.91-7.38-20.48-2c-3.91,3.77-4.8,10.6-2.49,15.77
		c2.31,5.17,7.43,8.5,12.66,8.83c1.09,0.07,2.21,0.02,3.26-0.34c3.63-1.26,5.43-6.61,3.44-10.19c-1.98-3.58-7.19-4.27-9.86-1.31
		c-0.2-2.46,1.7-4.73,3.91-5.25c2.21-0.54,4.52,0.34,6.38,1.77c4.31,3.28,6.48,9.63,5.18,15.19c-1.28,5.56-5.93,9.94-11.14,10.52
		c-6.48,0.71-12.46-3.99-16.93-9.21C136.81,564.26,131.1,558.37,125.51,554.66z"/>
	<path class="st4" d="M68.14,276.95c14.3,8.98,20.9,24.38,14.74,34.39c-6.18,10.03-22.76,10.86-37.08,1.89
		c-14.3-8.98-20.9-24.38-14.74-34.39C37.23,268.82,53.84,267.98,68.14,276.95z"/>
	<path class="st8" d="M69.8,278.55c14.3,8.98,21.33,23.71,15.66,32.9c-5.65,9.19-21.85,9.37-36.15,0.39s-21.33-23.71-15.66-32.9
		C39.32,269.74,55.5,269.57,69.8,278.55z"/>
	<path class="st9" d="M43.63,290.66c1.7,7.56,7.74,14,15.13,16.16c2.09,0.61,4.29,0.9,6.4,0.44c4.31-0.97,7.47-5.19,7.78-9.62
		c0.3-4.43-1.98-8.83-5.45-11.63c-3.32-2.69-8.51-3.86-11.69-1.05c-2.23,1.97-2.73,5.53-1.42,8.24c1.32,2.69,4.25,4.45,7.21,4.61
		c0.63,0.03,1.26,0,1.86-0.18c2.07-0.66,3.1-3.46,1.96-5.33c-1.13-1.87-4.09-2.23-5.63-0.69c-0.12-1.3,0.97-2.46,2.23-2.74
		c1.26-0.28,2.57,0.18,3.65,0.92c2.45,1.72,3.69,5.04,2.96,7.94c-0.73,2.9-3.38,5.2-6.36,5.5c-3.69,0.36-7.11-2.08-9.66-4.81
		C50.07,295.68,46.83,292.61,43.63,290.66z"/>
	<path class="st4" d="M498.63,582.24c-35.36,12.41-51.99,43.06-41.01,71.76h154.02c3.58-12.98,1.76-27.12-6.46-40.32
		C585.74,582.49,538.05,568.41,498.63,582.24z"/>
	<path class="st8" d="M491.69,579.6c-34.21,12.01-48.16,44.5-33.07,74.4h141.22c3.14-12.96,0.93-27.34-7.51-40.87
		C572.9,581.92,527.84,566.92,491.69,579.6z"/>
	<path class="st9" d="M538.41,607.05c-14.02-2.2-32.2,3.08-42.92,11.5s-14.22,19.23-10.96,27.99c1.01,2.69,2.9,5.27,5.49,7.43h38.72
		c3.91-2.66,6.83-5.89,8-9.14c2.39-6.55-1.8-12.73-9.64-15.88c-1.64-0.67-3.48-1.21-5.55-1.41c-7.17-0.67-16.26,3.86-17.3,8.6
		c-1.03,4.74,6.32,8.27,13.97,6.69c-2.57,2.64-8.2,3.92-12.27,3.28c-4.09-0.64-6.72-2.81-8-5.27c-2.94-5.71,1.05-13.39,9.54-18.39
		c8.51-5,20.94-6.99,29.79-4.76c11.02,2.77,14.95,10.81,15.9,18.61c0.69,5.66,2.01,12.01,4.37,17.67h6.95
		c7.64-14.75,4.25-30.11-9.44-40.02C550.72,610.8,545.26,608.14,538.41,607.05z"/>
	<path class="st10" d="M3.83,476.55c23.66-33.05,33.66-71.82,28.19-109.35c-0.81-5.55-2.17-11.42-7.13-15.47
		C35.93,392.67,1.61,433.04,1.3,474.86L3.83,476.55z"/>
	<path class="st10" d="M267.41,321.14c-2.77,20.61-1.9,41.53,2.61,61.96c1.44,6.51,3.44,13.31,9.17,18.2
		c9.5,8.12,26.9,8.29,39.11,2.72c12.21-5.56,20.01-15.49,25.4-25.61c5.77-10.85,9.4-22.37,10.67-34.05
		c-6.7,19.95-20.68,38.4-39.9,52.71c-4.27,3.18-9.36,6.33-15.29,6.3c-6.62-0.03-12.25-4.17-14.78-8.88
		c-2.53-4.73-2.67-9.98-2.98-15.08c-1.17-19.26-5.45-38.41-12.7-56.87L267.41,321.14z"/>
	<path class="st10" d="M148.76,425.6c-17.15-14.75-30.85-32.98-32.1-52.79c-1.24-19.81,12.56-40.96,36.64-47.83
		c-10.59,5.14-21.39,11.16-26.23,20.07c-2.33,4.28-3.1,8.96-3.34,13.6c-0.77,15.01,4.01,30.18,13.61,43.24
		c4.74,6.45,10.79,12.78,11.38,20.18L148.76,425.6z"/>
	<polygon class="st7" points="705.7,254.87 594.96,247.57 502.97,208.61 523.5,280.29 478.93,287.14 383.86,246.7 284.72,244.97 
		296.59,280.29 225.93,298.3 185.48,230.26 137.46,254.87 145.93,254.87 176.93,239.87 217.58,310.48 324.38,284.68 296.59,254.87 
		373.83,254.87 478.93,295.09 535.19,283.39 510.76,229.57 571.5,254.87 	"/>
	<polygon class="st11" points="-5.08,137.17 33.91,192.74 116.58,181.11 89.89,126.83 191.86,192.74 310.1,192.74 257.16,117.79 
		347.44,117.79 454.28,211.53 515.63,197.91 509.08,117.79 620.11,188.87 712.02,177.24 693.73,117.79 746.43,185 775.15,181.11 
		804.13,132 766.92,164.65 746.43,164.65 685.87,102.28 685.87,165.6 613.39,169.48 485.85,102.28 485.85,178.53 465.99,187.58 
		334.91,102.28 233.68,102.28 274.88,178.53 207.76,175.94 82.29,113.9 87.42,169.48 45.43,177.24 	"/>
	<path class="st1" d="M534.68,568.49c-9.44-13.55-8.12-30.47-0.28-44.63c7.84-14.14,21.51-25.89,36.25-36.25
		c17.52-12.32,36.9-23.07,57.6-31.96c-4.58,29.4-11.73,59.93-34.9,83.51c10.49-4.27,22.6-6.12,34.41-5.25
		c-6.28,20.59-28.25,37.86-54.8,43.02c-5.43-11.22-25.56-16.31-38.54-9.75L534.68,568.49z"/>
	<path class="st6" d="M535.59,568.12c-3.42-8.86-1.54-18.57,3.06-27.11c4.58-8.55,11.73-16.11,19.06-23.43
		c19.18-19.1,40.79-37.38,68.05-49.26c-11.22,15.18-16.47,32.54-26.07,48.36c-10.39,17.1-25.66,32.08-40.79,46.91
		c17.32-10.78,38.06-18.26,59.85-21.61c-12.74,15.69-31.88,28.22-53.99,35.36C557.45,571.17,546.41,568.15,535.59,568.12z"/>
	<path class="st1" d="M109.15,511.95c-17.56-29.18-12.42-65.72,12.82-91.3c3,20.28,5.99,40.56,8.99,60.84
		c3.79-3.31,7.55-6.65,11.34-9.96c1.62,7.63,3.22,15.26,4.84,22.87c0.51,2.41,0.83,5.27-1.5,6.89c-1.34,0.95-3.24,1.21-5.02,1.44
		c-7.29,0.94-14.58,1.89-21.87,2.82L109.15,511.95z"/>
	<path class="st6" d="M110.87,512.78c-2.79-4.64-3.18-9.93-3.18-15.06c-0.02-21.68,5.81-43.34,16.99-63.21
		c2.9,20.81,3.71,41.79,2.43,62.7c1.98-6.42,5.95-12.45,11.5-17.46c-0.59,5.15-1.15,10.3-1.74,15.46c1.64-1.72,3.65-3.25,5.91-4.5
		c0.73,4.94,1.44,9.89,2.17,14.83C133.43,504.71,120.02,507.29,110.87,512.78z"/>
	<path class="st1" d="M406.95,393.49c-5.51-6.84-3.65-15.69-0.79-23.45c4.05-10.93,9.74-21.5,16.93-31.42
		c6.7,6.25,9.62,14.36,12.37,22.2c6.74-11.88,6.18-26.11-1.5-37.64c15.98,3,26.71,15.41,29.2,27.96c2.47,12.57-1.7,25.3-6.48,37.46
		c-13.49-5.97-31.33-5.48-44.25,1.21L406.95,393.49z"/>
	<path class="st6" d="M408.53,392.34c-4.33-2.02-3.48-7.02-1.94-10.75c5.06-12.21,11.48-24.09,19.22-35.43
		c0.93,10.55,3.5,21.02,7.62,31.09c13.35-14.42,18.05-33.8,10.43-50.52c16.83,19.54,20.58,45.44,9.76,67.38
		c-12.86-4.94-28.07-6.12-41.94-3.25L408.53,392.34z"/>
	<path class="st11" d="M458.65,357.11c-2.03-10.81-6.99-21.28-14.8-30.37c7.62,16.72,2.92,36.1-10.43,50.52
		c-4.11-10.09-6.66-20.54-7.62-31.09c-7.72,11.35-14.16,23.22-19.22,35.43c-1.48,3.58-2.29,8.29,1.48,10.45
		c-1.24-10.62,10.96-19.48,12.98-30.03c-0.93,6.89,2.03,14.06,7.98,19.25c7.92-1.3,14.42-6.01,18.11-11.58
		c3.67-5.58,4.8-11.96,4.94-18.21C454.5,353.16,456.71,355.06,458.65,357.11z"/>
	<path class="st11" d="M625.74,468.32c-27.26,11.88-48.87,30.16-68.05,49.26c-7.33,7.3-14.48,14.88-19.06,23.43
		c-4.58,8.55-6.46,18.25-3.06,27.11c0.06,0,0.14,0.02,0.2,0.02c-0.02-1.3,0.18-2.61,0.47-3.91c3.5-15.97,13.59-30.77,26.49-43.53
		c12.9-12.77,28.58-23.69,44.54-34.2c-9.66,22.87-28.66,42.56-44.27,63.39c-3.34,4.45-6.6,9.14-7.07,14.26
		c17.92,0.08,32.91-11.21,50.71-12.83c1.17-0.11,2.35-0.18,3.52-0.26c3.08-2.9,5.97-5.91,8.55-9.07
		c-21.81,3.35-42.53,10.83-59.85,21.61c15.13-14.82,30.4-29.82,40.79-46.91C609.28,500.84,614.52,483.49,625.74,468.32z"/>
	<g>
		<path class="st11" d="M124.68,434.53c-11.18,19.87-17.01,41.53-16.99,63.21c0,5.14,0.38,10.4,3.18,15.06
			c0.14-0.08,0.28-0.15,0.43-0.23c-2.69-21.89,4.8-43.71,12.23-64.95c0.45,17.59,0.87,35.18,1.32,52.77
			c0.69-1.35,1.46-2.66,2.31-3.95C128.35,475.78,127.54,455.07,124.68,434.53z"/>
		<path class="st11" d="M142.79,490.71c-2.25,1.25-4.25,2.77-5.91,4.5c0.59-5.15,1.15-10.3,1.74-15.46
			c-5.12,4.63-8.89,10.12-11,15.98c2.17-3.22,4.74-6.28,7.74-9.06c0.24,4.3,0.47,8.6,0.71,12.88c2.41-1.74,4.82-3.46,7.23-5.2
			C143.15,493.16,142.97,491.95,142.79,490.71z"/>
	</g>
	<path class="st12" d="M226.03,61.6c0,3.87-11,7.01-24.57,7.01s-24.57-3.13-24.57-7.01s11-7.01,24.57-7.01S226.03,57.75,226.03,61.6
		z"/>
	<path class="st12" d="M587.81,73.62c0,2.76-6.64,5-14.85,5c-8.2,0-14.85-2.25-14.85-5s6.64-5,14.85-5
		C581.14,68.61,587.81,70.84,587.81,73.62z"/>
	<path class="st12" d="M628.25,113.13c0,1.94-3.32,3.5-7.43,3.5c-4.11,0-7.43-1.58-7.43-3.5c0-1.94,3.32-3.5,7.43-3.5
		C624.93,109.63,628.25,111.19,628.25,113.13z"/>
	<path class="st12" d="M354.35,217.14c0,4.71-11.6,8.53-25.92,8.53c-14.32,0-25.92-3.82-25.92-8.53s11.6-8.53,25.92-8.53
		C342.75,208.61,354.35,212.43,354.35,217.14z"/>
	<path class="st12" d="M241.18,212.88c0,2.36-9.15,4.27-20.46,4.27s-20.46-1.9-20.46-4.27s9.15-4.27,20.46-4.27
		C232.02,208.61,241.18,210.53,241.18,212.88z"/>
	<path class="st12" d="M56.98,218.6c0,3.91-8.85,7.07-19.79,7.07s-19.79-3.17-19.79-7.07c0-3.91,8.85-7.07,19.79-7.07
		C48.11,211.53,56.98,214.7,56.98,218.6z"/>
	<path class="st12" d="M59.55,102.63c0,3.87-5.83,7.01-13.04,7.01s-13.04-3.13-13.04-7.01c0-3.87,5.83-7.01,13.04-7.01
		C53.72,95.62,59.55,98.75,59.55,102.63z"/>
	<path class="st12" d="M731.46,217.14c0,4.71-7.8,8.53-17.4,8.53s-17.4-3.82-17.4-8.53s7.8-8.53,17.4-8.53
		S731.46,212.43,731.46,217.14z"/>
	<path class="st12" d="M746.43,87.12c0,4.69-7.25,8.5-16.18,8.5c-8.93,0-16.18-3.81-16.18-8.5s7.25-8.5,16.18-8.5
		C739.18,78.62,746.43,82.43,746.43,87.12z"/>
</g>
</svg>
