<?xml version="1.0" encoding="utf-8"?>
<!-- Generator: Adobe Illustrator 28.5.0, SVG Export Plug-In . SVG Version: 9.03 Build 54727)  -->
<svg version="1.0" id="Layer_1" xmlns="http://www.w3.org/2000/svg" xmlns:xlink="http://www.w3.org/1999/xlink" x="0px" y="0px"
	 viewBox="0 0 600 200" style="enable-background:new 0 0 600 200;" xml:space="preserve">
<style type="text/css">
	.st0{fill:url(#SVGID_1_);}
	.st1{fill:#A55125;}
	.st2{fill:#462512;}
	.st3{fill:#CF6727;}
	.st4{fill:#D46A28;}
	.st5{fill:#592F11;}
	.st6{fill:#FFFFFF;}
</style>
<g>
	<g>
		<g>
			<g>
				
					<linearGradient id="SVGID_1_" gradientUnits="userSpaceOnUse" x1="293.8502" y1="167.6737" x2="306.2076" y2="21.3771" gradientTransform="matrix(1 0 0 -1 0 202)">
					<stop  offset="0" style="stop-color:#7C451F"/>
					<stop  offset="1" style="stop-color:#663716"/>
				</linearGradient>
				<path class="st0" d="M596.7,121.03c-18.86,47.37-86.09,50.88-127.26,52.83c-56.58,2.68-113.34-1.29-169.88-3.15
					c-56.83-1.87-113.8-1.03-170.57-4.95C92.67,163.25,22.42,162.83,3,122.06c-21.69-45.55,80.44-68.77,103.98-74.33
					c63.37-14.95,128.33-18.56,193.01-20.52c64.76-1.96,130.37-2.01,194.25,11.04C526.81,44.9,618.45,66.4,596.7,121.03z"/>
				<path class="st1" d="M1.07,111.57c76.55-9.59,153.39-16.35,230.27-22.48c110.21-8.8,220.5-17.33,330.36-30.13
					C482.8,20.04,385.48,24.72,300,27.18c-61.35,1.77-122.86,4.61-183.19,17C89.33,49.82-6.57,67,1.07,111.57z"/>
				<path class="st2" d="M507.88,96.53c-18.95,0.28-38.37,2.09-57.51,3.69c-88.74,7.4-178.34,10.69-266.32,23.64
					c-10.77,1.59-21.76,3.26-32.19,5.72c-14.85,3.5-29.91,8.46-44.34,14.61c-10.41,4.44-24.2,11.39-34.27,16.64
					c74.52,7.45,152.14,7.52,226.3,9.87c56.5,1.8,113.33,5.84,169.93,3.15c41.13-1.95,108.53-5.2,127.22-52.83
					c2.52-6.43,3.22-12.99,2.15-19.43c-16.72-1.38-33.47-2.63-50.17-3.65C535.1,97.12,521.32,96.33,507.88,96.53z"/>
				<path class="st3" d="M582.72,110.89c-14.98,35.32-81.75,36.16-115.21,37.89c-53.27,2.76-106.81,0.98-160.12-0.13
					c-52.65-1.09-105.41-1.21-157.99-4.46c-30.68-1.9-101.27-0.79-116.86-32.61C4.97,55.35,275.2,43.14,307.75,42.49
					c57.07-1.15,114.71,0.02,171.08,9.03C503.54,55.47,599.9,70.4,582.72,110.89z"/>
				<path class="st4" d="M586.48,76.03c-10.42,0.47-20.84,1.04-31.25,1.6c-14.94,0.81-29.9,2.08-44.84,2.78
					c-95.9,4.48-192.42-2.45-288.51,0.58c-44.78,1.41-90.6,1.65-134,8.57c-20.29,3.24-41.04,10.5-61.03,14.68
					c-8.39,1.76-17.37,2.81-26.06,4.1c1.15,2.39,1.73,3.59,2.88,5.99c28.31-6.81,56.85-13.46,85.36-18.26
					C156.34,84.74,225.59,83,294.2,80.94c63.33-0.22,126.57,1.85,189.75,6.18c31.69-1.08,63.38-1.97,95.08-2.73
					c4.51-1.58,6.79-2.38,11.36-4.01C588.84,78.62,588.06,77.75,586.48,76.03z"/>
				<path class="st5" d="M586.48,76.03c-9.62,2.26-19.27,3.18-28.91,3.4c-5.95,0.14-12.32-0.39-18.28-0.21
					c-8.45,0.25-15.53,1.75-22.99,2.44c-22.64,2.1-45.75,0.93-68.66,0.05c-98.5-3.8-197.52-3.2-295.88,2.67
					c-22.18,1.32-44.75,2.79-66.15,7.04c-15.07,3-30.48,7.85-45.58,11.6c-12.69,3.15-26.03,5.04-39.21,5.32
					c0.03,3.11,0.75,6.2,2.21,9.24c0.31,0.65,0.66,1.29,1.03,1.93c0.95-0.06,1.91-0.13,2.85-0.2c13.66-1.01,27.72-2.32,40.77-6.19
					c9.52-2.82,18.25-8.38,27.85-10.93c8.38-2.23,17.25-3.38,25.93-4.43c116-14.04,233.73-19.51,350.23-11.01
					c18.41,1.34,37.15,3.18,55.44,3.75c29.35,0.9,59.44-0.94,89.17-0.72C594.13,85.04,590.85,80.43,586.48,76.03z"/>
				<path class="st4" d="M439.02,113.05c0,0-198.12-4.67-296.4,3.5c-22.49,1.87-45.63,3.66-66.83,11.76
					c-11.91,4.55-23.67,9.81-35.22,15.32c8.26-0.72,12.39-1.07,20.65-1.71c14.61-6.05,29.32-11.8,44.16-17.28
					c46.57-6.22,93.27-10.52,140.18-13C310.03,109.11,439.02,113.05,439.02,113.05z"/>
				<path class="st5" d="M439.02,113.05c-104.06-4.31-208.19-4.45-311.85,5.9c-7.8,0.78-15.63,1.71-23.29,3.22
					c-7.69,1.52-14.13,3.62-20.35,5.7c-14.46,4.85-38.8,14.79-52.96,20.46c6.33,2.18,17.19,7.18,24.68,8.87
					c11.52-6.2,28.93-21.1,40.68-25.89c19.04-7.76,41.36-9.92,62.28-12.21C251.4,108.9,345.31,112.39,439.02,113.05z"/>
				<path class="st4" d="M226.92,120.62c67.61-3.6,135.23-1.07,202.84-0.13c53.58,0.75,107.13,2.35,160.52,7.47
					c-1.61,1.57-2.41,2.35-4,3.91c-16.73-0.21-33.46-0.36-50.18-0.43c-43.37-3.63-86.87-6.06-130.29-7.55
					c-27.62-0.95-55.32-1.4-83-1.17C290.85,121.1,258.91,120.42,226.92,120.62z"/>
				<path class="st5" d="M529.91,124.79c-16.37-0.92-33.08-0.91-49.57-1.17c-84.28-1.36-168.91-5.93-253.42-2.99
					c5.48,0.53,8.21,0.81,13.65,1.39c63.63,0.34,127.28,3.17,190.55,8.4c44.23,3.66,94.68,13.51,138.32,22.24
					c9.56-4.62,16.39-15.68,23.46-23.66C573.29,127.51,549.37,125.88,529.91,124.79z"/>
				<path class="st4" d="M32.43,72.83c0.89-0.58,1.34-0.87,2.24-1.45c44.9-3.31,89.89-5.72,134.82-8.01
					C235.64,60,302.11,59,368.25,59.28c58.26,0.24,116.6-4.53,174.84-8.26c2.74,1.33,4.1,2,6.81,3.37
					c-11.1,2.25-22.22,4.44-33.35,6.56C481,60.96,445.47,61.29,409.93,62c-36.68-0.84-73.36-1.12-110.05-0.82
					c-42.93,0.95-85.82,2.66-128.69,5.19c-42.01,1.5-83.97,3.76-125.9,6.78C40.16,73.02,37.59,72.96,32.43,72.83z"/>
				<path class="st5" d="M540.63,68.77c12.35,0.07,24.77-0.15,37.15-0.16c-9.75-7.05-20.49-11.84-31.56-16.38
					c-45.52,5.29-91.25,7.31-136.96,7.63c-55.11,0.39-110.62-0.53-165.67,1.19c-46.78,1.46-93.8,4.74-140.63,7.17
					c-21.23,1.1-42.57,2.13-63.71,3.93c-2.24,0.19-4.55,0.44-6.81,0.68c-2.61,1.37-5.04,2.76-7.33,4.17
					c5.7-0.7,11.71-1.3,17.36-1.61c17.85-0.97,36.01-1.14,53.85-1.86c41.47-1.68,83.45-6.59,124.95-9.01
					C327.26,58.36,434.42,68.13,540.63,68.77z"/>
				<path class="st4" d="M403.66,46.17c0,0-118.48,0.76-177.52-1.21c-28.45-0.95-56.96-2.29-85.44-3.39
					c-5.75,1.01-8.62,1.52-14.33,2.55c18.87,0.79,37.74,1.65,56.61,2.57c27.72,0.23,55.44,0.74,83.15,1.54
					C311.97,47.02,403.66,46.17,403.66,46.17z"/>
				<path class="st5" d="M137.17,42.96c-1.45-0.02-2.92-0.02-4.39-0.03c-12.24,2.27-24.43,4.68-36.53,7.61
					c28.1-1.37,56.31-2.2,84.33-2.08c21.85,0.1,43.94,0.78,65.8,0.86c52.26,0.19,104.86-1.8,157.28-3.15
					c-66.2-0.01-132.65,1.33-198.6-0.85C182.51,44.58,159.73,43.29,137.17,42.96z"/>
				<path class="st4" d="M346.66,139.77c-39.19-3.47-78.81-3.09-117.16,1.67c-28.95,3.6-57.81,12.71-87.04,17.76
					c8.43-0.84,12.65-1.22,21.11-1.91c18.72-4.35,37.51-8.19,56.43-11.57c27.15-2.97,54.33-5.14,81.6-6.58
					C316.62,139.14,331.63,139.35,346.66,139.77z"/>
				<path class="st5" d="M186.6,151.51c-12.75,2.58-25.98,4.56-38.95,6.77c-1.73,0.3-15.19,5.19-16.92,5.5
					c8.19,0.45,21.99,2.64,30.19,2.95c3.98-1.26,14.32-8.94,18.56-9.97c23.44-5.67,47.54-9.6,71.47-12.38
					c17.18-1.99,34.76-3.38,51.99-3.66c11.99-0.2,24.27,0.59,36.39-0.2c2.93-0.31,4.4-0.46,7.34-0.76
					c-43.78-1.95-88.13-2.31-130.55,5.43C206.39,146.97,196.34,149.54,186.6,151.51z"/>
			</g>
		</g>
	</g>
	<path class="st6" d="M542.33,73.39c-1.74,2.99-8.09,2.54-14.19-1s-9.64-8.84-7.91-11.83c1.74-2.99,8.09-2.54,14.19,1
		S544.06,70.4,542.33,73.39z"/>
	<ellipse class="st6" cx="504.93" cy="58.58" rx="4.85" ry="4.7"/>
	<path class="st6" d="M81.32,137.46c0,2.54-1.81,4.59-4.03,4.59c-2.23,0-4.03-2.06-4.03-4.59c0-2.54,1.81-4.59,4.03-4.59
		C79.52,132.87,81.32,134.93,81.32,137.46z"/>
</g>
</svg>
