<?xml version="1.0" encoding="utf-8"?>
<!-- Generator: Adobe Illustrator 28.5.0, SVG Export Plug-In . SVG Version: 9.03 Build 54727)  -->
<svg version="1.0" id="Layer_1" xmlns="http://www.w3.org/2000/svg" xmlns:xlink="http://www.w3.org/1999/xlink" x="0px" y="0px"
	 viewBox="0 0 1200 900" style="enable-background:new 0 0 1200 900;" xml:space="preserve">
<style type="text/css">
	.st0{fill:#A4D5A1;}
	.st1{fill:#83C166;}
	.st2{fill:#89C691;}
	.st3{fill:#CEC77A;}
	.st4{fill:#4EA994;}
	.st5{fill:#30756C;}
	.st6{fill:#F0A628;}
	.st7{fill:#F2BC62;}
	.st8{fill:#D59429;}
	.st9{fill:#C84732;}
	.st10{fill:#DA98A4;}
	.st11{fill:#552733;}
	.st12{fill:#8F8532;}
	.st13{fill:#F26923;}
	.st14{fill:#E7C142;}
	.st15{fill:#E1571C;}
	.st16{fill:#F4CB75;}
	.st17{fill:#B47651;}
	.st18{fill:#712B24;}
	.st19{fill:#D16339;}
	.st20{fill:#B5512A;}
	.st21{fill:#592311;}
	.st22{fill:#BA441C;}
	.st23{fill:#995044;}
	.st24{fill:#EFBC50;}
	.st25{fill:#1E1719;}
	.st26{fill:#F6671E;}
	.st27{fill:#92322A;}
	.st28{fill:#FECE57;}
</style>
<polygon class="st0" points="0.01,-4.7 0.01,900 172.18,899.58 172.18,899.58 776.05,899.58 776.05,900 1200,900 1200,-4.7 "/>
<path class="st1" d="M0.01-4.7v164.35c90.59,1.62,124.58-50.38,260.53-50.38c172.22,0,172.22,36.16,344.43,36.16
	s172.21-36.16,344.42-36.16c130.88,0,167.25,48.2,250.61,50.34V-4.7H0.01z"/>
<rect x="0.02" y="272.19" class="st2" width="1199.92" height="476.28"/>
<rect x="0.02" y="295.79" class="st3" width="1199.92" height="452.68"/>
<path class="st4" d="M61.02,298.77c-16.7-14.14-17.97-42.72-2.59-58.28c15.38-15.55,44.12-14.77,58.61,1.6
	c17.31-12.59,44.4-8.87,57.63,7.92c16.69-22.46,58.81-15.65,67.48,10.92c13.07-22.42,52.09-21.51,64.1,1.49
	c-3.28-24.18,16.01-49.13,40.35-52.17s49.24,16.38,52.08,40.62c11.27-4.45,23.27-8.99,35.22-6.9c11.95,2.09,23.06,13.68,19.93,25.33
	c11.4-13.39,30.96-17.87,48.3-14.67s32.76,13.01,46.32,24.23c4.19,3.47,8.42,7.35,10.06,12.52c5.25,16.56-17.24,27.25-34.46,30.11
	c-25.34,4.22-53.04,8.05-75.31-4.68c-31.76,21.9-74.4,15.84-112.4,8.88c-34.15-6.25-68.3-12.51-102.51-18.4
	c-10.05-1.73-20.35-3.43-30.37-1.54c-8.09,1.53-15.54,5.31-23.26,8.18c-35.1,13.06-77.04,5.79-105.63-18.31l-13.56,3.14
	L61.02,298.77z"/>
<path class="st4" d="M1200,319.17c-125.1-8.69-170.35,9.75-359.52,9.75c-241.41,0-241.41,32.12-482.82,32.12
	c-188.19,0-233.99-40.44-357.65-41.84v238.35c126.48,16.5,166.45,14.75,357.66,14.75c241.41,0,241.41-32.12,482.82-32.12
	c189.13,0,234.43,40.84,359.5,41.86V319.17L1200,319.17z"/>
<rect x="0.02" y="410.14" class="st5" width="1199.92" height="419.76"/>
<rect x="0.02" y="489.68" class="st6" width="1199.92" height="340.22"/>
<path class="st7" d="M0.01,572.7c125.1-8.69,170.35,9.75,359.52,9.75c241.41,0,241.41,32.12,482.82,32.12
	c188.19,0,233.98-40.44,357.64-41.84v238.35c-126.48,16.5-166.45,14.75-357.66,14.75c-241.41,0-241.41-32.12-482.82-32.12
	c-189.13,0-234.43,40.84-359.5,41.86L0.01,572.7L0.01,572.7z"/>
<path class="st8" d="M0.01,583.41c125.1-8.69,170.35,9.75,359.52,9.75c241.41,0,241.41,32.12,482.82,32.12
	c188.19,0,233.98-40.44,357.64-41.84v238.35c-126.48,16.5-166.45,14.75-357.66,14.75c-241.41,0-241.41-32.12-482.82-32.12
	c-189.13,0-234.43,40.84-359.5,41.86L0.01,583.41L0.01,583.41z"/>
<path class="st9" d="M1199.93,803.03c-1.49-2.78-3.49-5.76-6.21-9.07c-19.98-24.34-25.32,2.55-56.9,2.55s-31.59,7.01-63.17,7.01
	s-31.58-4.7-63.16-4.7s-31.58-22.4-63.16-22.4s-31.58-2.82-63.16-2.82s-31.58,3.12-63.16,3.12s-31.58-4.78-63.15-4.78
	s-31.58,32.92-63.15,32.92s-31.57-31.64-63.15-31.64s-31.58,17.79-63.16,17.79s-31.58,13.95-63.16,13.95s-31.58-27.92-63.15-27.92
	s-31.58,25.73-63.15,25.73s-31.58,0.45-63.16,0.45s-31.58-18.42-63.15-18.42s-31.58-4.6-63.16-4.6s-31.58,14.86-63.15,14.86
	s-31.57,3.55-63.15,3.55s-39.53-31.12-59.49-6.78c-1.44,1.76-2.63,3.42-3.66,5.02v27.27l0,0v59.35v16.52l172.17-0.42h603.86v0.42
	H1200v-95.37l-0.06,0.05v-1.65L1199.93,803.03z"/>
<g>
	<path class="st10" d="M442.08,777.05c-25.99,0-30.6,17.42-49.02,23.59c14.88,0.42,29.71,1.36,44.45,3.13
		c45.76,5.48,93.25,18.56,136.8,3.54c26.97-9.31,59.62-27.94,80.2-8.24c5.01,4.8,8.2,11.32,13.54,15.75
		c11.17,9.26,28.24,6.61,41.05-0.23c12.81-6.84,23.56-17.19,36.78-23.21c24.26-11.06,52.37-5.95,79.04-4.93
		c19.28,0.74,40.8-2.25,55.99-12.8c-28.35,0.21-29.45,3.11-59.9,3.11s-31.58-4.78-63.15-4.78s-31.58,32.92-63.15,32.92
		s-31.57-31.64-63.15-31.64s-31.58,17.79-63.16,17.79S536.82,805,505.24,805s-31.58-27.92-63.15-27.92L442.08,777.05z"/>
	<path class="st10" d="M305.43,802.46c-21.71-3.49-25.12-17.65-52.81-17.65c-31.58,0-31.58-4.6-63.16-4.6s-31.58,14.86-63.15,14.86
		c-0.43,0-0.84,0-1.26,0C183.56,808.78,244.41,805.36,305.43,802.46z"/>
</g>
<path class="st11" d="M1199.93,840.5c-1.49-2.78-3.49-5.76-6.21-9.07c-19.98-24.34-25.32,2.55-56.9,2.55s-31.59,7.01-63.17,7.01
	s-31.58-4.7-63.16-4.7s-31.58-22.4-63.16-22.4s-31.58-2.82-63.16-2.82s-31.58,3.12-63.16,3.12s-31.58-4.78-63.15-4.78
	s-31.58,32.92-63.15,32.92s-31.57-31.64-63.15-31.64s-31.58,17.79-63.16,17.79s-31.58,13.95-63.16,13.95s-31.58-27.92-63.15-27.92
	s-31.58,25.73-63.15,25.73s-31.58,0.45-63.16,0.45s-31.58-18.42-63.15-18.42s-31.58-4.6-63.16-4.6s-31.58,14.86-63.15,14.86
	s-31.57,3.55-63.15,3.55s-39.53-31.12-59.49-6.78c-1.44,1.76-2.63,3.42-3.66,5.02v27.27l0,0v38.4l172.17-0.42h603.86v0.42H1200
	V842.1l-0.06,0.05L1199.93,840.5L1199.93,840.5z"/>
<path class="st4" d="M885.71,303.19c-10.37-10.81-5.79-28.39-0.4-42.34c2.33-6.02,4.89-12.31,9.96-16.33
	c8.27-6.55,22.15-3.99,27.5,5.09c29.12-28.64,80.57-30.62,111.83-4.31c5.6-19.43,16.66-39.1,35.49-46.68
	c18.83-7.59,45.23,3.81,46.11,24c19.9-5.82,43.29,4.67,52.08,23.36s1.9,43.28-15.35,54.75c2.48,2.29,4.97,4.58,7.45,6.87
	c-20.54,15.43-48.38,15.82-74.11,15.57c-34.82-0.34-69.64-0.68-104.46-1.03c-5.83-0.06-11.66-0.11-17.49-0.17
	c-9.9-0.1-19.79-0.19-29.68-0.57c-14.24-0.54-28.45-1.67-42.59-3.38L885.71,303.19L885.71,303.19z"/>
<path class="st12" d="M535.51,727.05c-2.36-17.83-8.58-35.15-18.11-50.44c11.8,0.1,23.45,5.51,31.09,14.45
	c2.25-6.2,5.38-12.09,9.25-17.43c2.59,6.53,5.17,13.06,7.76,19.59c4.43-6.74,11.44-11.76,19.27-13.8
	c-5.51,11.6-2.87,26.53,6.3,35.55c4.42-6.76,10.63-12.36,17.82-16.08c0.46,6.16,0.92,12.33,1.37,18.49
	c-18.27,9.81-39.48,14.13-60.16,12.26l-14.61-2.6L535.51,727.05z"/>
<path class="st5" d="M1121.51,423.3c10.54-11.89,7.74-33.9,0.75-49.41c-4.12-9.13-10.25-18.1-18.51-19.41s-17.27,9.83-13.53,19.22
	c-2.87-7.77-10.29-12.39-16.93-10.53s-11.81,10-11.81,18.58c-4.4-8.54-12.43-13.88-20.49-13.64c-8.06,0.24-15.88,6.06-19.95,14.85
	c-7.86-20.55-26.08-34-44.12-32.58c-8.06,0.64-16.41,4.42-21.23,12.6c-4.81,8.18-4.69,21.28,1.7,27.51
	c-8.99-5.98-20.95-6.67-28.65,1.68c-7.71,8.35-7.73,26.74,1.34,32.53c2.99,1.91,6.43,2.29,9.78,2.63
	c31.48,3.22,62.97,6.44,94.45,9.66c29.91,3.06,61.93,5.57,87.98-13.24l-0.77-0.46L1121.51,423.3z"/>
<path class="st5" d="M347.62,427.52c-18.52-16.48-13.61-46.97-1.31-68.45c7.24-12.65,18.02-25.07,32.54-26.88
	c14.52-1.81,30.36,13.62,23.79,26.63c5.05-10.77,18.09-17.16,29.75-14.59s20.76,13.85,20.76,25.74
	c7.73-11.82,21.84-19.23,36.02-18.89c14.17,0.33,27.92,8.4,35.07,20.57c13.82-28.46,45.85-47.1,77.56-45.13
	c14.17,0.88,28.86,6.12,37.32,17.46s8.25,29.48-2.99,38.11c15.8-8.28,36.82-9.24,50.37,2.33c13.55,11.57,13.58,37.04-2.35,45.06
	c-5.26,2.65-11.31,3.17-17.19,3.64c-55.35,4.46-110.69,8.92-166.04,13.38c-52.59,4.24-108.87,7.71-154.67-18.34L347.62,427.52
	L347.62,427.52z"/>
<path class="st6" d="M57.62,500.86c-15.72-13.98-11.55-39.85-1.11-58.07c6.14-10.73,15.29-21.27,27.61-22.81
	c12.32-1.53,25.76,11.55,20.19,22.59c4.29-9.14,15.35-14.56,25.24-12.38s17.61,11.75,17.61,21.84
	c6.56-10.03,18.53-16.31,30.55-16.03s23.69,7.12,29.76,17.45c11.72-24.15,38.9-39.96,65.8-38.29c12.02,0.75,24.48,5.2,31.66,14.81
	c7.18,9.62,7,25.01-2.53,32.33c13.4-7.03,31.24-7.84,42.73,1.98s11.52,31.42-1.99,38.23c-4.46,2.25-9.59,2.69-14.58,3.09
	c-46.95,3.78-93.91,7.57-140.86,11.35c-44.62,3.6-92.36,6.54-131.22-15.56l1.15-0.54L57.62,500.86z"/>
<path class="st13" d="M172.29,281.12v1.49V281.12z"/>
<path class="st11" d="M568.87,849.06c-8.36-38.36-16.66-78.77-4.98-116.26c-1.32,26.92,2.49,54.09,11.17,79.62
	c5.56,16.36,13.15,32.27,15.31,49.4l-21.5-12.77V849.06z"/>
<path class="st11" d="M1115.88,849.06c-8.36-38.36-16.66-78.77-4.98-116.26c-1.32,26.92,2.49,54.09,11.17,79.62
	c5.56,16.36,13.15,32.27,15.31,49.4l-21.5-12.77L1115.88,849.06z"/>
<ellipse class="st11" cx="556.74" cy="714.17" rx="53.54" ry="54.38"/>
<ellipse class="st11" cx="1121.25" cy="746.09" rx="36.1" ry="34.12"/>
<path class="st11" d="M243.3,853.48c-81.42-38.82-134.46-129.92-127.79-219.5c55.7,28.61,103.91,71.53,138.65,123.45
	c-2.37-45.67,15.48-92.03,47.91-124.44c14.62,34.1,21.18,71.59,19.02,108.6c29.47-36.83,70.88-64.06,116.49-76.6
	c-0.55,48.15-14.77,96.62-43.5,135.38c-28.73,38.75-72.42,67.08-120.33,73.96l-30.44-20.84L243.3,853.48z"/>
<path class="st11" d="M879.05,837.31c-56.37-16.96-99.67-70.42-104.34-128.82c38.77,12.92,74.13,35.81,101.72,65.83
	c-6.1-29.2,0.76-60.85,18.42-84.96c12.84,20.53,20.82,44.04,23.13,68.11c15.31-26.66,39.27-48.31,67.41-60.91
	c4.46,31.09,0.16,63.74-14.48,91.57c-14.64,27.82-39.96,50.41-70.15,59.59L879.05,837.31L879.05,837.31z"/>
<path class="st5" d="M799.6,414.02c-7.31-38.41-9.16-77.85-5.48-116.77c-45-1.4-89.92-4.99-134.57-10.74
	c25.48-6.67,50.96-13.34,76.44-20.01c-6.2-6.59-15.53-10.14-24.57-9.36c6.66-7.67,17.81-9.28,27.95-10.37
	c54.3-5.88,108.59-11.75,162.89-17.63c-8.62,8.82-19.48,15.44-31.3,19.08c35.01,9.15,70.68,15.81,106.65,19.92
	c-2.92,8.41-12.62,12.06-21.2,14.56c-44.23,12.9-89.22,23.24-134.66,30.95c-7.99,35.97-8.36,73.59-1.09,109.71l-21.05-9.33
	L799.6,414.02z"/>
<path class="st5" d="M185.58,426.7c-5.7-29.94-7.14-60.67-4.27-91.01c-35.07-1.09-69.39,8.51-104.88-8.37
	c19.86-5.2,39.72-10.4,59.57-15.59c-4.84-5.14-12.1-7.9-19.15-7.29c5.19-5.98,13.88-7.23,21.78-8.08
	c42.32-4.58,84.63-9.16,126.95-13.74c-6.72,6.87-15.19,12.04-24.39,14.87c27.29,7.13,55.09,12.32,83.11,15.52
	c-2.27,6.55-9.83,9.4-16.52,11.35c-34.47,10.06-69.54,18.11-104.95,24.12c-6.23,28.03-6.52,57.35-0.85,85.5l-16.41-7.27
	L185.58,426.7z"/>
<path class="st6" d="M752.29,518.45c-15.4-7.66-22.64-28.33-15.35-43.85c7.29-15.52,27.87-23.26,43.66-16.43
	c23.49-21.5,63.23-22.33,87.61-1.83c15.59-25.37,32.81-52.21,60.19-64.16s67.06,0.13,71.78,29.5c26.99-16.17,66.73-4.76,80.91,23.24
	c18.21-7.45,41.55-4.55,54.21,10.45c12.67,15,9.23,41.93-8.68,50.06c-6.03,2.74-12.82,3.23-19.43,3.69
	c-98.77,6.8-197.55,13.61-296.32,20.41l-58.56-11.08H752.29z"/>
<path class="st7" d="M253.78,584.77c-18.62-16.14-26.32-43.66-18.76-67.05c15.12,7.31,30.24,14.62,45.36,21.93
	c7.41-22.91,23.99-42.74,45.29-54.16c6.4,19.24,6.26,40.57-0.38,59.73c15.26-13.23,36.36-19.51,56.41-16.81
	c-2.57,28.97-25.95,54.87-54.62,60.53c-7.72,1.52-15.63,1.71-23.5,1.88c-11.85,0.27-23.71,0.54-35.56,0.8L253.78,584.77
	L253.78,584.77z"/>
<path class="st7" d="M816.02,621.7c-13.38-10.8-22.11-27.1-23.67-44.17c17-1.11,34.23,1.41,50.19,7.35
	c0.96-16.79,8.19-33.15,19.98-45.21c16.9,2.87,32.53,12.57,42.55,26.4c6.66-13.85,19.76-24.48,34.74-28.18
	c5.49,12.49,1.34,26.88-2.84,39.86c-4.67,14.46-10.57,30.4-24.27,37.1c-4.67,2.28-9.87,3.25-15.01,4.07
	c-25.26,4.03-50.99,5.13-76.5,3.27L816.02,621.7L816.02,621.7z"/>
<g>
	<g>
		<polygon class="st14" points="0.01,-4.7 0.01,899.99 172.18,899.57 172.18,899.57 776.04,899.57 776.04,899.99 1200,899.99 
			1200,-4.7 		"/>
		<path class="st15" d="M0.01-4.7v164.34c90.59,1.62,124.58-50.38,260.53-50.38c172.22,0,172.22,36.16,344.43,36.16
			c172.21,0,172.21-36.16,344.42-36.16c130.88,0,167.25,48.2,250.61,50.34V-4.7H0.01z"/>
		<rect x="0.01" y="272.19" class="st16" width="1199.92" height="476.28"/>
		<path class="st17" d="M245.83,302.91c-1.51-29.08-3.02-58.16-4.54-87.24c31.86-14.48,64.57-27.09,97.91-37.74
			c6.52,15.81,16.58,30.17,29.23,41.73c13.18-16.57,33.2-27.59,54.32-29.91c-0.89-28.39-1.55-57.96,10.33-83.79
			c11.88-25.83,40.36-46.49,68.11-39.77c19.28,33.15,33.55,69.18,42.17,106.5c31.01-22.84,83.54,1.67,85.72,39.99
			c37.18-23.05,93.02-6.38,111.31,33.22c12.02-21.6,45.51-21.84,65.19-6.8c19.68,15.03,28.96,39.6,37.3,62.85
			c-142.24-5.29-284.97,2.49-425.77,23.22c-58.23,8.57-123.44,17.81-171.04-16.64L245.83,302.91z"/>
		<rect x="0.01" y="295.79" class="st18" width="1199.92" height="452.68"/>
		<path class="st18" d="M661.08,99.76c1.28,38.25,2.53,76.89-4.85,114.45c-7.38,37.56-24.26,74.49-53.72,99.11l50.38,3.52
			c25.72-5.64,57.22-27.55,82.79-21.27c14.27,3.51,30.49,8.54,42.67,0.36c-32.55-35.05-50.98-81.07-61.18-127.69
			c-10.2-46.63-12.81-94.51-17.76-141.97c-1.08-10.36-2.36-20.83-4.69-30.97h-37.14C658.74,30.12,659.91,64.94,661.08,99.76z"/>
		<path class="st18" d="M28.47-4.7c0.89,34.49,7.11,68.85,10.89,103.25c4.31,39.17,5.46,78.68,3.44,118.03
			c-1.63,31.73-6.08,65.27-26.09,90.03l21.57-7.1c29.38,14.54,65.32,15.26,95.27,1.92C92.38,205.91,88.14,99.88,89.07-4.7H28.47z"/>
		<path class="st18" d="M1042.47,300.46c-39.02-49.73-79.01-102.23-90.53-164.27c-4.75-25.59-4.42-51.81-4.07-77.83
			c0.28-21.02,0.57-42.04,0.85-63.06h-72.9c-4.73,6.77-8.4,14.14-10.46,22.3c-3.39,13.51-1.91,27.71-0.14,41.52
			c5.37,41.96,13.16,83.8,13.51,126.1s-7.29,85.88-30.39,121.39l13.37,2.59c70.34-0.02,140.68-0.05,211.02-0.07
			c7.78,0,17.12-0.9,20.69-7.77c1.75-3.38,1.57-7.39,1.34-11.18c-4.38-74.54-5.65-149.26-3.81-223.91
			c0.59-23.84,0.23-50.38-9.83-70.97h-13.94C1077.67,97.38,1069.27,201.37,1042.47,300.46z"/>
		<path class="st18" d="M180.65-4.7c4.36,70.79-6.43,143.07-39.34,205.73c-6.15,11.71-13.07,23.1-17.52,35.55
			c-7.76,21.69-7.62,45.27-7.38,68.29c-0.33,5.69,7.71,7.26,13.42,6.75c52.95-4.7,105.89-9.4,158.84-14.1
			c-50.35-31.33-79.02-89.34-88.37-147.68c-8.18-51.07-3.47-103.07,2.86-154.55H180.65z"/>
		<path class="st19" d="M1200,319.17c-125.1-8.69-170.35,9.75-359.52,9.75c-241.41,0-241.41,32.12-482.83,32.12
			c-188.19,0-233.98-40.44-357.64-41.84v238.35c126.48,16.5,166.45,14.75,357.66,14.75c241.41,0,241.41-32.12,482.83-32.12
			c189.13,0,234.43,40.84,359.5,41.86V319.17z"/>
		<rect x="0.01" y="410.14" class="st20" width="1199.92" height="419.76"/>
		<rect x="0.01" y="489.68" class="st21" width="1199.92" height="340.22"/>
		<rect x="0.01" y="566.47" class="st22" width="1199.99" height="145.5"/>
		<path class="st23" d="M1199.93,803.02c-1.49-2.78-3.49-5.76-6.21-9.07c-19.98-24.34-25.32,2.55-56.9,2.55s-31.59,7.01-63.17,7.01
			c-31.58,0-31.58-4.7-63.17-4.7c-31.58,0-31.58-22.4-63.16-22.4s-31.58-2.82-63.16-2.82c-31.58,0-31.58,3.12-63.16,3.12
			c-31.58,0-31.58-4.78-63.15-4.78c-31.58,0-31.58,32.92-63.15,32.92c-31.57,0-31.57-31.64-63.15-31.64
			c-31.58,0-31.58,17.79-63.16,17.79c-31.58,0-31.58,13.95-63.16,13.95c-31.58,0-31.58-27.92-63.15-27.92
			c-31.58,0-31.58,25.73-63.15,25.73c-31.58,0-31.58,0.45-63.16,0.45c-31.58,0-31.58-18.42-63.15-18.42
			c-31.58,0-31.58-4.6-63.16-4.6c-31.58,0-31.58,14.86-63.15,14.86c-31.57,0-31.57,3.55-63.15,3.55c-31.57,0-39.53-31.12-59.49-6.78
			c-1.44,1.76-2.63,3.42-3.66,5.02v27.27c0,0,0,0,0,0l0,59.35v16.52l172.17-0.42h603.86v0.42H1200v-95.37l-0.06,0.05V803.02z"/>
		<g>
			<path class="st24" d="M442.08,777.04c-25.99,0-30.6,17.42-49.02,23.59c14.88,0.42,29.71,1.36,44.45,3.13
				c45.76,5.48,93.25,18.56,136.8,3.54c26.97-9.31,59.62-27.93,80.2-8.24c5.01,4.8,8.2,11.32,13.54,15.75
				c11.17,9.26,28.24,6.61,41.05-0.23c12.81-6.84,23.56-17.19,36.78-23.21c24.26-11.06,52.37-5.95,79.04-4.93
				c19.28,0.74,40.8-2.25,55.99-12.8c-28.35,0.21-29.45,3.11-59.9,3.11c-31.58,0-31.58-4.78-63.15-4.78
				c-31.58,0-31.58,32.92-63.15,32.92c-31.57,0-31.57-31.64-63.15-31.64c-31.58,0-31.58,17.79-63.16,17.79
				c-31.58,0-31.58,13.95-63.16,13.95C473.66,804.96,473.66,777.04,442.08,777.04z"/>
			<path class="st24" d="M305.43,802.45c-21.71-3.49-25.12-17.65-52.81-17.65c-31.58,0-31.58-4.6-63.16-4.6
				c-31.58,0-31.58,14.86-63.15,14.86c-0.43,0-0.84,0-1.26,0C183.56,808.77,244.41,805.35,305.43,802.45z"/>
		</g>
		<path class="st25" d="M1199.93,840.49c-1.49-2.78-3.49-5.76-6.21-9.07c-19.98-24.34-25.32,2.55-56.9,2.55s-31.59,7.01-63.17,7.01
			c-31.58,0-31.58-4.7-63.17-4.7c-31.58,0-31.58-22.4-63.16-22.4s-31.58-2.82-63.16-2.82c-31.58,0-31.58,3.12-63.16,3.12
			c-31.58,0-31.58-4.78-63.15-4.78c-31.58,0-31.58,32.92-63.15,32.92c-31.57,0-31.57-31.64-63.15-31.64
			c-31.58,0-31.58,17.79-63.16,17.79c-31.58,0-31.58,13.95-63.16,13.95c-31.58,0-31.58-27.92-63.15-27.92
			c-31.58,0-31.58,25.73-63.15,25.73c-31.58,0-31.58,0.45-63.16,0.45c-31.58,0-31.58-18.42-63.15-18.42
			c-31.58,0-31.58-4.6-63.16-4.6c-31.58,0-31.58,14.86-63.15,14.86c-31.57,0-31.57,3.55-63.15,3.55c-31.57,0-39.53-31.12-59.49-6.78
			c-1.44,1.76-2.63,3.42-3.66,5.02v27.27c0,0,0,0,0,0v38.4l172.17-0.42h603.86v0.42H1200V842.1l-0.06,0.05V840.49z"/>
		<path class="st26" d="M172.29,281.12c0,0.5,0,0.99,0,1.49V281.12z"/>
		<ellipse class="st27" cx="556.73" cy="619.83" rx="53.54" ry="19.38"/>
		<ellipse class="st27" cx="809.72" cy="610.14" rx="46.6" ry="9.69"/>
		<ellipse class="st27" cx="1007.34" cy="629.62" rx="24.32" ry="9.6"/>
		<ellipse class="st27" cx="99.62" cy="624.68" rx="44.74" ry="14.54"/>
		<ellipse class="st27" cx="350.3" cy="655.11" rx="35.4" ry="15.89"/>
		<ellipse class="st27" cx="449.36" cy="678.87" rx="17.2" ry="5.24"/>
		<ellipse class="st27" cx="728.42" cy="655.11" rx="34.7" ry="15.89"/>
		<ellipse class="st27" cx="1135.26" cy="643.05" rx="30.13" ry="13.44"/>
	</g>
	<path class="st21" d="M879.95,735.51c9.84-12.3,19.67-24.6,29.51-36.91c6.61-8.26,13.32-16.62,21.86-22.88
		c16.73-12.25,40.03-14.99,59.16-6.94c3.77,1.58,7.86,3.59,11.75,2.34c4.69-1.5,6.67-6.87,9.89-10.57
		c7.41-8.52,20.69-7.67,31.91-6.11c4.52,0.63,9.23,1.33,12.98,3.92c3.56,2.45,5.83,6.31,8.13,9.96
		c15.87,25.27,38.06,46.57,64.01,61.45c-17.1,10.96-39.28,7.74-59.43,4.96c-59.63-8.23-120.29-9.04-180.12-2.39l-16.58,4.34
		C873.03,737.58,879.95,734.6,879.95,735.51z"/>
	<path class="st21" d="M70.13,742.19c16.25-21.48,32.5-42.96,48.76-64.44c23.91,4.73,47.1-9.72,71.22-13.25
		c14.42-2.11,29.09-0.26,43.55,1.58c12.41,1.58,24.97,3.21,36.56,7.9c6.6,2.67,12.77,6.29,18.9,9.9
		c18.4,10.82,36.79,21.63,55.19,32.45c1.37,0.81,2.82,1.69,3.53,3.11c2.39,4.76-4.78,8.42-10.1,9.02
		c-80.11,9.03-160.21,18.06-240.32,27.09L70.13,742.19z"/>
	<path class="st21" d="M23.05,491.96c11.3-34.65,33.6-65.65,62.92-87.48c-3.8-19.21-5.01-39.34,0.29-58.19
		c5.3-18.85,17.82-36.33,35.77-44.36c22.24-9.94,48.15-4.16,71.36,3.29c4.05,1.3,8.28,2.77,11.1,5.94c2.21,2.48,3.31,5.73,4.35,8.88
		c6.63,20.07,13.25,40.15,19.88,60.22c26.33-3.85,48.71,18.07,65.53,38.59c22.26,27.16,43.31,55.28,63.09,84.28
		c-103.73,17.73-210.27,19.06-314.41,3.92l-24.79-17.63C18.14,490.32,23.05,491.05,23.05,491.96z"/>
	<path class="st21" d="M473.98,513.34c-5.71-26.27,12.83-52.96,36.65-65.65c23.81-12.69,51.74-14.59,78.7-16.23
		c-2.45-33.94,24.41-67.45,58.21-72.63c-10.39-6.71-10.56-22.81-3.52-32.95c7.04-10.14,18.91-15.68,30.34-20.44
		c19.88-8.27,40.17-15.57,60.77-21.87c22.9,29.92,45.8,59.83,68.69,89.75c15.59-0.3,31.17-0.6,46.76-0.9
		c3.29,23.31,11.46,45.93,23.84,66c3.41,5.53,7.5,11.16,13.57,13.53c6.51,2.54,13.83,0.79,20.8,1.33
		c26.04,2,38.11,32.49,44.32,57.72c-154.83,11.22-310,17.85-465.23,19.86l-30.02-30.57C457.87,499.38,474.18,514.23,473.98,513.34z"
		/>
	<path class="st21" d="M442.69-4.7H287.9c1.85,8.4,3.7,16.8,5.55,25.21c1.13,5.13,2.35,10.46,5.67,14.56
		c5.92,7.31,16.56,8.54,24.46,13.68c12.21,7.94,16.08,23.68,18.82,37.93c16.39,85.23,27.56,171.45,33.44,258.03
		c3.46-45.41,6.93-90.82,10.39-136.23c2.05-26.93,4.15-54.1,11.76-80.02c3.08-10.49,7.04-21.85,2.96-32
		c-2.72-6.77-8.75-12-10.67-19.04c-2.9-10.65,4.35-21.15,11.2-29.83C415.21,30.15,428.95,12.73,442.69-4.7z"/>
	<path class="st21" d="M1114.37-4.7H811.68c3.73,6.71,8.91,12.6,15.29,16.93c4.19,2.84,8.91,5.15,12.09,9.08
		c4.81,5.96,5.04,14.21,6.13,21.77c2.99,20.85,13.82,39.61,23.17,58.51c62.03,125.36,63.7,270.68,64.12,410.4
		c8.28-5.91,20.37-5.87,28.61,0.08c-13.83-126.39-0.72-255.62,38.21-376.71c6.03-18.77,12.79-37.57,23.86-53.91
		c19.74,52.14,32.07,107.06,36.51,162.6c-0.24-78.82,0.85-162.49,43.15-229.14C1106.87,8.53,1111.32,2.16,1114.37-4.7z"/>
	<path class="st18" d="M519.07,73.36c3.93,25.2,5.31,50.71,6.69,76.17c3.69,68.04,7.38,136.14,6.31,204.27
		c16.38-0.31,23.31-20.62,25.57-36.76c6.82-48.75,11.85-97.76,15.07-146.88c3.8-58.02,5.57-118.18,31.31-170.38
		c0.72-1.46,1.45-2.96,2.17-4.5H499.1C507.97,20.73,514.93,46.78,519.07,73.36z"/>
	<path class="st18" d="M726.9-4.7c14.34,24.5,25.42,50.37,27.74,78.4c0.92,11.14,0.42,22.37,1.4,33.51
		c1.84,20.93,8.86,41,14.2,61.33c12.51,47.62,15.9,97.2,15.39,146.41c7.81-2.01,15.62-4.03,23.43-6.04
		C791.39,205.16,794.1,98.07,816.76-4.7H726.9z"/>
	<path class="st18" d="M1158.37-4.7c-5.68,63.39-11.36,126.78-17.04,190.17c-2.67,29.77-5.53,60.26-18.43,87.26
		c-12.24,25.61-32.66,46.28-52.71,66.43l33.4-14.32c6.76,5.48,14.53,9.72,22.81,12.44c5.53-6.64,11.07-13.28,16.6-19.92
		c13.44,11.24,34.68,11.96,48.86,1.65c-17.73-106.73-8.27-215.55-1.13-323.7H1158.37z"/>
	<path class="st21" d="M1198.8,500.44c-3.57-16.87-5.33-34.12-5.22-51.36c-12.61-5.59-23.31-15.36-30-27.37
		c12.27-21.2,11.51-47.19,10.02-71.61c-1.89-30.86-4.39-61.69-7.51-92.45c-0.94-9.28-2.39-19.47-9.45-25.61
		c-8.21-7.15-21.34-5.79-30.46,0.18c-9.11,5.97-15.15,15.49-20.89,24.72c-28.44,45.64-58.02,96.19-50.78,149.41
		c0.59,4.38,0.77,10.06-3.3,11.83c-3.32,1.45-6.93-0.96-10.04-2.82c-17.99-10.74-40.95-4.52-60.89,1.99
		c-26.9,8.77-58.52,23.08-61.32,51.1c-0.84,8.42,1.26,16.83,3.35,25.03c1.29,0-11.9,5.54-10.62,5.54l49.02,20.93
		c11.48,5.2,24.58,5.02,37.18,4.63c65.02-2.01,129.93-7.18,194.45-15.41C1193.88,505.85,1196.1,502.89,1198.8,500.44z"/>
	<path class="st28" d="M423.48,19.67c-0.22-2.82-0.39-5.65-0.64-8.46c-12.96,11.08-26.2,22.5-34.42,37.41s-10.45,34.3-1.12,48.54
		c1.75,2.66,3.87,5.13,5.04,8.09c1.83,4.63,1.1,9.82,0.37,14.75c-9.62,64.36-15.46,129.28-17.48,194.31
		c0.28-74.07-4.14-148.15-13.23-221.66c-2.14-17.3-4.76-35.19-14.22-49.85c-9.46-14.67-27.73-25.19-44.54-20.3
		c-5.37-8.25-9.11-17.54-11.04-27.18h-4.31c1.85,8.4,3.7,16.8,5.55,25.21c1.13,5.13,2.35,10.46,5.67,14.56
		c5.92,7.31,16.56,8.54,24.46,13.68c12.21,7.94,16.08,23.68,18.82,37.93c16.39,85.23,27.56,171.45,33.44,258.03
		c3.46-45.41,6.93-90.82,10.39-136.23c2.05-26.93,4.15-54.1,11.76-80.02c3.08-10.49,7.04-21.85,2.96-32
		c-2.72-6.77-8.75-12-10.67-19.04c-2.9-10.65,4.35-21.15,11.2-29.83C408.81,38.28,416.15,28.97,423.48,19.67z"/>
	<path class="st28" d="M822.03,8.33c1.56,1.4,3.19,2.72,4.94,3.91c4.19,2.84,8.91,5.15,12.09,9.08c4.81,5.96,5.04,14.21,6.13,21.77
		c2.99,20.85,13.82,39.61,23.17,58.51c52.8,106.7,61.86,227.87,63.65,347.73c1.33,1.72-1.56-1.58,0,0
		c19.98-139.84-3.4-281.03-73.17-404.05C850.05,29.8,838.72,13.37,822.03,8.33z"/>
	<path class="st28" d="M289.12,683.87c-6.14-3.61-12.3-7.23-18.9-9.9c-11.59-4.69-24.15-6.31-36.56-7.9
		c-14.46-1.85-29.13-3.69-43.55-1.58c-24.12,3.53-47.31,17.98-71.22,13.25c-8.91,11.77-17.82,23.55-26.72,35.32l1.17,1.19
		c7.66-10.74,16.2-22.13,28.83-26.08c5.32-1.67,10.97-1.85,16.5-2.58c8.63-1.14,17.02-3.61,25.56-5.34
		c47.57-9.63,96.32,4.18,143.51,15.49c0.83,0.2,1.68,0.39,2.55,0.56C303.23,692.17,296.17,688.02,289.12,683.87z"/>
	<path class="st28" d="M1065.14,668.32c-2.29-3.66-4.57-7.51-8.13-9.96c-3.75-2.59-8.46-3.29-12.98-3.92
		c-11.21-1.56-24.5-2.41-31.91,6.11c-3.22,3.71-5.2,9.07-9.89,10.57c-3.89,1.25-7.98-0.76-11.75-2.34
		c-19.13-8.04-42.43-5.31-59.16,6.94c-8.54,6.26-15.26,14.62-21.86,22.88c-3.81,4.76-7.61,9.52-11.42,14.28l0,0.01
		c15.65-17.97,36.77-34.15,60.66-33.29c12.57,0.45,24.65,5.64,37.23,5.68c12.58,0.04,27.02-8.27,26.42-20.77
		c9.88-2.41,19.76,2.89,29.43,6.02c4.92,1.59,10.69,2.28,15.78,1.39C1066.76,670.72,1065.91,669.54,1065.14,668.32z"/>
	<path class="st28" d="M190.14,313.68c11.2,21.09,4.85,51.52,23.97,65.92c7.57,5.7,17.39,7.18,26.58,9.55
		c19.6,5.06,37.81,15.11,52.73,28.7c-16.72-20.23-38.79-41.38-64.7-37.6c-6.63-20.08-13.25-40.15-19.88-60.22
		c-1.04-3.15-2.13-6.4-4.35-8.88c-2.82-3.17-7.05-4.64-11.1-5.94c-23.2-7.45-49.12-13.24-71.36-3.29
		c-17.95,8.03-30.47,25.5-35.77,44.36c-5.3,18.85-4.09,38.99-0.29,58.19c-26.87,20-47.82,47.73-59.83,78.89l0.85,2.42
		c21.46-21.36,42.92-42.71,64.38-64.07c4.44-4.42,9.12-9.28,10.04-15.46c0.75-5.02-1.12-10.01-2.57-14.88
		c-5.59-18.68-5.26-39.07,0.94-57.56c3.01-8.99,7.79-17.98,15.97-22.84c14.89-8.85,34.2-0.87,51.19-4.34
		c4.97-1.02,10.16-3.01,14.93-1.29C185.65,306.71,188.26,310.15,190.14,313.68z"/>
	<path class="st28" d="M850.6,372.43c-15.59,0.3-31.17,0.6-46.76,0.9c-22.9-29.92-45.8-59.83-68.69-89.75
		c-20.6,6.3-40.89,13.6-60.77,21.87c-11.43,4.76-23.3,10.29-30.34,20.44c-7.04,10.14-6.88,26.24,3.52,32.95
		c-33.8,5.18-60.67,38.69-58.21,72.63c-26.96,1.64-54.89,3.54-78.7,16.23c-10.25,5.46-19.5,13.52-26.29,23.02
		c26.82-17.36,60.13-25.28,92.27-30.27c5.54-0.86,11.35-1.77,15.79-5.17c6.57-5.04,8.29-13.94,10.84-21.79
		c8.47-26.14,31.62-47.04,58.59-52.9c-9.07-7.04-9.06-21.43-3.11-31.22c5.95-9.79,16.18-16.08,26.02-22
		c9.53-5.73,19.76-11.64,30.88-11.28c37.59,1.22,40.81,63.68,75.97,76.94c9.37,3.53,19.79,2.92,29.51,5.34
		c14.88,3.7,30.81,15.44,38.54,29.63C855.37,396.5,852.31,384.56,850.6,372.43z"/>
	<path class="st25" d="M1184.9,513.89c-10.76-8.32-29.65-10.63-30.59-24.15c-0.41-5.84,3.32-11.7,1.69-17.33
		c-1.54-5.32-7.12-8.18-11.35-11.77c-18.43-15.64-11.43-44.65-6.53-68.25c7.78-37.45,5.86-76.86-5.5-113.39
		c-26.52,5.48-37.65,36.34-44.13,62.5c-7.91,31.91-15.81,63.83-23.72,95.74c-35.59-8.94-74.3-4.98-107.32,10.98
		c-9.59,4.64-20.15,14.26-15.79,23.94c-13.58,0.63-27.04,3.83-39.43,9.38c-38.94-10.26-35.66-71.27-68.38-94.65
		c-16.87-12.05-39.43-11.26-59.48-16.63c-15.9-4.26-32.21-17.04-34.66-31.8c-6.15-5.95-9.78-8.08-17.2-9.32
		c-19.06,7.18-33.97,27.48-45.3,45.91c-14.58,23.71-29.16,47.41-43.74,71.12c-4.14,6.74-8.47,13.67-14.97,18.21
		c-13.29,9.28-31.18,6.06-47.41,6.57c-32.06,1-60.22,24.51-90.94,33.66c-66.32,19.75-142.75,9.11-192.25-39.03
		c-11.38-11.07-22.96-38.74-37.9-44.2c-14.93-5.47-35.7,0.86-38.39,16.47c-21.17-28.87-4.89-75.33-43.52-93.12
		c-18.66,1.57-44.44,27.1-45.25,45.71c-0.8,18.61,3.19,38.27-4.55,55.23c-9.37,20.54-32.48,30.23-51.76,42.1
		c-25.01,15.4-45.75,36.86-63.9,59.89l4.91-0.25c5.45,7.81,1.77,12.08,23.84,10.62c98.95-28.57,215.19-15.62,336.57-8.91
		c27.13,1.5,59.77-1.5,85.83-9.15c9.12-2.68,17.47-4.11,26.98-4.27c5.48-0.09,17.07-0.52,22.43,0.61
		c59.66,12.6,112.9-8.27,173.77-12.14c20.69-1.32,41.44-1.44,62.17-1.57l60.89-0.36c43.13-0.26,86.31-0.51,129.34,2.54
		c33.33,2.37,66.48,6.72,99.61,11.07c56.32,7.39,112.64,14.79,168.96,22.18C1198.3,542.09,1197.56,523.67,1184.9,513.89z"/>
	<path class="st25" d="M881.18-4.7c8.1,15.07,16.21,30.14,24.31,45.22c5.76,10.72,11.53,21.45,16.41,32.59
		c22.27,50.82,25.16,107.64,27.74,163.02c10.08-28.4,17.28-57.81,21.47-87.64c5.56-39.59,8.22-84.75,39.29-110.1
		c18.88,17.87,33.35,40.32,41.81,64.84c9.21-36.86,21.41-72.97,36.34-107.92H881.18z"/>
	<path class="st28" d="M955.48,427.07c27.91-8.96,58.21-10.47,86.86-4.25c6.64,1.44,14.68,2.89,19.3-2.06
		c3.02-3.23,3.33-8.04,3.58-12.45c2.96-53.04,20.34-105.21,49.8-149.51c3.71-5.57,7.75-11.17,13.44-14.73
		c5.69-3.56,13.43-4.64,19.04-0.97c6.35,4.15,7.97,12.56,9.03,20.05c6.66,47.34,13.03,94.9,13.76,142.66
		c5.15-17.61,4.46-37.12,3.32-55.72c-1.89-30.86-4.39-61.69-7.51-92.45c-0.94-9.28-2.39-19.47-9.45-25.61
		c-8.21-7.15-21.34-5.79-30.46,0.18c-9.11,5.97-15.15,15.49-20.89,24.72c-28.44,45.64-58.02,96.19-50.78,149.41
		c0.59,4.38,0.77,10.06-3.3,11.83c-3.32,1.45-6.93-0.96-10.04-2.82c-17.99-10.74-40.95-4.52-60.89,1.99
		C972.14,419.99,963.56,423.17,955.48,427.07z"/>
</g>
</svg>
