<?xml version="1.0" encoding="utf-8"?>
<!-- Generator: Adobe Illustrator 28.5.0, SVG Export Plug-In . SVG Version: 9.03 Build 54727)  -->
<svg version="1.0" id="Layer_1" xmlns="http://www.w3.org/2000/svg" xmlns:xlink="http://www.w3.org/1999/xlink" x="0px" y="0px"
	 viewBox="0 0 1200 900" style="enable-background:new 0 0 1200 900;" xml:space="preserve">
<style type="text/css">
	.st0{fill:#A4D5A1;}
	.st1{fill:#83C166;}
	.st2{fill:#89C691;}
	.st3{fill:#CEC77A;}
	.st4{fill:#4EA994;}
	.st5{fill:#30756C;}
	.st6{fill:#F0A628;}
	.st7{fill:#F2BC62;}
	.st8{fill:#D59429;}
	.st9{fill:#C84732;}
	.st10{fill:#DA98A4;}
	.st11{fill:#552733;}
	.st12{fill:#8F8532;}
	.st13{fill:#F26923;}
	.st14{fill:#80D0EE;}
	.st15{fill:#B1CDA6;}
	.st16{fill:#C2D0B9;}
	.st17{fill:#0AA7EC;}
	.st18{fill:#3895AA;}
	.st19{fill:#36AABB;}
	.st20{fill:#BDEDF9;}
	.st21{fill:#71BFB3;}
	.st22{fill:#BADC8C;}
	.st23{fill:#CBE6A8;}
	.st24{fill:#FAFFF9;}
	.st25{fill:#E2D4BB;}
	.st26{fill:#F3F3E5;}
	.st27{fill:#757D73;}
	.st28{fill:#573B52;}
	.st29{fill:#7C300A;}
	.st30{fill:#929E47;}
	.st31{fill:#418EA5;}
	.st32{fill:#F1E8C1;}
	.st33{fill:#614D62;}
	.st34{fill:#FCFCFD;}
	.st35{fill:#72A82F;}
	.st36{fill:#385B4D;}
	.st37{fill:#8B738C;}
	.st38{fill:#81BF75;}
	.st39{fill:#68958C;}
</style>
<polygon class="st0" points="0.01,-4.7 0.01,900 172.18,899.58 172.18,899.58 776.05,899.58 776.05,900 1200,900 1200,-4.7 "/>
<path class="st1" d="M0.01-4.7v164.35c90.59,1.62,124.58-50.38,260.53-50.38c172.22,0,172.22,36.16,344.43,36.16
	s172.21-36.16,344.42-36.16c130.88,0,167.25,48.2,250.61,50.34V-4.7H0.01z"/>
<rect x="0.02" y="272.19" class="st2" width="1199.92" height="476.28"/>
<rect x="0.02" y="295.79" class="st3" width="1199.92" height="452.68"/>
<path class="st4" d="M61.02,298.77c-16.7-14.14-17.97-42.72-2.59-58.28c15.38-15.55,44.12-14.77,58.61,1.6
	c17.31-12.59,44.4-8.87,57.63,7.92c16.69-22.46,58.81-15.65,67.48,10.92c13.07-22.42,52.09-21.51,64.1,1.49
	c-3.28-24.18,16.01-49.13,40.35-52.17s49.24,16.38,52.08,40.62c11.27-4.45,23.27-8.99,35.22-6.9c11.95,2.09,23.06,13.68,19.93,25.33
	c11.4-13.39,30.96-17.87,48.3-14.67s32.76,13.01,46.32,24.23c4.19,3.47,8.42,7.35,10.06,12.52c5.25,16.56-17.24,27.25-34.46,30.11
	c-25.34,4.22-53.04,8.05-75.31-4.68c-31.76,21.9-74.4,15.84-112.4,8.88c-34.15-6.25-68.3-12.51-102.51-18.4
	c-10.05-1.73-20.35-3.43-30.37-1.54c-8.09,1.53-15.54,5.31-23.26,8.18c-35.1,13.06-77.04,5.79-105.63-18.31l-13.56,3.14
	L61.02,298.77z"/>
<path class="st4" d="M1200,319.17c-125.1-8.69-170.35,9.75-359.52,9.75c-241.41,0-241.41,32.12-482.82,32.12
	c-188.19,0-233.99-40.44-357.65-41.84v238.35c126.48,16.5,166.45,14.75,357.66,14.75c241.41,0,241.41-32.12,482.82-32.12
	c189.13,0,234.43,40.84,359.5,41.86V319.17H1200z"/>
<rect x="0.02" y="410.14" class="st5" width="1199.92" height="419.76"/>
<rect x="0.02" y="489.68" class="st6" width="1199.92" height="340.22"/>
<path class="st7" d="M0.01,572.7c125.1-8.69,170.35,9.75,359.52,9.75c241.41,0,241.41,32.12,482.82,32.12
	c188.19,0,233.98-40.44,357.64-41.84v238.35c-126.48,16.5-166.45,14.75-357.66,14.75c-241.41,0-241.41-32.12-482.82-32.12
	c-189.13,0-234.43,40.84-359.5,41.86L0.01,572.7L0.01,572.7z"/>
<path class="st8" d="M0.01,583.41c125.1-8.69,170.35,9.75,359.52,9.75c241.41,0,241.41,32.12,482.82,32.12
	c188.19,0,233.98-40.44,357.64-41.84v238.35c-126.48,16.5-166.45,14.75-357.66,14.75c-241.41,0-241.41-32.12-482.82-32.12
	c-189.13,0-234.43,40.84-359.5,41.86L0.01,583.41L0.01,583.41z"/>
<path class="st9" d="M1199.93,803.03c-1.49-2.78-3.49-5.76-6.21-9.07c-19.98-24.34-25.32,2.55-56.9,2.55s-31.59,7.01-63.17,7.01
	s-31.58-4.7-63.16-4.7s-31.58-22.4-63.16-22.4s-31.58-2.82-63.16-2.82s-31.58,3.12-63.16,3.12s-31.58-4.78-63.15-4.78
	s-31.58,32.92-63.15,32.92s-31.57-31.64-63.15-31.64s-31.58,17.79-63.16,17.79s-31.58,13.95-63.16,13.95s-31.58-27.92-63.15-27.92
	s-31.58,25.73-63.15,25.73s-31.58,0.45-63.16,0.45s-31.58-18.42-63.15-18.42s-31.58-4.6-63.16-4.6s-31.58,14.86-63.15,14.86
	s-31.57,3.55-63.15,3.55s-39.53-31.12-59.49-6.78c-1.44,1.76-2.63,3.42-3.66,5.02v27.27l0,0v59.35v16.52l172.17-0.42h603.86v0.42
	H1200v-95.37l-0.06,0.05v-1.65L1199.93,803.03z"/>
<g>
	<path class="st10" d="M442.08,777.05c-25.99,0-30.6,17.42-49.02,23.59c14.88,0.42,29.71,1.36,44.45,3.13
		c45.76,5.48,93.25,18.56,136.8,3.54c26.97-9.31,59.62-27.94,80.2-8.24c5.01,4.8,8.2,11.32,13.54,15.75
		c11.17,9.26,28.24,6.61,41.05-0.23c12.81-6.84,23.56-17.19,36.78-23.21c24.26-11.06,52.37-5.95,79.04-4.93
		c19.28,0.74,40.8-2.25,55.99-12.8c-28.35,0.21-29.45,3.11-59.9,3.11s-31.58-4.78-63.15-4.78s-31.58,32.92-63.15,32.92
		s-31.57-31.64-63.15-31.64s-31.58,17.79-63.16,17.79S536.82,805,505.24,805s-31.58-27.92-63.15-27.92L442.08,777.05z"/>
	<path class="st10" d="M305.43,802.46c-21.71-3.49-25.12-17.65-52.81-17.65c-31.58,0-31.58-4.6-63.16-4.6s-31.58,14.86-63.15,14.86
		c-0.43,0-0.84,0-1.26,0C183.56,808.78,244.41,805.36,305.43,802.46z"/>
</g>
<path class="st11" d="M1199.93,840.5c-1.49-2.78-3.49-5.76-6.21-9.07c-19.98-24.34-25.32,2.55-56.9,2.55s-31.59,7.01-63.17,7.01
	s-31.58-4.7-63.16-4.7s-31.58-22.4-63.16-22.4s-31.58-2.82-63.16-2.82s-31.58,3.12-63.16,3.12s-31.58-4.78-63.15-4.78
	s-31.58,32.92-63.15,32.92s-31.57-31.64-63.15-31.64s-31.58,17.79-63.16,17.79s-31.58,13.95-63.16,13.95s-31.58-27.92-63.15-27.92
	s-31.58,25.73-63.15,25.73s-31.58,0.45-63.16,0.45s-31.58-18.42-63.15-18.42s-31.58-4.6-63.16-4.6s-31.58,14.86-63.15,14.86
	s-31.57,3.55-63.15,3.55s-39.53-31.12-59.49-6.78c-1.44,1.76-2.63,3.42-3.66,5.02v27.27l0,0v38.4l172.17-0.42h603.86v0.42H1200
	V842.1l-0.06,0.05L1199.93,840.5L1199.93,840.5z"/>
<path class="st4" d="M885.71,303.19c-10.37-10.81-5.79-28.39-0.4-42.34c2.33-6.02,4.89-12.31,9.96-16.33
	c8.27-6.55,22.15-3.99,27.5,5.09c29.12-28.64,80.57-30.62,111.83-4.31c5.6-19.43,16.66-39.1,35.49-46.68
	c18.83-7.59,45.23,3.81,46.11,24c19.9-5.82,43.29,4.67,52.08,23.36s1.9,43.28-15.35,54.75c2.48,2.29,4.97,4.58,7.45,6.87
	c-20.54,15.43-48.38,15.82-74.11,15.57c-34.82-0.34-69.64-0.68-104.46-1.03c-5.83-0.06-11.66-0.11-17.49-0.17
	c-9.9-0.1-19.79-0.19-29.68-0.57c-14.24-0.54-28.45-1.67-42.59-3.38L885.71,303.19L885.71,303.19z"/>
<path class="st12" d="M535.51,727.05c-2.36-17.83-8.58-35.15-18.11-50.44c11.8,0.1,23.45,5.51,31.09,14.45
	c2.25-6.2,5.38-12.09,9.25-17.43c2.59,6.53,5.17,13.06,7.76,19.59c4.43-6.74,11.44-11.76,19.27-13.8
	c-5.51,11.6-2.87,26.53,6.3,35.55c4.42-6.76,10.63-12.36,17.82-16.08c0.46,6.16,0.92,12.33,1.37,18.49
	c-18.27,9.81-39.48,14.13-60.16,12.26l-14.61-2.6L535.51,727.05z"/>
<path class="st5" d="M1121.51,423.3c10.54-11.89,7.74-33.9,0.75-49.41c-4.12-9.13-10.25-18.1-18.51-19.41s-17.27,9.83-13.53,19.22
	c-2.87-7.77-10.29-12.39-16.93-10.53s-11.81,10-11.81,18.58c-4.4-8.54-12.43-13.88-20.49-13.64c-8.06,0.24-15.88,6.06-19.95,14.85
	c-7.86-20.55-26.08-34-44.12-32.58c-8.06,0.64-16.41,4.42-21.23,12.6c-4.81,8.18-4.69,21.28,1.7,27.51
	c-8.99-5.98-20.95-6.67-28.65,1.68c-7.71,8.35-7.73,26.74,1.34,32.53c2.99,1.91,6.43,2.29,9.78,2.63
	c31.48,3.22,62.97,6.44,94.45,9.66c29.91,3.06,61.93,5.57,87.98-13.24l-0.77-0.46L1121.51,423.3z"/>
<path class="st5" d="M347.62,427.52c-18.52-16.48-13.61-46.97-1.31-68.45c7.24-12.65,18.02-25.07,32.54-26.88
	c14.52-1.81,30.36,13.62,23.79,26.63c5.05-10.77,18.09-17.16,29.75-14.59s20.76,13.85,20.76,25.74
	c7.73-11.82,21.84-19.23,36.02-18.89c14.17,0.33,27.92,8.4,35.07,20.57c13.82-28.46,45.85-47.1,77.56-45.13
	c14.17,0.88,28.86,6.12,37.32,17.46s8.25,29.48-2.99,38.11c15.8-8.28,36.82-9.24,50.37,2.33c13.55,11.57,13.58,37.04-2.35,45.06
	c-5.26,2.65-11.31,3.17-17.19,3.64c-55.35,4.46-110.69,8.92-166.04,13.38c-52.59,4.24-108.87,7.71-154.67-18.34L347.62,427.52
	L347.62,427.52z"/>
<path class="st6" d="M57.62,500.86c-15.72-13.98-11.55-39.85-1.11-58.07c6.14-10.73,15.29-21.27,27.61-22.81
	c12.32-1.53,25.76,11.55,20.19,22.59c4.29-9.14,15.35-14.56,25.24-12.38s17.61,11.75,17.61,21.84
	c6.56-10.03,18.53-16.31,30.55-16.03s23.69,7.12,29.76,17.45c11.72-24.15,38.9-39.96,65.8-38.29c12.02,0.75,24.48,5.2,31.66,14.81
	c7.18,9.62,7,25.01-2.53,32.33c13.4-7.03,31.24-7.84,42.73,1.98s11.52,31.42-1.99,38.23c-4.46,2.25-9.59,2.69-14.58,3.09
	c-46.95,3.78-93.91,7.57-140.86,11.35c-44.62,3.6-92.36,6.54-131.22-15.56l1.15-0.54L57.62,500.86z"/>
<path class="st13" d="M172.29,281.12v1.49V281.12z"/>
<path class="st11" d="M568.87,849.06c-8.36-38.36-16.66-78.77-4.98-116.26c-1.32,26.92,2.49,54.09,11.17,79.62
	c5.56,16.36,13.15,32.27,15.31,49.4l-21.5-12.77V849.06z"/>
<path class="st11" d="M1115.88,849.06c-8.36-38.36-16.66-78.77-4.98-116.26c-1.32,26.92,2.49,54.09,11.17,79.62
	c5.56,16.36,13.15,32.27,15.31,49.4l-21.5-12.77L1115.88,849.06z"/>
<ellipse class="st11" cx="556.74" cy="714.17" rx="53.54" ry="54.38"/>
<ellipse class="st11" cx="1121.25" cy="746.09" rx="36.1" ry="34.12"/>
<path class="st11" d="M243.3,853.48c-81.42-38.82-134.46-129.92-127.79-219.5c55.7,28.61,103.91,71.53,138.65,123.45
	c-2.37-45.67,15.48-92.03,47.91-124.44c14.62,34.1,21.18,71.59,19.02,108.6c29.47-36.83,70.88-64.06,116.49-76.6
	c-0.55,48.15-14.77,96.62-43.5,135.38c-28.73,38.75-72.42,67.08-120.33,73.96l-30.44-20.84L243.3,853.48z"/>
<path class="st11" d="M879.05,837.31c-56.37-16.96-99.67-70.42-104.34-128.82c38.77,12.92,74.13,35.81,101.72,65.83
	c-6.1-29.2,0.76-60.85,18.42-84.96c12.84,20.53,20.82,44.04,23.13,68.11c15.31-26.66,39.27-48.31,67.41-60.91
	c4.46,31.09,0.16,63.74-14.48,91.57c-14.64,27.82-39.96,50.41-70.15,59.59L879.05,837.31L879.05,837.31z"/>
<path class="st5" d="M799.6,414.02c-7.31-38.41-9.16-77.85-5.48-116.77c-45-1.4-89.92-4.99-134.57-10.74
	c25.48-6.67,50.96-13.34,76.44-20.01c-6.2-6.59-15.53-10.14-24.57-9.36c6.66-7.67,17.81-9.28,27.95-10.37
	c54.3-5.88,108.59-11.75,162.89-17.63c-8.62,8.82-19.48,15.44-31.3,19.08c35.01,9.15,70.68,15.81,106.65,19.92
	c-2.92,8.41-12.62,12.06-21.2,14.56c-44.23,12.9-89.22,23.24-134.66,30.95c-7.99,35.97-8.36,73.59-1.09,109.71l-21.05-9.33
	L799.6,414.02z"/>
<path class="st5" d="M185.58,426.7c-5.7-29.94-7.14-60.67-4.27-91.01c-35.07-1.09-69.39,8.51-104.88-8.37
	c19.86-5.2,39.72-10.4,59.57-15.59c-4.84-5.14-12.1-7.9-19.15-7.29c5.19-5.98,13.88-7.23,21.78-8.08
	c42.32-4.58,84.63-9.16,126.95-13.74c-6.72,6.87-15.19,12.04-24.39,14.87c27.29,7.13,55.09,12.32,83.11,15.52
	c-2.27,6.55-9.83,9.4-16.52,11.35c-34.47,10.06-69.54,18.11-104.95,24.12c-6.23,28.03-6.52,57.35-0.85,85.5l-16.41-7.27
	L185.58,426.7z"/>
<path class="st6" d="M752.29,518.45c-15.4-7.66-22.64-28.33-15.35-43.85c7.29-15.52,27.87-23.26,43.66-16.43
	c23.49-21.5,63.23-22.33,87.61-1.83c15.59-25.37,32.81-52.21,60.19-64.16s67.06,0.13,71.78,29.5c26.99-16.17,66.73-4.76,80.91,23.24
	c18.21-7.45,41.55-4.55,54.21,10.45c12.67,15,9.23,41.93-8.68,50.06c-6.03,2.74-12.82,3.23-19.43,3.69
	c-98.77,6.8-197.55,13.61-296.32,20.41l-58.56-11.08H752.29z"/>
<path class="st7" d="M253.78,584.77c-18.62-16.14-26.32-43.66-18.76-67.05c15.12,7.31,30.24,14.62,45.36,21.93
	c7.41-22.91,23.99-42.74,45.29-54.16c6.4,19.24,6.26,40.57-0.38,59.73c15.26-13.23,36.36-19.51,56.41-16.81
	c-2.57,28.97-25.95,54.87-54.62,60.53c-7.72,1.52-15.63,1.71-23.5,1.88c-11.85,0.27-23.71,0.54-35.56,0.8L253.78,584.77
	L253.78,584.77z"/>
<path class="st7" d="M816.02,621.7c-13.38-10.8-22.11-27.1-23.67-44.17c17-1.11,34.23,1.41,50.19,7.35
	c0.96-16.79,8.19-33.15,19.98-45.21c16.9,2.87,32.53,12.57,42.55,26.4c6.66-13.85,19.76-24.48,34.74-28.18
	c5.49,12.49,1.34,26.88-2.84,39.86c-4.67,14.46-10.57,30.4-24.27,37.1c-4.67,2.28-9.87,3.25-15.01,4.07
	c-25.26,4.03-50.99,5.13-76.5,3.27L816.02,621.7L816.02,621.7z"/>
<g>
	<g>
		<polygon class="st14" points="0.05,-4.18 0.05,900 172.21,899.58 172.21,899.58 776.06,899.58 776.06,900 1200,900 1200,-4.18 		
			"/>
		<path class="st15" d="M655.54,271.24c12.03-24.71,47.11-34.84,70.58-20.37c8.24-14.64,17.49-28.71,27.67-42.08
			c9.29-12.21,21.07-24.75,36.43-25.82c11.89-0.83,22.95,5.49,33.16,11.59c21.41,12.8,42.82,25.59,64.23,38.39
			c2.87,1.71,6.1,3.49,9.37,2.8c1.54-0.32,2.91-1.17,4.29-1.93c12.82-6.99,29.65-5.94,41.5,2.58c11.85,8.52,18.11,24.08,15.45,38.38
			c-21.89,17.08-51.61,20.54-79.38,18.87c-27.77-1.67-55.28-7.78-83.1-7.22c-40.04,0.81-79.64,15.43-119.34,10.22L655.54,271.24z"/>
		<path class="st16" d="M688.83,279.91c8.71-3.81,17.43-7.61,26.14-11.42c11.82-5.16,25.35-10.36,37.19-5.26
			c2.28,0.98,4.45,2.34,6.9,2.74c10.48,1.73,14.8-12.37,19.54-21.82c9.59-19.12,38.4-25.11,54.89-11.41
			c8.35,6.94,16.97,18.58,27.05,14.51c2.65-1.07,4.75-3.15,7.31-4.41c10.47-5.15,21.75,4.9,29.07,13.94
			c6.51,8.04,13.03,16.08,19.54,24.13c-65.09,0.35-130.17,0.7-195.26,1.05L688.83,279.91z"/>
		<path class="st17" d="M0.05-4.18v216.06c90.59,2.13,124.57-66.23,260.52-66.23c172.21,0,172.21,47.54,344.42,47.54
			c172.2,0,172.2-47.54,344.41-47.54c130.87,0,167.25,63.36,250.6,66.19V-4.18H0.05z"/>
		<path class="st15" d="M13.87,292.58c43.31-47.89,108.04-75.88,172.8-74.72c60.26,1.08,119.1,25.95,179.13,20.55
			c19.7-1.77,40.43-6.66,58.63,1.06c6.66,2.82,12.54,7.2,19.05,10.34c24.83,11.97,54.16,4.48,81.74,5.36
			c41.99,1.34,80.45,22.4,117.04,42.92c-111.33,9.24-222.65,18.47-333.98,27.71c-88.84,7.37-179.05,14.68-266.54-2.36L13.87,292.58z
			"/>
		<rect x="0.05" y="272.55" class="st18" width="1199.88" height="476.01"/>
		<rect x="0.05" y="296.14" class="st19" width="1199.88" height="452.42"/>
		<path class="st20" d="M633.08,133.35c0,0,251.02,1.45,260.7,0c9.68-1.45-18.25-121.14-58.92-77.9c0,0-32.76-56.99-71.8-37.14
			c-39.04,19.85-36.61,91.38-36.61,91.38s-38.98-71.84-69.92-65.14C633.11,49.63,619.34,82.32,633.08,133.35z"/>
		<rect x="0.05" y="410.42" class="st21" width="1199.88" height="419.52"/>
		<g>
			<path class="st22" d="M1199.97,440.23c-107.06-78.84-236.44-78.84-359.51-57.13c-166.39,29.36-317.57,138.86-482.81,166.17
				C223.78,571.4,112.24,515.75,0.02,440.26c0,79.41,0,158.81,0,238.22c106.83,85.02,228.55,104.1,357.66,81.93
				c166.14-28.53,323.26-48.01,488.42-75.7c134.39-22.53,241-57.3,353.87,18.25C1199.96,615.38,1199.96,527.8,1199.97,440.23z"/>
		</g>
		<path class="st23" d="M1023.96,373.73c-60.41-6.75-122.72-1.35-183.5,9.38c-166.39,29.36-317.57,138.86-482.81,166.17
			c-16.28,2.69-32.22,4.21-47.88,4.71c6.98,6.96,15.08,12.97,23.33,17.45c89.78,48.71,200.55,21.21,297.71-10.56
			c51.43-16.82,102.89-34.68,150-61.2c47.37-26.67,89.58-61.68,136.82-88.59C950.34,392.44,986.84,377.67,1023.96,373.73z"/>
		<path class="st24" d="M0.05,572.15c125.1-8.69,170.35,9.75,359.51,9.75c241.4,0,241.4,32.1,482.81,32.1
			c188.18,0,233.97-40.41,357.63-41.82V810.4c-126.48,16.49-166.44,14.74-357.65,14.74c-241.4,0-241.4-32.1-482.81-32.1
			c-189.12,0-234.43,40.82-359.49,41.83V572.15z"/>
		<path class="st25" d="M0.05,580.18c125.1-8.69,170.35,9.75,359.51,9.75c241.4,0,241.4,32.1,482.81,32.1
			c188.18,0,233.97-40.41,357.63-41.82v238.21c-126.48,16.49-166.44,14.74-357.65,14.74c-241.4,0-241.4-32.1-482.81-32.1
			c-189.12,0-234.43,40.82-359.49,41.83V580.18z"/>
		<path class="st26" d="M0.05,633.68c125.1-8.69,170.35,9.75,359.51,9.75c241.4,0,241.4,32.1,482.81,32.1
			c188.18,0,233.97-40.41,357.63-41.82v238.21c-126.48,16.49-166.44,14.74-357.65,14.74c-241.4,0-241.4-32.1-482.81-32.1
			c-189.12,0-234.43,40.82-359.49,41.83V633.68z"/>
		<path class="st27" d="M1199.93,777.99v-1.65c-1.49-2.77-3.49-5.76-6.21-9.07c-19.97-24.33-25.32,2.55-56.9,2.55
			c-31.59,0-31.59,7.01-63.17,7.01c-31.58,0-31.58-4.7-63.16-4.7c-31.58,0-31.58-22.39-63.16-22.39c-31.58,0-31.58-2.82-63.16-2.82
			c-31.58,0-31.58,3.12-63.16,3.12c-31.58,0-31.58-4.77-63.15-4.77c-31.57,0-31.57,32.9-63.15,32.9
			c-31.57,0-31.57-31.62-63.14-31.62c-31.58,0-31.58,17.78-63.16,17.78c-31.58,0-31.58,13.94-63.15,13.94
			c-31.58,0-31.58-27.91-63.15-27.91c-31.58,0-31.58,25.72-63.15,25.72c-31.58,0-31.58,0.45-63.15,0.45
			c-31.57,0-31.57-18.41-63.15-18.41c-31.58,0-31.58-4.6-63.16-4.6c-31.58,0-31.58,14.85-63.15,14.85
			c-31.57,0-31.57,3.55-63.15,3.55c-31.57,0-39.53-31.1-59.49-6.78c-1.44,1.76-2.63,3.42-3.66,5.02v27.25c0,0,0,0,0,0l0,59.31V900
			l172.16-0.42l0,0h603.84V900H1200V777.94L1199.93,777.99z"/>
		<g>
			<path class="st24" d="M442.1,750.37c-25.99,0-30.6,17.41-49.02,23.58c14.88,0.42,29.71,1.36,44.45,3.13
				c45.76,5.48,93.25,18.55,136.79,3.53c26.97-9.3,59.62-27.92,80.19-8.24c5.01,4.8,8.2,11.31,13.54,15.74
				c11.17,9.25,28.24,6.6,41.05-0.23c12.81-6.84,23.56-17.18,36.78-23.2c24.26-11.05,52.37-5.95,79.03-4.93
				c19.28,0.74,40.8-2.25,55.99-12.8c-28.34,0.21-29.45,3.11-59.89,3.11c-31.58,0-31.58-4.77-63.15-4.77
				c-31.57,0-31.57,32.9-63.15,32.9c-31.57,0-31.57-31.62-63.14-31.62c-31.58,0-31.58,17.78-63.16,17.78
				c-31.58,0-31.58,13.94-63.15,13.94C473.68,778.28,473.68,750.37,442.1,750.37z"/>
			<path class="st24" d="M305.46,775.76c-21.71-3.49-25.12-17.64-52.81-17.64c-31.58,0-31.58-4.6-63.16-4.6
				c-31.58,0-31.58,14.85-63.15,14.85c-0.43,0-0.84,0-1.26,0C183.59,782.08,244.44,778.66,305.46,775.76z"/>
		</g>
		<path class="st28" d="M1199.93,813.79c-1.49-2.78-3.49-5.76-6.21-9.07c-19.97-24.33-25.32,2.55-56.9,2.55
			c-31.59,0-31.59,7.01-63.17,7.01c-31.58,0-31.58-4.7-63.16-4.7c-31.58,0-31.58-22.39-63.16-22.39c-31.58,0-31.58-2.82-63.16-2.82
			c-31.58,0-31.58,3.12-63.16,3.12c-31.58,0-31.58-4.77-63.15-4.77c-31.57,0-31.57,32.9-63.15,32.9
			c-31.57,0-31.57-31.62-63.14-31.62c-31.58,0-31.58,17.78-63.16,17.78c-31.58,0-31.58,13.94-63.15,13.94
			c-31.58,0-31.58-27.91-63.15-27.91c-31.58,0-31.58,25.72-63.15,25.72c-31.58,0-31.58,0.45-63.15,0.45
			c-31.57,0-31.57-18.41-63.15-18.41c-31.58,0-31.58-4.6-63.16-4.6c-31.58,0-31.58,14.85-63.15,14.85
			c-31.57,0-31.57,3.55-63.15,3.55c-31.57,0-39.53-31.1-59.49-6.78c-1.44,1.76-2.63,3.42-3.66,5.02v27.25c0,0,0,0,0,0l0,59.31V900
			l172.16-0.42h603.84V900H1200v-84.61l-0.07,0.05V813.79z"/>
		<g>
			<path class="st29" d="M56.67,878.11l0.99-2.23C57.18,876.59,56.86,877.34,56.67,878.11z"/>
		</g>
		<path class="st20" d="M75.98,225.3c0,0,386.99,2.24,401.91,0c14.92-2.24-28.14-186.53-90.83-119.94c0,0-50.51-87.75-110.7-57.19
			s-56.44,140.71-56.44,140.71s-60.1-110.61-107.8-100.3C76.03,96.38,54.8,146.71,75.98,225.3z"/>
	</g>
	<g>
		<path class="st30" d="M778.26,868.69l0.03-0.03C777.87,867.61,778.09,868.08,778.26,868.69z"/>
		<path class="st30" d="M778.26,868.69l-0.57,0.53c0.02,0.02,0.03,0.03,0.04,0.05C778.59,870.18,778.45,869.36,778.26,868.69z"/>
	</g>
	<path class="st31" d="M352.73,361.94c-7.97,7.05-5.91,20.76,1.41,28.47c7.32,7.71,18.09,10.95,28.34,13.89
		c14,4.01,28.01,8.03,42.01,12.04c4.04,1.16,9.03,3.71,8.31,7.83c-0.4,2.3-2.54,3.85-3.71,5.88c-2.64,4.59,0.5,10.74,5.18,13.26
		c4.68,2.51,10.28,2.39,15.59,2.2c30.96-1.1,61.93-2.2,92.89-3.3c1.85,4.19,1.08,9.39-1.89,12.88c30.98-2.17,60.65-18.6,78.81-43.64
		c-6.63-5.2-13.26-10.41-19.89-15.61c7.5-10.59,15-21.18,22.5-31.77c2.01-2.84,4.12-6.32,2.87-9.57c-1.66-4.32-7.59-4.63-12.22-4.18
		c-74.37,7.12-148.74,14.23-223.1,21.35L352.73,361.94z"/>
	<path class="st26" d="M349.7,361.93c39.03-27.07,81.99-50.44,128.95-58.08c46.97-7.64,98.66,2.44,133.17,35.03
		c5.73,5.41,11.33,13.12,8.63,20.51c-1.99,5.46-7.79,8.44-13.18,10.7c-40.63,17.07-85.16,22.35-129.07,26.47
		c-38.86,3.65-80.11,6.1-114.86-11.57c-5.16-2.62-10.42-6.02-12.56-11.37c-2.14-5.35,0.66-12.86,6.41-13.51L349.7,361.93z"/>
	<path class="st32" d="M611.82,338.88c-15.9-15.02-35.47-25.21-56.54-31.13c-24.29,23.25-50.4,44.44-80.76,58.63
		c-38.79,18.14-86.32,22.89-124.37,4.7c0.1,0.88,0.3,1.74,0.62,2.54c2.14,5.35,7.4,8.75,12.56,11.37
		c34.75,17.67,76,15.21,114.86,11.57c43.91-4.12,88.44-9.4,129.07-26.47c5.38-2.26,11.18-5.24,13.18-10.7
		C623.15,352,617.55,344.3,611.82,338.88z"/>
	<path class="st33" d="M752.58,636.88c38.25,16.84,77.23,33.89,118.79,38.59c62.6,7.08,124.51-14.39,183.82-35.52
		c7.61-2.71,16.74-7.69,15.88-15.68c-0.96-8.84-12.75-11.06-21.69-10.89c-85.33,1.6-170.57,8.28-255.1,19.98L752.58,636.88z"/>
	<path class="st34" d="M749.85,631.62c11.45-11.01,22.91-22.02,34.36-33.03c23.5-22.59,50.35-46.64,83.03-47.19
		c11.94-0.2,23.7,2.85,35.63,3.55c9.03,0.53,18.09-0.28,27.14-0.06c42.12,1.06,82.71,26.69,101.58,64.15
		c-80.95,45.77-181.9,55.01-269.89,24.69L749.85,631.62z"/>
	<path class="st33" d="M136.11,603.92c21.65,12.42,45.92,20.3,70.76,22.97c32.87,3.53,65.98-1.96,98.58-7.43
		c17.08-2.87,34.16-5.74,51.23-8.6c-14.94-18.42-39.91-25.17-63.42-28.81c-33.55-5.18-67.76-6.18-101.56-2.96
		c-14.71,1.4-30.03,3.87-41.85,12.7L136.11,603.92z"/>
	<path class="st34" d="M134.64,590.45c17.6-18.56,38.41-34.11,61.25-45.75c8.99-4.58,18.83-8.66,28.87-7.56
		c8.74,0.96,16.53,5.71,23.98,10.35c11.82,7.35,23.64,14.7,35.46,22.06c7.31,4.55,15.67,11.47,13.58,19.79
		c-1.82,7.27-10.47,10.17-17.86,11.64c-47.24,9.39-96.38,9.3-143.58-0.27L134.64,590.45z"/>
	<path class="st35" d="M811.45,794.28c-11.59-3.59-22.57-9.11-32.35-16.25c-6.14-4.49-12.01-9.88-14.78-16.94
		c-2.76-7.06-1.6-16.1,4.43-20.74c-12.22-10.57-7.93-33.9,7.26-39.48c9.02,4.65,16.09,12.88,19.31,22.46
		c0.09-11.98,8.27-24.88,20.3-25.66c12.02-0.77,21.61,16.76,12.14,24.16c11.2-8.83,29.47-16.92,37.67-5.27
		c4.83,6.85,2.09,16.31-1.57,23.84c-5.51,11.37-12.78,21.9-21.45,31.11c10.47-0.9,14.66,14.88,8.7,23.48
		c-8.74,12.6-30.5,12.75-39.41,0.27L811.45,794.28z"/>
	<path class="st35" d="M179.6,815.7c-7.39-0.98-13.03-8.94-11.47-16.19s9.99-12.21,17.14-10.09c1.74,3-4.94,1.78-5.82-1.57
		c-5.54-21.08,15.49-44.32,37.16-41.05c2.62-10.97,9.8-22.55,21.07-23.81c9.19-1.03,18.13,5.86,21.04,14.59
		c2.91,8.73,0.54,18.6-4.56,26.27c12.03,3.93,20.65,16.4,20.01,28.97s-10.46,24.13-22.83,26.83c-4.02,13.33-16.3,23.81-30.16,25.75
		c-13.86,1.94-28.57-4.77-36.13-16.48L179.6,815.7z"/>
	<path class="st36" d="M264.14,769.67c0.1,11.62-6.24,23.4-16.64,28.92c-11.55,6.13-28.97,2.46-32.94-9.95
		c-6.31,6.92-16.72,9.83-25.73,7.21c-4.02-1.17-7.64-3.46-10.6-6.42c-4.83,1.32-9.04,5.17-10.1,10.09
		c-1.56,7.25,4.08,15.21,11.47,16.19l5.45,13.22c7.56,11.71,22.27,18.42,36.13,16.48c13.86-1.94,26.14-12.42,30.16-25.75
		c12.36-2.71,22.19-14.26,22.83-26.84C274.61,784.12,270.62,775.48,264.14,769.67z"/>
	<path class="st36" d="M865.43,716.55c-0.64-0.91-1.36-1.66-2.12-2.34c-3.24,19.54-14.87,37.6-31.46,48.59
		c-4.32,2.86-9.17,5.32-14.36,5.47c-5.19,0.15-10.75-2.55-12.55-7.4c-4.18,9.37-15.79,14.05-25.91,12.13c-3.46-0.66-6.69-2-9.7-3.77
		c2.81,3.32,6.23,6.22,9.76,8.8c9.78,7.14,20.76,12.66,32.35,16.25l0.24,0.98c8.91,12.48,30.67,12.33,39.41-0.27
		c5.96-8.6,1.77-24.38-8.7-23.48c8.68-9.21,15.94-19.74,21.45-31.11C867.52,732.86,870.26,723.41,865.43,716.55z"/>
	<path class="st37" d="M933.7,396.52c-0.23-0.17-0.46-0.34-0.7-0.51c-12.75-9.33-19.98-25.62-18.32-41.27
		c4.5,4.57,12.31,4.42,17.87,1.21c5.56-3.21,9.3-8.77,12.42-14.36c17.51-31.36,21.17-70.05,9.86-104.11
		c22,27.82,33.51,63.66,31.8,99.01c-0.24,5,2.57,9.58,5.27,13.8c8.13,12.68,16.26,25.36,24.4,38.04c-2.02,7.25-12.12,7.3-19.66,6.67
		c-17.22-1.44-34.82,1.9-50.31,9.53L933.7,396.52z"/>
	<path class="st38" d="M962.29,261.42c-12.13,11.04-29.55,16.08-45.74,13.23c-10.49-1.85-20.93-7.4-25.74-16.85
		c-4.81-9.45-1.96-22.91,7.66-27.48c-11.45-15.76-6.77-40.67,9.63-51.26c16.4-10.59,41.19-4.7,51.01,12.11
		c6.27-20.53,25.77-41.41,46.27-34.73c17.52,5.71,22.07,33.12,7.33,44.13c16.15-8.99,36.18,9.15,37.45,27.51
		c1.16,16.76-8.01,33.8-22.67,42.14c-14.66,8.34-34.09,7.56-48.03-1.93c-1.25,7.79-15.58,7.36-16.36-0.49L962.29,261.42z"/>
	<path class="st39" d="M1050.17,228.09c-0.65-9.37-6.19-18.67-13.6-24.35c-2.13,10.27-8.35,19.95-15.6,27.84
		c-8.36,9.1-18.95,17.09-31.26,18.5c-12.31,1.42-26.18-5.76-28.75-17.82c-15.09,21.76-44.71,31.86-70.25,25.3
		c0.04,0.08,0.07,0.16,0.11,0.24c4.81,9.45,15.25,15.01,25.74,16.85c16.2,2.85,33.61-2.19,45.74-13.23l0.82,6.39
		c0.78,7.85,15.11,8.28,16.36,0.49c13.94,9.49,33.37,10.27,48.03,1.93C1042.16,261.89,1051.33,244.85,1050.17,228.09z"/>
</g>
</svg>
