<?xml version="1.0" encoding="utf-8"?>
<!-- Generator: Adobe Illustrator 28.5.0, SVG Export Plug-In . SVG Version: 9.03 Build 54727)  -->
<svg version="1.0" id="Layer_1" xmlns="http://www.w3.org/2000/svg" xmlns:xlink="http://www.w3.org/1999/xlink" x="0px" y="0px"
	 viewBox="0 0 500 500" style="enable-background:new 0 0 500 500;" xml:space="preserve">
<style type="text/css">
	.st0{fill:url(#SVGID_1_);}
	.st1{fill:#A4501D;}
	.st2{fill:#47230A;}
	.st3{fill:url(#SVGID_00000083084047355210164750000003895191051274549683_);}
	.st4{fill:#CF6727;}
	.st5{fill:#D46818;}
	.st6{fill:#592C0A;}
	.st7{fill:#FFFFFF;}
	.st8{fill:#291C1F;}
	.st9{fill:#6B251E;}
	.st10{fill:#938078;}
	.st11{fill:#EFEFEF;}
</style>
<g>
	<g>
		
			<linearGradient id="SVGID_1_" gradientUnits="userSpaceOnUse" x1="230.3554" y1="471.7298" x2="268.108" y2="24.7846" gradientTransform="matrix(1 0 0 -1 0 500)">
			<stop  offset="0" style="stop-color:#7B441E"/>
			<stop  offset="1" style="stop-color:#663513"/>
		</linearGradient>
		<circle class="st0" cx="249" cy="249" r="250.23"/>
		<path class="st1" d="M-0.46,229.27c64.74,3.97,129.73,4.03,193.1-8.85c93.78-19.07,178.89-65.29,260.96-115.51
			C408.3,40.71,333.55-1.23,249-1.23C117.44-1.23,9.6,100.29-0.46,229.27z"/>
		<path class="st2" d="M420.2,212.25c-16.51,5.22-31.19,14.87-46.12,23.63c-69.62,40.82-148.09,63.48-225.1,87.64
			c-9.75,3.06-19.54,6.17-28.67,10.75c-15.74,7.9-28.99,19.92-41.66,32.14c-10.55,10.18-20.83,20.64-30.88,31.32
			c45.58,61.58,118.74,101.5,201.23,101.5c138.2,0,250.23-112.03,250.23-250.23c0-16-1.52-31.64-4.39-46.8
			c-13.8,1.11-27.59,2.43-41.35,3.97C442.27,207.43,430.98,208.85,420.2,212.25z"/>
		
			<linearGradient id="SVGID_00000061462427228171187960000016065578932534498456_" gradientUnits="userSpaceOnUse" x1="195.1279" y1="454.0744" x2="301.7705" y2="57.2645" gradientTransform="matrix(1 0 0 -1 0 500)">
			<stop  offset="0" style="stop-color:#FDD78D"/>
			<stop  offset="1" style="stop-color:#663513"/>
		</linearGradient>
		
			<ellipse style="fill:url(#SVGID_00000061462427228171187960000016065578932534498456_);" cx="249" cy="246.38" rx="204.86" ry="210.08"/>
		<ellipse class="st4" cx="249" cy="249" rx="194.21" ry="194.21"/>
		<path class="st5" d="M478,148.01c0,0-20.79,8.49-24.14,9.86s-31.65,13.24-34.84,15.97c-3.19,2.74-168.08,16.18-233.28,15.27
			c-65.2-0.91-93.05-3.81-109.48,0.04s-48.38,26.68-53.4,27.59c-5.02,0.93-22.3,2.26-22.3,2.26v20.12c0,0,73.87-25.56,74.78-26.93
			c0.91-1.37,169.09-16.89,169.09-16.89l154.96,3.65l75.31-27.38l7.73-12.84L478,148.01z"/>
		<path class="st6" d="M478,148.01c-6.08,6.73-13.09,12.3-21.78,14.42c-4.8,1.17-9.87,1.19-14.55,2.78
			c-6.63,2.25-11.81,7.39-17.65,11.25c-15.87,10.5-36.03,11.31-55.06,11.69c-80.1,1.59-160.23,1.65-240.34,0.18
			c-18.52-0.34-37.68-0.65-54.73,6.57c-14.22,6.02-25.96,16.88-40.1,23.09c-10.38,4.56-23.48,5.71-33.24,1.01
			c-1.17,9.84-1.8,19.84-1.8,30c0,2.17,0.03,4.34,0.08,6.5c0.79,0.25,1.59,0.49,2.38,0.71c11.68,3.27,24.95,4.57,35.3-1.75
			c10.51-6.41,15.7-19.27,26.1-25.85c6.58-4.16,14.55-5.36,22.26-6.46c95.54-13.64,192.12-26.46,288.3-18.45
			c15.22,1.27,30.61,3.05,45.69,0.62c24.33-3.91,47.74-18.55,71.21-22.53C486.86,170.17,482.8,158.89,478,148.01z"/>
		<path class="st5" d="M367.76,290.61c0,0-232.13,13.03-253.48,11.36s-43.63,0.69-59.49,15.21C38.92,331.7,19.9,349.76,19.9,349.76
			l18.09,5.39l42.8-37.96l121.83-11.44C202.62,305.73,356.24,297.67,367.76,290.61z"/>
		<path class="st6" d="M367.76,290.61c-87.98,15.05-177.87,12.15-267.08,14.76c-6.9,0.2-13.92,0.46-20.46,2.67
			c-6.92,2.34-12.92,6.74-18.79,11.08c-13.84,10.21-27.69,20.42-41.53,30.63c4.54,10.32,9.76,20.28,15.6,29.81
			c13.78-12.47,21.3-31.05,35.37-43.38c15.18-13.3,36.06-17.71,56.07-20.3C207.24,305.52,291.07,316.59,367.76,290.61z"/>
		<path class="st5" d="M185.74,336.75c0,0,155.03-12.75,175.55-19.58c20.51-6.83,133.55-38.65,136.48-37.81l-2,11.25l-41.91,20.15
			c0,0-109.89,23.95-112.53,24.33c-2.65,0.38-72.14,11.68-72.14,11.68L185.74,336.75z"/>
		<path class="st6" d="M446.77,295.15c-14.35,3.89-27.96,10.05-41.9,15.21c-69.38,25.67-145.15,26.19-219.13,26.39l11.72,6.89
			c55.17,8.03,111.26,9.72,166.82,5.04c39.06-3.29,78.54-9.67,117.4-7.44c7.3-18.41,12.47-37.9,15.23-58.15
			C481.17,288.68,463.08,290.72,446.77,295.15z"/>
		<path class="st5" d="M37.99,114.45l2.19-4.24c0,0,97.97,5.34,106.34,4.97s130.21,1.43,156.16,2.98s134.39-34.33,134.39-34.33
			l6.15,9.21l-24.15,22.14l-83.31,11.35L249,123.2l-101.65,3.35l-99.58-7.12L37.99,114.45z"/>
		<path class="st6" d="M439.9,135.21c9.68-1.73,19.33-4.07,29.03-5.66c-8.25-15.16-18.04-29.36-29.13-42.42
			c-30.42,20.39-68.01,29.5-104.87,32.2c-43.29,3.18-86.75-1.5-130.16-1.47c-37.02,0.03-74.13,3.48-111.01,0.26
			c-16.77-1.46-33.49-4.3-50.32-3.92c-1.81,0.04-3.63,0.13-5.46,0.26c-2.45,3.84-4.79,7.75-7.04,11.73
			c4.63-0.51,9.36-0.47,13.92,0.02c14.37,1.54,28.1,6.68,42.35,9.07c33,5.52,66.41-3.96,99.69-7.33
			C271.11,119.41,356.6,150.09,439.9,135.21z"/>
		<path class="st5" d="M328.79,72.76c0,0-114.87-9.2-136.22-16.85s-64.14-26.22-64.14-26.22l-11.27,6.62l42.33,19.61l63.48,16.85
			C222.97,72.76,322.24,73.82,328.79,72.76z"/>
		<path class="st6" d="M125.51,34.16c-1.09-0.32-2.19-0.63-3.29-0.92c-10.22,6.02-19.98,12.74-29.2,20.1
			c21.68,0.79,43.29,3.71,64.4,8.76c16.81,4.02,33.32,9.37,50.31,12.56c39.83,7.46,80.81,2.79,121.06-1.9
			c-51.43-0.11-104.14-0.44-152.31-18.46C159.36,47.89,143.04,39.32,125.51,34.16z"/>
		<path class="st5" d="M291.22,404.15c0,0-43.65-8.83-105.48,10.01s-55.3,35.23-81.8,38.76l19.55,1.85l53.17-26.34l74.1-20.13
			L291.22,404.15z"/>
		<path class="st6" d="M145.54,441.68c-11.56,5.33-24.19,7.82-36.68,10.27c-1.64,0.32-3.28,0.64-4.92,0.96
			c7.08,5.05,14.44,9.72,22.05,14.02c3.91-3,7.95-5.82,12.09-8.45c20.74-13.16,43.83-22.09,66.75-30.92
			c15.31-5.9,30.83-11.86,47.15-13.58c11.1-1.17,22.87-0.48,32.73-5.7l6.52-4.14c-40.4,0.82-82.61,2.1-118,21.6
			C163.89,430.9,155.21,437.23,145.54,441.68z"/>
	</g>
	<ellipse class="st7" cx="292.45" cy="49.53" rx="12" ry="8.81"/>
	
		<ellipse transform="matrix(0.5022 -0.8648 0.8648 0.5022 106.8507 369.5706)" class="st7" cx="374.42" cy="91.98" rx="14.38" ry="29.35"/>
	<ellipse class="st7" cx="126.81" cy="401.02" rx="9.65" ry="8.73"/>
</g>
<g>
	<polygon class="st8" points="220.96,469.88 243.9,469.88 243.9,452.34 231.56,452.34 	"/>
	<polygon class="st8" points="148.15,464.29 172.83,487.86 216.26,452.34 210.34,441.64 	"/>
	<path class="st9" d="M302.58,222.59c9.62-3.41,19.44-4.38,29.02-3.79l-0.02-0.01l22.72-35.53l-57.97,19.84l86.47-111l-71.66,3.27
		l-90.18,200.61l16.11-9.9l10.08,0.26l-24.56,79.88l41.1-51.07c-6.17-9.7-7.22-16.38-7.22-16.38h0.01
		C247.53,269.06,263.96,236.29,302.58,222.59z"/>
	<polygon class="st10" points="45.09,72.22 44.44,72.37 66.07,90.92 60.76,80.53 	"/>
	<path class="st11" d="M285.78,38.64l-49.81,6.66l-0.75,2.76l1.89,1.68l-0.57,30.92l22.89,17.66l-35.98,56.46
		c0,0,20.58-51.34,21.97-55.58c1.39-4.24-14.97-2.53-14.97-2.53s-1.92-8.17-4.44-18.62c-2.22,9.2-4.37,18.42-6.4,27.66
		c-0.01,0.04-0.01,0.08-0.02,0.12l-32.55,120.31l-15.88,3.58l0.52-10.64L104.21,58.77l0.05-0.09L59.88,68.83l6.96,5.97l114.5,223.94
		L285.78,38.64z"/>
	<path class="st11" d="M293.98,458.29c11.82,9.94,27.95,19.95,43.46,23.18l-17.22-23.18H293.98z"/>
	<path class="st11" d="M311.8,305.35c0.08-1.97,0.31-3.82,0.66-5.59c-0.51-2.02-0.75-4.1-0.66-6.25
		c1.03-26.21,26.96-35.49,66.47-10.52l7.64-11.88c-13.28-10.71-51.15-36.91-84.13-18.18c-17.32,9.84-25.81,23.32-27.65,37.19
		c0.2,1.53,0.45,3.06,0.79,4.58c0.32,1.38,0.67,2.74,1.05,4.1c18.67,55,72.25,39.11,98.64,76.69c8.5,12.1,10.6,23.15,9,32.57
		c4.35,26.52-21.08,44.29-35.18,44.29c-18.09,0-26.94-9.7-28.3-10.81c-12.56-10.31-25.25-37.23-25.25-37.23s-11.97,2.69-22.46,10.07
		c-4.1,2.88-7.55,5.89-10.4,8.71l4.08-0.1c0,0,3.76,6.12,7.66,12.09c1.17,1.78,62.61,17.42,62.61,17.42s-0.9,7.35-0.21,11.79
		c0.13,0.03,0.21,0.05,0.21,0.05s-0.03,0.25-0.07,0.65c0.38,1.77,1.08,2.9,2.32,2.52c4.26-1.32,55.97-20.94,55.97-20.94
		l-57.09,34.91c1.13,0.23,2.27,0.47,3.39,0.63c31.65,4.49,67.59-23.01,77.14-55.01c1.18-3.94,1.92-7.71,2.33-11.33
		C413.57,359.19,310.25,344.76,311.8,305.35z M394.19,458.66c-0.01-0.03-0.02-0.05-0.03-0.08c0.25-0.1,0.42-0.16,0.42-0.16
		L394.19,458.66z"/>
	<path class="st10" d="M329.27,281.24c11.61-3.09,28.46,0.62,48.99,13.6l1.35-2.1C370.23,288.01,341.62,274.67,329.27,281.24z"/>
	<path class="st8" d="M173.41,320.65l14.57-1.26L315.03,12.14L177.46,30.15l0.44,10.26l29.57,9.54l-33.29,135.37L110.43,31.07
		l0.02-0.08L110.4,31l-0.05-0.12l-0.08,0.14L17.13,47.85l2.72,10.98l25.23,13.39l15.67,8.32l5.31,10.39l111.48,218.09L173.41,320.65
		z M66.84,74.8l-6.96-5.97L44.44,55.59l59.82-13.69l-0.05,0.09l67.46,160.33l-0.52,10.64l15.88-3.58l37.34-138.01
		c0.56,2.3,1.11,4.54,1.63,6.7c2.52,10.45,4.44,18.62,4.44,18.62s16.36-1.71,14.97,2.53c-1.4,4.24-21.97,55.58-21.97,55.58
		l35.98-56.46l-22.89-17.66l0.57-30.92l-1.89-1.68l-3.66-3.26l4.41-16.28l56.93-7.62l-7.12,17.73l-104.44,260.1L66.84,74.8z"/>
	<path class="st8" d="M402.87,351.9c-39.27-23.92-86.17-45.71-78.34-65.36c0.98-2.45,2.62-4.18,4.74-5.31
		c12.34-6.57,40.95,6.77,50.34,11.5c1.92,0.97,3.06,1.59,3.06,1.59l37.73-44.19c-0.91-1.27-3.68-5.39-4.17-6.16l-10.9,5.96
		c0,0-25.97-21.42-58.12-28.83l41.19-54.71l-28.4,3.93l-40.7,17.82l78.51-101.71l-101.59-0.41L193.88,318.49l14.86-1.44l7.65-5
		l10.86-7.09l-47.82,123.31l23.14-1.69l72.35-97.42c11,11.25,28.42,23.85,56,34.53c79.82,30.89,32.16,69.45,11.79,64.31
		c-20.38-5.14-40.11-43.78-40.11-43.78s-13.29-3.37-35.72,11c-25.4,16.26-37.27,35.35-37.27,35.35s22.47,4.62,29.31,10.3
		c0.6,0.5,1.33,0.89,2.1,1.22c34.94,30.34,48.99,44,76.22,45.41c2.62,0.14,5.74,0.28,9.24,0.33c9.81,0.15,22.56-0.41,35.42-3.8
		c18.5-4.88,37.28-15.6,47.76-38.65C456.86,385.58,426.92,366.55,402.87,351.9z M256.48,298.77h-0.01c0,0,1.06,6.68,7.22,16.38
		l-41.1,51.07l24.56-79.88l-10.08-0.26l-16.11,9.9l90.18-200.61l71.66-3.27l-86.47,111l57.97-19.84l-22.72,35.53l0.02,0.01
		c-9.58-0.6-19.4,0.38-29.02,3.79C263.96,236.29,247.53,269.06,256.48,298.77z M293.98,458.29h26.25l17.22,23.18
		C321.93,478.24,305.79,468.23,293.98,458.29z M420.35,415.78c-0.4,3.62-1.15,7.38-2.33,11.33c-9.55,32-45.49,59.5-77.14,55.01
		c-1.12-0.16-2.26-0.4-3.39-0.63l57.09-34.91c0,0-51.71,19.62-55.97,20.94c-1.24,0.38-1.94-0.75-2.32-2.52
		c-0.05-0.23-0.1-0.46-0.13-0.71c-0.69-4.44,0.21-11.79,0.21-11.79s-61.44-15.63-62.61-17.42c-3.9-5.98-7.66-12.09-7.66-12.09
		l-4.08,0.1l-10,0.24c0,0,6.68-11.13,20.4-20.78c10.49-7.38,22.46-10.07,22.46-10.07s12.69,26.92,25.25,37.23
		c1.36,1.12,10.21,10.81,28.3,10.81c11.88,0,31.8-12.62,35.18-32.45c1.61-9.42-0.5-20.46-9-32.57
		c-26.39-37.58-79.97-21.69-98.64-76.69c-0.38-1.35-0.73-2.72-1.05-4.1c-0.35-1.52-0.59-3.05-0.79-4.58
		c-2.32-17.76,5.41-36.4,27.65-49.03c40.77-23.16,89.04,22.38,89.04,22.38l-4.92,7.64L378.26,283
		c-39.5-24.98-65.44-15.69-66.47,10.52c-0.08,2.16,0.15,4.24,0.66,6.25C321.9,337.06,427.35,352.57,420.35,415.78z"/>
</g>
</svg>
