<?xml version="1.0" encoding="utf-8"?>
<!-- Generator: Adobe Illustrator 28.5.0, SVG Export Plug-In . SVG Version: 9.03 Build 54727)  -->
<svg version="1.0" id="Layer_1" xmlns="http://www.w3.org/2000/svg" xmlns:xlink="http://www.w3.org/1999/xlink" x="0px" y="0px"
	 viewBox="0 0 800 400" style="enable-background:new 0 0 800 400;" xml:space="preserve">
<style type="text/css">
	.st0{fill:#452A20;}
	.st1{fill:#876855;}
	.st2{fill:#361A12;}
	.st3{fill:#DE3726;}
	.st4{fill:#A57E71;}
	.st5{fill:#967050;}
	.st6{fill:#291812;}
	.st7{fill:#D79B5D;}
	.st8{fill:#F7B874;}
	.st9{fill:#FBB365;}
	.st10{fill:#BD762A;}
	.st11{fill:#CF802C;}
	.st12{fill:#E29A4D;}
	.st13{fill:#A66427;}
	.st14{fill:#F6B36A;}
	.st15{fill:#B36F29;}
	.st16{fill:#AD6828;}
</style>
<g>
	<g>
		<g>
			<g>
				<rect x="-5.04" y="38.97" class="st0" width="809.98" height="615.02"/>
				<path class="st1" d="M623.42,180.42c-4.35,15.87-27.86,23.94-38.98,37.77c-9.6,11.92-9.03,27.09-4.68,40.66
					c1.46,4.53,3.6,9.32,8.63,12c5.43,2.89,12.76,2.52,19.16,1.28c18.97-3.67,34.81-13.71,53.44-18.25
					c19.6-4.79,42.5-3.65,58.56-13.43c13.55-8.25,18.51-22.75,16.06-35.81c-3.14-16.71-17.88-32.12-38.35-38.71
					c-20.47-6.58-45.99-3.62-62.17,7.96l-11.68,6.53L623.42,180.42z"/>
				<path class="st1" d="M296.74,195.33c2.98,0.52,4.39,3.09,4.98,5.36c2.67,10.23-2.15,20.72-8.08,30.14
					c-5.93,9.42-13.14,18.58-15.73,28.82c-1.46,5.78-0.93,12.6,4.98,16.4c5.31,3.41,13.04,3.23,19.95,2.68
					c16.6-1.35,33.05-3.85,49.04-7.49c11.32-2.57,23.47-6.38,28.63-14.45c4.6-7.18,2.29-15.69-0.08-23.46
					c-4.03-13.14-8.06-26.29-12.09-39.43c-1.84-5.99-4.13-12.52-10.79-16.04c-4.11-2.18-9.33-2.83-14.36-2.83
					c-16.44,0-32.58,6.8-41.33,17.38l-5.14,2.92L296.74,195.33z"/>
				<path class="st1" d="M18.76,199.13c1.4,8.77,0,17.78-3.97,26.08c-2.51,5.21-6.1,10.54-4.92,16.03
					c1.64,7.65,12.43,12.58,22.64,12.81c10.21,0.24,19.91-3.05,29.18-6.28c5.35-1.85,10.69-3.72,16.04-5.57
					c4.11-1.43,8.28-2.87,11.74-5.08c11.66-7.39,12.33-21.03,8.02-32.09c-1.07-2.76-2.41-5.49-4.39-7.94
					c-6.34-7.79-18.85-11.82-30.9-11.92c-12.05-0.1-23.75,3.2-34.46,7.39l-8.95,6.56L18.76,199.13z"/>
				<ellipse class="st2" cx="103.8" cy="477.96" rx="31.16" ry="10.91"/>
				<path class="st2" d="M478.9,345.37c6.6,33.99,9.56,60.03,16.16,94.02c3.46,17.81,7.03,35.92,17.01,52.26
					c3.52,5.76,7.92,11.37,14.19,15.59c14.8,9.99,36.91,10.47,56.44,7.89c31.53-4.19,61.88-15.36,83.49-33.29
					c21.61-17.93,33.76-42.84,29.69-66.94c-1.54-9.09-5.63-18.38-14.58-24.54c-5.63-3.88-12.78-6.22-19.84-8.35
					c-33.33-10.04-68.58-16.77-99.89-30.03c-12.05-5.1-23.53-11.17-36.51-14.74c-12.98-3.57-28.19-4.35-40.03,1.04l-6.1,7.08
					L478.9,345.37z"/>
				<path class="st1" d="M482.53,328.21c-8.67,12.88,0.38,28.76,5.14,42.76c8.79,25.88,17.56,51.77,26.34,77.67
					c2.41,7.13,5,14.52,11.2,20.18c5.02,4.6,12.05,7.68,19.2,10.21c31.18,11.04,68.32,12.94,100.25,3.23
					c31.93-9.71,57.67-31.49,64.39-57.11c3.26-12.42,2.19-25.36-1.6-37.71c-10.73-35.12-42.99-65.12-82.8-84.78
					c-15.17-7.49-31.89-13.74-49.87-15.31c-17.98-1.58-41.37-0.67-53.86,9.27C520.92,296.62,489.55,317.76,482.53,328.21
					L482.53,328.21z"/>
				<path class="st1" d="M402.28,372.42c-13.41-0.39-27.24,6.97-34.26,16.08s-8.63,19.97-9.96,30.48
					c-3,23.43-4.56,49.41,14.62,67.89c10.81,10.43,27.68,17.1,45.12,17.89c17.45,0.78,35.21-4.34,47.59-13.72
					c13.3-10.1,19.97-24.47,21.28-38.73c1.32-14.26-2.31-28.51-7.19-42.32c-2.27-6.46-4.96-13.06-10.53-18.22
					c-5.18-4.81-12.47-8.02-19.93-10.62c-12.98-4.51-26.89-7.49-41.07-8.72h-5.67V372.42z"/>
				<path class="st1" d="M339.77,302.76c-5.47-10.04-20.45-15.56-34.75-15.99c-14.3-0.44-28.21,3.23-41.69,6.87
					c-13.49,3.64-27.38,7.32-41.67,6.95c-5.85-0.16-11.74-0.99-17.52-0.19c-5.35,0.75-10.67,3.43-12.01,7.32
					c0.38,3.12,2.05,6.32,3.71,9.32c12.68,20.48,23.83,41.51,33.39,62.94c8.28,18.58,15.65,37.88,31.16,53.57
					c9.58,9.68,23.93,18.15,39.79,17.12c14.44-0.94,26-9.45,34.32-18.48c7.25-7.86,13.12-16.73,14.58-26.24
					c1.21-7.94-0.65-15.93-2.17-23.84c-3.83-19.96-5.37-40.17-4.6-60.33c0.24-6.41,0.67-13.07-2.57-19.02H339.77z"/>
				<path class="st2" d="M226.82,493.21c-4.23,19.44,9.7,38.19,23.08,55.05c6.05,7.62,12.19,15.31,20.33,21.73
					c8.14,6.4,18.61,11.5,30.25,12.62c15.29,1.48,30.54-4.12,41.84-12.08c20.47-14.4,30.19-37.62,22.31-57.96
					c-0.43-1.1-0.99-2.27-2.25-2.89c-1.07-0.52-2.43-0.54-3.71-0.54c-15.25,0.16-30.41,2.01-45.66,2.39
					c-15.25,0.37-31.04-0.86-44.43-6.43c-11.48-4.77-23.06-12.91-35.64-10.15l-6.14-1.75V493.21z"/>
				<path class="st1" d="M334.42,482.86c-9.36-0.91-18.71,1.28-28.11,1.96c-13.12,0.97-26.61-1.04-38.27-5.73
					c-8.81-3.54-18.53-8.75-27.78-5.91c-6.66,2.05-10.12,7.65-11.87,12.94c-0.67,2.06-1.19,4.17-1.8,6.25
					c-0.49,2.34-0.81,4.71-0.61,7.06c0.06,0.75,0.12,1.93,0.28,3.17c0.26,0.5,0.53,1.01,0.77,1.53c0.51,0.99,1.09,1.93,1.7,2.87
					c7.41,7.94,12.8,17,18.35,25.85c7.07,11.27,14.98,22.67,27.62,30.64c12.66,7.97,31.22,11.74,45.87,6.06
					c4.78-1.85,8.85-4.58,12.78-7.36c16-11.38,30.72-25.27,33.53-41.78S356.17,484.97,334.42,482.86L334.42,482.86z"/>
				<path class="st3" d="M767.84,360.73c-0.34,0.96-0.63,1.95-0.95,2.92C767.19,362.68,767.52,361.71,767.84,360.73z"/>
				<path class="st2" d="M72.92,515.53c-5.67,14.76-7.65,30.32-5.85,45.61c1.48,12.47,5.57,24.96,14.17,35.64
					c10.91,13.56,28.25,23.29,45.14,32.67c6.68,3.72,13.45,7.45,21,10.04c17.9,6.09,39.55,4.92,56.62-2.4s29.4-20.44,33.96-34.93
					c1.48-4.69,2.17-9.68,0.43-14.34c-3.56-9.53-16.02-15.23-27.44-20.01c-39.93-16.64-79.84-33.29-119.76-49.95l-18.29-2.34
					L72.92,515.53z"/>
				<path class="st1" d="M100.48,597.7c-12.9-11.9-22.34-25.97-27.42-40.89c-4.76-13.93-5.67-28.97,0.67-42.51
					c6.34-13.56,20.72-25.36,39.06-28.99c15.41-3.05,32.08-0.15,45.99,5.72c13.91,5.86,25.45,14.48,36.17,23.43
					c14.56,12.18,28.09,25.41,36,40.73c7.92,15.3,9.74,32.98,1.03,48.05c-12.37,21.4-46.78,33.89-76.48,27.77
					c-22.46-4.63-39.89-17.98-54.05-32.02l-0.99-1.27L100.48,597.7z"/>
				<path class="st1" d="M594.93,588.06c-11.3-12.63-26.77-23.63-45.8-28.55c-36-9.32-77.45,6.02-98.15,30.25
					c-11.62,13.61-17.86,29.41-23.93,44.96c-2.51,6.41-5.02,12.84-7.53,19.26H626.6c2.59-7.71-1.24-16.99-5.35-24.83
					c-7.45-14.18-15.03-28.48-26.3-41.1H594.93z"/>
				<path class="st2" d="M90.26,377.85c-1.46,20.51-1.56,40.3,12.57,57.84c5.55,6.89,12.92,12.81,20.23,18.69
					c7.29,5.86,14.58,11.72,21.89,17.59c3.6,2.91,7.45,5.91,12.49,7.08c3.95,0.91,8.22,0.57,12.25-0.08
					c27.78-4.51,49.53-24.97,49.47-46.56c0-6.33-1.7-12.58-3.46-18.77c-2.81-9.84-5.89-19.63-8.95-29.44
					c-3.18-10.15-6.36-20.31-9.54-30.46c-0.28-0.88-0.63-1.85-1.64-2.34c-1.4-0.68-3.22-0.08-4.68,0.54
					c-27.58,11.64-55.56,26.87-87.05,25.23l-13.57,0.7L90.26,377.85z"/>
				<path class="st1" d="M135.23,449.52c-24.66-17.67-42.4-36.21-44.97-59.64s10.21-47.55,33.45-63.09
					c7.29-4.87,15.84-9.03,25.43-10.12c17.5-1.98,34.75,6.95,43.46,18.64s10.49,25.59,10.81,39.02c0.32,13.43-0.57,27.05,3.48,40.13
					c2.55,8.23,7.03,16.81,3.62,24.84c-2.65,6.28-9.7,10.91-16.97,14.52c-8.81,4.35-18.79,7.79-29.3,7.96
					c-10.51,0.15-21.57-3.56-26.55-10.57L135.23,449.52L135.23,449.52z"/>
				<path class="st2" d="M603.86,560.38c4.27,17.41,11.24,34.72,23.91,49.59c12.68,14.87,31.57,27.2,54.09,31.86
					c20.76,4.29,43.8,1.66,61.98-7.06c8.26-3.96,15.81-9.48,18.49-16.61c3.22-8.56-1.11-17.62-6.05-25.69
					c-7.67-12.55-16.97-24.52-27.72-35.68c-6.93-7.19-14.94-14.34-25.9-17.57c-13.26-3.91-28.21-1.36-41.73,1.96
					c-16.91,4.16-33.31,9.48-48.94,15.88l-8.1,3.33L603.86,560.38z"/>
				<path class="st1" d="M665.14,623.6c-18.16-12.29-36.67-24.89-48.68-40.95c-12.01-16.08-16.58-36.52-5.69-53.05
					c7.05-10.68,19.68-18.63,33.01-24.99c11.99-5.73,26.97-10.56,39.97-6.25c5,1.66,9.11,4.5,12.9,7.47
					c26,20.35,40.28,47.47,53.94,73.85c4.52,8.7,9.11,18.02,6.64,27.2c-3.32,12.33-18.99,20.96-35.21,23.56
					c-16.2,2.58-33.8,3.77-49.29-1.92L665.14,623.6L665.14,623.6z"/>
				<path class="st1" d="M241.96,616.42c-12.01,4.74-20.13,13.58-27.76,22.05c-4.64,5.16-9.29,10.34-13.93,15.51h168.94
					c-1.42-8.2-4.96-15.98-12.53-21.74c-5.41-4.12-12.41-6.82-19.46-9.09c-18.71-6.06-38.78-9.71-59.07-10.78
					c-12.31-0.65-25.21-0.26-36.17,4.08L241.96,616.42z"/>
				<polygon class="st3" points="45.46,653.98 45.44,653.98 45.42,653.98 				"/>
				<path class="st1" d="M355.89,597.33c2.07-13.92,4.19-28.01,10.83-41.07c6.64-13.06,18.43-25.2,35.17-31.08
					c7.35-2.58,15.92-3.86,23.57-1.83c9.82,2.61,16.1,10.26,17.88,18.04s-0.18,15.75-2.35,23.46c-2.67,9.48-5.71,18.98-11.34,27.69
					c-5.63,8.69-14.11,16.6-25.45,21.06c-8.69,3.43-19.14,4.64-28.43,2.31c-9.29-2.34-17.03-8.59-18.24-15.96l-1.62-2.61
					L355.89,597.33z"/>
				<path class="st1" d="M769.3,284.1c-2.25-2.5-5.41-4.47-8.67-6.22c-11.42-6.14-25.68-10.34-39.34-8.09
					c-4.52,0.75-8.89,2.19-13.51,2.37c-6.01,0.23-12.98-1.45-17.64,1.2c-7.47,5.8-11.76,14.32-12.57,22.49
					c0.28,7.47,3.5,14.83,8.55,21.26c6.66,8.49,17.68,15.95,30.68,16.24c12.37,0.28,23.25-5.81,32.76-11.82
					c7.51-4.73,15.07-9.76,19.62-16.3c4.58-6.54,5.59-15.02,0.1-21.16L769.3,284.1z"/>
				<path class="st1" d="M109.76,291.43c-1.24-2.14-3.32-3.91-5.39-5.65c-5.93-4.94-12.29-9.82-20.27-12.6
					c-13.28-4.63-28.79-2.74-43.01-0.16c-3.89,0.71-7.84,1.49-11.14,3.2s-5.87,4.53-5.67,7.57l-0.24-0.21
					c-0.02,0.08-0.04,0.18-0.08,0.26c-0.83,4.34-0.57,9.13-0.08,13.61c1.15,7.11,3.24,14.05,7.55,20.38
					c5.71,8.38,15.21,15.23,26.51,19.15c1.96,0.68,3.99,1.28,6.14,1.48c2.27,0.23,4.56,0,6.8-0.37c10.63-1.71,20.37-6.5,26.75-13.19
					c5.02-5.26,7.94-11.48,10.65-17.65c2.27-5.13,4.41-10.86,1.54-15.82L109.76,291.43z"/>
				<path class="st4" d="M271.75,553.34c-4.76-5.18-7.31-11.3-10.81-17.03c-5.95-9.73-14.62-18.35-21.2-27.83
					c-6.14-8.85-10.41-19.05-8.14-28.81c-1.44,2.03-2.47,4.29-3.2,6.5c-0.67,2.06-1.19,4.17-1.8,6.25
					c-0.49,2.34-0.81,4.71-0.61,7.06c0.06,0.75,0.12,1.93,0.28,3.17c0.26,0.5,0.53,1.01,0.77,1.53c0.51,0.99,1.09,1.93,1.7,2.87
					c7.41,7.94,12.8,17,18.35,25.85c6.16,9.82,12.96,19.75,23,27.41c1.84,1.32,3.75,2.57,5.65,3.83c7.59,4.55,17.15,7.6,26.65,8.1
					c0.28-0.34-0.12,0.41,0,0c-11.66-4.64-23.15-10.67-30.66-18.87L271.75,553.34z"/>
				<path class="st4" d="M203.41,374.34c-0.32-13.43-2.11-27.33-10.81-39.02c-5.55-7.44-14.54-13.75-24.87-16.86
					c10.33,7.08,15.94,17.91,17.88,28.56c2.33,12.63,0.43,25.48,0.85,38.24c0.47,13.93,3.71,27.9,1.48,41.73
					c-2.23,13.84-11.44,28.17-28.35,33.6l-0.34,0.94c1.66,0.16,3.34,0.28,5,0.24c10.51-0.15,20.49-3.59,29.3-7.96
					c7.29-3.6,14.32-8.23,16.97-14.52c3.4-8.05-1.07-16.61-3.62-24.84C202.84,401.39,203.75,387.77,203.41,374.34L203.41,374.34z"/>
				<path class="st4" d="M202.7,308.82c2.43-1.85,6.12-2.22,9.44-2.91c4.86-0.99,9.4-2.86,13.18-5.36
					c-1.21,0.03-2.43,0.06-3.67,0.03c-5.85-0.16-11.74-0.99-17.52-0.19c-5.35,0.75-10.67,3.43-12.01,7.32
					c0.38,3.12,2.05,6.32,3.71,9.32c12.68,20.48,23.83,41.51,33.39,62.94c8.28,18.58,15.65,37.88,31.16,53.57
					c8.61,8.7,21.08,16.4,35.05,17.12c-10.71-3.88-19.12-11.06-26.2-18.43c-22.68-23.58-36.67-51.22-50.44-78.48
					c-5.45-10.8-10.89-21.61-16.36-32.41c-2.09-4.14-3.91-9.39,0.22-12.54L202.7,308.82z"/>
				<path class="st4" d="M372.33,388.37c5.08-6.27,14.11-10.23,23.49-12.13c8.36-1.69,17.07-1.93,25.76-2.01
					c-4.5-0.75-9.03-1.4-13.61-1.8h-5.67c-13.41-0.39-27.24,6.97-34.26,16.08c-7.03,9.11-8.63,19.97-9.96,30.48
					c-3,23.43-4.56,49.41,14.62,67.89c5.81,5.6,13.43,10.08,21.89,13.19c-11.62-6.92-17.74-18.3-21.65-29.29
					c-7.61-21.42-9.88-43.93-6.66-65.98c0.83-5.7,2.11-11.55,6.07-16.42L372.33,388.37z"/>
				<path class="st4" d="M194.93,514.46c-10.69-8.95-22.23-17.57-36.17-23.43c-5.31-2.24-11.02-4.03-16.91-5.25
					c23.83,12.94,44.18,29.57,59.21,48.67c9.23,11.72,16.54,24.46,19.82,37.9c4.64,19.02-0.22,40.55-18.04,54.03
					c12.7-5.12,23.35-13.14,29.14-23.16c8.71-15.05,6.88-32.74-1.03-48.05c-7.92-15.3-21.46-28.55-36-40.73L194.93,514.46z"/>
				<path class="st1" d="M356.98,311.81c2.65-7.65,7.51-14.84,14.15-20.93c6.2-5.68,14.15-10.49,23.49-12.55
					c9.33-2.06,20.11-1.07,27.6,3.62c6.3,3.95,9.7,10.08,10.67,16.24c0.97,6.15-0.28,12.39-1.96,18.45
					c-2.31,8.25-5.49,16.5-11.48,23.59c-5.99,7.1-15.15,12.97-26,14.74c-15.43,2.52-32.6-4.6-38.17-15.82
					c-4.21-8.48-2.13-17.99,1.32-26.68l0.4-0.7L356.98,311.81z"/>
				<path class="st4" d="M430.93,316.64c1.68-6.06,2.94-12.29,1.96-18.45c-0.36-2.35-1.09-4.69-2.21-6.92
					c0.06,11.42-2.94,22.83-8.87,33.31c-3.64,6.43-8.42,12.57-14.8,17.64c-9.01,7.18-22.27,12.1-35.01,10.52
					c6.62,2.47,14.22,3.43,21.42,2.24c10.85-1.77,20.01-7.65,26-14.74c5.99-7.1,9.19-15.35,11.48-23.59H430.93z"/>
				<path class="st4" d="M382.96,535.88c-7.05,5.85-12.47,12.96-16.26,20.36c-6.64,13.06-8.77,27.15-10.83,41.07l1.62,2.61
					c0.69,4.14,3.46,7.91,7.39,10.85c-2.09-2.24-3.52-4.9-4.25-7.6c-1.46-5.39-0.55-10.98,0.43-16.45
					C364.23,568.86,368.75,549.99,382.96,535.88L382.96,535.88z"/>
				<path class="st4" d="M450.98,589.76c-11.62,13.61-17.86,29.41-23.93,44.96c-0.45,1.12-0.87,2.22-1.32,3.35
					c6.22-13.35,14.74-26.06,25.39-37.69c12.94-14.14,29.6-27.04,50.75-33.29c30.27-8.95,67.51-1.92,88.71,16.77
					c0.57,0.5,1.17,1.01,1.84,1.48c-11.04-11.48-25.64-21.29-43.29-25.85c-36-9.32-77.45,6.02-98.15,30.25L450.98,589.76z"/>
				<path class="st4" d="M736.96,625.48c-13.08,2.11-26.59,2.6-39.87,1.43c-8.26-0.71-16.56-2.11-23.73-5.31
					c-5-2.24-9.27-5.28-13.51-8.28c-13.67-9.73-27.46-19.57-38.09-31.28c-9.03-9.94-15.69-21.45-17.09-33.4
					c-0.49,11.68,4.11,23.74,11.79,34c12.01,16.08,30.5,28.66,48.68,40.95l7.59,4.92c15.49,5.67,33.09,4.5,49.29,1.92
					c6.01-0.96,11.97-2.76,17.23-5.28c-0.79,0.08-1.56,0.21-2.31,0.32H736.96z"/>
				<path class="st4" d="M658.52,477.06c25.33-11.17,44.81-30.14,50.52-51.91c3.26-12.42,2.19-25.36-1.6-37.71
					c-10.73-35.12-42.99-65.12-82.8-84.78c-6.97-3.44-14.3-6.59-21.89-9.17c29.12,22.75,62.57,43.23,80.69,71.66
					c4.39,6.9,7.78,14.13,10.95,21.4c2.53,5.78,4.92,11.66,5.55,17.73c1.19,11.59-4.11,22.96-9.82,33.74
					C682.55,452.33,673.6,466.83,658.52,477.06L658.52,477.06z"/>
				<path class="st4" d="M721.29,269.81c-4.52,0.75-8.89,2.19-13.51,2.37c-6.01,0.23-12.98-1.45-17.64,1.2
					c-7.47,5.8-11.76,14.32-12.57,22.49c0.28,7.47,3.5,14.83,8.55,21.26c2.88,3.67,6.56,7.13,10.87,9.92
					c-7.55-10.31-10.85-22.39-9.25-34.13c0.73-5.26,2.73-10.88,8.26-14.1c6.78-3.96,16.28-3.04,24.79-3.8
					c7.21-0.65,14.15-2.65,21.4-3.07c1.4-0.08,2.79-0.08,4.21-0.05c-8.06-2.45-16.69-3.51-25.11-2.13L721.29,269.81z"/>
				<path class="st4" d="M97.57,324.89c5.02-5.26,7.94-11.48,10.65-17.65c2.27-5.13,4.41-10.86,1.54-15.82
					c-1.24-2.14-3.32-3.91-5.39-5.65c-5.93-4.94-12.29-9.82-20.27-12.6c-8.63-3-18.18-3.26-27.7-2.37
					c9.9,2.53,18.81,7.29,24.7,13.82c8.71,9.61,10.47,22.75,3.87,33.29c-5.81,9.27-18.12,16.04-31.47,17.33
					c1.44,0.62,2.9,1.2,4.39,1.72c1.96,0.68,3.99,1.28,6.14,1.48c2.27,0.23,4.56,0,6.8-0.37c10.63-1.71,20.37-6.5,26.75-13.19
					L97.57,324.89z"/>
				<path class="st1" d="M804.94,327.72c-3.24,0.29-6.42,0.91-9.46,1.92c-18.75,6.17-25.94,23.27-29.67,38.53
					c-12.09,49.43-10.23,100.81,5.41,149.65c3.77,11.76,10.75,25.19,25.96,28.34c3.36-1.32,5.63-3.36,7.76-5.55V327.7V327.72z"/>
				<path class="st4" d="M797,546.13c-20.61-15.48-27.17-38.86-29.71-60.89c-0.93-8.15-1.48-16.34-2.02-24.5
					c-1.58-23.82-3.16-47.77,0.79-71.43c3.4-20.43,11.2-40.79,25.58-58.15c-15.92,7.13-22.36,22.86-25.84,37.02
					c-12.09,49.43-10.23,100.81,5.41,149.65c3.75,11.71,10.71,25.07,25.8,28.29V546.13z"/>
				<path class="st4" d="M356.68,632.24c-5.41-4.12-12.41-6.82-19.46-9.09c-18.71-6.06-38.78-9.71-59.07-10.78
					c-12.31-0.65-25.21-0.26-36.17,4.08c-12.01,4.74-20.13,13.58-27.76,22.05c-2.15,2.39-4.29,4.77-6.44,7.16
					c3.99-3.23,7.98-6.48,11.95-9.71c3.91-3.17,7.86-6.38,12.74-8.62c11.91-5.49,26.87-4.4,40.82-4.25
					c15.09,0.15,30.66-1.01,44.85,2.86c6.44,1.75,12.33,4.5,18.49,6.76c8.77,3.23,18.06,5.5,27.42,7.62
					c-1.88-2.94-4.29-5.67-7.39-8.04L356.68,632.24z"/>
			</g>
			<path class="st1" d="M81.12,609c-9.58-6.61-22.25-10.05-34.95-11.9c-16.83-2.45-34.28-2.32-51.07,0.29
				c-0.04,0-0.1,0.02-0.14,0.03v56.56h84.5c0,0,0.06-0.05,0.1-0.07c3.67-2.91,6.91-6.12,9.58-9.68c2.11-2.78,3.85-5.72,4.76-8.85
				c2.75-9.6-3.2-19.79-12.78-26.4V609z"/>
			<path class="st1" d="M804.94,597.39c-6.62,1.04-13.12,2.48-19.44,4.27c-13.45,4.89-11.22,19.58-7.67,29.21
				c2.23,4.4,4.8,8.72,6.56,13.25c1.26,3.22,2.15,6.58,3.32,9.84h17.21v-56.59L804.94,597.39z"/>
			<path class="st1" d="M53.52,364.86c-5.45-10.94-12.98-21.68-24.91-29.07c-9.33-5.78-21.83-9.13-33.59-8.09c0,0-0.04,0-0.06,0
				v212.84c0,0,0.04-0.03,0.06-0.05c1.13-1.19,2.21-2.4,3.4-3.57c11.44-15.95,27.92-30.22,40.34-45.96
				C68.31,453.5,73.89,405.7,53.52,364.86L53.52,364.86z"/>
			<path class="st4" d="M28.62,335.81c-4.6-2.84-9.98-5.1-15.65-6.53c-0.36,0.78-0.49,1.61-0.3,2.48c0.32,1.53,1.52,2.87,2.79,4.08
				c4.41,4.12,10.35,7.24,14.42,11.56c3.71,3.93,5.63,8.64,7.47,13.27c7.25,18.19,14.11,36.6,16.42,55.52
				c2.31,18.92-0.14,38.53-10.81,55.73c-6.76,10.88-16.56,20.48-24.99,30.67c-7.43,9.01-13.91,18.85-15.71,29.31
				c11.1-13.97,25.41-26.86,36.49-40.92c29.54-37.46,35.13-85.27,14.76-126.11c-5.45-10.94-12.98-21.68-24.91-29.07L28.62,335.81z"
				/>
		</g>
		<path class="st4" d="M659.95,371.11c19.2,44.75,1.32,89.3-39.91,99.49c-41.23,10.2-90.21-17.83-109.41-62.58
			c-19.2-44.75-1.32-89.3,39.91-99.49c41.23-10.2,90.21,17.83,109.39,62.58L659.95,371.11z"/>
		<path class="st5" d="M660.9,377.49c19.2,44.75,4.09,88.61-33.74,97.95c-37.83,9.35-84.04-19.36-103.23-64.11
			c-19.2-44.75-4.09-88.61,33.74-97.97c37.83-9.35,84.04,19.36,103.23,64.11V377.49z"/>
		<path class="st4" d="M376.99,441.15c-0.59-29.23,20.76-53.18,47.69-53.49c26.93-0.31,49.23,23.12,49.83,52.35
			c0.59,29.23-20.76,53.18-47.69,53.49C399.89,493.81,377.6,470.37,376.99,441.15z"/>
		<path class="st5" d="M377.96,437.22c-0.59-29.23,18.95-53.15,43.66-53.44c24.7-0.29,45.2,23.17,45.8,52.4
			c0.59,29.23-18.95,53.15-43.64,53.44c-24.7,0.29-45.2-23.17-45.8-52.4H377.96z"/>
		<path class="st4" d="M646.63,577.19c-12.84-21.61-5.69-44.22,15.96-50.49c21.65-6.27,49.63,6.17,62.47,27.78
			c12.84,21.61,5.69,44.22-15.96,50.49C687.45,611.24,659.47,598.81,646.63,577.19L646.63,577.19z"/>
		<path class="st5" d="M645.76,574.06c-12.84-21.61-7.15-43.8,12.72-49.54c19.86-5.75,46.37,7.1,59.23,28.71
			c12.84,21.61,7.15,43.8-12.72,49.54C685.12,608.52,658.62,595.67,645.76,574.06z"/>
		<path class="st1" d="M458.37,283.24c-18.16-12.29-36.67-24.89-48.68-40.95c-12.01-16.08-16.58-36.52-5.69-53.05
			c7.05-10.68,19.68-18.63,32.99-24.99c11.99-5.73,26.97-10.56,39.97-6.25c5,1.66,9.11,4.51,12.9,7.47
			c26,20.35,40.28,47.47,53.94,73.85c4.52,8.7,9.11,18.02,6.64,27.2c-3.32,12.33-18.99,20.96-35.21,23.56
			c-16.2,2.6-33.8,3.77-49.29-1.92l-7.59-4.92H458.37z"/>
		<path class="st4" d="M530.19,285.13c-13.08,2.09-26.59,2.58-39.87,1.43c-8.26-0.71-16.58-2.11-23.73-5.31
			c-5-2.24-9.27-5.28-13.51-8.28c-13.67-9.73-27.46-19.57-38.09-31.28c-9.03-9.94-15.69-21.45-17.09-33.4
			c-0.49,11.68,4.13,23.74,11.79,34c12.01,16.08,30.5,28.66,48.68,40.95l7.59,4.92c15.49,5.67,33.09,4.5,49.29,1.92
			c6.01-0.96,11.97-2.76,17.23-5.28c-0.79,0.08-1.56,0.21-2.31,0.32H530.19z"/>
		<path class="st4" d="M439.86,236.83c-12.84-21.61-5.69-44.22,15.96-50.49c21.65-6.27,49.63,6.17,62.47,27.78
			c12.84,21.61,5.69,44.22-15.96,50.49C480.69,270.88,452.7,258.45,439.86,236.83z"/>
		<path class="st5" d="M438.99,233.7c-12.84-21.61-7.15-43.8,12.72-49.54c19.86-5.75,46.37,7.1,59.23,28.71
			c12.84,21.61,7.15,43.8-12.72,49.54C478.36,268.16,451.85,255.31,438.99,233.7z"/>
		<path class="st4" d="M281.33,546.92c-20.65-12.54-29.83-33.71-20.49-47.3c9.33-13.58,33.63-14.42,54.29-1.88
			s29.83,33.71,20.49,47.3C326.28,558.61,301.98,559.46,281.33,546.92z"/>
		<path class="st5" d="M278.92,544.71c-20.65-12.54-30.46-32.8-21.89-45.26c8.57-12.45,32.24-12.39,52.89,0.15
			c20.65,12.54,30.46,32.8,21.89,45.26C323.25,557.32,299.57,557.25,278.92,544.71z"/>
		<path class="st4" d="M168.99,516.44c31.27,21.05,45.68,57.18,32.2,80.67c-13.49,23.5-49.75,25.49-81.02,4.43
			c-31.27-21.05-45.68-57.18-32.2-80.67C101.45,497.38,137.72,495.38,168.99,516.44z"/>
		<path class="st5" d="M172.63,520.18c31.27,21.05,46.57,55.6,34.2,77.15c-12.37,21.56-47.73,21.97-78.99,0.93
			s-46.57-55.6-34.2-77.15C106.01,499.54,141.37,499.13,172.63,520.18z"/>
		<path class="st4" d="M68.16,283.45c14.3,8.82,20.9,23.95,14.74,33.81c-6.18,9.84-22.76,10.68-37.08,1.85
			c-14.3-8.82-20.9-23.95-14.74-33.81c6.18-9.84,22.76-10.68,37.08-1.87V283.45z"/>
		<path class="st5" d="M69.82,285.01c14.3,8.82,21.32,23.3,15.65,32.33c-5.65,9.03-21.85,9.21-36.15,0.39s-21.32-23.3-15.65-32.33
			C39.33,276.37,55.53,276.19,69.82,285.01z"/>
		<path class="st4" d="M498.63,583.46c-35.36,12.2-51.98,42.32-41.01,70.52h154c3.58-12.75,1.76-26.65-6.46-39.62
			C585.72,583.7,538.01,569.87,498.63,583.46z"/>
		<path class="st5" d="M491.68,580.88c-34.2,11.79-48.15,43.73-33.07,73.11h141.22c3.16-12.75,0.93-26.86-7.51-40.17
			C572.88,583.15,527.83,568.41,491.68,580.88L491.68,580.88z"/>
		<path class="st4" d="M3.85,479.6c23.65-32.48,33.65-70.57,28.19-107.47c-0.81-5.44-2.17-11.22-7.13-15.22
			c11.04,40.24-23.29,79.91-23.59,121.01l2.51,1.67H3.85z"/>
		<path class="st4" d="M233.12,339.17c5.91,19.88,15.43,39.12,28.17,57.05c4.07,5.72,8.79,11.55,16.24,14.71
			c12.37,5.26,28.92,1.17,38.17-6.98c9.25-8.15,12.51-19.29,13.43-30.03c0.97-11.5-0.38-23.11-4.03-34.3
			c1.92,20.2-3.67,40.79-15.94,58.77c-2.73,3.99-6.24,8.17-11.87,9.6c-6.28,1.59-13.32-0.89-17.7-4.68
			c-4.37-3.77-6.66-8.64-9.09-13.32c-9.11-17.65-21.1-34.44-35.62-49.85l-1.8-0.97H233.12z"/>
		<path class="st4" d="M148.78,429.53c-17.15-14.48-30.84-32.41-32.1-51.87c-1.24-19.45,12.55-40.26,36.63-47.01
			c-10.59,5.05-21.38,10.96-26.22,19.73c-2.33,4.21-3.1,8.82-3.34,13.36c-0.77,14.76,4.01,29.65,13.61,42.5
			c4.74,6.33,10.79,12.55,11.38,19.83v3.48L148.78,429.53z"/>
		<path class="st1" d="M144.04,249.86c4.19-19.91,12.17-36.78,31-48.37c18.83-11.59,45.01-15.93,68.5-11.35
			c7.35,1.43,14.66,3.8,19.82,8.04c9.4,7.73,9.4,20.14,3.26,29.57c-6.14,9.43-17.19,16.43-28.49,22.51
			c-11.3,6.07-23.31,11.64-32.66,19.39c-5.89,4.87-11.22,10.86-19.58,12.73c-6.52,1.46-13.57,0.05-19.84-1.95
			c-7.59-2.4-14.92-5.8-19.68-10.9c-4.76-5.1-6.48-12.16-2.67-17.7l0.36-1.96H144.04z"/>
		<path class="st4" d="M238.14,250.25c11.3-6.07,22.36-13.07,28.49-22.51c3.89-6.01,5.31-13.2,3.4-19.65
			c-1.48,8.18-8.24,15.72-16.46,21.37c-9.74,6.71-21.53,11.43-32.22,17.26c-11.66,6.37-22.13,14.11-34.91,19.11
			c-12.78,5-29.04,6.79-41.13,0.88l-0.95,0.24c0.59,0.89,1.24,1.75,1.98,2.57c4.76,5.1,12.09,8.49,19.68,10.9
			c6.28,2,13.32,3.41,19.84,1.95c8.36-1.87,13.69-7.84,19.58-12.73c9.36-7.75,21.36-13.32,32.66-19.39H238.14z"/>
		<path class="st4" d="M167.02,247.71c4.8-14.81,14.03-29.42,30.07-38.62s39.83-11.56,56.19-2.71c-8.97-2.99-18.77-5.68-28.37-4.19
			c-4.6,0.71-8.87,2.35-12.86,4.25c-12.92,6.12-23.51,15.04-30.21,25.41c-3.3,5.12-5.95,10.83-11.89,14.32l-2.94,1.54L167.02,247.71
			z"/>
	</g>
	<path class="st2" d="M485.83,517.9c0,6.59-9.36,11.94-20.9,11.94s-20.9-5.34-20.9-11.94c0-6.59,9.36-11.92,20.9-11.92
		S485.83,511.33,485.83,517.9z"/>
	<path class="st2" d="M539.96,528.95c0,1.64-3.69,2.96-8.24,2.96c-4.56,0-8.24-1.32-8.24-2.96c0-1.64,3.69-2.96,8.24-2.96
		C536.27,525.99,539.96,527.31,539.96,528.95z"/>
	<path class="st2" d="M502.94,497.35c0,2.06-3.83,3.73-8.57,3.73c-4.74,0-8.57-1.67-8.57-3.73s3.83-3.73,8.57-3.73
		C499.11,493.61,502.94,495.28,502.94,497.35z"/>
	<path class="st2" d="M339.24,463.55c0,4.87-8.22,8.82-18.37,8.82c-10.14,0-18.37-3.95-18.37-8.82c0-4.87,8.22-8.82,18.37-8.82
		C331.02,454.74,339.24,458.68,339.24,463.55z"/>
	<ellipse class="st2" cx="407.32" cy="363.22" rx="14.26" ry="6.28"/>
	<path class="st2" d="M452.56,330.74c0,2.03-4.54,3.69-10.12,3.69c-5.59,0-10.12-1.64-10.12-3.69c0-2.05,4.54-3.69,10.12-3.69
		C448.02,327.05,452.56,328.69,452.56,330.74z"/>
	<path class="st2" d="M59.58,537.54c0,4.74-6.56,8.59-14.64,8.59s-14.64-3.85-14.64-8.59c0-4.74,6.56-8.59,14.64-8.59
		S59.58,532.8,59.58,537.54z"/>
	<path class="st2" d="M28.78,573.08c0,1.85-3.64,3.36-8.12,3.36s-8.12-1.51-8.12-3.36c0-1.85,3.64-3.36,8.12-3.36
		S28.78,571.23,28.78,573.08z"/>
	<path class="st2" d="M152.36,642.42c0,4.14-7.78,7.49-17.39,7.49s-17.39-3.35-17.39-7.49s7.78-7.49,17.39-7.49
		S152.36,638.3,152.36,642.42z"/>
	<path class="st2" d="M279.41,589.08c0,3.46-5.71,6.25-12.74,6.25c-7.03,0-12.74-2.79-12.74-6.25s5.69-6.25,12.74-6.25
		C273.72,582.83,279.41,585.62,279.41,589.08z"/>
	<path class="st2" d="M85.21,353.99c0,1.62-5.73,2.94-12.82,2.94c-7.09,0-12.82-1.32-12.82-2.94s5.73-2.94,12.82-2.94
		C79.48,351.05,85.21,352.37,85.21,353.99z"/>
	<path class="st2" d="M166.09,299.95c0,3.57-6.4,6.48-14.3,6.48s-14.3-2.91-14.3-6.48c0-3.57,6.4-6.48,14.3-6.48
		S166.09,296.38,166.09,299.95z"/>
	<path class="st2" d="M724.57,475.15c0,4.47-6.26,8.09-13.95,8.09s-13.97-3.62-13.97-8.09s6.26-8.09,13.97-8.09
		S724.57,470.68,724.57,475.15z"/>
	<ellipse class="st2" cx="730.91" cy="363.22" rx="15.47" ry="6.28"/>
	<path class="st2" d="M648.67,290.53c0,4.19-4.76,7.58-10.61,7.58s-10.61-3.39-10.61-7.58s4.76-7.58,10.61-7.58
		S648.67,286.34,648.67,290.53z"/>
	<path class="st2" d="M790.04,303.91c0,1.4-1.92,2.53-4.29,2.53c-2.37,0-4.29-1.14-4.29-2.53s1.92-2.53,4.29-2.53
		C788.11,301.38,790.04,302.52,790.04,303.91z"/>
	<path class="st2" d="M781.43,559.99c0,3.22-6.44,5.83-14.4,5.83s-14.4-2.61-14.4-5.83c0-3.22,6.44-5.83,14.4-5.83
		S781.43,556.78,781.43,559.99z"/>
	<ellipse class="st1" cx="550.46" cy="530.91" rx="34.85" ry="17.73"/>
	<path class="st1" d="M752.63,436.5c0,10.07-8.32,18.24-18.61,18.24s-18.59-8.17-18.59-18.24s8.32-18.24,18.59-18.24
		S752.63,426.43,752.63,436.5z"/>
	<path class="st1" d="M211.12,489.47c0,6.85-7.43,12.41-16.58,12.41c-9.15,0-16.58-5.55-16.58-12.41s7.43-12.41,16.58-12.41
		C203.69,477.06,211.12,482.62,211.12,489.47z"/>
	<path class="st1" d="M470.76,357.78c0,8.09-10.08,14.65-22.52,14.65s-22.52-6.56-22.52-14.65c0-8.09,10.08-14.65,22.52-14.65
		S470.76,349.69,470.76,357.78z"/>
	<rect x="-5.04" y="173.75" class="st6" width="809.98" height="47.3"/>
	<path class="st7" d="M-5.04,38.97c0,0,246.82-40.04,316.78-17.28c0,0,19.66,5.05,23.17,17.28c0,0,9.25-7.84,32.46-12.15
		c23.23-4.3,205.47-26.23,220.39,12.15c0,0,114-49.33,217.15,0V199.6c0,0-146.71,35.42-224.44-19.39c0,0-1.11,18.54-10,20.23
		s-213.73,13.49-231.25-3.38l-17.52-16.87c0,0,1.11,24.46-10,24.46s-284.36,13.23-294.33,6.2c-9.96-7.03-22.46-9.56-22.46-9.56
		V38.97H-5.04z"/>
	<path class="st8" d="M39.17,45.67c23.96-2.11,47.89-4.12,71.95-5.67c53.62-3.43,107.16-8.38,161.08-7.11
		c12.35,0.29,24.58,0.57,36.49,3.39c8.77,2.08,15.94,5.41,24.08,8.49c11.72,4.45,25.31,1.04,37.44-0.91
		c10.33-1.66,20.61-3.48,31-4.89c24.18-3.3,48.82-3.62,73.34-3.31c24,0.31,48.05,1.45,71.8,4.16c12.19,1.4,24.26,3.88,36.47,5.02
		c11.2,1.04,22.52,0.94,33.74,0.05c23.1-1.83,45.68-5.99,68.67-8.43c22.56-2.39,45.52-2.47,68.12-0.18
		c12.76,1.3,25.9,2.74,38.33,5.26c5.14,1.04,9.07,3.8,13.28,6.15v-8.74c-103.15-49.33-217.15,0-217.15,0
		C572.88,0.59,390.62,22.53,367.41,26.82c-23.23,4.3-32.46,12.15-32.46,12.15c-3.48-12.23-23.17-17.28-23.17-17.28
		C241.82-1.08-5,38.97-5,38.97v10.3H7.84c10.25-2.16,21.59-2.71,31.37-3.57L39.17,45.67z"/>
	<path class="st9" d="M769.91,120.81c-20.51,4.87-41.98,5.63-63.18,4.03c-23.71-1.8-47-5.96-70.18-10.3
		c-12.96-2.42-25.98-5.6-39.41-4.86c-13.89,0.78-27.15,3.9-40.46,7.05c-22.66,5.36-45.22,8.09-68.73,9.48
		c-24.24,1.45-48.84,1.61-72.86-1.88c-22.13-3.23-43.17-9.79-65.16-13.32c-11.58-1.85-23.47-2.81-35.23-1.54
		c-12.33,1.33-24.24,4.6-36.23,7.21c-47.36,10.34-95.05,16.12-144.22,15.2c-22.92-0.42-46.01-2.13-68.26-6.85
		c-22.92-4.87-45.28-11.48-68.54-15.25c-1.11-0.18-1.42-1.1-1.07-1.88c0.36-0.8,0.77-1.38,1.62-1.69h-3.02v94.15
		c0,0,12.51,2.73,22.46,10.3c9.96,7.58,283.21-6.67,294.33-6.67s10-26.32,10-26.32l17.52,18.15c17.52,18.15,222.36,5.44,231.25,3.64
		c8.89-1.82,10-21.78,10-21.78c77.74,58.99,224.44,20.87,224.44,20.87v-91.96c-10.61,6.22-22.29,11.17-35.03,14.19L769.91,120.81z"
		/>
	<path class="st10" d="M769.91,127.34c-20.51,4.53-41.98,5.25-63.18,3.73c-23.71-1.67-47-5.54-70.18-9.56
		c-12.96-2.24-25.98-5.21-39.41-4.51c-13.89,0.73-27.15,3.62-40.46,6.54c-22.66,4.99-45.22,7.5-68.73,8.82
		c-24.24,1.35-48.84,1.49-72.86-1.75c-22.13-2.99-43.17-9.11-65.16-12.37c-11.58-1.72-23.47-2.61-35.23-1.43
		c-12.33,1.23-24.24,4.27-36.23,6.71c-47.36,9.61-95.05,14.99-144.22,14.13c-22.92-0.41-46.01-1.98-68.26-6.37
		c-22.92-4.51-45.28-10.67-68.54-14.16c-1.11-0.16-1.42-1.04-1.07-1.74c0.36-0.73,0.77-1.28,1.62-1.58h-3.02v87.49
		c0,0,12.51,2.53,22.46,9.56c9.96,7.05,283.21-6.19,294.33-6.19s10-24.46,10-24.46l17.52,16.87c17.52,16.87,222.36,5.07,231.25,3.38
		s10-20.23,10-20.23c77.74,54.81,224.44,19.39,224.44,19.39v-85.45c-10.61,5.78-22.29,10.38-35.03,13.19L769.91,127.34z"/>
	<g>
		<path class="st11" d="M452.03,154.15c-43.03,2.83-83.06,18.27-115.73,40.06c0.93,0.89,1.9,1.83,2.96,2.84
			c17.52,16.87,222.36,5.07,231.25,3.38c3.67-0.7,5.99-4.29,7.49-8.23C548.5,165.06,498.87,151.08,452.03,154.15z"/>
		<path class="st11" d="M12.34,207.73c1.72,0.93,3.44,1.95,5.08,3.12c8.91,6.3,228.96-3.65,282.82-5.8
			c-35.23-27.8-87.25-42.56-138.32-41.81c-54.57,0.8-107.42,18.12-149.6,44.49H12.34z"/>
		<path class="st11" d="M786.73,197.55c-4.29-9.27-15.61-15.52-26.87-20.38c-28.92-12.45-62.89-19.68-95.64-15.36
			c-25.13,3.31-49.02,14.37-62.89,30.3c62.45,28.89,150.68,17.42,186.98,10.85c-0.26-1.83-0.77-3.65-1.6-5.41L786.73,197.55z"/>
	</g>
	<path class="st12" d="M773.03,192.35c-10.08,4.92-167.16-6.14-169.18-7.99c-2.02-1.85-21.38-107.86-21.38-107.86l1.44,76.3
		l-0.67,29.25c63.58,42.29,169.89,27.51,207.78,20.41l10.33-34.08l2.61-69.74l-10.75,57.14
		C793.19,155.79,783.13,187.43,773.03,192.35L773.03,192.35z"/>
	<path class="st12" d="M580.49,59.93c0,0-5.33,115.13-10.12,125.73c-4.82,10.6-210.35,20.1-225.27,0
		c-14.92-20.1-11.81-135.3-11.81-135.3l-12.74,41.96l2.41,38.14l4.15,54.9c2.59,2.5,6.42,6.19,12.15,11.71
		c17.52,16.87,222.36,5.07,231.25,3.38c8.89-1.69,10-20.23,10-20.23c1.48,1.04,3,2.05,4.52,3.02l-4.52-123.3L580.49,59.93z"/>
	<path class="st12" d="M316.75,92.33c0,0,5,87.87-14.24,97.12c-19.24,9.24-307.55,11.84-307.55,11.84l0,0c0,0,12.51,2.53,22.46,9.56
		c9.96,7.05,283.21-6.19,294.33-6.19s10-24.46,10-24.46s0,0,3.3,3.17C325.05,183.37,316.75,92.33,316.75,92.33z"/>
	<path class="st6" d="M321.77,182.77c4.74,4.06,8.2,6.07,13.12,9.97l-9.07-90.27l9.07-63.51l-18.16,53.38l4.94,86.97
		c0.24,0.05-0.14,3.28,0.08,3.46H321.77z"/>
	<polygon class="st6" points="580.49,180.21 580.49,113.79 580.49,57.56 587.78,127.58 592.42,194.48 	"/>
	<polygon class="st6" points="781.43,212.91 797,163.35 804.94,89.4 804.94,216.21 	"/>
	<polygon class="st13" points="130.51,21.44 72.62,73.89 89.91,134.95 101.58,78.2 177.96,17.34 	"/>
	<polygon class="st13" points="464.93,95.69 509.07,120.01 494.39,158.58 531.71,203.07 545.91,201.33 509.07,156.89 515.62,113.79 
			"/>
	<polygon class="st13" points="685.83,38.97 656.86,65.52 677.57,104.91 677.57,65.52 	"/>
	<polygon class="st14" points="130.51,21.44 72.62,73.89 89.91,134.95 59.58,71.93 116.6,22.87 	"/>
	<polygon class="st14" points="464.93,95.69 515.62,113.79 509.07,156.89 545.91,201.33 560.67,201.33 519.4,152.81 523.49,109.12 	
		"/>
	<polygon class="st14" points="685.83,38.97 648.67,62.15 677.57,104.91 656.86,65.52 	"/>
	<path class="st6" d="M2.25,217.78c0,0,27.78,12.7,64.17,17.86c36.39,5.16,248.85,11.12,263.75-19.44L2.25,217.78L2.25,217.78z"/>
	<path class="st6" d="M584.44,218.21c0,0-56.37,11.9-90.05,9.82c-33.65-2.06-162.6-1.35-164.95-22L584.44,218.21z"/>
	<path class="st15" d="M421.56,63.1c0,4.89-11.1,8.85-24.79,8.85s-24.79-3.96-24.79-8.85s11.1-8.85,24.79-8.85
		S421.56,58.21,421.56,63.1z"/>
	<path class="st15" d="M502.94,49.26c0,2.76-5.35,4.99-11.95,4.99c-6.6,0-11.95-2.24-11.95-4.99c0-2.74,5.35-4.99,11.95-4.99
		C497.59,44.28,502.94,46.52,502.94,49.26z"/>
	<path class="st15" d="M393.09,111.93c0,2.16-6.84,3.93-15.27,3.93c-8.42,0-15.27-1.75-15.27-3.93s6.84-3.93,15.27-3.93
		C386.24,108,393.09,109.75,393.09,111.93z"/>
	<path class="st15" d="M211.12,87.65c0,6.15-10.08,11.14-22.52,11.14c-12.43,0-22.52-4.99-22.52-11.14s10.08-11.14,22.52-11.14
		C201.04,76.51,211.12,81.49,211.12,87.65z"/>
	<path class="st15" d="M253.28,42.93c0,3.51-7.63,6.33-17.07,6.33c-9.44,0-17.07-2.84-17.07-6.33s7.63-6.33,17.07-6.33
		C245.65,36.59,253.28,39.44,253.28,42.93z"/>
	<path class="st15" d="M54.78,100.3c0,2.55-7.03,4.61-15.69,4.61s-15.69-2.06-15.69-4.61c0-2.55,7.03-4.61,15.69-4.61
		S54.78,97.75,54.78,100.3z"/>
	<path class="st15" d="M627.45,86.95c0,4.84-7.84,8.75-17.52,8.75c-9.68,0-17.52-3.91-17.52-8.75s7.84-8.75,17.52-8.75
		C619.62,78.2,627.45,82.11,627.45,86.95z"/>
	<path class="st15" d="M757.94,79.43c0,4.14-7.31,7.5-16.32,7.5c-9.01,0-16.32-3.36-16.32-7.5s7.31-7.5,16.32-7.5
		C750.63,71.93,757.94,75.29,757.94,79.43z"/>
	<path class="st8" d="M479.07,75.68c0,2.08-6.9,3.75-15.41,3.75s-15.41-1.67-15.41-3.75s6.9-3.75,15.41-3.75
		S479.07,73.6,479.07,75.68z"/>
	<path class="st8" d="M270.88,103.4c0,2.55-7.41,4.61-16.56,4.61c-9.15,0-16.56-2.06-16.56-4.61s7.41-4.61,16.56-4.61
		C263.47,98.79,270.88,100.85,270.88,103.4z"/>
	<path class="st8" d="M130.51,117.01c0,4.99-5.97,9.01-13.36,9.01s-13.36-4.03-13.36-9.01s5.97-9.01,13.36-9.01
		S130.51,112.02,130.51,117.01z"/>
	<path class="st8" d="M23.39,110.9c0,1.61-3.08,2.89-6.88,2.89s-6.88-1.3-6.88-2.89s3.08-2.89,6.88-2.89S23.39,109.31,23.39,110.9z"
		/>
	<path class="st8" d="M734.05,112.51c0,2.48-4.94,4.5-11.04,4.5s-11.04-2.01-11.04-4.5c0-2.48,4.94-4.5,11.04-4.5
		S734.05,110.03,734.05,112.51z"/>
	<path class="st8" d="M791.66,36.76c0,2.65-5.55,4.79-12.39,4.79c-6.84,0-12.39-2.14-12.39-4.79s5.55-4.79,12.39-4.79
		C786.11,31.97,791.66,34.11,791.66,36.76z"/>
	<path class="st16" d="M231.98,603.24c7.19-12.44,7.19-26.66,2.51-39.87c-5.12,11.5-13.26,22.2-24.68,30.63
		c-15.09,11.12-36.19,17.93-57.12,16.55c-19.76-1.28-37.85-9.58-51.72-20.35c-9.66-7.52-17.52-16.21-24.6-25.25
		c5.43,11.89,13.61,23.04,24.14,32.77l0.99,1.27c14.13,14.03,31.59,27.38,54.05,32.02c29.71,6.14,64.11-6.35,76.48-27.77H231.98z"/>
	<path class="st16" d="M705.03,435.75c-22.54,19.57-52.49,35.01-86.26,38.83c-35.4,3.99-74.68-6.85-93.15-30.11
		c-7.94-9.99-11.72-21.5-16.06-32.7c-7.27-18.79-16.38-37.17-27.17-54.97c1.7,4.81,3.71,9.58,5.26,14.16
		c8.79,25.88,17.56,51.77,26.34,77.67c2.41,7.13,5,14.52,11.2,20.18c5.02,4.6,12.05,7.68,19.2,10.21
		c31.16,11.04,68.32,12.94,100.25,3.23c27.42-8.35,50.22-25.58,60.4-46.49L705.03,435.75z"/>
	<path class="st16" d="M486.66,452.32c0.24-2.53,0.26-5.08,0.2-7.62c-10.25,13.25-21.55,26.66-38.96,34.31
		c-16.26,7.16-36.91,8.28-54.35,2.96c-17.45-5.33-31.33-16.97-36.57-30.67c-0.16-0.44-0.3-0.89-0.45-1.33
		c1.05,13.49,5.24,26.42,16.14,36.91c10.81,10.43,27.68,17.1,45.12,17.88c17.45,0.78,35.21-4.34,47.59-13.72
		c13.32-10.1,19.97-24.47,21.28-38.73V452.32z"/>
	<path class="st16" d="M210.52,439.33c3.4-8.05-1.07-16.61-3.62-24.84c-0.45-1.45-0.81-2.89-1.13-4.34
		c-3.12,4.38-6.91,8.54-11,12.41c-7.88,7.44-17.5,14.42-29.65,16.89c-11.66,2.37-24.4,0.16-34.77-4.55
		c-10.37-4.71-18.63-11.71-25.55-19.21c-4.74-5.13-8.93-10.57-12.55-16.21c5.73,19.03,21.79,34.86,42.99,50.05l2.47,1.69
		c4.98,7.03,16.04,10.73,26.55,10.57c10.51-0.15,20.49-3.59,29.3-7.96c7.29-3.6,14.32-8.23,16.97-14.52L210.52,439.33z"/>
	<path class="st16" d="M334.52,432.18c7.25-7.86,13.12-16.73,14.58-26.24c0.73-4.69,0.34-9.4-0.38-14.1
		c-2.98,7.44-7.63,14.4-14.56,20.09c-11.58,9.55-30.11,14.83-46.41,10.9c-8.57-2.06-15.86-6.38-22.54-10.94
		c-13.95-9.53-26.18-20.51-36.27-32.51c0.1,0.21,0.2,0.41,0.28,0.62c8.28,18.58,15.65,37.88,31.16,53.57
		c9.58,9.68,23.93,18.15,39.79,17.12c14.44-0.94,26-9.45,34.32-18.48L334.52,432.18z"/>
	<path class="st16" d="M757.25,606.88c2.21-8.22-1.26-16.56-5.24-24.47c-3.56,6.22-8.2,12.05-14.28,17
		c-10.65,8.67-26.02,14.45-41.61,13.64c-15.05-0.78-28.41-7.32-40.46-14.19c-17.19-9.79-33.23-20.7-48.07-32.49
		c2.07,5.68,5.1,11.2,8.89,16.29c12.01,16.08,30.5,28.66,48.68,40.95l7.59,4.92c15.49,5.67,33.09,4.5,49.29,1.92
		C738.24,627.84,753.93,619.2,757.25,606.88L757.25,606.88z"/>
	<path class="st16" d="M333.35,562.2c16-11.38,30.72-25.27,33.53-41.78c0.65-3.77,0.38-7.65-0.57-11.43
		c-6.05,6.64-10.55,14.11-15.39,21.34c-5.95,8.88-12.84,17.75-23.33,23.74s-25.35,8.51-36.91,3.78c-4.7-1.92-8.53-4.86-12.27-7.75
		c-13.38-10.34-26.77-20.69-40.15-31.03c3.1,4.53,5.95,9.17,8.83,13.77c7.07,11.27,14.98,22.67,27.62,30.64
		c12.66,7.97,31.22,11.74,45.87,6.06c4.78-1.85,8.85-4.58,12.78-7.36V562.2z"/>
	<path class="st16" d="M409.2,598.06c-7.31,4.12-16.93,7.29-25.37,4.73c-5.83-1.79-9.88-6.04-11.87-10.57s-2.19-9.39-2.39-14.16
		c-0.2-5.16-0.4-10.34-0.63-15.51c-0.1-2.65-0.28-5.42-1.38-7.91c-0.3,0.54-0.59,1.09-0.87,1.62c-6.64,13.06-8.77,27.15-10.83,41.07
		l1.62,2.61c1.21,7.37,8.95,13.62,18.24,15.96c9.29,2.34,19.74,1.12,28.43-2.31c11.32-4.47,19.8-12.37,25.45-21.06
		c4.98-7.68,7.94-16.01,10.39-24.39c-7.78,11.5-17.31,22.26-30.82,29.91H409.2z"/>
	<path class="st16" d="M714.83,320.67c-5.16,0.93-10.71,1.28-15.69-0.1c-3.77-1.04-6.97-2.97-9.84-5.08
		c-3.4-2.48-6.44-5.25-9.07-8.22c1.46,3.44,3.44,6.76,5.89,9.86c6.66,8.49,17.68,15.95,30.68,16.24
		c12.37,0.28,23.25-5.81,32.76-11.82c7.51-4.73,15.07-9.76,19.62-16.3c4.13-5.93,5.33-13.43,1.44-19.34
		c-14.72,15.35-31.81,30.48-55.79,34.75L714.83,320.67z"/>
	<path class="st16" d="M393.43,354.98c10.85-1.77,20.01-7.66,26-14.74c3.48-4.11,5.99-8.62,7.96-13.28
		c-9.96,5.96-22.05,9.87-34.63,11.03c-4.31,0.39-8.79,0.47-12.88-0.62c-10.29-2.74-15.03-11.72-16.81-19.89
		c-1.11-5.1-1.5-10.3-1.28-15.46c-2,3.15-3.62,6.43-4.8,9.81l-0.4,0.7c-3.44,8.67-5.51,18.19-1.32,26.68
		c5.57,11.22,22.72,18.33,38.17,15.82L393.43,354.98z"/>
	<path class="st16" d="M242.59,247.78c-19.66,5.1-38.25,12.62-58.46,16.29c-10.83,1.96-23.67,2.39-31.57-3.57
		c-3.91-2.94-5.93-7-7.84-10.91c-0.14-0.29-0.28-0.57-0.43-0.86c-0.08,0.37-0.18,0.75-0.26,1.14l-0.36,1.96
		c-3.79,5.55-2.09,12.6,2.67,17.7c4.76,5.1,12.09,8.49,19.68,10.9c6.28,2,13.32,3.41,19.84,1.95c8.36-1.87,13.69-7.86,19.58-12.73
		c9.36-7.75,21.36-13.32,32.66-19.39c1.5-0.81,2.98-1.62,4.45-2.47H242.59z"/>
	<path class="st16" d="M673.54,236.98c-14.54,1.22-28.45,5.2-41.75,9.82c-12.68,4.42-27.36,9.5-39.89,4.82
		c-7.59-2.83-12.03-8.49-14.94-14.7c-0.71,7.29,0.51,14.83,2.79,21.92c1.46,4.53,3.6,9.32,8.63,12c5.43,2.89,12.76,2.52,19.16,1.28
		c18.97-3.67,34.81-13.71,53.44-18.25c19.6-4.79,42.5-3.65,58.56-13.43c3.14-1.92,5.81-4.17,8.04-6.67
		c-16.77,4.25-36.06,1.67-54.05,3.2L673.54,236.98z"/>
</g>
</svg>
