<?xml version="1.0" encoding="utf-8"?>
<!-- Generator: Adobe Illustrator 28.5.0, SVG Export Plug-In . SVG Version: 9.03 Build 54727)  -->
<svg version="1.0" id="Layer_1" xmlns="http://www.w3.org/2000/svg" xmlns:xlink="http://www.w3.org/1999/xlink" x="0px" y="0px"
	 viewBox="0 0 800 400" style="enable-background:new 0 0 800 400;" xml:space="preserve">
<style type="text/css">
	.st0{fill:#73486E;}
	.st1{fill:#573653;}
	.st2{fill:#F48E18;}
	.st3{fill:#F46111;}
	.st4{fill:#F46518;}
	.st5{fill:#F2FF47;}
	.st6{fill:#FFCD2C;}
	.st7{fill:#FFDB2C;}
	.st8{fill:#FFBB14;}
	.st9{fill:#81517C;}
	.st10{fill:#955E8F;}
</style>
<g>
	<g>
		<g>
			<g>
				<rect x="-4" y="11" class="st0" width="808.98" height="643"/>
				<path class="st1" d="M-4,31.35v79.18v248.84c0.22,0.27,0.43,0.53,0.65,0.8c13.58-23.53,26.16-47.41,37.73-71.62
					c9.89-20.68,20.43-41.29,24.13-63.23c0.51-3.03,1.93-6.68,1.74-9.55h69.2c-13.45,39.13-3.77,83.02,26.08,115.97
					c42.33-26.88,94.51-45.02,129.12-78.15c10.68-10.23,17.95-17.36,20.83-25.87c9.5,27.86,29.04,53.24,51.75,75.91
					c31.96,31.9,70.7,59.51,114.08,81.28c21.16-33.21,38.42-68,51.47-103.75c7.78-21.29,17.93-42.13,22.96-65.41h4.11
					c8.29,9.55,18.89,19.23,27.86,27.31c18.76,16.93,44.82,28.64,72.75,32.67c8.13-16.91,11.45-39.51,14.49-57.46
					c0.16-0.98,0.3-1.79,0.39-2.54h68.29c-0.85,11.41,3.89,21.52,7.27,34.17c10.66,39.9,36.01,75.98,64.07,110.13v-249.8v-78.9H-4z"
					/>
				<path class="st2" d="M805,89.9V11H-4v79.18l0,0v248.84c0.22,0.27,0.43,0.53,0.65,0.8c13.58-23.53,26.16-47.42,37.73-71.62
					c9.89-20.68,19.13-42.02,19.88-64.14c0.1-2.89,0.02-5.77-0.16-8.62h248c0.16,0.76,0.3,1.53,0.51,2.29
					c7.92,31.69,29.34,60.32,54.65,85.59c31.96,31.9,70.7,59.51,114.08,81.28c21.16-33.21,38.42-68,51.47-103.75
					c7.78-21.29,14.06-43.36,14.85-65.41h201.82c-0.85,11.41-0.61,22.82,1.44,34.17c7.25,40.38,36.01,75.98,64.07,110.15L805,89.9
					L805,89.9z"/>
				<path class="st3" d="M726.07,179.25c-12.83,6.85-30.01,3.33-44.72-0.45c-2.39-0.61-4.84-1.26-6.79-2.54
					c-3.04-2.01-4.3-5.21-5.49-8.19c-8.73-21.77-22.41-42.3-40.18-60.26l9.24,87.63h101.38c-0.85,11.41-0.61,22.82,1.44,34.17
					c0.47,2.64,1.05,5.26,1.7,7.86c1.48-0.4,2.96-0.8,4.42-1.19c6.14-1.66,12.62-3.52,16.58-7.61c4.78-4.97,4.5-11.84,4.21-18.11
					c-0.53-11.82-0.24-23.68,0.89-35.48c0.89-9.19,2.86-19.27,11.67-25.27c-14.51,4.58-29.48,9.39-40.39,18.27
					C735.39,171.86,731.57,176.32,726.07,179.25z"/>
				<path class="st3" d="M164.23,159.19c-5.43,4.36-10.96,8.79-17.67,11.82c-11.33,5.12-24.9,5.82-37.95,5.85
					c-24.21,0.08-48.43-1.66-72.24-5.19c4.24,47.54-4.21,95.78-24.66,140.58l0.24,0.02c7.84-14.58,15.34-29.25,22.43-44.06
					c9.89-20.68,19.13-42.02,19.88-64.14c0.1-2.89,0.02-5.77-0.16-8.62h139.57c-1.16-22.39,1.64-44.89,8.37-66.64
					C189.44,138.93,176.83,149.06,164.23,159.19z"/>
				<path class="st4" d="M407.61,88.07l-7.11-1.59c-56.58,17.61-97.18,61.42-107.94,108.96h9.54c0.16,0.76,0.3,1.53,0.51,2.29
					c7.92,31.69,29.34,60.32,54.65,85.59c29.58,29.53,65.03,55.32,104.52,76.26C430.39,271.18,412.11,179.85,407.61,88.07z"/>
				<path class="st3" d="M530.81,129.08c-16.66,35.67-17.89,74.48-22.84,112.31c-4.94,37.84-14.79,77.14-44.96,106.67
					c-65.17-24.46-116.88-70.65-139.86-124.94c-1.99-4.71-3.81-9.62-3.3-14.56c0.75-7.38,6.44-13.75,10.7-20.31
					c11.71-18.06,12.4-41.65-3.42-57.6l-20.73,33.89c-9,8.72-14.1,19.7-15.26,30.92h10.94c0.16,0.76,0.3,1.53,0.51,2.29
					c7.92,31.69,29.34,60.32,54.65,85.59c31.96,31.9,70.7,59.51,114.08,81.28c21.16-33.21,38.42-68,51.47-103.75
					c7.78-21.29,14.06-43.36,14.85-65.41h41.09C565.99,172.47,539.28,153.72,530.81,129.08z"/>
				<path class="st5" d="M805,21.16H-4V59.3c90.52-18.74,189.52,20.88,283.02,7.64c16.33-2.32,32.48-6.25,49.08-6.23
					c14.61,0.02,28.9,3.1,43.22,5.37c38.8,6.15,79.07,6.42,117.99,0.76c27.54-4.01,54.45-10.94,82.35-12.78
					c29.42-1.94,58.89,1.82,88.19,4.54c41.07,3.8,91.04,15.92,129.59,4.03c6.38-1.97,11.39-3.02,15.56-3.68L805,21.16L805,21.16z"/>
				<path class="st6" d="M805,11H-4v38.14c90.52-18.74,189.52,20.88,283.02,7.64c16.33-2.3,32.48-6.25,49.08-6.22
					c14.61,0.02,28.9,3.1,43.22,5.37c38.8,6.17,79.07,6.42,117.99,0.76c27.54-4.01,54.45-10.94,82.35-12.78
					c29.42-1.96,58.89,1.82,88.19,4.54c41.07,3.8,91.04,15.92,129.59,4.03c6.38-1.97,11.39-3.02,15.56-3.68L805,11L805,11z"/>
				<path class="st7" d="M152.17,316.02c55.16-24.64,103.69-58.58,141.48-98.91c17.71-18.92,33.52-40.24,35.7-63.76
					c2.19-23.53-12.85-49.41-40.83-57.26c-24.58-6.88-52.2,1.49-72.66,14.31c-33.35,20.86-53.68,52.73-63.14,85.61
					c-9.46,32.88-9,67.01-7.07,100.7L152.17,316.02z"/>
				<path class="st7" d="M639.87,267.53c12.36-39.35,14.18-80.77,5.33-120.71c-4.15-18.74-11.14-37.91-27.29-51.93
					c-16.15-14.04-43.57-21.37-64.86-12.67c-18.68,7.64-27.8,25.17-29.67,41.8c-3.06,27.09,9.22,54.21,28.25,76.82
					c19.01,22.62,44.46,41.3,70.4,59.05L639.87,267.53z"/>
				<path class="st4" d="M805,119.46c-16.86,11.56-32.89,24.03-44.76,38.95c-10.48,13.18-17.35,27.94-21.05,43.26
					c-0.34,9.34,0.08,18.65,1.74,27.94c7.25,40.38,36.01,75.98,64.07,110.15L805,119.46L805,119.46z"/>
				<path class="st8" d="M288.67,96.13c-41.09,74-85.49,146.85-133.11,218.33c53.76-24.51,101.09-57.85,138.1-97.37
					c17.71-18.92,33.52-40.24,35.7-63.76C331.52,129.86,316.55,104.02,288.67,96.13z"/>
				<path class="st8" d="M640.22,266.41c-9.02-15.64-18.44-31.14-28.33-46.44c-7.84-12.14-15.95-24.18-22.61-36.74
					c-17.22-32.58-24.19-67.85-30.27-102.92c-2.03,0.53-4.01,1.14-5.96,1.94c-18.68,7.64-27.8,25.17-29.67,41.8
					c-3.06,27.09,9.22,54.21,28.25,76.82c19.01,22.62,44.46,41.3,70.4,59.05l17.85,7.63C639.99,267.15,640.1,266.79,640.22,266.41z"
					/>
				<path class="st9" d="M646.7,507.92c-39.78-9.97-75.46-29.98-100.59-56.43c-4.32-4.54-8.37-9.3-10.92-14.62
					c-5.96-12.39-3.12-26.61,4.24-38.5c7.36-11.91,18.85-21.84,30.66-31.19c5.05-4,10.33-7.99,16.82-10.28
					c7.64-2.7,16.27-2.84,24.62-2.93c47.21-0.53,97.1-0.53,137.89,18.39c7.58,3.52,14.95,7.86,19.17,13.98
					c10.66,15.54-2.78,34.17-4.66,51.8c-1.78,16.65,6.79,34.71-3.16,49.43c-8.13,12.02-26.4,17.54-43.55,18.24
					c-17.14,0.7-34.16-2.4-51.31-2.9L646.7,507.92z"/>
				<path class="st9" d="M148.38,528.16c-15.2-22.73-34.1-43.89-56.11-62.78c-5.67-4.86-11.65-9.72-15.02-15.79
					c-5.98-10.81-2.53-23.28,1.01-34.75c2.61-8.51,5.53-17.44,13.15-23.78c9.5-7.91,24.19-10.02,37.85-11.23
					c19.35-1.71,38.82-2.42,58.3-2.17c9.36,0.12,19.07,0.53,27.42,3.9c10.98,4.43,17.93,13.2,24.34,21.56
					c20.12,26.25,40.24,52.48,60.34,78.73c4.26,5.55,8.67,11.89,6.73,18.19c-1.62,5.22-7.23,8.97-12.52,12.34
					c-18.93,12.04-37.87,24.08-56.8,36.11c-6.77,4.29-14.27,8.8-22.92,8.76c-23.71-0.13-34.95-32.72-57.93-28.07L148.38,528.16z"/>
				<path class="st9" d="M427.98,601.32c-8.13-7-16.25-14.01-24.4-21.01c-3.83-3.3-7.78-6.77-9.4-11.08
					c-3.3-8.8,4.01-17.71,10.94-25.07c18.22-19.37,36.45-38.73,54.67-58.12c2.88-3.07,6.91-6.5,11.61-5.65
					c2.57,0.46,4.5,2.14,6.24,3.73c28.53,26.03,57.06,52.05,85.59,78.08c2.13,1.94,4.26,3.9,5.73,6.18
					c4.52,7.03,1.62,15.97-4.76,22.02c-6.38,6.04-15.64,9.68-24.9,12.52c-25.43,7.79-53.19,10.74-80.3,8.56
					c-12.22-0.98-25.86-3.86-31.67-12.45L427.98,601.32z"/>
				<path class="st10" d="M300.54,507.68c2.7-2.21,4.92-4.69,5.84-7.66c1.97-6.3-2.47-12.64-6.73-18.19
					c-20.12-26.25-40.24-52.48-60.34-78.73c-6.4-8.36-13.35-17.13-24.34-21.56c-8.35-3.37-18.05-3.78-27.42-3.9
					c-19.45-0.25-38.95,0.48-58.3,2.17c-13.68,1.21-28.35,3.32-37.85,11.23c-7.62,6.33-10.52,15.27-13.15,23.78
					c-3.53,11.47-6.97,23.94-1.01,34.75c0.04,0.08,0.12,0.18,0.16,0.27c-0.22-17.26,12.91-34.87,31.89-44.21
					c24.48-12.05,55.62-12.5,83.65-7.28c7.5,1.41,15.06,3.25,21.2,6.95c5.21,3.13,9.1,7.43,12.89,11.64
					c17,18.87,34.02,37.74,51.02,56.61C287.47,483.99,297.18,495.5,300.54,507.68z"/>
				<path class="st10" d="M563.26,562.2c-28.53-26.03-57.06-52.05-85.59-78.08c-1.74-1.59-3.65-3.27-6.24-3.71
					c-4.7-0.85-8.73,2.59-11.61,5.65c-18.22,19.37-36.45,38.73-54.67,58.12c-6.93,7.36-14.25,16.25-10.94,25.07
					c1.5,4.03,5.05,7.31,8.63,10.41c9.44-25.02,32.34-46.76,55.95-65.68c4.28-3.43,9.26-7.05,15.36-7.11
					c6.97-0.05,12.42,4.53,16.9,8.77c25.45,24.08,50.19,48.65,74.27,73.62c5.59-5.99,7.94-14.26,3.71-20.88
					C567.51,566.1,565.38,564.14,563.26,562.2z"/>
				<path class="st10" d="M768.61,386.32c-4.19-6.12-11.57-10.46-19.17-13.98c-40.79-18.92-90.68-18.92-137.89-18.39
					c-8.37,0.1-16.98,0.23-24.62,2.93c-6.5,2.3-11.77,6.3-16.82,10.28c-11.83,9.35-23.3,19.28-30.66,31.19
					c-7.36,11.89-10.19,26.13-4.24,38.5c2.55,5.31,6.61,10.08,10.92,14.62c8.63,9.09,18.54,17.39,29.42,24.82
					c-16.39-17.84-28.07-37.81-23.38-58.95c4.7-21.26,27.58-39.18,54.39-42.63c16.76-2.16,33.8,0.9,50.33,3.93
					c26.89,4.92,53.76,9.85,80.65,14.77c6.08,1.11,12.71,2.5,16.37,6.52c4.4,4.81,2.9,11.41,1.7,17.28
					c-4.54,22.07-1.84,45.02,7.5,66.09c6.1-13.86-0.75-30.11,0.87-45.2C765.83,420.48,779.27,401.86,768.61,386.32z"/>
				<path class="st10" d="M175.68,449.15c0,10.1-14.49,18.29-32.38,18.29c-17.87,0-32.38-8.19-32.38-18.29s14.49-18.29,32.38-18.29
					C161.19,430.86,175.68,439.05,175.68,449.15z"/>
				<path class="st10" d="M227.47,473.84c0,3.55-4.56,6.42-10.17,6.42c-5.61,0-10.17-2.87-10.17-6.42c0-3.55,4.56-6.42,10.17-6.42
					C222.91,467.42,227.47,470.31,227.47,473.84z"/>
				<path class="st10" d="M492.01,557.13c0,6.04-6.77,10.91-15.12,10.91c-8.35,0-15.12-4.89-15.12-10.91
					c0-6.04,6.77-10.91,15.12-10.91S492.01,551.11,492.01,557.13z"/>
				<path class="st10" d="M645.34,419.32c0,6.37-6.59,11.54-14.69,11.54c-8.13,0-14.69-5.17-14.69-11.54
					c0-6.37,6.59-11.54,14.69-11.54S645.34,412.95,645.34,419.32z"/>
				<path class="st10" d="M366.21,378.17c0,13.66-20.28,24.76-45.33,24.76c-25.03,0-45.33-11.08-45.33-24.76
					c0-13.66,20.28-24.76,45.33-24.76C345.93,353.41,366.21,364.5,366.21,378.17z"/>
				<path class="st10" d="M83.17,561.56c0,9.1-14.08,16.5-31.45,16.5s-31.45-7.38-31.45-16.5c0-9.1,14.08-16.5,31.45-16.5
					C69.09,545.08,83.17,552.45,83.17,561.56z"/>
				<path class="st10" d="M695.5,572.77c0,9.1-17.81,16.5-39.78,16.5s-39.78-7.38-39.78-16.5s17.81-16.5,39.78-16.5
					S695.5,563.66,695.5,572.77z"/>
				<path class="st10" d="M702.89,301.74c0,5.67-11.67,10.25-26.08,10.25c-14.41,0-26.08-4.59-26.08-10.25
					c0-5.67,11.67-10.26,26.08-10.26C691.22,291.49,702.89,296.07,702.89,301.74z"/>
				<path class="st1" d="M366.21,383.69c0,13.32-20.28,24.11-45.33,24.11c-25.03,0-45.33-10.79-45.33-24.11s20.28-24.09,45.33-24.09
					C345.93,359.58,366.21,370.37,366.21,383.69z"/>
				<path class="st1" d="M453.16,436.76c0,3.25-7.03,5.89-15.72,5.89s-15.72-2.64-15.72-5.89c0-3.25,7.03-5.89,15.72-5.89
					C446.11,430.86,453.16,433.5,453.16,436.76z"/>
				<path class="st1" d="M83.17,566.28c0,8.87-14.08,16.07-31.45,16.07s-31.45-7.2-31.45-16.07s14.08-16.07,31.45-16.07
					S83.17,557.41,83.17,566.28z"/>
				<path class="st1" d="M144.51,607.75c0,2.44-5.03,4.41-11.25,4.41c-6.2,0-11.25-1.97-11.25-4.41s5.03-4.41,11.25-4.41
					C139.49,603.34,144.51,605.32,144.51,607.75z"/>
				<path class="st1" d="M695.5,575.69c0,8.87-17.81,16.07-39.78,16.07s-39.78-7.2-39.78-16.07s17.81-16.07,39.78-16.07
					C677.68,559.63,695.5,566.81,695.5,575.69z"/>
				<path class="st1" d="M772.03,554.26c0,4.43-9.69,8.03-21.62,8.03c-11.94,0-21.62-3.6-21.62-8.03c0-4.43,9.69-8.03,21.62-8.03
					C762.35,546.22,772.03,549.82,772.03,554.26z"/>
				<path class="st1" d="M702.89,306.04c0,5.52-11.67,9.98-26.08,9.98c-14.41,0-26.08-4.48-26.08-9.98c0-5.52,11.67-9.98,26.08-9.98
					C691.22,296.04,702.89,300.51,702.89,306.04z"/>
				<path class="st1" d="M717.68,266.64c0,4.06-4.96,7.35-11.1,7.35c-6.14,0-11.1-3.28-11.1-7.35c0-4.06,4.96-7.35,11.1-7.35
					C712.72,259.28,717.68,262.58,717.68,266.64z"/>
				<path class="st1" d="M728.79,455.04c0,6.85-11.63,12.39-26,12.39c-14.35,0-26-5.54-26-12.39c0-6.85,11.63-12.39,26-12.39
					S728.79,448.21,728.79,455.04z"/>
				<path class="st1" d="M599.31,448.85c0,3.42-3.97,6.2-8.88,6.2c-4.9,0-8.88-2.77-8.88-6.2c0-3.42,3.97-6.2,8.88-6.2
					C595.33,442.65,599.31,445.42,599.31,448.85z"/>
				<path class="st1" d="M450.06,579.38c0,3.02-6.34,5.47-14.18,5.47c-7.84,0-14.18-2.45-14.18-5.47s6.34-5.47,14.18-5.47
					C443.72,573.89,450.06,576.35,450.06,579.38z"/>
				<path class="st1" d="M227.47,513.72c0,3.2-4.56,5.8-10.17,5.8c-5.61,0-10.17-2.6-10.17-5.8c0-3.2,4.56-5.8,10.17-5.8
					C222.91,507.92,227.47,510.52,227.47,513.72z"/>
				<path class="st8" d="M162.34,222.78c22.63-4.81,41.7-19.48,65.13-19.93c-1.18,3.08-1.58,6.35-1.16,9.55
					c0.71-0.85-1.26-1.48-2.51-1.31c-20.14,2.65-38.68,13.96-58.91,11.62L162.34,222.78z"/>
				<path class="st8" d="M155.55,259.03c22.63-4.81,41.7-19.48,65.13-19.93c-1.18,3.08-1.58,6.35-1.16,9.55
					c0.71-0.85-1.26-1.48-2.51-1.31c-20.14,2.65-38.68,13.96-58.91,11.62L155.55,259.03z"/>
				<path class="st8" d="M168.28,192.73c15.79-0.71,29.81-7.74,43.63-13.86c13.8-6.12,29.48-11.67,44.94-9.09
					c2.37-5.09,5.31-10.02,8.77-14.71c-20.02,2.82-40.87,5.9-57.16,15.59c-10.37,6.17-18.58,14.84-30.44,19L168.28,192.73z"/>
				<path class="st8" d="M174.48,158c9.18-1.34,17.47-5.11,25.78-8.49c12.91-5.27,26.3-9.82,40.04-13.55
					c9.2-2.5,18.97-4.66,28.51-3.27c1.46,0.22,3.16,0.46,4.3-0.3c0.49-0.33,0.79-0.81,1.07-1.28c2.09-3.47,4.19-6.93,6.28-10.38
					c-33.41,3.8-65.51,14.71-92.04,31.29L174.48,158z"/>
				<path class="st8" d="M635.05,199.62c-18.72-6.38-32.81-20.91-52.89-23.63c0.53,2.77,0.36,5.62-0.51,8.34
					c-0.47-0.8,1.32-1.14,2.37-0.88c16.92,4.29,31.08,15.85,48.84,15.85L635.05,199.62z"/>
				<path class="st8" d="M639.04,230.46c-18.72-6.38-32.81-20.91-52.89-23.63c0.53,2.77,0.36,5.62-0.51,8.34
					c-0.47-0.81,1.32-1.14,2.37-0.88c16.92,4.29,31.08,15.85,48.84,15.85L639.04,230.46z"/>
				<path class="st8" d="M638.54,172.16c-13.48-2.17-24.44-9.62-35.36-16.27c-10.92-6.63-23.53-12.97-37.24-12.27
					c-1.24-4.63-3-9.15-5.23-13.53c16.8,4.41,34.25,9.14,46.73,19.09c7.96,6.33,13.66,14.62,23.18,19.38L638.54,172.16z"/>
				<path class="st8" d="M638.66,141.63c-7.68-2.07-14.22-6.12-20.83-9.87c-10.27-5.82-21.09-11.06-32.32-15.64
					c-7.52-3.07-15.58-5.9-24.01-5.65c-1.3,0.03-2.8,0.08-3.65-0.68c-0.36-0.33-0.55-0.78-0.73-1.21c-1.26-3.18-2.51-6.37-3.77-9.57
					c28.15,6.58,54.04,19.17,74.27,36.06L638.66,141.63z"/>
			</g>
			<path class="st2" d="M474.87,35.87c0,6.86-11.1,12.44-24.78,12.44c-13.7,0-24.78-5.57-24.78-12.44s11.1-12.44,24.78-12.44
				S474.87,29.01,474.87,35.87z"/>
			<path class="st8" d="M265.63,33.6c0,6.86-20.14,12.44-44.98,12.44s-44.98-5.57-44.98-12.44s20.14-12.44,44.98-12.44
				C245.48,21.16,265.63,26.74,265.63,33.6z"/>
			<path class="st2" d="M320.88,40.96c0,2.8-6.34,5.09-14.16,5.09s-14.16-2.27-14.16-5.09c0-2.8,6.34-5.09,14.16-5.09
				C314.54,35.87,320.88,38.16,320.88,40.96z"/>
			<path class="st8" d="M728.79,33.6c0,6.86-20.2,12.44-45.13,12.44s-45.13-5.57-45.13-12.44s20.2-12.44,45.13-12.44
				C708.59,21.16,728.79,26.74,728.79,33.6z"/>
			<path class="st8" d="M73.99,27.83c0,4.44-9.73,8.04-21.74,8.04s-21.74-3.6-21.74-8.04s9.73-8.04,21.74-8.04
				S73.99,23.4,73.99,27.83z"/>
		</g>
		<path class="st1" d="M673.47,213.49c8.43,27.51-1.95,58.18-26.59,78.63c-18.28,15.17-43.34,24.69-59.9,41.06
			c-19.31,19.09-24.44,45.04-23,69.49c0.87,15.02,4.24,30.53,14.91,42.93c16.62,19.3,49.32,27.51,78.18,22.92
			c28.86-4.59,53.56-20.38,69.95-39.8c7.92-9.37,14.29-20.08,14.22-31.37c-0.06-11.29-7.92-23.08-21.26-26.91
			c-13.35-3.83-30.88,3.27-31.96,14.51c-0.28,2.89,0.47,5.82-0.04,8.69c-1.88,10.89-21.46,14.96-32.91,8.79
			c-11.47-6.15-15.52-18.14-15.74-29.13c-0.55-27.04,16.47-52.03,30.09-76.82s24.11-53.51,10.72-78.38L673.47,213.49z"/>
		<path class="st4" d="M657.64,182.07c33.88,35.2,29.2,90.22-10.33,121.48c-21.24,16.8-52.16,28.98-59.05,52.15
			c-2.9,9.7-6.48,21.8-6.71,31.77c-0.47,21.67,3,21.9,10.9,36.31c2.84,5.17,8.13,7.74,11.47,11.08c2.9,2.9,7.15,4.71,11.45,6.17
			c36.96,12.62,84.42,0.95,105.96-26.05c7.32-9.17,11.81-20.76,6.93-30.89c-4.76-9.9-18.74-16.4-31.94-14.87
			c-13.19,1.53-24.24,10.94-25.25,21.51c-0.59,6.17,2.8,13.13,10.09,15.29s16.98-3.68,14.2-9.47c3.65,7.18-2.8,15.75-11.77,18.75
			c-9,3-19.39,1.62-28.49-1.14c-8.06-2.45-15.89-6.15-20.71-11.86c-8.02-9.45-6.18-22.19-1.44-32.95
			c15.16-34.41,55.5-60.37,63.51-96.29c2.57-11.52,1.56-23.33,0.55-35c-1.32-15.07-2.61-30.16-3.93-45.23L657.64,182.07z"/>
		<path class="st8" d="M702.53,375.45c5.78-1.49,11.91-1.18,17.93-0.18c-6.5-4.59-15.48-7.06-24.13-6.07
			c-13.19,1.53-24.24,10.94-25.25,21.51c-0.59,6.17,2.8,13.13,10.09,15.29s16.98-3.68,14.2-9.47c3.65,7.18-2.8,15.75-11.77,18.75
			c-8.98,3-19.39,1.62-28.49-1.14c-8.06-2.45-15.89-6.15-20.73-11.86c-8.02-9.45-6.18-22.19-1.42-32.95
			c15.16-34.41,55.5-60.37,63.51-96.29c2.57-11.52,1.56-23.33,0.55-35c-0.28-3.25-0.57-6.5-0.85-9.73
			c-8.39,43.86-29.2,86.22-60.63,122.9c-10.5,12.25-22.39,24.26-27.32,38.57c-4.92,14.29-0.73,31.92,15.2,39.63
			c15.95,7.71,36.45,2.97,53.9-2.29c7.8-2.35,15.74-4.84,22.01-9.24s10.58-11.11,8.96-17.61s-10.68-11.76-18.52-9.5
			C687.69,384.25,694.44,377.54,702.53,375.45z"/>
		<path class="st1" d="M137.78,455.7c0.59-4.73-4.92-8.92-10.82-9.58c-5.92-0.66-11.81,1.44-16.62,4.28
			c-7.9,4.64-14.02,12.12-12.87,19.88c1.58,10.66,16.68,17.51,30.11,16.45c13.43-1.06,25.01-7.94,34.57-15.52
			c16.92-13.4,30.01-29.81,38.05-47.67c9.83,31.22-14.63,66.79-53.01,77.07c18.64-4.63,35.5-13.7,47.82-25.73
			c23.99-23.43,28.59-59.21,7.84-84.53c-12.38-15.11-31.85-25.42-48.27-37.84c-16.41-12.44-30.72-29.33-27.5-47.17
			c3.12,19.77,27.86,31.97,49.79,41.59c33.25,14.59,68.63,32.27,80.39,60.97c5.35,13.08,5.13,27.21,2.94,40.86
			c-1.7,10.6-4.62,21.24-11.04,30.63c-6.28,9.17-15.62,16.75-24.86,24.18c-7.62,6.12-15.34,12.3-24.64,16.73
			c-16.56,7.86-36.49,9.42-55.68,10.81c-20.97,1.51-43,2.9-62.29-3.83c-21.26-7.41-36.15-24.34-39.98-42.53
			c-3.81-18.19,2.76-37.26,15.72-52.55c11.87-14.03,33.54-25.87,53.48-19.98c14.33,4.23,22.51,16.03,28.41,27.24L137.78,455.7z"/>
		<path class="st4" d="M119.99,178.66c-14.89,21.89-26.73,39.33-34.27,63.49c-7.54,24.16-6.89,50.89,8.53,72.56
			c23.79,33.45,78.36,50.04,93.6,86.51c9.1,21.77,1.3,46.43-15.22,65.25c-16.64,18.97-50.42,33.28-74.27,20.03
			c-12.22-6.78-18.05-20.06-13.78-31.42c4.26-11.36,18.3-19.93,33.19-20.3c12.5,3.43,19.57,15.98,14.47,25.68
			c21.46-6.48,21.13-34.32,1.93-44.34c-19.19-10.02-46.5-4.05-62.49,9.05c-17.16,14.08-23.99,35.6-17.24,54.47
			c6.73,18.85,26.75,34.34,50.66,39.15c16.33,3.28,33.66,1.84,49.95-1.53c35.93-7.43,69.69-25.22,86.38-51.59
			c16.7-26.36,13.05-61.45-13.56-82.03c-15.56-12.04-36.8-18.19-54.49-28.22c-26.5-15.04-44.44-39.23-48.15-64.95
			c-4.9-33.93,13.84-67.47,12.62-101.61L119.99,178.66z"/>
		<path class="st2" d="M225.3,381.81c-0.08,8.69,3,17.2,3.51,25.88c0.77,13.56-4.9,26.99-13.72,38.62
			c-8.81,11.62-20.63,21.62-33.01,30.97c-6.08,4.59-12.34,9.05-19.21,12.88c-8.96,4.97-18.82,8.77-28.79,12.3
			c-5.29,1.87-10.66,3.7-16.31,4.71c-23.3,4.15-48.41-7.26-59.01-24.26c-4.28-6.83-6.36-14.31-6.65-21.89
			c-0.53,6.25,0.22,12.57,2.39,18.6c6.73,18.85,26.75,34.34,50.66,39.15c16.33,3.28,33.66,1.84,49.95-1.53
			c35.93-7.43,69.69-25.22,86.38-51.59c16.7-26.36,13.05-61.45-13.56-82.03C227.08,383.01,226.17,382.43,225.3,381.81z"/>
		<path class="st8" d="M174.48,365.7c-13.29-13.35-33.84-20.71-49.63-32.22c-19.45-14.19-30.86-34.22-36.68-54.69
			c-2.9-10.16-4.52-20.71-2.39-30.99c3.36-16.27,15.76-30.44,21.38-46.31c0.34-0.99,0.47-2.29-0.12-3.08
			c-8.79,14.08-16.54,28.52-21.3,43.74c-7.54,24.16-6.89,50.89,8.53,72.56c23.79,33.45,78.36,50.04,93.6,86.51
			c6.83,16.32,4.15,34.26-4.58,50.16c5.55-4.97,9.22-11.36,10.9-17.92c2.43-9.55,1.2-19.45-0.89-29.05
			C190.33,390.62,185.4,376.66,174.48,365.7z"/>
	</g>
</g>
</svg>
