<?xml version="1.0" encoding="utf-8"?>
<!-- Generator: Adobe Illustrator 28.5.0, SVG Export Plug-In . SVG Version: 9.03 Build 54727)  -->
<svg version="1.0" id="Layer_1" xmlns="http://www.w3.org/2000/svg" xmlns:xlink="http://www.w3.org/1999/xlink" x="0px" y="0px"
	 viewBox="0 0 400 200" style="enable-background:new 0 0 400 200;" xml:space="preserve">
<style type="text/css">
	.st0{fill:url(#SVGID_1_);}
	.st1{fill:#A55125;}
	.st2{fill:#8E4821;}
	.st3{fill:#CF6727;}
	.st4{fill:#D46A28;}
	.st5{fill:#592F11;}
</style>
<g>
	
		<linearGradient id="SVGID_1_" gradientUnits="userSpaceOnUse" x1="0" y1="102" x2="400" y2="102" gradientTransform="matrix(1 0 0 -1 0 202)">
		<stop  offset="0" style="stop-color:#7C451F"/>
		<stop  offset="1" style="stop-color:#663716"/>
	</linearGradient>
	<path class="st0" d="M400,172.7c0,15.01-9.83,27.3-21.84,27.3H21.84C9.83,200,0,187.72,0,172.7V27.3C0,12.28,9.83,0,21.84,0h356.32
		C390.17,0,400,12.28,400,27.3V172.7z"/>
	<path class="st1" d="M21.84,0C9.83,0,0,12.28,0,27.3v59.03c1.93-5.91,4.23-11.64,6.87-17.11c4.79-9.91,10.83-19.12,18.68-25.27
		c6.89-5.4,14.85-8.22,22.73-10.72C128.84,7.66,212.83,8.37,295.82,0H21.84z"/>
	<path class="st2" d="M400,172.7V83.18c-38.41,19.11-80.98,24.6-122.6,26.58c-81.51,3.89-163.09-4.07-244.2-14.75
		C22.12,93.55,10.16,91.35,0,85.94v86.76C0,187.72,9.83,200,21.84,200h356.32C390.17,200,400,187.72,400,172.7z"/>
	<path class="st3" d="M363.03,156.14c0,11.59-8.01,21.08-17.8,21.08H54.77c-9.79,0-17.8-9.49-17.8-21.08V43.86
		c0-11.59,8.01-21.08,17.8-21.08h290.46c9.79,0,17.8,9.49,17.8,21.08L363.03,156.14L363.03,156.14z"/>
	<path class="st4" d="M400,47.27c-3.31,0.35-6.6,0.73-9.83,1.17c-11.78,1.61-23.88,3.73-35.55,5.01
		c-75.42,8.22-154.59-4.6-231.43-1.04C85.4,54.16,47.48,55.73,14.16,71.83C9.17,74.24,4.49,77.19,0,80.45v16.76
		c4.71-2.95,9.5-5.75,14.39-8.35c49.84-26.48,108.7-32.18,166.69-36.01c51.51,1.15,102.34,6.11,153.01,14.87
		c21.95-1.81,43.92-3.41,65.91-4.84V47.27z"/>
	<path class="st5" d="M400,50.95c-2.38,0.48-4.89,0.82-7.6,0.94c-4.75,0.22-9.99-0.86-14.75-0.56c-6.75,0.42-12.32,3.8-18.11,4.7
		c-18.29,2.86-36.9,1.28-55.26-0.4c-79.46-7.28-160.04-8.25-237.82,3.86c-19.33,3.01-37.93,7.86-54.44,17.09
		c-4.2,2.37-8.18,5.3-12.02,8.49v24.41c1.09-1.46,2.23-2.87,3.46-4.2c5.65-6.1,13.95-9.25,20.93-11.89
		C115.2,59,212.62,46.78,307.98,66.74c14.79,3.1,30.2,7.61,45.1,8.97c15.3,1.4,31.09,0.79,46.92-0.06V50.95z"/>
	<g>
		<path class="st4" d="M11.69,163.25c-4.78,4.28-8.58,8.14-11.64,11.3c0.09,1.64,0.29,3.24,0.61,4.79c2.48-0.25,4.82-0.48,8.14-0.81
			c8.78-6.56,16.43-14.09,24.2-21.65c32.5-10.34,65.26-19.27,98.7-26.33c-27.13,1.81-52.62,4.9-71.85,9.94
			C42.66,145,25.04,151.3,11.69,163.25z"/>
		<path class="st4" d="M141.61,128.51c-3.31,0.66-6.61,1.34-9.91,2.04c76.23-5.09,165.44-0.11,165.44-0.12
			C297.14,130.43,192.71,122.69,141.61,128.51z"/>
	</g>
	<path class="st5" d="M48.19,145.74c-5.9,1.55-11.87,3.69-17.33,6.64c-5.48,2.96-9.67,6.81-13.4,10.1
		c-5.55,4.91-11.02,10.13-17.19,14.45c1.16,9.21,6.04,16.92,12.63,20.65c4.71-10.81,9.85-24.8,15.83-30.26
		c12.05-11.01,28.61-17.07,44.12-21.54c70.78-20.41,148.95-16.8,224.29-15.34C213.31,123.04,129.12,124.51,48.19,145.74z"/>
	<path class="st4" d="M400,153.09c-37-4.33-73.94-6.02-111.3-7.16c-53.76-1.63-107.42-3.04-161.07,2.23
		c25.42,0.03,50.69,1.04,76.03,2.97c21.88-0.17,43.88-0.05,65.54,1.19c33.38,1.92,67.12,5.83,100.59,9.74
		c10.44,0.1,20.16,1.44,30.21,2.24V153.09z"/>
	<path class="st5" d="M367.22,152.49c-12.76-1-25.97-1.17-38.96-1.43c-66.77-1.36-133.69-6.9-200.63-2.89
		c4.41,0.98,6.61,1.48,10.99,2.51c50.06,1.08,100.22,4.83,149.36,11.33c27.74,3.67,72.43,22.44,105.81,29.71
		c3.83-4.93,6.21-11.64,6.21-19.01V155.9C389.06,154.58,378.29,153.36,367.22,152.49z"/>
	<g>
		<path class="st4" d="M381.24,19.29c-0.81-0.34-1.47-0.61-2.09-0.85C379.35,19.16,379.98,19.51,381.24,19.29z"/>
		<path class="st4" d="M381.24,1.74c-27.89-0.33-80.85,17.06-108.75,17.2c-28.56-1.13-56.01-1.36-84.59-1.75
			c-33.52,0.7-69.9,0.48-103.34,2.86C27.46,23.93,9.23,25.62,0,26.96c0.01,0.12,0,0.23,0,0.34v7.96
			c26.74,0.58,57.13-7.78,83.97-9.28c51.01-2.85,107.55-3.7,158.71-3.2c45.29,0.44,87.6-4.12,133.02-5.58
			c1.39,0.47,2.35,0.81,3.45,1.25C378.04,14.61,388.85,0.11,381.24,1.74z"/>
	</g>
	<path class="st5" d="M400,27.3c0-12.19-6.48-22.58-15.34-26.06c-34.93,4.9-81.48,20.64-113.21,20.52
		c-42.58-0.16-85.91-2.06-128.42-1.01c-36.66,0.91-73.69,4.12-110.43,7.15C21.73,28.8,10.83,29.79,0,31.02V50.8
		c9.01-6.75,18.05-13.66,25.34-14.3c33.09-2.87,66.89-9.57,99.91-12.12c82.69-6.39,167.95,7.14,251.29,9.44
		c4.76,0.13,14.04-0.69,23.46-1.57L400,27.3L400,27.3z"/>
	<path class="st4" d="M400,104.38c-25.78-0.62-63.45-12.89-106.44-18.76c-63.75-8.71-111.85,14.35-111.85,14.35l23.86-5.64
		c0,0,47.13-4.35,47.95-4.15c0.82,0.21,63.23,4.5,63.23,4.5l54.46,24.67l28.79,4.23V104.38z"/>
	<path class="st5" d="M400,109.5c-4.8,1.41-9.64,2.24-14.5,2.3c-12.62,0.15-25.09-4.77-37.54-8.81
		c-54.91-17.84-111.19-18.87-166.25-3.02l2.43,0.48c29.44-5.31,61.12-5.2,90.67-6.47c7.45-0.32,14.91-0.51,22.33,0.87
		c7.51,1.4,14.93,4.41,22.28,7.81c26.77,12.4,53.2,30.25,80.59,33.57L400,109.5L400,109.5z"/>
	<path class="st4" d="M37.86,111.08C37.29,111.41,18.04,123.12,0,134.1v2.46l19.29-10.22l32.81-12.52L160.07,88.8
		C141.92,83.21,38.94,110.47,37.86,111.08z"/>
	<path class="st5" d="M0,135.13v4.47c18.66-8.08,40.35-17.45,48.91-21.13c16.3-6.99,111.16-29.67,111.16-29.67
		s-87.88,9.47-119.5,24.28C25.79,120,11.9,128.01,0,135.13z"/>
</g>
</svg>
