<?xml version="1.0" encoding="utf-8"?>
<!-- Generator: Adobe Illustrator 28.5.0, SVG Export Plug-In . SVG Version: 9.03 Build 54727)  -->
<svg version="1.0" id="Layer_1" xmlns="http://www.w3.org/2000/svg" xmlns:xlink="http://www.w3.org/1999/xlink" x="0px" y="0px"
	 viewBox="0 0 500 500" style="enable-background:new 0 0 500 500;" xml:space="preserve">
<style type="text/css">
	.st0{fill:#FFFFFF;}
	.st1{fill:#E59791;}
	.st2{fill:#C1756B;}
	.st3{fill:#673956;}
	.st4{fill:#557EBC;}
	.st5{fill:#333B4F;}
	.st6{fill:#96C6ED;}
	.st7{fill:#C74C44;}
	.st8{fill:#70220D;}
	.st9{fill:#F7CE03;}
	.st10{fill:#3E9672;}
	.st11{fill:#4C2F39;}
	.st12{fill:#8BEAC1;}
	.st13{fill:#9483AB;}
	.st14{fill:#CCC7CA;}
	.st15{fill:#634A46;}
	.st16{fill:#382823;}
	.st17{fill:#2B1E1A;}
	.st18{fill:#19100E;}
	.st19{fill:#95404B;}
	.st20{fill:#C6705C;}
	.st21{fill:#685963;}
	.st22{fill:#EAA498;}
	.st23{fill:#FFCAA6;}
	.st24{fill:#A55C56;}
	.st25{fill:#796C5C;}
	.st26{fill:#9B7F65;}
	.st27{fill:#C3B388;}
	.st28{fill:#E7DEA4;}
	.st29{fill:#635554;}
	.st30{fill:#698C5A;}
	.st31{fill:#9CCA70;}
</style>
<g>
	<path class="st0" d="M269.71,595.02c4.33,0,9.01-1.36,11.41-2.17c1.48-0.47,22.42-6.95,33.46-10.37c3.97-1.23,7.85-2.43,7.85-2.43
		l1.01-0.61c4.05-2.51,6.71-6.2,7.7-10.49c1.82-7.81-2.18-15.31-3.68-17.75c-0.25-0.46-0.5-0.93-0.75-1.42l-10.25-27.56
		c1.51,0.32,3.08,0.53,4.7,0.64l0.96,0.02c1.81,0,5.45-0.19,9.72-1.43c0.7,1.81,1.5,3.61,2.39,5.4l2.12,5.92l0.74,1.06
		c0.67,0.94,1.41,1.89,2.28,2.88c7.18,9.18,19.02,14.88,30.97,14.88c5.67,0,11.1-1.34,15.81-3.9l3.1-0.42l-0.28,1.86l21.31-2.11
		c4.51,10.11,10.06,16.12,16.9,18.31c1.74,0.56,3.52,0.84,5.29,0.84c4.71,0,7.94-1.99,8.82-2.6l0.26-0.18l0.91-0.77l0.23-0.24
		c3.82-3.91,5.12-10.89,5.53-16.05c0.15-1.51,2.33-22.48,3.55-34.14c0.47-4.51,0.92-8.89,0.92-8.89l-0.2-1.42
		c-0.68-4.44-3.02-8.33-6.58-10.94c-1.47-1.08-3.16-1.95-5.01-2.58c0.76-3.6,0.84-7.44,0.21-11.45c-0.18-3.39-1.35-15.68-9.19-30.03
		c0.19-1.14,0.26-2.24,0.19-3.34c-0.12-3.11-0.81-19.59-1.75-24.29c-0.13-0.65-0.31-1.43-0.58-2.28l-4.23-12.1
		c-0.66-4.1-1.5-8.96-2.52-14.56c2.63-1.91,5.14-3.88,7.58-5.97c0.33-0.25,0.71-0.56,1.12-0.93c2.32,1.3,4.63,2.6,6.87,3.87
		l0.02,0.53l3.7,2.76c5.55,4.13,13.83,9.15,18.5,11.9c0.39,3.39,1.04,6.7,1.96,10.05l1.6,5.85l5.97,1.09
		c5.74,1.06,11.88,3.49,13.14,4.81l0.3,0.46l1.06,1.55l2.38,1.12c1.62,0.76,4.93,2.02,9.12,2.02c3.79,0,7.28-1.08,10.15-3.11
		c1.52,0.18,3.21,0.32,4.9,0.32c4.75,0,8.37-1.01,11.06-3.1c2.83-2.19,4.5-5.49,4.6-9.04l0.04-0.95l-0.18-1.01
		c0.01,0-0.57-4.91,2.81-9.18l1.2-1.52l0.52-1.86c0.48-1.69,1.69-6.98-0.03-12.25l1.25-5.12l0.04-0.28c0.3-1.89,0.25-5.07-2.33-8.23
		l1.34-8.24l-4.52-3.52c-1.1-0.86-11.06-8.53-20.53-13.35c-1.07-0.55-3.89-1.78-7.97-2.01l-28.22-14.32l-0.78,0.45
		c-4.65-2.47-9.11-4.54-13.18-6.25c2.59-0.41,4.93-1.57,6.74-3.37c1.4-1.38,2.87-3.5,3.49-6.62c1.65-0.72,3.12-1.68,4.39-2.85
		c1.29-1.19,2.81-3.03,3.79-5.66c5.07-3.12,9.53-8.95,8.77-17.46c-0.12-2.35-0.91-9.26-5.94-13.93c1.76-2.29,3.18-4.66,4.28-7.16
		c2.28-5,3.19-10.86,2.56-16.45c-0.52-4.81-2.11-9.72-4.74-14.56c-1.13-2.06-2.42-4.08-3.86-6.01c-1.62-2.16-3.07-3.85-4.72-5.49
		l-0.94-0.94l-1.25-0.66c-5.13-2.73-10.24-4.47-15.21-5.19c1.35-25.43,2.09-41.28,2.2-47.17c0.38-3.95,1.04-14.81-1.85-24.55
		c15.37-10.07,27.17-21.92,35.12-35.27c6.41-9.89,13.08-30.95-2.22-47.79l-0.23-0.24c-0.56-0.56-11.4-11.15-27.17-11.15
		c-7.1,0-13.92,2.12-20.35,6.31c-2.93-6.42-7.7-11.66-14.13-15.43l-0.24-0.13c-0.53-0.28-8.05-4.09-18.05-4.09
		c-0.07,0-0.14,0-0.21,0c-1.2-13.08-7.83-26.68-23.69-32.27l-0.32-0.11c-0.34-0.1-4.5-1.31-10.41-1.31
		c-9.83,0-26.99,3.34-36.12,24.65c-1.04-2.92-2.19-5.72-3.44-8.41C329.23,14.7,318.88,0,302.4,0c-2.67,0-5.39,0.4-8.09,1.18
		l-0.55,0.18c-0.28,0.1-25.46,9.44-23.77,40.09c-0.26-0.01-0.53-0.01-0.79-0.01c-5.81,0-11.37,1.88-16.53,5.58l-0.26,0.19
		c-0.41,0.33-5.94,4.82-10.06,13.09c-3.6-1.63-8.09-2.96-13.13-2.96c-7.9,0-15.2,3.34-21.1,9.67l-0.2,0.23
		c-0.32,0.38-21.51,25.92,0.05,55.31c1.44,2.49,6.67,10.97,16.15,20.56c-0.41,1.06-0.79,2.14-1.14,3.23l-0.28,1.08l-0.04,0.24
		c-0.08,0.44-7.4,43.32-12.51,96.17c-3.18,1.58-6.2,3.85-9.02,6.78c-2.71,1.18-6.71,3.61-9.21,8.3c-2.58,4.82-2.9,10.47-0.95,16.81
		c-0.54,2.69-0.72,6.41,0.82,10.23c0.7,1.73,1.69,3.32,2.94,4.72c-0.2,2.08,0.02,4.1,0.65,6c1.39,4.15,4.68,7.34,9.27,8.98
		l1.17,0.42c-0.25,6.65-0.42,13.13-0.5,19.37l-24.25-3.32c-0.79-0.71-1.63-1.37-2.49-2c4.89-5.42,7.47-10.81,7.85-16.32
		c0.47-6.88-2.89-12.26-5.9-14.77l-4.98-4.14l-5.72,3.02c-0.23,0.12-4.74,2.48-12.02,5.84c-26.81-73.5-55.29-165.92-50.71-194.44
		c1.07-6.69-0.75-11.25-5.42-13.54c-1.41-0.69-2.89-1.04-4.42-1.04c-2.56,0-4.98,0.98-7.24,2.91l-0.32,0.16
		c-1.56,0.77-38.31,19.46-43.06,72.89l-0.09,1.06l0.13,1.04c0.29,2.21,7.45,53.79,58.51,150.36c-1.48,0.39-2.93,0.75-4.35,1.09
		l-3.7,0.88l-2.11,3.17c-0.75,1.12-4.38,7.13-2.19,14.56c1.12,3.81,3.51,7.07,7.11,9.7c1.27,1.13,2.74,2.06,4.4,2.79l0.79,0.35
		l0.34,0.06c1.73,0.87,4.7,2.04,8.85,2.49c-0.12,3.22,0.3,6.75,1.83,10.17c1.07,2.39,2.54,4.46,4.41,6.2
		c-0.23,2.78,0.03,5.99,1.37,9.3c1.45,3.58,3.86,6.58,7.18,8.96c1.02,4.31,3.96,11.92,12.44,16.93c0.05,8.09,3.37,13.19,3.83,13.86
		l2.5,3.6l24.21,2.84l1.88-8.54c1.84-8.36,11.53-8.77,12.63-8.79l4.27,0.01l2.9-3.24c2.27-2.55,3.7-5.68,4.25-9.28
		c0.76,0.01,1.49,0.02,2.19,0.02c1.21,0,2.36-0.02,3.45-0.06l4.62-0.16l0.48-0.64c1.55,0.05,2.99,0.07,4.37,0.07
		c13.56,0,24.27-1.71,29.86-2.83c0.07,0,0.15,0,0.22,0c0.61,0,1.23-0.02,1.86-0.05c-1.45,9.42-2.33,19.71-2.63,30.72
		c-2.3,2.03-3.6,4.54-4.17,5.65l-0.84,1.63l-0.19,1.8c-0.55,5.26-1.54,17.58-0.04,26.42c-6.13,12.32-8.96,24-8.42,34.77
		c-0.04,8.33,4.31,18.31,13.9,23.17c0.74,10.41,5.33,19.65,12.83,25.56l1.59,2.68l-1.82,0.47l10.33,18.76
		c-7.52,8.12-10.86,15.59-10.19,22.74c0.57,6.07,4.06,10.32,7.14,12.26l0.29,0.18l1.08,0.54l0.31,0.12
		C265.81,594.72,267.62,595.02,269.71,595.02z"/>
	<g>
		<g>
			<g>
				<path class="st1" d="M265.05,318.12c0,0,14.21-1.8,4.45,22.74c0,0-12.85,15.52-28.95,20.93c0,0-26.82,0.04-31.82-0.2
					c0,0,3.95-11.74-5.27-22.91c0,0,26.5,2.58,29.4,1.36c0,0,13.39-8.88,23.13-17.56C256,322.47,260.95,317.34,265.05,318.12z"/>
			</g>
			<g>
				<g>
					<path class="st2" d="M244.35,376.43c0,0-26.96,7.03-58.8,0.76c0,0,12.64-23.78,1.97-42.11c0,0,22.8,1.75,41.69,2.47
						c6.72,0.26,19.48-14.49,30.44-21.62c12.73-8.28,37.33,7.24,24.7,27.71C282.6,346.48,266.86,369.34,244.35,376.43z"/>
					<path class="st3" d="M185.01,379.92l-3.67-0.72l1.76-3.3c0.12-0.22,11.8-22.61,2.02-39.41l-2.66-4.57l5.27,0.4
						c0.23,0.02,22.96,1.75,41.58,2.47c2.99,0.1,10.01-5.87,15.59-10.69c4.37-3.76,8.88-7.66,13.23-10.48
						c7.48-4.87,18.71-3.07,26.13,4.17c7.55,7.37,8.46,17.58,2.44,27.33c-0.16,0.26-16.72,26.16-41.52,33.98l-0.13,0.04
						c-0.77,0.2-13.62,3.47-31.97,3.47C204.67,382.59,195.1,381.9,185.01,379.92z M281.98,342.19c6.56-10.63,1.07-17.84-1.6-20.44
						c-5.51-5.38-13.96-6.91-19.22-3.49c-4.04,2.62-8.41,6.39-12.63,10.04c-7.62,6.57-14.2,12.21-19.43,12.03
						c-13.56-0.52-29.27-1.58-37-2.13c5.64,14.35,0.37,30.12-2.52,36.91c28.57,4.8,52.62-1,54.01-1.35
						C266.43,366.52,281.83,342.43,281.98,342.19z"/>
				</g>
				<g>
					<g>
						<g>
							<path class="st4" d="M203.27,380.54c0,0,15.44-20.56,3.7-45.13l-27.02-3.7c0,0,12.38,22.36-1.28,47.81
								C178.68,379.52,194.09,380.86,203.27,380.54z"/>
							<path class="st5" d="M178.43,382.28l-4.2-0.37l1.99-3.71c12.74-23.74,1.77-44.29,1.3-45.15l-2.68-4.85l33.99,4.66l0.65,1.35
								c12.32,25.79-3.32,47.1-3.99,48l-0.8,1.06l-1.33,0.05c-1.01,0.03-2.09,0.05-3.21,0.05
								C191.01,383.37,179,382.33,178.43,382.28z M205.09,337.95l-20.6-2.82c2.85,7.69,6.68,23.76-1.51,41.94
								c4.78,0.34,12.82,0.83,18.8,0.74C204.48,373.54,213.47,357.11,205.09,337.95z"/>
						</g>
						<g>
							<path class="st6" d="M204.91,338.57c0,0,8.67,34.23-20.24,33.26c0,0,7-16.51,0.19-35.66L204.91,338.57z"/>
						</g>
					</g>
					<g>
						<path class="st0" d="M183.84,336.14l20.87,2.01c0,0,5.09,15.77-17.28,23.54C187.43,361.68,187.26,348.49,183.84,336.14z"/>
					</g>
				</g>
			</g>
		</g>
		<g>
			<g>
				<g>
					<path class="st2" d="M307.99,530.87c0,0,4.8,13.4,11.14,25.16c0,0,6.83,10.65-0.67,15.17c0,0-38.18,11.82-40.42,12.53
						c0,0-7.45,2.51-10.38,1.38c0,0-10.09-6.41,8.43-23.81l2.34-5.22L255,516.77l-1.84-6.36l0.09-6.19l40.67-10.95L307.99,530.87z"
						/>
				</g>
				<g>
					<path class="st3" d="M319.88,573.54l-0.29,0.17l-0.32,0.1c-0.38,0.12-38.2,11.83-40.36,12.51c-1.97,0.66-8.67,2.72-12.25,1.34
						l-0.48-0.24c-0.36-0.23-3.52-2.37-3.97-7.09c-0.55-5.85,3.35-12.79,11.59-20.64l1.54-3.43l-22.88-38.39l-2.06-7.09l0.13-8.66
						l45.07-12.14l14.94,39.92l0.01,0.03c0.05,0.13,4.79,13.28,10.94,24.7c0.66,1.05,4.25,7.13,2.94,12.75
						c-0.59,2.54-2.12,4.63-4.43,6.07C319.97,573.49,319.93,573.52,319.88,573.54z M292.23,496.56l-36.28,9.77l-0.05,3.71l1.63,5.63
						l23.98,40.23l-3.15,7.02l-0.4,0.38c-9.34,8.77-10.46,14.01-10.3,16.36c0.11,1.67,0.9,2.61,1.27,2.97
						c1.37,0.23,5.02-0.42,8.27-1.51c2.13-0.68,36.02-11.17,40.1-12.43c0.97-0.65,1.54-1.46,1.79-2.53c0.72-3.05-1.4-7.29-2.27-8.66
						l-0.05-0.09l-0.05-0.09c-6.31-11.71-11.03-24.74-11.31-25.52L292.23,496.56z"/>
				</g>
			</g>
			<g>
				<g>
					<path class="st2" d="M263.38,530.17l2.29-1.56c11.79,7.29,27.4,3.62,34.7-8.16l6.52-10.52c7.29-11.78,3.62-27.39-8.17-34.69
						l0,0c-11.78-7.3-26.17-1.59-37.35,11.64l-4.28,3.97C249.79,502.64,251.59,522.87,263.38,530.17z"/>
				</g>
				<g>
					<path class="st3" d="M285.32,534.34c-6.69,1.58-13.56,0.68-19.53-2.5l-2.34,1.6l-1.52-0.94c-13.55-8.39-15-30.43-7.18-43.09
						l0.2-0.31l4.43-4.11c12.82-15.09,28.43-19.72,40.77-12.08c13.1,8.1,17.16,25.35,9.06,38.46l-6.52,10.52
						c-2.28,3.69-5.34,6.74-8.94,8.98C291.19,532.45,288.35,533.63,285.32,534.34z M263.46,488.65l-4.22,3.95
						c-5.84,9.83-4.9,27.07,4.16,34.25l2.19-1.5l1.52,0.94c5.08,3.14,11.11,4.12,16.97,2.74c5.86-1.38,10.82-4.94,13.96-10.02
						l6.52-10.52c6.52-10.54,3.25-24.41-7.29-30.92c-6.77-4.19-14.96-3.53-22.97,1.44C270.59,481.31,266.92,484.55,263.46,488.65z"
						/>
				</g>
			</g>
			<g>
				<g>
					<path class="st3" d="M285.34,534.38c-6.7,1.58-13.57,0.68-19.55-2.5l-2.34,1.59l-1.53-0.95c-13.57-8.39-15.91-28.73-8.07-41.4
						l0.19-0.32l5.31-5.84c12.82-15.11,28.45-19.74,40.82-12.08c6.33,3.91,10.76,10.09,12.48,17.38c1.71,7.29,0.49,14.79-3.42,21.13
						l-6.51,10.51c-0.7,1.14-1.49,2.21-2.33,3.22C296.54,529.73,291.31,532.97,285.34,534.38z M255.82,511.82
						c0.88,6.47,3.61,11.82,7.58,14.98l2.2-1.49l1.53,0.95c10.52,6.51,24.37,3.24,30.88-7.27l6.51-10.52
						c3.15-5.07,4.11-11.09,2.74-16.94c-1.38-5.86-4.93-10.81-10-13.94c-9.89-6.13-22.84-1.88-33.78,11.07l-4.23,3.95
						C256.17,497.8,254.88,504.95,255.82,511.82z"/>
				</g>
			</g>
			<g>
				<g>
					<path class="st2" d="M290.84,533.61l0.22,4.6c5.95,5.32,17.99,2.85,8.6-25.3l-4.33-14.06c-4.13-8.59-15.19-11.93-24.57-7.42
						l0,0c-9.38,4.51-14.34,22.45-10.21,31.04l6.4,9.51C271.09,540.56,281.46,538.13,290.84,533.61z"/>
				</g>
			</g>
			<g>
				<g>
					<path class="st1" d="M285.99,527.07l7.96,24.51c0,0-6.32-0.73-12.46,2.5l-18.15-27.81
						C263.35,526.26,276.62,510.53,285.99,527.07z"/>
				</g>
			</g>
			<g>
				<g>
					<path class="st1" d="M267.98,578.25c0,0,7.06-16.25,14.71-18.39c0,0,15.7-8.39,26.01,4.21c0,0,3.7,6.29-33.71,16.2
						C274.99,580.28,266.74,582.19,267.98,578.25z"/>
				</g>
			</g>
			<g>
				<g>
					<g>
						<path class="st1" d="M263.87,527.06l3.91-1.27c6.68,3.28,9.22-3.45,12.5-10.14l7.39-15.12c3.27-6.68,0.48-14.82-6.2-18.09l0,0
							c-6.68-3.27-16.48,1.06-19.75,7.74l-2.06,1.95C249.98,507.11,257.18,523.8,263.87,527.06z"/>
					</g>
				</g>
			</g>
			<g>
				<g>
					<path class="st4" d="M309.67,531.66c0,0-11.63,6.77-39.96,14.07l7.17,13.01c0,0,13.1,0,38.07-12.9L309.67,531.66z"/>
					<path class="st5" d="M265.55,543.94l3.46-0.89c27.42-7.08,39.09-13.69,39.26-13.79l2.85-1.65l7.28,19.58l-2.19,1.13
						c-25.28,13.06-38.78,13.21-39.35,13.21h-1.64L265.55,543.94z M308.15,535.55c-4.77,2.29-15.62,6.93-34.3,11.95l4.59,8.34
						c3.91-0.42,15.07-2.37,33.03-11.36L308.15,535.55z"/>
				</g>
				<g>
					<path class="st6" d="M275.35,547.99c0,0,14.17-3.39,26.39-8.1c0,0-2.97,10.8-12.16,13.54l-10.5,3.21L275.35,547.99z"/>
				</g>
			</g>
			<g>
				<path class="st0" d="M284.27,544.94c0,0-7.06,2.51-11.38,2.68l5.9,10.25C278.79,557.87,289.27,554.58,284.27,544.94z"/>
			</g>
		</g>
		<g>
			<g>
				<g>
					<path class="st2" d="M401.81,497.25c0,0,14.21,0.86,27.52-0.35c0,0,12.48-2.09,13.69,6.58c0,0-4.15,39.75-4.37,42.09
						c0,0-0.62,7.84-2.81,10.09c0,0-9.86,6.76-18.58-17.11l-3.88-4.21l-45.37,6.08l-6.57-0.81l-5.66-2.52l5.92-41.69L401.81,497.25z
						"/>
				</g>
				<g>
					<path class="st3" d="M445.73,503.1l0.05,0.33l-0.03,0.33c-0.04,0.4-4.15,39.77-4.37,42.02c-0.16,2.07-0.91,9.04-3.59,11.78
						l-0.41,0.34c-0.35,0.24-3.56,2.31-8.08,0.86c-5.6-1.79-10.45-8.11-14.42-18.77l-2.55-2.76l-44.3,5.93l-7.33-0.9l-7.92-3.52
						l6.57-46.2l42.59,1.97l0.04,0c0.14,0.01,14.1,0.82,27.02-0.34c1.23-0.19,8.22-1.1,12.88,2.32c2.1,1.54,3.43,3.77,3.84,6.46
						C445.72,503.01,445.72,503.05,445.73,503.1z M364.07,498.24l-5.29,37.19l3.39,1.51l5.82,0.72l46.43-6.22l5.22,5.65l0.19,0.51
						c4.39,12.03,8.77,15.13,11,15.9c1.58,0.55,2.76,0.2,3.23,0c0.75-1.17,1.59-4.78,1.86-8.2c0.22-2.23,3.9-37.5,4.34-41.75
						c-0.22-1.15-0.74-1.99-1.62-2.64c-2.52-1.86-7.26-1.58-8.86-1.32l-0.1,0.01l-0.1,0.01c-13.25,1.2-27.09,0.41-27.91,0.36
						L364.07,498.24z"/>
				</g>
			</g>
			<g>
				<g>
					<path class="st2" d="M383.63,537.99l-0.54-2.71c11.35-7.97,14.11-23.77,6.14-35.11l-7.11-10.13
						c-7.97-11.33-23.77-14.1-35.11-6.13l0,0c-11.34,7.96-11.75,23.43-3.98,38.91l1.97,5.49
						C352.97,539.65,372.27,545.95,383.63,537.99z"/>
				</g>
				<g>
					<path class="st3" d="M396.09,519.45c-1.18,6.77-4.7,12.73-9.99,16.97l0.55,2.78l-1.46,1.03c-13.05,9.16-33.89,1.82-42.45-10.35
						l-0.21-0.3l-2.04-5.69c-8.84-17.72-6.95-33.89,4.93-42.23c12.6-8.85,30.06-5.8,38.93,6.8l7.11,10.13
						c2.5,3.55,4.1,7.56,4.74,11.75C396.66,513.32,396.63,516.39,396.09,519.45z M345.47,521.58l1.97,5.44
						c6.74,9.24,22.97,15.15,33.13,9.64l-0.52-2.61l1.46-1.03c4.89-3.43,8.15-8.59,9.19-14.52c1.04-5.93-0.29-11.89-3.72-16.78
						l-7.1-10.13c-7.13-10.14-21.17-12.59-31.3-5.47c-6.52,4.58-9.13,12.37-7.71,21.68C341.53,512.14,343.06,516.78,345.47,521.58z"
						/>
				</g>
			</g>
			<g>
				<g>
					<path class="st3" d="M396.13,519.45c-1.19,6.78-4.71,12.74-9.99,16.98l0.54,2.78l-1.47,1.03c-13.05,9.18-32.68,3.32-41.24-8.87
						l-0.22-0.3l-3.28-7.17c-8.85-17.73-6.96-33.92,4.95-42.27c6.08-4.28,13.51-5.92,20.89-4.64c7.38,1.29,13.8,5.36,18.08,11.46
						l7.11,10.12c0.77,1.09,1.45,2.23,2.05,3.41C396.26,507.33,397.18,513.41,396.13,519.45z M363.78,537.72
						c6.3,1.74,12.29,1.33,16.75-1.08l-0.5-2.6l1.47-1.03c10.12-7.11,12.57-21.13,5.46-31.25l-7.11-10.12
						c-3.43-4.89-8.58-8.14-14.5-9.18c-5.93-1.04-11.88,0.28-16.75,3.71c-9.53,6.68-10.71,20.25-3.1,35.4l1.97,5.44
						C351.02,531.88,357.09,535.87,363.78,537.72z"/>
				</g>
			</g>
			<g>
				<g>
					<path class="st2" d="M397.59,514.09l4.31,1.61c7.23-3.38,9.7-15.42-19.88-17.86l-14.64-1.55c-9.52,0.41-16.94,9.27-16.49,19.67
						l0,0c0.45,10.4,15,22.01,24.53,21.59l11.26-2.15C396.21,534.98,398.05,524.49,397.59,514.09z"/>
				</g>
			</g>
			<g>
				<g>
					<path class="st1" d="M389.66,515.98l25.67,2.32c0,0-3.16,5.53-2.6,12.44l-32.71,5.74
						C380.02,536.48,370.77,518.09,389.66,515.98z"/>
				</g>
			</g>
			<g>
				<g>
					<path class="st1" d="M429.65,552.66c0,0-12.16-12.88-11.13-20.76c0,0-1.54-17.73,14.11-22.25c0,0,7.23-0.93,1.64,37.36
						C434.27,547.01,432.78,555.35,429.65,552.66z"/>
				</g>
			</g>
			<g>
				<g>
					<g>
						<path class="st1" d="M380.96,536.31l0.37-4.09c5.64-4.85,0.45-9.84-4.41-15.47l-11-12.74c-4.86-5.64-13.44-6.27-19.07-1.41
							l0,0c-5.63,4.86-5.51,15.56-0.65,21.2l0.98,2.66C357.15,541.24,375.33,541.17,380.96,536.31z"/>
					</g>
				</g>
			</g>
			<g>
				<g>
					<path class="st4" d="M403.19,496.02c0,0,1.65,13.35-2.77,42.27l14.79-1.47c0,0,5.15-12.05,3.11-40.07L403.19,496.02z"/>
					<path class="st5" d="M397.68,537.87c4.28-28,2.79-41.32,2.76-41.51l-0.4-3.27l20.87,1.01l0.18,2.45
						c2.06,28.37-3.11,40.85-3.33,41.36l-0.65,1.51l-19.98,1.98L397.68,537.87z M415.71,499.4l-9.53-0.46
						c0.23,5.29,0.23,17.09-2.5,36.23l9.47-0.94C414.3,530.43,416.9,519.31,415.71,499.4z"/>
				</g>
				<g>
					<path class="st6" d="M404.72,533.99c0,0,2.46-14.36,2.93-27.44c0,0,8.76,6.98,7.67,16.51l-1.18,10.92L404.72,533.99z"/>
				</g>
			</g>
			<g>
				<path class="st0" d="M405.42,524.59c0,0-0.47,7.48-2.01,11.51l11.75-1.39C415.16,534.71,416.25,523.79,405.42,524.59z"/>
			</g>
		</g>
		<g>
			<g>
				<g>
					<path class="st2" d="M258.55,430.59c8.84,8.28,49.36,8.53,49.36,8.53s-58.09-12.25,0,0c58.09,12.25,109.78-18.36,109.78-18.36
						s-0.92,2.17,0,0c0.92-2.17-5.87-38.04-5.87-38.04s-6.66-32.75-40.07-52.66c0,0-57.29,28.06-90.06,1.9
						c0,0-29.76,13.37-29.78,93.97l6.54,5.77l-7.73-2.32C250.73,429.39,258.32,430.38,258.55,430.59z"/>
					<path class="st3" d="M307.61,441.9c-4.76-0.04-33.53-0.54-46.61-6.52l-11.07-3.32l0.75-3.5l-1.54-1.36v-1.25
						c0.02-81.46,30.13-95.93,31.41-96.5l1.55-0.69l1.32,1.06c31,24.74,86.55-1.95,87.11-2.23l1.35-0.66l1.29,0.77
						c34.07,20.31,41.08,53.1,41.37,54.53c3.61,19.07,5.11,28.78,5.66,33.85l3.35-1.98l-3.31,7.77c0,0-0.01,0.01-0.01,0.01
						l-0.41,0.97l-1.24-0.53l0.51,0.86c-1.78,1.05-37.22,21.67-82.6,21.67C327.22,444.83,317.52,443.97,307.61,441.9z M409.1,383.28
						c-0.06-0.31-6.7-30.99-37.51-50.07c-9.12,4.19-58.73,25.19-90.1,2.09c-5.57,3.78-26.52,22.46-26.79,89.38l3.33,2.93
						c1.76,0.32,1.99,0.53,2.42,0.94l0,0c3.22,3.02,12.01,4.93,21.44,6.1l0.78-3.71l25.82,5.45c51.3,10.82,98.18-12.79,106.49-17.3
						C414.66,414.4,411.89,398.01,409.1,383.28z"/>
				</g>
				<g>
					<path class="st1" d="M339.38,381.17c0,0-34.73,4.2-76.31-15.25c0,0-6.87,25.43,2.27,55.16c0,0,46.77,14.36,84.36,5.65
						C349.7,426.72,373.35,387.29,339.38,381.17z"/>
				</g>
			</g>
			<g>
				<path class="st7" d="M386.07,342.19c0,0-28.99,40.8-71.81,41.37c0,0-40.12-0.01-46.28-30.37c0,0-3.03-5.19,3.4-17
					c0,0-0.39-8.58-8.29,1.87c0,0-8.71,19.41,7.65,38.77c0,0,24.43,29.37,76.49,9.81c0,0,32.89-13.61,49.91-43.86
					c0,0,4.46-4.22,0.3-8.3C397.44,334.48,392.5,330.07,386.07,342.19z"/>
				<path class="st8" d="M269.15,378.17c-17.01-20.14-8.34-40.13-7.96-40.97l0.24-0.4c3.64-4.82,6.38-6.62,8.89-5.85
					c2.81,0.87,3.11,4.43,3.14,5.14l0.03,0.58l-0.28,0.51c-5.64,10.35-3.43,14.96-3.43,14.96l0,0l0.17,0.3l0.07,0.34
					c5.74,28.31,43.85,28.7,44.21,28.7c40.21-0.54,68.43-38.16,70.07-40.4c3-5.61,6.23-8.75,9.61-9.36
					c2.89-0.52,4.72,1.03,4.99,1.27c1.59,1.56,2.42,3.41,2.4,5.35c-0.02,2.82-1.79,4.97-2.48,5.7
					c-17.21,30.36-49.42,43.96-50.85,44.55c-13.13,4.93-24.58,6.79-34.39,6.79C283.92,395.38,269.33,378.39,269.15,378.17z
					 M394.64,335.82c-1.17,0.21-3.6,1.44-6.73,7.34l-0.14,0.23c-1.21,1.7-30.1,41.67-73.51,42.25c-0.42,0-41.67-0.38-48.26-31.77
					c-0.7-1.54-2.47-7.28,3.24-18.09c-0.05-0.28-0.13-0.56-0.22-0.75c-0.48,0.21-1.77,1.02-4.11,4.08
					c-0.81,2.02-7.06,19.24,7.43,36.39c0.24,0.28,24.06,28.02,74.1,9.22c0.32-0.13,32.44-13.72,48.89-42.96l0.16-0.28l0.23-0.22
					c0.01-0.01,1.41-1.4,1.42-2.96c0.01-0.8-0.37-1.57-1.08-2.27c0,0-0.37-0.25-0.99-0.25
					C394.93,335.78,394.79,335.79,394.64,335.82z"/>
			</g>
			<g>
				<path class="st9" d="M261.67,346.61c0,0-0.54,23.7,16.11,33.8c0,0-0.55-1.49,2.77-2.05
					C280.55,378.36,266.6,372.45,261.67,346.61z"/>
			</g>
			<g>
				<path class="st9" d="M370.27,363.61c0.59-0.65-18.61,15.5-47.39,21.2c0,0-0.46,2.78,5.66,2.26
					C328.54,387.07,352.59,382.97,370.27,363.61z"/>
			</g>
			<g>
				<g>
					<g>
						<g>
							<path class="st10" d="M319.34,441.76c0,0-22.05,28.58-15.77,55.59c0,0,2.2,14.81,18.24,15.86c0,0,20.47,0.46,21.9-18.78
								c0,0,6.36-24.8-13.18-51.82L319.34,441.76z"/>
							<path class="st11" d="M321.63,515.99c-14.36-0.95-19.86-12.19-20.79-18.11c-6.43-27.94,15.37-56.6,16.3-57.81l0.92-1.19
								l13.97,1.07l0.75,1.04c19.24,26.61,14.35,50.99,13.68,53.88c-1.38,16.75-16.14,21.12-24.33,21.12
								C321.96,515.99,321.79,515.99,321.63,515.99z M320.68,444.65c-3.92,5.57-19.61,29.69-14.4,52.08l0.04,0.21
								c0.08,0.52,2.15,12.62,15.55,13.51c0.73,0.01,17.86,0.12,19.08-16.21l0.08-0.48c0.06-0.23,5.66-23.21-12-48.46L320.68,444.65
								z"/>
						</g>
						<g>
							<path class="st12" d="M326.62,444.36c0,0-5.75,20.33-4.56,66.08c0,0,19.97-1.86,18.9-20.3
								C340.96,490.14,346.68,465.05,326.62,444.36z"/>
						</g>
						<g>
							<path class="st9" d="M304.44,496.06c0,0,8.58-9.67,18.13-13.91c0,0,11.14,4.96,19.59,12.85c0,0,0.88-3.41,0.46-9.16
								c0,0-10.86-10.31-20.03-12.15c0,0-10.25,3.16-18.8,13.07C303.78,486.76,303.49,489.91,304.44,496.06z"/>
						</g>
						<g>
							<path class="st9" d="M305.66,473.55c0,0,9.27-7.36,17.59-10.35c0,0,12.21,4.8,19.01,11.64c0,0,0.24-2.72-1.34-8.29
								c0,0-9.53-8.3-17.24-10.24c0,0-7.32,1.53-15.08,9.19C308.6,465.49,307.61,467.21,305.66,473.55z"/>
						</g>
					</g>
					<g>
						<path class="st11" d="M322.36,442.48c-0.42,5.15-0.68,10.27-0.88,15.4c-0.2,5.13-0.32,10.26-0.35,15.39
							c-0.03,5.13-0.01,10.26,0.12,15.39c0.1,5.13,0.34,10.26,0.61,15.38c0.02-5.12,0.08-10.24,0.27-15.36
							c0.16-5.12,0.43-10.23,0.76-15.34c0.32-5.11,0.74-10.21,1.23-15.3c0.49-5.09,1.05-10.19,1.75-15.22L322.36,442.48z"/>
					</g>
				</g>
				<g>
					<g>
						<g>
							<path class="st10" d="M292.91,440.32c0,0-24.57,28.75-20.88,55.98c0,0,0.79,14.92,16.6,16.02c0,0,20.26,0.51,23.5-18.87
								c0,0,8.64-24.98-8.2-52.24L292.91,440.32z"/>
							<path class="st11" d="M288.44,515.09c-14.35-1-18.81-12.49-19.18-18.53c-3.74-28.11,20.5-56.83,21.53-58.05l0.92-1.08
								l13.84,1.12l0.74,1.19c16.67,26.98,9.45,51.56,8.54,54.37c-2.9,16.64-17.77,20.97-25.85,20.97
								C288.81,515.1,288.62,515.09,288.44,515.09z M294.15,443.2c-4.27,5.38-22.46,29.89-19.36,52.72l0.02,0.21
								c0.03,0.51,0.93,12.5,13.89,13.41c0.72,0.02,17.91,0.16,20.7-16.55l0.11-0.44c0.08-0.24,7.72-23.41-7.22-48.68L294.15,443.2z
								"/>
						</g>
						<g>
							<path class="st12" d="M299.89,442.95c0,0-7.62,20.47-10.74,66.57c0,0,19.99-1.84,20.66-20.41
								C309.81,489.12,317.85,463.84,299.89,442.95z"/>
						</g>
						<g>
							<path class="st9" d="M273.02,494.99c0,0,9.43-9.73,19.3-13.98c0,0,10.58,5.02,18.23,12.99c0,0,1.19-3.43,1.31-9.23
								c0,0-9.81-10.41-18.73-12.28c0,0-10.47,3.17-19.89,13.13C273.23,485.62,272.66,488.8,273.02,494.99z"/>
						</g>
						<g>
							<path class="st9" d="M276.34,472.32c0,0,9.89-7.39,18.43-10.39c0,0,11.67,4.87,17.77,11.77c0,0,0.5-2.74-0.55-8.35
								c0,0-8.68-8.38-16.15-10.35c0,0-7.4,1.52-15.82,9.22C280.02,464.21,278.88,465.94,276.34,472.32z"/>
						</g>
					</g>
					<g>
						<path class="st11" d="M295.84,441.06c-0.9,5.19-1.64,10.34-2.33,15.52c-0.68,5.17-1.28,10.34-1.8,15.51
							c-0.52,5.17-0.97,10.34-1.33,15.5c-0.38,5.17-0.63,10.33-0.84,15.49c0.51-5.16,1.05-10.32,1.71-15.48
							c0.64-5.15,1.39-10.31,2.2-15.45c0.8-5.15,1.7-10.28,2.66-15.41c0.97-5.12,2-10.26,3.17-15.33L295.84,441.06z"/>
					</g>
				</g>
				<g>
					<g>
						<g>
							<path class="st10" d="M263.34,431.51c0,0-26.51,28.33-24.94,55.89c0,0-0.35,15.07,15.21,16.6c0,0,20.02,1.05,24.7-18.41
								c0,0,10.46-24.96-4.12-52.9L263.34,431.51z"/>
							<path class="st11" d="M253.33,506.77c-14.25-1.4-17.81-13.18-17.71-19.31c-1.55-28.38,24.58-56.65,25.69-57.84l0.95-1.02
								l13.7,1.51l0.69,1.31c14.46,27.7,5.4,52.3,4.31,55.04c-4.01,16.18-18.35,20.34-26.46,20.34
								C254.09,506.8,253.7,506.79,253.33,506.77z M264.46,434.43c-4.56,5.23-24.61,29.62-23.29,52.82l0.01,0.11l0,0.11
								c-0.01,0.51-0.15,12.51,12.57,13.76c0.73,0.03,17.79,0.63,21.86-16.28l0.14-0.42c0.1-0.24,9.43-23.38-3.36-49.23
								L264.46,434.43z"/>
						</g>
						<g>
							<path class="st12" d="M270.04,434.36c0,0-9.1,20.44-15.71,66.84c0,0,19.92-1.32,22.01-20.03
								C276.34,481.17,286.22,455.9,270.04,434.36z"/>
						</g>
						<g>
							<path class="st9" d="M239.47,486.12c0,0,10.08-9.56,20.16-13.58c0,0,10.09,5.35,17.05,13.59c0,0,1.44-3.43,2-9.27
								c0,0-8.91-10.76-17.61-12.89c0,0-10.61,2.91-20.68,12.71C240.4,476.67,239.59,479.86,239.47,486.12z"/>
						</g>
						<g>
							<path class="st9" d="M244.5,463.34c0,0,10.35-7.19,19.03-9.99c0,0,11.18,5.22,16.68,12.34c0,0,0.7-2.75,0.1-8.44
								c0,0-7.95-8.68-15.19-10.87c0,0-7.45,1.34-16.37,8.88C248.76,455.26,247.49,456.98,244.5,463.34z"/>
						</g>
					</g>
					<g>
						<path class="st11" d="M266.19,432.34c-1.29,5.21-2.42,10.39-3.49,15.58c-1.07,5.19-2.06,10.39-2.96,15.59
							c-0.91,5.2-1.76,10.4-2.5,15.6c-0.77,5.2-1.41,10.4-2.02,15.6c0.89-5.19,1.82-10.38,2.88-15.56
							c1.03-5.18,2.16-10.36,3.35-15.52c1.19-5.17,2.47-10.32,3.81-15.47c1.35-5.14,2.76-10.29,4.31-15.38L266.19,432.34z"/>
					</g>
				</g>
				<g>
					<g>
						<g>
							<path class="st10" d="M398.1,433.52c0,0-12.28,31.92-0.51,56.06c0,0,5.38,13.51,19.45,10.94c0,0,17.74-4.12,14.46-22.62
								c0,0-0.36-24.86-23.55-46.05L398.1,433.52z"/>
							<path class="st11" d="M395.05,490.71c-12.08-24.93-0.06-56.83,0.46-58.18l0.57-1.47l12.74-2.17l1,0.91
								c22.86,20.9,24.35,45.02,24.45,47.83c2.82,16.54-9.61,23.98-16.73,25.63c-1.37,0.25-2.67,0.36-3.92,0.36
								C403.19,503.62,397.02,495.55,395.05,490.71z M400.18,435.98c-2.15,6.4-9.81,32.43-0.09,52.38l0.08,0.19
								c0.19,0.47,4.68,11.38,16.24,9.27c0.62-0.14,15.15-3.7,12.35-19.43l-0.04-0.44c0-0.23-0.67-23.27-21.66-43.13L400.18,435.98z
								"/>
						</g>
						<g>
							<path class="st12" d="M404.98,434.36c0,0-0.17,20.5,11.62,63.48c0,0,16.77-6.2,11.51-23.39
								C428.12,474.45,427.14,449.46,404.98,434.36z"/>
						</g>
						<g>
							<path class="st9" d="M398.04,488.16c0,0,5.12-11.05,12.35-17.18c0,0,10.76,2.21,19.9,7.79c0,0-0.04-3.42-1.76-8.76
								c0,0-11.78-7.33-20.12-7.03c0,0-8.09,5.27-13.13,16.54C395.28,479.52,395.78,482.56,398.04,488.16z"/>
						</g>
						<g>
							<path class="st9" d="M393.79,466.61c0,0,6.26-9.01,12.72-13.7c0,0,11.65,1.83,19.12,6.77c0,0-0.43-2.62-3.1-7.54
								c0,0-10.17-5.73-17.26-5.84c0,0-5.95,3.07-10.83,12.04C394.44,458.34,393.99,460.19,393.79,466.61z"/>
						</g>
					</g>
					<g>
						<path class="st11" d="M400.88,433.53c0.85,4.97,1.83,9.86,2.86,14.76c1.04,4.89,2.13,9.77,3.32,14.63
							c1.17,4.86,2.4,9.7,3.72,14.52c1.3,4.82,2.71,9.62,4.14,14.4c-1.18-4.85-2.34-9.7-3.38-14.59c-1.07-4.87-2.04-9.76-2.96-14.66
							c-0.92-4.9-1.76-9.81-2.54-14.74c-0.77-4.92-1.49-9.86-2.07-14.78L400.88,433.53z"/>
					</g>
				</g>
				<g>
					<g>
						<g>
							<path class="st10" d="M366.43,439.76c0,0-9.77,33.58,3.58,56.49c0,0,6.29,12.96,19.95,8.71c0,0,17.18-6.25,12.59-24.48
								c0,0-2.16-24.98-26.55-43.57L366.43,439.76z"/>
							<path class="st11" d="M367.56,497.56c-13.71-23.66-4.2-57.16-3.79-58.57l0.42-1.45l12.38-3.69l1.12,0.86
								c24.1,18.37,27.31,42.51,27.61,45.31c3.96,16.22-7.66,25.12-14.51,27.6c-2.18,0.68-4.22,0.97-6.13,0.97
								C375.6,508.59,369.69,501.89,367.56,497.56z M399.86,481.16l-0.07-0.43c-0.02-0.23-2.35-23.28-24.36-40.75l-6.71,2
								c-1.61,6.54-7.38,33.89,3.68,52.88l0.09,0.18c0.22,0.44,5.45,10.71,16.56,7.31C390.21,501.89,403.68,496.35,399.86,481.16z"
								/>
						</g>
						<g>
							<path class="st12" d="M373.27,439.79c0,0,1.33,20.66,16.07,62.52c0,0,16.06-8.22,9.63-24.9
								C398.97,477.42,396.19,452.37,373.27,439.79z"/>
						</g>
						<g>
							<path class="st9" d="M370.34,494.77c0,0,4.24-11.73,10.91-18.76c0,0,10.76,0.95,20.18,5.49c0,0-0.29-3.44-2.37-8.61
								c0,0-12.14-5.98-20.33-4.69c0,0-7.59,6.27-11.73,18.2C367,486.4,367.71,489.4,370.34,494.77z"/>
						</g>
						<g>
							<path class="st9" d="M364.59,473.58c0,0,5.51-9.81,11.54-15.3c0,0,11.61,0.46,19.32,4.56c0,0-0.61-2.59-3.61-7.22
								c0,0-10.43-4.56-17.42-3.84c0,0-5.63,3.8-9.79,13.4C364.62,465.18,364.32,467.1,364.59,473.58z"/>
						</g>
					</g>
					<g>
						<path class="st11" d="M369.17,439.45c1.2,4.9,2.52,9.71,3.89,14.52c1.38,4.8,2.82,9.58,4.33,14.33
							c1.52,4.75,3.07,9.48,4.73,14.17c1.63,4.7,3.36,9.36,5.13,14c-1.52-4.74-3.01-9.49-4.39-14.28
							c-1.41-4.78-2.72-9.59-3.98-14.41c-1.27-4.82-2.45-9.67-3.58-14.53c-1.12-4.86-2.19-9.75-3.12-14.63L369.17,439.45z"/>
					</g>
				</g>
				<g>
					<g>
						<g>
							<path class="st10" d="M343.05,442.49c0,0-14.33,31.53-4.71,57.25c0,0,4.22,14.28,18.08,12.9c0,0,17.55-2.64,15.75-21.84
								c0,0,1.52-25.44-19.43-49.15L343.05,442.49z"/>
							<path class="st11" d="M335.71,500.62c-9.85-26.46,4.21-57.95,4.81-59.28l0.67-1.48l12.71-1.11l0.93,1.05
								c20.66,23.38,20.25,48.14,20.13,50.93c1.5,17.1-11.18,23.6-18.12,24.64l-0.14,0.02c-0.72,0.07-1.42,0.11-2.1,0.11
								C343.27,515.5,337.34,506.02,335.71,500.62z M369.41,491.05l-0.02-0.21l0.01-0.21c0.01-0.24,1.18-23.81-17.83-46.09
								l-6.62,0.58c-2.58,6.39-11.99,32.36-4.02,53.65l0.06,0.19c0.15,0.49,3.7,12.01,15.07,10.93
								C357.27,509.68,370.92,507.08,369.41,491.05z"/>
						</g>
						<g>
							<path class="st12" d="M349.67,443.96c0,0-1.7,20.93,6.53,65.9c0,0,16.76-4.86,12.95-22.89
								C369.15,486.97,370.08,461.34,349.67,443.96z"/>
						</g>
						<g>
							<path class="st9" d="M338.88,498.33c0,0,5.81-10.84,13.29-16.47c0,0,10.3,3.21,18.77,9.73c0,0,0.21-3.5-1.06-9.11
								c0,0-10.9-8.53-19.03-8.96c0,0-8.26,4.67-14,15.74C336.85,489.25,337.1,492.4,338.88,498.33z"/>
						</g>
						<g>
							<path class="st9" d="M336.37,475.93c0,0,6.76-8.66,13.39-12.88c0,0,11.19,2.9,18.08,8.61c0,0-0.22-2.72-2.45-7.98
								c0,0-9.45-6.75-16.34-7.5c0,0-6.01,2.61-11.43,11.34C337.62,467.53,337.04,469.38,336.37,475.93z"/>
						</g>
					</g>
					<g>
						<path class="st11" d="M345.75,442.75c0.46,5.15,1.04,10.24,1.67,15.34c0.64,5.09,1.34,10.17,2.13,15.24
							c0.78,5.07,1.61,10.13,2.53,15.17c0.9,5.04,1.91,10.07,2.95,15.08c-0.79-5.06-1.55-10.12-2.2-15.2
							c-0.67-5.07-1.24-10.16-1.77-15.25c-0.53-5.09-0.97-10.18-1.36-15.28c-0.38-5.09-0.71-10.21-0.91-15.29L345.75,442.75z"/>
					</g>
				</g>
				<g>
					<g>
						<path class="st4" d="M249.85,456.98c0,0,82.06,33.52,169.57-5.77c0,0,3.26-3.96,3.06-7.08c0,0-0.76-18.9-1.58-22.98
							c-0.68-3.41-2.16-4.54-5.18-2.08c0,0-43.65,35.91-163.66,8.15c0,0-1.41-7.31-5.26,0.17
							C246.81,427.41,243.8,456.6,249.85,456.98z"/>
						<path class="st5" d="M249.15,459.69c-0.86-0.16-1.93-0.6-2.89-1.73c-4.46-5.28-2.82-24.94-2.21-30.83l0.05-0.52l0.24-0.47
							c0.75-1.46,2.74-5.33,6.13-4.84c2.09,0.3,3.21,2.09,3.8,3.59c115.72,26.37,159.27-7.61,159.71-7.96
							c0.81-0.66,3.28-2.67,6.01-1.69c2.77,1,3.43,4.29,3.65,5.37c0.84,4.17,1.55,21.46,1.63,23.36c0.25,4-3.03,8.21-3.69,9.01
							l-0.41,0.5l-0.59,0.27c-32.53,14.6-64.47,19.21-91.82,19.21C284.88,472.96,252.83,461.11,249.15,459.69z M419.72,444.25
							c-0.21-5.2-0.89-19.38-1.53-22.55c-0.07-0.35-0.14-0.63-0.21-0.84c-0.14,0.09-0.3,0.21-0.49,0.37
							c-1.31,1.08-24.47,19.39-81.78,19.38c-22.55,0-50.39-2.84-84.27-10.67l-1.76-0.41l-0.2-1.01
							c-1.15,11.89-0.75,23.56,0.89,25.72l0.52,0.18c0.81,0.33,81.63,32.42,166.75-5.45C418.56,447.71,419.8,445.55,419.72,444.25z"
							/>
					</g>
					<g>
						<path class="st6" d="M247.94,431.38c3.72-5.41,5.09-0.06,5.09-0.06c109.71,22.42,158.37-5.38,158.37-5.38
							c0.8-0.49,1.46,0.58,2.06,0.47c-1.23,9.33-3.7,23.75-21.21,32.6c-94.84,20.92-141.37-4.65-141.37-4.65
							C245.01,453.99,247.94,431.38,247.94,431.38z"/>
					</g>
					<g>
						<path class="st0" d="M404.73,428.93c0,0-58.35,22.83-150.36,2.41c0,0-4.58-0.53-5.8,1.92c0,0-2.72,7.93,0.94,19.66
							c0,0,6.05-0.06,7.96-12.94c0,0,89.86,21.74,142.92-4.82C400.39,435.17,415.76,425.01,404.73,428.93z"/>
					</g>
				</g>
			</g>
			<g>
				<path class="st13" d="M304.48,389.17c0,0-0.72,6.79,7.56,7.86c0,0-1.29,7.21,8.77,14.33c0,0-8.8,6.3-21.5-2.88
					c0,0-20.85-18.12-7.62-37.07c0,0,12.13-3.33,21.72,1.76c0,0,0.67,2.63-0.57,7.64C312.84,380.8,303.57,380.1,304.48,389.17z"/>
				<path class="st3" d="M297.68,410.73l-0.2-0.15c-7.86-6.83-19.67-24.14-8.08-40.76l0.57-0.82l0.97-0.27
					c0.54-0.15,13.32-3.55,23.75,1.98l1.09,0.58l0.3,1.19c0.09,0.34,0.8,3.46-0.56,8.98l-0.57,2.25l-2.32-0.15
					c-0.82-0.05-3.22,0.1-4.47,1.4c-0.79,0.82-1.1,2.15-0.93,3.93l0.03,0.28l-0.03,0.28c-0.04,0.42-0.27,4.11,5.15,4.81l2.76,0.42
					l-0.37,2.77c-0.03,0.23-0.67,5.75,7.63,11.64l3.18,2.25l-3.17,2.27c-0.25,0.18-3.8,2.65-9.53,2.65
					C308.8,416.26,303.59,415,297.68,410.73z M309.32,399.29c-6.56-1.91-7.75-7.53-7.62-10.1c-0.35-4.21,1.16-6.74,2.51-8.12
					c1.94-1.99,4.47-2.7,6.34-2.95c0.22-1.37,0.26-2.42,0.25-3.14c-6.76-2.93-14.71-1.69-17.42-1.13
					c-10.16,15.94,6.14,31.09,7.66,32.45c6.19,4.44,11.19,4.75,14.36,4.18C310.92,406.13,309.63,401.93,309.32,399.29z"/>
			</g>
			<g>
				<path class="st14" d="M303.89,377.3c0,0-8.73,22.47,11.06,33.04c0,0-13.67,3.28-22.96-14.61c0,0-4.74-14.55,1.26-21.07
					C293.24,374.65,294.69,379.13,303.89,377.3z"/>
			</g>
			<g>
				<path class="st0" d="M293.24,374.65c0,0-10.44,18.42,8.23,32.42c0,0-12.19-12.02-4.43-30.14c0,0,7.36,0.96,11.86-1.41
					C308.91,375.52,301.2,369.79,293.24,374.65z"/>
			</g>
		</g>
		<g>
			<g>
				<path class="st2" d="M132.74,334.86c9.3-6.99,16.82-5.19,16.82-5.19l15.67-5.38c21.07,5.97,17.3,30.01,17.3,30.01l4.66,10.08
					l-0.58,8.51c-3.18,12.91-31.26,16.65-31.26,16.65c-13.06-3.7-14.08-18.68-14.08-18.68c-10.32-2.41-6.13-12.4-6.13-12.4
					c-11.57-0.23-6.53-15.23-6.53-15.23L132.74,334.86z"/>
				<path class="st3" d="M154.59,392.22c-11.9-3.37-15.04-14.6-15.84-19.2c-2.84-1.03-4.89-2.73-6.09-5.09
					c-1.28-2.5-1.29-5.16-0.98-7.18c-2.53-0.75-4.06-2.2-4.95-3.47c-3.79-5.39-1.07-13.96-0.75-14.92l4.56-9.31l0.53-0.4
					c8.45-6.35,15.76-6.14,18.24-5.82l15.84-5.44l0.84,0.24c17.98,5.09,20.57,22.84,19.4,32.26l4.62,9.99l-0.63,9.22l-0.07,0.47
					c-3.53,14.34-30.52,18.33-33.59,18.74l-0.57,0.08L154.59,392.22z M184.37,364.9l-4.72-10.2l0.13-0.83
					c0.14-0.87,3.08-21.06-14.5-26.67l-15.59,5.36l-0.78-0.19c-0.06-0.01-6.2-1.26-13.98,4.33l-3.74,7.59
					c-0.6,1.9-1.73,7.22,0.08,9.79c0.27,0.39,1.1,1.56,3.92,1.62l4.08,0.08l-1.58,3.77c-0.01,0.03-1.34,3.43-0.09,5.86
					c0.69,1.35,2.09,2.25,4.29,2.76l2,0.47l0.14,2.05c0.01,0.13,0.99,12.65,11.53,16.03c7.63-1.11,25.86-5.56,28.29-14.27
					L184.37,364.9z"/>
			</g>
			<g>
				<path class="st2" d="M132.74,334.86c9.3-6.99,16.82-5.19,16.82-5.19l15.67-5.38c21.07,5.97,17.3,30.01,17.3,30.01l4.66,10.08
					l-0.58,8.51c-3.18,12.91-31.26,16.65-31.26,16.65c-13.06-3.7-14.08-18.68-14.08-18.68c-10.32-2.41-6.13-12.4-6.13-12.4
					c-11.57-0.23-6.53-15.23-6.53-15.23L132.74,334.86z"/>
				<path class="st3" d="M154.59,392.22c-11.9-3.37-15.04-14.6-15.84-19.2c-2.84-1.03-4.89-2.73-6.09-5.09
					c-1.28-2.5-1.29-5.16-0.98-7.18c-2.53-0.75-4.06-2.2-4.95-3.47c-3.79-5.39-1.07-13.96-0.75-14.92l4.56-9.31l0.53-0.4
					c8.45-6.35,15.76-6.14,18.24-5.82l15.84-5.44l0.84,0.24c17.98,5.09,20.57,22.84,19.4,32.26l4.62,9.99l-0.63,9.22l-0.07,0.47
					c-3.53,14.34-30.52,18.33-33.59,18.74l-0.57,0.08L154.59,392.22z M184.37,364.9l-4.72-10.2l0.13-0.83
					c0.14-0.87,3.08-21.06-14.5-26.67l-15.59,5.36l-0.78-0.19c-0.06-0.01-6.2-1.26-13.98,4.33l-3.74,7.59
					c-0.6,1.9-1.73,7.22,0.08,9.79c0.27,0.39,1.1,1.56,3.92,1.62l4.08,0.08l-1.58,3.77c-0.01,0.03-1.34,3.43-0.09,5.86
					c0.69,1.35,2.09,2.25,4.29,2.76l2,0.47l0.14,2.05c0.01,0.13,0.99,12.65,11.53,16.03c7.63-1.11,25.86-5.56,28.29-14.27
					L184.37,364.9z"/>
			</g>
			<g>
				<g>
					<path class="st15" d="M105.67,331.44c0,0,43.03-2.47,67.8-25.41c0,0,5.04-5.78-2.69-9.3c0,0-24.99,15.45-31.58,18.26
						c0,0-27.68,8.01-36.83,9.31C102.38,324.31,99.1,333.1,105.67,331.44z"/>
				</g>
				<g>
					<path class="st16" d="M172.53,295.61c0,0-30.2,19.17-69.5,28.01c0,0-5.07,11.4,4.03,15.39c0,0,14.25,2.34,28.68-3.26
						l14.98,44.61c0,0,12.09,0.61,20.76-12.47l-15.26-42.22C156.21,325.67,193.6,305.22,172.53,295.61z"/>
				</g>
				<g>
					<path class="st17" d="M172.98,375.77c0,0,14.7,0.43,15.33,7.47l-1.8,9.84c0,0-15.46-3.6-22.02,16.37l-11.19-1.31
						c0,0-5.55-7.94,3.18-22.97L172.98,375.77z"/>
				</g>
				<g>
					<path class="st16" d="M172.53,295.61c0,0-30.2,19.17-69.5,28.01c0,0-5.07,11.4,4.03,15.39c0,0,14.25,2.34,28.68-3.26
						l14.98,44.61c0,0,12.09,0.61,20.76-12.47l-15.26-42.22C156.21,325.67,193.6,305.22,172.53,295.61z"/>
				</g>
				<g>
					<path class="st18" d="M168.63,365.2c0,0,6.84,2.64,5.17,8.6c0,0-7.44,12.25-20.35,10.42c0,0-4.85-2.84-5.36-9.55
						C148.09,374.67,154.13,378.28,168.63,365.2z"/>
				</g>
				<g>
					<path class="st19" d="M147.92,375.27l-15.26-39.88c-16.08,6.72-23.46,1.37-23.46,1.37c-11.57-5.02-6.17-13.14-6.17-13.14
						c36.18-8.62,71.27-27.18,71.27-27.18s12.31,10.25-18.09,29.23l13.98,38.68c0,0,6.88,7.39,4.35,10.98c0,0,9.99,2.22,13.03,5.33
						c0,0,2.75,8.15-1.06,12.42c0,0-18.4-0.07-22.02,16.37l-11.19-1.31c0,0-6.01-8.67,2.08-22.3
						C155.38,385.85,150.58,385.8,147.92,375.27z"/>
					<path class="st3" d="M151.73,410.75l-0.71-1.03c-0.27-0.39-6.13-9.13,0.51-22.59c-2.11-1.54-4.62-4.67-6.25-11.02l-14.21-37.13
						c-13.97,5.03-21.55,1.22-23.17,0.23c-4.6-2.04-7.46-4.84-8.49-8.34c-1.35-4.59,1.04-8.38,1.32-8.8l0.6-0.91l1.06-0.25
						c35.4-8.44,70.27-26.75,70.62-26.93l1.64-0.87l1.43,1.19c1.42,1.18,3.75,4.42,3.44,9.01c-0.5,7.32-7.2,15.22-19.94,23.5
						l13.04,36.07c1.5,1.7,5.15,6.23,5.25,10.41c3.52,0.96,9.15,2.83,11.69,5.42l0.44,0.45l0.2,0.6c0.33,0.99,3.13,9.83-1.62,15.16
						l-0.83,0.93l-1.25,0c0,0,0,0,0,0c-0.25,0-16.2,0.14-19.3,14.2l-0.54,2.45L151.73,410.75z M185.14,382.21
						c-2.14-1.63-7.66-3.38-11.19-4.17l-4.06-0.91l2.4-3.4c0.48-0.69-1.17-4.31-4.11-7.49l-0.39-0.42l-14.93-41.32l1.9-1.19
						c16.06-10.03,18.94-16.98,19.22-20.23c0.12-1.32-0.15-2.36-0.49-3.1c-8.08,4.07-37.94,18.54-68.53,26.03
						c-0.3,0.8-0.6,2.05-0.2,3.34c0.72,2.33,3.42,3.93,5.56,4.86l0.52,0.3c0.06,0.05,6.52,4.27,20.76-1.68l2.64-1.1l16.29,42.56
						l0.1,0.31c1.78,7.06,4.36,8.28,4.9,8.46l5.22-0.78l-2.96,4.99c-5.57,9.39-3.76,15.9-2.71,18.29l7.39,0.87
						c3.92-11.85,15.57-15.63,22.59-16.07C186.26,387.95,185.65,384.13,185.14,382.21z"/>
				</g>
				<g>
					<path class="st20" d="M166.51,301.24c0,0-40.04,20.19-62.17,21.91c0,0-7.19,5.55,3.95,7.35c0,0,18.84,1.79,51.87-18.74
						c0,0,16.85-10.11,13.07-13.31C173.22,298.45,170.7,297.66,166.51,301.24z"/>
					<path class="st3" d="M107.95,332.56c-1.72-0.28-6.93-1.12-7.85-4.74c-0.83-3.27,2.57-6.01,2.96-6.31l0.49-0.38l0.62-0.05
						c20.65-1.6,58-20,61.18-21.59c4.72-3.93,7.9-3.21,8.49-3.02l0.4,0.13l0.32,0.27c0.92,0.78,1.37,1.87,1.28,3.07
						c-0.37,4.6-10.35,11.05-14.59,13.6c-28.29,17.59-46.36,19.09-51.69,19.09C108.63,332.62,108.09,332.57,107.95,332.56z
						 M167.86,302.82l-0.41,0.28c-1.63,0.82-39.86,20-62.26,22.07c-0.67,0.65-1.11,1.4-1.05,1.62c0,0.01,0.49,1,4.39,1.64
						c1.15,0.07,19.52,0.83,50.55-18.46c5.3-3.18,10.19-6.98,11.94-9.16C170.22,301.12,169.16,301.72,167.86,302.82z"/>
				</g>
				<g>
					<path class="st20" d="M165.32,385.21c-0.85,0.65-1.72,2.97-1.58,9.88c0,0,4.77-7.94,13.77-4.98c0,0-9.78,0.36-13.97,16.73
						l-8.22-1.7c0,0-4.7-3.84,2.01-21c0,0,5.02-2.83,8-0.71C165.93,383.86,165.9,384.77,165.32,385.21z"/>
				</g>
				<g>
					<g>
						<path class="st13" d="M121.21,322.61C63.43,217.3,56.22,161.53,56.22,161.53c4.33-48.59,37.71-65.08,37.71-65.08
							c-0.18,2.65,4.88-6.8,3.58,1.32c-7.24,45.13,55.55,211.13,55.55,211.13s-13.5,10.87-27.42,12.04L121.21,322.61z"/>
						<path class="st3" d="M118.77,323.95C61.4,219.38,53.76,164.19,53.46,161.89l-0.04-0.3l0.03-0.3
							c4.41-49.58,37.83-66.62,39.25-67.32l1.2-0.59c1.13-1.12,2.75-2.38,4.69-1.42c2.46,1.21,1.96,4.38,1.65,6.27
							c-7.04,43.89,54.78,208.05,55.41,209.71l0.71,1.88l-1.57,1.26c-0.57,0.46-14.08,11.22-28.54,12.61l-6.33,2.39L118.77,323.95z
							 M94.46,99.71c-0.21,0.03-0.43,0.03-0.65,0c-6.13,3.71-31.06,21.17-34.8,61.75c0.66,4.41,9.81,59.34,63.48,157.71l2.53-0.96
							l0.39-0.03c10.23-0.86,20.47-7.5,24.32-10.25C142.48,288.56,89.74,145.7,94.46,99.71z"/>
					</g>
					<g>
						<path class="st14" d="M130.67,302.11c0,0-60.43-123.6-40.77-199.77c0,0-3.97,1.62-11.74,11.77c0,0-21.26,25.9-12.96,53.26
							c0,0,12.5,68.48,60.63,151.48C125.83,318.84,134.44,309.59,130.67,302.11z"/>
					</g>
					<g>
						<path class="st0" d="M78.16,114.1c0,0-22.26,25.56-18.17,52.81c0,0,11.64,62.53,64.2,152.56l5.14-2.27
							c0,0-54.33-113.3-50.95-198.72C78.38,118.48,78.73,124.3,78.16,114.1z"/>
					</g>
					<g>
						<path class="st21" d="M137.93,317.11c-5.5-13.8-10.72-27.78-15.76-41.79c-5.04-14.02-9.88-28.12-14.38-42.32
							c-4.52-14.2-8.81-28.48-12.46-42.93c-3.64-14.44-6.96-29.01-8.7-43.84c1.27,14.88,4.14,29.58,7.34,44.16
							c3.21,14.6,7.07,29.04,11.15,43.41c4.07,14.38,8.48,28.66,13.1,42.87c4.63,14.21,9.41,28.35,14.52,42.44L137.93,317.11z"/>
					</g>
				</g>
			</g>
			<g>
				<path class="st3" d="M161.99,353.85c-1.02-1.24-1.75-2.64-2.28-4.06c-0.27-0.71-0.48-1.44-0.65-2.17
					c-0.17-0.76-0.31-1.41-0.38-2.35l5.55,0.04c-0.06,0.37-0.06,1.01-0.04,1.53c0.02,0.55,0.07,1.11,0.17,1.63
					c0.18,1.07,0.5,2.09,0.97,2.99c0.48,0.89,1.15,1.6,2,2.15c0.83,0.59,1.93,0.81,3.05,1l2.98,0.52l-2.03,1.74
					c-0.77,0.67-1.57,1.56-2.23,2.45c-0.67,0.91-1.25,1.89-1.7,2.93c-0.43,1.05-0.69,2.17-0.75,3.32c-0.07,1.16,0.2,2.32,0.59,3.45
					c-0.59-1.03-1.1-2.17-1.26-3.42c-0.17-1.23-0.11-2.51,0.15-3.75c0.27-1.23,0.71-2.43,1.26-3.57c0.19-0.38,0.38-0.74,0.59-1.1
					c0.82,0.09,1.63,0.1,2.41,0.07l-0.95-2.26c-0.58,0.73-1.04,1.44-1.46,2.18c-0.7-0.09-1.41-0.24-2.1-0.53
					C164.4,356.09,163,355.09,161.99,353.85z"/>
			</g>
			<g>
				<g>
					<path class="st22" d="M127.89,337.04c6.58-9.15,22.38-5.26,22.38-5.26c-14.08,4.12-2.08,18.1-2.08,18.1
						c-12.53-3.1-16.69,10.15-16.69,10.15c-12.31-4.13-5.92-18.93-5.92-18.93L127.89,337.04z"/>
					<path class="st3" d="M130.62,362.66c-3.95-1.32-6.71-3.71-8.23-7.09c-3.06-6.85,0.49-15.22,0.64-15.58l2.44-4.33l0.16-0.25
						c7.58-10.56,24.58-6.51,25.3-6.33l10.01,2.47l-9.89,2.89c-2.65,0.77-4.22,1.95-4.68,3.49c-1,3.35,2.59,8.58,3.92,10.14
						l5.66,6.59l-8.43-2.09c-9.63-2.38-13.02,7.19-13.37,8.28l-0.85,2.7L130.62,362.66z M141.04,336.36
						c0.28-0.94,0.69-1.81,1.24-2.6c-4.24,0.06-9.28,1.03-12.06,4.78l-2.14,3.77c-0.35,0.89-2.51,6.76-0.62,11
						c0.55,1.23,1.41,2.22,2.59,2.99c2.11-4.13,6.27-8.84,12.71-9.57C141.23,343.79,139.98,339.96,141.04,336.36z"/>
				</g>
				<g>
					<path class="st22" d="M131.23,361.06c6.63-14.68,15.52-11.63,15.52-11.63c8.84,0.52,15.06,11.81,15.06,11.81
						c1.64,7.19-11.14,8.36-11.14,8.36c-13.65,0.82-11.4,7.75-11.4,7.75C125.68,372.41,131.23,361.06,131.23,361.06z"/>
					<path class="st3" d="M138.33,379.96c-5.1-1.85-8.49-4.77-10.06-8.66c-2.2-5.46,0.14-10.77,0.43-11.4
						c6.82-15.1,16.34-13.75,18.51-13.21c10.08,0.82,16.75,12.71,17.03,13.22l0.19,0.34l0.09,0.38c0.52,2.26,0.1,4.41-1.21,6.22
						c-3.32,4.57-11.46,5.44-12.46,5.53c-6.14,0.37-8,2.03-8.52,2.72c-0.54,0.72-0.4,1.4-0.4,1.4v0l1.76,5.41L138.33,379.96z
						 M146.59,352.21l-0.38-0.02l-0.36-0.12c-0.06-0.02-6.66-1.9-12.09,10.14l-0.03,0.06c-0.02,0.04-1.68,3.62-0.29,7
						c0.63,1.54,1.83,2.86,3.58,3.95c0.17-0.39,0.39-0.78,0.66-1.17c2.1-3.07,6.41-4.83,12.74-5.21c2.11-0.19,6.93-1.24,8.39-3.25
						c0.22-0.31,0.43-0.71,0.35-1.38C157.41,359.21,152.33,352.55,146.59,352.21z"/>
				</g>
				<g>
					<path class="st22" d="M146.56,369.21c22.18-2.68,21.18,11.74,21.18,11.74c-1.26,8.79-19.85,11.28-19.85,11.28
						c-9.05-4.38-9.71-13.26-9.71-13.26C139.01,372.53,146.56,369.21,146.56,369.21z"/>
					<path class="st3" d="M146.69,394.74c-10.38-5.02-11.24-15.12-11.27-15.55l-0.02-0.28l0.03-0.28
						c1.01-7.92,9.65-11.8,10.01-11.96l0.38-0.17l0.41-0.05c9.08-1.1,15.83,0.38,20.04,4.38c4.6,4.37,4.26,10.07,4.24,10.32
						l-0.02,0.2c-1.51,10.56-20.11,13.36-22.23,13.64l-0.83,0.11L146.69,394.74z M162.38,374.8c-2.86-2.66-8.06-3.65-15.03-2.88
						c-1.25,0.64-5.66,3.18-6.37,7.12c0.18,1.28,1.31,7,7.38,10.33c5.59-0.9,15.75-3.93,16.61-8.67
						C164.98,380.1,164.88,377.12,162.38,374.8z"/>
				</g>
				<g>
					<g>
						<path class="st23" d="M144.65,371.91c7.22-2.43,13.46,0.75,13.46,0.75c5.68,8.86-8.21,7.42-8.21,7.42
							c1.3,4.44-2.9,7.37-2.9,7.37c-4.98,0.48-8.23-7.2-8.23-7.2C136.88,374.4,144.65,371.91,144.65,371.91z"/>
					</g>
					<g>
						<path class="st3" d="M149.82,372.76c0.15,1.22,0.33,2.43,0.57,3.64c0.24,1.2,0.54,2.39,0.94,3.55
							c0.42,1.14,0.91,2.28,1.88,3.11c-1.22-0.43-2.23-1.42-3.08-2.41c-0.86-1.01-1.62-2.1-2.32-3.21c-0.7-1.12-1.35-2.26-1.96-3.42
							c-0.62-1.18-1.19-2.32-1.74-3.6l5.4-1.29C149.55,370.29,149.67,371.55,149.82,372.76z"/>
					</g>
				</g>
				<g>
					<g>
						<path class="st23" d="M137.53,355.65c6.68-5.89,13.43-1.19,13.43-1.19c6.89,7.96-7.65,7.26-7.65,7.26
							c1.92,4.22-5.59,9.47-5.59,9.47c-4.86,1.19-4.31-2.09-4.31-2.09C130.69,363.59,137.53,355.65,137.53,355.65z"/>
					</g>
					<g>
						<path class="st3" d="M142.76,355.75c0.32,1.19,0.68,2.36,1.08,3.52c0.41,1.16,0.88,2.29,1.44,3.37
							c0.58,1.07,1.23,2.13,2.31,2.81c-1.27-0.25-2.41-1.09-3.39-1.94c-0.99-0.88-1.9-1.84-2.76-2.84c-0.85-1-1.66-2.04-2.43-3.11
							c-0.78-1.08-1.51-2.13-2.24-3.31l5.16-2.05C142.15,353.34,142.45,354.58,142.76,355.75z"/>
					</g>
				</g>
				<g>
					<g>
						<path class="st23" d="M130.59,337.44c6.79-3.44,11-3.12,11-3.12c6.89,7.96-5.9,11.03-5.9,11.03c1.92,4.22-5.58,9.47-5.58,9.47
							c-3.62-0.99-3.64-3.93-3.64-3.93C123.75,345.38,130.59,337.44,130.59,337.44z"/>
					</g>
					<g>
						<path class="st3" d="M134.57,338.13c0.32,1.19,0.68,2.36,1.08,3.52c0.41,1.15,0.88,2.29,1.44,3.37
							c0.58,1.07,1.23,2.13,2.31,2.81c-1.27-0.25-2.41-1.09-3.39-1.94c-0.99-0.87-1.9-1.84-2.76-2.84
							c-0.85-1.01-1.66-2.04-2.43-3.11c-0.78-1.08-1.51-2.13-2.24-3.31l5.16-2.05C133.95,335.72,134.25,336.96,134.57,338.13z"/>
					</g>
				</g>
				<g>
					<g>
						<path class="st22" d="M146.81,330.39l15.47-6.28c3.64-1.56,12.01,5.23,12.01,5.23l-12.57,11.46
							c-0.93,17.6-9.7,15.62-9.7,15.62c-5.47-0.66-6.17-8.83-6.17-8.83C141.37,333.95,146.81,330.39,146.81,330.39z"/>
						<path class="st3" d="M151.6,359.18c-5.85-0.77-8.06-7.11-8.48-11c-4.82-15,1.44-19.62,2.18-20.1l15.9-6.51
							c4.67-2.01,11.95,3.27,14.85,5.63l2.51,2.03l-14.13,12.88c-0.56,7.47-2.63,12.61-6.15,15.28c-2.08,1.58-4.15,1.89-5.46,1.89
							C152.26,359.27,151.84,359.22,151.6,359.18z M163.33,326.68l-15.03,6.1c-0.63,0.72-3,4.23,0.19,13.95l0.13,0.62
							c0.01,0.06,0.69,5.95,3.74,6.32l0.2,0.03c0.05,0.01,1.21,0.18,2.48-0.84c1.28-1.03,3.48-3.99,3.91-12.2l0.06-1.14l10.91-9.95
							C167.09,327.7,164.28,326.4,163.33,326.68z"/>
					</g>
					<g>
						<path class="st23" d="M156.47,340.65c-0.1,12.97-5.64,11.81-5.64,11.81c-4.85-6.25-4.03-19.17-4.03-19.17
							C157.98,330.18,156.47,340.65,156.47,340.65z"/>
					</g>
				</g>
			</g>
			<g>
				<path class="st2" d="M127.89,337.04c6.58-9.15,22.38-5.26,22.38-5.26c-14.08,4.12-2.08,18.1-2.08,18.1
					c-12.53-3.1-16.69,10.15-16.69,10.15c-12.31-4.13-5.92-18.93-5.92-18.93L127.89,337.04z"/>
				<path class="st3" d="M130.62,362.66c-3.95-1.32-6.71-3.71-8.23-7.09c-3.06-6.85,0.49-15.22,0.64-15.58l2.44-4.33l0.16-0.25
					c7.58-10.56,24.58-6.51,25.3-6.33l10.01,2.47l-9.89,2.89c-2.65,0.77-4.22,1.95-4.68,3.49c-1,3.35,2.59,8.58,3.92,10.14
					l5.66,6.59l-8.43-2.09c-9.63-2.38-13.02,7.19-13.37,8.28l-0.85,2.7L130.62,362.66z M141.04,336.36c0.28-0.94,0.69-1.81,1.24-2.6
					c-4.24,0.06-9.28,1.03-12.06,4.78l-2.14,3.77c-0.35,0.89-2.51,6.76-0.62,11c0.55,1.23,1.41,2.22,2.59,2.99
					c2.11-4.13,6.27-8.84,12.71-9.57C141.23,343.79,139.98,339.96,141.04,336.36z"/>
			</g>
			<g>
				<path class="st2" d="M131.23,361.06c6.63-14.68,15.52-11.63,15.52-11.63c8.84,0.52,15.06,11.81,15.06,11.81
					c1.64,7.19-11.14,8.36-11.14,8.36c-13.65,0.82-11.4,7.75-11.4,7.75C125.68,372.41,131.23,361.06,131.23,361.06z"/>
				<path class="st3" d="M138.33,379.96c-5.1-1.85-8.49-4.77-10.06-8.66c-2.2-5.46,0.14-10.77,0.43-11.4
					c6.82-15.1,16.34-13.75,18.51-13.21c10.08,0.82,16.75,12.71,17.03,13.22l0.19,0.34l0.09,0.38c0.52,2.26,0.1,4.41-1.21,6.22
					c-3.32,4.57-11.46,5.44-12.46,5.53c-6.14,0.37-8,2.03-8.52,2.72c-0.54,0.72-0.4,1.4-0.4,1.4v0l1.76,5.41L138.33,379.96z
					 M146.59,352.21l-0.38-0.02l-0.36-0.12c-0.06-0.02-6.66-1.9-12.09,10.14l-0.03,0.06c-0.02,0.04-1.68,3.62-0.29,7
					c0.63,1.54,1.83,2.86,3.58,3.95c0.17-0.39,0.39-0.78,0.66-1.17c2.1-3.07,6.41-4.83,12.74-5.21c2.11-0.19,6.93-1.24,8.39-3.25
					c0.22-0.31,0.43-0.71,0.35-1.38C157.41,359.21,152.33,352.55,146.59,352.21z"/>
			</g>
			<g>
				<path class="st2" d="M146.56,369.21c22.18-2.68,21.18,11.74,21.18,11.74c-1.26,8.79-19.85,11.28-19.85,11.28
					c-9.05-4.38-9.71-13.26-9.71-13.26C139.01,372.53,146.56,369.21,146.56,369.21z"/>
				<path class="st3" d="M146.69,394.74c-10.38-5.02-11.24-15.12-11.27-15.55l-0.02-0.28l0.03-0.28c1.01-7.92,9.65-11.8,10.01-11.96
					l0.38-0.17l0.41-0.05c9.08-1.1,15.83,0.38,20.04,4.38c4.6,4.37,4.26,10.07,4.24,10.32l-0.02,0.2
					c-1.51,10.56-20.11,13.36-22.23,13.64l-0.83,0.11L146.69,394.74z M162.38,374.8c-2.86-2.66-8.06-3.65-15.03-2.88
					c-1.25,0.64-5.66,3.18-6.37,7.12c0.18,1.28,1.31,7,7.38,10.33c5.59-0.9,15.75-3.93,16.61-8.67
					C164.98,380.1,164.88,377.12,162.38,374.8z"/>
			</g>
			<g>
				<g>
					<path class="st1" d="M144.65,371.91c7.22-2.43,13.46,0.75,13.46,0.75c5.68,8.86-8.21,7.42-8.21,7.42
						c1.3,4.44-2.9,7.37-2.9,7.37c-4.98,0.48-8.23-7.2-8.23-7.2C136.88,374.4,144.65,371.91,144.65,371.91z"/>
				</g>
				<g>
					<path class="st3" d="M149.82,372.76c0.15,1.22,0.33,2.43,0.57,3.64c0.24,1.2,0.54,2.39,0.94,3.55
						c0.42,1.14,0.91,2.28,1.88,3.11c-1.22-0.43-2.23-1.42-3.08-2.41c-0.86-1.01-1.62-2.1-2.32-3.21c-0.7-1.12-1.35-2.26-1.96-3.42
						c-0.62-1.18-1.19-2.32-1.74-3.6l5.4-1.29C149.55,370.29,149.67,371.55,149.82,372.76z"/>
				</g>
			</g>
			<g>
				<g>
					<path class="st1" d="M137.53,355.65c6.68-5.89,13.43-1.19,13.43-1.19c6.89,7.96-7.65,7.26-7.65,7.26
						c1.92,4.22-5.59,9.47-5.59,9.47c-4.86,1.19-4.31-2.09-4.31-2.09C130.69,363.59,137.53,355.65,137.53,355.65z"/>
				</g>
				<g>
					<path class="st3" d="M142.76,355.75c0.32,1.19,0.68,2.36,1.08,3.52c0.41,1.16,0.88,2.29,1.44,3.37
						c0.58,1.07,1.23,2.13,2.31,2.81c-1.27-0.25-2.41-1.09-3.39-1.94c-0.99-0.88-1.9-1.84-2.76-2.84c-0.85-1-1.66-2.04-2.43-3.11
						c-0.78-1.08-1.51-2.13-2.24-3.31l5.16-2.05C142.15,353.34,142.45,354.58,142.76,355.75z"/>
				</g>
			</g>
			<g>
				<g>
					<path class="st1" d="M130.59,337.44c6.79-3.44,11-3.12,11-3.12c6.89,7.96-5.9,11.03-5.9,11.03c1.92,4.22-5.58,9.47-5.58,9.47
						c-3.62-0.99-3.64-3.93-3.64-3.93C123.75,345.38,130.59,337.44,130.59,337.44z"/>
				</g>
				<g>
					<path class="st3" d="M134.57,338.13c0.32,1.19,0.68,2.36,1.08,3.52c0.41,1.15,0.88,2.29,1.44,3.37
						c0.58,1.07,1.23,2.13,2.31,2.81c-1.27-0.25-2.41-1.09-3.39-1.94c-0.99-0.87-1.9-1.84-2.76-2.84c-0.85-1.01-1.66-2.04-2.43-3.11
						c-0.78-1.08-1.51-2.13-2.24-3.31l5.16-2.05C133.95,335.72,134.25,336.96,134.57,338.13z"/>
				</g>
			</g>
			<g>
				<g>
					<path class="st2" d="M160.17,342.85c-0.93,17.6-9.7,15.62-9.7,15.62c-5.47-0.66-6.18-8.83-6.18-8.83
						c-8.02-19.57,1.31-20.29,1.31-20.29l5.04-2.48c14.71-3.81,20.31,3.69,20.31,3.69S183.46,339.35,160.17,342.85z"/>
				</g>
				<g>
					<path class="st3" d="M155.8,358.74c0.79-0.29,1.63-0.72,2.47-1.35c3.7-2.8,5.8-8.33,6.23-16.43l-5.55-0.29
						c-0.43,8.21-2.64,11.17-3.91,12.21c-1.27,1.02-2.43,0.85-2.48,0.84l-0.2-0.03c-3.04-0.37-3.74-6.25-3.74-6.31l-0.04-0.42
						l-0.16-0.39c-4.17-10.18-3.05-14.1-2.37-15.31c0.57-1.01,1.35-1.16,1.44-1.18l0.53-0.04l0.38-0.22l4.78-2.35
						c12.73-3.18,18.99,3.67,19.05,3.74l4.15-3.69c-0.35-0.39-8.71-9.55-24.87-5.36l-0.27,0.07l-4.94,2.43
						c-1.12,0.24-3.34,1.03-4.9,3.56c-2.55,4.14-1.97,10.89,1.74,20.07c0.45,3.9,2.68,10.13,8.47,10.89
						C152.17,359.28,153.83,359.45,155.8,358.74z"/>
				</g>
				<g>
					<path class="st1" d="M156.34,336.26c3.63,17.07-6.47,13.59-6.47,13.59c-4.85-6.25-4.86-17.39-4.86-17.39
						C156.2,329.35,156.34,336.26,156.34,336.26z"/>
				</g>
			</g>
		</g>
		<g>
			<g>
				<path class="st3" d="M486.53,379.61c0.5,0.59,1,1.23,1.44,1.93c-0.84,0.13-1.69,0.22-2.62,0.22L486.53,379.61z"/>
			</g>
			<g>
				<path class="st2" d="M431.68,328.77c0,0,27.28,5.63,53.06,25.34c0,0-21.86,15.72-20.41,36.89c0,0-19.67-11.66-36.29-20.67
					c-5.91-3.2-23.88,4.38-36.87,5.92c-15.08,1.79-30.27-23.02-9.88-35.78C384.13,338.71,408.35,325.17,431.68,328.77z"/>
				<path class="st3" d="M462.92,393.39c-0.2-0.12-19.81-11.73-36.19-20.61c-2.69-1.46-11.57,0.84-18.71,2.69
					c-5.58,1.44-11.35,2.94-16.51,3.55c-8.86,1.06-18.14-5.53-21.58-15.3c-3.5-9.95,0.2-19.51,9.91-25.58
					c0.26-0.16,26.55-16.06,52.28-12.1l0.14,0.03c1.14,0.23,28.2,5.99,54.19,25.85l2.97,2.27l-3.04,2.19
					c-0.21,0.15-20.59,15.05-19.26,34.45l0.36,5.27L462.92,393.39z M431.18,331.5c-23.7-3.62-48.16,11.18-48.4,11.33
					c-10.59,6.63-8.85,15.52-7.62,19.03c2.56,7.26,9.45,12.37,15.69,11.64c4.78-0.57,10.37-2.01,15.77-3.41
					c9.73-2.52,18.14-4.69,22.75-2.19c11.93,6.47,25.55,14.37,32.23,18.28c1.3-15.37,13-27.17,18.6-31.98
					C456.71,337.25,432.58,331.81,431.18,331.5z"/>
			</g>
			<g>
				<path class="st1" d="M387.31,371.9c0,0-13.54-4.68,6.07-22.36c0,0,18.4-8.23,35.22-5.96c0,0,24.06,11.84,28.44,14.26
					c0,0-8.74,8.78-5.41,22.88c0,0-22.62-14.04-25.76-14.23c0,0-15.93,2.03-28.51,5.51C397.35,372,390.63,374.42,387.31,371.9z"/>
			</g>
			<g>
				<g>
					<g>
						<path class="st4" d="M448.13,382.82c0,0-0.98-25.69,22.66-39.21l24.32,12.34c0,0-22.91,11.33-26.17,40.03
							C468.93,395.99,455.49,388.31,448.13,382.82z"/>
						<path class="st5" d="M467.56,398.4c-0.55-0.32-13.67-7.82-21.09-13.35l-1.06-0.79l-0.05-1.33
							c-0.04-1.12-0.76-27.53,24.06-41.73l1.3-0.74l30.59,15.53l-4.96,2.46c-0.22,0.11-21.59,10.97-24.64,37.86l-0.48,4.19
							L467.56,398.4z M470.89,346.78c-17.97,11.06-19.82,29.54-19.98,34.64c4.86,3.48,11.75,7.66,15.88,10.11
							c3.62-19.61,15.92-30.64,22.64-35.33L470.89,346.78z"/>
					</g>
					<g>
						<path class="st6" d="M470.68,347.39c0,0-26.63,23.2-2.3,38.86c0,0,3.64-17.55,20.15-29.42L470.68,347.39z"/>
					</g>
				</g>
				<g>
					<path class="st0" d="M489.74,356.14l-19.05-8.74c0,0-12.32,11.08,3.12,29.03C473.8,376.42,480.57,365.1,489.74,356.14z"/>
				</g>
			</g>
			<g>
				<g>
					<path class="st2" d="M502.31,357.58c0,0-9.8-5.31-21.4,8.6c0,0-16.53,15.58-8.78,43.78c0,0,15.21,2.78,19.25,8.7
						c0,0,8.05,3.78,11.78-2.73c0,0,14.14,3.23,14.27-1.71c0,0-1.55-8.92,4.74-16.88c0,0,1.58-5.63-0.95-8.51l1.97-8.04
						c0,0,0.15-0.91-3.23-2.69l1.32-8.15C521.29,369.95,511.23,362.13,502.31,357.58z"/>
					<path class="st3" d="M490.2,421.17l-0.69-0.32l-0.43-0.63c-2.46-3.6-12.01-6.53-17.46-7.53l-1.71-0.31l-0.46-1.68
						c-7.82-28.45,7.68-44.7,9.42-46.41c12.54-14.95,23.7-9.69,24.7-9.18c9.06,4.61,19.01,12.33,19.43,12.65l1.3,1.01l-1.28,7.89
						c1.54,1.02,3.24,2.58,2.93,4.57l-1.72,7.06c2.19,3.9,0.81,9.16,0.63,9.81l-0.15,0.53l-0.35,0.44
						c-5.4,6.82-4.2,14.61-4.18,14.68l0.05,0.27l-0.01,0.28c-0.04,1.51-0.73,2.85-1.93,3.79c-3.19,2.47-10.1,1.64-13.89,0.93
						c-2.24,2.65-5.21,3.52-7.99,3.52C493.98,422.53,491.71,421.88,490.2,421.17z M503.78,413.22c4.34,0.99,9.3,1.26,10.81,0.63
						c-0.25-2.56-0.47-10.42,5.03-17.74c0.33-1.55,0.55-4.29-0.48-5.46l-0.95-1.09l1.99-8.12c-0.32-0.22-0.8-0.52-1.51-0.9
						l-1.76-0.93l1.37-8.47c-2.97-2.22-10.5-7.67-17.24-11.1l1.26-2.47l-1.29,2.46c-0.33-0.17-8.13-3.9-17.98,7.92l-0.22,0.24
						c-0.61,0.58-14.58,14.3-8.44,39.39c4.26,0.94,14.53,3.66,18.76,8.79c1.52,0.56,5.61,1.66,7.61-1.83l1.02-1.78L503.78,413.22z"
						/>
				</g>
				<g>
					<path class="st1" d="M487.87,373.13c0,0-13.87,8.08-11.95,34.67c0,0,4.99-1.38,16.79,7.49c0,0,6.92,0.65,6.57-5.45
						c0,0-1.1-8.36-5.88-12.77c0,0,10.13,0.15,12.45,15.69c0,0,5.27,3,7.57,0.38c0,0-1.49-6.48,0.59-13.5c0,0,2.67-10.21-3.41-14.85
						c0,0,4.89-2.69,0.83-8.39c0,0-5.92-6.57-14.65-7.76C496.79,368.65,491.36,370.06,487.87,373.13z"/>
				</g>
				<g>
					<g>
						<path class="st3" d="M503.34,419.4c0.27-0.16,0.35-0.24,0.49-0.35c0.14-0.11,0.23-0.2,0.35-0.31c0.23-0.2,0.41-0.42,0.61-0.63
							c0.37-0.44,0.7-0.91,0.96-1.42c0.54-0.99,0.83-2.11,0.88-3.16c0.11-2.14-0.55-3.96-1.35-5.5c-0.85-1.5-1.84-2.83-2.93-4.01
							c-1.06-1.2-2.24-2.24-3.4-3.29l-0.13-0.12l-0.03-0.02c-0.6-0.34-1.29-1.01-1.71-1.71c-0.45-0.72-0.71-1.56-0.76-2.45
							c-0.04-0.9,0.16-1.82,0.47-2.72c0.17-0.44,0.38-0.88,0.58-1.32l0.75-1.26l-0.97,1.11c-0.28,0.4-0.58,0.81-0.84,1.23
							c-0.49,0.87-0.91,1.83-1.06,2.89c-0.14,1.05-0.03,2.18,0.38,3.22c0.42,1.06,1,1.95,1.94,2.78l-0.16-0.13
							c0.9,1.18,1.81,2.35,2.54,3.59c0.77,1.22,1.36,2.49,1.79,3.73c0.38,1.25,0.48,2.46,0.23,3.34c-0.12,0.45-0.32,0.81-0.59,1.09
							c-0.12,0.15-0.28,0.28-0.42,0.39c-0.08,0.05-0.15,0.11-0.23,0.14c-0.03,0.01-0.08,0.05-0.1,0.05c-0.01,0-0.09,0.04,0.02-0.04
							L503.34,419.4z"/>
					</g>
					<g>
						<path class="st3" d="M498.65,404.23c1.97-0.81,4-1.58,6.02-2.31c2.04-0.71,4.06-1.45,6.19-1.84
							c-1.05-0.28-2.16-0.44-3.25-0.58c-1.1-0.13-2.2-0.24-3.29-0.33c-2.21-0.18-4.39-0.32-6.62-0.4L498.65,404.23z"/>
					</g>
					<g>
						<polygon class="st3" points="522.7,386.47 507.33,380.01 519.76,391.18 						"/>
					</g>
					<g>
						<polygon class="st3" points="521.57,375.83 509.62,370.8 518.37,380.37 						"/>
					</g>
				</g>
			</g>
		</g>
		<g>
			<g>
				<g>
					<path class="st13" d="M239.54,265.48c0,0,1.39-5.77-8.51-12.16c0,0-12.03-9.94-24.81,4.97c0,0-11.83,2.44-5.88,17.12
						c0,0-3.8,8.36,4.83,11.79c0,0-4.86,7.38,2.45,9.99c0,0,5.55-0.24,17.16,3.27c0,0,6.5,2.52,4.61-8.15c0,0,8.97,1.83,9.21-6.75
						c0,0,8.06-1.2,7.83-9.99C246.44,275.57,246.88,265.24,239.54,265.48z"/>
					<path class="st3" d="M224.12,302.43c-10.98-3.32-16.36-3.16-16.41-3.16l-0.41,0.02l-0.38-0.14c-3.27-1.17-4.55-3.19-5.05-4.68
						c-0.77-2.31-0.18-4.69,0.49-6.33c-2.01-1.2-3.43-2.8-4.22-4.78c-1.28-3.18-0.53-6.41-0.02-7.93
						c-1.99-5.29-2.05-9.75-0.15-13.29c1.99-3.73,5.56-5.2,7.1-5.69c13.07-14.75,25.75-5.91,27.16-4.84
						c7.28,4.72,9.07,9.28,9.41,11.97c1.42,0.31,2.68,1,3.7,2.04c3.26,3.3,3.22,9,3.19,9.95c0.16,7.16-4.49,10.51-7.98,11.65
						c-0.36,2.3-1.35,4.11-2.97,5.4c-1.84,1.46-4.07,1.88-5.8,1.93c0.24,3.39-0.48,5.72-2.15,7.1c-1.08,0.89-2.29,1.14-3.32,1.14
						C225.27,302.8,224.42,302.54,224.12,302.43z M229.81,290.27c0.83,0.17,3.57,0.37,5.18-0.91c0.98-0.78,1.49-2.04,1.54-3.86
						l0.06-1.72l1.7-0.28c0.64-0.1,6.25-1.21,6.07-8.02c0.05-1.32-0.21-5.14-1.99-6.93c-0.71-0.71-1.59-1.03-2.76-0.99l-2.55,0.02
						l0.45-2.53c0.01-0.05,0.71-4.61-7.6-9.98l-0.19-0.14c-0.43-0.35-10.68-8.4-21.91,4.72l-0.46,0.54l-0.7,0.14
						c-0.03,0.01-3.41,0.78-5.01,3.77c-1.37,2.56-1.15,6.1,0.64,10.52l0.34,0.83l-0.37,0.81c-0.01,0.03-1.28,2.95-0.24,5.53
						c0.6,1.5,1.93,2.66,3.94,3.46l2.38,0.94l-1.41,2.14c-0.47,0.7-1.66,3.1-1.09,4.8c0.11,0.31,0.41,1.23,2.18,1.95
						c1.61,0.02,7.32,0.32,17.51,3.4c0.21,0.07,1.07,0.28,1.48-0.07c0.2-0.17,1.16-1.24,0.36-5.76l-0.53-3.01L229.81,290.27z"/>
				</g>
				<g>
					<path class="st14" d="M207.34,259.46c0,0,4.32-7.46,14.33-4.95c0,0,10.62,1.15,10.83,12.1c0,0,7.09,0,7.63,7.81
						c0,0-0.07,10.73-9.91,8.21c0,0,5.07,6.74-7.32,4.82c0,0,5.08,9.12-2.8,7.22c0,0-4.41-0.8-11.47-0.96c0,0-6.06-0.09,0.58-7.57
						c0,0-11.2-0.36-6.75-11.62C202.46,274.52,195.89,262.33,207.34,259.46z"/>
				</g>
				<g>
					<path class="st0" d="M213.55,255.49c2.43-3.46-3.71,0.94-6.53,5.22c0,0-6.39,0.45-6.53,7.58c0,0-0.23,3.8,1.85,6.75
						c0,0-1.55-9.93,8.17-13.15C210.5,261.88,209.32,261.51,213.55,255.49z"/>
				</g>
				<g>
					<g>
						<path class="st13" d="M226.67,268.45c1.89-0.34,4.86-1.98,9.16,2.58c0,0,4.21,4.84-3.02,9.84c0,0-6.32,0.63-10.67-3.82
							C222.13,277.05,221.67,269.35,226.67,268.45z"/>
						<path class="st3" d="M220.64,278.5l-0.54-0.55l-0.05-0.78c-0.21-3.54,0.86-9.8,6.25-10.77l0,0c0.21-0.04,0.44-0.1,0.69-0.16
							c2.03-0.52,5.8-1.47,10.41,3.42c0.21,0.25,2.08,2.5,1.67,5.76c-0.33,2.65-2.04,5.06-5.08,7.15l-0.44,0.31l-0.54,0.05
							c-0.06,0.01-0.44,0.04-1.03,0.04C229.79,282.98,224.57,282.52,220.64,278.5z M234.93,274.95c0.2-1.43-0.63-2.5-0.62-2.5l0,0
							c-2.88-3.05-4.61-2.61-6.3-2.18c-0.35,0.09-0.67,0.17-0.97,0.22h0c-2.38,0.43-2.77,4.03-2.83,5.64
							c2.86,2.46,6.56,2.66,7.88,2.67C233.77,277.55,234.75,276.23,234.93,274.95z"/>
					</g>
					<g>
						<path class="st13" d="M214.86,284.28c0,0-4.82,3.08-0.53,5.54c0,0,5.09,2.4,5.19,0.19c0,0,2.45-2.78-0.97-6.38
							C218.56,283.63,217.42,281.84,214.86,284.28z"/>
						<path class="st3" d="M213.45,291.7l-0.15-0.08c-2.29-1.31-2.8-2.92-2.83-4.05c-0.06-2.55,2.28-4.38,3.09-4.93
							c1.41-1.3,2.82-1.87,4.18-1.71c1.12,0.14,1.96,0.76,2.42,1.36c3.24,3.51,2.43,6.88,1.31,8.57c-0.21,0.7-0.65,1.29-1.29,1.67
							c-0.57,0.34-1.24,0.48-1.95,0.48C216.55,293.02,214.64,292.27,213.45,291.7z M217.45,289.92l0.01-0.1
							C217.45,289.85,217.45,289.88,217.45,289.92z M216.3,285.79l-0.31,0.24c-0.63,0.41-1.31,1.15-1.36,1.38
							c0,0,0.11,0.22,0.67,0.56c0.84,0.39,1.86,0.73,2.51,0.85l0.11-0.15c0.27-0.34,0.98-1.58-0.8-3.52
							C216.97,285.24,216.69,285.42,216.3,285.79z"/>
					</g>
					<g>
						<path class="st13" d="M214.09,265.65c-1.3-0.99-3-3.5-7.54-1.24c0,0-4.57,2.53-0.72,9.46c0,0,4.48,2.89,9.04,0.76
							C214.86,274.62,217.51,268.28,214.09,265.65z"/>
						<path class="st3" d="M204.69,275.62l-0.44-0.28l-0.25-0.46c-2.4-4.33-1.96-7.38-1.16-9.18c0.92-2.08,2.52-3.01,2.78-3.15
							c5.18-2.57,7.96-0.11,9.29,1.08c0.16,0.14,0.3,0.27,0.44,0.38l0,0c3.71,2.85,2.64,8.52,1.42,11.43l-0.31,0.74l-0.73,0.34
							c-1.54,0.72-3.06,0.98-4.46,0.98C207.65,277.49,204.85,275.72,204.69,275.62z M212.82,267.3L212.82,267.3
							c-0.21-0.16-0.43-0.36-0.67-0.57c-1.11-0.99-1.99-1.77-4.59-0.5c-0.39,0.26-2.34,1.85-0.18,6.12
							c0.96,0.48,3.37,1.46,5.85,0.69C213.74,271.37,214.28,268.42,212.82,267.3z"/>
					</g>
				</g>
				<g>
					<path class="st0" d="M204.18,277.9c0,0,4.22,4.92,7.93,2.58c0,0-0.99,4.56-6.54,3.27C205.57,283.75,202.37,279.28,204.18,277.9
						z"/>
				</g>
				<g>
					<path class="st0" d="M226.07,271.37c0.94-0.17,2.42-0.99,4.55,1.28c0,0,2.09,2.41-1.5,4.89c0,0-3.14,0.31-5.31-1.9
						C223.81,275.65,223.58,271.82,226.07,271.37z"/>
				</g>
				<g>
					<path class="st0" d="M215.37,285.19c0,0-2.4,1.53-0.26,2.75c0,0,2.53,1.19,2.58,0.1c0,0,1.22-1.38-0.48-3.17
						C217.21,284.87,216.64,283.98,215.37,285.19z"/>
				</g>
				<g>
					<path class="st0" d="M209.79,267.55c-0.64-0.49-1.49-1.74-3.75-0.62c0,0-2.27,1.25-0.36,4.7c0,0,2.23,1.44,4.5,0.38
						C210.18,272.01,211.5,268.86,209.79,267.55z"/>
				</g>
			</g>
			<g>
				<g>
					<g>
						<g>
							<path class="st2" d="M464.66,234.23c0,0,25.89,24.56-3.18,44.94c-18.34,12.86-36.92,6.09-36.92,6.09l-6.28-29.02
								C418.28,256.24,432.06,216.78,464.66,234.23z"/>
						</g>
					</g>
					<g>
						<g>
							<path class="st3" d="M424.02,241.76c1.37-2.25,2.85-4.51,4.72-6.47c2.03-1.75,4.18-3.4,6.55-4.73
								c4.72-2.67,10.28-3.93,15.63-3.49c5.37,0.41,10.41,2.25,14.98,4.68l0.34,0.18l0.24,0.24c1.57,1.56,2.81,3.05,4.05,4.7
								c1.22,1.64,2.34,3.36,3.33,5.18c1.97,3.63,3.48,7.69,3.95,12.04c0.49,4.34-0.21,8.92-2.01,12.89
								c-1.77,4-4.48,7.33-7.44,10.13c-5.94,5.51-13.15,9.54-20.93,11.42c-0.97,0.25-1.93,0.56-2.93,0.59
								c-1,0.06-1.99,0.07-2.99,0.05c-1.99-0.03-3.95-0.19-5.89-0.48c-3.86-0.64-7.63-1.68-11.04-3.45
								c3.75,0.55,7.49,0.51,11.12,0.08c1.82-0.2,3.61-0.51,5.35-0.94c0.87-0.21,1.74-0.45,2.59-0.72c0.85-0.27,1.73-0.37,2.59-0.55
								c6.87-1.62,13.29-5.24,18.55-10.11c2.58-2.43,4.8-5.22,6.17-8.34c1.4-3.11,1.93-6.52,1.55-9.93
								c-0.73-6.7-4.7-13.31-9.41-18.22c0.12,0.06,0.24,0.12,0.35,0.18l-0.57-0.42c0.07,0.08,0.15,0.16,0.22,0.24
								c-4.01-2.1-8.27-3.58-12.57-3.9c-4.42-0.35-8.81,0.65-12.71,2.84c-1.95,1.1-3.8,2.45-5.42,4.09
								c-1.8,1.43-3.63,2.95-5.28,4.71c-3.32,3.51-6.32,7.54-8.81,11.98c0.53-2.52,1.32-5,2.29-7.41
								C421.53,246.41,422.65,244.03,424.02,241.76z"/>
						</g>
					</g>
					<g>
						<g>
							<path class="st3" d="M463.08,236.52c-0.07-0.08-0.15-0.16-0.22-0.24l0.57,0.42C463.31,236.64,463.19,236.58,463.08,236.52z"
								/>
						</g>
					</g>
				</g>
				<g>
					<g>
						<path class="st24" d="M435.56,248.82c0,0,10.84-9.38,24.99-1.53c0,0,7.08,26.71-23.48,25.79c0,0-10.4-0.64,0.52-13.43
							C439.52,257.42,433.55,252.92,435.56,248.82z"/>
					</g>
				</g>
				<g>
					<g>
						<path class="st3" d="M437.58,250.49c-0.9,0.46-1.81,0.94-2.7,1.43l0.08-3.56c0.83,0.51,1.42,0.99,2.08,1.58
							C437.23,250.12,437.4,250.31,437.58,250.49z"/>
					</g>
				</g>
				<g>
					<g>
						<path class="st3" d="M432.98,251.89l-2.92-1.94l3-1.62c2.73-1.47,5.56-2.8,8.56-3.77c2.98-0.99,6.16-1.69,9.49-1.39
							c1.65,0.15,3.35,0.66,4.81,1.63c1.47,0.96,2.62,2.39,3.28,3.95c0.68,1.56,0.99,3.2,1.05,4.82c0.06,1.61-0.08,3.21-0.45,4.74
							c-0.06-3.12-0.64-6.28-2.14-8.68c-0.76-1.18-1.74-2.12-2.91-2.67c-1.16-0.57-2.47-0.76-3.81-0.78
							c-2.7,0.02-5.47,0.87-8.16,1.9c-1.76,0.71-3.49,1.54-5.21,2.42c-0.18-0.18-0.36-0.37-0.55-0.54
							c-0.65-0.59-1.25-1.07-2.08-1.58l-0.08,3.56c0.89-0.49,1.8-0.97,2.7-1.43c0.43,0.44,0.85,0.9,1.22,1.43
							c1.04,1.46,1.88,3.57,1.54,5.75c-0.32,2.16-1.51,3.8-2.72,5c-1.2,1.15-2.49,2.02-3.79,2.79c0.04-0.04,0.09-0.09,0.13-0.12
							l-0.29,0.22c0.05-0.03,0.11-0.06,0.16-0.09c-0.33,0.32-0.73,0.81-0.93,1.22c-0.26,0.49-0.35,0.92-0.28,1.33
							c0.1,0.82,1.15,1.88,2.43,2.55c1.28,0.71,2.73,1.28,4.21,1.75c1.48,0.49,3.01,0.89,4.55,1.32c-1.59,0.1-3.18,0.08-4.79-0.03
							c-1.59-0.18-3.22-0.37-4.83-0.96c-0.81-0.28-1.61-0.67-2.4-1.23c-0.77-0.56-1.57-1.39-1.93-2.58
							c-0.38-1.18-0.21-2.46,0.17-3.45c0.41-1.03,0.88-1.81,1.65-2.64l0.07-0.07l0.22-0.15c1.14-0.77,2.21-1.63,3.05-2.56
							c0.81-0.95,1.37-1.94,1.45-2.82c0.09-0.86-0.2-1.8-0.88-2.74C434.94,253.47,433.91,252.5,432.98,251.89z"/>
					</g>
				</g>
				<g>
					<g>
						<path class="st3" d="M433.83,265.46c-0.05,0.03-0.1,0.06-0.16,0.09l0.29-0.22C433.92,265.37,433.88,265.42,433.83,265.46z"/>
					</g>
				</g>
			</g>
			<g>
				<g>
					<g>
						<g>
							<path class="st10" d="M353.69,131.56c0,0,40.53-37.52,43.45-82.37c0,0,3.22-24.16-17.27-31.38c0,0-26.51-7.81-36.3,22.09
								c0,0-18.5,36.99-4.13,86.43L353.69,131.56z"/>
							<path class="st11" d="M337.17,128.45l-0.39-1.35c-14.14-48.62,2.63-84.98,4.22-88.25c10.56-31.86,39.37-23.78,39.66-23.7
								l0.14,0.04c21.57,7.6,19.33,32.28,19.11,34.24c-2.99,45.4-42.64,82.6-44.33,84.16l-1.25,1.16L337.17,128.45z M346.21,40.76
								l-0.15,0.37c-0.18,0.36-17.49,36-4.33,83.07l11.29,4.14c6.68-6.62,38.82-40.41,41.36-79.34l0.02-0.18
								c0.12-0.9,2.62-21.97-15.36-28.37C377.36,19.99,354.87,14.31,346.21,40.76z"/>
						</g>
						<g>
							<path class="st12" d="M345.27,124.93c0,0,15.87-30.13,33.13-102.82c0,0-26.81-3.97-33.01,25.52
								C345.39,47.63,327.61,85.3,345.27,124.93z"/>
						</g>
						<g>
							<path class="st9" d="M395.48,50.93c0,0-15.18,12.31-29.37,15.71c0,0-12.49-11.69-20.27-27.09c0,0-2.55,5.08-4.36,14.32
								c0,0,9.93,20.05,21.14,26.13c0,0,14.68-1.45,29.91-14.14C392.51,65.85,394.18,60.97,395.48,50.93z"/>
						</g>
						<g>
							<path class="st9" d="M384.63,86.08c0,0-15.12,8.41-27.21,10.27c0,0-13.96-11.82-20.01-24.97c0,0-1.44,4.21-1.66,13.56
								c0,0,9.02,16.41,18.28,22.14c0,0,10.18,0.12,23.45-9.3C377.47,97.78,379.47,95.4,384.63,86.08z"/>
						</g>
					</g>
					<g>
						<path class="st11" d="M350.05,129.36c2.66-8,5.11-15.98,7.49-24.03c2.36-8.04,4.64-16.1,6.79-24.19
							c2.16-8.09,4.24-16.21,6.17-24.36c1.97-8.14,3.78-16.32,5.53-24.5c-2.14,8.09-4.32,16.16-6.67,24.17
							c-2.32,8.03-4.77,16.02-7.3,23.97c-2.52,7.96-5.17,15.87-7.9,23.75c-2.73,7.86-5.56,15.73-8.55,23.44L350.05,129.36z"/>
					</g>
				</g>
				<g>
					<g>
						<g>
							<path class="st10" d="M374.39,160.32c0,0,46.49-29.07,57.36-72.6c0,0,7.47-23.13-11.36-34.18c0,0-24.65-12.79-39.59,14.71
								c0,0-24.77,32.8-19.47,84.18L374.39,160.32z"/>
							<path class="st11" d="M358.71,154.08l-0.14-1.38c-5.21-50.52,17.72-83.03,19.88-85.96c16.07-29.32,42.94-15.81,43.21-15.67
								l0.13,0.07c19.79,11.62,13.2,35.42,12.64,37.31c-11.04,44.08-56.63,73.01-58.57,74.22l-1.45,0.91L358.71,154.08z
								 M383.23,69.57l-0.22,0.35c-0.24,0.32-23.61,31.91-19.05,80.85l10.37,6.27c7.77-5.25,45.3-32.24,54.73-69.99l0.05-0.18
								c0.27-0.86,6.5-21.11-10.05-30.9C417.5,55.2,396.44,45.27,383.23,69.57z"/>
						</g>
						<g>
							<path class="st12" d="M367.3,152.18c0,0,20.96-26.57,50.87-94.7c0,0-25.63-9.07-36.97,18.72
								C381.2,76.2,357.02,109.81,367.3,152.18z"/>
						</g>
						<g>
							<path class="st9" d="M429.8,89.11c0,0-17.1,9.17-31.65,9.78c0,0-10.18-13.91-15.08-30.54c0,0-3.41,4.5-6.84,13.24
								c0,0,6.18,21.62,16.1,29.76c0,0,14.68,1.41,31.89-8.13C424.23,103.21,426.74,98.73,429.8,89.11z"/>
						</g>
						<g>
							<path class="st9" d="M412.87,121.57c0,0-16.35,5.35-28.56,4.84c0,0-11.6-14.31-15.2-28.4c0,0-2.16,3.86-4.06,13.01
								c0,0,5.93,17.87,14.01,25.29c0,0,9.97,2.08,24.69-4.61C403.76,131.7,406.15,129.74,412.87,121.57z"/>
						</g>
					</g>
					<g>
						<path class="st11" d="M371.19,157.46c4.04-7.35,7.88-14.73,11.64-22.18c3.76-7.45,7.43-14.93,10.99-22.48
							c3.56-7.54,7.05-15.12,10.4-22.75c3.39-7.62,6.61-15.32,9.8-23.03c-3.55,7.54-7.13,15.06-10.87,22.49
							c-3.71,7.45-7.54,14.82-11.44,22.16c-3.9,7.34-7.91,14.6-11.99,21.82c-4.09,7.21-8.27,14.39-12.58,21.4L371.19,157.46z"/>
					</g>
				</g>
				<g>
					<g>
						<g>
							<path class="st10" d="M405.85,160.27c0,0,52.62-13.57,75.32-51.88c0,0,13.68-19.84-1.17-36.18c0,0-19.91-19.78-41.97,1.95
								c0,0-32.92,23.79-42.41,74.56L405.85,160.27z"/>
							<path class="st11" d="M392.64,149.54l0.25-1.33c9.32-49.9,40.41-74,43.34-76.17c23.68-23.16,45.51-2.01,45.73-1.8l0.1,0.1
								c15.56,17.13,2.56,37.86,1.47,39.51c-23.03,38.81-74.78,52.54-76.98,53.1l-1.64,0.42L392.64,149.54z M439.98,76.13
								l-0.32,0.27c-0.32,0.23-31.58,23.41-41.06,71.5l8.17,9.22c8.92-2.64,52.35-16.96,72.01-50.15l0.1-0.16
								c0.5-0.74,12.19-18.21-0.88-32.68C476.75,72.93,459.44,56.96,439.98,76.13z"/>
						</g>
						<g>
							<path class="st12" d="M401.39,150.31c0,0,27.53-18.99,75.38-75.01c0,0-21.9-16.53-40.6,6.59
								C436.17,81.89,403.56,106.63,401.39,150.31z"/>
						</g>
						<g>
							<path class="st9" d="M478.91,109.12c0,0-18.93,3.54-32.98-0.34c0,0-5.79-16.42-5.75-33.83c0,0-4.53,3.26-10.28,10.57
								c0,0-0.22,22.58,6.95,33.4c0,0,13.62,5.84,32.75,1.99C469.6,120.9,473.27,117.39,478.91,109.12z"/>
						</g>
						<g>
							<path class="st9" d="M453.57,134.99c0,0-17.13,0.11-28.63-4.11c0,0-7.02-17.24-6.47-31.83c0,0-3.16,3.03-7.55,11.21
								c0,0,0.61,18.91,6.21,28.48c0,0,8.93,5.05,24.88,3.14C441.99,141.88,444.83,140.75,453.57,134.99z"/>
						</g>
					</g>
					<g>
						<path class="st11" d="M403.61,156.55c5.94-5.79,11.69-11.68,17.39-17.65c5.7-5.97,11.32-12.01,16.85-18.14
							c5.53-6.12,11.01-12.3,16.38-18.58c5.4-6.25,10.65-12.63,15.88-19.02c-5.52,6.13-11.07,12.22-16.74,18.18
							c-5.65,5.99-11.4,11.87-17.2,17.69c-5.8,5.82-11.68,11.55-17.63,17.2c-5.94,5.64-11.97,11.24-18.07,16.62L403.61,156.55z"/>
					</g>
				</g>
				<g>
					<g>
						<g>
							<path class="st10" d="M287.32,153.66c0,0-10.4-55.12-41.96-80.03c0,0-16.31-14.9-30.19-0.04c0,0-16.84,20,0.89,43.66
								c0,0,19.27,35.03,61.45,46.64L287.32,153.66z"/>
							<path class="st11" d="M276.77,166.57c-41.73-11.49-61.33-44.75-63.05-47.8c-18.66-25.07-0.87-46.74-0.68-46.96l0.1-0.11
								c12.41-13.29,27.63-5.97,34.02-0.19c31.95,25.28,42.46,79.34,42.89,81.63l0.26,1.4l-11.95,12.46L276.77,166.57z
								 M243.64,75.81l-0.15-0.13c-0.58-0.53-14.37-12.86-26.23-0.25c-0.82,1.02-14.81,19.03,1.03,40.16l0.21,0.33
								c0.18,0.34,18.68,33.25,58.17,44.85l7.64-7.97C282.44,144.18,271.3,97.64,243.64,75.81z"/>
						</g>
						<g>
							<path class="st12" d="M278.94,157.95c0,0-15.36-29.25-61.24-80.89c0,0-14.17,22.18,4.79,42.4
								C222.48,119.46,242.54,154.18,278.94,157.95z"/>
						</g>
						<g>
							<path class="st9" d="M245.93,76c0,0,2.62,19.78-0.86,34.25c0,0-13.8,5.44-28.32,4.8c0,0,2.65,4.82,8.64,11.04
								c0,0,18.83,1.02,27.98-6.06c0,0,5.11-13.94,2.23-33.95C255.6,86.08,252.73,82.15,245.93,76z"/>
						</g>
						<g>
							<path class="st9" d="M267.07,103.22c0,0-0.2,17.79-3.92,29.6c0,0-14.5,6.7-26.66,5.62c0,0,2.47,3.39,9.21,8.24
								c0,0,15.79,0.02,23.86-5.47c0,0,4.36-9.1,3.05-25.73C272.62,115.48,271.72,112.5,267.07,103.22z"/>
						</g>
					</g>
					<g>
						<path class="st11" d="M284.18,155.86c-4.73-6.37-9.54-12.54-14.42-18.68c-4.88-6.12-9.82-12.18-14.83-18.13
							c-5.01-5.96-10.07-11.86-15.21-17.65c-5.12-5.82-10.35-11.5-15.59-17.15c5.01,5.94,10,11.92,14.87,18.02
							c4.9,6.07,9.7,12.25,14.46,18.47c4.76,6.22,9.43,12.54,14.04,18.91c4.6,6.37,9.16,12.82,13.55,19.34L284.18,155.86z"/>
					</g>
				</g>
				<g>
					<g>
						<g>
							<path class="st10" d="M317.04,149.31c0,0-1.72-56.3-28.98-87.7c0,0-13.77-18.21-29.76-6.75c0,0-19.7,15.84-5.88,42.96
								c0,0,13.57,38.59,53.36,59.33L317.04,149.31z"/>
							<path class="st11" d="M304.5,159.62c-39.33-20.51-53.44-57.42-54.63-60.69c-14.52-28.7,6.48-46.05,6.69-46.22l0.12-0.09
								c14.34-10.28,28.17,0.2,33.54,7.25c27.53,31.8,29.52,87.03,29.59,89.37l0.05,1.5l-13.87,9.66L304.5,159.62z M285.96,63.43
								l-0.12-0.15c-0.49-0.65-12.26-15.88-25.86-6.22c-1.01,0.85-17.43,15.3-5.1,39.49l0.15,0.34
								c0.13,0.37,13.38,36.86,50.55,57.01l8.61-5.99C313.68,138.89,309.85,90.94,285.96,63.43z"/>
						</g>
						<g>
							<path class="st12" d="M308.11,151.65c0,0-10.61-32.06-47.86-92.84c0,0-17.4,18.57-1.84,42.59
								C258.41,101.4,272.82,139.87,308.11,151.65z"/>
						</g>
						<g>
							<path class="st9" d="M288.26,64.05c0,0-0.48,19.96-6.15,33.35c0,0-14.44,2.26-28.66-1.59c0,0,1.86,5.31,6.8,12.73
								c0,0,18.4,5.18,28.53,0.29c0,0,7.19-12.52,7.45-32.76C296.23,76.07,294.01,71.59,288.26,64.05z"/>
						</g>
						<g>
							<path class="st9" d="M304.88,95.41c0,0-2.96,17.38-8.45,28.12c0,0-15.34,3.34-27.15-0.42c0,0,1.91,3.86,7.81,10.11
								c0,0,15.56,3.53,24.37-0.05c0,0,5.71-7.95,6.99-24.52C308.45,108.65,308.03,105.53,304.88,95.41z"/>
						</g>
					</g>
					<g>
						<path class="st11" d="M313.61,150.77c-3.67-7.29-7.46-14.41-11.32-21.5c-3.87-7.08-7.8-14.11-11.82-21.05
							c-4.02-6.95-8.09-13.86-12.27-20.67c-4.15-6.84-8.42-13.57-12.71-20.26c4.02,6.94,8.01,13.89,11.87,20.95
							c3.89,7.03,7.67,14.15,11.39,21.31c3.73,7.15,7.36,14.37,10.92,21.64c3.55,7.26,7.05,14.59,10.36,21.95L313.61,150.77z"/>
					</g>
				</g>
				<g>
					<g>
						<g>
							<path class="st10" d="M330.22,120.96c0,0,12.19-54.12-6.29-93.59c0,0-8.76-22.17-26.94-16.91c0,0-22.82,8.1-16.21,38.76
								c0,0,3.56,41.46,36.69,75.22L330.22,120.96z"/>
							<path class="st11" d="M315.5,126.38c-32.68-33.29-37.13-73.31-37.46-76.74c-6.93-32.52,17.78-41.7,18.03-41.79l0.16-0.05
								c16.25-4.7,26.88,9.98,30.26,18.47c18.61,39.86,6.95,93.05,6.45,95.3l-0.37,1.63l-15.93,4.35L315.5,126.38z M321.42,28.55
								l-0.07-0.15c-0.32-0.81-8.03-19.68-23.49-15.29c-1.54,0.59-20.23,8.32-14.36,35.53l0.05,0.35
								c0.03,0.4,3.75,39.89,34.78,72.34l9.52-2.6C329.64,109.51,337.53,62.96,321.42,28.55z"/>
						</g>
						<g>
							<path class="st12" d="M321.07,120.03c0,0-2.32-34.22-23.17-105.12c0,0-21.28,11.51-12.24,39.83
								C285.66,54.74,290.05,96.38,321.07,120.03z"/>
						</g>
						<g>
							<path class="st9" d="M323.53,29.77c0,0-5.37,18.8-14.11,29.53c0,0-14.43-2.95-27.15-11.62c0,0,0.48,5.7,3.41,14.5
								c0,0,16.41,11.41,27.34,10.33c0,0,9.99-9.36,15.21-28.5C328.23,44,327.2,38.96,323.53,29.77z"/>
						</g>
						<g>
							<path class="st9" d="M331.79,65.43c0,0-7.12,15.48-15.04,23.75c0,0-15.55-2.24-25.98-9.98c0,0,0.89,4.35,5.02,12.37
								c0,0,14.08,8.85,23.43,8.55c0,0,7.44-5.54,12.75-20.84C331.97,79.28,332.33,76.16,331.79,65.43z"/>
						</g>
					</g>
					<g>
						<path class="st11" d="M326.57,121.13c-1.74-8.23-3.63-16.33-5.6-24.43c-1.97-8.09-4.02-16.16-6.18-24.18
							c-2.15-8.02-4.37-16.03-6.71-23.97c-2.3-7.96-4.75-15.86-7.23-23.74c2.16,8.01,4.28,16.03,6.25,24.1
							c2.01,8.06,3.89,16.16,5.71,24.27c1.82,8.11,3.54,16.25,5.17,24.41c1.63,8.15,3.18,16.36,4.56,24.52L326.57,121.13z"/>
					</g>
				</g>
				<g>
					<g>
						<path class="st25" d="M439.31,142.32c-44.73-32.12-80.87-44.46-80.87-44.46s-46.48-17.74-82.61,22.93
							c0,0-14.4,8.79-21.01,29.37c0,0-35.67,119.98-33.39,206.28c0,0,3.7,26.62,30.4,19.31c0,0,39.59-20.71,65.91-13.46
							c0,0,7.67,11.51,22.82,23.88c10.67,8.72,17.67,17.04,41.94,12.62c0,0,20.53-3.38,42.13-22.01c0,0,11.11-7.4,13.26-43.32
							c0,0,8.28-141.97,8.56-160.71C446.44,172.74,448.94,149.23,439.31,142.32z"/>
						<path class="st11" d="M341.58,390.62c-0.91-0.76-1.83-1.53-2.78-2.31c-13.06-10.66-20.62-20.62-22.76-23.6
							c-24.97-6.12-62.55,13.29-62.93,13.49l-0.55,0.22c-8.81,2.42-16.31,1.65-22.27-2.28c-9.71-6.4-11.54-18.79-11.61-19.32
							l-0.03-0.31c-2.27-85.74,33.15-205.94,33.52-207.2c6.33-19.71,19.41-29.05,21.84-30.65c36.94-41.26,84.94-23.58,85.33-23.43
							c0.37,0.13,37.05,12.84,81.59,44.83c10.48,7.52,8.6,29.73,8.29,32.84c-0.31,19.06-8.23,154.92-8.57,160.71
							c-2.09,34.96-12.46,44-14.32,45.34c-21.9,18.84-42.52,22.41-43.34,22.55c-4.75,0.86-8.89,1.25-12.56,1.25
							C356.04,402.76,348.97,396.83,341.58,390.62z M437.69,144.57c-43.83-31.48-79.79-43.97-80.24-44.12
							c-0.45-0.17-45.09-16.61-79.54,22.18l-0.28,0.31l-0.35,0.22c-0.14,0.08-13.59,8.47-19.8,27.79
							c-0.36,1.19-35.48,120.38-33.28,205.23c0.2,1.22,1.98,10.59,9.14,15.31c4.52,2.97,10.39,3.52,17.47,1.64
							c3.89-2,41.46-20.75,67.66-13.53l1,0.28l0.57,0.86c0.07,0.11,7.66,11.34,22.27,23.27c0.97,0.79,1.91,1.58,2.84,2.36
							c8.97,7.53,16.05,13.47,36.9,9.67c0.2-0.03,20-3.46,40.77-21.37l0.23-0.18c0.1-0.07,10.07-7.69,12.07-41.2
							c0.08-1.42,8.28-142.13,8.56-160.59l0.02-0.25C444.33,166.36,444.51,149.47,437.69,144.57L437.69,144.57z"/>
					</g>
					<g>
						<path class="st26" d="M416.86,135.91c-37.72-30.37-90.31-42.05-90.31-42.05s-33.8,1.57-70.77,27.55c0,0-17.01,7.3-23.63,27.88
							c0,0-19.36,112.27-17.08,198.56c0,0,1.31,15.42,14.19,24.25c0,0,23.97-20.04,61.91-13.61c0,0,30.8,7.42,51.69,29.05
							c0,0,37.79-1.34,56.64-17.28c0,0,13.56-1.76,15.71-37.67c0,0,10.2-157.18,10.48-175.92
							C425.69,156.67,426.11,143.36,416.86,135.91z"/>
						<path class="st11" d="M340.87,389.47c-19.54-20.22-48.48-27.81-50.26-28.26c-36.07-6.06-59.34,12.83-59.56,13.02l-1.61,1.35
							l-1.74-1.19c-13.81-9.46-15.33-25.62-15.39-26.3l-0.01-0.16c-2.26-85.58,16.92-197.98,17.12-199.11l0.09-0.38
							c6.53-20.31,22.47-28.34,24.89-29.45c37.12-26,70.61-27.84,72.02-27.9l0.37-0.02l0.36,0.08c2.17,0.48,53.65,12.16,91.45,42.59
							l0,0c10.21,8.22,9.89,22.41,9.87,22.97c-0.27,18.6-10.07,169.64-10.48,176.04c-1.98,33.21-13.62,39.05-17.21,40.06
							c-19.5,15.97-56.24,17.44-57.8,17.5l-1.24,0.04L340.87,389.47z M257.37,123.69l-0.5,0.28c-0.16,0.07-15.86,7.08-22.02,25.99
							c-0.9,5.3-19.19,114.37-17.01,197.72c0.11,1.01,1.64,13.17,11.39,20.95c6.32-4.54,29.03-18.53,62.4-12.88l0.19,0.04
							c1.27,0.31,30.98,7.66,52.15,28.92c6.5-0.4,37.68-2.97,53.74-16.57l0.54-0.52l0.81-0.1c0.11-0.02,11.44-2.62,13.38-35.11
							c0.1-1.57,10.2-157.32,10.47-175.82c0-0.12,0.28-12.01-7.8-18.52l0,0c-35.11-28.27-84.02-40.29-88.8-41.41
							C322.63,96.93,291.18,99.93,257.37,123.69z"/>
					</g>
					<g>
						<path class="st27" d="M364.65,112.61c0,0-16.12,95.99-21.51,268c0,0-51.67-60.3-112.37-12.62c0,0,14.9-173.74,31.73-243.93
							c0,0,2.6-11.01,51.85-25.1C314.34,98.95,337.22,92.74,364.65,112.61z"/>
					</g>
					<g>
						<path class="st28" d="M236.29,150.81c6.17-19.43,22.02-26.33,22.02-26.33c6.27-4.47,12.45-8.17,18.35-11.23
							c-4.13,30.2-17.56,135.57-16.36,219.44c0,0,0.36,10.25,3.96,18.23c-19.44,3.3-34.98,15.6-34.98,15.6
							c-12-8.32-10.44-25.55-10.44-25.55C216.77,259.52,236.29,150.81,236.29,150.81z"/>
					</g>
					<g>
						<path class="st29" d="M356.17,271.86c0,0-51.72-33.77-103.86-4.33c0,0-17.48,8.66-11.75,33.2c0,0,5.86,20.92,28.93,13.7
							c0,0,32.7-21.3,69.56,10.18c0,0,28.4,2.91,36.51-19.02C375.56,305.59,382.01,283.84,356.17,271.86z"/>
						<path class="st11" d="M338.77,327.37l-0.86-0.09l-0.66-0.56c-34.75-29.68-64.97-10.78-66.24-9.97l-0.32,0.21l-0.37,0.11
							c-7.98,2.49-14.98,2.15-20.82-1.01c-8.78-4.76-11.51-14.19-11.65-14.7c-5.89-25.23,11.41-35.33,13.09-36.24
							c51.42-29.04,103.04,2.11,106.55,4.3c27.5,12.85,20.8,36.72,20.73,36.96l-0.06,0.18c-7.04,19.03-28.02,20.94-36.14,20.94
							C340.04,327.49,338.83,327.38,338.77,327.37z M355,274.38l-0.35-0.19c-0.5-0.33-50.89-32.52-101.09-4.17
							c-0.63,0.32-15.42,8.12-10.33,29.96c0.02,0.08,2.26,7.63,8.97,11.24c4.39,2.36,9.82,2.58,16.15,0.67
							c3.82-2.25,36.21-19.79,71.81,10.04c4.59,0.28,26.11,0.59,32.76-17.18C373.34,303.16,377.71,284.91,355,274.38z"/>
					</g>
					<g>
						<path class="st0" d="M268.49,125.22c0.82-2.94,1.03-8.48,0.81,48.67c0,0,4.07-40.05,11.26-57.71L268.49,125.22z"/>
					</g>
					<g>
						<path class="st0" d="M358.4,113.38c0,0-0.32,8.32-1.05,62.48c0,0,4.28-45.6,11.47-63.26L358.4,113.38z"/>
					</g>
					<g>
						<path class="st26" d="M299.91,103.23c-1.76,12.02-3.26,23.98-4.65,35.99c-1.36,12.01-2.62,24.02-3.61,36.07
							c-0.97,12.04-1.84,24.09-2.28,36.16c-0.43,12.07-0.59,24.15-0.03,36.2c0.11-12.06,0.94-24.08,2.03-36.06
							c1.1-11.98,2.63-23.92,4.26-35.83c1.65-11.91,3.56-23.78,5.57-35.63c2.04-11.83,4.2-23.69,6.58-35.4L299.91,103.23z"/>
					</g>
					<g>
						<g>
							<path class="st0" d="M413,142.04c-36.89-29.14-93.73-37.8-93.73-37.8s-30.47,4.36-66.59,29.24c0,0-7.74,4.62-14.68,12.89
								c7.18-16.07,20.8-21.92,20.8-21.92c35.44-24.91,67.84-26.41,67.84-26.41s50.41,11.19,86.57,40.3
								C422.08,145.48,422.05,149.18,413,142.04z"/>
						</g>
						<g>
							<path class="st11" d="M253.43,120.11c-0.13,0.28-0.18,0.42-0.25,0.6l-0.18,0.5c-0.11,0.32-0.22,0.65-0.31,0.95
								c-0.2,0.63-0.36,1.24-0.52,1.86c-0.32,1.23-0.6,2.45-0.84,3.66c-0.51,2.43-0.9,4.86-1.26,7.28c-0.7,4.85-1.19,9.7-1.6,14.54
								c-0.38,4.85-0.68,9.69-0.89,14.54c-0.21,4.84-0.33,9.69-0.44,14.52c0.55-4.81,1.12-9.61,1.77-14.4
								c0.65-4.79,1.39-9.56,2.21-14.3c0.84-4.74,1.77-9.46,2.88-14.1c0.57-2.32,1.15-4.62,1.85-6.86c0.33-1.13,0.7-2.23,1.09-3.31
								c0.19-0.54,0.39-1.07,0.6-1.57c0.1-0.26,0.21-0.5,0.32-0.74l0.16-0.34c0.05-0.09,0.12-0.24,0.12-0.22L253.43,120.11z"/>
						</g>
					</g>
					<g>
						<path class="st0" d="M398.83,171.76c-2.88,13.55-5.01,27.23-6.84,40.94c-0.95,6.85-1.69,13.73-2.46,20.61
							c-0.39,3.44-0.69,6.89-1,10.33c-0.31,3.45-0.65,6.89-0.92,10.34c-0.5,6.9-0.99,13.81-1.36,20.72
							c-0.18,3.46-0.32,6.92-0.45,10.38c-0.14,3.46-0.27,6.92-0.31,10.38c-0.29,13.84-0.09,27.72,0.9,41.54
							c1.23-13.81,2.19-27.58,3.26-41.33c0.62-6.87,1.01-13.76,1.64-20.63l0.78-10.31l0.85-10.31l3.19-41.27
							C397.17,199.38,398.14,185.61,398.83,171.76z"/>
					</g>
					<g>
						<path class="st11" d="M352.81,283.13c0,0-45.99-30.98-92.18-7.03c0,0-15.74,8.25-10.4,28.11c-2.06-6.41-0.72,12,19.56,9.65
							c0,0,35.93-15.3,69.37,10.41c0,0,25.61,2.57,32.76-15.07C371.93,309.19,376.17,299.09,352.81,283.13z"/>
						<path class="st11" d="M338.9,327.02l-0.79-0.08l-0.63-0.48c-31.7-24.37-66.25-10.2-66.59-10.06l-0.37,0.16l-0.4,0.05
							c-17.03,1.97-22.7-9.6-23.28-12.81c-0.13-0.7-0.08-1.28,0.07-1.76c-3.65-19.71,12.27-28.31,12.45-28.41
							c47.11-24.42,94.53,6.88,95.01,7.2l0.02,0.01c24.51,16.75,20.64,28.17,20.13,29.39c-6.15,15.19-23.89,16.95-31.78,16.95
							C340.56,327.18,339.14,327.05,338.9,327.02z M261.92,278.56c-0.56,0.29-13.72,7.42-9,24.93l-0.33,0.1
							c1,2.29,4.9,8.77,16.52,7.56c4.27-1.71,38.45-14.15,71.09,10.42c4.06,0.23,23.51,0.56,29.14-13.34
							c0.03-0.09,2.55-8.68-18.08-22.78C350.53,284.95,305.99,255.71,261.92,278.56z M247.84,304.98c0.57,0.48,1.51,0.86,2.61,0.5
							c1.01-0.33,1.54-1.11,1.75-1.79L247.84,304.98z"/>
					</g>
					<g>
						<path class="st26" d="M354.2,281.8c0,0-2.81-6.6-5.84-8.09c-13.88-6.85-54.79-18.5-91.72,2.24c0,0,0.64,16.48,11.46,16.23
							c0,0,11.39-0.44,10.89-9.2c0,0,1.67,9.65,10.18,10.01c0,0,12.43,1.59,12.28-11.45c0,0-3.24,14.44,13.77,15.18
							c0,0,10.85,0.62,11.07-11.93c0,0-3.21,14.16,11.86,16.28C338.14,301.06,357.94,303.06,354.2,281.8z"/>
					</g>
					<g>
						<path class="st0" d="M349.13,274.66c0,0-42.16-26.34-92.23-5.65c0,0-2.22,18.43,8.69,18.9c0,0,8.85-0.89,9.66-12.02
							c0,0,1.61,11.04,10.12,11.4c0,0,12.48,0.2,12.33-12.84c0,0-3.24,14.44,13.78,15.18c0,0,10.8,2,11.02-10.55
							c0,0-0.74,15.02,10.47,17.62C332.97,296.7,352.87,295.92,349.13,274.66z"/>
					</g>
					<g>
						<path class="st11" d="M417.2,379.94c-1.91-0.44-3.75-1.03-5.57-1.64c-1.81-0.65-3.6-1.29-5.33-2.1
							c-1.74-0.76-3.44-1.58-5.07-2.53c-1.66-0.89-3.24-1.92-4.79-2.97l0.84,1.24c-0.23-1.34-0.38-2.94-0.51-4.44
							c-0.12-1.53-0.2-3.07-0.27-4.61c-0.12-3.09-0.12-6.2-0.1-9.33c-0.01-3.12,0.13-6.25,0.2-9.41l0.15-4.74
							c0.05-1.59,0.12-3.18,0.1-4.78c-0.52,1.51-0.97,3.04-1.41,4.58c-0.37,1.55-0.8,3.1-1.09,4.67c-0.3,1.57-0.64,3.14-0.84,4.73
							c-0.24,1.58-0.47,3.17-0.6,4.77c-0.31,3.2-0.45,6.42-0.38,9.66c0.04,1.62,0.12,3.24,0.28,4.86c0.15,1.65,0.36,3.19,0.73,4.96
							l0.18,0.84l0.67,0.39c1.74,1.03,3.52,2.02,5.38,2.79c1.85,0.8,3.75,1.43,5.67,1.96c1.93,0.5,3.89,0.88,5.85,1.07
							C413.26,380.13,415.25,380.17,417.2,379.94z"/>
					</g>
					<g>
						<path class="st11" d="M372.43,382.49c0.03,0.11,0,0.03-0.02,0.01c-0.02-0.02-0.04-0.07-0.06-0.12
							c-0.04-0.09-0.09-0.19-0.13-0.3c-0.09-0.22-0.18-0.45-0.26-0.7c-0.17-0.49-0.33-1-0.47-1.54c-0.3-1.05-0.56-2.16-0.81-3.27
							c-0.49-2.23-0.9-4.51-1.26-6.82c-0.72-4.61-1.26-9.28-1.71-13.98c-0.66,4.67-1.24,9.37-1.62,14.12
							c-0.19,2.38-0.33,4.77-0.39,7.2c-0.02,1.22-0.03,2.44,0.02,3.7c0.02,0.62,0.06,1.26,0.11,1.92c0.03,0.33,0.06,0.66,0.11,1.01
							l0.08,0.55l0.06,0.3c0.03,0.12,0.03,0.19,0.11,0.43L372.43,382.49z"/>
					</g>
					<g>
						<path class="st11" d="M354.11,399.59c3.11-0.6,6.02-1.34,8.98-2.16c2.94-0.82,5.85-1.77,8.72-2.86
							c2.86-1.08,5.68-2.32,8.36-3.84c2.66-1.52,5.26-3.27,7.23-5.65c-2.35,1.95-5.12,3.11-7.89,4.06
							c-2.78,0.94-5.65,1.59-8.55,2.08c-2.89,0.5-5.8,0.86-8.72,1.09c-2.9,0.23-5.88,0.39-8.69,0.38L354.11,399.59z"/>
					</g>
					<g>
						<g>
							<path class="st29" d="M315.34,188.25c0,0,16.86-6.38,40.56-9.5c0,0,11.22-1.13,26.1,2.38c0,0,12.7,28.21-18.06,42.42
								c0,0-27.2,7.2-41.55-9.92C322.39,213.64,315.58,208.29,315.34,188.25z"/>
							<path class="st11" d="M320.41,215.6c-1.52-1.36-7.62-8.03-7.84-27.32l-0.02-1.94l1.82-0.69c0.7-0.26,17.43-6.53,41.26-9.66
								c0.48-0.05,11.86-1.14,27.02,2.44l1.33,0.31l0.56,1.25c0.14,0.31,13.45,30.9-19.43,46.08l-0.45,0.16
								c-0.52,0.14-6.34,1.63-13.99,1.63C341.18,227.87,328.9,225.58,320.41,215.6z M379.96,183.52
								c-13.51-2.97-23.67-2.01-23.69-2.01c-18.65,2.45-33.15,7.01-38.1,8.69c0.59,16.45,5.93,21.25,5.94,21.26l0.41,0.4
								c12.38,14.77,35.98,9.67,38.49,9.07C387.38,209.52,381.87,188.84,379.96,183.52z"/>
						</g>
						<g>
							<path class="st11" d="M328.34,197.67c0,0,6.85-3.06,25.94-5.02c0,0,14.43-1.88,26.45,0.55c0,0,10.45,17.6-14.3,26.97
								c0,0-19.23,4.79-30.9-6.77C335.54,213.39,328.63,211.11,328.34,197.67z"/>
							<path class="st11" d="M333.94,215.72c-2.12-1.06-8.11-5.19-8.38-17.99l-0.04-1.84l1.68-0.75c0.3-0.13,7.48-3.26,26.72-5.24
								c0.61-0.08,15.03-1.91,27.36,0.58l1.21,0.24l0.63,1.06c0.18,0.31,4.48,7.7,1.57,16.02c-2.25,6.44-8.06,11.47-17.27,14.95
								l-0.31,0.1c-0.37,0.09-4.49,1.08-10.06,1.08C350.12,223.93,340.95,222.4,333.94,215.72z M379.43,206.02
								c1.54-4.33,0.22-8.48-0.58-10.36c-11.14-1.93-24.08-0.29-24.29-0.26c-13.11,1.35-20.32,3.23-23.35,4.19
								c0.74,9.29,5.07,11.11,5.2,11.17l0.62,0.2l0.46,0.46c9.9,9.8,26.44,6.45,28.13,6.08
								C373.09,214.64,377.74,210.78,379.43,206.02z"/>
						</g>
						<g>
							<path class="st11" d="M377.18,218.51c0,0,6.28,24.84-3.69,26.8C373.49,245.3,367.6,238.88,377.18,218.51z"/>
						</g>
						<g>
							<path class="st11" d="M360.3,226.46l-2.22,30.2c0,0-3.25,8.04,4.08,8.46c0,0,1.73-1.98,2.34-13.72l-0.57-27.85L360.3,226.46z
								"/>
						</g>
					</g>
					<g>
						<path class="st29" d="M298.48,189.7c0,0-13.57-7.61-33.38-13.32c0,0-9.42-2.41-22.54-1.34c0,0-14.33,22.4,10.13,38.48
							c0,0,22.29,9.64,36.64-3.09C289.33,210.42,295.8,206.74,298.48,189.7z"/>
						<path class="st11" d="M251.59,216.06l-0.42-0.23c-26.44-17.38-11.1-42.04-10.94-42.29l0.74-1.16l1.37-0.11
							c13.43-1.11,23.05,1.31,23.53,1.43c19.89,5.73,33.41,13.25,33.97,13.57l1.68,0.94l-0.3,1.91
							c-2.58,16.41-8.65,21.46-10.22,22.52c-6.32,5.51-13.87,7.17-20.66,7.17C260.46,219.81,252.16,216.31,251.59,216.06z
							 M264.41,179.06c-0.09-0.02-8.41-2.11-20.16-1.36c-2.35,4.51-9.01,20.86,9.75,33.35c2.2,0.88,21.3,8.11,33.49-2.71l0.41-0.3
							c0.05-0.03,5-3.36,7.51-16.84C291.2,189.04,279.61,183.44,264.41,179.06z"/>
					</g>
					<g>
						<path class="st11" d="M296.69,199.5c0,0-10.99-6.71-27.02-10.85c0,0-6.23-3.1-16.78-2.58c0,0-8.6,16.33,11.32,27.5
							c0,0,14.14,5.28,25.51-3.06C289.72,210.52,294.77,210.92,296.69,199.5z"/>
						<path class="st11" d="M263.24,216.18l-0.39-0.18c-22.03-12.35-12.51-31.03-12.42-31.22l0.74-1.4l1.58-0.08
							c9.98-0.49,16.41,2.08,17.85,2.72c16.11,4.2,27.07,10.82,27.53,11.1l1.6,0.98l-0.31,1.85c-1.78,10.63-6.41,12.82-8.69,13.24
							c-5.43,3.75-11.31,4.82-16.23,4.82C268.28,218.01,263.59,216.31,263.24,216.18z M289.83,207.72c0.79-0.22,2.59-1.76,3.74-6.79
							c-3.59-1.95-12.71-6.52-24.6-9.59l-0.54-0.2c-0.05-0.02-5.04-2.41-13.67-2.34c-1.32,3.81-3.34,14.31,10.6,22.24
							c1.59,0.53,13.32,4.13,22.72-2.76l0.58-0.86L289.83,207.72z M289.94,207.75L289.94,207.75L289.94,207.75z"/>
					</g>
					<g>
						<path class="st11" d="M254.53,216.29l-0.31,26.09c0,0,2.2,7.14-4.13,6.96c0,0-1.34-1.83-1-11.95l2.53-23.86L254.53,216.29z"/>
					</g>
					<g>
						<path class="st11" d="M241.79,201.39l-0.12,20.89c0,0,2.25,5.75-4.07,5.52c0,0-1.36-1.48-1.09-9.58l2.35-19.08L241.79,201.39z
							"/>
					</g>
					<g>
						<path class="st26" d="M337.87,180.61c-0.18-3.73-0.24-7.63-0.24-11.47c0-3.86,0.08-7.72,0.23-11.59
							c0.14-3.87,0.38-7.73,0.71-11.6c0.3-3.87,0.76-7.73,1.26-11.59c-1.15,3.71-2.27,7.45-3.24,11.23
							c-0.99,3.78-1.89,7.59-2.71,11.43c-0.82,3.83-1.58,7.69-2.25,11.57c-0.67,3.9-1.28,7.74-1.78,11.77L337.87,180.61z"/>
					</g>
					<g>
						<path class="st26" d="M328.03,341.05c0,0-24.68-28.53-65.83-7.41C262.21,333.64,304.47,325.59,328.03,341.05z"/>
					</g>
					<g>
						<path class="st30" d="M342.65,90.89c2.54-7.36-5.26-15.23-35.4-15.24c0,0-7.81,11.41-8.16,30.87
							c-0.07,4.18,1.16,2.73,7.69,12.21c0,0,7.85-1.26,27.37,1.04c0,0,1.51-3.77,2.61-9.82C337.86,103.91,339.58,99.8,342.65,90.89z
							"/>
						<path class="st11" d="M333.82,122.54c-18.74-2.21-26.54-1.07-26.61-1.06l-1.73,0.28l-0.99-1.45c-2.54-3.7-4.25-5.67-5.39-6.98
							c-1.98-2.28-2.85-3.44-2.79-6.85c0.36-20.06,8.3-31.9,8.64-32.39l0.83-1.21h1.46c19.78,0,32.14,3.28,36.75,9.74
							c1.96,2.75,2.4,5.92,1.28,9.17c-0.63,1.83-1.2,3.46-1.73,4.94c-2.01,5.69-3.22,9.13-4.05,13.72
							c-1.14,6.24-2.7,10.18-2.76,10.35l-0.79,1.98L333.82,122.54z M301.87,106.57c-0.03,1.43-0.03,1.43,1.44,3.12
							c1.07,1.23,2.61,3.01,4.81,6.11c3.18-0.25,10.77-0.5,24.13,0.96c0.5-1.61,1.2-4.14,1.78-7.31c0.92-5.03,2.26-8.82,4.28-14.57
							c0.52-1.47,1.09-3.09,1.72-4.91v0c0.53-1.53,0.35-2.88-0.55-4.14c-1.55-2.18-7.63-7.19-30.66-7.41
							C306.94,81.77,302.13,91.77,301.87,106.57z"/>
					</g>
					<g>
						<path class="st31" d="M336.84,83.38c2.8-5.99-14.22-11.89-35.38-5.89c0,0-4.65,5.56-1.21,31.76c0,0,10.63-0.62,28.48,1.09
							C328.73,110.34,330.06,97.87,336.84,83.38z"/>
						<path class="st11" d="M328.47,113.1c-17.39-1.66-27.95-1.08-28.06-1.08l-2.58,0.15l-0.34-2.56
							c-3.42-26.08,0.93-32.81,1.83-33.9l0.55-0.66l0.82-0.23c17.59-4.99,32.94-2.29,37.62,3.2c1.68,1.97,2.05,4.35,1.04,6.53l0,0
							c-6.48,13.86-7.85,25.96-7.86,26.08l-0.3,2.73L328.47,113.1z M334.33,82.2c0.04-0.09,0.09-0.2-0.23-0.58
							c-2.53-2.97-14.88-5.98-30.78-1.76c-0.76,1.9-2.7,8.83-0.62,26.53c3.92-0.08,12.11-0.06,23.67,0.94
							C327.14,102.79,329.24,93.09,334.33,82.2L334.33,82.2z"/>
					</g>
					<g>
						<path class="st11" d="M426.63,138.33c-0.1,0.01-0.2,0.01-0.3,0l-0.11-0.01c-0.04-0.01-0.07-0.02-0.1-0.03
							c-0.06-0.04-0.01,0-0.01-0.02c-0.01-0.06,0.12,0.05,0.2,0.07c0.09-0.01,0.23,0.17,0.35,0.24c0.13,0.08,0.27,0.18,0.41,0.35
							c0.28,0.31,0.58,0.58,0.84,1.02c0.26,0.42,0.58,0.77,0.8,1.27l0.73,1.42l0.62,1.57c0.45,1.03,0.75,2.17,1.09,3.29
							c1.25,4.53,2.11,9.35,2.61,14.21c0.13,1.22,0.3,2.43,0.4,3.66l0.27,3.68l0.26,3.69l0.14,3.7c0.26,4.94,0.2,9.89,0.27,14.85
							c0.49-4.93,1.1-9.86,1.4-14.83l0.27-3.73l0.15-3.74l0.15-3.74c0.03-1.25,0.01-2.5,0.01-3.76c0.04-5.02-0.27-10.08-1.07-15.2
							c-0.23-1.28-0.42-2.57-0.81-3.86c-0.17-0.65-0.33-1.3-0.52-1.95l-0.73-1.96c-0.21-0.65-0.6-1.31-0.93-1.97
							c-0.3-0.66-0.78-1.31-1.26-1.97c-0.21-0.33-0.51-0.65-0.84-0.96c-0.34-0.31-0.58-0.63-1.04-0.92
							c-0.44-0.29-0.78-0.58-1.36-0.81c-0.28-0.12-0.5-0.23-0.86-0.32l-0.54-0.12c-0.12-0.02-0.13-0.03-0.33-0.05
							c-0.17-0.01-0.35-0.02-0.53-0.01L426.63,138.33z"/>
					</g>
				</g>
			</g>
			<g>
				<g>
					<path class="st13" d="M466.55,281.92c0,0,1.1-5.86-10.13-11.51c0,0-13.8-9.04-26.6,6.75c0,0-12.68,3.28-5.14,17.5
						c0,0-3.52,8.62,6.11,11.41c0,0-4.75,7.71,3.39,9.78c0,0,6.01-0.64,18.88,2.02c0,0,7.24,2.05,4.42-8.46c0,0,9.88,1.18,9.52-7.39
						c0,0,8.68-1.78,7.79-10.54C474.78,291.48,474.5,281.15,466.55,281.92z"/>
					<path class="st3" d="M452.57,319.9c-12.25-2.53-18.13-1.99-18.18-1.98l-0.37,0.04l-0.36-0.09c-3.7-0.95-5.22-2.96-5.83-4.48
						c-0.89-2.2-0.45-4.5,0.13-6.15c-2.36-1.09-4.05-2.67-5.04-4.72c-1.45-3-0.91-6.13-0.49-7.67c-2.45-4.96-2.89-9.3-1.3-12.92
						c1.84-4.18,5.84-5.98,7.47-6.55c13.03-15.57,27.3-7.7,28.83-6.78c8.22,4.16,10.5,8.6,11.07,11.28c1.69,0.2,3.21,0.87,4.46,1.98
						c3.51,3.1,3.87,8.7,3.91,9.5c0.7,7.23-4.15,10.91-7.83,12.25c-0.27,2.69-1.48,4.37-2.54,5.35c-1.94,1.8-4.51,2.39-6.45,2.56
						c0.48,3.22-0.05,5.54-1.59,7.06c-1.27,1.25-2.85,1.55-4.07,1.55C453.52,320.11,452.84,319.96,452.57,319.9z M457.71,307.34
						c1.09,0.12,4.28,0.1,5.96-1.47c0.9-0.84,1.31-2.08,1.24-3.77l-0.06-1.75l1.71-0.37c0.7-0.15,6.82-1.67,6.14-8.29l-0.01-0.15
						c-0.04-1.25-0.57-4.88-2.52-6.59c-0.89-0.78-2.01-1.1-3.44-0.96l-2.77,0.33l0.51-2.72c0-0.05,0.41-4.6-9.01-9.34l-0.2-0.11
						c-0.5-0.32-12.44-7.76-23.85,6.32l-0.44,0.53l-0.65,0.18c-0.04,0.01-3.96,1.1-5.42,4.46c-1.12,2.58-0.59,5.96,1.58,10.05
						l0.46,0.86l-0.37,0.9c-0.01,0.03-1.1,2.85,0.06,5.26c0.75,1.54,2.33,2.67,4.7,3.36l2.63,0.76l-1.44,2.33
						c-0.35,0.57-1.53,3.03-0.87,4.67c0.35,0.86,1.25,1.5,2.68,1.92c1.61-0.1,7.8-0.25,19.11,2.09l0.14,0.03
						c0.2,0.06,1.39,0.24,1.91-0.27c0.56-0.55,0.83-2.32-0.07-5.65l-0.79-2.95L457.71,307.34z"/>
				</g>
				<g>
					<path class="st14" d="M431.11,278.24c0,0,4.16-7.75,15.21-5.97c0,0,11.63,0.38,12.66,11.28c0,0,7.7-0.51,8.86,7.24
						c0,0,0.71,10.71-10.17,8.91c0,0,6.01,6.36-7.61,5.34c0,0,6.18,8.73-2.52,7.41c0,0-4.85-0.48-12.54-0.13
						c0,0-6.59,0.35,0.08-7.59c0,0-12.2,0.45-8.18-11.11C426.91,293.61,418.88,281.93,431.11,278.24z"/>
				</g>
				<g>
					<path class="st0" d="M437.57,273.83c2.39-3.63-3.96,1.2-6.71,5.68c0,0-6.91,0.91-6.55,8.03c0,0,0.03,3.8,2.5,6.59
						c0,0-2.41-9.8,7.92-13.71C434.73,280.42,433.41,280.14,437.57,273.83z"/>
				</g>
				<g>
					<g>
						<path class="st13" d="M452.77,285.82c2.03-0.47,5.14-2.33,10.14,1.91c0,0,4.93,4.53-2.57,10.03c0,0-6.82,1.08-11.88-3.04
							C448.47,294.71,447.4,287.07,452.77,285.82z"/>
						<path class="st3" d="M447.15,296.33l-0.63-0.52L446.4,295c-0.46-3.29,0.18-9.88,5.89-11.21l0,0c0.24-0.05,0.49-0.13,0.76-0.22
							c2.1-0.64,6.02-1.83,11.26,2.62c0.25,0.23,2.43,2.34,2.25,5.64c-0.15,2.72-1.83,5.27-5,7.6l-0.41,0.3l-0.5,0.08
							c-0.11,0.02-1.02,0.15-2.4,0.15C455.53,299.96,450.95,299.42,447.15,296.33z M462.41,291.65c0.09-1.37-0.86-2.34-0.85-2.34
							l0,0c-3.45-2.93-5.49-2.31-7.29-1.75c-0.36,0.11-0.71,0.21-1.02,0.29l0,0c-2.65,0.62-2.84,4.15-2.78,5.77
							c3.44,2.36,7.67,2.25,9.07,2.13C461.33,294.34,462.32,292.93,462.41,291.65z"/>
					</g>
					<g>
						<path class="st13" d="M441.09,302.45c0,0-5.01,3.42-0.17,5.56c0,0,5.71,2.03,5.66-0.19c0,0,2.46-2.95-1.52-6.3
							C445.06,301.53,443.69,299.83,441.09,302.45z"/>
						<path class="st3" d="M440.23,309.98l-0.15-0.06c-2.56-1.13-3.23-2.74-3.33-3.89c-0.24-2.59,2.18-4.58,3-5.18
							c1.4-1.36,2.84-2.01,4.23-1.94c1.13,0.06,2.01,0.59,2.53,1.12c3.89,3.35,3.04,6.9,2.07,8.56c-0.16,0.67-0.55,1.26-1.12,1.67
							c-0.68,0.49-1.58,0.69-2.56,0.69C443.37,310.95,441.65,310.48,440.23,309.98z M442.57,303.92l-0.3,0.25
							c-0.58,0.4-1.21,1.08-1.35,1.44c0.09,0.09,0.31,0.26,0.77,0.48c1.05,0.36,2.3,0.64,3.05,0.7l0.24-0.28
							c0.05-0.06,1.1-1.38-1.26-3.37l-0.03-0.03C443.52,303.15,443.15,303.34,442.57,303.92z M443.44,302.84L443.44,302.84
							L443.44,302.84z"/>
					</g>
					<g>
						<path class="st13" d="M438.89,283.93c-1.48-0.9-3.51-3.27-8.29-0.7c0,0-4.78,2.85-0.1,9.49c0,0,5.08,2.56,9.88,0.1
							C440.39,292.82,442.81,286.31,438.89,283.93z"/>
						<path class="st3" d="M429.57,294.58l-0.46-0.23l-0.3-0.42c-2.04-2.89-2.8-5.61-2.28-8.09c0.62-2.89,2.77-4.25,3.09-4.44
							c5.26-2.84,8.24-0.73,9.84,0.4c0.18,0.13,0.35,0.25,0.52,0.35c4.25,2.58,3.49,8.38,2.36,11.4l-0.28,0.76l-0.72,0.37
							c-1.89,0.97-3.8,1.3-5.52,1.3C432.39,295.97,429.73,294.66,429.57,294.58z M437.81,285.7L437.81,285.7
							c-0.24-0.14-0.49-0.32-0.76-0.51c-1.27-0.9-2.47-1.75-5.34-0.2c-0.04,0.02-0.89,0.6-1.12,1.76c-0.22,1.16,0.23,2.63,1.3,4.29
							c1.09,0.42,3.96,1.31,6.77,0.26C439.03,289.85,439.56,286.77,437.81,285.7z"/>
					</g>
				</g>
				<g>
					<path class="st0" d="M429.02,296.86c0,0,4.94,4.61,8.81,2c0,0-0.74,4.62-6.87,3.73C430.95,302.6,427.16,298.37,429.02,296.86z"
						/>
				</g>
				<g>
					<path class="st0" d="M452.34,288.77c1-0.24,2.55-1.16,5.04,0.95c0,0,2.45,2.25-1.28,4.99c0,0-3.39,0.54-5.91-1.51
						C450.19,293.19,449.66,289.4,452.34,288.77z"/>
				</g>
				<g>
					<path class="st0" d="M441.71,303.33c0,0-2.49,1.7-0.09,2.77c0,0,2.84,1.01,2.82-0.09c0,0,1.22-1.47-0.76-3.13
						C443.68,302.87,443,302.02,441.71,303.33z"/>
				</g>
				<g>
					<path class="st0" d="M434.37,286.13c-0.73-0.45-1.74-1.63-4.12-0.35c0,0-2.37,1.42-0.05,4.72c0,0,2.53,1.28,4.91,0.05
						C435.11,290.56,436.31,287.32,434.37,286.13z"/>
				</g>
			</g>
		</g>
	</g>
</g>
</svg>
