<?xml version="1.0" encoding="utf-8"?>
<!-- Generator: Adobe Illustrator 28.5.0, SVG Export Plug-In . SVG Version: 9.03 Build 54727)  -->
<svg version="1.0" id="Layer_1" xmlns="http://www.w3.org/2000/svg" xmlns:xlink="http://www.w3.org/1999/xlink" x="0px" y="0px"
	 viewBox="0 0 150 150" style="enable-background:new 0 0 150 150;" xml:space="preserve">
<style type="text/css">
	.st0{fill:#C1756B;}
	.st1{fill:#673956;}
	.st2{fill:#E59791;}
	.st3{fill:#557EBC;}
	.st4{fill:#333B4F;}
	.st5{fill:#96C6ED;}
	.st6{fill:#FFFFFF;}
	.st7{fill:#C74C44;}
	.st8{fill:#70220D;}
	.st9{fill:#F7CE03;}
	.st10{fill:#3E9672;}
	.st11{fill:#4C2F39;}
	.st12{fill:#8BEAC1;}
	.st13{fill:#9483AB;}
	.st14{fill:#CCC7CA;}
	.st15{fill:#634A46;}
	.st16{fill:#382823;}
	.st17{fill:#2B1E1A;}
	.st18{fill:#19100E;}
	.st19{fill:#95404B;}
	.st20{fill:#C6705C;}
	.st21{fill:#685963;}
	.st22{fill:#EAA498;}
	.st23{fill:#FFCAA6;}
	.st24{fill:#A55C56;}
	.st25{fill:#796C5C;}
	.st26{fill:#9B7F65;}
	.st27{fill:#C3B388;}
	.st28{fill:#E7DEA4;}
	.st29{fill:#635554;}
	.st30{fill:#698C5A;}
	.st31{fill:#9CCA70;}
	.st32{opacity:0.4;}
	.st33{fill:#F9EE67;}
</style>
<g>
	<g>
		<g>
			<g>
				<path class="st0" d="M81.96,106.45c0,0,0.04,1.94,0.34,3.74c0,0,0.42,1.67-0.75,1.93c0,0-5.45-0.14-5.77-0.14
					c0,0-1.07,0-1.4-0.27c0,0-1.03-1.27,2.13-2.71l0.53-0.57l-1.31-6.11l0.04-0.9l0.28-0.8l5.74,0.36L81.96,106.45z"/>
			</g>
			<g>
				<path class="st1" d="M81.64,112.49l-0.04,0.01l-0.05,0c-0.05,0-5.46-0.14-5.76-0.14c-0.28,0-1.24-0.03-1.64-0.36l-0.05-0.05
					c-0.04-0.04-0.35-0.46-0.2-1.09c0.18-0.78,0.99-1.51,2.4-2.16l0.35-0.38l-1.28-5.96l0.04-1.01l0.39-1.11l6.36,0.4l0.19,5.81
					v0.01c0,0.02,0.04,1.93,0.34,3.67c0.04,0.17,0.24,1.11-0.18,1.78c-0.19,0.3-0.48,0.51-0.84,0.59
					C81.65,112.49,81.65,112.49,81.64,112.49z M81.42,101.33l-5.12-0.32l-0.17,0.48l-0.03,0.8l1.35,6.25l-0.71,0.77l-0.07,0.03
					c-1.59,0.73-1.96,1.36-2.05,1.67c-0.06,0.22,0,0.38,0.03,0.44c0.17,0.09,0.67,0.16,1.14,0.17c0.31,0.01,5.14,0.13,5.73,0.14
					c0.15-0.04,0.26-0.12,0.34-0.25c0.23-0.36,0.14-1,0.08-1.22l0-0.01l0-0.01c-0.31-1.79-0.35-3.68-0.35-3.79L81.42,101.33z"/>
			</g>
		</g>
		<g>
			<g>
				<path class="st0" d="M76.23,104.42l0.36-0.1c1.21,1.46,3.39,1.66,4.84,0.46l1.3-1.08c1.46-1.21,1.66-3.38,0.46-4.84l0,0
					c-1.2-1.46-3.31-1.35-5.34-0.12l-0.73,0.33C75.67,100.26,75.02,102.96,76.23,104.42z"/>
			</g>
			<g>
				<path class="st1" d="M78.88,105.91c-0.93-0.09-1.78-0.5-2.42-1.18l-0.37,0.11l-0.15-0.19c-1.39-1.68-0.61-4.59,0.95-5.88
					l0.04-0.03l0.75-0.34c2.32-1.39,4.54-1.31,5.8,0.22c1.34,1.62,1.11,4.03-0.51,5.37l-1.3,1.07c-0.46,0.38-0.98,0.64-1.55,0.77
					C79.72,105.92,79.31,105.95,78.88,105.91z M78.05,99.05l-0.72,0.33c-1.18,1.02-1.81,3.29-0.96,4.61l0.35-0.1l0.16,0.19
					c0.52,0.63,1.26,1.02,2.07,1.09c0.82,0.08,1.61-0.17,2.24-0.69l1.3-1.08c1.3-1.08,1.48-3.01,0.41-4.32
					c-0.69-0.84-1.78-1.11-3.03-0.82C79.29,98.41,78.68,98.67,78.05,99.05z"/>
			</g>
		</g>
		<g>
			<g>
				<path class="st1" d="M78.88,105.92c-0.93-0.09-1.78-0.5-2.42-1.18l-0.37,0.1l-0.16-0.19c-1.39-1.68-0.8-4.41,0.76-5.71
					l0.04-0.03l0.94-0.52c2.32-1.39,4.54-1.31,5.8,0.22c0.65,0.78,0.95,1.77,0.85,2.79c-0.1,1.02-0.58,1.93-1.36,2.58l-1.3,1.08
					c-0.14,0.12-0.29,0.22-0.44,0.31C80.53,105.81,79.72,106,78.88,105.92z M76.05,101.71c-0.17,0.88-0.05,1.69,0.33,2.27l0.35-0.1
					l0.16,0.19c1.08,1.3,3.01,1.48,4.31,0.41l1.3-1.08c0.63-0.52,1.02-1.26,1.09-2.07c0.08-0.82-0.17-1.61-0.68-2.24
					c-1.01-1.22-2.87-1.24-4.85-0.04l-0.72,0.33C76.71,99.92,76.23,100.78,76.05,101.71z"/>
			</g>
		</g>
		<g>
			<g>
				<path class="st0" d="M79.63,106.06l-0.17,0.6c0.54,0.95,2.2,1.15,2.22-2.9l0.05-2.01c-0.16-1.29-1.44-2.2-2.85-2.03l0,0
					c-1.41,0.17-2.83,2.28-2.67,3.57l0.41,1.51C76.77,106.1,78.22,106.23,79.63,106.06z"/>
			</g>
		</g>
		<g>
			<g>
				<path class="st2" d="M79.29,105l-0.04,3.52c0,0-0.79-0.37-1.72-0.22l-1.13-4.39C76.39,103.91,78.8,102.45,79.29,105z"/>
			</g>
		</g>
		<g>
			<g>
				<path class="st2" d="M74.72,110.83c0,0,1.62-1.79,2.7-1.74c0,0,2.4-0.4,3.18,1.68c0,0,0.2,0.97-5.07,0.62
					C75.54,111.4,74.39,111.29,74.72,110.83z"/>
			</g>
		</g>
		<g>
			<g>
				<g>
					<path class="st2" d="M76.43,104.04l0.56,0.01c0.72,0.72,1.34-0.04,2.06-0.77l1.62-1.63c0.71-0.72,0.71-1.9-0.01-2.61l0,0
						c-0.72-0.71-2.18-0.58-2.89,0.14l-0.35,0.16C75.5,100.85,75.7,103.32,76.43,104.04z"/>
				</g>
			</g>
		</g>
		<g>
			<g>
				<path class="st3" d="M82.15,106.63c0,0-1.8,0.37-5.78,0.08l0.36,2c0,0,1.69,0.57,5.49-0.01L82.15,106.63z"/>
				<path class="st4" d="M76.6,109.06l-0.21-0.07l-0.48-2.7l0.49,0.04c3.85,0.28,5.65-0.06,5.68-0.07l0.44-0.09l0.09,2.85
					l-0.33,0.05c-1.29,0.2-2.35,0.26-3.19,0.26C77.44,109.33,76.65,109.08,76.6,109.06z M81.78,107.07
					c-0.72,0.09-2.32,0.22-4.96,0.05l0.23,1.28c0.53,0.11,2.07,0.35,4.77-0.03L81.78,107.07z"/>
			</g>
			<g>
				<path class="st5" d="M77,107.24c0,0,1.98,0.18,3.77,0.1c0,0-0.86,1.27-2.16,1.22l-1.5-0.04L77,107.24z"/>
			</g>
		</g>
		<g>
			<path class="st6" d="M78.28,107.24c0,0-1.02,0.02-1.59-0.15l0.32,1.58C77.01,108.67,78.51,108.7,78.28,107.24z"/>
		</g>
	</g>
	<g>
		<g>
			<g>
				<path class="st0" d="M71.06,101.29c0,0-0.41,1.9-0.52,3.72c0,0,0.02,1.73-1.17,1.71c0,0-5.28-1.38-5.59-1.46
					c0,0-1.05-0.25-1.3-0.59c0,0-0.71-1.47,2.69-2.15l0.65-0.44l0.12-6.24l0.24-0.87l0.46-0.71l5.5,1.66L71.06,101.29z"/>
			</g>
			<g>
				<path class="st1" d="M69.37,107.09l-0.05,0l-0.04-0.01c-0.05-0.01-5.28-1.38-5.58-1.46c-0.28-0.06-1.2-0.31-1.52-0.73
					l-0.04-0.06c-0.03-0.05-0.24-0.53,0.05-1.11c0.36-0.72,1.31-1.24,2.83-1.56l0.42-0.29l0.11-6.1l0.27-0.97l0.64-0.99l6.1,1.84
					l-1.15,5.7l0,0.01c0,0.02-0.4,1.88-0.51,3.65c0,0.17-0.02,1.13-0.58,1.69c-0.25,0.25-0.58,0.38-0.95,0.38
					C69.38,107.09,69.37,107.09,69.37,107.09z M71.71,96.18L66.8,94.7l-0.27,0.43l-0.22,0.77l-0.12,6.39l-0.87,0.59l-0.07,0.01
					c-1.71,0.34-2.22,0.87-2.37,1.15c-0.11,0.2-0.08,0.37-0.07,0.44c0.14,0.13,0.61,0.31,1.07,0.42c0.3,0.08,4.98,1.3,5.54,1.45
					c0.16-0.01,0.28-0.06,0.39-0.16c0.3-0.3,0.36-0.95,0.36-1.17V105l0-0.01c0.11-1.81,0.51-3.66,0.53-3.77L71.71,96.18z"/>
			</g>
		</g>
		<g>
			<g>
				<path class="st0" d="M65.95,98l0.38-0.02c0.84,1.7,2.91,2.39,4.61,1.55l1.51-0.75c1.69-0.84,2.39-2.91,1.55-4.61l0,0
					c-0.84-1.69-2.92-2.07-5.17-1.34l-0.78,0.15C66.35,93.83,65.11,96.3,65.95,98z"/>
			</g>
			<g>
				<path class="st1" d="M68.19,100.06c-0.89-0.3-1.62-0.9-2.08-1.7l-0.39,0.02l-0.11-0.22c-0.97-1.95,0.45-4.61,2.27-5.51
					l0.04-0.02l0.81-0.16c2.57-0.83,4.72-0.24,5.59,1.54c0.93,1.88,0.16,4.18-1.72,5.11l-1.51,0.75c-0.53,0.26-1.1,0.4-1.68,0.4
					C69,100.27,68.59,100.2,68.19,100.06z M68.95,93.19l-0.77,0.15c-1.39,0.72-2.52,2.78-1.99,4.27l0.36-0.02l0.11,0.22
					c0.36,0.73,0.99,1.28,1.77,1.54s1.61,0.21,2.34-0.15l1.51-0.75c1.51-0.75,2.14-2.59,1.38-4.11c-0.48-0.97-1.48-1.49-2.77-1.49
					C70.3,92.85,69.64,92.96,68.95,93.19z"/>
			</g>
		</g>
		<g>
			<g>
				<path class="st1" d="M68.19,100.07c-0.89-0.3-1.62-0.9-2.08-1.7l-0.39,0.02l-0.11-0.22c-0.97-1.95,0.23-4.48,2.05-5.38
					l0.05-0.02l1.04-0.29c2.57-0.83,4.72-0.24,5.6,1.54c0.45,0.91,0.52,1.94,0.19,2.91c-0.33,0.97-1.01,1.75-1.92,2.2l-1.51,0.75
					c-0.16,0.08-0.33,0.15-0.5,0.21C69.82,100.34,68.98,100.33,68.19,100.07z M66.39,95.33c-0.36,0.81-0.43,1.63-0.2,2.28l0.36-0.01
					l0.11,0.22c0.75,1.51,2.59,2.13,4.1,1.38l1.51-0.75c0.73-0.36,1.28-0.99,1.54-1.77c0.26-0.78,0.21-1.61-0.15-2.34
					c-0.7-1.42-2.51-1.86-4.71-1.15l-0.78,0.15C67.44,93.73,66.78,94.46,66.39,95.33z"/>
			</g>
		</g>
		<g>
			<g>
				<path class="st0" d="M68.88,100.37l-0.31,0.55c0.31,1.05,1.88,1.63,2.82-2.31l0.51-1.94c0.14-1.29-0.9-2.48-2.31-2.63l0,0
					c-1.41-0.15-3.28,1.57-3.42,2.86l0.06,1.56C66.09,99.76,67.47,100.22,68.88,100.37z"/>
			</g>
		</g>
		<g>
			<g>
				<path class="st2" d="M68.79,99.27l-0.84,3.41c0,0-0.68-0.54-1.62-0.61l-0.1-4.53C66.22,97.54,68.9,96.67,68.79,99.27z"/>
			</g>
		</g>
		<g>
			<g>
				<path class="st2" d="M63.01,103.9c0,0,1.99-1.37,3.03-1.07c0,0,2.42,0.16,2.71,2.36c0,0-0.02,0.99-5.07-0.55
					C63.68,104.64,62.59,104.27,63.01,103.9z"/>
			</g>
		</g>
		<g>
			<g>
				<g>
					<path class="st2" d="M66.23,97.67l0.54,0.13c0.54,0.86,1.32,0.26,2.18-0.27l1.95-1.22c0.86-0.54,1.12-1.68,0.58-2.54l0,0
						c-0.54-0.86-1.99-1.06-2.85-0.53l-0.38,0.08C66.05,94.36,65.69,96.81,66.23,97.67z"/>
				</g>
			</g>
		</g>
		<g>
			<g>
				<path class="st3" d="M71.2,101.5c0,0-1.84-0.05-5.64-1.25l-0.11,2.02c0,0,1.52,0.94,5.34,1.25L71.2,101.5z"/>
				<path class="st4" d="M70.76,103.91c-3.87-0.31-5.45-1.26-5.51-1.3l-0.19-0.12l0.14-2.73l0.47,0.15
					c3.69,1.16,5.52,1.23,5.54,1.23l0.45,0.01l-0.57,2.79L70.76,103.91z M65.91,100.76l-0.07,1.3c0.49,0.23,1.94,0.81,4.65,1.06
					l0.26-1.28C70.03,101.77,68.44,101.52,65.91,100.76z"/>
			</g>
			<g>
				<path class="st5" d="M66.05,100.93c0,0,1.89,0.63,3.64,0.96c0,0-1.12,1.04-2.39,0.69l-1.45-0.38L66.05,100.93z"/>
			</g>
		</g>
		<g>
			<path class="st6" d="M67.3,101.21c0,0-1-0.22-1.51-0.51l-0.05,1.61C65.74,102.32,67.19,102.69,67.3,101.21z"/>
		</g>
	</g>
	<g>
		<g>
			<path class="st2" d="M72.1,80.49c0,0,1.84-0.66,1.26,2.9c0,0-1.26,2.45-3.24,3.64c0,0-3.57,0.79-4.24,0.91
				c0,0,0.18-1.68-1.38-2.9c0,0,3.61-0.44,3.96-0.69c0,0,1.52-1.58,2.57-3.02C71.02,81.33,71.53,80.5,72.1,80.49z"/>
		</g>
		<g>
			<g>
				<path class="st0" d="M71.06,88.87c0,0-3.38,1.73-7.81,1.83c0,0,0.98-3.54-0.98-5.67c0,0,3.09-0.44,5.63-0.9
					c0.9-0.16,2.17-2.51,3.42-3.78c1.45-1.48,5.19-0.13,4.11,2.97C75.28,83.75,73.85,87.26,71.06,88.87z"/>
				<path class="st1" d="M62.89,90.6c0.01-0.03,0.91-3.36-0.89-5.31l-0.49-0.53l0.71-0.1c0.03,0,3.11-0.44,5.61-0.9
					c0.41-0.07,1.16-1.08,1.76-1.88c0.47-0.63,0.96-1.28,1.45-1.79c0.85-0.87,2.4-0.96,3.6-0.21c1.22,0.76,1.64,2.09,1.13,3.57
					c-0.01,0.04-1.45,3.98-4.53,5.75l-0.02,0.01c-0.14,0.07-3.51,1.77-7.98,1.87l-0.51,0.01L62.89,90.6z M75.07,83.2
					c0.56-1.61-0.38-2.41-0.81-2.68c-0.89-0.55-2.06-0.51-2.66,0.1c-0.46,0.47-0.93,1.1-1.39,1.71c-0.82,1.1-1.53,2.05-2.23,2.18
					c-1.82,0.33-3.95,0.65-4.99,0.81c1.17,1.75,0.94,4,0.75,4.99c3.95-0.2,6.98-1.68,7.16-1.77C73.71,86.89,75.05,83.23,75.07,83.2z
					"/>
			</g>
			<g>
				<g>
					<g>
						<path class="st3" d="M65.71,90.63c0,0,1.45-3.19-0.84-6.12l-3.71,0.3c0,0,2.31,2.61,1.24,6.41
							C62.4,91.21,64.5,90.94,65.71,90.63z"/>
						<path class="st4" d="M62.04,91.11c1-3.54-1.07-5.95-1.16-6.06l-0.5-0.57l4.67-0.38l0.13,0.16c2.4,3.07,0.95,6.37,0.88,6.51
							l-0.07,0.16l-0.18,0.04c-1.22,0.32-3.27,0.59-3.35,0.6l-0.57,0.07L62.04,91.11z M64.7,84.9l-2.83,0.23
							c0.61,0.94,1.59,2.97,1.03,5.63c0.65-0.1,1.73-0.27,2.53-0.46C65.67,89.66,66.38,87.2,64.7,84.9z"/>
					</g>
					<g>
						<path class="st5" d="M64.69,84.98c0,0,2.16,4.31-1.72,5.03c0,0,0.45-2.41-1.03-4.76L64.69,84.98z"/>
					</g>
				</g>
				<g>
					<path class="st6" d="M61.81,85.28l2.84-0.35c0,0,1.14,1.95-1.61,3.65C63.04,88.58,62.63,86.83,61.81,85.28z"/>
				</g>
			</g>
		</g>
	</g>
	<g>
		<g>
			<g>
				<path class="st0" d="M71.12,87.85c0.71,1.49,5.85,3.53,5.85,3.53s-6.78-4.44,0,0c6.78,4.44,14.87,3.11,14.87,3.11
					s-0.23,0.23,0,0c0.23-0.23,1.14-5.13,1.14-5.13s0.78-4.49-2.48-8.68c0,0-8.67,0.73-11.54-4.22c0,0-4.45,0.22-8.45,10.47
					l0.55,1.06l-0.87-0.68C70.19,87.31,71.1,87.81,71.12,87.85z"/>
				<path class="st1" d="M76.8,91.72c-0.6-0.24-4.24-1.73-5.6-3.14l-1.24-0.97l0.27-0.41l-0.13-0.25l0.06-0.16
					c4.04-10.36,8.59-10.7,8.78-10.71l0.23-0.01l0.12,0.2c2.71,4.68,11.1,4.04,11.18,4.04l0.2-0.02l0.13,0.16
					c3.32,4.27,2.59,8.79,2.56,8.98c-0.49,2.6-0.78,3.91-0.96,4.58l0.53-0.09l-0.91,0.93l-0.13-0.13l0.02,0.13
					c-0.12,0.02-1.27,0.2-3.02,0.2C85.87,95.07,81.11,94.53,76.8,91.72z M92.61,89.3c0.01-0.04,0.69-4.27-2.29-8.23
					c-1.37,0.08-8.71,0.29-11.56-4.2c-0.9,0.22-4.51,1.61-7.84,10.03l0.28,0.54c0.21,0.13,0.23,0.17,0.26,0.24l0,0
					c0.26,0.54,1.28,1.22,2.42,1.84l0.28-0.43l3.01,1.97l0,0c5.98,3.92,13.11,3.24,14.39,3.08C91.77,93.53,92.23,91.31,92.61,89.3z"
					/>
			</g>
			<g>
				<path class="st2" d="M83.85,85.57c0,0-4.62-1.19-8.94-5.72c0,0-2.13,2.89-2.45,7.13c0,0,5.23,4.14,10.44,4.9
					C82.9,91.88,87.86,88.04,83.85,85.57z"/>
			</g>
		</g>
		<g>
			<path class="st7" d="M91.72,82.93c0,0-5.71,3.75-11.18,1.7c0,0-5.1-1.99-4.38-6.16c0,0-0.13-0.81,1.28-1.99
				c0,0,0.38-1.11-1.15-0.17c0,0-2.07,2.04-0.95,5.31c0,0,1.65,4.95,9.24,5.04c0,0,4.86-0.1,8.52-3.1c0,0,0.78-0.31,0.45-1.04
				C93.54,82.52,93.13,81.71,91.72,82.93z"/>
			<path class="st8" d="M75.07,81.71c-1.16-3.4,0.93-5.52,1.02-5.6l0.05-0.04c0.7-0.43,1.14-0.53,1.42-0.3
				c0.31,0.25,0.18,0.72,0.14,0.81l-0.03,0.07l-0.06,0.05c-1.23,1.04-1.18,1.73-1.18,1.73l0,0l0.01,0.05l-0.01,0.05
				c-0.67,3.88,4.15,5.82,4.2,5.84c5.14,1.92,10.59-1.46,10.91-1.66c0.66-0.56,1.23-0.8,1.69-0.71c0.39,0.08,0.55,0.37,0.57,0.41
				c0.12,0.28,0.14,0.55,0.04,0.8c-0.14,0.36-0.47,0.54-0.6,0.6c-3.69,3.01-8.46,3.14-8.67,3.14
				C76.87,86.85,75.08,81.76,75.07,81.71z M93.11,82.54c-0.16-0.02-0.53,0.02-1.21,0.6l-0.03,0.02c-0.24,0.16-5.89,3.81-11.44,1.73
				c-0.05-0.02-5.28-2.11-4.56-6.43c-0.01-0.23,0.05-1.05,1.31-2.14c0.01-0.04,0.01-0.08,0.01-0.11c-0.07,0-0.28,0.04-0.72,0.32
				c-0.2,0.22-1.85,2.1-0.86,5c0.02,0.05,1.67,4.76,8.96,4.85c0.05,0,4.8-0.13,8.35-3.04l0.03-0.03l0.04-0.02
				c0,0,0.25-0.11,0.32-0.31c0.04-0.1,0.03-0.21-0.02-0.34C93.28,82.63,93.22,82.56,93.11,82.54z"/>
		</g>
		<g>
			<path class="st9" d="M75.68,77.33c0,0-1.24,2.99,0.37,5.1c0,0,0-0.22,0.45-0.12C76.51,82.3,75.03,80.86,75.68,77.33z"/>
		</g>
		<g>
			<path class="st9" d="M88.64,84.87c0.11-0.05-3.13,1.05-7.08,0.35c0,0-0.2,0.33,0.61,0.57C82.18,85.79,85.44,86.46,88.64,84.87z"
				/>
		</g>
		<g>
			<g>
				<g>
					<g>
						<path class="st10" d="M78.36,92.11c0,0-4.22,2.54-4.76,6.29c0,0-0.45,1.99,1.53,2.92c0,0,2.58,1.07,3.72-1.3
							c0,0,2.04-2.84,0.89-7.24L78.36,92.11z"/>
						<path class="st11" d="M74.97,101.66c-1.78-0.83-1.92-2.53-1.74-3.33c0.57-3.87,4.76-6.44,4.94-6.54l0.18-0.11l1.72,0.83
							l0.04,0.17c1.13,4.34-0.7,7.19-0.93,7.53c-0.65,1.34-1.77,1.73-2.75,1.73C75.86,101.94,75.34,101.81,74.97,101.66z
							 M78.39,92.54c-0.78,0.51-3.96,2.8-4.41,5.91l-0.01,0.03c-0.02,0.07-0.35,1.71,1.31,2.49c0.09,0.04,2.26,0.91,3.23-1.12
							l0.03-0.06c0.02-0.03,1.87-2.67,0.88-6.76L78.39,92.54z"/>
					</g>
					<g>
						<path class="st12" d="M79.16,92.8c0,0-1.74,2.3-3.86,8.18c0,0,2.63,0.75,3.41-1.64C78.71,99.33,80.68,96.42,79.16,92.8z"/>
					</g>
					<g>
						<path class="st9" d="M73.78,98.27c0,0,1.57-0.8,2.99-0.87c0,0,1.17,1.18,1.85,2.61c0,0,0.28-0.39,0.51-1.14
							c0,0-0.87-1.85-1.94-2.54c0,0-1.46-0.11-3.04,0.73C74.15,97.06,73.96,97.44,73.78,98.27z"/>
					</g>
					<g>
						<path class="st9" d="M75.05,95.47c0,0,1.54-0.48,2.75-0.44c0,0,1.31,1.22,1.84,2.42c0,0,0.17-0.33,0.24-1.12
							c0,0-0.8-1.53-1.68-2.16c0,0-1.01-0.17-2.37,0.42C75.82,94.59,75.61,94.76,75.05,95.47z"/>
					</g>
				</g>
				<g>
					<path class="st11" d="M78.71,92.35c-0.31,0.63-0.6,1.27-0.88,1.91c-0.28,0.64-0.55,1.29-0.81,1.94
						c-0.26,0.65-0.51,1.3-0.75,1.96c-0.24,0.66-0.47,1.32-0.69,1.99c0.26-0.65,0.52-1.3,0.8-1.94c0.27-0.64,0.56-1.28,0.86-1.91
						c0.29-0.63,0.6-1.26,0.92-1.88c0.31-0.62,0.64-1.24,0.98-1.85L78.71,92.35z"/>
				</g>
			</g>
			<g>
				<g>
					<g>
						<path class="st10" d="M74.73,91.52c0,0-4.23,1.59-4.8,4.42c0,0-0.47,1.49,1.5,2.38c0,0,2.56,1.05,3.71-0.68
							c0,0,2.06-2,0.96-5.49L74.73,91.52z"/>
						<path class="st11" d="M71.27,98.66c-1.78-0.8-1.9-2.18-1.71-2.82c0.62-2.99,4.86-4.61,5.04-4.68l0.15-0.06l1.66,0.77
							l0.05,0.16c1.1,3.47-0.76,5.56-1.03,5.84c-0.61,0.89-1.53,1.13-2.35,1.13C72.15,99.01,71.34,98.69,71.27,98.66z M74.72,91.93
							c-0.72,0.3-3.95,1.77-4.42,4.08l-0.01,0.04c-0.02,0.05-0.35,1.18,1.28,1.91c0.02,0.01,2.28,0.91,3.26-0.54l0.05-0.06
							c0.02-0.02,1.82-1.82,0.91-4.94L74.72,91.93z"/>
					</g>
					<g>
						<path class="st12" d="M75.52,92.12c0,0-1.75,1.62-3.92,5.95c0,0,2.61,0.81,3.41-0.97C75.01,97.1,77,95.04,75.52,92.12z"/>
					</g>
					<g>
						<path class="st9" d="M70.1,95.86c0,0,1.57-0.48,2.99-0.41c0,0,1.15,1.01,1.82,2.16c0,0,0.28-0.28,0.52-0.83
							c0,0-0.85-1.5-1.91-2.12c0,0-1.45-0.21-3.03,0.3C70.49,94.96,70.3,95.24,70.1,95.86z"/>
					</g>
					<g>
						<path class="st9" d="M71.4,93.82c0,0,1.54-0.23,2.74-0.1c0,0,1.3,1.05,1.81,2.02c0,0,0.17-0.24,0.25-0.84
							c0,0-0.78-1.24-1.66-1.8c0,0-1-0.22-2.37,0.12C72.18,93.21,71.97,93.32,71.4,93.82z"/>
					</g>
				</g>
				<g>
					<path class="st11" d="M75.08,91.74c-0.31,0.46-0.61,0.93-0.89,1.39c-0.28,0.47-0.56,0.94-0.82,1.42
						c-0.26,0.48-0.52,0.96-0.76,1.44c-0.25,0.48-0.48,0.97-0.7,1.47c0.26-0.48,0.53-0.95,0.81-1.42c0.28-0.47,0.57-0.93,0.87-1.4
						c0.3-0.46,0.61-0.92,0.93-1.37c0.32-0.45,0.65-0.9,0.99-1.34L75.08,91.74z"/>
				</g>
			</g>
			<g>
				<g>
					<g>
						<path class="st10" d="M71.46,88.8c0,0-4.46,1.45-5.32,4.21c0,0-0.62,1.45,1.3,2.36c0,0,2.51,1.09,3.85-0.57
							c0,0,2.29-1.91,1.5-5.35L71.46,88.8z"/>
						<path class="st11" d="M67.28,95.72c-2.06-0.98-1.58-2.58-1.5-2.82c0.91-2.91,5.37-4.39,5.56-4.45l0.15-0.05l1.64,0.8
							l0.04,0.18c0.79,3.45-1.31,5.44-1.6,5.7c-0.67,0.81-1.57,1.04-2.37,1.04C68.2,96.11,67.35,95.75,67.28,95.72z M71.44,89.21
							c-0.75,0.27-4.23,1.64-4.93,3.91l-0.01,0.03c-0.05,0.12-0.41,1.15,1.1,1.87c0.02,0.01,2.26,0.95,3.4-0.46l0.05-0.05
							c0.02-0.02,2.03-1.73,1.42-4.8L71.44,89.21z"/>
					</g>
					<g>
						<path class="st12" d="M72.2,89.41c0,0-1.94,1.54-4.56,5.73c0,0,2.59,0.85,3.57-0.87C71.21,94.27,73.44,92.3,72.2,89.41z"/>
					</g>
					<g>
						<path class="st9" d="M66.33,92.94c0,0,1.65-0.43,3.09-0.33c0,0,1.08,1.02,1.65,2.16c0,0,0.32-0.26,0.61-0.8
							c0,0-0.72-1.49-1.75-2.12c0,0-1.46-0.24-3.12,0.22C66.81,92.07,66.58,92.34,66.33,92.94z"/>
					</g>
					<g>
						<path class="st9" d="M67.84,90.97c0,0,1.59-0.19,2.81-0.04c0,0,1.22,1.06,1.65,2.02c0,0,0.2-0.23,0.34-0.82
							c0,0-0.68-1.24-1.52-1.8c0,0-1-0.24-2.42,0.06C68.69,90.4,68.47,90.5,67.84,90.97z"/>
					</g>
				</g>
				<g>
					<path class="st11" d="M71.79,89.02c-0.36,0.44-0.71,0.89-1.04,1.34c-0.33,0.45-0.66,0.91-0.98,1.37
						c-0.31,0.46-0.62,0.92-0.92,1.39c-0.3,0.47-0.58,0.94-0.86,1.42c0.31-0.46,0.63-0.92,0.96-1.37c0.33-0.45,0.67-0.9,1.02-1.34
						c0.35-0.44,0.71-0.88,1.08-1.32c0.37-0.43,0.75-0.87,1.14-1.28L71.79,89.02z"/>
				</g>
			</g>
			<g>
				<g>
					<g>
						<path class="st10" d="M88.32,96.21c0,0-3.14,3.45-2.85,7.1c0,0,0.01,1.98,1.93,2.36c0,0,2.46,0.36,2.96-2.16
							c0,0,1.19-3.18-0.71-7.02L88.32,96.21z"/>
						<path class="st11" d="M87.33,106.04c-1.75-0.34-2.22-1.91-2.24-2.71c-0.3-3.77,2.81-7.23,2.94-7.37l0.15-0.16l1.73,0.36
							l0.08,0.17c1.87,3.79,0.86,6.93,0.74,7.29c-0.4,1.96-1.94,2.46-2.98,2.46C87.6,106.06,87.46,106.05,87.33,106.04z
							 M88.46,96.62c-0.59,0.71-2.86,3.64-2.61,6.66l0,0.03c0,0.07,0.03,1.68,1.61,1.98c0.09,0.01,2.11,0.28,2.53-1.86l0.02-0.06
							c0.01-0.03,1.07-2.99-0.61-6.56L88.46,96.62z"/>
					</g>
					<g>
						<path class="st12" d="M89.15,96.65c0,0-1.04,2.6-1.67,8.65c0,0,2.44,0.04,2.62-2.4C90.1,102.9,91.22,99.67,89.15,96.65z"/>
					</g>
					<g>
						<path class="st9" d="M85.6,103.15c0,0,1.2-1.15,2.42-1.57c0,0,1.26,0.82,2.14,1.98c0,0,0.16-0.44,0.21-1.2
							c0,0-1.13-1.52-2.21-1.89c0,0-1.29,0.27-2.49,1.45C85.68,101.91,85.59,102.33,85.6,103.15z"/>
					</g>
					<g>
						<path class="st9" d="M86.13,100.2c0,0,1.24-0.84,2.3-1.11c0,0,1.39,0.81,2.09,1.81c0,0,0.08-0.35-0.02-1.11
							c0,0-1.01-1.23-1.9-1.6c0,0-0.91,0.1-1.97,0.99C86.62,99.18,86.47,99.39,86.13,100.2z"/>
					</g>
				</g>
				<g>
					<path class="st11" d="M88.67,96.35c-0.14,0.67-0.26,1.34-0.37,2.02c-0.11,0.67-0.21,1.35-0.3,2.02
						c-0.09,0.68-0.18,1.35-0.25,2.03c-0.07,0.68-0.13,1.36-0.19,2.04c0.09-0.68,0.18-1.35,0.29-2.02c0.11-0.67,0.23-1.34,0.35-2.01
						c0.13-0.67,0.26-1.34,0.41-2c0.15-0.66,0.3-1.33,0.47-1.98L88.67,96.35z"/>
				</g>
			</g>
			<g>
				<g>
					<g>
						<path class="st10" d="M84.12,95.08c0,0-2.91,3.79-2.35,7.36c0,0,0.16,1.96,2.1,2.1c0,0,2.49,0.06,2.81-2.49
							c0,0,0.96-3.28-1.21-6.86L84.12,95.08z"/>
						<path class="st11" d="M83.85,104.91c-1.79-0.13-2.38-1.64-2.45-2.43c-0.57-3.69,2.3-7.48,2.42-7.64l0.13-0.16l1.76,0.14
							l0.1,0.16c2.15,3.53,1.36,6.76,1.26,7.13c-0.29,2.21-2.14,2.79-3.15,2.79C83.89,104.91,83.87,104.91,83.85,104.91z
							 M84.3,95.47c-0.53,0.75-2.62,3.94-2.15,6.91l0,0.03c0.01,0.07,0.16,1.63,1.74,1.75h0c0.19,0,2.15-0.05,2.42-2.16l0.01-0.06
							c0.01-0.03,0.86-3.06-1.08-6.39L84.3,95.47z"/>
					</g>
					<g>
						<path class="st12" d="M84.98,95.42c0,0-0.86,2.69-1.06,8.75c0,0,2.45-0.25,2.46-2.69C86.39,101.48,87.27,98.15,84.98,95.42z"
							/>
					</g>
					<g>
						<path class="st9" d="M81.89,102.26c0,0,1.12-1.28,2.32-1.84c0,0,1.32,0.65,2.29,1.7c0,0,0.13-0.45,0.13-1.21
							c0,0-1.25-1.36-2.35-1.61c0,0-1.27,0.42-2.39,1.73C81.87,101.03,81.82,101.45,81.89,102.26z"/>
					</g>
					<g>
						<path class="st9" d="M82.2,99.28c0,0,1.19-0.97,2.22-1.37c0,0,1.45,0.63,2.23,1.54c0,0,0.05-0.36-0.1-1.1
							c0,0-1.1-1.1-2.02-1.35c0,0-0.9,0.2-1.91,1.22C82.63,98.22,82.49,98.45,82.2,99.28z"/>
					</g>
				</g>
				<g>
					<path class="st11" d="M84.48,95.17c-0.09,0.68-0.16,1.36-0.22,2.04c-0.06,0.68-0.12,1.36-0.16,2.04
						c-0.04,0.68-0.08,1.36-0.1,2.04c-0.03,0.68-0.04,1.36-0.04,2.03c0.04-0.68,0.09-1.36,0.15-2.03c0.06-0.68,0.13-1.35,0.21-2.03
						c0.08-0.68,0.17-1.35,0.27-2.03c0.1-0.67,0.21-1.35,0.33-2.01L84.48,95.17z"/>
				</g>
			</g>
			<g>
				<g>
					<g>
						<path class="st10" d="M81.34,93.38c0,0-3.39,3.3-3.44,7.05c0,0-0.17,2.02,1.66,2.54c0,0,2.36,0.53,3.09-2
							c0,0,1.45-3.16-0.03-7.21L81.34,93.38z"/>
						<path class="st11" d="M79.48,103.33l-0.02,0c-1.68-0.47-2-2.11-1.94-2.92c0.06-3.85,3.41-7.16,3.55-7.3l0.16-0.15l1.67,0.49
							l0.07,0.18c1.47,4,0.19,7.13,0.03,7.47c-0.53,1.83-1.91,2.3-2.91,2.3C79.87,103.39,79.66,103.37,79.48,103.33z M81.45,93.8
							c-0.65,0.69-3.13,3.53-3.17,6.62l0,0.03c-0.01,0.07-0.12,1.71,1.37,2.14c0.16,0.03,2.03,0.38,2.63-1.73l0.02-0.05
							c0.01-0.03,1.33-2.98,0.02-6.75L81.45,93.8z"/>
					</g>
					<g>
						<path class="st12" d="M82.11,93.89c0,0-1.25,2.58-2.44,8.7c0,0,2.37,0.21,2.78-2.27C82.45,100.33,83.84,97.11,82.11,93.89z"/>
					</g>
					<g>
						<path class="st9" d="M78.04,100.27c0,0,1.28-1.09,2.51-1.44c0,0,1.15,0.92,1.9,2.17c0,0,0.2-0.43,0.32-1.21
							c0,0-0.96-1.63-1.98-2.08c0,0-1.28,0.18-2.56,1.31C78.23,99.01,78.11,99.43,78.04,100.27z"/>
					</g>
					<g>
						<path class="st9" d="M78.83,97.3c0,0,1.29-0.77,2.34-0.97c0,0,1.28,0.92,1.87,1.99c0,0,0.11-0.36,0.08-1.14
							c0,0-0.87-1.33-1.71-1.76c0,0-0.89,0.03-2.02,0.88C79.41,96.29,79.24,96.5,78.83,97.3z"/>
					</g>
				</g>
				<g>
					<path class="st11" d="M81.67,93.54c-0.2,0.68-0.38,1.35-0.55,2.03c-0.17,0.68-0.33,1.36-0.49,2.04
						c-0.15,0.68-0.3,1.37-0.43,2.05c-0.14,0.69-0.26,1.37-0.37,2.06c0.15-0.68,0.31-1.36,0.48-2.04c0.17-0.68,0.35-1.35,0.53-2.03
						c0.19-0.67,0.38-1.34,0.58-2.01c0.2-0.67,0.42-1.33,0.64-1.99L81.67,93.54z"/>
				</g>
			</g>
			<g>
				<g>
					<path class="st3" d="M68.78,90.6c0,0,8.77,8.33,21.84,7.67c0,0,0.61-0.34,0.74-0.75c0,0,0.84-2.44,0.94-3
						c0.08-0.47-0.05-0.68-0.56-0.52c0,0-7.33,2.4-21.21-7.08c0,0,0.18-1-0.68-0.24C69.86,86.69,68.02,90.25,68.78,90.6z"/>
					<path class="st4" d="M68.55,90.91c-0.1-0.06-0.22-0.17-0.28-0.36c-0.31-0.89,0.88-3.31,1.25-4.03l0.03-0.06l0.05-0.05
						c0.17-0.15,0.61-0.54,1.02-0.31c0.25,0.14,0.31,0.43,0.31,0.65c13.4,9.09,20.63,6.93,20.7,6.91c0.14-0.04,0.55-0.18,0.85,0.08
						c0.3,0.26,0.22,0.72,0.2,0.86c-0.1,0.57-0.87,2.81-0.95,3.05c-0.17,0.52-0.79,0.89-0.92,0.96l-0.08,0.04l-0.09,0
						c-0.5,0.02-0.98,0.04-1.47,0.04C77.31,98.69,69.17,91.47,68.55,90.91z M91,97.4c0.23-0.67,0.85-2.51,0.92-2.94
						c0.01-0.05,0.01-0.09,0.02-0.12c-0.02,0.01-0.05,0.01-0.08,0.02c-0.31,0.1-7.67,2.35-21.54-7.13l-0.2-0.14l0.02-0.14
						c-0.74,1.46-1.26,2.96-1.16,3.32l0.06,0.05c0.08,0.08,8.16,7.61,20.13,7.61c0.44,0,0.89-0.01,1.34-0.03
						C90.7,97.78,90.95,97.56,91,97.4z"/>
				</g>
				<g>
					<path class="st5" d="M69.8,87.25c0.74-0.5,0.65,0.24,0.65,0.24c12.83,8.29,20.4,7.17,20.4,7.17c0.13-0.02,0.16,0.15,0.24,0.16
						c-0.62,1.13-1.65,2.84-4.31,3.09c-13.09-2.04-17.74-7.6-17.74-7.6C68.31,89.98,69.8,87.25,69.8,87.25z"/>
				</g>
				<g>
					<path class="st6" d="M89.86,94.71c0,0-8.55,0.01-19.23-7.15c0,0-0.56-0.29-0.83-0.04c0,0-0.74,0.87-0.86,2.55
						c0,0,0.77,0.29,1.65-1.25c0,0,10.34,7.22,18.41,6.47C88.99,95.29,91.45,94.76,89.86,94.71z"/>
				</g>
			</g>
		</g>
		<g>
			<path class="st13" d="M79.01,84.86c0,0-0.43,0.83,0.57,1.37c0,0-0.52,0.85,0.4,2.26c0,0-1.43,0.37-2.59-1.43
				c0,0-1.75-3.34,0.87-5.09c0,0,1.71,0.18,2.67,1.3c0,0-0.05,0.37-0.45,0.94C80.49,84.21,79.35,83.66,79.01,84.86z"/>
			<path class="st1" d="M77.08,87.26l-0.02-0.03c-0.66-1.26-1.3-4.04,0.99-5.58l0.11-0.08l0.14,0.01c0.08,0.01,1.87,0.21,2.92,1.43
				l0.11,0.13l-0.02,0.17c-0.01,0.05-0.07,0.48-0.52,1.11l-0.18,0.26l-0.29-0.13c-0.1-0.05-0.41-0.15-0.64-0.04
				c-0.14,0.07-0.25,0.22-0.31,0.45l-0.03,0.07c-0.06,0.12-0.2,0.54,0.41,0.87l0.35,0.19l-0.21,0.34c0,0.01-0.37,0.68,0.4,1.85
				l0.29,0.44l-0.52,0.13c-0.02,0.01-0.17,0.04-0.42,0.04C79.08,88.9,78,88.68,77.08,87.26z M78.66,84.73
				c0.16-0.55,0.48-0.8,0.72-0.91c0.34-0.16,0.7-0.12,0.95-0.06c0.1-0.16,0.15-0.29,0.19-0.39c-0.71-0.71-1.79-0.94-2.16-1.01
				c-2.08,1.52-0.76,4.26-0.64,4.5c0.57,0.87,1.19,1.16,1.62,1.24c-0.35-0.78-0.31-1.37-0.22-1.73
				C78.39,85.82,78.51,85.05,78.66,84.73z"/>
		</g>
		<g>
			<path class="st14" d="M79.53,83.32c0,0-2.22,2.43-0.23,4.75c0,0-1.9-0.26-2.19-3c0,0,0.12-2.09,1.21-2.62
				C78.31,82.46,78.27,83.1,79.53,83.32z"/>
		</g>
		<g>
			<path class="st6" d="M78.31,82.46c0,0-2.24,1.82-0.56,4.53c0,0-0.95-2.13,0.93-4.05c0,0,0.89,0.49,1.58,0.41
				C80.25,83.35,79.56,82.23,78.31,82.46z"/>
		</g>
	</g>
	<g>
		<g>
			<path class="st0" d="M54.37,85.73c1.16-1.09,2.2-0.96,2.2-0.96l2.04-0.97c2.95,0.49,2.8,3.81,2.8,3.81l0.79,1.3l0.05,1.16
				c-0.23,1.8-3.99,2.73-3.99,2.73c-1.83-0.3-2.19-2.32-2.19-2.32c-1.44-0.17-1.02-1.59-1.02-1.59c-1.57,0.14-1.12-1.97-1.12-1.97
				L54.37,85.73z"/>
			<path class="st1" d="M58.21,93.18c-1.67-0.28-2.26-1.75-2.44-2.36c-0.4-0.1-0.7-0.3-0.9-0.6c-0.21-0.32-0.25-0.68-0.24-0.96
				c-0.35-0.06-0.58-0.24-0.72-0.4c-0.6-0.67-0.36-1.88-0.33-2.01l0.48-1.33l0.07-0.06c1.05-0.99,2.05-1.07,2.39-1.07l2.07-0.98
				l0.12,0.02c2.51,0.42,3.14,2.79,3.12,4.08l0.78,1.28l0.06,1.29l0,0.03c-0.26,2-3.86,2.95-4.27,3.05l-0.08,0.02L58.21,93.18z
				 M61.83,89.02l-0.79-1.31l0.01-0.11c0.01-0.12,0.1-2.9-2.37-3.4l-1.93,0.92l-0.1,0.04l-0.11-0.01c-0.04,0-0.87-0.08-1.83,0.8
				l-0.39,1.09c-0.05,0.27-0.12,1.01,0.16,1.33c0.04,0.05,0.17,0.19,0.56,0.16l0.55-0.05L55.42,89c0,0-0.13,0.49,0.08,0.8
				c0.11,0.17,0.32,0.27,0.62,0.31l0.28,0.03l0.05,0.27c0.01,0.07,0.34,1.7,1.81,2c1.02-0.27,3.42-1.15,3.62-2.36L61.83,89.02z"/>
		</g>
		<g>
			<path class="st0" d="M54.37,85.73c1.16-1.09,2.2-0.96,2.2-0.96l2.04-0.97c2.95,0.49,2.8,3.81,2.8,3.81l0.79,1.3l0.05,1.16
				c-0.23,1.8-3.99,2.73-3.99,2.73c-1.83-0.3-2.19-2.32-2.19-2.32c-1.44-0.17-1.02-1.59-1.02-1.59c-1.57,0.14-1.12-1.97-1.12-1.97
				L54.37,85.73z"/>
			<path class="st1" d="M58.21,93.18c-1.67-0.28-2.26-1.75-2.44-2.36c-0.4-0.1-0.7-0.3-0.9-0.6c-0.21-0.32-0.25-0.68-0.24-0.96
				c-0.35-0.06-0.58-0.24-0.72-0.4c-0.6-0.67-0.36-1.88-0.33-2.01l0.48-1.33l0.07-0.06c1.05-0.99,2.05-1.07,2.39-1.07l2.07-0.98
				l0.12,0.02c2.51,0.42,3.14,2.79,3.12,4.08l0.78,1.28l0.06,1.29l0,0.03c-0.26,2-3.86,2.95-4.27,3.05l-0.08,0.02L58.21,93.18z
				 M61.83,89.02l-0.79-1.31l0.01-0.11c0.01-0.12,0.1-2.9-2.37-3.4l-1.93,0.92l-0.1,0.04l-0.11-0.01c-0.04,0-0.87-0.08-1.83,0.8
				l-0.39,1.09c-0.05,0.27-0.12,1.01,0.16,1.33c0.04,0.05,0.17,0.19,0.56,0.16l0.55-0.05L55.42,89c0,0-0.13,0.49,0.08,0.8
				c0.11,0.17,0.32,0.27,0.62,0.31l0.28,0.03l0.05,0.27c0.01,0.07,0.34,1.7,1.81,2c1.02-0.27,3.42-1.15,3.62-2.36L61.83,89.02z"/>
		</g>
		<g>
			<g>
				<path class="st15" d="M50.65,85.67c0,0,5.8-0.99,8.81-4.47c0,0,0.6-0.86-0.51-1.22c0,0-3.16,2.47-4.01,2.95
					c0,0-3.63,1.51-4.85,1.82C50.1,84.76,49.79,86,50.65,85.67z"/>
			</g>
			<g>
				<path class="st16" d="M59.18,79.8c0,0-3.81,3.06-9,4.85c0,0-0.51,1.62,0.78,2.03c0,0,1.97,0.1,3.84-0.88l2.71,5.82
					c0,0,1.65-0.1,2.63-2.01l-2.71-5.5C57.42,84.13,62.18,80.79,59.18,79.8z"/>
			</g>
			<g>
				<path class="st17" d="M60.45,90.67c0,0,2-0.16,2.19,0.78l-0.1,1.36c0,0-2.15-0.25-2.74,2.55l-1.54-0.01c0,0-0.87-0.99,0.08-3.16
					L60.45,90.67z"/>
			</g>
			<g>
				<path class="st16" d="M59.18,79.8c0,0-3.81,3.06-9,4.85c0,0-0.51,1.62,0.78,2.03c0,0,1.97,0.1,3.84-0.88l2.71,5.82
					c0,0,1.65-0.1,2.63-2.01l-2.71-5.5C57.42,84.13,62.18,80.79,59.18,79.8z"/>
			</g>
			<g>
				<path class="st18" d="M59.7,89.3c0,0,0.97,0.25,0.83,1.09c0,0-0.82,1.77-2.6,1.72c0,0-0.7-0.31-0.87-1.21
					C57.06,90.89,57.93,91.29,59.7,89.3z"/>
			</g>
			<g>
				<path class="st19" d="M57.04,90.98l-2.67-5.18c-2.08,1.16-3.16,0.54-3.16,0.54c-1.65-0.51-1.04-1.69-1.04-1.69
					c4.77-1.72,9.25-4.77,9.25-4.77s1.82,1.2-2.01,4.24l2.48,5.03c0,0,1.05,0.9,0.76,1.42c0,0,1.39,0.15,1.85,0.53
					c0,0,0.5,1.06,0.04,1.7c0,0-2.5,0.27-2.74,2.55l-1.54-0.01c0,0-0.95-1.08-0.06-3.06C58.22,92.3,57.57,92.37,57.04,90.98z"/>
				<path class="st1" d="M58.1,95.73l-0.11-0.13c-0.04-0.05-0.97-1.15-0.27-3.07c-0.31-0.18-0.7-0.56-1.01-1.4l-2.49-4.82
					c-1.82,0.89-2.9,0.49-3.14,0.38c-0.66-0.21-1.08-0.54-1.28-1c-0.25-0.6,0.01-1.15,0.05-1.21l0.07-0.13l0.14-0.05
					c4.67-1.68,9.12-4.69,9.17-4.72l0.21-0.14l0.21,0.14c0.21,0.14,0.58,0.54,0.6,1.17c0.04,1-0.75,2.17-2.35,3.49l2.31,4.7
					c0.23,0.21,0.79,0.77,0.87,1.33c0.49,0.08,1.28,0.24,1.67,0.56l0.07,0.05l0.04,0.08c0.06,0.13,0.57,1.29,0.01,2.08l-0.1,0.14
					l-0.17,0.02c-0.02,0-2.19,0.26-2.4,2.22l-0.04,0.34L58.1,95.73z M62.2,91.36c-0.32-0.19-1.09-0.34-1.58-0.4l-0.56-0.06l0.27-0.5
					c0.06-0.1-0.22-0.57-0.67-0.95l-0.06-0.05l-2.65-5.38l0.24-0.19c2.03-1.6,2.31-2.59,2.3-3.03c0-0.18-0.06-0.32-0.11-0.41
					c-1.03,0.67-4.86,3.09-8.9,4.57c-0.03,0.11-0.05,0.28,0.02,0.45c0.13,0.31,0.52,0.49,0.83,0.58l0.07,0.03
					c0.01,0,0.96,0.48,2.8-0.54l0.34-0.19l2.85,5.53l0.02,0.04c0.35,0.93,0.72,1.06,0.79,1.07l0.7-0.19l-0.33,0.72
					c-0.61,1.36-0.27,2.21-0.09,2.52l1.02,0.01c0.35-1.67,1.87-2.36,2.82-2.52C62.44,92.12,62.3,91.61,62.2,91.36z M58.18,91.92
					L58.18,91.92L58.18,91.92z"/>
			</g>
			<g>
				<path class="st20" d="M58.44,80.66c0,0-5.12,3.35-8.1,3.91c0,0-0.89,0.86,0.65,0.94c0,0,2.58-0.04,6.75-3.33
					c0,0,2.13-1.63,1.57-2C59.31,80.18,58.96,80.11,58.44,80.66z"/>
				<path class="st1" d="M49.84,85.27c-0.16-0.43,0.26-0.85,0.31-0.9l0.06-0.06l0.08-0.02c2.78-0.53,7.56-3.59,7.97-3.85
					c0.58-0.6,1.02-0.55,1.11-0.54l0.06,0.01l0.05,0.03c0.14,0.09,0.21,0.23,0.22,0.4c0.02,0.63-1.24,1.66-1.77,2.07
					c-4.19,3.31-6.81,3.39-6.94,3.39C50.74,85.78,50.02,85.74,49.84,85.27z M58.65,80.85l-0.05,0.04c-0.21,0.14-5.1,3.32-8.11,3.94
					c-0.07,0.09-0.13,0.2-0.12,0.24c0,0,0.08,0.13,0.61,0.15c0.03,0,2.53-0.08,6.58-3.27c0.67-0.51,1.28-1.1,1.48-1.42
					C58.95,80.58,58.81,80.68,58.65,80.85z"/>
			</g>
			<g>
				<path class="st20" d="M59.55,92.06c-0.11,0.1-0.19,0.43-0.06,1.36c0,0,0.53-1.15,1.79-0.88c0,0-1.32,0.2-1.64,2.48l-1.14-0.11
					c0,0-0.7-0.45-0.05-2.88c0,0,0.64-0.46,1.07-0.22C59.62,91.87,59.63,92,59.55,92.06z"/>
			</g>
			<g>
				<g>
					<path class="st13" d="M52.63,84.24C43.2,70.83,41.37,63.38,41.37,63.38c-0.15-6.66,4.13-9.4,4.13-9.4
						c0.02,0.36,0.56-1,0.51,0.13c-0.3,6.23,10.73,27.8,10.73,27.8s-1.67,1.68-3.54,2.05L52.63,84.24z"/>
					<path class="st1" d="M52.32,84.46C42.95,71.14,41.08,63.77,41,63.47l-0.01-0.08c-0.15-6.79,4.12-9.61,4.3-9.73l0.15-0.1
						c0.14-0.17,0.34-0.36,0.61-0.26c0.35,0.13,0.33,0.56,0.32,0.82c-0.29,6.06,10.58,27.39,10.69,27.6l0.12,0.24l-0.19,0.19
						c-0.07,0.07-1.74,1.73-3.68,2.14l-0.82,0.42L52.32,84.46z M45.62,54.41c-0.03,0.01-0.06,0.01-0.09,0.01
						c-0.78,0.59-3.89,3.32-3.78,8.9c0.16,0.59,2.21,7.88,11,20.43l0.33-0.17l0.05-0.01c1.37-0.27,2.66-1.33,3.14-1.76
						C54.99,79.3,45.68,60.72,45.62,54.41z M45.62,53.83L45.62,53.83L45.62,53.83z"/>
				</g>
				<g>
					<path class="st14" d="M53.6,81.32c0,0-10.07-15.85-8.55-26.48c0,0-0.51,0.28-1.41,1.77c0,0-2.49,3.84-0.95,7.42
						c0,0,2.73,9.1,10.52,19.63C53.2,83.66,54.22,82.28,53.6,81.32z"/>
				</g>
				<g>
					<path class="st6" d="M43.63,56.61c0,0-2.63,3.8-1.66,7.44c0,0,2.53,8.31,11.02,19.72l0.66-0.39c0,0-9.08-14.55-9.92-26.18
						C43.73,57.2,43.86,57.99,43.63,56.61z"/>
				</g>
				<g>
					<path class="st21" d="M54.81,83.24c-0.95-1.79-1.87-3.61-2.77-5.43c-0.9-1.83-1.77-3.66-2.59-5.52
						c-0.83-1.86-1.63-3.73-2.34-5.63c-0.71-1.9-1.38-3.83-1.84-5.81c0.4,2,1.01,3.95,1.66,5.88c0.66,1.93,1.4,3.83,2.17,5.72
						c0.77,1.89,1.58,3.76,2.43,5.62c0.84,1.86,1.71,3.7,2.61,5.54L54.81,83.24z"/>
				</g>
			</g>
		</g>
		<g>
			<path class="st1" d="M58.63,87.86c-0.16-0.15-0.28-0.33-0.37-0.52c-0.05-0.09-0.09-0.19-0.12-0.29c-0.04-0.1-0.06-0.19-0.09-0.31
				l0.75-0.08c0,0.05,0.01,0.14,0.02,0.21c0.01,0.07,0.03,0.15,0.05,0.22c0.04,0.14,0.1,0.28,0.18,0.39c0.08,0.11,0.18,0.2,0.3,0.26
				c0.12,0.07,0.27,0.08,0.43,0.09l0.41,0.02l-0.25,0.27c-0.09,0.1-0.19,0.23-0.26,0.37c-0.08,0.13-0.14,0.28-0.19,0.42
				c-0.04,0.15-0.06,0.3-0.05,0.46c0.01,0.16,0.06,0.31,0.13,0.46c-0.1-0.13-0.18-0.28-0.22-0.44c-0.04-0.16-0.05-0.34-0.04-0.51
				c0.02-0.17,0.06-0.34,0.12-0.5c0.02-0.05,0.04-0.11,0.06-0.16c0.11,0,0.22-0.01,0.33-0.03l-0.16-0.29
				c-0.07,0.11-0.12,0.21-0.16,0.32c-0.1,0-0.19-0.01-0.29-0.04C58.99,88.13,58.78,88.01,58.63,87.86z"/>
		</g>
		<g>
			<g>
				<path class="st22" d="M53.75,86.1c0.75-1.34,2.96-1.05,2.96-1.05c-1.85,0.77-0.01,2.49-0.01,2.49
					c-1.75-0.23-2.11,1.63-2.11,1.63c-1.73-0.37-1.09-2.48-1.09-2.48L53.75,86.1z"/>
				<path class="st1" d="M54.51,89.53c-0.56-0.12-0.97-0.4-1.22-0.84c-0.52-0.88-0.16-2.07-0.15-2.12l0.27-0.62l0.02-0.04
					c0.87-1.55,3.24-1.26,3.34-1.24l1.39,0.18l-1.3,0.54c-0.35,0.14-0.54,0.33-0.58,0.54c-0.08,0.47,0.48,1.12,0.69,1.32l0.87,0.81
					l-1.17-0.16c-1.34-0.18-1.66,1.17-1.69,1.33l-0.07,0.38L54.51,89.53z M55.52,85.81c0.02-0.13,0.07-0.26,0.13-0.38
					c-0.57,0.07-1.24,0.28-1.57,0.84l-0.23,0.54c-0.04,0.13-0.24,0.95,0.08,1.5c0.09,0.16,0.22,0.28,0.4,0.36
					c0.22-0.59,0.72-1.29,1.58-1.49C55.66,86.81,55.43,86.31,55.52,85.81z"/>
			</g>
			<g>
				<path class="st22" d="M54.57,89.3c0.68-2.09,1.93-1.81,1.93-1.81c1.21-0.06,2.22,1.37,2.22,1.37c0.33,0.95-1.38,1.3-1.38,1.3
					c-1.84,0.32-1.43,1.22-1.43,1.22C53.99,90.93,54.57,89.3,54.57,89.3z"/>
				<path class="st1" d="M55.82,91.76c-0.72-0.17-1.22-0.52-1.5-1.02c-0.38-0.71-0.14-1.46-0.11-1.55c0.7-2.15,2.01-2.11,2.31-2.07
					c1.38-0.04,2.46,1.47,2.51,1.53l0.03,0.04l0.02,0.05c0.1,0.3,0.08,0.6-0.07,0.86c-0.38,0.67-1.47,0.91-1.61,0.94
					c-0.83,0.14-1.06,0.4-1.11,0.5c-0.06,0.11-0.03,0.2-0.03,0.2l0,0l0.32,0.71L55.82,91.76z M56.51,87.87l-0.05,0l-0.04-0.01
					c-0.04-0.01-0.94-0.15-1.49,1.56l0,0.01c0,0.01-0.17,0.52,0.07,0.95c0.11,0.2,0.29,0.36,0.55,0.48
					c0.02-0.05,0.04-0.11,0.07-0.17c0.24-0.45,0.8-0.75,1.65-0.9c0.28-0.06,0.92-0.28,1.09-0.57c0.03-0.04,0.05-0.1,0.03-0.19
					C58.09,88.66,57.29,87.83,56.51,87.87z"/>
			</g>
			<g>
				<path class="st22" d="M56.77,90.18c2.97-0.7,3.05,1.27,3.05,1.27c-0.04,1.21-2.52,1.83-2.52,1.83
					c-1.29-0.46-1.52-1.65-1.52-1.65C55.8,90.74,56.77,90.18,56.77,90.18z"/>
				<path class="st1" d="M57.17,93.64c-1.48-0.52-1.75-1.88-1.76-1.94l-0.01-0.04l0-0.04c0.02-1.09,1.13-1.75,1.18-1.77l0.05-0.03
					l0.05-0.01c1.22-0.29,2.15-0.19,2.78,0.29c0.69,0.52,0.73,1.3,0.73,1.34l0,0.01l0,0.01c-0.05,1.46-2.53,2.12-2.81,2.19
					l-0.11,0.03L57.17,93.64z M59,90.7c-0.43-0.32-1.15-0.37-2.08-0.16c-0.16,0.11-0.72,0.52-0.76,1.06
					c0.05,0.18,0.29,0.93,1.16,1.29c0.74-0.21,2.08-0.77,2.12-1.43C59.43,91.38,59.37,90.97,59,90.7z"/>
			</g>
			<g>
				<g>
					<path class="st23" d="M56.55,90.57c0.94-0.44,1.84-0.1,1.84-0.1c0.9,1.12-1,1.13-1,1.13c0.24,0.58-0.28,1.04-0.28,1.04
						c-0.67,0.14-1.22-0.85-1.22-0.85C55.53,91.03,56.55,90.57,56.55,90.57z"/>
				</g>
				<g>
					<path class="st1" d="M57.26,90.61c0.04,0.16,0.08,0.33,0.13,0.49c0.05,0.16,0.11,0.32,0.18,0.47c0.07,0.15,0.16,0.3,0.3,0.39
						c-0.17-0.04-0.32-0.16-0.45-0.28c-0.13-0.12-0.25-0.26-0.36-0.4c-0.11-0.14-0.22-0.29-0.32-0.43c-0.1-0.15-0.2-0.3-0.29-0.46
						l0.71-0.26C57.19,90.28,57.23,90.45,57.26,90.61z"/>
				</g>
			</g>
			<g>
				<g>
					<path class="st23" d="M55.34,88.48c0.82-0.9,1.8-0.36,1.8-0.36c1.05,0.97-0.93,1.1-0.93,1.1c0.32,0.54-0.61,1.37-0.61,1.37
						c-0.64,0.23-0.62-0.22-0.62-0.22C54.53,89.66,55.34,88.48,55.34,88.48z"/>
				</g>
				<g>
					<path class="st1" d="M56.05,88.41c0.06,0.16,0.13,0.31,0.2,0.46c0.07,0.15,0.15,0.3,0.25,0.44c0.09,0.14,0.2,0.27,0.36,0.35
						c-0.18-0.01-0.34-0.11-0.49-0.21c-0.15-0.1-0.29-0.22-0.42-0.34c-0.13-0.12-0.26-0.25-0.38-0.38
						c-0.12-0.13-0.24-0.27-0.35-0.42l0.67-0.36C55.93,88.09,55.99,88.26,56.05,88.41z"/>
				</g>
			</g>
			<g>
				<g>
					<path class="st23" d="M54.12,86.11c0.87-0.57,1.44-0.59,1.44-0.59c1.05,0.97-0.63,1.59-0.63,1.59
						c0.32,0.54-0.61,1.37-0.61,1.37C53.81,88.4,53.77,88,53.77,88C53.32,87.29,54.12,86.11,54.12,86.11z"/>
				</g>
				<g>
					<path class="st1" d="M54.67,86.14c0.06,0.16,0.13,0.31,0.2,0.46c0.07,0.15,0.15,0.3,0.25,0.44c0.09,0.14,0.2,0.27,0.36,0.35
						c-0.18-0.01-0.34-0.11-0.49-0.21c-0.15-0.1-0.29-0.22-0.42-0.34c-0.13-0.12-0.26-0.25-0.38-0.38
						c-0.12-0.13-0.24-0.27-0.35-0.42l0.67-0.36C54.55,85.83,54.61,85.99,54.67,86.14z"/>
				</g>
			</g>
			<g>
				<g>
					<path class="st22" d="M56.21,84.91l2-1.09c0.47-0.27,1.71,0.53,1.71,0.53l-1.53,1.75c0.14,2.4-1.08,2.27-1.08,2.27
						c-0.75-0.01-0.97-1.1-0.97-1.1C55.53,85.47,56.21,84.91,56.21,84.91z"/>
					<path class="st1" d="M57.3,88.74c-0.8-0.02-1.2-0.84-1.32-1.36c-0.88-1.96-0.1-2.68-0.01-2.76l2.06-1.12
						c0.6-0.34,1.67,0.26,2.1,0.54l0.37,0.24l-1.72,1.96c0.04,1.02-0.17,1.75-0.6,2.17c-0.32,0.31-0.68,0.35-0.83,0.35
						C57.33,88.74,57.3,88.74,57.3,88.74z M58.4,84.16l-1.95,1.06c-0.06,0.09-0.34,0.61,0.24,1.89l0.02,0.04l0.01,0.04
						c0,0.01,0.18,0.8,0.6,0.8l0.04,0c0,0,0.15,0,0.3-0.14c0.16-0.16,0.43-0.59,0.36-1.73l-0.01-0.16l1.33-1.51
						C58.92,84.24,58.52,84.1,58.4,84.16z"/>
				</g>
				<g>
					<path class="st23" d="M57.68,86.15c0.18,1.76-0.59,1.69-0.59,1.69c-0.75-0.77-0.84-2.54-0.84-2.54
						C57.73,84.71,57.68,86.15,57.68,86.15z"/>
				</g>
			</g>
		</g>
		<g>
			<path class="st0" d="M53.75,86.1c0.75-1.34,2.96-1.05,2.96-1.05c-1.85,0.77-0.01,2.49-0.01,2.49c-1.75-0.23-2.11,1.63-2.11,1.63
				c-1.73-0.37-1.09-2.48-1.09-2.48L53.75,86.1z"/>
			<path class="st1" d="M54.51,89.53c-0.56-0.12-0.97-0.4-1.22-0.84c-0.52-0.88-0.16-2.07-0.15-2.12l0.27-0.62l0.02-0.04
				c0.87-1.55,3.24-1.26,3.34-1.24l1.39,0.18l-1.3,0.54c-0.35,0.14-0.54,0.33-0.58,0.54c-0.08,0.47,0.48,1.12,0.69,1.32l0.87,0.81
				l-1.17-0.16c-1.34-0.18-1.66,1.17-1.69,1.33l-0.07,0.38L54.51,89.53z M55.52,85.81c0.02-0.13,0.07-0.26,0.13-0.38
				c-0.57,0.07-1.24,0.28-1.57,0.84l-0.23,0.54c-0.04,0.13-0.24,0.95,0.08,1.5c0.09,0.16,0.22,0.28,0.4,0.36
				c0.22-0.59,0.72-1.29,1.58-1.49C55.66,86.81,55.43,86.31,55.52,85.81z"/>
		</g>
		<g>
			<path class="st0" d="M54.57,89.3c0.68-2.09,1.93-1.81,1.93-1.81c1.21-0.06,2.22,1.37,2.22,1.37c0.33,0.95-1.38,1.3-1.38,1.3
				c-1.84,0.32-1.43,1.22-1.43,1.22C53.99,90.93,54.57,89.3,54.57,89.3z"/>
			<path class="st1" d="M55.82,91.76c-0.72-0.17-1.22-0.52-1.5-1.02c-0.38-0.71-0.14-1.46-0.11-1.55c0.7-2.15,2.01-2.11,2.31-2.07
				c1.38-0.04,2.46,1.47,2.51,1.53l0.03,0.04l0.02,0.05c0.1,0.3,0.08,0.6-0.07,0.86c-0.38,0.67-1.47,0.91-1.61,0.94
				c-0.83,0.14-1.06,0.4-1.11,0.5c-0.06,0.11-0.03,0.2-0.03,0.2l0,0l0.32,0.71L55.82,91.76z M56.51,87.87l-0.05,0l-0.04-0.01
				c-0.04-0.01-0.94-0.15-1.49,1.56l0,0.01c0,0.01-0.17,0.52,0.07,0.95c0.11,0.2,0.29,0.36,0.55,0.48c0.02-0.05,0.04-0.11,0.07-0.17
				c0.24-0.45,0.8-0.75,1.65-0.9c0.28-0.06,0.92-0.28,1.09-0.57c0.03-0.04,0.05-0.1,0.03-0.19C58.09,88.66,57.29,87.83,56.51,87.87z
				"/>
		</g>
		<g>
			<path class="st0" d="M56.77,90.18c2.97-0.7,3.05,1.27,3.05,1.27c-0.04,1.21-2.52,1.83-2.52,1.83c-1.29-0.46-1.52-1.65-1.52-1.65
				C55.8,90.74,56.77,90.18,56.77,90.18z"/>
			<path class="st1" d="M57.17,93.64c-1.48-0.52-1.75-1.88-1.76-1.94l-0.01-0.04l0-0.04c0.02-1.09,1.13-1.75,1.18-1.77l0.05-0.03
				l0.05-0.01c1.22-0.29,2.15-0.19,2.78,0.29c0.69,0.52,0.73,1.3,0.73,1.34l0,0.01l0,0.01c-0.05,1.46-2.53,2.12-2.81,2.19
				l-0.11,0.03L57.17,93.64z M59,90.7c-0.43-0.32-1.15-0.37-2.08-0.16c-0.16,0.11-0.72,0.52-0.76,1.06
				c0.05,0.18,0.29,0.93,1.16,1.29c0.74-0.21,2.08-0.77,2.12-1.43C59.43,91.38,59.37,90.97,59,90.7z"/>
		</g>
		<g>
			<g>
				<path class="st2" d="M56.55,90.57c0.94-0.44,1.84-0.1,1.84-0.1c0.9,1.12-1,1.13-1,1.13c0.24,0.58-0.28,1.04-0.28,1.04
					c-0.67,0.14-1.22-0.85-1.22-0.85C55.53,91.03,56.55,90.57,56.55,90.57z"/>
			</g>
			<g>
				<path class="st1" d="M57.26,90.61c0.04,0.16,0.08,0.33,0.13,0.49c0.05,0.16,0.11,0.32,0.18,0.47c0.07,0.15,0.16,0.3,0.3,0.39
					c-0.17-0.04-0.32-0.16-0.45-0.28c-0.13-0.12-0.25-0.26-0.36-0.4c-0.11-0.14-0.22-0.29-0.32-0.43c-0.1-0.15-0.2-0.3-0.29-0.46
					l0.71-0.26C57.19,90.28,57.23,90.45,57.26,90.61z"/>
			</g>
		</g>
		<g>
			<g>
				<path class="st2" d="M55.34,88.48c0.82-0.9,1.8-0.36,1.8-0.36c1.05,0.97-0.93,1.1-0.93,1.1c0.32,0.54-0.61,1.37-0.61,1.37
					c-0.64,0.23-0.62-0.22-0.62-0.22C54.53,89.66,55.34,88.48,55.34,88.48z"/>
			</g>
			<g>
				<path class="st1" d="M56.05,88.41c0.06,0.16,0.13,0.31,0.2,0.46c0.07,0.15,0.15,0.3,0.25,0.44c0.09,0.14,0.2,0.27,0.36,0.35
					c-0.18-0.01-0.34-0.11-0.49-0.21c-0.15-0.1-0.29-0.22-0.42-0.34c-0.13-0.12-0.26-0.25-0.38-0.38c-0.12-0.13-0.24-0.27-0.35-0.42
					l0.67-0.36C55.93,88.09,55.99,88.26,56.05,88.41z"/>
			</g>
		</g>
		<g>
			<g>
				<path class="st2" d="M54.12,86.11c0.87-0.57,1.44-0.59,1.44-0.59c1.05,0.97-0.63,1.59-0.63,1.59c0.32,0.54-0.61,1.37-0.61,1.37
					C53.81,88.4,53.77,88,53.77,88C53.32,87.29,54.12,86.11,54.12,86.11z"/>
			</g>
			<g>
				<path class="st1" d="M54.67,86.14c0.06,0.16,0.13,0.31,0.2,0.46c0.07,0.15,0.15,0.3,0.25,0.44c0.09,0.14,0.2,0.27,0.36,0.35
					c-0.18-0.01-0.34-0.11-0.49-0.21c-0.15-0.1-0.29-0.22-0.42-0.34c-0.13-0.12-0.26-0.25-0.38-0.38c-0.12-0.13-0.24-0.27-0.35-0.42
					l0.67-0.36C54.55,85.83,54.61,85.99,54.67,86.14z"/>
			</g>
		</g>
		<g>
			<g>
				<path class="st0" d="M58.22,86.4c0.14,2.4-1.08,2.27-1.08,2.27c-0.75-0.01-0.97-1.1-0.97-1.1c-1.38-2.53-0.13-2.77-0.13-2.77
					l0.65-0.41c1.94-0.74,2.81,0.19,2.81,0.19S61.32,85.57,58.22,86.4z"/>
			</g>
			<g>
				<path class="st1" d="M57.86,88.62c0.1-0.05,0.21-0.12,0.31-0.22c0.46-0.44,0.66-1.22,0.6-2.32l-0.76,0.04
					c0.07,1.12-0.19,1.56-0.35,1.71c-0.16,0.16-0.32,0.15-0.32,0.15l-0.03,0c-0.42,0-0.6-0.79-0.6-0.8l-0.01-0.06l-0.03-0.05
					c-0.72-1.32-0.63-1.87-0.55-2.04c0.06-0.15,0.16-0.18,0.18-0.18l0.07-0.01l0.05-0.04l0.61-0.39c1.68-0.62,2.63,0.21,2.64,0.22
					l0.51-0.56c-0.05-0.05-1.33-1.16-3.45-0.35l-0.04,0.01l-0.63,0.4c-0.15,0.05-0.44,0.19-0.61,0.56c-0.28,0.6-0.1,1.51,0.54,2.7
					c0.12,0.52,0.52,1.33,1.31,1.35C57.38,88.74,57.61,88.74,57.86,88.62z"/>
			</g>
			<g>
				<path class="st2" d="M57.6,85.56c0.75,2.26-0.67,1.94-0.67,1.94C56.17,86.73,56,85.22,56,85.22
					C57.47,84.63,57.6,85.56,57.6,85.56z"/>
			</g>
		</g>
	</g>
	<g>
		<g>
			<path class="st1" d="M103.59,86.99c0.07,0.08,0.15,0.16,0.21,0.25c-0.11,0.03-0.23,0.04-0.35,0.05L103.59,86.99z"/>
		</g>
		<g>
			<path class="st0" d="M95.71,80.52c0,0,3.76,0.54,7.43,3.02c0,0-2.85,2.32-2.48,5.19c0,0-2.77-1.43-5.11-2.52
				c-0.83-0.39-3.22,0.79-4.97,1.11c-2.04,0.37-4.31-2.89-1.64-4.79C89.31,82.26,92.5,80.22,95.71,80.52z"/>
			<path class="st1" d="M100.49,89.06c-0.03-0.01-2.79-1.44-5.1-2.51c-0.38-0.18-1.57,0.21-2.53,0.52
				c-0.75,0.24-1.52,0.49-2.22,0.62c-1.2,0.21-2.52-0.61-3.06-1.91c-0.56-1.33-0.13-2.66,1.14-3.57c0.03-0.02,3.49-2.4,7.02-2.07
				l0.02,0c0.16,0.02,3.89,0.59,7.59,3.08l0.42,0.29l-0.39,0.32c-0.03,0.02-2.68,2.23-2.34,4.85l0.09,0.72L100.49,89.06z
				 M95.66,80.89c-3.26-0.3-6.47,1.91-6.5,1.94c-1.39,0.99-1.08,2.19-0.88,2.65c0.41,0.97,1.39,1.61,2.23,1.46
				c0.65-0.12,1.4-0.36,2.12-0.59c1.31-0.42,2.43-0.79,3.08-0.48c1.68,0.78,3.6,1.75,4.54,2.23c0.05-2.1,1.55-3.81,2.27-4.51
				C99.19,81.47,95.85,80.92,95.66,80.89z"/>
		</g>
		<g>
			<path class="st2" d="M90.01,86.75c0,0-1.88-0.53,0.64-3.1c0,0,2.44-1.27,4.75-1.1c0,0,3.37,1.42,3.99,1.71
				c0,0-1.12,1.27-0.55,3.16c0,0-3.2-1.73-3.62-1.73c0,0-2.15,0.41-3.84,0.98C91.38,86.68,90.49,87.07,90.01,86.75z"/>
		</g>
		<g>
			<g>
				<g>
					<path class="st3" d="M98.39,87.75c0,0-0.34-3.49,2.77-5.53l3.41,1.48c0,0-3.03,1.73-3.24,5.67
						C101.33,89.37,99.44,88.43,98.39,87.75z"/>
					<path class="st4" d="M101.16,89.71c-0.08-0.04-1.93-0.95-2.98-1.65l-0.15-0.1l-0.02-0.18c-0.01-0.15-0.33-3.75,2.94-5.88
						l0.17-0.11l4.29,1.87l-0.65,0.38c-0.12,0.07-2.85,1.69-3.05,5.36l-0.03,0.57L101.16,89.71z M101.19,82.65
						c-2.36,1.65-2.46,4.19-2.44,4.88c0.69,0.43,1.66,0.95,2.25,1.25c0.33-2.7,1.92-4.3,2.8-5L101.19,82.65z"/>
				</g>
				<g>
					<path class="st5" d="M101.17,82.73c0,0-3.44,3.38,0,5.31c0,0,0.35-2.42,2.51-4.17L101.17,82.73z"/>
				</g>
			</g>
			<g>
				<path class="st6" d="M103.84,83.77l-2.67-1.04c0,0-1.59,1.61,0.66,3.93C101.83,86.66,102.66,85.07,103.84,83.77z"/>
			</g>
		</g>
		<g>
			<g>
				<path class="st0" d="M105.56,83.87c0,0-1.38-0.64-2.84,1.35c0,0-2.12,2.26-0.84,6.03c0,0,2.09,0.25,2.69,1.03
					c0,0,1.13,0.45,1.58-0.47c0,0,1.95,0.32,1.93-0.35c0,0-0.28-1.2,0.51-2.34c0,0,0.17-0.78-0.2-1.15l0.2-1.11
					c0,0,0.01-0.12-0.46-0.34l0.11-1.12C108.25,85.4,106.81,84.41,105.56,83.87z"/>
				<path class="st1" d="M104.43,92.63l-0.1-0.04l-0.06-0.08c-0.36-0.47-1.69-0.79-2.44-0.88l-0.24-0.03l-0.08-0.23
					c-1.3-3.81,0.68-6.15,0.91-6.4c1.59-2.14,3.15-1.51,3.29-1.45c1.27,0.56,2.69,1.52,2.75,1.57l0.19,0.13l-0.11,1.08
					c0.22,0.13,0.46,0.33,0.44,0.6l-0.18,0.97c0.33,0.51,0.19,1.24,0.17,1.33l-0.02,0.07l-0.04,0.06c-0.68,0.97-0.45,2.03-0.45,2.03
					l0.01,0.07c0.01,0.21-0.08,0.39-0.23,0.53c-0.41,0.36-1.36,0.31-1.88,0.24c-0.31,0.42-0.76,0.55-1.17,0.55
					C104.89,92.77,104.62,92.7,104.43,92.63z M106.21,91.43c0.6,0.1,1.28,0.1,1.48,0c-0.06-0.35-0.15-1.42,0.54-2.46
					c0.03-0.21,0.04-0.59-0.11-0.74l-0.14-0.14l0.21-1.12c-0.05-0.03-0.11-0.06-0.21-0.11l-0.25-0.11l0.12-1.16
					c-0.42-0.28-1.49-0.96-2.44-1.37l0.15-0.35l-0.16,0.35c-0.05-0.02-1.14-0.47-2.38,1.23l-0.03,0.03
					c-0.08,0.08-1.87,2.07-0.83,5.43c0.59,0.09,2.01,0.38,2.63,1.05c0.21,0.06,0.78,0.18,1.02-0.31l0.12-0.25L106.21,91.43z"/>
			</g>
			<g>
				<path class="st2" d="M103.72,86.1c0,0-1.82,1.21-1.34,4.82c0,0,0.67-0.23,2.35,0.88c0,0,0.95,0.03,0.85-0.8
					c0,0-0.22-1.13-0.9-1.69c0,0,1.38-0.06,1.82,2.04c0,0,0.74,0.37,1.03-0.01c0,0-0.25-0.87-0.03-1.84c0,0,0.28-1.41-0.59-2
					c0,0,0.64-0.41,0.05-1.15c0,0-0.86-0.85-2.06-0.94C104.9,85.42,104.17,85.66,103.72,86.1z"/>
			</g>
			<g>
				<g>
					<path class="st1" d="M106.21,92.28c0.04-0.02,0.05-0.04,0.06-0.05c0.02-0.02,0.03-0.03,0.04-0.04
						c0.03-0.03,0.05-0.06,0.08-0.09c0.05-0.06,0.09-0.13,0.12-0.2c0.07-0.14,0.1-0.29,0.09-0.44c0-0.29-0.11-0.53-0.23-0.74
						c-0.13-0.2-0.27-0.37-0.43-0.52c-0.15-0.15-0.32-0.29-0.49-0.42l-0.02-0.02l0,0c-0.08-0.04-0.18-0.13-0.25-0.22
						c-0.07-0.09-0.11-0.21-0.12-0.33c-0.01-0.12,0.01-0.25,0.04-0.37c0.02-0.06,0.04-0.12,0.07-0.18l0.09-0.18l-0.12,0.16
						c-0.04,0.06-0.07,0.11-0.1,0.18c-0.06,0.12-0.11,0.26-0.12,0.4c-0.01,0.14,0.01,0.3,0.08,0.44c0.07,0.14,0.15,0.26,0.29,0.36
						l-0.02-0.02c0.13,0.15,0.26,0.31,0.38,0.47c0.11,0.16,0.21,0.33,0.27,0.49c0.06,0.17,0.09,0.33,0.06,0.45
						c-0.01,0.06-0.04,0.11-0.07,0.15c-0.02,0.02-0.04,0.04-0.05,0.06c-0.01,0.01-0.02,0.02-0.03,0.02c0,0-0.01,0.01-0.01,0.01
						s-0.01,0.01,0-0.01L106.21,92.28z"/>
				</g>
				<g>
					<path class="st1" d="M105.44,90.25c0.26-0.13,0.53-0.25,0.8-0.36c0.27-0.11,0.54-0.23,0.83-0.3c-0.15-0.03-0.3-0.04-0.45-0.05
						c-0.15-0.01-0.3-0.02-0.45-0.02c-0.3-0.01-0.6-0.01-0.91,0L105.44,90.25z"/>
				</g>
				<g>
					<polygon class="st1" points="108.57,87.64 106.43,86.88 108.21,88.3 					"/>
				</g>
				<g>
					<polygon class="st1" points="108.33,86.19 106.67,85.61 107.94,86.84 					"/>
				</g>
			</g>
		</g>
	</g>
	<g>
		<g>
			<g>
				<path class="st13" d="M69.08,74.57c0,0,0.05-0.81-1.44-1.42c0,0-1.86-1.04-3.21,1.27c0,0-1.53,0.62-0.37,2.44
					c0,0-0.31,1.22,0.94,1.46c0,0-0.47,1.11,0.57,1.28c0,0,0.74-0.17,2.38,0.02c0,0,0.93,0.18,0.42-1.21c0,0,1.25,0.03,1.07-1.13
					c0,0,1.05-0.36,0.81-1.53C70.26,75.76,70.06,74.36,69.08,74.57z"/>
				<path class="st1" d="M67.92,79.91c-1.55-0.18-2.27-0.03-2.28-0.02l-0.05,0.01l-0.05-0.01c-0.47-0.08-0.69-0.32-0.79-0.51
					c-0.16-0.29-0.14-0.63-0.09-0.86c-0.3-0.11-0.53-0.29-0.68-0.54c-0.25-0.4-0.23-0.85-0.2-1.06c-0.4-0.66-0.51-1.26-0.35-1.78
					c0.18-0.55,0.62-0.83,0.81-0.94c1.39-2.3,3.31-1.42,3.53-1.31c1.09,0.46,1.44,1.03,1.55,1.38c0.2,0.01,0.38,0.07,0.55,0.18
					c0.52,0.36,0.65,1.13,0.67,1.26c0.2,0.96-0.35,1.52-0.79,1.76c0.01,0.32-0.08,0.59-0.27,0.8c-0.21,0.24-0.5,0.35-0.73,0.4
					c0.11,0.45,0.08,0.78-0.12,1.01c-0.18,0.21-0.42,0.25-0.58,0.25C67.99,79.92,67.94,79.91,67.92,79.91z M68.38,78.14
					c0.13,0,0.49-0.04,0.68-0.25c0.11-0.13,0.15-0.31,0.11-0.55l-0.04-0.24l0.23-0.08c0.03-0.01,0.81-0.29,0.62-1.21l0-0.02
					c-0.02-0.17-0.15-0.68-0.44-0.88c-0.11-0.08-0.24-0.1-0.4-0.07l-0.34,0.06l0-0.35c0-0.01-0.02-0.64-1.26-1.15l-0.03-0.01
					c-0.07-0.04-1.63-0.88-2.82,1.17l-0.05,0.08l-0.09,0.04c0,0-0.44,0.19-0.58,0.63c-0.12,0.38-0.01,0.85,0.34,1.4l0.06,0.1
					l-0.03,0.12c0,0-0.1,0.43,0.11,0.75c0.12,0.18,0.32,0.31,0.61,0.37l0.34,0.07l-0.14,0.32c-0.05,0.11-0.15,0.46-0.03,0.67
					c0.02,0.04,0.09,0.16,0.34,0.21c0.22-0.04,0.99-0.14,2.43,0.03c0.03,0,0.15,0.01,0.2-0.05c0.02-0.03,0.12-0.19-0.09-0.78
					l-0.14-0.39L68.38,78.14z"/>
			</g>
			<g>
				<path class="st14" d="M64.62,74.55c0,0,0.4-1.11,1.8-1.01c0,0,1.45-0.11,1.75,1.36c0,0,0.95-0.17,1.21,0.86
					c0,0,0.25,1.44-1.13,1.34c0,0,0.85,0.78-0.87,0.83c0,0,0.9,1.1-0.2,1.04c0,0-0.61,0-1.56,0.15c0,0-0.82,0.14-0.11-1.03
					c0,0-1.51,0.22-1.19-1.4C64.33,76.69,63.15,75.21,64.62,74.55z"/>
			</g>
			<g>
				<path class="st6" d="M65.35,73.86c0.24-0.52-0.47,0.22-0.75,0.86c0,0-0.85,0.22-0.69,1.18c0,0,0.06,0.52,0.41,0.86
					c0,0-0.45-1.3,0.78-1.97C65.1,74.8,64.93,74.77,65.35,73.86z"/>
			</g>
			<g>
				<g>
					<path class="st13" d="M67.43,75.28c0.24-0.09,0.6-0.38,1.29,0.12c0,0,0.68,0.55-0.17,1.39c0,0-0.83,0.24-1.53-0.25
						C67.03,76.55,66.78,75.53,67.43,75.28z"/>
					<path class="st1" d="M66.87,76.78l-0.09-0.06l-0.03-0.1c-0.12-0.47-0.12-1.34,0.58-1.6h0c0.03-0.01,0.06-0.02,0.09-0.04
						c0.26-0.12,0.74-0.34,1.48,0.2c0.03,0.03,0.34,0.29,0.36,0.73c0.02,0.36-0.15,0.73-0.51,1.08l-0.05,0.05l-0.07,0.02
						c-0.02,0.01-0.25,0.07-0.57,0.07C67.72,77.14,67.28,77.07,66.87,76.78z M68.7,75.95c-0.01-0.2-0.14-0.32-0.14-0.32h0
						c-0.46-0.34-0.68-0.24-0.9-0.14c-0.04,0.02-0.09,0.04-0.13,0.05c-0.31,0.12-0.27,0.61-0.24,0.83c0.44,0.26,0.95,0.2,1.12,0.17
						C68.61,76.33,68.7,76.13,68.7,75.95z"/>
				</g>
				<g>
					<path class="st13" d="M66.23,77.7c0,0-0.57,0.53,0.06,0.76c0,0,0.74,0.2,0.7-0.1c0,0,0.26-0.43-0.29-0.83
						C66.71,77.52,66.52,77.31,66.23,77.7z"/>
					<path class="st1" d="M66.22,78.73l-0.02-0.01c-0.34-0.12-0.45-0.32-0.48-0.47c-0.07-0.34,0.2-0.64,0.29-0.74
						c0.16-0.21,0.33-0.32,0.52-0.33c0.16-0.01,0.28,0.05,0.36,0.12c0.52,0.39,0.49,0.86,0.39,1.12c-0.01,0.1-0.06,0.19-0.13,0.26
						c-0.11,0.09-0.26,0.13-0.43,0.13C66.54,78.8,66.35,78.76,66.22,78.73z M66.72,78.39l0-0.01
						C66.72,78.38,66.72,78.39,66.72,78.39z M66.46,77.86l-0.04,0.04c-0.07,0.07-0.15,0.19-0.15,0.22c0,0,0.02,0.03,0.1,0.06
						c0.12,0.03,0.27,0.05,0.36,0.05l0.01-0.02c0.03-0.05,0.09-0.24-0.19-0.45C66.54,77.77,66.5,77.8,66.46,77.86z"/>
				</g>
				<g>
					<path class="st13" d="M65.67,75.21c-0.2-0.1-0.49-0.4-1.04,0.02c0,0-0.55,0.45,0.13,1.29c0,0,0.67,0.28,1.23-0.12
						C66,76.4,66.2,75.48,65.67,75.21z"/>
					<path class="st1" d="M64.65,76.78l-0.07-0.03l-0.04-0.06c-0.43-0.52-0.44-0.94-0.38-1.2c0.07-0.3,0.26-0.47,0.3-0.49
						c0.63-0.47,1.07-0.21,1.27-0.08c0.02,0.01,0.05,0.03,0.07,0.04c0.57,0.29,0.56,1.08,0.47,1.5l-0.02,0.11l-0.09,0.06
						c-0.29,0.21-0.6,0.27-0.86,0.27C64.94,76.9,64.67,76.79,64.65,76.78z M65.54,75.47L65.54,75.47c-0.03-0.02-0.07-0.04-0.1-0.06
						c-0.18-0.11-0.31-0.19-0.63,0.05c0,0-0.07,0.06-0.09,0.18c-0.04,0.18,0.03,0.4,0.22,0.65c0.14,0.04,0.49,0.11,0.8-0.05
						C65.76,76,65.77,75.58,65.54,75.47z"/>
				</g>
			</g>
			<g>
				<path class="st6" d="M64.64,77.1c0,0,0.69,0.56,1.13,0.15c0,0-0.02,0.64-0.8,0.6C64.97,77.85,64.43,77.33,64.64,77.1z"/>
			</g>
			<g>
				<path class="st6" d="M67.42,75.69c0.12-0.05,0.3-0.19,0.64,0.06c0,0,0.34,0.27-0.08,0.69c0,0-0.41,0.12-0.76-0.13
					C67.22,76.32,67.1,75.81,67.42,75.69z"/>
			</g>
			<g>
				<path class="st6" d="M66.32,77.81c0,0-0.28,0.26,0.03,0.38c0,0,0.37,0.1,0.35-0.05c0,0,0.13-0.22-0.14-0.41
					C66.56,77.72,66.46,77.61,66.32,77.81z"/>
			</g>
			<g>
				<path class="st6" d="M65.14,75.57c-0.1-0.05-0.24-0.2-0.52,0.01c0,0-0.27,0.22,0.07,0.64c0,0,0.33,0.14,0.61-0.06
					C65.3,76.16,65.4,75.71,65.14,75.57z"/>
			</g>
		</g>
		<g>
			<g>
				<g>
					<g>
						<path class="st0" d="M98.54,64.87c0,0,4.08,2.67,0.67,6.11c-2.15,2.17-4.81,1.72-4.81,1.72l-1.55-3.74
							C92.85,68.96,93.74,63.33,98.54,64.87z"/>
					</g>
				</g>
				<g>
					<g>
						<path class="st1" d="M93.27,66.88c0.13-0.34,0.27-0.68,0.48-0.98c0.23-0.28,0.48-0.56,0.76-0.79
							c0.57-0.47,1.28-0.78,2.01-0.85c0.73-0.08,1.45,0.05,2.13,0.26l0.05,0.02l0.04,0.03c0.25,0.17,0.45,0.34,0.66,0.53
							c0.2,0.19,0.4,0.39,0.57,0.61c0.35,0.44,0.66,0.95,0.82,1.52c0.17,0.57,0.19,1.2,0.04,1.78c-0.14,0.58-0.42,1.09-0.75,1.54
							c-0.66,0.89-1.53,1.6-2.53,2.05c-0.12,0.06-0.24,0.12-0.38,0.15c-0.13,0.03-0.27,0.06-0.4,0.08c-0.27,0.04-0.53,0.07-0.8,0.08
							c-0.53,0.01-1.07-0.04-1.57-0.19c0.52-0.02,1.02-0.11,1.5-0.26c0.24-0.07,0.47-0.16,0.7-0.26c0.11-0.05,0.22-0.1,0.33-0.16
							c0.11-0.06,0.22-0.09,0.33-0.14c0.88-0.38,1.66-1.03,2.24-1.81c0.29-0.39,0.52-0.82,0.63-1.27c0.11-0.45,0.1-0.92-0.03-1.37
							c-0.26-0.88-0.96-1.67-1.71-2.22c0.02,0.01,0.03,0.01,0.05,0.02l-0.09-0.04c0.01,0.01,0.02,0.02,0.04,0.03
							c-0.59-0.18-1.2-0.28-1.78-0.22c-0.6,0.06-1.17,0.3-1.64,0.69c-0.23,0.19-0.45,0.42-0.63,0.68c-0.21,0.24-0.42,0.48-0.59,0.76
							c-0.36,0.55-0.66,1.17-0.89,1.82c0.01-0.35,0.05-0.7,0.13-1.05C93.05,67.56,93.14,67.22,93.27,66.88z"/>
					</g>
				</g>
				<g>
					<g>
						<path class="st1" d="M98.39,65.22c-0.01-0.01-0.02-0.02-0.04-0.03l0.09,0.04C98.42,65.23,98.4,65.23,98.39,65.22z"/>
					</g>
				</g>
			</g>
			<g>
				<g>
					<path class="st24" d="M94.99,67.54c0,0,1.23-1.52,3.32-0.82c0,0,1.6,3.41-2.52,4.04c0,0-1.41,0.17-0.26-1.82
						C95.73,68.6,94.82,68.14,94.99,67.54z"/>
				</g>
			</g>
			<g>
				<g>
					<path class="st1" d="M95.31,67.72c-0.11,0.08-0.22,0.17-0.33,0.26L94.9,67.5c0.12,0.05,0.22,0.1,0.32,0.16
						C95.25,67.68,95.28,67.7,95.31,67.72z"/>
				</g>
			</g>
			<g>
				<g>
					<path class="st1" d="M94.72,68.02l-0.44-0.19l0.36-0.29c0.33-0.26,0.68-0.51,1.06-0.72c0.38-0.21,0.79-0.38,1.24-0.42
						c0.23-0.02,0.47,0.01,0.69,0.1c0.22,0.09,0.41,0.26,0.54,0.45c0.13,0.19,0.21,0.41,0.26,0.62c0.05,0.21,0.07,0.43,0.06,0.65
						c-0.08-0.42-0.24-0.83-0.5-1.11c-0.13-0.14-0.29-0.24-0.46-0.29c-0.17-0.05-0.35-0.04-0.53-0.01
						c-0.36,0.07-0.71,0.25-1.05,0.45c-0.22,0.14-0.43,0.29-0.64,0.45c-0.03-0.02-0.06-0.04-0.09-0.06
						c-0.1-0.06-0.19-0.11-0.32-0.16l0.08,0.48c0.11-0.09,0.22-0.17,0.33-0.26c0.07,0.05,0.14,0.1,0.2,0.16
						c0.18,0.17,0.34,0.43,0.35,0.73c0.01,0.3-0.11,0.55-0.24,0.74c-0.13,0.18-0.28,0.33-0.44,0.47c0-0.01,0.01-0.01,0.01-0.02
						l-0.03,0.04c0.01-0.01,0.01-0.01,0.02-0.02c-0.04,0.05-0.08,0.13-0.1,0.19c-0.02,0.07-0.02,0.13-0.01,0.19
						c0.03,0.11,0.2,0.22,0.39,0.28c0.19,0.06,0.4,0.11,0.61,0.13c0.21,0.03,0.43,0.05,0.64,0.07c-0.21,0.05-0.42,0.09-0.64,0.11
						c-0.22,0.02-0.44,0.03-0.67-0.01c-0.12-0.02-0.23-0.05-0.35-0.11c-0.12-0.06-0.24-0.15-0.32-0.3
						c-0.08-0.15-0.09-0.33-0.06-0.47c0.03-0.15,0.07-0.26,0.16-0.39l0.01-0.01l0.03-0.03c0.13-0.13,0.26-0.27,0.35-0.42
						c0.09-0.15,0.14-0.29,0.13-0.41c-0.01-0.12-0.07-0.24-0.19-0.35C95.02,68.18,94.86,68.08,94.72,68.02z"/>
				</g>
			</g>
			<g>
				<g>
					<path class="st1" d="M95.17,69.82c-0.01,0.01-0.01,0.01-0.02,0.02l0.03-0.04C95.18,69.81,95.17,69.81,95.17,69.82z"/>
				</g>
			</g>
		</g>
		<g>
			<g>
				<g>
					<g>
						<path class="st10" d="M81.14,53.8c0,0,4.52-6.03,3.82-12.12c0,0-0.16-3.32-3.08-3.79c0,0-3.75-0.4-4.33,3.85
							c0,0-1.58,5.42,1.56,11.71L81.14,53.8z"/>
						<path class="st11" d="M78.84,53.78l-0.09-0.17c-3.09-6.18-1.72-11.47-1.59-11.95c0.64-4.54,4.7-4.16,4.75-4.15l0.02,0
							c3.08,0.49,3.38,3.86,3.4,4.13c0.71,6.17-3.71,12.13-3.89,12.38l-0.14,0.19L78.84,53.78z M77.91,41.79l-0.01,0.05
							c-0.02,0.05-1.48,5.25,1.45,11.26l1.62,0.28c0.73-1.05,4.22-6.37,3.61-11.66l0-0.03c0-0.03-0.17-3.01-2.75-3.43
							C81.59,38.24,78.43,38.03,77.91,41.79z"/>
					</g>
					<g>
						<path class="st12" d="M79.85,53.11c0,0,1.39-4.43,1.94-14.62c0,0-3.7,0.12-3.81,4.23C77.97,42.73,76.51,48.23,79.85,53.11z"/>
					</g>
					<g>
						<path class="st9" d="M84.78,41.95c0,0-1.74,2.02-3.56,2.83c0,0-1.96-1.26-3.38-3.14c0,0-0.22,0.74-0.24,2.03
							c0,0,1.82,2.45,3.48,2.99c0,0,1.94-0.55,3.67-2.63C84.74,44.03,84.85,43.33,84.78,41.95z"/>
					</g>
					<g>
						<path class="st9" d="M84.18,46.94c0,0-1.82,1.5-3.4,2.04c0,0-2.16-1.25-3.3-2.86c0,0-0.09,0.6,0.11,1.86
							c0,0,1.61,1.98,2.99,2.53c0,0,1.37-0.23,2.92-1.82C83.5,48.68,83.71,48.31,84.18,46.94z"/>
					</g>
				</g>
				<g>
					<path class="st11" d="M80.59,53.59c0.16-1.14,0.3-2.27,0.42-3.41c0.12-1.14,0.23-2.27,0.32-3.41c0.09-1.14,0.17-2.28,0.23-3.42
						c0.07-1.14,0.11-2.28,0.14-3.43c-0.09,1.14-0.19,2.28-0.31,3.41c-0.11,1.13-0.25,2.27-0.39,3.4c-0.14,1.13-0.31,2.26-0.48,3.38
						c-0.17,1.12-0.36,2.25-0.57,3.36L80.59,53.59z"/>
				</g>
			</g>
			<g>
				<g>
					<g>
						<path class="st10" d="M84.62,57.16c0,0,5.53-5.04,5.93-11.15c0,0,0.44-3.29-2.36-4.31c0,0-3.62-1.12-4.96,2.94
							c0,0-2.52,5.01-0.56,11.78L84.62,57.16z"/>
						<path class="st11" d="M82.36,56.7l-0.05-0.18c-1.93-6.66,0.35-11.58,0.57-12.03c1.44-4.33,5.38-3.17,5.42-3.16l0.02,0.01
							c2.94,1.08,2.64,4.43,2.61,4.7c-0.41,6.19-5.82,11.19-6.05,11.4l-0.17,0.16L82.36,56.7z M83.59,44.75l-0.02,0.05
							c-0.02,0.05-2.39,4.88-0.58,11.32l1.54,0.59c0.91-0.9,5.29-5.44,5.64-10.74l0-0.03c0-0.03,0.37-2.99-2.11-3.9
							C87.84,41.99,84.77,41.15,83.59,44.75z"/>
					</g>
					<g>
						<path class="st12" d="M83.47,56.24c0,0,2.16-4.08,4.52-13.96c0,0-3.66-0.59-4.51,3.42C83.48,45.69,81.05,50.8,83.47,56.24z"/>
					</g>
					<g>
						<path class="st9" d="M90.32,46.24c0,0-2.07,1.65-4.01,2.09c0,0-1.71-1.62-2.77-3.73c0,0-0.35,0.69-0.6,1.94
							c0,0,1.36,2.75,2.89,3.6c0,0,2-0.17,4.08-1.87C89.91,48.27,90.14,47.61,90.32,46.24z"/>
					</g>
					<g>
						<path class="st9" d="M88.84,51.01c0,0-2.06,1.12-3.71,1.35c0,0-1.91-1.64-2.73-3.44c0,0-0.2,0.57-0.23,1.85
							c0,0,1.23,2.26,2.5,3.05c0,0,1.39,0.04,3.2-1.22C87.86,52.59,88.14,52.27,88.84,51.01z"/>
					</g>
				</g>
				<g>
					<path class="st11" d="M84.12,56.85c0.36-1.09,0.7-2.17,1.02-3.26c0.32-1.09,0.63-2.19,0.93-3.29c0.29-1.1,0.58-2.2,0.84-3.31
						c0.27-1.11,0.51-2.22,0.75-3.33c-0.29,1.1-0.59,2.2-0.91,3.28c-0.32,1.09-0.65,2.17-0.99,3.25c-0.34,1.08-0.7,2.15-1.08,3.22
						c-0.37,1.07-0.76,2.13-1.17,3.18L84.12,56.85z"/>
				</g>
			</g>
			<g>
				<g>
					<g>
						<path class="st10" d="M88.84,56.38c0,0,6.73-3.11,8.84-8.81c0,0,1.35-3-1.04-4.83c0,0-3.16-2.17-5.59,1.29
							c0,0-3.84,4-3.87,11.05L88.84,56.38z"/>
						<path class="st11" d="M86.81,55.26l0-0.19c0.03-6.93,3.62-10.92,3.96-11.29c2.61-3.69,6.06-1.38,6.09-1.36l0.02,0.01
							c2.51,1.92,1.27,5.02,1.16,5.27c-2.14,5.77-8.76,8.88-9.04,9.01l-0.21,0.1L86.81,55.26z M91.37,44.25l-0.04,0.04
							c-0.04,0.04-3.67,3.91-3.76,10.6l1.32,1.04c1.13-0.57,6.61-3.56,8.44-8.49l0.01-0.02c0.01-0.03,1.2-2.73-0.92-4.37
							C96.22,42.92,93.51,41.2,91.37,44.25z"/>
					</g>
					<g>
						<path class="st12" d="M88,55.15c0,0,3.23-3.22,8.29-11.91c0,0-3.34-1.68-5.29,1.88C91,45.12,87.22,49.23,88,55.15z"/>
					</g>
					<g>
						<path class="st9" d="M97.4,47.73c0,0-2.45,0.94-4.44,0.76c0,0-1.18-2.06-1.6-4.4c0,0-0.53,0.55-1.12,1.67
							c0,0,0.52,3.04,1.75,4.32c0,0,1.97,0.45,4.45-0.53C96.44,49.54,96.84,48.98,97.4,47.73z"/>
					</g>
					<g>
						<path class="st9" d="M94.63,51.82c0,0-2.3,0.43-3.94,0.15c0,0-1.36-2.14-1.65-4.12c0,0-0.35,0.48-0.74,1.69
							c0,0,0.54,2.52,1.53,3.67c0,0,1.32,0.46,3.42-0.19C93.24,53.03,93.6,52.81,94.63,51.82z"/>
					</g>
				</g>
				<g>
					<path class="st11" d="M88.45,55.94c0.66-0.92,1.28-1.85,1.9-2.8c0.62-0.94,1.23-1.89,1.82-2.85c0.59-0.96,1.18-1.92,1.74-2.9
						c0.57-0.97,1.12-1.96,1.67-2.94c-0.59,0.96-1.19,1.91-1.8,2.85c-0.61,0.94-1.24,1.87-1.88,2.8c-0.64,0.92-1.29,1.84-1.95,2.74
						c-0.66,0.9-1.33,1.8-2.02,2.67L88.45,55.94z"/>
				</g>
			</g>
			<g>
				<g>
					<g>
						<path class="st10" d="M72.77,58.39c0,0-2.74-7.15-7.59-9.72c0,0-2.55-1.6-4.05,0.73c0,0-1.77,3.1,1.19,5.84
							c0,0,3.44,4.23,9.39,4.76L72.77,58.39z"/>
						<path class="st11" d="M71.67,60.38c-5.88-0.52-9.33-4.51-9.63-4.88c-3.12-2.91-1.26-6.26-1.24-6.29l0.01-0.02
							c1.34-2.09,3.56-1.48,4.56-0.86c4.91,2.61,7.64,9.62,7.75,9.91l0.07,0.18l-1.3,1.96L71.67,60.38z M65,49l-0.02-0.01
							c-0.09-0.06-2.25-1.37-3.53,0.61c-0.09,0.16-1.52,2.92,1.12,5.37L62.61,55c0.03,0.04,3.33,4.01,8.9,4.6l0.83-1.26
							C71.88,57.23,69.24,51.25,65,49z"/>
					</g>
					<g>
						<path class="st12" d="M71.75,59.17c0,0-2.78-3.55-10.2-9.37c0,0-1.36,3.32,1.68,5.58C63.23,55.38,66.77,59.55,71.75,59.17z"/>
					</g>
					<g>
						<path class="st9" d="M65.31,48.97c0,0,0.84,2.59,0.72,4.62c0,0-1.72,1.07-3.68,1.34c0,0,0.47,0.58,1.43,1.27
							c0,0,2.55-0.32,3.61-1.5c0,0,0.35-2-0.53-4.61C66.86,50.09,66.38,49.63,65.31,48.97z"/>
					</g>
					<g>
						<path class="st9" d="M68.82,52.11c0,0,0.41,2.39,0.2,4.07c0,0-1.78,1.25-3.44,1.41c0,0,0.41,0.39,1.44,0.88
							c0,0,2.12-0.38,3.07-1.32c0,0,0.36-1.33-0.22-3.53C69.86,53.62,69.67,53.24,68.82,52.11z"/>
					</g>
				</g>
				<g>
					<path class="st11" d="M72.4,58.76c-0.79-0.74-1.59-1.45-2.39-2.16c-0.81-0.7-1.62-1.4-2.43-2.07c-0.82-0.68-1.64-1.35-2.47-2
						c-0.83-0.66-1.67-1.29-2.51-1.92c0.82,0.68,1.63,1.36,2.44,2.06c0.81,0.7,1.6,1.41,2.39,2.13c0.79,0.72,1.57,1.45,2.35,2.2
						c0.77,0.74,1.54,1.5,2.29,2.27L72.4,58.76z"/>
				</g>
			</g>
			<g>
				<g>
					<g>
						<path class="st10" d="M76.65,57.08c0,0-1.61-7.52-6.03-11.07c0,0-2.29-2.11-4.16-0.18c0,0-2.26,2.61,0.26,5.91
							c0,0,2.76,4.85,8.61,6.66L76.65,57.08z"/>
						<path class="st11" d="M75.22,58.77c-5.78-1.79-8.58-6.41-8.82-6.81c-2.65-3.5-0.25-6.34-0.23-6.37l0.01-0.02
							c1.67-1.73,3.79-0.66,4.68,0.15c4.47,3.6,6.09,10.96,6.16,11.28l0.04,0.2l-1.63,1.64L75.22,58.77z M70.38,46.31l-0.02-0.02
							c-0.08-0.08-2.03-1.83-3.62-0.2c-0.11,0.14-1.97,2.48,0.28,5.43l0.03,0.04c0.03,0.05,2.69,4.62,8.18,6.42l1.01-1.01
							C75.94,55.76,74.26,49.42,70.38,46.31z"/>
					</g>
					<g>
						<path class="st12" d="M75.51,57.61c0,0-2.21-4.05-8.69-11.3c0,0-1.88,2.92,0.79,5.76C67.61,52.08,70.48,56.89,75.51,57.61z"/>
					</g>
					<g>
						<path class="st9" d="M70.7,46.33c0,0,0.42,2.69-0.01,4.63c0,0-1.88,0.66-3.89,0.49c0,0,0.38,0.67,1.22,1.54
							c0,0,2.6,0.25,3.84-0.66c0,0,0.66-1.86,0.2-4.58C72.07,47.75,71.66,47.2,70.7,46.33z"/>
					</g>
					<g>
						<path class="st9" d="M73.7,50.14c0,0,0.03,2.41-0.45,3.98c0,0-1.98,0.82-3.66,0.61c0,0,0.35,0.47,1.3,1.17
							c0,0,2.18,0.09,3.27-0.6c0,0,0.57-1.21,0.34-3.46C74.51,51.83,74.37,51.42,73.7,50.14z"/>
					</g>
				</g>
				<g>
					<path class="st11" d="M76.23,57.36c-0.67-0.89-1.35-1.75-2.05-2.61c-0.69-0.86-1.39-1.7-2.1-2.54
						c-0.71-0.84-1.42-1.66-2.15-2.48c-0.72-0.82-1.46-1.62-2.2-2.41c0.71,0.83,1.42,1.67,2.11,2.52c0.69,0.85,1.38,1.71,2.05,2.58
						c0.67,0.87,1.34,1.75,1.99,2.64c0.65,0.89,1.3,1.79,1.93,2.69L76.23,57.36z"/>
				</g>
			</g>
			<g>
				<g>
					<g>
						<path class="st10" d="M77.73,52.95c0,0,0.31-7.56-3.13-12.41c0,0-1.72-2.76-4.03-1.61c0,0-2.87,1.65-1.23,5.6
							c0,0,1.49,5.48,6.76,9.2L77.73,52.95z"/>
						<path class="st11" d="M75.88,54.04c-5.2-3.67-6.78-8.94-6.9-9.39c-1.72-4.2,1.37-6.03,1.4-6.05l0.02-0.01
							c2.07-1.03,3.85,0.68,4.51,1.74c3.47,4.9,3.21,12.32,3.19,12.64l-0.01,0.23l-2.03,0.97L75.88,54.04z M74.29,40.76l-0.01-0.02
							c-0.02-0.02-1.55-2.45-3.53-1.48c-0.19,0.11-2.52,1.59-1.06,5.12l0.02,0.05c0.01,0.05,1.49,5.27,6.44,8.86l1.21-0.58
							C77.37,51.43,77.29,44.98,74.29,40.76z"/>
					</g>
					<g>
						<path class="st12" d="M76.48,53.05c0,0-1.15-4.54-5.68-13.55c0,0-2.58,2.07-0.67,5.65C70.13,45.15,71.73,50.63,76.48,53.05z"
							/>
					</g>
					<g>
						<path class="st9" d="M74.6,40.87c0,0-0.26,2.66-1.17,4.31c0,0-2.01-0.04-3.93-0.9c0,0,0.2,0.75,0.81,1.86
							c0,0,2.48,1.13,3.92,0.72c0,0,1.11-1.5,1.35-4.2C75.58,42.67,75.32,42.01,74.6,40.87z"/>
					</g>
					<g>
						<path class="st9" d="M76.58,45.46c0,0-0.58,2.25-1.44,3.56c0,0-2.14,0.08-3.73-0.71c0,0,0.23,0.56,0.98,1.54
							c0,0,2.11,0.84,3.35,0.58c0,0,0.86-0.93,1.2-3.11C76.94,47.31,76.92,46.88,76.58,45.46z"/>
					</g>
				</g>
				<g>
					<path class="st11" d="M77.24,53.06c-0.43-1.06-0.89-2.1-1.35-3.14c-0.46-1.04-0.93-2.07-1.42-3.1
						c-0.49-1.02-0.98-2.04-1.49-3.05c-0.5-1.01-1.03-2.01-1.55-3.01c0.49,1.02,0.97,2.05,1.43,3.08c0.47,1.03,0.92,2.07,1.36,3.12
						c0.44,1.04,0.87,2.1,1.29,3.15c0.42,1.06,0.83,2.12,1.21,3.18L77.24,53.06z"/>
				</g>
			</g>
			<g>
				<g>
					<path class="st25" d="M92.9,53.15c-6.79-3.22-11.94-3.99-11.94-3.99s-6.67-1.25-10.53,5.1c0,0-1.72,1.53-2.1,4.46
						c0,0-1.86,16.98,0.56,28.51c0,0,1.15,3.48,4.55,1.85c0,0,4.81-3.75,8.52-3.42c0,0,1.31,1.36,3.65,2.65
						c1.65,0.91,2.79,1.86,5.94,0.67c0,0,2.67-0.96,5.12-3.98c0,0,1.31-1.27,0.72-6.14c0,0-2.36-19.27-2.78-21.79
						C94.6,57.06,94.36,53.85,92.9,53.15z"/>
					<path class="st11" d="M85.84,88.88c-0.14-0.08-0.28-0.16-0.43-0.24c-2.01-1.11-3.27-2.26-3.63-2.61
						c-3.5-0.22-8.07,3.31-8.12,3.35l-0.07,0.04c-1.12,0.54-2.15,0.62-3.05,0.24c-1.46-0.62-2.01-2.24-2.03-2.31L68.5,87.3
						c-2.4-11.46-0.58-28.46-0.56-28.64c0.37-2.8,1.9-4.38,2.18-4.65c3.95-6.44,10.83-5.24,10.88-5.23
						c0.05,0.01,5.29,0.82,12.05,4.03c1.59,0.75,1.88,3.78,1.91,4.21c0.42,2.57,2.68,21,2.78,21.79c0.57,4.75-0.6,6.21-0.81,6.44
						c-2.48,3.06-5.16,4.05-5.27,4.09c-1.1,0.41-1.98,0.58-2.72,0.58C87.64,89.91,86.76,89.4,85.84,88.88z M70.75,54.45l-0.03,0.05
						l-0.04,0.04c-0.02,0.01-1.62,1.49-1.98,4.22c-0.02,0.17-1.82,17.03,0.55,28.37c0.06,0.16,0.53,1.38,1.61,1.84
						c0.68,0.29,1.48,0.22,2.38-0.21c0.47-0.36,5.06-3.8,8.75-3.47l0.14,0.01l0.1,0.1c0.01,0.01,1.31,1.34,3.56,2.58
						c0.15,0.08,0.3,0.17,0.44,0.25c1.39,0.79,2.48,1.42,5.19,0.4c0.03-0.01,2.6-0.95,4.95-3.86l0.03-0.03
						c0.01-0.01,1.16-1.28,0.61-5.83c-0.02-0.19-2.36-19.29-2.77-21.77l0-0.03c-0.06-0.83-0.45-3.11-1.48-3.6l0,0
						c-6.65-3.16-11.79-3.95-11.85-3.96c-0.02,0-0.51-0.09-1.28-0.09C77.53,49.44,73.42,50.05,70.75,54.45z"/>
				</g>
				<g>
					<path class="st26" d="M89.72,52.84c-5.81-3.16-13.15-3.44-13.15-3.44s-4.5,1.04-8.83,5.43c0,0-2.11,1.4-2.49,4.32
						c0,0,0.14,15.55,2.56,27.08c0,0,0.55,2.04,2.5,2.91c0,0,2.73-3.28,7.98-3.34c0,0,4.32,0.24,7.65,2.64c0,0,5.04-1.1,7.18-3.7
						c0,0,1.78-0.57,1.19-5.44c0,0-2.47-21.35-2.89-23.88C91.42,55.41,91.15,53.61,89.72,52.84z"/>
					<path class="st11" d="M70.16,89.48c-2.09-0.93-2.68-3.07-2.71-3.16l-0.01-0.02c-2.39-11.44-2.57-27-2.57-27.15l0-0.03l0-0.03
						c0.38-2.89,2.32-4.35,2.62-4.56c4.35-4.4,8.8-5.46,8.99-5.51l0.05-0.01l0.05,0c0.3,0.01,7.5,0.32,13.32,3.49l0,0
						c1.57,0.85,1.87,2.77,1.89,2.84c0.42,2.5,2.79,23.02,2.89,23.89c0.54,4.51-0.87,5.58-1.33,5.8c-2.23,2.62-7.12,3.72-7.33,3.76
						l-0.16,0.04l-0.14-0.1c-3.12-2.24-7.19-2.55-7.44-2.57c-4.99,0.07-7.65,3.17-7.68,3.2l-0.18,0.22L70.16,89.48z M78.31,85.42
						c0.18,0.01,4.35,0.27,7.71,2.61c0.86-0.21,4.99-1.32,6.81-3.54l0.07-0.09L93,84.37c0.01,0,1.46-0.67,0.93-5.04
						c-0.02-0.21-2.47-21.37-2.89-23.86c0-0.02-0.26-1.62-1.5-2.3l0,0c-5.4-2.94-12.27-3.36-12.93-3.39
						c-0.49,0.13-4.63,1.29-8.6,5.31l-0.06,0.05c-0.02,0.01-1.95,1.32-2.32,4.03c0.01,0.73,0.22,15.83,2.55,26.97
						c0.04,0.13,0.53,1.72,2.04,2.53c0.74-0.76,3.45-3.2,8.06-3.25l0.01,0L78.31,85.42z"/>
				</g>
				<g>
					<path class="st27" d="M82.15,50.99c0,0,0.18,13.28,3.66,36.51c0,0-8.41-6.83-15.39,1.05c0,0-2.25-23.69-1.7-33.53
						c0,0,0.08-1.54,6.35-4.64C75.06,50.38,77.98,48.99,82.15,50.99z"/>
				</g>
				<g>
					<path class="st28" d="M65.85,59.25c0.35-2.76,2.31-4.07,2.31-4.07c0.73-0.75,1.47-1.4,2.19-1.96
						c0.18,4.16,0.96,18.63,3.17,29.86c0,0,0.3,1.37,0.98,2.35c-2.53,0.92-4.31,2.95-4.31,2.95c-1.81-0.82-2.03-3.18-2.03-3.18
						C65.88,74.33,65.85,59.25,65.85,59.25z"/>
				</g>
				<g>
					<path class="st29" d="M84.9,72.58c0,0-7.77-3.27-14.05,1.96c0,0-2.14,1.59-0.77,4.74c0,0,1.3,2.67,4.22,1.13
						c0,0,3.87-3.66,9.59-0.33c0,0,3.88-0.3,4.44-3.45C88.33,76.63,88.66,73.55,84.9,72.58z"/>
					<path class="st11" d="M71.66,81.12c-1.3-0.43-1.89-1.62-1.92-1.69c-1.41-3.24,0.67-5.02,0.87-5.19
						c6.19-5.16,13.88-2.23,14.41-2.03c4.01,1.05,3.69,4.42,3.69,4.46l0,0.03c-0.6,3.39-4.74,3.75-4.78,3.76l-0.12,0.01l-0.1-0.06
						c-5.39-3.14-8.99,0.14-9.14,0.28l-0.04,0.04l-0.05,0.02c-0.66,0.35-1.29,0.52-1.89,0.52C72.27,81.27,71.96,81.22,71.66,81.12z
						 M83.97,79.69c0.62-0.07,3.52-0.56,3.98-3.11c0.02-0.22,0.18-2.77-3.15-3.64l-0.05-0.02c-0.08-0.03-7.63-3.12-13.67,1.91
						c-0.08,0.06-1.87,1.47-0.65,4.27c0,0.01,0.49,0.97,1.48,1.29c0.65,0.21,1.38,0.11,2.18-0.3C74.54,79.7,78.46,76.55,83.97,79.69
						z"/>
				</g>
				<g>
					<path class="st6" d="M69.54,55.03c0.04-0.41-0.07-1.16,1.3,6.51c0,0-0.43-5.48,0.1-8.02L69.54,55.03z"/>
				</g>
				<g>
					<path class="st6" d="M81.32,51.24c0,0,0.16,1.12,1.39,8.42c0,0-0.54-6.23-0.01-8.77L81.32,51.24z"/>
				</g>
				<g>
					<path class="st26" d="M73.23,51.31c0.06,1.66,0.15,3.3,0.26,4.95c0.11,1.65,0.24,3.29,0.4,4.93c0.16,1.64,0.34,3.28,0.58,4.91
						c0.24,1.63,0.51,3.26,0.88,4.86c-0.28-1.62-0.46-3.26-0.61-4.89c-0.15-1.64-0.23-3.28-0.3-4.92c-0.07-1.64-0.1-3.28-0.12-4.92
						c-0.02-1.64-0.01-3.28,0.02-4.91L73.23,51.31z"/>
				</g>
				<g>
					<g>
						<path class="st6" d="M89.36,53.76c-5.66-3.01-13.51-2.79-13.51-2.79s-3.98,1.33-8.22,5.55c0,0-0.93,0.81-1.66,2.09
							c0.57-2.33,2.26-3.45,2.26-3.45c4.15-4.21,8.46-5.2,8.46-5.2s7.04,0.27,12.61,3.3C90.66,54,90.75,54.5,89.36,53.76z"/>
					</g>
					<g>
						<path class="st11" d="M67.4,54.71c-0.01,0.04-0.01,0.06-0.02,0.09l-0.01,0.07c-0.01,0.05-0.01,0.09-0.02,0.14
							c-0.01,0.09-0.02,0.18-0.03,0.26c-0.01,0.17-0.02,0.34-0.02,0.51c-0.01,0.34,0,0.67,0.01,1.01c0.02,0.67,0.08,1.33,0.14,1.99
							c0.07,0.66,0.15,1.32,0.24,1.97c0.09,0.66,0.19,1.31,0.3,1.96c-0.04-0.66-0.08-1.32-0.11-1.98c-0.03-0.66-0.05-1.32-0.05-1.97
							c0-0.66,0.01-1.31,0.04-1.96c0.02-0.32,0.04-0.65,0.08-0.97c0.02-0.16,0.04-0.32,0.07-0.47c0.01-0.08,0.03-0.15,0.04-0.23
							c0.01-0.04,0.02-0.07,0.02-0.11l0.01-0.05c0-0.01,0.01-0.03,0.01-0.03L67.4,54.71z"/>
					</g>
				</g>
				<g>
					<path class="st6" d="M88.18,58.09c-0.06,1.89-0.01,3.78,0.08,5.66c0.04,0.94,0.11,1.89,0.17,2.83
						c0.03,0.47,0.08,0.94,0.12,1.41c0.04,0.47,0.08,0.94,0.13,1.41c0.1,0.94,0.2,1.88,0.32,2.82c0.06,0.47,0.13,0.94,0.19,1.4
						c0.07,0.47,0.13,0.94,0.21,1.4c0.3,1.87,0.66,3.72,1.14,5.56c-0.17-1.89-0.38-3.76-0.57-5.63c-0.09-0.94-0.2-1.87-0.28-2.81
						l-0.15-1.4l-0.14-1.4l-0.58-5.62C88.63,61.84,88.43,59.97,88.18,58.09z"/>
				</g>
				<g>
					<path class="st11" d="M84.72,74.17c0,0-6.93-3.04-12.55,1.31c0,0-1.91,1.49-0.71,4.03c-0.43-0.81,0.2,1.63,2.86,0.82
						c0,0,4.45-2.93,9.57-0.3c0,0,3.5-0.28,4.03-2.82C87.93,77.2,88.25,75.74,84.72,74.17z"/>
					<path class="st11" d="M71,79.54c-0.03-0.09-0.04-0.17-0.03-0.24c-0.97-2.56,0.96-4.1,0.98-4.12
						c5.73-4.43,12.86-1.39,12.93-1.35l0,0c3.7,1.65,3.46,3.28,3.42,3.45c-0.58,2.79-4.22,3.11-4.37,3.12l-0.11,0.01l-0.1-0.05
						c-4.85-2.5-9.14,0.25-9.18,0.28l-0.05,0.03l-0.05,0.02c-0.42,0.13-0.8,0.18-1.14,0.18C71.84,80.87,71.13,79.87,71,79.54z
						 M83.97,79.64c0.55-0.07,3.17-0.5,3.59-2.5c0-0.01,0.13-1.23-2.98-2.62c-0.12-0.05-6.81-2.88-12.16,1.26
						c-0.07,0.05-1.65,1.35-0.6,3.57l-0.04,0.02c0.19,0.28,0.87,1.06,2.4,0.61C74.7,79.64,78.99,77.14,83.97,79.64z M71.17,79.67
						c0.09,0.05,0.22,0.08,0.36,0c0.13-0.07,0.18-0.19,0.19-0.28L71.17,79.67z"/>
				</g>
				<g>
					<path class="st26" d="M84.88,73.96c0,0-0.54-0.82-0.98-0.94c-2.03-0.58-7.81-1.15-12.26,2.54c0,0,0.49,2.2,1.93,1.9
						c0,0,1.52-0.34,1.24-1.5c0,0,0.46,1.26,1.61,1.1c0,0,1.71-0.09,1.37-1.84c0,0-0.08,2.02,2.22,1.7c0,0,1.47-0.18,1.2-1.87
						c0,0-0.08,1.98,1.99,1.9C83.19,76.94,85.9,76.72,84.88,73.96z"/>
				</g>
				<g>
					<path class="st6" d="M84.02,73.13c0,0-6.3-2.51-12.52,1.49c0,0,0.15,2.53,1.63,2.33c0,0,1.17-0.34,1-1.85
						c0,0,0.49,1.44,1.64,1.28c0,0,1.68-0.28,1.34-2.03c0,0-0.08,2.02,2.22,1.7c0,0,1.5,0.01,1.22-1.69c0,0,0.27,2.03,1.84,2.11
						C82.39,76.48,85.04,75.89,84.02,73.13z"/>
				</g>
				<g>
					<path class="st11" d="M95.73,85.6c-0.27-0.01-0.53-0.05-0.79-0.08c-0.26-0.04-0.51-0.09-0.77-0.15
						c-0.25-0.06-0.5-0.13-0.74-0.22c-0.24-0.08-0.48-0.18-0.72-0.28l0.14,0.15c-0.06-0.17-0.12-0.39-0.18-0.58
						c-0.05-0.2-0.1-0.41-0.15-0.61c-0.09-0.41-0.17-0.83-0.24-1.25c-0.08-0.42-0.14-0.84-0.2-1.27L92,80.66
						c-0.03-0.21-0.06-0.43-0.1-0.64c-0.03,0.22-0.06,0.43-0.08,0.65c-0.01,0.22-0.03,0.44-0.03,0.65c0,0.22-0.01,0.44,0,0.66
						c0.01,0.22,0.02,0.44,0.04,0.66c0.04,0.44,0.1,0.87,0.19,1.31c0.05,0.22,0.09,0.43,0.16,0.65c0.06,0.22,0.13,0.42,0.22,0.65
						l0.04,0.11l0.1,0.04c0.26,0.1,0.52,0.18,0.79,0.24c0.27,0.06,0.54,0.1,0.81,0.13c0.27,0.02,0.54,0.02,0.81,0
						C95.21,85.72,95.48,85.68,95.73,85.6z"/>
				</g>
				<g>
					<path class="st11" d="M89.78,87.04C89.79,87.05,89.78,87.04,89.78,87.04c0,0-0.01-0.01-0.01-0.01
						c-0.01-0.01-0.02-0.02-0.02-0.04c-0.02-0.03-0.03-0.06-0.05-0.09c-0.03-0.06-0.07-0.13-0.1-0.19
						c-0.07-0.13-0.13-0.28-0.19-0.42c-0.12-0.29-0.23-0.58-0.34-0.88c-0.21-0.6-0.4-1.22-0.57-1.84c0.03,0.64,0.06,1.29,0.13,1.94
						c0.03,0.32,0.07,0.65,0.12,0.98c0.03,0.16,0.06,0.33,0.09,0.5c0.02,0.08,0.04,0.17,0.06,0.25c0.01,0.04,0.02,0.09,0.04,0.13
						l0.02,0.07l0.02,0.04c0.01,0.02,0.01,0.02,0.03,0.06L89.78,87.04z"/>
				</g>
				<g>
					<path class="st11" d="M87.74,89.78c0.4-0.16,0.78-0.33,1.15-0.51c0.38-0.18,0.74-0.38,1.1-0.6c0.36-0.21,0.71-0.45,1.03-0.72
						c0.32-0.27,0.63-0.57,0.83-0.94c-0.27,0.32-0.61,0.54-0.96,0.74c-0.35,0.19-0.72,0.35-1.1,0.49c-0.38,0.14-0.76,0.26-1.14,0.36
						c-0.38,0.1-0.78,0.2-1.16,0.26L87.74,89.78z"/>
				</g>
				<g>
					<g>
						<path class="st29" d="M77.38,62.35c0,0,2.11-1.27,5.21-2.27c0,0,1.48-0.43,3.56-0.32c0,0,2.4,3.48-1.39,6.14
							c0,0-3.48,1.63-5.82-0.32C78.94,65.58,77.9,65.03,77.38,62.35z"/>
						<path class="st11" d="M78.72,65.9C78.49,65.75,77.5,65,77,62.42l-0.05-0.26l0.23-0.14c0.09-0.05,2.18-1.3,5.3-2.31
							c0.06-0.02,1.56-0.44,3.69-0.33l0.19,0.01l0.11,0.15c0.03,0.04,2.56,3.82-1.48,6.66l-0.06,0.03
							c-0.09,0.04-1.48,0.68-3.12,0.68C80.79,66.93,79.68,66.68,78.72,65.9z M85.93,60.13c-1.89-0.07-3.23,0.31-3.23,0.31
							c-2.44,0.78-4.28,1.75-4.9,2.1c0.48,2.19,1.32,2.71,1.32,2.71l0.07,0.04c2.02,1.68,5.07,0.42,5.39,0.28
							C87.57,63.44,86.32,60.8,85.93,60.13z"/>
					</g>
					<g>
						<path class="st11" d="M79.35,63.3c0,0,0.84-0.58,3.36-1.31c0,0,1.89-0.61,3.56-0.57c0,0,1.83,2.11-1.26,3.97
							c0,0-2.47,1.11-4.31-0.15C80.7,65.23,79.72,65.09,79.35,63.3z"/>
						<path class="st11" d="M80.54,65.58c-0.31-0.09-1.22-0.5-1.56-2.21l-0.05-0.25l0.21-0.14c0.04-0.03,0.92-0.62,3.46-1.36
							c0.08-0.03,1.97-0.63,3.69-0.59l0.17,0l0.11,0.13c0.03,0.04,0.79,0.92,0.6,2.11c-0.15,0.92-0.8,1.74-1.95,2.43l-0.04,0.02
							c-0.07,0.03-1.1,0.49-2.36,0.49C82.08,66.22,81.27,66.06,80.54,65.58z M86.41,63.17c0.1-0.62-0.18-1.14-0.33-1.38
							c-1.54,0.01-3.24,0.55-3.27,0.56c-1.73,0.5-2.65,0.93-3.03,1.13c0.33,1.23,0.95,1.37,0.97,1.37l0.09,0.01l0.07,0.05
							c1.57,1.07,3.71,0.22,3.93,0.13C85.77,64.48,86.3,63.85,86.41,63.17z"/>
					</g>
					<g>
						<path class="st11" d="M86.42,64.9c0,0,1.45,3.18,0.16,3.69C86.57,68.59,85.63,67.87,86.42,64.9z"/>
					</g>
					<g>
						<path class="st11" d="M84.34,66.38l0.44,4.11c0,0-0.24,1.16,0.75,1.04c0,0,0.18-0.31-0.02-1.9l-0.76-3.72L84.34,66.38z"/>
					</g>
				</g>
				<g>
					<path class="st29" d="M75.15,62.95c0,0-2.01-0.69-4.81-0.97c0,0-1.32-0.09-3.06,0.37c0,0-1.38,3.36,2.3,4.92
						c0,0,3.23,0.75,4.84-1.31C74.42,65.96,75.2,65.31,75.15,62.95z"/>
					<path class="st11" d="M69.5,67.64l-0.06-0.02c-3.97-1.69-2.52-5.37-2.5-5.41L67,62.03l0.18-0.05c1.78-0.48,3.13-0.39,3.19-0.38
						c2.81,0.28,4.81,0.96,4.89,0.99l0.25,0.09l0.01,0.26c0.05,2.27-0.64,3.09-0.82,3.27c-1.03,1.29-2.61,1.57-3.76,1.57
						C70.15,67.79,69.55,67.65,69.5,67.64z M70.31,62.36c-0.01,0-1.18-0.08-2.74,0.31c-0.21,0.66-0.71,3.02,2.13,4.24
						c0.32,0.06,3.06,0.57,4.43-1.18l0.05-0.05c0.01-0.01,0.59-0.57,0.6-2.44C74.15,63.04,72.46,62.58,70.31,62.36z"/>
				</g>
				<g>
					<path class="st11" d="M75.14,64.31c0,0-1.64-0.63-3.89-0.8c0,0-0.91-0.26-2.32,0.06c0,0-0.76,2.4,2.19,3.42
						c0,0,2.03,0.36,3.35-1.03C74.48,65.96,75.17,65.89,75.14,64.31z"/>
					<path class="st11" d="M71.06,67.37l-0.06-0.01c-3.26-1.12-2.44-3.86-2.43-3.89l0.06-0.21l0.21-0.05
						c1.33-0.31,2.25-0.12,2.46-0.07c2.27,0.17,3.9,0.79,3.97,0.82l0.24,0.09l0,0.26c0.02,1.47-0.55,1.88-0.84,1.99
						c-0.96,0.95-2.19,1.12-2.94,1.12C71.35,67.42,71.09,67.38,71.06,67.37z M74.43,65.59c0.1-0.05,0.3-0.3,0.34-1
						c-0.53-0.17-1.86-0.56-3.54-0.69l-0.08-0.01c-0.01,0-0.75-0.2-1.9,0.02c-0.09,0.54-0.11,2,1.97,2.73
						c0.23,0.03,1.89,0.23,2.98-0.93l0.06-0.13L74.43,65.59z"/>
				</g>
				<g>
					<path class="st11" d="M69.9,67.6l0.6,3.51c0,0,0.47,0.91-0.38,1.04c0,0-0.23-0.21-0.43-1.58l-0.24-3.27L69.9,67.6z"/>
				</g>
				<g>
					<path class="st11" d="M67.82,65.91l0.5,2.81c0,0,0.44,0.72-0.41,0.84c0,0-0.22-0.17-0.38-1.26l-0.15-2.62L67.82,65.91z"/>
				</g>
				<g>
					<path class="st26" d="M80.21,60.77c-0.12-0.5-0.22-1.02-0.31-1.53c-0.09-0.52-0.18-1.04-0.25-1.56
						c-0.07-0.52-0.14-1.05-0.19-1.57c-0.05-0.53-0.09-1.06-0.11-1.59c-0.06,0.53-0.12,1.06-0.16,1.59
						c-0.04,0.53-0.07,1.07-0.08,1.6c-0.02,0.53-0.02,1.07-0.02,1.61c0,0.54,0.02,1.07,0.05,1.62L80.21,60.77z"/>
				</g>
				<g>
					<path class="st26" d="M82.81,82.55c0,0-4.01-3.23-9.02,0.61C73.79,83.17,79.27,81.05,82.81,82.55z"/>
				</g>
				<g>
					<path class="st30" d="M78.66,48.61c0.16-1.05-1.08-1.92-5.13-1.18c0,0-0.77,1.72-0.34,4.34c0.09,0.56,0.22,0.34,1.33,1.45
						c0,0,1.02-0.36,3.7-0.53c0,0,0.11-0.54,0.11-1.38C78.34,50.47,78.47,49.88,78.66,48.61z"/>
					<path class="st11" d="M74.26,53.49c-0.43-0.43-0.71-0.66-0.89-0.81c-0.32-0.26-0.47-0.39-0.54-0.85
						c-0.44-2.7,0.34-4.49,0.37-4.56l0.08-0.18l0.2-0.04c2.66-0.48,4.4-0.34,5.17,0.41c0.33,0.32,0.47,0.74,0.4,1.2
						c-0.04,0.26-0.08,0.49-0.11,0.7c-0.13,0.81-0.21,1.31-0.21,1.94c0,0.87-0.11,1.43-0.12,1.46l-0.06,0.28l-0.29,0.02
						c-2.57,0.16-3.59,0.5-3.6,0.51l-0.23,0.08L74.26,53.49z M77.96,51.31c0-0.7,0.09-1.24,0.22-2.06c0.03-0.21,0.07-0.44,0.11-0.7
						l0,0c0.03-0.22-0.02-0.4-0.18-0.54c-0.26-0.25-1.2-0.78-4.3-0.25c-0.17,0.49-0.57,1.95-0.24,3.95
						c0.03,0.19,0.03,0.19,0.27,0.38c0.17,0.14,0.42,0.34,0.8,0.7c0.42-0.11,1.43-0.33,3.26-0.46
						C77.93,52.11,77.96,51.75,77.96,51.31z"/>
				</g>
				<g>
					<path class="st31" d="M77.7,47.74c0.23-0.87-2.2-1.25-4.89,0.07c0,0-0.49,0.86,0.61,4.29c0,0,1.41-0.34,3.85-0.55
						C77.27,51.56,77.14,49.85,77.7,47.74z"/>
					<path class="st11" d="M73.06,52.23c-1.1-3.42-0.68-4.43-0.58-4.6l0.06-0.1l0.11-0.05c2.24-1.1,4.37-1.11,5.13-0.49
						c0.27,0.22,0.38,0.53,0.3,0.85l0,0c-0.53,2.02-0.42,3.68-0.42,3.69l0.03,0.37l-0.37,0.03c-2.37,0.2-3.78,0.54-3.79,0.54
						l-0.34,0.08L73.06,52.23z M77.33,47.65c0-0.01,0.01-0.03-0.05-0.07c-0.41-0.34-2.14-0.44-4.17,0.51
						c-0.06,0.29-0.15,1.27,0.56,3.58c0.52-0.11,1.62-0.3,3.2-0.45C76.87,50.59,76.92,49.23,77.33,47.65z"/>
				</g>
				<g>
					<path class="st11" d="M91.09,52.93c-0.01,0-0.03,0.01-0.04,0.01l-0.01,0c0,0-0.01,0-0.01,0c-0.01,0,0,0,0,0
						c0-0.01,0.02,0,0.03,0c0.01,0,0.04,0.02,0.05,0.02c0.02,0.01,0.04,0.02,0.06,0.04c0.04,0.03,0.09,0.06,0.14,0.12
						c0.05,0.05,0.1,0.09,0.14,0.15l0.13,0.17l0.12,0.2c0.09,0.13,0.15,0.27,0.23,0.42c0.28,0.58,0.51,1.2,0.7,1.84
						c0.05,0.16,0.1,0.32,0.14,0.48l0.13,0.49l0.13,0.49l0.11,0.49c0.16,0.66,0.27,1.32,0.4,1.99c-0.05-0.67-0.09-1.35-0.17-2.03
						L93.3,57.3l-0.07-0.51l-0.07-0.51c-0.03-0.17-0.06-0.34-0.09-0.51c-0.12-0.68-0.28-1.35-0.51-2.01
						c-0.06-0.17-0.12-0.33-0.2-0.5c-0.04-0.08-0.08-0.17-0.12-0.25l-0.15-0.25c-0.04-0.08-0.11-0.16-0.17-0.24
						c-0.06-0.08-0.14-0.16-0.22-0.23c-0.04-0.04-0.08-0.07-0.14-0.11c-0.05-0.03-0.09-0.07-0.16-0.1c-0.07-0.03-0.12-0.06-0.2-0.08
						C91.15,52.01,91.12,52,91.07,52l-0.08,0c-0.02,0-0.02,0-0.04,0c-0.02,0-0.05,0.01-0.07,0.01L91.09,52.93z"/>
				</g>
			</g>
		</g>
		<g>
			<g>
				<path class="st13" d="M99.96,71.23c0,0,0-0.81-1.64-1.3c0,0-2.07-0.88-3.41,1.56c0,0-1.62,0.75-0.26,2.47
					c0,0-0.26,1.24,1.1,1.38c0,0-0.45,1.15,0.69,1.23c0,0,0.79-0.23,2.58-0.19c0,0,1.02,0.1,0.39-1.24c0,0,1.35-0.08,1.1-1.23
					c0,0,1.12-0.45,0.79-1.61C101.3,72.31,101.01,70.93,99.96,71.23z"/>
				<path class="st1" d="M96.42,76.86c-0.52-0.04-0.77-0.27-0.89-0.46c-0.17-0.27-0.17-0.59-0.13-0.83
					c-0.34-0.09-0.61-0.26-0.79-0.51c-0.27-0.37-0.27-0.8-0.25-1.02c-0.45-0.61-0.62-1.18-0.49-1.7c0.14-0.61,0.64-0.95,0.84-1.06
					c1.37-2.41,3.48-1.7,3.7-1.61c1.2,0.36,1.62,0.9,1.76,1.24c0.23-0.01,0.45,0.04,0.65,0.16c0.55,0.33,0.73,1.07,0.76,1.18
					c0.27,0.95-0.29,1.57-0.75,1.84c0.03,0.37-0.09,0.62-0.21,0.78c-0.22,0.29-0.55,0.43-0.8,0.5c0.14,0.42,0.13,0.75-0.04,0.99
					c-0.24,0.34-0.67,0.33-0.76,0.32c-1.71-0.04-2.48,0.18-2.49,0.18l-0.05,0.01L96.42,76.86z M99.03,76.1l0.02,0
					c0.03,0,0.19,0,0.25-0.08c0.06-0.09,0.05-0.33-0.15-0.76l-0.18-0.38l0.42-0.03c0.15-0.01,0.58-0.09,0.76-0.34
					c0.1-0.14,0.13-0.31,0.07-0.54l-0.05-0.23l0.22-0.09c0.09-0.04,0.87-0.39,0.62-1.26l-0.01-0.02c0-0.01-0.14-0.6-0.5-0.82
					c-0.14-0.08-0.3-0.1-0.49-0.05l-0.36,0.11l0-0.38c0-0.01-0.06-0.63-1.44-1.03l-0.03-0.01c-0.07-0.03-1.85-0.75-3.05,1.43
					l-0.05,0.08l-0.08,0.04c0,0-0.51,0.24-0.62,0.73c-0.09,0.37,0.07,0.81,0.46,1.31l0.08,0.1l-0.03,0.13c0,0-0.08,0.41,0.14,0.7
					c0.14,0.19,0.38,0.3,0.71,0.34l0.37,0.04l-0.13,0.35c-0.04,0.11-0.13,0.45,0,0.65c0.07,0.11,0.2,0.17,0.41,0.19
					c0.19-0.05,0.88-0.19,2.17-0.19C98.73,76.1,98.88,76.1,99.03,76.1z"/>
			</g>
			<g>
				<path class="st14" d="M95.11,71.6c0,0,0.37-1.14,1.9-1.17c0,0,1.57-0.23,1.98,1.21c0,0,1.02-0.26,1.37,0.76
					c0,0,0.36,1.42-1.15,1.44c0,0,0.96,0.71-0.89,0.9c0,0,1.04,1.02-0.16,1.06c0,0-0.66,0.05-1.69,0.29c0,0-0.88,0.21-0.17-1.02
					c0,0-1.63,0.36-1.37-1.29C94.93,73.77,93.56,72.4,95.11,71.6z"/>
			</g>
			<g>
				<path class="st6" d="M95.87,70.85c0.23-0.55-0.5,0.26-0.76,0.93c0,0-0.91,0.29-0.68,1.24c0,0,0.1,0.51,0.5,0.82
					c0,0-0.56-1.26,0.73-2.03C95.65,71.81,95.47,71.8,95.87,70.85z"/>
			</g>
			<g>
				<g>
					<path class="st13" d="M98.21,72.09c0.26-0.11,0.63-0.44,1.41,0.01c0,0,0.77,0.49-0.1,1.41c0,0-0.89,0.31-1.67-0.12
						C97.85,73.39,97.52,72.39,98.21,72.09z"/>
					<path class="st1" d="M97.71,73.64l-0.1-0.05l-0.04-0.11c-0.14-0.43-0.22-1.33,0.52-1.65h0c0.03-0.01,0.06-0.03,0.1-0.05
						c0.27-0.14,0.76-0.39,1.58,0.08c0.04,0.02,0.38,0.25,0.44,0.7c0.05,0.37-0.12,0.75-0.49,1.14l-0.05,0.05l-0.07,0.02
						c-0.02,0.01-0.37,0.13-0.82,0.13C98.46,73.9,98.08,73.84,97.71,73.64z M99.64,72.64c-0.02-0.19-0.17-0.29-0.17-0.29l0,0
						c-0.53-0.31-0.79-0.18-1.02-0.06c-0.05,0.02-0.09,0.05-0.13,0.06c-0.34,0.15-0.28,0.63-0.23,0.84
						c0.52,0.23,1.08,0.11,1.27,0.06C99.57,73.03,99.66,72.81,99.64,72.64z"/>
				</g>
				<g>
					<path class="st13" d="M97.05,74.61c0,0-0.59,0.58,0.11,0.75c0,0,0.82,0.13,0.75-0.16c0,0,0.26-0.46-0.36-0.81
						C97.56,74.39,97.33,74.19,97.05,74.61z"/>
					<path class="st1" d="M97.11,75.64l-0.02,0c-0.37-0.09-0.5-0.29-0.54-0.44c-0.1-0.34,0.18-0.67,0.28-0.77
						c0.15-0.22,0.33-0.34,0.52-0.36c0.15-0.02,0.28,0.03,0.37,0.09c0.6,0.36,0.58,0.85,0.49,1.1c-0.01,0.09-0.04,0.18-0.11,0.25
						c-0.13,0.13-0.34,0.17-0.57,0.17C97.38,75.68,97.24,75.66,97.11,75.64z M97.64,75.26l0-0.01
						C97.63,75.25,97.64,75.25,97.64,75.26z M97.66,75.07c0.03-0.07,0.08-0.24-0.25-0.43l-0.01,0c-0.02,0.01-0.07,0.05-0.13,0.14
						l-0.03,0.04c-0.06,0.06-0.13,0.17-0.15,0.23c0.01,0.01,0.05,0.03,0.12,0.04c0.15,0.02,0.33,0.03,0.43,0.02L97.66,75.07z"/>
				</g>
				<g>
					<path class="st13" d="M96.3,72.18c-0.22-0.08-0.55-0.35-1.13,0.11c0,0-0.57,0.5,0.22,1.28c0,0,0.75,0.22,1.33-0.23
						C96.72,73.33,96.88,72.4,96.3,72.18z"/>
					<path class="st1" d="M95.31,73.83l-0.07-0.02l-0.05-0.05c-0.34-0.34-0.51-0.68-0.5-1.03c0.01-0.4,0.27-0.64,0.31-0.67
						c0.64-0.51,1.09-0.3,1.33-0.19c0.03,0.01,0.05,0.03,0.08,0.03c0.63,0.24,0.67,1.04,0.6,1.47l-0.02,0.11l-0.09,0.07
						c-0.36,0.27-0.75,0.34-1.06,0.34C95.54,73.9,95.32,73.84,95.31,73.83z M96.2,72.44L96.2,72.44c-0.04-0.01-0.07-0.03-0.11-0.05
						c-0.2-0.09-0.37-0.17-0.72,0.1c0,0-0.11,0.1-0.11,0.26c0,0.16,0.09,0.35,0.28,0.54c0.16,0.03,0.56,0.08,0.92-0.13
						C96.46,72.97,96.46,72.54,96.2,72.44z"/>
				</g>
			</g>
			<g>
				<path class="st6" d="M95.29,74.15c0,0,0.78,0.5,1.23,0.05c0,0,0.01,0.64-0.83,0.67C95.69,74.88,95.08,74.4,95.29,74.15z"/>
			</g>
			<g>
				<path class="st6" d="M98.22,72.5c0.13-0.06,0.31-0.22,0.7,0c0,0,0.38,0.24-0.05,0.7c0,0-0.44,0.15-0.83-0.06
					C98.04,73.15,97.88,72.65,98.22,72.5z"/>
			</g>
			<g>
				<path class="st6" d="M97.15,74.71c0,0-0.29,0.29,0.06,0.37c0,0,0.41,0.07,0.38-0.08c0,0,0.13-0.23-0.18-0.4
					C97.4,74.6,97.29,74.51,97.15,74.71z"/>
			</g>
			<g>
				<path class="st6" d="M95.74,72.58c-0.11-0.04-0.27-0.18-0.56,0.05c0,0-0.28,0.25,0.11,0.63c0,0,0.37,0.11,0.66-0.11
					C95.95,73.16,96.03,72.69,95.74,72.58z"/>
			</g>
		</g>
	</g>
	<g class="st32">
		<path class="st33" d="M52.31,83.8c-0.6,0.26-1.21,0.51-1.83,0.75c-0.05,0.01-0.09,0.02-0.14,0.03c0,0-0.01,0.01-0.03,0.03
			c-0.05,0.02-0.09,0.03-0.14,0.05c0,0-0.02,0.03-0.04,0.09c-0.01,0-0.03,0.01-0.04,0.01c0,0-0.11,0.43-0.02,0.72
			c0.02,0.47,0.21,1,0.88,1.21c0,0,1.26,0.06,2.72-0.41l-0.18,0.41c0,0-0.64,2.11,1.09,2.48c0,0,0.02-0.11,0.08-0.28
			c0.02,0,0.04,0,0.05,0.01c-0.05,0.13-0.11,0.27-0.16,0.42c0,0-0.56,1.57,1.25,2.06c-0.02,0.08-0.03,0.17-0.03,0.26
			c0,0,0.22,1.19,1.52,1.65c0,0,0.28-0.07,0.65-0.21c-0.37,1.48,0.33,2.28,0.33,2.28l1.54,0.01c0.11-0.54,0.28-0.96,0.48-1.3
			c0.79-1.1,2.26-1.26,2.26-1.26c0.28-0.39,0.2-0.95,0.09-1.32l0-0.04c-0.02-0.09-0.05-0.16-0.09-0.23c0-0.01-0.01-0.02-0.01-0.02
			c0.48-0.07,2.14-0.3,3.17-0.57c0,0,0.03-0.06,0.06-0.16c1.09-0.17,2.06-0.42,2.86-0.67c-0.03,0.15-0.04,0.28-0.04,0.4
			c-1.06,0.69-2.08,1.63-2.45,2.81c0,0-0.21,0.49-0.01,1.09c-0.81,1.11-1.15,2.61-0.61,3.89l-0.07,3.9l-0.42,0.29
			c-1.52,0.32-2.47,0.84-2.83,1.56c-0.29,0.58-0.08,1.06-0.05,1.11l0.04,0.06c0.31,0.42,1.24,0.66,1.52,0.73
			c0.3,0.08,5.53,1.44,5.58,1.46l0.04,0.01l0.05,0c0,0,0.01,0,0.01,0c0.37,0,0.7-0.13,0.95-0.38c0.56-0.56,0.58-1.52,0.58-1.69
			c0.11-1.77,0.51-3.63,0.51-3.65l0-0.01l0.37-1.84l0.81-0.4c0.28-0.14,0.53-0.31,0.76-0.51c0.07-0.01,0.13-0.01,0.2-0.02
			c-0.05,0.53-0.04,1.97,1.56,2.72c0,0,0.05,0.02,0.14,0.05c-0.25,1.08-0.11,2.24,0.55,3.14l0.82,3.81l-0.35,0.38
			c-1.41,0.65-2.21,1.38-2.4,2.16c-0.15,0.63,0.17,1.05,0.2,1.09l0.05,0.05c0.4,0.34,1.36,0.36,1.64,0.36
			c0.31,0.01,5.71,0.14,5.76,0.14l0.05,0l0.04-0.01c0.01,0,0.01,0,0.02,0c0.36-0.08,0.65-0.29,0.84-0.59
			c0.42-0.67,0.22-1.61,0.18-1.78c-0.3-1.74-0.34-3.65-0.34-3.67v-0.01l-0.06-1.87l0.48-0.4c0.28,0.19,0.65,0.33,1.12,0.36
			c0,0,0.92,0.02,1.72-0.54c0.18,0.61,0.64,1.44,1.81,1.67c0,0,2.46,0.36,2.96-2.16c0,0,0.83-2.23-0.01-5.22
			c0.09,0,0.18-0.01,0.27-0.01c0,0,0.61-0.34,0.74-0.75c0,0,0.84-2.44,0.94-3c0.06-0.36,0-0.57-0.28-0.57
			c0.35-1.32,0.96-4.59,0.96-4.59s0.08-0.44,0.08-1.17c0.7-0.44,1.59-1.08,2.49-1.98c0.94,0.44,1.95,0.93,2.82,1.37
			c0,0.11,0.01,0.17,0.01,0.17c1.05,0.69,2.94,1.62,2.94,1.62c0.03-0.49,0.09-0.94,0.2-1.35c-0.12,0.89-0.07,1.98,0.35,3.23
			c0,0,2.09,0.25,2.69,1.03c0,0,0.95,0.38,1.46-0.27l0.18,0.28c0.04-0.02,0.05-0.04,0.06-0.05c0.02-0.02,0.03-0.03,0.04-0.04
			c0.03-0.03,0.05-0.06,0.08-0.09c0.05-0.06,0.09-0.13,0.12-0.2c0.01-0.01,0.01-0.02,0.01-0.04c0.57,0.06,1.57,0.09,1.56-0.4
			c0,0-0.28-1.2,0.51-2.34c0,0,0.17-0.78-0.2-1.15l0.18-0.33l-0.11-0.04l0.14-0.74c0,0,0.01-0.12-0.46-0.34l0.2-0.32l-0.16-0.06
			l0.08-0.74c0,0-1.43-0.98-2.69-1.53c0,0-0.55-0.25-1.31,0.05c0.2-0.14,0.32-0.21,0.32-0.21l-3.41-1.48
			c-0.04,0.03-0.08,0.06-0.13,0.09c-1.33-0.66-2.56-1.09-3.51-1.37c-0.01-0.61-0.05-1.3-0.15-2.09c0,0-0.11-0.92-0.29-2.39
			c0.42-0.05,1.06-0.1,1.95-0.08c0,0,1.02,0.1,0.39-1.24c0,0,1.35-0.08,1.1-1.23c0,0,1.12-0.45,0.79-1.61c0,0-0.29-1.38-1.34-1.08
			c0,0,0-0.15-0.13-0.37c0.09-0.1,0.17-0.21,0.26-0.32c0.33-0.45,0.61-0.96,0.75-1.54c0.14-0.58,0.13-1.21-0.04-1.78
			c-0.17-0.57-0.47-1.08-0.82-1.52c-0.18-0.22-0.37-0.42-0.57-0.61c-0.21-0.19-0.41-0.36-0.66-0.53l-0.04-0.03l-0.05-0.02
			c-0.67-0.22-1.39-0.34-2.13-0.26c-0.32,0.03-0.63,0.11-0.94,0.23c-0.45-3.51-0.84-6.52-0.99-7.41c0,0-0.19-2.59-1.29-3.62
			c1.71-1.45,3.47-3.42,4.38-5.87c0,0,1.35-3-1.04-4.83c0,0-3.16-2.17-5.59,1.29c0,0-0.22,0.23-0.55,0.67
			c-0.16-1.04-0.69-2.41-2.32-3.01c0,0-1.69-0.52-3.18,0.44c-0.01-0.15-0.02-0.31-0.04-0.46c0,0-0.16-3.32-3.08-3.79
			c0,0-3.75-0.4-4.33,3.85c0,0-0.63,2.18-0.3,5.38c-0.01,0-0.02-0.01-0.03-0.01c-0.43-2.18-1.21-4.6-2.61-6.57
			c0,0-1.72-2.76-4.03-1.61c0,0-2.87,1.65-1.23,5.6c0,0,0.09,0.31,0.28,0.83c-0.84-0.4-2.08-0.66-3.17,0.47c0,0-1.05,1.22-0.92,3.04
			c-0.12-0.07-0.24-0.14-0.36-0.2c0,0-2.55-1.6-4.05,0.73c0,0-1.77,3.1,1.19,5.84c0,0,1.14,1.39,3.22,2.68
			c-0.12,0.37-0.22,0.78-0.28,1.23c0,0,0.06,6.31,0.73,13.87c-0.51,0.17-1.06,0.57-1.54,1.4c0,0-1.53,0.62-0.37,2.44
			c0,0-0.31,1.22,0.94,1.46c0,0-0.47,1.11,0.57,1.28c0,0,0.35-0.08,1.12-0.07c0.21,1.58,0.45,3.15,0.73,4.68
			c-0.83,0.14-1.68,0.28-2.46,0.41c-0.03-0.04-0.06-0.08-0.09-0.12l-3.71,0.3c0,0,2.25,2.55,1.28,6.26
			c-0.03-0.02-0.06-0.04-0.09-0.06c-0.11-0.08-0.25-0.15-0.4-0.2c0.16-0.23,0.28-0.47,0.31-0.74l-0.05-1.16l-0.79-1.3
			c0,0,0.1-2.21-1.47-3.29l0.23-0.25c-0.04-0.03-0.71-0.62-1.87-0.65c1.15-0.98,2.82-2.74,1.15-3.51c-0.02-0.02-0.04-0.03-0.04-0.03
			s0,0-0.01,0.01c-0.07-0.03-0.16-0.06-0.24-0.09c0,0-0.97,0.78-2.6,1.78c-1.35-2.67-10.85-21.69-10.57-27.48
			c0.05-1.12-0.49,0.24-0.51-0.13c0,0-4.28,2.74-4.13,9.4C41.37,63.38,43.16,70.67,52.31,83.8z M86.69,98.2
			c0.06,0.01,0.13,0.01,0.19,0.02c-0.05,0.08-0.09,0.16-0.14,0.25C86.72,98.38,86.71,98.29,86.69,98.2z M56.12,90.65
			c0.01,0.02,0.01,0.05,0.02,0.08c-0.11,0.14-0.21,0.29-0.27,0.47C55.86,91.06,55.9,90.85,56.12,90.65z"/>
	</g>
</g>
</svg>
