<?xml version="1.0" encoding="utf-8"?>
<!-- Generator: Adobe Illustrator 28.5.0, SVG Export Plug-In . SVG Version: 9.03 Build 54727)  -->
<svg version="1.0" id="Layer_1" xmlns="http://www.w3.org/2000/svg" xmlns:xlink="http://www.w3.org/1999/xlink" x="0px" y="0px"
	 viewBox="0 0 500 500" style="enable-background:new 0 0 500 500;" xml:space="preserve">
<style type="text/css">
	.st0{fill:#FFFDF0;}
	.st1{fill:#A3A091;}
	.st2{fill:#673956;}
	.st3{fill:#D6D5D4;}
	.st4{fill:#95404B;}
	.st5{fill:#C6705C;}
	.st6{fill:#FFA41F;}
	.st7{fill:#70220D;}
	.st8{fill:#EAA498;}
	.st9{fill:#9483AB;}
	.st10{fill:#FFFFFF;}
	.st11{fill:#CCC7CA;}
	.st12{fill:#FFCAA6;}
	.st13{fill:#C74C44;}
	.st14{fill:#846F74;}
	.st15{fill:#3A1D30;}
	.st16{fill:#AFA19C;}
	.st17{fill:#F3E0D9;}
</style>
<g>
	<g>
		<g>
			<path class="st0" d="M386.01,287.69c0,0-17.98,74.63-65.66,127.93l5.07,0.79c0,0,52.72-61.78,63.58-133.73L386.01,287.69z"/>
		</g>
		<g>
			<g>
				<path class="st1" d="M219.13,363.81c0,0-34.88-1.2-70.87-20.1c0,0,23.68-24.03,17.42-49.87c0,0,26.75,10.25,49.17,17.87
					c7.97,2.71,28.57-10.45,44.28-15.09c18.25-5.39,42.24,22.04,19.75,42.11C275.76,341.5,248.7,363.33,219.13,363.81z"/>
				<path class="st2" d="M146.64,346.79l-4.14-2.18l3.28-3.34c0.22-0.23,22.24-23,16.52-46.61l-1.56-6.44l6.18,2.37
					c0.27,0.1,26.94,10.31,49.05,17.83c3.6,1.23,14.11-3.48,22.54-7.27c6.59-2.96,13.4-6.02,19.64-7.87
					c10.72-3.16,23.57,3,29.88,14.35c6.43,11.54,3.87,24.14-6.84,33.69c-0.28,0.25-29.41,25.44-62,25.96l-0.18,0
					c-0.2-0.01-1.02-0.04-2.38-0.14C208.05,366.52,177.96,363.24,146.64,346.79z M276.56,336.13c11.68-10.42,7.66-21.04,5.39-25.12
					c-4.69-8.43-14.28-13.29-21.84-11.06c-5.78,1.71-12.38,4.67-18.76,7.54c-11.49,5.16-21.41,9.62-27.63,7.51
					c-16.09-5.47-34.58-12.36-43.66-15.78c1.64,19.26-10.33,36.3-16.22,43.42c32.59,15.98,63.54,17.6,65.33,17.69
					C249.2,359.79,276.29,336.37,276.56,336.13z"/>
			</g>
			<g>
				<path class="st3" d="M264.83,301.19c0,0,17.71,2.92-2.78,28.89c0,0-20.98,14.05-42.23,14.78c0,0-23.55,0.66-46.56-12.04
					c0,0,5.9-21.73-1.88-32.71c0,0,43.06,16.31,46.97,15.88c0,0,19.25-5.88,34.05-12.82C252.4,303.17,260.19,298.78,264.83,301.19z"
					/>
			</g>
			<g>
				<g>
					<path class="st4" d="M179.63,358.89c0,0,24.77-19.2,20.31-53.03l-38.74-18.32c0,0,6.09,31.44-20.05,56.47
						C141.14,344.01,168.57,355.71,179.63,358.89z"/>
					<path class="st2" d="M178.67,362.23c-11.14-3.2-37.77-14.54-38.9-15.02l-4.85-2.07l3.81-3.64
						c24.38-23.35,19.27-52.1,19.04-53.3l-1.3-6.74l46.66,22.06l0.25,1.88c4.67,35.4-20.55,55.4-21.62,56.24l-1.4,1.08
						L178.67,362.23z M165.26,293.31c0.43,10.25-1.21,30.94-18.07,49.48c7.72,3.22,23.09,9.52,31.63,12.22
						c4.8-4.32,20.52-20.63,17.88-46.84L165.26,293.31z"/>
				</g>
				<g>
					<path class="st5" d="M196.24,308.82c0,0,3.19,45.28-41.79,29.72c0,0,14.52-15.29,10.85-43.8L196.24,308.82z"/>
				</g>
				<g>
					<g>
						<path class="st2" d="M179.71,316.98c-1.86,0.43-3.52,1.16-5.13,1.95c-1.6,0.81-3.12,1.74-4.57,2.76
							c-1.45,1.02-2.83,2.14-4.13,3.37c-1.29,1.24-2.53,2.56-3.56,4.19c1.87-0.43,3.53-1.16,5.14-1.95c1.6-0.81,3.11-1.74,4.56-2.76
							c1.45-1.03,2.83-2.14,4.13-3.37C177.44,319.92,178.68,318.6,179.71,316.98z"/>
					</g>
					<g>
						<path class="st2" d="M172.81,334.88c0.41-1.88,0.45-3.7,0.41-5.5c-0.06-1.8-0.25-3.57-0.56-5.32c-0.31-1.75-0.74-3.49-1.3-5.2
							c-0.58-1.7-1.25-3.39-2.28-5.02c-0.41,1.88-0.46,3.7-0.42,5.5c0.06,1.8,0.25,3.57,0.57,5.32c0.31,1.75,0.74,3.48,1.3,5.19
							C171.12,331.56,171.79,333.25,172.81,334.88z"/>
					</g>
				</g>
				<g>
					<g>
						<path class="st2" d="M192.6,322.78c-1.87,0.43-3.52,1.16-5.13,1.95c-1.6,0.81-3.11,1.74-4.57,2.76
							c-1.45,1.02-2.83,2.14-4.13,3.37c-1.29,1.24-2.53,2.57-3.56,4.18c1.87-0.43,3.53-1.15,5.13-1.95c1.6-0.81,3.11-1.74,4.56-2.76
							c1.44-1.03,2.83-2.15,4.13-3.37C190.33,325.71,191.57,324.39,192.6,322.78z"/>
					</g>
					<g>
						<path class="st2" d="M185.7,340.68c0.4-1.88,0.45-3.7,0.41-5.5c-0.06-1.8-0.25-3.58-0.56-5.32c-0.31-1.75-0.73-3.48-1.3-5.19
							c-0.58-1.71-1.25-3.39-2.28-5.02c-0.41,1.88-0.45,3.7-0.41,5.5c0.06,1.8,0.25,3.57,0.57,5.32c0.31,1.75,0.74,3.49,1.3,5.19
							C184.01,337.36,184.67,339.05,185.7,340.68z"/>
					</g>
				</g>
			</g>
			<g>
				<g>
					<path class="st6" d="M161.46,348.02c0,0-26.62,27.42-27.19,54.64c0,0,1.67,7.86,10.24,8.94c0,0-8.3-18.74,22.79-58.31
						L161.46,348.02z"/>
					<path class="st7" d="M144.19,414.18c-10.3-1.3-12.38-10.59-12.47-10.98l-0.06-0.6c0.59-27.93,26.81-55.25,27.93-56.4l1.75-1.81
						l9.52,8.59l-1.51,1.92c-29.43,37.46-22.51,55.49-22.45,55.64l1.87,4.22L144.19,414.18z M161.64,351.69
						c-5.74,6.48-24.1,28.84-24.75,50.67c0.26,0.87,1.28,3.69,4.16,5.39c-0.79-8.01,1.03-25.88,22.7-54.15L161.64,351.69z"/>
				</g>
				<g>
					<path class="st6" d="M160.95,346.83c0,0-7.86,33.59,1.59,56.38c0,0,3.95,5.83,10.07,3.22c0,0-12.31-12.13-5.85-57.61
						L160.95,346.83z"/>
					<path class="st7" d="M160.38,404.68l-0.25-0.47c-9.66-23.3-2.05-56.57-1.72-57.98l0.66-2.81l10.57,3.62l-0.3,2.14
						c-6.12,43.09,5.02,55.3,5.1,55.39l2.77,2.73l-3.58,1.53c-1.72,0.74-3.35,0.96-4.84,0.86
						C164.74,409.4,161.69,406.6,160.38,404.68z M162.91,350.26c-1.58,8.4-5.38,33.7,1.92,51.67c0.41,0.53,1.56,1.83,3.24,2.34
						c-3.42-6.56-8.37-22.11-4.2-53.68L162.91,350.26z"/>
				</g>
				<g>
					<path class="st6" d="M156.18,348.58c-1.48,3.68,0.31,7.87,3.99,9.34c3.68,1.48,7.87-0.31,9.34-4c1.48-3.68-0.31-7.87-3.99-9.34
						C161.84,343.11,157.66,344.9,156.18,348.58z"/>
					<path class="st7" d="M159.2,360.35c-5.01-2.01-7.45-7.72-5.44-12.73c0.97-2.43,2.83-4.33,5.24-5.36
						c2.4-1.03,5.06-1.06,7.5-0.08c5.01,2.01,7.45,7.72,5.44,12.73c-0.97,2.43-2.83,4.33-5.24,5.36c-1.46,0.62-3.01,0.88-4.55,0.77
						C161.15,360.96,160.16,360.73,159.2,360.35z M161.05,347.05c-1.12,0.48-1.99,1.37-2.44,2.5l0,0c-0.46,1.13-0.44,2.38,0.04,3.5
						c0.48,1.12,1.37,1.99,2.5,2.45c1.14,0.45,2.38,0.44,3.5-0.04c1.12-0.48,1.99-1.37,2.45-2.5c0.94-2.34-0.2-5.01-2.54-5.95
						c-0.45-0.18-0.91-0.29-1.38-0.32C162.46,346.64,161.73,346.76,161.05,347.05z"/>
				</g>
			</g>
		</g>
		<g>
			<g>
				<g>
					<path class="st8" d="M122.61,270.29c14.54-0.94,21.19,6.1,21.19,6.1l20.12,5.12c17.97,20.72-2.49,43.33-2.49,43.33l-2.05,13.77
						l-6.45,8.52c-12.2,11.35-44.19-4.01-44.19-4.01c-11.14-12.84-1.92-29.24-1.92-29.24c-9.16-9.61,2.1-17.2,2.1-17.2
						c-11.97-8.19,3.62-20.45,3.62-20.45L122.61,270.29z"/>
				</g>
				<g>
					<path class="st2" d="M110.38,273.51c-1,0.78-9.74,7.89-9.47,16.15c0.06,1.94,0.66,4.51,2.8,7.04c-1.72,1.91-3.52,4.7-3.9,8.2
						c-0.36,3.29,0.61,6.49,2.89,9.52c-2.32,5.36-6.75,19.29,3.41,31l0.47,0.54l0.65,0.31c3.49,1.68,34.52,16.02,48.06,3.42
						l0.4-0.44l6.99-9.23l2.02-13.64c7.7-9.07,17.17-29.45,1.83-47.13l-0.71-0.82l-20.33-5.18c-2.38-2.03-9.89-7.26-23.11-6.42
						l-0.83,0.05L110.38,273.51z M114.52,279.11l9.13-5.39c11.97-0.52,17.42,4.86,17.65,5.09l0.68,0.69l0.96,0.27l19.03,4.85
						c14.57,17.95-2.39,37.09-3.13,37.9l-0.71,0.78l-2.06,13.93l-5.72,7.55c-8.51,7.45-30.68-0.41-39.44-4.48
						c-8.72-10.79-1.14-24.58-1.06-24.72l1.26-2.24l-1.78-1.86c-1.95-2.05-2.8-3.96-2.6-5.84c0.37-3.4,4.09-6.05,4.12-6.08
						l4.24-2.86l-4.22-2.89c-2.92-2-2.98-3.8-3-4.38C107.74,285.49,112.57,280.69,114.52,279.11z"/>
				</g>
			</g>
			<g>
				<g>
					<g>
						<g>
							<path class="st2" d="M146.67,319.63c-0.83-0.51-1.68-1.07-2.47-1.73c0.94-0.49,1.92-0.92,3.02-1.29L146.67,319.63z"/>
						</g>
						<g>
							<path class="st2" d="M148.43,302.87c-0.31,0.34-0.76,1.02-1.09,1.58c-0.35,0.59-0.69,1.21-0.95,1.83
								c-0.55,1.25-0.92,2.53-1.03,3.8c-0.12,1.26,0.11,2.47,0.62,3.62c0.46,1.19,1.46,2.17,2.51,3.14l2.77,2.59l-3.32,0.44
								c-1.26,0.16-2.71,0.56-4.02,1.04c-1.32,0.49-2.61,1.12-3.79,1.9c-1.17,0.81-2.21,1.8-3.07,2.96
								c-0.87,1.17-1.38,2.57-1.75,4.03c0.09-1.49,0.34-3.03,1.03-4.45c0.67-1.4,1.61-2.7,2.73-3.83c1.13-1.1,2.41-2.06,3.77-2.88
								c0.45-0.27,0.91-0.51,1.37-0.75c0.79,0.66,1.64,1.23,2.47,1.73l0.55-3.02c-1.1,0.37-2.08,0.8-3.02,1.29
								c-0.68-0.57-1.32-1.21-1.84-2c-1.17-1.62-1.94-3.63-2.14-5.62c-0.22-1.99-0.02-3.96,0.4-5.81c0.2-0.94,0.48-1.83,0.81-2.72
								c0.34-0.92,0.64-1.69,1.21-2.72L148.43,302.87z"/>
						</g>
					</g>
				</g>
			</g>
			<g>
				<g>
					<path class="st4" d="M184.4,155.2c0,0-14.78,34.14-27.2,106.82c0,0-3.91,28.02-11.38,42.3c0,0-7.92,17.14-18.15,83.14
						c0,0-21.11,13.37-34.74-9.35c0,0,13.43-33.65,24.95-81.31c0,0,8.71-47.46,19.18-69.86c0,0,39.92-135.72,49.77-192.1
						c0,0,21.92-9.03,21.97,6.37c0,0-0.61,20.95-16.9,79.95C191.88,121.15,191.7,136.35,184.4,155.2z"/>
					<path class="st2" d="M90.68,379.45l-0.67-1.11l0.48-1.2c0.13-0.33,13.5-34.02,24.8-80.81c0.36-1.95,8.84-47.8,19.3-70.31
						c1.7-5.79,40.1-136.99,49.64-191.63l0.25-1.41l1.33-0.55c1.41-0.58,13.98-5.54,21.07-0.8c2.08,1.37,4.48,4.13,4.49,9.66
						c-0.02,0.87-0.8,21.86-16.91,80.26c-0.07,2.47-0.79,16.89-7.66,34.61l-0.04,0.09c-0.15,0.34-14.79,34.68-27.01,106.14
						c-0.16,1.16-4.06,28.63-11.59,43.02c-0.08,0.17-7.94,17.92-17.94,82.45l-0.18,1.17l-1,0.63c-0.41,0.26-10.07,6.27-21.07,3.66
						c-2.91-0.69-5.61-1.9-8.11-3.64C96.4,387.26,93.32,383.85,90.68,379.45z M143.5,303.11c7.17-13.71,11.07-41.17,11.12-41.53
						c12.11-70.83,26.68-105.78,27.36-107.36c7.01-18.12,7.29-32.95,7.3-33.1l0.09-0.66c15.97-57.82,16.8-79.13,16.81-79.25
						c-0.01-2.56-0.73-4.28-2.17-5.25c-3.56-2.38-11.12-0.51-14.88,0.79c-10.19,56.74-49.18,189.57-49.57,190.92l-0.14,0.37
						c-10.21,21.84-18.89,68.76-19.01,69.37c-10.2,42.24-22.06,73.9-24.58,80.43c3.66,5.65,8.13,9.15,13.33,10.39
						c7.04,1.69,13.69-1.18,16.13-2.44C135.36,321.22,143.12,303.93,143.5,303.11z"/>
				</g>
				<g>
					<path class="st5" d="M189.06,35.44l-4.42,25c0,0,10.37,3.44,15.58-15.58C200.22,44.85,203.38,32.45,189.06,35.44z"/>
				</g>
				<g>
					<path class="st9" d="M207.52,57.11c0,0-14.95-16.83-34.93,2.22c0,0-25.76-1.17-118.24-52.6c0,0-11.15-9.56-25.56,17.38
						c0,0-19.36,29.22-13.95,73.14c0,0,2.95,12.8,35.68,11.09c0,0,64.17,2.09,111.63,14.38c0,0,12.73-9.79,27.85,5.43
						c0,0,19.02,2.6,20.11-20.3c0,0,13.9,1.12,50.9,15.8c0,0,4.77-5.83,9.81-27.52c0,0,4.9-9.27-24.61-6.99c0,0-33.84-7.57-30-13.84
						C216.21,75.3,217.67,61.83,207.52,57.11z"/>
					<path class="st2" d="M11.44,98.04l-0.06-0.36c-5.37-43.57,12.73-72.76,14.4-75.34C32.36,10.1,39.36,3.2,46.59,1.84
						c5.09-0.95,8.49,1.14,9.66,1.97C134.99,47.58,165.1,54.6,171.42,55.67c6.93-6.19,14.11-9.18,21.37-8.88
						c8.93,0.37,15.03,5.7,16.8,7.46c11.6,5.91,10.14,20.78,10.07,21.42l-0.05,0.47c2.56,2.45,14.49,6.68,26.85,9.49
						c15.3-1.13,23.89,0.56,26.99,5.29c1.49,2.27,1.33,4.71,0.68,6.32c-5.05,21.59-9.89,27.95-10.43,28.61l-1.61,1.97l-2.36-0.94
						c-25.98-10.31-40.46-13.85-46.5-15.02c-0.95,6.58-3.53,11.66-7.7,15.12c-6.94,5.77-15.63,4.66-15.99,4.61l-1.17-0.16
						l-0.83-0.84c-12.65-12.73-22.86-5.42-23.26-5.12l-1.35,1.04l-1.64-0.43c-45.46-11.78-107.31-14.15-110.73-14.27
						c-18.02,0.92-27.78-2.44-33.05-6.09C12.68,102.39,11.62,98.8,11.44,98.04z M191.5,124.76c1.92,0.02,6.16-0.29,9.57-3.12
						c3.38-2.81,5.25-7.51,5.56-13.95l0.17-3.59l3.58,0.29c0.57,0.05,14.14,1.26,49.16,14.95c1.65-3.19,4.7-10.31,7.89-23.99
						l0.1-0.44l0.09-0.17c-0.32-0.4-3.49-3.49-21.15-2.12l-0.52,0.04l-0.51-0.11c-10.98-2.46-29.82-7.56-32.57-14.05
						c-0.57-1.36-0.6-2.78-0.09-4.09c0.11-2.24,0.07-10.98-6.73-14.13l-0.66-0.3l-0.48-0.54c-0.05-0.05-4.97-5.37-12.42-5.68
						c-5.73-0.24-11.62,2.49-17.52,8.1l-1.07,1.02l-1.48-0.07c-1.09-0.05-27.64-1.79-119.77-53.03l-0.24-0.12l-0.27-0.23
						c-0.08-0.06-1.71-1.29-4.46-0.7c-2.84,0.61-8.66,3.63-15.83,17.03l-0.16,0.28c-0.19,0.28-18.47,28.63-13.44,70.45
						c0.52,1.18,5.26,9.8,32.09,8.39l0.3,0c0.64,0.02,63.82,2.2,110.96,14.13C165.8,116.67,177.98,111.93,191.5,124.76z"/>
				</g>
				<g>
					<path class="st10" d="M130.15,53.06c0,0-32.37-15.56-80.54-42.16c0,0-34,1.55-29.65,85.24c0,0,5.28,8.2,21.04,6.51
						c0,0,18.08-6.46,79.5,5.06C120.49,107.7,104.01,82.66,130.15,53.06z"/>
				</g>
				<g>
					<path class="st11" d="M198.42,64.14c0,0-9.19,13.59-11.83,43.98c0,0-9.13-4.13-20.37,4.53c0,0-4.7-2.28,7.35-48.05
						C173.58,64.6,178.39,52.37,198.42,64.14z"/>
				</g>
				<g>
					<path class="st11" d="M265.74,97.11c0,0-3.79-6.82-10.61,12.59c0,0-26.64-12.83-46.93-12.62l-1.19,4.4
						c0,0,11.57,3.8,48.17,16.98C255.17,118.46,260.53,122.41,265.74,97.11z"/>
				</g>
				<g>
					<path class="st10" d="M204.64,58.84c0,0-13.69-12.9-30.44,3.42c0,0,25.85-4.19,20.71,5.94c-3.7,7.3-9.79,23.07-10.58,39.31
						c0,0,6.12,1.41,9.85,5.15c0,0,6.76-23.54,13.94-37.87C208.13,74.79,213.98,66.62,204.64,58.84z"/>
				</g>
				<g>
					<path class="st11" d="M154.68,107.04c0,0-15.18-9.92-86.19-8.43c0,0-7.3-14.11-0.63-41.87c0,0-9.57,2.75-11.09,41.21
						c0,0-8.53-1.12-25.72,3.09c0,0-0.28,0.6,9.95,1.6c0,0,58.92-2.03,118.54,14.15C159.53,116.79,164,111.15,154.68,107.04z"/>
				</g>
				<g>
					<path class="st5" d="M172.32,124.15c0,0,7.51,3.42,7.07,10.72c0,0-22.85,73.34-34.23,127.26c0,0-4.24,28.03-16.04,59.62
						c0,0-10.28,37.5-12.39,60.46c0,0-4.29,6.62-17.07-2.29c0,0,22.09-66.64,29.52-113.28c0,0,7.23-27.73,14.58-45.22
						C143.75,221.41,165.22,140.22,172.32,124.15z"/>
				</g>
			</g>
			<g>
				<g>
					<g>
						<path class="st8" d="M116.03,269.24c13.17-5.08,27.06,9.87,27.06,9.87c-17.58-5.35-14.61,17.53-14.61,17.53
							c-11-11.85-24.46-0.82-24.46-0.82c-10.06-12.78,6.81-23.91,6.81-23.91L116.03,269.24z"/>
					</g>
					<g>
						<path class="st2" d="M108.91,269c-0.4,0.27-9.87,6.6-11.37,15.88c-0.74,4.58,0.52,8.98,3.75,13.08l2.19,2.78l2.74-2.24
							c1.15-0.93,11.26-8.62,19.71,0.49l7.4,7.97l-1.4-10.79c-0.32-2.56-0.49-10.5,2.85-13.32c1.54-1.3,4-1.45,7.3-0.44l12.35,3.76
							l-8.79-9.45c-0.63-0.68-15.66-16.6-30.86-10.75l-0.34,0.15L108.91,269z M112.61,274.9l4.83-2.48
							c5.56-2.05,11.5,0.39,15.96,3.25c-1.13,0.45-2.17,1.09-3.12,1.89c-3.6,3.04-4.91,7.91-5.32,12.05
							c-7.25-3.66-14.84-1.57-19.89,1.3c-0.71-1.61-0.93-3.23-0.66-4.89C105.33,280.24,111.61,275.61,112.61,274.9z"/>
					</g>
				</g>
				<g>
					<g>
						<path class="st8" d="M127.28,295.18c8.9,6.62,7.67,22.73,7.67,22.73c-3.22,8.66-17.41,1.11-17.41,1.11
							c-14.86-8.52-17.27,0.29-17.27,0.29c-10.86-14.52,2.75-22.6,2.75-22.6C120.06,285.88,127.28,295.18,127.28,295.18z"/>
					</g>
					<g>
						<path class="st2" d="M101.18,293.76c-0.75,0.46-6.85,4.41-8.29,11.65c-1.03,5.16,0.52,10.54,4.59,15.99l4.27,5.71l1.87-6.88
							l0,0l0,0l0,0c0.01,0,0.33-0.8,1.39-1.19c1.02-0.37,4.11-0.84,10.79,3c1.11,0.59,10.24,5.28,16.86,2.77
							c2.61-0.99,4.53-2.96,5.54-5.68l0.17-0.46l0.04-0.48c0.06-0.73,1.23-17.77-8.77-25.55
							C127.74,290.57,118.7,282.63,101.18,293.76z M104.8,299.7l0.09-0.06c13.88-8.83,19.45-2.55,19.68-2.28l0.25,0.31l0.37,0.3
							c5.75,4.27,6.51,14.77,6.31,19.13c-0.38,0.75-0.87,1.02-1.31,1.19c-2.89,1.1-8.71-1.06-11.04-2.35
							c-0.66-0.38-1.3-0.73-1.94-1.05c-6.03-3.09-11.09-3.85-14.98-2.24c-0.55,0.22-1.05,0.49-1.5,0.77
							c-1.09-2.37-1.44-4.6-1.03-6.66C100.61,302.3,104.76,299.73,104.8,299.7z"/>
					</g>
					<g>
						<polygon class="st2" points="103.63,320.23 103.63,320.23 103.63,320.23 						"/>
					</g>
				</g>
				<g>
					<g>
						<path class="st8" d="M113.5,315.78c25.08,12.43,14.13,26.86,14.13,26.86c-7.36,8.35-28.55-1.81-28.55-1.81
							c-6.48-10.81-1.06-20.55-1.06-20.55C103.31,314.07,113.5,315.78,113.5,315.78z"/>
					</g>
					<g>
						<path class="st2" d="M94.97,318.58c-0.26,0.47-6.31,11.65,1.12,24.03l0.54,0.89l0.94,0.46c2.41,1.16,23.82,11.01,32.67,0.97
							l0.16-0.2c0.18-0.24,4.46-5.99,2.64-13.73c-1.66-7.09-7.74-13.26-17.99-18.35l-0.46-0.23l-0.51-0.09
							c-0.49-0.08-12.21-1.94-18.7,5.66L94.97,318.58z M100.91,322.25c3.45-3.66,9.79-3.28,11.56-3.1c0.06,0.03,0.12,0.06,0.18,0.09
							c7.74,3.96,12.43,8.53,13.59,13.25c1.02,4.15-0.92,7.34-1.33,7.96c-4.14,4.38-16.87,0.57-23.35-2.32
							C97.47,330.48,100.22,323.71,100.91,322.25z"/>
					</g>
				</g>
				<g>
					<g>
						<g>
							<path class="st12" d="M109.64,317.29c9.23,2.41,13.59,10.02,13.59,10.02c-0.14,13.18-13.7,2.13-13.7,2.13
								c-1.69,5.55-8.1,5.74-8.1,5.74c-5.55-2.92-3.67-13.2-3.67-13.2C99.79,314.57,109.64,317.29,109.64,317.29z"/>
						</g>
					</g>
					<g>
						<g>
							<g>
								<g>
									<path class="st2" d="M114.47,321.73c-0.68,1.38-1.32,2.78-1.91,4.21c-0.57,1.43-1.07,2.87-1.44,4.36
										c-0.35,1.48-0.61,3.02-0.17,4.56c-0.98-1.29-1.36-3.02-1.57-4.64c-0.2-1.64-0.25-3.3-0.23-4.96
										c0.03-1.64,0.14-3.29,0.29-4.93c0.16-1.65,0.35-3.24,0.64-4.97l6.55,2.36C115.89,318.96,115.15,320.37,114.47,321.73z"/>
								</g>
							</g>
						</g>
					</g>
				</g>
				<g>
					<g>
						<g>
							<path class="st12" d="M113.35,295.37c11.05-1.59,14.88,7.97,14.88,7.97c1.75,13.07-13,2.35-13,2.35
								c-0.89,5.74-12.36,6.09-12.36,6.09c-5.91-2.09-3.08-5.15-3.08-5.15C100.73,298.99,113.35,295.37,113.35,295.37z"/>
						</g>
					</g>
					<g>
						<g>
							<g>
								<g>
									<path class="st2" d="M118.76,299.06c-0.48,1.46-0.91,2.94-1.29,4.44c-0.36,1.5-0.65,3-0.81,4.52
										c-0.13,1.52-0.17,3.08,0.49,4.54c-1.16-1.13-1.78-2.8-2.22-4.36c-0.44-1.6-0.73-3.23-0.94-4.87
										c-0.2-1.63-0.33-3.28-0.42-4.92c-0.07-1.66-0.11-3.26-0.07-5.01l6.81,1.4C119.77,296.12,119.24,297.62,118.76,299.06z"/>
								</g>
							</g>
						</g>
					</g>
				</g>
				<g>
					<g>
						<g>
							<path class="st12" d="M118.59,271.52c9.48,1.06,13.66,4.29,13.66,4.29c1.75,13.06-13.76,7.51-13.76,7.51
								c-0.88,5.74-12.35,6.09-12.35,6.09c-3.11-3.52-1.11-6.62-1.11-6.62C105.97,275.14,118.59,271.52,118.59,271.52z"/>
						</g>
					</g>
					<g>
						<g>
							<g>
								<g>
									<path class="st2" d="M122.28,274.97c-0.48,1.47-0.91,2.94-1.29,4.44c-0.36,1.49-0.65,3-0.81,4.52
										c-0.13,1.52-0.17,3.07,0.49,4.54c-1.15-1.14-1.78-2.79-2.22-4.36c-0.43-1.6-0.72-3.23-0.94-4.87
										c-0.2-1.63-0.33-3.28-0.42-4.93c-0.07-1.66-0.11-3.26-0.07-5.01l6.81,1.4C123.29,272.03,122.76,273.52,122.28,274.97z"/>
								</g>
							</g>
						</g>
					</g>
				</g>
				<g>
					<g>
						<g>
							<path class="st8" d="M142.91,272.28l6.98,0.86c18.03,6.1,20.05,19.91,20.05,19.91l-21.05,3.38
								c-13.07,17.81-20.9,9.71-20.9,9.71c-5.28-4.45-0.4-13.49-0.4-13.49C132.63,266.63,142.91,272.28,142.91,272.28z"/>
						</g>
						<g>
							<path class="st2" d="M143.82,268.89l6.49,0.8l0.69,0.16c19.81,6.71,22.28,22.05,22.38,22.69l-6.88,1.04
								c-0.08-0.48-2.07-11.69-17.4-17.03l-7.29-0.9l-0.58-0.32c-0.01,0-0.88-0.32-2.04,0.23c-1.57,0.74-5.51,3.94-8.19,17.75
								l-0.1,0.52l-0.25,0.47c-0.03,0.06-3.35,6.71-0.41,9.18l0.19,0.17c0.04,0.04,1.15,1.02,3.18,0.82
								c2.04-0.21,6.39-1.79,12.48-10.1l5.61,4.11c-6.01,8.19-12,12.55-17.81,12.94c-2.58,0.18-4.61-0.47-6.03-1.2
								c-1.12-0.57-1.86-1.19-2.19-1.51c-5.55-4.78-3.6-12.84-1.4-17.23c2.43-12.17,6.45-19.64,11.97-22.23
								C139.61,267.68,142.49,268.38,143.82,268.89z"/>
						</g>
					</g>
					<g>
						<g>
							<path class="st12" d="M146.38,287.97c-7.92,20.38-16.11,9.8-16.11,9.8c-0.79-9.88,6.85-21.57,6.85-21.57
								C150.98,280.63,146.38,287.97,146.38,287.97z"/>
						</g>
					</g>
				</g>
			</g>
		</g>
		<g>
			<g>
				<g>
					<path class="st1" d="M243.34,300.78c-4.13,7.69-18.87,47.18-21.22,80.3c-1.2,16.87,61.43,27.67,61.43,27.67l5.18,0.64
						c84.47,16.08,137.86-6.13,137.86-6.13s-1.52,2.54,0,0c1.52-2.54-0.84-48.23-0.84-48.23s-2.72-41.78-40.81-72.16
						c0,0-75.87,25.13-112.11-12.89c0,0-18.62,6.93-21.55,15.31C251.28,285.29,256.42,276.44,243.34,300.78z"/>
					<path class="st2" d="M288.19,412.84l-5.23-0.65c-10.98-1.89-65.66-12.3-64.31-31.35c2.38-33.39,17.23-73.52,21.63-81.7l0,0
						c4.71-8.77,6.9-12.93,7.91-14.91l-0.19-0.09c3.37-9.64,21.56-16.65,23.62-17.42l2.15-0.8l1.58,1.66
						c34.29,35.97,107.76,12.23,108.5,11.99l1.79-0.59l1.47,1.17c38.85,30.98,42,72.89,42.12,74.7c1.26,24.33,1.47,36.65,1.29,43.01
						l4.45-1.84l-5.36,8.98c-0.01,0.01-0.02,0.03-0.02,0.04l-0.67,1.13l-1.46-0.87l0.49,1.17c-1.86,0.77-39.34,15.96-101.03,11.47
						C314.89,417.07,301.96,415.45,288.19,412.84z M422.28,355.27c-0.03-0.4-3.07-39.61-38.08-68.51
						c-7.26,2.21-33.83,9.51-61.47,7.5c-18.19-1.32-36.85-6.68-50.75-20.19c-5.29,2.23-13.4,6.5-16.44,10.61
						c-0.33,1.13-1.01,2.44-1.8,3.96c-1.31,2.52-3.57,6.79-7.33,13.8l0,0c-4.22,7.87-18.51,46.55-20.82,78.9
						c-0.6,8.47,29.93,19.05,58.39,23.97l5.18,0.64l0.22,0.03c73.98,14.09,124.32-1.76,134.13-5.27
						C423.91,394.78,423.25,374,422.28,355.27z M248.9,284.56c0.22,0.87,0.77,1.71,1.71,2.22c1.11,0.6,2.31,0.52,3.24,0.06
						L248.9,284.56z"/>
				</g>
				<g>
					<path class="st3" d="M361.68,311c0,0-65.09,10.5-104-11.88c0,0-16.97,19.19-26.25,80.74c0,0,102.31,32.3,148.26,9.02
						C379.68,388.87,358.88,360.03,361.68,311z"/>
				</g>
			</g>
			<g>
				<path class="st13" d="M384.3,288.05c0,0-0.81,77.61-68.11,127.24c0,0,65.26-0.37,109.7,1.92
					C425.89,417.22,451.6,319.31,384.3,288.05z"/>
				<path class="st7" d="M314.12,412.5c65.04-47.97,66.69-123.72,66.7-124.48l0.06-5.38l4.88,2.27
					c28.73,13.34,45.35,40.74,48.04,79.21c2,28.63-4.28,52.97-4.55,53.99l-0.72,2.74l-2.82-0.15c-43.83-2.25-108.85-1.92-109.5-1.92
					l-10.68,0.06L314.12,412.5z M387.43,293.53c-1.61,17.89-10.69,76.1-61.16,118.26c19.55,0,63.54,0.2,96.88,1.8
					C426.48,398.22,439.83,322.37,387.43,293.53z"/>
			</g>
			<g>
				<path class="st13" d="M383.64,279.21c0,0-22.43,80.62-75.27,131.67c0,0,15.44,14.3,35.55,8.02c0,0,57.75-53.09,67.21-123.44
					C411.14,295.46,402.94,274.51,383.64,279.21z"/>
				<path class="st7" d="M306.01,413.43l-2.7-2.5l2.64-2.56c51.52-49.78,74.11-129.3,74.33-130.1l0.55-1.97l1.98-0.48
					c17.6-4.28,28.34,10.14,31.56,18.36l0.33,0.84l-0.12,0.89c-9.52,70.78-65.91,123.34-68.3,125.54l-0.57,0.53l-0.74,0.23
					c-5.07,1.58-9.84,1.99-14.2,1.67C316.38,422.84,306.54,413.92,306.01,413.43z M407.56,295.94c-1.52-3.33-8.05-15.66-21.18-13.72
					c-3.9,12.79-26.48,81.79-72.73,128.36c4.92,3.37,15.57,8.94,28.5,5.23C348.06,410.12,398.5,360.1,407.56,295.94z"/>
			</g>
			<g>
				<path class="st6" d="M387.54,283.2c0,0-31.34,87.75-71.59,126.66c0,0,5.97,1.29,16.85-0.68c0,0,46.47-48.06,61.31-115.04
					C394.11,294.14,406.29,269.73,387.54,283.2z"/>
			</g>
		</g>
		<g>
			<g>
				<g>
					<path class="st8" d="M570.17,315.66c0,0-13.31-4.25-24.33,15.57c0,0-16.71,23.04-0.61,55.94c0,0,19.38-0.12,25.72,6.22
						c0,0,10.79,2.78,13.86-6.11c0,0,18.16,0.67,17.18-5.43c0,0-3.99-10.62,1.9-21.88c0,0,0.64-7.29-3.15-10.26l0.56-10.36
						c0,0-0.03-1.15-4.6-2.56l-0.27-10.34C596.43,326.46,582.22,319.17,570.17,315.66z"/>
					<path class="st2" d="M570.09,396.76l-0.92-0.24l-0.67-0.67c-3.86-3.86-16.31-5.24-23.24-5.21l-2.19,0.01l-0.96-1.96
						c-16.25-33.2-0.96-56.82,0.78-59.33c11.96-21.33,26.92-17.45,28.26-17.05c12.22,3.57,26.27,10.74,26.86,11.05l1.84,0.94
						l0.26,10.01c2.13,0.89,4.6,2.42,4.66,4.95l-0.48,9.08c3.6,4.29,3.13,11.09,3.06,11.93l-0.06,0.69l-0.32,0.62
						c-5.05,9.66-1.76,18.97-1.73,19.05l0.18,0.67c0.3,1.86-0.23,3.68-1.5,5.11c-3.35,3.79-12.06,4.37-16.89,4.38
						c-3.17,5.63-9.28,6.79-13.84,6.45C572.04,397.17,570.98,396.99,570.09,396.76z M600.46,359.06c0.05-1.98-0.32-5.4-1.86-6.6
						l-1.43-1.12l0.56-10.46c-0.44-0.2-1.1-0.46-2.06-0.76l-2.38-0.74l-0.28-10.74c-4.17-2.04-14.71-6.99-23.81-9.65l-0.09-0.03
						c-0.1-0.04-10.7-3.19-20.23,13.95l-0.22,0.35c-0.15,0.21-14.68,20.81-1.2,50.45c5.47,0.16,18.74,1.12,25.14,6.46
						c2,0.33,7.29,0.73,8.94-4.03l0.84-2.44l2.57,0.1c5.57,0.21,11.74-0.62,13.46-1.74C597.5,378.97,595.4,369.34,600.46,359.06z"/>
				</g>
				<g>
					<path class="st12" d="M556.02,338.17c0,0-15.19,13.18-6.62,45.47c0,0,5.82-2.87,22.41,5.31c0,0,8.67-0.82,6.82-8.24
						c0,0-3.31-10.03-10.21-14.35c0,0,12.5-2.18,18.99,16.42c0,0,7.19,2.46,9.41-1.29c0,0-3.34-7.63-2.41-16.76
						c0,0,0.91-13.19-7.66-17.5c0,0,5.39-4.45-0.93-10.52c0,0-8.82-6.71-19.84-6.14C565.96,330.56,559.6,333.57,556.02,338.17z"/>
				</g>
				<g>
					<g>
						<path class="st2" d="M585.85,391.52c0.29-0.26,0.37-0.38,0.52-0.54c0.15-0.16,0.24-0.31,0.36-0.46
							c0.24-0.3,0.41-0.61,0.6-0.92c0.35-0.63,0.65-1.28,0.85-1.96c0.43-1.35,0.53-2.79,0.35-4.1c-0.36-2.66-1.61-4.75-2.94-6.45
							c-1.4-1.65-2.92-3.06-4.54-4.25c-1.59-1.23-3.28-2.24-4.95-3.26l-0.19-0.12l-0.04-0.01c-0.82-0.29-1.82-0.94-2.51-1.7
							c-0.72-0.78-1.24-1.75-1.51-2.84c-0.26-1.09-0.23-2.27-0.06-3.45c0.11-0.59,0.27-1.17,0.41-1.76l0.62-1.73l-0.94,1.6
							c-0.25,0.56-0.53,1.12-0.75,1.71c-0.4,1.19-0.69,2.46-0.63,3.81c0.07,1.33,0.48,2.69,1.22,3.88c0.76,1.2,1.68,2.16,3.04,2.98
							l-0.23-0.13c1.38,1.25,2.77,2.47,3.97,3.83c1.23,1.32,2.26,2.75,3.07,4.18c0.75,1.44,1.16,2.91,1.06,4.07
							c-0.04,0.58-0.21,1.07-0.47,1.49c-0.11,0.22-0.28,0.4-0.43,0.57c-0.09,0.08-0.16,0.17-0.24,0.22
							c-0.04,0.02-0.08,0.08-0.11,0.08c-0.01,0-0.1,0.06,0.02-0.05L585.85,391.52z"/>
					</g>
					<g>
						<path class="st2" d="M576.54,373.93c2.23-1.45,4.55-2.88,6.87-4.25c2.34-1.34,4.66-2.74,7.19-3.71
							c-1.36-0.11-2.76-0.04-4.14,0.04c-1.38,0.09-2.76,0.21-4.13,0.36c-2.75,0.29-5.47,0.64-8.25,1.05L576.54,373.93z"/>
					</g>
					<g>
						<polygon class="st2" points="602,346.47 581.58,342.1 599.48,352.96 						"/>
					</g>
					<g>
						<polygon class="st2" points="598.14,333.63 582.25,330.22 595.26,339.96 						"/>
					</g>
				</g>
			</g>
			<g>
				<path class="st13" d="M460.65,283.46c0,0,34.85,1.83,70.5,21.38c0,0-24.1,23.6-18.32,49.55c0,0-26.56-10.73-48.84-18.76
					c-7.92-2.85-28.75,9.92-44.55,14.29c-18.35,5.06-41.83-22.8-18.98-42.46C403.62,304.74,431.08,283.4,460.65,283.46z"/>
				<path class="st7" d="M390.75,338.38c-6.21-11.66-3.43-24.2,7.44-33.56c0.29-0.25,29.84-24.91,62.46-24.84l0.18,0
					c1.44,0.07,36.05,2.1,71.99,21.8l4.11,2.26l-3.35,3.28c-0.23,0.22-22.66,22.52-17.35,46.3l1.44,6.46l-6.14-2.48
					c-0.27-0.11-26.75-10.8-48.72-18.71c-3.6-1.3-14.18,3.22-22.67,6.86c-6.64,2.84-13.5,5.78-19.77,7.51
					c-2.29,0.63-4.67,0.84-7.05,0.67C404.48,353.29,395.56,347.41,390.75,338.38z M465.17,332.36
					c15.99,5.76,34.35,12.98,43.37,16.57c-1.29-19.28,10.98-36.11,17-43.12c-32.29-16.56-63.24-18.75-65-18.87
					c-30.06-0.01-57.54,22.93-57.81,23.16c-11.87,10.21-8.04,20.89-5.84,25.01c4.54,8.52,14.04,13.56,21.63,11.46
					c5.81-1.61,12.46-4.45,18.89-7.2c9.97-4.26,18.76-8.03,24.96-7.58C463.37,331.86,464.31,332.05,465.17,332.36z"/>
			</g>
			<g>
				<path class="st6" d="M413.83,345.25c0,0-17.65-3.24,3.3-28.84c0,0,21.23-13.67,42.5-14.02c0,0,23.56-0.24,46.34,12.89
					c0,0-6.3,21.61,1.28,32.73c0,0-42.76-17.09-46.68-16.73c0,0-19.35,5.53-34.28,12.2C426.28,343.49,418.42,347.74,413.83,345.25z"
					/>
			</g>
			<g>
				<g>
					<path class="st4" d="M526.25,299.47c0,0-25.5,18.21-22.38,52.19l37.99,19.83c0,0-4.84-31.65,22.26-55.64
						C564.13,315.85,537.18,303.07,526.25,299.47z"/>
					<path class="st2" d="M500.59,353.87l-0.17-1.89c-3.27-35.57,22.71-54.55,23.82-55.34l1.44-1.03l1.67,0.55
						c11,3.63,37.17,16.02,38.28,16.54l4.76,2.26l-3.95,3.49c-25.28,22.37-21.31,51.29-21.13,52.5l1.04,6.78L500.59,353.87z
						 M526.91,303.37c-4.97,4.13-21.31,19.81-19.71,46.1l30.83,16.09c-0.02-10.26,2.43-30.87,20-48.72
						C550.45,313.31,535.33,306.41,526.91,303.37z"/>
				</g>
				<g>
					<path class="st5" d="M507.68,348.83c0,0-1.4-45.37,42.93-28.05c0,0-15.11,14.71-12.57,43.33L507.68,348.83z"/>
				</g>
				<g>
					<g>
						<path class="st2" d="M524.51,341.33c1.88-0.36,3.56-1.02,5.2-1.75c1.63-0.75,3.18-1.62,4.67-2.58
							c1.49-0.96,2.91-2.03,4.26-3.2c1.34-1.19,2.63-2.47,3.72-4.04c-1.88,0.35-3.57,1.02-5.21,1.75c-1.63,0.75-3.18,1.62-4.66,2.58
							c-1.49,0.96-2.91,2.03-4.26,3.21C526.9,338.49,525.61,339.76,524.51,341.33z"/>
					</g>
					<g>
						<path class="st2" d="M532.12,323.72c-0.48,1.86-0.59,3.68-0.63,5.48c-0.01,1.8,0.11,3.58,0.35,5.35
							c0.24,1.76,0.6,3.51,1.09,5.24c0.52,1.72,1.12,3.44,2.08,5.11c0.48-1.86,0.6-3.68,0.63-5.48c0.01-1.8-0.11-3.58-0.36-5.34
							c-0.24-1.76-0.6-3.51-1.09-5.24C533.68,327.1,533.08,325.39,532.12,323.72z"/>
					</g>
				</g>
				<g>
					<g>
						<path class="st2" d="M511.87,335.03c1.88-0.36,3.56-1.02,5.2-1.75c1.63-0.75,3.18-1.61,4.67-2.58
							c1.49-0.96,2.91-2.03,4.26-3.21c1.34-1.19,2.63-2.46,3.72-4.04c-1.89,0.35-3.57,1.01-5.21,1.75
							c-1.62,0.75-3.18,1.62-4.66,2.58c-1.49,0.96-2.91,2.03-4.26,3.21C514.25,332.19,512.96,333.46,511.87,335.03z"/>
					</g>
					<g>
						<path class="st2" d="M519.47,317.42c-0.48,1.86-0.59,3.68-0.63,5.48c-0.01,1.8,0.11,3.58,0.35,5.34
							c0.24,1.76,0.6,3.51,1.09,5.24c0.51,1.73,1.11,3.44,2.08,5.1c0.48-1.86,0.6-3.67,0.63-5.48c0.01-1.8-0.11-3.58-0.35-5.34
							c-0.24-1.76-0.6-3.51-1.1-5.24C521.03,320.8,520.43,319.09,519.47,317.42z"/>
					</g>
				</g>
			</g>
		</g>
		<g>
			<g>
				<path class="st13" d="M416.03,506.24c0,0,15.22,9.77,30.73,16.7c0,0,15.14,5.44,11.08,15.8c0,0-29.29,41.51-31,43.95
					c0,0-5.56,8.32-9.38,9.44c0,0-15.14,1.36-9.97-30.52l-1.69-7.08l-54.07-21.44l-6.79-4.98l-4.71-6.3l32.47-42.55L416.03,506.24z"
					/>
				<path class="st7" d="M408.28,591.52c-5.09-5.47-6.55-15.48-4.33-29.77l-1.11-4.65l-52.81-20.94l-7.56-5.55l-6.59-8.82
					l35.99-47.16l46,28.65l0.04,0.03c0.15,0.1,15.12,9.66,30.16,16.41c1.48,0.55,9.81,3.89,12.85,10.58
					c1.39,3.07,1.45,6.43,0.17,9.71l-0.15,0.39l-0.24,0.35c-0.29,0.41-29.3,41.53-30.95,43.88c-1.47,2.2-6.63,9.47-11.29,10.84
					l-0.67,0.13c-0.15,0.01-0.61,0.04-1.29,0C414.67,595.46,411.29,594.75,408.28,591.52z M454.59,533.19
					c-1.64-3.63-7.06-6.26-9-6.97l-0.24-0.1c-15.44-6.9-30.3-16.38-31.17-16.94l-40.61-25.29l-28.96,37.95l2.83,3.78l6.01,4.41
					l55.34,21.95l2.27,9.51l-0.11,0.69c-2.61,16.06,0.33,22.22,2.31,24.46c1.41,1.59,2.93,1.93,3.59,2.01
					c1.55-0.83,4.77-4.37,7.16-7.94c1.63-2.33,27.62-39.17,30.74-43.59C455.21,535.71,455.16,534.45,454.59,533.19z"/>
			</g>
			<g>
				<path class="st2" d="M370.56,540.11l1.09-3.34c17.53-1.79,30.41-17.59,28.62-35.12L398.68,486
					c-1.78-17.53-17.58-30.41-35.11-28.62l0,0c-17.52,1.78-27.59,18.67-28.6,40.67l-1.23,7.31
					C335.53,522.9,353.03,541.9,370.56,540.11z"/>
				<path class="st2" d="M343.8,532.46c-7.52-7.44-12.57-17.43-13.52-26.73l-0.05-0.47l1.27-7.57c1.21-25.13,13.35-41.9,31.71-43.76
					c9.39-0.96,18.64,1.82,26.01,7.83c7.37,6.01,11.96,14.5,12.91,23.9l1.59,15.65c1.9,18.71-11.16,35.57-29.46,38.62l-1.12,3.42
					l-2.25,0.23c-1.5,0.15-3.03,0.17-4.56,0.06C358.56,543.06,350.55,539.14,343.8,532.46z M369.05,533.54l2.25-0.23
					c15.66-1.6,27.11-15.64,25.52-31.3l-1.59-15.65c-0.77-7.55-4.46-14.37-10.39-19.21c-5.93-4.83-13.36-7.07-20.91-6.3
					c-14.73,1.5-24.49,15.82-25.47,37.37l-0.01,0.21l-1.18,7.04c0.91,7.62,5.16,15.83,11.44,22.04c5.92,5.86,12.86,9.13,19.3,9.23
					L369.05,533.54z"/>
			</g>
			<g>
				<path class="st2" d="M395.93,527.33c-5.52,6.77-13.13,11.2-21.62,12.62l-1.12,3.42l-2.28,0.23
					c-20.18,2.06-38.3-16.62-40.22-35.46l-0.04-0.47l0.81-9.99c1.21-25.15,13.36-41.93,31.75-43.8c9.41-0.96,18.66,1.83,26.04,7.84
					c7.37,6.02,11.97,14.51,12.93,23.93l1.59,15.65c0.17,1.69,0.22,3.38,0.15,5.06C403.63,513.98,400.87,521.28,395.93,527.33z
					 M348.72,527.48c5.9,5.84,12.8,9.11,19.25,9.22l1.05-3.2l2.27-0.23c15.64-1.6,27.07-15.62,25.48-31.26l-1.59-15.65
					c-0.77-7.54-4.45-14.36-10.37-19.18c-5.93-4.83-13.34-7.06-20.88-6.3c-14.71,1.5-24.46,15.8-25.44,37.33l-1.19,7.26
					C338.2,513.09,342.45,521.28,348.72,527.48z"/>
			</g>
			<g>
				<path class="st2" d="M400.89,522.29l3.77,4.45c10.12,0.76,20.34-11.06-10.94-32.15l-15.26-10.81
					c-10.82-5.46-24.55-0.25-30.5,11.57l0,0c-5.96,11.81,2.95,33.72,13.77,39.18l13.83,4.61
					C386.39,544.6,394.94,534.1,400.89,522.29z"/>
			</g>
			<g>
				<path class="st6" d="M412.46,584.97c0,0-5.48-21.85,0.57-29.93c0,0,9.3-20.61,29.46-15.91c0,0,8.6,3.47-21.39,42.45
					C421.1,581.58,414.27,589.9,412.46,584.97z"/>
			</g>
			<g>
				<g>
					<path class="st14" d="M368.64,536.6l2.95-4.3c9.26-1.89,6.61-10.64,4.73-19.9l-4.27-20.97c-1.89-9.26-11.01-15.3-20.27-13.41
						l0,0c-9.27,1.88-15.78,13.84-13.9,23.09l-0.57,3.57C339.18,527.26,359.38,538.49,368.64,536.6z"/>
				</g>
			</g>
			<g>
				<path class="st13" d="M426.63,594.45l37.95-54.37c1.65-2.36,1.06-5.65-1.3-7.29l-1.77-1.23c-2.36-1.66-5.64-1.07-7.29,1.3
					l-37.95,54.36c-1.65,2.36-1.07,5.64,1.3,7.29l1.77,1.23C421.71,597.39,424.99,596.81,426.63,594.45z"/>
				<path class="st7" d="M417.36,598.6l-1.78-1.23c-3.94-2.76-4.9-8.2-2.15-12.13l37.95-54.36c1.33-1.91,3.33-3.18,5.63-3.59
					c2.3-0.41,4.61,0.1,6.5,1.43l1.77,1.23c1.9,1.33,3.18,3.32,3.59,5.62c0.41,2.3-0.1,4.61-1.43,6.51l-37.95,54.37
					c-1.33,1.9-3.33,3.18-5.62,3.58c-0.73,0.13-1.46,0.17-2.18,0.11C420.14,600.02,418.65,599.5,417.36,598.6z M458.22,534.12
					c-0.27,0.05-0.78,0.21-1.14,0.72l-37.95,54.37c-0.55,0.78-0.34,1.9,0.43,2.44l1.78,1.23c0.51,0.36,1.04,0.33,1.31,0.28
					c0.27-0.05,0.78-0.2,1.13-0.72l37.95-54.37c0.36-0.51,0.33-1.04,0.28-1.32c-0.05-0.27-0.2-0.78-0.71-1.13l-1.77-1.24
					c-0.3-0.21-0.61-0.29-0.86-0.31C458.48,534.09,458.33,534.1,458.22,534.12z"/>
			</g>
			<g>
				<path class="st2" d="M432.46,515.98c0,0,2.98,17.08-25.18,37.46l-32.1-10.81l32.49-42.89L432.46,515.98z"/>
				<path class="st2" d="M369.48,544.38l37.37-49.33l28.78,18.84l0.26,1.49c0.14,0.79,3.01,19.47-26.57,40.88l-1.45,1.05
					L369.48,544.38z M408.48,504.43l-27.61,36.45l25.81,8.69c19.94-14.93,22.21-27.59,22.38-31.66L408.48,504.43z"/>
			</g>
			<g>
				<path class="st14" d="M389.94,520.9l25.58,17.53c0,0-0.04,8.41-12.05,11.19l-36.96-11.99
					C366.52,537.63,367.68,511.48,389.94,520.9z"/>
			</g>
			<g>
				<g>
					<path class="st9" d="M402.28,497.85c0,0-4.9,12.15-30.53,44.54l8.62,4.12c0,0,11.69-8.41,30.35-43.32L402.28,497.85z"/>
					<path class="st2" d="M366.32,543.65l2.7-3.42c24.64-31.14,29.92-43.43,30.03-43.69l1.56-3.86l14.71,9.29l-1.53,2.85
						c-18.83,35.22-30.88,44.15-31.39,44.51l-1.67,1.2L366.32,543.65z M403.68,502.85c-2.97,5.49-10.24,17.44-26.51,38.28l2.64,1.26
						c3.5-3.32,12.98-13.6,26.31-38L403.68,502.85z"/>
				</g>
				<g>
					<path class="st6" d="M376.85,540.43c0,0,9.66-11.09,19.76-26.59c0,0,1,6.88-7.08,17.76l-8.09,10.89L376.85,540.43z"/>
				</g>
			</g>
		</g>
		<g>
			<g>
				<path class="st13" d="M429.59,440.25c0,0-157.07,18.68-207.26-23.64l-8.89,42.62c0,0,41,33.76,126.88,34.74
					c0,0,60.09,2.81,93.1-12.55L429.59,440.25z"/>
				<path class="st7" d="M211.24,461.92l-1.62-1.34l10.5-50.39l4.46,3.76c48.46,40.86,203.05,23.04,204.6,22.85l3.54-0.42l4.4,47.17
					l-2.22,1.04c-33.4,15.54-92.24,12.98-94.61,12.87c-6.93-0.08-13.55-0.36-19.9-0.83C247.81,491.34,212.81,463.21,211.24,461.92z
					 M426.46,444.1c-23.53,2.5-151.17,14.16-201.85-21.37l-7.3,35.04c8.41,6,48.97,31.88,123.19,32.72
					c0.58,0.03,56.94,2.49,89.25-11.23L426.46,444.1z"/>
			</g>
			<g>
				<path class="st2" d="M310.08,434.09c0,0-2.3,30.73-6.14,58.33c0,0-32.68,0.17-61.72-14.93l7.52-55.68
					C249.74,421.81,297.77,432.1,310.08,434.09z"/>
				<path class="st15" d="M240.62,480.57l-2.17-1.13l8.35-61.83l3.67,0.79c0.48,0.1,48.08,10.29,60.16,12.25l3.15,0.51l-0.24,3.18
					c-0.02,0.31-2.35,31.16-6.16,58.55l-0.42,2.98l-3.01,0.02c-0.38,0-3.1,0-7.47-0.32C284.96,494.74,261.99,491.68,240.62,480.57z
					 M306.37,436.97c-13.02-2.36-43.12-8.73-53.68-10.98l-6.68,49.51c22.32,10.94,46.59,12.97,54.91,13.35
					C303.76,467.63,305.71,445.1,306.37,436.97z"/>
			</g>
			<g>
				<path class="st14" d="M250.77,444.18l-4.79,30.13c0,0,36.76,16.03,51.47-19.67C297.45,454.64,278.51,454.74,250.77,444.18z"/>
			</g>
		</g>
		<g>
			<g>
				<path class="st13" d="M219.85,418.31c0,0,94.62,58.12,210.79,27.35c0,0,4.83-4.24,5.23-8.13c0,0,2.9-23.53,2.72-28.73
					c-0.15-4.36-1.74-6.05-5.98-3.62c0,0-61.26,35.52-203.97-23.2c0,0-0.25-9.32-6.53-0.85C222.1,381.12,212.44,416.6,219.85,418.31
					z"/>
				<path class="st7" d="M218.43,421.52c-1.03-0.37-2.27-1.13-3.22-2.73c-4.44-7.43,1.58-31.4,3.53-38.58l0.17-0.63l0.39-0.53
					c1.22-1.65,4.47-6.03,8.56-4.73c2.52,0.79,3.55,3.24,3.97,5.21c137.69,56.13,198.44,22.97,199.05,22.63
					c1.14-0.65,4.6-2.63,7.77-0.86c3.23,1.8,3.37,6,3.41,7.39c0.18,5.32-2.44,26.84-2.73,29.2c-0.51,5-5.41,9.54-6.39,10.4
					l-0.61,0.54l-0.79,0.21c-32.29,8.55-63.03,10.26-90.62,8.26C272.42,452.3,223.36,424.42,218.43,421.52z M432.42,437.1
					c0.8-6.47,2.83-24.15,2.69-28.19c-0.01-0.45-0.05-0.81-0.08-1.08c-0.19,0.09-0.41,0.2-0.67,0.35
					c-2.56,1.48-64.38,35.71-207.04-22.99l-2.07-0.87l-0.05-1.3c-3.85,14.48-5.72,28.99-4.13,32l0.61,0.33
					c0.93,0.57,94.2,56.71,207.23,27.17C430.4,441.05,432.25,438.68,432.42,437.1z"/>
			</g>
			<g>
				<path class="st6" d="M222.52,386.23c4.28-6.21,4.28,0.56,4.28,0.56c87.1,41.49,108.16,28.71,108.16,28.71
					c0.78-0.5,21.34,2.36,21.86,2.3c-8.85,16.6-43.41,17.05-43.41,17.05c-53.01,2.69-93.37-19.89-93.37-19.89
					C215.2,413.77,222.52,386.23,222.52,386.23z"/>
			</g>
			<g>
				<path class="st0" d="M417.02,415.11c0,0-76.78,16.36-186.36-27.59c0,0-8.24-8.06-9.55,2.66c0,0-5.27,18.39-1.12,24.76
					c0,0-3.92-4.75,8.09-20.33c0,0,111.82,45.94,182.82,23.88C410.9,418.5,431.44,412.52,417.02,415.11z"/>
			</g>
		</g>
		<g>
			<g>
				<path class="st13" d="M259.02,529.47c0,0-10.33,14.84-17.83,30.08c0,0-4.95,13.53-15.17,9.1c0,0-40.03-28.37-42.41-30.17
					c0,0-8.1-5.86-9.08-9.72c0,0,0.66-12.12,29.47-9.86l8.53-0.39l25.87-61.91l49.19,30.59L259.02,529.47z"/>
				<path class="st7" d="M224.64,571.84l-0.63-0.35c-1.64-1.16-40.1-28.42-42.44-30.19c-2.14-1.55-9.22-6.97-10.42-11.68l-0.13-0.52
					l0.03-0.53c0.04-0.67,0.41-4.16,4.21-7.48c5.44-4.76,15-6.68,28.42-5.7c0.12,0.01,0.24,0.02,0.36,0.03l6.12-0.28l26.59-63.65
					l55.73,34.66l-30.58,45.28l-0.03,0.04c-0.1,0.15-10.2,14.72-17.49,29.49c-0.57,1.47-3.55,8.48-9.67,11.11
					c-1.78,0.76-3.65,1.07-5.57,0.93C227.65,572.88,226.14,572.5,224.64,571.84z M282.68,488.23l-42.65-26.53l-25.14,60.17
					l-10.95,0.51l-0.21-0.02c-20.68-1.58-24.8,4.38-25.56,6.12c0.97,1.66,4.23,4.81,7.55,7.22c1.84,1.39,28.09,20.02,42.01,29.88
					c1.56,0.61,2.92,0.64,4.24,0.08c3.16-1.34,5.38-5.74,5.97-7.31l0.15-0.34c7.47-15.16,17.49-29.65,18.08-30.51L282.68,488.23z"/>
			</g>
			<g>
				<path class="st12" d="M248.14,504.93l-19.51,26.31c0,0-3.89-7.09-11.77-11.06l15.42-39.28
					C232.28,480.9,258.36,483.03,248.14,504.93z"/>
			</g>
			<g>
				<path class="st6" d="M181.87,524.02c0,0,20.63-5.7,28.49,0.64c0,0,20.26,10.06,14.81,30.04c0,0-2.39,9.5-40.23-21.92
					C184.94,532.77,176.88,525.65,181.87,524.02z"/>
			</g>
			<g>
				<path class="st13" d="M169.71,538.82l52.92,39.93c2.3,1.73,5.6,1.27,7.34-1.03l1.3-1.71c1.74-2.3,1.28-5.6-1.03-7.34
					l-52.92-39.94c-2.3-1.73-5.6-1.27-7.34,1.03l-1.3,1.71C166.96,533.78,167.42,537.08,169.71,538.82z"/>
				<path class="st7" d="M220.54,581.53l-52.92-39.93l0,0c-3.83-2.9-4.59-8.37-1.7-12.21l1.29-1.71c2.89-3.83,8.37-4.6,12.21-1.71
					l52.92,39.94c1.86,1.4,3.06,3.44,3.38,5.75c0.32,2.31-0.27,4.61-1.67,6.46l-1.29,1.71c-1.4,1.85-3.44,3.05-5.75,3.38
					c-0.62,0.09-1.25,0.11-1.86,0.06C223.48,583.14,221.9,582.55,220.54,581.53z M172.76,531.86l-1.29,1.71
					c-0.58,0.76-0.42,1.9,0.35,2.47l52.92,39.93c0.5,0.38,1.03,0.37,1.31,0.33c0.27-0.04,0.78-0.18,1.16-0.68l1.29-1.71
					c0.38-0.5,0.37-1.03,0.33-1.3c-0.04-0.27-0.18-0.78-0.68-1.16l-52.92-39.94c-0.27-0.21-0.59-0.32-0.92-0.34
					C173.73,531.13,173.13,531.37,172.76,531.86z"/>
			</g>
			<g>
				<path class="st2" d="M218.93,525.32c0,0,17.53,21.3,35.74,10.78c0,0,47.89-50.24,32.38-64.25c0,0-27.96-25.25-50.22-19.44
					c0,0-8.94-0.35-25.54,55.14C211.3,507.55,211.32,521.07,218.93,525.32z"/>
				<path class="st2" d="M216.65,528.01c-8.55-5.37-8.83-18.89-8.83-20.45l0-0.51l0.15-0.49c10.85-36.27,20.85-56.61,28.29-57.58
					c23.75-5.93,51.94,19.22,53.13,20.3c2.66,2.4,4.08,5.63,4.23,9.62c0.75,20.02-32.61,55.62-36.42,59.62l-0.34,0.36l-0.43,0.25
					c-4.72,2.73-9.5,3.6-14.06,3.27C231.35,541.59,221.57,533.78,216.65,528.01z M286.66,479.15c-0.08-2.07-0.71-3.61-1.94-4.71
					c-0.27-0.24-26.83-23.92-47.01-18.65l-0.21,0.05c-1.11,0.67-9.13,6.89-22.72,52.2c0.12,3.54,1.32,11.72,5.85,14.26l0.57,0.32
					l0.42,0.51c0.16,0.19,15.55,18.58,30.89,10.22C262.53,522.73,287.19,493.45,286.66,479.15z"/>
			</g>
			<g>
				<path class="st14" d="M223.8,525.2c0,0,6.21,0.6,12.48-6.36c0,0,24.07-33.57,17.37-40.08c0,0-12.07-11.74-22.94-5.04
					c0,0-15.44,17.9-15.5,34.29C215.22,508.02,212.53,518.5,223.8,525.2z"/>
			</g>
			<g>
				<path class="st13" d="M276.32,512.89c0,0-23.32-5.38-57.11-34.52l-4.85,11.11c0,0,29.38,24.3,55.15,33.14L276.32,512.89z"/>
				<path class="st7" d="M268.38,525.91c-26.07-8.94-55.02-32.74-56.24-33.75l-2.02-1.67l7.78-17.83l3.57,3.08
					c32.47,28,55.25,33.68,55.63,33.77l5.02,1.16l-11.27,16.09L268.38,525.91z M220.53,484.05l-1.91,4.38
					c6.75,5.33,29.13,22.29,49.57,30.01l2.55-3.65C262.5,511.87,244.3,503.83,220.53,484.05z"/>
			</g>
			<g>
				<path class="st6" d="M248.14,504.93c0,0-11.46-2.12-28.5-17.13l0.3-4.56C219.93,483.24,238.16,498.07,248.14,504.93z"/>
			</g>
		</g>
		<g>
			<g>
				<path class="st13" d="M429.59,440.25c0,0-157.07,18.68-207.26-23.64l-8.89,42.62c0,0,41,33.76,126.88,34.74
					c0,0,60.09,2.81,93.1-12.55L429.59,440.25z"/>
				<path class="st7" d="M211.24,461.92l-1.62-1.34l10.5-50.39l4.46,3.76c48.46,40.86,203.05,23.04,204.6,22.85l3.54-0.42l4.4,47.17
					l-2.22,1.04c-33.4,15.54-92.24,12.98-94.61,12.87c-6.93-0.08-13.55-0.36-19.9-0.83C247.81,491.34,212.81,463.21,211.24,461.92z
					 M426.46,444.1c-23.53,2.5-151.17,14.16-201.85-21.37l-7.3,35.04c8.41,6,48.97,31.88,123.19,32.72
					c0.58,0.03,56.94,2.49,89.25-11.23L426.46,444.1z"/>
			</g>
			<g>
				<path class="st2" d="M310.08,434.09c0,0-2.3,30.73-6.14,58.33c0,0-32.68,0.17-61.72-14.93l7.52-55.68
					C249.74,421.81,297.77,432.1,310.08,434.09z"/>
				<path class="st15" d="M240.62,480.57l-2.17-1.13l8.35-61.83l3.67,0.79c0.48,0.1,48.08,10.29,60.16,12.25l3.15,0.51l-0.24,3.18
					c-0.02,0.31-2.35,31.16-6.16,58.55l-0.42,2.98l-3.01,0.02c-0.38,0-3.1,0-7.47-0.32C284.96,494.74,261.99,491.68,240.62,480.57z
					 M306.37,436.97c-13.02-2.36-43.12-8.73-53.68-10.98l-6.68,49.51c22.32,10.94,46.59,12.97,54.91,13.35
					C303.76,467.63,305.71,445.1,306.37,436.97z"/>
			</g>
			<g>
				<path class="st14" d="M250.77,444.18l-4.79,30.13c0,0,36.76,16.03,51.47-19.67C297.45,454.64,278.51,454.74,250.77,444.18z"/>
			</g>
		</g>
		<g>
			<g>
				<path class="st13" d="M219.85,418.31c0,0,94.62,58.12,210.79,27.35c0,0,4.83-4.24,5.23-8.13c0,0,2.9-23.53,2.72-28.73
					c-0.15-4.36-1.74-6.05-5.98-3.62c0,0-61.26,35.52-203.97-23.2c0,0-0.25-9.32-6.53-0.85C222.1,381.12,212.44,416.6,219.85,418.31
					z"/>
				<path class="st7" d="M218.43,421.52c-1.03-0.37-2.27-1.13-3.22-2.73c-4.44-7.43,1.58-31.4,3.53-38.58l0.17-0.63l0.39-0.53
					c1.22-1.65,4.47-6.03,8.56-4.73c2.52,0.79,3.55,3.24,3.97,5.21c137.69,56.13,198.44,22.97,199.05,22.63
					c1.14-0.65,4.6-2.63,7.77-0.86c3.23,1.8,3.37,6,3.41,7.39c0.18,5.32-2.44,26.84-2.73,29.2c-0.51,5-5.41,9.54-6.39,10.4
					l-0.61,0.54l-0.79,0.21c-32.29,8.55-63.03,10.26-90.62,8.26C272.42,452.3,223.36,424.42,218.43,421.52z M432.42,437.1
					c0.8-6.47,2.83-24.15,2.69-28.19c-0.01-0.45-0.05-0.81-0.08-1.08c-0.19,0.09-0.41,0.2-0.67,0.35
					c-2.56,1.48-64.38,35.71-207.04-22.99l-2.07-0.87l-0.05-1.3c-3.85,14.48-5.72,28.99-4.13,32l0.61,0.33
					c0.93,0.57,94.2,56.71,207.23,27.17C430.4,441.05,432.25,438.68,432.42,437.1z"/>
			</g>
			<g>
				<path class="st6" d="M222.52,386.23c4.28-6.21,4.28,0.56,4.28,0.56c87.1,41.49,108.16,28.71,108.16,28.71
					c0.78-0.5,21.34,2.36,21.86,2.3c-8.85,16.6-43.41,17.05-43.41,17.05c-53.01,2.69-93.37-19.89-93.37-19.89
					C215.2,413.77,222.52,386.23,222.52,386.23z"/>
			</g>
			<g>
				<path class="st0" d="M417.02,415.11c0,0-76.78,16.36-186.36-27.59c0,0-8.24-8.06-9.55,2.66c0,0-5.27,18.39-1.12,24.76
					c0,0-3.92-4.75,8.09-20.33c0,0,111.82,45.94,182.82,23.88C410.9,418.5,431.44,412.52,417.02,415.11z"/>
			</g>
		</g>
		<g>
			<g>
				<g>
					<path class="st2" d="M265.5,267.39l3.27-0.59c29.53,99.23,166.22,121.5,166.22,121.5l0.92,2.17l-5.28,29.45l-1.72,0.93
						c-162.69-28.1-182.87-128.12-182.87-128.12l0.98-3.99L265.5,267.39z"/>
				</g>
				<g>
					<path class="st15" d="M243.87,287.27l-1.3,5.32l0.13,0.64c0.21,1.06,5.51,26.16,31.17,54.99
						c23.52,26.43,69.42,61.03,154.49,75.72l1.23,0.21l4.13-2.22l5.69-31.74l-1.98-4.69l-1.93-0.31
						c-0.34-0.06-34.25-5.73-71.23-23.31c-33.85-16.09-77.34-45.79-92.23-95.85l-0.86-2.89l-7.59,1.37L243.87,287.27z
						 M249.51,292.82l0.65-2.63l16.47-19.01c13.16,39.88,45.86,73.14,94.84,96.39c32.98,15.65,62.78,21.94,70.89,23.46l-4.74,26.4
						c-81.84-14.51-125.94-47.74-148.56-73.16C256.69,319.14,250.47,296.74,249.51,292.82z"/>
				</g>
			</g>
			<g>
				<g>
					<path class="st14" d="M379.74,378.46c0,0-12,17.11-45.32,6.38c0,0-61.52-28.05-83.68-94.03l14.66-18.62
						C265.4,272.19,280.6,341.09,379.74,378.46z"/>
				</g>
			</g>
			<g>
				<g>
					<g>
						<g>
							<path class="st9" d="M415.8,397.14c1.89,1.31,2.28,3.81,0.87,5.57c-1.41,1.76-4.08,2.13-5.97,0.81
								c-1.89-1.31-2.28-3.81-0.87-5.57C411.24,396.19,413.91,395.82,415.8,397.14z"/>
						</g>
						<g>
							<path class="st2" d="M407.78,396.51c-1.07,1.34-1.52,3-1.26,4.67c0.26,1.69,1.22,3.18,2.69,4.21c0.91,0.64,1.95,1.03,3,1.18
								c2.43,0.37,4.97-0.49,6.53-2.44c1.09-1.37,1.53-3.06,1.25-4.75c-0.28-1.66-1.24-3.13-2.69-4.14
								C414.28,393.15,410.01,393.72,407.78,396.51L407.78,396.51z M411.89,399.38c0.41-0.51,1.07-0.75,1.7-0.65
								c0.25,0.04,0.5,0.13,0.72,0.28c0.35,0.24,0.58,0.6,0.65,1c0.07,0.44-0.05,0.88-0.34,1.25c-0.58,0.73-1.67,0.89-2.42,0.37
								c-0.35-0.25-0.58-0.61-0.64-1.02C411.48,400.18,411.6,399.74,411.89,399.38z"/>
						</g>
					</g>
					<g>
						<g>
							<path class="st11" d="M414.77,397c1.49,0.82,1.85,2.79,0.8,4.4c-1.05,1.61-3.1,2.25-4.59,1.44c-1.49-0.82-1.85-2.79-0.8-4.4
								C411.22,396.83,413.28,396.19,414.77,397z"/>
						</g>
					</g>
					<g>
						<g>
							<path class="st10" d="M413.36,397.17c1.02,0.52,1.24,1.94,0.49,3.18c-0.75,1.24-2.19,1.82-3.21,1.3
								c-1.02-0.52-1.24-1.94-0.49-3.18C410.9,397.23,412.34,396.65,413.36,397.17z"/>
						</g>
					</g>
				</g>
				<g>
					<g>
						<g>
							<path class="st9" d="M393.75,391.39c1.89,1.31,2.28,3.8,0.87,5.57c-1.4,1.76-4.08,2.13-5.97,0.81
								c-1.89-1.31-2.28-3.81-0.87-5.57C389.19,390.44,391.86,390.08,393.75,391.39z"/>
						</g>
						<g>
							<path class="st2" d="M385.73,390.77c-1.08,1.35-1.52,3.01-1.26,4.68c0.27,1.69,1.22,3.18,2.69,4.21
								c0.92,0.64,1.94,1.03,3,1.19c2.42,0.37,4.97-0.5,6.53-2.45c1.09-1.37,1.54-3.06,1.25-4.75c-0.28-1.66-1.24-3.13-2.68-4.14
								C392.23,387.41,387.96,387.97,385.73,390.77L385.73,390.77z M389.84,393.64c0.41-0.51,1.07-0.75,1.69-0.65
								c0.26,0.04,0.5,0.13,0.72,0.28c0.35,0.24,0.58,0.6,0.65,1c0.08,0.44-0.04,0.88-0.34,1.25c-0.58,0.73-1.66,0.89-2.42,0.37
								c-0.35-0.24-0.58-0.61-0.64-1.02C389.44,394.43,389.55,394,389.84,393.64z"/>
						</g>
					</g>
					<g>
						<g>
							<path class="st11" d="M392.72,391.26c1.49,0.82,1.85,2.78,0.81,4.39c-1.05,1.61-3.1,2.25-4.59,1.44
								c-1.49-0.82-1.85-2.79-0.81-4.39C389.17,391.08,391.23,390.44,392.72,391.26z"/>
						</g>
					</g>
					<g>
						<g>
							<path class="st10" d="M391.31,391.42c1.02,0.52,1.24,1.94,0.49,3.18c-0.75,1.23-2.19,1.82-3.21,1.3
								c-1.02-0.52-1.24-1.94-0.49-3.18C388.85,391.48,390.29,390.9,391.31,391.42z"/>
						</g>
					</g>
				</g>
				<g>
					<g>
						<g>
							<path class="st9" d="M305.77,343.81c2.53,1.76,3.05,5.1,1.17,7.46c-1.88,2.36-5.47,2.85-8,1.09
								c-2.53-1.76-3.05-5.1-1.17-7.46C299.66,342.54,303.24,342.05,305.77,343.81z"/>
						</g>
						<g>
							<path class="st2" d="M295.71,343.46c-1.33,1.66-1.86,3.71-1.52,5.77c0.34,2.01,1.49,3.79,3.25,5.01
								c1.11,0.77,2.35,1.24,3.62,1.44c2.94,0.45,6.03-0.61,7.92-2.97c1.33-1.66,1.87-3.71,1.52-5.76
								c-0.34-2.01-1.49-3.79-3.25-5.01C303.6,339.39,298.42,340.07,295.71,343.46z M299.83,346.34c0.75-0.93,1.95-1.35,3.09-1.18
								c0.48,0.07,0.94,0.25,1.35,0.54c0.65,0.45,1.08,1.12,1.21,1.88c0.13,0.8-0.08,1.61-0.61,2.26c-1.06,1.32-3.05,1.61-4.44,0.64
								c-0.65-0.45-1.08-1.12-1.21-1.87C299.09,347.8,299.3,346.99,299.83,346.34z"/>
						</g>
					</g>
				</g>
				<g>
					<g>
						<g>
							<path class="st9" d="M284.14,324.65c1.89,1.31,2.28,3.81,0.87,5.57c-1.41,1.76-4.08,2.13-5.97,0.81
								c-1.89-1.31-2.28-3.81-0.87-5.57C279.58,323.71,282.26,323.34,284.14,324.65z"/>
						</g>
						<g>
							<path class="st2" d="M276.12,324.03c-1.09,1.37-1.54,3.06-1.25,4.76c0.28,1.66,1.24,3.13,2.69,4.13
								c0.91,0.64,1.94,1.02,2.99,1.19c2.42,0.37,4.97-0.5,6.52-2.44c1.09-1.37,1.54-3.06,1.25-4.75c-0.28-1.66-1.24-3.13-2.68-4.14
								C282.62,320.67,278.35,321.24,276.12,324.03L276.12,324.03z M280.23,326.9c0.41-0.52,1.07-0.74,1.69-0.65
								c0.26,0.04,0.5,0.13,0.73,0.28c0.35,0.24,0.57,0.6,0.64,1c0.08,0.44-0.04,0.88-0.33,1.25c-0.58,0.73-1.66,0.88-2.41,0.37
								c-0.35-0.24-0.58-0.6-0.65-1C279.82,327.71,279.94,327.27,280.23,326.9z"/>
						</g>
					</g>
				</g>
				<g>
					<g>
						<g>
							<path class="st9" d="M271.25,304.28c1.89,1.32,2.28,3.8,0.87,5.57c-1.41,1.76-4.08,2.13-5.97,0.81
								c-1.89-1.31-2.28-3.8-0.87-5.57C266.69,303.33,269.36,302.96,271.25,304.28z"/>
						</g>
						<g>
							<path class="st2" d="M263.22,303.65c-1.09,1.37-1.53,3.06-1.25,4.75c0.28,1.66,1.24,3.13,2.68,4.14
								c0.91,0.64,1.94,1.03,2.99,1.19c2.43,0.37,4.97-0.5,6.53-2.45c1.07-1.35,1.52-3.01,1.26-4.68c-0.27-1.69-1.22-3.18-2.69-4.21
								C269.73,300.29,265.45,300.86,263.22,303.65L263.22,303.65z M267.34,306.53c0.41-0.52,1.07-0.75,1.7-0.65
								c0.25,0.04,0.5,0.13,0.72,0.28c0.35,0.25,0.58,0.61,0.65,1.02c0.07,0.43-0.05,0.87-0.34,1.23c-0.58,0.72-1.66,0.88-2.41,0.36
								c-0.35-0.24-0.58-0.6-0.65-1C266.93,307.33,267.04,306.89,267.34,306.53z"/>
						</g>
					</g>
				</g>
			</g>
		</g>
		<g>
			<g>
				<g>
					<path class="st11" d="M264.94,264.8c0,0,26.1,10.46,36.53-4.6c0,0,13.45-20.18,36.31-69.53c0,0,1.62-6.8,8.65-5.01
						c0,0,5.62,0.7,0.11,10.63c0,0-21.68,67.15-50.27,80.03c0,0-20.7,9.34-40.78-11.97C255.49,264.35,249.62,255.05,264.94,264.8z"
						/>
				</g>
			</g>
			<g>
				<g>
					<path class="st10" d="M296.79,274.51c0,0,24.62-6.67,41.31-76.29c0,0,1.31-11.41,8.33-12.55c0,0,5.65,0.43-1.44,16.08
						c0,0-24.55,83.28-57.46,78.87C287.53,280.61,279.87,278.43,296.79,274.51z"/>
				</g>
			</g>
			<g>
				<g>
					<path class="st8" d="M269.72,139.18c0,0,7.24-12.09,3.65-25.61l0.53-14.06c0,0,13.01-30.25,37.08-39.52
						c0,0,23.1-12.72,75.77-4.45c39.15,6.14,88.51,32.85,81.69,101.64c0,0-2.47,35.87-11.76,34.32c0,0,5,12.01-7.57,39.66
						c0,0,1.19,49.88-45.48,66.9c0,0-65.33,26.96-125.43,1.12l-11.49-7.43c0,0-28.06-46.87-3.13-106.56
						C263.58,185.2,246.27,156.86,269.72,139.18z"/>
				</g>
				<g>
					<path class="st2" d="M259.71,185.46c-24.18,59.85,2.84,106.13,4.01,108.09l0.42,0.69l12.69,8.14
						c12.69,5.46,25.56,8.64,37.99,10.24c47.07,6.06,87.98-10.45,90.14-11.34c44.92-16.38,47.49-62.53,47.62-69.35
						c8.97-20,9.1-32.16,8.26-37.89c0.32-0.19,0.64-0.41,0.95-0.65c7.66-6.05,9.76-30.85,10.11-35.91
						c6.6-66.86-39.38-98.27-84.61-105.37c-51.07-8.02-75.03,3.3-77.76,4.71c-25.02,9.76-38.27,40.02-38.83,41.31l-0.25,0.59
						l-0.57,15.23l0.13,0.5c2.76,10.39-1.76,20.07-2.98,22.41C248.13,151.66,253.54,174.19,259.71,185.46z M267.48,184.9l-0.93-1.52
						c-0.63-1.04-15.35-25.89,5.27-41.43l0.54-0.41l0.35-0.58c0.32-0.54,7.77-13.22,4.16-27.77l0.49-12.88
						c1.89-4.09,14.23-29.14,34.87-37.08l0.43-0.2c0.21-0.12,23.02-12.01,73.55-4.06c20.44,3.21,86.51,19.75,78.77,97.86l-0.01,0.1
						c-1.15,16.65-5.1,30.41-7.74,31.13l-6.2-1.04l2.44,5.8c0.02,0.06,4.05,11.4-7.52,36.89l-0.33,0.73l0.02,0.79
						c0.04,1.93,0.5,47.61-43.19,63.55c-0.77,0.31-64.67,26.06-122.6,1.31l-10.52-6.8c-3.17-5.84-24.88-49.27-2.53-102.77
						L267.48,184.9z"/>
				</g>
			</g>
			<g>
				<g>
					<path class="st12" d="M280.23,111.2c5.62-12.87,8.21-43.09,31.46-35.61c29.31,9.43,27.87,13.1,82.24,9.09
						c32.18-2.37,22.39,50.4,22.39,50.4c-11.93,17.49-7.48,35.37-7.48,35.37c12.22,29.36-1.43,31.86-1.43,31.86
						c-7.11,4.53-16.24,2.13-16.24,2.13l-7.23-3.46c-42.61-25.05-95.33-26.74-95.33-26.74c-4.88,0.18-20.46,4.93-20.46,4.93
						c-2.52-7.02-2.28-10.83-2.28-10.83c3.72-10.86,13.84-20.95,13.84-20.95C291.08,137.05,280.23,111.2,280.23,111.2z"/>
				</g>
			</g>
			<g>
				<g>
					<path class="st10" d="M269.33,145.35c15.19-17.45,6.07-34.89,6.07-34.89l4.83,0.37c11.79,15.89,0.54,31.83,0.54,31.83
						c-12.26,13.65-7.41,36-7.41,36l-7.78-0.42C257.05,151.9,269.33,145.35,269.33,145.35z"/>
				</g>
			</g>
			<g>
				<g>
					<path class="st12" d="M317.77,129.33c8.05,16.86,11.77,41.2,11.77,41.2l7.85,4.96c11.04,2.15,12.67,14.03,12.67,14.03
						c-1.81,8.42-8.75,1.54-8.75,1.54c-13.09-5.81-22.17-3.45-22.17-3.45c-12.01,1.53-16.17,4.59-16.17,4.59
						c-8.41-15.46,3.93-32.86,3.93-32.86C320.79,140.66,317.77,129.33,317.77,129.33z"/>
				</g>
			</g>
			<g>
				<g>
					<path class="st12" d="M284.3,215.09c48.19-7.11,81.9,15.54,81.9,15.54c18.57,5.39,13.96,14.4,13.96,14.4
						c-5.04,24.06-24.63,43.85-24.63,43.85c-15.18,9.71-31.51,3.19-31.51,3.19c-26.07-26.77-46.05-5.99-46.05-5.99
						c-19.45-25.95-16.98-44.68-16.98-44.68C259.51,212.65,284.3,215.09,284.3,215.09z"/>
				</g>
			</g>
			<g>
				<g>
					<path class="st10" d="M275.66,184.34c0.07-0.25,0.13-0.49,0.21-0.75C275.87,183.59,276.34,183.98,275.66,184.34z"/>
				</g>
				<g>
					<path class="st10" d="M275.66,184.34c-18.25,62.63-2.41,91.13-2.41,91.13c13.11,11.68,22.67,18.03,22.67,18.03
						c19.86,5.99,13.04,10.21,13.04,10.21c-26.48-2.23-38.2-16.47-38.2-16.47c-27.31-61.1-2.41-102.43-2.41-102.43
						C273.1,185,274.97,184.69,275.66,184.34z"/>
				</g>
			</g>
			<g>
				<g>
					<g>
						<path class="st8" d="M477.79,165.89c0,0,16.22,22.35-1.52,44.69c0,0-8.56,9.59-21.94,13.69c0,0-11.17,4.25-21.31,1.84
							L429,193.81c5.63-16.51,11.53-22.57,11.53-22.57S455.09,153.4,477.79,165.89z"/>
					</g>
					<g>
						<path class="st2" d="M479.46,162.84l0.68,0.38l0.45,0.63c0.18,0.24,17.56,24.77-1.61,48.9l-0.13,0.15
							c-0.37,0.42-9.33,10.32-23.42,14.68c-1.22,0.44-10.56,3.72-20.17,2.48c-1.02-0.13-2.04-0.31-3.06-0.56l1.61-6.77
							c8.94,2.12,19.16-1.67,19.26-1.71l0.22-0.07c11.7-3.59,19.59-11.84,20.32-12.63c14.36-18.19,4.09-36.19,1.77-39.78
							c-19.37-10.14-31.65,4.28-32.16,4.9l-0.19,0.21c-0.06,0.06-5.51,5.92-10.75,21.28l-6.58-2.25
							c5.53-16.21,11.45-22.92,12.25-23.78C439.5,167.14,455.64,149.73,479.46,162.84z"/>
					</g>
				</g>
				<g>
					<g>
						<path class="st12" d="M469.09,174.45c0,0,14.56,22.68-17.56,40.62c0,0-26.21,7.26-4.25-32.37
							C447.29,182.7,456.29,168.57,469.09,174.45z"/>
					</g>
				</g>
				<g>
					<g>
						<g>
							<path class="st2" d="M445.81,183c1.04-1.13,2.26-2.11,3.68-2.8c1.48-0.63,2.92-1.22,4.48-1.64l1.13-0.35
								c0.39-0.09,0.8-0.14,1.19-0.21c0.8-0.11,1.56-0.31,2.38-0.27c1.6-0.04,3.21,0.15,4.71,0.59c2.99,0.95,5.58,2.64,7.32,5.02
								l-0.5,0.48c-2.3-1.39-4.91-2.16-7.36-2.06c-2.44,0.02-4.71,0.78-6.74,1.95c-2.11,1.13-3.46,3.35-5.66,4.5
								c-1.01,0.74-2.19,1.34-3.42,1.98c-1.22,0.66-2.54,1.29-4.21,1.72l-0.55-0.43c0.1-1.67,0.57-3.16,1.13-4.6
								C444,185.47,444.88,184.21,445.81,183z"/>
						</g>
					</g>
					<g>
						<g>
							<path class="st2" d="M458.43,182.83c1.09,1.48,2.05,3.06,2.69,4.82c0.63,1.75,0.91,3.64,0.69,5.43
								c-0.2,1.81-1.06,3.37-1.96,4.7c0.4-1.6,0.6-3.19,0.22-4.65c-0.36-1.45-1.07-2.71-1.99-3.79c-0.92-1.09-2.08-1.99-3.28-2.77
								c-1.18-0.76-2.61-1.51-3.74-1.86l3.51-6.01C456.19,180.05,457.29,181.34,458.43,182.83z"/>
						</g>
					</g>
				</g>
			</g>
			<g>
				<g>
					<path class="st14" d="M330.9,29.49c24.93-8.97,61.46-4.41,61.46-4.41c56,10.67,62.67,43.49,62.67,43.49
						c23.95-22.93,31.34,2.06,31.34,2.06c24.36,1.45,26.91,24.18,26.91,24.18c6.42,19.84-9.8,25.3-9.8,25.3
						c-4.16,24-34.77,20.06-34.77,20.06C461.95,92.06,439.23,82,439.23,82c-33.42-27.12-82.79-9.14-82.79-9.14
						c-32.46,7.84-38.05-14.89-38.05-14.89C314.16,40.19,330.9,29.49,330.9,29.49z"/>
				</g>
				<g>
					<path class="st2" d="M315.01,58.78c0.07,0.28,6.83,26.02,42.25,17.46l0.37-0.11c0.48-0.17,47.95-16.97,79.41,8.57l0.36,0.29
						l0.43,0.19c0.18,0.09,21.1,10.26,27.44,55.47l0.37,2.63l2.63,0.34c11.37,1.47,33.49-1.17,38.24-21
						c6.65-3.19,15.34-12.14,10.18-28.56c-1.1-8.56-8.15-24.17-27.36-26.64c-0.17-0.02-0.33-0.04-0.5-0.06
						c-1.5-3.42-5.11-9.62-11.94-11.44c-6.04-1.6-12.84,0.62-20.27,6.62c-4.47-10.27-19.08-32.38-63.61-40.87l-0.11-0.02l-0.11-0.01
						c-1.53-0.19-37.65-4.56-63.07,4.59l-0.37,0.13l-0.33,0.21C328.26,27.05,310.26,38.81,315.01,58.78z M332.48,32.61
						c23.22-8.17,57.19-4.35,59.34-4.1c52.99,10.14,59.74,40.44,59.8,40.74l1.26,6.18l4.56-4.36c7.01-6.71,13.1-9.63,17.64-8.45
						c5.61,1.47,7.94,8.92,7.96,9l0.7,2.32l2.42,0.16c0.79,0.05,1.55,0.12,2.29,0.21c18.94,2.44,21.28,20.1,21.37,20.89l0.15,0.67
						c5.3,16.38-7.07,20.76-7.6,20.94l-1.96,0.66l-0.35,2.04c-2.93,16.87-21.38,17.7-28.31,17.4
						c-6.93-43.96-27.18-56.09-30.64-57.87c-33.81-27.1-81.7-10.93-85.66-9.52c-28.34,6.76-33.47-11.61-33.68-12.4
						C318.43,43.1,330.34,34.1,332.48,32.61z"/>
				</g>
			</g>
			<g>
				<g>
					<path class="st16" d="M333.91,33.38c54.96-13.96,93.63,10.26,93.63,10.26c-12.64-2.18-20.51,2.73-20.51,2.73
						c-15.47,10.45-35.43,4.2-35.43,4.2c5.92,14.06-9.43,7.27-9.43,7.27c2.31,12.35-11.8,11.18-11.8,11.18
						c-10.08,11.4-28.42-10.78-28.42-10.78C315.5,45.67,333.91,33.38,333.91,33.38z"/>
				</g>
			</g>
			<g>
				<g>
					<path class="st16" d="M467.36,63.84c12.48-5.62,15.39,10.53,15.39,10.53c14.28,0.85,20.19,9.06,20.19,9.06
						c14.63,14.3,0.43,22.08,0.43,22.08c-9.53,13.22-18.06-4.08-18.06-4.08c-2.22,12.59-14.89-2.52-14.89-2.52
						c0.88-11.58-16.21-24.27-16.21-24.27C460.22,63.75,467.36,63.84,467.36,63.84z"/>
				</g>
			</g>
			<g>
				<g>
					<path class="st17" d="M333.91,33.38c58.91-12.87,87.66,7.13,87.66,7.13c-37.35-11.91-62.22-2.37-62.22-2.37
						c26.96,10.79,13.91,15.88,13.91,15.88C364.56,38.38,340.71,42,340.71,42c-20.61,3.34-14.31,21.91-14.31,21.91
						C312.25,41.65,333.91,33.38,333.91,33.38z"/>
				</g>
			</g>
			<g>
				<g>
					<path class="st17" d="M481.51,72.24c21.3,3.01,22.94,13.13,22.94,13.13c-10.33-11.38-27.42-5.57-27.42-5.57
						c-6.91-19.23-19.4,3.34-19.4,3.34c-0.23-3.84-3.4-8.52-3.4-8.52C474.16,48.59,481.51,72.24,481.51,72.24z"/>
				</g>
			</g>
			<g>
				<g>
					<path class="st2" d="M352.43,249.81c-2.81-2.3-5.86-4.13-8.94-5.95c-3.1-1.77-6.3-3.34-9.59-4.73
						c-3.29-1.41-6.67-2.62-10.2-3.59c-3.54-0.93-7.16-1.72-11.15-1.83l-0.28-0.01l-0.29,0.03c-1.28,0.14-2.96,0.15-4.45,0.16
						c-1.54-0.01-3.08-0.12-4.6-0.26c-3.05-0.32-6.01-0.9-8.8-1.94l-0.74-0.27l-0.04,0c-1.93-0.19-3.44-0.13-5.11,0.06
						c-1.63,0.17-3.22,0.5-4.77,0.96c-3.09,0.91-5.99,2.41-8.32,4.46c1.55-0.21,3.03-0.44,4.51-0.5c1.47-0.08,2.91-0.09,4.33-0.01
						c1.42,0.07,2.81,0.23,4.18,0.45c1.32,0.23,2.8,0.52,3.81,0.89l-0.78-0.28c1.65,0.95,3.35,1.86,5.12,2.47
						c1.77,0.65,3.57,1.18,5.39,1.52c1.82,0.38,3.66,0.59,5.49,0.71c1.88,0.13,3.59,0.11,5.68-0.05l-0.56,0.02
						c3,0.11,6.28,0.65,9.54,1.27c3.29,0.59,6.6,1.38,9.96,2.12l10.15,2.29C345.43,248.49,348.85,249.28,352.43,249.81z"/>
				</g>
				<g>
					<path class="st2" d="M323.52,257.74c-2.05-1.98-4.5-3.31-7.02-4.37c-2.54-1.04-5.19-1.74-7.9-2.12
						c-2.71-0.38-5.46-0.45-8.19-0.13c-2.72,0.3-5.43,1.02-7.94,2.3c2.73,0.82,5.3,1.21,7.85,1.69c2.55,0.41,5.05,0.81,7.57,1.16
						c2.52,0.34,5.04,0.67,7.61,0.95C318.1,257.48,320.69,257.7,323.52,257.74z"/>
				</g>
			</g>
			<g>
				<g>
					<path class="st10" d="M303.18,145.78c1.05-7.66-11.59-24.33-27.67-11.04c0,0-11.66,10.8-0.46,20.61c0,0,10.47,2.81,16.28,2.58
						C291.33,157.94,301.38,158.97,303.18,145.78z"/>
				</g>
				<g>
					<path class="st2" d="M307.74,155.89c0.92-2.96,1.25-6.05,1.29-9.19c-0.02-3.14-0.41-6.36-1.64-9.55
						c-0.62-1.58-1.42-3.17-2.58-4.61c-1.21-1.58-2.44-2.55-3.78-3.64c-2.71-2.01-5.84-3.65-9.37-4.35
						c-3.52-0.71-7.35-0.38-10.67,0.97c-0.8,0.38-1.64,0.71-2.4,1.14c-0.73,0.45-1.45,0.93-2.16,1.41c-1.79,1.28-2.72,2.64-3.7,4.08
						c-3.65,5.8-4.33,12.46-3.34,18.48c1.93-5.8,4.21-11.26,7.8-15.09c0.44-0.47,0.89-0.92,1.36-1.3c0.47-0.4,0.9-0.75,1.29-0.88
						c0.58-0.28,1.15-0.55,1.71-0.85c0.57-0.25,1.16-0.4,1.73-0.62c2.3-0.69,4.63-0.82,6.98-0.34c2.35,0.43,4.69,1.53,6.89,2.88
						c1.05,0.68,2.25,1.53,2.95,2.25c0.41,0.4,0.82,0.83,1.18,1.34c0.41,0.46,0.74,1.01,1.08,1.56c1.38,2.21,2.37,4.88,3.24,7.64
						C306.48,149.97,307.1,152.88,307.74,155.89z"/>
				</g>
				<g>
					<g>
						<path class="st10" d="M379.66,171.57c0,0,6.35,0.21,8.24,0.23c2.32,0.02,5.58-0.79,6.78-3.98c0,0-0.24-21.74-13.79-26.88
							c-7.68-2.91-22.11-4.58-26.68,16.32l-0.19,1.36C354.03,158.62,351.56,170.43,379.66,171.57z"/>
					</g>
					<g>
						<path class="st2" d="M394.68,167.82c0.91-3.06,1.17-6.26,1.11-9.51c-0.1-3.24-0.69-6.57-2.14-9.8
							c-0.69-1.62-1.72-3.16-2.94-4.59c-1.34-1.46-2.61-2.42-4.04-3.46c-2.84-1.95-6.06-3.5-9.63-4.2c-3.55-0.7-7.37-0.5-10.82,0.68
							l-2.5,1.04c-0.8,0.39-1.53,0.88-2.29,1.33c-0.38,0.25-0.7,0.4-1.24,0.82c-0.42,0.33-0.77,0.65-1.1,0.98
							c-0.65,0.67-1.23,1.36-1.76,2.08c-4.14,5.8-5.03,12.75-4,18.95c1.01-3.02,1.99-5.9,3.37-8.51c1.33-2.61,2.97-4.97,4.88-6.8
							c0.47-0.46,0.97-0.87,1.46-1.24c0.25-0.17,0.49-0.35,0.7-0.47c0.07-0.05,0.47-0.2,0.76-0.34c0.61-0.26,1.21-0.56,1.82-0.8
							l1.84-0.57c2.46-0.6,4.97-0.66,7.48-0.16c2.51,0.45,4.99,1.54,7.35,2.87c1.14,0.66,2.39,1.51,3.25,2.21
							c0.87,0.83,1.77,1.73,2.49,2.86c1.52,2.19,2.68,4.87,3.61,7.7C393.34,161.73,394.02,164.72,394.68,167.82z"/>
					</g>
					<g>
						<g>
							<path class="st2" d="M359.89,154c-2.24,5.61,0.21,11.89,5.48,14.05c5.27,2.15,11.36-0.64,13.61-6.25
								c2.24-5.61-0.21-11.89-5.48-14.05C368.23,145.59,362.13,148.39,359.89,154z"/>
						</g>
						<g>
							<path class="st10" d="M379.15,163.31c0.84-2.1-0.05-4.44-1.98-5.23c-1.93-0.79-4.17,0.27-5.01,2.37
								c-0.84,2.1,0.05,4.44,1.97,5.22C376.07,166.48,378.31,165.41,379.15,163.31z"/>
						</g>
					</g>
				</g>
				<g>
					<g>
						<path class="st2" d="M273.94,141.34c-2.04,5.09,0.19,10.8,4.97,12.75c4.78,1.95,10.31-0.59,12.35-5.67
							c2.04-5.09-0.19-10.79-4.97-12.75C281.51,133.72,275.98,136.26,273.94,141.34z"/>
					</g>
					<g>
						<path class="st10" d="M291.42,149.8c0.76-1.91-0.04-4.03-1.79-4.74c-1.75-0.72-3.79,0.25-4.55,2.15
							c-0.76,1.9,0.04,4.03,1.79,4.74C288.62,152.67,290.66,151.7,291.42,149.8z"/>
					</g>
				</g>
				<g>
					<g>
						<g>
							<path class="st14" d="M416.46,139.02c0,0-9.2-21.94-29.28-31.41c-10.24-4.83-14.78-3.58-39.12,14.27
								c-2.27,1.67-5.77,2.15-12.56-1.21c-2.94-1.45-10.41,1.67,1.76,13.16c0,0,13.22,7.5,19.69,1.15c0,0,25.13-16.19,39.82,2.88
								C396.77,137.86,412.81,154.71,416.46,139.02z"/>
							<path class="st2" d="M394.25,140.26l-0.24-0.28c-11.96-15.54-32.3-3.85-34.93-2.24c-8.3,7.61-22.92-0.54-23.55-0.89
								l-0.36-0.21l-0.31-0.29c-9.1-8.59-8.64-13.79-6.66-16.64c2.09-3,6.21-3.46,8.83-2.17c4.38,2.16,7.39,2.67,8.96,1.52
								c23.37-17.13,30.11-20.54,42.67-14.61c21.04,9.93,30.61,32.27,31.01,33.21l0.44,1.04l-0.26,1.1
								c-1.46,6.24-4.76,8.37-7.27,9.06c-1.05,0.28-2.12,0.36-3.19,0.29C402.61,148.66,395.73,141.82,394.25,140.26z M385.69,110.75
								c-8.16-3.86-11.03-4.08-35.58,13.92c-5.18,3.8-11.7,1.31-16.07-0.86c0,0-0.01,0-0.01,0c0.15,0.78,0.97,3.03,5.29,7.18
								c3.17,1.69,11.6,5.02,15.19,1.5l0.55-0.44c9.59-6.18,31.17-13.36,44.34,3.53c3.15,3.25,8.75,7.27,11.35,6.57
								c0.99-0.27,1.63-1.62,2.02-2.83C410.69,135,401.86,118.38,385.69,110.75z"/>
						</g>
						<g>
							<path class="st16" d="M400.13,128.28c0,0-7.32-14.46-21.4-19.89c-7.19-2.77-11.75,1.02-27.4,14.41
								c-1.46,1.25-9.78,2.39-14.56,0.45c-2.07-0.84-1.58,6.34,9.11,9.32c0,0,6.97,4.36,13.67-4.01c0,0,17.82-10.46,32.62,0.28
								C392.17,128.84,402.49,139.64,400.13,128.28z"/>
						</g>
						<g>
							<path class="st17" d="M345.1,124.86c0,0-7.71-4.77-10.28,0.17c0,0,1.77,9.35,15.93,9.34c0,0,8.51-2.04,4.05-4.82
								c0,0-4.2,0.64-9.37-0.91C345.43,128.64,341.44,127.37,345.1,124.86z"/>
						</g>
					</g>
					<g>
						<g>
							<path class="st14" d="M295.51,111.56c0,0,3.58,4.51,8,4.75c1.92,0.1,4.15-3.02,7.71-0.53c0,0,3.75,13.43-12.38,12.25
								c0,0-8.43-1.67-10.93-5.64c0,0-4.16-6.77-15.36-6.76c0,0-15.69,3.01-11.08-8.24c0,0,6.96-20.45,23.95-7.57
								C285.41,99.83,291.07,106.81,295.51,111.56z"/>
							<path class="st2" d="M298.59,131.51l-0.42-0.06c-1.65-0.33-10.05-2.22-13.19-7.18c-0.14-0.21-3.37-5.03-12.12-5.14
								c-2.32,0.4-10.33,1.4-14.01-3.1c-1.41-1.72-2.66-4.83-0.63-9.85c0.44-1.22,4.13-10.89,12.51-13.45
								c5.22-1.6,10.87-0.14,16.79,4.35l0.33,0.25l0.27,0.33c0.05,0.07,5.64,6.94,9.94,11.54l0.18,0.21
								c0.53,0.67,2.93,3.14,5.22,3.42c0.19-0.07,0.39-0.18,0.6-0.28c1.66-0.79,5.12-2.43,9.16,0.4l1.02,0.71l0.34,1.2
								c0.2,0.73,1.87,7.27-2.14,12.17c-2.81,3.44-7.46,4.95-13.82,4.49C298.6,131.51,298.59,131.51,298.59,131.51z M307.03,118.82
								c-0.98,0.47-2.2,1.04-3.71,0.96c-0.07,0-0.13-0.01-0.19-0.01c-5.42-0.39-9.45-4.96-10.24-5.92
								c-3.95-4.23-8.71-10.02-9.9-11.48c-3.89-2.87-7.32-3.88-10.2-3c-4.44,1.34-7.3,7.08-8.03,9.16l-0.07,0.2
								c-0.75,1.83-0.63,2.69-0.46,2.9c0.75,0.92,4.48,1.21,7.67,0.61l0.65-0.06c13-0.02,18.12,8.07,18.31,8.38
								c1.13,1.78,5.64,3.44,8.47,4.04c2.69,0.17,6.13-0.04,7.71-1.95c1.02-1.23,1.15-2.99,1.07-4.27
								C307.84,118.44,307.52,118.59,307.03,118.82z"/>
						</g>
						<g>
							<path class="st16" d="M286.86,106.58c0,0,4.45,5.26,8.82,10.74c0,0,4.78,3.18-4.59,3.4c0,0-8.65-3.24-10.24-5.97
								c0,0-2.51-2.47-8.98-1.7c0,0-7.26,1.31-5-7.24c0,0,5.63-10.21,13.46-5.11C280.33,100.7,283.3,101.14,286.86,106.58z"/>
						</g>
						<g>
							<path class="st17" d="M272.56,98.88c0,0-6.99-1.09-8.57,11.72c0,0,2.92,5.34,7.71,1.29c0,0-2.65-13.63,11.28-9.61
								C282.97,102.29,274.3,96.67,272.56,98.88z"/>
						</g>
					</g>
				</g>
			</g>
			<g>
				<g>
					<g>
						<path class="st17" d="M316.93,131.86c7.43,14.13-3.45,30.04-3.45,30.04c-17.39,23.08-5.24,29.73-5.24,29.73
							c-8.56,3.85-15.93,4.19-15.93,4.19c-3.81-24.47,15.04-39.51,15.04-39.51C320.93,139.29,316.93,131.86,316.93,131.86z"/>
					</g>
				</g>
				<g>
					<g>
						<path class="st2" d="M341.42,205.31c0.21,0.03,0.48,0.05,0.75,0.07c0.21,0.12,0.43,0.24,0.63,0.36L341.42,205.31z"/>
					</g>
					<g>
						<path class="st2" d="M288.14,171.64l-0.13,0.28c2.33-5.07,5.36-9.54,8.58-13.76c3.22-4.23,6.78-8.11,10.58-11.79l0.77-0.73
							l0.66-0.6c0.46-0.39,0.81-0.81,1.22-1.22c0.74-0.87,1.46-1.76,2.06-2.75c1.2-1.97,2.02-4.23,2.43-6.61
							c0.85-4.78,0.28-9.98-1.25-14.9c2.63,4.47,4.22,9.68,4.17,15.18c-0.06,2.74-0.61,5.53-1.73,8.17
							c-0.56,1.31-1.26,2.57-2.08,3.75c-0.43,0.56-0.86,1.17-1.32,1.68l-0.69,0.78l-0.56,0.67c-3.2,3.87-6.17,7.99-8.91,12.15
							c-2.73,4.17-5.07,8.55-6.82,12.95l-0.13,0.29c-1.07,2.35-2.02,5.16-2.71,7.79c-0.71,2.67-1.12,5.37-1.18,7.93
							c-0.07,2.57,0.3,5,1.19,6.98c0.45,0.99,1,1.89,1.67,2.69c0.64,0.73,1.41,1.36,2.25,1.95c-0.09-0.04-0.2-0.08-0.27-0.12
							l0.47,0.27c-0.07-0.05-0.13-0.1-0.2-0.15c0.53,0.22,1.32,0.51,1.99,0.72c0.84,0.27,1.7,0.51,2.57,0.72
							c1.74,0.41,3.52,0.67,5.3,0.8c3.57,0.25,7.15-0.03,10.59-0.98c0.86-0.23,1.71-0.49,2.55-0.79c0.44-0.14,0.79-0.3,1.18-0.45
							l0.29-0.11l0.6-0.25c0.35-0.13,0.7-0.25,1.03-0.34c2.62-0.74,5.1-0.86,7.52-0.64c4.57,0.43,8.7,2.04,12.35,4.15
							c-0.27-0.02-0.54-0.04-0.75-0.07l1.38,0.43c-0.21-0.13-0.42-0.24-0.63-0.36c0.57,0.04,1.22,0.06,1.79,0.04
							c0.89-0.02,1.78-0.11,2.61-0.26c1.68-0.3,3.17-0.9,4.2-1.79c1.02-0.88,1.76-2.05,2.05-3.67c0.3-1.56,0.22-3.38-0.12-5.23
							c0.03,0.07,0.06,0.14,0.08,0.21l-0.1-0.31c0.01,0.03,0.01,0.07,0.02,0.1c-0.7-1.94-1.85-4.09-3.09-5.97
							c-1.32-1.98-2.9-3.81-4.72-5.37c-1.8-1.58-3.86-2.92-6.13-3.89c-2.26-0.99-4.71-1.61-7.25-1.93c2.54-0.27,5.17-0.15,7.73,0.44
							c2.56,0.6,5.06,1.64,7.35,3.06c2.27,1.44,4.33,3.23,6.14,5.24c1.83,2.05,3.35,4.16,4.65,6.84l0.01,0.03l0.08,0.27
							c0.66,2.2,1.1,4.6,0.91,7.21c-0.15,2.57-1.26,5.48-3.33,7.49c-2.03,2.04-4.57,3.17-6.97,3.81c-1.22,0.33-2.43,0.54-3.64,0.66
							c-1.25,0.12-2.33,0.19-3.78,0.11l-0.54-0.03l-0.84-0.41c-3.3-1.6-6.72-2.74-10.01-2.83c-1.62-0.05-3.26,0.12-4.53,0.56
							c-0.16,0.05-0.29,0.11-0.41,0.15l-0.1,0.05l-0.41,0.19c-0.54,0.24-1.11,0.51-1.63,0.7c-1.05,0.43-2.13,0.82-3.22,1.15
							c-4.37,1.31-8.97,1.85-13.5,1.58c-2.27-0.14-4.51-0.46-6.73-0.95c-1.1-0.25-2.2-0.54-3.3-0.89c-1.14-0.38-2.08-0.7-3.42-1.32
							l-0.25-0.12l-0.22-0.15c-1.58-1.07-3.08-2.32-4.36-3.82c-1.26-1.51-2.29-3.21-3.04-4.99c-1.47-3.59-1.82-7.3-1.65-10.74
							c0.18-3.46,0.9-6.74,1.86-9.86C285.35,177.56,286.53,174.7,288.14,171.64z"/>
					</g>
					<g>
						<path class="st2" d="M295.92,202.42c0.08,0.04,0.18,0.08,0.27,0.12c0.07,0.05,0.13,0.1,0.2,0.15L295.92,202.42z"/>
					</g>
					<g>
						<path class="st2" d="M352.78,194.68c-0.02-0.07-0.05-0.14-0.08-0.21c-0.01-0.03-0.01-0.07-0.02-0.1L352.78,194.68z"/>
					</g>
				</g>
			</g>
		</g>
	</g>
</g>
</svg>
