<?xml version="1.0" encoding="utf-8"?>
<!-- Generator: Adobe Illustrator 28.5.0, SVG Export Plug-In . SVG Version: 9.03 Build 54727)  -->
<svg version="1.0" id="Layer_1" xmlns="http://www.w3.org/2000/svg" xmlns:xlink="http://www.w3.org/1999/xlink" x="0px" y="0px"
	 viewBox="0 0 150 150" style="enable-background:new 0 0 150 150;" xml:space="preserve">
<style type="text/css">
	.st0{fill:#C1756B;}
	.st1{fill:#673956;}
	.st2{fill:#E59791;}
	.st3{fill:#557EBC;}
	.st4{fill:#333B4F;}
	.st5{fill:#96C6ED;}
	.st6{fill:#FFFFFF;}
	.st7{fill:#C74C44;}
	.st8{fill:#70220D;}
	.st9{fill:#F7CE03;}
	.st10{fill:#3E9672;}
	.st11{fill:#4C2F39;}
	.st12{fill:#8BEAC1;}
	.st13{fill:#9483AB;}
	.st14{fill:#CCC7CA;}
	.st15{fill:#634A46;}
	.st16{fill:#382823;}
	.st17{fill:#2B1E1A;}
	.st18{fill:#19100E;}
	.st19{fill:#95404B;}
	.st20{fill:#C6705C;}
	.st21{fill:#685963;}
	.st22{fill:#EAA498;}
	.st23{fill:#FFCAA6;}
	.st24{fill:#A55C56;}
	.st25{fill:#796C5C;}
	.st26{fill:#9B7F65;}
	.st27{fill:#C3B388;}
	.st28{fill:#E7DEA4;}
	.st29{fill:#635554;}
	.st30{fill:#698C5A;}
	.st31{fill:#9CCA70;}
</style>
<g>
	<g>
		<g>
			<path class="st0" d="M73.57,106.37c0,0,0.06,1.97,0.39,3.79c0,0,0.44,1.69-0.74,1.97c0,0-5.53-0.08-5.85-0.08
				c0,0-1.09,0.01-1.42-0.26c0,0-1.05-1.27,2.13-2.77l0.53-0.59l-1.56-7.09l6.28-0.51L73.57,106.37z"/>
			<path class="st1" d="M73.22,112.5c-0.06,0-5.53-0.08-5.84-0.08c-0.29,0-1.26-0.01-1.67-0.35l-0.05-0.05
				c-0.04-0.05-0.36-0.46-0.22-1.1c0.18-0.79,0.99-1.54,2.41-2.22l0.35-0.39l-1.61-7.32l7.11-0.58l0.26,5.94l0,0.01
				c0,0.02,0.06,1.95,0.38,3.72c0.04,0.17,0.25,1.12-0.16,1.8c-0.19,0.31-0.49,0.53-0.86,0.61l-0.04,0.01L73.22,112.5z
				 M72.97,101.23l-5.46,0.45l1.51,6.86l-0.71,0.79l-0.07,0.03c-1.6,0.75-1.97,1.4-2.05,1.71c-0.06,0.22,0.01,0.38,0.04,0.45
				c0.17,0.09,0.69,0.16,1.15,0.15c0.31,0,5.22,0.07,5.8,0.08c0.16-0.04,0.27-0.13,0.34-0.25c0.22-0.37,0.13-1.02,0.07-1.24
				l-0.01-0.03c-0.33-1.81-0.39-3.73-0.4-3.84L72.97,101.23z"/>
		</g>
		<g>
			<path class="st2" d="M71.03,104.93v3.56c0,0-0.8-0.37-1.75-0.2l-1.2-4.43C68.09,103.85,70.51,102.35,71.03,104.93z"/>
		</g>
		<g>
			<path class="st2" d="M66.29,110.89c0,0,1.62-1.84,2.72-1.79c0,0,2.42-0.43,3.24,1.67c0,0,0.22,0.99-5.13,0.69
				C67.12,111.46,65.96,111.36,66.29,110.89z"/>
		</g>
		<g>
			<g>
				<path class="st3" d="M73.67,106.62c0,0-1.61,0.38-5.59,0l0.14,2.18c0,0,1.68,0.65,5.48,0.07L73.67,106.62z"/>
				<path class="st4" d="M68.09,109.16l-0.23-0.09l-0.19-2.87l0.44,0.04c3.82,0.36,5.43,0.01,5.47,0.01l0.46-0.11l0.05,3.06
					l-0.33,0.05c-1.19,0.18-2.17,0.24-2.97,0.24C69,109.5,68.15,109.18,68.09,109.16z M73.3,107.07c-0.7,0.09-2.22,0.19-4.81-0.03
					l0.1,1.48c0.54,0.13,2.07,0.4,4.74,0.03L73.3,107.07z"/>
			</g>
			<g>
				<path class="st5" d="M68.52,107.22c0,0,1.98,0.23,3.76,0.17c0,0-0.87,1.37-2.18,1.3l-1.5-0.07L68.52,107.22z"/>
			</g>
		</g>
		<g>
			<path class="st6" d="M69.92,107.22c0,0-1.02-0.01-1.58-0.19l0.28,1.59C68.61,108.62,70.11,108.69,69.92,107.22z"/>
		</g>
	</g>
	<g>
		<g>
			<path class="st0" d="M86.44,106.37c0,0,0.06,1.97,0.39,3.79c0,0,0.44,1.69-0.74,1.97c0,0-5.53-0.08-5.85-0.08
				c0,0-1.09,0.01-1.42-0.26c0,0-1.05-1.27,2.13-2.77l0.53-0.59l-1.56-7.09l6.28-0.51L86.44,106.37z"/>
			<path class="st1" d="M86.09,112.5c-0.06,0-5.53-0.08-5.84-0.08c-0.29,0-1.26-0.01-1.67-0.35l-0.05-0.05
				c-0.04-0.05-0.36-0.46-0.22-1.1c0.18-0.79,0.99-1.54,2.41-2.22l0.35-0.39l-1.61-7.32l7.11-0.58l0.26,5.94v0.01
				c0,0.02,0.06,1.95,0.38,3.72c0.04,0.17,0.25,1.12-0.16,1.8c-0.19,0.31-0.49,0.53-0.86,0.61l-0.04,0.01L86.09,112.5z
				 M85.84,101.23l-5.46,0.45l1.51,6.86l-0.71,0.79l-0.07,0.03c-1.6,0.75-1.97,1.4-2.05,1.71c-0.06,0.22,0.01,0.38,0.04,0.45
				c0.17,0.09,0.68,0.16,1.15,0.15c0.31,0,5.22,0.07,5.8,0.08c0.16-0.04,0.27-0.13,0.34-0.25c0.22-0.37,0.13-1.02,0.07-1.24
				l-0.01-0.03c-0.33-1.81-0.39-3.73-0.4-3.84L85.84,101.23z"/>
		</g>
		<g>
			<path class="st2" d="M83.9,104.93v3.56c0,0-0.8-0.37-1.75-0.2l-1.2-4.43C80.96,103.85,83.38,102.35,83.9,104.93z"/>
		</g>
		<g>
			<path class="st2" d="M79.16,110.89c0,0,1.62-1.84,2.72-1.79c0,0,2.42-0.43,3.24,1.67c0,0,0.22,0.99-5.13,0.69
				C79.99,111.46,78.83,111.36,79.16,110.89z"/>
		</g>
		<g>
			<g>
				<path class="st3" d="M86.54,106.62c0,0-1.61,0.38-5.59,0l0.14,2.18c0,0,1.68,0.65,5.48,0.07L86.54,106.62z"/>
				<path class="st4" d="M80.96,109.16l-0.23-0.09l-0.19-2.87l0.44,0.04c3.82,0.36,5.43,0.01,5.47,0.01l0.46-0.11l0.05,3.06
					l-0.33,0.05c-1.19,0.18-2.17,0.24-2.97,0.24C81.87,109.5,81.01,109.18,80.96,109.16z M86.17,107.07
					c-0.7,0.09-2.22,0.19-4.81-0.03l0.1,1.48c0.54,0.13,2.07,0.4,4.74,0.03L86.17,107.07z"/>
			</g>
			<g>
				<path class="st5" d="M81.39,107.22c0,0,1.98,0.23,3.76,0.17c0,0-0.87,1.37-2.18,1.3l-1.5-0.07L81.39,107.22z"/>
			</g>
		</g>
		<g>
			<path class="st6" d="M82.6,107.22c0,0-0.83-0.01-1.39-0.19l0.09,1.59C81.29,108.62,82.79,108.69,82.6,107.22z"/>
		</g>
	</g>
	<g>
		<g>
			<path class="st2" d="M70.36,84.02c0,0,1.56-1.17,2.07,2.39c0,0-0.47,2.71-2.01,4.44c0,0-3.17,1.82-3.78,2.13
				c0,0-0.33-1.66-2.17-2.35c0,0,3.31-1.49,3.57-1.83c0,0,0.98-1.96,1.55-3.64C69.58,85.15,69.82,84.21,70.36,84.02z"/>
		</g>
		<g>
			<g>
				<path class="st0" d="M71.86,92.33c0,0-2.71,2.66-6.91,4.07c0,0-0.11-3.67-2.62-5.12c0,0,2.82-1.34,5.1-2.53
					c0.81-0.42,1.32-3.03,2.14-4.62c0.95-1.84,4.91-1.67,4.8,1.61C74.36,86.19,74.04,89.96,71.86,92.33z"/>
				<path class="st1" d="M64.57,96.41c0-0.03-0.13-3.47-2.43-4.8l-0.62-0.36l0.65-0.31c0.03-0.01,2.84-1.35,5.09-2.52
					c0.37-0.19,0.79-1.37,1.12-2.32c0.26-0.74,0.53-1.51,0.86-2.14c0.56-1.08,2.01-1.63,3.37-1.27c1.39,0.36,2.19,1.51,2.14,3.07
					c0,0.04-0.21,4.23-2.61,6.83l-0.01,0.01c-0.11,0.11-2.83,2.73-7.05,4.16l-0.48,0.16L64.57,96.41z M73.99,85.73
					c0.06-1.7-1.08-2.18-1.57-2.31c-1.02-0.26-2.12,0.13-2.51,0.89c-0.3,0.58-0.56,1.33-0.82,2.04c-0.46,1.29-0.85,2.41-1.48,2.74
					c-1.64,0.86-3.57,1.79-4.52,2.25c1.64,1.32,2.08,3.54,2.2,4.54c3.71-1.37,6.16-3.68,6.3-3.81
					C73.8,89.66,73.99,85.76,73.99,85.73z"/>
			</g>
			<g>
				<g>
					<g>
						<path class="st3" d="M67.28,95.59c0,0,0.44-3.48-2.62-5.59l-3.45,1.39c0,0,2.98,1.81,3.08,5.75
							C64.29,97.14,66.21,96.25,67.28,95.59z"/>
						<path class="st4" d="M63.92,97.15c-0.1-3.67-2.79-5.36-2.9-5.43l-0.65-0.39l4.34-1.75l0.17,0.12c3.2,2.22,2.8,5.8,2.78,5.95
							l-0.02,0.18l-0.15,0.1c-1.07,0.66-2.94,1.53-3.02,1.57l-0.52,0.24L63.92,97.15z M64.61,90.43l-2.63,1.06
							c0.86,0.72,2.4,2.36,2.66,5.07c0.59-0.28,1.58-0.77,2.28-1.19C66.95,94.67,66.92,92.14,64.61,90.43z"/>
					</g>
					<g>
						<path class="st5" d="M64.63,90.51c0,0,3.34,3.46-0.14,5.31c0,0-0.29-2.43-2.39-4.23L64.63,90.51z"/>
					</g>
				</g>
				<g>
					<path class="st6" d="M61.97,91.65l2.61-1.17c0,0,1.67,1.52-0.45,3.96C64.12,94.43,63.21,92.88,61.97,91.65z"/>
				</g>
			</g>
		</g>
	</g>
	<g>
		<g>
			<g>
				<path class="st0" d="M66.47,94.73c1.19,1.14,6.72,1.25,6.72,1.25s-7.9-1.77,0,0c7.9,1.77,15-2.32,15-2.32s-0.13,0.29,0,0
					c0.13-0.29-0.74-5.2-0.74-5.2s-0.85-4.48-5.37-7.25c0,0-7.86,3.73-12.28,0.11c0,0-4.08,1.77-4.22,12.76l0.88,0.8l-1.05-0.33
					C65.41,94.55,66.44,94.7,66.47,94.73z"/>
				<path class="st1" d="M73.14,96.35c-0.65-0.01-4.57-0.13-6.35-0.97l-1.5-0.47l0.11-0.48l-0.21-0.19l0-0.17
					c0.14-11.11,4.27-13.03,4.44-13.11l0.21-0.09l0.18,0.15c4.18,3.43,11.8-0.12,11.88-0.16l0.19-0.09l0.17,0.11
					c4.61,2.83,5.51,7.31,5.55,7.5c0.46,2.61,0.65,3.93,0.72,4.62L89,92.75l-0.52,1.19l-0.17-0.07l0.07,0.12
					c-0.24,0.14-4.98,2.82-11.05,2.82C75.99,96.8,74.58,96.67,73.14,96.35z M87.08,88.53c-0.01-0.04-0.86-4.24-5.03-6.89
					C80.8,82.2,74,84.98,69.76,81.78c-0.77,0.52-3.66,3.09-3.8,12.14l0.45,0.41c0.24,0.05,0.27,0.08,0.33,0.13
					c0.43,0.42,1.63,0.69,2.91,0.87l0.11-0.5l3.51,0.79c6.98,1.56,13.41-1.58,14.55-2.18C87.78,92.78,87.43,90.54,87.08,88.53z"/>
			</g>
			<g>
				<path class="st2" d="M77.57,88.13c0,0-4.74,0.52-10.38-2.21c0,0-0.98,3.46,0.22,7.53c0,0,6.35,2.03,11.49,0.91
					C78.91,94.36,82.2,89.02,77.57,88.13z"/>
			</g>
		</g>
		<g>
			<path class="st7" d="M84,82.89c0,0-4.02,5.51-9.86,5.52c0,0-5.47-0.07-6.26-4.22c0,0-0.4-0.71,0.49-2.31c0,0-0.04-1.17-1.13,0.24
				c0,0-1.22,2.63,0.98,5.3c0,0,3.28,4.05,10.41,1.46c0,0,4.51-1.8,6.88-5.9c0,0,0.62-0.57,0.05-1.13
				C85.57,81.86,84.9,81.25,84,82.89z"/>
			<path class="st8" d="M68.01,87.6c-2.29-2.77-1.07-5.49-1.02-5.6l0.03-0.05c0.5-0.65,0.88-0.89,1.22-0.78
				c0.38,0.12,0.42,0.61,0.42,0.71l0,0.08l-0.04,0.07c-0.79,1.4-0.49,2.03-0.49,2.03l0,0l0.02,0.04l0.01,0.05
				c0.74,3.87,5.93,3.99,5.98,3.99c5.48-0.01,9.39-5.09,9.62-5.39c0.42-0.76,0.86-1.18,1.33-1.26c0.39-0.07,0.64,0.15,0.68,0.18
				c0.21,0.21,0.32,0.47,0.32,0.73c-0.01,0.38-0.25,0.67-0.35,0.77c-2.4,4.11-6.81,5.91-7.01,5.99c-1.74,0.63-3.26,0.87-4.57,0.87
				C70.03,90.02,68.03,87.63,68.01,87.6z M85.18,82.04c-0.16,0.03-0.49,0.19-0.93,0.99l-0.02,0.03c-0.17,0.23-4.17,5.63-10.09,5.64
				c-0.06,0-5.68-0.12-6.53-4.41c-0.09-0.21-0.32-1,0.47-2.46c-0.01-0.04-0.02-0.08-0.03-0.1c-0.07,0.03-0.24,0.14-0.57,0.55
				c-0.11,0.27-0.99,2.61,0.95,4.97c0.03,0.04,3.23,3.86,10.09,1.38c0.04-0.02,4.45-1.82,6.74-5.78l0.02-0.04l0.03-0.03
				c0,0,0.19-0.19,0.2-0.4c0-0.11-0.05-0.21-0.14-0.31c0,0-0.05-0.04-0.14-0.04C85.22,82.03,85.2,82.03,85.18,82.04z"/>
		</g>
		<g>
			<path class="st9" d="M67.04,83.28c0,0-0.11,3.23,2.14,4.64c0,0-0.07-0.2,0.38-0.27C69.56,87.65,67.67,86.82,67.04,83.28z"/>
		</g>
		<g>
			<path class="st9" d="M81.81,85.78c0.08-0.09-2.56,2.08-6.5,2.81c0,0-0.07,0.38,0.77,0.32C76.09,88.91,79.37,88.39,81.81,85.78z"
				/>
		</g>
		<g>
			<g>
				<g>
					<g>
						<path class="st10" d="M74.74,96.17c0,0-3.05,3.86-2.24,7.55c0,0,0.28,2.02,2.46,2.19c0,0,2.79,0.1,3.02-2.52
							c0,0,0.91-3.37-1.71-7.09L74.74,96.17z"/>
						<path class="st11" d="M74.93,106.29c-1.96-0.15-2.69-1.7-2.8-2.5c-0.83-3.82,2.19-7.69,2.32-7.86l0.13-0.16l1.9,0.17l0.1,0.14
							c2.58,3.66,1.87,6.98,1.77,7.37c-0.21,2.26-2.19,2.84-3.31,2.84C75,106.29,74.97,106.29,74.93,106.29z M74.92,96.56
							c-0.54,0.75-2.72,4.02-2.05,7.08l0.01,0.03c0.01,0.07,0.27,1.72,2.1,1.87c0.1,0,2.43,0.05,2.63-2.18l0.01-0.07
							c0.01-0.03,0.81-3.15-1.55-6.63L74.92,96.56z"/>
					</g>
					<g>
						<path class="st12" d="M75.73,96.53c0,0-0.82,2.76-0.73,9c0,0,2.72-0.22,2.61-2.74C77.61,102.8,78.43,99.39,75.73,96.53z"/>
					</g>
					<g>
						<path class="st9" d="M72.62,103.54c0,0,1.19-1.3,2.49-1.87c0,0,1.51,0.69,2.65,1.79c0,0,0.13-0.46,0.08-1.25
							c0,0-1.46-1.42-2.71-1.69c0,0-1.4,0.41-2.58,1.75C72.55,102.28,72.5,102.7,72.62,103.54z"/>
					</g>
					<g>
						<path class="st9" d="M72.83,100.48c0,0,1.28-0.99,2.42-1.38c0,0,1.66,0.68,2.57,1.62c0,0,0.04-0.37-0.17-1.13
							c0,0-1.29-1.15-2.33-1.42c0,0-1,0.2-2.07,1.23C73.24,99.38,73.1,99.62,72.83,100.48z"/>
					</g>
				</g>
				<g>
					<path class="st11" d="M75.16,96.27c-0.07,0.7-0.11,1.4-0.15,2.1c-0.04,0.7-0.06,1.4-0.07,2.1c-0.01,0.7-0.02,1.4-0.01,2.1
						c0.01,0.7,0.03,1.4,0.06,2.1c0.01-0.7,0.03-1.4,0.06-2.09c0.03-0.7,0.08-1.39,0.13-2.09c0.05-0.7,0.12-1.39,0.19-2.08
						c0.08-0.69,0.16-1.39,0.26-2.07L75.16,96.27z"/>
				</g>
			</g>
			<g>
				<g>
					<g>
						<path class="st10" d="M71.14,95.93c0,0-3.4,3.88-2.94,7.6c0,0,0.08,2.04,2.24,2.21c0,0,2.76,0.1,3.24-2.53
							c0,0,1.22-3.39-1.03-7.14L71.14,95.93z"/>
						<path class="st11" d="M70.41,106.11c-1.95-0.16-2.54-1.73-2.58-2.56c-0.46-3.84,2.89-7.72,3.03-7.88l0.13-0.15l1.88,0.18
							l0.1,0.16c2.23,3.71,1.2,7.05,1.07,7.43c-0.42,2.24-2.41,2.82-3.52,2.82C70.48,106.11,70.45,106.11,70.41,106.11z
							 M71.31,96.32c-0.59,0.73-3.11,4.04-2.73,7.16l0,0.03c0,0.07,0.11,1.71,1.87,1.85c0.1,0,2.44,0.06,2.85-2.22l0.02-0.06
							c0.01-0.03,1.1-3.16-0.9-6.65L71.31,96.32z"/>
					</g>
					<g>
						<path class="st12" d="M72.09,96.3c0,0-1.07,2.78-1.57,9.06c0,0,2.73-0.22,2.85-2.75C73.37,102.61,74.5,99.17,72.09,96.3z"/>
					</g>
					<g>
						<path class="st9" d="M68.34,103.35c0,0,1.3-1.31,2.65-1.87c0,0,1.43,0.7,2.46,1.8c0,0,0.17-0.47,0.19-1.26
							c0,0-1.32-1.44-2.53-1.71c0,0-1.43,0.41-2.73,1.76C68.39,102.07,68.3,102.5,68.34,103.35z"/>
					</g>
					<g>
						<path class="st9" d="M68.83,100.26c0,0,1.36-0.99,2.53-1.39c0,0,1.58,0.68,2.4,1.63c0,0,0.07-0.37-0.06-1.14
							c0,0-1.17-1.16-2.18-1.44c0,0-1.01,0.2-2.17,1.23C69.35,99.16,69.19,99.4,68.83,100.26z"/>
					</g>
				</g>
				<g>
					<path class="st11" d="M71.54,96.03c-0.13,0.71-0.24,1.41-0.34,2.11c-0.1,0.7-0.19,1.41-0.27,2.11
						c-0.08,0.7-0.15,1.41-0.21,2.11c-0.06,0.7-0.1,1.41-0.14,2.11c0.08-0.7,0.16-1.41,0.26-2.11c0.1-0.7,0.21-1.4,0.32-2.1
						c0.12-0.7,0.25-1.4,0.39-2.1c0.14-0.7,0.29-1.4,0.46-2.09L71.54,96.03z"/>
				</g>
			</g>
			<g>
				<g>
					<g>
						<path class="st10" d="M67.13,94.68c0,0-3.66,3.82-3.49,7.58c0,0-0.07,2.05,2.05,2.29c0,0,2.73,0.18,3.4-2.47
							c0,0,1.47-3.39-0.47-7.22L67.13,94.68z"/>
						<path class="st11" d="M65.64,104.92c-1.94-0.21-2.41-1.83-2.38-2.66c-0.16-3.87,3.44-7.68,3.6-7.84l0.13-0.14l1.87,0.23
							l0.09,0.18c1.93,3.8,0.65,7.14,0.5,7.51c-0.57,2.17-2.49,2.73-3.6,2.73C65.77,104.93,65.7,104.92,65.64,104.92z M67.27,95.08
							c-0.63,0.71-3.4,4-3.26,7.16l0,0.02l0,0.02c0,0.07-0.04,1.71,1.69,1.9c0.1,0.01,2.42,0.12,3.01-2.18l0.02-0.06
							c0.01-0.03,1.32-3.17-0.38-6.72L67.27,95.08z"/>
					</g>
					<g>
						<path class="st12" d="M68.04,95.07c0,0-1.28,2.77-2.25,9.09c0,0,2.72-0.15,3.03-2.69C68.82,101.47,70.21,98.04,68.04,95.07z"
							/>
					</g>
					<g>
						<path class="st9" d="M63.78,102.08c0,0,1.39-1.29,2.77-1.82c0,0,1.37,0.75,2.3,1.88c0,0,0.2-0.47,0.29-1.26
							c0,0-1.2-1.48-2.38-1.79c0,0-1.45,0.38-2.84,1.7C63.93,100.79,63.81,101.23,63.78,102.08z"/>
					</g>
					<g>
						<path class="st9" d="M64.51,98.98c0,0,1.42-0.96,2.61-1.33c0,0,1.51,0.73,2.25,1.71c0,0,0.1-0.37,0.03-1.15
							c0,0-1.07-1.2-2.05-1.51c0,0-1.02,0.17-2.25,1.18C65.1,97.89,64.93,98.12,64.51,98.98z"/>
					</g>
				</g>
				<g>
					<path class="st11" d="M67.51,94.79c-0.18,0.71-0.35,1.41-0.5,2.12c-0.15,0.71-0.3,1.41-0.43,2.12
						c-0.13,0.71-0.26,1.42-0.37,2.12c-0.11,0.71-0.21,1.42-0.3,2.12c0.13-0.71,0.27-1.41,0.42-2.12c0.15-0.7,0.31-1.41,0.48-2.11
						c0.17-0.7,0.35-1.4,0.55-2.1c0.19-0.7,0.39-1.4,0.61-2.09L67.51,94.79z"/>
				</g>
			</g>
			<g>
				<g>
					<g>
						<path class="st10" d="M85.5,95.17c0,0-1.73,4.33-0.16,7.64c0,0,0.71,1.85,2.63,1.52c0,0,2.43-0.53,2.01-3.06
							c0,0-0.01-3.39-3.13-6.32L85.5,95.17z"/>
						<path class="st11" d="M84.98,102.97c-1.61-3.42,0.09-7.75,0.16-7.93l0.08-0.2l1.74-0.27l0.14,0.13
							c3.08,2.89,3.24,6.18,3.25,6.56c0.36,2.26-1.35,3.25-2.32,3.47c-0.17,0.03-0.34,0.04-0.5,0.04
							C86.09,104.76,85.25,103.63,84.98,102.97z M85.77,95.51c-0.3,0.87-1.39,4.41-0.1,7.14l0.01,0.03c0.02,0.06,0.62,1.56,2.2,1.29
							c0.08-0.02,2.07-0.48,1.72-2.63l-0.01-0.06c0-0.03-0.04-3.16-2.88-5.92L85.77,95.51z"/>
					</g>
					<g>
						<path class="st12" d="M86.43,95.3c0,0-0.06,2.79,1.48,8.67c0,0,2.3-0.82,1.61-3.17C89.52,100.8,89.43,97.39,86.43,95.3z"/>
					</g>
					<g>
						<path class="st9" d="M85.4,102.62c0,0,0.72-1.5,1.71-2.32c0,0,1.46,0.32,2.7,1.1c0,0,0-0.47-0.23-1.2c0,0-1.59-1.02-2.73-0.99
							c0,0-1.11,0.71-1.82,2.23C85.03,101.44,85.1,101.86,85.4,102.62z"/>
					</g>
					<g>
						<path class="st9" d="M84.85,99.68c0,0,0.87-1.22,1.76-1.85c0,0,1.59,0.27,2.6,0.96c0,0-0.05-0.36-0.41-1.03
							c0,0-1.38-0.8-2.34-0.83c0,0-0.82,0.41-1.5,1.62C84.95,98.55,84.89,98.8,84.85,99.68z"/>
					</g>
				</g>
				<g>
					<path class="st11" d="M85.87,95.18c0.11,0.68,0.23,1.35,0.37,2.02c0.13,0.67,0.28,1.34,0.43,2c0.15,0.66,0.31,1.33,0.48,1.99
						c0.17,0.66,0.35,1.32,0.54,1.97c-0.15-0.66-0.3-1.33-0.44-1.99c-0.14-0.67-0.26-1.33-0.38-2s-0.22-1.34-0.32-2.01
						c-0.1-0.67-0.19-1.35-0.26-2.02L85.87,95.18z"/>
				</g>
			</g>
			<g>
				<g>
					<g>
						<path class="st10" d="M81.17,95.97c0,0-1.39,4.56,0.39,7.71c0,0,0.84,1.78,2.71,1.22c0,0,2.35-0.82,1.76-3.32
							c0,0-0.25-3.41-3.55-5.98L81.17,95.97z"/>
						<path class="st11" d="M81.22,103.85c-1.83-3.25-0.48-7.8-0.42-7.99l0.06-0.2l1.69-0.48l0.15,0.12
							c3.25,2.54,3.65,5.84,3.69,6.22c0.51,2.22-1.09,3.41-2.02,3.74c-0.29,0.09-0.56,0.12-0.81,0.12
							C82.32,105.39,81.51,104.45,81.22,103.85z M85.66,101.67l-0.01-0.06c0-0.03-0.27-3.17-3.25-5.6l-0.92,0.26
							c-0.23,0.89-1.06,4.6,0.41,7.22l0.01,0.03c0.03,0.06,0.71,1.47,2.24,1.02C84.31,104.48,86.15,103.75,85.66,101.67z"/>
					</g>
					<g>
						<path class="st12" d="M82.1,95.99c0,0,0.15,2.82,2.09,8.55c0,0,2.2-1.09,1.35-3.38C85.54,101.16,85.2,97.74,82.1,95.99z"/>
					</g>
					<g>
						<path class="st9" d="M81.61,103.48c0,0,0.6-1.59,1.52-2.54c0,0,1.47,0.15,2.74,0.78c0,0-0.03-0.47-0.31-1.18
							c0,0-1.64-0.84-2.76-0.67c0,0-1.04,0.84-1.63,2.46C81.17,102.33,81.26,102.74,81.61,103.48z"/>
					</g>
					<g>
						<path class="st9" d="M80.86,100.58c0,0,0.77-1.33,1.6-2.07c0,0,1.58,0.08,2.63,0.65c0,0-0.08-0.35-0.48-0.99
							c0,0-1.41-0.64-2.37-0.55c0,0-0.77,0.51-1.36,1.81C80.88,99.43,80.83,99.7,80.86,100.58z"/>
					</g>
				</g>
				<g>
					<path class="st11" d="M81.54,95.93c0.16,0.67,0.33,1.33,0.51,1.99c0.18,0.66,0.37,1.31,0.57,1.96c0.2,0.65,0.4,1.3,0.62,1.94
						c0.21,0.64,0.44,1.28,0.68,1.92c-0.2-0.65-0.39-1.3-0.58-1.95c-0.18-0.65-0.35-1.31-0.52-1.97c-0.16-0.66-0.32-1.32-0.46-1.99
						c-0.14-0.66-0.28-1.33-0.4-2L81.54,95.93z"/>
				</g>
			</g>
			<g>
				<g>
					<g>
						<path class="st10" d="M77.98,96.3c0,0-2.01,4.28-0.74,7.8c0,0,0.55,1.95,2.44,1.79c0,0,2.4-0.33,2.18-2.95
							c0,0,0.25-3.47-2.57-6.73L77.98,96.3z"/>
						<path class="st11" d="M76.88,104.22c-1.3-3.62,0.67-7.89,0.75-8.07l0.09-0.2l1.73-0.13l0.12,0.14
							c2.78,3.22,2.68,6.6,2.66,6.98c0.18,2.33-1.56,3.2-2.51,3.33l-0.02,0c-0.09,0.01-0.17,0.01-0.25,0.01
							C77.9,106.28,77.09,104.96,76.88,104.22z M81.49,102.97l0-0.03l0-0.03c0-0.03,0.19-3.26-2.35-6.31l-0.9,0.07
							c-0.36,0.87-1.69,4.4-0.64,7.31L77.6,104c0.02,0.07,0.48,1.65,2.04,1.52C79.8,105.49,81.67,105.16,81.49,102.97z"/>
					</g>
					<g>
						<path class="st12" d="M78.88,96.52c0,0-0.27,2.85,0.78,9c0,0,2.29-0.63,1.8-3.1C81.46,102.41,81.63,98.92,78.88,96.52z"/>
					</g>
					<g>
						<path class="st9" d="M77.31,103.91c0,0,0.81-1.47,1.84-2.22c0,0,1.4,0.46,2.54,1.36c0,0,0.03-0.48-0.13-1.24
							c0,0-1.47-1.18-2.58-1.25c0,0-1.13,0.62-1.93,2.12C77.05,102.67,77.08,103.1,77.31,103.91z"/>
					</g>
					<g>
						<path class="st9" d="M77.01,100.85c0,0,0.94-1.17,1.85-1.73c0,0,1.52,0.41,2.45,1.2c0,0-0.03-0.37-0.32-1.09
							c0,0-1.28-0.94-2.22-1.05c0,0-0.82,0.35-1.58,1.53C77.19,99.71,77.11,99.96,77.01,100.85z"/>
					</g>
				</g>
				<g>
					<path class="st11" d="M78.34,96.34c0.05,0.7,0.12,1.4,0.2,2.09c0.08,0.7,0.17,1.39,0.26,2.08c0.1,0.69,0.2,1.38,0.32,2.07
						c0.11,0.69,0.24,1.38,0.38,2.06c-0.1-0.69-0.19-1.38-0.27-2.08c-0.08-0.69-0.15-1.39-0.22-2.08c-0.06-0.69-0.12-1.39-0.16-2.09
						c-0.04-0.7-0.08-1.39-0.1-2.09L78.34,96.34z"/>
				</g>
			</g>
			<g>
				<g>
					<path class="st3" d="M65.25,98.13c0,0,11.13,4.71,23.13-0.5c0,0,0.45-0.54,0.43-0.96c0,0-0.07-2.58-0.18-3.14
						c-0.09-0.47-0.29-0.62-0.7-0.29c0,0-6.01,4.82-22.32,0.84c0,0-0.18-1-0.72,0.02C64.88,94.09,64.42,98.06,65.25,98.13z"/>
					<path class="st4" d="M65.15,98.49c-0.12-0.02-0.26-0.09-0.39-0.24c-0.6-0.73-0.34-3.4-0.25-4.21l0.01-0.07l0.03-0.06
						c0.1-0.2,0.38-0.72,0.84-0.65c0.28,0.04,0.43,0.29,0.51,0.5c15.73,3.79,21.73-0.77,21.78-0.82c0.3-0.24,0.58-0.31,0.82-0.22
						c0.38,0.14,0.46,0.59,0.49,0.74c0.11,0.57,0.18,2.93,0.18,3.19c0.03,0.55-0.43,1.11-0.52,1.22l-0.06,0.07l-0.08,0.04
						c-4.3,1.87-8.51,2.47-12.15,2.47C70.19,100.44,65.66,98.7,65.15,98.49z M88.42,96.67c-0.02-0.71-0.09-2.64-0.17-3.08
						c-0.01-0.05-0.02-0.09-0.03-0.11c-0.02,0.01-0.04,0.03-0.07,0.05c-0.25,0.2-6.34,4.89-22.65,0.91l-0.24-0.06l-0.03-0.14
						c-0.18,1.62-0.14,3.21,0.08,3.51l0.07,0.03c0.11,0.05,11.06,4.56,22.74-0.47C88.27,97.13,88.43,96.84,88.42,96.67z"/>
				</g>
				<g>
					<path class="st5" d="M65.03,94.63c0.52-0.73,0.69,0,0.69,0c14.92,3.24,21.6-0.47,21.6-0.47c0.11-0.06,0.2,0.08,0.28,0.07
						c-0.18,1.27-0.54,3.23-2.95,4.41c-12.96,2.69-19.26-0.87-19.26-0.87C64.59,97.71,65.03,94.63,65.03,94.63z"/>
				</g>
				<g>
					<path class="st6" d="M86.41,94.56c0,0-7.99,3.02-20.5,0.08c0,0-0.62-0.08-0.79,0.25c0,0-0.38,1.08,0.1,2.68
						c0,0,0.83,0,1.11-1.75c0,0,12.21,3.11,19.49-0.42C85.8,95.4,87.92,94.04,86.41,94.56z"/>
				</g>
			</g>
		</g>
		<g>
			<path class="st13" d="M72.8,89.16c0,0-0.11,0.92,1.02,1.08c0,0-0.19,0.98,1.17,1.97c0,0-1.21,0.84-2.93-0.43
				c0,0-2.81-2.5-0.98-5.07c0,0,1.66-0.43,2.96,0.28c0,0,0.09,0.36-0.09,1.04C73.96,88.03,72.7,87.92,72.8,89.16z"/>
			<path class="st1" d="M71.84,92.09l-0.03-0.02c-1.06-0.94-2.64-3.32-1.03-5.57l0.08-0.11l0.13-0.03c0.07-0.02,1.82-0.46,3.24,0.31
				l0.15,0.08l0.04,0.16c0.01,0.05,0.1,0.47-0.09,1.22l-0.08,0.31l-0.32-0.02c-0.11-0.01-0.44,0.01-0.61,0.18
				c-0.11,0.11-0.15,0.29-0.13,0.53l0,0.04l0,0.03c-0.01,0.13,0,0.57,0.69,0.67l0.38,0.06l-0.06,0.38c0,0.03-0.1,0.78,1.02,1.6
				l0.43,0.31l-0.44,0.3c-0.03,0.02-0.51,0.34-1.27,0.34C73.38,92.87,72.66,92.69,71.84,92.09z M73.45,90.55
				c-0.89-0.27-1.04-1.04-1.02-1.39c-0.04-0.58,0.17-0.92,0.36-1.1c0.27-0.27,0.61-0.36,0.87-0.39c0.03-0.19,0.04-0.33,0.04-0.43
				c-0.92-0.41-2-0.25-2.37-0.18c-1.41,2.16,0.79,4.25,0.99,4.44c0.84,0.62,1.52,0.67,1.95,0.59
				C73.65,91.48,73.49,90.91,73.45,90.55z"/>
		</g>
		<g>
			<path class="st14" d="M72.74,87.54c0,0-1.23,3.05,1.45,4.52c0,0-1.87,0.42-3.11-2.03c0,0-0.62-1.99,0.21-2.87
				C71.3,87.16,71.49,87.78,72.74,87.54z"/>
		</g>
		<g>
			<path class="st6" d="M71.3,87.16c0,0-1.45,2.49,1.07,4.43c0,0-1.64-1.66-0.55-4.12c0,0,1,0.14,1.62-0.17
				C73.43,87.31,72.39,86.51,71.3,87.16z"/>
		</g>
	</g>
	<g>
		<g>
			<path class="st0" d="M58.61,91.61c1.41-0.73,2.38-0.32,2.38-0.32l2.23-0.37c2.7,1.28,1.65,4.43,1.65,4.43l0.4,1.46l-0.27,1.13
				c-0.72,1.66-4.58,1.53-4.58,1.53c-1.67-0.79-1.47-2.83-1.47-2.83c-1.33-0.56-0.54-1.81-0.54-1.81c-1.55-0.29-0.53-2.2-0.53-2.2
				L58.61,91.61z"/>
			<path class="st1" d="M60.4,99.85l-0.08,0l-0.07-0.03c-1.52-0.72-1.69-2.3-1.7-2.94c-0.36-0.2-0.6-0.48-0.7-0.82
				c-0.12-0.36-0.06-0.72,0.03-0.99c-0.32-0.16-0.5-0.39-0.59-0.58c-0.39-0.81,0.17-1.9,0.24-2.02l0.82-1.15l0.08-0.04
				c1.28-0.66,2.26-0.47,2.58-0.37l2.25-0.37l0.11,0.05c2.3,1.09,2.25,3.54,1.88,4.78l0.4,1.45l-0.29,1.23l-0.02,0.06
				c-0.7,1.63-3.68,1.77-4.66,1.77C60.55,99.85,60.45,99.85,60.4,99.85z M64.87,96.81l-0.4-1.48l0.04-0.11
				c0.04-0.11,0.89-2.76-1.35-3.91l-2.11,0.35l-0.11,0.02l-0.1-0.04c-0.03-0.01-0.81-0.31-1.98,0.27l-0.67,0.94
				c-0.12,0.24-0.39,0.94-0.21,1.32c0.03,0.06,0.11,0.23,0.49,0.3l0.55,0.1l-0.3,0.47c0,0-0.26,0.43-0.14,0.79
				c0.06,0.2,0.23,0.35,0.51,0.47l0.26,0.11l-0.03,0.28c-0.01,0.07-0.14,1.73,1.19,2.42c1.05,0.02,3.6-0.17,4.13-1.28L64.87,96.81z"
				/>
		</g>
		<g>
			<path class="st0" d="M58.61,91.61c1.41-0.73,2.38-0.32,2.38-0.32l2.23-0.37c2.7,1.28,1.65,4.43,1.65,4.43l0.4,1.46l-0.27,1.13
				c-0.72,1.66-4.58,1.53-4.58,1.53c-1.67-0.79-1.47-2.83-1.47-2.83c-1.33-0.56-0.54-1.81-0.54-1.81c-1.55-0.29-0.53-2.2-0.53-2.2
				L58.61,91.61z"/>
			<path class="st1" d="M60.4,99.85l-0.08,0l-0.07-0.03c-1.52-0.72-1.69-2.3-1.7-2.94c-0.36-0.2-0.6-0.48-0.7-0.82
				c-0.12-0.36-0.06-0.72,0.03-0.99c-0.32-0.16-0.5-0.39-0.59-0.58c-0.39-0.81,0.17-1.9,0.24-2.02l0.82-1.15l0.08-0.04
				c1.28-0.66,2.26-0.47,2.58-0.37l2.25-0.37l0.11,0.05c2.3,1.09,2.25,3.54,1.88,4.78l0.4,1.45l-0.29,1.23l-0.02,0.06
				c-0.7,1.63-3.68,1.77-4.66,1.77C60.55,99.85,60.45,99.85,60.4,99.85z M64.87,96.81l-0.4-1.48l0.04-0.11
				c0.04-0.11,0.89-2.76-1.35-3.91l-2.11,0.35l-0.11,0.02l-0.1-0.04c-0.03-0.01-0.81-0.31-1.98,0.27l-0.67,0.94
				c-0.12,0.24-0.39,0.94-0.21,1.32c0.03,0.06,0.11,0.23,0.49,0.3l0.55,0.1l-0.3,0.47c0,0-0.26,0.43-0.14,0.79
				c0.06,0.2,0.23,0.35,0.51,0.47l0.26,0.11l-0.03,0.28c-0.01,0.07-0.14,1.73,1.19,2.42c1.05,0.02,3.6-0.17,4.13-1.28L64.87,96.81z"
				/>
		</g>
		<g>
			<g>
				<path class="st15" d="M55.05,90.54c0,0,5.84,0.64,9.69-1.89c0,0,0.81-0.66-0.15-1.31c0,0-3.71,1.51-4.66,1.74
					c0,0-3.9,0.45-5.16,0.42C54.77,89.5,54.13,90.61,55.05,90.54z"/>
			</g>
			<g>
				<path class="st16" d="M64.84,87.22c0,0-4.49,1.9-9.98,2.2c0,0-0.94,1.42,0.19,2.16c0,0,1.86,0.64,3.93,0.21L60,98.13
					c0,0,1.61,0.36,3.07-1.21l-1.1-6.02C61.97,90.9,67.46,88.99,64.84,87.22z"/>
			</g>
			<g>
				<path class="st17" d="M63.1,98.01c0,0,1.97,0.39,1.89,1.35l-0.46,1.28c0,0-2-0.83-3.33,1.71l-1.48-0.43c0,0-0.57-1.19,0.95-3.02
					L63.1,98.01z"/>
			</g>
			<g>
				<path class="st16" d="M64.84,87.22c0,0-4.49,1.9-9.98,2.2c0,0-0.94,1.42,0.19,2.16c0,0,1.86,0.64,3.93,0.21L60,98.13
					c0,0,1.61,0.36,3.07-1.21l-1.1-6.02C61.97,90.9,67.46,88.99,64.84,87.22z"/>
			</g>
			<g>
				<path class="st18" d="M62.75,96.49c0,0,0.86,0.51,0.5,1.27c0,0-1.28,1.48-2.97,0.94c0,0-0.59-0.49-0.51-1.4
					C59.78,97.3,60.51,97.93,62.75,96.49z"/>
			</g>
			<g>
				<path class="st19" d="M59.74,97.38l-1.15-5.71c-2.31,0.54-3.18-0.34-3.18-0.34c-1.44-0.94-0.53-1.91-0.53-1.91
					c5.06-0.34,10.2-2.05,10.2-2.05s1.42,1.66-3.09,3.52l1.01,5.52c0,0,0.76,1.15,0.34,1.57c0,0,1.29,0.52,1.63,1.01
					c0,0,0.19,1.16-0.42,1.65c0,0-2.47-0.42-3.33,1.71l-1.48-0.43c0,0-0.61-1.3,0.78-2.95C60.5,98.97,59.86,98.86,59.74,97.38z"/>
				<path class="st1" d="M59.45,102.24l-0.07-0.15c-0.03-0.06-0.62-1.37,0.58-3.03c-0.25-0.25-0.52-0.73-0.59-1.62l-1.07-5.31
					c-1.99,0.36-2.92-0.32-3.12-0.49c-0.57-0.38-0.89-0.82-0.95-1.31c-0.08-0.65,0.33-1.1,0.38-1.15l0.1-0.11l0.15-0.01
					c4.95-0.34,10.05-2.01,10.1-2.03l0.24-0.08l0.17,0.19c0.16,0.19,0.4,0.68,0.26,1.29c-0.23,0.97-1.31,1.88-3.21,2.71l0.94,5.15
					c0.16,0.26,0.55,0.95,0.47,1.52c0.45,0.21,1.17,0.59,1.45,0.99l0.05,0.07l0.01,0.09c0.02,0.14,0.2,1.39-0.56,2l-0.13,0.11
					l-0.17-0.03c-0.02,0-2.18-0.35-2.92,1.47l-0.13,0.32L59.45,102.24z M64.39,100.25c0.22-0.3,0.22-0.82,0.2-1.09
					c-0.25-0.27-0.95-0.63-1.41-0.81l-0.53-0.21l0.4-0.4c0.08-0.08-0.06-0.61-0.38-1.1l-0.04-0.06l-1.08-5.89l0.28-0.12
					c2.39-0.99,2.93-1.86,3.04-2.29c0.05-0.17,0.03-0.32,0-0.43c-1.18,0.37-5.52,1.64-9.8,1.95c-0.06,0.1-0.13,0.26-0.1,0.44
					c0.04,0.33,0.37,0.61,0.64,0.78l0.06,0.05c0.01,0.01,0.8,0.72,2.83,0.25l0.38-0.09l1.23,6.09l0.01,0.04
					c0.08,0.99,0.4,1.21,0.47,1.25l0.72,0.01l-0.51,0.6c-0.96,1.14-0.86,2.05-0.78,2.4l0.97,0.28c0.7-1.32,2.05-1.67,3.02-1.67
					C64.14,100.23,64.27,100.23,64.39,100.25z"/>
			</g>
			<g>
				<path class="st20" d="M63.91,87.85c0,0-5.84,1.81-8.85,1.54c0,0-1.09,0.58,0.37,1.08c0,0,2.49,0.67,7.4-1.35
					c0,0,2.49-0.98,2.06-1.49C64.87,87.62,64.55,87.46,63.91,87.85z"/>
				<path class="st1" d="M55.33,90.74c-0.22-0.08-0.91-0.31-0.95-0.81c-0.04-0.46,0.48-0.75,0.54-0.78L55,89.1l0.08,0.01
					c2.81,0.25,8.25-1.38,8.71-1.52c0.72-0.42,1.13-0.25,1.21-0.22l0.05,0.03l0.04,0.04c0.11,0.13,0.14,0.28,0.1,0.44
					c-0.15,0.61-1.64,1.25-2.27,1.5c-2.98,1.23-5.09,1.48-6.32,1.48C55.8,90.86,55.38,90.75,55.33,90.74z M64.05,88.09l-0.06,0.03
					c-0.24,0.07-5.81,1.79-8.87,1.56c-0.1,0.07-0.18,0.16-0.18,0.2c0,0,0.04,0.15,0.55,0.32c0.02,0.01,2.46,0.62,7.22-1.34
					c0.78-0.31,1.53-0.71,1.81-0.96C64.41,87.91,64.25,87.97,64.05,88.09z"/>
			</g>
			<g>
				<path class="st20" d="M61.85,99.11c-0.13,0.07-0.3,0.36-0.44,1.29c0,0,0.82-0.96,1.96-0.36c0,0-1.32-0.17-2.26,1.93l-1.07-0.41
					c0,0-0.54-0.62,0.74-2.78c0,0,0.74-0.27,1.09,0.09C61.97,98.94,61.94,99.06,61.85,99.11z"/>
			</g>
			<g>
				<g>
					<path class="st13" d="M57.34,89.7c-5.39-15.47-5.1-23.13-5.1-23.13c1.68-6.44,6.54-7.9,6.54-7.9c-0.08,0.35,0.81-0.8,0.45,0.26
						c-1.99,5.91,2.71,29.64,2.71,29.64s-2.06,1.16-3.96,1L57.34,89.7z"/>
					<path class="st1" d="M56.98,89.82c-5.35-15.36-5.14-22.95-5.13-23.27l0.01-0.08c1.71-6.57,6.59-8.11,6.8-8.17l0.18-0.05
						c0.18-0.13,0.42-0.26,0.66-0.09c0.3,0.22,0.16,0.63,0.08,0.88c-1.94,5.74,2.67,29.21,2.72,29.45l0.05,0.27l-0.24,0.13
						c-0.09,0.05-2.15,1.19-4.12,1.05l-0.9,0.18L56.98,89.82z M58,89.2c1.4,0.11,2.92-0.55,3.5-0.83
						c-0.54-2.77-4.41-23.17-2.73-29.25c-0.03,0-0.06-0.01-0.09-0.01c-0.91,0.36-4.65,2.15-6.07,7.52
						c-0.01,0.61-0.02,8.2,4.98,22.64l0.36-0.07L58,89.2z"/>
				</g>
				<g>
					<path class="st14" d="M59.07,87.15c0,0-5.34-17.99-0.98-27.79c0,0-0.57,0.13-1.84,1.32c0,0-3.44,3-2.94,6.87
						c0,0,0.14,9.49,4.74,21.74C58.04,89.3,59.41,88.25,59.07,87.15z"/>
				</g>
				<g>
					<path class="st6" d="M56.25,60.69c0,0-3.57,2.94-3.63,6.69c0,0,0.15,8.67,5.19,21.96l0.74-0.19c0,0-4.75-16.46-2.37-27.87
						C56.18,61.28,56.1,62.07,56.25,60.69z"/>
				</g>
				<g>
					<path class="st21" d="M59.71,89.33c-0.43-1.98-0.81-3.98-1.18-5.98c-0.36-2-0.69-4-0.98-6.02c-0.29-2.01-0.54-4.03-0.71-6.05
						c-0.16-2.02-0.28-4.06-0.18-6.09c-0.16,2.03-0.11,4.07-0.01,6.1c0.1,2.04,0.3,4.06,0.52,6.09c0.22,2.03,0.49,4.04,0.79,6.06
						c0.3,2.02,0.63,4.02,1,6.03L59.71,89.33z"/>
				</g>
			</g>
		</g>
		<g>
			<path class="st1" d="M62.11,94.82c-0.11-0.19-0.18-0.39-0.21-0.6c-0.02-0.1-0.03-0.2-0.04-0.31c-0.01-0.11-0.01-0.2,0-0.32
				l0.75,0.13c-0.02,0.05-0.03,0.13-0.04,0.21c-0.01,0.07-0.02,0.15-0.01,0.22c0,0.15,0.02,0.29,0.06,0.42
				c0.04,0.13,0.12,0.24,0.22,0.33c0.1,0.1,0.24,0.15,0.39,0.2l0.39,0.14l-0.31,0.19c-0.12,0.07-0.25,0.17-0.35,0.28
				c-0.11,0.11-0.21,0.23-0.29,0.36c-0.08,0.13-0.14,0.28-0.18,0.43c-0.03,0.15-0.03,0.32,0,0.48c-0.06-0.15-0.1-0.32-0.09-0.49
				c0.01-0.17,0.04-0.34,0.1-0.5c0.06-0.16,0.15-0.31,0.25-0.45c0.03-0.05,0.07-0.09,0.1-0.13c0.11,0.03,0.22,0.05,0.32,0.06
				l-0.08-0.33c-0.09,0.08-0.17,0.17-0.24,0.26c-0.09-0.03-0.18-0.06-0.27-0.12C62.39,95.17,62.22,95.01,62.11,94.82z"/>
		</g>
		<g>
			<g>
				<path class="st22" d="M57.91,91.79c1.09-1.08,3.13-0.2,3.13-0.2c-1.99,0.24-0.69,2.39-0.69,2.39c-1.61-0.7-2.47,0.99-2.47,0.99
					c-1.56-0.83-0.37-2.68-0.37-2.68L57.91,91.79z"/>
				<path class="st1" d="M57.7,95.3c-0.5-0.27-0.82-0.65-0.95-1.14c-0.26-0.99,0.41-2.04,0.44-2.08l0.43-0.53l0.03-0.03
					c1.26-1.25,3.45-0.32,3.55-0.28l1.29,0.56l-1.39,0.17c-0.37,0.04-0.61,0.17-0.71,0.36c-0.21,0.43,0.16,1.21,0.3,1.45l0.61,1.01
					l-1.09-0.47c-1.24-0.54-1.91,0.67-1.98,0.81l-0.17,0.34L57.7,95.3z M59.69,93.43c-0.14-0.43-0.22-0.97,0-1.43
					c0.06-0.12,0.14-0.23,0.23-0.32c-0.57-0.09-1.27-0.07-1.73,0.37l-0.37,0.46c-0.07,0.11-0.49,0.85-0.33,1.47
					c0.05,0.18,0.14,0.33,0.28,0.46c0.36-0.49,0.99-1,1.82-1C59.62,93.42,59.65,93.43,59.69,93.43z"/>
			</g>
			<g>
				<path class="st22" d="M57.82,95.09c1.22-1.82,2.35-1.21,2.35-1.21c1.18,0.27,1.76,1.93,1.76,1.93c0.06,1-1.69,0.87-1.69,0.87
					c-1.85-0.2-1.71,0.79-1.71,0.79C56.81,96.5,57.82,95.09,57.82,95.09z"/>
				<path class="st1" d="M58.34,97.8c-0.64-0.36-1.03-0.83-1.16-1.39c-0.17-0.78,0.26-1.45,0.32-1.52c1.26-1.88,2.51-1.48,2.79-1.36
					c1.34,0.34,1.97,2.09,1.99,2.16l0.02,0.05l0,0.05c0.02,0.32-0.09,0.6-0.3,0.81c-0.55,0.54-1.66,0.47-1.8,0.46
					c-0.83-0.09-1.12,0.09-1.21,0.17c-0.09,0.09-0.09,0.18-0.09,0.18h0l0.11,0.77L58.34,97.8z M60.27,96.3
					c0.29,0.02,0.96-0.01,1.2-0.25c0.04-0.04,0.07-0.09,0.08-0.18c-0.17-0.44-0.7-1.45-1.47-1.63l-0.05-0.01l-0.05-0.02
					c-0.01,0-0.85-0.41-1.85,1.09l-0.01,0.01c0,0-0.3,0.44-0.2,0.93c0.05,0.22,0.18,0.43,0.39,0.62c0.03-0.05,0.07-0.1,0.12-0.14
					c0.28-0.29,0.73-0.44,1.34-0.44C59.93,96.28,60.09,96.29,60.27,96.3z"/>
			</g>
			<g>
				<path class="st22" d="M59.69,96.54c3.04,0.14,2.58,2.06,2.58,2.06c-0.37,1.15-2.92,1.07-2.92,1.07c-1.12-0.79-1.01-2-1.01-2
					C58.6,96.81,59.69,96.54,59.69,96.54z"/>
				<path class="st1" d="M59.34,100.04l-0.11,0l-0.09-0.07c-1.28-0.91-1.17-2.29-1.16-2.35l0.01-0.07c0.31-1.04,1.56-1.37,1.62-1.38
					l0.05-0.01l0.06,0c1.25,0.06,2.12,0.41,2.6,1.04c0.52,0.69,0.35,1.45,0.34,1.48l-0.01,0.03c-0.39,1.24-2.48,1.34-3.13,1.34
					C59.43,100.04,59.37,100.04,59.34,100.04z M61.69,97.64c-0.32-0.42-1-0.67-1.96-0.73c-0.18,0.06-0.83,0.3-1.02,0.81
					c0,0.18,0.02,0.97,0.76,1.56c0.77,0,2.21-0.17,2.43-0.79C61.92,98.42,61.98,98.01,61.69,97.64z"/>
			</g>
			<g>
				<g>
					<path class="st23" d="M59.38,96.86c1.03-0.16,1.79,0.4,1.79,0.4c0.56,1.32-1.27,0.81-1.27,0.81C59.97,98.7,59.34,99,59.34,99
						c-0.68-0.05-0.94-1.15-0.94-1.15C58.27,97.02,59.38,96.86,59.38,96.86z"/>
				</g>
				<g>
					<path class="st1" d="M60.05,97.09c-0.01,0.17-0.01,0.33-0.01,0.5c0.01,0.17,0.02,0.33,0.05,0.5c0.03,0.16,0.07,0.33,0.18,0.46
						c-0.15-0.09-0.27-0.24-0.36-0.39c-0.09-0.15-0.17-0.32-0.24-0.48c-0.07-0.17-0.13-0.33-0.19-0.5
						c-0.06-0.17-0.11-0.34-0.15-0.52l0.76-0.05C60.07,96.75,60.06,96.92,60.05,97.09z"/>
				</g>
			</g>
			<g>
				<g>
					<path class="st23" d="M58.78,94.51c1.03-0.64,1.83,0.14,1.83,0.14c0.75,1.22-1.19,0.8-1.19,0.8c0.16,0.61-0.96,1.15-0.96,1.15
						c-0.68,0.05-0.53-0.38-0.53-0.38C57.69,95.42,58.78,94.51,58.78,94.51z"/>
				</g>
				<g>
					<path class="st1" d="M59.49,94.64c0.02,0.17,0.04,0.33,0.07,0.5c0.03,0.16,0.07,0.33,0.12,0.49c0.05,0.16,0.12,0.31,0.25,0.43
						c-0.16-0.06-0.3-0.2-0.41-0.34c-0.11-0.14-0.21-0.29-0.31-0.44c-0.09-0.15-0.18-0.31-0.26-0.47c-0.08-0.16-0.15-0.32-0.23-0.5
						l0.74-0.16C59.46,94.3,59.47,94.48,59.49,94.64z"/>
				</g>
			</g>
			<g>
				<g>
					<path class="st23" d="M58.26,91.9c0.99-0.31,1.55-0.17,1.55-0.17c0.75,1.22-1.04,1.35-1.04,1.35c0.16,0.61-0.96,1.15-0.96,1.15
						c-0.46-0.21-0.4-0.61-0.4-0.61C57.16,92.82,58.26,91.9,58.26,91.9z"/>
				</g>
				<g>
					<path class="st1" d="M58.78,92.09c0.02,0.17,0.04,0.33,0.07,0.5c0.03,0.16,0.07,0.33,0.12,0.49c0.05,0.16,0.12,0.31,0.25,0.43
						c-0.17-0.06-0.3-0.2-0.41-0.34c-0.11-0.14-0.21-0.29-0.31-0.44c-0.09-0.15-0.18-0.31-0.26-0.47c-0.08-0.16-0.15-0.32-0.23-0.5
						l0.74-0.16C58.75,91.75,58.77,91.92,58.78,92.09z"/>
				</g>
			</g>
			<g>
				<g>
					<path class="st22" d="M60.6,91.32l2.22-0.5c0.52-0.13,1.5,0.97,1.5,0.97l-1.95,1.26c-0.52,2.35-1.66,1.88-1.66,1.88
						c-0.72-0.21-0.63-1.33-0.63-1.33C59.79,91.68,60.6,91.32,60.6,91.32z"/>
					<path class="st1" d="M60.6,95.3c-0.77-0.24-0.92-1.14-0.89-1.67c-0.31-2.13,0.64-2.61,0.75-2.65l2.28-0.52
						c0.67-0.16,1.53,0.71,1.87,1.09l0.29,0.33l-2.19,1.41c-0.24,0.99-0.64,1.64-1.17,1.92c-0.22,0.11-0.42,0.15-0.58,0.15
						C60.78,95.36,60.65,95.32,60.6,95.3z M62.91,91.2l-2.17,0.48c-0.08,0.07-0.49,0.49-0.28,1.88l0.01,0.04l0,0.04
						c0,0.01-0.04,0.82,0.36,0.93l0.04,0.01c0,0,0.14,0.04,0.32-0.05c0.2-0.1,0.57-0.45,0.82-1.56l0.03-0.15l1.69-1.09
						C63.39,91.42,63.04,91.18,62.91,91.2z"/>
				</g>
				<g>
					<path class="st23" d="M61.67,92.92c-0.31,1.74-1.02,1.46-1.02,1.46c-0.51-0.95-0.11-2.67-0.11-2.67
						C62.11,91.55,61.67,92.92,61.67,92.92z"/>
				</g>
			</g>
		</g>
		<g>
			<path class="st0" d="M57.91,91.79c1.09-1.08,3.13-0.2,3.13-0.2c-1.99,0.24-0.69,2.39-0.69,2.39c-1.61-0.7-2.47,0.99-2.47,0.99
				c-1.56-0.83-0.37-2.68-0.37-2.68L57.91,91.79z"/>
			<path class="st1" d="M57.7,95.3c-0.5-0.27-0.82-0.65-0.95-1.14c-0.26-0.99,0.41-2.04,0.44-2.08l0.43-0.53l0.03-0.03
				c1.26-1.25,3.45-0.32,3.55-0.28l1.29,0.56l-1.39,0.17c-0.37,0.04-0.61,0.17-0.71,0.36c-0.21,0.43,0.16,1.21,0.3,1.45l0.61,1.01
				l-1.09-0.47c-1.24-0.54-1.91,0.67-1.98,0.81l-0.17,0.34L57.7,95.3z M59.69,93.43c-0.14-0.43-0.22-0.97,0-1.43
				c0.06-0.12,0.14-0.23,0.23-0.32c-0.57-0.09-1.27-0.07-1.73,0.37l-0.37,0.46c-0.07,0.11-0.49,0.85-0.33,1.47
				c0.05,0.18,0.14,0.33,0.28,0.46c0.36-0.49,0.99-1,1.82-1C59.62,93.42,59.65,93.43,59.69,93.43z"/>
		</g>
		<g>
			<path class="st0" d="M57.82,95.09c1.22-1.82,2.35-1.21,2.35-1.21c1.18,0.27,1.76,1.93,1.76,1.93c0.06,1-1.69,0.87-1.69,0.87
				c-1.85-0.2-1.71,0.79-1.71,0.79C56.81,96.5,57.82,95.09,57.82,95.09z"/>
			<path class="st1" d="M58.34,97.8c-0.64-0.36-1.03-0.83-1.16-1.39c-0.17-0.78,0.26-1.45,0.32-1.52c1.26-1.88,2.51-1.48,2.79-1.36
				c1.34,0.34,1.97,2.09,1.99,2.16l0.02,0.05l0,0.05c0.02,0.32-0.09,0.6-0.3,0.81c-0.55,0.54-1.66,0.47-1.8,0.46
				c-0.83-0.09-1.12,0.09-1.21,0.17c-0.09,0.09-0.09,0.18-0.09,0.18h0l0.11,0.77L58.34,97.8z M60.27,96.3
				c0.29,0.02,0.96-0.01,1.2-0.25c0.04-0.04,0.07-0.09,0.08-0.18c-0.17-0.44-0.7-1.45-1.47-1.63l-0.05-0.01l-0.05-0.02
				c-0.01,0-0.85-0.41-1.85,1.09l-0.01,0.01c0,0-0.3,0.44-0.2,0.93c0.05,0.22,0.18,0.43,0.39,0.62c0.03-0.05,0.07-0.1,0.12-0.14
				c0.28-0.29,0.73-0.44,1.34-0.44C59.93,96.28,60.09,96.29,60.27,96.3z"/>
		</g>
		<g>
			<path class="st0" d="M59.69,96.54c3.04,0.14,2.58,2.06,2.58,2.06c-0.37,1.15-2.92,1.07-2.92,1.07c-1.12-0.79-1.01-2-1.01-2
				C58.6,96.81,59.69,96.54,59.69,96.54z"/>
			<path class="st1" d="M59.34,100.04l-0.11,0l-0.09-0.07c-1.28-0.91-1.17-2.29-1.16-2.35l0.01-0.07c0.31-1.04,1.56-1.37,1.62-1.38
				l0.05-0.01l0.06,0c1.25,0.06,2.12,0.41,2.6,1.04c0.52,0.69,0.35,1.45,0.34,1.48l-0.01,0.03c-0.39,1.24-2.48,1.34-3.13,1.34
				C59.43,100.04,59.37,100.04,59.34,100.04z M61.69,97.64c-0.32-0.42-1-0.67-1.96-0.73c-0.18,0.06-0.83,0.3-1.02,0.81
				c0,0.18,0.02,0.97,0.76,1.56c0.77,0,2.21-0.17,2.43-0.79C61.92,98.42,61.98,98.01,61.69,97.64z"/>
		</g>
		<g>
			<g>
				<path class="st2" d="M59.38,96.86c1.03-0.16,1.79,0.4,1.79,0.4c0.56,1.32-1.27,0.81-1.27,0.81C59.97,98.7,59.34,99,59.34,99
					c-0.68-0.05-0.94-1.15-0.94-1.15C58.27,97.02,59.38,96.86,59.38,96.86z"/>
			</g>
			<g>
				<path class="st1" d="M60.05,97.09c-0.01,0.17-0.01,0.33-0.01,0.5c0.01,0.17,0.02,0.33,0.05,0.5c0.03,0.16,0.07,0.33,0.18,0.46
					c-0.15-0.09-0.27-0.24-0.36-0.39c-0.09-0.15-0.17-0.32-0.24-0.48c-0.07-0.17-0.13-0.33-0.19-0.5c-0.06-0.17-0.11-0.34-0.15-0.52
					l0.76-0.05C60.07,96.75,60.06,96.92,60.05,97.09z"/>
			</g>
		</g>
		<g>
			<g>
				<path class="st2" d="M58.78,94.51c1.03-0.64,1.83,0.14,1.83,0.14c0.75,1.22-1.19,0.8-1.19,0.8c0.16,0.61-0.96,1.15-0.96,1.15
					c-0.68,0.05-0.53-0.38-0.53-0.38C57.69,95.42,58.78,94.51,58.78,94.51z"/>
			</g>
			<g>
				<path class="st1" d="M59.49,94.64c0.02,0.17,0.04,0.33,0.07,0.5c0.03,0.16,0.07,0.33,0.12,0.49c0.05,0.16,0.12,0.31,0.25,0.43
					c-0.16-0.06-0.3-0.2-0.41-0.34c-0.11-0.14-0.21-0.29-0.31-0.44c-0.09-0.15-0.18-0.31-0.26-0.47c-0.08-0.16-0.15-0.32-0.23-0.5
					l0.74-0.16C59.46,94.3,59.47,94.48,59.49,94.64z"/>
			</g>
		</g>
		<g>
			<g>
				<path class="st2" d="M58.26,91.9c0.99-0.31,1.55-0.17,1.55-0.17c0.75,1.22-1.04,1.35-1.04,1.35c0.16,0.61-0.96,1.15-0.96,1.15
					c-0.46-0.21-0.4-0.61-0.4-0.61C57.16,92.82,58.26,91.9,58.26,91.9z"/>
			</g>
			<g>
				<path class="st1" d="M58.78,92.09c0.02,0.17,0.04,0.33,0.07,0.5c0.03,0.16,0.07,0.33,0.12,0.49c0.05,0.16,0.12,0.31,0.25,0.43
					c-0.17-0.06-0.3-0.2-0.41-0.34c-0.11-0.14-0.21-0.29-0.31-0.44c-0.09-0.15-0.18-0.31-0.26-0.47c-0.08-0.16-0.15-0.32-0.23-0.5
					l0.74-0.16C58.75,91.75,58.77,91.92,58.78,92.09z"/>
			</g>
		</g>
		<g>
			<g>
				<path class="st0" d="M62.12,93.3c-0.52,2.35-1.66,1.88-1.66,1.88c-0.72-0.21-0.63-1.33-0.63-1.33c-0.64-2.81,0.63-2.7,0.63-2.7
					l0.73-0.22c2.06-0.18,2.65,0.95,2.65,0.95S65.33,93.35,62.12,93.3z"/>
			</g>
			<g>
				<path class="st1" d="M61.17,95.34c0.11-0.02,0.23-0.06,0.36-0.13c0.56-0.29,0.97-0.99,1.21-2.07L62,92.98
					c-0.24,1.09-0.61,1.44-0.8,1.55c-0.19,0.11-0.35,0.06-0.35,0.06l-0.03-0.01c-0.4-0.12-0.36-0.92-0.36-0.93l0-0.06l-0.01-0.06
					c-0.33-1.46-0.09-1.96,0.03-2.11c0.1-0.12,0.21-0.13,0.22-0.13l0.07,0.01l0.06-0.02l0.7-0.21c1.78-0.14,2.47,0.92,2.48,0.93
					l0.64-0.4c-0.04-0.06-0.95-1.48-3.22-1.28l-0.04,0l-0.72,0.22c-0.16,0.01-0.47,0.06-0.74,0.37c-0.44,0.5-0.51,1.42-0.22,2.74
					c-0.03,0.53,0.13,1.42,0.89,1.66C60.67,95.33,60.89,95.39,61.17,95.34z"/>
			</g>
			<g>
				<path class="st2" d="M61.75,92.33c0.1,2.38-1.18,1.68-1.18,1.68c-0.51-0.95-0.26-2.45-0.26-2.45
					C61.89,91.39,61.75,92.33,61.75,92.33z"/>
			</g>
		</g>
	</g>
	<g>
		<g>
			<path class="st1" d="M92.28,95.49c0.01,0.11,0.03,0.22,0.02,0.33c-0.11-0.05-0.21-0.1-0.32-0.17L92.28,95.49z"/>
		</g>
		<g>
			<path class="st0" d="M89.68,85.63c0,0,2.73,2.64,4.25,6.8c0,0-3.67,0.21-5.05,2.75c0,0-1.41-2.78-2.66-5.03
				c-0.45-0.8-3.07-1.24-4.68-2.01c-1.87-0.9-1.8-4.86,1.48-4.84C83.49,83.29,87.26,83.51,89.68,85.63z"/>
			<path class="st1" d="M88.55,95.35c-0.01-0.03-1.42-2.8-2.66-5.02c-0.2-0.36-1.39-0.75-2.35-1.06c-0.75-0.24-1.52-0.49-2.16-0.8
				c-1.1-0.53-1.68-1.96-1.36-3.34c0.32-1.4,1.45-2.23,3.01-2.22c0.04,0,4.23,0.09,6.9,2.43l0.01,0.01
				c0.11,0.11,2.81,2.75,4.34,6.94l0.18,0.48l-0.51,0.03c-0.03,0-3.47,0.23-4.74,2.56l-0.34,0.63L88.55,95.35z M89.43,85.91
				c-2.46-2.15-6.36-2.24-6.4-2.24c-1.7-0.01-2.15,1.14-2.27,1.63c-0.24,1.02,0.18,2.12,0.95,2.49c0.59,0.28,1.34,0.53,2.06,0.76
				c1.3,0.42,2.43,0.79,2.78,1.41c0.9,1.62,1.89,3.52,2.37,4.46c1.27-1.67,3.48-2.18,4.48-2.32C91.94,88.43,89.57,86.04,89.43,85.91
				z"/>
		</g>
		<g>
			<path class="st2" d="M81.43,87.35c0,0-1.22-1.53,2.33-2.13c0,0,2.72,0.4,4.49,1.89c0,0,1.9,3.12,2.23,3.72
				c0,0-1.65,0.37-2.3,2.24c0,0-1.58-3.27-1.92-3.52c0,0-1.98-0.93-3.68-1.45C82.57,88.09,81.62,87.88,81.43,87.35z"/>
		</g>
		<g>
			<g>
				<g>
					<path class="st3" d="M87.62,93.05c0,0,1.77-3.03,5.48-2.86l1.9,3.2c0,0-3.46-0.37-5.94,2.69
						C89.05,96.09,88.07,94.22,87.62,93.05z"/>
					<path class="st4" d="M88.72,96.26c-0.04-0.08-1-1.9-1.45-3.08l-0.06-0.17l0.09-0.16c0.08-0.13,1.93-3.22,5.82-3.04l0.2,0.01
						l2.38,4.02l-0.75-0.08c-0.03,0-3.29-0.32-5.6,2.55l-0.36,0.45L88.72,96.26z M92.88,90.57c-2.88-0.04-4.44,1.95-4.83,2.53
						c0.3,0.76,0.79,1.74,1.09,2.32c1.85-1.99,4.07-2.36,5.19-2.41L92.88,90.57z"/>
				</g>
				<g>
					<path class="st5" d="M92.81,90.62c0,0-4.76,0.72-3.11,4.3c0,0,1.7-1.75,4.47-1.91L92.81,90.62z"/>
				</g>
			</g>
			<g>
				<path class="st6" d="M94.36,93.02l-1.55-2.4c0,0-2.23,0.37-1.77,3.57C91.05,94.19,92.65,93.38,94.36,93.02z"/>
			</g>
		</g>
		<g>
			<g>
				<path class="st0" d="M95.7,94.11c0,0-0.74-1.33-3.09-0.57c0,0-3.04,0.58-4.21,4.4c0,0,1.55,1.43,1.58,2.41
					c0,0,0.65,1.02,1.55,0.55c0,0,1.39,1.41,1.77,0.85c0,0,0.47-1.14,1.78-1.6c0,0,0.59-0.53,0.51-1.05l0.82-0.78
					c0,0,0.08-0.09-0.17-0.55l0.75-0.84C96.98,96.92,96.4,95.28,95.7,94.11z"/>
				<path class="st1" d="M91.45,101.33c-0.84,0.26-1.53-0.37-1.79-0.79l-0.06-0.09l0-0.1c-0.02-0.59-0.9-1.63-1.46-2.14l-0.17-0.16
					l0.07-0.23c1.18-3.85,4.15-4.58,4.48-4.65c2.54-0.8,3.44,0.62,3.51,0.75c0.7,1.19,1.29,2.81,1.31,2.88L97.42,97l-0.72,0.81
					c0.1,0.23,0.18,0.53,0,0.74l-0.71,0.69c-0.03,0.61-0.58,1.11-0.65,1.18l-0.06,0.05l-0.07,0.02c-1.12,0.39-1.55,1.37-1.56,1.38
					l-0.04,0.07c-0.11,0.17-0.29,0.27-0.5,0.29c-0.09,0.01-0.18,0-0.27-0.02C92.35,102.11,91.77,101.63,91.45,101.33z M94.88,99.81
					c0.15-0.15,0.38-0.45,0.34-0.66l-0.03-0.19l0.82-0.79c-0.02-0.05-0.05-0.12-0.11-0.21l-0.13-0.24l0.78-0.87
					c-0.18-0.47-0.65-1.65-1.17-2.54l0.33-0.19l-0.33,0.19c-0.03-0.04-0.65-1.04-2.65-0.4l-0.04,0.01
					c-0.11,0.02-2.72,0.58-3.85,3.92c0.42,0.42,1.4,1.48,1.51,2.38c0.14,0.18,0.53,0.6,1.01,0.35l0.25-0.13l0.2,0.2
					c0.43,0.43,0.98,0.82,1.2,0.86C93.16,101.17,93.71,100.25,94.88,99.81z"/>
			</g>
			<g>
				<path class="st2" d="M92.91,94.84c0,0-2.19-0.08-3.91,3.12c0,0,0.68,0.21,1.38,2.09c0,0,0.75,0.58,1.15-0.15
					c0,0,0.48-1.04,0.26-1.9c0,0,1.15,0.76,0.29,2.72c0,0,0.39,0.73,0.84,0.6c0,0,0.3-0.85,1.06-1.51c0,0,1.05-0.98,0.69-1.96
					c0,0,0.76,0.05,0.71-0.9c0,0-0.2-1.19-1.12-1.96C94.26,94.98,93.53,94.74,92.91,94.84z"/>
			</g>
			<g>
				<g>
					<path class="st1" d="M91.3,101.3c0.04,0,0.06,0,0.08,0c0.02,0,0.04-0.01,0.06-0.01c0.04-0.01,0.08-0.02,0.12-0.03
						c0.07-0.02,0.15-0.05,0.21-0.09c0.13-0.08,0.25-0.18,0.33-0.3c0.17-0.24,0.23-0.5,0.25-0.73c0.01-0.24,0-0.46-0.04-0.68
						c-0.03-0.22-0.09-0.42-0.15-0.63l-0.01-0.02l0,0c-0.04-0.08-0.08-0.21-0.07-0.32c0-0.12,0.03-0.23,0.09-0.34
						c0.06-0.11,0.15-0.2,0.25-0.28c0.05-0.04,0.11-0.07,0.16-0.11l0.18-0.09l-0.19,0.06c-0.06,0.03-0.13,0.05-0.19,0.08
						c-0.12,0.06-0.24,0.14-0.33,0.26c-0.09,0.11-0.16,0.25-0.19,0.4c-0.03,0.15-0.03,0.3,0.02,0.46l-0.01-0.03
						c0.02,0.2,0.04,0.4,0.03,0.6c0,0.2-0.03,0.39-0.07,0.56c-0.05,0.17-0.12,0.32-0.22,0.4c-0.05,0.04-0.1,0.07-0.15,0.08
						c-0.02,0.01-0.05,0.01-0.08,0.01c-0.01,0-0.03,0-0.04,0c0,0-0.01,0-0.01,0c0,0-0.01,0,0,0L91.3,101.3z"/>
				</g>
				<g>
					<path class="st1" d="M91.87,99.21c0.28,0.05,0.58,0.11,0.86,0.17c0.29,0.07,0.57,0.13,0.85,0.24c-0.1-0.11-0.22-0.21-0.33-0.3
						c-0.12-0.1-0.24-0.19-0.35-0.28c-0.24-0.18-0.48-0.36-0.73-0.53L91.87,99.21z"/>
				</g>
				<g>
					<polygon class="st1" points="95.94,98.92 94.64,97.06 95.25,99.25 					"/>
				</g>
				<g>
					<polygon class="st1" points="96.59,97.62 95.58,96.16 95.89,97.9 					"/>
				</g>
			</g>
		</g>
	</g>
	<g>
		<g>
			<g>
				<path class="st13" d="M63.6,73.06c0,0,0.16-0.79-1.22-1.61c0,0-1.69-1.29-3.35,0.81c0,0-1.6,0.39-0.71,2.36
					c0,0-0.47,1.16,0.72,1.58c0,0-0.62,1.03,0.39,1.35c0,0,0.75-0.06,2.35,0.36c0,0,0.9,0.31,0.59-1.13c0,0,1.23,0.2,1.22-0.97
					c0,0,1.09-0.21,1.01-1.4C64.6,74.4,64.6,72.99,63.6,73.06z"/>
				<path class="st1" d="M61.7,78.18c-1.51-0.39-2.25-0.35-2.25-0.35l-0.06,0l-0.05-0.02c-0.45-0.14-0.64-0.41-0.71-0.61
					c-0.12-0.31-0.05-0.64,0.03-0.87c-0.28-0.15-0.48-0.36-0.6-0.63c-0.19-0.43-0.1-0.87-0.04-1.08c-0.3-0.71-0.33-1.32-0.09-1.81
					c0.25-0.52,0.73-0.74,0.94-0.81c1.7-2.08,3.48-0.94,3.68-0.8c1.02,0.6,1.28,1.22,1.34,1.58c0.2,0.04,0.37,0.12,0.52,0.26
					c0.46,0.43,0.49,1.21,0.49,1.34c0.06,0.97-0.56,1.46-1.03,1.63c-0.04,0.32-0.16,0.57-0.38,0.75c-0.24,0.21-0.54,0.28-0.78,0.29
					c0.05,0.46-0.03,0.78-0.26,0.98c-0.15,0.14-0.33,0.17-0.48,0.17C61.84,78.22,61.73,78.19,61.7,78.18z M62.41,76.49
					c0.12,0.02,0.49,0.03,0.7-0.15c0.13-0.11,0.19-0.29,0.19-0.53l0-0.24l0.23-0.05c0.09-0.02,0.84-0.2,0.79-1.12
					c0-0.18-0.06-0.7-0.31-0.93c-0.1-0.09-0.22-0.13-0.38-0.12l-0.35,0.02l0.05-0.35c0-0.01,0.07-0.63-1.09-1.32l-0.03-0.02
					c-0.06-0.05-1.5-1.09-2.96,0.76l-0.06,0.08l-0.09,0.02c0,0-0.46,0.12-0.66,0.54c-0.17,0.36-0.13,0.84,0.14,1.43l0.05,0.11
					l-0.05,0.11c0,0-0.16,0.41,0,0.75c0.09,0.2,0.28,0.35,0.56,0.45l0.33,0.12l-0.18,0.3c-0.06,0.1-0.21,0.43-0.12,0.66
					c0.02,0.04,0.06,0.17,0.31,0.25c0.22,0,1,0,2.39,0.37l0.02,0.01c0.02,0.01,0.14,0.03,0.2-0.02c0.03-0.02,0.15-0.17,0.02-0.79
					L62,76.43L62.41,76.49z"/>
			</g>
			<g>
				<path class="st14" d="M59.19,72.41c0,0,0.55-1.04,1.93-0.75c0,0,1.45,0.1,1.54,1.59c0,0,0.97-0.04,1.08,1.02
					c0,0,0.05,1.46-1.31,1.17c0,0,0.73,0.89-0.97,0.7c0,0,0.74,1.22-0.34,1c0,0-0.6-0.09-1.57-0.07c0,0-0.83,0.02,0.04-1.03
					c0,0-1.53,0.01-0.98-1.55C58.6,74.49,57.64,72.86,59.19,72.41z"/>
			</g>
			<g>
				<path class="st6" d="M60.01,71.84c0.31-0.48-0.5,0.15-0.86,0.74c0,0-0.87,0.09-0.85,1.07c0,0-0.01,0.52,0.29,0.91
					c0,0-0.26-1.35,1.04-1.83C59.63,72.72,59.47,72.68,60.01,71.84z"/>
			</g>
			<g>
				<g>
					<path class="st13" d="M61.87,73.54c0.26-0.06,0.65-0.3,1.26,0.3c0,0,0.6,0.64-0.36,1.36c0,0-0.86,0.12-1.47-0.46
						C61.29,74.73,61.19,73.68,61.87,73.54z"/>
					<path class="st1" d="M61.1,74.94l-0.08-0.07l-0.01-0.11c-0.05-0.48,0.07-1.34,0.8-1.5l0,0c0.03-0.01,0.06-0.02,0.09-0.03
						c0.27-0.08,0.78-0.23,1.44,0.41c0.03,0.03,0.3,0.33,0.26,0.78c-0.03,0.36-0.25,0.7-0.66,1l-0.06,0.04l-0.07,0.01
						c-0.01,0-0.1,0.01-0.23,0.01C62.25,75.49,61.61,75.42,61.1,74.94z M63.03,74.38c0.02-0.2-0.1-0.34-0.1-0.34v0
						c-0.41-0.4-0.64-0.33-0.87-0.26c-0.05,0.01-0.09,0.03-0.13,0.04c-0.32,0.07-0.36,0.56-0.36,0.78c0.4,0.32,0.91,0.33,1.09,0.32
						C62.88,74.74,63.01,74.55,63.03,74.38z"/>
				</g>
				<g>
					<path class="st13" d="M60.34,75.75c0,0-0.64,0.44-0.04,0.76c0,0,0.71,0.3,0.71,0c0,0,0.32-0.39-0.17-0.86
						C60.84,75.65,60.68,75.41,60.34,75.75z"/>
					<path class="st1" d="M60.19,76.77l-0.02-0.01c-0.32-0.17-0.4-0.38-0.41-0.54c-0.02-0.35,0.29-0.61,0.39-0.69
						c0.18-0.18,0.37-0.27,0.56-0.25c0.15,0.01,0.27,0.09,0.34,0.17c0.46,0.46,0.37,0.92,0.22,1.16c-0.02,0.1-0.08,0.18-0.17,0.23
						c-0.08,0.05-0.19,0.08-0.29,0.08C60.59,76.93,60.35,76.84,60.19,76.77z M60.54,75.95l-0.04,0.03c-0.08,0.06-0.17,0.16-0.18,0.2
						c0,0,0.02,0.03,0.09,0.07c0.12,0.05,0.26,0.09,0.34,0.1l0.02-0.03c0.01-0.01,0.15-0.19-0.13-0.47
						C60.63,75.87,60.6,75.9,60.54,75.95z"/>
				</g>
				<g>
					<path class="st13" d="M60.14,73.22c-0.18-0.13-0.43-0.46-1.03-0.13c0,0-0.61,0.37-0.05,1.29c0,0,0.63,0.37,1.24,0.06
						C60.29,74.44,60.62,73.56,60.14,73.22z"/>
					<path class="st1" d="M58.91,74.63l-0.06-0.04l-0.04-0.06c-0.35-0.58-0.3-1-0.21-1.24c0.11-0.29,0.33-0.42,0.36-0.44
						c0.69-0.38,1.08-0.06,1.27,0.1c0.02,0.02,0.04,0.04,0.06,0.05l0,0c0.52,0.37,0.4,1.15,0.25,1.55l-0.04,0.1l-0.1,0.05
						c-0.23,0.12-0.45,0.16-0.66,0.16C59.29,74.85,58.93,74.64,58.91,74.63z M59.97,73.45c-0.03-0.02-0.06-0.05-0.09-0.07
						c-0.16-0.13-0.28-0.23-0.63-0.04c0,0-0.07,0.05-0.12,0.16c-0.07,0.17-0.03,0.4,0.12,0.67c0.13,0.06,0.47,0.18,0.8,0.06
						C60.12,74,60.18,73.6,59.97,73.45z"/>
				</g>
			</g>
			<g>
				<path class="st6" d="M58.85,74.94c0,0,0.6,0.65,1.09,0.31c0,0-0.11,0.63-0.87,0.48C59.07,75.73,58.61,75.14,58.85,74.94z"/>
			</g>
			<g>
				<path class="st6" d="M61.8,73.94c0.13-0.03,0.32-0.15,0.63,0.15c0,0,0.3,0.32-0.18,0.67c0,0-0.43,0.06-0.73-0.23
					C61.51,74.53,61.46,74.01,61.8,73.94z"/>
			</g>
			<g>
				<path class="st6" d="M60.41,75.88c0,0-0.32,0.22-0.02,0.38c0,0,0.35,0.15,0.35,0c0,0,0.16-0.19-0.08-0.43
					C60.66,75.82,60.58,75.7,60.41,75.88z"/>
			</g>
			<g>
				<path class="st6" d="M59.56,73.5c-0.09-0.06-0.21-0.23-0.51-0.06c0,0-0.3,0.18-0.02,0.64c0,0,0.31,0.18,0.61,0.03
					C59.64,74.11,59.8,73.67,59.56,73.5z"/>
			</g>
		</g>
		<g>
			<g>
				<g>
					<g>
						<path class="st0" d="M94.11,67.64c0,0,3.65,3.21-0.2,6.14c-2.43,1.85-5,1.02-5,1.02l-1.01-3.92
							C87.91,70.88,89.58,65.43,94.11,67.64z"/>
					</g>
				</g>
				<g>
					<g>
						<path class="st1" d="M88.61,68.87c0.17-0.31,0.37-0.63,0.61-0.91c0.27-0.25,0.55-0.48,0.87-0.68
							c0.63-0.39,1.38-0.59,2.11-0.56c0.73,0.03,1.43,0.25,2.06,0.56l0.05,0.02l0.03,0.03c0.22,0.2,0.4,0.4,0.58,0.62
							c0.17,0.22,0.34,0.45,0.48,0.69c0.29,0.48,0.52,1.03,0.6,1.62c0.09,0.59,0.02,1.22-0.21,1.77c-0.22,0.55-0.57,1.02-0.96,1.42
							c-0.78,0.78-1.74,1.37-2.79,1.67c-0.13,0.04-0.26,0.09-0.4,0.09c-0.14,0.01-0.27,0.02-0.41,0.02
							c-0.27,0.01-0.54-0.01-0.8-0.03c-0.53-0.07-1.05-0.19-1.52-0.41c0.51,0.05,1.02,0.03,1.52-0.05c0.25-0.04,0.49-0.09,0.72-0.16
							c0.12-0.03,0.23-0.07,0.35-0.11c0.11-0.04,0.23-0.06,0.35-0.09c0.93-0.26,1.78-0.78,2.48-1.47c0.34-0.35,0.63-0.74,0.8-1.17
							c0.17-0.43,0.23-0.9,0.16-1.36c-0.13-0.91-0.71-1.79-1.38-2.43c0.02,0.01,0.03,0.01,0.05,0.02l-0.08-0.05
							c0.01,0.01,0.02,0.02,0.03,0.03c-0.56-0.26-1.15-0.44-1.73-0.47c-0.6-0.02-1.2,0.13-1.72,0.45c-0.26,0.16-0.5,0.35-0.72,0.59
							c-0.24,0.2-0.48,0.42-0.69,0.67c-0.43,0.5-0.82,1.06-1.14,1.68c0.06-0.35,0.15-0.69,0.27-1.02
							C88.3,69.52,88.44,69.19,88.61,68.87z"/>
					</g>
				</g>
				<g>
					<g>
						<path class="st1" d="M93.91,67.96c-0.01-0.01-0.02-0.02-0.03-0.03l0.08,0.05C93.94,67.97,93.92,67.96,93.91,67.96z"/>
					</g>
				</g>
			</g>
			<g>
				<g>
					<path class="st24" d="M90.22,69.78c0,0,1.43-1.33,3.4-0.34c0,0,1.1,3.6-3.06,3.64c0,0-1.42-0.03,0-1.83
						C90.81,70.93,89.97,70.35,90.22,69.78z"/>
				</g>
			</g>
			<g>
				<g>
					<path class="st1" d="M90.51,69.99c-0.12,0.07-0.24,0.14-0.36,0.21l-0.01-0.49c0.11,0.07,0.2,0.13,0.29,0.2
						C90.46,69.94,90.48,69.97,90.51,69.99z"/>
				</g>
			</g>
			<g>
				<g>
					<path class="st1" d="M89.89,70.21l-0.41-0.25l0.4-0.24c0.36-0.22,0.74-0.41,1.15-0.56c0.4-0.15,0.83-0.26,1.28-0.24
						c0.23,0.01,0.46,0.07,0.66,0.2c0.2,0.12,0.37,0.31,0.47,0.52c0.1,0.21,0.15,0.43,0.17,0.65c0.02,0.22,0.01,0.44-0.04,0.65
						c-0.02-0.42-0.12-0.85-0.34-1.17c-0.11-0.16-0.25-0.28-0.41-0.35c-0.16-0.07-0.34-0.09-0.52-0.09c-0.37,0.02-0.74,0.15-1.1,0.3
						c-0.24,0.11-0.47,0.23-0.7,0.36c-0.03-0.02-0.05-0.05-0.08-0.07c-0.09-0.08-0.18-0.14-0.29-0.2l0.01,0.49
						c0.12-0.07,0.24-0.14,0.36-0.21c0.06,0.06,0.12,0.12,0.17,0.19c0.15,0.19,0.28,0.48,0.24,0.77c-0.03,0.3-0.19,0.53-0.35,0.7
						c-0.16,0.16-0.33,0.29-0.5,0.4c0.01-0.01,0.01-0.01,0.02-0.02l-0.04,0.03c0.01,0,0.01-0.01,0.02-0.01
						c-0.04,0.05-0.1,0.11-0.12,0.17c-0.03,0.07-0.04,0.13-0.03,0.18c0.02,0.11,0.17,0.25,0.34,0.33c0.18,0.09,0.38,0.16,0.58,0.22
						c0.2,0.06,0.41,0.1,0.63,0.16c-0.22,0.02-0.43,0.03-0.65,0.02c-0.22-0.02-0.44-0.03-0.66-0.11c-0.11-0.03-0.22-0.08-0.33-0.15
						c-0.11-0.07-0.22-0.18-0.28-0.34c-0.06-0.16-0.04-0.33,0.01-0.47c0.05-0.14,0.11-0.25,0.21-0.37l0.01-0.01l0.03-0.02
						c0.15-0.11,0.29-0.23,0.4-0.36c0.11-0.13,0.18-0.27,0.18-0.39c0.01-0.12-0.04-0.24-0.13-0.37
						C90.16,70.41,90.02,70.29,89.89,70.21z"/>
				</g>
			</g>
			<g>
				<g>
					<path class="st1" d="M90.07,72.05c-0.01,0-0.01,0.01-0.02,0.01l0.04-0.03C90.09,72.04,90.08,72.05,90.07,72.05z"/>
				</g>
			</g>
		</g>
		<g>
			<g>
				<g>
					<g>
						<path class="st10" d="M78.46,54.22c0,0,5.33-5.32,5.49-11.45c0,0,0.31-3.31-2.52-4.19c0,0-3.65-0.93-4.83,3.2
							c0,0-2.33,5.14-0.11,11.8L78.46,54.22z"/>
						<path class="st11" d="M76.19,53.88l-0.06-0.18c-2.18-6.55-0.08-11.59,0.12-12.05c1.27-4.4,5.24-3.45,5.28-3.43l0.02,0.01
							c2.98,0.92,2.8,4.3,2.78,4.57c-0.17,6.2-5.38,11.48-5.6,11.7l-0.16,0.16L76.19,53.88z M76.97,41.89l-0.02,0.05
							c-0.02,0.05-2.2,5-0.16,11.34l1.56,0.51c0.88-0.94,5.08-5.71,5.22-11.03l0-0.03c0-0.03,0.25-3-2.24-3.79
							C81.1,38.9,78.02,38.22,76.97,41.89z"/>
					</g>
					<g>
						<path class="st12" d="M77.28,53.36c0,0,2.01-4.19,3.98-14.18c0,0-3.67-0.4-4.36,3.65C76.89,42.83,74.67,48.06,77.28,53.36z"/>
					</g>
					<g>
						<path class="st9" d="M83.73,43.02c0,0-2,1.76-3.92,2.29c0,0-1.76-1.53-2.9-3.59c0,0-0.32,0.71-0.52,1.97
							c0,0,1.46,2.68,3.02,3.45c0,0,1.99-0.27,4-2.08C83.41,45.07,83.61,44.39,83.73,43.02z"/>
					</g>
					<g>
						<path class="st9" d="M82.44,47.86c0,0-2.02,1.22-3.65,1.54c0,0-1.96-1.54-2.86-3.3c0,0-0.17,0.58-0.16,1.86
							c0,0,1.31,2.19,2.61,2.92c0,0,1.39-0.04,3.15-1.39C81.52,49.5,81.78,49.16,82.44,47.86z"/>
					</g>
				</g>
				<g>
					<path class="st11" d="M77.95,53.94c0.32-1.1,0.61-2.21,0.9-3.31c0.28-1.11,0.55-2.22,0.8-3.33c0.25-1.11,0.49-2.23,0.71-3.35
						c0.23-1.12,0.43-2.24,0.63-3.37c-0.25,1.11-0.51,2.22-0.78,3.33c-0.27,1.11-0.57,2.21-0.87,3.3c-0.3,1.1-0.62,2.19-0.95,3.28
						c-0.33,1.09-0.68,2.17-1.04,3.24L77.95,53.94z"/>
				</g>
			</g>
			<g>
				<g>
					<g>
						<path class="st10" d="M81.43,58.03c0,0,6.18-4.2,7.44-10.19c0,0,0.9-3.19-1.73-4.6c0,0-3.42-1.61-5.32,2.21
							c0,0-3.2,4.6-2.21,11.57L81.43,58.03z"/>
						<path class="st11" d="M79.26,57.27l-0.03-0.19c-0.97-6.86,1.98-11.41,2.26-11.82c2.04-4.08,5.77-2.38,5.81-2.36l0.02,0.01
							c2.76,1.48,1.98,4.76,1.92,5.02c-1.28,6.06-7.34,10.24-7.59,10.42l-0.19,0.13L79.26,57.27z M82.16,45.62l-0.03,0.05
							c-0.03,0.04-3.05,4.47-2.18,11.12l1.44,0.8c1.03-0.76,6.01-4.63,7.09-9.82l0.01-0.02c0.03-0.12,0.78-2.91-1.53-4.16
							C86.76,43.49,83.84,42.23,82.16,45.62z"/>
					</g>
					<g>
						<path class="st12" d="M80.42,56.96c0,0,2.72-3.73,6.44-13.17c0,0-3.54-1.1-4.94,2.74C81.92,46.54,78.8,51.24,80.42,56.96z"/>
					</g>
					<g>
						<path class="st9" d="M88.61,48.04c0,0-2.28,1.34-4.26,1.5c0,0-1.46-1.84-2.21-4.08c0,0-0.44,0.63-0.86,1.84
							c0,0,0.95,2.91,2.35,3.97c0,0,2.01,0.12,4.3-1.27C87.92,49.99,88.24,49.37,88.61,48.04z"/>
					</g>
					<g>
						<path class="st9" d="M86.47,52.55c0,0-2.2,0.81-3.87,0.81c0,0-1.65-1.89-2.22-3.79c0,0-0.27,0.54-0.48,1.79
							c0,0,0.9,2.4,2.04,3.37c0,0,1.37,0.23,3.34-0.76C85.28,53.98,85.6,53.7,86.47,52.55z"/>
					</g>
				</g>
				<g>
					<path class="st11" d="M80.98,57.66c0.51-1.02,1-2.05,1.47-3.08c0.47-1.03,0.93-2.07,1.38-3.12c0.45-1.05,0.88-2.1,1.3-3.15
						c0.42-1.06,0.82-2.12,1.22-3.19c-0.44,1.05-0.89,2.09-1.36,3.12c-0.47,1.03-0.95,2.06-1.44,3.08c-0.49,1.02-1,2.03-1.52,3.04
						c-0.52,1-1.05,2-1.6,2.98L80.98,57.66z"/>
				</g>
			</g>
			<g>
				<g>
					<g>
						<path class="st10" d="M85.72,57.86c0,0,7.1-2.12,9.99-7.46c0,0,1.76-2.77-0.35-4.92c0,0-2.82-2.59-5.71,0.48
							c0,0-4.36,3.41-5.39,10.38L85.72,57.86z"/>
						<path class="st11" d="M83.86,56.47l0.03-0.18c1.01-6.85,5.12-10.29,5.51-10.6c3.11-3.28,6.19-0.51,6.22-0.48l0.01,0.01
							c2.21,2.25,0.55,5.14,0.41,5.38c-2.94,5.41-9.92,7.55-10.21,7.64l-0.22,0.07L83.86,56.47z M89.93,46.22l-0.04,0.04
							c-0.04,0.03-4.18,3.34-5.22,9.95l1.16,1.21c1.2-0.41,7.04-2.58,9.55-7.21l0.01-0.02c0.06-0.1,1.57-2.55-0.29-4.45
							C94.92,45.6,92.48,43.51,89.93,46.22z"/>
					</g>
					<g>
						<path class="st12" d="M85.06,56.53c0,0,3.65-2.73,9.88-10.61c0,0-3.07-2.14-5.5,1.11C89.44,47.03,85.12,50.57,85.06,56.53z"/>
					</g>
					<g>
						<path class="st9" d="M95.4,50.51c0,0-2.56,0.58-4.49,0.12c0,0-0.87-2.21-0.96-4.58c0,0-0.6,0.47-1.35,1.49
							c0,0,0.09,3.08,1.12,4.52c0,0,1.88,0.73,4.47,0.1C94.2,52.17,94.68,51.67,95.4,50.51z"/>
					</g>
					<g>
						<path class="st9" d="M92.08,54.17c0,0-2.33,0.1-3.92-0.41c0,0-1.05-2.31-1.05-4.3c0,0-0.41,0.43-0.97,1.57
							c0,0,0.18,2.57,0.99,3.85c0,0,1.24,0.64,3.41,0.3C90.54,55.17,90.92,55,92.08,54.17z"/>
					</g>
				</g>
				<g>
					<path class="st11" d="M85.39,57.37c0.78-0.82,1.53-1.65,2.28-2.5c0.74-0.84,1.48-1.7,2.2-2.56c0.72-0.86,1.44-1.73,2.13-2.62
						c0.7-0.88,1.39-1.78,2.06-2.67c-0.72,0.86-1.44,1.72-2.19,2.56c-0.74,0.85-1.49,1.68-2.25,2.5c-0.76,0.82-1.53,1.63-2.31,2.44
						c-0.78,0.8-1.57,1.59-2.37,2.36L85.39,57.37z"/>
				</g>
			</g>
			<g>
				<g>
					<g>
						<path class="st10" d="M69.53,57.58c0,0-1.7-7.46-6.13-10.69c0,0-2.3-1.94-4.11,0.15c0,0-2.19,2.81,0.35,5.94
							c0,0,2.81,4.67,8.61,6.04L69.53,57.58z"/>
						<path class="st11" d="M68.16,59.39c-5.74-1.35-8.59-5.78-8.84-6.19c-2.67-3.32-0.36-6.37-0.34-6.4L59,46.8
							c1.62-1.88,3.73-0.96,4.63-0.2c4.48,3.28,6.2,10.59,6.27,10.9l0.04,0.19l-1.56,1.76L68.16,59.39z M63.18,47.2l-0.02-0.02
							c-0.08-0.07-2.03-1.67-3.58,0.1c-0.14,0.18-1.92,2.66,0.35,5.47l0.03,0.04c0.03,0.04,2.72,4.43,8.16,5.81l1-1.13
							C68.82,56.31,67.06,50.03,63.18,47.2z"/>
					</g>
					<g>
						<path class="st12" d="M68.41,58.21c0,0-2.24-3.91-8.76-10.7c0,0-1.82,3.1,0.87,5.75C60.52,53.26,63.44,57.88,68.41,58.21z"/>
					</g>
					<g>
						<path class="st9" d="M63.49,47.21c0,0,0.46,2.68,0.06,4.67c0,0-1.85,0.81-3.83,0.8c0,0,0.39,0.64,1.23,1.46
							c0,0,2.57,0.04,3.78-0.97c0,0,0.62-1.93,0.13-4.64C64.86,48.54,64.45,48.02,63.49,47.21z"/>
					</g>
					<g>
						<path class="st9" d="M66.51,50.81c0,0,0.06,2.43-0.38,4.05c0,0-1.94,0.99-3.6,0.9c0,0,0.35,0.45,1.3,1.07
							c0,0,2.15-0.08,3.22-0.87c0,0,0.55-1.26,0.28-3.52C67.33,52.45,67.19,52.05,66.51,50.81z"/>
					</g>
				</g>
				<g>
					<path class="st11" d="M69.12,57.9c-0.68-0.84-1.36-1.66-2.06-2.47c-0.7-0.81-1.4-1.61-2.12-2.39
						c-0.71-0.79-1.43-1.56-2.16-2.33c-0.73-0.77-1.47-1.51-2.21-2.26c0.71,0.78,1.42,1.57,2.12,2.38c0.7,0.8,1.39,1.62,2.07,2.44
						c0.68,0.82,1.35,1.66,2.01,2.5c0.66,0.84,1.31,1.7,1.95,2.57L69.12,57.9z"/>
				</g>
			</g>
			<g>
				<g>
					<g>
						<path class="st10" d="M73.56,56.83c0,0-0.53-7.66-4.4-11.8c0,0-1.97-2.41-4.09-0.76c0,0-2.6,2.26-0.58,5.88
							c0,0,2.05,5.19,7.58,7.81L73.56,56.83z"/>
						<path class="st11" d="M71.9,58.3c-5.46-2.59-7.58-7.55-7.76-7.99c-2.13-3.83,0.64-6.31,0.67-6.33l0.02-0.01
							c1.9-1.48,3.84-0.12,4.61,0.81c3.92,4.19,4.47,11.71,4.5,12.02l0.01,0.2l-1.84,1.39L71.9,58.3z M68.88,45.29l-0.02-0.02
							c-0.07-0.09-1.76-2.09-3.56-0.71c-0.13,0.12-2.29,2.18-0.49,5.41l0.02,0.05c0.02,0.05,2.02,4.95,7.18,7.51l1.14-0.86
							C73.05,55.43,72.28,48.92,68.88,45.29z"/>
					</g>
					<g>
						<path class="st12" d="M72.35,57.2c0,0-1.61-4.31-7-12.4c0,0-2.27,2.62-0.03,5.81C65.32,50.61,67.49,55.78,72.35,57.2z"/>
					</g>
					<g>
						<path class="st9" d="M69.2,45.37c0,0,0.04,2.72-0.66,4.58c0,0-1.96,0.38-3.91-0.07c0,0,0.28,0.71,0.99,1.7
							c0,0,2.53,0.61,3.89-0.11c0,0,0.91-1.74,0.85-4.5C70.34,46.96,70.02,46.36,69.2,45.37z"/>
					</g>
					<g>
						<path class="st9" d="M71.62,49.55c0,0-0.31,2.38-1.01,3.88c0,0-2.07,0.53-3.7,0.08c0,0,0.28,0.52,1.12,1.34
							c0,0,2.14,0.4,3.32-0.13c0,0,0.74-1.11,0.83-3.38C72.18,51.34,72.1,50.91,71.62,49.55z"/>
					</g>
				</g>
				<g>
					<path class="st11" d="M73.1,57.05c-0.54-0.97-1.09-1.92-1.65-2.87c-0.56-0.94-1.14-1.88-1.72-2.81
						c-0.58-0.93-1.17-1.85-1.78-2.75c-0.6-0.91-1.22-1.8-1.84-2.69c0.58,0.92,1.16,1.85,1.73,2.79c0.57,0.94,1.12,1.89,1.66,2.84
						c0.54,0.96,1.08,1.92,1.6,2.89c0.52,0.97,1.04,1.95,1.53,2.94L73.1,57.05z"/>
				</g>
			</g>
			<g>
				<g>
					<g>
						<path class="st10" d="M75.21,52.9c0,0,1.38-7.44-1.34-12.72c0,0-1.31-2.98-3.76-2.16c0,0-3.07,1.22-2.01,5.36
							c0,0,0.7,5.63,5.39,10.06L75.21,52.9z"/>
						<path class="st11" d="M73.23,53.72c-4.63-4.37-5.44-9.8-5.5-10.26c-1.11-4.4,2.2-5.77,2.24-5.79l0.02-0.01
							c2.19-0.73,3.71,1.22,4.22,2.36c2.74,5.33,1.43,12.64,1.37,12.95l-0.04,0.22l-2.15,0.67L73.23,53.72z M73.53,40.35l-0.01-0.02
							c-0.01-0.03-1.19-2.64-3.28-1.96c-0.21,0.09-2.72,1.21-1.77,4.92l0.01,0.05c0.01,0.05,0.72,5.42,5.11,9.68l1.28-0.4
							C75.07,51.34,75.9,44.96,73.53,40.35z"/>
					</g>
					<g>
						<path class="st12" d="M73.96,52.82c0,0-0.49-4.65-3.7-14.2c0,0-2.84,1.68-1.46,5.49C68.79,44.11,69.61,49.76,73.96,52.82z"/>
					</g>
					<g>
						<path class="st9" d="M73.82,40.51c0,0-0.63,2.59-1.77,4.1c0,0-1.98-0.33-3.76-1.44c0,0,0.1,0.77,0.54,1.96
							c0,0,2.29,1.47,3.78,1.27c0,0,1.31-1.33,1.92-3.96C74.54,42.43,74.37,41.74,73.82,40.51z"/>
					</g>
					<g>
						<path class="st9" d="M75.13,45.33c0,0-0.89,2.15-1.93,3.31c0,0-2.13-0.22-3.59-1.22c0,0,0.14,0.59,0.75,1.66
							c0,0,1.96,1.13,3.24,1.04c0,0,0.98-0.79,1.63-2.91C75.23,47.21,75.26,46.79,75.13,45.33z"/>
					</g>
				</g>
				<g>
					<path class="st11" d="M74.71,52.94c-0.28-1.11-0.58-2.21-0.89-3.3c-0.31-1.09-0.63-2.18-0.97-3.26
						c-0.33-1.08-0.68-2.16-1.04-3.23c-0.36-1.07-0.73-2.14-1.11-3.2c0.34,1.08,0.67,2.16,0.98,3.25c0.32,1.09,0.61,2.18,0.9,3.28
						c0.29,1.1,0.57,2.2,0.83,3.3c0.26,1.1,0.52,2.21,0.75,3.32L74.71,52.94z"/>
				</g>
			</g>
			<g>
				<g>
					<path class="st25" d="M90.18,55.24c-6.26-4.14-11.25-5.64-11.25-5.64s-6.43-2.18-11.14,3.55c0,0-1.92,1.27-2.71,4.11
						c0,0-4.24,16.53-3.48,28.28c0,0,0.64,3.61,4.24,2.47c0,0,5.29-3.03,8.91-2.18c0,0,1.1,1.53,3.23,3.14
						c1.5,1.13,2.5,2.23,5.78,1.5c0,0,2.78-0.57,5.62-3.22c0,0,1.47-1.07,1.58-5.97c0,0,0.39-19.39,0.33-21.94
						C91.31,59.35,91.53,56.14,90.18,55.24z"/>
					<path class="st11" d="M78.16,89.59c-0.13-0.1-0.26-0.2-0.39-0.3c-1.83-1.39-2.92-2.7-3.22-3.1c-3.43-0.7-8.45,2.14-8.5,2.17
						l-0.07,0.03c-1.19,0.37-2.21,0.31-3.05-0.2c-1.36-0.82-1.67-2.5-1.68-2.57l-0.01-0.04c-0.75-11.67,3.45-28.23,3.49-28.41
						c0.76-2.72,2.49-4.06,2.82-4.29c4.82-5.81,11.45-3.65,11.5-3.64c0.05,0.02,5.11,1.56,11.35,5.69c1.47,0.97,1.33,4.01,1.3,4.43
						c0.06,2.6-0.32,21.15-0.33,21.94c-0.1,4.78-1.47,6.06-1.72,6.25c-2.89,2.68-5.68,3.27-5.79,3.3c-0.76,0.17-1.4,0.24-1.96,0.24
						C80.1,91.09,79.15,90.36,78.16,89.59z M68.09,53.4l-0.04,0.04l-0.05,0.03c-0.02,0.01-1.81,1.24-2.55,3.89
						c-0.04,0.16-4.21,16.59-3.47,28.14c0.04,0.17,0.33,1.44,1.33,2.04c0.63,0.38,1.43,0.42,2.38,0.13c0.52-0.29,5.54-3.04,9.15-2.2
						l0.14,0.03l0.08,0.11c0.01,0.02,1.1,1.51,3.15,3.06c0.14,0.1,0.27,0.21,0.4,0.31c1.26,0.98,2.26,1.75,5.08,1.13
						c0.03-0.01,2.72-0.59,5.44-3.12l0.03-0.03c0.01-0.01,1.33-1.1,1.43-5.68c0-0.19,0.39-19.41,0.33-21.93l0-0.02l0-0.02
						c0.06-0.83-0.01-3.14-0.96-3.77l0,0c-6.14-4.06-11.1-5.58-11.16-5.6c-0.11-0.04-1.23-0.4-2.84-0.4
						C73.77,49.56,70.68,50.25,68.09,53.4z"/>
				</g>
				<g>
					<path class="st26" d="M87.09,54.49c-5.3-3.94-12.52-5.26-12.52-5.26s-4.6,0.39-9.5,4.12c0,0-2.28,1.08-3.07,3.92
						c0,0-2.05,15.4-1.29,27.14c0,0,0.26,2.09,2.06,3.23c0,0,3.16-2.85,8.36-2.18c0,0,4.23,0.85,7.19,3.69c0,0,5.14-0.38,7.63-2.65
						c0,0,1.84-0.31,1.94-5.21c0,0,0.57-21.47,0.51-24.02C88.4,57.27,88.39,55.45,87.09,54.49z"/>
					<path class="st11" d="M78.05,89.43c-2.77-2.65-6.75-3.54-6.99-3.59c-4.94-0.64-8.02,2.06-8.05,2.08l-0.21,0.19l-0.24-0.15
						c-1.93-1.22-2.22-3.41-2.23-3.5l0-0.02c-0.75-11.65,1.28-27.06,1.3-27.22l0.01-0.05c0.78-2.8,2.91-3.98,3.24-4.14
						c4.92-3.74,9.47-4.16,9.67-4.18l0.05,0l0.05,0.01c0.3,0.05,7.37,1.38,12.68,5.33c1.43,1.07,1.46,3,1.46,3.08
						c0.06,2.54-0.49,23.17-0.51,24.04c-0.1,4.54-1.65,5.39-2.14,5.55c-2.57,2.28-7.57,2.67-7.78,2.68l-0.17,0.01L78.05,89.43z
						 M65.3,53.65l-0.07,0.04c-0.02,0.01-2.12,1.03-2.86,3.66c-0.1,0.73-2.02,15.69-1.29,27.03c0.02,0.14,0.28,1.78,1.66,2.8
						c0.84-0.65,3.86-2.68,8.43-2.08l0.03,0c0.18,0.04,4.26,0.88,7.25,3.67c0.88-0.09,5.12-0.6,7.23-2.54l0.07-0.07l0.11-0.02
						c0.02,0,1.54-0.42,1.64-4.85c0.01-0.21,0.57-21.49,0.51-24.01c0-0.02-0.03-1.64-1.16-2.48h0c-4.93-3.67-11.66-5.05-12.31-5.18
						C74.05,49.67,69.79,50.23,65.3,53.65z"/>
				</g>
				<g>
					<path class="st27" d="M79.85,51.58c0,0-1.7,13.16-1.54,36.63c0,0-7.35-7.95-15.37-1.14c0,0,1.13-23.75,3.06-33.4
						c0,0,0.3-1.51,6.93-3.69C72.93,49.98,76.01,49.02,79.85,51.58z"/>
				</g>
				<g>
					<path class="st28" d="M62.57,57.46c0.74-2.68,2.86-3.7,2.86-3.7c0.83-0.64,1.65-1.18,2.44-1.63
						c-0.41,4.14-1.69,18.56-1.09,29.99c0,0,0.1,1.39,0.63,2.46c-2.63,0.55-4.68,2.31-4.68,2.31c-1.68-1.07-1.55-3.43-1.55-3.43
						C60.47,72.37,62.57,57.46,62.57,57.46z"/>
				</g>
				<g>
					<path class="st29" d="M79.53,73.33c0,0-7.22-4.33-14.17-0.05c0,0-2.34,1.27-1.43,4.58c0,0,0.91,2.82,4.01,1.72
						c0,0,4.34-3.07,9.53,1.03c0,0,3.88,0.25,4.88-2.78C82.34,77.82,83.11,74.83,79.53,73.33z"/>
					<path class="st11" d="M77.44,80.98l-0.12-0.01l-0.09-0.07c-4.89-3.86-8.91-1.13-9.08-1.01l-0.04,0.03l-0.05,0.02
						c-1.07,0.38-2.03,0.37-2.84-0.03c-1.22-0.6-1.64-1.87-1.66-1.94c-0.93-3.41,1.37-4.87,1.6-5.01
						c6.85-4.22,14.05-0.25,14.54,0.03c3.81,1.61,3.02,4.9,3.02,4.93l-0.01,0.02c-0.93,2.86-4.22,3.05-5.06,3.05
						C77.52,80.99,77.45,80.98,77.44,80.98z M79.38,73.68l-0.05-0.02c-0.07-0.04-7.11-4.16-13.79-0.04
						c-0.08,0.05-2.06,1.19-1.25,4.14c0,0.01,0.35,1.03,1.28,1.48c0.61,0.3,1.35,0.3,2.2,0.01c0.51-0.33,4.83-2.88,9.83,0.99
						c0.63,0.01,3.56-0.05,4.37-2.51C82.03,77.5,82.53,74.99,79.38,73.68z"/>
				</g>
				<g>
					<path class="st6" d="M66.82,53.8c0.1-0.4,0.1-1.16,0.36,6.63c0,0,0.35-5.48,1.23-7.92L66.82,53.8z"/>
				</g>
				<g>
					<path class="st6" d="M79.01,51.72c0,0,0,1.14,0.18,8.52c0,0,0.35-6.24,1.23-8.68L79.01,51.72z"/>
				</g>
				<g>
					<path class="st26" d="M70.99,50.64c-0.18,1.65-0.32,3.28-0.45,4.93c-0.12,1.64-0.23,3.29-0.3,4.93
						c-0.07,1.65-0.13,3.29-0.12,4.94c0,1.65,0.04,3.29,0.18,4.93c-0.05-1.64,0-3.29,0.09-4.92c0.09-1.64,0.23-3.27,0.39-4.9
						c0.16-1.63,0.36-3.26,0.57-4.88c0.22-1.62,0.45-3.25,0.71-4.86L70.99,50.64z"/>
				</g>
				<g>
					<g>
						<path class="st6" d="M86.59,55.34c-5.18-3.78-12.97-4.66-12.97-4.66s-4.13,0.75-8.92,4.33c0,0-1.03,0.67-1.93,1.83
							c0.89-2.23,2.72-3.09,2.72-3.09c4.7-3.58,9.11-3.95,9.11-3.95s6.93,1.26,12,5.04C87.85,55.76,87.86,56.27,86.59,55.34z"/>
					</g>
					<g>
						<path class="st11" d="M64.74,53.18c-0.02,0.04-0.02,0.06-0.03,0.08l-0.02,0.07c-0.01,0.04-0.03,0.09-0.04,0.13
							c-0.02,0.09-0.04,0.17-0.06,0.26c-0.04,0.17-0.07,0.34-0.1,0.5c-0.06,0.33-0.1,0.67-0.13,1c-0.07,0.66-0.11,1.33-0.14,1.99
							c-0.03,0.66-0.04,1.32-0.05,1.99c0,0.66,0,1.32,0.02,1.98c0.05-0.66,0.1-1.32,0.17-1.97c0.06-0.66,0.14-1.31,0.23-1.96
							c0.09-0.65,0.19-1.3,0.32-1.94c0.07-0.32,0.13-0.64,0.22-0.94c0.04-0.16,0.08-0.31,0.13-0.46c0.02-0.07,0.05-0.15,0.07-0.22
							c0.01-0.04,0.03-0.07,0.04-0.1l0.02-0.05c0.01-0.01,0.02-0.03,0.01-0.03L64.74,53.18z"/>
					</g>
				</g>
				<g>
					<path class="st6" d="M84.82,59.47c-0.32,1.86-0.54,3.74-0.72,5.61c-0.09,0.94-0.16,1.88-0.23,2.82
						c-0.04,0.47-0.06,0.94-0.08,1.41c-0.02,0.47-0.05,0.94-0.07,1.41c-0.03,0.94-0.06,1.89-0.08,2.83
						c-0.01,0.47-0.01,0.94-0.01,1.42c0,0.47,0,0.94,0.01,1.42c0.03,1.89,0.13,3.78,0.34,5.66c0.1-1.89,0.16-3.77,0.23-5.65
						c0.05-0.94,0.07-1.88,0.12-2.82l0.05-1.41l0.06-1.41l0.22-5.64C84.74,63.24,84.8,61.36,84.82,59.47z"/>
				</g>
				<g>
					<path class="st11" d="M79.13,74.88c0,0-6.43-3.98-12.59-0.48c0,0-2.1,1.21-1.27,3.88c-0.31-0.86-0.04,1.64,2.72,1.21
						c0,0,4.81-2.27,9.5,1.06c0,0,3.5,0.22,4.38-2.22C81.87,78.33,82.39,76.93,79.13,74.88z"/>
					<path class="st11" d="M77.46,80.93l-0.11-0.01l-0.09-0.06c-4.45-3.16-9.08-1.05-9.12-1.02l-0.05,0.02l-0.05,0.01
						c-2.31,0.36-3.14-1.19-3.24-1.62c-0.02-0.09-0.02-0.17,0-0.24c-0.6-2.67,1.53-3.92,1.55-3.94c6.29-3.57,12.91,0.45,12.98,0.49
						l0,0c3.43,2.15,2.96,3.73,2.89,3.9c-0.83,2.29-3.62,2.48-4.5,2.48C77.58,80.94,77.48,80.94,77.46,80.93z M66.72,74.73
						c-0.08,0.04-1.83,1.08-1.1,3.44l-0.04,0.01c0.15,0.31,0.71,1.17,2.29,0.94c0.57-0.25,5.16-2.13,9.74,1.05
						c0.56,0.01,3.21-0.05,3.9-1.98c0-0.01,0.29-1.19-2.59-3C78.82,75.14,72.6,71.39,66.72,74.73z M64.94,78.4
						c0.08,0.06,0.21,0.11,0.36,0.05c0.14-0.05,0.2-0.16,0.23-0.25L64.94,78.4z"/>
				</g>
				<g>
					<path class="st26" d="M79.31,74.69c0,0-0.42-0.88-0.84-1.07c-1.93-0.86-7.56-2.24-12.48,0.78c0,0,0.17,2.24,1.65,2.15
						c0,0,1.55-0.12,1.44-1.31c0,0,0.28,1.31,1.44,1.31c0,0,1.7,0.15,1.61-1.62c0,0-0.37,1.98,1.96,2c0,0,1.48,0.03,1.45-1.68
						c0,0-0.36,1.95,1.7,2.16C77.22,77.4,79.93,77.57,79.31,74.69z"/>
				</g>
				<g>
					<path class="st6" d="M78.58,73.75c0,0-5.88-3.37-12.59-0.29c0,0-0.21,2.52,1.28,2.53c0,0,1.2-0.17,1.25-1.69
						c0,0,0.28,1.5,1.44,1.5c0,0,1.7-0.04,1.61-1.81c0,0-0.37,1.98,1.96,2c0,0,1.48,0.22,1.45-1.49c0,0-0.02,2.05,1.52,2.35
						C76.5,76.83,79.2,76.62,78.58,73.75z"/>
				</g>
				<g>
					<path class="st11" d="M88.4,87.74c-0.26-0.05-0.52-0.12-0.77-0.19c-0.25-0.08-0.5-0.16-0.74-0.26c-0.24-0.09-0.48-0.2-0.7-0.32
						c-0.23-0.11-0.45-0.24-0.67-0.38l0.12,0.16c-0.04-0.18-0.07-0.4-0.09-0.6c-0.02-0.21-0.04-0.42-0.06-0.63
						c-0.03-0.42-0.05-0.84-0.06-1.27c-0.02-0.43-0.01-0.85-0.02-1.28l0-0.65c0-0.22,0-0.43-0.01-0.65
						c-0.06,0.21-0.12,0.42-0.17,0.63c-0.04,0.21-0.09,0.43-0.12,0.64c-0.03,0.22-0.07,0.43-0.09,0.65
						c-0.02,0.22-0.05,0.43-0.06,0.65c-0.03,0.44-0.03,0.88,0,1.32c0.01,0.22,0.03,0.44,0.06,0.66c0.03,0.22,0.07,0.43,0.12,0.67
						l0.03,0.11l0.09,0.05c0.24,0.13,0.49,0.26,0.75,0.35c0.26,0.1,0.52,0.18,0.78,0.24c0.27,0.06,0.53,0.1,0.8,0.11
						C87.87,87.78,88.14,87.78,88.4,87.74z"/>
				</g>
				<g>
					<path class="st11" d="M82.32,88.32C82.32,88.33,82.32,88.32,82.32,88.32c0,0-0.01-0.01-0.01-0.01
						c-0.01-0.01-0.01-0.02-0.02-0.04c-0.01-0.03-0.03-0.06-0.04-0.09c-0.03-0.07-0.05-0.14-0.07-0.21
						c-0.05-0.14-0.09-0.29-0.13-0.44c-0.08-0.3-0.15-0.61-0.21-0.92c-0.12-0.62-0.22-1.26-0.31-1.9c-0.07,0.64-0.12,1.28-0.15,1.93
						c-0.01,0.32-0.02,0.65-0.02,0.98c0,0.17,0.01,0.33,0.02,0.5c0.01,0.09,0.01,0.17,0.03,0.26c0.01,0.04,0.01,0.09,0.02,0.14
						l0.01,0.07l0.01,0.04c0,0.02,0.01,0.03,0.02,0.06L82.32,88.32z"/>
				</g>
				<g>
					<path class="st11" d="M79.91,90.74c0.42-0.1,0.81-0.21,1.21-0.34c0.4-0.13,0.79-0.27,1.17-0.44c0.38-0.16,0.76-0.35,1.12-0.57
						c0.35-0.22,0.7-0.47,0.96-0.81c-0.31,0.28-0.68,0.45-1.05,0.59c-0.37,0.14-0.76,0.25-1.15,0.33c-0.39,0.08-0.79,0.15-1.18,0.19
						c-0.39,0.05-0.8,0.08-1.18,0.1L79.91,90.74z"/>
				</g>
				<g>
					<g>
						<path class="st29" d="M73.53,62.15c0,0,2.26-0.96,5.48-1.5c0,0,1.52-0.21,3.57,0.19c0,0,1.88,3.78-2.24,5.87
							c0,0-3.67,1.12-5.71-1.14C74.62,65.57,73.67,64.88,73.53,62.15z"/>
						<path class="st11" d="M74.36,65.85c-0.21-0.18-1.08-1.05-1.21-3.68l-0.01-0.26l0.24-0.1c0.09-0.04,2.34-0.98,5.57-1.53
							c0.06-0.01,1.61-0.22,3.69,0.19l0.18,0.04l0.08,0.17c0.02,0.04,1.99,4.14-2.41,6.38l-0.06,0.02c-0.08,0.02-1.01,0.3-2.2,0.3
							C77,67.37,75.48,67.06,74.36,65.85z M82.31,61.17c-1.86-0.33-3.24-0.15-3.24-0.15c-2.53,0.43-4.48,1.13-5.14,1.38
							c0.17,2.24,0.92,2.86,0.92,2.87l0.06,0.05c1.76,1.95,4.95,1.13,5.29,1.04C83.46,64.67,82.6,61.88,82.31,61.17z"/>
					</g>
					<g>
						<path class="st11" d="M75.35,63.36c0,0,0.92-0.45,3.51-0.82c0,0,1.96-0.33,3.61-0.06c0,0,1.51,2.34-1.81,3.75
							c0,0-2.6,0.75-4.24-0.76C76.41,65.47,75.46,65.19,75.35,63.36z"/>
						<path class="st11" d="M76.21,65.79c-0.29-0.13-1.13-0.67-1.24-2.41l-0.01-0.25l0.23-0.11c0.04-0.02,1-0.48,3.61-0.85
							c0.08-0.01,2.04-0.34,3.73-0.06l0.17,0.03l0.09,0.14c0.03,0.04,0.65,1.03,0.3,2.18c-0.27,0.89-1.04,1.6-2.28,2.13l-0.04,0.01
							c-0.06,0.02-0.73,0.2-1.6,0.2C78.25,66.8,77.12,66.6,76.21,65.79z M82.35,64.24c0.19-0.6-0.01-1.16-0.13-1.41
							c-1.53-0.21-3.28,0.09-3.31,0.09c-1.78,0.25-2.75,0.55-3.16,0.69c0.15,1.26,0.75,1.49,0.77,1.49l0.09,0.02l0.07,0.06
							c1.4,1.28,3.63,0.74,3.86,0.68C81.54,65.44,82.15,64.89,82.35,64.24z"/>
					</g>
					<g>
						<path class="st11" d="M82.11,65.95c0,0,0.98,3.35-0.36,3.67C81.75,69.62,80.91,68.77,82.11,65.95z"/>
					</g>
					<g>
						<path class="st11" d="M79.85,67.12l-0.15,4.13c0,0-0.4,1.11,0.6,1.13c0,0,0.23-0.28,0.25-1.88l-0.22-3.79L79.85,67.12z"/>
					</g>
				</g>
				<g>
					<path class="st29" d="M71.24,62.43c0,0-1.89-0.97-4.62-1.64c0,0-1.3-0.28-3.08-0.06c0,0-1.84,3.13,1.58,5.19
						c0,0,3.09,1.2,4.98-0.61C70.1,65.3,70.96,64.77,71.24,62.43z"/>
					<path class="st11" d="M64.99,66.27l-0.06-0.03c-3.69-2.23-1.73-5.67-1.71-5.71l0.09-0.16l0.19-0.02
						c1.82-0.22,3.15,0.06,3.21,0.07c2.74,0.68,4.62,1.63,4.7,1.67l0.23,0.12l-0.03,0.26c-0.27,2.25-1.07,2.97-1.28,3.12
						c-0.9,0.85-2.02,1.09-3,1.09C66.09,66.69,65.06,66.3,64.99,66.27z M66.54,61.16c-0.01,0-1.17-0.24-2.75-0.08
						c-0.3,0.63-1.12,2.89,1.5,4.49c0.3,0.11,2.95,0.99,4.55-0.54l0.05-0.04c0.01-0.01,0.66-0.48,0.94-2.33
						C70.25,62.38,68.64,61.68,66.54,61.16z"/>
				</g>
				<g>
					<path class="st11" d="M71.05,63.78c0,0-1.53-0.86-3.74-1.34c0,0-0.87-0.39-2.3-0.26c0,0-1.09,2.27,1.68,3.69
						c0,0,1.95,0.65,3.46-0.55C70.16,65.31,70.85,65.34,71.05,63.78z"/>
					<path class="st11" d="M66.58,66.22l-0.05-0.02c-3.06-1.57-1.87-4.16-1.85-4.19l0.09-0.19l0.22-0.02
						c1.36-0.12,2.25,0.2,2.45,0.28c2.22,0.49,3.74,1.33,3.81,1.37l0.22,0.12l-0.03,0.25c-0.19,1.46-0.81,1.78-1.11,1.85
						c-0.79,0.59-1.66,0.74-2.37,0.74C67.18,66.42,66.62,66.24,66.58,66.22z M70.16,64.93c0.11-0.03,0.34-0.25,0.47-0.94
						c-0.5-0.25-1.77-0.82-3.4-1.18l-0.07-0.02c-0.01,0-0.71-0.3-1.88-0.25c-0.16,0.53-0.38,1.97,1.56,2.98
						c0.22,0.06,1.84,0.49,3.08-0.49l0.08-0.12L70.16,64.93z M70.17,64.94L70.17,64.94L70.17,64.94z"/>
				</g>
				<g>
					<path class="st11" d="M65.39,66.28l0.09,3.56c0,0,0.34,0.96-0.53,0.97c0,0-0.19-0.24-0.2-1.62l0.22-3.26L65.39,66.28z"/>
				</g>
				<g>
					<path class="st11" d="M63.58,64.32l0.09,2.85c0,0,0.34,0.77-0.53,0.77c0,0-0.19-0.19-0.2-1.3l0.22-2.61L63.58,64.32z"/>
				</g>
				<g>
					<path class="st26" d="M76.56,60.99c-0.04-0.51-0.07-1.04-0.09-1.56c-0.02-0.53-0.03-1.05-0.03-1.58c0-0.53,0.01-1.06,0.04-1.58
						c0.02-0.53,0.06-1.06,0.11-1.59c-0.14,0.51-0.27,1.03-0.38,1.55c-0.11,0.52-0.22,1.04-0.31,1.57
						c-0.09,0.53-0.17,1.06-0.25,1.59c-0.07,0.53-0.13,1.06-0.18,1.61L76.56,60.99z"/>
				</g>
				<g>
					<path class="st26" d="M76.05,82.9c0,0-3.51-3.76-9.01-0.67C67.05,82.23,72.76,80.92,76.05,82.9z"/>
				</g>
				<g>
					<path class="st30" d="M76.74,48.74c0.31-1.02-0.8-2.05-4.9-1.89c0,0-1,1.6-0.95,4.25c0.01,0.57,0.17,0.37,1.11,1.62
						c0,0,1.06-0.21,3.73,0c0,0,0.19-0.52,0.3-1.35C76.16,50.54,76.37,49.97,76.74,48.74z"/>
					<path class="st11" d="M71.7,52.95c-0.37-0.49-0.61-0.75-0.77-0.92c-0.28-0.3-0.41-0.45-0.42-0.92
						c-0.06-2.74,0.97-4.39,1.01-4.46l0.11-0.17l0.2-0.01c2.69-0.1,4.4,0.28,5.06,1.14c0.28,0.36,0.36,0.79,0.22,1.24l0,0
						c-0.08,0.25-0.15,0.48-0.21,0.68c-0.24,0.79-0.39,1.26-0.48,1.89c-0.12,0.86-0.31,1.4-0.32,1.42L76,53.12l-0.29-0.02
						c-2.56-0.2-3.62-0.01-3.63-0.01l-0.23,0.05L71.7,52.95z M72.07,47.22c-0.24,0.46-0.84,1.84-0.8,3.87c0,0.2,0,0.2,0.21,0.42
						c0.15,0.16,0.37,0.4,0.69,0.81c0.43-0.05,1.46-0.12,3.29,0.01c0.06-0.22,0.14-0.57,0.2-1c0.1-0.69,0.26-1.21,0.51-2.01
						c0.06-0.2,0.13-0.43,0.21-0.68v0c0.06-0.21,0.03-0.39-0.1-0.56c-0.21-0.27-0.97-0.86-3.65-0.86
						C72.46,47.21,72.27,47.21,72.07,47.22z"/>
				</g>
				<g>
					<path class="st31" d="M75.91,47.75c0.35-0.83-2-1.55-4.85-0.62c0,0-0.6,0.78,0,4.33c0,0,1.45-0.14,3.89,0
						C74.95,51.46,75.07,49.76,75.91,47.75z"/>
					<path class="st11" d="M70.69,51.52c-0.6-3.54-0.04-4.48,0.07-4.63l0.07-0.09l0.11-0.04c2.37-0.77,4.48-0.48,5.14,0.24
						c0.24,0.26,0.3,0.58,0.18,0.88l0,0c-0.81,1.92-0.93,3.58-0.94,3.59l-0.03,0.37l-0.37-0.02c-2.38-0.14-3.81,0-3.83,0l-0.35,0.03
						L70.69,51.52z M75.57,47.6c0.01-0.01,0.01-0.03-0.03-0.08c-0.36-0.39-2.06-0.74-4.2-0.08c-0.1,0.28-0.32,1.24,0.05,3.62
						c0.53-0.03,1.65-0.07,3.23,0.01C74.69,50.44,74.93,49.11,75.57,47.6L75.57,47.6z"/>
				</g>
				<g>
					<path class="st11" d="M88.43,54.77c-0.01,0-0.03,0-0.04,0l-0.01,0c0,0-0.01,0-0.01,0c-0.01,0,0,0,0,0c0-0.01,0.02,0,0.03,0.01
						c0.01,0,0.03,0.02,0.05,0.03c0.02,0.01,0.04,0.02,0.06,0.05c0.04,0.04,0.08,0.08,0.12,0.13c0.04,0.06,0.08,0.1,0.11,0.17
						l0.11,0.19l0.09,0.21c0.07,0.14,0.11,0.29,0.16,0.44c0.19,0.61,0.34,1.26,0.43,1.92c0.02,0.17,0.05,0.33,0.07,0.5l0.06,0.5
						l0.05,0.5l0.04,0.5c0.06,0.67,0.08,1.35,0.11,2.02c0.04-0.67,0.1-1.35,0.11-2.03l0.02-0.51l0-0.51v-0.51
						c0-0.17-0.01-0.34-0.02-0.51c-0.02-0.68-0.09-1.37-0.22-2.07c-0.04-0.17-0.07-0.35-0.13-0.52c-0.03-0.09-0.05-0.17-0.08-0.26
						l-0.11-0.26c-0.03-0.09-0.09-0.18-0.14-0.26c-0.04-0.09-0.11-0.18-0.18-0.26c-0.03-0.04-0.07-0.09-0.12-0.13
						c-0.05-0.04-0.08-0.08-0.15-0.12c-0.06-0.04-0.11-0.07-0.19-0.1c-0.04-0.01-0.07-0.03-0.12-0.04l-0.07-0.01
						c-0.02,0-0.02,0-0.04,0c-0.02,0-0.05,0-0.07,0L88.43,54.77z"/>
				</g>
			</g>
		</g>
		<g>
			<g>
				<path class="st13" d="M94.62,74.12c0,0,0.12-0.8-1.44-1.52c0,0-1.93-1.16-3.59,1.06c0,0-1.71,0.51-0.61,2.41
					c0,0-0.44,1.19,0.89,1.52c0,0-0.61,1.08,0.51,1.32c0,0,0.82-0.12,2.58,0.18c0,0,1,0.24,0.56-1.18c0,0,1.35,0.11,1.26-1.06
					c0,0,1.17-0.29,1.01-1.48C95.79,75.39,95.7,73.98,94.62,74.12z"/>
				<path class="st1" d="M92.91,79.37c-1.68-0.28-2.48-0.18-2.49-0.18l-0.05,0.01l-0.05-0.01c-0.51-0.11-0.73-0.38-0.82-0.58
					c-0.13-0.29-0.09-0.61-0.01-0.84c-0.33-0.14-0.57-0.34-0.71-0.62c-0.21-0.4-0.16-0.83-0.11-1.04c-0.36-0.66-0.44-1.25-0.24-1.75
					c0.23-0.58,0.76-0.85,0.98-0.93c1.69-2.19,3.68-1.19,3.89-1.07c1.14,0.52,1.47,1.12,1.57,1.48c0.23,0.02,0.44,0.1,0.62,0.25
					c0.49,0.4,0.57,1.17,0.58,1.27c0.13,0.98-0.51,1.51-1,1.71c-0.02,0.37-0.18,0.6-0.32,0.74c-0.26,0.26-0.6,0.35-0.87,0.38
					c0.08,0.44,0.02,0.76-0.18,0.97c-0.18,0.19-0.41,0.23-0.59,0.23C93.02,79.39,92.94,79.38,92.91,79.37z M93.54,77.64
					c0.15,0.01,0.58-0.01,0.8-0.23c0.12-0.12,0.17-0.29,0.15-0.52l-0.02-0.24l0.23-0.06c0.09-0.02,0.92-0.26,0.79-1.16l0-0.02
					c-0.01-0.17-0.1-0.66-0.38-0.88c-0.13-0.1-0.28-0.14-0.47-0.11l-0.37,0.05l0.06-0.37c0-0.01,0.03-0.62-1.28-1.22l-0.03-0.02
					c-0.07-0.04-1.72-1.01-3.22,0.99l-0.06,0.07l-0.09,0.03c-0.01,0-0.53,0.17-0.72,0.64c-0.14,0.36-0.05,0.82,0.27,1.36l0.07,0.11
					l-0.04,0.12c0,0-0.14,0.4,0.04,0.72c0.11,0.2,0.33,0.35,0.66,0.43l0.36,0.09l-0.18,0.33c-0.04,0.08-0.19,0.42-0.09,0.64
					c0.05,0.11,0.18,0.2,0.38,0.25c0.22-0.02,1.06-0.08,2.61,0.18l0.02,0c0.03,0.01,0.19,0.03,0.26-0.05
					c0.07-0.08,0.1-0.32-0.04-0.77l-0.12-0.4L93.54,77.64z"/>
			</g>
			<g>
				<path class="st14" d="M89.77,73.81c0,0,0.53-1.08,2.04-0.89c0,0,1.59-0.01,1.78,1.47c0,0,1.05-0.11,1.24,0.94
					c0,0,0.15,1.46-1.34,1.27c0,0,0.85,0.83-1.01,0.77c0,0,0.89,1.16-0.3,1.02c0,0-0.66-0.04-1.71,0.05c0,0-0.9,0.08-0.03-1.03
					c0,0-1.66,0.12-1.17-1.47C89.28,75.92,88.12,74.37,89.77,73.81z"/>
			</g>
			<g>
				<path class="st6" d="M90.63,73.17c0.31-0.51-0.53,0.18-0.89,0.81c0,0-0.94,0.16-0.85,1.13c0,0,0.02,0.52,0.37,0.89
					c0,0-0.38-1.32,1.01-1.91C90.27,74.09,90.09,74.05,90.63,73.17z"/>
			</g>
			<g>
				<g>
					<path class="st13" d="M92.76,74.73c0.27-0.07,0.69-0.34,1.39,0.21c0,0,0.69,0.59-0.3,1.38c0,0-0.92,0.18-1.63-0.35
						C92.22,75.96,92.03,74.93,92.76,74.73z"/>
					<path class="st1" d="M92.05,76.19l-0.09-0.07l-0.02-0.11c-0.08-0.45-0.03-1.35,0.74-1.56l0,0c0.03-0.01,0.07-0.02,0.1-0.03
						c0.28-0.1,0.81-0.28,1.55,0.3c0.04,0.03,0.34,0.31,0.34,0.76c-0.01,0.37-0.22,0.73-0.64,1.06l-0.05,0.04l-0.07,0.01
						c-0.02,0-0.19,0.04-0.43,0.04C93.1,76.63,92.53,76.55,92.05,76.19z M94.1,75.47c0.01-0.19-0.13-0.31-0.13-0.31l0,0
						c-0.49-0.38-0.76-0.29-1-0.2c-0.05,0.02-0.1,0.03-0.14,0.04l0,0c-0.36,0.1-0.36,0.58-0.35,0.8c0.48,0.3,1.06,0.27,1.25,0.24
						C93.97,75.84,94.1,75.65,94.1,75.47z"/>
				</g>
				<g>
					<path class="st13" d="M91.26,77.06c0,0-0.66,0.49,0.01,0.76c0,0,0.79,0.25,0.77-0.05c0,0,0.32-0.41-0.24-0.85
						C91.79,76.91,91.6,76.68,91.26,77.06z"/>
					<path class="st1" d="M91.18,78.08l-0.02-0.01c-0.36-0.14-0.45-0.36-0.47-0.51c-0.05-0.35,0.27-0.64,0.38-0.72
						c0.18-0.19,0.37-0.29,0.56-0.29c0,0,0.01,0,0.01,0c0.15,0,0.28,0.07,0.35,0.14c0.55,0.44,0.45,0.92,0.33,1.16
						c-0.02,0.09-0.07,0.17-0.14,0.23c-0.1,0.08-0.24,0.11-0.39,0.11C91.58,78.19,91.36,78.14,91.18,78.08z M91.75,77.78v-0.01
						C91.75,77.77,91.75,77.77,91.75,77.78z M91.46,77.25l-0.04,0.04c-0.07,0.05-0.16,0.15-0.18,0.2c0.01,0.01,0.04,0.03,0.11,0.06
						c0.15,0.04,0.32,0.08,0.42,0.08l0.02-0.03c0.04-0.06,0.11-0.23-0.18-0.46l0,0C91.59,77.14,91.54,77.16,91.46,77.25z"/>
				</g>
				<g>
					<path class="st13" d="M90.86,74.54c-0.21-0.11-0.5-0.43-1.13-0.05c0,0-0.64,0.41,0.04,1.29c0,0,0.71,0.32,1.35-0.04
						C91.11,75.75,91.41,74.85,90.86,74.54z"/>
					<path class="st1" d="M89.64,76.04l-0.06-0.03l-0.04-0.06c-0.29-0.38-0.41-0.75-0.35-1.09c0.07-0.4,0.35-0.59,0.4-0.62
						c0.7-0.41,1.12-0.14,1.34,0c0.03,0.02,0.05,0.03,0.07,0.05l0,0c0.59,0.33,0.52,1.12,0.38,1.54l-0.03,0.1l-0.1,0.05
						c-0.28,0.16-0.56,0.21-0.82,0.21C90,76.2,89.67,76.05,89.64,76.04z M90.72,74.79L90.72,74.79c-0.03-0.02-0.07-0.04-0.11-0.07
						c-0.18-0.12-0.35-0.22-0.73,0c-0.01,0-0.12,0.09-0.14,0.25c-0.02,0.16,0.04,0.36,0.2,0.58c0.15,0.05,0.55,0.16,0.92,0
						C90.91,75.35,90.97,74.93,90.72,74.79z"/>
				</g>
			</g>
			<g>
				<path class="st6" d="M89.58,76.36c0,0,0.7,0.6,1.21,0.23c0,0-0.08,0.63-0.92,0.54C89.87,77.13,89.34,76.57,89.58,76.36z"/>
			</g>
			<g>
				<path class="st6" d="M92.72,75.13c0.14-0.04,0.34-0.17,0.69,0.1c0,0,0.35,0.29-0.15,0.69c0,0-0.46,0.09-0.81-0.18
					C92.45,75.75,92.35,75.23,92.72,75.13z"/>
			</g>
			<g>
				<path class="st6" d="M91.34,77.17c0,0-0.33,0.24,0,0.38c0,0,0.39,0.12,0.38-0.03c0,0,0.16-0.21-0.12-0.42
					C91.61,77.1,91.51,76.99,91.34,77.17z"/>
			</g>
			<g>
				<path class="st6" d="M90.25,74.87c-0.1-0.06-0.25-0.21-0.56-0.03c0,0-0.32,0.21,0.02,0.64c0,0,0.35,0.16,0.67-0.02
					C90.38,75.46,90.53,75.02,90.25,74.87z"/>
			</g>
		</g>
	</g>
</g>
</svg>
