<?xml version="1.0" encoding="utf-8"?>
<!-- Generator: Adobe Illustrator 28.5.0, SVG Export Plug-In . SVG Version: 9.03 Build 54727)  -->
<svg version="1.0" id="Layer_1" xmlns="http://www.w3.org/2000/svg" xmlns:xlink="http://www.w3.org/1999/xlink" x="0px" y="0px"
	 viewBox="0 0 150 150" style="enable-background:new 0 0 150 150;" xml:space="preserve">
<style type="text/css">
	.st0{fill:#C74C44;}
	.st1{fill:#70220D;}
	.st2{fill:#FFCAA6;}
	.st3{fill:#FFA41F;}
	.st4{fill:#673956;}
	.st5{fill:#846F74;}
	.st6{fill:#3A1D30;}
	.st7{fill:#FFFDF0;}
	.st8{fill:#A3A091;}
	.st9{fill:#D6D5D4;}
	.st10{fill:#95404B;}
	.st11{fill:#C6705C;}
	.st12{fill:#EAA498;}
	.st13{fill:#9483AB;}
	.st14{fill:#FFFFFF;}
	.st15{fill:#CCC7CA;}
	.st16{fill:#AFA19C;}
	.st17{fill:#F3E0D9;}
</style>
<g>
	<g>
		<g>
			<path class="st0" d="M128.15,105.21c0,0,0.08,2.59,0.52,4.99c0,0,0.59,1.98-0.97,2.35c0,0-7.04,0.15-7.47,0.15
				c0,0-1.44,0.02-1.88-0.34c0,0-0.96-1.45,2.55-3.66l0.95-0.77l-2.31-9.35l8.29-0.68L128.15,105.21z"/>
			<path class="st1" d="M118.03,112.74l-0.06-0.05l-0.04-0.06c-0.05-0.08-0.31-0.51-0.15-1.22c0.22-1.02,1.18-2.07,2.83-3.12
				l0.68-0.56l-2.38-9.61l9.39-0.77l0.34,7.84l0,0.01c0,0.03,0.08,2.57,0.5,4.9c0.06,0.22,0.32,1.28-0.17,2.11
				c-0.25,0.43-0.66,0.72-1.18,0.84l-0.1,0.01c-0.28,0.01-6.87,0.15-7.46,0.15c-0.04,0-0.06,0-0.1,0
				C119.7,113.19,118.53,113.15,118.03,112.74z M127.62,112.05c0.23-0.06,0.39-0.18,0.5-0.35c0.25-0.42,0.13-1.12,0.06-1.35
				l-0.01-0.05c-0.43-2.39-0.52-4.91-0.52-5.07l-0.3-6.8l-7.19,0.59l2.25,9.09l-1.2,0.97l-0.05,0.04c-2.52,1.58-2.49,2.63-2.42,2.89
				c0.25,0.11,0.9,0.19,1.49,0.19C120.55,112.2,125.18,112.1,127.62,112.05z"/>
		</g>
		<g>
			<path class="st2" d="M124.79,103.31v4.7c0,0-1.06-0.48-2.3-0.27l-1.58-5.85C120.91,101.89,124.1,99.91,124.79,103.31z"/>
		</g>
		<g>
			<path class="st3" d="M118.78,111.17c0,0,1.89-2.42,3.34-2.36c0,0,3.2-0.57,4.28,2.2c0,0,0.54,1.3-6.51,0.91
				C119.89,111.92,118.35,111.79,118.78,111.17z"/>
		</g>
		<g>
			<path class="st0" d="M118.65,113.92l9.52,0.08c0.41,0,0.75-0.33,0.76-0.75l0-0.31c0-0.41-0.33-0.76-0.75-0.76l-9.52-0.08
				c-0.41,0-0.75,0.33-0.76,0.75l0,0.31C117.9,113.57,118.23,113.92,118.65,113.92z"/>
			<path class="st1" d="M128.16,114.5l-9.52-0.08c-0.33,0-0.65-0.14-0.88-0.37c-0.23-0.24-0.36-0.55-0.36-0.89l0-0.31
				c0-0.33,0.14-0.65,0.37-0.88c0.24-0.23,0.55-0.36,0.89-0.36l9.52,0.08c0.33,0,0.65,0.14,0.88,0.37c0.23,0.24,0.36,0.55,0.36,0.89
				l0,0.31c0,0.33-0.14,0.65-0.37,0.88c-0.24,0.23-0.55,0.36-0.88,0.36C128.17,114.5,128.16,114.5,128.16,114.5z M118.48,112.68
				c-0.03,0.03-0.08,0.09-0.08,0.18l0,0.31c0,0.14,0.11,0.25,0.25,0.25l9.52,0.08c0.13,0,0.25-0.11,0.25-0.25l0-0.31
				c0-0.09-0.05-0.15-0.07-0.18c-0.03-0.03-0.09-0.08-0.18-0.08l-9.52-0.08c0,0,0,0,0,0C118.57,112.61,118.51,112.65,118.48,112.68z
				"/>
		</g>
		<g>
			<path class="st4" d="M123.17,108.15c0,0,3.84,0.96,5.04-1.81c0,0,1.23-9.89-1.76-10.18c0,0-5.38-0.52-7.45,2.05
				c0,0-1.06,0.72,1.77,8.54C120.77,106.76,121.93,108.31,123.17,108.15z"/>
			<path class="st4" d="M123.13,108.66c-1.45,0.11-2.63-1.42-2.77-1.6l-0.04-0.06l-0.03-0.07c-1.85-5.11-2.44-8.31-1.66-9.06
				c2.23-2.71,7.63-2.22,7.86-2.2c0.51,0.05,0.95,0.3,1.31,0.75c1.8,2.24,0.99,9.2,0.9,9.99l-0.01,0.07l-0.03,0.07
				c-0.78,1.79-2.57,2.28-4.06,2.28C124.05,108.82,123.54,108.75,123.13,108.66z M127.03,97.04c-0.19-0.23-0.39-0.36-0.63-0.38
				c-0.05,0-5.14-0.46-7.02,1.87l-0.02,0.02c-0.07,0.17-0.46,1.58,1.84,7.96c0.32,0.4,1.15,1.24,1.89,1.14l0.09-0.01l0.09,0.02
				c0.03,0.01,3.38,0.81,4.44-1.46C127.98,104.13,128.32,98.64,127.03,97.04z"/>
		</g>
		<g>
			<path class="st5" d="M123.72,107.73c0,0,0.77-0.46,0.9-1.8c0,0-0.09-5.93-1.42-6.11c0,0-2.4-0.32-3.08,1.38
				c0,0-0.25,3.38,1.14,5.28C121.26,106.48,121.85,107.92,123.72,107.73z"/>
		</g>
		<g>
			<path class="st0" d="M128.72,101.81c0,0-3.15,1.37-9.54,0.9l0.39,1.7c0,0,5.47,0.29,9.19-0.89L128.72,101.81z"/>
			<path class="st1" d="M119.55,104.91l-0.38-0.02l-0.63-2.72l0.68,0.05c6.15,0.45,9.26-0.84,9.3-0.86l0.68-0.3l0.08,2.82
				l-0.36,0.11c-2.56,0.81-5.86,0.95-7.79,0.95C120.23,104.95,119.62,104.91,119.55,104.91z M128.24,102.51
				c-1.2,0.37-3.99,1-8.42,0.75l0.15,0.67c1.23,0.04,5.27,0.08,8.28-0.78L128.24,102.51z"/>
		</g>
		<g>
			<path class="st3" d="M124.79,103.31c0,0-1.5,0.73-4.75,0.46l-0.36-0.55C119.69,103.22,123.06,103.37,124.79,103.31z"/>
		</g>
	</g>
	<g>
		<g>
			<path class="st0" d="M111.17,105.21c0,0,0.08,2.59,0.52,4.99c0,0,0.59,1.98-0.97,2.35c0,0-7.04,0.15-7.47,0.15
				c0,0-1.44,0.02-1.88-0.34c0,0-0.96-1.45,2.55-3.66l0.95-0.77l-2.31-9.35l8.29-0.68L111.17,105.21z"/>
			<path class="st1" d="M101.05,112.74l-0.06-0.05l-0.04-0.06c-0.05-0.08-0.31-0.51-0.15-1.22c0.22-1.02,1.18-2.07,2.83-3.12
				l0.68-0.56l-2.38-9.61l9.39-0.77l0.34,7.84l0,0.01c0,0.03,0.08,2.57,0.5,4.9c0.06,0.22,0.32,1.28-0.17,2.11
				c-0.25,0.43-0.66,0.72-1.18,0.84l-0.1,0.01c-0.28,0.01-6.87,0.15-7.46,0.15c-0.04,0-0.06,0-0.1,0
				C102.72,113.19,101.56,113.15,101.05,112.74z M110.65,112.05c0.23-0.06,0.39-0.18,0.5-0.35c0.25-0.42,0.13-1.12,0.06-1.35
				l-0.01-0.05c-0.43-2.39-0.52-4.91-0.52-5.07l-0.3-6.8l-7.19,0.59l2.25,9.09l-1.2,0.97l-0.05,0.04c-2.52,1.58-2.49,2.63-2.42,2.89
				c0.25,0.11,0.9,0.19,1.49,0.19C103.58,112.2,108.2,112.1,110.65,112.05z"/>
		</g>
		<g>
			<path class="st2" d="M107.81,103.31v4.7c0,0-1.06-0.48-2.3-0.27l-1.58-5.85C103.93,101.89,107.12,99.91,107.81,103.31z"/>
		</g>
		<g>
			<path class="st3" d="M101.8,111.17c0,0,1.89-2.42,3.34-2.36c0,0,3.2-0.57,4.28,2.2c0,0,0.54,1.3-6.51,0.91
				C102.91,111.92,101.37,111.79,101.8,111.17z"/>
		</g>
		<g>
			<path class="st0" d="M101.67,113.92l9.52,0.08c0.41,0,0.75-0.33,0.76-0.75l0-0.31c0-0.41-0.33-0.76-0.75-0.76l-9.52-0.08
				c-0.41,0-0.75,0.33-0.76,0.75l0,0.31C100.92,113.57,101.25,113.92,101.67,113.92z"/>
			<path class="st1" d="M111.18,114.5l-9.52-0.08c-0.33,0-0.65-0.14-0.88-0.37c-0.23-0.24-0.36-0.55-0.36-0.89l0-0.31
				c0-0.33,0.14-0.65,0.37-0.88c0.24-0.23,0.56-0.36,0.89-0.36l9.52,0.08c0.33,0,0.65,0.14,0.88,0.37c0.23,0.24,0.36,0.55,0.36,0.89
				l0,0.31c0,0.33-0.14,0.65-0.37,0.88c-0.24,0.23-0.55,0.36-0.88,0.36C111.19,114.5,111.19,114.5,111.18,114.5z M101.5,112.68
				c-0.03,0.03-0.08,0.09-0.08,0.18l0,0.31c0,0.14,0.11,0.25,0.25,0.25l9.52,0.08c0,0,0,0,0,0c0.14,0,0.25-0.11,0.25-0.25l0-0.31
				c0-0.09-0.05-0.15-0.07-0.18c-0.03-0.03-0.09-0.08-0.18-0.08l-9.52-0.08c0,0,0,0,0,0C101.59,112.61,101.53,112.65,101.5,112.68z"
				/>
		</g>
		<g>
			<path class="st4" d="M106.19,108.15c0,0,3.84,0.96,5.04-1.81c0,0,1.23-9.89-1.76-10.18c0,0-5.38-0.52-7.45,2.05
				c0,0-1.06,0.72,1.77,8.54C103.79,106.76,104.95,108.31,106.19,108.15z"/>
			<path class="st4" d="M106.16,108.66c-1.45,0.11-2.63-1.42-2.77-1.6l-0.04-0.06l-0.02-0.07c-1.85-5.11-2.44-8.31-1.66-9.06
				c2.23-2.71,7.63-2.22,7.86-2.2c0.51,0.05,0.95,0.3,1.31,0.75c1.8,2.24,0.99,9.2,0.9,9.99l-0.01,0.07l-0.03,0.07
				c-0.78,1.79-2.57,2.28-4.06,2.28C107.07,108.82,106.56,108.75,106.16,108.66z M110.05,97.04c-0.19-0.23-0.39-0.36-0.63-0.38
				c-0.05,0-5.14-0.46-7.02,1.87l-0.02,0.02c-0.07,0.17-0.46,1.58,1.84,7.96c0.32,0.4,1.16,1.24,1.89,1.14l0.09-0.01l0.09,0.02
				c0.03,0.01,3.38,0.81,4.44-1.46C111,104.13,111.34,98.64,110.05,97.04z"/>
		</g>
		<g>
			<path class="st5" d="M106.74,107.73c0,0,0.77-0.46,0.9-1.8c0,0-0.09-5.93-1.42-6.11c0,0-2.4-0.32-3.08,1.38
				c0,0-0.25,3.38,1.15,5.28C104.28,106.48,104.87,107.92,106.74,107.73z"/>
		</g>
		<g>
			<path class="st0" d="M111.75,101.81c0,0-3.15,1.37-9.54,0.9l0.39,1.7c0,0,5.47,0.29,9.19-0.89L111.75,101.81z"/>
			<path class="st1" d="M102.57,104.91l-0.38-0.02l-0.63-2.72l0.68,0.05c6.15,0.45,9.26-0.84,9.3-0.86l0.68-0.3l0.08,2.82
				l-0.36,0.11c-2.56,0.81-5.86,0.95-7.79,0.95C103.25,104.95,102.64,104.91,102.57,104.91z M111.27,102.51
				c-1.2,0.37-3.99,1-8.42,0.75l0.15,0.67c1.23,0.04,5.27,0.08,8.28-0.78L111.27,102.51z"/>
		</g>
		<g>
			<path class="st3" d="M107.81,103.31c0,0-1.5,0.73-4.75,0.46l-0.36-0.55C102.71,103.22,106.08,103.37,107.81,103.31z"/>
		</g>
	</g>
	<g>
		<path class="st0" d="M131.35,95.67c0,0-22.25,4.52-29.93-0.94l-0.77,6.2c0,0,6.26,4.35,18.56,3.48c0,0,8.63-0.3,13.17-2.89
			L131.35,95.67z"/>
		<path class="st1" d="M100.36,101.34l-0.25-0.17l0.91-7.33l0.68,0.49c7.41,5.28,29.32,0.91,29.54,0.86l0.5-0.1l1.19,6.7l-0.31,0.17
			c-4.6,2.62-13.05,2.94-13.39,2.96c-1.15,0.08-2.24,0.12-3.28,0.12C105.8,105.03,100.6,101.51,100.36,101.34z M130.95,96.26
			c-3.34,0.64-21.46,3.81-29.13-0.68l-0.63,5.1c1.27,0.76,7.35,3.99,18.01,3.23c0.08,0,8.18-0.32,12.64-2.66L130.95,96.26z"/>
	</g>
	<g>
		<path class="st4" d="M114.18,96.2c0,0,0.03,4.42-0.19,8.42c0,0-4.67,0.41-9.01-1.41l0.42-8.06
			C105.4,95.15,112.39,96.06,114.18,96.2z"/>
		<path class="st6" d="M104.79,103.67l-0.32-0.14l0.47-8.94l0.53,0.07c0.07,0.01,7,0.91,8.75,1.04l0.46,0.04l0,0.46
			c0,0.04,0.03,4.49-0.19,8.45l-0.02,0.43l-0.43,0.04c-0.06,0.01-0.53,0.04-1.27,0.04C111.04,105.16,107.85,104.95,104.79,103.67z
			 M113.68,96.66c-1.89-0.18-6.27-0.74-7.81-0.94l-0.37,7.16c3.32,1.3,6.82,1.31,8.01,1.26C113.67,101.07,113.68,97.83,113.68,96.66
			z"/>
	</g>
	<g>
		<path class="st7" d="M123.22,74.4c0,0-1.8,10.87-8.07,19l0.73,0.06c0,0,6.91-9.4,7.71-19.81L123.22,74.4z"/>
	</g>
	<g>
		<path class="st5" d="M105.81,98.34l-0.33,4.37c0,0,5.45,1.86,7.13-3.42C112.61,99.29,109.9,99.53,105.81,98.34z"/>
	</g>
	<g>
		<g>
			<path class="st8" d="M104.24,88.3c0,0-3.85,3.21-9.51,4.63c0,0,0.24-4.84-2.91-7.01c0,0,3.84-1.46,6.97-2.79
				c1.11-0.47,2.06-3.85,3.3-5.85c1.44-2.32,6.63-1.68,6.14,2.62C108.17,80.5,107.36,85.43,104.24,88.3z"/>
			<path class="st4" d="M94.23,92.91c0-0.05,0.18-4.59-2.69-6.57l-0.78-0.54l0.89-0.34c0.04-0.01,3.87-1.47,6.96-2.78
				c0.51-0.21,1.18-1.72,1.72-2.93c0.42-0.95,0.86-1.93,1.35-2.72c0.84-1.36,2.81-1.93,4.57-1.32c1.79,0.62,2.72,2.21,2.49,4.26
				c-0.01,0.05-0.71,5.53-4.15,8.71l-0.02,0.02c-0.16,0.13-4,3.3-9.71,4.73l-0.65,0.16L94.23,92.91z M107.74,79.85
				c0.25-2.23-1.19-2.98-1.83-3.2c-1.31-0.45-2.8-0.06-3.4,0.9c-0.46,0.74-0.88,1.69-1.29,2.6c-0.74,1.65-1.37,3.08-2.24,3.45
				c-2.25,0.95-4.88,1.99-6.18,2.49c2.02,1.9,2.37,4.87,2.42,6.2c5.02-1.41,8.49-4.19,8.69-4.36C107.08,85,107.74,79.9,107.74,79.85
				z"/>
		</g>
		<g>
			<path class="st9" d="M103.14,77.23c0,0,2.17-1.38,2.47,3.36c0,0-0.9,3.51-3.11,5.62c0,0-2.46,2.32-6.14,3.16
				c0,0-1.45-2.89-3.33-3.32c0,0,6.17-2.37,6.55-2.79c0,0,1.5-2.47,2.42-4.63C102,78.63,102.42,77.41,103.14,77.23z"/>
		</g>
		<g>
			<g>
				<path class="st10" d="M99.54,91.56c0,0,0.81-4.42-2.9-7.62l-5.9,1.75c0,0,3.66,2.78,3.26,7.96C94,93.65,98.05,92.27,99.54,91.56
					z"/>
				<path class="st4" d="M93.5,93.61c0.38-4.83-2.92-7.42-3.06-7.53l-0.78-0.6l7.11-2.1l0.21,0.18c3.89,3.34,3.1,7.9,3.06,8.09
					l-0.05,0.25l-0.23,0.11c-1.5,0.72-5.43,2.06-5.6,2.11l-0.72,0.24L93.5,93.61z M96.52,84.49l-4.79,1.42
					c1.03,1.06,2.83,3.43,2.8,7.03c1.13-0.39,3.38-1.19,4.55-1.72C99.18,90.3,99.28,87.03,96.52,84.49z"/>
			</g>
			<g>
				<path class="st11" d="M96.53,84.61c0,0,4.67,4.54-1.63,7.18c0,0,0.09-3.03-3.03-5.73L96.53,84.61z"/>
			</g>
			<g>
				<g>
					<path class="st4" d="M95.54,87.06c-0.16,0.22-0.27,0.46-0.36,0.7c-0.09,0.24-0.17,0.48-0.22,0.73c-0.06,0.25-0.1,0.5-0.12,0.76
						c-0.02,0.26-0.03,0.52,0.02,0.79c0.16-0.22,0.27-0.46,0.36-0.7c0.09-0.24,0.17-0.48,0.22-0.73c0.06-0.25,0.1-0.5,0.12-0.76
						C95.58,87.59,95.59,87.33,95.54,87.06z"/>
				</g>
				<g>
					<path class="st4" d="M96.52,89.64c-0.14-0.24-0.31-0.44-0.48-0.63c-0.18-0.19-0.37-0.36-0.57-0.52
						c-0.2-0.16-0.41-0.3-0.64-0.43c-0.23-0.13-0.46-0.24-0.72-0.32c0.14,0.24,0.3,0.44,0.48,0.63c0.18,0.19,0.37,0.36,0.57,0.52
						c0.2,0.16,0.41,0.3,0.64,0.43C96.02,89.44,96.25,89.56,96.52,89.64z"/>
				</g>
			</g>
			<g>
				<g>
					<path class="st4" d="M97.48,86.45c-0.16,0.22-0.27,0.46-0.36,0.7c-0.09,0.24-0.17,0.48-0.22,0.73c-0.06,0.25-0.1,0.5-0.12,0.76
						c-0.02,0.26-0.03,0.52,0.02,0.79c0.16-0.22,0.27-0.46,0.36-0.7c0.09-0.24,0.17-0.48,0.22-0.73c0.06-0.25,0.1-0.5,0.12-0.76
						C97.52,86.98,97.52,86.72,97.48,86.45z"/>
				</g>
				<g>
					<path class="st4" d="M98.45,89.03c-0.14-0.24-0.31-0.44-0.48-0.63c-0.18-0.19-0.37-0.36-0.57-0.52
						c-0.2-0.16-0.41-0.3-0.64-0.43c-0.23-0.13-0.46-0.24-0.72-0.32c0.14,0.24,0.31,0.44,0.48,0.63c0.18,0.19,0.37,0.36,0.57,0.52
						c0.2,0.16,0.41,0.3,0.64,0.43C97.95,88.83,98.19,88.95,98.45,89.03z"/>
				</g>
			</g>
		</g>
		<g>
			<g>
				<path class="st3" d="M96.56,92.13c0,0-0.23,5.48,2.32,8.45c0,0,0.93,0.68,1.95-0.02c0,0-2.68-1.21-3.14-8.42L96.56,92.13z"/>
				<path class="st1" d="M98.65,100.88l-0.06-0.06c-2.61-3.05-2.42-8.48-2.41-8.71l0.01-0.36l1.84,0.01l0.02,0.35
					c0.43,6.82,2.9,8.09,2.92,8.1l0.6,0.27l-0.55,0.38c-0.42,0.29-0.83,0.39-1.19,0.39C99.17,101.25,98.68,100.91,98.65,100.88z
					 M97.34,92.51l-0.41,0c0,1.24,0.18,5.39,2.2,7.79c0.11,0.07,0.49,0.27,0.96,0.18C99.24,99.7,97.72,97.61,97.34,92.51z"/>
			</g>
			<g>
				<path class="st3" d="M96.39,92.05c0,0,2.37,4.35,5.56,5.88c0,0,0.98,0.25,1.39-0.62c0,0-2.48-0.12-6.14-5.61L96.39,92.05z"/>
				<path class="st1" d="M101.86,98.3l-0.07-0.03c-3.26-1.57-5.63-5.86-5.73-6.04l-0.2-0.36l1.48-0.62l0.17,0.26
					c3.47,5.2,5.83,5.44,5.84,5.44l0.56,0.03l-0.24,0.51c-0.32,0.69-0.94,0.87-1.42,0.87C102.11,98.35,101.97,98.33,101.86,98.3z
					 M97.06,92.18l-0.13,0.06c0.63,1.05,2.64,4.12,5.15,5.35c0.09,0.02,0.34,0.05,0.57-0.06C101.65,97.15,99.64,95.96,97.06,92.18z"
					/>
			</g>
			<g>
				<path class="st3" d="M96.05,92.7c0.19,0.54,0.79,0.81,1.32,0.62c0.54-0.19,0.81-0.79,0.62-1.32c-0.19-0.54-0.79-0.81-1.32-0.62
					C96.13,91.57,95.85,92.16,96.05,92.7z"/>
				<path class="st1" d="M96.42,93.62c-0.34-0.16-0.6-0.44-0.73-0.79l0,0c-0.13-0.35-0.11-0.73,0.05-1.07
					c0.16-0.34,0.44-0.6,0.79-0.73c0.35-0.13,0.73-0.11,1.07,0.05c0.34,0.16,0.6,0.44,0.73,0.79c0.13,0.35,0.11,0.74-0.05,1.08
					c-0.16,0.34-0.44,0.6-0.79,0.73c-0.16,0.06-0.32,0.08-0.48,0.08C96.81,93.75,96.61,93.71,96.42,93.62z M96.79,91.73
					c-0.17,0.06-0.3,0.18-0.37,0.34c-0.07,0.16-0.08,0.34-0.02,0.5v0c0.06,0.16,0.18,0.3,0.34,0.37c0.16,0.07,0.34,0.08,0.5,0.02
					c0.16-0.06,0.3-0.18,0.37-0.34c0.07-0.16,0.08-0.34,0.02-0.5c-0.06-0.16-0.18-0.3-0.34-0.37c-0.09-0.04-0.18-0.06-0.28-0.06
					C96.94,91.69,96.87,91.7,96.79,91.73z"/>
			</g>
		</g>
	</g>
	<g>
		<g>
			<g>
				<path class="st12" d="M85.28,85.19c1.81-1.05,3.11-0.57,3.11-0.57L91.31,84c3.63,1.51,2.45,5.73,2.45,5.73l0.62,1.9l-0.28,1.51
					c-0.84,2.24-5.94,2.31-5.94,2.31c-2.25-0.94-2.12-3.64-2.12-3.64c-1.79-0.65-0.83-2.35-0.83-2.35
					c-2.06-0.29-0.84-2.86-0.84-2.86L85.28,85.19z"/>
			</g>
			<g>
				<path class="st4" d="M83.92,86.39c-0.08,0.16-0.75,1.64-0.18,2.68c0.13,0.25,0.37,0.54,0.81,0.73c-0.1,0.36-0.15,0.83,0.02,1.3
					c0.16,0.45,0.49,0.8,0.98,1.04c0.04,0.84,0.37,2.91,2.42,3.77l0.1,0.04l0.1,0c0.56-0.01,5.46-0.15,6.4-2.63l0.02-0.08l0.31-1.63
					l-0.61-1.88c0.41-1.66,0.32-4.88-2.78-6.18l-0.14-0.06l-2.94,0.63c-0.44-0.11-1.74-0.3-3.38,0.65l-0.1,0.06L83.92,86.39z
					 M84.81,86.84l0.83-1.28c1.51-0.83,2.55-0.49,2.59-0.47l0.13,0.05l0.14-0.03l2.76-0.59c3.02,1.38,2.06,4.92,2.02,5.07
					l-0.04,0.15l0.63,1.92L93.61,93c-0.62,1.5-3.97,1.91-5.36,1.95c-1.81-0.83-1.72-3.09-1.72-3.11l0.02-0.37l-0.35-0.13
					c-0.38-0.14-0.61-0.33-0.71-0.59c-0.17-0.46,0.14-1.04,0.14-1.04l0.36-0.64l-0.73-0.1c-0.5-0.07-0.63-0.3-0.67-0.37
					C84.34,88.1,84.66,87.17,84.81,86.84z"/>
			</g>
		</g>
		<g>
			<g>
				<g>
					<g>
						<path class="st4" d="M91.53,90c-0.14-0.01-0.28-0.03-0.43-0.06c0.09-0.12,0.19-0.24,0.31-0.36L91.53,90z"/>
					</g>
					<g>
						<path class="st4" d="M90.68,87.73c-0.02,0.06-0.03,0.18-0.04,0.27c-0.01,0.1-0.01,0.2,0,0.3c0.01,0.2,0.04,0.38,0.11,0.55
							c0.07,0.17,0.17,0.31,0.31,0.43c0.14,0.12,0.33,0.19,0.52,0.24l0.52,0.16l-0.4,0.27c-0.15,0.1-0.31,0.24-0.45,0.39
							c-0.14,0.15-0.26,0.31-0.37,0.49c-0.1,0.18-0.17,0.37-0.21,0.58c-0.04,0.21-0.01,0.42,0.03,0.63
							c-0.08-0.2-0.15-0.41-0.15-0.64c0-0.22,0.03-0.45,0.11-0.67c0.08-0.21,0.18-0.42,0.3-0.61c0.04-0.06,0.08-0.12,0.13-0.18
							c0.14,0.03,0.29,0.05,0.43,0.06l-0.12-0.42c-0.12,0.12-0.22,0.24-0.31,0.36c-0.12-0.03-0.25-0.07-0.36-0.14
							c-0.25-0.13-0.48-0.34-0.63-0.59c-0.16-0.24-0.26-0.51-0.32-0.77c-0.03-0.13-0.06-0.27-0.07-0.4
							c-0.01-0.14-0.03-0.26-0.02-0.43L90.68,87.73z"/>
					</g>
				</g>
			</g>
		</g>
		<g>
			<g>
				<path class="st10" d="M85.87,66.45c0,0,0.28,5.33,3.33,15.47c0,0,1.29,3.85,1.24,6.16c0,0,0.08,2.71,2.98,11.85
					c0,0-1.86,3.07-5.06,1.02c0,0-0.42-5.18-1.99-12.05c0,0-1.91-6.66-2-10.21c0,0-3.54-20-5.88-27.88c0,0,2.24-2.56,3.23-0.59
					c0,0,1.26,2.73,2.94,11.36C84.66,61.59,85.61,63.56,85.87,66.45z"/>
				<path class="st4" d="M88.16,101.27l-0.16-0.1l-0.02-0.19c0-0.05-0.44-5.24-1.98-11.97c-0.08-0.27-1.92-6.71-2.01-10.27
					c-0.15-0.85-3.6-20.17-5.87-27.81l-0.06-0.2l0.14-0.16c0.14-0.16,1.44-1.61,2.66-1.45c0.35,0.04,0.84,0.24,1.2,0.95
					c0.05,0.11,1.29,2.86,2.96,11.4c0.15,0.32,0.98,2.22,1.23,4.94l0,0.01c0,0.05,0.32,5.42,3.31,15.37
					c0.05,0.16,1.31,3.94,1.26,6.27c0,0.03,0.12,2.81,2.96,11.75l0.05,0.16l-0.09,0.15c-0.04,0.06-0.89,1.45-2.47,1.82
					c-0.25,0.06-0.51,0.09-0.77,0.09C89.74,102.03,88.95,101.78,88.16,101.27z M90.07,88.08c0.05-2.22-1.21-6-1.22-6.05
					c-2.97-9.88-3.33-15.3-3.34-15.55c-0.26-2.78-1.17-4.7-1.18-4.72l-0.03-0.09c-1.64-8.45-2.9-11.25-2.9-11.26
					c-0.16-0.33-0.37-0.5-0.61-0.54c-0.61-0.08-1.46,0.65-1.86,1.05c2.32,7.95,5.79,27.51,5.83,27.71l0.01,0.06
					c0.08,3.46,1.97,10.05,1.99,10.13c1.39,6.08,1.89,10.91,1.98,11.91c0.83,0.49,1.63,0.66,2.38,0.48
					c1.01-0.23,1.68-1.03,1.92-1.34C90.18,90.93,90.07,88.21,90.07,88.08z"/>
			</g>
			<g>
				<path class="st11" d="M78.82,50.75l1.03,3.5c0,0,1.55-0.22,1.01-3C80.85,51.25,80.47,49.45,78.82,50.75z"/>
			</g>
			<g>
				<path class="st13" d="M82.57,52.36c0,0-3-1.21-4.35,2.52c0,0-3.39,1.5-18.56,0.8c0,0-2.04-0.52-2.18,3.87
					c0,0-0.62,4.99,2.88,10.29c0,0,1.2,1.46,5.3-0.86c0,0,8.38-3.83,15.27-5.29c0,0,1.01-2.07,3.93-1.08c0,0,2.61-0.88,1.29-3.9
					c0,0,1.86-0.74,7.55-1.22c0,0,0.24-1.05-0.5-4.17c0,0,0.04-1.5-3.61,0.68c0,0-4.83,1.19-4.74,0.14
					C84.85,54.14,84.18,52.32,82.57,52.36z"/>
				<path class="st4" d="M59.98,70.15l-0.03-0.04c-3.47-5.26-3.01-10.17-2.96-10.61c0.06-1.99,0.52-3.33,1.37-3.96
					c0.59-0.45,1.17-0.4,1.37-0.36c12.92,0.6,17.24-0.43,18.12-0.69c0.5-1.24,1.23-2.08,2.18-2.51c1.17-0.52,2.3-0.23,2.64-0.11
					c1.87,0.02,2.63,2.02,2.66,2.11l0.02,0.06c0.49,0.15,2.29-0.07,4.06-0.5c1.9-1.12,3.11-1.46,3.81-1.05
					c0.34,0.2,0.47,0.52,0.49,0.77c0.73,3.1,0.51,4.23,0.49,4.34l-0.08,0.36l-0.36,0.03c-4,0.33-6.09,0.81-6.94,1.04
					c0.3,0.91,0.29,1.72-0.02,2.44c-0.52,1.19-1.71,1.6-1.76,1.62l-0.16,0.05l-0.16-0.05c-2.44-0.83-3.28,0.76-3.32,0.83l-0.11,0.22
					l-0.24,0.05c-6.6,1.39-14.7,5.04-15.15,5.24c-1.87,1.05-3.2,1.36-4.12,1.36C60.57,70.79,60.07,70.26,59.98,70.15z M84.84,62.08
					c0.25-0.12,0.77-0.43,1.03-1.01c0.26-0.58,0.2-1.3-0.18-2.15l-0.21-0.47l0.48-0.19c0.08-0.03,1.9-0.74,7.28-1.22
					c0.01-0.51-0.05-1.63-0.52-3.59l-0.01-0.06l0-0.03c-0.07-0.03-0.67-0.22-2.85,1.08l-0.06,0.04l-0.07,0.02
					c-1.57,0.39-4.32,0.93-5.08,0.28c-0.16-0.14-0.25-0.32-0.27-0.52c-0.13-0.29-0.69-1.42-1.77-1.39l-0.1,0l-0.1-0.04
					c-0.01,0-0.98-0.37-1.96,0.06c-0.75,0.34-1.34,1.06-1.73,2.16l-0.07,0.2l-0.19,0.09c-0.14,0.06-3.67,1.54-18.79,0.84l-0.04,0
					l-0.05-0.01c-0.01,0-0.3-0.06-0.62,0.19c-0.33,0.26-0.88,1.02-0.95,3.2l0,0.05c-0.01,0.05-0.54,4.86,2.77,9.92
					c0.14,0.12,1.3,0.92,4.66-0.97l0.04-0.02c0.08-0.04,8.34-3.8,15.17-5.28C81.02,62.68,82.28,61.3,84.84,62.08z"/>
			</g>
			<g>
				<path class="st14" d="M72.37,56.78c0,0-5.16,0.07-13.05-0.27c0,0-4.27,2.37,1.64,12.85c0,0,1.2,0.72,3.12-0.51
					c0,0,1.91-1.99,10.54-4.43C74.62,64.43,70.9,62.26,72.37,56.78z"/>
			</g>
			<g>
				<path class="st15" d="M81.85,53.85c0,0-0.31,2.33,1.29,6.41c0,0-1.44,0.05-2.33,1.88c0,0-0.75,0.01-2.13-6.65
					C78.69,55.49,78.53,53.61,81.85,53.85z"/>
			</g>
			<g>
				<path class="st15" d="M92.62,53.78c0,0-0.92-0.64-0.56,2.3c0,0-4.24,0.05-6.84,1.38l0.13,0.64c0,0,1.73-0.25,7.28-0.9
					C92.62,57.2,93.56,57.37,92.62,53.78z"/>
			</g>
			<g>
				<path class="st14" d="M82.32,52.77c0,0-2.58-0.78-3.69,2.39c0,0,3.06-2.19,3.04-0.56c-0.01,1.17,0.22,3.59,1.15,5.73
					c0,0,0.88-0.21,1.59,0.03c0,0-0.63-3.46-0.63-5.76C83.78,54.59,84.01,53.17,82.32,52.77z"/>
			</g>
			<g>
				<path class="st15" d="M78.97,62.16c0,0-2.58-0.31-11.62,4.42c0,0-1.84-1.35-2.76-5.34c0,0-1.05,0.97,1.21,6.01
					c0,0-1.17,0.4-3.11,2.04c0,0,0,0.1,1.38-0.43c0,0,7.44-4.03,16.14-5.76C80.22,63.1,80.43,62.09,78.97,62.16z"/>
			</g>
			<g>
				<path class="st11" d="M82.33,63.23c0,0,1.18-0.04,1.59,0.93c0,0,1.75,10.89,3.73,18.55c0,0,1.25,3.88,1.75,8.69
					c0,0,1.08,5.48,2.27,8.56c0,0-0.13,1.13-2.34,0.8c0,0-1.42-9.98-3.44-16.45c0,0-0.84-4.03-1.02-6.75
					C84.88,77.56,82.45,65.75,82.33,63.23z"/>
			</g>
		</g>
		<g>
			<g>
				<g>
					<path class="st12" d="M84.37,85.48c1.37-1.49,4.11-0.46,4.11-0.46c-2.6,0.44-0.76,3.19-0.76,3.19c-2.17-0.82-3.2,1.46-3.2,1.46
						c-2.11-1-0.65-3.51-0.65-3.51L84.37,85.48z"/>
				</g>
				<g>
					<path class="st4" d="M83.44,85.9c-0.03,0.06-0.85,1.48-0.45,2.77c0.2,0.64,0.64,1.12,1.32,1.44l0.46,0.22l0.21-0.46
						c0.09-0.19,0.9-1.83,2.57-1.2l1.46,0.55l-0.87-1.3c-0.2-0.31-0.73-1.32-0.48-1.89c0.11-0.27,0.42-0.44,0.91-0.52l1.83-0.31
						l-1.73-0.65c-0.12-0.05-3.07-1.13-4.65,0.59l-0.03,0.04L83.44,85.9z M84.29,86.42l0.46-0.63c0.58-0.62,1.5-0.68,2.26-0.6
						c-0.12,0.13-0.21,0.28-0.28,0.44c-0.27,0.62-0.13,1.33,0.09,1.89c-1.17-0.01-2.01,0.75-2.47,1.44
						c-0.19-0.16-0.33-0.36-0.4-0.59C83.7,87.58,84.21,86.58,84.29,86.42z"/>
				</g>
			</g>
			<g>
				<g>
					<path class="st12" d="M87.47,88.09c1.57,0.28,2.44,2.43,2.44,2.43c0.14,1.32-2.17,1.26-2.17,1.26c-2.46-0.14-2.2,1.14-2.2,1.14
						c-2.32-1.17-1.09-3.08-1.09-3.08C85.95,87.36,87.47,88.09,87.47,88.09z"/>
				</g>
				<g>
					<path class="st4" d="M84.03,89.58c-0.07,0.11-0.6,1.01-0.32,2.03c0.2,0.73,0.74,1.32,1.61,1.76l0.91,0.46l-0.2-1l0,0l0,0l0,0
						c0,0-0.01-0.12,0.1-0.24c0.11-0.11,0.48-0.37,1.58-0.3c0.18,0.01,1.65,0.02,2.34-0.72c0.27-0.29,0.39-0.67,0.35-1.08L90.4,90.4
						l-0.03-0.06c-0.04-0.1-0.98-2.36-2.76-2.72C87.24,87.47,85.57,87.03,84.03,89.58z M84.87,90.11l0.01-0.01
						c1.22-2.02,2.34-1.57,2.38-1.55l0.05,0.02l0.07,0.01c1.01,0.18,1.78,1.48,2.03,2.06c0,0.12-0.05,0.19-0.09,0.24
						c-0.3,0.33-1.19,0.42-1.57,0.4c-0.11-0.01-0.21-0.01-0.32-0.01c-0.97-0.01-1.67,0.21-2.07,0.67c-0.06,0.06-0.1,0.13-0.14,0.2
						c-0.29-0.23-0.48-0.5-0.56-0.79C84.5,90.71,84.87,90.12,84.87,90.11z"/>
				</g>
				<g>
					<polygon class="st4" points="86.04,92.83 86.04,92.83 86.04,92.83 					"/>
				</g>
			</g>
			<g>
				<g>
					<path class="st12" d="M87.02,91.62c4.02-0.01,3.53,2.55,3.53,2.55c-0.41,1.54-3.79,1.59-3.79,1.59
						c-1.52-0.98-1.45-2.57-1.45-2.57C85.6,92.05,87.02,91.62,87.02,91.62z"/>
				</g>
				<g>
					<path class="st4" d="M84.82,93.17c0,0.08-0.07,1.9,1.68,3.02l0.13,0.08l0.15,0c0.38-0.01,3.77-0.11,4.26-1.96l0.01-0.04
						c0.01-0.04,0.19-1.05-0.54-1.93c-0.67-0.8-1.84-1.21-3.49-1.21h-0.07l-0.07,0.02c-0.07,0.02-1.69,0.53-2.04,1.92L84.82,93.17z
						 M85.81,93.26c0.21-0.69,1.05-1.05,1.29-1.14c0.01,0,0.02,0,0.03,0c1.25,0.01,2.14,0.3,2.59,0.84c0.4,0.47,0.35,1,0.34,1.11
						c-0.25,0.83-2.13,1.15-3.15,1.19C85.9,94.54,85.82,93.49,85.81,93.26z"/>
				</g>
			</g>
			<g>
				<g>
					<g>
						<path class="st2" d="M86.62,92.06c1.34-0.28,2.39,0.42,2.39,0.42c0.83,1.7-1.62,1.15-1.62,1.15c0.14,0.82-0.67,1.26-0.67,1.26
							c-0.9-0.02-1.32-1.46-1.32-1.46C85.18,92.34,86.62,92.06,86.62,92.06z"/>
					</g>
				</g>
				<g>
					<g>
						<g>
							<g>
								<path class="st4" d="M87.52,92.33c0,0.22,0.01,0.44,0.02,0.66c0.02,0.22,0.05,0.44,0.09,0.65c0.05,0.21,0.11,0.43,0.27,0.6
									c-0.21-0.1-0.37-0.3-0.5-0.5c-0.13-0.2-0.24-0.41-0.35-0.62c-0.1-0.21-0.19-0.43-0.28-0.65c-0.08-0.22-0.16-0.44-0.23-0.68
									l0.99-0.12C87.53,91.88,87.52,92.11,87.52,92.33z"/>
							</g>
						</g>
					</g>
				</g>
			</g>
			<g>
				<g>
					<g>
						<path class="st2" d="M85.7,89.01c1.32-0.91,2.42,0.07,2.42,0.07c1.06,1.57-1.52,1.13-1.52,1.13c0.25,0.79-1.2,1.57-1.2,1.57
							c-0.89,0.11-0.73-0.46-0.73-0.46C84.3,90.28,85.7,89.01,85.7,89.01z"/>
					</g>
				</g>
				<g>
					<g>
						<g>
							<g>
								<path class="st4" d="M86.63,89.14c0.03,0.22,0.07,0.44,0.12,0.65c0.05,0.22,0.11,0.43,0.19,0.63
									c0.08,0.2,0.17,0.41,0.35,0.55c-0.22-0.07-0.41-0.25-0.56-0.42c-0.16-0.18-0.3-0.37-0.43-0.57c-0.13-0.2-0.25-0.4-0.37-0.61
									c-0.12-0.21-0.22-0.41-0.33-0.64l0.97-0.26C86.57,88.69,86.6,88.92,86.63,89.14z"/>
							</g>
						</g>
					</g>
				</g>
			</g>
			<g>
				<g>
					<g>
						<path class="st2" d="M84.84,85.61c1.29-0.47,2.03-0.32,2.03-0.32c1.06,1.57-1.29,1.85-1.29,1.85c0.25,0.79-1.2,1.57-1.2,1.57
							c-0.63-0.25-0.57-0.78-0.57-0.78C83.45,86.88,84.84,85.61,84.84,85.61z"/>
					</g>
				</g>
				<g>
					<g>
						<g>
							<g>
								<path class="st4" d="M85.54,85.82c0.03,0.22,0.07,0.44,0.12,0.65c0.05,0.22,0.11,0.43,0.19,0.63
									c0.08,0.2,0.17,0.41,0.35,0.55c-0.22-0.07-0.41-0.25-0.56-0.42c-0.16-0.18-0.3-0.37-0.43-0.57c-0.13-0.2-0.25-0.4-0.37-0.61
									c-0.12-0.21-0.22-0.41-0.33-0.64l0.97-0.26C85.48,85.37,85.51,85.6,85.54,85.82z"/>
							</g>
						</g>
					</g>
				</g>
			</g>
			<g>
				<g>
					<g>
						<path class="st12" d="M88.02,84.15l0.95-0.34c2.71-0.37,3.85,1.28,3.85,1.28l-2.49,1.78c-0.54,3.12-2.07,2.58-2.07,2.58
							c-0.96-0.24-0.91-1.71-0.91-1.71C86.34,84.08,88.02,84.15,88.02,84.15z"/>
					</g>
					<g>
						<path class="st4" d="M87.92,83.66l0.89-0.31l0.1-0.02c2.98-0.4,4.27,1.41,4.33,1.49l-0.82,0.57
							c-0.04-0.06-1.01-1.37-3.32-1.08l-0.99,0.35l-0.1,0c0,0-0.13,0.02-0.25,0.16c-0.15,0.2-0.46,0.86,0.08,2.81l0.02,0.07l0,0.08
							c0,0.01,0,1.08,0.53,1.21l0.04,0.01c0.01,0,0.21,0.06,0.46-0.1c0.25-0.16,0.71-0.64,0.96-2.1l0.98,0.17
							c-0.25,1.44-0.74,2.38-1.46,2.8c-0.32,0.19-0.62,0.23-0.85,0.23c-0.18,0-0.32-0.03-0.38-0.05c-1.02-0.26-1.28-1.42-1.28-2.13
							c-0.47-1.72-0.43-2.94,0.12-3.62C87.3,83.77,87.72,83.68,87.92,83.66z"/>
					</g>
				</g>
				<g>
					<g>
						<path class="st2" d="M89.47,85.95c0.28,3.13-1.44,2.29-1.44,2.29c-0.73-1.22-0.5-3.21-0.5-3.21
							C89.59,84.71,89.47,85.95,89.47,85.95z"/>
					</g>
				</g>
			</g>
		</g>
	</g>
	<g>
		<g>
			<g>
				<path class="st8" d="M103.36,78.71c-0.45,1.17-1.85,7.06-1.6,11.82c0.13,2.42,9.24,2.86,9.24,2.86h0.75
					c12.32,0.8,19.53-3.31,19.53-3.31s-0.17,0.39,0,0c0.17-0.39-0.97-6.86-0.97-6.86s-1.13-5.9-7.09-9.56c0,0-10.37,4.92-16.2,0.14
					c0,0-2.53,1.32-2.8,2.56C104.22,76.36,104.8,75.01,103.36,78.71z"/>
				<path class="st4" d="M111.73,93.88l-0.76,0c-1.6-0.08-9.57-0.59-9.72-3.33c-0.25-4.8,1.16-10.78,1.64-12.02v0
					c0.52-1.33,0.75-1.96,0.86-2.26l-0.03-0.01c0.31-1.43,2.78-2.75,3.06-2.9l0.29-0.15l0.25,0.21c5.52,4.52,15.57-0.16,15.67-0.21
					l0.24-0.12l0.23,0.14c6.08,3.73,7.27,9.64,7.32,9.9c0.61,3.44,0.86,5.2,0.94,6.11l0.6-0.34l-0.61,1.38c0,0,0,0,0,0l-0.08,0.17
					l-0.22-0.1l0.09,0.16c-0.27,0.16-6.24,3.48-16.59,3.48C113.91,93.98,112.84,93.95,111.73,93.88z M129.82,83.31
					c-0.01-0.06-1.14-5.59-6.64-9.09c-1.65,0.73-10.62,4.4-16.21,0.18c-0.71,0.41-1.79,1.16-2.15,1.8c-0.03,0.17-0.1,0.37-0.19,0.6
					c-0.14,0.38-0.39,1.03-0.8,2.1v0c-0.46,1.2-1.81,6.96-1.57,11.61c0.06,1.22,4.6,2.19,8.74,2.38h0.75l0.03,0
					c10.79,0.7,17.68-2.45,19.02-3.12C130.75,88.91,130.29,85.96,129.82,83.31z M103.87,76.3c0.05,0.12,0.14,0.23,0.28,0.29
					c0.17,0.07,0.34,0.03,0.46-0.05L103.87,76.3z"/>
			</g>
			<g>
				<path class="st9" d="M120.4,78.07c0,0-9.09,2.65-15.03,0.15c0,0-2.08,3.03-2.31,11.97c0,0,15.15,2.79,21.28-1.34
					C124.35,88.85,120.87,85.11,120.4,78.07z"/>
			</g>
		</g>
		<g>
			<path class="st0" d="M123.22,74.4c0,0,1.26,11.07-7.45,19.33c0,0,9.29-1.21,15.66-1.67C131.43,92.07,133.36,77.67,123.22,74.4z"
				/>
			<path class="st1" d="M115.42,93.37c8.42-7.98,7.31-18.81,7.3-18.91l-0.09-0.77l0.74,0.24c4.33,1.39,7.18,5,8.24,10.44
				c0.79,4.04,0.33,7.62,0.31,7.77l-0.05,0.4l-0.41,0.03c-6.28,0.45-15.54,1.65-15.63,1.66l-1.52,0.2L115.42,93.37z M123.76,75.13
				c0.09,2.58-0.18,11.03-6.62,17.93c2.79-0.35,9.06-1.09,13.84-1.46C131.18,89.35,131.74,78.31,123.76,75.13z"/>
		</g>
		<g>
			<path class="st0" d="M122.97,73.15c0,0-1.77,11.88-8.4,20.09c0,0,2.45,1.77,5.21,0.51c0,0,7.29-8.59,7.39-18.78
				C127.18,74.98,125.64,72.15,122.97,73.15z"/>
			<path class="st1" d="M114.28,93.65l-0.43-0.31l0.33-0.41c6.46-8,8.27-19.73,8.29-19.85l0.04-0.29l0.27-0.1
				c2.43-0.92,4.22,0.94,4.82,2.06l0.06,0.11l0,0.13c-0.1,10.25-7.21,18.74-7.51,19.09l-0.07,0.09l-0.1,0.05
				c-0.8,0.36-1.57,0.5-2.27,0.5C115.79,94.71,114.36,93.71,114.28,93.65z M126.67,75.12c-0.28-0.45-1.43-2.09-3.26-1.58
				c-0.33,1.89-2.33,12.12-8.09,19.57c0.76,0.39,2.39,0.99,4.15,0.24C120.22,92.44,126.52,84.42,126.67,75.12z"/>
		</g>
		<g>
			<path class="st3" d="M123.6,73.65c0,0-2.91,13.06-7.96,19.31c0,0,0.87,0.08,2.39-0.4c0,0,5.77-7.67,6.7-17.47
				C124.73,75.1,126.03,71.4,123.6,73.65z"/>
		</g>
	</g>
	<g>
		<g>
			<g>
				<path class="st12" d="M146.09,89.08c0,0-1.3-1.52-4.15,0.07c0,0-3.78,1.55-4.3,6.79c0,0,2.38,1.45,2.67,2.7
					c0,0,1.11,1.15,2.15,0.3c0,0,2.17,1.45,2.51,0.63c0,0,0.31-1.6,1.88-2.53c0,0,0.63-0.84,0.39-1.49l0.85-1.22
					c0,0,0.08-0.14-0.37-0.66l0.75-1.28C148.48,92.38,147.29,90.42,146.09,89.08z"/>
				<path class="st4" d="M142.47,99.53c-1.02,0.56-2.07-0.08-2.52-0.55l-0.09-0.1l-0.03-0.13c-0.18-0.76-1.6-1.87-2.45-2.39
					l-0.27-0.16l0.03-0.31c0.52-5.28,4.17-7.01,4.57-7.19c3.07-1.7,4.6-0.1,4.74,0.05c1.22,1.36,2.4,3.3,2.45,3.38l0.15,0.25
					l-0.72,1.24c0.19,0.27,0.38,0.64,0.2,0.96l-0.74,1.07c0.12,0.8-0.45,1.59-0.53,1.69l-0.06,0.08l-0.09,0.05
					c-1.35,0.8-1.65,2.18-1.65,2.2l-0.03,0.1c-0.1,0.25-0.31,0.43-0.57,0.51c-0.1,0.03-0.21,0.04-0.33,0.04
					C143.86,100.31,142.98,99.84,142.47,99.53z M146.51,96.66c0.15-0.24,0.37-0.68,0.27-0.95l-0.09-0.24l0.86-1.24
					c-0.04-0.06-0.1-0.14-0.19-0.25l-0.24-0.27l0.78-1.33c-0.36-0.56-1.27-1.96-2.18-2.98l0.37-0.33l-0.37,0.33
					c-0.04-0.05-1.11-1.18-3.53,0.17l-0.05,0.03c-0.03,0.01-3.36,1.43-3.95,6.07c0.66,0.43,2.2,1.55,2.58,2.69
					c0.23,0.2,0.84,0.64,1.4,0.18l0.29-0.23l0.31,0.21c0.66,0.45,1.48,0.81,1.78,0.8C144.64,98.87,145.11,97.54,146.51,96.66z"/>
			</g>
			<g>
				<path class="st2" d="M142.66,90.76c0,0-2.85,0.46-4.24,5.05c0,0,0.93,0.09,2.34,2.34c0,0,1.12,0.55,1.45-0.49
					c0,0,0.35-1.47-0.16-2.52c0,0,1.69,0.68,1.08,3.44c0,0,0.69,0.84,1.25,0.55c0,0,0.17-1.18,0.97-2.23c0,0,1.11-1.54,0.38-2.72
					c0,0,0.99-0.14,0.68-1.36c0,0-0.57-1.49-1.96-2.25C144.45,90.58,143.44,90.47,142.66,90.76z"/>
			</g>
			<g>
				<g>
					<path class="st4" d="M142.27,99.53c0.06-0.01,0.07-0.02,0.11-0.03c0.03-0.01,0.05-0.02,0.08-0.03c0.05-0.02,0.1-0.04,0.14-0.07
						c0.09-0.05,0.18-0.11,0.25-0.18c0.15-0.13,0.28-0.3,0.35-0.47c0.16-0.35,0.16-0.7,0.13-1.01c-0.05-0.31-0.13-0.59-0.23-0.86
						c-0.1-0.27-0.23-0.52-0.36-0.77l-0.01-0.03l0,0c-0.08-0.1-0.15-0.25-0.18-0.4c-0.03-0.15-0.02-0.31,0.03-0.46
						c0.05-0.15,0.14-0.29,0.25-0.43c0.06-0.06,0.12-0.12,0.18-0.18l0.21-0.16l-0.23,0.12c-0.07,0.05-0.15,0.1-0.22,0.15
						c-0.14,0.12-0.27,0.25-0.36,0.42c-0.09,0.17-0.14,0.36-0.14,0.57c0,0.2,0.04,0.39,0.15,0.59l-0.02-0.03
						c0.07,0.26,0.15,0.51,0.2,0.77c0.05,0.25,0.07,0.51,0.06,0.74c-0.02,0.23-0.08,0.44-0.18,0.58c-0.05,0.07-0.11,0.11-0.17,0.15
						c-0.03,0.02-0.06,0.03-0.1,0.04c-0.02,0-0.03,0.01-0.05,0.01c-0.01,0-0.02,0-0.02,0c0,0-0.02,0,0.01,0L142.27,99.53z"/>
				</g>
				<g>
					<path class="st4" d="M142.47,96.68c0.38-0.01,0.77-0.01,1.16,0c0.39,0.01,0.78,0.02,1.16,0.09c-0.16-0.12-0.33-0.21-0.51-0.31
						c-0.18-0.09-0.35-0.18-0.53-0.27c-0.36-0.17-0.72-0.34-1.09-0.49L142.47,96.68z"/>
				</g>
				<g>
					<polygon class="st4" points="147.65,95.24 145.48,93.17 146.85,95.85 					"/>
				</g>
				<g>
					<polygon class="st4" points="148.14,93.38 146.46,91.77 147.31,93.94 					"/>
				</g>
			</g>
		</g>
		<g>
			<path class="st0" d="M135.14,76.88c0,0,4.12,2.85,7,7.93c0,0-4.72,1.06-5.98,4.67c0,0-2.43-3.31-4.55-5.98
				c-0.75-0.95-4.26-0.96-6.52-1.62c-2.62-0.77-3.39-5.94,0.89-6.62C126.57,75.17,131.53,74.64,135.14,76.88z"/>
			<path class="st1" d="M135.76,89.78c-0.02-0.03-2.45-3.34-4.54-5.96c-0.34-0.43-1.97-0.68-3.29-0.87
				c-1.03-0.15-2.09-0.31-2.98-0.58c-1.54-0.45-2.61-2.19-2.49-4.05c0.12-1.89,1.41-3.21,3.44-3.54c0.05-0.01,5.53-0.79,9.5,1.68
				l0.02,0.01c0.17,0.12,4.25,2.98,7.15,8.1l0.33,0.59l-0.66,0.15c-0.04,0.01-4.47,1.04-5.61,4.35l-0.31,0.9L135.76,89.78z
				 M134.86,77.3c-3.67-2.27-8.76-1.54-8.81-1.54c-2.22,0.35-2.56,1.95-2.6,2.61c-0.09,1.38,0.69,2.71,1.78,3.03
				c0.83,0.24,1.86,0.4,2.85,0.55c1.79,0.27,3.33,0.5,3.92,1.24c1.52,1.91,3.22,4.18,4.05,5.3c1.3-2.45,4.07-3.58,5.33-3.98
				C138.68,80.05,135.07,77.44,134.86,77.3z"/>
		</g>
		<g>
			<path class="st3" d="M124.76,80.89c0,0-1.91-1.73,2.58-3.27c0,0,3.62-0.07,6.25,1.49c0,0,2.9,1.75,4.69,5.07
				c0,0-2.4,2.16-2.31,4.09c0,0-3.93-5.31-4.44-5.57c0,0-2.78-0.79-5.11-1.1C126.41,81.62,125.13,81.54,124.76,80.89z"/>
		</g>
		<g>
			<g>
				<path class="st10" d="M141.94,83.79c0,0-4.49,0.3-6.67,4.69l3.14,5.29c0,0,1.8-4.23,6.92-5.11
					C145.33,88.64,143.01,85.05,141.94,83.79z"/>
				<path class="st4" d="M134.7,88.49l0.12-0.24c2.28-4.59,6.89-4.95,7.09-4.96l0.25-0.02l0.16,0.19c1.07,1.27,3.33,4.76,3.43,4.91
					l0.41,0.63l-0.75,0.13c-4.78,0.82-6.47,4.66-6.54,4.82l-0.39,0.91L134.7,88.49z M141.73,84.31c-0.91,0.14-4.11,0.84-5.89,4.14
					l2.55,4.29c0.77-1.25,2.63-3.59,6.12-4.44C143.85,87.3,142.53,85.32,141.73,84.31z"/>
			</g>
			<g>
				<path class="st11" d="M135.95,88.41c0,0,3.25-5.65,7.36-0.19c0,0-2.96,0.66-4.81,4.34L135.95,88.41z"/>
			</g>
			<g>
				<g>
					<path class="st4" d="M138.57,88.77c0.26,0.1,0.51,0.14,0.77,0.18c0.26,0.03,0.51,0.04,0.76,0.04c0.25-0.01,0.51-0.03,0.76-0.07
						c0.25-0.05,0.51-0.1,0.76-0.21c-0.26-0.1-0.51-0.15-0.77-0.18c-0.26-0.03-0.51-0.04-0.76-0.04c-0.25,0.01-0.51,0.03-0.76,0.07
						C139.08,88.6,138.82,88.66,138.57,88.77z"/>
				</g>
				<g>
					<path class="st4" d="M140.83,87.19c-0.2,0.19-0.35,0.4-0.49,0.62c-0.14,0.22-0.26,0.45-0.36,0.68
						c-0.1,0.23-0.19,0.47-0.26,0.72c-0.07,0.25-0.12,0.5-0.13,0.78c0.2-0.19,0.35-0.4,0.49-0.62c0.14-0.22,0.26-0.45,0.36-0.68
						c0.1-0.23,0.19-0.47,0.26-0.72C140.76,87.72,140.82,87.47,140.83,87.19z"/>
				</g>
			</g>
			<g>
				<g>
					<path class="st4" d="M137.5,87.04c0.26,0.1,0.51,0.14,0.77,0.18c0.26,0.03,0.51,0.04,0.76,0.04c0.25-0.01,0.51-0.03,0.76-0.07
						c0.25-0.04,0.51-0.1,0.76-0.21c-0.26-0.1-0.51-0.15-0.77-0.18c-0.26-0.03-0.51-0.04-0.76-0.04c-0.25,0.01-0.51,0.03-0.76,0.07
						C138.01,86.88,137.75,86.93,137.5,87.04z"/>
				</g>
				<g>
					<path class="st4" d="M139.76,85.47c-0.2,0.19-0.35,0.4-0.49,0.62c-0.14,0.22-0.26,0.45-0.36,0.68
						c-0.1,0.23-0.19,0.47-0.26,0.72c-0.07,0.25-0.12,0.5-0.13,0.78c0.2-0.19,0.35-0.4,0.49-0.62c0.14-0.22,0.26-0.45,0.36-0.68
						c0.1-0.23,0.19-0.47,0.26-0.72C139.7,86,139.75,85.74,139.76,85.47z"/>
				</g>
			</g>
		</g>
	</g>
	<g>
		<g>
			<path class="st0" d="M101.09,96.1c0,0,14.68,6.21,30.51-0.67c0,0,0.59-0.71,0.57-1.27c0,0-0.1-3.4-0.23-4.14
				c-0.11-0.62-0.38-0.82-0.93-0.39c0,0-7.93,6.36-29.45,1.11c0,0-0.24-1.32-0.95,0.02C100.61,90.77,100,96.01,101.09,96.1z"/>
			<path class="st1" d="M100.96,96.58c-0.15-0.03-0.35-0.11-0.52-0.32c-0.79-0.96-0.45-4.49-0.33-5.55l0.01-0.09l0.04-0.08
				c0.14-0.26,0.5-0.95,1.11-0.86c0.37,0.06,0.57,0.38,0.68,0.65c20.75,5,28.66-1.02,28.74-1.08c0.39-0.31,0.76-0.41,1.08-0.29
				c0.5,0.19,0.61,0.78,0.64,0.97c0.14,0.75,0.23,3.86,0.24,4.2c0.04,0.72-0.56,1.47-0.68,1.61l-0.08,0.09l-0.11,0.05
				c-5.67,2.46-11.22,3.26-16.02,3.26C107.61,99.15,101.63,96.85,100.96,96.58z M131.67,94.18c-0.03-0.94-0.12-3.49-0.23-4.06
				c-0.01-0.06-0.02-0.11-0.04-0.15c-0.02,0.02-0.05,0.04-0.09,0.06c-0.33,0.27-8.37,6.46-29.88,1.2l-0.31-0.08l-0.03-0.18
				c-0.23,2.14-0.19,4.24,0.1,4.63l0.09,0.03c0.09,0.04,6.11,2.51,14.48,2.51c4.65,0,10.03-0.76,15.52-3.13
				C131.45,94.8,131.68,94.41,131.67,94.18z"/>
		</g>
		<g>
			<path class="st3" d="M100.78,91.49c0.47-0.97,0.62-0.01,0.62-0.01c13.26,4.01,15.97,1.74,15.97,1.74
				c0.1-0.09,3.08-0.13,3.15-0.15c-0.9,2.55-5.79,3.36-5.79,3.36c-7.47,1.53-13.68-0.81-13.68-0.81
				C100.33,95.55,100.78,91.49,100.78,91.49z"/>
		</g>
		<g>
			<path class="st7" d="M129.01,91.39c0,0-10.54,3.98-27.05,0.1c0,0-1.34-0.97-1.3,0.58c0,0-0.35,2.72,0.38,3.54
				c0,0-0.66-0.59,0.71-3.06c0,0,16.86,4.11,26.46-0.55C128.21,92,131,90.71,129.01,91.39z"/>
		</g>
	</g>
	<g>
		<g>
			<g>
				<path class="st4" d="M105.93,73.56l0.45-0.14c5.96,13.62,25.83,14.37,25.83,14.37l0.17,0.29l-0.23,4.29l-0.23,0.16
					c-23.68-1.13-28.32-15.02-28.32-15.02l0.07-0.59L105.93,73.56z"/>
			</g>
			<g>
				<path class="st6" d="M103.2,76.77l-0.09,0.78l0.03,0.09c0.05,0.15,1.25,3.63,5.41,7.28c3.82,3.35,10.97,7.47,23.35,8.06
					l0.18,0.01l0.55-0.39l0.25-4.62l-0.37-0.63l-0.28-0.01c-0.05,0-4.98-0.21-10.56-2.06c-5.11-1.69-11.83-5.16-14.84-12.03
					l-0.17-0.4l-1.06,0.33L103.2,76.77z M104.1,77.46l0.05-0.39l2.01-3c2.58,5.45,7.83,9.61,15.22,12.06
					c4.97,1.65,9.33,2.02,10.52,2.09l-0.21,3.85c-11.92-0.62-18.79-4.58-22.46-7.8C105.59,81.09,104.31,78.01,104.1,77.46z"/>
			</g>
		</g>
		<g>
			<g>
				<path class="st5" d="M124.17,87.36c0,0-1.41,2.65-6.34,1.71c0,0-9.26-2.91-13.58-11.92l1.76-2.91
					C106,74.24,109.38,83.79,124.17,87.36z"/>
			</g>
		</g>
		<g>
			<g>
				<g>
					<g>
						<path class="st13" d="M129.64,89.39c0.29,0.15,0.39,0.5,0.22,0.78c-0.17,0.28-0.54,0.38-0.84,0.22
							c-0.29-0.15-0.39-0.5-0.22-0.78C128.97,89.33,129.35,89.23,129.64,89.39z"/>
					</g>
					<g>
						<path class="st4" d="M128.48,89.44c-0.13,0.21-0.16,0.46-0.1,0.69c0.07,0.24,0.23,0.43,0.46,0.55
							c0.14,0.07,0.29,0.11,0.45,0.12c0.35,0.01,0.7-0.16,0.89-0.46c0.13-0.21,0.16-0.46,0.09-0.7c-0.07-0.23-0.23-0.42-0.46-0.54
							C129.35,88.85,128.75,89,128.48,89.44L128.48,89.44z M129.12,89.78c0.05-0.08,0.14-0.13,0.23-0.12c0.04,0,0.07,0.01,0.11,0.03
							c0.05,0.03,0.09,0.08,0.11,0.13c0.02,0.06,0.01,0.13-0.03,0.18c-0.07,0.11-0.22,0.16-0.34,0.1c-0.05-0.03-0.09-0.08-0.11-0.13
							C129.08,89.9,129.09,89.83,129.12,89.78z"/>
					</g>
				</g>
				<g>
					<g>
						<path class="st15" d="M129.49,89.39c0.23,0.09,0.31,0.36,0.19,0.61c-0.12,0.25-0.4,0.38-0.63,0.29
							c-0.23-0.09-0.31-0.36-0.19-0.61C128.98,89.43,129.26,89.3,129.49,89.39z"/>
					</g>
				</g>
				<g>
					<g>
						<path class="st14" d="M129.29,89.44c0.15,0.06,0.21,0.25,0.13,0.44c-0.08,0.19-0.28,0.3-0.43,0.24
							c-0.15-0.06-0.21-0.25-0.13-0.44C128.94,89.49,129.14,89.38,129.29,89.44z"/>
					</g>
				</g>
			</g>
			<g>
				<g>
					<g>
						<path class="st13" d="M126.39,88.96c0.29,0.15,0.39,0.5,0.22,0.78c-0.17,0.28-0.54,0.38-0.84,0.22
							c-0.29-0.15-0.39-0.5-0.22-0.78C125.73,88.9,126.1,88.81,126.39,88.96z"/>
					</g>
					<g>
						<path class="st4" d="M125.24,89.01c-0.13,0.21-0.16,0.46-0.1,0.69c0.07,0.24,0.23,0.43,0.46,0.55
							c0.14,0.07,0.29,0.11,0.45,0.12c0.35,0.01,0.7-0.16,0.89-0.46c0.13-0.21,0.17-0.46,0.09-0.7c-0.07-0.23-0.23-0.42-0.46-0.54
							C126.11,88.42,125.51,88.57,125.24,89.01L125.24,89.01z M125.88,89.35c0.05-0.08,0.14-0.13,0.23-0.12
							c0.04,0,0.07,0.01,0.11,0.03c0.05,0.03,0.09,0.07,0.11,0.13c0.02,0.06,0.01,0.13-0.03,0.18c-0.07,0.11-0.22,0.16-0.34,0.1
							c-0.05-0.03-0.09-0.08-0.11-0.13C125.83,89.47,125.84,89.4,125.88,89.35z"/>
					</g>
				</g>
				<g>
					<g>
						<path class="st15" d="M126.24,88.96c0.23,0.09,0.31,0.36,0.19,0.61c-0.12,0.25-0.4,0.38-0.63,0.29
							c-0.23-0.09-0.31-0.36-0.19-0.61C125.74,89,126.02,88.87,126.24,88.96z"/>
					</g>
				</g>
				<g>
					<g>
						<path class="st14" d="M126.05,89.01c0.15,0.06,0.21,0.25,0.13,0.44c-0.09,0.19-0.28,0.3-0.43,0.24
							c-0.15-0.06-0.21-0.25-0.13-0.44C125.7,89.06,125.89,88.95,126.05,89.01z"/>
					</g>
				</g>
			</g>
			<g>
				<g>
					<g>
						<path class="st13" d="M113.02,83.74c0.39,0.21,0.52,0.67,0.3,1.04c-0.23,0.37-0.73,0.5-1.12,0.3
							c-0.39-0.21-0.52-0.67-0.3-1.04C112.12,83.66,112.63,83.53,113.02,83.74z"/>
					</g>
					<g>
						<path class="st4" d="M111.58,83.86c-0.16,0.26-0.2,0.56-0.11,0.85c0.08,0.28,0.28,0.51,0.55,0.66
							c0.17,0.09,0.36,0.14,0.54,0.14c0.43,0.01,0.85-0.19,1.08-0.56c0.16-0.26,0.2-0.56,0.11-0.85c-0.08-0.28-0.28-0.51-0.55-0.66
							C112.63,83.14,111.9,83.33,111.58,83.86z M112.22,84.2c0.09-0.15,0.25-0.23,0.42-0.22c0.07,0,0.14,0.02,0.2,0.05
							c0.1,0.05,0.17,0.14,0.21,0.25c0.03,0.11,0.02,0.23-0.05,0.33c-0.13,0.21-0.41,0.28-0.62,0.17c-0.1-0.05-0.17-0.14-0.21-0.25
							C112.14,84.42,112.15,84.3,112.22,84.2z"/>
					</g>
				</g>
			</g>
			<g>
				<g>
					<g>
						<path class="st13" d="M109.6,81.39c0.29,0.15,0.39,0.5,0.22,0.78c-0.17,0.28-0.54,0.38-0.84,0.22
							c-0.29-0.15-0.39-0.5-0.22-0.78C108.93,81.33,109.31,81.23,109.6,81.39z"/>
					</g>
					<g>
						<path class="st4" d="M108.44,81.44c-0.13,0.21-0.16,0.46-0.09,0.7c0.07,0.23,0.23,0.42,0.46,0.54
							c0.14,0.07,0.29,0.11,0.45,0.12c0.35,0.01,0.7-0.16,0.89-0.46c0.13-0.21,0.16-0.46,0.09-0.7c-0.07-0.23-0.23-0.42-0.46-0.54
							C109.31,80.85,108.71,81,108.44,81.44L108.44,81.44z M109.08,81.78c0.05-0.08,0.14-0.13,0.23-0.12c0.04,0,0.07,0.01,0.11,0.03
							c0.05,0.03,0.09,0.07,0.11,0.13c0.02,0.06,0.01,0.13-0.03,0.18c-0.07,0.11-0.22,0.16-0.34,0.1c-0.05-0.03-0.09-0.07-0.11-0.13
							C109.04,81.9,109.05,81.84,109.08,81.78z"/>
					</g>
				</g>
			</g>
			<g>
				<g>
					<g>
						<path class="st13" d="M107.4,78.71c0.29,0.15,0.39,0.5,0.22,0.78c-0.17,0.28-0.54,0.38-0.84,0.22
							c-0.29-0.15-0.39-0.5-0.22-0.78C106.73,78.66,107.11,78.56,107.4,78.71z"/>
					</g>
					<g>
						<path class="st4" d="M106.25,78.77c-0.13,0.21-0.16,0.46-0.09,0.7c0.07,0.23,0.23,0.42,0.46,0.54
							c0.14,0.07,0.3,0.11,0.45,0.12c0.35,0.01,0.7-0.16,0.89-0.46c0.13-0.21,0.16-0.46,0.1-0.69c-0.07-0.24-0.23-0.43-0.46-0.55
							C107.11,78.17,106.51,78.33,106.25,78.77L106.25,78.77z M106.88,79.1c0.05-0.08,0.14-0.13,0.23-0.12
							c0.04,0,0.07,0.01,0.11,0.03c0.05,0.03,0.09,0.08,0.11,0.13c0.02,0.06,0.01,0.13-0.03,0.18c-0.07,0.11-0.22,0.16-0.34,0.09
							c-0.05-0.03-0.09-0.08-0.11-0.13C106.84,79.23,106.85,79.16,106.88,79.1z"/>
					</g>
				</g>
			</g>
		</g>
	</g>
	<g>
		<g>
			<g>
				<path class="st15" d="M104.87,72.47c0,0,3.91,1.01,5.12-1.32c0,0,1.55-3.12,3.89-10.57c0,0,0.11-1,1.14-0.87
					c0,0,0.81,0,0.21,1.51c0,0-1.86,9.96-5.69,12.32c0,0-2.78,1.71-6.03-0.96C103.51,72.58,102.51,71.37,104.87,72.47z"/>
			</g>
		</g>
		<g>
			<g>
				<path class="st14" d="M109.58,73.27c0,0,3.38-1.4,4.48-11.62c0,0-0.02-1.65,0.96-1.94c0,0,0.81-0.04,0.09,2.32
					c0,0-1.97,12.31-6.73,12.28C108.37,74.31,107.24,74.14,109.58,73.27z"/>
			</g>
		</g>
		<g>
			<g>
				<path class="st12" d="M103.24,54.5c0,0,0.81-1.85,0.05-3.71l-0.18-2.01c0,0,1.3-4.55,4.55-6.31c0,0,3.06-2.23,10.71-2.02
					c5.69,0.16,13.21,3.05,13.5,12.97c0,0,0.31,5.15-1.04,5.1c0,0,0.93,1.62-0.35,5.79c0,0,1.08,7.08-5.25,10.36
					c0,0-8.81,5.04-17.84,2.46l-1.77-0.85c0,0-4.86-6.16-2.4-15.12C103.21,61.16,100.23,57.44,103.24,54.5z"/>
			</g>
			<g>
				<path class="st4" d="M102.67,61.27c-2.35,8.97,2.35,15.06,2.55,15.32l0.07,0.09l1.96,0.93c1.91,0.54,3.8,0.76,5.6,0.76
					c6.81,0,12.34-3.1,12.63-3.27c6.09-3.16,5.61-9.78,5.51-10.75c0.91-3.01,0.71-4.75,0.48-5.55c0.04-0.03,0.08-0.07,0.12-0.11
					c0.98-1,0.82-4.57,0.78-5.3c-0.29-9.64-7.41-13.27-13.98-13.45c-7.42-0.21-10.62,1.85-10.98,2.1c-3.38,1.85-4.72,6.4-4.77,6.59
					l-0.03,0.09l0.2,2.18l0.03,0.07c0.58,1.43,0.12,2.89-0.01,3.25C100.4,56.67,101.58,59.78,102.67,61.27z M103.76,61.05l-0.16-0.2
					c-0.11-0.14-2.66-3.4-0.01-6l0.07-0.07l0.04-0.09c0.04-0.08,0.86-2.02,0.08-4.03l-0.17-1.84c0.19-0.62,1.49-4.41,4.29-5.92
					l0.06-0.04c0.03-0.02,3.06-2.13,10.4-1.93c2.97,0.08,12.68,1.22,13.01,12.49l0,0.02c0.14,2.39-0.17,4.42-0.53,4.58l-0.9-0.03
					l0.45,0.78c0,0.01,0.79,1.55-0.39,5.39l-0.03,0.11l0.02,0.11c0.04,0.27,0.94,6.77-4.98,9.84c-0.1,0.06-8.73,4.9-17.43,2.44
					l-1.62-0.77c-0.56-0.77-4.45-6.56-2.25-14.59L103.76,61.05z"/>
			</g>
		</g>
		<g>
			<g>
				<path class="st2" d="M104.23,50.32c0.56-1.94,0.38-6.29,3.83-5.65c4.35,0.8,4.21,1.35,11.88-0.21c4.54-0.93,4.11,6.77,4.11,6.77
					c-1.38,2.71-0.42,5.17-0.42,5.17c2.28,3.96,0.38,4.56,0.38,4.56c-0.93,0.78-2.27,0.6-2.27,0.6l-1.09-0.36
					c-6.53-2.78-14.06-2.06-14.06-2.06c-0.69,0.12-2.82,1.08-2.82,1.08c-0.49-0.95-0.52-1.5-0.52-1.5c0.33-1.62,1.59-3.24,1.59-3.24
					C106.25,53.8,104.23,50.32,104.23,50.32z"/>
			</g>
		</g>
		<g>
			<g>
				<path class="st14" d="M103.3,55.38c1.84-2.76,0.22-5.08,0.22-5.08l0.69-0.04c1.97,2.05,0.66,4.52,0.66,4.52
					c-1.49,2.17-0.39,5.26-0.39,5.26l-1.12,0.08C101.67,56.54,103.3,55.38,103.3,55.38z"/>
			</g>
		</g>
		<g>
			<g>
				<path class="st2" d="M109.9,52.21c1.46,2.25,2.43,5.65,2.43,5.65l1.21,0.56c1.61,0.1,2.06,1.77,2.06,1.77
					c-0.1,1.23-1.22,0.38-1.22,0.38c-1.97-0.59-3.22-0.08-3.22-0.08c-1.68,0.44-2.22,0.95-2.22,0.95c-1.48-2.05-0.04-4.75-0.04-4.75
					C110.54,53.77,109.9,52.21,109.9,52.21z"/>
			</g>
		</g>
		<g>
			<g>
				<path class="st2" d="M106.71,65.04c6.73-1.9,11.95,0.71,11.95,0.71c2.74,0.43,2.25,1.79,2.25,1.79c-0.28,3.52-2.7,6.69-2.7,6.69
					c-1.98,1.66-4.43,1.03-4.43,1.03c-4.2-3.33-6.67-0.01-6.67-0.01c-3.25-3.34-3.24-6.05-3.24-6.05
					C103.14,65.15,106.71,65.04,106.71,65.04z"/>
			</g>
		</g>
		<g>
			<g>
				<path class="st14" d="M104.92,60.82c0.01-0.04,0.01-0.07,0.02-0.11C104.93,60.71,105.01,60.75,104.92,60.82z"/>
			</g>
			<g>
				<path class="st14" d="M104.92,60.82c-1.45,9.25,1.33,13.02,1.33,13.02c2.08,1.42,3.56,2.15,3.56,2.15
					c2.94,0.49,2.04,1.21,2.04,1.21c-3.81,0.17-5.74-1.64-5.74-1.64c-5.01-8.2-2.22-14.54-2.22-14.54
					C104.57,60.96,104.83,60.88,104.92,60.82z"/>
			</g>
		</g>
		<g>
			<g>
				<g>
					<path class="st12" d="M133.36,54.48c0,0,2.72,2.89,0.6,6.39c0,0-1.04,1.52-2.87,2.35c0,0-1.51,0.81-3,0.65l-1.16-4.53
						c0.5-2.45,1.23-3.42,1.23-3.42S129.9,53.12,133.36,54.48z"/>
				</g>
				<g>
					<path class="st4" d="M133.54,54.02l0.1,0.04l0.08,0.08c0.03,0.03,2.95,3.21,0.67,6.99l-0.02,0.02
						c-0.05,0.07-1.14,1.64-3.07,2.52c-0.17,0.09-1.44,0.72-2.83,0.72c-0.15,0-0.3-0.01-0.45-0.02l0.1-0.99
						c1.31,0.14,2.7-0.59,2.71-0.6l0.03-0.01c1.6-0.73,2.57-2.05,2.66-2.17c1.71-2.85-0.08-5.23-0.48-5.7
						c-2.94-1.09-4.43,1.19-4.49,1.29l-0.02,0.03c-0.01,0.01-0.68,0.94-1.14,3.23l-0.98-0.2c0.49-2.41,1.21-3.47,1.31-3.61
						C127.93,55.36,129.91,52.59,133.54,54.02z"/>
				</g>
			</g>
			<g>
				<g>
					<path class="st2" d="M132.28,55.86c0,0,2.49,2.96-1.76,6.11c0,0-3.6,1.51-1.2-4.53C129.33,57.44,130.35,55.26,132.28,55.86z"/>
				</g>
			</g>
			<g>
				<g>
					<g>
						<path class="st4" d="M129.12,57.51c0.13-0.18,0.28-0.34,0.47-0.47c0.2-0.12,0.39-0.23,0.61-0.32l0.15-0.07
							c0.05-0.02,0.11-0.04,0.17-0.05c0.11-0.03,0.22-0.07,0.33-0.08c0.23-0.03,0.46-0.04,0.68,0c0.44,0.08,0.84,0.27,1.13,0.58
							l-0.06,0.08c-0.35-0.16-0.74-0.22-1.09-0.16c-0.35,0.05-0.66,0.2-0.92,0.4c-0.28,0.2-0.43,0.54-0.72,0.74
							c-0.13,0.12-0.29,0.23-0.45,0.34c-0.16,0.12-0.34,0.23-0.57,0.32l-0.09-0.05c-0.02-0.24,0.02-0.46,0.08-0.68
							C128.91,57.89,129.01,57.69,129.12,57.51z"/>
					</g>
				</g>
				<g>
					<g>
						<path class="st4" d="M130.92,57.25c0.18,0.19,0.35,0.4,0.47,0.64c0.12,0.24,0.2,0.5,0.2,0.76c0.01,0.26-0.09,0.5-0.19,0.71
							c0.03-0.24,0.03-0.46-0.05-0.67c-0.08-0.2-0.2-0.37-0.35-0.5c-0.15-0.14-0.33-0.25-0.52-0.34c-0.18-0.09-0.4-0.17-0.57-0.2
							l0.39-0.92C130.54,56.89,130.73,57.06,130.92,57.25z"/>
					</g>
				</g>
			</g>
		</g>
		<g>
			<g>
				<path class="st5" d="M109.94,37.75c3.38-1.73,8.67-1.76,8.67-1.76c8.17,0.49,9.72,5.04,9.72,5.04c2.99-3.7,4.5-0.28,4.5-0.28
					c3.5-0.24,4.28,2.95,4.28,2.95c1.28,2.71-0.93,3.78-0.93,3.78c-0.15,3.49-4.58,3.49-4.58,3.49c-1.84-6.72-5.27-7.74-5.27-7.74
					c-5.26-3.25-11.96,0.22-11.96,0.22c-4.48,1.71-5.69-1.42-5.69-1.42C107.76,39.59,109.94,37.75,109.94,37.75z"/>
			</g>
			<g>
				<path class="st4" d="M108.22,42.22c0.02,0.04,1.45,3.58,6.34,1.71l0.05-0.02c0.06-0.03,6.52-3.3,11.46-0.24l0.06,0.03l0.06,0.02
					c0.03,0.01,3.19,1.07,4.93,7.39l0.1,0.37h0.38c1.65,0,4.75-0.78,5.06-3.69c0.89-0.58,1.96-2.01,0.93-4.25
					c-0.31-1.2-1.6-3.29-4.38-3.29c-0.02,0-0.05,0-0.07,0c-0.28-0.46-0.9-1.28-1.91-1.41c-0.89-0.12-1.82,0.32-2.77,1.31
					c-0.83-1.38-3.31-4.26-9.81-4.65l-0.02,0l-0.02,0c-0.22,0-5.44,0.04-8.9,1.81l-0.05,0.03l-0.04,0.04
					C109.52,37.46,107.17,39.46,108.22,42.22z M110.22,38.17c3.16-1.59,8.06-1.67,8.37-1.67c7.73,0.47,9.25,4.66,9.26,4.7l0.29,0.86
					l0.57-0.7c0.88-1.08,1.69-1.61,2.36-1.53c0.83,0.11,1.29,1.13,1.3,1.14l0.14,0.32l0.35-0.02c0.11-0.01,0.22-0.01,0.33-0.01
					c2.74,0,3.4,2.47,3.43,2.58l0.03,0.09c1.06,2.24-0.63,3.09-0.7,3.12l-0.27,0.13l-0.01,0.3c-0.11,2.46-2.72,2.91-3.71,3
					c-1.79-6.13-4.9-7.49-5.42-7.68c-5.31-3.24-11.83-0.06-12.37,0.22c-3.91,1.48-4.98-1.04-5.02-1.15
					C108.42,39.92,109.95,38.42,110.22,38.17z"/>
			</g>
		</g>
		<g>
			<g>
				<path class="st16" d="M110.44,38.25c7.57-3,13.52-0.26,13.52-0.26c-1.84-0.08-2.87,0.77-2.87,0.77
					c-2.01,1.77-4.97,1.25-4.97,1.25c1.1,1.89-1.21,1.21-1.21,1.21c0.56,1.72-1.48,1.81-1.48,1.81c-1.23,1.81-4.24-1.01-4.24-1.01
					C108.05,40.34,110.44,38.25,110.44,38.25z"/>
			</g>
		</g>
		<g>
			<g>
				<path class="st16" d="M130,40.14c1.67-1.03,2.38,1.22,2.38,1.22c2.05-0.14,3.04,0.92,3.04,0.92c2.35,1.77,0.47,3.14,0.47,3.14
					c-1.11,2.06-2.65-0.25-2.65-0.25c-0.08,1.83-2.17-0.09-2.17-0.09c-0.09-1.66-2.75-3.16-2.75-3.16
					C128.98,40.26,130,40.14,130,40.14z"/>
			</g>
		</g>
		<g>
			<g>
				<path class="st17" d="M110.44,38.25c8.15-2.91,12.61-0.59,12.61-0.59c-5.54-1.01-8.9,0.8-8.9,0.8c4.04,1.04,2.27,2.01,2.27,2.01
					c-1.52-2.07-4.85-1.11-4.85-1.11c-2.87,0.85-1.64,3.38-1.64,3.38C107.51,39.83,110.44,38.25,110.44,38.25z"/>
			</g>
		</g>
		<g>
			<g>
				<path class="st17" d="M132.17,41.08c3.09,0.04,3.51,1.45,3.51,1.45c-1.68-1.43-4.01-0.29-4.01-0.29
					c-1.34-2.61-2.7,0.83-2.7,0.83c-0.1-0.54-0.64-1.15-0.64-1.15C130.69,37.85,132.17,41.08,132.17,41.08z"/>
			</g>
		</g>
		<g>
			<g>
				<path class="st4" d="M117.05,68.73c-0.44-0.28-0.91-0.48-1.38-0.68c-0.47-0.19-0.96-0.36-1.45-0.5c-0.49-0.14-1-0.25-1.52-0.32
					c-0.52-0.07-1.05-0.11-1.62-0.06l-0.04,0L111,67.18c-0.18,0.04-0.42,0.08-0.63,0.1c-0.22,0.03-0.44,0.04-0.66,0.05
					c-0.44,0.01-0.87-0.02-1.29-0.11l-0.11-0.03l-0.01,0c-0.28,0.01-0.49,0.05-0.73,0.1c-0.23,0.05-0.45,0.13-0.66,0.22
					c-0.42,0.19-0.81,0.45-1.1,0.79c0.22-0.06,0.42-0.12,0.63-0.15c0.21-0.04,0.41-0.07,0.62-0.08c0.2-0.02,0.4-0.02,0.6-0.01
					c0.19,0.01,0.41,0.02,0.56,0.06l-0.12-0.03c0.25,0.11,0.51,0.2,0.78,0.26c0.26,0.06,0.53,0.1,0.8,0.12
					c0.27,0.02,0.53,0.02,0.8,0c0.27-0.02,0.51-0.05,0.81-0.11l-0.08,0.01c0.43-0.04,0.91-0.02,1.38,0.01
					c0.48,0.02,0.97,0.08,1.46,0.12l1.49,0.14C116.03,68.67,116.53,68.72,117.05,68.73z"/>
			</g>
			<g>
				<path class="st4" d="M113.08,70.39c-0.33-0.24-0.7-0.39-1.08-0.49c-0.38-0.1-0.77-0.15-1.16-0.16c-0.39,0-0.79,0.04-1.17,0.13
					c-0.38,0.09-0.75,0.24-1.09,0.47c0.4,0.07,0.78,0.07,1.15,0.1c0.37,0.01,0.73,0.02,1.1,0.03c0.36,0,0.73,0,1.1-0.01
					C112.3,70.45,112.68,70.44,113.08,70.39z"/>
			</g>
		</g>
		<g>
			<g>
				<path class="st14" d="M108.13,54.82c0.01-1.11-2.1-3.25-4.14-1.06c0,0-1.46,1.75,0.31,2.94c0,0,1.54,0.21,2.36,0.07
					C106.67,56.77,108.11,56.73,108.13,54.82z"/>
			</g>
			<g>
				<path class="st4" d="M108.96,56.18c0.08-0.44,0.07-0.88,0.02-1.33c-0.06-0.45-0.17-0.9-0.41-1.33
					c-0.12-0.21-0.26-0.43-0.45-0.61c-0.2-0.2-0.39-0.32-0.61-0.45c-0.42-0.24-0.9-0.41-1.41-0.45c-0.51-0.04-1.05,0.08-1.5,0.33
					c-0.11,0.07-0.22,0.13-0.32,0.21c-0.1,0.08-0.19,0.16-0.28,0.24c-0.23,0.21-0.34,0.43-0.45,0.65c-0.41,0.89-0.39,1.85-0.14,2.69
					c0.17-0.86,0.39-1.68,0.83-2.29c0.05-0.08,0.11-0.15,0.17-0.21c0.06-0.07,0.11-0.12,0.17-0.15c0.08-0.05,0.15-0.1,0.23-0.15
					c0.08-0.05,0.16-0.08,0.23-0.12c0.31-0.14,0.65-0.2,0.99-0.18c0.34,0.02,0.7,0.13,1.03,0.28c0.16,0.08,0.35,0.18,0.46,0.27
					c0.07,0.05,0.13,0.1,0.19,0.17c0.07,0.06,0.12,0.13,0.18,0.2c0.24,0.29,0.43,0.65,0.6,1.03
					C108.68,55.36,108.82,55.76,108.96,56.18z"/>
			</g>
			<g>
				<g>
					<path class="st14" d="M119.49,57.09c0,0,0.91-0.09,1.18-0.12c0.33-0.04,0.78-0.21,0.89-0.69c0,0-0.43-3.09-2.46-3.57
						c-1.15-0.27-3.23-0.25-3.5,2.81l0,0.2C115.61,55.72,115.47,57.44,119.49,57.09z"/>
				</g>
				<g>
					<path class="st4" d="M121.56,56.28c0.07-0.45,0.05-0.91-0.02-1.37c-0.07-0.46-0.22-0.92-0.48-1.36c-0.13-0.22-0.3-0.42-0.5-0.6
						c-0.22-0.18-0.42-0.3-0.64-0.42c-0.44-0.23-0.93-0.39-1.45-0.42c-0.52-0.03-1.06,0.06-1.53,0.29l-0.34,0.19
						c-0.11,0.07-0.2,0.15-0.3,0.23c-0.05,0.04-0.09,0.07-0.16,0.14c-0.05,0.06-0.1,0.11-0.14,0.16c-0.08,0.11-0.15,0.22-0.21,0.33
						c-0.48,0.9-0.48,1.91-0.22,2.77c0.09-0.45,0.18-0.88,0.32-1.27c0.14-0.4,0.33-0.76,0.57-1.06c0.06-0.07,0.12-0.14,0.19-0.2
						c0.03-0.03,0.06-0.06,0.09-0.08c0.01-0.01,0.06-0.04,0.1-0.06c0.08-0.05,0.16-0.1,0.24-0.15l0.25-0.12
						c0.34-0.13,0.7-0.18,1.06-0.16c0.37,0.02,0.74,0.13,1.1,0.27c0.17,0.07,0.37,0.17,0.5,0.26c0.14,0.1,0.28,0.21,0.41,0.36
						c0.26,0.28,0.47,0.64,0.65,1.03C121.26,55.44,121.41,55.85,121.56,56.28z"/>
				</g>
				<g>
					<g>
						<path class="st4" d="M116.35,54.95c-0.22,0.84,0.25,1.69,1.04,1.9c0.79,0.21,1.61-0.3,1.82-1.14c0.22-0.84-0.25-1.69-1.04-1.9
							C117.39,53.6,116.57,54.11,116.35,54.95z"/>
					</g>
					<g>
						<path class="st14" d="M119.27,55.93c0.08-0.31-0.09-0.63-0.38-0.71c-0.29-0.08-0.59,0.12-0.67,0.43
							c-0.08,0.31,0.09,0.63,0.38,0.71C118.89,56.43,119.19,56.24,119.27,55.93z"/>
					</g>
				</g>
			</g>
			<g>
				<g>
					<path class="st4" d="M103.88,54.73c-0.2,0.76,0.23,1.53,0.94,1.72c0.72,0.19,1.46-0.27,1.65-1.03c0.2-0.76-0.23-1.53-0.94-1.72
						C104.82,53.5,104.08,53.97,103.88,54.73z"/>
				</g>
				<g>
					<path class="st14" d="M106.53,55.61c0.07-0.29-0.08-0.57-0.34-0.64c-0.26-0.07-0.53,0.1-0.61,0.39
						c-0.07,0.29,0.08,0.57,0.34,0.64C106.18,56.07,106.45,55.9,106.53,55.61z"/>
				</g>
			</g>
			<g>
				<g>
					<g>
						<path class="st5" d="M124.14,51.78c0,0-1.71-2.95-4.75-3.94c-1.55-0.5-2.17-0.24-5.31,2.75c-0.29,0.28-0.78,0.41-1.81,0.06
							c-0.45-0.15-1.45,0.43,0.49,1.84c0,0,2.02,0.83,2.83-0.2c0,0,3.28-2.77,5.72-0.32C121.31,51.98,123.9,54.08,124.14,51.78z"/>
						<path class="st4" d="M121,52.37l-0.04-0.03c-1.99-1.99-4.67,0.04-5.01,0.32c-1.04,1.24-3.27,0.34-3.37,0.3l-0.06-0.02
							l-0.05-0.04c-1.45-1.06-1.48-1.8-1.25-2.25c0.24-0.47,0.82-0.61,1.22-0.47c0.66,0.23,1.1,0.25,1.3,0.05
							c3.01-2.87,3.91-3.48,5.81-2.86c3.18,1.03,4.95,4.03,5.02,4.16l0.08,0.14l-0.02,0.16c-0.09,0.92-0.52,1.28-0.87,1.42
							c-0.17,0.07-0.35,0.1-0.54,0.1C122.27,53.36,121.23,52.55,121,52.37z M119.24,48.32c-1.23-0.4-1.64-0.38-4.81,2.64
							c-0.67,0.64-1.64,0.4-2.3,0.17l0,0c0.04,0.11,0.19,0.41,0.88,0.93c0.48,0.18,1.74,0.51,2.19-0.07l0.07-0.07
							c1.25-1.06,4.19-2.47,6.38-0.31c0.51,0.4,1.38,0.87,1.74,0.73c0.14-0.06,0.2-0.26,0.24-0.44
							C123.24,51.31,121.69,49.11,119.24,48.32z"/>
					</g>
					<g>
						<path class="st16" d="M121.61,50.55c0,0-1.31-1.93-3.41-2.44c-1.07-0.26-1.65,0.36-3.64,2.55c-0.18,0.2-1.35,0.52-2.06,0.33
							c-0.31-0.08-0.11,0.93,1.47,1.16c0,0,1.07,0.49,1.87-0.82c0,0,2.35-1.82,4.65-0.56C120.49,50.78,122.16,52.13,121.61,50.55z"
							/>
					</g>
					<g>
						<path class="st17" d="M113.71,51.07c0,0-1.19-0.54-1.46,0.21c0,0,0.42,1.3,2.44,1.04c0,0,1.17-0.45,0.49-0.76
							c0,0-0.59,0.17-1.35,0.04C113.83,51.61,113.24,51.5,113.71,51.07z"/>
					</g>
				</g>
				<g>
					<g>
						<path class="st5" d="M106.41,50.09c0,0,0.59,0.58,1.23,0.53c0.27-0.02,0.53-0.51,1.09-0.22c0,0,0.78,1.84-1.54,1.97
							c0,0-1.23-0.08-1.66-0.6c0,0-0.72-0.89-2.31-0.68c0,0-2.18,0.72-1.73-0.97c0,0,0.62-3.04,3.27-1.52
							C104.76,48.61,105.69,49.5,106.41,50.09z"/>
						<path class="st4" d="M107.15,52.87c-0.24-0.02-1.47-0.13-2.02-0.79c-0.01-0.01-0.57-0.65-1.82-0.5
							c-0.32,0.1-1.45,0.39-2.05-0.18c-0.23-0.22-0.47-0.64-0.27-1.39c0.04-0.18,0.39-1.63,1.54-2.15c0.71-0.32,1.55-0.22,2.47,0.31
							l0.05,0.03l0.04,0.04c0.01,0.01,0.93,0.88,1.63,1.46l0.03,0.03c0.11,0.11,0.48,0.39,0.81,0.39c0,0,0,0,0,0
							c0.03-0.01,0.05-0.03,0.08-0.05c0.22-0.14,0.68-0.44,1.31-0.11l0.16,0.08l0.07,0.16c0.04,0.1,0.4,1-0.08,1.77
							c-0.34,0.54-0.97,0.84-1.89,0.89l-0.03,0L107.15,52.87z M108.18,50.91c-0.13,0.08-0.29,0.19-0.51,0.21
							c-0.79,0.06-1.46-0.53-1.6-0.65c-0.64-0.53-1.42-1.27-1.62-1.45c-0.61-0.34-1.11-0.42-1.51-0.24
							c-0.61,0.27-0.91,1.14-0.97,1.45l-0.01,0.03c-0.07,0.27-0.04,0.39-0.01,0.42c0.12,0.12,0.66,0.09,1.1-0.05l0.09-0.02
							c1.85-0.24,2.73,0.82,2.76,0.86c0.19,0.23,0.87,0.39,1.28,0.42c0.39-0.02,0.87-0.12,1.06-0.42c0.12-0.19,0.11-0.45,0.07-0.63
							C108.29,50.84,108.25,50.87,108.18,50.91z M107.54,50.13L107.54,50.13L107.54,50.13z"/>
					</g>
					<g>
						<path class="st16" d="M105.09,49.54c0,0,0.73,0.67,1.45,1.37c0,0,0.74,0.37-0.59,0.57c0,0-1.29-0.3-1.57-0.66
							c0,0-0.4-0.31-1.31-0.08c0,0-1.01,0.32-0.84-0.94c0,0,0.61-1.56,1.82-0.97C104.05,48.82,104.48,48.83,105.09,49.54z"/>
					</g>
					<g>
						<path class="st17" d="M102.91,48.71c0,0-1.02-0.03-1.01,1.83c0,0,0.51,0.71,1.12,0.04c0,0-0.63-1.89,1.43-1.57
							C104.45,49,103.12,48.36,102.91,48.71z"/>
					</g>
				</g>
			</g>
		</g>
		<g>
			<g>
				<g>
					<path class="st17" d="M109.83,52.59c1.32,1.88,0.06,4.34,0.06,4.34c-2.05,3.61-0.2,4.33-0.2,4.33
						c-1.15,0.7-2.19,0.89-2.19,0.89c-0.99-3.41,1.42-5.9,1.42-5.9C110.54,53.57,109.83,52.59,109.83,52.59z"/>
				</g>
			</g>
			<g>
				<g>
					<path class="st4" d="M114.67,62.6c0.03,0,0.07,0,0.11,0c0.03,0.01,0.06,0.03,0.1,0.04L114.67,62.6z"/>
				</g>
				<g>
					<path class="st4" d="M106.46,58.78l-0.01,0.04c0.24-0.76,0.59-1.46,0.97-2.12c0.38-0.66,0.82-1.28,1.29-1.87l0.1-0.12l0.08-0.1
						c0.06-0.06,0.1-0.13,0.15-0.2c0.09-0.14,0.18-0.28,0.24-0.43c0.13-0.3,0.21-0.64,0.22-0.99c0.03-0.7-0.14-1.43-0.45-2.1
						c0.46,0.59,0.78,1.3,0.87,2.08c0.04,0.39,0.01,0.8-0.1,1.19c-0.06,0.2-0.13,0.39-0.23,0.57c-0.05,0.09-0.1,0.18-0.16,0.26
						l-0.08,0.12l-0.07,0.11c-0.38,0.61-0.73,1.25-1.05,1.89c-0.31,0.64-0.57,1.31-0.73,1.97l-0.01,0.04
						c-0.11,0.35-0.19,0.77-0.24,1.16c-0.05,0.39-0.06,0.79-0.02,1.15c0.04,0.37,0.14,0.71,0.3,0.97c0.08,0.13,0.18,0.25,0.29,0.35
						c0.1,0.09,0.23,0.17,0.36,0.24c-0.01,0-0.03-0.01-0.04-0.01l0.07,0.03c-0.01-0.01-0.02-0.01-0.03-0.02
						c0.08,0.02,0.2,0.05,0.3,0.07c0.12,0.02,0.25,0.04,0.38,0.05c0.26,0.03,0.51,0.03,0.77,0.02c0.51-0.03,1.02-0.14,1.49-0.33
						c0.12-0.05,0.24-0.1,0.35-0.16c0.06-0.03,0.11-0.06,0.16-0.09l0.04-0.02l0.08-0.05c0.05-0.03,0.1-0.05,0.14-0.07
						c0.36-0.15,0.71-0.22,1.06-0.23c0.66-0.02,1.28,0.13,1.84,0.36c-0.04,0-0.08,0-0.11,0l0.21,0.04c-0.03-0.01-0.06-0.03-0.1-0.04
						c0.08,0,0.17-0.01,0.26-0.03c0.13-0.02,0.25-0.05,0.37-0.08c0.23-0.07,0.43-0.19,0.57-0.33c0.13-0.14,0.21-0.32,0.22-0.56
						c0.01-0.23-0.03-0.49-0.11-0.74c0,0.01,0.01,0.02,0.02,0.03l-0.02-0.04c0,0,0,0.01,0,0.01c-0.14-0.26-0.34-0.55-0.55-0.79
						c-0.22-0.26-0.48-0.49-0.77-0.68c-0.29-0.19-0.6-0.35-0.94-0.44c-0.34-0.1-0.7-0.14-1.07-0.14c0.36-0.08,0.73-0.12,1.11-0.08
						c0.38,0.04,0.75,0.14,1.1,0.3c0.35,0.16,0.68,0.38,0.97,0.63c0.3,0.26,0.55,0.53,0.79,0.89l0,0l0.02,0.04
						c0.13,0.3,0.24,0.63,0.26,1.01c0.03,0.37-0.08,0.8-0.34,1.13c-0.25,0.33-0.59,0.54-0.92,0.67c-0.17,0.07-0.34,0.12-0.51,0.16
						c-0.18,0.04-0.33,0.07-0.54,0.08l-0.08,0.01l-0.13-0.04c-0.5-0.17-1.01-0.27-1.48-0.22c-0.23,0.02-0.46,0.08-0.63,0.16
						c-0.02,0.01-0.04,0.02-0.06,0.03l-0.01,0.01l-0.06,0.03c-0.07,0.04-0.15,0.09-0.22,0.13c-0.14,0.08-0.29,0.16-0.44,0.22
						c-0.6,0.27-1.24,0.43-1.89,0.47c-0.33,0.02-0.65,0.02-0.98-0.01c-0.16-0.02-0.32-0.04-0.49-0.07
						c-0.17-0.03-0.31-0.06-0.51-0.13l-0.04-0.01l-0.03-0.02c-0.24-0.12-0.48-0.27-0.69-0.46c-0.21-0.19-0.39-0.42-0.52-0.66
						c-0.28-0.48-0.39-1.01-0.43-1.5c-0.04-0.5,0-0.98,0.08-1.44C106.17,59.68,106.29,59.25,106.46,58.78z"/>
				</g>
				<g>
					<path class="st4" d="M108.13,63.02c0.01,0,0.03,0.01,0.04,0.01c0.01,0.01,0.02,0.01,0.03,0.02L108.13,63.02z"/>
				</g>
				<g>
					<path class="st4" d="M116.09,60.88c0-0.01-0.01-0.02-0.02-0.03c0,0,0-0.01,0-0.01L116.09,60.88z"/>
				</g>
			</g>
		</g>
	</g>
</g>
</svg>
