<?xml version="1.0" encoding="utf-8"?>
<!-- Generator: Adobe Illustrator 28.5.0, SVG Export Plug-In . SVG Version: 9.03 Build 54727)  -->
<svg version="1.0" id="Layer_1" xmlns="http://www.w3.org/2000/svg" xmlns:xlink="http://www.w3.org/1999/xlink" x="0px" y="0px"
	 viewBox="0 0 150 150" style="enable-background:new 0 0 150 150;" xml:space="preserve">
<style type="text/css">
	.st0{fill:#C74C44;}
	.st1{fill:#70220D;}
	.st2{fill:#FFCAA6;}
	.st3{fill:#FFA41F;}
	.st4{fill:#673956;}
	.st5{fill:#846F74;}
	.st6{fill:#A3A091;}
	.st7{fill:#D6D5D4;}
	.st8{fill:#3A1D30;}
	.st9{fill:#95404B;}
	.st10{fill:#C6705C;}
	.st11{fill:#FFFDF0;}
	.st12{fill:#EAA498;}
	.st13{fill:#9483AB;}
	.st14{fill:#CCC7CA;}
	.st15{fill:#FFFFFF;}
	.st16{fill:#AFA19C;}
	.st17{fill:#F3E0D9;}
</style>
<g>
	<g>
		<g>
			<path class="st0" d="M100.94,102.86c0,0,0.08,2.57,0.51,4.95c0,0,0.58,1.97-0.96,2.33c0,0-6.99,0.15-7.41,0.15
				c0,0-1.42,0.02-1.86-0.34c0,0-0.95-1.44,2.53-3.63l0.94-0.77l-2.29-9.28l8.22-0.67L100.94,102.86z"/>
			<path class="st1" d="M90.9,110.33l-0.06-0.05l-0.04-0.06c-0.05-0.08-0.31-0.51-0.15-1.21c0.22-1.01,1.17-2.05,2.81-3.09
				l0.68-0.55l-2.36-9.54l9.32-0.76l0.34,7.77l0,0.01c0,0.03,0.08,2.55,0.5,4.86c0.06,0.22,0.31,1.27-0.16,2.09
				c-0.25,0.42-0.65,0.71-1.17,0.83l-0.1,0.01c-0.28,0.01-6.82,0.15-7.4,0.15c-0.04,0-0.06,0-0.1,0
				C92.56,110.79,91.41,110.74,90.9,110.33z M93.1,109.79c0.45,0,4.93-0.09,7.32-0.14c0.23-0.06,0.39-0.17,0.49-0.35
				c0.25-0.42,0.13-1.11,0.06-1.34l-0.01-0.05c-0.43-2.37-0.51-4.88-0.52-5.02l-0.3-6.74l-7.13,0.58l2.23,9.02l-1.19,0.97
				l-0.05,0.04c-2.5,1.57-2.47,2.6-2.4,2.87c0.25,0.11,0.9,0.19,1.48,0.19C93.09,109.79,93.09,109.79,93.1,109.79z"/>
		</g>
		<g>
			<path class="st2" d="M97.62,100.98v4.66c0,0-1.05-0.48-2.28-0.27l-1.57-5.8C93.76,99.57,96.93,97.61,97.62,100.98z"/>
		</g>
		<g>
			<path class="st3" d="M91.65,108.78c0,0,1.88-2.4,3.31-2.34c0,0,3.17-0.57,4.24,2.18c0,0,0.53,1.29-6.46,0.9
				C92.75,109.52,91.22,109.39,91.65,108.78z"/>
		</g>
		<g>
			<path class="st0" d="M91.52,111.51l9.44,0.08c0.41,0,0.75-0.33,0.75-0.74l0-0.31c0-0.41-0.33-0.75-0.74-0.75l-9.44-0.08
				c-0.41,0-0.75,0.33-0.75,0.74l0,0.31C90.78,111.16,91.11,111.5,91.52,111.51z"/>
			<path class="st1" d="M100.96,112.08L91.51,112c-0.33,0-0.64-0.13-0.87-0.37c-0.23-0.24-0.36-0.55-0.36-0.88l0-0.31
				c0-0.33,0.13-0.64,0.37-0.87c0.23-0.23,0.54-0.36,0.87-0.36c0,0,0.01,0,0.01,0l9.44,0.08c0.33,0,0.64,0.13,0.87,0.37
				c0.23,0.24,0.36,0.55,0.36,0.88l0,0.31c0,0.33-0.13,0.64-0.37,0.87c-0.23,0.23-0.54,0.36-0.87,0.36
				C100.96,112.08,100.96,112.08,100.96,112.08z M91.35,110.28c-0.03,0.03-0.07,0.09-0.08,0.18l0,0.31c0,0.14,0.11,0.25,0.25,0.25
				l9.44,0.08h0c0.13,0,0.25-0.11,0.25-0.25l0-0.31c0-0.09-0.05-0.15-0.07-0.18c-0.03-0.03-0.09-0.07-0.18-0.08l-9.44-0.08
				c0,0,0,0,0,0C91.44,110.2,91.38,110.25,91.35,110.28z"/>
		</g>
		<g>
			<path class="st4" d="M96,105.79c0,0,3.81,0.95,5-1.8c0,0,1.22-9.81-1.75-10.1c0,0-5.34-0.52-7.39,2.04c0,0-1.05,0.72,1.76,8.47
				C93.62,104.4,94.77,105.95,96,105.79z"/>
			<path class="st4" d="M95.97,106.29c-1.43,0.11-2.61-1.41-2.74-1.59l-0.04-0.06l-0.02-0.07c-1.84-5.07-2.42-8.24-1.65-8.99
				c2.21-2.69,7.57-2.21,7.8-2.18c0.51,0.05,0.94,0.3,1.3,0.74c1.78,2.23,0.99,9.13,0.89,9.91l-0.01,0.07l-0.03,0.07
				c-0.77,1.77-2.55,2.26-4.03,2.26C96.88,106.45,96.37,106.38,95.97,106.29z M99.84,94.76c-0.18-0.23-0.39-0.35-0.62-0.38
				c-0.05,0-5.1-0.46-6.96,1.85l-0.02,0.02c-0.07,0.17-0.46,1.56,1.83,7.9c0.31,0.39,1.15,1.23,1.88,1.14l0.09-0.01l0.09,0.02
				c0.03,0.01,3.36,0.81,4.4-1.45C100.77,101.79,101.11,96.35,99.84,94.76z"/>
		</g>
		<g>
			<path class="st5" d="M96.55,105.36c0,0,0.76-0.46,0.89-1.79c0,0-0.09-5.88-1.41-6.06c0,0-2.38-0.32-3.05,1.37
				c0,0-0.25,3.36,1.14,5.24C94.11,104.12,94.69,105.55,96.55,105.36z"/>
		</g>
		<g>
			<path class="st0" d="M101.52,99.5c0,0-3.12,1.36-9.46,0.9l0.39,1.68c0,0,5.42,0.29,9.12-0.89L101.52,99.5z"/>
			<path class="st1" d="M92.41,102.57l-0.37-0.02l-0.62-2.7l0.67,0.05c6.1,0.45,9.19-0.84,9.23-0.86l0.67-0.29l0.08,2.8l-0.36,0.11
				c-2.54,0.81-5.82,0.94-7.72,0.94C93.08,102.6,92.49,102.57,92.41,102.57z M101.04,100.19c-1.19,0.36-3.96,0.99-8.35,0.74
				l0.15,0.66c1.23,0.04,5.22,0.08,8.22-0.77L101.04,100.19z"/>
		</g>
		<g>
			<path class="st3" d="M97.62,100.98c0,0-1.49,0.73-4.71,0.46l-0.35-0.55C92.55,100.89,95.89,101.04,97.62,100.98z"/>
		</g>
	</g>
	<g>
		<g>
			<path class="st0" d="M84.1,102.86c0,0,0.08,2.57,0.51,4.95c0,0,0.58,1.97-0.96,2.33c0,0-6.99,0.15-7.41,0.15
				c0,0-1.42,0.02-1.86-0.34c0,0-0.95-1.44,2.53-3.63l0.94-0.77l-2.29-9.28l8.22-0.67L84.1,102.86z"/>
			<path class="st1" d="M74.06,110.33L74,110.28l-0.04-0.06c-0.05-0.08-0.31-0.51-0.15-1.21c0.22-1.01,1.17-2.05,2.81-3.09
				l0.68-0.55l-2.36-9.54l9.32-0.76l0.34,7.77l0,0.01c0,0.03,0.08,2.55,0.5,4.86c0.06,0.22,0.31,1.27-0.16,2.09
				c-0.25,0.42-0.65,0.71-1.17,0.83l-0.1,0.01c-0.28,0.01-6.82,0.15-7.4,0.15c-0.04,0-0.06,0-0.1,0
				C75.72,110.79,74.57,110.74,74.06,110.33z M76.26,109.79c0.45,0,4.93-0.09,7.32-0.14c0.23-0.06,0.39-0.17,0.49-0.35
				c0.25-0.42,0.13-1.11,0.06-1.34l-0.01-0.05c-0.43-2.37-0.51-4.88-0.52-5.02l-0.3-6.74l-7.13,0.58l2.23,9.02l-1.19,0.97
				l-0.05,0.04c-2.5,1.57-2.47,2.6-2.4,2.87c0.25,0.11,0.9,0.19,1.48,0.19C76.25,109.79,76.25,109.79,76.26,109.79z"/>
		</g>
		<g>
			<path class="st2" d="M80.77,100.98v4.66c0,0-1.05-0.48-2.28-0.27l-1.57-5.8C76.92,99.57,80.09,97.61,80.77,100.98z"/>
		</g>
		<g>
			<path class="st3" d="M74.81,108.78c0,0,1.88-2.4,3.31-2.34c0,0,3.17-0.57,4.24,2.18c0,0,0.53,1.29-6.46,0.9
				C75.91,109.52,74.38,109.39,74.81,108.78z"/>
		</g>
		<g>
			<path class="st0" d="M74.68,111.51l9.44,0.08c0.41,0,0.75-0.33,0.75-0.74l0-0.31c0-0.41-0.33-0.75-0.74-0.75l-9.44-0.08
				c-0.41,0-0.75,0.33-0.75,0.74l0,0.31C73.93,111.16,74.27,111.5,74.68,111.51z"/>
			<path class="st1" d="M84.11,112.08L74.67,112c-0.33,0-0.64-0.13-0.87-0.37c-0.23-0.24-0.36-0.55-0.36-0.88l0-0.31
				c0-0.33,0.13-0.64,0.37-0.87c0.23-0.23,0.54-0.36,0.87-0.36c0,0,0.01,0,0.01,0l9.44,0.08c0.33,0,0.64,0.13,0.87,0.37
				c0.23,0.24,0.36,0.55,0.36,0.88l0,0.31c0,0.33-0.13,0.64-0.37,0.87c-0.23,0.23-0.54,0.36-0.87,0.36
				C84.12,112.08,84.12,112.08,84.11,112.08z M74.51,110.28c-0.03,0.03-0.07,0.09-0.08,0.18l0,0.31c0,0.14,0.11,0.25,0.25,0.25
				l9.44,0.08c0.12,0,0.25-0.11,0.25-0.25l0-0.31c0-0.09-0.04-0.15-0.07-0.18c-0.03-0.03-0.09-0.07-0.18-0.08l-9.44-0.08h0
				C74.6,110.2,74.54,110.25,74.51,110.28z"/>
		</g>
		<g>
			<path class="st4" d="M79.16,105.79c0,0,3.81,0.95,5-1.8c0,0,1.22-9.81-1.75-10.1c0,0-5.34-0.52-7.39,2.04
				c0,0-1.05,0.72,1.76,8.47C76.78,104.4,77.93,105.95,79.16,105.79z"/>
			<path class="st4" d="M79.13,106.29c-1.43,0.11-2.61-1.41-2.74-1.59l-0.04-0.06l-0.02-0.07c-1.84-5.07-2.42-8.24-1.65-8.99
				c2.21-2.69,7.57-2.21,7.8-2.18c0.51,0.05,0.94,0.3,1.3,0.74c1.78,2.23,0.99,9.13,0.89,9.91l-0.01,0.07l-0.03,0.07
				c-0.77,1.77-2.55,2.26-4.03,2.26C80.04,106.45,79.53,106.38,79.13,106.29z M82.99,94.76c-0.18-0.23-0.39-0.35-0.62-0.38
				c-0.05,0-5.1-0.46-6.96,1.85l-0.02,0.02c-0.07,0.17-0.46,1.56,1.83,7.9c0.31,0.39,1.14,1.23,1.88,1.14l0.09-0.01l0.09,0.02
				c0.03,0.01,3.36,0.81,4.4-1.45C83.93,101.79,84.27,96.35,82.99,94.76z"/>
		</g>
		<g>
			<path class="st5" d="M79.71,105.36c0,0,0.76-0.46,0.89-1.79c0,0-0.09-5.88-1.41-6.06c0,0-2.38-0.32-3.05,1.37
				c0,0-0.25,3.36,1.14,5.24C77.27,104.12,77.85,105.55,79.71,105.36z"/>
		</g>
		<g>
			<path class="st0" d="M84.67,99.5c0,0-3.12,1.36-9.46,0.9l0.39,1.68c0,0,5.42,0.29,9.12-0.89L84.67,99.5z"/>
			<path class="st1" d="M75.57,102.57l-0.37-0.02l-0.62-2.7l0.67,0.05c6.1,0.45,9.19-0.84,9.23-0.86l0.67-0.29l0.08,2.8l-0.36,0.11
				c-2.54,0.81-5.82,0.94-7.72,0.94C76.24,102.6,75.64,102.57,75.57,102.57z M84.2,100.19c-1.19,0.36-3.95,0.99-8.35,0.74L76,101.6
				c1.23,0.04,5.22,0.08,8.22-0.77L84.2,100.19z"/>
		</g>
		<g>
			<path class="st3" d="M80.77,100.98c0,0-1.49,0.73-4.71,0.46l-0.35-0.55C75.71,100.89,79.05,101.04,80.77,100.98z"/>
		</g>
	</g>
	<g>
		<path class="st6" d="M75.46,84.61c0,0-4.55,2.01-10.33,1.81c0,0,1.55-4.55-0.86-7.47c0,0,4.06-0.34,7.41-0.76
			c1.19-0.15,3.02-3.11,4.74-4.68c2.01-1.82,6.78,0.21,5.14,4.18C81.34,78.24,79.22,82.72,75.46,84.61z"/>
		<path class="st4" d="M65.11,86.92l-0.67-0.02l0.21-0.63c0.01-0.04,1.43-4.32-0.77-7l-0.6-0.73l0.94-0.08
			c0.04,0,4.09-0.35,7.39-0.75c0.54-0.07,1.59-1.32,2.44-2.33c0.66-0.79,1.35-1.6,2.03-2.23c1.18-1.07,3.21-1.08,4.72-0.01
			c1.54,1.08,1.99,2.86,1.21,4.74c-0.02,0.05-2.19,5.08-6.34,7.17l-0.02,0.01c-0.16,0.07-3.44,1.5-7.99,1.81
			C66.85,86.93,65.99,86.95,65.11,86.92z M81.1,77.51c0.85-2.06-0.32-3.17-0.87-3.55c-1.12-0.79-2.66-0.82-3.49-0.07
			c-0.64,0.58-1.3,1.37-1.94,2.13c-1.15,1.37-2.15,2.56-3.08,2.67c-2.4,0.3-5.2,0.56-6.58,0.68c1.4,2.37,0.93,5.29,0.61,6.57
			c5.17,0.03,9.24-1.68,9.47-1.78C79.06,82.23,81.09,77.55,81.1,77.51z"/>
	</g>
	<g>
		<path class="st7" d="M77.42,73.5c0,0,2.45-0.72,1.43,3.88c0,0-1.82,3.1-4.5,4.51c0,0-2.98,1.54-6.72,1.34c0,0-0.59-3.15-2.27-4.08
			c0,0,6.53-0.58,7.01-0.88c0,0,2.1-1.95,3.57-3.75C75.95,74.53,76.67,73.48,77.42,73.5z"/>
	</g>
	<g>
		<path class="st0" d="M104.12,93.16c0,0-22.08,4.49-29.69-0.94l-0.76,6.15c0,0,6.21,4.31,18.41,3.45c0,0,8.56-0.3,13.07-2.87
			L104.12,93.16z"/>
		<path class="st1" d="M73.38,98.78l-0.25-0.17l0.9-7.27l0.68,0.48c7.36,5.23,29.09,0.9,29.31,0.85l0.5-0.1l1.18,6.64l-0.3,0.17
			c-4.56,2.6-12.94,2.92-13.28,2.93c-1.14,0.08-2.22,0.12-3.25,0.12C78.77,102.44,73.62,98.95,73.38,98.78z M103.72,93.74
			c-3.31,0.63-21.29,3.78-28.9-0.68l-0.63,5.06c1.26,0.75,7.29,3.95,17.87,3.2c0.08,0,8.11-0.31,12.54-2.64L103.72,93.74z"/>
	</g>
	<g>
		<path class="st4" d="M87.09,93.68c0,0,0.03,4.39-0.19,8.35c0,0-4.64,0.41-8.93-1.4l0.42-7.99C78.38,92.64,85.31,93.54,87.09,93.68
			z"/>
		<path class="st8" d="M77.77,101.09l-0.32-0.13l0.46-8.87l0.53,0.07c0.07,0.01,6.94,0.9,8.68,1.04l0.45,0.04l0,0.45
			c0,0.04,0.03,4.45-0.19,8.38l-0.02,0.43l-0.43,0.04c-0.06,0.01-0.52,0.04-1.26,0.04C83.97,102.57,80.81,102.36,77.77,101.09z
			 M86.59,94.13c-1.87-0.18-6.22-0.74-7.75-0.93l-0.37,7.1c3.3,1.29,6.76,1.3,7.95,1.25C86.58,98.52,86.59,95.29,86.59,94.13z"/>
	</g>
	<g>
		<g>
			<path class="st6" d="M76.36,76.33c-0.45,1.16-1.84,7-1.59,11.72c0.13,2.4,9.17,2.83,9.17,2.83h0.74
				c12.22,0.79,19.38-3.28,19.38-3.28s-0.17,0.39,0,0c0.17-0.39-0.96-6.8-0.96-6.8s-1.12-5.86-7.03-9.48c0,0-10.28,4.88-16.07,0.14
				c0,0-2.51,1.31-2.78,2.54C77.21,74,77.78,72.66,76.36,76.33z"/>
			<path class="st4" d="M84.66,91.38l-0.75,0c-1.58-0.08-9.5-0.59-9.64-3.3c-0.25-4.76,1.15-10.69,1.62-11.93v0
				c0.51-1.32,0.75-1.95,0.86-2.25l-0.03-0.01c0.31-1.42,2.75-2.73,3.03-2.88l0.29-0.15l0.25,0.21c5.48,4.48,15.44-0.16,15.54-0.21
				l0.24-0.11l0.23,0.14c6.03,3.7,7.21,9.56,7.26,9.82c0.6,3.42,0.85,5.15,0.94,6.06l0.6-0.34l-0.6,1.36c0,0,0,0,0,0l-0.08,0.17
				l-0.22-0.1l0.09,0.16c-0.27,0.15-6.19,3.45-16.46,3.45C86.82,91.48,85.76,91.45,84.66,91.38z M102.6,80.89
				c-0.01-0.06-1.13-5.54-6.58-9.02c-1.64,0.73-10.54,4.37-16.08,0.17c-0.71,0.41-1.78,1.15-2.14,1.79
				c-0.03,0.17-0.1,0.36-0.19,0.59c-0.14,0.38-0.39,1.02-0.79,2.08v0c-0.46,1.19-1.8,6.9-1.56,11.52c0.06,1.21,4.56,2.17,8.67,2.36
				h0.74l0.03,0c10.7,0.69,17.54-2.43,18.86-3.1C103.52,86.45,103.07,83.52,102.6,80.89z M76.86,73.94
				c0.05,0.12,0.14,0.23,0.28,0.28c0.17,0.07,0.34,0.03,0.46-0.05L76.86,73.94z"/>
		</g>
		<g>
			<path class="st7" d="M93.26,75.7c0,0-9.01,2.62-14.91,0.14c0,0-2.06,3.01-2.29,11.87c0,0,15.03,2.77,21.11-1.33
				C97.17,86.39,93.73,82.68,93.26,75.7z"/>
		</g>
	</g>
	<g>
		<g>
			<path class="st9" d="M70.09,86.43c0,0,1.99-4-0.68-8.06l-6.1,0.05c0,0,2.73,3.65,0.93,8.48C64.23,86.91,68.47,86.71,70.09,86.43z
				"/>
			<path class="st4" d="M64.25,87.4l-0.75,0.04l0.26-0.7c1.68-4.5-0.76-7.87-0.86-8.01l-0.58-0.78l7.35-0.06l0.15,0.23
				c2.79,4.25,0.8,8.38,0.71,8.55l-0.11,0.22l-0.25,0.04c-0.79,0.14-2.16,0.25-3.39,0.34C65.48,87.34,64.34,87.4,64.25,87.4z
				 M69.13,78.87l-4.95,0.04c0.69,1.29,1.76,4.04,0.75,7.46c1.19-0.07,3.55-0.21,4.81-0.39C70.09,85.13,71.09,82.06,69.13,78.87z"/>
		</g>
		<g>
			<path class="st10" d="M69.11,78.98c0,0,3.21,5.61-3.52,6.4c0,0,0.91-2.86-1.32-6.29L69.11,78.98z"/>
		</g>
		<g>
			<g>
				<path class="st4" d="M67.5,81.05c-0.21,0.17-0.38,0.37-0.54,0.57c-0.15,0.2-0.29,0.42-0.41,0.64c-0.12,0.22-0.23,0.45-0.32,0.69
					c-0.09,0.24-0.17,0.49-0.2,0.76c0.21-0.17,0.38-0.37,0.54-0.57c0.15-0.2,0.29-0.42,0.41-0.64c0.12-0.22,0.23-0.45,0.32-0.69
					C67.39,81.57,67.47,81.32,67.5,81.05z"/>
			</g>
			<g>
				<path class="st4" d="M67.72,83.77c-0.06-0.27-0.17-0.5-0.29-0.73c-0.12-0.23-0.25-0.44-0.4-0.65c-0.15-0.21-0.31-0.4-0.49-0.59
					c-0.18-0.18-0.37-0.36-0.6-0.5c0.06,0.27,0.17,0.5,0.29,0.73c0.12,0.23,0.25,0.44,0.4,0.65c0.15,0.21,0.31,0.4,0.49,0.59
					C67.3,83.45,67.49,83.63,67.72,83.77z"/>
			</g>
		</g>
		<g>
			<g>
				<path class="st4" d="M69.51,81c-0.21,0.17-0.38,0.37-0.54,0.57c-0.15,0.2-0.29,0.42-0.41,0.64c-0.12,0.22-0.23,0.45-0.32,0.69
					c-0.09,0.24-0.17,0.49-0.2,0.76c0.21-0.17,0.38-0.37,0.54-0.57c0.15-0.2,0.29-0.42,0.41-0.64c0.12-0.22,0.23-0.45,0.32-0.69
					C69.4,81.51,69.48,81.27,69.51,81z"/>
			</g>
			<g>
				<path class="st4" d="M69.74,83.72c-0.06-0.27-0.17-0.5-0.29-0.73c-0.12-0.23-0.25-0.44-0.4-0.65c-0.15-0.21-0.31-0.4-0.49-0.59
					c-0.18-0.18-0.37-0.36-0.6-0.5c0.06,0.27,0.17,0.5,0.29,0.73c0.12,0.23,0.25,0.44,0.4,0.65c0.15,0.21,0.31,0.4,0.49,0.59
					C69.31,83.4,69.5,83.57,69.74,83.72z"/>
			</g>
		</g>
	</g>
	<g>
		<path class="st0" d="M96.06,72.31c0,0,1.25,10.98-7.39,19.18c0,0,9.22-1.2,15.54-1.65C104.2,89.83,106.11,75.54,96.06,72.31z"/>
		<path class="st1" d="M88.32,91.13c8.35-7.92,7.26-18.66,7.24-18.76l-0.09-0.76l0.73,0.23c4.3,1.38,7.12,4.96,8.18,10.35
			c0.78,4.01,0.32,7.56,0.3,7.71l-0.05,0.4l-0.4,0.03c-6.23,0.45-15.42,1.64-15.51,1.65l-1.51,0.2L88.32,91.13z M96.59,73.03
			c0.09,2.56-0.18,10.94-6.57,17.79c2.76-0.34,8.98-1.09,13.72-1.44C103.95,87.14,104.51,76.18,96.59,73.03z"/>
	</g>
	<g>
		<path class="st0" d="M95.81,71.07c0,0-1.76,11.79-8.33,19.93c0,0,2.43,1.75,5.17,0.51c0,0,7.23-8.52,7.33-18.62
			C99.98,72.88,98.45,70.07,95.81,71.07z"/>
		<path class="st1" d="M87.19,91.4l-0.42-0.31l0.33-0.41C93.5,82.75,95.3,71.11,95.32,71l0.04-0.29l0.27-0.1
			c2.41-0.91,4.18,0.94,4.78,2.04l0.06,0.11l0,0.13c-0.1,10.17-7.15,18.59-7.45,18.94l-0.07,0.08l-0.1,0.05
			c-0.79,0.36-1.56,0.49-2.26,0.49C88.68,92.45,87.27,91.46,87.19,91.4z M99.48,73.01c-0.27-0.44-1.42-2.07-3.23-1.57
			c-0.33,1.88-2.31,12.02-8.03,19.41c0.76,0.39,2.37,0.99,4.12,0.24C93.08,90.2,99.33,82.24,99.48,73.01z"/>
	</g>
	<g>
		<path class="st3" d="M96.43,71.56c0,0-2.89,12.95-7.9,19.16c0,0,0.87,0.08,2.37-0.39c0,0,5.73-7.61,6.65-17.33
			C97.55,73,98.84,69.33,96.43,71.56z"/>
	</g>
	<g>
		<path class="st11" d="M96.06,72.31c0,0-1.78,10.79-8.01,18.85l0.73,0.06c0,0,6.85-9.32,7.65-19.65L96.06,72.31z"/>
	</g>
	<g>
		<g>
			<path class="st0" d="M74.1,93.58c0,0,14.57,6.16,30.26-0.66c0,0,0.59-0.7,0.56-1.26c0,0-0.1-3.37-0.23-4.1
				c-0.11-0.61-0.38-0.81-0.92-0.38c0,0-7.87,6.31-29.21,1.1c0,0-0.24-1.31-0.94,0.02C73.62,88.3,73.02,93.5,74.1,93.58z"/>
			<path class="st1" d="M73.97,94.06c-0.15-0.03-0.34-0.11-0.51-0.32c-0.78-0.95-0.45-4.46-0.33-5.51l0.01-0.09l0.04-0.08
				c0.14-0.26,0.5-0.94,1.1-0.85c0.37,0.06,0.57,0.38,0.67,0.65c20.59,4.96,28.43-1.01,28.51-1.07c0.39-0.31,0.75-0.41,1.08-0.29
				c0.49,0.18,0.6,0.77,0.64,0.97c0.14,0.75,0.23,3.83,0.24,4.17c0.04,0.71-0.56,1.46-0.68,1.6l-0.08,0.09l-0.11,0.05
				c-5.63,2.44-11.13,3.23-15.89,3.23C80.57,96.6,74.64,94.33,73.97,94.06z M104.43,91.68c-0.03-0.93-0.12-3.46-0.22-4.03
				c-0.01-0.06-0.02-0.11-0.04-0.15c-0.02,0.02-0.05,0.04-0.09,0.06c-0.33,0.26-8.3,6.41-29.64,1.19l-0.31-0.08L74.1,88.5
				c-0.23,2.12-0.19,4.2,0.1,4.59l0.09,0.03c0.09,0.04,6.06,2.49,14.37,2.49c4.61,0,9.95-0.76,15.39-3.1
				C104.22,92.29,104.44,91.91,104.43,91.68z"/>
		</g>
		<g>
			<path class="st3" d="M73.79,89.01c0.47-0.97,0.61-0.01,0.61-0.01c13.15,3.98,15.84,1.73,15.84,1.73c0.1-0.09,3.06-0.12,3.13-0.14
				c-0.89,2.53-5.75,3.33-5.75,3.33c-7.41,1.51-13.57-0.8-13.57-0.8C73.35,93.04,73.79,89.01,73.79,89.01z"/>
		</g>
		<g>
			<path class="st11" d="M101.79,88.91c0,0-10.46,3.95-26.83,0.1c0,0-1.33-0.96-1.29,0.58c0,0-0.35,2.7,0.37,3.51
				c0,0-0.65-0.59,0.7-3.03c0,0,16.73,4.08,26.25-0.55C101.01,89.52,103.77,88.24,101.79,88.91z"/>
		</g>
	</g>
	<g>
		<g>
			<g>
				<path class="st12" d="M117.59,88.39c0,0-1.17-1.61-4.11-0.25c0,0-3.86,1.25-4.76,6.39c0,0,2.24,1.61,2.44,2.87
					c0,0,1.01,1.23,2.11,0.46c0,0,2.03,1.6,2.43,0.82c0,0,0.43-1.56,2.06-2.36c0,0,0.69-0.79,0.5-1.45l0.93-1.15
					c0,0,0.09-0.13-0.31-0.68l0.84-1.21C119.7,91.84,118.68,89.81,117.59,88.39z"/>
				<path class="st4" d="M113.22,98.46c-1.05,0.48-2.04-0.24-2.45-0.74l-0.09-0.1l-0.02-0.13c-0.12-0.77-1.44-1.97-2.24-2.55
					l-0.25-0.18l0.05-0.31c0.91-5.18,4.66-6.62,5.07-6.76c3.16-1.45,4.56,0.25,4.68,0.41c1.11,1.44,2.12,3.44,2.16,3.53l0.13,0.26
					l-0.81,1.17c0.17,0.28,0.33,0.66,0.12,0.96l-0.82,1c0.05,0.8-0.57,1.54-0.65,1.63l-0.07,0.07l-0.09,0.04
					c-1.39,0.69-1.79,2.04-1.8,2.05l-0.04,0.09c-0.12,0.24-0.34,0.4-0.6,0.46c-0.1,0.02-0.21,0.03-0.33,0.02
					C114.54,99.34,113.7,98.8,113.22,98.46z M117.43,95.93c0.17-0.22,0.42-0.65,0.34-0.92l-0.07-0.25l0.94-1.16
					c-0.03-0.06-0.09-0.15-0.17-0.26l-0.21-0.28l0.87-1.26c-0.31-0.58-1.11-2.04-1.93-3.11l0.39-0.3l-0.4,0.3
					c-0.04-0.05-1.01-1.25-3.5-0.1l-0.06,0.02c-0.04,0.01-3.44,1.16-4.37,5.71c0.62,0.48,2.06,1.7,2.35,2.85
					c0.21,0.21,0.78,0.69,1.37,0.29l0.3-0.21l0.29,0.23c0.62,0.49,1.39,0.91,1.69,0.93c0,0,0.01,0,0.01,0
					C115.42,97.97,115.98,96.69,117.43,95.93z"/>
			</g>
			<g>
				<path class="st2" d="M114.07,89.8c0,0-2.85,0.24-4.58,4.68c0,0,0.91,0.16,2.13,2.49c0,0,1.07,0.63,1.48-0.38
					c0,0,0.46-1.43,0.03-2.51c0,0,1.62,0.8,0.81,3.48c0,0,0.62,0.89,1.19,0.64c0,0,0.26-1.16,1.13-2.13c0,0,1.21-1.44,0.59-2.66
					c0,0,0.99-0.06,0.78-1.29c0,0-0.45-1.51-1.77-2.37C115.85,89.76,114.87,89.57,114.07,89.8z"/>
			</g>
			<g>
				<g>
					<path class="st4" d="M113.03,98.44c0.06-0.01,0.07-0.01,0.11-0.02c0.03-0.01,0.05-0.01,0.08-0.02c0.05-0.01,0.1-0.04,0.15-0.06
						c0.09-0.04,0.18-0.09,0.26-0.16c0.16-0.12,0.29-0.28,0.38-0.44c0.18-0.34,0.21-0.68,0.2-0.99c-0.02-0.31-0.08-0.6-0.16-0.87
						c-0.08-0.28-0.19-0.53-0.3-0.79l-0.01-0.03l0-0.01c-0.07-0.1-0.13-0.26-0.15-0.41c-0.02-0.15,0-0.31,0.06-0.45
						c0.06-0.15,0.16-0.28,0.28-0.4c0.06-0.06,0.13-0.11,0.19-0.17l0.22-0.15l-0.24,0.1c-0.08,0.04-0.15,0.09-0.23,0.13
						c-0.15,0.1-0.29,0.23-0.39,0.39c-0.1,0.16-0.17,0.35-0.19,0.55c-0.01,0.2,0.01,0.39,0.1,0.6l-0.02-0.03
						c0.05,0.26,0.11,0.52,0.14,0.77c0.03,0.26,0.03,0.51,0,0.74c-0.03,0.23-0.11,0.43-0.22,0.56c-0.05,0.06-0.11,0.11-0.18,0.13
						c-0.03,0.02-0.07,0.02-0.1,0.03c-0.02,0-0.03,0.01-0.05,0.01c-0.01,0-0.02,0-0.02,0c0,0-0.02,0,0.01,0L113.03,98.44z"/>
				</g>
				<g>
					<path class="st4" d="M113.43,95.63c0.38,0.02,0.77,0.05,1.15,0.09c0.38,0.04,0.77,0.08,1.14,0.18
						c-0.15-0.13-0.31-0.24-0.48-0.34c-0.17-0.11-0.34-0.21-0.51-0.31c-0.34-0.2-0.68-0.39-1.04-0.57L113.43,95.63z"/>
				</g>
				<g>
					<polygon class="st4" points="118.66,94.61 116.68,92.39 117.83,95.15 					"/>
				</g>
				<g>
					<polygon class="st4" points="119.3,92.81 117.75,91.08 118.43,93.3 					"/>
				</g>
			</g>
		</g>
		<g>
			<path class="st0" d="M107.68,75.5c0,0,3.86,3.13,6.32,8.37c0,0-4.75,0.69-6.26,4.17c0,0-2.16-3.46-4.05-6.26
				c-0.67-0.99-4.14-1.27-6.32-2.09c-2.54-0.96-2.9-6.13,1.38-6.48C99.34,73.16,104.28,73.01,107.68,75.5z"/>
			<path class="st1" d="M107.32,88.3c-0.02-0.03-2.17-3.49-4.04-6.24c-0.31-0.45-1.9-0.82-3.18-1.11c-1-0.23-2.04-0.47-2.91-0.79
				c-1.49-0.56-2.42-2.37-2.16-4.2c0.26-1.86,1.64-3.07,3.67-3.24c0.05,0,5.53-0.36,9.27,2.38l0.02,0.02
				c0.16,0.13,3.97,3.27,6.45,8.55l0.28,0.6l-0.66,0.1c-0.04,0.01-4.5,0.69-5.88,3.87l-0.38,0.86L107.32,88.3z M107.38,75.89
				c-3.46-2.52-8.55-2.19-8.6-2.19c-2.22,0.18-2.68,1.73-2.77,2.39c-0.19,1.36,0.48,2.74,1.53,3.13c0.8,0.3,1.81,0.53,2.78,0.76
				c1.75,0.4,3.26,0.75,3.78,1.52c1.36,2,2.86,4.38,3.6,5.55c1.47-2.33,4.29-3.23,5.57-3.54C110.95,78.9,107.58,76.05,107.38,75.89z
				"/>
		</g>
		<g>
			<path class="st3" d="M97.11,78.68c0,0-1.76-1.85,2.8-3.04c0,0,3.59,0.21,6.07,1.95c0,0,2.73,1.95,4.25,5.37
				c0,0-2.54,1.96-2.6,3.87c0,0-3.49-5.55-3.97-5.84c0,0-2.69-0.99-4.97-1.47C98.69,79.52,97.43,79.35,97.11,78.68z"/>
		</g>
		<g>
			<g>
				<path class="st9" d="M113.89,82.85c0,0-4.46-0.04-6.95,4.13l2.71,5.47c0,0,2.1-4.05,7.23-4.53
					C116.87,87.91,114.84,84.18,113.89,82.85z"/>
				<path class="st4" d="M106.37,86.95l0.14-0.23c2.61-4.37,7.19-4.37,7.38-4.37l0.25,0l0.15,0.2c0.96,1.34,2.93,4.96,3.02,5.11
					l0.36,0.66l-0.75,0.07c-4.79,0.45-6.76,4.11-6.84,4.27l-0.45,0.87L106.37,86.95z M113.64,83.35c-0.91,0.07-4.13,0.52-6.14,3.65
					l2.2,4.44c0.86-1.18,2.87-3.35,6.39-3.93C115.51,86.47,114.35,84.41,113.64,83.35z"/>
			</g>
			<g>
				<path class="st10" d="M107.61,86.97c0,0,3.65-5.34,7.29,0.37c0,0-2.97,0.43-5.08,3.93L107.61,86.97z"/>
			</g>
			<g>
				<g>
					<path class="st4" d="M110.18,87.52c0.25,0.12,0.5,0.18,0.75,0.24c0.25,0.05,0.5,0.08,0.75,0.1c0.25,0.01,0.51,0.01,0.76-0.01
						c0.25-0.03,0.51-0.06,0.77-0.15c-0.25-0.12-0.5-0.18-0.75-0.24c-0.25-0.05-0.5-0.08-0.75-0.09c-0.25-0.01-0.51-0.01-0.76,0.01
						C110.69,87.39,110.44,87.43,110.18,87.52z"/>
				</g>
				<g>
					<path class="st4" d="M112.53,86.13c-0.21,0.17-0.38,0.37-0.53,0.58c-0.15,0.21-0.29,0.42-0.41,0.64
						c-0.12,0.22-0.23,0.45-0.31,0.69c-0.09,0.24-0.16,0.49-0.19,0.76c0.21-0.17,0.38-0.37,0.53-0.58c0.15-0.21,0.29-0.42,0.41-0.64
						c0.12-0.22,0.23-0.45,0.31-0.69C112.43,86.65,112.5,86.4,112.53,86.13z"/>
				</g>
			</g>
			<g>
				<g>
					<path class="st4" d="M109.25,85.73c0.25,0.12,0.5,0.18,0.75,0.24c0.25,0.05,0.5,0.08,0.75,0.1c0.25,0.01,0.51,0.01,0.76-0.01
						c0.25-0.03,0.51-0.06,0.77-0.15c-0.25-0.12-0.5-0.18-0.75-0.24c-0.25-0.05-0.5-0.08-0.75-0.09c-0.25-0.01-0.51-0.01-0.76,0.01
						C109.76,85.61,109.51,85.64,109.25,85.73z"/>
				</g>
				<g>
					<path class="st4" d="M111.6,84.34c-0.21,0.17-0.38,0.37-0.53,0.58c-0.15,0.21-0.29,0.42-0.41,0.64
						c-0.12,0.22-0.23,0.45-0.31,0.69c-0.09,0.24-0.16,0.49-0.19,0.76c0.21-0.17,0.38-0.37,0.53-0.58c0.15-0.21,0.29-0.42,0.41-0.64
						c0.12-0.22,0.22-0.45,0.31-0.69C111.5,84.86,111.57,84.62,111.6,84.34z"/>
				</g>
			</g>
		</g>
	</g>
	<g>
		<g>
			<g>
				<path class="st4" d="M78.9,71.22l0.45-0.14c5.91,13.51,25.62,14.26,25.62,14.26l0.17,0.29l-0.23,4.25l-0.23,0.16
					C81.2,88.93,76.6,75.15,76.6,75.15l0.07-0.58L78.9,71.22z"/>
			</g>
			<g>
				<path class="st8" d="M76.2,74.41l-0.09,0.77l0.03,0.09c0.05,0.15,1.24,3.6,5.37,7.23c3.79,3.32,10.88,7.41,23.16,7.99l0.18,0.01
					l0.55-0.39l0.25-4.59l-0.36-0.63l-0.28-0.01c-0.05,0-4.94-0.21-10.48-2.05c-5.07-1.68-11.73-5.12-14.72-11.93l-0.17-0.39
					l-1.05,0.33L76.2,74.41z M77.09,75.1l0.05-0.38l1.99-2.98c2.56,5.41,7.76,9.53,15.09,11.96c4.93,1.63,9.26,2,10.43,2.07
					l-0.21,3.81c-11.82-0.62-18.64-4.54-22.28-7.73C78.57,78.69,77.29,75.63,77.09,75.1z"/>
			</g>
		</g>
		<g>
			<g>
				<path class="st5" d="M97,84.92c0,0-1.4,2.63-6.29,1.7c0,0-9.19-2.89-13.48-11.82l1.75-2.89C78.97,71.9,82.33,81.37,97,84.92z"/>
			</g>
		</g>
		<g>
			<g>
				<g>
					<g>
						<path class="st13" d="M102.42,86.92c0.29,0.15,0.39,0.5,0.22,0.77c-0.17,0.27-0.54,0.37-0.83,0.22
							c-0.29-0.15-0.39-0.5-0.22-0.77C101.76,86.87,102.13,86.77,102.42,86.92z"/>
					</g>
					<g>
						<path class="st4" d="M101.28,86.98c-0.13,0.21-0.16,0.45-0.1,0.68c0.07,0.23,0.23,0.43,0.45,0.55
							c0.14,0.07,0.29,0.11,0.44,0.11c0.35,0.01,0.69-0.16,0.88-0.46c0.13-0.21,0.16-0.46,0.09-0.69c-0.07-0.23-0.23-0.42-0.45-0.54
							C102.14,86.39,101.54,86.54,101.28,86.98L101.28,86.98z M101.91,87.31c0.05-0.08,0.14-0.12,0.23-0.12
							c0.04,0,0.07,0.01,0.11,0.03c0.05,0.03,0.09,0.07,0.11,0.13c0.02,0.06,0.01,0.13-0.03,0.18c-0.07,0.11-0.22,0.16-0.34,0.09
							c-0.05-0.03-0.09-0.08-0.11-0.13C101.86,87.43,101.87,87.37,101.91,87.31z"/>
					</g>
				</g>
				<g>
					<g>
						<path class="st14" d="M102.27,86.92c0.22,0.09,0.31,0.36,0.19,0.61c-0.12,0.25-0.4,0.37-0.62,0.28
							c-0.22-0.09-0.31-0.36-0.19-0.61C101.77,86.96,102.05,86.83,102.27,86.92z"/>
					</g>
				</g>
				<g>
					<g>
						<path class="st15" d="M102.08,86.97c0.15,0.06,0.21,0.25,0.12,0.44c-0.08,0.19-0.28,0.3-0.43,0.24
							c-0.15-0.06-0.21-0.25-0.12-0.44C101.73,87.02,101.92,86.92,102.08,86.97z"/>
					</g>
				</g>
			</g>
			<g>
				<g>
					<g>
						<path class="st13" d="M99.2,86.5c0.29,0.15,0.39,0.5,0.22,0.77c-0.17,0.27-0.54,0.37-0.83,0.22c-0.29-0.15-0.39-0.5-0.22-0.77
							C98.54,86.44,98.91,86.35,99.2,86.5z"/>
					</g>
					<g>
						<path class="st4" d="M98.06,86.55c-0.13,0.21-0.16,0.45-0.1,0.68c0.07,0.23,0.23,0.43,0.45,0.55
							c0.14,0.07,0.29,0.11,0.44,0.12c0.35,0.01,0.69-0.16,0.88-0.46c0.13-0.21,0.16-0.46,0.09-0.69c-0.07-0.23-0.23-0.42-0.45-0.54
							C98.92,85.96,98.32,86.12,98.06,86.55L98.06,86.55z M98.69,86.89c0.05-0.08,0.14-0.12,0.23-0.12c0.04,0,0.07,0.01,0.11,0.03
							c0.05,0.03,0.09,0.07,0.11,0.13c0.02,0.06,0.01,0.13-0.03,0.18c-0.07,0.11-0.22,0.16-0.34,0.09
							c-0.05-0.03-0.09-0.08-0.11-0.13C98.65,87,98.66,86.94,98.69,86.89z"/>
					</g>
				</g>
				<g>
					<g>
						<path class="st14" d="M99.05,86.5c0.23,0.09,0.31,0.36,0.19,0.61c-0.12,0.25-0.4,0.37-0.62,0.28
							c-0.23-0.09-0.31-0.36-0.19-0.61C98.55,86.54,98.83,86.41,99.05,86.5z"/>
					</g>
				</g>
				<g>
					<g>
						<path class="st15" d="M98.86,86.55c0.15,0.06,0.21,0.25,0.13,0.44c-0.08,0.19-0.28,0.3-0.43,0.24
							c-0.15-0.06-0.21-0.25-0.13-0.44C98.51,86.6,98.71,86.49,98.86,86.55z"/>
					</g>
				</g>
			</g>
			<g>
				<g>
					<g>
						<path class="st13" d="M85.93,81.32c0.39,0.2,0.52,0.67,0.3,1.03c-0.22,0.37-0.72,0.5-1.11,0.29c-0.39-0.2-0.52-0.67-0.3-1.03
							C85.05,81.24,85.55,81.11,85.93,81.32z"/>
					</g>
					<g>
						<path class="st4" d="M84.51,81.44c-0.16,0.26-0.2,0.56-0.11,0.84c0.08,0.28,0.28,0.51,0.55,0.65
							c0.17,0.09,0.35,0.13,0.54,0.14c0.42,0.01,0.84-0.19,1.07-0.56c0.16-0.26,0.2-0.56,0.11-0.84c-0.08-0.28-0.28-0.51-0.55-0.65
							C85.55,80.73,84.83,80.92,84.51,81.44z M85.14,81.78c0.09-0.15,0.25-0.23,0.42-0.22c0.07,0,0.14,0.02,0.2,0.05
							c0.1,0.05,0.17,0.14,0.2,0.24c0.03,0.11,0.02,0.23-0.05,0.33c-0.13,0.21-0.4,0.28-0.62,0.17c-0.1-0.05-0.17-0.14-0.2-0.24
							C85.06,82,85.08,81.88,85.14,81.78z"/>
					</g>
				</g>
			</g>
			<g>
				<g>
					<g>
						<path class="st13" d="M82.54,78.99c0.29,0.15,0.39,0.5,0.22,0.77c-0.17,0.27-0.54,0.37-0.83,0.22
							c-0.29-0.15-0.39-0.5-0.22-0.77C81.88,78.94,82.25,78.84,82.54,78.99z"/>
					</g>
					<g>
						<path class="st4" d="M81.4,79.04c-0.13,0.21-0.16,0.46-0.09,0.69c0.07,0.23,0.23,0.42,0.45,0.54
							c0.14,0.07,0.29,0.11,0.44,0.12c0.35,0.01,0.69-0.16,0.88-0.46c0.13-0.21,0.16-0.46,0.09-0.69c-0.07-0.23-0.23-0.42-0.45-0.54
							C82.26,78.45,81.66,78.61,81.4,79.04L81.4,79.04z M82.03,79.38c0.05-0.08,0.14-0.12,0.23-0.12c0.04,0,0.07,0.01,0.11,0.03
							c0.05,0.03,0.09,0.07,0.11,0.13c0.02,0.06,0.01,0.13-0.03,0.18c-0.07,0.11-0.22,0.15-0.33,0.09
							c-0.05-0.03-0.09-0.07-0.11-0.13C81.99,79.5,81.99,79.43,82.03,79.38z"/>
					</g>
				</g>
			</g>
			<g>
				<g>
					<g>
						<path class="st13" d="M80.36,76.34c0.29,0.15,0.39,0.5,0.22,0.77c-0.17,0.27-0.54,0.37-0.83,0.22
							c-0.29-0.15-0.39-0.5-0.22-0.77C79.7,76.28,80.07,76.18,80.36,76.34z"/>
					</g>
					<g>
						<path class="st4" d="M79.22,76.39c-0.13,0.21-0.16,0.46-0.09,0.69c0.07,0.23,0.23,0.42,0.45,0.54
							c0.14,0.07,0.29,0.11,0.44,0.12c0.35,0.01,0.69-0.16,0.88-0.46c0.13-0.21,0.16-0.45,0.1-0.68c-0.07-0.23-0.23-0.43-0.45-0.55
							C80.08,75.8,79.48,75.95,79.22,76.39L79.22,76.39z M79.85,76.72c0.05-0.08,0.14-0.12,0.23-0.12c0.04,0,0.07,0.01,0.11,0.03
							c0.05,0.03,0.09,0.08,0.11,0.13c0.02,0.06,0.01,0.12-0.03,0.18c-0.07,0.11-0.22,0.15-0.33,0.09
							c-0.05-0.03-0.09-0.07-0.11-0.13C79.81,76.84,79.81,76.78,79.85,76.72z"/>
					</g>
				</g>
			</g>
		</g>
	</g>
	<g>
		<g>
			<g>
				<path class="st14" d="M77.85,70.64c0,0,3.88,1,5.08-1.31c0,0,1.53-3.1,3.86-10.48c0,0,0.1-0.99,1.13-0.86c0,0,0.81,0,0.21,1.5
					c0,0-1.84,9.88-5.64,12.22c0,0-2.75,1.7-5.98-0.95C76.51,70.75,75.51,69.54,77.85,70.64z"/>
			</g>
		</g>
		<g>
			<g>
				<path class="st15" d="M82.53,71.43c0,0,3.36-1.39,4.45-11.53c0,0-0.02-1.64,0.95-1.92c0,0,0.81-0.04,0.09,2.3
					c0,0-1.95,12.21-6.68,12.19C81.33,72.46,80.21,72.29,82.53,71.43z"/>
			</g>
		</g>
		<g>
			<g>
				<path class="st12" d="M76.24,52.81c0,0,0.8-1.84,0.05-3.68l-0.18-2c0,0,1.29-4.51,4.52-6.26c0,0,3.03-2.22,10.62-2.01
					c5.64,0.16,13.1,3.03,13.39,12.87c0,0,0.3,5.11-1.04,5.06c0,0,0.92,1.61-0.35,5.74c0,0,1.08,7.02-5.21,10.28
					c0,0-8.74,5-17.7,2.44l-1.76-0.84c0,0-4.82-6.11-2.38-14.99C76.21,59.42,73.25,55.73,76.24,52.81z"/>
			</g>
			<g>
				<path class="st4" d="M75.67,59.53C73.34,68.42,78,74.47,78.2,74.72l0.07,0.09l1.94,0.92c1.89,0.54,3.77,0.75,5.55,0.75
					c6.76,0,12.24-3.08,12.53-3.24c6.05-3.13,5.57-9.7,5.46-10.66c0.9-2.99,0.7-4.71,0.48-5.5c0.04-0.03,0.08-0.07,0.12-0.11
					c0.97-0.99,0.82-4.53,0.77-5.26c-0.28-9.56-7.35-13.16-13.87-13.34c-7.36-0.2-10.54,1.83-10.9,2.08
					c-3.36,1.83-4.68,6.35-4.73,6.54l-0.03,0.09l0.2,2.16l0.03,0.07c0.58,1.42,0.12,2.87-0.01,3.22
					C73.42,54.96,74.59,58.05,75.67,59.53z M76.75,59.31l-0.16-0.2c-0.11-0.14-2.64-3.38-0.01-5.95l0.07-0.07l0.04-0.09
					c0.04-0.08,0.86-2.01,0.08-4l-0.17-1.83c0.19-0.61,1.48-4.37,4.25-5.87l0.06-0.04c0.03-0.02,3.03-2.12,10.31-1.91
					c2.95,0.08,12.58,1.21,12.91,12.39l0,0.02c0.14,2.37-0.17,4.39-0.53,4.54l-0.89-0.03l0.45,0.77c0,0.01,0.78,1.54-0.39,5.35
					l-0.03,0.11l0.02,0.11c0.04,0.27,0.94,6.72-4.94,9.76c-0.1,0.06-8.66,4.86-17.29,2.42l-1.61-0.77
					c-0.55-0.77-4.41-6.51-2.23-14.47L76.75,59.31z"/>
			</g>
		</g>
		<g>
			<g>
				<path class="st2" d="M77.21,48.66c0.56-1.92,0.38-6.24,3.8-5.6c4.31,0.8,4.17,1.34,11.78-0.21c4.5-0.92,4.08,6.71,4.08,6.71
					c-1.37,2.69-0.41,5.13-0.41,5.13c2.26,3.93,0.38,4.53,0.38,4.53c-0.92,0.77-2.25,0.6-2.25,0.6l-1.08-0.36
					c-6.47-2.76-13.95-2.04-13.95-2.04c-0.69,0.11-2.8,1.07-2.8,1.07C76.26,57.54,76.23,57,76.23,57c0.33-1.6,1.57-3.21,1.57-3.21
					C79.22,52.12,77.21,48.66,77.21,48.66z"/>
			</g>
		</g>
		<g>
			<g>
				<path class="st15" d="M76.3,53.69c1.83-2.74,0.22-5.04,0.22-5.04l0.69-0.04c1.95,2.03,0.65,4.49,0.65,4.49
					c-1.48,2.15-0.39,5.22-0.39,5.22l-1.11,0.08C74.68,54.84,76.3,53.69,76.3,53.69z"/>
			</g>
		</g>
		<g>
			<g>
				<path class="st2" d="M82.85,50.54c1.44,2.23,2.41,5.61,2.41,5.61l1.2,0.56c1.6,0.1,2.05,1.75,2.05,1.75
					c-0.1,1.22-1.21,0.38-1.21,0.38c-1.95-0.58-3.19-0.08-3.19-0.08c-1.67,0.44-2.2,0.94-2.2,0.94c-1.47-2.03-0.04-4.71-0.04-4.71
					C83.48,52.09,82.85,50.54,82.85,50.54z"/>
			</g>
		</g>
		<g>
			<g>
				<path class="st2" d="M79.68,63.27c6.68-1.88,11.85,0.7,11.85,0.7c2.72,0.42,2.23,1.78,2.23,1.78c-0.27,3.49-2.68,6.64-2.68,6.64
					c-1.97,1.65-4.39,1.02-4.39,1.02c-4.17-3.31-6.61-0.01-6.61-0.01c-3.22-3.31-3.21-6-3.21-6C76.13,63.37,79.68,63.27,79.68,63.27
					z"/>
			</g>
		</g>
		<g>
			<g>
				<path class="st15" d="M77.9,59.08c0.01-0.04,0.01-0.07,0.02-0.11C77.92,58.97,77.99,59.02,77.9,59.08z"/>
			</g>
			<g>
				<path class="st15" d="M77.9,59.08c-1.44,9.18,1.32,12.92,1.32,12.92c2.06,1.41,3.53,2.13,3.53,2.13c2.91,0.48,2.03,1.2,2.03,1.2
					C81,75.5,79.08,73.7,79.08,73.7c-4.97-8.13-2.2-14.42-2.2-14.42C77.55,59.22,77.81,59.14,77.9,59.08z"/>
			</g>
		</g>
		<g>
			<g>
				<g>
					<path class="st12" d="M106.11,52.79c0,0,2.7,2.86,0.6,6.34c0,0-1.04,1.51-2.85,2.33c0,0-1.5,0.8-2.98,0.65l-1.16-4.49
						c0.5-2.43,1.22-3.4,1.22-3.4S102.68,51.44,106.11,52.79z"/>
				</g>
				<g>
					<path class="st4" d="M106.3,52.33l0.1,0.04l0.08,0.08c0.03,0.03,2.93,3.18,0.66,6.94l-0.02,0.02c-0.05,0.07-1.13,1.63-3.04,2.5
						c-0.16,0.09-1.42,0.72-2.8,0.72c-0.15,0-0.29-0.01-0.44-0.02l0.1-0.99c1.3,0.14,2.68-0.58,2.69-0.59l0.03-0.01
						c1.59-0.72,2.55-2.03,2.64-2.15c1.7-2.83-0.08-5.19-0.47-5.65c-2.92-1.08-4.39,1.18-4.45,1.28l-0.02,0.03
						c-0.01,0.01-0.67,0.94-1.13,3.2l-0.97-0.2c0.49-2.39,1.2-3.45,1.3-3.58C100.73,53.67,102.69,50.92,106.3,52.33z"/>
				</g>
			</g>
			<g>
				<g>
					<path class="st2" d="M105.04,54.16c0,0,2.47,2.94-1.74,6.06c0,0-3.57,1.5-1.19-4.49C102.11,55.72,103.13,53.56,105.04,54.16z"
						/>
				</g>
			</g>
			<g>
				<g>
					<g>
						<path class="st4" d="M101.91,55.79c0.13-0.18,0.28-0.34,0.47-0.46c0.2-0.12,0.39-0.23,0.6-0.31l0.15-0.07
							c0.05-0.02,0.11-0.03,0.16-0.05c0.11-0.03,0.21-0.07,0.33-0.08c0.23-0.03,0.46-0.04,0.68,0c0.44,0.08,0.84,0.27,1.12,0.58
							l-0.06,0.08c-0.35-0.15-0.73-0.22-1.08-0.16c-0.34,0.05-0.65,0.2-0.92,0.4c-0.28,0.2-0.43,0.54-0.72,0.74
							c-0.13,0.12-0.28,0.23-0.45,0.34c-0.16,0.12-0.33,0.23-0.56,0.32l-0.09-0.05c-0.02-0.24,0.02-0.46,0.08-0.67
							C101.7,56.17,101.8,55.98,101.91,55.79z"/>
					</g>
				</g>
				<g>
					<g>
						<path class="st4" d="M103.69,55.54c0.18,0.19,0.35,0.4,0.47,0.63c0.12,0.24,0.19,0.5,0.2,0.75c0.01,0.26-0.09,0.49-0.19,0.7
							c0.03-0.23,0.03-0.46-0.05-0.66c-0.08-0.2-0.2-0.36-0.35-0.5c-0.15-0.14-0.33-0.24-0.51-0.33c-0.18-0.09-0.4-0.16-0.56-0.19
							l0.39-0.91C103.32,55.19,103.5,55.35,103.69,55.54z"/>
					</g>
				</g>
			</g>
		</g>
		<g>
			<g>
				<path class="st5" d="M82.88,36.2c3.36-1.72,8.6-1.74,8.6-1.74c8.1,0.49,9.64,5,9.64,5c2.97-3.67,4.46-0.28,4.46-0.28
					c3.47-0.24,4.24,2.92,4.24,2.92c1.27,2.69-0.92,3.75-0.92,3.75c-0.15,3.47-4.55,3.47-4.55,3.47c-1.83-6.67-5.22-7.68-5.22-7.68
					c-5.21-3.22-11.86,0.22-11.86,0.22c-4.44,1.7-5.64-1.41-5.64-1.41C80.71,38.02,82.88,36.2,82.88,36.2z"/>
			</g>
			<g>
				<path class="st4" d="M81.17,40.63c0.02,0.04,1.44,3.55,6.28,1.7l0.05-0.02c0.06-0.03,6.46-3.27,11.37-0.23l0.06,0.03L99,42.12
					c0.03,0.01,3.17,1.07,4.89,7.34l0.1,0.36h0.38c1.63,0,4.71-0.77,5.02-3.66c0.88-0.57,1.95-1.99,0.92-4.22
					c-0.31-1.19-1.59-3.27-4.35-3.27c-0.02,0-0.05,0-0.07,0c-0.27-0.46-0.9-1.27-1.9-1.4c-0.88-0.12-1.8,0.32-2.74,1.3
					c-0.82-1.37-3.28-4.23-9.73-4.61l-0.02,0l-0.02,0c-0.22,0-5.4,0.04-8.82,1.8l-0.05,0.03l-0.04,0.04
					C82.47,35.91,80.14,37.9,81.17,40.63z M83.16,36.62c3.13-1.58,8-1.66,8.31-1.66c7.67,0.47,9.17,4.62,9.19,4.67l0.29,0.85
					l0.56-0.7c0.87-1.08,1.68-1.6,2.34-1.52c0.82,0.11,1.28,1.12,1.29,1.13l0.14,0.31l0.34-0.02c0.11-0.01,0.22-0.01,0.33-0.01
					c2.72,0,3.37,2.45,3.4,2.56l0.03,0.09c1.05,2.22-0.62,3.06-0.69,3.1l-0.27,0.13l-0.01,0.29c-0.11,2.44-2.7,2.89-3.68,2.97
					c-1.78-6.08-4.86-7.43-5.38-7.62c-5.27-3.21-11.74-0.06-12.27,0.21c-3.88,1.47-4.94-1.03-4.98-1.14
					C81.37,38.35,82.89,36.86,83.16,36.62z"/>
			</g>
		</g>
		<g>
			<g>
				<path class="st16" d="M83.38,36.7c7.51-2.97,13.41-0.26,13.41-0.26c-1.82-0.08-2.85,0.76-2.85,0.76
					c-1.99,1.76-4.93,1.24-4.93,1.24c1.09,1.88-1.2,1.2-1.2,1.2c0.55,1.7-1.46,1.79-1.46,1.79c-1.22,1.79-4.21-1.01-4.21-1.01
					C81,38.77,83.38,36.7,83.38,36.7z"/>
			</g>
		</g>
		<g>
			<g>
				<path class="st16" d="M102.78,38.57c1.66-1.02,2.36,1.21,2.36,1.21c2.03-0.14,3.02,0.91,3.02,0.91
					c2.33,1.75,0.46,3.11,0.46,3.11c-1.1,2.04-2.63-0.25-2.63-0.25c-0.08,1.82-2.15-0.09-2.15-0.09c-0.09-1.65-2.73-3.13-2.73-3.13
					C101.77,38.69,102.78,38.57,102.78,38.57z"/>
			</g>
		</g>
		<g>
			<g>
				<path class="st17" d="M83.38,36.7c8.09-2.89,12.51-0.59,12.51-0.59c-5.49-1-8.83,0.8-8.83,0.8c4,1.03,2.25,1.99,2.25,1.99
					c-1.51-2.05-4.81-1.1-4.81-1.1c-2.85,0.85-1.62,3.36-1.62,3.36C80.47,38.26,83.38,36.7,83.38,36.7z"/>
			</g>
		</g>
		<g>
			<g>
				<path class="st17" d="M104.93,39.5c3.06,0.04,3.48,1.44,3.48,1.44c-1.67-1.42-3.97-0.29-3.97-0.29
					c-1.33-2.59-2.68,0.83-2.68,0.83c-0.1-0.54-0.64-1.14-0.64-1.14C103.47,36.29,104.93,39.5,104.93,39.5z"/>
			</g>
		</g>
		<g>
			<g>
				<path class="st4" d="M89.94,66.93c-0.44-0.27-0.9-0.48-1.37-0.68c-0.47-0.19-0.95-0.36-1.44-0.49
					c-0.49-0.14-0.99-0.25-1.51-0.32c-0.52-0.07-1.04-0.11-1.61-0.06l-0.04,0l-0.04,0.01c-0.18,0.04-0.42,0.08-0.63,0.1
					c-0.22,0.03-0.44,0.04-0.65,0.05c-0.44,0.01-0.87-0.02-1.28-0.11l-0.11-0.03l-0.01,0c-0.28,0.01-0.49,0.04-0.72,0.1
					c-0.23,0.05-0.45,0.13-0.66,0.22c-0.42,0.18-0.8,0.45-1.09,0.78c0.22-0.06,0.42-0.12,0.63-0.15c0.21-0.04,0.41-0.07,0.61-0.08
					c0.2-0.02,0.4-0.02,0.6-0.01c0.19,0.01,0.4,0.02,0.55,0.06l-0.11-0.02c0.25,0.1,0.51,0.2,0.77,0.26
					c0.26,0.06,0.53,0.1,0.79,0.12c0.26,0.02,0.53,0.02,0.79,0c0.27-0.02,0.51-0.05,0.8-0.11l-0.08,0.01
					c0.43-0.04,0.9-0.02,1.37,0.01c0.48,0.02,0.96,0.07,1.44,0.12l1.48,0.14C88.92,66.87,89.42,66.92,89.94,66.93z"/>
			</g>
			<g>
				<path class="st4" d="M86,68.58c-0.33-0.24-0.7-0.39-1.07-0.49c-0.38-0.1-0.76-0.15-1.15-0.16c-0.39,0-0.78,0.04-1.16,0.13
					c-0.38,0.09-0.75,0.24-1.08,0.47c0.4,0.07,0.77,0.07,1.14,0.1c0.37,0.01,0.73,0.02,1.09,0.03c0.36,0,0.72,0,1.09-0.01
					C85.23,68.64,85.6,68.62,86,68.58z"/>
			</g>
		</g>
		<g>
			<g>
				<path class="st15" d="M81.09,53.13c0.01-1.1-2.08-3.23-4.11-1.05c0,0-1.45,1.74,0.31,2.92c0,0,1.53,0.21,2.35,0.07
					C79.63,55.06,81.07,55.03,81.09,53.13z"/>
			</g>
			<g>
				<path class="st4" d="M81.91,54.48c0.08-0.43,0.07-0.88,0.02-1.32c-0.06-0.44-0.17-0.89-0.41-1.32c-0.12-0.21-0.26-0.42-0.45-0.6
					c-0.2-0.2-0.39-0.32-0.6-0.44c-0.42-0.23-0.89-0.41-1.4-0.44c-0.51-0.04-1.05,0.08-1.49,0.33c-0.11,0.07-0.22,0.13-0.32,0.2
					c-0.1,0.08-0.19,0.16-0.28,0.24c-0.23,0.21-0.34,0.42-0.45,0.64c-0.41,0.89-0.38,1.84-0.13,2.67c0.17-0.86,0.39-1.67,0.83-2.27
					c0.05-0.07,0.11-0.15,0.17-0.21c0.06-0.06,0.11-0.12,0.17-0.15c0.08-0.05,0.15-0.1,0.23-0.15c0.08-0.05,0.16-0.08,0.23-0.12
					c0.31-0.14,0.64-0.2,0.98-0.18c0.34,0.02,0.69,0.13,1.03,0.28c0.16,0.08,0.34,0.18,0.46,0.26c0.07,0.05,0.13,0.1,0.19,0.17
					c0.07,0.06,0.12,0.13,0.18,0.2c0.24,0.29,0.42,0.65,0.6,1.02C81.63,53.66,81.77,54.06,81.91,54.48z"/>
			</g>
			<g>
				<g>
					<path class="st15" d="M92.36,55.38c0,0,0.9-0.09,1.17-0.12c0.33-0.04,0.77-0.21,0.89-0.69c0,0-0.43-3.07-2.44-3.55
						c-1.14-0.27-3.21-0.24-3.47,2.79l0,0.19C88.5,54.02,88.37,55.73,92.36,55.38z"/>
				</g>
				<g>
					<path class="st4" d="M94.41,54.58c0.07-0.45,0.05-0.91-0.02-1.36c-0.07-0.46-0.22-0.92-0.48-1.34c-0.13-0.22-0.3-0.42-0.5-0.59
						c-0.22-0.18-0.41-0.29-0.63-0.42c-0.44-0.22-0.92-0.38-1.44-0.42c-0.51-0.03-1.05,0.06-1.52,0.29l-0.33,0.19
						c-0.11,0.07-0.2,0.15-0.3,0.23c-0.05,0.04-0.09,0.07-0.16,0.14c-0.05,0.05-0.1,0.11-0.14,0.16c-0.08,0.11-0.15,0.21-0.21,0.33
						c-0.48,0.89-0.48,1.89-0.22,2.75c0.09-0.44,0.17-0.87,0.32-1.26c0.14-0.39,0.33-0.76,0.57-1.05c0.06-0.07,0.12-0.14,0.18-0.2
						c0.03-0.03,0.06-0.06,0.09-0.08c0.01-0.01,0.06-0.04,0.1-0.06c0.08-0.05,0.16-0.1,0.24-0.15l0.25-0.11
						c0.34-0.13,0.69-0.18,1.05-0.16c0.36,0.02,0.73,0.13,1.09,0.27c0.17,0.07,0.37,0.17,0.5,0.25c0.14,0.1,0.28,0.21,0.4,0.36
						c0.25,0.28,0.47,0.64,0.65,1.02C94.11,53.74,94.26,54.15,94.41,54.58z"/>
				</g>
				<g>
					<g>
						<path class="st4" d="M89.24,53.26c-0.21,0.83,0.25,1.68,1.03,1.88c0.78,0.21,1.59-0.3,1.81-1.13
							c0.21-0.83-0.25-1.68-1.03-1.88C90.27,51.92,89.46,52.43,89.24,53.26z"/>
					</g>
					<g>
						<path class="st15" d="M92.14,54.23c0.08-0.31-0.09-0.63-0.37-0.7c-0.29-0.08-0.58,0.11-0.67,0.43
							c-0.08,0.31,0.09,0.63,0.37,0.7C91.76,54.73,92.05,54.54,92.14,54.23z"/>
					</g>
				</g>
			</g>
			<g>
				<g>
					<path class="st4" d="M76.88,53.04c-0.2,0.76,0.22,1.52,0.93,1.71c0.71,0.19,1.45-0.27,1.64-1.03c0.19-0.76-0.22-1.52-0.93-1.71
						C77.8,51.82,77.07,52.28,76.88,53.04z"/>
				</g>
				<g>
					<path class="st15" d="M79.5,53.91c0.07-0.28-0.08-0.57-0.34-0.64c-0.26-0.07-0.53,0.1-0.6,0.39c-0.07,0.28,0.08,0.57,0.34,0.64
						C79.15,54.37,79.42,54.2,79.5,53.91z"/>
				</g>
			</g>
			<g>
				<g>
					<g>
						<path class="st5" d="M96.96,50.12c0,0-1.7-2.93-4.71-3.9c-1.53-0.5-2.15-0.24-5.27,2.73c-0.29,0.28-0.78,0.41-1.8,0.06
							c-0.44-0.15-1.44,0.43,0.49,1.83c0,0,2,0.82,2.8-0.2c0,0,3.26-2.74,5.68-0.32C94.16,50.31,96.73,52.4,96.96,50.12z"/>
						<path class="st4" d="M93.85,50.7l-0.04-0.03c-1.97-1.98-4.63,0.04-4.97,0.32c-1.03,1.23-3.25,0.34-3.34,0.3l-0.06-0.02
							l-0.05-0.04c-1.44-1.05-1.47-1.79-1.24-2.23c0.24-0.46,0.81-0.6,1.21-0.47c0.66,0.23,1.09,0.24,1.29,0.05
							c2.99-2.85,3.88-3.45,5.76-2.84c3.15,1.02,4.91,4,4.98,4.13l0.08,0.14l-0.02,0.16c-0.09,0.91-0.52,1.27-0.86,1.41
							c-0.17,0.07-0.35,0.1-0.53,0.1C95.11,51.68,94.08,50.88,93.85,50.7z M92.1,46.68c-1.22-0.4-1.63-0.38-4.77,2.61
							c-0.66,0.63-1.63,0.4-2.29,0.17l0,0c0.04,0.11,0.19,0.41,0.88,0.92c0.48,0.18,1.73,0.5,2.17-0.06l0.07-0.07
							c1.24-1.05,4.16-2.45,6.33-0.31c0.5,0.4,1.37,0.87,1.72,0.72c0.13-0.06,0.2-0.26,0.23-0.44
							C96.08,49.65,94.53,47.47,92.1,46.68z"/>
					</g>
					<g>
						<path class="st16" d="M94.46,48.9c0,0-1.3-1.91-3.39-2.42c-1.07-0.26-1.64,0.36-3.61,2.53c-0.18,0.2-1.34,0.52-2.05,0.33
							c-0.31-0.08-0.11,0.92,1.46,1.15c0,0,1.06,0.49,1.86-0.81c0,0,2.33-1.8,4.61-0.55C93.35,49.12,95,50.46,94.46,48.9z"/>
					</g>
					<g>
						<path class="st17" d="M86.63,49.41c0,0-1.18-0.53-1.45,0.21c0,0,0.42,1.29,2.42,1.03c0,0,1.17-0.44,0.48-0.75
							c0,0-0.58,0.17-1.34,0.04C86.74,49.94,86.15,49.84,86.63,49.41z"/>
					</g>
				</g>
				<g>
					<g>
						<path class="st5" d="M79.38,48.44c0,0,0.59,0.57,1.22,0.53c0.27-0.02,0.53-0.5,1.08-0.21c0,0,0.77,1.83-1.52,1.96
							c0,0-1.22-0.08-1.65-0.6c0,0-0.71-0.88-2.29-0.68c0,0-2.16,0.71-1.72-0.96c0,0,0.61-3.01,3.24-1.5
							C77.74,46.97,78.67,47.85,79.38,48.44z"/>
						<path class="st4" d="M80.12,51.2c-0.24-0.02-1.46-0.13-2-0.78c-0.01-0.01-0.56-0.64-1.8-0.5c-0.32,0.1-1.43,0.39-2.04-0.18
							c-0.23-0.22-0.46-0.63-0.27-1.38c0.04-0.18,0.39-1.61,1.52-2.13c0.71-0.32,1.53-0.22,2.45,0.31l0.05,0.03l0.04,0.04
							c0.01,0.01,0.92,0.88,1.61,1.45l0.03,0.03c0.11,0.1,0.49,0.4,0.8,0.39c0.03-0.01,0.05-0.03,0.08-0.05
							c0.22-0.14,0.68-0.44,1.3-0.11l0.16,0.08l0.07,0.16c0.04,0.1,0.4,0.99-0.08,1.76c-0.33,0.54-0.97,0.84-1.87,0.89l-0.03,0
							L80.12,51.2z M81.14,49.25c-0.13,0.08-0.29,0.19-0.51,0.2c-0.79,0.06-1.45-0.53-1.58-0.65c-0.63-0.53-1.41-1.26-1.61-1.44
							c-0.6-0.33-1.1-0.41-1.5-0.24c-0.6,0.27-0.9,1.13-0.97,1.44l-0.01,0.03c-0.07,0.27-0.04,0.39-0.01,0.42
							c0.12,0.12,0.65,0.09,1.09-0.05l0.09-0.02c1.84-0.24,2.71,0.81,2.74,0.85c0.19,0.23,0.86,0.38,1.27,0.42
							c0.38-0.02,0.86-0.12,1.05-0.42c0.12-0.19,0.11-0.44,0.07-0.62C81.25,49.19,81.2,49.21,81.14,49.25z M80.5,48.48L80.5,48.48
							L80.5,48.48z"/>
					</g>
					<g>
						<path class="st16" d="M78.07,47.89c0,0,0.72,0.66,1.44,1.36c0,0,0.73,0.36-0.59,0.56c0,0-1.28-0.3-1.56-0.66
							c0,0-0.4-0.3-1.3-0.08c0,0-1,0.32-0.84-0.93c0,0,0.61-1.54,1.81-0.97C77.04,47.18,77.47,47.19,78.07,47.89z"/>
					</g>
					<g>
						<path class="st17" d="M75.91,47.07c0,0-1.01-0.03-1,1.81c0,0,0.51,0.7,1.11,0.04c0,0-0.62-1.88,1.42-1.56
							C77.44,47.36,76.11,46.72,75.91,47.07z"/>
					</g>
				</g>
			</g>
		</g>
		<g>
			<g>
				<g>
					<path class="st17" d="M82.77,50.92c1.31,1.86,0.06,4.31,0.06,4.31c-2.04,3.58-0.2,4.29-0.2,4.29c-1.14,0.7-2.17,0.88-2.17,0.88
						c-0.98-3.39,1.41-5.85,1.41-5.85C83.47,51.89,82.77,50.92,82.77,50.92z"/>
				</g>
			</g>
			<g>
				<g>
					<path class="st4" d="M87.57,60.84c0.03,0,0.07,0,0.11,0c0.03,0.01,0.06,0.03,0.1,0.04L87.57,60.84z"/>
				</g>
				<g>
					<path class="st4" d="M79.43,57.06l-0.01,0.04c0.24-0.76,0.58-1.45,0.96-2.1c0.38-0.66,0.81-1.27,1.28-1.86l0.09-0.12l0.08-0.1
						c0.06-0.06,0.1-0.13,0.15-0.2c0.09-0.14,0.17-0.28,0.24-0.43c0.13-0.3,0.21-0.63,0.22-0.98c0.03-0.69-0.14-1.41-0.45-2.08
						c0.45,0.58,0.77,1.29,0.87,2.07c0.04,0.39,0.01,0.79-0.1,1.18c-0.06,0.2-0.13,0.39-0.23,0.57c-0.05,0.09-0.1,0.18-0.16,0.26
						l-0.08,0.12l-0.07,0.11c-0.38,0.6-0.73,1.24-1.04,1.88c-0.31,0.64-0.56,1.3-0.73,1.95l-0.01,0.04
						c-0.11,0.35-0.19,0.77-0.24,1.15c-0.05,0.39-0.06,0.78-0.02,1.14c0.04,0.36,0.13,0.7,0.3,0.96c0.08,0.13,0.18,0.25,0.28,0.35
						c0.1,0.09,0.22,0.17,0.35,0.23c-0.01,0-0.03-0.01-0.04-0.01l0.07,0.03c-0.01-0.01-0.02-0.01-0.03-0.02
						c0.08,0.02,0.2,0.05,0.29,0.07c0.12,0.02,0.25,0.04,0.38,0.05c0.25,0.03,0.51,0.03,0.76,0.02c0.51-0.03,1.01-0.14,1.48-0.33
						c0.12-0.05,0.23-0.1,0.35-0.16c0.06-0.03,0.11-0.06,0.16-0.08l0.04-0.02l0.08-0.05c0.05-0.02,0.09-0.05,0.14-0.07
						c0.36-0.15,0.7-0.21,1.05-0.23c0.65-0.02,1.27,0.13,1.82,0.36c-0.04,0-0.08,0-0.11,0l0.2,0.04c-0.03-0.01-0.06-0.03-0.1-0.04
						c0.08,0,0.17-0.01,0.25-0.03c0.13-0.02,0.25-0.05,0.36-0.08c0.23-0.07,0.43-0.19,0.56-0.33c0.13-0.14,0.21-0.32,0.22-0.55
						c0.01-0.23-0.03-0.48-0.11-0.74c0,0.01,0.01,0.02,0.02,0.03l-0.02-0.04c0,0,0,0.01,0,0.01c-0.13-0.26-0.34-0.54-0.54-0.79
						c-0.22-0.26-0.48-0.48-0.76-0.67c-0.28-0.19-0.6-0.34-0.94-0.44c-0.34-0.1-0.69-0.14-1.06-0.14c0.35-0.08,0.73-0.11,1.1-0.08
						c0.37,0.04,0.74,0.14,1.09,0.3c0.35,0.16,0.67,0.38,0.96,0.63c0.3,0.26,0.55,0.53,0.78,0.88l0,0l0.02,0.04
						c0.13,0.3,0.24,0.63,0.26,1c0.03,0.37-0.08,0.8-0.33,1.12c-0.25,0.33-0.59,0.53-0.92,0.67c-0.17,0.07-0.33,0.12-0.5,0.16
						c-0.17,0.04-0.33,0.07-0.53,0.08l-0.08,0.01l-0.13-0.04c-0.49-0.17-1-0.26-1.47-0.22c-0.23,0.02-0.46,0.08-0.63,0.16
						c-0.02,0.01-0.04,0.02-0.05,0.03l-0.01,0.01l-0.05,0.03c-0.07,0.04-0.15,0.09-0.22,0.13c-0.14,0.08-0.29,0.15-0.43,0.22
						c-0.59,0.26-1.23,0.42-1.88,0.47c-0.32,0.02-0.65,0.02-0.97-0.01c-0.16-0.02-0.32-0.04-0.48-0.07
						c-0.17-0.03-0.31-0.06-0.51-0.13l-0.04-0.01l-0.03-0.02c-0.24-0.12-0.48-0.27-0.69-0.46c-0.21-0.19-0.38-0.41-0.52-0.65
						c-0.27-0.48-0.39-1-0.43-1.49c-0.04-0.49,0-0.97,0.08-1.43C79.15,57.95,79.26,57.52,79.43,57.06z"/>
				</g>
				<g>
					<path class="st4" d="M81.09,61.26c0.01,0,0.03,0.01,0.04,0.01c0.01,0.01,0.02,0.01,0.03,0.02L81.09,61.26z"/>
				</g>
				<g>
					<path class="st4" d="M88.98,59.14c0-0.01-0.01-0.02-0.02-0.03c0,0,0-0.01,0-0.01L88.98,59.14z"/>
				</g>
			</g>
		</g>
	</g>
	<g>
		<path class="st5" d="M78.78,95.8l-0.33,4.33c0,0,5.41,1.85,7.08-3.39C85.53,96.75,82.85,96.98,78.78,95.8z"/>
	</g>
	<g>
		<g>
			<path class="st3" d="M67.08,86.16c0,0-1.71,5.16-0.1,8.69c0,0,0.7,0.9,1.87,0.51c0,0-2.23-1.89-0.69-8.89L67.08,86.16z"/>
			<path class="st1" d="M66.69,95.08l-0.04-0.07c-1.66-3.62,0.01-8.75,0.09-8.96l0.11-0.34l1.75,0.51l-0.07,0.34
				c-1.45,6.63,0.55,8.51,0.57,8.53l0.5,0.43l-0.62,0.21c-0.2,0.07-0.39,0.1-0.57,0.12C67.34,95.9,66.72,95.12,66.69,95.08z
				 M67.33,86.62c-0.34,1.19-1.3,5.19-0.03,8.03c0.08,0.09,0.39,0.39,0.87,0.43c-0.6-0.98-1.47-3.38-0.44-8.35L67.33,86.62z"/>
		</g>
		<g>
			<path class="st3" d="M66.94,86.04c0,0,1.07,4.79,3.7,7.13c0,0,0.87,0.5,1.49-0.21c0,0-2.33-0.79-4.32-7.02L66.94,86.04z"/>
			<path class="st1" d="M70.46,93.49l-0.06-0.04c-2.68-2.39-3.77-7.13-3.81-7.33l-0.09-0.4l1.58-0.19l0.09,0.29
				c1.89,5.9,4.07,6.78,4.09,6.79l0.52,0.18l-0.36,0.42c-0.3,0.35-0.66,0.48-1,0.51C71.02,93.74,70.67,93.61,70.46,93.49z
				 M67.55,86.34l-0.14,0.02c0.32,1.17,1.4,4.65,3.45,6.51c0.08,0.04,0.31,0.14,0.56,0.1C70.57,92.34,68.97,90.65,67.55,86.34z"/>
		</g>
		<g>
			<path class="st3" d="M66.44,86.56c0.04,0.56,0.53,0.99,1.09,0.95c0.56-0.04,0.99-0.53,0.95-1.09c-0.04-0.56-0.53-0.99-1.09-0.95
				C66.83,85.51,66.4,86,66.44,86.56z"/>
			<path class="st1" d="M66.07,86.59c-0.05-0.77,0.53-1.43,1.3-1.49c0.77-0.05,1.43,0.53,1.49,1.3c0.05,0.77-0.53,1.43-1.3,1.49
				C66.79,87.93,66.12,87.35,66.07,86.59z M66.81,86.54c0.02,0.36,0.34,0.63,0.7,0.61c0.36-0.02,0.63-0.34,0.61-0.7
				c-0.02-0.36-0.34-0.63-0.69-0.61C67.06,85.86,66.79,86.18,66.81,86.54z"/>
		</g>
	</g>
	<g>
		<g>
			<g>
				<path class="st12" d="M57.52,77.84c1.74-1.13,3.06-0.71,3.06-0.71l2.86-0.76c3.67,1.33,2.7,5.56,2.7,5.56l0.7,1.85l-0.21,1.51
					c-0.73,2.26-5.77,2.57-5.77,2.57c-2.28-0.82-2.27-3.5-2.27-3.5c-1.81-0.56-0.93-2.28-0.93-2.28c-2.06-0.19-0.97-2.79-0.97-2.79
					L57.52,77.84z"/>
			</g>
			<g>
				<path class="st4" d="M56.22,79.09c-0.07,0.17-0.66,1.66-0.05,2.67c0.14,0.24,0.4,0.52,0.84,0.68c-0.08,0.36-0.11,0.83,0.08,1.29
					c0.18,0.44,0.53,0.76,1.02,0.98c0.08,0.83,0.5,2.87,2.58,3.62l0.1,0.03l0.1-0.01c0.55-0.03,5.4-0.41,6.21-2.91l0.02-0.08
					l0.23-1.63l-0.7-1.84c0.33-1.66,0.09-4.85-3.05-5.99l-0.15-0.05l-2.89,0.77c-0.44-0.09-1.73-0.22-3.32,0.81l-0.1,0.06
					L56.22,79.09z M57.12,79.5l0.76-1.3c1.45-0.9,2.5-0.61,2.55-0.59l0.13,0.04l0.14-0.03l2.7-0.72c3.06,1.22,2.28,4.78,2.25,4.93
					l-0.03,0.15l0.71,1.88l-0.19,1.34c-0.54,1.52-3.84,2.08-5.21,2.18c-1.83-0.74-1.85-2.98-1.85-3l0-0.37l-0.35-0.11
					c-0.39-0.12-0.62-0.3-0.73-0.55c-0.19-0.45,0.09-1.04,0.09-1.04l0.33-0.65l-0.73-0.07c-0.5-0.05-0.63-0.26-0.68-0.34
					C56.72,80.76,56.99,79.83,57.12,79.5z"/>
			</g>
		</g>
		<g>
			<g>
				<g>
					<g>
						<path class="st4" d="M63.94,82.3c-0.14-0.01-0.28-0.02-0.43-0.04c0.08-0.13,0.17-0.25,0.29-0.37L63.94,82.3z"/>
					</g>
					<g>
						<path class="st4" d="M62.99,80.09c-0.01,0.06-0.02,0.18-0.03,0.27c0,0.1,0,0.2,0.01,0.29c0.02,0.19,0.06,0.38,0.14,0.54
							c0.07,0.17,0.18,0.3,0.33,0.41c0.14,0.12,0.33,0.17,0.53,0.22l0.52,0.13l-0.38,0.29c-0.15,0.11-0.3,0.26-0.43,0.41
							c-0.13,0.15-0.25,0.32-0.34,0.5c-0.09,0.18-0.15,0.38-0.18,0.58c-0.03,0.21,0.01,0.42,0.06,0.62
							c-0.09-0.19-0.17-0.4-0.18-0.62c-0.01-0.22,0.01-0.45,0.07-0.67c0.06-0.22,0.16-0.42,0.27-0.62c0.04-0.06,0.08-0.13,0.12-0.19
							c0.14,0.03,0.29,0.04,0.43,0.04l-0.14-0.41c-0.11,0.12-0.2,0.24-0.29,0.37c-0.12-0.02-0.25-0.06-0.37-0.12
							c-0.26-0.12-0.49-0.32-0.66-0.55c-0.17-0.23-0.28-0.49-0.35-0.75c-0.04-0.13-0.07-0.26-0.09-0.39
							C62.02,80.3,62,80.19,62,80.02L62.99,80.09z"/>
					</g>
				</g>
			</g>
		</g>
		<g>
			<g>
				<path class="st9" d="M57.2,59.24c0,0,0.54,5.27,4.04,15.17c0,0,1.46,3.75,1.52,6.05c0,0,0.21,2.68,3.52,11.6
					c0,0-1.69,3.13-4.97,1.25c0,0-0.67-5.12-2.55-11.84c0,0-2.22-6.5-2.47-10.02c0,0-4.47-19.64-7.16-27.34c0,0,2.1-2.65,3.17-0.74
					c0,0,1.38,2.65,3.46,11.11C55.76,54.49,56.8,56.39,57.2,59.24z"/>
				<path class="st4" d="M61.13,93.63l-0.16-0.09l-0.02-0.18c-0.01-0.05-0.69-5.17-2.53-11.77c-0.09-0.27-2.22-6.56-2.49-10.08
					c-0.19-0.84-4.54-19.82-7.15-27.27l-0.07-0.19l0.13-0.16c0.13-0.17,1.35-1.66,2.56-1.56c0.35,0.03,0.84,0.2,1.23,0.89
					c0.06,0.11,1.42,2.77,3.48,11.15c0.16,0.31,1.08,2.15,1.45,4.83l0,0.01c0.01,0.05,0.57,5.34,4.02,15.07
					c0.06,0.16,1.49,3.84,1.55,6.15c0,0.03,0.26,2.78,3.5,11.5l0.06,0.16l-0.08,0.15c-0.03,0.06-0.82,1.48-2.36,1.92
					c-0.23,0.06-0.45,0.1-0.69,0.12C62.79,94.32,61.97,94.11,61.13,93.63z M62.39,80.47c-0.06-2.2-1.49-5.89-1.5-5.93
					c-3.42-9.65-4.03-15-4.06-15.25c-0.39-2.74-1.38-4.6-1.39-4.62l-0.02-0.04l-0.01-0.05c-2.03-8.3-3.41-11-3.42-11.02
					c-0.18-0.32-0.39-0.48-0.63-0.5c-0.61-0.05-1.42,0.71-1.79,1.13c2.68,7.76,7.06,26.98,7.11,27.18l0.01,0.06
					c0.25,3.42,2.43,9.86,2.46,9.94c1.67,5.96,2.39,10.72,2.53,11.71c0.85,0.45,1.65,0.57,2.38,0.37c0.99-0.28,1.62-1.1,1.84-1.42
					C62.64,83.28,62.4,80.6,62.39,80.47z"/>
			</g>
			<g>
				<path class="st10" d="M49.45,44.03l1.19,3.41c0,0,1.53-0.29,0.85-3.02C51.5,44.42,51.03,42.66,49.45,44.03z"/>
			</g>
			<g>
				<path class="st13" d="M53.26,45.44c0,0-3.03-1.05-4.19,2.7c0,0-3.28,1.65-18.35,1.68c0,0-2.05-0.41-1.97,3.94
					c0,0-0.38,4.98,3.35,10.06c0,0,1.26,1.39,5.21-1.1c0,0,8.12-4.2,14.88-5.97c0,0,0.9-2.1,3.84-1.26c0,0,2.54-1,1.09-3.92
					c0,0,1.81-0.83,7.42-1.57c0,0,0.19-1.06-0.69-4.1c0,0-0.03-1.49-3.55,0.84c0,0-4.73,1.41-4.69,0.36
					C55.6,47.1,54.85,45.32,53.26,45.44z"/>
				<path class="st4" d="M31.73,64.15l-0.03-0.04c-3.7-5.04-3.47-9.93-3.45-10.37c-0.03-1.98,0.36-3.32,1.16-3.99
					c0.57-0.47,1.14-0.45,1.34-0.43c12.83-0.03,17.06-1.25,17.92-1.56c0.43-1.25,1.12-2.12,2.04-2.59c1.14-0.57,2.26-0.34,2.61-0.24
					c1.86-0.07,2.71,1.88,2.74,1.96l0.03,0.06c0.49,0.13,2.27-0.18,4-0.69c1.82-1.2,3.01-1.59,3.72-1.22
					c0.34,0.18,0.49,0.49,0.52,0.74c0.87,3.03,0.71,4.16,0.69,4.28l-0.06,0.36l-0.36,0.05c-3.95,0.52-5.99,1.09-6.82,1.36
					c0.34,0.88,0.37,1.69,0.09,2.42c-0.46,1.2-1.62,1.67-1.67,1.68l-0.16,0.06l-0.16-0.05c-2.46-0.7-3.22,0.91-3.25,0.98l-0.1,0.22
					l-0.23,0.06c-6.47,1.7-14.32,5.7-14.76,5.92c-1.75,1.1-3.03,1.48-3.93,1.55C32.36,64.78,31.82,64.25,31.73,64.15z M55.97,54.96
					c0.24-0.13,0.75-0.46,0.97-1.05c0.22-0.58,0.13-1.3-0.28-2.12l-0.23-0.46l0.47-0.21c0.07-0.03,1.85-0.83,7.15-1.56
					c-0.02-0.51-0.13-1.61-0.69-3.53l-0.02-0.06l0-0.03c-0.07-0.03-0.68-0.19-2.78,1.21l-0.06,0.04l-0.07,0.02
					c-1.54,0.46-4.23,1.13-5.02,0.52c-0.17-0.13-0.27-0.3-0.3-0.5c-0.14-0.28-0.76-1.36-1.81-1.29c0,0-0.01,0-0.01,0l-0.1,0.01
					l-0.1-0.03c-0.01,0-1-0.33-1.95,0.16c-0.72,0.37-1.26,1.12-1.6,2.22l-0.06,0.2l-0.19,0.09c-0.14,0.07-3.56,1.7-18.57,1.73
					l-0.09-0.01c-0.01,0-0.3-0.04-0.6,0.22c-0.31,0.27-0.82,1.05-0.78,3.22l0,0.05c0,0.05-0.32,4.82,3.23,9.69
					c0.15,0.11,1.34,0.85,4.57-1.19l0.04-0.02c0.08-0.04,8.09-4.16,14.78-5.96C52.21,55.74,53.39,54.31,55.97,54.96z"/>
			</g>
			<g>
				<path class="st15" d="M43.36,50.31c0,0-5.11,0.32-12.94,0.36c0,0-4.12,2.56,2.24,12.66c0,0,1.23,0.65,3.07-0.65
					c0,0,1.8-2.06,10.23-4.9C45.95,57.78,42.16,55.81,43.36,50.31z"/>
			</g>
			<g>
				<path class="st14" d="M52.61,46.95c0,0-0.2,2.33,1.59,6.29c0,0-1.42,0.12-2.22,1.98c0,0-0.74,0.04-2.43-6.48
					C49.56,48.73,49.3,46.87,52.61,46.95z"/>
			</g>
			<g>
				<path class="st14" d="M63.27,46.37c0,0-0.94-0.58-0.44,2.3c0,0-4.2,0.26-6.71,1.69l0.16,0.63c0,0,1.7-0.33,7.17-1.24
					C63.44,49.75,64.38,49.87,63.27,46.37z"/>
			</g>
			<g>
				<path class="st15" d="M53.02,45.85c0,0-2.6-0.65-3.55,2.54c0,0,2.92-2.32,2.99-0.7c0.05,1.16,0.39,3.55,1.42,5.62
					c0,0,0.86-0.25,1.58-0.04c0,0-0.79-3.4-0.9-5.68C54.56,47.59,54.72,46.17,53.02,45.85z"/>
			</g>
			<g>
				<path class="st14" d="M50.16,55.32c0,0-2.58-0.18-11.3,4.94c0,0-1.89-1.25-2.99-5.16c0,0-1,1.01,1.49,5.89
					c0,0-1.14,0.45-2.98,2.17c0,0,0.01,0.09,1.35-0.49c0,0,7.18-4.35,15.72-6.48C51.44,56.19,51.6,55.18,50.16,55.32z"/>
			</g>
			<g>
				<path class="st10" d="M53.54,56.22c0,0,1.17-0.1,1.62,0.84c0,0,2.26,10.7,4.59,18.2c0,0,1.42,3.78,2.15,8.53
					c0,0,1.33,5.38,2.66,8.38c0,0-0.07,1.12-2.28,0.9c0,0-1.88-9.82-4.2-16.13c0,0-1.03-3.95-1.33-6.63
					C56.75,70.29,53.77,58.71,53.54,56.22z"/>
			</g>
		</g>
		<g>
			<g>
				<g>
					<path class="st12" d="M56.63,78.17c1.29-1.55,4.05-0.65,4.05-0.65c-2.56,0.56-0.6,3.2-0.6,3.2c-2.19-0.71-3.1,1.6-3.1,1.6
						c-2.14-0.89-0.82-3.44-0.82-3.44L56.63,78.17z"/>
				</g>
				<g>
					<path class="st4" d="M55.72,78.63c-0.03,0.06-0.77,1.51-0.31,2.76c0.23,0.62,0.69,1.08,1.38,1.37l0.47,0.19l0.18-0.47
						c0.08-0.19,0.8-1.85,2.48-1.31l1.47,0.48l-0.92-1.24c-0.22-0.3-0.79-1.27-0.57-1.85c0.1-0.27,0.4-0.46,0.88-0.56l1.8-0.39
						l-1.75-0.56c-0.13-0.04-3.1-0.98-4.58,0.81l-0.03,0.04L55.72,78.63z M56.59,79.11l0.43-0.64c0.55-0.64,1.46-0.75,2.21-0.71
						c-0.11,0.13-0.19,0.29-0.26,0.45c-0.24,0.63-0.06,1.32,0.18,1.87c-1.16,0.05-1.95,0.84-2.38,1.54
						c-0.2-0.15-0.34-0.34-0.42-0.56C56.06,80.28,56.52,79.26,56.59,79.11z"/>
				</g>
			</g>
			<g>
				<g>
					<path class="st12" d="M59.83,80.61c1.57,0.2,2.53,2.29,2.53,2.29c0.2,1.3-2.09,1.35-2.09,1.35c-2.44-0.03-2.13,1.24-2.13,1.24
						c-2.36-1.05-1.23-3-1.23-3C58.28,79.95,59.83,80.61,59.83,80.61z"/>
				</g>
				<g>
					<path class="st4" d="M56.48,82.25c-0.06,0.11-0.54,1.02-0.22,2.02c0.23,0.71,0.8,1.27,1.68,1.67l0.93,0.41l-0.24-0.98l0,0l0,0
						l0,0c0,0-0.01-0.12,0.09-0.24c0.1-0.12,0.45-0.39,1.55-0.38c0.18,0,1.64-0.05,2.29-0.83c0.26-0.31,0.36-0.68,0.29-1.09
						l-0.01-0.07l-0.03-0.06c-0.04-0.09-1.08-2.29-2.87-2.57C59.56,80,57.89,79.64,56.48,82.25z M57.35,82.73l0.01-0.01
						c1.11-2.06,2.24-1.67,2.29-1.65l0.05,0.02l0.07,0.01c1.01,0.13,1.83,1.38,2.11,1.94c0,0.12-0.04,0.19-0.08,0.24
						c-0.28,0.34-1.16,0.47-1.54,0.47c-0.11,0-0.21,0-0.31,0c-0.96,0.04-1.65,0.29-2.02,0.76c-0.05,0.07-0.1,0.13-0.13,0.2
						c-0.3-0.22-0.5-0.47-0.59-0.76C57.01,83.35,57.34,82.74,57.35,82.73z"/>
				</g>
				<g>
					<polygon class="st4" points="58.63,85.37 58.63,85.37 58.63,85.37 					"/>
				</g>
			</g>
			<g>
				<g>
					<path class="st12" d="M59.54,84.13c3.98-0.2,3.62,2.36,3.62,2.36c-0.33,1.55-3.67,1.76-3.67,1.76
						c-1.56-0.89-1.56-2.48-1.56-2.48C58.16,84.62,59.54,84.13,59.54,84.13z"/>
				</g>
				<g>
					<path class="st4" d="M57.44,85.76c0,0.08,0.03,1.89,1.81,2.91l0.13,0.07l0.15-0.01c0.38-0.02,3.73-0.29,4.13-2.15l0.01-0.04
						c0.01-0.04,0.14-1.05-0.63-1.89c-0.7-0.77-1.88-1.11-3.51-1.03l-0.07,0l-0.07,0.02c-0.07,0.02-1.65,0.61-1.93,2L57.44,85.76z
						 M58.43,85.81c0.17-0.7,0.99-1.09,1.22-1.19c0.01,0,0.02,0,0.03,0c1.24-0.05,2.14,0.2,2.61,0.7c0.41,0.44,0.4,0.98,0.39,1.08
						c-0.21,0.83-2.06,1.24-3.06,1.34C58.57,87.07,58.45,86.04,58.43,85.81z"/>
				</g>
			</g>
			<g>
				<g>
					<g>
						<path class="st2" d="M59.17,84.58c1.32-0.34,2.39,0.3,2.39,0.3C62.46,86.53,60,86.1,60,86.1c0.18,0.81-0.61,1.28-0.61,1.28
							c-0.89,0.02-1.37-1.39-1.37-1.39C57.76,84.93,59.17,84.58,59.17,84.58z"/>
					</g>
				</g>
				<g>
					<g>
						<g>
							<g>
								<path class="st4" d="M60.08,84.8c0.01,0.22,0.03,0.44,0.06,0.66c0.03,0.22,0.07,0.43,0.12,0.64
									c0.06,0.21,0.13,0.42,0.3,0.58c-0.21-0.09-0.38-0.28-0.52-0.47c-0.14-0.19-0.26-0.39-0.37-0.6
									c-0.11-0.21-0.21-0.42-0.31-0.63c-0.09-0.22-0.18-0.43-0.27-0.66l0.98-0.16C60.06,84.36,60.07,84.58,60.08,84.8z"/>
							</g>
						</g>
					</g>
				</g>
			</g>
			<g>
				<g>
					<g>
						<path class="st2" d="M58.11,81.6c1.26-0.96,2.4-0.04,2.4-0.04c1.13,1.5-1.45,1.2-1.45,1.2c0.29,0.77-1.11,1.62-1.11,1.62
							c-0.88,0.15-0.74-0.43-0.74-0.43C56.79,82.93,58.11,81.6,58.11,81.6z"/>
					</g>
				</g>
				<g>
					<g>
						<g>
							<g>
								<path class="st4" d="M59.04,81.68c0.04,0.22,0.09,0.43,0.15,0.64c0.06,0.21,0.13,0.42,0.21,0.62
									c0.09,0.2,0.19,0.39,0.38,0.53c-0.22-0.06-0.42-0.22-0.58-0.39c-0.17-0.17-0.31-0.35-0.46-0.54
									c-0.14-0.19-0.27-0.38-0.39-0.58c-0.12-0.2-0.24-0.4-0.36-0.62l0.94-0.3C58.96,81.25,59,81.47,59.04,81.68z"/>
							</g>
						</g>
					</g>
				</g>
			</g>
			<g>
				<g>
					<g>
						<path class="st2" d="M57.1,78.27c1.25-0.53,2-0.42,2-0.42c1.13,1.5-1.19,1.89-1.19,1.89c0.29,0.77-1.11,1.62-1.11,1.62
							c-0.63-0.22-0.6-0.75-0.6-0.75C55.79,79.6,57.1,78.27,57.1,78.27z"/>
					</g>
				</g>
				<g>
					<g>
						<g>
							<g>
								<path class="st4" d="M57.8,78.44c0.04,0.22,0.09,0.43,0.15,0.64c0.06,0.21,0.13,0.42,0.21,0.62
									c0.09,0.2,0.19,0.39,0.38,0.53c-0.22-0.06-0.41-0.22-0.58-0.39c-0.17-0.17-0.31-0.35-0.46-0.54
									c-0.14-0.19-0.27-0.38-0.39-0.58c-0.12-0.2-0.24-0.4-0.36-0.62l0.94-0.3C57.72,78.01,57.76,78.23,57.8,78.44z"/>
							</g>
						</g>
					</g>
				</g>
			</g>
			<g>
				<g>
					<g>
						<path class="st12" d="M60.18,76.68l0.93-0.38c2.66-0.49,3.88,1.08,3.88,1.08l-2.38,1.88c-0.39,3.12-1.92,2.66-1.92,2.66
							c-0.97-0.19-0.99-1.65-0.99-1.65C58.51,76.69,60.18,76.68,60.18,76.68z"/>
					</g>
					<g>
						<path class="st4" d="M60.06,76.19l0.86-0.35l0.1-0.03c2.93-0.54,4.3,1.19,4.36,1.27l-0.78,0.61
							c-0.04-0.05-1.07-1.31-3.35-0.91l-0.97,0.39l-0.1,0c0,0-0.13,0.02-0.24,0.17c-0.14,0.2-0.41,0.87,0.22,2.78l0.02,0.07l0,0.08
							c0,0.01,0.05,1.07,0.59,1.17l0.04,0.01c0.01,0,0.21,0.05,0.45-0.12c0.24-0.17,0.67-0.67,0.85-2.12l0.98,0.12
							c-0.18,1.44-0.62,2.39-1.31,2.85c-0.31,0.2-0.61,0.26-0.83,0.27c-0.18,0.01-0.31-0.02-0.38-0.03
							c-1.02-0.21-1.34-1.35-1.37-2.05c-0.54-1.68-0.56-2.89-0.06-3.59C59.45,76.33,59.85,76.22,60.06,76.19z"/>
					</g>
				</g>
				<g>
					<g>
						<path class="st2" d="M61.7,78.39c0.43,3.08-1.32,2.34-1.32,2.34c-0.78-1.17-0.65-3.16-0.65-3.16
							C61.76,77.15,61.7,78.39,61.7,78.39z"/>
					</g>
				</g>
			</g>
		</g>
	</g>
</g>
</svg>
