<?xml version="1.0" encoding="UTF-8"?>
<svg id="Layer_1" data-name="Layer 1" xmlns="http://www.w3.org/2000/svg" version="1.1" viewBox="0 0 150 150">
  <defs>
    <style>
      .cls-1 {
        fill: #e88b62;
      }

      .cls-1, .cls-2, .cls-3, .cls-4, .cls-5, .cls-6, .cls-7, .cls-8, .cls-9, .cls-10, .cls-11, .cls-12, .cls-13, .cls-14, .cls-15, .cls-16, .cls-17, .cls-18, .cls-19, .cls-20, .cls-21, .cls-22, .cls-23, .cls-24, .cls-25, .cls-26, .cls-27, .cls-28 {
        stroke-width: 0px;
      }

      .cls-2 {
        fill: #f7d581;
      }

      .cls-3 {
        fill: #f3e0d8;
      }

      .cls-4 {
        fill: #fccaa7;
      }

      .cls-5 {
        fill: #f4956e;
      }

      .cls-6 {
        fill: #382823;
      }

      .cls-7 {
        fill: #fbe6a9;
      }

      .cls-8 {
        fill: #8a291c;
      }

      .cls-9 {
        fill: #ba684e;
      }

      .cls-10 {
        fill: #1a2418;
      }

      .cls-11 {
        fill: #1b1312;
      }

      .cls-12 {
        fill: #c7715d;
      }

      .cls-13 {
        fill: #96414c;
      }

      .cls-14 {
        fill: #ccc7ca;
      }

      .cls-29 {
        opacity: .64;
      }

      .cls-30 {
        opacity: .85;
      }

      .cls-31 {
        opacity: .78;
      }

      .cls-15 {
        fill: #2b1e1a;
      }

      .cls-16 {
        fill: #fce4a9;
      }

      .cls-17 {
        fill: #9584ab;
      }

      .cls-18 {
        fill: #0f2824;
      }

      .cls-19 {
        fill: #644b46;
      }

      .cls-20 {
        fill: #54a047;
      }

      .cls-21 {
        fill: #eaa498;
      }

      .cls-22 {
        fill: #683a57;
      }

      .cls-23 {
        fill: #ee333e;
      }

      .cls-24 {
        fill: #fff;
      }

      .cls-25 {
        fill: #2d5c2d;
      }

      .cls-26 {
        fill: #cd1e54;
      }

      .cls-27 {
        fill: #695a64;
      }

      .cls-28 {
        fill: #f1749b;
      }
    </style>
  </defs>
  <g>
    <g>
      <g>
        <path class="cls-21" d="M86.88,86.69s3.9,1.67,8.85,1.45c0,0-1.37-3.87.66-6.39,0,0-3.48-.25-6.34-.57-1.02-.11-2.61-2.63-4.1-3.95-1.73-1.54-5.79.25-4.35,3.62.2.47,2.05,4.27,5.29,5.85Z"/>
        <path class="cls-22" d="M94.8,88.58c-4.52,0-7.93-1.44-8.08-1.5h-.02c-3.57-1.75-5.47-6.03-5.49-6.07-.69-1.61-.32-3.13.99-4.07,1.28-.92,3.02-.94,4.03-.04.59.53,1.18,1.21,1.76,1.88.73.85,1.64,1.91,2.11,1.96,2.82.31,6.29.57,6.32.57l.8.06-.5.63c-1.86,2.31-.6,5.95-.59,5.99l.19.54-.57.03c-.32.01-.64.02-.95.02ZM87.06,86.3c.2.08,3.69,1.51,8.11,1.42-.28-1.09-.72-3.59.46-5.62-1.18-.09-3.57-.29-5.63-.52-.79-.09-1.66-1.09-2.66-2.25-.55-.65-1.13-1.31-1.68-1.8-.72-.64-2.02-.6-2.98.09-.46.33-1.45,1.29-.7,3.05.02.04,1.79,4.02,5.07,5.63Z"/>
      </g>
      <g>
        <path class="cls-13" d="M91.72,88.17s-1.65-3.44.67-6.88l5.21.11s-2.37,3.09-.89,7.24c0,0-3.62-.22-5-.47Z"/>
        <path class="cls-22" d="M97.33,89.1l-.64-.04c-.15,0-3.66-.22-5.05-.48l-.21-.04-.09-.19c-.07-.15-1.73-3.7.71-7.3l.13-.19,6.28.14-.51.66c-.09.12-2.21,2.97-.83,6.84l.22.6ZM92.01,87.79c1.08.17,3.09.32,4.11.39-.83-2.93.12-5.28.72-6.37l-4.23-.09c-1.71,2.71-.89,5.34-.6,6.07Z"/>
      </g>
      <path class="cls-12" d="M92.63,81.81s-2.81,4.76,2.93,5.51c0,0-.75-2.45,1.2-5.36l-4.13-.15Z"/>
      <g>
        <path class="cls-22" d="M93.99,83.6c.18.15.32.32.45.49.13.18.24.36.35.55s.19.39.27.59c.07.21.14.42.16.65-.18-.15-.32-.32-.45-.49-.13-.18-.24-.36-.35-.55-.1-.19-.19-.39-.27-.59-.07-.21-.14-.42-.16-.65Z"/>
        <path class="cls-22" d="M93.76,85.92c.06-.23.15-.43.25-.62.1-.19.22-.37.35-.55.13-.17.27-.34.42-.49.16-.15.32-.3.52-.42-.06.23-.15.43-.25.62-.1.19-.22.38-.35.55-.13.17-.27.34-.42.49-.16.15-.32.3-.52.42Z"/>
      </g>
      <g>
        <path class="cls-22" d="M92.27,83.53c.18.15.32.32.45.49.13.18.24.36.35.55.1.19.19.39.27.59.07.21.14.42.16.65-.18-.15-.32-.32-.45-.49-.13-.18-.24-.36-.35-.55-.1-.19-.19-.39-.27-.59-.07-.21-.14-.42-.16-.65Z"/>
        <path class="cls-22" d="M92.05,85.85c.06-.23.15-.43.25-.62.1-.19.22-.37.35-.55.13-.17.27-.34.42-.49.16-.15.32-.3.52-.42-.06.23-.15.43-.25.62-.1.19-.22.37-.35.55-.13.17-.27.34-.42.49-.16.15-.32.3-.52.42Z"/>
      </g>
      <path class="cls-4" d="M85.08,77.43s-2.1-.59-1.19,3.33c0,0,1.59,2.63,3.89,3.81,0,0,1.3.46,2.05.53,0,0,.09-1.84,1.74-3.31,0,0-1.73-.08-2.14-.33,0,0-1.82-1.64-3.09-3.17,0,0-.63-.89-1.27-.86Z"/>
    </g>
    <g>
      <g>
        <path class="cls-21" d="M99.31,80.16l2.35.92s1.16-.23,2.53.9l.58,1.3s.68,2.32-1.09,2.28c0,0,.58,1.55-1.01,1.85,0,0-.25,2.28-2.26,2.76,0,0-4.25-.75-4.66-2.73l-.04-1.3.77-1.51s-.42-3.69,2.82-4.46Z"/>
        <path class="cls-22" d="M100.42,90.59l-.09-.02c-.46-.08-4.55-.86-5-3.07v-.07s-.05-1.41-.05-1.41l.77-1.49c-.12-1.44.39-4.13,3.16-4.79l.13-.03,2.38.93c.38-.03,1.49-.02,2.74,1l.08.06.64,1.45c.04.15.4,1.47-.21,2.27-.14.19-.39.4-.78.5.03.31.02.71-.19,1.09-.2.35-.52.6-.96.74-.15.7-.7,2.39-2.53,2.83l-.09.02ZM96.17,87.38c.31,1.34,3.06,2.13,4.22,2.35,1.62-.45,1.85-2.29,1.86-2.37l.04-.31.31-.06c.34-.06.56-.19.67-.39.2-.36.02-.89.02-.89l-.22-.58h.62c.43.03.56-.15.61-.21.29-.38.15-1.2.07-1.49l-.52-1.18c-1.15-.9-2.09-.75-2.1-.75l-.12.02-2.34-.91c-2.7.74-2.39,3.84-2.37,3.97v.13s-.77,1.53-.77,1.53l.03,1.15Z"/>
      </g>
      <g>
        <path class="cls-19" d="M108.41,82.08s-6.54-.66-10.16-4.32c0,0-.73-.91.47-1.4,0,0,3.7,2.52,4.69,2.99,0,0,4.16,1.41,5.55,1.66,0,0,.44,1.36-.55,1.06Z"/>
        <path class="cls-6" d="M98.47,76.17s4.47,3.12,10.4,4.73c0,0,.7,1.77-.72,2.32,0,0-2.19.26-4.35-.69l-2.58,6.7s-1.85.01-3.08-2.04l2.61-6.33s-5.56-3.37-2.28-4.69Z"/>
        <path class="cls-15" d="M97.87,88.38s-2.24-.03-2.38,1.04l.21,1.51s2.38-.44,3.24,2.64l1.71-.13s.9-1.17-.33-3.52l-2.45-1.54Z"/>
        <path class="cls-6" d="M98.47,76.17s4.47,3.12,10.4,4.73c0,0,.7,1.77-.72,2.32,0,0-2.19.26-4.35-.69l-2.58,6.7s-1.85.01-3.08-2.04l2.61-6.33s-5.56-3.37-2.28-4.69Z"/>
        <path class="cls-11" d="M98.6,86.8s-1.06.36-.84,1.28c0,0,1.05,1.92,3.03,1.72,0,0,.76-.4.88-1.42,0,0-.95.51-3.07-1.58Z"/>
        <g>
          <path class="cls-13" d="M101.69,88.47l2.59-5.97c2.4,1.13,3.56.37,3.56.37,1.8-.69,1.03-1.96,1.03-1.96-5.45-1.55-10.67-4.62-10.67-4.62,0,0-1.94,1.48,2.56,4.57l-2.39,5.8s-1.1,1.08-.74,1.64c0,0-1.54.27-2.02.73,0,0-.47,1.22.08,1.9,0,0,2.8.11,3.24,2.64l1.71-.13s.97-1.28-.17-3.41c0,0,.73.03,1.21-1.56Z"/>
          <path class="cls-22" d="M98.58,94.02l-.07-.38c-.38-2.17-2.82-2.29-2.84-2.29h-.19s-.12-.16-.12-.16c-.69-.84-.2-2.17-.15-2.32l.03-.09.07-.07c.4-.38,1.27-.62,1.82-.75.04-.64.63-1.3.87-1.55l2.23-5.41c-1.88-1.35-2.85-2.59-2.88-3.71-.02-.7.36-1.18.58-1.35l.23-.17.24.14c.05.03,5.24,3.05,10.58,4.57l.16.05.09.14c.04.07.38.66.14,1.35-.18.53-.63.93-1.35,1.21-.25.14-1.43.67-3.53-.19l-2.41,5.56c-.29.96-.69,1.42-1.03,1.64.92,2.1-.03,3.39-.07,3.44l-.12.15-2.29.17ZM95.93,90.52c1.07.11,2.82.77,3.33,2.6l1.13-.08c.18-.36.49-1.34-.29-2.8l-.42-.78.79.15c.08-.02.48-.19.8-1.26l.02-.05,2.77-6.37.39.19c2.13,1,3.14.4,3.15.39l.08-.04c.34-.13.76-.36.88-.71.07-.19.03-.38,0-.5-4.61-1.35-9.06-3.75-10.27-4.42-.06.11-.1.27-.1.47.02.5.41,1.58,2.79,3.21l.28.19-2.55,6.2-.06.06c-.47.46-.75,1.01-.68,1.11l.34.53-.62.11c-.54.1-1.4.33-1.73.56-.09.29-.21.87-.04,1.24ZM100.5,89.61h0Z"/>
        </g>
        <g>
          <path class="cls-12" d="M99.35,77.07s5.96,3.34,9.32,3.75c0,0,1.06.89-.65,1.09,0,0-2.88.15-7.77-3.2,0,0-2.5-1.65-1.9-2.11,0,0,.39-.1,1,.47Z"/>
          <path class="cls-22" d="M107.97,82.23c-.55,0-3.38-.16-7.9-3.26-.63-.42-2.11-1.47-2.13-2.17,0-.18.07-.35.22-.46l.05-.04.06-.02c.09-.02.58-.11,1.27.52.47.26,6.04,3.32,9.17,3.7h.09s.07.07.07.07c.06.05.56.49.41.98-.16.55-.96.64-1.23.67-.01,0-.04,0-.09,0ZM98.67,76.97c.25.34.97.96,1.76,1.48,4.75,3.25,7.56,3.15,7.58,3.15.59-.07.67-.22.67-.22.01-.04-.06-.16-.15-.26-3.4-.47-9.09-3.64-9.33-3.78l-.06-.04c-.19-.18-.35-.27-.47-.33Z"/>
        </g>
        <g>
          <g>
            <path class="cls-17" d="M100.94,78.33s5.68-22.16,16.23-29.11c0,0,2.67,10.99-11.4,31.27,0,0-3.58-.85-4.83-2.17Z"/>
            <path class="cls-27" d="M105.95,80.98l-.28-.07c-.15-.04-3.72-.9-5.04-2.29l-.16-.17.06-.23c.23-.91,5.84-22.4,16.41-29.35l.5-.33.14.58c.03.12.68,2.9-.42,8.22-1,4.86-3.73,12.86-11.05,23.4l-.16.24ZM101.41,78.2c1.05.92,3.37,1.6,4.17,1.82,11.77-17.07,11.56-27.48,11.27-30.06-9.38,6.76-14.8,25.89-15.44,28.24Z"/>
          </g>
          <path class="cls-14" d="M102.91,78.72s6.8-20.69,13.86-28.5c0,0,1.88,11.04-11.07,29.79,0,0-2.44-.85-2.78-1.29Z"/>
          <path class="cls-24" d="M116.77,50.22s2.4,9.56-11.07,29.79l-1.52-.56s10.2-15.73,12.22-27.44c0,0-4.03,4.2-9.57,16.25,0,0,1.67-9.86,9.94-18.05Z"/>
          <path class="cls-27" d="M111.08,59.83c-.76,1.58-1.49,3.17-2.22,4.76-.72,1.6-1.43,3.19-2.1,4.8-.68,1.61-1.32,3.23-1.93,4.86-.6,1.63-1.15,3.29-1.61,4.96l-.23-.48,1.27.54-.52.17c.62-1.06,1.23-2.14,1.82-3.22.6-1.08,1.18-2.17,1.75-3.26,1.14-2.19,2.25-4.39,3.3-6.63,1.06-2.23,2.04-4.49,2.98-6.78.92-2.29,1.75-4.62,2.49-6.98-.54,2.42-1.25,4.8-2.06,7.14-.84,2.34-1.76,4.64-2.76,6.91-1.02,2.26-2.08,4.51-3.22,6.71-.57,1.1-1.15,2.2-1.74,3.29-.6,1.09-1.21,2.16-1.85,3.24l-.19.31-.33-.14-1.27-.55-.33-.14.1-.34c.48-1.7,1.08-3.36,1.71-5,.64-1.64,1.35-3.24,2.08-4.84.74-1.59,1.51-3.16,2.32-4.72.81-1.56,1.64-3.1,2.53-4.61Z"/>
        </g>
        <path class="cls-12" d="M98.97,89.87c.13.11.24.46.17,1.52,0,0-.67-1.24-2.06-.85,0,0,1.49.12,2.02,2.64l1.26-.2s.74-.55-.17-3.21c0,0-.75-.46-1.21-.16-.09.06-.09.2,0,.27Z"/>
      </g>
      <path class="cls-22" d="M100.18,83.39c-.02.14-.04.24-.07.35-.03.11-.07.22-.11.33-.09.21-.21.42-.37.6-.16.18-.38.33-.61.41-.23.09-.47.08-.69.06l.16-.34c.12.17.21.33.29.51.08.18.14.36.17.55.03.19.03.39,0,.57-.03.19-.12.36-.21.51.07-.17.11-.35.11-.52,0-.18-.04-.35-.09-.51-.06-.16-.14-.32-.24-.46-.1-.14-.21-.28-.32-.39l-.3-.28.46-.06c.17-.02.34-.05.47-.13.13-.08.24-.18.32-.31.08-.13.13-.29.17-.45.02-.08.03-.16.04-.25,0-.08.01-.18,0-.23l.85.03Z"/>
      <g>
        <g>
          <path class="cls-21" d="M104.23,85.81s-.55-2.04-2.48-1.65c0,0,1.91-2.06-.2-2.77,0,0,2.43-.5,3.38.94l.33.63s.88,2.3-1.02,2.85Z"/>
          <path class="cls-22" d="M103.93,86.34l-.11-.42c-.05-.17-.51-1.65-1.98-1.35l-1.3.27.9-.97c.21-.23.79-1,.66-1.52-.06-.24-.29-.43-.69-.56l-1.49-.5,1.54-.31c.11-.02,2.73-.53,3.81,1.12l.02.04.34.67c.02.05.51,1.35,0,2.38-.25.51-.69.85-1.3,1.03l-.41.12ZM102.6,83.72c.98.15,1.58.9,1.88,1.54.18-.11.32-.25.41-.44.32-.64.02-1.54-.02-1.68l-.3-.59c-.4-.59-1.16-.77-1.81-.8.08.12.14.26.17.4.14.56-.08,1.13-.33,1.57Z"/>
        </g>
        <g>
          <path class="cls-21" d="M104.26,85.97s.77,1.76-1.33,2.43c0,0,.39-1.04-1.69-1.25,0,0-1.94-.26-1.64-1.34,0,0,1.02-1.68,2.37-1.71,0,0,1.37-.41,2.29,1.87Z"/>
          <path class="cls-22" d="M102.24,89.07l.3-.81h0s.02-.1-.05-.22c-.07-.11-.35-.37-1.28-.47-.15-.02-1.39-.2-1.86-.92-.19-.28-.24-.61-.15-.95l.02-.06.03-.05c.05-.08,1.14-1.85,2.68-1.91.33-.07,1.79-.21,2.74,2.13.04.1.36.92,0,1.74-.26.58-.8,1.01-1.59,1.26l-.83.26ZM100,85.97c-.02.1.01.16.05.21.21.32.94.51,1.26.55.96.1,1.61.39,1.91.87.04.06.07.12.09.18.28-.16.47-.35.57-.59.23-.51,0-1.05,0-1.06h0c-.75-1.88-1.77-1.64-1.78-1.63l-.06.02h-.06c-.88.02-1.69,1-1.98,1.45Z"/>
        </g>
        <g>
          <path class="cls-21" d="M101.53,90.62s-2.82-.5-2.95-1.84c0,0-.06-2.2,3.3-1.66,0,0,1.13.55,1.21,1.54,0,0-.16,1.35-1.56,1.96Z"/>
          <path class="cls-22" d="M101.58,91.06l-.13-.02c-.32-.06-3.14-.6-3.3-2.22v-.03s-.02-.91.71-1.55c.67-.58,1.7-.77,3.08-.54h.06s.06.04.06.04c.06.03,1.35.67,1.45,1.89v.04s0,.04,0,.04c0,.07-.2,1.6-1.81,2.3l-.12.05ZM99,88.75c.1.73,1.63,1.25,2.48,1.42.94-.47,1.15-1.33,1.19-1.53-.08-.61-.74-1.02-.92-1.12-1.06-.16-1.85-.04-2.31.35-.39.34-.43.79-.43.88Z"/>
        </g>
        <g>
          <path class="cls-4" d="M102.15,87.54s1.17.43.84,1.31c0,0-.54,1.15-1.3,1.05,0,0-.62-.47-.39-1.14,0,0-2.13.13-1.2-1.18,0,0,.97-.45,2.05-.03Z"/>
          <path class="cls-22" d="M102.24,87.32c-.09.19-.19.36-.29.54-.1.17-.21.34-.32.51-.11.16-.24.33-.37.47-.14.14-.3.29-.48.35.15-.12.24-.29.31-.46.07-.17.12-.35.17-.53.04-.18.08-.37.11-.55.03-.18.06-.37.07-.55l.81.23Z"/>
        </g>
        <g>
          <path class="cls-4" d="M103.34,85.11s.99,1.25.54,2.07c0,0,.06.5-.67.29,0,0-1.11-.85-.79-1.48,0,0-2.22.02-1.12-1.15,0,0,1.06-.67,2.04.27Z"/>
          <path class="cls-22" d="M103.46,84.9c-.12.18-.24.33-.36.49-.12.16-.25.31-.39.46-.14.15-.28.29-.44.42-.16.12-.33.24-.53.27.17-.1.27-.25.37-.41.09-.16.17-.33.24-.5.07-.17.13-.35.19-.53.06-.18.11-.36.15-.53l.77.34Z"/>
        </g>
        <g>
          <path class="cls-4" d="M104.51,82.38s.99,1.25.54,2.08c0,0-.02.45-.58.58,0,0-1.11-.85-.79-1.48,0,0-1.93-.55-.83-1.72,0,0,.64-.02,1.66.54Z"/>
          <path class="cls-22" d="M104.82,82.27c-.12.18-.24.33-.36.49-.12.16-.25.31-.39.46-.14.15-.28.29-.44.42-.15.12-.33.24-.53.27.17-.1.27-.25.37-.41.09-.16.17-.33.24-.51.07-.17.13-.35.19-.53.06-.18.11-.36.15-.53l.77.34Z"/>
        </g>
        <g>
          <g>
            <path class="cls-21" d="M97.9,80.87s1.18-1.22,3.39-.55l.75.41s1.42.17.07,3.1c0,0-.16,1.24-1,1.31,0,0-1.35.25-1.38-2.44"/>
            <path class="cls-22" d="M101.04,85.57c-.2,0-.54-.05-.87-.32-.55-.45-.83-1.31-.85-2.54h.85c.01,1.24.33,1.71.52,1.87.19.16.36.14.37.14h.02s0,0,0,0c.47-.04.61-.93.61-.94v-.06s.03-.06.03-.06c.7-1.53.55-2.13.46-2.32-.08-.16-.2-.19-.21-.19h-.08s-.06-.05-.06-.05l-.71-.39c-1.92-.56-2.92.44-2.93.45l-.61-.59c.06-.06,1.39-1.4,3.82-.66l.08.03.7.38c.17.04.5.18.72.57.36.65.23,1.67-.39,3.05-.09.59-.47,1.53-1.36,1.61-.03,0-.07,0-.13,0Z"/>
          </g>
          <path class="cls-4" d="M102.34,81.53s-.07,1.7-.85,2.62c0,0-1.56.47-.9-2.11,0,0,.07-1.05,1.75-.51Z"/>
        </g>
      </g>
    </g>
  </g>
  <g>
    <g>
      <path class="cls-21" d="M79.74,107.63l-.83-.63,1.32-5.74.16-1.12s-.05.04-.05,0v-.78c.12-1.3-1.83-2.82-3.25-3.26-1.9-.58-3.32.69-3.7,3.32h0s-.08-.28,0,0l.1,5.48s.01,2.2-.29,4.25c0,0-.44,1.7.89,1.96,0,0,5.97-.08,6.33-.1,0,0,1.22-.03,1.58-.35,0,0,.77-1.26-2.27-3.02Z"/>
      <path class="cls-22" d="M74.06,111.52h-.04c-.45-.1-.8-.33-1.02-.68-.43-.69-.25-1.59-.2-1.78.29-1.99.28-4.14.28-4.16l-.1-5.4s-.02-.09-.03-.15l-.06-.39.16-.04c.28-1.41.87-2.43,1.73-2.97.7-.44,1.55-.53,2.45-.26,1.57.48,3.68,2.12,3.55,3.69v.46s.03.02.03.02v.31s-.16,1.19-.16,1.19l-1.26,5.47.59.45c1.44.83,2.28,1.69,2.49,2.55.15.6-.05.97-.09,1.04l-.03.06-.05.04c-.45.39-1.53.45-1.85.45-.36.02-6.09.1-6.34.1h-.04ZM73.81,99.44l.1,5.44c0,.1,0,2.26-.29,4.31v.04c-.06.2-.14.79.09,1.14.09.15.23.24.43.28,2.08-.03,5.99-.09,6.27-.1.5-.01,1.04-.1,1.25-.2.04-.23.05-1.11-2.14-2.38l-.04-.03-1.05-.79,1.38-5.99.12-.83-.02-.2v-.83c.1-.98-1.57-2.39-2.95-2.82-.67-.2-1.25-.15-1.75.16-.71.45-1.21,1.43-1.41,2.77Z"/>
    </g>
    <path class="cls-4" d="M81.74,109.51s-1.68-1.99-2.9-1.9c0,0-2.72-.39-3.56,1.99,0,0-.42,1.12,5.55.58,0,0,1.3-.16.91-.67Z"/>
    <g>
      <path class="cls-13" d="M81.81,111.83l-7.8.34c-.42.02-.78-.31-.8-.73h0c-.02-.42.31-.78.73-.8l7.8-.34c.42-.02.78.31.8.73h0c.02.42-.31.78-.73.8Z"/>
      <path class="cls-22" d="M73.85,112.5c-.51,0-.93-.4-.95-.91v-.26c-.03-.53.37-.97.9-1l8.06-.35c.52-.01.97.39,1,.91v.26c.03.53-.37.97-.9,1h0l-8.06.35s-.03,0-.04,0ZM81.9,110.61s0,0-.01,0l-8.06.35c-.18,0-.31.16-.31.33v.26c.02.18.17.31.35.31l8.06-.35c.18,0,.31-.16.31-.33v-.26c-.02-.17-.16-.31-.33-.31Z"/>
    </g>
    <g>
      <g>
        <path class="cls-12" d="M73.36,107.36s2.53.39,3.46,3.08h-1.74s.31-1.14-1.95-1.8l.23-1.28Z"/>
        <path class="cls-22" d="M77.26,110.77h-2.61s.11-.41.11-.41c0-.03.16-.85-1.73-1.4l-.28-.08.34-1.87.31.05c.11.02,2.73.45,3.71,3.29l.15.42ZM75.39,110.12h.96c-.74-1.63-2.12-2.19-2.74-2.37l-.12.68c1.49.5,1.84,1.24,1.9,1.69Z"/>
      </g>
      <g>
        <path class="cls-12" d="M80.16,107.71s-1.93.06-2.88,2.74h1.74s.13-1.13,2.39-1.75l-1.26-.98Z"/>
        <path class="cls-22" d="M79.02,110.78h-2.19s.15-.43.15-.43c1.02-2.85,3.08-2.94,3.17-2.95h.11s1.84,1.44,1.84,1.44l-.61.17c-1.99.55-2.16,1.49-2.16,1.5l-.04.27h-.27ZM77.75,110.13h1.05c.16-.38.63-1.06,1.96-1.56l-.68-.54c-.36.05-1.55.36-2.32,2.09Z"/>
      </g>
    </g>
    <g>
      <path class="cls-21" d="M79.56,102.78l-.41-.12c-1.36,1.62-3.81,1.84-5.43.47l-1.45-1.22c-1.62-1.36-1.84-3.81-.47-5.43h0c1.36-1.62,3.72-1.48,5.98-.09l.81.37c1.62,1.36,2.33,4.39.96,6.01Z"/>
      <path class="cls-22" d="M76.19,104.46c-.97,0-1.95-.33-2.75-1l-1.45-1.22c-.87-.73-1.41-1.76-1.51-2.9-.1-1.14.25-2.25.98-3.12,1.43-1.7,3.92-1.78,6.51-.19l.84.39.04.04c1.74,1.47,2.59,4.74,1.02,6.61l-.18.21-.42-.12c-.83.87-1.96,1.32-3.09,1.32ZM74.44,95.74c-.94,0-1.75.34-2.32,1.02-.59.7-.87,1.59-.79,2.5.08.92.51,1.74,1.21,2.33l1.45,1.22c.7.59,1.59.87,2.5.79.92-.08,1.74-.51,2.33-1.21l.18-.21.39.11c.43-.65.57-1.56.39-2.54-.19-1.04-.72-2.02-1.42-2.63l-.8-.37c-1.1-.68-2.18-1.02-3.11-1.02Z"/>
    </g>
    <path class="cls-21" d="M75.94,104.59l.19.89q-1.78,1.08-2.46-3.47l-.04-2.04c.19-1.45,1.64-2.46,3.21-2.25h0c1.58.21,3.36.69,3.17,2.14l-.47,2.73c-.19,1.45-2.02,2.21-3.6,2.01Z"/>
    <path class="cls-4" d="M79.33,101.52h0c-.81.79-2.13.78-2.92-.04l-1.8-1.84c-.79-.81-.78-2.13.04-2.92h0c.81-.79,2.44-.42,3.24.39l1.44,1.02c.79.81.82,2.6,0,3.4Z"/>
    <path class="cls-4" d="M76.3,103.1v3.99s1.05-.28,2.11-.1l1.47-6.18s-2.99-.59-3.58,2.29Z"/>
  </g>
  <g>
    <g>
      <path class="cls-21" d="M92.22,100.48l-.94-.43.05-5.89-.09-1.12s-.04.05-.05,0l-.16-.76c-.17-1.3-2.4-2.36-3.88-2.48-1.98-.16-3.09,1.39-2.9,4.04h0s-.14-.25,0,0l1.29,5.33s.49,2.15.64,4.21c0,0-.06,1.75,1.3,1.72,0,0,5.81-1.38,6.16-1.47,0,0,1.18-.29,1.47-.68,0,0,.48-1.4-2.88-2.46Z"/>
      <path class="cls-22" d="M87.43,105.51c-.43,0-.81-.15-1.1-.44-.57-.58-.59-1.5-.58-1.69-.15-2-.62-4.1-.63-4.12l-1.28-5.27-.03-.06.12-.07h-.11c-.12-1.64.23-2.92,1.02-3.7.59-.59,1.4-.86,2.33-.78,1.64.13,4.05,1.27,4.27,2.83l.1.45h.04s.09.35.09.35l.09,1.14v.02l-.04,5.62.67.31c1.58.5,2.59,1.16,2.99,1.95.28.55.16.96.13,1.04l-.02.06-.04.05c-.35.48-1.4.77-1.71.84-.34.09-5.93,1.42-6.16,1.47h-.09s-.03.01-.05.01ZM84.66,93.77l1.28,5.29c.02.09.5,2.21.65,4.28v.02s0,.02,0,.02c0,.2.05.8.34,1.1.12.12.28.18.48.18,2.02-.48,5.83-1.38,6.1-1.46.48-.12,1-.33,1.18-.47,0-.23-.2-1.1-2.6-1.86l-.05-.02-1.19-.55.05-6.15-.06-.83-.07-.21-.17-.8c-.13-.98-2.06-2-3.5-2.11-.69-.06-1.26.13-1.67.54-.59.59-.87,1.66-.77,3.01Z"/>
    </g>
    <path class="cls-4" d="M94.59,101.88s-2.07-1.58-3.24-1.23c0,0-2.74.21-3.04,2.71,0,0-.16,1.18,5.54-.64,0,0,1.23-.44.75-.85Z"/>
    <g>
      <path class="cls-13" d="M95.16,104.13l-7.54,2.03c-.41.11-.83-.13-.94-.54h0c-.11-.41.13-.83.54-.94l7.54-2.03c.41-.11.83.13.94.54h0c.11.41-.13.83-.54.94Z"/>
      <path class="cls-22" d="M87.33,106.53c-.17,0-.33-.04-.48-.13-.22-.13-.38-.33-.45-.58l-.07-.25c-.07-.25-.03-.5.1-.72.13-.22.33-.38.58-.45l7.79-2.09c.25-.07.5-.03.72.1.22.13.38.33.45.58l.07.25c.14.51-.17,1.03-.67,1.17h0l-7.79,2.09c-.08.02-.17.03-.25.03ZM95.05,102.91s-.06,0-.08.01l-7.79,2.09c-.08.02-.15.08-.19.15-.04.07-.05.16-.03.24l.07.25c.02.08.08.15.15.19.07.04.16.05.24.03l7.79-2.09c.17-.05.27-.22.23-.39l-.07-.25c-.04-.14-.17-.24-.31-.24Z"/>
    </g>
    <g>
      <g>
        <path class="cls-12" d="M85.94,101.6s2.55-.17,4.04,2.26l-1.7.37s.06-1.18-2.29-1.32l-.05-1.3Z"/>
        <path class="cls-22" d="M87.94,104.63l.02-.41s-.03-.87-1.99-.99l-.29-.02-.08-1.9.31-.02c.11,0,2.76-.15,4.34,2.41l.24.38-2.55.55ZM86.29,102.62c1.56.16,2.06.81,2.22,1.24l.93-.2c-1.08-1.43-2.55-1.69-3.19-1.73l.03.69Z"/>
      </g>
      <g>
        <path class="cls-12" d="M92.65,100.47s-1.87.47-2.22,3.29l1.7-.37s-.12-1.14,1.95-2.24l-1.44-.69Z"/>
        <path class="cls-22" d="M90.07,104.17l.06-.44c.37-3,2.37-3.54,2.45-3.56l.11-.03,2.11,1.01-.56.3c-1.82.97-1.79,1.92-1.78,1.93l.02.27-.27.07-2.14.46ZM92.63,100.81c-.34.13-1.43.69-1.81,2.54l1.02-.22c.08-.41.38-1.18,1.57-1.95l-.78-.37Z"/>
      </g>
    </g>
    <g>
      <path class="cls-21" d="M90.99,95.79l-.42-.03c-.98,1.88-3.32,2.62-5.2,1.64l-1.68-.87c-1.88-.98-2.62-3.32-1.64-5.2h0c.98-1.88,3.31-2.25,5.82-1.39l.87.19c1.88.98,3.22,3.78,2.25,5.66Z"/>
      <path class="cls-22" d="M87.14,98.26c-.68,0-1.35-.16-1.96-.48l-1.68-.87c-1.01-.53-1.76-1.42-2.1-2.51-.34-1.09-.24-2.25.28-3.26,1.03-1.97,3.44-2.58,6.31-1.6l.9.19.05.03c1,.52,1.89,1.53,2.39,2.7.53,1.26.55,2.55.04,3.53l-.13.24-.43-.03c-.54.89-1.37,1.54-2.37,1.86-.43.13-.86.2-1.3.2ZM85.45,89.92c-1.39,0-2.48.55-3.02,1.6-.42.81-.5,1.74-.22,2.61.28.88.87,1.59,1.68,2.01l1.68.87c.81.42,1.74.5,2.61.22.88-.28,1.59-.87,2.01-1.68l.13-.24.4.02c.28-.73.22-1.64-.18-2.56-.41-.98-1.14-1.82-1.95-2.26l-.86-.19c-.82-.28-1.59-.42-2.28-.42Z"/>
    </g>
    <path class="cls-21" d="M87.86,98.34l.38.82q-1.51,1.44-3.15-2.86l-.48-1.98c-.13-1.45,1.06-2.75,2.65-2.9h0c1.59-.14,3.43-.05,3.56,1.4l.13,2.77c.13,1.45-1.49,2.6-3.08,2.74Z"/>
    <path class="cls-4" d="M90.5,94.6h0c-.62.95-1.91,1.22-2.86.6l-2.15-1.41c-.95-.62-1.22-1.91-.6-2.86h0c.62-.95,2.29-.94,3.25-.32l1.63.68c.95.62,1.36,2.36.74,3.31Z"/>
    <path class="cls-4" d="M87.89,96.8l.85,3.89s.98-.51,2.05-.55l.1-6.35s-3.04.07-3,3.02Z"/>
  </g>
  <g>
    <g>
      <path class="cls-26" d="M85.93,86.77c-.99,1.56-6.77,3.94-6.77,3.94,0,0,8.12-4,0,0-8.12,4-16.91,1.43-16.91,1.43,0,0,.22.29,0,0-.22-.29-.57-5.84-.57-5.84,0,0-.25-5.09,3.93-9.29,0,0,9.52,1.99,13.37-3.11,0,0,2.35.58,2.82,1.55l4.03,10.87.18.23s-.05.18-.08.22Z"/>
      <path class="cls-22" d="M68.91,93.4c-3.81,0-6.58-.79-6.78-.85l.04-.15-.16.12-.1-.13h0s-.78-1.02-.78-1.02l.57.17c-.11-.77-.25-2.26-.44-5.21-.01-.22-.21-5.33,4.06-9.62l.16-.16.22.05c.09.02,9.31,1.87,12.95-2.95l.17-.22.27.07c.26.06,2.56.66,3.1,1.78l.02.04,4.01,10.81.27.36-.06.21c-.07.24-.11.3-.13.33-1.03,1.61-6.29,3.83-6.95,4.1-3.63,1.79-7.37,2.29-10.42,2.29ZM62.59,91.8c1.4.35,9.21,2.07,16.38-1.46l3.61-1.78.03.07c1.3-.69,2.49-1.43,2.92-2.01l-.07-.09-4.04-10.9c-.27-.51-1.44-1-2.27-1.24-3.76,4.6-11.89,3.37-13.39,3.09-3.83,3.98-3.66,8.76-3.65,8.81.14,2.28.35,4.81.48,5.51Z"/>
    </g>
    <g class="cls-29">
      <path class="cls-28" d="M64.07,82.41s5.87,2.52,9.44,1.76c0,0-.69,2.97-3.61,6.71,0,0-1.85,1.33-5.63-.3,0,0-.68-3.43-.2-8.16Z"/>
    </g>
    <g>
      <g>
        <path class="cls-25" d="M76.4,91.58c-1.27.82-6.3,1.14-6.3,1.14l.47-.71c5.44-6.75,6.42-16,6.42-16,1.05-.79,2.11-1.9,2.11-1.9l1.44.62s3.14,1.09,6.28,12.26l-.39.37-.47.02s.15.8-9.48,4.22"/>
        <path class="cls-10" d="M69.29,93.19l.95-1.45c5.29-6.57,6.32-15.69,6.33-15.78l.02-.18.15-.11c1.01-.76,2.05-1.84,2.06-1.85l.2-.21,1.7.74c.33.13,3.47,1.65,6.52,12.54l.07.24-.68.65-.42.02c-.55.58-2.56,1.72-9.57,4.21l-.02-.05c-1.36.84-5.95,1.15-6.47,1.19l-.84.05ZM77.39,76.23c-.18,1.34-1.45,9.75-6.46,16,1.68-.15,4.44-.48,5.24-1.01l.37.58-.21-.6c7.31-2.6,8.86-3.64,9.17-3.92l-.06-.3.79-.04.09-.08c-2.97-10.44-5.91-11.72-5.94-11.73h-.03s-1.17-.52-1.17-.52c-.34.35-1.06,1.04-1.81,1.63Z"/>
      </g>
      <g class="cls-30">
        <path class="cls-18" d="M69.9,93.67s5.37-5.81,7.63-17.87l1.09-1.06s1.45.04,1.36.54c-1.45,8.23-3.23,12.36-5.87,17.26l-4.22,1.12Z"/>
      </g>
      <g class="cls-30">
        <path class="cls-18" d="M76.61,92.78s4.23-8.21,5.14-16.61l2.12,3.34s-1.8,9.21-4.35,12.51l-2.91.77Z"/>
      </g>
      <path class="cls-18" d="M85.1,82.93s-.35,4.7-1.9,6.56l3.72-1.22-1.81-5.34Z"/>
      <g class="cls-31">
        <path class="cls-20" d="M73.04,88.92s7.5-1.14,12.6-4.44l-.69-2.19s-4.31,2.32-10.22,3.71c0,0-.85,1.88-1.69,2.93Z"/>
      </g>
      <g class="cls-31">
        <path class="cls-20" d="M75.39,83.78s4.9-.97,8.8-3.37l-1.13-2.32s-1.98,1.18-6.66,2.76c0,0-.24,1.04-1.01,2.93Z"/>
      </g>
    </g>
  </g>
  <g>
    <g>
      <g>
        <path class="cls-25" d="M64.48,97.63s18.33-5.87,21.75-13.09l3.14,4.27s-2.83,5.81-12.29,10.26c0,0-6.51,3.35-10.94,3.32l-1.66-4.75Z"/>
        <path class="cls-10" d="M66.2,102.81h-.37s-1.9-5.45-1.9-5.45l.41-.13c.18-.06,18.2-5.9,21.5-12.87l.3-.64,3.71,5.05-.11.23c-.12.24-3.01,5.99-12.49,10.45-.25.13-6.58,3.36-11.06,3.36ZM65.02,97.9l1.41,4.06c4.27-.11,10.38-3.23,10.45-3.27,8.18-3.85,11.36-8.76,11.98-9.85l-2.58-3.51c-3.82,6.49-18.54,11.65-21.27,12.56Z"/>
      </g>
      <g class="cls-30">
        <path class="cls-18" d="M64.73,97.85l2.12-.73,1.58,4.69s-1.45.43-2.35.35l-1.35-4.31Z"/>
      </g>
      <g class="cls-30">
        <path class="cls-18" d="M68.73,96.56c.05.18,1.63,4.83,1.63,4.83l2.2-.7s-1.85-4.71-1.86-5.05l-1.97.92Z"/>
      </g>
      <g class="cls-30">
        <path class="cls-18" d="M72.08,94.99s1.67,4.48,2.09,5.06l1.85-.77s-1.33-3.13-1.96-5.04l-1.99.75Z"/>
      </g>
      <g class="cls-30">
        <polygon class="cls-18" points="75.35 93.47 77.64 98.64 79.75 97.38 77.27 92.45 75.35 93.47"/>
      </g>
      <g class="cls-30">
        <path class="cls-18" d="M85.58,86.3l2.6,3.68.94-1.28-2.7-3.76s-.84,1.15-.85,1.36Z"/>
      </g>
      <g class="cls-31">
        <path class="cls-20" d="M79.31,93.41c-7.29,4.38-13.89,5.8-13.89,5.8l.51,1.64c5.7-.53,14.29-5.78,14.29-5.78l-.92-1.66Z"/>
      </g>
      <g class="cls-31">
        <path class="cls-20" d="M85.73,88.42s.84-.51,1.69-1.91l.81,1.22s-.19,1.06-1.61,2.15l-.89-1.46Z"/>
      </g>
    </g>
    <g>
      <g>
        <path class="cls-25" d="M78.47,91.52s1.81,3.29,3.63,6.15c0,0,3.63-1.63,6.08-4.77l-3.65-5.78s-4.8,3.57-6.06,4.41Z"/>
        <path class="cls-10" d="M81.94,98.21l-.2-.31c-1.81-2.84-3.62-6.14-3.64-6.17l-.19-.34.32-.22c1.24-.83,5.99-4.36,6.04-4.4l.37-.27,4.05,6.42-.18.23c-2.49,3.18-6.09,4.83-6.24,4.9l-.33.15ZM79.03,91.65c.48.87,1.84,3.26,3.22,5.47.9-.46,3.49-1.91,5.4-4.25l-3.24-5.14c-1.05.78-4.07,3.01-5.39,3.93Z"/>
      </g>
      <g class="cls-30">
        <path class="cls-18" d="M80.82,90.26l3.49,5.74-2.06,1.15s-2.73-4.19-3.34-5.5l1.92-1.38Z"/>
      </g>
      <g class="cls-30">
        <path class="cls-18" d="M82.88,88.91l3.51,5.44s1.17-.71,1.33-1.52l-3.37-5.18-1.47,1.25Z"/>
      </g>
      <g class="cls-31">
        <path class="cls-20" d="M80.08,93.71s2.26-1.21,5.69-4.07l1.26,1.8s-3.03,2.98-5.72,4.17l-1.23-1.89Z"/>
      </g>
    </g>
  </g>
  <g>
    <g>
      <g>
        <path class="cls-17" d="M88.33,89.52s-10.15,8.93-24.71,7.63c0,0-.67-.41-.8-.87,0,0-.83-2.76-.92-3.39-.07-.53.08-.76.64-.56,0,0,8.08,2.99,23.98-6.99,0,0-.16-1.12.77-.24,0,0,1.89,4.05,1.04,4.41Z"/>
        <path class="cls-22" d="M66.47,97.71c-.94,0-1.91-.04-2.89-.13h-.1s-.09-.06-.09-.06c-.14-.08-.82-.53-.98-1.11-.08-.28-.84-2.8-.93-3.45-.02-.17-.09-.67.26-.96.23-.18.55-.2.95-.06.08.03,8.05,2.75,23.4-6.82,0-.25.08-.56.37-.71.46-.24.94.22,1.12.39l.06.06.03.07c.38.82,1.6,3.57,1.22,4.55-.08.21-.21.33-.33.39-.69.59-9.52,7.83-22.1,7.83ZM63.76,96.74c.92.08,1.83.12,2.72.12,12.72,0,21.48-7.57,21.57-7.65l.07-.05c.13-.39-.4-2.1-1.16-3.75l.02.16-.23.15c-15.9,9.99-24.02,7.16-24.35,7.03-.03-.01-.06-.02-.09-.03,0,.03,0,.08.01.13.07.49.68,2.57.91,3.33.05.18.32.43.53.58Z"/>
      </g>
      <path class="cls-14" d="M87.33,85.74c-.81-.59-.74.24-.74.24-14.68,8.71-23.08,7.13-23.08,7.13-.14-.03-.18.16-.27.17.64,1.28,1.72,3.24,4.68,3.64,14.71-1.72,20.13-7.73,20.13-7.73.83-.34-.72-3.46-.72-3.46Z"/>
      <path class="cls-24" d="M64.62,93.21s9.55.38,21.78-7.16c0,0,.82-1.14,1.2.12,0,0,1.01,2.1.65,2.95,0,0,.3-.18-1.46-1.8,0,0-12.26,7.75-21.23,6.57,0,0-2.72-.7-.94-.68Z"/>
    </g>
    <g>
      <g>
        <path class="cls-17" d="M85.39,89.68c.7,1.88-.26,3.96-2.13,4.66-1.88.7-3.96-.26-4.66-2.13-.7-1.88.26-3.96,2.13-4.66,1.88-.7,3.96.26,4.66,2.13Z"/>
        <path class="cls-22" d="M81.99,94.99c-.57,0-1.15-.12-1.68-.37-.98-.45-1.73-1.26-2.11-2.27-.38-1.01-.34-2.11.11-3.09.45-.98,1.26-1.73,2.27-2.11,1.01-.38,2.11-.34,3.09.11.98.45,1.73,1.26,2.11,2.27h0c.38,1.01.34,2.11-.11,3.09-.45.98-1.26,1.73-2.27,2.11-.46.17-.94.26-1.41.26ZM81.99,87.74c-.38,0-.75.07-1.12.2-.8.3-1.44.89-1.79,1.67-.36.78-.39,1.65-.09,2.45.3.8.89,1.44,1.67,1.79.78.36,1.65.39,2.45.09.8-.3,1.44-.89,1.79-1.67.36-.78.39-1.65.09-2.45-.3-.8-.89-1.44-1.67-1.79-.42-.19-.88-.29-1.33-.29Z"/>
      </g>
      <path class="cls-14" d="M84.96,89.91c.59,1.59-.14,3.33-1.62,3.88-1.49.55-3.17-.29-3.76-1.88s.14-3.33,1.62-3.88c1.49-.55,3.17.29,3.76,1.88Z"/>
      <g>
        <g>
          <path class="cls-17" d="M84.5,89.69c.59,1.16.19,2.59-.9,3.19-1.09.6-2.45.15-3.05-1.01-.59-1.16-.19-2.59.9-3.19,1.09-.6,2.45-.15,3.05,1.01Z"/>
          <path class="cls-22" d="M82.58,93.46c-.24,0-.49-.04-.72-.11-.68-.21-1.24-.68-1.58-1.34-.67-1.31-.21-2.93,1.02-3.61.59-.32,1.26-.39,1.91-.2.68.21,1.24.68,1.58,1.34h0c.67,1.31.21,2.93-1.02,3.61-.37.2-.77.31-1.18.31ZM82.48,88.73c-.3,0-.6.08-.88.23-.94.52-1.28,1.76-.77,2.76.26.5.68.86,1.2,1.02.48.15.98.09,1.42-.15.94-.52,1.28-1.76.77-2.76h0c-.26-.5-.68-.86-1.2-1.02-.18-.05-.36-.08-.54-.08Z"/>
        </g>
        <path class="cls-14" d="M84.28,89.95c.42,1.04.07,2.16-.77,2.51s-1.86-.21-2.28-1.25c-.42-1.04-.07-2.16.77-2.51.84-.35,1.86.21,2.28,1.25Z"/>
        <path class="cls-24" d="M84.29,89.97c.29.79.07,1.6-.51,1.82-.57.21-1.28-.26-1.57-1.05-.29-.79-.07-1.6.51-1.82.57-.21,1.28.26,1.57,1.05Z"/>
      </g>
    </g>
  </g>
  <g>
    <g>
      <path class="cls-21" d="M59.48,76.51s-4.22.45-8.43,3.06c0,0,3.08,2.71,2.55,5.9,0,0,3.16-1.48,5.81-2.6.94-.4,3.56,1.02,5.51,1.44,2.26.49,4.93-3.05,2.03-5.28-.4-.31-3.88-2.72-7.47-2.52Z"/>
      <path class="cls-22" d="M53.05,86.2l.13-.8c.49-2.92-2.38-5.49-2.41-5.51l-.43-.38.48-.3c4.24-2.63,8.43-3.1,8.6-3.12h.02c3.96-.23,7.72,2.58,7.75,2.61,1.38,1.07,1.8,2.57,1.13,4.03-.67,1.43-2.17,2.29-3.5,2-.77-.17-1.63-.48-2.45-.78-1.06-.39-2.37-.87-2.8-.68-2.62,1.11-5.77,2.58-5.8,2.59l-.73.34ZM51.74,79.65c.78.81,2.38,2.78,2.35,5.13,1.07-.5,3.26-1.49,5.16-2.3.74-.31,1.98.14,3.42.67.8.29,1.63.59,2.34.75.94.21,2.06-.47,2.55-1.53.24-.51.63-1.84-.87-3-.03-.03-3.53-2.64-7.18-2.43-.22.03-3.96.49-7.77,2.72Z"/>
    </g>
    <g>
      <path class="cls-13" d="M54.54,77.58s3.12,2.19,2.77,6.33l-4.61,2.45s.56-3.86-2.76-6.75c0,0,3.27-1.58,4.59-2.03Z"/>
      <path class="cls-22" d="M52.17,87.13l.12-.83c.02-.15.48-3.67-2.62-6.37l-.48-.42.58-.28c.13-.06,3.31-1.6,4.64-2.05l.2-.07.18.12c.14.1,3.32,2.38,2.95,6.71l-.02.23-5.55,2.95ZM50.69,79.73c2.15,2.16,2.47,4.66,2.48,5.91l3.74-1.99c.17-3.17-1.84-5.09-2.44-5.59-1.02.38-2.85,1.23-3.77,1.67Z"/>
    </g>
    <path class="cls-12" d="M56.85,83.57s.13-5.52-5.25-3.37c0,0,1.85,1.78,1.57,5.26l3.68-1.89Z"/>
    <g>
      <path class="cls-22" d="M54.79,82.68c-.23-.04-.43-.12-.64-.21-.2-.09-.39-.19-.57-.31-.18-.12-.36-.24-.52-.39-.16-.14-.32-.3-.46-.49.23.04.44.12.64.21.2.09.39.19.57.31.18.12.36.24.52.39.16.14.32.3.46.49Z"/>
      <path class="cls-22" d="M53.85,80.54c.06.23.08.45.08.67,0,.22-.01.44-.04.65-.03.21-.07.43-.13.64-.06.21-.13.42-.25.62-.06-.23-.08-.45-.08-.67,0-.22.01-.44.04-.65.03-.21.07-.43.13-.64.06-.21.13-.42.25-.62Z"/>
    </g>
    <g>
      <path class="cls-22" d="M56.32,81.9c-.23-.04-.43-.12-.63-.21-.2-.09-.39-.19-.57-.31-.18-.12-.36-.24-.52-.39-.16-.14-.32-.3-.46-.49.23.04.44.12.64.21.2.09.39.19.57.31.18.12.36.24.52.39.16.14.32.3.46.49Z"/>
      <path class="cls-22" d="M55.38,79.76c.06.23.08.45.08.67,0,.22-.01.44-.04.65-.03.21-.07.43-.13.64-.06.21-.13.42-.25.62-.06-.23-.08-.45-.08-.67,0-.22.01-.44.04-.65.03-.21.07-.43.13-.64.06-.21.13-.42.25-.62Z"/>
    </g>
    <path class="cls-4" d="M56.93,78.82s1.49,1.69,1.05,4.08c0,0,.64-.4,1.95-.66,0,0,2.15.38,4.18,1.26,0,0,2.11,1.04,3.03-.98,0,0,.6-1.58-3.11-3.33,0,0-1.66-1.03-3.97-1.25,0,0-.7-.29-3.13.88Z"/>
    <g>
      <g>
        <path class="cls-21" d="M49.01,79.85s1.58-.62,3.08,1.7c0,0,2.21,2.67.51,6.79,0,0-2.35.13-3.08.95,0,0-1.29.42-1.73-.63,0,0-2.2.22-2.13-.53,0,0,.4-1.32-.4-2.64,0,0-.13-.88.3-1.27l-.15-1.25s0-.14.54-.35l-.05-1.26s1.67-1,3.11-1.52Z"/>
        <path class="cls-22" d="M48.95,89.8c-.5,0-1.06-.16-1.41-.7-.59.04-1.65.03-2.08-.4-.16-.16-.24-.38-.22-.61l.02-.08s.33-1.17-.36-2.3l-.04-.07v-.08c-.03-.1-.14-.92.27-1.47l-.13-1.1c-.01-.31.28-.51.53-.64l-.05-1.22.22-.13c.07-.04,1.72-1.02,3.18-1.55.16-.06,1.95-.64,3.56,1.85.23.29,2.27,3.04.55,7.2l-.1.25-.27.02c-.84.05-2.34.31-2.78.81l-.08.09-.11.04c-.18.06-.43.11-.7.11ZM48.06,88.21l.12.29c.24.57.88.48,1.12.42.74-.7,2.34-.92,3-.98,1.41-3.7-.52-6.09-.54-6.12l-.03-.04c-1.27-1.97-2.52-1.55-2.57-1.54l-.15-.4.14.4c-1.09.39-2.33,1.08-2.82,1.36l.05,1.31-.28.11c-.11.04-.19.08-.24.11l.15,1.27-.16.15c-.18.16-.2.58-.18.82.69,1.21.51,2.4.43,2.78.22.12.97.17,1.65.11l.31-.03Z"/>
      </g>
      <path class="cls-4" d="M50.91,82.47s1.95,1.48,1.16,5.47c0,0-.73-.3-2.68.82,0,0-1.06-.03-.89-.95,0,0,.32-1.24,1.13-1.82,0,0-1.53-.17-2.18,2.14,0,0-.85.35-1.15-.08,0,0,.35-.95.16-2.05,0,0-.21-1.59.8-2.18,0,0-.69-.5.03-1.29,0,0,1.02-.88,2.36-.9,0,0,.8.32,1.27.85Z"/>
      <g>
        <path class="cls-22" d="M47.7,89.18s-.05-.04-.07-.06c-.02-.02-.03-.04-.05-.05-.03-.03-.05-.07-.08-.11-.05-.07-.09-.15-.12-.23-.06-.16-.09-.33-.07-.5.02-.33.16-.59.31-.81.16-.21.33-.39.52-.55.18-.16.38-.3.58-.43l.02-.02h0c.1-.04.21-.13.29-.23.08-.1.14-.22.16-.36.02-.13,0-.28-.02-.42-.02-.07-.04-.14-.06-.21l-.09-.2.13.19c.04.07.07.13.1.2.06.14.1.29.11.46,0,.16-.04.33-.12.48-.08.15-.19.28-.35.39l.03-.02c-.16.16-.32.32-.45.49-.14.17-.25.35-.34.53-.08.18-.12.36-.1.5,0,.07.03.13.07.18.02.03.04.05.06.07.01,0,.02.02.03.02,0,0,.01,0,.01,0,0,0,.02,0,0,0l-.5.68Z"/>
        <path class="cls-22" d="M48.69,86.98c-.28-.16-.58-.31-.87-.46-.29-.14-.59-.3-.9-.39.16-.02.34-.03.5-.03.17,0,.34,0,.5.01.34.01.67.03,1.01.06l-.25.81Z"/>
        <polygon class="cls-22" points="45.39 83.84 47.83 83.15 45.74 84.61 45.39 83.84"/>
        <polygon class="cls-22" points="45.76 82.25 47.66 81.71 46.15 82.99 45.76 82.25"/>
      </g>
    </g>
  </g>
  <g>
    <g>
      <path class="cls-17" d="M58.94,83.45c-.74,8.17-7.21,14.26-14.46,13.6-7.25-.66-12.52-7.81-11.78-15.98.74-8.17,7.21-14.26,14.46-13.6,7.25.66,12.52,7.81,11.78,15.98Z"/>
      <path class="cls-22" d="M45.55,97.53c-.37,0-.74-.02-1.12-.05-3.63-.33-6.89-2.23-9.19-5.34-2.29-3.1-3.34-7.04-2.98-11.09.76-8.39,7.45-14.66,14.92-13.98,3.63.33,6.89,2.23,9.19,5.34,2.29,3.1,3.34,7.04,2.98,11.09l-.42-.04.42.04c-.37,4.05-2.11,7.74-4.92,10.38-2.53,2.38-5.65,3.66-8.88,3.66ZM46.09,67.85c-6.58,0-12.29,5.73-12.97,13.26-.35,3.85.65,7.58,2.82,10.52,2.15,2.92,5.2,4.69,8.58,5,3.38.31,6.7-.89,9.34-3.38,2.66-2.5,4.31-5.99,4.66-9.84.35-3.85-.65-7.58-2.82-10.52-2.15-2.92-5.2-4.69-8.58-5-.34-.03-.69-.05-1.03-.05Z"/>
    </g>
    <path class="cls-14" d="M58.2,83.33c-.67,7.48-6.68,13.06-13.41,12.45-6.73-.61-11.64-7.16-10.97-14.65.67-7.48,6.68-13.06,13.41-12.45s11.64,7.16,10.97,14.65Z"/>
    <g>
      <path class="cls-17" d="M55.05,82.94c-.57,6.34-5.44,11.08-10.86,10.59-5.42-.49-9.36-6.03-8.78-12.37.57-6.34,5.44-11.08,10.86-10.59,5.42.49,9.35,6.03,8.78,12.37Z"/>
      <path class="cls-22" d="M44.97,93.99c-.27,0-.54-.01-.82-.04-2.75-.25-5.22-1.73-6.95-4.17-1.72-2.42-2.5-5.49-2.22-8.66.29-3.17,1.61-6.05,3.74-8.12,2.14-2.09,4.83-3.1,7.58-2.85,5.65.51,9.76,6.27,9.16,12.83h0c-.29,3.17-1.61,6.05-3.74,8.12-1.93,1.88-4.3,2.89-6.77,2.89ZM45.5,70.96c-2.24,0-4.41.92-6.18,2.65-1.98,1.93-3.22,4.63-3.48,7.59-.27,2.97.46,5.84,2.07,8.09,1.59,2.23,3.83,3.59,6.33,3.81,2.5.23,4.95-.7,6.91-2.62,1.98-1.93,3.22-4.63,3.49-7.59.55-6.1-3.22-11.44-8.4-11.91-.25-.02-.49-.03-.74-.03Z"/>
    </g>
    <g>
      <path class="cls-13" d="M54.82,82.72c-.54,6-5.05,10.49-10.06,10.04-5.01-.45-8.64-5.68-8.1-11.68.54-6,5.05-10.49,10.06-10.04,5.01.45,8.64,5.68,8.1,11.68Z"/>
      <path class="cls-22" d="M45.46,93.11c-.24,0-.48-.01-.72-.03-5.18-.47-8.94-5.87-8.38-12.03.27-2.98,1.49-5.69,3.45-7.64,1.97-1.96,4.44-2.92,6.96-2.69,5.18.47,8.94,5.87,8.38,12.03-.53,5.88-4.8,10.36-9.68,10.36ZM46.03,71.32c-2.1,0-4.13.89-5.78,2.54-1.85,1.84-3.01,4.42-3.26,7.24-.53,5.82,2.98,10.9,7.81,11.34,4.83.44,9.19-3.94,9.72-9.75.53-5.81-2.98-10.9-7.81-11.34-.22-.02-.45-.03-.67-.03Z"/>
    </g>
    <path class="cls-12" d="M41.88,72.86s-4.59,7.57-2.84,16.02c0,0-3.82-3.65-.91-11.39,0,0,1.86-4.18,3.75-4.63Z"/>
    <path class="cls-12" d="M45.21,71.26s-4.1,10.1-1.9,20.96c0,0,2.59.84,5.63-1.15,0,0-1.84-7.5-.03-18.73,0,0-.74-.85-3.7-1.08Z"/>
    <path class="cls-12" d="M52.14,74.81s-.54,6.02.61,12.85c0,0,3.74-6.74-.61-12.85Z"/>
    <g>
      <g>
        <path class="cls-17" d="M40.3,81.23c-.28,2.66,1.18,5.02,3.27,5.28,2.09.26,4.02-1.68,4.3-4.34.28-2.66-1.18-5.02-3.27-5.28-2.09-.26-4.02,1.68-4.3,4.34Z"/>
        <path class="cls-22" d="M43.95,86.96c-.14,0-.28,0-.42-.03-2.32-.29-3.95-2.87-3.64-5.75h0c.17-1.59.9-3.01,2-3.89.82-.65,1.81-.95,2.77-.83,2.31.29,3.95,2.87,3.64,5.75-.17,1.59-.9,3.01-2,3.89-.7.56-1.52.85-2.34.85ZM44.22,77.3c-.63,0-1.25.23-1.81.67-.93.73-1.54,1.94-1.69,3.31h0c-.26,2.42,1.04,4.59,2.9,4.82.74.09,1.48-.13,2.14-.65.93-.73,1.54-1.94,1.69-3.31.26-2.42-1.04-4.59-2.9-4.82-.11-.01-.22-.02-.33-.02Z"/>
      </g>
      <path class="cls-14" d="M40.79,81.38c-.24,2.25.91,4.25,2.57,4.45,1.66.21,3.2-1.45,3.44-3.7.24-2.25-.91-4.25-2.57-4.45-1.66-.21-3.2,1.45-3.44,3.7Z"/>
      <g>
        <g>
          <path class="cls-17" d="M41.22,80.94c-.34,1.7.4,3.4,1.66,3.81,1.26.41,2.56-.64,2.9-2.33.34-1.7-.4-3.4-1.66-3.81-1.26-.41-2.56.64-2.91,2.34Z"/>
          <path class="cls-22" d="M43.43,85.15c-.22,0-.43-.03-.65-.1-1.41-.45-2.25-2.33-1.87-4.17h0c.21-1.05.78-1.91,1.54-2.36.56-.33,1.19-.4,1.77-.21,1.41.45,2.25,2.33,1.87,4.17-.21,1.05-.78,1.91-1.54,2.36-.36.21-.74.31-1.12.31ZM41.53,81c-.31,1.54.34,3.09,1.44,3.44.42.14.85.08,1.26-.15.6-.35,1.07-1.08,1.24-1.94.31-1.54-.33-3.09-1.44-3.44-.42-.13-.85-.08-1.25.16-.6.35-1.07,1.08-1.24,1.94h0Z"/>
        </g>
        <path class="cls-14" d="M41.5,81.2c-.19,1.48.42,2.81,1.37,2.97.95.16,1.87-.91,2.06-2.39.19-1.48-.42-2.81-1.37-2.97-.95-.16-1.87.91-2.06,2.39Z"/>
        <path class="cls-24" d="M41.5,81.22c-.12,1.12.3,2.09.94,2.17.64.08,1.25-.76,1.37-1.88.12-1.12-.3-2.09-.94-2.17-.64-.08-1.26.76-1.37,1.88Z"/>
      </g>
    </g>
    <path class="cls-24" d="M53.63,71.02s5.91,3.22,4.42,14.71c0,0-1.96,9.92-12.16,10.76,0,0,10.68-2.26,11.38-13.89,0,0,.78-5.78-3.64-11.59Z"/>
  </g>
  <g>
    <g>
      <g>
        <path class="cls-2" d="M86.5,65.18s1.12,2.18,3.93,2.11c0,0,1.78-.19.8,1.04,0,0-1.66,1.76-3.53,1.21,0,0,1.57.97,3.91.6,0,0,2.35-.61.88,1.05,0,0-3.31,3.38-5.9,2.51l.14-1.54-1.99-2.72,1.22.26s.3-1.19-1.06-2.21l1.61-2.3Z"/>
        <path class="cls-22" d="M87.5,74.26c-.35,0-.7-.05-1.04-.16l-.32-.11.15-1.71-2.55-3.49,1.8.38c-.03-.17-.09-.38-.22-.61l-.54-.33.39.12c-.13-.17-.31-.35-.54-.53l-.33-.25,2.24-3.21.32.62c.04.08,1.02,1.88,3.42,1.88.04,0,.07,0,.11,0,.29-.03,1.15-.07,1.45.48.19.34.09.76-.29,1.24l-.02.03s-.7.73-1.66,1.14c.48.05,1.04.06,1.65-.04.53-.14,1.44-.28,1.77.26.34.55-.26,1.23-.49,1.48v.02c-.14.13-2.77,2.78-5.31,2.78ZM87.05,73.37c2.21.4,4.98-2.32,5.14-2.48.19-.21.28-.36.33-.44-.18-.01-.51.02-.79.1h-.04c-2.47.41-4.13-.6-4.2-.65l-1.08-.67c.02.33-.03.55-.04.57l-.1.39-.53-.11,1.43,1.96-.12,1.34ZM86.3,68.68l1.53.45c1.52.45,2.95-.94,3.09-1.08.12-.15.16-.24.18-.29-.12-.05-.39-.07-.61-.05h-.03c-2.14.05-3.38-1.08-3.95-1.79l-1.03,1.48c.47.43.71.88.83,1.27Z"/>
      </g>
      <path class="cls-24" d="M87.25,69.6s1.44,1.01,4.8.69c0,0,.95.12-.1.85,0,0-1.19,1.39-3.78,2.11,0,0,1.86-1.75.55-2.09,0,0-2.5-.82-3.15-2.38,0,0,3.35.11,3.31-.59,0,0-1.35-.87-1.08-1.09,0,0,1.04.82,2.64.59,0,0,1.35-.16.1.65,0,0-.98.88-3.29,1.25Z"/>
    </g>
    <g>
      <g>
        <path class="cls-24" d="M86.27,60.46s2.95-2.09,3.39.57c0,0,.22,3.13-2.41,4.94l-.6-.03s.03-1.59-.51-2.43c0,0-.5-1.53.13-3.05Z"/>
        <path class="cls-22" d="M87.37,66.4l-1.15-.06v-.41c.02-.41-.05-1.6-.43-2.19l-.03-.05-.02-.05c-.02-.07-.54-1.7.14-3.34l.05-.11.1-.07c.18-.13,1.79-1.23,2.99-.73.57.24.93.77,1.06,1.58v.04c.01.14.21,3.4-2.59,5.32l-.12.08ZM87.06,65.54h.06c2.19-1.59,2.12-4.22,2.11-4.46-.08-.49-.27-.8-.55-.92-.6-.25-1.64.29-2.08.57-.44,1.18-.15,2.36-.08,2.6.4.67.51,1.65.54,2.21Z"/>
      </g>
      <path class="cls-4" d="M86.15,61.19s1.9-1.66,2.24.4c0,0,.17,2.42-1.86,3.81h-.28s.39-1.18-.03-1.83c0,0-.57-1.2-.08-2.38Z"/>
      <path class="cls-22" d="M85.88,63.14c.18-.3.38-.55.59-.8.21-.25.44-.48.69-.69.25-.21.52-.4.82-.53.3-.13.62-.19.93-.16-.31.04-.59.17-.83.35-.24.17-.44.4-.62.63-.18.24-.33.49-.47.76-.13.26-.26.54-.35.8l-.77-.36Z"/>
      <g>
        <path class="cls-24" d="M87.76,61.61s.76.49-.07,2.36"/>
        <path class="cls-22" d="M87.99,61.25c.08.06.09.08.12.12.03.04.05.07.07.1.04.07.07.14.1.21.05.14.07.27.08.4.01.26-.03.5-.09.71-.07.22-.15.42-.25.61-.1.19-.21.38-.32.55.05-.21.09-.41.12-.62.03-.21.04-.41.03-.61,0-.2-.05-.38-.11-.54-.03-.08-.07-.14-.12-.19-.02-.02-.05-.04-.07-.06-.01,0-.02-.01-.03-.01,0,0-.03-.01,0,.02l.46-.71Z"/>
      </g>
    </g>
    <g>
      <g>
        <path class="cls-17" d="M81.99,46.63s5.72.13,8.33-5.19c0,0,2.08-.64-.09,6.16,0,0-1.7,4.84-5.46,5.93,0,0,0-5.12-2.79-6.9Z"/>
        <path class="cls-22" d="M84.35,54.1v-.56s-.04-4.91-2.59-6.55l-1.27-.82,1.51.04c.22,0,5.49.05,7.94-4.95l.08-.16.17-.05c.2-.06.63-.08.98.27.77.77.59,2.87-.53,6.42-.08.22-1.82,5.07-5.75,6.21l-.54.16ZM83.06,46.97c1.67,1.76,2.04,4.72,2.12,5.97,3.15-1.29,4.64-5.44,4.66-5.48,1.44-4.54.87-5.42.74-5.56,0,0,0,0,0,0-2.03,3.85-5.7,4.83-7.51,5.07Z"/>
      </g>
      <path class="cls-14" d="M85.45,52.79s5.44-3.17,5.24-9.96c0,0,.14-1.08-.55.49,0,0-1.56,3.59-6.11,5.05,0,0,.23,3.28,1.42,4.42Z"/>
      <path class="cls-24" d="M90.7,42.83s.71,6.24-5.24,9.96l-.86-1.22s5.29-2.72,6.11-8.74Z"/>
    </g>
    <g>
      <path class="cls-13" d="M61.76,53.56s-.52-4.89,4.89-7.51c0,0,8.66-4.31,16.62,1.53,0,0,2.89,1.55,3.23,6.42,0,0-6.01-3.48-12.1-2.8,0,0-9.05.94-12.64,2.37Z"/>
      <path class="cls-22" d="M86.99,54.76l-.69-.4c-.06-.03-5.96-3.4-11.84-2.74-.09,0-9.03.95-12.54,2.34l-.52.21-.06-.55c0-.05-.48-5.22,5.13-7.94.09-.04,8.96-4.34,17.04,1.55.33.19,3.08,1.9,3.42,6.75l.06.79ZM76.05,50.69c4.37,0,8.37,1.76,9.96,2.56-.55-3.98-2.9-5.29-2.93-5.3l-.05-.03c-7.67-5.62-16.1-1.53-16.18-1.49-4.07,1.97-4.62,5.23-4.67,6.54,3.88-1.31,11.84-2.15,12.19-2.19.56-.06,1.13-.09,1.68-.09Z"/>
    </g>
    <g>
      <path class="cls-17" d="M72,44.88s3.86,2.6,2.44,6.06c0,0,4.49-.52,7.7,1.2,0,0,1.71-4.49-2.79-7.25l-1.32-.78-5.14-.27-.88,1.05Z"/>
      <path class="cls-22" d="M82.37,52.74l-.42-.23c-3.06-1.64-7.41-1.16-7.46-1.15l-.71.08.27-.66c1.27-3.1-2.14-5.45-2.28-5.55l-.39-.26,1.32-1.57,5.46.29,1.41.83c4.76,2.92,2.99,7.72,2.98,7.77l-.17.45ZM76.06,50.44c1.52,0,3.83.18,5.82,1.1.28-1.15.63-4.22-2.75-6.29l-1.23-.72-4.83-.25-.46.55c.91.75,3.13,2.9,2.43,5.65.27-.02.62-.03,1.02-.03Z"/>
    </g>
    <path class="cls-14" d="M73.24,44.32l4.83.32s4.27,1.93,3.95,6.51c0,0-2.3-.82-5.32-.91,0,0-.38-4.22-3.46-5.91Z"/>
    <path class="cls-24" d="M75.29,44.46l2.78.18s3.83.91,3.95,6.51c0,0-1.02-.74-2.83-.61,0,0-1.32-1.85.66-3.38,0,0,.16-.84-.5-1.55,0,0-2.78.74-4.05-1.16Z"/>
    <g>
      <path class="cls-21" d="M62.35,57.92s2.08,2.91,3.2,3.02c0,0-1.76,2.42-.34,4.31,0,0,1.7,3.27,4.16,3.57,0,0,.36-.33,1.4-.93l14.04,1.42s1.57-.3.28-1.31c0,0,3.52-2.69,1.39-5.51,0,0-.44-1.65.4-3.12l.12-1.27s-3.84-1.12-6-1.54c0,0-13.5-2.04-18.64,1.38Z"/>
      <path class="cls-22" d="M84.81,69.73l-13.96-1.41c-.88.52-1.21.81-1.21.81l-.14.13-.19-.02c-2.54-.31-4.27-3.39-4.46-3.76-1.18-1.6-.41-3.47.07-4.32-1.18-.64-2.59-2.56-2.91-2.99l-.26-.36.36-.24c5.22-3.47,18.38-1.53,18.94-1.44,2.17.43,5.9,1.51,6.06,1.56l.34.1-.17,1.71-.05.08c-.65,1.14-.44,2.42-.37,2.73,1.62,2.25.13,4.55-1.15,5.71.25.3.34.59.27.88-.15.61-.95.8-1.11.83h-.06ZM70.66,67.46l14.1,1.42c.16-.04.33-.12.38-.18-.01-.04-.08-.16-.34-.37l-.43-.34.43-.33c.13-.1,3.15-2.47,1.31-4.92l-.05-.07-.02-.08c-.02-.07-.46-1.78.39-3.36l.08-.83c-.98-.28-3.88-1.09-5.63-1.44-.11-.02-12.73-1.88-17.94,1.08.84,1.1,2.05,2.42,2.62,2.48l.73.08-.43.59s-1.56,2.19-.35,3.81l.04.06s1.54,2.92,3.66,3.32c.2-.16.61-.45,1.31-.85l.12-.07Z"/>
    </g>
    <path class="cls-23" d="M83.94,53.62c-5.88-1.82-9.24-1.43-9.24-1.43l.05.45s5.69.2,9.08,1.47l.12-.5Z"/>
    <g>
      <path class="cls-1" d="M62.77,58.75c-1.63-.2-3.23,1.32-4.12,3.64q-.32.39-1.1.92s-2.31.95-4.63-.68c0,0-1.33-1.18-.88.59,0,0,.83,3.78,4.92,2.92,0,0-2.63,1.11-6.83-.79,0,0,.32,6.65,9.81,6.19.37.27.77.45,1.21.5,2.17.26,4.29-2.5,4.73-6.17.44-3.67-.95-6.86-3.12-7.12Z"/>
      <path class="cls-22" d="M61.45,72.48c-.11,0-.23,0-.35-.02-.45-.05-.88-.22-1.29-.49-4.99.2-7.47-1.56-8.67-3.09-1.33-1.69-1.43-3.43-1.44-3.51l-.03-.69.63.29c1.14.52,2.16.8,3.03.95-1.33-.99-1.7-2.58-1.71-2.61-.07-.29-.28-1.09.23-1.4.47-.29,1.07.16,1.33.38,1.95,1.37,3.89.74,4.17.64.65-.43.69-.46.93-.75.99-2.55,2.77-4.06,4.54-3.85h0c2.44.3,3.97,3.63,3.49,7.59-.46,3.77-2.55,6.56-4.86,6.56ZM60.08,71.11l.12.09c.32.24.66.38,1.01.42,1.9.23,3.85-2.42,4.26-5.8.41-3.37-.85-6.42-2.75-6.65-1.37-.17-2.84,1.19-3.67,3.37l-.02.06-.04.05c-.36.44-.41.48-1.2,1l-.07.04c-.1.04-2.56,1.02-5.03-.73l-.04-.03c-.08-.07-.17-.14-.26-.19.01.09.03.2.07.36.03.15.8,3.37,4.42,2.62l.25.8c-.11.05-2.55,1.04-6.46-.49.38,1.62,2.06,5.42,9.25,5.08h.15Z"/>
    </g>
    <path class="cls-2" d="M62.99,60.64c-1.52-.18-2.08.84-3.04,2.45-.3.37-.59-.07-1.08-.06,0,0-2.72,1.66-5.27.55,0,0-1.03-.73-.11.96,0,0,.98,1.56,3.54,1.5,0,0-.44,1.01-4.13.99,0,0-.74-.19-.61.32.3,1.19,2.36,3.92,8.53,3.63.34.25.83.25,1.24.3,2.02.25,2.57-2.01,2.98-5.43.41-3.42-.05-4.96-2.07-5.2Z"/>
    <path class="cls-16" d="M85.98,69.45"/>
    <g>
      <path class="cls-5" d="M83.19,68.91c-1,.39-12.73-.24-12.73-.24-3.21-.76-3.98-4.04-3.98-4.04-.21-1.9.59-3.24.59-3.24,1.4-1.95-.22-5.5-.22-5.5-1.57.24-1.5.42-3.44,1.18,3.14,2.16-1.71,8.82-1.71,8.82-1.65,2.5-1.67,5.48-1.67,5.48-.27,4.26,4.32,7.84,4.32,7.84,5.58,4.69,13.2,5.28,13.2,5.28.64-1.6,3.13-1.26,3.13-1.26,1.33-2.7,3.24-5.16,3.24-5.16,2.8-3.54,3.26-7.98,3.26-7.98,0,0,.4-1.78.18-3.49l-.24-.97s-.29-.31-.34.16l-.46.84s-.48,1.25-3.13,2.27Z"/>
      <path class="cls-22" d="M77.84,84.93l-.31-.02c-.32-.02-7.82-.65-13.44-5.38-.18-.14-4.75-3.75-4.47-8.18,0-.25.08-3.18,1.74-5.69.04-.06,3.1-4.3,2.66-6.9-.1-.59-.37-1.02-.83-1.34l-.66-.45.74-.29c.61-.24,1.01-.42,1.34-.56.71-.31,1.07-.47,2.2-.64l.32-.05.13.29c.07.15,1.7,3.78.19,5.91-.07.12-.7,1.31-.53,2.93.08.3.85,3.01,3.62,3.69,5.6.3,11.88.49,12.52.26,2.41-.94,2.89-2.02,2.89-2.03l.02-.05.43-.78c.07-.34.25-.47.4-.52.26-.09.51.05.66.21l.07.08.28,1.12c.22,1.67-.13,3.38-.18,3.61-.04.4-.58,4.68-3.35,8.17-.02.02-1.9,2.46-3.19,5.09l-.14.27-.3-.04s-2.17-.28-2.68.99l-.12.29ZM64.2,57.21c.33.38.54.86.64,1.41.5,2.95-2.66,7.34-2.8,7.52-1.55,2.35-1.59,5.2-1.59,5.23v.02c-.26,3.99,4.11,7.44,4.16,7.48,4.83,4.06,11.28,5,12.69,5.16.72-1.24,2.43-1.29,3.13-1.25,1.33-2.6,3.08-4.88,3.16-4.98,2.69-3.4,3.17-7.72,3.17-7.76v-.05s.39-1.72.19-3.32l-.05-.22-.2.36c-.11.25-.76,1.47-3.36,2.48h0c-1.04.4-10.93-.1-12.91-.21h-.07c-3.42-.82-4.26-4.22-4.29-4.36v-.05c-.23-2.02.61-3.44.64-3.5l.02-.03c1.02-1.43.19-3.93-.14-4.78-.76.13-1.03.25-1.65.53-.21.09-.44.2-.74.32Z"/>
    </g>
    <polygon class="cls-23" points="63.17 54.1 61.54 54.58 61.58 54.93 63.21 54.47 63.17 54.1"/>
    <polygon class="cls-23" points="72.21 52.26 65.8 53.32 65.9 53.82 72.28 52.67 72.21 52.26"/>
    <path class="cls-23" d="M63.47,57.63l10.06-3.32,11.12,1.41-.05,1.4s-2.84-.96-5.16-1.24c0,0-9.99-.78-15.97,1.74Z"/>
    <path class="cls-24" d="M73.34,59.5s.89,1.29-.34,1.14l-.19-.06s-.17-.55.53-1.08Z"/>
    <path class="cls-24" d="M83.75,61.01s1.09.72-.15,1.21c0,0-.54-.84.15-1.21Z"/>
    <path class="cls-16" d="M86.77,65.26"/>
    <path class="cls-2" d="M66.07,63.31s-.85,4.45,5.34,6.3c0,0,6.42-2.87,11.43.15,0,0,2.1-.29,3.89-3.14,0,0,.37-1.76.33,1.41,0,0-1.96,9.46-7.36,13.36,0,0,.21-1.03-.15-2.41,0,0-1.88,2.01-4.97,2.05,0,0,.96-.8,1.03-2.4,0,0-5.17,1.91-9.95-1.47,0,0-4.98-3.73-2.21-10.82,0,0,1.98-4.55,2.61-3.03Z"/>
    <g>
      <g>
        <path class="cls-17" d="M61.33,53.67s7.81-2.69,12.72-2.71c0,0,7.45-.4,12.63,2.76l.73.58-.27,4.22s-3.19-1.61-5-1.91c0,0-12.16-1.31-18.2,1.39,0,0-2.95,1.07-3.02.37,0,0-.34-.45-.05-1.56l.46-3.13Z"/>
        <path class="cls-22" d="M87.53,59.19l-.57-.29s-3.13-1.58-4.87-1.87c-.44-.05-12.18-1.23-17.97,1.36h-.03c-.96.36-2.67.89-3.29.5-.14-.09-.23-.21-.28-.36-.12-.22-.33-.79-.07-1.8l.49-3.36.24-.08c.32-.11,7.92-2.71,12.85-2.73.44-.02,7.69-.34,12.86,2.82l.04.03.91.72-.32,5.08ZM61.31,58.18c.36.05,1.45-.2,2.48-.58,6.08-2.71,17.9-1.47,18.4-1.42h.02c1.4.24,3.53,1.19,4.55,1.68l.22-3.36-.54-.43c-5-3.04-12.29-2.69-12.36-2.68h-.02c-4.31.02-10.99,2.15-12.34,2.6l-.43,2.92c-.22.85-.01,1.21-.01,1.21l.04.06Z"/>
      </g>
      <path class="cls-14" d="M62.05,54.09s6.49-3.21,16.67-2.42c0,0,5.37.65,8.33,2.99l-.34,2.82s-6.99-3.85-22.82-.34c0,0-2.55-1.05-1.84-3.04Z"/>
      <path class="cls-24" d="M73.79,51.57s6.26-1.1,13.26,3.08c0,0,.19,3.35-1.11,2.21,0,0-.9-.55-.57-1.78,0,0-4.32-3.19-12.16-2.75,0,0-1.75-.64.58-.77Z"/>
    </g>
    <g>
      <path class="cls-21" d="M64.47,59.84s-.49-1.9-4.01-1.74c0,0-2.94,2.8-1.19,5.31,0,0,1.44,2.07,2.38,2.31,0,0,2.96-3.04,2.83-5.88Z"/>
      <path class="cls-22" d="M61.78,66.19l-.24-.06c-1.04-.26-2.37-2.11-2.62-2.48-1.55-2.22.14-4.8,1.24-5.86l.11-.11h.16c3.82-.18,4.42,1.96,4.44,2.05v.09c.16,2.99-2.81,6.06-2.93,6.19l-.17.17ZM60.64,58.51c-.49.52-2.38,2.7-1.02,4.65.49.71,1.35,1.72,1.92,2.05.63-.71,2.59-3.1,2.52-5.3-.09-.24-.69-1.48-3.41-1.4Z"/>
    </g>
    <path class="cls-12" d="M83.33,48.26s2.18,1.35,2.72,4.51c0,0-.55-.44-1.48-.86,0,0,.23-1.38-1.24-3.65Z"/>
    <path class="cls-12" d="M74.16,50.01s0-.03,0-.05c.15-1.29-.95-2.47-2.45-2.64s-2.84.74-2.99,2.02c-.05.43.04.85.25,1.23,1.17-.27,3.11-.61,5.18-.56Z"/>
    <path class="cls-4" d="M68.86,64.55s-1.5-.69.82-3.5c0,0,1.06-1.8.23-4.07,0,0,10.65-1.8,16.41,1.58,0,0-2.05,2.47-1.06,3.94,0,0,.85,1.4.95,2.7,0,0-.09.42-.6,1.11,0,0-1.65-.99-2.2-1.16,0,0-6.12-1.43-11.8-.02l-.94.15s-1.13-.02-1.8-.73Z"/>
    <g>
      <g>
        <path class="cls-5" d="M69.39,56.57s2.02-1.98,4.66-2.09c1.34-.06,1.78.29,3.63,3.37.17.29.53.5,1.43.45.39-.02,1.06.66-.8,1.36,0,0-1.79.21-2.21-.78,0,0-2.01-2.93-4.49-1.52,0,0-2.53,1.1-2.21-.78Z"/>
        <path class="cls-22" d="M77.92,60.09c-.64,0-1.79-.13-2.2-1.01-.22-.3-1.9-2.51-3.91-1.36l-.04.02c-.27.12-1.67.68-2.41.1-.25-.19-.51-.58-.38-1.34l.02-.14.1-.1c.09-.09,2.17-2.09,4.93-2.21,1.65-.07,2.24.61,4.01,3.57.12.2.47.28,1.04.24.35-.02.79.22.88.65.09.41-.1,1-1.5,1.53l-.05.02h-.05s-.19.03-.43.03ZM72.98,56.55c1.57,0,2.89,1.23,3.47,2.09l.04.08c.23.54,1.3.57,1.72.53.62-.24.83-.44.89-.52-.58.04-1.4,0-1.79-.65-1.86-3.1-2.18-3.21-3.25-3.16-2.12.09-3.84,1.49-4.27,1.87-.01.15,0,.32.09.39.25.2,1.04.01,1.54-.2.54-.3,1.06-.42,1.56-.42Z"/>
      </g>
      <path class="cls-7" d="M71.68,56.15s1.47-1.25,3.26-1.19c.91.03,1.24.65,2.34,2.84.1.2.96.71,1.57.72.27,0-.12.77-1.43.6,0,0-.96.16-1.31-1.07,0,0-1.47-1.97-3.59-1.47,0,0-1.63.71-.85-.43Z"/>
      <path class="cls-3" d="M77.86,58.31s1.06-.17,1.12.49c0,0-.62.94-2.18.29,0,0-.84-.62-.22-.71,0,0,.43.26,1.07.33,0,0,.5.05.21-.4Z"/>
    </g>
    <path class="cls-24" d="M86.74,58.88s-1.59,1.71-.4,4.19c0,0,1.2,1.14-.61,3.89l-.9-.2s1.26-2.41.29-4.36c0,0-.79-2.18,1.06-3.63l.56.11Z"/>
    <path class="cls-4" d="M64.09,60.01s-.71-1.31-2.4-1.01c0,0-2.62,2.2.62,5.29,0,0,1.92-2.27,1.78-4.29Z"/>
    <g>
      <path class="cls-22" d="M60.76,60.37c.28-.23.63-.35,1.02-.37.19,0,.38.02.57.07.1.02.18.07.27.1.04.02.09.04.13.06l.12.08c.17.1.32.21.48.33.15.12.26.28.35.44.07.17.14.35.17.53.02.19.03.38,0,.58l-.08.03c-.18-.1-.32-.22-.44-.33-.13-.11-.25-.22-.34-.34-.22-.2-.31-.51-.53-.7-.2-.2-.45-.36-.73-.44-.29-.09-.62-.07-.93.02l-.04-.07Z"/>
      <path class="cls-22" d="M63.03,61.13c-.14,0-.34.05-.5.1-.17.06-.33.13-.47.23-.14.1-.26.23-.35.39-.09.16-.11.35-.12.55-.07-.18-.12-.39-.09-.61.03-.22.12-.43.25-.62.13-.19.29-.35.46-.49.18-.14.35-.26.58-.37l.23.81Z"/>
    </g>
    <g>
      <g>
        <path class="cls-13" d="M77.84,85.02s-.04-2.23,2.68-2.19l.99,1.55s-2.65.43-2.68,2.19l-.99-1.56Z"/>
        <path class="cls-22" d="M79.24,87.99l-1.82-2.85v-.12s-.01-1.05.75-1.81c.55-.55,1.35-.82,2.36-.81h.23s1.46,2.29,1.46,2.29l-.63.1s-2.3.4-2.32,1.78l-.02,1.41ZM78.27,84.9l.42.66c.48-.83,1.49-1.25,2.15-1.45l-.55-.86c-.66.02-1.18.21-1.52.56-.38.38-.47.88-.5,1.09Z"/>
      </g>
      <g>
        <path class="cls-5" d="M81.55,84.54s1.64,1.34,4.71.95c0,0-1.26,4.48-4.16,6.23,0,0-2.93-2.25-3.08-5.26,0,0,.27-1.27,2.05-1.71l.49-.2Z"/>
        <path class="cls-22" d="M82.07,92.22l-.23-.18c-.13-.1-3.09-2.41-3.25-5.58v-.05s0-.05,0-.05c.01-.06.34-1.53,2.33-2.02l.69-.29.19.16s1.57,1.21,4.39.85l.63-.08-.17.61c-.05.19-1.34,4.66-4.35,6.47l-.25.15ZM79.44,86.49c.15,2.28,2.03,4.12,2.69,4.7,1.96-1.34,3.1-4.03,3.53-5.22-2.23.13-3.65-.61-4.16-.95l-.33.13c-1.33.32-1.66,1.14-1.73,1.34Z"/>
      </g>
      <g>
        <path class="cls-2" d="M82.12,91.79s1.34,1.47,2.09-.54c0,0,.22-.56,1.42-.85l.44-1.24s1.52.71.88-1.76c0,0,.85-1.07-.36-2.03,0,0-1.79-.51-2.04,1.61l-.75.9s.81,1.55-1.24,1.59c0,0-.87-.05-.43,2.32Z"/>
        <path class="cls-22" d="M83.13,92.73c-.7,0-1.26-.58-1.33-.66l-.08-.09-.02-.12c-.23-1.25-.16-2.07.23-2.52.2-.23.45-.31.62-.3.48,0,.81-.11.92-.29.13-.21,0-.57-.06-.68l-.13-.25.85-1.02c.11-.74.41-1.28.9-1.6.75-.5,1.63-.25,1.67-.24l.08.02.07.05c1.11.88.84,1.93.55,2.44.23.99.14,1.64-.27,1.98-.25.21-.56.24-.8.21l-.39,1.09-.22.05c-.86.21-1.09.55-1.12.6v-.02s0,.01,0,.02c0,0,0,0,0,0h0c-.28.75-.7,1.18-1.22,1.29-.08.02-.16.02-.24.02ZM82.51,91.58c.16.14.45.34.7.3.22-.04.43-.32.6-.77.05-.12.33-.71,1.49-1.05l.52-1.47.42.2c.11.05.29.08.35.03,0,0,.23-.21-.06-1.3l-.05-.2.13-.17c.09-.12.5-.74-.22-1.38-.16-.03-.57-.07-.9.15-.29.2-.47.57-.54,1.12v.12s-.68.8-.68.8c.1.3.19.79-.07,1.22-.27.45-.81.69-1.62.71-.04.04-.3.34-.07,1.69Z"/>
      </g>
      <path class="cls-9" d="M80.29,82.89s-1.06.1-1.57.74c0,0,.15,1.24,2.2.24l-.63-.98Z"/>
      <path class="cls-2" d="M80.37,85.59s.29,1.33,1.06,2.4c0,0,.98.45.58-.42,0,0,.36.44,1.1.5,0,0,.26-.67,1.05-1.27,0,0-.27-.17.23-.74,0,0-2.09-.37-2.72-1.04,0,0-.6-.27-1.3.57Z"/>
    </g>
    <g>
      <g>
        <path class="cls-17" d="M68.9,45.22s-4.09-.11-8.24-6.31c0,0-.57-.97-1.2-.98-.63,0-1.32.94-1.41,3.53,0,0,.07,6.92,5.85,10.49,0,0,3.83,1.21,5.82-2.27,0,0,1.76-2.44-.82-4.46Z"/>
        <path class="cls-22" d="M65.42,52.56c-.95,0-1.64-.21-1.66-.21l-.05-.02-.05-.03c-5.91-3.65-6.05-10.55-6.05-10.84.12-3.6,1.33-3.97,1.84-3.96.81.01,1.42.96,1.55,1.18,3.96,5.9,7.86,6.11,7.9,6.12h.14s.11.09.11.09c2.73,2.13,1.11,4.74.92,5.01-1.27,2.21-3.25,2.66-4.66,2.66ZM64.07,51.55c.44.12,3.58.88,5.28-2.09l.02-.04c.06-.08,1.44-2.08-.64-3.8-.81-.08-4.6-.77-8.43-6.49v-.02c-.2-.32-.6-.77-.86-.77-.22,0-.89.56-.98,3.12,0,.05.15,6.67,5.6,10.08Z"/>
      </g>
      <path class="cls-14" d="M59.92,38.72s2.95,5.73,9.2,7.36c0,0,1.58,2.51-.96,4.71,0,0-1.77-1.43-3.54-.3,0,0-3.52-1.69-3.87-4.79,0,0,1.16-1.01-.89-2.12,0,0-.75-1.85-.73-3.48,0,0,.21-2.35.8-1.38Z"/>
      <path class="cls-24" d="M69.12,46.08s1.07.99.17,3.33c0,0-9.26-3.03-9.72-10.42,0,0,.08-.96.9.63,0,0,3.29,5.25,8.65,6.45Z"/>
    </g>
    <path class="cls-22" d="M77.4,60.57c.09.01.18.05.26.1.08.06.17.16.17.31,0,.15-.08.26-.15.35-.07.08-.15.15-.23.21l-.1.08-.23-.14c-.18-.11-.41-.24-.63-.33-.11-.05-.22-.09-.33-.13-.11-.05-.22-.08-.34-.11-.45-.14-.92-.22-1.39-.26l-.36-.02c-.12-.01-.24,0-.37,0-.25-.02-.49.01-.75,0-.25,0-.51.04-.78.04-.26.02-.53.05-.82.04.21-.18.44-.34.68-.48.25-.12.5-.25.76-.34.27-.08.54-.17.82-.21.14-.02.28-.05.43-.05h.43c.58.01,1.16.13,1.7.38.53.26,1,.6,1.35,1.13l-.33-.07s.07-.02.1-.03c.03,0,.06-.02.09-.03.05-.02.1-.04.12-.06.03-.02.04-.08,0-.15-.02-.07-.07-.14-.13-.21Z"/>
    <path class="cls-22" d="M81.99,61.27c-.04.07-.07.14-.07.21,0,.06.02.11.05.14.03.03.07.06.11.08l.07.04.08.04-.46.05c.06-.12.11-.22.19-.31.07-.09.14-.18.22-.26.09-.08.17-.16.27-.22.09-.07.2-.13.3-.18.42-.21.92-.27,1.37-.21.46.05.86.26,1.22.5.17.13.33.27.47.42.13.16.26.33.36.52-.22-.03-.41-.08-.6-.13-.19-.04-.37-.08-.55-.13-.36-.06-.69-.14-1-.14-.31-.01-.6.02-.9.1-.15.04-.29.1-.44.16-.07.04-.15.07-.21.12-.07.04-.15.09-.2.12l-.36.21-.11-.15c-.05-.08-.11-.16-.15-.25-.04-.1-.07-.21-.06-.32,0-.12.07-.22.14-.28.07-.06.16-.1.24-.1Z"/>
    <g>
      <path class="cls-8" d="M82.34,71.83s-2.35-2.98-5.77-.9c0,0-2.67,1.12-2.97,2.64,0,0,1.56,1.13,3.04,2.22,0,0,3.49,2.36,3.47-2.06,0,0,1.26-1.22,2.23-1.89Z"/>
      <path class="cls-22" d="M78.48,76.83c-1.02,0-2.02-.66-2.07-.7-1.49-1.09-3.05-2.23-3.05-2.23l-.22-.16.05-.27c.32-1.64,2.78-2.76,3.19-2.93,3.68-2.22,6.27.99,6.29,1.02l.28.35-.37.26c-.75.52-1.71,1.41-2.05,1.73-.03,1.4-.42,2.32-1.17,2.71-.28.15-.59.21-.89.21ZM74.1,73.39c.5.36,1.67,1.22,2.79,2.04.35.23,1.42.78,2.08.43.6-.32.72-1.35.72-2.15v-.18s.13-.13.13-.13c.05-.04.99-.96,1.89-1.65-.69-.66-2.5-1.95-4.91-.48l-.06.03c-.63.27-2.23,1.12-2.64,2.08Z"/>
    </g>
    <g>
      <path class="cls-24" d="M75.51,70.99s2.56-.78,6.19.36c0,0,.4-.46.69-1.33,0,0-4.11-3.37-6.88.97Z"/>
      <path class="cls-22" d="M81.81,71.72l-.2-.06c-3.48-1.09-5.98-.36-6-.36l-.82.24.46-.72c.85-1.34,1.92-2.12,3.16-2.32,2.18-.35,4.1,1.2,4.18,1.27l.17.14-.07.21c-.31.92-.73,1.42-.75,1.44l-.14.16ZM77.79,70.41c1.02,0,2.31.13,3.79.57.11-.16.28-.45.43-.85-.5-.35-1.96-1.25-3.51-1-.85.14-1.61.6-2.26,1.39.39-.06.91-.11,1.54-.11Z"/>
    </g>
    <g>
      <g>
        <path class="cls-5" d="M83.41,58.42s-.48.49-1,.46c-.23-.01-.45-.41-.9-.16,0,0-.61,1.54,1.31,1.6,0,0,1.02-.09,1.36-.53,0,0,.58-.75,1.9-.61,0,0,1.82.55,1.41-.84,0,0-.57-2.5-2.74-1.19,0,0-.76.76-1.34,1.26Z"/>
        <path class="cls-22" d="M82.82,60.75h-.03c-.76-.02-1.3-.26-1.59-.71-.42-.63-.14-1.39-.1-1.47l.06-.14.13-.07c.52-.29.91-.05,1.1.07.02.01.04.03.06.04.27,0,.58-.26.65-.34l.02-.02c.57-.49,1.31-1.23,1.32-1.24l.04-.04.04-.03c.76-.46,1.45-.56,2.05-.31.96.41,1.28,1.6,1.32,1.75.18.62,0,.98-.2,1.17-.49.49-1.43.27-1.7.2-1.02-.09-1.47.43-1.49.45-.44.55-1.46.67-1.66.69h-.03ZM81.84,59.08c-.02.15-.03.35.07.5.16.24.56.31.88.32.34-.04.89-.17,1.04-.37.03-.03.73-.93,2.28-.77l.08.02c.36.11.81.12.9.02.02-.02.05-.11-.02-.34v-.02c-.07-.25-.33-.96-.84-1.17-.33-.14-.74-.06-1.23.23-.16.16-.79.78-1.31,1.23-.11.11-.66.62-1.31.57-.18,0-.32-.09-.43-.16-.05-.03-.08-.05-.11-.06Z"/>
      </g>
      <path class="cls-7" d="M84.49,57.94s-.59.57-1.18,1.16c0,0-.6.32.5.46,0,0,1.06-.28,1.28-.58,0,0,.33-.26,1.08-.09,0,0,.84.24.68-.79,0,0-.54-1.28-1.53-.77,0,0-.36.01-.84.61Z"/>
      <path class="cls-3" d="M86.27,57.2s.84-.04.87,1.49c0,0-.41.59-.93.06,0,0,.48-1.58-1.21-1.28,0,0,1.09-.56,1.27-.27Z"/>
    </g>
    <g>
      <path class="cls-24" d="M75.05,73.26s2.44,2.41,4.06,2.6c0,0,.77-.24-.13-1.39,0,0-.34-.95.64-.43,0,0,1.08.57.88,1.82,0,0-.08,2.11-2.58,1.44,0,0-2.98-1.2-3.8-3.37l.93-.66Z"/>
      <path class="cls-22" d="M78.83,77.74c-.3,0-.63-.05-.98-.14h-.04c-.13-.06-3.12-1.29-3.98-3.56l-.09-.23,1.34-.96.19.19s2.28,2.24,3.78,2.49c.02-.01.03-.04.04-.07.02-.06.04-.29-.36-.8l-.03-.04-.02-.05c-.05-.14-.19-.62.11-.88.32-.28.81-.02.98.07.44.23,1.22.98,1.04,2.14-.01.15-.1.99-.77,1.49-.33.24-.74.37-1.22.37ZM78.03,76.99c.72.19,1.27.15,1.64-.12.49-.36.52-1.02.52-1.03v-.04c.17-1.01-.7-1.49-.71-1.49-.1-.05-.18-.08-.23-.1,0,.03.01.07.02.1.4.53.55.98.43,1.34-.12.38-.46.49-.49.5l-.06.02h-.07c-1.46-.17-3.43-1.92-4.06-2.51l-.51.36c.84,1.8,3.28,2.86,3.51,2.96Z"/>
    </g>
    <g>
      <g>
        <path class="cls-1" d="M85.88,67.48s2.12.95-.81,1.87c0,0,1.7,1.1,1.72,2.31.01.54.02,1.59.68,1.88,0,0,2.26-.22.53.62,0,0-2.13,2.12-5.55.49,0,0-1.47-1.06-1.68-2.55l-.1-3.16-.34-.25-.49-.18-.34.1-.58.17s-2.09,3.62-2.97,4.11c-1.17.66-4.55,1.51-5.28,1.49-1.61-.06-5.01-.5-5.8-2.69,0,0-1.04-2.36.42-1,0,0,.46.69,1.63.72,0,0,.25-.41,1.36-1.77.34-.42.94-.75,1.97-1.06.47-.14,1.32-.31,1.75-.81,0,0-.42-.41-1.39-.44,0,0-.81-.23,1.02-.98.94-.39,2.76-.85,5.6-.34l1.16.42s1.43,2.24,2.96.47c.1-.12.5-.16.5-.16,0,0,1.28-.58,3.57.53l.48.22Z"/>
        <path class="cls-22" d="M85,75.68c-.79,0-1.71-.18-2.73-.66l-.07-.04c-.07-.05-1.62-1.19-1.85-2.83v-.05s-.1-2.95-.1-2.95l-.13-.09-.3-.11-.63.18c-.5.86-2.17,3.63-3.05,4.12-1.24.7-4.69,1.56-5.5,1.54-1.21-.04-5.24-.38-6.18-2.96-.67-1.53-.3-1.79-.15-1.9.44-.31.99.19,1.25.44l.04.03.03.04s.31.43,1.07.52c.18-.25.55-.74,1.25-1.6.41-.5,1.08-.87,2.18-1.2.07-.02.14-.04.22-.06.25-.07.56-.15.83-.28-.16-.04-.35-.07-.58-.08h-.05s-.05-.02-.05-.02c-.21-.06-.47-.24-.49-.56-.03-.44.39-.78,1.47-1.22,1.1-.45,3-.88,5.83-.37l.07.02,1.29.47.08.12c.16.25.71.91,1.3.95.33.02.66-.16.99-.53.16-.19.47-.27.72-.3.33-.12,1.69-.49,3.86.57l.47.22c.18.08,1.03.5.99,1.23-.03.54-.54.9-1.11,1.16.55.48,1.26,1.27,1.28,2.17v.04c0,.39.03,1.17.35,1.42,1.18-.1,1.42.16,1.49.43.14.48-.43.78-.82.97-.27.24-1.42,1.18-3.25,1.18ZM82.67,74.27c2.69,1.26,4.47.05,4.92-.32-.03,0-.05,0-.08,0h-.11s-.1-.03-.1-.03c-.89-.39-.92-1.58-.93-2.22v-.04c-.02-.81-1.11-1.69-1.53-1.96l-.75-.49.86-.27c1.19-.37,1.26-.67,1.26-.67,0-.08-.24-.3-.49-.41l-.48-.23c-2.05-1-3.21-.53-3.22-.53l-.06.03h-.07c-.09.02-.21.04-.26.06-.5.57-1.06.83-1.66.79-.93-.07-1.62-.9-1.86-1.22l-1-.36c-2.61-.46-4.34-.08-5.33.32-.23.09-.4.17-.54.24.66.15.99.44,1.03.48l.29.28-.26.3c-.46.53-1.23.74-1.74.88-.08.02-.15.04-.21.06-.91.27-1.47.56-1.76.92-1.06,1.29-1.32,1.71-1.33,1.72l-.13.21h-.25c-.99-.03-1.57-.47-1.82-.73.05.13.1.28.16.41v.03c.76,2.09,4.35,2.37,5.43,2.41,0,0,.02,0,.02,0,.68,0,3.92-.8,5.03-1.43.54-.3,1.97-2.5,2.82-3.96l.09-.15,1.22-.36.68.25.56.41.11,3.34c.18,1.18,1.29,2.08,1.48,2.22ZM81.6,67.2h0ZM81.65,67.16h0s0,0,0,0Z"/>
      </g>
      <path class="cls-2" d="M78.02,66.64s-2.72-.32-4.5.38c0,0-1.26.03,1.19.81,0,0-3.47.82-5.58,3.36,0,0-1.61,1.29-3.79.33,0,0-.63.29,1.28,1.45,0,0,.96.7,3.9.92,0,0,2.6-.22,4.78-1.36,0,0,.76-.28,3.12-3.82,0,0,2.59-1.26,3.1,2.35,0,0,.16,2.67,2.55,3.18,0,0,.79.24,2.49-.12,0,0,.17-.24-.94-.82,0,0-.1-1.53-.37-2.41,0,0-.34-1.12-1.62-1.71,0,0,1.58-.4,2-.9,0,0-.35-.49-2.46-1.11,0,0-3.39-.46-5.16-.52Z"/>
      <path class="cls-24" d="M78.42,68.71s-1.26,2.44-2.71,3.87c0,0-3.28,1.39-5.2,1.31,0,0-.56-.62.94-1.05,0,0,2.15-.32,3.67-1.42,0,0,1.6-1.1,2.37-2.6,0,0,.63-.69.98-.65,0,0,.27-.07-.07.54Z"/>
      <path class="cls-24" d="M81.52,67.08s1.23-.96,4.07.64c0,0,1.32.64-.61,1.24l-.72.38s.86-.04,1.94,1.85c0,0-.17,2.37,1,2.54,0,0,1.26-.27-.05.44,0,0-1.63.35-2.15-1.05,0,0,.07-2.95-1.55-4.14,0,0,2.4-.53,1.48-.93,0,0-2.13-1.32-3.4-.96Z"/>
    </g>
    <g>
      <g>
        <path class="cls-21" d="M82.22,58.11s-1.45,1.6-.45,3.22c0,0,1.05,1.84,1.28,3.47,0,0,.69,3.01-1.28,3.6,0,0-1.74.3-3.25-.93,0,0-.71-.64-2.21-.29,0,0-2.14-.37-1.15-2.13,0,0,1.22-1.62,3.2-1.09"/>
        <path class="cls-22" d="M82.22,58.11c-.33.5-.55,1.07-.6,1.63-.02.28,0,.56.08.81.04.13.1.25.15.37.06.12.14.22.23.37.32.53.61,1.07.85,1.64.24.57.45,1.16.56,1.81v-.04c.08.39.13.75.15,1.13.01.38,0,.77-.09,1.17-.09.39-.24.8-.52,1.16-.14.18-.31.33-.51.46-.19.13-.4.22-.61.29h-.03s-.03.01-.03.01c-.17.03-.29.03-.43.04-.14,0-.27,0-.4,0-.27-.02-.53-.05-.8-.11-.52-.11-1.03-.32-1.49-.6-.11-.07-.23-.14-.34-.23l-.16-.13-.04-.03h-.01s-.02-.03-.04-.04c-.13-.09-.32-.16-.5-.21-.38-.1-.81-.08-1.24,0l-.11.02h-.06c-.17-.05-.28-.09-.42-.14-.13-.05-.26-.11-.39-.19-.25-.15-.5-.35-.68-.63-.18-.29-.23-.65-.17-.95.06-.31.18-.56.33-.79l.02-.03h0c.23-.27.47-.45.75-.63.27-.17.56-.3.87-.39.31-.08.62-.12.93-.1.31.02.61.09.89.2-.3-.04-.59-.05-.88-.01-.29.04-.56.12-.82.24-.26.12-.49.27-.71.45-.21.18-.41.39-.56.59l.02-.03c-.1.2-.16.41-.18.59-.01.19.04.34.13.47.09.13.25.24.43.33.09.04.19.08.29.11.1.03.21.06.29.07h-.17c.51-.13,1.06-.19,1.62-.09.28.05.56.14.84.31.03.02.07.04.11.07l.06.05.03.02.13.09c.08.06.18.11.27.17.36.22.77.36,1.18.45.21.05.42.07.63.08.11,0,.21,0,.32,0,.1,0,.22-.01.29-.02h-.06c.12-.03.24-.07.34-.14.1-.07.19-.15.27-.24.16-.19.28-.44.34-.73.07-.29.1-.6.11-.92,0-.31-.02-.66-.07-.95v-.04c-.07-.55-.21-1.11-.39-1.66-.19-.55-.4-1.1-.65-1.63-.05-.11-.14-.27-.2-.43-.06-.16-.1-.32-.13-.48-.05-.33-.03-.66.04-.98.16-.62.5-1.16.94-1.58Z"/>
      </g>
      <path class="cls-4" d="M80.91,59.61s-.69,1.17.33,3.7c0,0,.73,1.92-.7,3.38,0,0-.21-.25-1.53-.81,0,0-1.54-.88-2.66-.13,0,0-1,.55-.96-.45,0,0,.55-1.27,1.88-1.16l1.05-.3s1.16-2.6,2.6-4.22Z"/>
      <path class="cls-3" d="M81.45,58.95s-.68.7.35,3.03c0,0,1.68,2.47.5,5.08,0,0-.88.12-1.74-.59,0,0,1.66-.94.37-4.07,0,0-.76-2.12.52-3.46Z"/>
    </g>
  </g>
</svg>