<?xml version="1.0" encoding="utf-8"?>
<!-- Generator: Adobe Illustrator 28.5.0, SVG Export Plug-In . SVG Version: 9.03 Build 54727)  -->
<svg version="1.0" id="Layer_1" xmlns="http://www.w3.org/2000/svg" xmlns:xlink="http://www.w3.org/1999/xlink" x="0px" y="0px"
	 viewBox="0 0 150 150" style="enable-background:new 0 0 150 150;" xml:space="preserve">
<style type="text/css">
	.st0{fill:#C74C44;}
	.st1{fill:#70220D;}
	.st2{fill:#FFCAA6;}
	.st3{fill:#FFA41F;}
	.st4{fill:#673956;}
	.st5{fill:#846F74;}
	.st6{fill:#FFFDF0;}
	.st7{fill:#A3A091;}
	.st8{fill:#D6D5D4;}
	.st9{fill:#95404B;}
	.st10{fill:#C6705C;}
	.st11{fill:#EAA498;}
	.st12{fill:#9483AB;}
	.st13{fill:#FFFFFF;}
	.st14{fill:#CCC7CA;}
	.st15{fill:#3A1D30;}
	.st16{fill:#AFA19C;}
	.st17{fill:#F3E0D9;}
</style>
<g>
	<g>
		<g>
			<path class="st0" d="M119.85,99.69c0,0,0.85,2.59,2,4.88c0,0,1.18,1.83-0.28,2.65c0,0-7.05,2.24-7.49,2.36c0,0-1.44,0.44-2,0.21
				c0,0-1.4-1.18,1.49-4.44l0.73-1.06l-5.1-8.74l8.15-3.14L119.85,99.69z"/>
			<path class="st1" d="M111.88,110.28l-0.07-0.03l-0.06-0.05c-0.08-0.06-0.46-0.43-0.52-1.19c-0.08-1.1,0.57-2.44,1.93-3.98
				l0.52-0.76l-5.24-8.99l9.24-3.55l2.67,7.8l0,0.01c0.01,0.03,0.84,2.56,1.96,4.78c0.12,0.2,0.7,1.2,0.46,2.17
				c-0.12,0.5-0.45,0.92-0.94,1.19l-0.1,0.04c-0.29,0.09-7.06,2.24-7.49,2.36c-0.28,0.09-1.04,0.3-1.69,0.3
				C112.29,110.39,112.06,110.36,111.88,110.28z M121.74,106.24c0.13-0.5-0.2-1.17-0.34-1.38l-0.03-0.05
				c-1.14-2.28-1.98-4.8-2.03-4.95l-2.31-6.76l-7.07,2.72l4.95,8.49l-0.92,1.34l-0.04,0.05c-2.07,2.34-1.73,3.38-1.59,3.63
				c0.29,0.03,0.96-0.07,1.55-0.25c0.33-0.09,4.96-1.56,7.41-2.34C121.56,106.61,121.69,106.45,121.74,106.24z"/>
		</g>
		<g>
			<path class="st2" d="M115.91,98.77l1.39,4.74c0,0-1.21-0.18-2.4,0.41l-3.32-5.43C111.57,98.5,114.2,95.55,115.91,98.77z"/>
		</g>
		<g>
			<path class="st3" d="M112.18,108.48c0,0,1.19-3,2.67-3.37c0,0,3.05-1.52,4.96,0.95c0,0,0.93,1.15-6.29,2.85
				C113.51,108.91,111.92,109.23,112.18,108.48z"/>
		</g>
		<g>
			<path class="st0" d="M112.85,111.29l9.62-2.74c0.42-0.12,0.66-0.56,0.54-0.98l-0.09-0.31c-0.12-0.42-0.56-0.66-0.98-0.54
				l-9.62,2.74c-0.42,0.12-0.66,0.56-0.54,0.98l0.09,0.31C112,111.16,112.44,111.41,112.85,111.29z"/>
			<path class="st1" d="M111.37,110.89l-0.09-0.31c-0.2-0.7,0.21-1.43,0.9-1.62l9.62-2.74c0.34-0.1,0.69-0.05,1,0.12
				c0.31,0.17,0.53,0.45,0.62,0.79l0.09,0.31c0.1,0.34,0.05,0.69-0.12,1c-0.17,0.31-0.45,0.53-0.79,0.62l-9.62,2.74h0
				c-0.12,0.03-0.24,0.05-0.36,0.05C112.07,111.84,111.54,111.47,111.37,110.89z M112.71,110.78l9.62-2.74
				c0.09-0.03,0.14-0.09,0.16-0.13c0.02-0.04,0.05-0.11,0.02-0.2l-0.09-0.31c-0.03-0.09-0.09-0.14-0.13-0.16
				c-0.04-0.02-0.11-0.05-0.2-0.02l-9.62,2.74c-0.14,0.04-0.22,0.19-0.18,0.33l0.09,0.31C112.42,110.74,112.57,110.82,112.71,110.78
				L112.71,110.78z"/>
		</g>
		<g>
			<path class="st4" d="M115.71,104.14c0,0,4.16-0.17,4.55-3.32c0,0-1.69-10.33-4.79-9.74c0,0-5.58,1.07-6.9,4.27
				c0,0-0.86,1.04,4.31,8.08C112.87,103.44,114.5,104.67,115.71,104.14z"/>
			<path class="st4" d="M112.56,103.86l-0.06-0.05l-0.05-0.06c-3.38-4.6-4.91-7.65-4.36-8.64c1.44-3.4,7.03-4.5,7.27-4.55
				c0.53-0.1,1.05,0.02,1.54,0.37c2.48,1.73,3.73,8.98,3.86,9.8l0.01,0.07l-0.01,0.07c-0.34,2.78-3.34,3.68-4.95,3.77
				c-0.26,0.1-0.53,0.14-0.79,0.14C113.84,104.8,112.71,103.98,112.56,103.86z M116.31,91.8c-0.26-0.18-0.5-0.24-0.74-0.2
				c-0.05,0.01-5.32,1.05-6.52,3.96l-0.03,0.07l-0.05,0.06c-0.01,0.01,0.16,1.75,4.28,7.38c0.44,0.31,1.53,0.91,2.25,0.59l0.09-0.04
				l0.1,0c0.15-0.01,3.65-0.19,4.04-2.79C119.36,98.66,118.08,93.03,116.31,91.8z"/>
		</g>
		<g>
			<path class="st5" d="M116.13,103.54c0,0,0.64-0.69,0.37-2.08c0,0-1.85-5.95-3.24-5.73c0,0-2.51,0.38-2.69,2.3
				c0,0,0.75,3.48,2.72,4.98C113.29,103.02,114.3,104.29,116.13,103.54z"/>
		</g>
		<g>
			<path class="st0" d="M119.43,96.11c0,0-2.77,2.32-9.34,3.73l0.9,1.59c0,0,5.59-1.32,9-3.62L119.43,96.11z"/>
			<path class="st1" d="M109.28,99.48l0.7-0.15c6.33-1.36,9.08-3.59,9.12-3.62l0.6-0.5l0.91,2.82l-0.33,0.22
				c-3.45,2.32-8.94,3.64-9.17,3.7l-0.38,0.09L109.28,99.48z M119.15,96.95c-1.1,0.72-3.72,2.18-8.26,3.25l0.35,0.63
				c1.25-0.33,5.33-1.48,8.12-3.24L119.15,96.95z"/>
		</g>
		<g>
			<path class="st3" d="M115.91,98.77c0,0-1.3,1.19-4.65,1.87l-0.52-0.45C110.73,100.19,114.17,99.35,115.91,98.77z"/>
		</g>
	</g>
	<g>
		<path class="st6" d="M115.94,63.41c0,0-1.89,11.42-8.48,19.96l0.77,0.06c0,0,7.25-9.87,8.1-20.81L115.94,63.41z"/>
	</g>
	<g>
		<g>
			<path class="st7" d="M85.02,69.72c0,0-3.67-3.77-5.62-9.58c0,0,5.08-0.15,7.1-3.61c0,0,1.84,3.91,3.49,7.08
				c0.58,1.13,4.2,1.84,6.39,2.98c2.55,1.32,2.3,6.81-2.24,6.64C93.51,73.2,88.28,72.76,85.02,69.72z"/>
			<path class="st4" d="M94.12,73.75c-0.06,0-5.86-0.3-9.46-3.64l-0.02-0.02c-0.15-0.16-3.78-3.92-5.74-9.78l-0.22-0.67l0.71-0.02
				c0.05,0,4.82-0.18,6.66-3.35l0.5-0.86l0.43,0.9c0.02,0.04,1.86,3.93,3.48,7.06c0.27,0.51,1.9,1.09,3.21,1.56
				c1.03,0.37,2.09,0.74,2.96,1.19c1.5,0.77,2.25,2.79,1.76,4.68c-0.49,1.86-1.99,2.96-4.05,2.96
				C94.26,73.76,94.19,73.75,94.12,73.75z M80.12,60.61c1.88,5.14,5.08,8.55,5.27,8.74c3.32,3.07,8.72,3.35,8.77,3.35
				c2.36,0.09,3.03-1.49,3.21-2.17c0.37-1.41-0.17-2.94-1.22-3.48c-0.81-0.42-1.84-0.78-2.83-1.14c-1.79-0.64-3.33-1.19-3.79-2.06
				c-1.18-2.27-2.48-4.95-3.11-6.27C84.58,59.84,81.5,60.45,80.12,60.61z"/>
		</g>
		<g>
			<path class="st8" d="M96.52,67.68c0,0,1.62,2.17-3.32,2.86c0,0-3.75-0.66-6.14-2.8c0,0-2.63-2.39-3.81-6.17
				c0,0,2.91-1.75,3.21-3.76c0,0,2.99,6.27,3.46,6.63c0,0,2.71,1.37,5.04,2.16C94.96,66.6,96.27,66.93,96.52,67.68z"/>
		</g>
		<g>
			<g>
				<path class="st9" d="M81.23,65.07c0,0,4.7,0.49,7.74-3.65l-2.31-6.04c0,0-2.62,4.06-8.08,4.06
					C78.59,59.43,80.36,63.57,81.23,65.07z"/>
				<path class="st4" d="M81.17,65.59l-0.26-0.03l-0.13-0.23c-0.88-1.51-2.59-5.52-2.67-5.69l-0.31-0.73l0.79,0c0,0,0,0,0,0
					c5.09,0,7.53-3.66,7.63-3.82l0.56-0.87l2.78,7.27l-0.17,0.23c-2.59,3.53-6.26,3.89-7.66,3.89
					C81.41,65.61,81.21,65.59,81.17,65.59z M86.51,56.43c-1.02,1.16-3.36,3.24-7.13,3.5c0.5,1.16,1.52,3.44,2.17,4.63
					c0.97,0.02,4.41-0.13,6.83-3.23L86.51,56.43z"/>
			</g>
			<g>
				<path class="st10" d="M88.26,61.35c0,0-4.38,5.26-7.65-1.12c0,0,3.18-0.15,5.75-3.64L88.26,61.35z"/>
			</g>
			<g>
				<g>
					<path class="st4" d="M85.61,60.51c-0.25-0.15-0.5-0.24-0.76-0.32c-0.26-0.08-0.52-0.14-0.78-0.18
						c-0.26-0.04-0.53-0.06-0.8-0.06c-0.27,0-0.54,0.02-0.82,0.08c0.25,0.15,0.5,0.24,0.76,0.32c0.26,0.08,0.52,0.14,0.78,0.18
						c0.26,0.04,0.53,0.06,0.8,0.06C85.06,60.6,85.33,60.58,85.61,60.51z"/>
				</g>
				<g>
					<path class="st4" d="M82.99,61.74c0.24-0.16,0.43-0.36,0.62-0.56c0.18-0.2,0.35-0.41,0.49-0.64c0.15-0.22,0.28-0.46,0.4-0.7
						c0.11-0.25,0.22-0.5,0.28-0.78c-0.24,0.16-0.44,0.35-0.62,0.55c-0.18,0.2-0.34,0.42-0.49,0.64c-0.15,0.22-0.28,0.46-0.4,0.7
						C83.15,61.21,83.05,61.46,82.99,61.74z"/>
				</g>
			</g>
			<g>
				<g>
					<path class="st4" d="M86.41,62.49c-0.25-0.15-0.5-0.24-0.76-0.32c-0.26-0.08-0.52-0.14-0.78-0.18
						c-0.26-0.04-0.53-0.06-0.8-0.06c-0.27,0-0.54,0.02-0.82,0.08c0.25,0.15,0.5,0.24,0.76,0.32c0.26,0.08,0.52,0.14,0.78,0.18
						c0.26,0.04,0.53,0.06,0.8,0.06C85.86,62.57,86.13,62.56,86.41,62.49z"/>
				</g>
				<g>
					<path class="st4" d="M83.79,63.72c0.24-0.16,0.43-0.36,0.62-0.56c0.18-0.2,0.35-0.42,0.49-0.64c0.15-0.22,0.28-0.46,0.4-0.7
						c0.11-0.25,0.22-0.5,0.28-0.78c-0.24,0.16-0.43,0.36-0.62,0.56c-0.18,0.2-0.35,0.41-0.49,0.64c-0.15,0.22-0.28,0.46-0.4,0.7
						C83.95,63.18,83.85,63.43,83.79,63.72z"/>
				</g>
			</g>
		</g>
		<g>
			<g>
				<path class="st3" d="M80.39,61.99c0,0-5.76,0.21-8.66,3.11c0,0-0.64,1.03,0.18,2.04c0,0,1.05-2.91,8.56-3.97L80.39,61.99z"/>
				<path class="st1" d="M71.6,67.39c-0.99-1.22-0.24-2.44-0.21-2.5l0.06-0.07c2.98-2.98,8.68-3.22,8.92-3.23l0.38-0.01l0.14,1.93
					l-0.36,0.05c-7.11,1.01-8.24,3.69-8.25,3.71l-0.24,0.65L71.6,67.39z M80.02,62.41c-1.3,0.11-5.63,0.62-7.98,2.93
					c-0.06,0.12-0.25,0.54-0.11,1.02c0.75-0.95,2.81-2.71,8.12-3.53L80.02,62.41z"/>
			</g>
			<g>
				<path class="st3" d="M80.45,61.81c0,0-4.36,2.84-5.71,6.3c0,0-0.18,1.05,0.76,1.4c0,0-0.07-2.6,5.37-6.88L80.45,61.81z"/>
				<path class="st1" d="M75.37,69.88c-0.98-0.37-1.09-1.36-1.01-1.83l0.02-0.08c1.38-3.54,5.68-6.37,5.86-6.49l0.36-0.24l0.77,1.5
					l-0.26,0.2c-5.16,4.05-5.22,6.54-5.22,6.56l0.02,0.59L75.37,69.88z M80.31,62.38c-1.05,0.75-4.1,3.1-5.18,5.83
					c-0.01,0.09-0.02,0.36,0.11,0.59c0.31-1.07,1.39-3.28,5.14-6.28L80.31,62.38z"/>
			</g>
			<g>
				<path class="st3" d="M79.75,61.5c-0.55,0.25-0.79,0.89-0.54,1.43c0.25,0.54,0.89,0.79,1.43,0.54c0.54-0.25,0.79-0.89,0.54-1.43
					C80.94,61.49,80.3,61.25,79.75,61.5z"/>
				<path class="st1" d="M78.85,63.09c-0.16-0.36-0.18-0.76-0.04-1.13c0.14-0.37,0.41-0.66,0.77-0.82c0.36-0.16,0.76-0.18,1.13-0.04
					c0.37,0.14,0.66,0.41,0.82,0.77c0.34,0.74,0.01,1.62-0.74,1.95c-0.2,0.09-0.4,0.13-0.61,0.13
					C79.64,63.96,79.1,63.64,78.85,63.09z M79.91,61.86L79.91,61.86c-0.17,0.08-0.3,0.21-0.36,0.39c-0.07,0.17-0.06,0.36,0.02,0.53
					c0.16,0.35,0.57,0.5,0.91,0.34c0.35-0.16,0.5-0.57,0.34-0.91c-0.08-0.17-0.21-0.3-0.39-0.36c-0.08-0.03-0.16-0.04-0.24-0.04
					C80.1,61.8,80.01,61.82,79.91,61.86z"/>
			</g>
		</g>
	</g>
	<g>
		<g>
			<g>
				<path class="st11" d="M79.75,49.77c2.2-0.06,3.16,1.04,3.16,1.04l3,0.89c2.59,3.22-0.62,6.51-0.62,6.51l-0.39,2.06l-1.02,1.25
					c-1.9,1.64-6.63-0.86-6.63-0.86c-1.61-2-0.12-4.42-0.12-4.42c-1.32-1.5,0.41-2.58,0.41-2.58c-1.76-1.3,0.66-3.06,0.66-3.06
					L79.75,49.77z"/>
			</g>
			<g>
				<path class="st4" d="M77.89,50.19c-0.15,0.11-1.51,1.13-1.52,2.38c0,0.29,0.07,0.68,0.38,1.08c-0.27,0.28-0.56,0.69-0.64,1.21
					c-0.07,0.49,0.06,0.98,0.38,1.45c-0.38,0.79-1.13,2.87,0.34,4.69l0.07,0.08l0.1,0.05c0.52,0.27,5.11,2.61,7.22,0.79l0.06-0.06
					l1.11-1.35l0.38-2.04c1.21-1.32,2.76-4.34,0.55-7.09l-0.1-0.13l-3.03-0.9c-0.35-0.32-1.45-1.15-3.45-1.1l-0.13,0L77.89,50.19z
					 M78.48,51.06l1.41-0.76c1.81-0.01,2.6,0.83,2.63,0.87l0.1,0.11l0.14,0.05l2.84,0.84c2.09,2.79-0.57,5.57-0.69,5.69l-0.11,0.11
					l-0.39,2.09l-0.9,1.1c-1.32,1.07-4.62-0.24-5.92-0.9c-1.25-1.68-0.03-3.71-0.02-3.73l0.2-0.33l-0.26-0.29
					c-0.28-0.32-0.4-0.61-0.36-0.9c0.08-0.51,0.65-0.89,0.66-0.89l0.66-0.41l-0.62-0.46c-0.43-0.32-0.43-0.59-0.43-0.68
					C77.42,51.98,78.18,51.28,78.48,51.06z"/>
			</g>
		</g>
		<g>
			<g>
				<g>
					<g>
						<path class="st4" d="M83.09,57.35c-0.12-0.08-0.25-0.17-0.36-0.28c0.14-0.07,0.29-0.13,0.46-0.18L83.09,57.35z"/>
					</g>
					<g>
						<path class="st4" d="M83.45,54.83c-0.05,0.05-0.12,0.15-0.17,0.23c-0.06,0.09-0.11,0.18-0.15,0.27
							c-0.09,0.18-0.15,0.38-0.18,0.57c-0.02,0.19,0,0.37,0.07,0.55c0.06,0.18,0.21,0.34,0.36,0.49l0.4,0.41l-0.5,0.05
							c-0.19,0.02-0.41,0.07-0.61,0.13c-0.2,0.07-0.4,0.15-0.58,0.27c-0.18,0.12-0.34,0.26-0.48,0.43c-0.14,0.17-0.22,0.38-0.29,0.6
							c0.02-0.22,0.07-0.46,0.18-0.66c0.11-0.21,0.26-0.4,0.43-0.56c0.18-0.16,0.37-0.3,0.58-0.41c0.07-0.04,0.14-0.07,0.21-0.11
							c0.12,0.1,0.24,0.19,0.36,0.28l0.1-0.45c-0.17,0.05-0.32,0.11-0.46,0.18c-0.1-0.09-0.19-0.19-0.27-0.31
							c-0.17-0.25-0.27-0.56-0.29-0.86c-0.02-0.3,0.02-0.6,0.09-0.87c0.04-0.14,0.08-0.27,0.14-0.41c0.06-0.14,0.11-0.25,0.2-0.4
							L83.45,54.83z"/>
					</g>
				</g>
			</g>
		</g>
		<g>
			<g>
				<path class="st9" d="M89.72,32.79c0,0-2.42,5.06-4.71,15.94c0,0-0.75,4.2-1.96,6.31c0,0-1.29,2.54-3.21,12.42
					c0,0-3.26,1.89-5.18-1.61c0,0,2.22-4.99,4.22-12.11c0,0,1.58-7.1,3.29-10.42c0,0,6.79-20.22,8.6-28.66c0,0,3.35-1.23,3.27,1.09
					c0,0-0.21,3.15-3,11.95C91.04,27.7,90.93,29.99,89.72,32.79z"/>
				<path class="st4" d="M76.84,68.23c-1.04-0.29-1.89-1.02-2.53-2.19l-0.09-0.17l0.08-0.18c0.02-0.05,2.23-5.05,4.2-12.03
					c0.06-0.29,1.61-7.15,3.31-10.48c0.29-0.86,6.83-20.41,8.58-28.59l0.05-0.21l0.2-0.07c0.22-0.08,2.14-0.75,3.18,0
					c0.3,0.22,0.65,0.65,0.62,1.48c-0.01,0.13-0.25,3.29-3.01,12c-0.03,0.37-0.22,2.54-1.35,5.17l-0.01,0.01
					c-0.02,0.05-2.43,5.16-4.68,15.84c-0.03,0.17-0.78,4.29-1.99,6.42c-0.01,0.03-1.3,2.65-3.18,12.32l-0.03,0.18l-0.15,0.09
					c-0.05,0.03-0.99,0.56-2.19,0.56C77.53,68.36,77.19,68.32,76.84,68.23z M82.71,54.84c1.16-2.02,1.9-6.14,1.91-6.19
					c2.23-10.6,4.63-15.79,4.74-16.02c1.16-2.69,1.29-4.92,1.29-4.95l0.02-0.1c2.74-8.62,2.98-11.83,2.99-11.84
					c0.01-0.39-0.08-0.65-0.3-0.8c-0.52-0.38-1.67-0.14-2.25,0.03c-1.86,8.49-8.5,28.28-8.56,28.48l-0.02,0.05
					c-1.66,3.23-3.24,10.25-3.26,10.34c-1.78,6.31-3.75,11.01-4.16,11.98c0.52,0.87,1.17,1.43,1.95,1.64
					c1.05,0.29,2.07-0.1,2.44-0.27C81.38,57.52,82.65,54.96,82.71,54.84z"/>
			</g>
			<g>
				<path class="st10" d="M91.11,14.77l-0.81,3.74c0,0,1.54,0.58,2.44-2.26C92.73,16.25,93.28,14.4,91.11,14.77z"/>
			</g>
			<g>
				<path class="st12" d="M93.76,18.14c0,0-2.16-2.62-5.28,0.13c0,0-3.88-0.32-17.51-8.6c0,0-1.63-1.51-3.95,2.47
					c0,0-3.08,4.29-2.52,10.94c0,0,0.37,1.95,5.31,1.87c0,0,9.66,0.68,16.74,2.81c0,0,1.97-1.4,4.17,0.98c0,0,2.85,0.5,3.15-2.94
					c0,0,2.09,0.25,7.58,2.67c0,0,0.75-0.85,1.64-4.09c0,0,0.79-1.37-3.67-1.19c0,0-5.06-1.33-4.44-2.26
					C94.97,20.93,95.27,18.91,93.76,18.14z"/>
				<path class="st4" d="M90.63,29.26l-0.17-0.03l-0.12-0.13c-1.83-1.99-3.41-0.95-3.48-0.91l-0.21,0.15l-0.25-0.07
					c-6.78-2.03-16.09-2.75-16.6-2.78c-5.21,0.07-5.77-2.06-5.81-2.3l-0.01-0.05c-0.56-6.6,2.34-10.89,2.6-11.27
					c1.06-1.81,2.15-2.81,3.25-2.97c0.77-0.12,1.28,0.22,1.45,0.35c11.61,7.05,16.11,8.28,17.05,8.47c1.08-0.89,2.18-1.3,3.27-1.22
					c1.34,0.11,2.23,0.95,2.49,1.22c1.72,0.96,1.41,3.19,1.39,3.29l-0.01,0.07c0.37,0.38,2.15,1.09,3.99,1.58
					c2.31-0.08,3.6,0.22,4.04,0.95c0.21,0.35,0.17,0.72,0.07,0.96c-0.88,3.22-1.65,4.15-1.74,4.25l-0.25,0.29l-0.35-0.15
					c-3.85-1.7-6.02-2.32-6.92-2.53c-0.18,0.99-0.6,1.74-1.25,2.23c-0.7,0.54-1.49,0.64-1.98,0.64
					C90.82,29.29,90.65,29.26,90.63,29.26z M93.93,25.28c0.09,0.01,2.12,0.27,7.32,2.53c0.27-0.47,0.77-1.53,1.33-3.57l0.02-0.07
					l0.01-0.03c-0.05-0.06-0.51-0.54-3.18-0.44l-0.08,0l-0.08-0.02c-1.64-0.43-4.45-1.31-4.83-2.3c-0.08-0.21-0.07-0.42,0.01-0.61
					c0.03-0.34,0.07-1.66-0.93-2.17l-0.1-0.05l-0.07-0.08c-0.01-0.01-0.72-0.85-1.85-0.93c-0.86-0.06-1.76,0.31-2.67,1.12
					l-0.17,0.15l-0.22-0.02c-0.16-0.01-4.15-0.43-17.74-8.68l-0.07-0.06c-0.01-0.01-0.25-0.2-0.67-0.13
					c-0.43,0.08-1.33,0.5-2.48,2.48l-0.03,0.04c-0.03,0.04-2.95,4.21-2.43,10.54c0.07,0.18,0.73,1.51,4.79,1.45l0.02,0l0.02,0
					c0.1,0.01,9.6,0.7,16.64,2.76c0.65-0.33,2.51-0.97,4.47,1.04c0.29,0.01,0.93-0.01,1.46-0.42c0.53-0.4,0.83-1.1,0.92-2.07
					l0.05-0.54L93.93,25.28z"/>
			</g>
			<g>
				<path class="st13" d="M82.13,17.08c0,0-4.79-2.53-11.89-6.81c0,0-5.13,0.04-4.96,12.67c0,0,0.75,1.27,3.13,1.1
					c0,0,2.76-0.87,11.95,1.22C80.36,25.26,78.02,21.4,82.13,17.08z"/>
			</g>
			<g>
				<path class="st14" d="M92.35,19.15c0,0-1.46,2-2.03,6.56c0,0-1.35-0.67-3.09,0.57c0,0-0.7-0.37,1.38-7.2
					C88.61,19.07,89.4,17.26,92.35,19.15z"/>
			</g>
			<g>
				<path class="st14" d="M102.31,24.5c0,0-0.53-1.05-1.67,1.84c0,0-3.94-2.09-7-2.17l-0.2,0.66c0,0,1.72,0.64,7.16,2.83
					C100.59,27.66,101.38,28.28,102.31,24.5z"/>
			</g>
			<g>
				<path class="st13" d="M93.32,18.38c0,0-1.99-2.02-4.61,0.34c0,0,3.92-0.48,3.09,1.01c-0.6,1.08-1.61,3.42-1.82,5.86
					c0,0,0.91,0.25,1.45,0.83c0,0,1.15-3.51,2.32-5.63C93.75,20.81,94.68,19.61,93.32,18.38z"/>
			</g>
			<g>
				<path class="st14" d="M85.52,25.36c0,0-2.23-1.58-12.94-1.76c0,0-1.02-2.17,0.14-6.31c0,0-1.46,0.36-1.91,6.15
					c0,0-1.28-0.22-3.89,0.32c0,0-0.04,0.09,1.49,0.3c0,0,8.89,0.03,17.78,2.81C86.19,26.86,86.9,26.03,85.52,25.36z"/>
			</g>
			<g>
				<path class="st10" d="M88.08,28.04c0,0,1.11,0.56,1,1.66c0,0-3.86,10.92-5.89,18.98c0,0-0.8,4.2-2.76,8.89
					c0,0-1.76,5.59-2.21,9.04c0,0-0.68,0.97-2.56-0.44c0,0,3.71-9.91,5.1-16.9c0,0,1.25-4.14,2.46-6.73
					C83.21,42.53,86.91,30.42,88.08,28.04z"/>
			</g>
		</g>
		<g>
			<g>
				<g>
					<path class="st11" d="M78.76,49.58c2.01-0.69,4.02,1.64,4.02,1.64c-2.62-0.91-2.3,2.56-2.3,2.56
						c-1.59-1.85-3.68-0.26-3.68-0.26c-1.44-1.98,1.16-3.56,1.16-3.56L78.76,49.58z"/>
				</g>
				<g>
					<path class="st4" d="M77.69,49.5c-0.06,0.04-1.52,0.94-1.8,2.33c-0.14,0.69,0.03,1.36,0.49,1.99l0.31,0.43l0.43-0.32
						c0.18-0.13,1.75-1.23,2.97,0.19l1.07,1.24l-0.15-1.63c-0.03-0.39-0.01-1.59,0.51-1.99c0.24-0.19,0.61-0.19,1.1-0.02l1.84,0.64
						l-1.27-1.48c-0.09-0.11-2.26-2.59-4.59-1.8l-0.05,0.02L77.69,49.5z M78.22,50.41l0.74-0.35c0.85-0.28,1.73,0.12,2.39,0.58
						c-0.17,0.06-0.33,0.15-0.48,0.27c-0.56,0.44-0.79,1.16-0.87,1.78c-1.07-0.59-2.23-0.32-3,0.08c-0.1-0.25-0.12-0.49-0.07-0.74
						C77.09,51.17,78.06,50.51,78.22,50.41z"/>
				</g>
			</g>
			<g>
				<g>
					<path class="st11" d="M80.31,53.55c1.3,1.05,1.03,3.47,1.03,3.47c-0.53,1.29-2.63,0.07-2.63,0.07c-2.19-1.37-2.6-0.05-2.6-0.05
						c-1.55-2.25,0.54-3.39,0.54-3.39C79.27,52.11,80.31,53.55,80.31,53.55z"/>
				</g>
				<g>
					<path class="st4" d="M76.39,53.19c-0.12,0.07-1.06,0.63-1.32,1.71c-0.18,0.77,0.02,1.59,0.6,2.44l0.61,0.88l0.32-1.03l0,0l0,0
						l0,0c0,0,0.05-0.12,0.22-0.17c0.16-0.05,0.62-0.1,1.61,0.51c0.16,0.1,1.51,0.85,2.52,0.51c0.4-0.13,0.7-0.42,0.87-0.82
						l0.03-0.07l0.01-0.07c0.01-0.11,0.29-2.67-1.17-3.9C80.41,52.86,79.09,51.61,76.39,53.19z M76.9,54.1l0.01-0.01
						c2.14-1.25,2.94-0.27,2.98-0.23l0.04,0.05l0.05,0.05c0.84,0.68,0.9,2.26,0.84,2.92c-0.06,0.11-0.14,0.15-0.2,0.17
						c-0.44,0.15-1.31-0.21-1.65-0.42c-0.1-0.06-0.19-0.12-0.29-0.17c-0.89-0.5-1.65-0.64-2.24-0.42c-0.08,0.03-0.16,0.07-0.23,0.11
						c-0.15-0.36-0.19-0.7-0.12-1.01C76.25,54.47,76.89,54.11,76.9,54.1z"/>
				</g>
				<g>
					<polygon class="st4" points="76.6,57.19 76.6,57.19 76.6,57.19 					"/>
				</g>
			</g>
			<g>
				<g>
					<path class="st11" d="M78.12,56.58c3.71,2.02,1.97,4.13,1.97,4.13c-1.16,1.22-4.29-0.44-4.29-0.44
						c-0.91-1.67-0.04-3.1-0.04-3.1C76.59,56.26,78.12,56.58,78.12,56.58z"/>
				</g>
				<g>
					<path class="st4" d="M75.31,56.89c-0.04,0.07-1.02,1.72,0.03,3.63l0.08,0.14l0.14,0.07c0.36,0.19,3.53,1.79,4.92,0.33
						l0.03-0.03c0.03-0.04,0.71-0.88,0.48-2.05c-0.21-1.08-1.09-2.04-2.61-2.87l-0.07-0.04l-0.08-0.02
						c-0.07-0.02-1.83-0.36-2.85,0.75L75.31,56.89z M76.18,57.48c0.54-0.53,1.49-0.44,1.76-0.4c0.01,0,0.02,0.01,0.03,0.01
						c1.14,0.64,1.82,1.36,1.97,2.07c0.13,0.63-0.18,1.1-0.25,1.19c-0.65,0.64-2.54-0.01-3.51-0.48
						C75.62,58.7,76.07,57.69,76.18,57.48z"/>
				</g>
			</g>
			<g>
				<g>
					<g>
						<path class="st2" d="M77.53,56.78c1.38,0.42,1.99,1.59,1.99,1.59c-0.1,1.99-2.08,0.24-2.08,0.24
							c-0.29,0.83-1.25,0.82-1.25,0.82c-0.82-0.47-0.48-2.01-0.48-2.01C76.06,56.31,77.53,56.78,77.53,56.78z"/>
					</g>
				</g>
				<g>
					<g>
						<g>
							<g>
								<path class="st4" d="M78.23,57.48c-0.11,0.2-0.22,0.41-0.31,0.62c-0.09,0.21-0.18,0.43-0.24,0.65
									c-0.06,0.22-0.11,0.45-0.05,0.69c-0.14-0.2-0.19-0.46-0.21-0.71c-0.02-0.25-0.02-0.5-0.01-0.75
									c0.01-0.25,0.04-0.5,0.07-0.74c0.03-0.25,0.07-0.49,0.13-0.74l0.97,0.39C78.46,57.07,78.34,57.28,78.23,57.48z"/>
							</g>
						</g>
					</g>
				</g>
			</g>
			<g>
				<g>
					<g>
						<path class="st2" d="M78.21,53.5c1.67-0.18,2.2,1.29,2.2,1.29c0.19,1.98-1.97,0.28-1.97,0.28c-0.17,0.86-1.9,0.85-1.9,0.85
							c-0.88-0.35-0.44-0.79-0.44-0.79C76.29,53.97,78.21,53.5,78.21,53.5z"/>
					</g>
				</g>
				<g>
					<g>
						<g>
							<g>
								<path class="st4" d="M79,54.09c-0.08,0.22-0.15,0.44-0.22,0.66c-0.06,0.22-0.12,0.45-0.15,0.68
									c-0.03,0.23-0.04,0.46,0.05,0.69c-0.17-0.18-0.25-0.43-0.31-0.67c-0.06-0.24-0.09-0.49-0.11-0.74
									c-0.02-0.25-0.03-0.5-0.03-0.74c0-0.25,0-0.49,0.02-0.76l1.02,0.25C79.17,53.65,79.08,53.87,79,54.09z"/>
							</g>
						</g>
					</g>
				</g>
			</g>
			<g>
				<g>
					<g>
						<path class="st2" d="M79.14,49.94c1.42,0.21,2.03,0.72,2.03,0.72c0.19,1.98-2.12,1.05-2.12,1.05c-0.17,0.86-1.9,0.85-1.9,0.85
							c-0.45-0.55-0.13-1-0.13-1C77.21,50.41,79.14,49.94,79.14,49.94z"/>
					</g>
				</g>
				<g>
					<g>
						<g>
							<g>
								<path class="st4" d="M79.67,50.48c-0.08,0.22-0.15,0.44-0.22,0.66c-0.06,0.22-0.12,0.45-0.15,0.68
									c-0.03,0.23-0.04,0.46,0.05,0.69c-0.17-0.18-0.25-0.43-0.31-0.67c-0.06-0.24-0.09-0.49-0.11-0.74
									c-0.02-0.25-0.03-0.5-0.03-0.75c0-0.25,0-0.49,0.02-0.75l1.02,0.25C79.84,50.04,79.75,50.26,79.67,50.48z"/>
							</g>
						</g>
					</g>
				</g>
			</g>
			<g>
				<g>
					<g>
						<path class="st11" d="M82.8,50.19l1.05,0.17c2.68,1.02,2.91,3.11,2.91,3.11l-3.19,0.39c-2.07,2.61-3.2,1.34-3.2,1.34
							c-0.77-0.7,0.02-2.04,0.02-2.04C81.28,49.28,82.8,50.19,82.8,50.19z"/>
					</g>
					<g>
						<path class="st4" d="M82.95,49.68l0.97,0.16l0.1,0.03c2.95,1.12,3.23,3.45,3.24,3.55l-1.04,0.12
							c-0.01-0.07-0.24-1.77-2.52-2.67l-1.09-0.18l-0.09-0.05c0,0-0.13-0.05-0.31,0.02c-0.24,0.1-0.85,0.56-1.34,2.63l-0.02,0.08
							l-0.04,0.07c-0.01,0.01-0.54,0.99-0.12,1.38l0.03,0.03c0.01,0.01,0.17,0.16,0.47,0.14c0.31-0.02,0.97-0.23,1.94-1.45
							l0.82,0.65c-0.95,1.2-1.88,1.82-2.76,1.85c-0.39,0.01-0.69-0.1-0.9-0.22c-0.17-0.09-0.27-0.19-0.32-0.24
							c-0.81-0.75-0.47-1.96-0.11-2.6c0.44-1.82,1.08-2.92,1.93-3.28C82.33,49.48,82.76,49.6,82.95,49.68z"/>
					</g>
				</g>
				<g>
					<g>
						<path class="st2" d="M83.23,52.57c-1.31,3.03-2.48,1.38-2.48,1.38c-0.06-1.49,1.16-3.21,1.16-3.21
							C83.96,51.49,83.23,52.57,83.23,52.57z"/>
					</g>
				</g>
			</g>
		</g>
	</g>
	<g>
		<g>
			<g>
				<path class="st7" d="M96.33,65.21c-0.7,1.11-3.33,6.9-4.03,11.86c-0.36,2.52,8.95,4.81,8.95,4.81l0.77,0.15
					c12.54,3.3,20.8,0.52,20.8,0.52s-0.25,0.37,0,0c0.25-0.37,0.38-7.26,0.38-7.26s0.03-6.31-5.38-11.28c0,0-11.68,2.99-16.73-3.11
					c0,0-2.87,0.85-3.4,2.08C97.68,62.97,98.55,61.69,96.33,65.21z"/>
				<path class="st4" d="M101.9,82.54l-0.78-0.15c-1.63-0.4-9.75-2.54-9.35-5.39c0.71-5,3.36-10.88,4.11-12.06l0,0
					c0.8-1.27,1.17-1.87,1.35-2.16l-0.03-0.01c0.61-1.42,3.42-2.28,3.74-2.37l0.33-0.1l0.22,0.27c4.78,5.77,16.08,2.97,16.19,2.94
					l0.28-0.07l0.21,0.19c5.52,5.07,5.55,11.4,5.55,11.68c-0.07,3.67-0.16,5.53-0.26,6.48l0.69-0.23l-1.02,1.46l-0.21-0.15
					l0.06,0.18c-0.21,0.07-3.47,1.13-8.91,1.13C110.76,84.18,106.64,83.79,101.9,82.54z M122.67,75.28c0-0.06-0.03-5.98-5.01-10.7
					c-1.85,0.42-11.84,2.4-16.75-3.08c-0.89,0.3-2.1,0.85-2.58,1.42c-0.06,0.17-0.18,0.36-0.31,0.58c-0.22,0.37-0.61,0.98-1.25,2
					l0,0c-0.72,1.14-3.27,6.81-3.96,11.65c-0.18,1.27,4.3,3.18,8.53,4.22l0.77,0.15l0.03,0.01c10.98,2.89,18.72,1.04,20.23,0.61
					C122.5,81.24,122.62,78.11,122.67,75.28z M97.33,62.83c0.02,0.13,0.1,0.26,0.23,0.35c0.16,0.1,0.34,0.1,0.49,0.04L97.33,62.83z"
					/>
			</g>
			<g>
				<path class="st8" d="M114.02,67.99c0,0-9.9,0.9-15.52-2.88c0,0-2.75,2.71-4.79,11.87c0,0,15.05,5.93,22.21,2.91
					C115.91,79.89,113.09,75.34,114.02,67.99z"/>
			</g>
		</g>
		<g>
			<path class="st0" d="M117.66,64.78c0,0-0.94,11.67-11.58,18.43c0,0,9.82,0.63,16.48,1.44C122.57,84.64,127.46,70.18,117.66,64.78
				z"/>
			<path class="st1" d="M122.5,85.16c-6.57-0.8-16.35-1.43-16.45-1.44l-1.61-0.1l1.36-0.86c10.29-6.53,11.33-17.91,11.34-18.03
				l0.07-0.81l0.71,0.39c4.18,2.31,6.39,6.6,6.4,12.42c0,4.33-1.2,7.92-1.25,8.07l-0.14,0.4L122.5,85.16z M107.64,82.78
				c2.94,0.21,9.56,0.7,14.55,1.29c0.66-2.28,3.46-13.55-4.12-18.43C117.65,68.31,115.67,76.97,107.64,82.78z"/>
		</g>
		<g>
			<path class="st0" d="M117.66,63.44c0,0-4.22,11.89-12.7,19.02c0,0,2.17,2.31,5.26,1.58c0,0,9.24-7.38,11.4-17.86
				C121.62,66.17,120.61,62.93,117.66,63.44z"/>
			<path class="st1" d="M104.57,82.81l-0.38-0.4l0.42-0.36c8.27-6.95,12.5-18.67,12.54-18.79l0.1-0.29l0.3-0.05
				c2.69-0.46,4.16,1.82,4.55,3.09l0.04,0.13l-0.03,0.13c-2.17,10.55-11.21,17.86-11.59,18.17l-0.09,0.07l-0.11,0.03
				c-0.47,0.11-0.92,0.16-1.35,0.16C106.38,84.7,104.66,82.9,104.57,82.81z M121.08,66.21c-0.2-0.52-1.07-2.44-3.04-2.29
				c-0.72,1.88-4.84,12.02-12.28,18.54c0.71,0.56,2.26,1.51,4.23,1.09C110.93,82.76,119.05,75.76,121.08,66.21z"/>
		</g>
		<g>
			<path class="st3" d="M118.2,64.08c0,0-5.63,12.87-12.1,18.3c0,0,0.88,0.26,2.54,0.07c0,0,7.49-6.74,10.43-16.66
				C119.08,65.79,121.16,62.25,118.2,64.08z"/>
		</g>
	</g>
	<g>
		<g>
			<g>
				<path class="st11" d="M143.3,71.04c0,0-1.82-1.06-4.09,1.5c0,0-3.21,2.85-1.91,8.22c0,0,2.86,0.61,3.59,1.75
					c0,0,1.5,0.76,2.24-0.45c0,0,2.65,0.69,2.71-0.24c0,0-0.24-1.69,0.99-3.16c0,0,0.33-1.05-0.13-1.61l0.42-1.51
					c0,0,0.03-0.17-0.59-0.53l0.3-1.53C146.82,73.49,144.96,71.95,143.3,71.04z"/>
				<path class="st4" d="M140.66,82.98l-0.13-0.06l-0.08-0.12c-0.44-0.69-2.23-1.3-3.25-1.52l-0.32-0.07l-0.08-0.32
					c-1.32-5.42,1.7-8.4,2.04-8.71c2.45-2.75,4.53-1.7,4.72-1.59c1.68,0.92,3.52,2.44,3.6,2.5l0.24,0.2l-0.29,1.48
					c0.29,0.2,0.6,0.51,0.53,0.88l-0.37,1.32c0.39,0.75,0.1,1.73,0.06,1.86l-0.03,0.1L147.23,79c-1.06,1.26-0.87,2.74-0.87,2.75
					l0.01,0.05l0,0.05c-0.02,0.28-0.15,0.53-0.39,0.7c-0.62,0.45-1.92,0.25-2.63,0.1c-0.42,0.47-0.95,0.62-1.45,0.62
					C141.41,83.27,140.96,83.13,140.66,82.98z M143.27,81.56c0.81,0.21,1.75,0.29,2.04,0.18c-0.03-0.48-0.03-1.97,1.05-3.32
					c0.07-0.29,0.13-0.81-0.06-1.03l-0.17-0.21l0.42-1.52c-0.06-0.04-0.15-0.1-0.28-0.18l-0.33-0.19l0.31-1.59
					c-0.55-0.44-1.94-1.51-3.19-2.19l-0.01-0.01c-0.01-0.01-1.47-0.82-3.43,1.4l-0.04,0.04c-0.03,0.03-2.84,2.59-1.82,7.39
					c0.8,0.2,2.72,0.77,3.49,1.77c0.28,0.11,1.05,0.34,1.45-0.3l0.2-0.33L143.27,81.56z"/>
			</g>
			<g>
				<path class="st2" d="M140.49,73.9c0,0-2.66,1.45-2.45,6.48c0,0,0.95-0.23,3.13,1.51c0,0,1.3,0.16,1.27-0.99
					c0,0-0.16-1.58-1.04-2.44c0,0,1.91,0.08,2.26,3.03c0,0,0.98,0.6,1.43,0.11c0,0-0.24-1.23,0.19-2.55c0,0,0.56-1.91-0.56-2.83
					c0,0,0.94-0.48,0.21-1.58c0,0-1.08-1.27-2.72-1.55C142.2,73.1,141.17,73.34,140.49,73.9z"/>
			</g>
			<g>
				<g>
					<path class="st4" d="M143.15,82.72c0.05-0.03,0.07-0.04,0.1-0.06c0.03-0.02,0.05-0.04,0.07-0.06c0.04-0.04,0.08-0.08,0.12-0.12
						c0.07-0.08,0.14-0.17,0.19-0.26c0.11-0.18,0.17-0.39,0.18-0.59c0.03-0.4-0.08-0.75-0.22-1.05c-0.15-0.29-0.33-0.55-0.53-0.77
						c-0.19-0.23-0.41-0.44-0.62-0.64l-0.02-0.02l-0.01,0c-0.11-0.07-0.24-0.2-0.31-0.33c-0.08-0.14-0.13-0.3-0.13-0.47
						c0-0.17,0.04-0.34,0.1-0.51c0.03-0.08,0.08-0.16,0.12-0.25l0.15-0.23l-0.19,0.2c-0.06,0.07-0.11,0.15-0.17,0.23
						c-0.1,0.16-0.18,0.34-0.22,0.54c-0.03,0.2-0.02,0.41,0.05,0.61c0.07,0.2,0.18,0.37,0.35,0.54l-0.03-0.03
						c0.16,0.23,0.33,0.45,0.46,0.69c0.14,0.23,0.24,0.48,0.32,0.72c0.06,0.24,0.08,0.47,0.02,0.63c-0.02,0.08-0.07,0.15-0.12,0.2
						c-0.02,0.03-0.05,0.05-0.08,0.07c-0.01,0.01-0.03,0.02-0.04,0.02c-0.01,0-0.01,0.01-0.02,0.01c0,0-0.02,0.01,0-0.01
						L143.15,82.72z"/>
				</g>
				<g>
					<path class="st4" d="M142.35,79.83c0.38-0.14,0.76-0.28,1.15-0.4c0.39-0.12,0.77-0.25,1.18-0.31c-0.2-0.06-0.41-0.1-0.61-0.13
						c-0.21-0.03-0.41-0.06-0.62-0.08c-0.42-0.05-0.83-0.08-1.25-0.11L142.35,79.83z"/>
				</g>
				<g>
					<polygon class="st4" points="146.99,76.61 144.13,75.31 146.41,77.49 					"/>
				</g>
				<g>
					<polygon class="st4" points="146.84,74.6 144.61,73.58 146.21,75.44 					"/>
				</g>
			</g>
		</g>
		<g>
			<path class="st0" d="M128.22,62.74c0,0,5.07,1.4,9.69,5.44c0,0-4.32,2.69-4.31,6.7c0,0-3.56-2.44-6.58-4.35
				c-1.07-0.68-4.56,0.53-7.02,0.66c-2.87,0.15-5.42-4.72-1.42-6.87C119.14,64.02,123.87,61.77,128.22,62.74z"/>
			<path class="st1" d="M133.31,75.31c-0.04-0.02-3.59-2.46-6.57-4.34c-0.49-0.31-2.19,0.01-3.56,0.27
				c-1.07,0.2-2.18,0.41-3.16,0.46c-1.68,0.09-3.35-1.27-3.88-3.15c-0.54-1.92,0.28-3.68,2.19-4.7c0.05-0.03,5.21-2.7,10-1.63
				l0.03,0.01c0.21,0.06,5.24,1.48,9.89,5.55l0.53,0.47l-0.6,0.37c-0.04,0.03-4.07,2.58-4.06,6.25l0,1L133.31,75.31z M128.1,63.25
				c-4.42-0.98-9.22,1.51-9.27,1.53c-2.08,1.12-1.86,2.82-1.67,3.49c0.39,1.4,1.62,2.45,2.81,2.39c0.91-0.05,1.98-0.25,3.02-0.45
				c1.87-0.35,3.48-0.66,4.32-0.13c2.17,1.37,4.64,3.03,5.85,3.85c0.44-2.88,2.79-4.96,3.9-5.8
				C132.84,64.65,128.35,63.33,128.1,63.25z"/>
		</g>
		<g>
			<path class="st3" d="M119.32,70.32c0,0-2.49-1.05,1.42-4.14c0,0,3.57-1.32,6.71-0.68c0,0,3.48,0.73,6.4,3.4
				c0,0-1.63,2.98-0.87,4.86c0,0-5.74-3.9-6.33-3.98c0,0-3.03,0.19-5.44,0.68C121.21,70.47,119.92,70.84,119.32,70.32z"/>
		</g>
		<g>
			<g>
				<path class="st9" d="M137.36,67.23c0,0-4.35,1.85-4.99,6.96l4.95,4.15c0,0,0.32-4.82,5.08-7.47
					C142.41,70.87,138.86,68.12,137.36,67.23z"/>
				<path class="st4" d="M131.82,74.41l0.04-0.28c0.67-5.34,5.12-7.29,5.31-7.38l0.24-0.1l0.23,0.14c1.5,0.89,4.95,3.57,5.1,3.68
					l0.63,0.49l-0.69,0.39c-4.45,2.47-4.8,6.86-4.82,7.04l-0.07,1.03L131.82,74.41z M137.34,67.83c-0.86,0.45-3.79,2.26-4.4,6.15
					l4.02,3.37c0.33-1.51,1.36-4.47,4.53-6.52C140.48,70.06,138.48,68.55,137.34,67.83z"/>
			</g>
			<g>
				<path class="st10" d="M133.03,73.9c0,0,1.27-6.73,7.23-2.74c0,0-2.7,1.68-3.26,5.97L133.03,73.9z"/>
			</g>
			<g>
				<g>
					<path class="st4" d="M135.75,73.34c0.29,0.01,0.56-0.03,0.82-0.09c0.26-0.06,0.52-0.13,0.77-0.23c0.25-0.09,0.49-0.2,0.73-0.33
						c0.24-0.13,0.47-0.28,0.68-0.47c-0.29-0.01-0.56,0.03-0.82,0.09c-0.26,0.06-0.52,0.13-0.77,0.23c-0.25,0.09-0.49,0.2-0.73,0.33
						C136.19,73,135.96,73.14,135.75,73.34z"/>
				</g>
				<g>
					<path class="st4" d="M137.44,70.99c-0.13,0.26-0.21,0.52-0.27,0.79c-0.06,0.26-0.1,0.53-0.12,0.8
						c-0.02,0.27-0.03,0.54-0.01,0.81c0.02,0.27,0.05,0.54,0.14,0.82c0.13-0.26,0.21-0.52,0.27-0.79c0.06-0.26,0.1-0.53,0.12-0.8
						c0.02-0.27,0.03-0.54,0.01-0.81C137.56,71.54,137.53,71.27,137.44,70.99z"/>
				</g>
			</g>
			<g>
				<g>
					<path class="st4" d="M134.09,72c0.29,0.01,0.56-0.03,0.82-0.09c0.26-0.06,0.52-0.13,0.77-0.23c0.25-0.09,0.49-0.2,0.73-0.33
						c0.24-0.13,0.47-0.28,0.68-0.47c-0.29-0.01-0.56,0.03-0.82,0.09c-0.26,0.06-0.52,0.13-0.77,0.23c-0.25,0.09-0.49,0.2-0.73,0.33
						C134.53,71.66,134.3,71.8,134.09,72z"/>
				</g>
				<g>
					<path class="st4" d="M135.78,69.65c-0.13,0.26-0.21,0.52-0.27,0.79c-0.06,0.26-0.1,0.53-0.12,0.8
						c-0.02,0.27-0.03,0.54-0.01,0.81c0.02,0.27,0.05,0.54,0.14,0.82c0.13-0.26,0.21-0.52,0.27-0.79c0.06-0.26,0.1-0.53,0.12-0.8
						c0.02-0.27,0.03-0.54,0.01-0.81C135.9,70.2,135.87,69.93,135.78,69.65z"/>
				</g>
			</g>
		</g>
	</g>
	<g>
		<g>
			<path class="st0" d="M100.55,96.67c0,0,1.28,2.41,2.8,4.47c0,0,1.59,1.83,0.29,2.9c0,0-6.92,3.29-7.33,3.48
				c0,0-1.35,0.68-1.93,0.55c0,0-2.09-0.94,0.95-4.75l0.3-1.05l-5.52-6.82l-0.52-1.16l-0.15-1.18l7.42-3.19L100.55,96.67z"/>
			<path class="st1" d="M94.26,108.57l-0.1-0.03c-0.07-0.03-0.73-0.35-0.95-1.24c-0.26-1.1,0.29-2.52,1.63-4.23l0.2-0.69l-5.39-6.66
				l-0.58-1.29l-0.21-1.65l8.22-3.53l3.92,7.17l0,0.01c0.01,0.02,1.27,2.39,2.75,4.39c0.15,0.18,1,1.24,0.9,2.34
				c-0.04,0.51-0.28,0.95-0.7,1.29l-0.05,0.04l-0.06,0.03c-0.07,0.03-6.92,3.29-7.31,3.47c-0.31,0.16-1.28,0.62-2,0.62
				C94.45,108.6,94.35,108.59,94.26,108.57z M103.62,103.07c0.05-0.6-0.46-1.35-0.67-1.58l-0.02-0.03
				c-1.52-2.05-2.77-4.39-2.84-4.53l-3.46-6.33l-6.61,2.84l0.09,0.71l0.46,1.02l5.65,6.98l-0.41,1.42l-0.07,0.08
				c-1.53,1.92-1.6,2.94-1.51,3.38c0.07,0.31,0.24,0.47,0.32,0.53c0,0,0.01,0,0.01,0c0.27,0,0.95-0.22,1.52-0.51
				c0.39-0.19,6.53-3.1,7.26-3.45C103.51,103.44,103.6,103.27,103.62,103.07z"/>
		</g>
		<g>
			<path class="st4" d="M92.07,97.75l0.39-0.36c2.43,1.06,5.3-0.06,6.36-2.49l0.95-2.17c1.06-2.43-0.06-5.3-2.49-6.36l0,0
				c-2.43-1.06-5.01,0.41-6.77,3.23l-0.7,0.87C88.74,92.9,89.63,96.69,92.07,97.75z"/>
			<path class="st4" d="M91.86,98.24c-1.27-0.55-2.27-1.82-2.74-3.47c-0.44-1.53-0.36-3.22,0.2-4.51l0.03-0.06l0.73-0.9
				c2.02-3.21,4.85-4.52,7.4-3.4c1.31,0.57,2.31,1.62,2.84,2.95c0.52,1.33,0.5,2.79-0.07,4.1l-0.95,2.17
				c-1.13,2.6-4.1,3.85-6.73,2.89l-0.4,0.37L91.86,98.24z M90.95,89.88l-0.69,0.86c-0.45,1.07-0.49,2.46-0.13,3.74
				c0.34,1.21,1.01,2.15,1.85,2.64l0.38-0.34l0.31,0.14c2.18,0.95,4.72-0.05,5.67-2.22l0.95-2.17c0.46-1.05,0.48-2.22,0.06-3.29
				c-0.42-1.07-1.23-1.92-2.28-2.38c-0.46-0.2-0.93-0.3-1.4-0.3C94,86.55,92.29,87.73,90.95,89.88z"/>
		</g>
		<g>
			<path class="st4" d="M96.35,97.95c-1.23,0.48-2.55,0.5-3.77,0.06l-0.4,0.37l-0.32-0.14c-2.8-1.22-3.8-5.02-2.66-7.64l0.03-0.07
				l0.85-1.25c2.02-3.21,4.86-4.52,7.41-3.4c1.31,0.57,2.32,1.62,2.84,2.96c0.52,1.34,0.5,2.79-0.07,4.1l-0.95,2.17
				c-0.1,0.24-0.22,0.46-0.35,0.68C98.35,96.77,97.44,97.52,96.35,97.95z M90.13,94.48c0.34,1.2,1.01,2.14,1.85,2.64l0.37-0.34
				l0.32,0.14c2.17,0.95,4.71-0.05,5.66-2.22l0.95-2.17c0.46-1.05,0.48-2.22,0.06-3.29c-0.42-1.07-1.23-1.92-2.28-2.37
				c-2.04-0.89-4.38,0.27-6.1,3.02l-0.69,0.87C89.82,91.81,89.77,93.2,90.13,94.48z"/>
		</g>
		<g>
			<path class="st4" d="M97.37,97.66l0.17,0.86c1.27,0.85,3.49,0.05,0.94-5.03l-1.2-2.55c-1.02-1.52-3.21-1.85-4.86-0.74l0,0
				c-1.66,1.11-2.11,4.65-1.09,6.17L92.8,98C93.82,99.52,95.72,98.77,97.37,97.66z"/>
		</g>
		<g>
			<path class="st3" d="M94.25,106.75c0,0,0.9-3.28,2.29-3.89c0,0,2.75-2.02,5.05,0.09c0,0,0.87,1.09-5.95,3.99
				C95.64,106.94,94.13,107.53,94.25,106.75z"/>
		</g>
		<g>
			<g>
				<path class="st5" d="M92.08,97.15l0.71-0.35c1.36,0.44,1.66-0.91,2.09-2.26l0.99-3.07c0.44-1.36-0.31-2.82-1.67-3.26l0,0
					c-1.36-0.44-3.1,0.65-3.53,2.01l-0.34,0.43C88.9,93.75,90.72,96.72,92.08,97.15z"/>
			</g>
		</g>
		<g>
			<path class="st0" d="M95.41,109.04l9.01-4.33c0.39-0.19,0.56-0.66,0.37-1.05l-0.14-0.29c-0.19-0.39-0.66-0.56-1.05-0.37
				l-9.01,4.33c-0.39,0.19-0.56,0.66-0.37,1.05l0.14,0.29C94.55,109.07,95.02,109.23,95.41,109.04z"/>
			<path class="st1" d="M94.64,109.57c-0.33-0.12-0.6-0.35-0.75-0.67l-0.14-0.29c-0.15-0.32-0.17-0.67-0.05-1
				c0.12-0.33,0.35-0.6,0.67-0.75l9.01-4.33c0.32-0.15,0.67-0.17,1.01-0.06c0.33,0.12,0.6,0.35,0.75,0.67l0.14,0.29
				c0.15,0.32,0.17,0.67,0.05,1c-0.12,0.33-0.35,0.6-0.67,0.75l-9.01,4.33c-0.18,0.09-0.37,0.13-0.57,0.13
				C94.93,109.65,94.78,109.62,94.64,109.57z M103.82,103.47l-9.01,4.33c-0.09,0.04-0.12,0.11-0.13,0.15
				c-0.01,0.04-0.03,0.12,0.01,0.2l0.14,0.29c0.04,0.09,0.11,0.12,0.15,0.13c0.04,0.01,0.12,0.03,0.2-0.01l9.01-4.33
				c0.09-0.04,0.12-0.11,0.13-0.15c0.01-0.04,0.03-0.12-0.01-0.2l-0.14-0.29c-0.04-0.08-0.11-0.12-0.15-0.13
				c-0.02-0.01-0.05-0.02-0.09-0.02C103.9,103.44,103.87,103.45,103.82,103.47z"/>
		</g>
		<g>
			<path class="st4" d="M101.99,99.17c0,0-0.87,2.46-6.08,3.06l-3.42-3.8l7.44-3.23L101.99,99.17z"/>
			<path class="st4" d="M91.61,98.24l8.56-3.71l2.39,4.61l-0.08,0.21c-0.04,0.11-1.05,2.78-6.52,3.4l-0.27,0.03L91.61,98.24z
				 M99.69,95.87l-6.32,2.74l2.75,3.05c3.72-0.49,4.96-1.98,5.28-2.5L99.69,95.87z"/>
		</g>
		<g>
			<path class="st5" d="M96.04,96.67l2.06,4.2c0,0-0.63,1.1-2.41,0.58l-3.97-4.31C91.72,97.13,93.81,93.78,96.04,96.67z"/>
		</g>
		<g>
			<g>
				<path class="st12" d="M99.36,94.55c0,0-1.54,1.23-7.31,3.59l0.83,1.18c0,0,2.16-0.24,7.19-3.44L99.36,94.55z"/>
				<path class="st4" d="M91.25,97.91l0.61-0.25c5.54-2.27,7.15-3.49,7.18-3.52l0.49-0.39l1.24,2.31l-0.41,0.26
					c-5.08,3.23-7.32,3.51-7.42,3.52l-0.31,0.03L91.25,97.91z M99.18,95.31c-0.8,0.5-2.64,1.53-6.31,3.07l0.26,0.36
					c0.7-0.17,2.68-0.81,6.27-3.05L99.18,95.31z"/>
			</g>
			<g>
				<path class="st3" d="M92.87,98.26c0,0,2.09-0.74,4.56-2.03c0,0-0.38,0.98-2.25,1.81l-1.87,0.83L92.87,98.26z"/>
			</g>
		</g>
	</g>
	<g>
		<g>
			<path class="st0" d="M122.93,89.24c0,0-23.85-0.46-30.47-7.82l-2.21,6.18c0,0,5.43,5.89,18.23,7.81c0,0,8.92,1.66,14.16,0.05
				L122.93,89.24z"/>
			<path class="st1" d="M108.41,95.94c-12.84-1.93-18.31-7.73-18.54-7.98l-0.21-0.23l2.61-7.31l0.59,0.65
				c6.39,7.11,29.85,7.64,30.09,7.65l0.54,0.01l-0.32,7.14l-0.35,0.11c-1.78,0.55-3.94,0.73-6.05,0.73
				C112.58,96.7,108.64,95.98,108.41,95.94z M122.38,89.75c-3.56-0.11-22.87-1.01-29.71-7.37l-1.82,5.08
				c1.13,1.07,6.65,5.77,17.72,7.44c0.09,0.02,8.46,1.55,13.56,0.17L122.38,89.75z"/>
		</g>
		<g>
			<path class="st4" d="M105.2,85.85c0,0-0.98,4.54-2.12,8.58c0,0-4.88-0.65-8.91-3.51l2.27-8.16
				C96.45,82.77,103.41,85.3,105.2,85.85z"/>
			<path class="st15" d="M103.01,94.95c-0.2-0.03-5.06-0.7-9.14-3.6l-0.3-0.21l2.53-9.06l0.53,0.19c0.07,0.03,6.97,2.53,8.73,3.07
				l0.46,0.14l-0.1,0.47c-0.01,0.05-1,4.61-2.13,8.62l-0.12,0.44L103.01,94.95z M96.8,83.45l-2.02,7.26c3.11,2.1,6.69,2.9,7.93,3.13
				c0.86-3.11,1.62-6.44,1.89-7.64C102.69,85.58,98.33,84.01,96.8,83.45z"/>
		</g>
		<g>
			<path class="st5" d="M96.14,86.13l-1.34,4.4c0,0,5.16,3.16,8.09-1.87C102.89,88.66,100.06,88.28,96.14,86.13z"/>
		</g>
	</g>
	<g>
		<g>
			<path class="st0" d="M91.56,82.65c0,0,13.62,9.73,31.42,6.32c0,0,0.77-0.59,0.87-1.17c0,0,0.68-3.51,0.71-4.29
				c0.02-0.66-0.2-0.93-0.86-0.61c0,0-9.59,4.7-30.44-5.63c0,0,0.06-1.4-0.97-0.2C92.29,77.08,90.47,82.31,91.56,82.65z"/>
			<path class="st1" d="M91.32,83.11c-0.15-0.07-0.33-0.19-0.46-0.44c-0.59-1.16,0.57-4.71,0.94-5.77l0.03-0.09l0.06-0.08
				c0.2-0.24,0.74-0.86,1.34-0.62c0.37,0.15,0.5,0.52,0.54,0.83c20.12,9.88,29.61,5.53,29.7,5.49c0.18-0.09,0.72-0.35,1.18-0.05
				c0.47,0.3,0.44,0.94,0.44,1.15c-0.03,0.8-0.65,4.01-0.72,4.36c-0.13,0.75-0.91,1.38-1.07,1.5l-0.1,0.07l-0.12,0.02
				c-2.66,0.51-5.23,0.73-7.68,0.73C101.98,90.21,92.16,83.69,91.32,83.11z M123.34,87.7c0.19-0.96,0.68-3.6,0.7-4.21
				c0-0.07,0-0.12,0-0.16c-0.03,0.01-0.06,0.03-0.1,0.05c-0.4,0.2-10.06,4.7-30.9-5.63l-0.31-0.15l0.01-0.19
				c-0.73,2.14-1.16,4.3-0.96,4.77l0.09,0.06c0.11,0.08,9.9,6.94,23.52,6.94c2.35,0,4.82-0.21,7.37-0.69
				C122.98,88.29,123.3,87.94,123.34,87.7z"/>
		</g>
		<g>
			<path class="st3" d="M92.3,77.85c0.71-0.89,0.64,0.13,0.64,0.13c12.67,7.15,15.97,5.45,15.97,5.45c0.12-0.07,3.19,0.58,3.26,0.57
				c-1.5,2.4-6.71,2.11-6.71,2.11c-8-0.15-13.84-3.97-13.84-3.97C90.91,81.91,92.3,77.85,92.3,77.85z"/>
		</g>
		<g>
			<path class="st6" d="M121.25,84.23c0,0-11.72,1.66-27.74-6.1c0,0-1.16-1.3-1.46,0.3c0,0-0.98,2.71-0.43,3.71
				c0,0-0.54-0.76,1.43-2.97c0,0,16.34,8.08,27.25,5.51C120.3,84.68,123.45,83.99,121.25,84.23z"/>
		</g>
	</g>
	<g>
		<g>
			<g>
				<path class="st4" d="M100.01,60.42l0.5-0.05c3.4,15.24,23.73,20.02,23.73,20.02l0.12,0.34l-1.1,4.37l-0.27,0.12
					C98.8,79.29,96.82,64.03,96.82,64.03l0.19-0.59L100.01,60.42z"/>
			</g>
			<g>
				<path class="st15" d="M96.55,63.19l-0.25,0.79l0.01,0.1c0.02,0.16,0.55,3.99,4.11,8.6c3.26,4.22,9.8,9.91,22.45,13.01l0.18,0.04
					l0.65-0.29l1.19-4.71l-0.25-0.73l-0.29-0.07c-0.05-0.01-5.09-1.22-10.47-4.25c-4.92-2.78-11.15-7.7-12.87-15.38l-0.1-0.44
					l-1.16,0.13L96.55,63.19z M97.34,64.08l0.12-0.39l2.68-2.69c1.56,6.14,6.13,11.48,13.26,15.49c4.8,2.7,9.21,3.96,10.42,4.27
					l-0.99,3.92c-12.16-3.04-18.44-8.5-21.58-12.56C98.14,68.11,97.44,64.68,97.34,64.08z"/>
			</g>
		</g>
		<g>
			<g>
				<path class="st5" d="M116.03,78.33c0,0-1.98,2.45-6.88,0.48c0,0-8.96-4.86-11.6-15.02l2.4-2.65
					C99.95,61.14,101.51,71.67,116.03,78.33z"/>
			</g>
		</g>
		<g>
			<g>
				<g>
					<g>
						<path class="st12" d="M121.26,81.51c0.27,0.22,0.3,0.6,0.07,0.85c-0.23,0.25-0.64,0.28-0.91,0.06
							c-0.27-0.22-0.3-0.6-0.07-0.85C120.58,81.32,120.99,81.3,121.26,81.51z"/>
					</g>
					<g>
						<path class="st4" d="M120.06,81.34c-0.18,0.19-0.26,0.44-0.24,0.69c0.02,0.26,0.15,0.49,0.36,0.66
							c0.13,0.11,0.28,0.17,0.44,0.21c0.36,0.08,0.75-0.02,1.01-0.3c0.18-0.19,0.26-0.44,0.24-0.7c-0.03-0.25-0.15-0.48-0.36-0.65
							C121.07,80.9,120.42,80.94,120.06,81.34L120.06,81.34z M120.65,81.81c0.07-0.07,0.17-0.1,0.26-0.08
							c0.04,0.01,0.07,0.03,0.11,0.05c0.05,0.04,0.08,0.1,0.09,0.16c0.01,0.07-0.02,0.13-0.06,0.18c-0.1,0.1-0.26,0.12-0.37,0.03
							c-0.05-0.04-0.08-0.1-0.09-0.16C120.58,81.93,120.6,81.86,120.65,81.81z"/>
					</g>
				</g>
				<g>
					<g>
						<path class="st14" d="M121.11,81.48c0.22,0.14,0.25,0.44,0.08,0.67c-0.17,0.23-0.49,0.31-0.71,0.17
							c-0.22-0.14-0.25-0.44-0.07-0.67C120.57,81.42,120.89,81.34,121.11,81.48z"/>
					</g>
				</g>
				<g>
					<g>
						<path class="st13" d="M120.89,81.49c0.15,0.09,0.17,0.3,0.04,0.48c-0.13,0.18-0.35,0.25-0.5,0.16
							c-0.15-0.09-0.17-0.31-0.04-0.48C120.52,81.48,120.74,81.4,120.89,81.49z"/>
					</g>
				</g>
			</g>
			<g>
				<g>
					<g>
						<path class="st12" d="M118,80.42c0.27,0.22,0.3,0.6,0.07,0.85c-0.23,0.25-0.64,0.28-0.91,0.06c-0.27-0.22-0.3-0.6-0.07-0.85
							C117.33,80.23,117.73,80.2,118,80.42z"/>
					</g>
					<g>
						<path class="st4" d="M116.8,80.24c-0.18,0.19-0.26,0.44-0.24,0.69c0.02,0.26,0.15,0.49,0.36,0.66
							c0.13,0.11,0.28,0.17,0.44,0.21c0.36,0.08,0.75-0.02,1.01-0.3c0.18-0.19,0.26-0.44,0.24-0.7c-0.03-0.25-0.15-0.48-0.36-0.65
							C117.82,79.8,117.17,79.84,116.8,80.24L116.8,80.24z M117.39,80.72c0.07-0.07,0.17-0.1,0.26-0.08
							c0.04,0.01,0.07,0.03,0.11,0.05c0.05,0.04,0.08,0.1,0.09,0.16c0.01,0.07-0.02,0.13-0.06,0.18c-0.1,0.1-0.26,0.12-0.37,0.03
							c-0.05-0.04-0.08-0.1-0.09-0.16C117.32,80.83,117.34,80.77,117.39,80.72z"/>
					</g>
				</g>
				<g>
					<g>
						<path class="st14" d="M117.85,80.39c0.22,0.14,0.25,0.44,0.08,0.67c-0.17,0.23-0.49,0.31-0.71,0.17
							c-0.22-0.14-0.25-0.44-0.08-0.67C117.32,80.32,117.63,80.25,117.85,80.39z"/>
					</g>
				</g>
				<g>
					<g>
						<path class="st13" d="M117.64,80.4c0.15,0.09,0.17,0.3,0.04,0.48c-0.13,0.18-0.35,0.25-0.5,0.16
							c-0.15-0.09-0.17-0.3-0.04-0.48C117.27,80.38,117.49,80.31,117.64,80.4z"/>
					</g>
				</g>
			</g>
			<g>
				<g>
					<g>
						<path class="st12" d="M105.27,72.34c0.36,0.29,0.41,0.8,0.1,1.13c-0.31,0.33-0.85,0.37-1.21,0.08
							c-0.36-0.29-0.41-0.8-0.1-1.13C104.36,72.08,104.9,72.05,105.27,72.34z"/>
					</g>
					<g>
						<path class="st4" d="M103.76,72.18c-0.22,0.24-0.32,0.54-0.29,0.85c0.03,0.31,0.18,0.59,0.44,0.79
							c0.16,0.13,0.34,0.21,0.53,0.25c0.44,0.1,0.91-0.03,1.22-0.36c0.22-0.24,0.32-0.54,0.29-0.85c-0.03-0.31-0.18-0.59-0.44-0.79
							C104.99,71.65,104.2,71.7,103.76,72.18z M104.35,72.66c0.12-0.13,0.31-0.18,0.48-0.15c0.07,0.02,0.14,0.05,0.2,0.09
							c0.09,0.07,0.15,0.18,0.16,0.3c0.01,0.12-0.03,0.24-0.11,0.33c-0.17,0.19-0.48,0.21-0.68,0.05c-0.09-0.07-0.15-0.18-0.16-0.29
							C104.22,72.87,104.26,72.75,104.35,72.66z"/>
					</g>
				</g>
			</g>
			<g>
				<g>
					<g>
						<path class="st12" d="M102.22,69.23c0.27,0.22,0.3,0.6,0.07,0.85c-0.23,0.25-0.64,0.28-0.91,0.06
							c-0.27-0.22-0.3-0.6-0.07-0.85C101.54,69.04,101.94,69.01,102.22,69.23z"/>
					</g>
					<g>
						<path class="st4" d="M101.01,69.05c-0.18,0.19-0.26,0.44-0.24,0.7c0.03,0.25,0.15,0.48,0.36,0.65
							c0.13,0.11,0.28,0.17,0.44,0.21c0.36,0.08,0.75-0.02,1.01-0.3c0.18-0.19,0.26-0.44,0.24-0.7c-0.02-0.25-0.15-0.48-0.36-0.65
							C102.03,68.62,101.38,68.66,101.01,69.05L101.01,69.05z M101.6,69.53c0.07-0.07,0.17-0.1,0.26-0.08
							c0.04,0.01,0.07,0.03,0.11,0.05c0.05,0.04,0.08,0.1,0.09,0.16c0.01,0.07-0.02,0.13-0.06,0.18c-0.09,0.1-0.26,0.12-0.37,0.03
							c-0.05-0.04-0.08-0.1-0.09-0.16C101.53,69.65,101.56,69.58,101.6,69.53z"/>
					</g>
				</g>
			</g>
			<g>
				<g>
					<g>
						<path class="st12" d="M100.49,66.03c0.27,0.22,0.3,0.6,0.07,0.85c-0.23,0.25-0.64,0.28-0.91,0.06
							c-0.27-0.22-0.3-0.6-0.07-0.85C99.81,65.84,100.22,65.81,100.49,66.03z"/>
					</g>
					<g>
						<path class="st4" d="M99.29,65.85c-0.18,0.19-0.26,0.44-0.24,0.7c0.02,0.25,0.15,0.48,0.36,0.65
							c0.13,0.11,0.28,0.18,0.44,0.21c0.36,0.08,0.75-0.02,1.01-0.3c0.18-0.19,0.26-0.44,0.24-0.69c-0.02-0.26-0.15-0.49-0.36-0.66
							C100.3,65.42,99.65,65.46,99.29,65.85L99.29,65.85z M99.88,66.33c0.07-0.07,0.17-0.1,0.26-0.08c0.04,0.01,0.07,0.03,0.11,0.05
							c0.05,0.04,0.08,0.1,0.09,0.16c0.01,0.07-0.02,0.13-0.06,0.18c-0.09,0.1-0.26,0.12-0.37,0.03c-0.05-0.04-0.08-0.1-0.09-0.16
							C99.81,66.45,99.83,66.38,99.88,66.33z"/>
					</g>
				</g>
			</g>
		</g>
	</g>
	<g>
		<g>
			<g>
				<path class="st14" d="M94.82,58.06c0,0,3.75,1.99,5.55-0.1c0,0,2.34-2.81,6.56-9.84c0,0,0.35-0.99,1.38-0.61
					c0,0,0.83,0.2-0.15,1.6c0,0-4.33,9.72-8.82,11.19c0,0-3.25,1.07-5.92-2.45C93.41,57.84,92.68,56.35,94.82,58.06z"/>
			</g>
		</g>
		<g>
			<g>
				<path class="st13" d="M99.44,60.02c0,0,3.8-0.61,7.42-10.78c0,0,0.38-1.69,1.45-1.75c0,0,0.84,0.16-0.47,2.39
					c0,0-5.02,12.09-9.88,10.9C97.95,60.79,96.84,60.34,99.44,60.02z"/>
			</g>
		</g>
		<g>
			<g>
				<path class="st11" d="M97.55,39.3c0,0,1.28-1.7,0.96-3.78l0.3-2.1c0,0,2.43-4.33,6.19-5.33c0,0,3.67-1.54,11.43,0.55
					c5.77,1.55,12.74,6.34,10.62,16.55c0,0-0.94,5.34-2.31,4.96c0,0,0.56,1.88-1.77,5.83c0,0-0.62,7.5-7.89,9.3
					c0,0-10.23,3-18.82-1.84l-1.6-1.3c0,0-3.46-7.48,1.24-16.03C95.89,46.1,93.75,41.57,97.55,39.3z"/>
			</g>
			<g>
				<path class="st4" d="M95.31,46.08c-4.58,8.59-1.27,15.96-1.13,16.27l0.05,0.11L96,63.88c1.82,1.02,3.69,1.7,5.53,2.14
					c6.96,1.66,13.36-0.16,13.7-0.26c7-1.74,8.12-8.61,8.25-9.64c1.66-2.85,1.88-4.68,1.85-5.55c0.05-0.02,0.1-0.05,0.15-0.08
					c1.25-0.78,1.96-4.47,2.09-5.22c2.06-9.92-4.33-15.36-11-17.15c-7.53-2.02-11.3-0.71-11.73-0.54c-3.91,1.06-6.38,5.39-6.48,5.57
					l-0.05,0.09l-0.33,2.27l0.01,0.08c0.25,1.6-0.59,2.98-0.81,3.31C94.11,40.82,94.56,44.29,95.31,46.08z M96.48,46.12l-0.11-0.24
					c-0.08-0.17-1.89-4.13,1.45-6.13l0.09-0.05l0.06-0.08c0.06-0.08,1.38-1.86,1.07-4.1l0.28-1.92c0.35-0.58,2.6-4.14,5.82-5
					l0.07-0.02c0.03-0.01,3.64-1.43,11.09,0.57c3.01,0.81,12.65,4.35,10.24,15.93l0,0.02c-0.44,2.48-1.25,4.48-1.66,4.54l-0.91-0.25
					l0.27,0.91c0,0.01,0.43,1.77-1.72,5.41l-0.06,0.1l-0.01,0.12c-0.03,0.29-0.69,7.15-7.49,8.84c-0.12,0.03-10.11,2.87-18.4-1.77
					l-1.47-1.19c-0.38-0.93-2.94-7.79,1.27-15.45L96.48,46.12z"/>
			</g>
		</g>
		<g>
			<g>
				<path class="st2" d="M99.58,35.27c1.05-1.84,1.92-6.33,5.29-4.84c4.24,1.88,3.97,2.41,12.18,2.68c4.86,0.16,2.55,7.92,2.55,7.92
					c-2.07,2.43-1.69,5.18-1.69,5.18c1.36,4.6-0.73,4.75-0.73,4.75c-1.14,0.57-2.47,0.06-2.47,0.06l-1.03-0.63
					c-5.99-4.44-13.86-5.54-13.86-5.54c-0.73-0.05-3.15,0.41-3.15,0.41c-0.27-1.09-0.17-1.66-0.17-1.66
					c0.73-1.57,2.41-2.92,2.41-2.92C100.79,39.32,99.58,35.27,99.58,35.27z"/>
			</g>
		</g>
		<g>
			<g>
				<path class="st13" d="M97.39,40.22c2.56-2.37,1.47-5.13,1.47-5.13l0.72,0.13c1.51,2.57-0.43,4.78-0.43,4.78
					c-2.06,1.85-1.69,5.28-1.69,5.28l-1.16-0.19C95.45,41,97.39,40.22,97.39,40.22z"/>
			</g>
		</g>
		<g>
			<g>
				<path class="st2" d="M104.91,38.59c0.94,2.66,1.1,6.37,1.1,6.37l1.1,0.87c1.62,0.5,1.68,2.31,1.68,2.31
					c-0.41,1.23-1.34,0.09-1.34,0.09c-1.87-1.08-3.27-0.87-3.27-0.87c-1.83,0.04-2.5,0.43-2.5,0.43c-1.01-2.45,1.11-4.86,1.11-4.86
					C105.18,40.34,104.91,38.59,104.91,38.59z"/>
			</g>
		</g>
		<g>
			<g>
				<path class="st2" d="M98.52,50.91c7.34-0.29,12.03,3.64,12.03,3.64c2.7,1.11,1.86,2.38,1.86,2.38c-1.14,3.53-4.4,6.18-4.4,6.18
					c-2.43,1.21-4.78-0.03-4.78-0.03c-3.48-4.43-6.81-1.64-6.81-1.64c-2.5-4.2-1.83-6.97-1.83-6.97
					C94.84,50.15,98.52,50.91,98.52,50.91z"/>
			</g>
		</g>
		<g>
			<g>
				<path class="st13" d="M97.72,46.16c0.01-0.04,0.03-0.07,0.04-0.11C97.76,46.06,97.83,46.12,97.72,46.16z"/>
			</g>
			<g>
				<path class="st13" d="M97.72,46.16c-3.74,9.1-1.82,13.63-1.82,13.63c1.78,1.96,3.11,3.07,3.11,3.07
					c2.88,1.22,1.79,1.74,1.79,1.74c-3.94-0.76-5.46-3.08-5.46-3.08c-3.12-9.6,1.28-15.4,1.28-15.4
					C97.32,46.22,97.61,46.21,97.72,46.16z"/>
			</g>
		</g>
		<g>
			<g>
				<g>
					<path class="st11" d="M128.32,46.64c0,0,2.07,3.61-0.94,6.68c0,0-1.44,1.3-3.51,1.7c0,0-1.74,0.46-3.22-0.07l-0.09-4.91
						c1.11-2.39,2.09-3.2,2.09-3.2S125.12,44.4,128.32,46.64z"/>
				</g>
				<g>
					<path class="st4" d="M128.62,46.21l0.1,0.07l0.06,0.1c0.02,0.04,2.24,4-1.02,7.31l-0.02,0.02c-0.06,0.06-1.56,1.4-3.75,1.83
						c-0.19,0.05-1.64,0.39-3.06,0.05c-0.15-0.04-0.3-0.08-0.45-0.13l0.35-0.99c1.31,0.46,2.9,0.06,2.92,0.05l0.03-0.01
						c1.81-0.35,3.13-1.46,3.25-1.57c2.45-2.5,1.19-5.36,0.9-5.94c-2.74-1.83-4.81,0.13-4.9,0.22l-0.03,0.03
						c-0.01,0.01-0.92,0.8-1.95,3.02l-0.95-0.44c1.09-2.34,2.08-3.25,2.22-3.37C122.56,46.21,125.26,43.86,128.62,46.21z"/>
				</g>
			</g>
			<g>
				<g>
					<path class="st2" d="M126.88,47.78c0,0,1.82,3.63-3.28,5.81c0,0-4.05,0.67-0.12-4.92C123.48,48.67,125.05,46.69,126.88,47.78z"
						/>
				</g>
			</g>
			<g>
				<g>
					<g>
						<path class="st4" d="M123.25,48.69c0.17-0.15,0.37-0.28,0.6-0.36c0.23-0.07,0.46-0.14,0.7-0.17l0.18-0.03
							c0.06-0.01,0.12-0.01,0.18-0.01c0.12,0,0.24-0.02,0.36,0c0.24,0.02,0.48,0.07,0.7,0.16c0.43,0.19,0.79,0.49,1.02,0.87
							l-0.08,0.06c-0.32-0.25-0.7-0.4-1.07-0.43c-0.37-0.04-0.72,0.04-1.04,0.19c-0.33,0.13-0.57,0.45-0.92,0.58
							c-0.16,0.1-0.35,0.17-0.55,0.24c-0.19,0.08-0.4,0.15-0.66,0.19l-0.08-0.07c0.04-0.25,0.14-0.46,0.24-0.67
							C122.94,49.03,123.09,48.86,123.25,48.69z"/>
					</g>
				</g>
				<g>
					<g>
						<path class="st4" d="M125.15,48.87c0.14,0.24,0.26,0.49,0.32,0.77c0.07,0.27,0.08,0.56,0.02,0.82
							c-0.06,0.27-0.21,0.49-0.37,0.67c0.09-0.23,0.14-0.47,0.11-0.69c-0.03-0.22-0.12-0.42-0.24-0.6
							c-0.12-0.18-0.28-0.33-0.45-0.47c-0.16-0.13-0.37-0.27-0.53-0.34l0.62-0.84C124.85,48.41,125,48.63,125.15,48.87z"/>
					</g>
				</g>
			</g>
		</g>
		<g>
			<g>
				<path class="st5" d="M108.48,23.83c3.88-0.95,9.28,0.32,9.28,0.32c8.23,2.5,8.7,7.52,8.7,7.52c3.96-3.05,4.67,0.81,4.67,0.81
					c3.63,0.61,3.65,4.06,3.65,4.06c0.64,3.08-1.87,3.64-1.87,3.64c-1.01,3.53-5.53,2.45-5.53,2.45c-0.24-7.32-3.49-9.19-3.49-9.19
					c-4.58-4.6-12.27-2.7-12.27-2.7c-4.99,0.66-5.47-2.84-5.47-2.84C105.8,25.17,108.48,23.83,108.48,23.83z"/>
			</g>
			<g>
				<path class="st4" d="M105.63,27.97c0.01,0.04,0.61,4.01,6.05,3.29l0.06-0.01c0.07-0.02,7.46-1.78,11.77,2.56l0.05,0.05
					l0.06,0.03c0.03,0.02,3,1.88,3.23,8.76l0.01,0.4l0.39,0.09c1.68,0.4,5.04,0.36,6.07-2.54c1.05-0.37,2.49-1.57,1.98-4.12
					c-0.03-1.3-0.84-3.75-3.67-4.43c-0.02-0.01-0.05-0.01-0.07-0.02c-0.17-0.54-0.61-1.52-1.61-1.91c-0.88-0.34-1.93-0.11-3.15,0.67
					c-0.51-1.61-2.34-5.16-8.88-7.15l-0.02,0l-0.02,0c-0.23-0.05-5.57-1.29-9.53-0.32l-0.06,0.01l-0.05,0.03
					C108.12,23.42,105.24,24.9,105.63,27.97z M108.67,24.33c3.61-0.85,8.65,0.26,8.96,0.34c7.78,2.37,8.31,7.02,8.31,7.07l0.09,0.95
					l0.75-0.58c1.16-0.89,2.12-1.23,2.78-0.99c0.82,0.31,1.05,1.47,1.05,1.48l0.07,0.36l0.36,0.06c0.12,0.02,0.23,0.04,0.34,0.07
					c2.8,0.67,2.87,3.36,2.87,3.47l0.01,0.1c0.53,2.54-1.39,3-1.48,3.02l-0.3,0.07l-0.09,0.3c-0.71,2.48-3.49,2.31-4.52,2.16
					c-0.33-6.7-3.18-8.85-3.67-9.17c-4.63-4.61-12.07-2.95-12.69-2.8c-4.36,0.56-4.83-2.28-4.85-2.4
					C106.39,25.67,108.32,24.52,108.67,24.33z"/>
			</g>
		</g>
		<g>
			<g>
				<path class="st16" d="M108.87,24.46c8.46-1.21,13.87,3.04,13.87,3.04c-1.86-0.53-3.12,0.08-3.12,0.08
					c-2.49,1.32-5.38,0.06-5.38,0.06c0.66,2.2-1.53,0.94-1.53,0.94c0.15,1.89-1.95,1.49-1.95,1.49c-1.69,1.55-4.09-2.07-4.09-2.07
					C105.91,26.01,108.87,24.46,108.87,24.46z"/>
			</g>
		</g>
		<g>
			<g>
				<path class="st16" d="M128.39,31.17c1.96-0.64,2.14,1.82,2.14,1.82c2.13,0.36,2.88,1.68,2.88,1.68
					c1.96,2.38-0.29,3.32-0.29,3.32c-1.64,1.83-2.64-0.9-2.64-0.9c-0.53,1.85-2.19-0.62-2.19-0.62c0.32-1.72-2.04-3.9-2.04-3.9
					C127.32,31.04,128.39,31.17,128.39,31.17z"/>
			</g>
		</g>
		<g>
			<g>
				<path class="st17" d="M108.87,24.46c9.04-0.99,13.03,2.47,13.03,2.47c-5.41-2.38-9.29-1.35-9.29-1.35
					c3.87,2.05,1.83,2.6,1.83,2.6c-1.05-2.48-4.69-2.32-4.69-2.32c-3.14,0.17-2.5,3.06-2.5,3.06
					C105.49,25.36,108.87,24.46,108.87,24.46z"/>
			</g>
		</g>
		<g>
			<g>
				<path class="st17" d="M130.38,32.66c3.15,0.79,3.23,2.34,3.23,2.34c-1.37-1.87-4.02-1.27-4.02-1.27
					c-0.73-2.99-2.96,0.19-2.96,0.19c0.03-0.58-0.37-1.33-0.37-1.33C129.65,28.99,130.38,32.66,130.38,32.66z"/>
			</g>
		</g>
		<g>
			<g>
				<path class="st4" d="M108.18,57.21c-0.38-0.39-0.81-0.71-1.24-1.03c-0.44-0.31-0.89-0.6-1.36-0.86c-0.47-0.26-0.96-0.5-1.47-0.7
					c-0.52-0.2-1.05-0.37-1.64-0.45l-0.04-0.01h-0.04c-0.19,0-0.45-0.02-0.67-0.05c-0.23-0.03-0.46-0.07-0.69-0.11
					c-0.45-0.1-0.89-0.23-1.29-0.43l-0.11-0.05l-0.01,0c-0.29-0.06-0.51-0.07-0.77-0.07c-0.25,0-0.49,0.02-0.73,0.07
					c-0.48,0.09-0.94,0.27-1.32,0.54c0.24-0.01,0.46-0.02,0.68,0c0.22,0.01,0.44,0.03,0.65,0.07c0.21,0.03,0.42,0.08,0.62,0.13
					c0.19,0.06,0.41,0.12,0.56,0.19l-0.11-0.05c0.23,0.17,0.47,0.33,0.73,0.45c0.25,0.13,0.52,0.23,0.78,0.31
					c0.27,0.09,0.54,0.15,0.81,0.19c0.28,0.05,0.54,0.07,0.85,0.08l-0.08-0.01c0.45,0.07,0.93,0.2,1.41,0.34
					c0.48,0.14,0.97,0.31,1.46,0.48l1.49,0.51C107.15,56.9,107.65,57.07,108.18,57.21z"/>
			</g>
			<g>
				<path class="st4" d="M103.72,57.94c-0.28-0.33-0.62-0.57-0.98-0.77c-0.36-0.2-0.75-0.34-1.15-0.44c-0.4-0.1-0.81-0.16-1.23-0.15
					c-0.41,0-0.83,0.07-1.23,0.22c0.4,0.17,0.78,0.27,1.15,0.38c0.38,0.1,0.74,0.2,1.12,0.29c0.37,0.09,0.75,0.18,1.13,0.26
					C102.91,57.81,103.29,57.89,103.72,57.94z"/>
			</g>
		</g>
		<g>
			<g>
				<path class="st13" d="M102.46,40.82c0.28-1.13-1.35-3.83-3.97-2.1c0,0-1.92,1.43-0.4,3.08c0,0,1.53,0.59,2.4,0.65
					C100.49,42.46,101.98,42.77,102.46,40.82z"/>
			</g>
			<g>
				<path class="st4" d="M102.98,42.41c0.19-0.43,0.28-0.89,0.34-1.36c0.05-0.47,0.04-0.96-0.09-1.46c-0.07-0.25-0.16-0.5-0.31-0.73
					c-0.16-0.26-0.32-0.42-0.51-0.61c-0.37-0.34-0.82-0.64-1.34-0.8c-0.52-0.16-1.1-0.17-1.62-0.03c-0.13,0.04-0.26,0.08-0.38,0.13
					c-0.12,0.06-0.23,0.12-0.35,0.18c-0.29,0.16-0.45,0.35-0.62,0.55c-0.64,0.81-0.85,1.8-0.8,2.72c0.38-0.84,0.81-1.62,1.41-2.14
					c0.07-0.06,0.15-0.12,0.22-0.17c0.08-0.05,0.15-0.1,0.21-0.11c0.09-0.03,0.18-0.06,0.27-0.1c0.09-0.03,0.18-0.04,0.27-0.06
					c0.36-0.07,0.71-0.05,1.05,0.06c0.35,0.1,0.68,0.3,0.99,0.54c0.15,0.12,0.31,0.27,0.41,0.38c0.06,0.07,0.11,0.14,0.16,0.22
					c0.05,0.08,0.09,0.16,0.14,0.25c0.17,0.35,0.28,0.77,0.36,1.2C102.89,41.5,102.93,41.95,102.98,42.41z"/>
			</g>
			<g>
				<g>
					<path class="st13" d="M113.51,45.92c0,0,0.95,0.13,1.23,0.17c0.35,0.04,0.85-0.03,1.08-0.49c0,0,0.31-3.26-1.64-4.25
						c-1.1-0.56-3.24-1.04-4.26,2.02l-0.05,0.2C109.88,43.56,109.32,45.3,113.51,45.92z"/>
				</g>
				<g>
					<path class="st4" d="M115.83,45.6c0.19-0.44,0.28-0.92,0.32-1.41c0.04-0.49,0-1-0.16-1.5c-0.08-0.25-0.21-0.5-0.37-0.74
						c-0.18-0.24-0.35-0.4-0.55-0.58c-0.39-0.34-0.85-0.62-1.38-0.78c-0.52-0.16-1.1-0.19-1.63-0.07l-0.39,0.12
						c-0.13,0.04-0.24,0.11-0.36,0.16c-0.06,0.03-0.11,0.05-0.2,0.1c-0.07,0.04-0.13,0.09-0.18,0.13c-0.11,0.09-0.21,0.18-0.3,0.28
						c-0.71,0.8-0.96,1.83-0.9,2.78c0.2-0.44,0.39-0.85,0.64-1.22c0.24-0.37,0.52-0.7,0.84-0.94c0.08-0.06,0.16-0.12,0.24-0.16
						c0.04-0.02,0.08-0.05,0.11-0.06c0.01-0.01,0.07-0.02,0.12-0.04c0.1-0.03,0.19-0.07,0.29-0.09l0.28-0.06
						c0.38-0.05,0.76-0.02,1.12,0.1c0.37,0.11,0.72,0.31,1.06,0.55c0.16,0.12,0.33,0.26,0.45,0.38c0.12,0.14,0.24,0.29,0.33,0.47
						c0.19,0.35,0.32,0.77,0.42,1.21C115.72,44.66,115.78,45.12,115.83,45.6z"/>
				</g>
				<g>
					<g>
						<path class="st4" d="M110.83,42.96c-0.43,0.8-0.16,1.79,0.6,2.19c0.76,0.41,1.71,0.09,2.14-0.72c0.43-0.8,0.16-1.79-0.6-2.19
							C112.22,41.84,111.26,42.16,110.83,42.96z"/>
					</g>
					<g>
						<path class="st13" d="M113.57,44.67c0.16-0.3,0.06-0.67-0.21-0.82c-0.28-0.15-0.63-0.03-0.79,0.28
							c-0.16,0.3-0.06,0.67,0.21,0.81C113.06,45.09,113.41,44.97,113.57,44.67z"/>
					</g>
				</g>
			</g>
			<g>
				<g>
					<path class="st4" d="M98.15,39.69c-0.39,0.73-0.14,1.62,0.54,1.99c0.69,0.37,1.56,0.08,1.94-0.65
						c0.39-0.73,0.14-1.62-0.54-1.99C99.4,38.67,98.54,38.96,98.15,39.69z"/>
				</g>
				<g>
					<path class="st13" d="M100.63,41.24c0.14-0.27,0.06-0.6-0.19-0.74c-0.25-0.14-0.57-0.02-0.72,0.25
						c-0.14,0.27-0.06,0.6,0.19,0.74C100.17,41.62,100.49,41.51,100.63,41.24z"/>
				</g>
			</g>
			<g>
				<g>
					<g>
						<path class="st5" d="M119.55,41.63c0,0-1.03-3.44-3.89-5.18c-1.46-0.89-2.16-0.77-6.09,1.51c-0.37,0.21-0.9,0.23-1.86-0.38
							c-0.42-0.26-1.59,0.08,0.05,2c0,0,1.86,1.34,2.93,0.49c0,0,4.03-2.02,5.92,1.07C116.62,41.14,118.75,43.92,119.55,41.63z"/>
						<path class="st4" d="M116.2,41.46l-0.03-0.04c-1.55-2.52-4.78-1.1-5.2-0.9c-1.37,1.01-3.43-0.45-3.52-0.51l-0.05-0.04
							l-0.04-0.05c-1.23-1.43-1.07-2.21-0.73-2.6c0.36-0.42,0.99-0.42,1.36-0.18c0.62,0.39,1.07,0.52,1.32,0.37
							c3.78-2.19,4.84-2.6,6.63-1.51c3,1.83,4.07,5.33,4.12,5.48l0.05,0.16l-0.06,0.16c-0.32,0.91-0.85,1.18-1.24,1.24
							c-0.07,0.01-0.14,0.02-0.21,0.02C117.49,43.06,116.42,41.74,116.2,41.46z M115.39,36.89c-1.16-0.71-1.59-0.79-5.56,1.52
							c-0.84,0.49-1.78,0.01-2.4-0.39c0,0,0,0,0,0c0.01,0.12,0.1,0.47,0.68,1.16c0.45,0.3,1.66,0.94,2.25,0.47l0.09-0.06
							c1.54-0.77,4.89-1.5,6.59,1.24c0.42,0.54,1.2,1.23,1.6,1.17c0.15-0.02,0.27-0.22,0.35-0.39
							C118.76,40.93,117.7,38.3,115.39,36.89z"/>
					</g>
					<g>
						<path class="st16" d="M117.28,39.75c0,0-0.87-2.29-2.89-3.33c-1.03-0.53-1.78-0.04-4.34,1.72c-0.24,0.16-1.5,0.2-2.19-0.17
							c-0.3-0.16-0.34,0.92,1.22,1.54c0,0,0.98,0.76,2.11-0.38c0,0,2.84-1.28,4.89,0.56C116.07,39.71,117.45,41.5,117.28,39.75z"/>
					</g>
					<g>
						<path class="st17" d="M109.08,38.36c0,0-1.08-0.84-1.54-0.14c0,0,0.11,1.43,2.24,1.66c0,0,1.31-0.17,0.68-0.66
							c0,0-0.64,0.03-1.39-0.29C109.07,38.93,108.49,38.68,109.08,38.36z"/>
					</g>
				</g>
				<g>
					<g>
						<path class="st5" d="M101.86,35.57c0,0,0.47,0.73,1.12,0.84c0.29,0.05,0.67-0.39,1.16,0.04c0,0,0.35,2.07-2.05,1.64
							c0,0-1.24-0.39-1.55-1.02c0,0-0.52-1.08-2.2-1.26c0,0-2.4,0.2-1.53-1.41c0,0,1.37-2.95,3.71-0.75
							C100.53,33.65,101.27,34.79,101.86,35.57z"/>
						<path class="st4" d="M102,38.61l-0.06-0.02c-0.24-0.08-1.47-0.49-1.86-1.29c-0.02-0.03-0.43-0.81-1.74-0.97
							c-0.36,0.02-1.57,0.04-2.05-0.69c-0.18-0.28-0.32-0.77,0.06-1.49c0.08-0.18,0.79-1.57,2.09-1.82
							c0.81-0.16,1.63,0.15,2.45,0.92l0.05,0.04l0.03,0.05c0.01,0.01,0.73,1.13,1.31,1.89l0.02,0.03c0.07,0.11,0.39,0.52,0.73,0.6
							c0.03-0.01,0.06-0.02,0.09-0.03c0.26-0.09,0.81-0.28,1.37,0.21l0.14,0.12l0.03,0.19c0.02,0.11,0.16,1.12-0.52,1.79
							c-0.35,0.35-0.83,0.52-1.44,0.52C102.49,38.68,102.25,38.66,102,38.61z M103.47,36.84c-0.15,0.05-0.35,0.12-0.57,0.09
							c-0.82-0.13-1.36-0.9-1.47-1.06c-0.52-0.7-1.15-1.64-1.3-1.88c-0.54-0.49-1.03-0.7-1.48-0.61c-0.69,0.13-1.21,0.94-1.35,1.24
							l-0.01,0.03c-0.14,0.26-0.14,0.39-0.12,0.43c0.1,0.15,0.65,0.25,1.14,0.21l0.05,0l0.05,0.01c1.95,0.21,2.59,1.5,2.61,1.55
							c0.14,0.29,0.79,0.61,1.21,0.74c0.4,0.07,0.92,0.09,1.19-0.17c0.17-0.17,0.22-0.43,0.23-0.62
							C103.6,36.8,103.55,36.82,103.47,36.84z M103.01,35.89L103.01,35.89L103.01,35.89z"/>
					</g>
					<g>
						<path class="st16" d="M100.64,34.68c0,0,0.58,0.86,1.15,1.75c0,0,0.67,0.55-0.74,0.44c0,0-1.25-0.62-1.44-1.06
							c0,0-0.34-0.41-1.32-0.4c0,0-1.11,0.08-0.63-1.17c0,0,1.01-1.44,2.1-0.55C99.76,33.7,100.2,33.81,100.64,34.68z"/>
					</g>
					<g>
						<path class="st17" d="M98.62,33.3c0,0-1.03-0.28-1.47,1.62c0,0,0.35,0.85,1.14,0.32c0,0-0.18-2.09,1.84-1.26
							C100.13,33.98,98.92,33,98.62,33.3z"/>
					</g>
				</g>
			</g>
		</g>
		<g>
			<g>
				<g>
					<path class="st17" d="M104.75,38.96c0.89,2.24-1,4.45-1,4.45c-2.98,3.18-1.26,4.37-1.26,4.37c-1.35,0.44-2.45,0.37-2.45,0.37
						c-0.18-3.73,2.89-5.68,2.89-5.68C105.23,40.14,104.75,38.96,104.75,38.96z"/>
				</g>
			</g>
			<g>
				<g>
					<path class="st4" d="M107.24,50.36c0.03,0.01,0.07,0.02,0.11,0.02c0.03,0.02,0.06,0.04,0.09,0.06L107.24,50.36z"/>
				</g>
				<g>
					<path class="st4" d="M99.79,44.46l-0.02,0.04c0.43-0.72,0.96-1.34,1.51-1.93c0.55-0.58,1.15-1.11,1.78-1.6l0.13-0.1l0.11-0.08
						c0.07-0.05,0.13-0.11,0.2-0.16c0.12-0.12,0.25-0.24,0.35-0.38c0.21-0.28,0.37-0.6,0.47-0.95c0.2-0.7,0.2-1.49,0.05-2.25
						c0.32,0.71,0.48,1.52,0.38,2.34c-0.05,0.41-0.18,0.82-0.39,1.2c-0.11,0.19-0.23,0.37-0.37,0.53c-0.07,0.08-0.15,0.16-0.23,0.23
						l-0.12,0.11l-0.1,0.09c-0.54,0.53-1.05,1.1-1.53,1.68c-0.48,0.58-0.9,1.2-1.23,1.83l-0.02,0.04c-0.2,0.33-0.38,0.74-0.53,1.12
						c-0.15,0.39-0.25,0.79-0.3,1.17c-0.05,0.38-0.03,0.75,0.07,1.07c0.05,0.16,0.12,0.3,0.21,0.43c0.08,0.12,0.19,0.23,0.31,0.33
						c-0.01-0.01-0.03-0.01-0.04-0.02l0.07,0.05c-0.01-0.01-0.02-0.02-0.03-0.03c0.08,0.04,0.19,0.1,0.29,0.14
						c0.12,0.05,0.25,0.1,0.37,0.15c0.25,0.09,0.52,0.16,0.78,0.21c0.53,0.09,1.07,0.11,1.6,0.02c0.13-0.02,0.26-0.05,0.4-0.08
						c0.07-0.01,0.12-0.03,0.18-0.05l0.05-0.01l0.09-0.03c0.05-0.01,0.11-0.03,0.16-0.03c0.4-0.07,0.78-0.05,1.14,0.03
						c0.68,0.14,1.27,0.45,1.79,0.82c-0.04-0.01-0.08-0.02-0.11-0.02l0.2,0.09c-0.03-0.02-0.06-0.04-0.09-0.06
						c0.08,0.02,0.18,0.03,0.27,0.03c0.13,0.01,0.27,0.01,0.4,0c0.26-0.02,0.49-0.08,0.66-0.2c0.17-0.12,0.3-0.28,0.37-0.52
						c0.07-0.23,0.09-0.5,0.07-0.79c0,0.01,0.01,0.02,0.01,0.03l-0.01-0.05c0,0.01,0,0.01,0,0.02c-0.07-0.3-0.21-0.64-0.37-0.95
						c-0.17-0.32-0.37-0.62-0.62-0.88c-0.25-0.27-0.53-0.5-0.86-0.68c-0.32-0.18-0.68-0.32-1.06-0.41c0.38,0,0.78,0.06,1.15,0.19
						c0.37,0.13,0.73,0.33,1.05,0.58c0.32,0.25,0.6,0.55,0.84,0.88c0.24,0.34,0.44,0.68,0.59,1.1l0,0l0.01,0.04
						c0.06,0.34,0.09,0.71,0.02,1.1c-0.06,0.38-0.28,0.8-0.62,1.07c-0.34,0.27-0.74,0.4-1.11,0.46c-0.19,0.03-0.37,0.04-0.56,0.04
						c-0.19,0-0.35-0.01-0.57-0.04l-0.08-0.01l-0.12-0.07c-0.47-0.29-0.96-0.52-1.46-0.59c-0.24-0.03-0.49-0.03-0.69,0.01
						c-0.03,0.01-0.04,0.01-0.06,0.02l-0.02,0.01l-0.06,0.02c-0.08,0.03-0.18,0.06-0.26,0.08c-0.16,0.05-0.33,0.09-0.5,0.12
						c-0.68,0.13-1.37,0.13-2.05,0.02c-0.34-0.06-0.67-0.14-0.99-0.25c-0.16-0.06-0.32-0.12-0.48-0.19
						c-0.16-0.07-0.3-0.14-0.49-0.25l-0.04-0.02l-0.03-0.03c-0.22-0.19-0.42-0.4-0.59-0.64c-0.16-0.25-0.29-0.52-0.38-0.8
						c-0.16-0.56-0.16-1.12-0.08-1.64c0.08-0.52,0.24-1,0.44-1.45C99.28,45.3,99.5,44.89,99.79,44.46z"/>
				</g>
				<g>
					<path class="st4" d="M100.46,49.2c0.01,0.01,0.03,0.01,0.04,0.02c0.01,0.01,0.02,0.02,0.03,0.03L100.46,49.2z"/>
				</g>
				<g>
					<path class="st4" d="M109.11,48.95c0-0.01-0.01-0.02-0.01-0.03c0-0.01,0-0.01,0-0.02L109.11,48.95z"/>
				</g>
			</g>
		</g>
	</g>
</g>
</svg>
