<?xml version="1.0" encoding="utf-8"?>
<!-- Generator: Adobe Illustrator 28.5.0, SVG Export Plug-In . SVG Version: 9.03 Build 54727)  -->
<svg version="1.0" id="Layer_1" xmlns="http://www.w3.org/2000/svg" xmlns:xlink="http://www.w3.org/1999/xlink" x="0px" y="0px"
	 viewBox="0 0 150 150" style="enable-background:new 0 0 150 150;" xml:space="preserve">
<style type="text/css">
	.st0{fill:#FFFDF0;}
	.st1{fill:#A3A091;}
	.st2{fill:#673956;}
	.st3{fill:#D6D5D4;}
	.st4{fill:#95404B;}
	.st5{fill:#C6705C;}
	.st6{fill:#FFA41F;}
	.st7{fill:#70220D;}
	.st8{fill:#EAA498;}
	.st9{fill:#9483AB;}
	.st10{fill:#FFFFFF;}
	.st11{fill:#CCC7CA;}
	.st12{fill:#FFCAA6;}
	.st13{fill:#C74C44;}
	.st14{fill:#846F74;}
	.st15{fill:#3A1D30;}
	.st16{fill:#AFA19C;}
	.st17{fill:#F3E0D9;}
</style>
<g>
	<g>
		<path class="st0" d="M93.31,61.51c0,0-1.94,11.71-8.69,20.47l0.79,0.06c0,0,7.44-10.12,8.31-21.34L93.31,61.51z"/>
	</g>
	<g>
		<g>
			<path class="st1" d="M61.69,63.06c0,0-2.56-4.75-2.83-11.03c0,0,5.05,1.29,8.02-1.56c0,0,0.71,4.37,1.44,7.96
				c0.26,1.28,3.62,3,5.46,4.74c2.14,2.02,0.34,7.36-4.09,5.92C69.08,68.89,64.06,66.98,61.69,63.06z"/>
			<path class="st2" d="M69.53,69.6c-0.06-0.02-5.69-1.95-8.3-6.26l-0.01-0.02c-0.11-0.2-2.62-4.93-2.9-11.27l-0.03-0.72l0.7,0.18
				c0.05,0.01,4.8,1.18,7.51-1.42l0.74-0.71l0.16,1.01c0.01,0.04,0.72,4.4,1.44,7.94c0.12,0.58,1.56,1.61,2.73,2.44
				c0.91,0.65,1.85,1.32,2.58,2.01c1.26,1.19,1.43,3.38,0.41,5.11c-0.77,1.29-1.99,1.98-3.42,1.98
				C70.63,69.87,70.08,69.79,69.53,69.6z M59.43,52.69c0.4,5.6,2.6,9.86,2.72,10.11c2.41,3.97,7.65,5.77,7.7,5.78
				c2.3,0.75,3.41-0.62,3.78-1.24c0.76-1.28,0.66-2.94-0.22-3.78c-0.68-0.64-1.59-1.29-2.47-1.92c-1.58-1.13-2.95-2.11-3.15-3.11
				c-0.52-2.58-1.04-5.58-1.29-7.06C64.05,53.2,60.84,52.93,59.43,52.69z"/>
		</g>
		<g>
			<path class="st3" d="M73.62,64.29c0,0,0.99,2.59-4.08,1.88c0,0-3.51-1.71-5.26-4.49c0,0-1.92-3.1-2.02-7.16
				c0,0,3.36-0.9,4.22-2.8c0,0,1.17,7.02,1.54,7.51c0,0,2.28,2.11,4.36,3.55C72.38,62.79,73.58,63.49,73.62,64.29z"/>
		</g>
		<g>
			<g>
				<path class="st4" d="M59.27,57.4c0,0,4.49,1.81,8.67-1.42l-0.57-6.6c0,0-3.73,3.26-9.11,1.72C58.26,51.1,58.83,55.68,59.27,57.4
					z"/>
				<path class="st2" d="M59.07,57.9l-0.25-0.1l-0.07-0.26c-0.44-1.74-1-6.18-1.02-6.37l-0.1-0.81l0.78,0.22
					c5.02,1.44,8.46-1.48,8.6-1.61l0.8-0.7l0.69,7.95l-0.23,0.18c-2.09,1.62-4.23,2.05-5.93,2.05
					C60.48,58.46,59.17,57.94,59.07,57.9z M66.91,50.38c-1.34,0.86-4.23,2.25-8.02,1.44c0.17,1.28,0.53,3.83,0.83,5.18
					c0.95,0.3,4.35,1.13,7.65-1.26L66.91,50.38z"/>
			</g>
			<g>
				<path class="st5" d="M67.25,55.72c0,0-5.8,3.95-7.23-3.27c0,0,3.17,0.75,6.7-1.96L67.25,55.72z"/>
			</g>
			<g>
				<g>
					<path class="st2" d="M64.88,54.15c-0.2-0.22-0.43-0.38-0.66-0.53c-0.23-0.15-0.47-0.28-0.72-0.39
						c-0.25-0.11-0.51-0.21-0.77-0.29c-0.27-0.08-0.54-0.14-0.84-0.15c0.2,0.22,0.43,0.38,0.66,0.53c0.23,0.15,0.47,0.28,0.72,0.39
						c0.25,0.11,0.51,0.21,0.77,0.29C64.31,54.08,64.58,54.14,64.88,54.15z"/>
				</g>
				<g>
					<path class="st2" d="M61.95,54.62c0.28-0.09,0.53-0.23,0.77-0.37c0.24-0.15,0.46-0.31,0.67-0.49c0.21-0.18,0.41-0.37,0.59-0.58
						c0.18-0.21,0.36-0.43,0.49-0.7c-0.28,0.09-0.53,0.23-0.77,0.37c-0.24,0.15-0.46,0.31-0.67,0.49c-0.21,0.18-0.41,0.37-0.59,0.58
						C62.26,54.14,62.09,54.36,61.95,54.62z"/>
				</g>
			</g>
			<g>
				<g>
					<path class="st2" d="M65.11,56.33c-0.2-0.22-0.43-0.38-0.66-0.53c-0.23-0.15-0.47-0.28-0.72-0.4
						c-0.25-0.11-0.51-0.21-0.77-0.29c-0.27-0.07-0.54-0.14-0.84-0.15c0.2,0.22,0.43,0.38,0.66,0.53c0.23,0.15,0.47,0.28,0.72,0.39
						C63.75,56,64,56.1,64.27,56.17C64.54,56.25,64.81,56.31,65.11,56.33z"/>
				</g>
				<g>
					<path class="st2" d="M62.18,56.8c0.28-0.09,0.53-0.23,0.77-0.37c0.24-0.15,0.46-0.31,0.67-0.49c0.21-0.18,0.41-0.37,0.59-0.58
						c0.18-0.21,0.36-0.43,0.49-0.7c-0.28,0.09-0.53,0.23-0.77,0.37c-0.24,0.15-0.46,0.31-0.67,0.49c-0.21,0.18-0.41,0.37-0.59,0.58
						C62.49,56.31,62.32,56.53,62.18,56.8z"/>
				</g>
			</g>
		</g>
		<g>
			<g>
				<path class="st6" d="M59.31,54.13c0,0-5.74-1.42-9.42,0.62c0,0-0.92,0.83-0.4,2.06c0,0,1.86-2.57,9.56-1.5L59.31,54.13z"/>
				<path class="st7" d="M49.12,56.97c-0.63-1.48,0.45-2.48,0.5-2.52l0.08-0.05c3.78-2.1,9.47-0.72,9.71-0.66l0.38,0.09l-0.41,1.94
					L59,55.72c-7.3-1.02-9.17,1.31-9.18,1.33l-0.42,0.58L49.12,56.97z M58.74,54.87l0.09-0.43c-1.31-0.26-5.73-0.97-8.7,0.64
					c-0.09,0.1-0.39,0.46-0.4,0.98c0.79-0.57,2.51-1.4,5.84-1.4C56.5,54.66,57.55,54.72,58.74,54.87z"/>
			</g>
			<g>
				<path class="st6" d="M59.43,53.97c0,0-5.1,1.57-7.41,4.6c0,0-0.47,0.98,0.35,1.6c0,0,0.66-2.59,7.24-5.27L59.43,53.97z"/>
				<path class="st7" d="M52.13,60.49c-0.86-0.64-0.69-1.65-0.48-2.09l0.04-0.07c2.36-3.11,7.4-4.68,7.61-4.74l0.43-0.13l0.34,1.69
					l-0.31,0.13c-6.23,2.54-7,4.98-7,5l-0.15,0.58L52.13,60.49z M59.12,54.5c-1.25,0.44-4.92,1.9-6.75,4.28
					c-0.04,0.1-0.12,0.35-0.06,0.62c0.61-0.97,2.3-2.84,6.84-4.74L59.12,54.5z"/>
			</g>
			<g>
				<path class="st6" d="M58.82,53.47c-0.61,0.09-1.03,0.65-0.94,1.26c0.09,0.61,0.65,1.03,1.26,0.94c0.61-0.09,1.03-0.65,0.94-1.26
					C59.99,53.8,59.43,53.38,58.82,53.47z"/>
				<path class="st7" d="M58.08,55.78c-0.32-0.24-0.54-0.59-0.59-0.99c-0.06-0.4,0.04-0.8,0.28-1.12c0.24-0.32,0.59-0.54,1-0.59
					c0.4-0.06,0.8,0.04,1.12,0.28c0.32,0.24,0.54,0.59,0.59,0.99c0.06,0.4-0.04,0.8-0.28,1.12c-0.24,0.32-0.59,0.54-0.99,0.59
					c-0.07,0.01-0.15,0.02-0.22,0.02C58.66,56.08,58.34,55.98,58.08,55.78z M58.88,53.87L58.88,53.87
					c-0.19,0.03-0.35,0.13-0.47,0.28c-0.11,0.15-0.16,0.34-0.13,0.53c0.03,0.19,0.13,0.35,0.28,0.46c0.15,0.11,0.34,0.16,0.53,0.13
					c0.19-0.03,0.35-0.13,0.46-0.28c0.11-0.15,0.16-0.34,0.13-0.53c-0.03-0.19-0.13-0.35-0.28-0.46c-0.12-0.09-0.27-0.14-0.42-0.14
					C58.95,53.86,58.92,53.86,58.88,53.87z"/>
			</g>
		</g>
	</g>
	<g>
		<g>
			<g>
				<path class="st8" d="M64.97,40.35c1.8,1.36,1.86,2.86,1.86,2.86l1.84,2.63c0.01,4.24-4.67,4.82-4.67,4.82l-1.63,1.41l-1.62,0.35
					c-2.57,0.1-4.77-4.93-4.77-4.93c-0.01-2.63,2.73-3.62,2.73-3.62c-0.1-2.05,1.98-1.8,1.98-1.8c-0.57-2.17,2.49-2.03,2.49-2.03
					L64.97,40.35z"/>
			</g>
			<g>
				<path class="st2" d="M63.21,39.49c-0.2-0.01-1.94-0.06-2.74,0.93c-0.19,0.23-0.38,0.6-0.38,1.11c-0.39,0.05-0.89,0.19-1.28,0.57
					c-0.38,0.35-0.58,0.82-0.62,1.41c-0.81,0.39-2.74,1.58-2.73,3.97l0,0.11l0.04,0.1c0.24,0.55,2.42,5.36,5.28,5.26l0.09-0.01
					l1.75-0.37l1.62-1.39c1.82-0.28,4.98-1.71,4.98-5.33l0-0.17L67.35,43c-0.07-0.48-0.42-1.85-2.06-3.09l-0.1-0.08L63.21,39.49z
					 M63.13,40.56l1.61,0.29c1.45,1.15,1.55,2.33,1.55,2.38l0.01,0.15l0.09,0.13L68.13,46c-0.11,3.57-4.03,4.1-4.2,4.12l-0.16,0.02
					l-1.65,1.42l-1.43,0.31c-1.75,0.01-3.55-3.15-4.17-4.51c0.07-2.14,2.35-2.99,2.37-3l0.37-0.14l-0.02-0.4
					c-0.02-0.44,0.07-0.75,0.29-0.95c0.39-0.36,1.09-0.3,1.1-0.29l0.79,0.09l-0.2-0.77c-0.14-0.53,0.03-0.75,0.09-0.82
					C61.69,40.62,62.74,40.55,63.13,40.56z"/>
			</g>
		</g>
		<g>
			<g>
				<g>
					<g>
						<path class="st2" d="M62.8,48.55c-0.05-0.14-0.09-0.3-0.11-0.45c0.16,0.04,0.32,0.09,0.48,0.15L62.8,48.55z"/>
					</g>
					<g>
						<path class="st2" d="M64.7,46.77c-0.07,0.01-0.19,0.04-0.29,0.08c-0.1,0.03-0.2,0.07-0.3,0.12c-0.19,0.09-0.36,0.2-0.5,0.34
							c-0.14,0.14-0.24,0.3-0.29,0.49c-0.07,0.19-0.05,0.4-0.02,0.62l0.06,0.58l-0.43-0.28c-0.16-0.11-0.37-0.21-0.58-0.28
							c-0.2-0.08-0.42-0.13-0.64-0.16c-0.22-0.02-0.44-0.01-0.66,0.04c-0.22,0.05-0.42,0.16-0.61,0.29
							c0.16-0.17,0.35-0.32,0.57-0.42c0.22-0.1,0.46-0.15,0.71-0.17c0.24-0.01,0.49,0,0.73,0.04c0.08,0.01,0.16,0.03,0.24,0.05
							c0.03,0.16,0.07,0.31,0.11,0.45l0.37-0.3c-0.17-0.07-0.32-0.12-0.48-0.15c-0.02-0.14-0.03-0.27-0.01-0.42
							c0.03-0.31,0.14-0.62,0.32-0.87c0.18-0.26,0.4-0.47,0.63-0.64c0.12-0.09,0.24-0.17,0.37-0.24c0.13-0.07,0.25-0.13,0.42-0.2
							L64.7,46.77z"/>
					</g>
				</g>
			</g>
		</g>
		<g>
			<g>
				<path class="st4" d="M83.83,33.12c0,0-5.18,2.5-13.98,9.76c0,0-3.29,2.88-5.61,3.8c0,0-2.66,1.21-10.53,7.9
					c0,0-3.82-0.57-3.12-4.6c0,0,4.97-2.58,11.14-7c0,0,5.81-4.68,9.3-6.24c0,0,18.39-11.86,25.24-17.46c0,0,3.48,1.16,1.93,2.96
					c0,0-2.19,2.39-10.06,7.65C88.15,29.89,86.59,31.65,83.83,33.12z"/>
				<path class="st2" d="M53.66,54.97c-0.07-0.01-1.81-0.28-2.84-1.7c-0.65-0.9-0.86-2.03-0.63-3.37l0.03-0.2l0.18-0.09
					c0.05-0.03,5.02-2.62,11.07-6.95c0.24-0.19,5.86-4.7,9.36-6.28c0.78-0.51,18.54-11.99,25.17-17.42l0.17-0.14l0.21,0.07
					c0.22,0.07,2.2,0.76,2.55,2.04c0.1,0.37,0.11,0.94-0.45,1.58c-0.09,0.1-2.3,2.48-10.09,7.69c-0.26,0.28-1.8,1.9-4.39,3.28
					l-0.01,0.01c-0.05,0.02-5.25,2.58-13.89,9.7c-0.14,0.12-3.37,2.94-5.7,3.87c-0.03,0.01-2.74,1.3-10.43,7.84L53.84,55
					L53.66,54.97z M87.85,29.62l0.08-0.07c7.71-5.16,9.96-7.57,9.97-7.58c0.26-0.3,0.35-0.57,0.28-0.83
					c-0.18-0.64-1.25-1.18-1.82-1.41c-6.93,5.61-24.91,17.22-25.09,17.34L71.2,37.1c-3.4,1.53-9.16,6.14-9.23,6.2
					c-5.46,3.91-10.05,6.42-11,6.93c-0.14,1.03,0.03,1.89,0.51,2.56c0.65,0.91,1.72,1.24,2.13,1.34c7.7-6.54,10.36-7.78,10.49-7.84
					c2.23-0.88,5.46-3.7,5.5-3.74c8.57-7.07,13.81-9.69,14.05-9.8C86.3,31.34,87.83,29.64,87.85,29.62z"/>
			</g>
			<g>
				<path class="st5" d="M96.48,19.57l-3.04,2.48c0,0,0.87,1.45,3.4-0.25C96.83,21.8,98.46,20.66,96.48,19.57z"/>
			</g>
			<g>
				<path class="st9" d="M96.45,23.97c0,0-0.05-3.48-4.31-3.27c0,0-2.9-2.74-8.53-18.1c0,0-0.34-2.25-4.75-0.55
					c0,0-5.22,1.46-9.02,7.15c0,0-0.95,1.8,3.06,4.9c0,0,7.3,6.73,11.62,12.96c0,0,2.48,0.14,2.71,3.45c0,0,1.96,2.23,4.41-0.35
					c0,0,1.51,1.54,4.36,6.99c0,0,1.15-0.2,3.93-2.23c0,0,1.51-0.59-2.18-3.31c0,0-3.2-4.31-2.11-4.65
					C95.63,26.98,97.16,25.55,96.45,23.97z"/>
				<path class="st2" d="M95.51,37.41c-2-3.83-3.34-5.71-3.93-6.46c-0.78,0.67-1.59,1.01-2.43,0.99c-1.4-0.03-2.3-1.03-2.34-1.08
					l-0.12-0.14l-0.01-0.18c-0.19-2.77-2.13-2.94-2.21-2.95l-0.26-0.01l-0.15-0.22c-4.13-5.97-11.13-12.5-11.52-12.86
					c-4.22-3.28-3.3-5.34-3.18-5.56l0.03-0.05c3.77-5.64,8.84-7.23,9.3-7.37c2.01-0.77,3.52-0.87,4.51-0.3
					c0.69,0.4,0.88,1,0.93,1.21c4.79,13.08,7.61,16.94,8.24,17.71c1.44-0.02,2.58,0.35,3.4,1.12c1.01,0.95,1.18,2.19,1.21,2.57
					c0.76,1.87-0.91,3.46-0.99,3.53l-0.05,0.05c0.05,0.54,1.02,2.25,2.18,3.82c1.91,1.41,2.74,2.48,2.63,3.35
					c-0.05,0.42-0.32,0.69-0.56,0.81c-2.77,2.02-3.98,2.27-4.11,2.3l-0.39,0.07L95.51,37.41z M97.42,32.06l-0.06-0.05l-0.05-0.06
					c-1.04-1.4-2.73-3.9-2.39-4.94c0.07-0.22,0.21-0.39,0.4-0.49c0.24-0.25,1.12-1.28,0.64-2.33l-0.05-0.1l0-0.11
					c0-0.01-0.04-1.13-0.88-1.92c-0.65-0.61-1.61-0.88-2.87-0.82l-0.23,0.01l-0.17-0.16c-0.12-0.12-3.05-3-8.66-18.31l-0.02-0.09
					c0-0.01-0.07-0.32-0.45-0.53c-0.39-0.22-1.38-0.45-3.57,0.39L79,2.56c-0.05,0.01-5.04,1.47-8.69,6.89
					c-0.06,0.19-0.37,1.68,2.91,4.22l0.03,0.03c0.07,0.07,7.25,6.71,11.56,12.87c0.73,0.15,2.63,0.83,2.92,3.7
					c0.22,0.2,0.75,0.59,1.44,0.6c0.68,0.01,1.37-0.35,2.06-1.07l0.38-0.4l0.39,0.4c0.06,0.06,1.53,1.58,4.24,6.72
					c0.51-0.21,1.59-0.73,3.35-2.01l0.06-0.04l0.03-0.01C99.69,34.37,99.63,33.69,97.42,32.06z"/>
			</g>
			<g>
				<path class="st10" d="M87.8,15.68c0,0-2.22-5.09-5.17-13.07c0,0-4.14-3.25-12.08,6.98c0,0-0.21,1.49,1.81,2.89
					c0,0,2.77,1.07,8.8,8.62C81.15,21.1,81.75,16.5,87.8,15.68z"/>
			</g>
			<g>
				<path class="st11" d="M94.67,23.87c0,0-2.45,0.66-5.83,3.95c0,0-0.65-1.41-2.84-1.53c0,0-0.32-0.74,5.72-4.88
					C91.72,21.42,93.52,20.47,94.67,23.87z"/>
			</g>
			<g>
				<path class="st11" d="M99.22,34.53c0,0,0.25-1.18-2.52,0.4c0,0-1.82-4.19-4.22-6.22l-0.58,0.4c0,0,0.97,1.61,3.92,6.85
					C95.83,35.97,96.06,36.97,99.22,34.53z"/>
			</g>
			<g>
				<path class="st10" d="M95.94,23.88c0,0-0.3-2.89-3.91-2.68c0,0,3.45,2.12,1.83,2.79c-1.17,0.48-3.48,1.71-5.21,3.53
					c0,0,0.57,0.78,0.63,1.6c0,0,3.17-2.07,5.46-3.03C94.73,26.1,96.24,25.73,95.94,23.88z"/>
			</g>
			<g>
				<path class="st11" d="M85.22,24.48c0,0-0.77-2.69-9.24-9.7c0,0,0.57-2.39,4.16-4.97c0,0-1.4-0.64-5.46,3.7
					c0,0-0.88-0.99-3.32-2.24c0,0-0.09,0.04,1,1.19c0,0,7.1,5.72,12.45,13.63C84.8,26.11,85.89,25.9,85.22,24.48z"/>
			</g>
			<g>
				<path class="st5" d="M85.55,28.26c0,0,0.53,1.16-0.26,1.97c0,0-10.09,6.28-16.87,11.44c0,0-3.33,2.85-7.9,5.36
					c0,0-4.99,3.35-7.56,5.83c0,0-1.17,0.34-1.77-1.99c0,0,9.32-5.57,14.9-10.28c0,0,3.65-2.52,6.28-3.82
					C72.38,36.76,83.1,29.43,85.55,28.26z"/>
			</g>
		</g>
		<g>
			<g>
				<g>
					<path class="st8" d="M64.3,39.56c2.06,0.74,2.17,3.89,2.17,3.89c-1.52-2.4-3.48,0.58-3.48,0.58c-0.09-2.5-2.78-2.57-2.78-2.57
						c0.11-2.51,3.21-2.11,3.21-2.11L64.3,39.56z"/>
				</g>
				<g>
					<path class="st2" d="M63.49,38.81c-0.07-0.01-1.82-0.22-2.94,0.71c-0.55,0.46-0.85,1.1-0.88,1.91l-0.02,0.55l0.55,0.01
						c0.23,0.01,2.19,0.13,2.26,2.05l0.06,1.68l0.93-1.4c0.22-0.33,1-1.28,1.68-1.27c0.31,0,0.61,0.23,0.9,0.69l1.07,1.69l-0.07-2
						c-0.01-0.14-0.16-3.53-2.53-4.38l-0.05-0.02L63.49,38.81z M63.33,39.88l0.82,0.2c0.86,0.32,1.31,1.21,1.54,1.99
						c-0.18-0.06-0.36-0.09-0.56-0.09c-0.73-0.01-1.37,0.43-1.84,0.87c-0.48-1.16-1.58-1.68-2.46-1.86
						c0.08-0.26,0.22-0.47,0.42-0.64C61.94,39.77,63.14,39.86,63.33,39.88z"/>
				</g>
			</g>
			<g>
				<g>
					<path class="st8" d="M63,43.73c0.37,1.67-1.4,3.44-1.4,3.44c-1.25,0.69-2.15-1.63-2.15-1.63c-0.88-2.5-2.05-1.71-2.05-1.71
						c0.2-2.8,2.61-2.37,2.61-2.37C63.09,41.91,63,43.73,63,43.73z"/>
				</g>
				<g>
					<path class="st2" d="M60.09,40.93c-0.13-0.02-1.25-0.17-2.15,0.53c-0.64,0.5-1,1.29-1.08,2.34l-0.08,1.1l0.91-0.62l0,0l0,0l0,0
						c0,0,0.12-0.06,0.28,0c0.16,0.06,0.57,0.32,0.96,1.44c0.07,0.18,0.67,1.65,1.69,2.03c0.41,0.15,0.83,0.11,1.22-0.11l0.07-0.04
						l0.05-0.05c0.08-0.08,1.94-1.96,1.56-3.88C63.52,43.24,63.26,41.4,60.09,40.93z M59.91,41.99l0.02,0
						c2.52,0.37,2.53,1.67,2.53,1.72l0,0.06l0.01,0.07c0.24,1.08-0.73,2.39-1.19,2.88c-0.12,0.05-0.21,0.03-0.27,0.01
						c-0.45-0.16-0.91-1-1.05-1.39c-0.04-0.11-0.08-0.22-0.12-0.32c-0.39-0.97-0.91-1.57-1.53-1.78c-0.09-0.03-0.17-0.05-0.25-0.06
						c0.11-0.39,0.3-0.68,0.55-0.88C59.16,41.87,59.9,41.99,59.91,41.99z"/>
				</g>
				<g>
					<polygon class="st2" points="57.7,44.28 57.7,44.28 57.7,44.28 					"/>
				</g>
			</g>
			<g>
				<g>
					<path class="st8" d="M59.3,44.75c1.68,3.99-1.06,4.57-1.06,4.57c-1.7,0.23-3.16-3.1-3.16-3.1c0.33-1.92,1.95-2.51,1.95-2.51
						C58.29,43.52,59.3,44.75,59.3,44.75z"/>
				</g>
				<g>
					<path class="st2" d="M56.85,43.21c-0.08,0.03-1.92,0.73-2.3,2.93l-0.03,0.16l0.06,0.15c0.17,0.38,1.68,3.7,3.73,3.41l0.04-0.01
						c0.05-0.01,1.13-0.25,1.7-1.34c0.52-1,0.43-2.33-0.25-3.97l-0.03-0.07l-0.05-0.06c-0.05-0.06-1.23-1.46-2.76-1.23L56.85,43.21z
						 M57.18,44.24c0.77-0.08,1.48,0.61,1.67,0.81c0,0.01,0.01,0.02,0.01,0.03c0.51,1.24,0.59,2.25,0.25,2.92
						c-0.3,0.59-0.85,0.77-0.96,0.8c-0.93,0.09-2.03-1.64-2.5-2.63C55.94,44.85,56.95,44.34,57.18,44.24z"/>
				</g>
			</g>
			<g>
				<g>
					<g>
						<path class="st12" d="M58.7,44.54c0.84,1.21,0.58,2.55,0.58,2.55c-1.35,1.53-1.82-1.13-1.82-1.13
							c-0.76,0.48-1.53-0.15-1.53-0.15c-0.35-0.9,0.9-1.92,0.9-1.92C57.82,43.22,58.7,44.54,58.7,44.54z"/>
					</g>
				</g>
				<g>
					<g>
						<g>
							<g>
								<path class="st2" d="M58.82,45.55c-0.22,0.09-0.44,0.19-0.65,0.3c-0.21,0.11-0.42,0.23-0.61,0.36
									c-0.19,0.14-0.38,0.29-0.48,0.52c0.01-0.25,0.15-0.49,0.28-0.7c0.14-0.21,0.3-0.41,0.47-0.6c0.17-0.19,0.35-0.37,0.53-0.55
									c0.19-0.18,0.37-0.34,0.58-0.52l0.53,0.94C59.26,45.37,59.03,45.46,58.82,45.55z"/>
							</g>
						</g>
					</g>
				</g>
			</g>
			<g>
				<g>
					<g>
						<path class="st12" d="M61.35,42.35c1.45,0.93,0.94,2.44,0.94,2.44c-1.11,1.71-1.76-1.04-1.76-1.04
							c-0.68,0.58-2.06-0.54-2.06-0.54c-0.48-0.84,0.16-0.91,0.16-0.91C59.51,41.5,61.35,42.35,61.35,42.35z"/>
					</g>
				</g>
				<g>
					<g>
						<g>
							<g>
								<path class="st2" d="M61.61,43.33c-0.2,0.12-0.4,0.25-0.6,0.39c-0.19,0.14-0.38,0.29-0.55,0.45
									c-0.17,0.17-0.33,0.34-0.4,0.58c-0.02-0.25,0.07-0.51,0.18-0.73c0.11-0.23,0.24-0.45,0.38-0.67
									c0.14-0.21,0.29-0.42,0.45-0.62c0.16-0.2,0.32-0.39,0.5-0.59l0.66,0.85C62.03,43.08,61.81,43.21,61.61,43.33z"/>
							</g>
						</g>
					</g>
				</g>
			</g>
			<g>
				<g>
					<g>
						<path class="st12" d="M64.37,40.08c1,1.08,1.17,1.88,1.17,1.88c-1.11,1.71-2.37-0.51-2.37-0.51
							c-0.68,0.58-2.06-0.54-2.06-0.54c-0.01-0.73,0.54-0.89,0.54-0.89C62.53,39.23,64.37,40.08,64.37,40.08z"/>
					</g>
				</g>
				<g>
					<g>
						<g>
							<g>
								<path class="st2" d="M64.46,40.86c-0.2,0.12-0.4,0.25-0.6,0.39c-0.19,0.14-0.38,0.29-0.55,0.45
									c-0.17,0.16-0.33,0.34-0.4,0.58c-0.02-0.25,0.07-0.51,0.18-0.74c0.11-0.23,0.24-0.45,0.38-0.66
									c0.14-0.21,0.29-0.42,0.45-0.62c0.16-0.2,0.32-0.39,0.5-0.59l0.66,0.85C64.87,40.62,64.66,40.74,64.46,40.86z"/>
							</g>
						</g>
					</g>
				</g>
			</g>
			<g>
				<g>
					<g>
						<path class="st8" d="M67.14,42.63l0.73,0.81c1.49,2.54,0.34,4.36,0.34,4.36l-2.81-1.73c-3.33,0.77-3.43-0.97-3.43-0.97
							c-0.17-1.05,1.32-1.62,1.32-1.62C66.51,40.93,67.14,42.63,67.14,42.63z"/>
					</g>
					<g>
						<path class="st2" d="M67.59,42.33l0.68,0.75l0.06,0.09c1.64,2.79,0.38,4.83,0.33,4.92l-0.91-0.57
							c0.04-0.06,0.94-1.58-0.32-3.75l-0.76-0.84l-0.04-0.1c0,0-0.07-0.13-0.26-0.18c-0.26-0.07-1.04-0.1-2.75,1.25l-0.06,0.05
							l-0.08,0.03c-0.01,0-1.07,0.45-0.98,1.03l0,0.04c0,0.01,0.03,0.24,0.29,0.42c0.26,0.18,0.93,0.44,2.48,0.08l0.24,1.05
							c-1.53,0.35-2.67,0.26-3.39-0.28c-0.32-0.24-0.49-0.52-0.58-0.75c-0.07-0.18-0.1-0.33-0.1-0.4c-0.17-1.12,0.88-1.87,1.58-2.16
							c1.51-1.18,2.74-1.65,3.65-1.39C67.22,41.76,67.49,42.13,67.59,42.33z"/>
					</g>
				</g>
				<g>
					<g>
						<path class="st12" d="M65.96,44.82c-2.99,1.59-2.88-0.48-2.88-0.48c0.91-1.24,2.98-1.83,2.98-1.83
							C67.24,44.42,65.96,44.82,65.96,44.82z"/>
					</g>
				</g>
			</g>
		</g>
	</g>
	<g>
		<g>
			<g>
				<path class="st1" d="M73.2,63.37c-0.72,1.14-3.42,7.08-4.14,12.16c-0.37,2.59,9.18,4.93,9.18,4.93l0.79,0.15
					c12.86,3.39,21.33,0.53,21.33,0.53s-0.26,0.38,0,0c0.26-0.38,0.39-7.45,0.39-7.45s0.03-6.47-5.52-11.57
					c0,0-11.97,3.06-17.16-3.19c0,0-2.95,0.87-3.49,2.13C74.59,61.06,75.48,59.75,73.2,63.37z"/>
				<path class="st2" d="M78.91,81.14l-0.8-0.16c-1.67-0.41-10-2.6-9.58-5.53c0.72-5.12,3.45-11.16,4.21-12.37l0,0
					c0.82-1.3,1.2-1.92,1.38-2.21l-0.03-0.02c0.62-1.45,3.5-2.34,3.83-2.43l0.34-0.1l0.23,0.27c4.9,5.92,16.49,3.05,16.61,3.02
					l0.28-0.07l0.21,0.2c5.66,5.2,5.7,11.7,5.7,11.98c-0.07,3.77-0.17,5.67-0.26,6.65l0.7-0.24l-0.92,1.33c0,0,0,0,0,0.01
					l-0.12,0.17l-0.22-0.15l0.06,0.19c-0.22,0.07-3.56,1.16-9.14,1.16C88,82.82,83.78,82.42,78.91,81.14z M100.22,73.7
					c0-0.06-0.05-6.14-5.14-10.98c-1.9,0.43-12.14,2.46-17.18-3.16c-0.84,0.29-2.14,0.86-2.65,1.46c-0.06,0.17-0.18,0.37-0.32,0.59
					c-0.23,0.37-0.62,1.01-1.28,2.05c-0.74,1.17-3.36,6.99-4.06,11.95c-0.18,1.3,4.41,3.26,8.75,4.33l0.79,0.15l0.03,0.01
					c11.26,2.97,19.2,1.06,20.75,0.63C100.05,79.81,100.17,76.6,100.22,73.7z M74.23,60.93c0.02,0.14,0.1,0.27,0.24,0.36
					c0.16,0.11,0.35,0.1,0.5,0.04L74.23,60.93z"/>
			</g>
			<g>
				<path class="st3" d="M91.35,66.22c0,0-10.15,0.92-15.92-2.95c0,0-2.82,2.78-4.92,12.17c0,0,15.44,6.08,22.77,2.98
					C93.29,78.42,90.39,73.75,91.35,66.22z"/>
			</g>
		</g>
		<g>
			<path class="st13" d="M95.08,62.92c0,0-0.96,11.96-11.87,18.9c0,0,10.07,0.64,16.9,1.47C100.11,83.29,105.13,68.46,95.08,62.92z"
				/>
			<path class="st7" d="M100.05,83.83c-6.74-0.82-16.77-1.47-16.87-1.47l-1.65-0.11l1.39-0.89c10.55-6.7,11.62-18.37,11.63-18.49
				l0.07-0.83l0.73,0.4c4.29,2.37,6.56,6.77,6.56,12.74c0,4.44-1.23,8.13-1.28,8.28l-0.14,0.41L100.05,83.83z M84.8,81.39
				c3.02,0.21,9.8,0.71,14.93,1.32c0.68-2.34,3.54-13.9-4.22-18.91C95.07,66.54,93.04,75.42,84.8,81.39z"/>
		</g>
		<g>
			<path class="st13" d="M95.08,61.55c0,0-4.33,12.2-13.03,19.5c0,0,2.23,2.37,5.4,1.62c0,0,9.48-7.57,11.69-18.32
				C99.14,64.35,98.1,61.03,95.08,61.55z"/>
			<path class="st7" d="M81.66,81.42l-0.39-0.41l0.44-0.37c8.48-7.13,12.82-19.15,12.86-19.27l0.11-0.3l0.31-0.05
				c2.76-0.47,4.26,1.87,4.67,3.17l0.04,0.13l-0.03,0.14c-2.23,10.82-11.49,18.32-11.89,18.63l-0.09,0.08l-0.12,0.03
				c-0.48,0.11-0.95,0.16-1.38,0.16C83.51,83.36,81.74,81.51,81.66,81.42z M98.59,64.39c-0.2-0.53-1.09-2.5-3.12-2.35
				c-0.74,1.93-4.96,12.33-12.6,19.02c0.72,0.57,2.31,1.55,4.34,1.11C88.18,81.36,96.5,74.18,98.59,64.39z"/>
		</g>
		<g>
			<path class="st6" d="M95.63,62.2c0,0-5.78,13.2-12.41,18.77c0,0,0.91,0.26,2.61,0.08c0,0,7.69-6.92,10.69-17.09
				C96.53,63.96,98.67,60.33,95.63,62.2z"/>
		</g>
	</g>
	<g>
		<g>
			<g>
				<path class="st8" d="M118.71,74.44c0,0-1.53-1.52-4.45,0.43c0,0-3.92,1.99-4.02,7.66c0,0,2.68,1.35,3.1,2.67
					c0,0,1.29,1.14,2.34,0.14c0,0,2.45,1.37,2.75,0.46c0,0,0.2-1.74,1.8-2.88c0,0,0.6-0.96,0.29-1.63l0.81-1.39
					c0,0,0.08-0.16-0.45-0.68l0.69-1.44C121.56,77.77,120.12,75.77,118.71,74.44z"/>
				<path class="st2" d="M115.74,85.97c-1.05,0.69-2.23,0.09-2.75-0.37l-0.11-0.1l-0.05-0.14c-0.26-0.8-1.88-1.87-2.83-2.35
					l-0.3-0.15l0.01-0.34c0.1-5.72,3.87-7.89,4.28-8.11c3.15-2.09,4.93-0.51,5.09-0.36c1.43,1.35,2.86,3.33,2.92,3.41l0.19,0.26
					l-0.67,1.4c0.23,0.27,0.46,0.66,0.29,1.01l-0.7,1.22c0.19,0.84-0.35,1.75-0.42,1.86l-0.06,0.09l-0.09,0.06
					c-1.38,0.97-1.58,2.49-1.58,2.5l-0.02,0.1c-0.09,0.28-0.29,0.49-0.57,0.6c-0.14,0.06-0.31,0.08-0.49,0.08
					C117.17,86.64,116.27,86.24,115.74,85.97z M119.82,82.54c0.14-0.26,0.34-0.77,0.21-1.04l-0.12-0.25l0.81-1.4
					c-0.05-0.06-0.12-0.14-0.23-0.25l-0.28-0.27l0.72-1.5c-0.43-0.57-1.53-2-2.6-3.01l-0.01-0.01c-0.01-0.01-1.25-1.19-3.77,0.5
					l-0.06,0.03c-0.04,0.02-3.49,1.83-3.72,6.86c0.74,0.41,2.5,1.47,3.01,2.66c0.26,0.19,0.96,0.61,1.51,0.08l0.29-0.28l0.35,0.19
					c0.75,0.42,1.66,0.74,1.98,0.71C118.01,85.08,118.4,83.6,119.82,82.54z"/>
			</g>
			<g>
				<path class="st12" d="M115.17,76.54c0,0-3.02,0.75-4.11,5.79c0,0,1,0.02,2.71,2.31c0,0,1.25,0.5,1.52-0.65
					c0,0,0.25-1.61-0.4-2.7c0,0,1.87,0.58,1.46,3.6c0,0,0.82,0.85,1.39,0.48c0,0,0.08-1.29,0.85-2.48c0,0,1.05-1.75,0.18-2.95
					c0,0,1.06-0.23,0.61-1.51c0,0-0.74-1.55-2.3-2.24C117.08,76.19,115.99,76.16,115.17,76.54z"/>
			</g>
			<g>
				<g>
					<path class="st2" d="M115.52,85.99c0.06-0.02,0.08-0.03,0.11-0.04c0.03-0.01,0.05-0.03,0.08-0.04c0.05-0.02,0.1-0.06,0.15-0.08
						c0.09-0.06,0.18-0.13,0.25-0.21c0.15-0.16,0.27-0.35,0.34-0.54c0.14-0.39,0.11-0.77,0.05-1.1c-0.08-0.33-0.19-0.63-0.32-0.91
						c-0.13-0.28-0.29-0.54-0.45-0.8l-0.02-0.03l0,0c-0.09-0.1-0.18-0.26-0.22-0.41c-0.04-0.16-0.05-0.33-0.01-0.5
						c0.04-0.17,0.13-0.33,0.23-0.48c0.06-0.07,0.12-0.14,0.18-0.21l0.21-0.19l-0.24,0.15c-0.07,0.06-0.15,0.12-0.22,0.18
						c-0.14,0.14-0.27,0.29-0.35,0.48c-0.08,0.19-0.12,0.4-0.11,0.62c0.02,0.22,0.08,0.42,0.21,0.62l-0.02-0.03
						c0.1,0.27,0.21,0.54,0.28,0.81c0.08,0.27,0.12,0.54,0.13,0.79c0,0.25-0.04,0.48-0.14,0.63c-0.05,0.08-0.1,0.13-0.17,0.17
						c-0.03,0.02-0.07,0.04-0.1,0.05c-0.02,0-0.03,0.01-0.05,0.01c-0.01,0-0.02,0-0.02,0c0,0-0.02,0,0.01-0.01L115.52,85.99z"/>
				</g>
				<g>
					<path class="st2" d="M115.48,82.91c0.41-0.04,0.83-0.08,1.25-0.1c0.42-0.02,0.83-0.05,1.25,0c-0.18-0.11-0.38-0.2-0.57-0.29
						c-0.2-0.08-0.39-0.16-0.59-0.24c-0.4-0.15-0.8-0.3-1.21-0.44L115.48,82.91z"/>
				</g>
				<g>
					<polygon class="st2" points="120.92,80.92 118.41,78.88 120.11,81.64 					"/>
				</g>
				<g>
					<polygon class="st2" points="121.29,78.88 119.34,77.29 120.45,79.55 					"/>
				</g>
			</g>
		</g>
		<g>
			<path class="st13" d="M105.89,62.29c0,0,4.67,2.71,8.2,7.91c0,0-4.98,1.55-6.01,5.53c0,0-2.9-3.35-5.4-6.02
				c-0.89-0.95-4.66-0.66-7.14-1.17c-2.88-0.59-4.15-6.08,0.38-7.18C96.54,61.21,101.83,60.2,105.89,62.29z"/>
			<path class="st7" d="M107.68,76.08c-0.03-0.03-2.92-3.37-5.39-6.01c-0.4-0.43-2.18-0.55-3.6-0.65c-1.11-0.08-2.27-0.16-3.25-0.36
				c-1.69-0.35-3-2.13-3.03-4.14c-0.03-2.04,1.23-3.57,3.39-4.1c0.06-0.01,5.87-1.33,10.35,0.98l0.02,0.01
				c0.19,0.11,4.82,2.83,8.38,8.07l0.41,0.6l-0.69,0.22c-0.05,0.01-4.71,1.51-5.65,5.15l-0.26,0.99L107.68,76.08z M105.63,62.76
				c-4.13-2.12-9.54-0.9-9.59-0.88c-2.35,0.57-2.58,2.31-2.57,3.03c0.03,1.49,0.98,2.85,2.17,3.1c0.91,0.19,2.03,0.27,3.11,0.34
				c1.94,0.13,3.62,0.25,4.31,0.99c1.8,1.92,3.82,4.21,4.8,5.34c1.18-2.75,4.05-4.2,5.38-4.74
				C109.97,65.38,105.87,62.9,105.63,62.76z"/>
		</g>
		<g>
			<path class="st6" d="M95.1,67.5c0,0-2.2-1.69,2.48-3.74c0,0,3.89-0.39,6.84,1.06c0,0,3.26,1.63,5.47,5.04c0,0-2.39,2.53-2.13,4.6
				c0,0-4.68-5.36-5.25-5.59c0,0-3.05-0.6-5.58-0.73C96.93,68.14,95.55,68.17,95.1,67.5z"/>
		</g>
		<g>
			<g>
				<path class="st4" d="M113.8,69.12c0,0-4.79,0.71-6.76,5.61l3.84,5.4c0,0,1.56-4.7,6.98-6.09
					C117.86,74.04,115.05,70.38,113.8,69.12z"/>
				<path class="st2" d="M106.43,74.8l0.11-0.27c2.05-5.13,6.97-5.91,7.18-5.94l0.27-0.04l0.19,0.19c1.26,1.28,3.99,4.82,4.1,4.97
					l0.5,0.65l-0.79,0.2c-5.06,1.3-6.55,5.56-6.61,5.74l-0.33,1.01L106.43,74.8z M113.62,69.7c-0.97,0.22-4.34,1.26-5.96,4.96
					l3.11,4.39c0.72-1.41,2.51-4.08,6.19-5.3C116.16,72.73,114.56,70.71,113.62,69.7z"/>
			</g>
			<g>
				<path class="st5" d="M107.76,74.6c0,0,3-6.35,7.89-0.84c0,0-3.12,0.96-4.78,5.08L107.76,74.6z"/>
			</g>
			<g>
				<g>
					<path class="st2" d="M110.61,74.76c0.28,0.08,0.56,0.11,0.84,0.13c0.28,0.01,0.55,0,0.82-0.03c0.27-0.03,0.54-0.07,0.81-0.14
						c0.27-0.07,0.54-0.15,0.8-0.29c-0.28-0.08-0.56-0.11-0.84-0.13c-0.28-0.01-0.55,0-0.82,0.03c-0.27,0.03-0.54,0.07-0.81,0.14
						C111.14,74.53,110.87,74.62,110.61,74.76z"/>
				</g>
				<g>
					<path class="st2" d="M112.9,72.87c-0.2,0.22-0.34,0.46-0.47,0.71c-0.13,0.25-0.24,0.5-0.33,0.76c-0.09,0.26-0.16,0.53-0.22,0.8
						c-0.05,0.27-0.09,0.55-0.07,0.85c0.2-0.22,0.34-0.46,0.47-0.71c0.13-0.25,0.24-0.5,0.33-0.76c0.09-0.26,0.16-0.53,0.22-0.8
						C112.87,73.44,112.91,73.16,112.9,72.87z"/>
				</g>
			</g>
			<g>
				<g>
					<path class="st2" d="M109.31,73c0.28,0.08,0.56,0.11,0.84,0.13c0.28,0.01,0.55,0,0.82-0.03c0.27-0.03,0.54-0.07,0.81-0.14
						c0.27-0.07,0.54-0.15,0.8-0.29c-0.28-0.08-0.56-0.11-0.84-0.13c-0.28-0.01-0.55,0-0.82,0.03c-0.27,0.03-0.54,0.07-0.81,0.14
						C109.84,72.78,109.57,72.86,109.31,73z"/>
				</g>
				<g>
					<path class="st2" d="M111.6,71.11c-0.2,0.22-0.34,0.46-0.47,0.71c-0.13,0.25-0.24,0.5-0.33,0.76c-0.09,0.26-0.17,0.53-0.22,0.8
						c-0.05,0.27-0.09,0.55-0.07,0.85c0.2-0.22,0.34-0.46,0.47-0.71c0.13-0.25,0.24-0.5,0.33-0.76c0.09-0.26,0.16-0.53,0.22-0.8
						C111.58,71.68,111.62,71.41,111.6,71.11z"/>
				</g>
			</g>
		</g>
	</g>
	<g>
		<g>
			<path class="st13" d="M77.34,94.96c0,0,1.73,2.19,3.65,3.99c0,0,1.94,1.56,0.83,2.87c0,0-6.37,4.6-6.74,4.87
				c0,0-1.23,0.94-1.85,0.91c0,0-2.28-0.56,0.08-4.96l0.11-1.12l-6.83-5.85l-0.74-1.07l-0.37-1.16l6.89-4.59L77.34,94.96z"/>
			<path class="st7" d="M73.21,108.13l-0.1-0.02c-0.08-0.02-0.8-0.22-1.18-1.07c-0.47-1.06-0.18-2.59,0.86-4.57l0.07-0.74
				l-6.67-5.72l-0.83-1.19l-0.52-1.62l7.63-5.09l5.29,6.5l0,0.01c0.02,0.02,1.72,2.17,3.59,3.91c0.19,0.15,1.24,1.06,1.35,2.19
				c0.05,0.52-0.11,1.01-0.46,1.43l-0.04,0.05l-0.05,0.04c-0.06,0.05-6.37,4.6-6.73,4.86c-0.32,0.24-1.4,1.02-2.15,1.02
				C73.24,108.13,73.22,108.13,73.21,108.13z M81.62,100.83c-0.06-0.61-0.72-1.27-0.97-1.47l-0.03-0.03
				c-1.91-1.78-3.61-3.92-3.71-4.04l-4.67-5.74l-6.14,4.1l0.22,0.7l0.66,0.95l6.99,5.99l-0.15,1.51l-0.05,0.1
				c-1.19,2.22-1.07,3.27-0.89,3.69c0.13,0.3,0.33,0.43,0.42,0.47c0.27-0.04,0.92-0.4,1.45-0.8c0.36-0.26,6.01-4.34,6.69-4.83
				C81.59,101.23,81.64,101.05,81.62,100.83z"/>
		</g>
		<g>
			<path class="st2" d="M68.98,97.62l0.33-0.43c2.65,0.62,5.33-1.04,5.95-3.7l0.55-2.37c0.62-2.65-1.04-5.33-3.7-5.95l0,0
				c-2.65-0.62-4.97,1.34-6.23,4.51l-0.55,1.01C64.73,93.35,66.33,97,68.98,97.62z"/>
			<path class="st2" d="M68.86,98.15c-1.38-0.32-2.63-1.41-3.41-2.99c-0.73-1.47-0.96-3.18-0.63-4.59l0.02-0.07l0.57-1.04
				c1.44-3.61,4.06-5.46,6.84-4.81c1.42,0.33,2.63,1.2,3.41,2.45c0.78,1.25,1.02,2.72,0.69,4.14l-0.55,2.37
				c-0.66,2.83-3.42,4.64-6.25,4.17l-0.34,0.44L68.86,98.15z M69.43,96.67c2.37,0.55,4.75-0.93,5.3-3.3L75.29,91
				c0.27-1.14,0.07-2.33-0.55-3.33c-0.62-1.01-1.6-1.71-2.74-1.97c-2.23-0.52-4.38,1.08-5.6,4.19l-0.54,1
				c-0.25,1.16-0.04,2.57,0.57,3.8c0.57,1.15,1.42,1.98,2.36,2.32l0.31-0.42L69.43,96.67z"/>
		</g>
		<g>
			<path class="st2" d="M73.34,97.03c-1.15,0.71-2.48,0.98-3.8,0.76l-0.34,0.44l-0.34-0.08c-3.05-0.71-4.77-4.35-4.1-7.21l0.02-0.07
				l0.62-1.42c1.44-3.62,4.06-5.46,6.84-4.81c1.42,0.33,2.64,1.2,3.41,2.46c0.78,1.25,1.02,2.72,0.69,4.15l-0.55,2.37
				c-0.06,0.26-0.14,0.51-0.23,0.75C75.13,95.46,74.36,96.39,73.34,97.03z M66.43,94.68c0.57,1.15,1.41,1.98,2.35,2.32l0.31-0.42
				l0.34,0.08c2.37,0.55,4.74-0.92,5.3-3.29L75.29,91c0.27-1.14,0.07-2.32-0.55-3.33c-0.62-1-1.6-1.7-2.74-1.97
				c-2.23-0.52-4.37,1.08-5.6,4.18l-0.54,1C65.61,92.05,65.82,93.46,66.43,94.68z"/>
		</g>
		<g>
			<path class="st2" d="M74.32,96.54l0.33,0.84c1.44,0.62,3.53-0.6,0.02-5.25l-1.69-2.35c-1.31-1.34-3.58-1.27-5.04,0.16l0,0
				c-1.46,1.43-1.26,5.08,0.05,6.42l1.79,1.37C71.07,99.08,72.85,97.97,74.32,96.54z"/>
		</g>
		<g>
			<path class="st6" d="M72.86,106.29c0,0,0.3-3.47,1.59-4.35c0,0,2.4-2.55,5.11-0.85c0,0,1.08,0.94-5.26,5.13
				C74.29,106.23,72.88,107.1,72.86,106.29z"/>
		</g>
		<g>
			<g>
				<path class="st14" d="M68.88,97.01l0.65-0.48c1.45,0.19,1.5-1.22,1.69-2.67l0.43-3.28c0.19-1.45-0.84-2.79-2.29-2.98l0,0
					c-1.45-0.19-3,1.23-3.19,2.68l-0.26,0.49C65.04,94.17,67.43,96.83,68.88,97.01z"/>
			</g>
		</g>
		<g>
			<path class="st13" d="M74.46,108.39l8.28-6.04c0.36-0.26,0.44-0.77,0.18-1.13l-0.2-0.27c-0.26-0.36-0.77-0.44-1.13-0.18
				l-8.28,6.04c-0.36,0.26-0.44,0.77-0.18,1.13l0.2,0.27C73.59,108.57,74.1,108.65,74.46,108.39z"/>
			<path class="st7" d="M73.77,109.06c-0.36-0.06-0.67-0.25-0.88-0.54l-0.2-0.27c-0.21-0.29-0.3-0.65-0.24-1
				c0.06-0.36,0.25-0.67,0.54-0.88l8.28-6.04c0.29-0.21,0.65-0.3,1-0.24c0.36,0.06,0.67,0.25,0.88,0.54l0.2,0.27
				c0.21,0.29,0.3,0.65,0.24,1c-0.06,0.36-0.25,0.67-0.54,0.88l-8.28,6.04h0c-0.23,0.17-0.51,0.26-0.79,0.26
				C73.91,109.08,73.84,109.08,73.77,109.06z M82.42,101.91c0.08-0.06,0.1-0.14,0.11-0.18c0.01-0.04,0.01-0.12-0.05-0.2l-0.2-0.27
				c-0.06-0.08-0.13-0.1-0.18-0.11c-0.04-0.01-0.12-0.01-0.2,0.05l-8.28,6.04c-0.08,0.06-0.1,0.14-0.11,0.18
				c-0.01,0.04-0.01,0.12,0.05,0.2l0.2,0.27c0.06,0.08,0.14,0.1,0.18,0.11c0.04,0.01,0.12,0.01,0.2-0.05L82.42,101.91z"/>
		</g>
		<g>
			<path class="st2" d="M79.25,97.21c0,0-0.42,2.65-5.57,4.21l-4.15-3.19l6.91-4.64L79.25,97.21z"/>
			<path class="st2" d="M68.61,98.2l7.94-5.34l3.26,4.2l-0.04,0.23c-0.02,0.12-0.54,3-5.94,4.64l-0.26,0.08L68.61,98.2z
				 M76.32,94.31l-5.87,3.94l3.34,2.57c3.67-1.18,4.63-2.92,4.86-3.51L76.32,94.31z"/>
		</g>
		<g>
			<path class="st14" d="M72.79,95.79l2.86,3.85c0,0-0.43,1.23-2.32,1.03l-4.8-3.61C68.52,97.06,70,93.29,72.79,95.79z"/>
		</g>
		<g>
			<g>
				<path class="st9" d="M75.75,93.04c0,0-1.33,1.53-6.7,4.98l1.05,1.04c0,0,2.13-0.64,6.62-4.81L75.75,93.04z"/>
				<path class="st2" d="M68.19,97.93l0.57-0.36c5.17-3.32,6.56-4.85,6.59-4.88l0.42-0.49l1.68,2.1l-0.37,0.34
					c-4.52,4.21-6.74,4.9-6.83,4.93l-0.31,0.09L68.19,97.93z M75.7,93.84c-0.71,0.65-2.37,2.04-5.8,4.27l0.32,0.32
					c0.68-0.31,2.58-1.34,5.76-4.24L75.7,93.84z"/>
			</g>
			<g>
				<path class="st6" d="M69.89,97.99c0,0,1.97-1.14,4.23-2.9c0,0-0.2,1.06-1.93,2.24l-1.73,1.19L69.89,97.99z"/>
			</g>
		</g>
	</g>
	<g>
		<g>
			<path class="st13" d="M95.22,98.66c0,0,2.26,1.64,4.59,2.85c0,0,2.29,0.97,1.57,2.54c0,0-4.89,6.15-5.18,6.51
				c0,0-0.93,1.23-1.53,1.37c0,0-2.35,0.07-1.27-4.8l-0.2-1.11l-8.16-3.79l-1-0.83l-0.67-1.02l5.39-6.28L95.22,98.66z"/>
			<path class="st7" d="M93.27,111.76c-0.74-0.89-0.87-2.45-0.4-4.63l-0.13-0.73l-7.96-3.71l-1.12-0.92l-0.94-1.42l5.98-6.96
				l6.85,4.83l0.01,0c0.02,0.02,2.25,1.63,4.51,2.8c0.22,0.1,1.48,0.69,1.89,1.75c0.19,0.49,0.17,1.01-0.06,1.5l-0.03,0.06
				l-0.04,0.05c0,0-4.89,6.14-5.17,6.5c-0.25,0.33-1.11,1.4-1.84,1.57l-0.1,0.01c0,0-0.01,0-0.02,0
				C94.52,112.47,93.83,112.43,93.27,111.76z M100.94,103.16c-0.22-0.57-1.03-1.03-1.33-1.16l-0.04-0.02
				c-2.32-1.2-4.53-2.8-4.66-2.89l-6.04-4.27l-4.81,5.6l0.4,0.61l0.89,0.73l8.35,3.88l0.27,1.49l-0.02,0.11
				c-0.55,2.46-0.15,3.43,0.14,3.8c0.2,0.26,0.44,0.32,0.54,0.34c0.25-0.11,0.78-0.63,1.18-1.16c0.27-0.34,4.65-5.84,5.14-6.45
				C101.01,103.56,101.01,103.36,100.94,103.16z"/>
		</g>
		<g>
			<path class="st2" d="M87.9,103.48l0.2-0.51c2.72-0.12,4.85-2.44,4.73-5.17l-0.11-2.43c-0.12-2.72-2.44-4.85-5.16-4.73l0,0
				c-2.72,0.12-4.43,2.64-4.78,6.02l-0.26,1.12C82.65,100.51,85.18,103.6,87.9,103.48z"/>
			<path class="st2" d="M83.84,102.06c-1.09-1.22-1.78-2.8-1.85-4.25l0-0.07l0.26-1.16c0.41-3.87,2.44-6.35,5.29-6.47
				c1.46-0.06,2.86,0.45,3.95,1.44c1.08,0.99,1.72,2.34,1.78,3.8l0.11,2.43c0.13,2.91-2.04,5.39-4.89,5.7l-0.2,0.52l-0.35,0.02
				c-0.06,0-0.11,0-0.17,0C86.38,104.02,84.97,103.31,83.84,102.06z M87.59,91.18c-2.29,0.1-3.92,2.22-4.27,5.54l-0.25,1.11
				c0.07,1.18,0.65,2.49,1.57,3.5c0.86,0.96,1.9,1.53,2.9,1.6l0.19-0.49l0.35-0.02c2.43-0.11,4.33-2.17,4.22-4.6l-0.11-2.43
				c-0.05-1.17-0.56-2.26-1.43-3.06c-0.82-0.75-1.87-1.16-2.98-1.16C87.72,91.18,87.65,91.18,87.59,91.18z"/>
		</g>
		<g>
			<path class="st2" d="M91.93,101.74c-0.91,1-2.13,1.61-3.45,1.76l-0.2,0.52l-0.35,0.02c-3.13,0.14-5.76-2.91-5.89-5.83l0-0.07
				l0.22-1.53c0.41-3.87,2.44-6.35,5.29-6.48c1.46-0.06,2.86,0.45,3.95,1.44c1.08,0.99,1.72,2.35,1.78,3.81l0.11,2.43
				c0.01,0.26,0,0.52-0.02,0.78C93.24,99.74,92.75,100.84,91.93,101.74z M84.64,101.34c0.86,0.95,1.89,1.52,2.89,1.6l0.19-0.49
				l0.35-0.01c2.43-0.11,4.32-2.17,4.21-4.6l-0.11-2.43c-0.05-1.17-0.56-2.26-1.43-3.05c-0.87-0.8-2-1.21-3.17-1.16
				c-2.28,0.1-3.92,2.22-4.26,5.54l-0.25,1.11C83.15,99.02,83.73,100.32,84.64,101.34z"/>
		</g>
		<g>
			<path class="st2" d="M92.74,101l0.54,0.72c1.56,0.21,3.24-1.53-1.4-5.06l-2.26-1.81c-1.62-0.94-3.79-0.26-4.81,1.51l0,0
				c-1.03,1.77,0.15,5.23,1.78,6.17l2.09,0.84C90.3,104.32,91.72,102.77,92.74,101z"/>
		</g>
		<g>
			<path class="st6" d="M93.97,110.78c0,0-0.65-3.42,0.36-4.62c0,0,1.62-3.1,4.69-2.19c0,0,1.3,0.61-3.68,6.36
				C95.33,110.34,94.2,111.56,93.97,110.78z"/>
		</g>
		<g>
			<g>
				<path class="st14" d="M87.64,102.92l0.49-0.64c1.45-0.21,1.12-1.58,0.91-3.03l-0.47-3.27c-0.21-1.45-1.56-2.46-3.01-2.25l0,0
					c-1.45,0.21-2.56,2-2.35,3.44l-0.12,0.55C83.17,101.22,86.19,103.13,87.64,102.92z"/>
			</g>
		</g>
		<g>
			<path class="st13" d="M96.07,112.37l6.35-8.05c0.28-0.35,0.22-0.86-0.13-1.14l-0.26-0.21c-0.35-0.28-0.86-0.22-1.14,0.14
				l-6.34,8.05c-0.28,0.35-0.22,0.86,0.13,1.14l0.26,0.21C95.28,112.78,95.8,112.72,96.07,112.37z"/>
			<path class="st7" d="M94.6,112.93l-0.26-0.21c-0.28-0.22-0.46-0.54-0.5-0.9c-0.04-0.36,0.06-0.71,0.28-0.99l6.34-8.05
				c0.22-0.28,0.54-0.46,0.9-0.5c0.36-0.04,0.71,0.06,0.99,0.28l0.26,0.21c0.28,0.22,0.46,0.54,0.5,0.9
				c0.04,0.36-0.06,0.71-0.28,0.99l-6.35,8.05c-0.22,0.28-0.54,0.46-0.9,0.5c-0.05,0.01-0.11,0.01-0.16,0.01
				C95.13,113.22,94.84,113.12,94.6,112.93z M101.99,103.99c0.06-0.08,0.06-0.16,0.06-0.2c0-0.04-0.02-0.12-0.1-0.18l-0.26-0.21
				c-0.08-0.06-0.16-0.06-0.2-0.06c-0.04,0.01-0.12,0.02-0.18,0.1l-6.35,8.05c-0.06,0.08-0.06,0.16-0.06,0.2
				c0.01,0.04,0.02,0.12,0.1,0.18l0.26,0.21c0.08,0.06,0.16,0.06,0.2,0.06c0.04,0,0.12-0.02,0.18-0.1L101.99,103.99z"/>
		</g>
		<g>
			<path class="st2" d="M97.67,100.31c0,0,0.31,2.66-4.22,5.56l-4.86-1.96l5.4-6.33L97.67,100.31z"/>
			<path class="st2" d="M87.7,104.13l6.21-7.28l4.27,3.17l0.03,0.23c0.01,0.12,0.29,3.03-4.47,6.07l-0.23,0.15L87.7,104.13z
				 M94.07,98.31l-4.59,5.38l3.91,1.57c3.21-2.13,3.68-4.06,3.74-4.69L94.07,98.31z"/>
		</g>
		<g>
			<path class="st14" d="M91.07,100.69l3.79,2.94c0,0-0.08,1.3-1.96,1.62l-5.6-2.18C87.3,103.06,87.71,99.04,91.07,100.69z"/>
		</g>
		<g>
			<g>
				<path class="st9" d="M93.18,97.24c0,0-0.87,1.83-5.11,6.6l1.29,0.71c0,0,1.88-1.19,5.07-6.42L93.18,97.24z"/>
				<path class="st2" d="M87.22,103.99l0.45-0.5c4.08-4.59,5.01-6.44,5.03-6.48l0.27-0.58l2.19,1.57l-0.26,0.43
					c-3.22,5.27-5.16,6.54-5.24,6.59l-0.27,0.17L87.22,103.99z M93.35,98.02c-0.51,0.82-1.74,2.6-4.43,5.67l0.4,0.22
					c0.56-0.47,2.1-1.95,4.4-5.63L93.35,98.02z"/>
			</g>
			<g>
				<path class="st6" d="M88.87,103.59c0,0,1.59-1.63,3.29-3.93c0,0,0.09,1.07-1.25,2.68l-1.35,1.61L88.87,103.59z"/>
			</g>
		</g>
	</g>
	<g>
		<g>
			<path class="st13" d="M100.48,88.01c0,0-24.46-0.47-31.25-8.02l-2.27,6.34c0,0,5.56,6.04,18.7,8.01c0,0,9.15,1.71,14.53,0.05
				L100.48,88.01z"/>
			<path class="st7" d="M85.59,94.88C72.42,92.9,66.8,86.95,66.57,86.7l-0.22-0.24l2.68-7.5l0.6,0.67
				c6.56,7.29,30.61,7.84,30.86,7.84l0.55,0.01l-0.33,7.32l-0.36,0.11c-1.83,0.56-4.05,0.75-6.2,0.75
				C89.87,95.67,85.83,94.93,85.59,94.88z M99.92,88.54c-3.66-0.12-23.46-1.04-30.47-7.56l-1.86,5.21c1.16,1.1,6.82,5.92,18.18,7.63
				c0.09,0.02,8.67,1.59,13.91,0.17L99.92,88.54z"/>
		</g>
		<g>
			<path class="st2" d="M82.3,84.53c0,0-1,4.66-2.18,8.8c0,0-5.01-0.67-9.14-3.6l2.33-8.37C73.32,81.37,80.46,83.97,82.3,84.53z"/>
			<path class="st15" d="M80.05,93.87c-0.21-0.03-5.19-0.72-9.38-3.69l-0.31-0.22l2.59-9.29l0.55,0.2c0.07,0.03,7.15,2.6,8.96,3.15
				l0.47,0.14l-0.1,0.48c-0.01,0.05-1.02,4.72-2.19,8.84l-0.13,0.45L80.05,93.87z M73.68,82.08l-2.07,7.44
				c3.19,2.15,6.86,2.98,8.13,3.21c0.89-3.19,1.66-6.6,1.94-7.83C79.73,84.26,75.25,82.64,73.68,82.08z"/>
		</g>
		<g>
			<path class="st14" d="M73,84.82l-1.37,4.51c0,0,5.29,3.24,8.3-1.92C79.93,87.41,77.03,87.03,73,84.82z"/>
		</g>
	</g>
	<g>
		<g>
			<path class="st13" d="M68.31,81.25c0,0,13.97,9.98,32.22,6.48c0,0,0.79-0.6,0.89-1.2c0,0,0.7-3.6,0.73-4.4
				c0.02-0.67-0.2-0.95-0.88-0.62c0,0-9.83,4.82-31.22-5.77c0,0,0.06-1.44-1-0.2C69.06,75.54,67.19,80.9,68.31,81.25z"/>
			<path class="st7" d="M68.06,81.73c-0.16-0.07-0.34-0.2-0.47-0.46c-0.61-1.19,0.58-4.83,0.96-5.91l0.03-0.1l0.07-0.08
				c0.21-0.24,0.75-0.88,1.37-0.64c0.38,0.15,0.51,0.54,0.56,0.85c20.64,10.14,30.37,5.68,30.46,5.63c0.18-0.09,0.74-0.36,1.21-0.05
				c0.48,0.31,0.46,0.96,0.45,1.18c-0.03,0.82-0.67,4.11-0.74,4.48c-0.13,0.77-0.94,1.41-1.1,1.54l-0.1,0.08l-0.12,0.02
				c-2.73,0.52-5.36,0.75-7.88,0.75C78.99,89.01,68.92,82.32,68.06,81.73z M100.9,86.43c0.19-0.99,0.7-3.69,0.72-4.32
				c0-0.07,0-0.12,0-0.17c-0.03,0.01-0.07,0.03-0.11,0.05c-0.41,0.2-10.32,4.82-31.69-5.77l-0.31-0.16l0.01-0.2
				c-0.75,2.19-1.19,4.41-0.98,4.89l0.09,0.06c0.14,0.1,13.94,9.76,31.68,6.42C100.55,87.02,100.86,86.67,100.9,86.43z"/>
		</g>
		<g>
			<path class="st6" d="M69.07,76.33c0.73-0.91,0.65,0.13,0.65,0.13c12.99,7.34,16.38,5.59,16.38,5.59
				c0.13-0.07,3.27,0.59,3.35,0.59c-1.54,2.47-6.88,2.16-6.88,2.16c-8.21-0.15-14.19-4.07-14.19-4.07
				C67.64,80.5,69.07,76.33,69.07,76.33z"/>
		</g>
		<g>
			<path class="st0" d="M98.76,82.87c0,0-12.02,1.7-28.45-6.26c0,0-1.19-1.33-1.5,0.31c0,0-1.01,2.78-0.44,3.81
				c0,0-0.55-0.78,1.47-3.05c0,0,16.76,8.29,27.95,5.65C97.78,83.33,101.02,82.63,98.76,82.87z"/>
		</g>
	</g>
	<g>
		<g>
			<g>
				<path class="st2" d="M76.98,58.46l0.51-0.06c3.49,15.63,24.34,20.53,24.34,20.53l0.12,0.35l-1.13,4.49l-0.28,0.12
					C75.74,77.8,73.7,62.16,73.7,62.16l0.19-0.61L76.98,58.46z"/>
			</g>
			<g>
				<path class="st15" d="M73.43,61.29l-0.26,0.81l0.01,0.1c0.02,0.17,0.57,4.09,4.22,8.82c3.35,4.33,10.05,10.16,23.02,13.34
					l0.19,0.05l0.66-0.3l1.22-4.83l-0.26-0.75l-0.29-0.07c-0.05-0.01-5.22-1.25-10.74-4.36C86.15,71.25,79.76,66.2,78,58.32
					l-0.1-0.45l-1.18,0.13L73.43,61.29z M74.24,62.21l0.13-0.4l2.74-2.76c1.6,6.29,6.29,11.78,13.6,15.89
					c4.92,2.77,9.45,4.06,10.68,4.38l-1.01,4.02c-12.47-3.12-18.92-8.72-22.13-12.88C75.06,66.34,74.34,62.82,74.24,62.21z"/>
			</g>
		</g>
		<g>
			<g>
				<path class="st14" d="M93.41,76.82c0,0-2.04,2.51-7.06,0.5c0,0-9.19-4.99-11.9-15.4l2.46-2.72
					C76.91,59.2,78.51,69.99,93.41,76.82z"/>
			</g>
		</g>
		<g>
			<g>
				<g>
					<g>
						<path class="st9" d="M98.77,80.09c0.28,0.22,0.31,0.61,0.07,0.87c-0.24,0.26-0.65,0.28-0.93,0.06
							c-0.28-0.22-0.31-0.61-0.07-0.87C98.08,79.89,98.49,79.86,98.77,80.09z"/>
					</g>
					<g>
						<path class="st2" d="M97.54,79.9c-0.18,0.2-0.27,0.45-0.24,0.71c0.02,0.26,0.15,0.5,0.37,0.68c0.13,0.11,0.29,0.18,0.45,0.22
							c0.37,0.08,0.77-0.02,1.03-0.31c0.18-0.2,0.27-0.45,0.24-0.72c-0.03-0.26-0.16-0.5-0.37-0.67
							C98.58,79.46,97.91,79.5,97.54,79.9L97.54,79.9z M98.14,80.39c0.07-0.07,0.17-0.1,0.27-0.08c0.04,0.01,0.08,0.03,0.11,0.05
							c0.05,0.04,0.08,0.1,0.09,0.16c0.01,0.07-0.02,0.14-0.07,0.19c-0.1,0.11-0.27,0.12-0.38,0.03c-0.05-0.04-0.08-0.1-0.09-0.16
							C98.07,80.51,98.09,80.44,98.14,80.39z"/>
					</g>
				</g>
				<g>
					<g>
						<path class="st11" d="M98.61,80.05c0.22,0.14,0.26,0.45,0.08,0.69c-0.18,0.24-0.5,0.31-0.72,0.17
							c-0.22-0.14-0.26-0.45-0.08-0.69C98.07,79.99,98.39,79.91,98.61,80.05z"/>
					</g>
				</g>
				<g>
					<g>
						<path class="st10" d="M98.39,80.07c0.15,0.09,0.17,0.31,0.04,0.5c-0.13,0.18-0.36,0.26-0.51,0.17
							c-0.15-0.09-0.17-0.31-0.04-0.5C98.01,80.05,98.24,79.97,98.39,80.07z"/>
					</g>
				</g>
			</g>
			<g>
				<g>
					<g>
						<path class="st9" d="M95.43,78.96c0.28,0.22,0.31,0.61,0.07,0.87c-0.24,0.26-0.65,0.28-0.93,0.06
							c-0.28-0.22-0.31-0.61-0.07-0.87C94.74,78.77,95.15,78.74,95.43,78.96z"/>
					</g>
					<g>
						<path class="st2" d="M94.2,78.78c-0.18,0.2-0.27,0.45-0.24,0.71c0.02,0.26,0.15,0.5,0.37,0.68c0.13,0.11,0.29,0.18,0.45,0.22
							c0.37,0.08,0.77-0.02,1.03-0.31c0.18-0.2,0.27-0.45,0.24-0.72c-0.03-0.26-0.16-0.5-0.37-0.67
							C95.24,78.33,94.57,78.37,94.2,78.78L94.2,78.78z M94.8,79.27c0.07-0.07,0.17-0.1,0.27-0.08c0.04,0.01,0.08,0.03,0.11,0.05
							c0.05,0.04,0.08,0.1,0.09,0.16c0.01,0.07-0.02,0.14-0.06,0.19c-0.1,0.11-0.27,0.12-0.38,0.03c-0.05-0.04-0.08-0.1-0.09-0.16
							C94.73,79.39,94.75,79.32,94.8,79.27z"/>
					</g>
				</g>
				<g>
					<g>
						<path class="st11" d="M95.27,78.93c0.22,0.14,0.26,0.45,0.08,0.69c-0.18,0.24-0.5,0.31-0.72,0.17
							c-0.22-0.14-0.26-0.45-0.08-0.69C94.73,78.87,95.05,78.79,95.27,78.93z"/>
					</g>
				</g>
				<g>
					<g>
						<path class="st10" d="M95.05,78.94c0.15,0.09,0.17,0.31,0.04,0.5c-0.13,0.18-0.36,0.26-0.51,0.17
							c-0.15-0.09-0.17-0.31-0.04-0.5C94.67,78.92,94.9,78.85,95.05,78.94z"/>
					</g>
				</g>
			</g>
			<g>
				<g>
					<g>
						<path class="st9" d="M82.37,70.68c0.37,0.3,0.42,0.82,0.1,1.16c-0.32,0.34-0.87,0.38-1.25,0.08c-0.37-0.3-0.42-0.82-0.1-1.16
							C81.44,70.42,82,70.38,82.37,70.68z"/>
					</g>
					<g>
						<path class="st2" d="M80.82,70.52c-0.22,0.24-0.33,0.55-0.3,0.87c0.03,0.31,0.19,0.6,0.45,0.81c0.16,0.13,0.35,0.22,0.54,0.26
							c0.45,0.1,0.94-0.03,1.25-0.37c0.22-0.24,0.33-0.55,0.3-0.87c-0.03-0.31-0.19-0.6-0.45-0.81
							C82.08,69.97,81.27,70.02,80.82,70.52z M81.42,71c0.12-0.14,0.32-0.19,0.49-0.15c0.07,0.02,0.14,0.05,0.2,0.1
							c0.1,0.08,0.15,0.18,0.17,0.3c0.01,0.13-0.03,0.25-0.12,0.34c-0.18,0.19-0.49,0.22-0.69,0.05c-0.1-0.08-0.16-0.18-0.17-0.3
							C81.3,71.22,81.34,71.1,81.42,71z"/>
					</g>
				</g>
			</g>
			<g>
				<g>
					<g>
						<path class="st9" d="M79.24,67.49c0.28,0.22,0.31,0.61,0.07,0.87c-0.24,0.26-0.65,0.28-0.93,0.06
							c-0.28-0.22-0.31-0.61-0.07-0.87C78.54,67.29,78.96,67.27,79.24,67.49z"/>
					</g>
					<g>
						<path class="st2" d="M78.01,67.31c-0.18,0.2-0.27,0.46-0.24,0.72c0.03,0.26,0.16,0.5,0.37,0.67c0.13,0.11,0.29,0.18,0.45,0.22
							c0.37,0.08,0.77-0.02,1.03-0.31c0.18-0.2,0.27-0.46,0.24-0.72c-0.03-0.26-0.16-0.5-0.37-0.67
							C79.05,66.86,78.38,66.9,78.01,67.31L78.01,67.31z M78.61,67.8c0.07-0.07,0.17-0.1,0.27-0.08c0.04,0.01,0.08,0.03,0.11,0.05
							c0.05,0.04,0.08,0.1,0.09,0.16c0.01,0.07-0.02,0.14-0.06,0.19c-0.1,0.11-0.27,0.12-0.38,0.03c-0.05-0.04-0.08-0.1-0.09-0.16
							C78.54,67.92,78.56,67.85,78.61,67.8z"/>
					</g>
				</g>
			</g>
			<g>
				<g>
					<g>
						<path class="st9" d="M77.47,64.21c0.28,0.22,0.31,0.61,0.07,0.87c-0.24,0.26-0.65,0.28-0.93,0.06
							c-0.28-0.22-0.31-0.61-0.07-0.87C76.77,64.01,77.19,63.98,77.47,64.21z"/>
					</g>
					<g>
						<path class="st2" d="M76.24,64.03c-0.18,0.2-0.27,0.46-0.24,0.72c0.03,0.26,0.16,0.5,0.37,0.67c0.13,0.11,0.29,0.18,0.45,0.22
							c0.37,0.08,0.77-0.02,1.03-0.31c0.18-0.2,0.27-0.45,0.25-0.71c-0.02-0.26-0.15-0.5-0.37-0.68
							C77.27,63.58,76.61,63.62,76.24,64.03L76.24,64.03z M76.84,64.51c0.07-0.08,0.17-0.1,0.27-0.08c0.04,0.01,0.08,0.03,0.11,0.05
							c0.05,0.04,0.08,0.1,0.09,0.16c0.01,0.07-0.02,0.13-0.07,0.19c-0.1,0.11-0.27,0.12-0.38,0.03c-0.05-0.04-0.08-0.1-0.09-0.16
							C76.77,64.63,76.79,64.57,76.84,64.51z"/>
					</g>
				</g>
			</g>
		</g>
	</g>
	<g>
		<g>
			<g>
				<path class="st11" d="M71.85,54.17c0,0,3.64,2.38,5.68,0.41c0,0,2.65-2.65,7.61-9.44c0,0,0.45-0.98,1.46-0.5
					c0,0,0.83,0.28-0.3,1.62c0,0-5.32,9.53-10.05,10.61c0,0-3.42,0.79-5.82-3.05C70.43,53.82,69.82,52.23,71.85,54.17z"/>
			</g>
		</g>
		<g>
			<g>
				<path class="st10" d="M76.39,56.61c0,0,3.94-0.26,8.58-10.32c0,0,0.54-1.69,1.64-1.65c0,0,0.84,0.24-0.71,2.39
					c0,0-6.25,11.88-11.1,10.22C74.8,57.26,73.7,56.69,76.39,56.61z"/>
			</g>
		</g>
		<g>
			<g>
				<path class="st8" d="M76.38,35.27c0,0,1.46-1.61,1.33-3.77l0.51-2.12c0,0,2.89-4.19,6.82-4.87c0,0,3.89-1.23,11.62,1.62
					c5.75,2.12,12.43,7.67,9.31,17.89c0,0-1.46,5.36-2.82,4.85c0,0,0.39,1.97-2.35,5.79c0,0-1.33,7.6-8.92,8.77
					c0,0-10.72,2.11-19.05-3.63l-1.52-1.47c0,0-2.84-7.96,2.76-16.25C74.06,42.06,72.29,37.24,76.38,35.27z"/>
			</g>
			<g>
				<path class="st2" d="M73.46,41.98c-5.48,8.34-2.79,16.18-2.67,16.51l0.04,0.12l1.68,1.62c1.76,1.21,3.61,2.08,5.45,2.7
					c6.95,2.35,13.66,1.08,14.01,1.01c7.31-1.12,9.1-8.04,9.32-9.07c1.97-2.76,2.35-4.6,2.4-5.5c0.05-0.02,0.11-0.04,0.16-0.07
					c1.34-0.68,2.41-4.38,2.62-5.14c3.03-9.94-2.99-16.1-9.64-18.54c-7.5-2.77-11.48-1.77-11.93-1.64
					c-4.09,0.72-7.02,4.91-7.14,5.09l-0.06,0.08l-0.55,2.29l0,0.08c0.1,1.66-0.88,2.99-1.13,3.31
					C72.73,36.51,72.87,40.09,73.46,41.98z M74.66,42.14l-0.09-0.26c-0.06-0.18-1.54-4.39,2.05-6.12l0.09-0.05l0.07-0.08
					c0.07-0.07,1.58-1.77,1.47-4.09l0.46-1.94c0.41-0.56,3.04-3.99,6.41-4.57l0.07-0.02c0.04-0.01,3.86-1.12,11.28,1.61
					c3,1.11,12.52,5.62,8.98,17.23l0,0.02c-0.68,2.49-1.7,4.46-2.12,4.49l-0.91-0.34l0.19,0.95c0,0.01,0.27,1.85-2.26,5.37
					l-0.07,0.1l-0.02,0.12c-0.05,0.29-1.37,7.24-8.48,8.33c-0.13,0.02-10.6,1.99-18.63-3.52l-1.39-1.35
					c-0.3-0.98-2.28-8.23,2.73-15.66L74.66,42.14z"/>
			</g>
		</g>
		<g>
			<g>
				<path class="st12" d="M78.83,31.35c1.24-1.78,2.55-6.29,5.85-4.45c4.16,2.32,3.83,2.83,12.2,3.87c4.95,0.62,1.87,8.32,1.87,8.32
					c-2.34,2.29-2.21,5.14-2.21,5.14c0.96,4.82-1.18,4.79-1.18,4.79c-1.21,0.47-2.53-0.17-2.53-0.17l-0.99-0.74
					c-5.7-5.09-13.65-6.94-13.65-6.94c-0.75-0.12-3.25,0.13-3.25,0.13c-0.17-1.14-0.02-1.71-0.02-1.71
					c0.89-1.53,2.73-2.76,2.73-2.76C79.69,35.59,78.83,31.35,78.83,31.35z"/>
			</g>
		</g>
		<g>
			<g>
				<path class="st10" d="M76.14,36.19c2.83-2.19,1.98-5.11,1.98-5.11l0.72,0.2c1.31,2.77-0.88,4.84-0.88,4.84
					c-2.27,1.7-2.21,5.23-2.21,5.23l-1.17-0.3C74.08,36.82,76.14,36.19,76.14,36.19z"/>
			</g>
		</g>
		<g>
			<g>
				<path class="st12" d="M83.97,35.23c0.71,2.8,0.54,6.6,0.54,6.6l1.04,0.99c1.61,0.66,1.5,2.51,1.5,2.51
					c-0.53,1.22-1.37-0.03-1.37-0.03c-1.81-1.28-3.26-1.19-3.26-1.19c-1.87-0.13-2.59,0.21-2.59,0.21c-0.81-2.6,1.59-4.86,1.59-4.86
					C84.08,37.04,83.97,35.23,83.97,35.23z"/>
			</g>
		</g>
		<g>
			<g>
				<path class="st12" d="M76.29,47.22c7.52,0.38,11.95,4.84,11.95,4.84c2.65,1.38,1.68,2.61,1.68,2.61c-1.49,3.5-5.06,5.9-5.06,5.9
					c-2.6,1.01-4.88-0.47-4.88-0.47c-3.14-4.85-6.8-2.3-6.8-2.3c-2.16-4.52-1.22-7.29-1.22-7.29C72.61,46.1,76.29,47.22,76.29,47.22
					z"/>
			</g>
		</g>
		<g>
			<g>
				<path class="st10" d="M75.92,42.3c0.02-0.04,0.04-0.07,0.05-0.11C75.97,42.19,76.03,42.27,75.92,42.3z"/>
			</g>
			<g>
				<path class="st10" d="M75.92,42.3c-4.67,8.94-3.13,13.75-3.13,13.75c1.63,2.17,2.89,3.42,2.89,3.42
					c2.83,1.51,1.67,1.94,1.67,1.94c-3.95-1.14-5.29-3.66-5.29-3.66c-2.29-10.09,2.74-15.6,2.74-15.6
					C75.51,42.32,75.8,42.33,75.92,42.3z"/>
			</g>
		</g>
		<g>
			<g>
				<g>
					<path class="st8" d="M107.13,45.63c0,0,1.78,3.88-1.58,6.73c0,0-1.59,1.2-3.74,1.41c0,0-1.82,0.31-3.29-0.37l0.37-5.02
						c1.36-2.33,2.43-3.07,2.43-3.07S104.06,43.05,107.13,45.63z"/>
				</g>
				<g>
					<path class="st2" d="M107.47,45.22l0.09,0.08l0.05,0.11c0.02,0.04,1.91,4.29-1.73,7.37l-0.02,0.02c-0.07,0.05-1.73,1.28-4,1.52
						c-0.2,0.03-1.71,0.24-3.13-0.23c-0.15-0.05-0.3-0.11-0.45-0.18l0.45-0.98c1.29,0.59,2.96,0.33,2.97,0.32l0.04,0
						c1.88-0.19,3.33-1.2,3.46-1.3c2.73-2.32,1.72-5.36,1.47-5.98c-2.63-2.12-4.93-0.31-5.03-0.23l-0.03,0.03
						c-0.01,0.01-1.01,0.73-2.27,2.9l-0.93-0.54c1.33-2.29,2.43-3.13,2.58-3.23C101.28,44.66,104.26,42.51,107.47,45.22z"/>
				</g>
			</g>
			<g>
				<g>
					<path class="st12" d="M105.55,46.66c0,0,1.52,3.88-3.89,5.63c0,0-4.19,0.31,0.34-5.04C101.99,47.25,103.79,45.38,105.55,46.66z
						"/>
				</g>
			</g>
			<g>
				<g>
					<g>
						<path class="st2" d="M101.76,47.25c0.19-0.14,0.41-0.25,0.64-0.31c0.24-0.05,0.48-0.1,0.73-0.11l0.18-0.02
							c0.06,0,0.13,0,0.19,0c0.12,0.01,0.25,0,0.37,0.03c0.24,0.04,0.48,0.12,0.7,0.23c0.43,0.23,0.77,0.57,0.96,0.98l-0.09,0.06
							c-0.31-0.28-0.68-0.48-1.05-0.54c-0.37-0.07-0.74-0.02-1.08,0.09c-0.35,0.11-0.63,0.4-0.99,0.51
							c-0.18,0.08-0.37,0.14-0.58,0.2c-0.21,0.06-0.42,0.12-0.69,0.13l-0.07-0.08c0.07-0.25,0.18-0.46,0.31-0.66
							C101.41,47.57,101.58,47.41,101.76,47.25z"/>
					</g>
				</g>
				<g>
					<g>
						<path class="st2" d="M103.68,47.61c0.12,0.26,0.22,0.53,0.26,0.81c0.04,0.28,0.03,0.58-0.06,0.84
							c-0.08,0.27-0.26,0.48-0.44,0.65c0.11-0.23,0.19-0.47,0.17-0.7c-0.01-0.23-0.08-0.44-0.19-0.64
							c-0.11-0.19-0.25-0.36-0.41-0.52c-0.16-0.15-0.35-0.31-0.51-0.4l0.71-0.8C103.42,47.12,103.55,47.35,103.68,47.61z"/>
					</g>
				</g>
			</g>
		</g>
		<g>
			<g>
				<path class="st14" d="M88.99,20.49c4.05-0.6,9.45,1.19,9.45,1.19c8.17,3.32,8.19,8.49,8.19,8.49c4.33-2.75,4.69,1.26,4.69,1.26
					c3.65,0.96,3.35,4.48,3.35,4.48c0.37,3.2-2.25,3.54-2.25,3.54c-1.36,3.51-5.88,1.99-5.88,1.99c0.43-7.5-2.71-9.71-2.71-9.71
					c-4.25-5.13-12.28-3.9-12.28-3.9c-5.16,0.2-5.32-3.41-5.32-3.41C86.12,21.61,88.99,20.49,88.99,20.49z"/>
			</g>
			<g>
				<path class="st2" d="M85.69,24.45c0,0.05,0.25,4.15,5.88,3.93l0.06-0.01c0.08-0.01,7.79-1.12,11.78,3.71l0.05,0.06l0.06,0.04
					c0.03,0.02,2.89,2.2,2.48,9.24l-0.02,0.41l0.39,0.13c1.68,0.57,5.12,0.84,6.44-2.03c1.11-0.28,2.69-1.38,2.41-4.02
					c0.09-1.33-0.5-3.91-3.34-4.87c-0.02-0.01-0.05-0.02-0.07-0.02c-0.12-0.56-0.48-1.61-1.46-2.1c-0.87-0.43-1.97-0.29-3.27,0.39
					c-0.37-1.69-1.91-5.49-8.41-8.13l-0.02-0.01l-0.02-0.01c-0.23-0.08-5.57-1.83-9.7-1.22l-0.06,0.01l-0.06,0.02
					C88.66,20.04,85.57,21.28,85.69,24.45z M89.13,21.01c3.77-0.53,8.81,1.07,9.12,1.18c7.73,3.14,7.83,7.94,7.83,7.99l0,0.98
					l0.82-0.52c1.27-0.81,2.28-1.06,2.93-0.75c0.81,0.39,0.93,1.59,0.93,1.61l0.04,0.37l0.36,0.1c0.12,0.03,0.23,0.06,0.34,0.1
					c2.8,0.94,2.62,3.69,2.61,3.82l0,0.11c0.31,2.65-1.7,2.93-1.79,2.95l-0.32,0.04l-0.12,0.3c-0.96,2.47-3.78,2.04-4.82,1.78
					c0.28-6.88-2.42-9.33-2.89-9.7c-4.31-5.13-12.06-4.13-12.7-4.04c-4.5,0.17-4.72-2.78-4.73-2.9
					C86.68,22.18,88.76,21.17,89.13,21.01z"/>
			</g>
		</g>
		<g>
			<g>
				<path class="st16" d="M89.32,21.17c8.76-0.45,13.89,4.39,13.89,4.39c-1.85-0.71-3.19-0.21-3.19-0.21
					c-2.66,1.12-5.5-0.44-5.5-0.44c0.47,2.31-1.65,0.82-1.65,0.82c-0.02,1.94-2.13,1.34-2.13,1.34c-1.87,1.42-3.98-2.5-3.98-2.5
					C86.16,22.48,89.32,21.17,89.32,21.17z"/>
			</g>
		</g>
		<g>
			<g>
				<path class="st16" d="M108.64,29.84c2.06-0.47,2.01,2.06,2.01,2.06c2.14,0.56,2.79,1.99,2.79,1.99c1.78,2.61-0.6,3.36-0.6,3.36
					c-1.85,1.72-2.61-1.17-2.61-1.17c-0.72,1.84-2.18-0.83-2.18-0.83c0.48-1.73-1.72-4.17-1.72-4.17
					C107.56,29.61,108.64,29.84,108.64,29.84z"/>
			</g>
		</g>
		<g>
			<g>
				<path class="st17" d="M89.32,21.17c9.32-0.17,13.08,3.74,13.08,3.74c-5.3-2.94-9.36-2.25-9.36-2.25
					c3.76,2.45,1.63,2.83,1.63,2.83c-0.84-2.63-4.57-2.81-4.57-2.81c-3.23-0.12-2.83,2.89-2.83,2.89
					C85.79,21.77,89.32,21.17,89.32,21.17z"/>
			</g>
		</g>
		<g>
			<g>
				<path class="st17" d="M110.53,31.54c3.14,1.1,3.08,2.69,3.08,2.69c-1.22-2.04-3.99-1.68-3.99-1.68
					c-0.46-3.13-3.04-0.08-3.04-0.08c0.08-0.59-0.26-1.39-0.26-1.39C110.13,27.73,110.53,31.54,110.53,31.54z"/>
			</g>
		</g>
		<g>
			<g>
				<path class="st2" d="M85.57,54.55c-0.36-0.43-0.76-0.8-1.17-1.17c-0.42-0.36-0.85-0.7-1.31-1.01c-0.46-0.31-0.93-0.6-1.44-0.85
					c-0.51-0.25-1.03-0.48-1.64-0.62l-0.04-0.01l-0.04,0c-0.2-0.02-0.45-0.07-0.68-0.11c-0.23-0.05-0.46-0.11-0.69-0.18
					c-0.45-0.14-0.88-0.32-1.28-0.56l-0.1-0.06l-0.01,0c-0.29-0.09-0.52-0.12-0.78-0.15c-0.25-0.02-0.5-0.02-0.75,0
					c-0.5,0.04-0.98,0.18-1.4,0.42c0.24,0.02,0.47,0.03,0.7,0.06c0.23,0.03,0.44,0.07,0.66,0.13c0.21,0.05,0.42,0.12,0.62,0.19
					c0.19,0.07,0.41,0.16,0.55,0.25l-0.11-0.07c0.22,0.19,0.45,0.38,0.7,0.53c0.25,0.15,0.51,0.29,0.77,0.39
					c0.26,0.11,0.54,0.2,0.81,0.27c0.28,0.08,0.54,0.13,0.86,0.16l-0.09-0.01c0.45,0.11,0.93,0.29,1.41,0.48
					c0.48,0.19,0.96,0.41,1.45,0.62l1.47,0.65C84.55,54.14,85.05,54.36,85.57,54.55z"/>
			</g>
			<g>
				<path class="st2" d="M80.95,54.88c-0.25-0.36-0.58-0.64-0.93-0.88c-0.35-0.23-0.73-0.42-1.13-0.56
					c-0.4-0.14-0.81-0.23-1.24-0.27c-0.42-0.04-0.85-0.01-1.27,0.11c0.39,0.21,0.77,0.34,1.14,0.49c0.37,0.14,0.74,0.28,1.11,0.4
					c0.37,0.13,0.74,0.25,1.13,0.37C80.13,54.68,80.52,54.79,80.95,54.88z"/>
			</g>
		</g>
		<g>
			<g>
				<path class="st10" d="M81.26,37.29c0.39-1.13-1.02-4.04-3.86-2.51c0,0-2.1,1.28-0.69,3.11c0,0,1.5,0.74,2.39,0.88
					C79.09,38.77,80.58,39.23,81.26,37.29z"/>
			</g>
			<g>
				<path class="st2" d="M81.64,38.96c0.23-0.42,0.37-0.88,0.47-1.36c0.09-0.48,0.13-0.98,0.04-1.5c-0.05-0.26-0.12-0.52-0.25-0.78
					c-0.14-0.28-0.29-0.46-0.46-0.67c-0.35-0.39-0.77-0.73-1.29-0.94c-0.51-0.21-1.1-0.28-1.65-0.18c-0.13,0.03-0.27,0.06-0.4,0.1
					c-0.13,0.05-0.25,0.1-0.37,0.15c-0.31,0.14-0.49,0.32-0.68,0.51c-0.73,0.77-1.03,1.76-1.07,2.7c0.47-0.82,0.98-1.58,1.64-2.05
					c0.08-0.06,0.16-0.11,0.25-0.16c0.08-0.05,0.16-0.09,0.22-0.1c0.1-0.02,0.19-0.05,0.29-0.08c0.09-0.02,0.19-0.03,0.28-0.04
					c0.37-0.04,0.73,0.02,1.07,0.16c0.34,0.14,0.66,0.37,0.96,0.65c0.14,0.14,0.29,0.3,0.38,0.43c0.05,0.07,0.1,0.15,0.14,0.24
					c0.05,0.08,0.08,0.18,0.12,0.27c0.14,0.38,0.21,0.81,0.26,1.26C81.63,38.02,81.64,38.48,81.64,38.96z"/>
			</g>
			<g>
				<g>
					<path class="st10" d="M92.07,43.51c0,0,0.96,0.22,1.24,0.28c0.35,0.07,0.87,0.05,1.15-0.4c0,0,0.62-3.3-1.28-4.49
						c-1.08-0.67-3.21-1.37-4.54,1.67l-0.07,0.2C88.58,40.77,87.85,42.49,92.07,43.51z"/>
				</g>
				<g>
					<path class="st2" d="M94.47,43.4c0.23-0.44,0.37-0.91,0.46-1.41c0.08-0.49,0.09-1.02-0.03-1.55c-0.06-0.27-0.17-0.53-0.31-0.79
						c-0.16-0.26-0.32-0.45-0.51-0.65c-0.37-0.38-0.81-0.71-1.33-0.93c-0.52-0.21-1.1-0.3-1.66-0.23l-0.41,0.08
						c-0.13,0.03-0.26,0.09-0.39,0.13c-0.07,0.03-0.12,0.04-0.21,0.09c-0.07,0.04-0.14,0.08-0.2,0.12
						c-0.12,0.08-0.23,0.17-0.33,0.26c-0.8,0.75-1.15,1.78-1.18,2.75c0.24-0.43,0.48-0.83,0.77-1.19c0.28-0.36,0.6-0.66,0.95-0.88
						c0.09-0.06,0.17-0.1,0.26-0.14c0.04-0.02,0.09-0.04,0.12-0.05c0.01-0.01,0.08-0.02,0.13-0.03c0.1-0.02,0.2-0.05,0.3-0.07
						l0.3-0.03c0.39-0.02,0.77,0.05,1.14,0.2c0.37,0.14,0.71,0.38,1.03,0.66c0.15,0.13,0.32,0.3,0.43,0.43
						c0.11,0.15,0.22,0.32,0.29,0.51c0.16,0.38,0.26,0.82,0.31,1.28C94.45,42.44,94.46,42.91,94.47,43.4z"/>
				</g>
				<g>
					<g>
						<path class="st2" d="M89.61,40.25c-0.51,0.78-0.33,1.81,0.41,2.3c0.73,0.49,1.74,0.25,2.25-0.54c0.51-0.78,0.33-1.81-0.4-2.3
							C91.13,39.23,90.12,39.47,89.61,40.25z"/>
					</g>
					<g>
						<path class="st10" d="M92.25,42.25c0.19-0.29,0.13-0.67-0.14-0.85c-0.27-0.18-0.64-0.09-0.83,0.21
							c-0.19,0.29-0.13,0.67,0.14,0.85C91.68,42.63,92.06,42.54,92.25,42.25z"/>
					</g>
				</g>
			</g>
			<g>
				<g>
					<path class="st2" d="M76.96,35.73c-0.46,0.71-0.3,1.64,0.37,2.08c0.67,0.44,1.58,0.22,2.04-0.49c0.46-0.71,0.3-1.64-0.37-2.08
						C78.34,34.8,77.42,35.02,76.96,35.73z"/>
				</g>
				<g>
					<path class="st10" d="M79.35,37.54c0.17-0.27,0.12-0.61-0.13-0.77c-0.24-0.16-0.58-0.08-0.76,0.19
						c-0.17,0.27-0.12,0.61,0.13,0.77C78.84,37.89,79.18,37.8,79.35,37.54z"/>
				</g>
			</g>
			<g>
				<g>
					<g>
						<path class="st14" d="M98.64,39.69c0,0-0.73-3.61-3.49-5.65c-1.41-1.04-2.13-0.99-6.37,0.98c-0.39,0.18-0.94,0.15-1.87-0.56
							c-0.4-0.31-1.63-0.06-0.13,2.05c0,0,1.78,1.54,2.95,0.77c0,0,4.3-1.69,5.95,1.64C95.69,38.92,97.61,41.96,98.64,39.69z"/>
						<path class="st2" d="M95.24,39.21l-0.03-0.05c-1.34-2.72-4.78-1.56-5.23-1.4c-1.49,0.9-3.46-0.78-3.54-0.85l-0.05-0.04
							l-0.04-0.05c-1.12-1.58-0.89-2.35-0.51-2.73c0.41-0.39,1.05-0.34,1.41-0.06c0.6,0.46,1.04,0.63,1.31,0.5
							c4.06-1.89,5.19-2.2,6.91-0.92c2.89,2.14,3.66,5.82,3.7,5.98l0.03,0.17l-0.07,0.16c-0.41,0.9-0.98,1.13-1.38,1.15
							c-0.03,0-0.06,0-0.09,0C96.47,41.07,95.44,39.53,95.24,39.21z M94.83,34.47c-1.12-0.83-1.55-0.95-5.82,1.03
							c-0.9,0.42-1.81-0.16-2.41-0.62c0,0,0,0,0,0c0,0.12,0.06,0.49,0.58,1.25c0.43,0.35,1.6,1.12,2.26,0.69l0.1-0.05
							c1.64-0.65,5.13-1.08,6.62,1.88c0.38,0.59,1.11,1.37,1.52,1.34c0.16-0.01,0.3-0.2,0.39-0.37
							C97.89,38.91,97.05,36.12,94.83,34.47z"/>
					</g>
					<g>
						<path class="st16" d="M96.49,37.57c0,0-0.67-2.42-2.64-3.67c-1.01-0.64-1.81-0.2-4.59,1.35c-0.26,0.14-1.56,0.07-2.22-0.37
							c-0.29-0.19-0.43,0.91,1.1,1.69c0,0,0.93,0.87,2.19-0.19c0,0,3.02-1.05,4.94,1.03C95.27,37.41,96.5,39.36,96.49,37.57z"/>
					</g>
					<g>
						<path class="st17" d="M88.25,35.38c0,0-1.02-0.96-1.56-0.29c0,0-0.02,1.47,2.13,1.9c0,0,1.35-0.05,0.76-0.61
							c0,0-0.66-0.03-1.39-0.42C88.18,35.97,87.62,35.65,88.25,35.38z"/>
					</g>
				</g>
				<g>
					<g>
						<path class="st14" d="M81.13,31.86c0,0,0.41,0.79,1.07,0.96c0.29,0.07,0.72-0.33,1.19,0.15c0,0,0.16,2.15-2.25,1.48
							c0,0-1.23-0.51-1.49-1.19c0,0-0.43-1.15-2.12-1.49c0,0-2.47-0.02-1.43-1.59c0,0,1.68-2.89,3.86-0.42
							C79.96,29.78,80.6,31.01,81.13,31.86z"/>
						<path class="st2" d="M80.99,34.98l-0.06-0.02c-0.24-0.1-1.46-0.64-1.78-1.49c-0.01-0.04-0.36-0.87-1.68-1.15
							c-0.36-0.01-1.61-0.1-2.03-0.9c-0.16-0.3-0.26-0.81,0.2-1.51c0.1-0.17,0.96-1.53,2.31-1.66c0.84-0.09,1.65,0.31,2.41,1.17
							l0.04,0.05l0.03,0.06c0.01,0.01,0.64,1.22,1.16,2.05l0.02,0.04c0.06,0.12,0.35,0.56,0.69,0.68c0.03-0.01,0.06-0.02,0.1-0.02
							c0.28-0.07,0.85-0.21,1.38,0.34l0.13,0.14l0.01,0.19c0.01,0.12,0.06,1.16-0.69,1.78c-0.33,0.27-0.75,0.41-1.25,0.41
							C81.68,35.13,81.35,35.08,80.99,34.98z M82.66,33.31c-0.16,0.04-0.36,0.09-0.59,0.03c-0.83-0.21-1.31-1.04-1.4-1.22
							c-0.47-0.76-1.02-1.78-1.15-2.04c-0.5-0.55-0.99-0.81-1.46-0.76c-0.71,0.07-1.32,0.85-1.49,1.15l-0.02,0.03
							c-0.17,0.25-0.18,0.39-0.16,0.42c0.09,0.16,0.64,0.32,1.15,0.33l0.1,0.01c1.97,0.39,2.5,1.77,2.52,1.83
							c0.12,0.3,0.75,0.69,1.16,0.87c0.4,0.11,0.93,0.18,1.23-0.06c0.19-0.16,0.26-0.42,0.29-0.62
							C82.79,33.28,82.74,33.29,82.66,33.31z"/>
					</g>
					<g>
						<path class="st16" d="M79.97,30.85c0,0,0.52,0.93,1.01,1.9c0,0,0.63,0.63-0.8,0.38c0,0-1.21-0.75-1.37-1.22
							c0,0-0.31-0.45-1.31-0.53c0,0-1.14-0.02-0.54-1.25c0,0,1.16-1.38,2.2-0.37C79.16,29.76,79.6,29.91,79.97,30.85z"/>
					</g>
					<g>
						<path class="st17" d="M78.04,29.25c0,0-1.03-0.38-1.66,1.52c0,0,0.28,0.9,1.13,0.43c0,0,0.01-2.15,2-1.12
							C79.51,30.08,78.37,28.96,78.04,29.25z"/>
					</g>
				</g>
			</g>
		</g>
		<g>
			<g>
				<g>
					<path class="st17" d="M83.76,35.59c0.7,2.37-1.43,4.45-1.43,4.45c-3.34,2.97-1.7,4.35-1.7,4.35c-1.42,0.32-2.54,0.15-2.54,0.15
						c0.16-3.83,3.48-5.53,3.48-5.53C84.15,36.84,83.76,35.59,83.76,35.59z"/>
				</g>
			</g>
			<g>
				<g>
					<path class="st2" d="M85.25,47.47c0.03,0.01,0.07,0.02,0.11,0.03c0.03,0.02,0.06,0.05,0.08,0.07L85.25,47.47z"/>
				</g>
				<g>
					<path class="st2" d="M78.19,40.75l-0.03,0.04c0.51-0.7,1.1-1.28,1.72-1.83c0.62-0.54,1.27-1.02,1.96-1.47l0.14-0.09l0.12-0.07
						c0.08-0.05,0.15-0.1,0.22-0.15c0.14-0.11,0.27-0.22,0.4-0.35c0.24-0.26,0.43-0.58,0.57-0.93c0.27-0.7,0.35-1.51,0.26-2.3
						c0.26,0.76,0.35,1.6,0.17,2.43c-0.09,0.41-0.26,0.82-0.51,1.19c-0.13,0.18-0.27,0.35-0.43,0.51c-0.08,0.07-0.17,0.15-0.25,0.22
						l-0.13,0.1l-0.11,0.08c-0.6,0.49-1.18,1.03-1.72,1.57c-0.54,0.55-1.03,1.14-1.43,1.76l-0.03,0.04
						c-0.23,0.32-0.46,0.72-0.65,1.1c-0.19,0.38-0.33,0.78-0.42,1.17c-0.09,0.39-0.11,0.77-0.03,1.09c0.04,0.16,0.09,0.32,0.17,0.46
						c0.08,0.13,0.17,0.25,0.28,0.36c-0.01-0.01-0.03-0.02-0.04-0.03l0.06,0.05c-0.01-0.01-0.02-0.02-0.03-0.03
						c0.07,0.05,0.18,0.12,0.28,0.17c0.12,0.07,0.24,0.13,0.37,0.19c0.25,0.11,0.51,0.21,0.78,0.28c0.53,0.15,1.09,0.21,1.63,0.17
						c0.14-0.01,0.27-0.02,0.41-0.04c0.07-0.01,0.13-0.02,0.19-0.03l0.05-0.01l0.1-0.02c0.06-0.01,0.11-0.02,0.17-0.02
						c0.42-0.03,0.8,0.02,1.16,0.13c0.68,0.2,1.26,0.57,1.75,1c-0.04-0.01-0.08-0.02-0.11-0.03l0.2,0.11
						c-0.03-0.03-0.06-0.05-0.08-0.07c0.08,0.02,0.18,0.05,0.27,0.06c0.14,0.02,0.27,0.04,0.4,0.04c0.26,0,0.51-0.04,0.69-0.14
						c0.18-0.1,0.33-0.26,0.42-0.49c0.09-0.23,0.14-0.51,0.14-0.8c0,0.01,0,0.02,0.01,0.03l-0.01-0.05c0,0.01,0,0.01,0,0.02
						c-0.05-0.31-0.16-0.68-0.29-1c-0.14-0.34-0.32-0.66-0.55-0.96c-0.23-0.29-0.5-0.56-0.81-0.78c-0.31-0.22-0.67-0.39-1.04-0.51
						c0.39,0.04,0.79,0.13,1.16,0.3c0.37,0.17,0.72,0.4,1.02,0.69c0.3,0.29,0.56,0.62,0.77,0.98c0.22,0.37,0.38,0.73,0.5,1.18l0,0
						l0,0.04c0.03,0.35,0.03,0.73-0.08,1.12c-0.1,0.39-0.36,0.79-0.73,1.04c-0.37,0.25-0.79,0.34-1.17,0.37
						c-0.19,0.01-0.38,0.01-0.57-0.01c-0.19-0.02-0.36-0.04-0.58-0.1l-0.08-0.02l-0.11-0.09c-0.45-0.34-0.94-0.62-1.43-0.73
						c-0.24-0.06-0.5-0.08-0.7-0.05c-0.03,0-0.05,0.01-0.07,0.01l-0.02,0l-0.07,0.02c-0.09,0.02-0.18,0.04-0.27,0.06
						c-0.17,0.03-0.35,0.06-0.52,0.08c-0.7,0.07-1.42,0.01-2.1-0.17c-0.34-0.09-0.67-0.21-0.99-0.35c-0.16-0.07-0.32-0.15-0.47-0.23
						c-0.16-0.09-0.29-0.17-0.48-0.3l-0.03-0.03l-0.03-0.03c-0.21-0.21-0.4-0.45-0.55-0.71c-0.14-0.27-0.25-0.56-0.31-0.85
						c-0.11-0.59-0.06-1.16,0.07-1.68c0.13-0.52,0.34-0.99,0.58-1.44C77.59,41.56,77.86,41.17,78.19,40.75z"/>
				</g>
				<g>
					<path class="st2" d="M78.44,45.65c0.01,0.01,0.02,0.02,0.04,0.03c0.01,0.01,0.02,0.02,0.03,0.03L78.44,45.65z"/>
				</g>
				<g>
					<path class="st2" d="M87.3,46.2c0-0.01,0-0.02-0.01-0.03c0-0.01,0-0.01,0-0.02L87.3,46.2z"/>
				</g>
			</g>
		</g>
	</g>
</g>
</svg>
