<?xml version="1.0" encoding="utf-8"?>
<!-- Generator: Adobe Illustrator 28.5.0, SVG Export Plug-In . SVG Version: 9.03 Build 54727)  -->
<svg version="1.0" id="Layer_1" xmlns="http://www.w3.org/2000/svg" xmlns:xlink="http://www.w3.org/1999/xlink" x="0px" y="0px"
	 viewBox="0 0 150 150" style="enable-background:new 0 0 150 150;" xml:space="preserve">
<style type="text/css">
	.st0{fill:#FFFDF0;}
	.st1{fill:#A3A091;}
	.st2{fill:#673956;}
	.st3{fill:#D6D5D4;}
	.st4{fill:#95404B;}
	.st5{fill:#C6705C;}
	.st6{fill:#FFA41F;}
	.st7{fill:#70220D;}
	.st8{fill:#C74C44;}
	.st9{fill:#EAA498;}
	.st10{fill:#FFCAA6;}
	.st11{fill:#846F74;}
	.st12{fill:#9483AB;}
	.st13{fill:#3A1D30;}
	.st14{fill:#CCC7CA;}
	.st15{fill:#FFFFFF;}
	.st16{fill:#AFA19C;}
	.st17{fill:#F3E0D9;}
</style>
<g>
	<g>
		<path class="st0" d="M102.19,62.05c0,0-2.24,13.53-10.04,23.64l0.91,0.07c0,0,8.59-11.69,9.59-24.65L102.19,62.05z"/>
	</g>
	<g>
		<g>
			<path class="st1" d="M75.98,82.9c0,0-5.21,3.43-12.4,4.4c0,0,0.97-5.95-2.62-9.07c0,0,4.96-1.27,9.01-2.48
				c1.44-0.43,3.08-4.47,4.89-6.77c2.1-2.67,8.43-1.15,7.23,4.09C81.92,73.8,80.24,79.78,75.98,82.9z"/>
			<path class="st2" d="M62.96,87.2c0.01-0.06,0.86-5.65-2.41-8.5l-0.89-0.78l1.15-0.29c0.05-0.01,4.99-1.28,8.99-2.47
				c0.66-0.2,1.7-1.96,2.53-3.39c0.65-1.11,1.33-2.26,2.05-3.18c1.23-1.57,3.74-2,5.84-1c2.13,1.02,3.06,3.12,2.49,5.62
				c-0.02,0.07-1.65,6.74-6.35,10.19l-0.03,0.02c-0.22,0.14-5.41,3.52-12.66,4.49l-0.83,0.11L62.96,87.2z M81.48,72.94
				c0.63-2.73-1.06-3.86-1.81-4.22c-1.56-0.74-3.45-0.46-4.32,0.65c-0.67,0.85-1.32,1.96-1.95,3.04c-1.14,1.94-2.12,3.61-3.25,3.95
				c-2.91,0.87-6.32,1.77-7.99,2.21c2.23,2.64,2.25,6.36,2.12,8c6.4-1.04,11.08-4,11.35-4.17C79.95,79.21,81.47,73,81.48,72.94z"/>
		</g>
		<g>
			<path class="st3" d="M76.16,69.06c0,0,2.88-1.4,2.58,4.5c0,0-1.6,4.22-4.63,6.52c0,0-3.36,2.53-8.03,3.06
				c0,0-1.39-3.78-3.65-4.57c0,0,7.96-2.07,8.48-2.54c0,0,2.2-2.85,3.64-5.39C74.56,70.63,75.24,69.19,76.16,69.06z"/>
		</g>
		<g>
			<g>
				<path class="st4" d="M69.71,86.27c0,0,1.62-5.36-2.52-9.83l-7.54,1.34c0,0,4.14,3.95,2.91,10.3
					C62.57,88.08,67.77,86.95,69.71,86.27z"/>
				<path class="st2" d="M61.96,87.96c1.14-5.92-2.58-9.58-2.73-9.73l-0.89-0.85l9.08-1.61l0.23,0.25
					c4.34,4.68,2.73,10.2,2.66,10.43l-0.09,0.3l-0.3,0.1c-1.95,0.69-7.01,1.78-7.22,1.83l-0.92,0.2L61.96,87.96z M66.96,77.12
					l-6.12,1.08c1.12,1.45,3.02,4.63,2.48,9.08c1.46-0.33,4.35-1,5.87-1.49C69.43,84.67,70.02,80.63,66.96,77.12z"/>
			</g>
			<g>
				<path class="st5" d="M66.96,77.26c0,0,5.14,6.27-3.02,8.65c0,0,0.53-3.73-2.94-7.5L66.96,77.26z"/>
			</g>
			<g>
				<g>
					<path class="st2" d="M65.4,80.15c-0.23,0.26-0.39,0.53-0.55,0.81c-0.15,0.28-0.27,0.58-0.38,0.87c-0.11,0.3-0.19,0.6-0.25,0.92
						c-0.06,0.32-0.1,0.64-0.09,0.98c0.23-0.26,0.39-0.53,0.55-0.81c0.15-0.28,0.27-0.58,0.38-0.87c0.1-0.3,0.19-0.6,0.25-0.92
						C65.37,80.82,65.41,80.5,65.4,80.15z"/>
				</g>
				<g>
					<path class="st2" d="M66.24,83.48c-0.14-0.32-0.32-0.58-0.51-0.84c-0.19-0.26-0.41-0.49-0.63-0.72
						c-0.23-0.22-0.47-0.43-0.73-0.62c-0.26-0.19-0.53-0.37-0.85-0.5c0.13,0.32,0.32,0.59,0.51,0.84c0.19,0.26,0.41,0.49,0.63,0.72
						c0.23,0.22,0.47,0.43,0.73,0.62C65.65,83.17,65.92,83.34,66.24,83.48z"/>
				</g>
			</g>
			<g>
				<g>
					<path class="st2" d="M67.87,79.67c-0.23,0.26-0.39,0.53-0.55,0.82c-0.15,0.28-0.27,0.58-0.38,0.87
						c-0.11,0.3-0.19,0.6-0.25,0.92c-0.06,0.32-0.1,0.64-0.09,0.98c0.23-0.25,0.4-0.53,0.55-0.81c0.15-0.28,0.27-0.58,0.38-0.87
						c0.11-0.3,0.19-0.6,0.25-0.92C67.84,80.33,67.89,80.01,67.87,79.67z"/>
				</g>
				<g>
					<path class="st2" d="M68.72,82.99c-0.14-0.32-0.32-0.58-0.51-0.84c-0.19-0.26-0.41-0.49-0.63-0.72
						c-0.23-0.22-0.47-0.43-0.73-0.62c-0.26-0.19-0.53-0.37-0.85-0.5c0.14,0.32,0.32,0.59,0.51,0.84c0.19,0.26,0.41,0.49,0.63,0.72
						c0.23,0.22,0.47,0.43,0.73,0.62C68.13,82.68,68.4,82.86,68.72,82.99z"/>
				</g>
			</g>
		</g>
		<g>
			<g>
				<path class="st6" d="M65.94,86.56c0,0-1.04,6.75,1.69,10.77c0,0,1.05,0.97,2.42,0.24c0,0-3.15-1.87-2.71-10.85L65.94,86.56z"/>
				<path class="st7" d="M67.31,97.68l-0.07-0.08c-2.8-4.13-1.8-10.82-1.76-11.1l0.07-0.44l2.27,0.27l-0.02,0.43
					c-0.42,8.5,2.45,10.41,2.48,10.43l0.71,0.42l-0.73,0.39c-0.45,0.24-0.87,0.33-1.25,0.33C68.02,98.32,67.35,97.71,67.31,97.68z
					 M66.86,87.14l-0.51-0.06c-0.17,1.54-0.53,6.69,1.63,9.94c0.13,0.1,0.57,0.41,1.16,0.36C68.2,96.29,66.62,93.5,66.86,87.14z"/>
			</g>
			<g>
				<path class="st6" d="M65.75,86.44c0,0,2.33,5.71,6.06,8.05c0,0,1.18,0.44,1.8-0.57c0,0-3.05-0.5-6.81-7.79L65.75,86.44z"/>
				<path class="st7" d="M71.64,94.93l-0.08-0.04c-3.82-2.4-6.14-8.03-6.24-8.27l-0.19-0.48l1.91-0.57l0.18,0.34
					c3.56,6.91,6.45,7.54,6.47,7.54l0.69,0.11L74,94.17c-0.42,0.69-1.07,0.89-1.62,0.89C72.09,95.06,71.83,95,71.64,94.93z
					 M66.56,86.69l-0.17,0.05c0.64,1.39,2.7,5.47,5.62,7.33c0.11,0.03,0.42,0.11,0.71,0.01C71.54,93.47,69.22,91.72,66.56,86.69z"/>
			</g>
			<g>
				<path class="st6" d="M65.23,87.19c0.16,0.69,0.86,1.11,1.55,0.95c0.69-0.17,1.11-0.86,0.95-1.55c-0.17-0.69-0.86-1.11-1.55-0.95
					C65.49,85.81,65.07,86.5,65.23,87.19z"/>
				<path class="st7" d="M65.57,88.38c-0.4-0.24-0.68-0.63-0.79-1.08c-0.11-0.45-0.03-0.92,0.21-1.32c0.24-0.4,0.63-0.68,1.08-0.79
					c0.94-0.23,1.88,0.35,2.11,1.29c0.11,0.45,0.03,0.92-0.21,1.32c-0.24,0.4-0.63,0.68-1.08,0.79c-0.14,0.03-0.28,0.05-0.41,0.05
					C66.16,88.64,65.84,88.55,65.57,88.38z M66.29,86.1c-0.21,0.05-0.39,0.18-0.51,0.37c-0.11,0.19-0.15,0.41-0.1,0.62l0,0
					c0.05,0.21,0.18,0.39,0.37,0.51c0.19,0.11,0.41,0.15,0.62,0.1c0.21-0.05,0.39-0.18,0.51-0.37c0.11-0.19,0.15-0.41,0.1-0.62
					c-0.05-0.21-0.18-0.39-0.37-0.51c-0.13-0.08-0.28-0.12-0.43-0.12C66.42,86.07,66.35,86.08,66.29,86.1z"/>
			</g>
		</g>
	</g>
	<g>
		<g>
			<g>
				<path class="st1" d="M76.71,70.26c-0.29,1.53-0.65,9.05,0.74,14.82c0.71,2.94,11.96,1.38,11.96,1.38l0.92-0.17
					c15.25-1.84,23.13-8.52,23.13-8.52s-0.12,0.51,0,0c0.12-0.51-2.76-8.16-2.76-8.16s-2.73-6.96-10.86-10.07
					c0,0-11.55,8.39-19.78,3.88c0,0-2.79,2.19-2.84,3.77C77.22,67.19,77.61,65.41,76.71,70.26z"/>
				<path class="st2" d="M76.84,85.22c-1.4-5.81-1.05-13.45-0.75-15.08l0,0c0.33-1.75,0.47-2.58,0.54-2.97l-0.04,0
					c0.05-1.82,2.77-4,3.08-4.25L80,62.68l0.36,0.2c7.78,4.26,19.01-3.76,19.12-3.84l0.27-0.2l0.31,0.12
					c8.29,3.17,11.1,10.13,11.22,10.43c1.53,4.07,2.24,6.16,2.55,7.25l0.66-0.55l-0.43,1.82c0,0,0,0,0,0.01L114,78.14l-0.3-0.07
					l0.15,0.17c-0.33,0.28-8.2,6.81-23.44,8.66l-0.93,0.17c-0.89,0.12-3.38,0.43-5.92,0.43C80.47,87.5,77.28,87.04,76.84,85.22z
					 M110.12,69.83c-0.03-0.07-2.67-6.58-10.19-9.6c-1.85,1.27-11.98,7.82-19.79,3.92c-0.78,0.67-1.93,1.83-2.22,2.7
					c0,0.21-0.04,0.47-0.09,0.77c-0.09,0.5-0.24,1.35-0.5,2.75c-0.29,1.57-0.63,8.93,0.73,14.56c0.36,1.48,6.13,1.62,11.24,0.92
					l0.92-0.17l0.04-0.01c13.36-1.61,21.06-7.04,22.54-8.17C112.54,76.47,111.3,72.97,110.12,69.83z M76.77,67.2
					c0.08,0.14,0.22,0.25,0.41,0.28c0.22,0.04,0.42-0.04,0.55-0.17L76.77,67.2z"/>
			</g>
			<g>
				<path class="st3" d="M97.4,65.58c0,0-10.51,5.31-18.35,3.61c0,0-1.85,4.19-0.09,15.17c0,0,19.17-0.05,25.72-6.5
					C104.69,77.86,99.59,74.08,97.4,65.58z"/>
			</g>
		</g>
		<g>
			<path class="st8" d="M100.01,60.45c0,0,4.07,13.25-4.7,25.35c0,0,11.09-3.6,18.78-5.62C114.09,80.18,113.16,62.13,100.01,60.45z"
				/>
			<path class="st7" d="M94.81,85.44c8.47-11.69,4.65-24.67,4.61-24.8l-0.28-0.92l0.95,0.12c5.61,0.71,9.93,4.48,12.47,10.88
				c1.89,4.76,2.14,9.25,2.15,9.44l0.03,0.5l-0.49,0.13c-7.58,1.99-18.63,5.57-18.74,5.61l-1.81,0.59L94.81,85.44z M100.84,61.22
				c0.7,3.13,2.31,13.53-4,23.44c3.33-1.06,10.83-3.41,16.59-4.94C113.16,76.92,111.32,63.28,100.84,61.22z"/>
		</g>
		<g>
			<path class="st8" d="M99.42,58.98c0,0,0.55,14.94-5.68,26.49c0,0,3.4,1.6,6.49-0.56c0,0,6.95-12.17,4.75-24.65
				C104.98,60.26,102.45,57.14,99.42,58.98z"/>
			<path class="st7" d="M93.48,86.04l-0.59-0.28l0.31-0.58c6.07-11.26,5.61-26.02,5.6-26.17l-0.01-0.36l0.31-0.19
				c2.76-1.68,5.37,0.19,6.37,1.41l0.1,0.13l0.03,0.16c2.22,12.56-4.53,24.56-4.82,25.07l-0.07,0.12l-0.11,0.08
				c-1.37,0.96-2.79,1.25-4,1.25C94.86,86.67,93.57,86.08,93.48,86.04z M104.4,60.53c-0.44-0.48-2.22-2.23-4.35-1.19
				c0.03,2.39-0.08,15.36-5.42,25.79c1.02,0.3,3.15,0.67,5.13-0.65C100.46,83.19,106.33,71.93,104.4,60.53z"/>
		</g>
		<g>
			<path class="st6" d="M100.3,59.45c0,0-0.58,16.63-5.32,25.44c0,0,1.09-0.1,2.83-1.03c0,0,5.31-10.7,4.2-22.9
				C102.01,60.96,102.76,56.14,100.3,59.45z"/>
		</g>
	</g>
	<g>
		<g>
			<g>
				<path class="st9" d="M134.69,64c0,0-2.44-0.51-4.04,3.21c0,0-2.55,4.4,0.92,9.95c0,0,3.44-0.38,4.69,0.63
					c0,0,1.97,0.3,2.35-1.34c0,0,3.24-0.21,2.95-1.28c0,0-0.9-1.81-0.06-3.92c0,0-0.02-1.31-0.75-1.77l-0.09-1.85
					c0,0-0.03-0.2-0.86-0.37l-0.24-1.83C139.55,65.44,136.89,64.4,134.69,64z"/>
				<path class="st2" d="M136.17,78.41L136,78.39l-0.13-0.11c-0.76-0.62-2.99-0.63-4.23-0.5l-0.39,0.04l-0.21-0.33
					c-3.5-5.6-1.22-10.08-0.95-10.56c1.73-4.01,4.46-3.6,4.71-3.55c2.24,0.41,4.87,1.43,4.98,1.47l0.34,0.13l0.23,1.77
					c0.4,0.12,0.86,0.35,0.92,0.79l0.08,1.62c0.72,0.7,0.76,1.91,0.76,2.06l0,0.12l-0.05,0.12c-0.72,1.81,0.04,3.4,0.04,3.42
					l0.04,0.12c0.09,0.33,0.03,0.66-0.17,0.94c-0.53,0.73-2.06,1-2.92,1.09c-0.48,1.11-1.62,1.4-2.45,1.4
					C136.46,78.44,136.3,78.43,136.17,78.41z M140.87,71.15c-0.03-0.35-0.16-0.95-0.45-1.14l-0.27-0.17l-0.09-1.87
					c-0.08-0.03-0.2-0.06-0.38-0.1l-0.44-0.09l-0.25-1.9c-0.78-0.29-2.74-0.97-4.41-1.28l-0.02,0c-0.02,0-1.96-0.37-3.34,2.85
					l-0.03,0.07c-0.02,0.04-2.23,3.97,0.72,8.99c0.97-0.07,3.35-0.15,4.59,0.68c0.37,0.03,1.31-0.01,1.51-0.88l0.1-0.45l0.46-0.03
					c0.99-0.07,2.07-0.33,2.36-0.56C140.71,74.75,140.16,73.07,140.87,71.15z"/>
			</g>
			<g>
				<path class="st10" d="M132.59,68.26c0,0-2.45,2.62-0.34,8.2c0,0,0.98-0.62,4.08,0.53c0,0,1.53-0.3,1.06-1.59
					c0,0-0.77-1.72-2.08-2.36c0,0,2.18-0.62,3.68,2.57c0,0,1.32,0.31,1.65-0.4c0,0-0.73-1.29-0.74-2.93c0,0-0.08-2.36-1.68-2.97
					c0,0,0.88-0.89-0.36-1.85c0,0-1.69-1.03-3.64-0.73C134.21,66.73,133.14,67.38,132.59,68.26z"/>
			</g>
			<g>
				<g>
					<path class="st2" d="M138.87,77.19c0.05-0.05,0.06-0.07,0.08-0.11c0.02-0.03,0.04-0.06,0.05-0.09
						c0.04-0.06,0.06-0.12,0.09-0.18c0.05-0.12,0.09-0.24,0.11-0.36c0.05-0.25,0.04-0.51-0.01-0.73c-0.11-0.47-0.37-0.81-0.64-1.09
						c-0.28-0.27-0.58-0.49-0.88-0.67c-0.31-0.19-0.62-0.34-0.94-0.49l-0.04-0.02l-0.01,0c-0.15-0.04-0.34-0.13-0.48-0.26
						c-0.14-0.12-0.25-0.29-0.32-0.48c-0.07-0.19-0.08-0.4-0.07-0.61c0.01-0.11,0.03-0.21,0.04-0.32l0.08-0.32l-0.14,0.3
						c-0.03,0.1-0.07,0.21-0.1,0.32c-0.05,0.22-0.08,0.45-0.04,0.69c0.04,0.24,0.13,0.47,0.29,0.67c0.16,0.2,0.34,0.35,0.6,0.47
						l-0.04-0.02c0.27,0.2,0.54,0.39,0.77,0.61c0.24,0.21,0.45,0.45,0.62,0.69c0.16,0.24,0.26,0.5,0.26,0.7
						c0,0.1-0.02,0.19-0.06,0.27c-0.02,0.04-0.04,0.08-0.07,0.11c-0.01,0.01-0.02,0.03-0.04,0.04c-0.01,0-0.01,0.02-0.02,0.02
						c0,0-0.02,0.01,0-0.01L138.87,77.19z"/>
				</g>
				<g>
					<path class="st2" d="M136.89,74.24c0.37-0.3,0.75-0.6,1.14-0.88c0.39-0.28,0.78-0.57,1.21-0.79c-0.24,0.01-0.49,0.04-0.73,0.08
						c-0.24,0.04-0.49,0.09-0.73,0.14c-0.48,0.1-0.96,0.21-1.45,0.34L136.89,74.24z"/>
				</g>
				<g>
					<polygon class="st2" points="140.91,68.89 137.2,68.49 140.58,70.09 					"/>
				</g>
				<g>
					<polygon class="st2" points="139.99,66.68 137.1,66.37 139.59,67.86 					"/>
				</g>
			</g>
		</g>
		<g>
			<path class="st8" d="M114.64,60.3c0,0,6.23-0.32,12.92,2.5c0,0-3.85,4.64-2.34,9.14c0,0-4.92-1.42-9.02-2.43
				c-1.46-0.36-4.93,2.29-7.65,3.36c-3.17,1.24-7.85-3.28-4.15-7.19C104.9,65.13,109.38,60.83,114.64,60.3z"/>
			<path class="st7" d="M103.23,71.34c-1.32-1.96-1.06-4.24,0.7-6.1c0.05-0.05,4.85-4.98,10.64-5.56l0.03,0
				c0.26-0.01,6.45-0.29,13.19,2.55l0.77,0.32l-0.53,0.64c-0.04,0.04-3.61,4.43-2.23,8.55l0.37,1.12l-1.14-0.33
				c-0.05-0.01-4.95-1.43-9-2.43c-0.67-0.16-2.46,0.83-3.9,1.64c-1.13,0.63-2.29,1.28-3.37,1.7c-0.43,0.17-0.9,0.25-1.37,0.25
				C105.85,73.69,104.22,72.82,103.23,71.34z M116.34,68.9c2.95,0.73,6.34,1.67,8.01,2.14c-0.58-3.4,1.29-6.62,2.23-7.97
				c-6.04-2.35-11.58-2.17-11.9-2.16c-5.34,0.55-9.8,5.13-9.85,5.18c-1.92,2.03-1.04,3.86-0.58,4.55c0.96,1.43,2.74,2.15,4.05,1.64
				c1-0.39,2.13-1.02,3.22-1.63c1.73-0.96,3.25-1.81,4.36-1.81C116.05,68.85,116.2,68.87,116.34,68.9z"/>
		</g>
		<g>
			<path class="st6" d="M107.45,72.14c0,0-3.2-0.25,0.06-5.18c0,0,3.52-2.82,7.29-3.27c0,0,4.18-0.48,8.47,1.44
				c0,0-0.72,3.96,0.83,5.79c0,0-7.91-2.25-8.6-2.11c0,0-3.34,1.34-5.87,2.8C109.63,71.59,108.32,72.49,107.45,72.14z"/>
		</g>
		<g>
			<g>
				<path class="st4" d="M126.59,61.93c0,0-4.2,3.7-3.02,9.69l7.12,2.82c0,0-1.44-5.53,2.93-10.3
					C133.62,64.14,128.6,62.37,126.59,61.93z"/>
				<path class="st2" d="M123.03,72.07l-0.07-0.33c-1.24-6.26,3.03-10.11,3.21-10.27l0.24-0.21l0.31,0.07
					c2.02,0.44,6.9,2.16,7.11,2.23l0.89,0.31l-0.64,0.69c-4.08,4.44-2.84,9.51-2.79,9.72l0.31,1.19L123.03,72.07z M126.78,62.61
					c-0.81,0.83-3.42,3.91-2.65,8.55l5.78,2.29c-0.19-1.82-0.14-5.53,2.66-9.03C131.14,63.95,128.33,63,126.78,62.61z"/>
			</g>
			<g>
				<path class="st5" d="M124.2,71.04c0,0-1.08-8.04,7.11-5.77c0,0-2.41,2.89-1.44,7.93L124.2,71.04z"/>
			</g>
			<g>
				<g>
					<path class="st2" d="M127.05,69.4c0.33-0.1,0.61-0.25,0.89-0.41c0.28-0.16,0.53-0.35,0.78-0.54c0.25-0.2,0.48-0.41,0.7-0.65
						c0.22-0.24,0.42-0.49,0.59-0.79c-0.33,0.1-0.62,0.25-0.89,0.41c-0.27,0.16-0.54,0.35-0.78,0.54c-0.25,0.2-0.48,0.41-0.7,0.65
						C127.42,68.85,127.21,69.1,127.05,69.4z"/>
				</g>
				<g>
					<path class="st2" d="M128.08,66.13c-0.05,0.34-0.04,0.66-0.01,0.98c0.03,0.32,0.09,0.63,0.16,0.94
						c0.07,0.31,0.17,0.61,0.29,0.91c0.12,0.3,0.26,0.59,0.46,0.87c0.05-0.34,0.04-0.66,0.01-0.98c-0.03-0.32-0.09-0.63-0.16-0.94
						c-0.08-0.31-0.17-0.61-0.29-0.91C128.41,66.7,128.28,66.41,128.08,66.13z"/>
				</g>
			</g>
			<g>
				<g>
					<path class="st2" d="M124.69,68.52c0.33-0.1,0.61-0.25,0.89-0.41c0.28-0.16,0.54-0.34,0.78-0.54c0.25-0.2,0.48-0.41,0.7-0.65
						c0.22-0.24,0.42-0.49,0.59-0.79c-0.33,0.1-0.62,0.25-0.89,0.41c-0.27,0.16-0.54,0.35-0.78,0.54c-0.25,0.2-0.48,0.41-0.7,0.65
						C125.06,67.97,124.85,68.22,124.69,68.52z"/>
				</g>
				<g>
					<path class="st2" d="M125.71,65.25c-0.05,0.34-0.04,0.66-0.01,0.98c0.03,0.32,0.09,0.63,0.16,0.94
						c0.07,0.31,0.17,0.61,0.29,0.91c0.12,0.3,0.26,0.59,0.46,0.87c0.05-0.34,0.04-0.66,0.01-0.98c-0.03-0.32-0.09-0.63-0.16-0.94
						c-0.08-0.31-0.17-0.61-0.29-0.91C126.05,65.82,125.91,65.52,125.71,65.25z"/>
				</g>
			</g>
		</g>
	</g>
	<g>
		<g>
			<path class="st8" d="M84.12,102.52c0,0,0.77,3.14,1.92,5.94c0,0,1.29,2.57-0.51,3.41c0,0-8.9,1.77-9.42,1.88
				c0,0-1.74,0.39-2.38,0.07c0,0-2.13-1.69,2.46-5.18l0.65-1.12l-4.36-9.43l-0.27-1.48l0.17-1.4l9.44-1.52L84.12,102.52z"/>
			<path class="st7" d="M73.46,114.37l-0.1-0.07c-0.08-0.06-0.74-0.62-0.73-1.7c0.01-1.34,1.06-2.81,3.1-4.39l0.43-0.74l-4.26-9.21
				l-0.3-1.65l0.23-1.95l10.46-1.68l2.43,9.37l0,0.01c0.01,0.03,0.77,3.11,1.89,5.84c0.12,0.25,0.79,1.71,0.36,2.95
				c-0.2,0.57-0.6,1.01-1.17,1.28l-0.07,0.03l-0.07,0.01c-0.09,0.02-8.9,1.77-9.41,1.88c-0.29,0.07-1.02,0.21-1.71,0.21
				C74.13,114.57,73.74,114.52,73.46,114.37z M85.8,110.75c0.23-0.67-0.14-1.68-0.31-2.01l-0.02-0.04
				c-1.15-2.79-1.91-5.84-1.95-6.03l-2.15-8.27l-8.42,1.35l-0.1,0.84l0.24,1.31l4.47,9.65l-0.88,1.51l-0.1,0.08
				c-2.31,1.76-2.69,2.92-2.71,3.45c-0.01,0.38,0.14,0.61,0.22,0.7c0.3,0.08,1.16,0.02,1.91-0.15c0.5-0.1,8.4-1.67,9.34-1.86
				C85.57,111.15,85.72,110.99,85.8,110.75z"/>
		</g>
		<g>
			<path class="st2" d="M74.07,101.31l0.55-0.3c2.49,1.92,6.1,1.46,8.03-1.03l1.72-2.22c1.93-2.49,1.46-6.1-1.03-8.03l0,0
				c-2.49-1.92-5.87-0.98-8.71,1.75l-1.06,0.8C71.65,94.77,71.58,99.38,74.07,101.31z"/>
			<path class="st2" d="M74.57,101.74l-0.57,0.3l-0.32-0.25c-1.3-1-2.08-2.74-2.14-4.77c-0.06-1.89,0.52-3.8,1.54-5.12l0.05-0.07
				l1.1-0.82c3.25-3.11,6.88-3.78,9.49-1.77c1.34,1.03,2.19,2.53,2.41,4.21c0.22,1.68-0.23,3.35-1.27,4.68l-1.72,2.22
				c-1.25,1.61-3.13,2.46-5.03,2.46C76.88,102.83,75.65,102.47,74.57,101.74z M75.06,91.93l-1.05,0.79
				c-0.82,1.1-1.28,2.68-1.23,4.26c0.05,1.49,0.54,2.76,1.36,3.57l0.53-0.29l0.32,0.25c2.23,1.72,5.44,1.31,7.16-0.92l1.72-2.22
				c0.83-1.07,1.19-2.41,1.02-3.77c-0.17-1.36-0.86-2.56-1.93-3.39c-0.76-0.59-1.64-0.88-2.59-0.88
				C78.7,89.35,76.83,90.24,75.06,91.93z"/>
		</g>
		<g>
			<path class="st2" d="M78.92,102.78c-1.55,0.2-3.08-0.16-4.35-1.03l-0.57,0.3l-0.32-0.25c-2.87-2.22-2.92-6.86-0.85-9.54
				l0.05-0.07l1.33-1.19c3.25-3.11,6.89-3.79,9.5-1.77c1.34,1.03,2.19,2.53,2.41,4.22c0.21,1.69-0.23,3.35-1.27,4.69l-1.72,2.22
				c-0.19,0.24-0.39,0.47-0.6,0.67C81.56,101.99,80.31,102.6,78.92,102.78z M72.79,96.99c0.05,1.48,0.54,2.75,1.36,3.56l0.53-0.29
				l0.32,0.25c2.22,1.72,5.43,1.31,7.15-0.91l1.72-2.22c0.83-1.07,1.19-2.41,1.02-3.76c-0.17-1.35-0.86-2.56-1.93-3.38
				c-2.09-1.62-5.11-0.96-7.89,1.7l-1.05,0.79C73.2,93.83,72.74,95.41,72.79,96.99z"/>
		</g>
		<g>
			<path class="st2" d="M80.19,102.73l-0.06,1.04c1.22,1.34,4,1.07,2.54-5.51l-0.65-3.28c-0.73-2.04-3.15-3.05-5.37-2.25l0,0
				c-2.22,0.8-3.77,4.73-3.04,6.77l1.22,2.3C75.56,103.84,77.96,103.53,80.19,102.73z"/>
		</g>
		<g>
			<path class="st6" d="M73.97,112.28c0,0,1.98-3.5,3.76-3.81c0,0,3.74-1.53,5.77,1.56c0,0,0.69,1.51-7.99,2.87
				C75.51,112.9,73.6,113.14,73.97,112.28z"/>
		</g>
		<g>
			<g>
				<path class="st11" d="M74.25,100.62l0.91-0.19c1.43,0.9,2.17-0.56,3.06-2l2.03-3.24c0.9-1.43,0.46-3.34-0.98-4.23l0,0
					c-1.43-0.9-3.75-0.15-4.64,1.28l-0.51,0.39C71.58,95.79,72.82,99.73,74.25,100.62z"/>
			</g>
		</g>
		<g>
			<path class="st8" d="M74.64,115.25l11.6-2.37c0.5-0.1,0.83-0.6,0.73-1.1l-0.08-0.38c-0.1-0.5-0.6-0.83-1.1-0.73l-11.6,2.37
				c-0.5,0.1-0.83,0.6-0.73,1.1l0.08,0.38C73.64,115.02,74.14,115.35,74.64,115.25z"/>
			<path class="st7" d="M72.93,114.64l-0.08-0.38c-0.08-0.41,0-0.82,0.23-1.17c0.23-0.35,0.58-0.59,0.99-0.67l11.6-2.37
				c0.41-0.08,0.82,0,1.17,0.23c0.35,0.23,0.58,0.58,0.67,0.98l0.08,0.38c0.08,0.41,0,0.82-0.23,1.17s-0.58,0.59-0.99,0.67
				l-11.6,2.37l0,0c-0.1,0.02-0.21,0.03-0.31,0.03C73.73,115.89,73.08,115.38,72.93,114.64z M86.12,112.27
				c0.11-0.02,0.17-0.09,0.2-0.14c0.03-0.04,0.07-0.13,0.05-0.23l-0.08-0.38c-0.02-0.11-0.09-0.17-0.13-0.2
				c-0.04-0.03-0.13-0.07-0.24-0.05l-11.6,2.37c-0.11,0.02-0.17,0.09-0.2,0.13c-0.03,0.04-0.07,0.13-0.05,0.23l0.08,0.38
				c0.03,0.17,0.2,0.28,0.37,0.25L86.12,112.27z"/>
		</g>
		<g>
			<path class="st2" d="M85.05,105.8c0,0-1.72,2.58-7.87,1.75l-2.83-5.35l9.48-1.56L85.05,105.8z"/>
			<path class="st2" d="M77.1,108.17l-0.32-0.04l-3.38-6.4l10.91-1.79l1.41,5.98l-0.15,0.22c-0.07,0.1-1.52,2.19-6.1,2.19
				C78.76,108.34,77.97,108.29,77.1,108.17z M83.37,101.35l-8.06,1.32l2.27,4.3c4.42,0.52,6.27-0.84,6.79-1.35L83.37,101.35z"/>
		</g>
		<g>
			<path class="st11" d="M78.94,101.21l1.15,5.42c0,0-1.04,1.08-2.94-0.03l-3.31-6.1C73.85,100.49,77.21,97.25,78.94,101.21z"/>
		</g>
		<g>
			<g>
				<path class="st12" d="M83.37,99.74c0,0-2.13,0.97-9.43,2.01l0.61,1.59c0,0,2.55,0.35,9.26-1.88L83.37,99.74z"/>
				<path class="st2" d="M74.46,103.96l-0.36-0.05l-1.02-2.67l0.77-0.11c7.03-1,9.22-1.94,9.26-1.96l0.68-0.31l0.76,3.01l-0.55,0.18
					c-5.16,1.71-7.93,1.93-9.01,1.93C74.66,103.99,74.49,103.97,74.46,103.96z M82.94,100.56c-1.06,0.35-3.47,1-8.14,1.7l0.19,0.49
					c0,0,0,0,0,0c0.87,0,3.36-0.17,8.08-1.68L82.94,100.56z"/>
			</g>
			<g>
				<path class="st6" d="M74.84,102.13c0,0,2.61-0.25,5.83-1.01c0,0-0.72,1.01-3.1,1.43l-2.39,0.41L74.84,102.13z"/>
			</g>
		</g>
	</g>
	<g>
		<g>
			<path class="st8" d="M104.5,105.03c0,0,1.47,2.88,3.24,5.34c0,0,1.85,2.2,0.29,3.44c0,0-8.26,3.77-8.74,3.99
				c0,0-1.61,0.78-2.3,0.61c0,0-2.46-1.15,1.21-5.61l0.38-1.24l-6.41-8.18l-0.6-1.38l-0.16-1.4l8.84-3.64L104.5,105.03z"/>
			<path class="st7" d="M96.84,119.01l-0.11-0.04c-0.09-0.04-0.86-0.43-1.1-1.48c-0.29-1.3,0.38-2.98,2.01-4.98l0.25-0.82
				l-6.26-7.99l-0.67-1.54l-0.22-1.95l9.8-4.04l4.52,8.56l0,0.01c0.01,0.03,1.46,2.85,3.18,5.25c0.18,0.22,1.16,1.48,1.03,2.79
				c-0.06,0.6-0.35,1.12-0.85,1.51l-0.06,0.05l-0.07,0.03c-0.08,0.04-8.26,3.77-8.73,3.98c-0.37,0.18-1.5,0.7-2.35,0.7
				C97.07,119.05,96.95,119.04,96.84,119.01z M108.02,112.66c0.07-0.71-0.53-1.6-0.76-1.89l-0.03-0.04
				c-1.76-2.45-3.2-5.25-3.28-5.42l-3.99-7.56L92.07,101l0.1,0.84l0.53,1.22l6.56,8.37l-0.51,1.67l-0.08,0.1
				c-1.85,2.24-1.95,3.46-1.85,3.98c0.07,0.37,0.28,0.56,0.37,0.63c0.32,0.01,1.13-0.25,1.82-0.58c0.46-0.21,7.79-3.56,8.67-3.96
				C107.89,113.1,107.99,112.9,108.02,112.66z"/>
		</g>
		<g>
			<path class="st2" d="M94.43,106.16l0.47-0.42c2.86,1.3,6.27,0.02,7.58-2.84l1.16-2.56c1.3-2.86,0.02-6.27-2.84-7.58l0,0
				c-2.86-1.3-5.94,0.4-8.07,3.7l-0.85,1.02C90.58,100.35,91.57,104.86,94.43,106.16z"/>
			<path class="st2" d="M94.17,106.73c-1.5-0.68-2.66-2.19-3.18-4.15c-0.49-1.82-0.37-3.82,0.32-5.34l0.03-0.08l0.88-1.05
				c2.45-3.77,5.83-5.26,8.83-3.9c1.54,0.7,2.71,1.96,3.31,3.55c0.6,1.59,0.54,3.31-0.16,4.85l-1.16,2.56
				c-1.39,3.06-4.92,4.48-8.02,3.31l-0.48,0.43L94.17,106.73z M93.25,96.81l-0.84,1.01c-0.55,1.26-0.63,2.91-0.22,4.43
				c0.39,1.44,1.16,2.57,2.15,3.16l0.45-0.4l0.37,0.17c2.56,1.16,5.59,0.03,6.75-2.53l1.16-2.56c0.56-1.23,0.61-2.62,0.13-3.9
				c-0.48-1.28-1.42-2.29-2.66-2.85c-0.56-0.25-1.13-0.38-1.72-0.38C96.88,92.96,94.86,94.32,93.25,96.81z"/>
		</g>
		<g>
			<path class="st2" d="M99.5,106.47c-1.46,0.55-3.03,0.55-4.47,0l-0.48,0.43l-0.37-0.17c-3.3-1.5-4.41-6.01-3.01-9.09l0.04-0.08
				l1.02-1.47c2.45-3.77,5.84-5.27,8.84-3.9c1.54,0.7,2.71,1.96,3.31,3.55c0.6,1.59,0.54,3.32-0.16,4.86l-1.16,2.56
				c-0.13,0.28-0.27,0.54-0.43,0.79C101.89,105.11,100.8,105.98,99.5,106.47z M92.2,102.25c0.39,1.43,1.15,2.56,2.14,3.16l0.45-0.4
				l0.37,0.17c2.56,1.16,5.58,0.03,6.75-2.53l1.16-2.56c0.56-1.23,0.61-2.62,0.13-3.89c-0.48-1.28-1.42-2.29-2.65-2.85
				c-2.4-1.09-5.2,0.24-7.29,3.47l-0.84,1.01C91.87,99.08,91.79,100.72,92.2,102.25z"/>
		</g>
		<g>
			<path class="st2" d="M100.71,106.14l0.18,1.03c1.49,1.03,4.13,0.12,1.21-5.95l-1.38-3.04c-1.18-1.82-3.77-2.25-5.75-0.96l0,0
				c-1.98,1.29-2.58,5.47-1.4,7.28l1.72,1.96C96.47,108.28,98.73,107.43,100.71,106.14z"/>
		</g>
		<g>
			<path class="st6" d="M96.86,116.85c0,0,1.12-3.86,2.78-4.57c0,0,3.29-2.34,5.98,0.2c0,0,1.01,1.31-7.12,4.62
				C98.49,117.11,96.69,117.78,96.86,116.85z"/>
		</g>
		<g>
			<g>
				<path class="st11" d="M94.45,105.45l0.84-0.4c1.6,0.54,1.98-1.05,2.52-2.64l1.23-3.62c0.54-1.6-0.32-3.35-1.92-3.89l0,0
					c-1.6-0.54-3.68,0.72-4.22,2.31l-0.41,0.5C90.75,101.35,92.85,104.9,94.45,105.45z"/>
			</g>
		</g>
		<g>
			<path class="st8" d="M98.19,119.59l10.75-4.97c0.47-0.22,0.67-0.78,0.46-1.24l-0.16-0.35c-0.22-0.47-0.77-0.67-1.24-0.46
				l-10.75,4.97c-0.47,0.22-0.67,0.77-0.46,1.24l0.16,0.35C97.17,119.6,97.72,119.81,98.19,119.59z"/>
			<path class="st7" d="M97.26,120.2c-0.39-0.14-0.7-0.43-0.88-0.81l-0.16-0.35c-0.17-0.38-0.19-0.8-0.05-1.19
				c0.14-0.39,0.43-0.7,0.81-0.88l10.75-4.97c0.38-0.17,0.8-0.19,1.19-0.05c0.39,0.14,0.7,0.43,0.88,0.81l0.16,0.35
				c0.17,0.38,0.19,0.8,0.05,1.19c-0.14,0.39-0.43,0.7-0.81,0.88l-10.75,4.97c-0.21,0.1-0.43,0.14-0.65,0.14
				C97.62,120.3,97.44,120.27,97.26,120.2z M108.25,113.14l-10.75,4.97c-0.1,0.05-0.15,0.13-0.16,0.18
				c-0.02,0.05-0.04,0.14,0.01,0.24l0.16,0.35c0.05,0.1,0.13,0.15,0.18,0.16c0.05,0.02,0.14,0.04,0.24-0.01l10.75-4.97
				c0.1-0.05,0.15-0.13,0.16-0.18c0.02-0.05,0.04-0.14-0.01-0.24l-0.16-0.35c-0.05-0.1-0.13-0.14-0.18-0.16
				c-0.03-0.01-0.06-0.02-0.11-0.02C108.34,113.11,108.3,113.12,108.25,113.14z"/>
		</g>
		<g>
			<path class="st2" d="M106.15,108.01c0,0-1.08,2.9-7.26,3.51l-3.98-4.56l8.87-3.69L106.15,108.01z"/>
			<path class="st2" d="M93.88,106.72l10.21-4.25l2.74,5.5l-0.09,0.25c-0.05,0.13-1.29,3.27-7.78,3.91l-0.32,0.03L93.88,106.72z
				 M103.49,104.07l-7.54,3.14l3.2,3.66c4.42-0.51,5.91-2.26,6.3-2.87L103.49,104.07z"/>
		</g>
		<g>
			<path class="st11" d="M99.15,104.94l2.37,5.01c0,0-0.76,1.29-2.87,0.64l-4.62-5.18C94.03,105.41,96.56,101.48,99.15,104.94z"/>
		</g>
		<g>
			<g>
				<path class="st12" d="M103.13,102.5c0,0-1.85,1.43-8.72,4.12l0.96,1.41c0,0,2.56-0.25,8.58-3.95L103.13,102.5z"/>
				<path class="st2" d="M93.46,106.32l0.73-0.28c6.61-2.59,8.53-4.01,8.57-4.04l0.59-0.45l1.43,2.76l-0.49,0.3
					c-6.08,3.74-8.74,4.03-8.85,4.04l-0.37,0.04L93.46,106.32z M102.9,103.39c-0.95,0.58-3.15,1.77-7.54,3.52l0.29,0.43
					c0.84-0.2,3.23-0.93,7.48-3.49L102.9,103.39z"/>
			</g>
			<g>
				<path class="st6" d="M95.37,106.78c0,0,2.49-0.84,5.44-2.32c0,0-0.46,1.15-2.69,2.1l-2.23,0.95L95.37,106.78z"/>
			</g>
		</g>
	</g>
	<g>
		<g>
			<path class="st8" d="M114.65,87.23c0,0-27.51,6.46-37.26-0.05l-0.73,7.74c0,0,7.95,5.17,23.22,3.63c0,0,10.72-0.7,16.27-4.09
				L114.65,87.23z"/>
			<path class="st7" d="M76.32,95.45l-0.31-0.2l0.86-9.15l0.87,0.58c9.42,6.28,36.5,0.03,36.78-0.04l0.62-0.15l1.72,8.28L116.48,95
				c-5.62,3.43-16.11,4.15-16.54,4.18c-2.03,0.2-3.92,0.29-5.69,0.29C82.66,99.47,76.61,95.63,76.32,95.45z M114.17,87.98
				c-4.12,0.91-26.55,5.54-36.26,0.24l-0.6,6.36c1.61,0.9,9.32,4.68,22.52,3.35c0.1-0.01,10.16-0.7,15.62-3.78L114.17,87.98z"/>
		</g>
		<g>
			<path class="st2" d="M93.31,88.53c0,0,0.21,5.5,0.08,10.48c0,0-5.8,0.68-11.25-1.42l0.22-10.03
				C82.36,87.56,91.09,88.42,93.31,88.53z"/>
			<path class="st13" d="M81.91,98.17l-0.41-0.16l0.25-11.14l0.67,0.07c0.09,0.01,8.74,0.87,10.92,0.97l0.57,0.03l0.02,0.57
				c0,0.06,0.21,5.58,0.08,10.52L94,99.56l-0.53,0.06c-0.09,0.01-1.01,0.11-2.43,0.11C88.8,99.74,85.31,99.48,81.91,98.17z
				 M92.71,89.12c-2.36-0.16-7.83-0.69-9.75-0.88l-0.2,8.92c4.18,1.5,8.53,1.37,10.01,1.27C92.86,94.61,92.76,90.57,92.71,89.12z"/>
		</g>
		<g>
			<path class="st11" d="M82.99,91.51l-0.25,5.44c0,0,6.85,2.11,8.74-4.52C91.48,92.43,88.12,92.83,82.99,91.51z"/>
		</g>
	</g>
	<g>
		<g>
			<path class="st8" d="M77.26,91.12c0,0,19,5.7,37.65-4.94c0,0,0.64-0.95,0.53-1.64c0,0-0.58-4.19-0.85-5.09
				c-0.23-0.75-0.58-0.96-1.2-0.35c0,0-8.95,8.94-36.28,5.34c0,0-0.47-1.6-1.17,0.15C75.95,84.6,75.9,91.17,77.26,91.12z"/>
			<path class="st7" d="M77.16,91.74c-0.19-0.02-0.44-0.09-0.68-0.32c-1.11-1.08-1.17-5.49-1.16-6.82l0-0.12l0.04-0.11
				c0.14-0.34,0.49-1.25,1.26-1.21c0.47,0.02,0.76,0.4,0.92,0.72c26.34,3.38,35.31-5.13,35.4-5.22c0.45-0.44,0.88-0.61,1.3-0.51
				c0.64,0.16,0.86,0.88,0.93,1.12c0.27,0.91,0.81,4.75,0.87,5.17c0.14,0.89-0.5,1.9-0.63,2.09l-0.08,0.12l-0.13,0.07
				c-9.08,5.18-18.3,6.52-25.4,6.52C82.8,93.24,77.85,91.93,77.16,91.74z M114.82,84.62c-0.16-1.15-0.62-4.3-0.83-4.99
				c-0.02-0.08-0.05-0.14-0.06-0.18c-0.03,0.02-0.06,0.05-0.1,0.09c-0.37,0.37-9.48,9.12-36.8,5.52l-0.4-0.05l-0.06-0.22
				c0,2.67,0.34,5.26,0.75,5.71l0.02,0l0.1,0.03c0.19,0.06,18.86,5.47,37.02-4.81C114.64,85.42,114.87,84.91,114.82,84.62z"/>
		</g>
		<g>
			<path class="st6" d="M76.25,85.46c0.45-1.27,0.76-0.1,0.76-0.1c16.94,3.17,19.99,0,19.99,0c0.11-0.12,3.79-0.57,3.88-0.61
				c-0.77,3.27-6.71,4.93-6.71,4.93c-9.03,2.89-17.03,0.85-17.03,0.85C76.25,90.55,76.25,85.46,76.25,85.46z"/>
		</g>
		<g>
			<path class="st0" d="M111.16,81.53c0,0-12.51,6.34-33.44,3.78c0,0-1.79-1.01-1.53,0.9c0,0-0.07,3.42,0.94,4.33
				c0,0-0.89-0.64,0.47-3.88c0,0,21.41,2.81,32.66-4.26C110.26,82.4,113.53,80.42,111.16,81.53z"/>
		</g>
	</g>
	<g>
		<g>
			<g>
				<path class="st2" d="M79.2,62.48l0.54-0.25c9.53,15.85,34.17,13.6,34.17,13.6l0.26,0.33l0.4,5.33l-0.26,0.24
					c-29.39,2.39-37.34-14.01-37.34-14.01L76.96,67L79.2,62.48z"/>
			</g>
			<g>
				<path class="st13" d="M76.35,66.88l0.01,0.98l0.05,0.11c0.08,0.17,2.12,4.28,7.84,8.12c5.25,3.52,14.73,7.46,30.1,6.21
					l0.22-0.02l0.62-0.57l-0.43-5.74l-0.55-0.72l-0.35,0.03c-0.06,0.01-6.18,0.54-13.36-0.86c-6.57-1.27-15.42-4.47-20.23-12.47
					L80,61.49l-1.25,0.58L76.35,66.88z M77.57,67.59l-0.01-0.48l2-4.02c4.05,6.31,11.19,10.61,20.7,12.44
					c6.4,1.24,11.84,1,13.31,0.9l0.36,4.78c-14.8,1.14-23.91-2.64-28.96-6.03C79.99,71.82,77.91,68.23,77.57,67.59z"/>
			</g>
		</g>
		<g>
			<g>
				<path class="st11" d="M103.92,76.6c0,0-1.31,3.49-7.55,3.12c0,0-11.89-2.11-18.67-12.53l1.71-3.87
					C79.4,63.31,85.1,74.55,103.92,76.6z"/>
			</g>
		</g>
		<g>
			<g>
				<g>
					<g>
						<path class="st12" d="M110.99,78.22c0.39,0.14,0.56,0.56,0.4,0.92c-0.16,0.37-0.61,0.55-1,0.41c-0.39-0.14-0.56-0.56-0.4-0.92
							C110.16,78.26,110.6,78.08,110.99,78.22z"/>
					</g>
					<g>
						<path class="st2" d="M109.57,78.47c-0.13,0.28-0.13,0.59-0.01,0.87c0.12,0.28,0.35,0.5,0.65,0.61
							c0.19,0.07,0.38,0.09,0.57,0.07c0.44-0.04,0.84-0.31,1.02-0.71c0.13-0.29,0.13-0.6,0-0.88c-0.12-0.27-0.35-0.49-0.65-0.6
							C110.55,77.6,109.83,77.89,109.57,78.47L109.57,78.47z M110.41,78.78c0.05-0.11,0.15-0.18,0.26-0.19c0.05,0,0.09,0,0.14,0.02
							c0.07,0.03,0.13,0.08,0.16,0.14c0.03,0.07,0.03,0.16,0,0.23c-0.07,0.15-0.25,0.23-0.4,0.17c-0.07-0.03-0.13-0.08-0.16-0.15
							C110.38,78.94,110.38,78.86,110.41,78.78z"/>
					</g>
				</g>
				<g>
					<g>
						<path class="st14" d="M110.8,78.24c0.29,0.08,0.44,0.4,0.34,0.72c-0.11,0.33-0.44,0.53-0.73,0.45
							c-0.29-0.07-0.44-0.4-0.33-0.72C110.18,78.37,110.51,78.17,110.8,78.24z"/>
					</g>
				</g>
				<g>
					<g>
						<path class="st15" d="M110.57,78.33c0.2,0.04,0.3,0.28,0.23,0.53c-0.07,0.25-0.3,0.41-0.5,0.37c-0.2-0.04-0.3-0.28-0.23-0.53
							C110.15,78.45,110.37,78.29,110.57,78.33z"/>
					</g>
				</g>
			</g>
			<g>
				<g>
					<g>
						<path class="st12" d="M106.92,78.21c0.38,0.14,0.56,0.56,0.4,0.92c-0.16,0.37-0.61,0.55-1,0.41c-0.38-0.14-0.56-0.56-0.4-0.93
							C106.09,78.25,106.53,78.07,106.92,78.21z"/>
					</g>
					<g>
						<path class="st2" d="M105.5,78.46c-0.13,0.28-0.13,0.59-0.01,0.86c0.12,0.28,0.35,0.5,0.65,0.61
							c0.19,0.07,0.38,0.09,0.57,0.07c0.44-0.04,0.84-0.31,1.02-0.71c0.13-0.29,0.13-0.6,0-0.88c-0.12-0.27-0.35-0.49-0.65-0.6
							C106.48,77.59,105.76,77.88,105.5,78.46L105.5,78.46z M106.34,78.77c0.05-0.11,0.15-0.18,0.26-0.19c0.05,0,0.09,0,0.14,0.02
							c0.07,0.03,0.13,0.08,0.16,0.14c0.03,0.07,0.03,0.15,0,0.23c-0.07,0.15-0.25,0.23-0.4,0.17c-0.07-0.03-0.13-0.08-0.16-0.15
							C106.31,78.93,106.31,78.85,106.34,78.77z"/>
					</g>
				</g>
				<g>
					<g>
						<path class="st14" d="M106.73,78.23c0.29,0.08,0.44,0.4,0.34,0.72c-0.11,0.33-0.44,0.53-0.73,0.45
							c-0.29-0.07-0.44-0.4-0.34-0.72C106.11,78.36,106.44,78.16,106.73,78.23z"/>
					</g>
				</g>
				<g>
					<g>
						<path class="st15" d="M106.5,78.32c0.2,0.04,0.3,0.28,0.23,0.53c-0.08,0.25-0.3,0.41-0.5,0.37c-0.2-0.04-0.3-0.28-0.23-0.53
							C106.07,78.44,106.3,78.28,106.5,78.32z"/>
					</g>
				</g>
			</g>
			<g>
				<g>
					<g>
						<path class="st12" d="M89.58,73.9c0.52,0.19,0.76,0.75,0.54,1.24c-0.22,0.49-0.82,0.74-1.33,0.54
							c-0.52-0.19-0.76-0.75-0.53-1.24C88.46,73.95,89.06,73.71,89.58,73.9z"/>
					</g>
					<g>
						<path class="st2" d="M87.82,74.29c-0.16,0.35-0.16,0.73-0.01,1.07c0.15,0.33,0.43,0.59,0.79,0.72
							c0.23,0.08,0.46,0.11,0.69,0.09c0.53-0.05,1.02-0.37,1.24-0.87c0.16-0.35,0.16-0.72,0.01-1.06c-0.15-0.33-0.43-0.59-0.78-0.72
							C89,73.23,88.14,73.58,87.82,74.29z M88.66,74.6c0.09-0.19,0.28-0.32,0.48-0.34c0.09-0.01,0.17,0,0.26,0.03
							c0.13,0.05,0.24,0.15,0.29,0.27c0.06,0.13,0.06,0.28,0,0.42c-0.12,0.28-0.46,0.41-0.74,0.31c-0.13-0.05-0.24-0.15-0.29-0.27
							C88.6,74.89,88.6,74.74,88.66,74.6z"/>
					</g>
				</g>
			</g>
			<g>
				<g>
					<g>
						<path class="st12" d="M84.98,71.55c0.39,0.14,0.56,0.56,0.4,0.92c-0.16,0.37-0.61,0.55-1,0.41c-0.39-0.14-0.56-0.56-0.4-0.92
							C84.15,71.59,84.6,71.41,84.98,71.55z"/>
					</g>
					<g>
						<path class="st2" d="M83.57,71.8c-0.13,0.29-0.13,0.6,0,0.88c0.12,0.27,0.35,0.49,0.65,0.59c0.19,0.07,0.38,0.09,0.57,0.07
							c0.44-0.04,0.84-0.31,1.02-0.71c0.13-0.29,0.13-0.6,0-0.88c-0.12-0.28-0.35-0.49-0.65-0.6C84.54,70.93,83.83,71.22,83.57,71.8
							L83.57,71.8z M84.41,72.12c0.05-0.11,0.15-0.18,0.26-0.19c0.05,0,0.09,0,0.14,0.02c0.07,0.03,0.13,0.08,0.16,0.14
							c0.03,0.07,0.03,0.16,0,0.23c-0.07,0.15-0.25,0.23-0.4,0.17c-0.07-0.03-0.13-0.08-0.16-0.14
							C84.37,72.27,84.37,72.19,84.41,72.12z"/>
					</g>
				</g>
			</g>
			<g>
				<g>
					<g>
						<path class="st12" d="M81.84,68.6c0.39,0.14,0.56,0.56,0.4,0.92c-0.16,0.37-0.61,0.55-1,0.41c-0.38-0.14-0.56-0.56-0.4-0.92
							C81.01,68.64,81.46,68.46,81.84,68.6z"/>
					</g>
					<g>
						<path class="st2" d="M80.43,68.85c-0.13,0.29-0.13,0.6,0,0.88c0.12,0.27,0.35,0.49,0.65,0.6c0.19,0.07,0.38,0.09,0.57,0.07
							c0.44-0.04,0.84-0.31,1.02-0.71c0.13-0.28,0.13-0.59,0.01-0.87c-0.12-0.28-0.35-0.5-0.65-0.61
							C81.4,67.98,80.69,68.27,80.43,68.85L80.43,68.85z M81.27,69.17c0.05-0.11,0.15-0.18,0.26-0.19c0.05,0,0.09,0,0.14,0.02
							c0.07,0.03,0.13,0.08,0.16,0.15c0.03,0.07,0.03,0.15,0,0.23c-0.07,0.15-0.25,0.23-0.4,0.17c-0.07-0.03-0.13-0.08-0.16-0.14
							C81.23,69.32,81.23,69.24,81.27,69.17z"/>
					</g>
				</g>
			</g>
		</g>
	</g>
	<g>
		<g>
			<g>
				<path class="st14" d="M78.04,68.45c0,0,5.02,0,5.75-3.18c0,0,0.89-4.24,1.41-13.94c0,0-0.18-1.24,1.1-1.4
					c0,0,0.98-0.26,0.72,1.76c0,0,0.86,12.58-3.03,16.61c0,0-2.81,2.92-7.56,0.72C76.45,69,74.86,67.85,78.04,68.45z"/>
			</g>
		</g>
		<g>
			<g>
				<path class="st15" d="M83.97,67.95c0,0,3.64-2.74,1.79-15.39c0,0-0.54-1.98,0.55-2.63c0,0,0.96-0.3,0.83,2.76
					c0,0,1.45,15.44-4.3,16.89C82.84,69.57,81.42,69.72,83.97,67.95z"/>
			</g>
		</g>
		<g>
			<g>
				<path class="st9" d="M70.51,47.3c0,0,0.4-2.49-1.09-4.49l-0.84-2.37c0,0,0.15-5.88,3.53-9.01c0,0,2.99-3.64,12.27-5.76
					c6.9-1.58,16.86-0.42,20.29,11.44c0,0,1.97,6.11,0.33,6.47c0,0,1.62,1.66,1.37,7.08c0,0,3.51,8.2-3.1,14.11
					c0,0-9.05,8.81-20.73,8.5l-2.4-0.47c0,0-7.76-5.91-7.59-17.47C72.54,55.34,67.79,51.78,70.51,47.3z"/>
			</g>
			<g>
				<path class="st2" d="M71.92,55.64c-0.04,11.53,7.51,17.42,7.83,17.66l0.11,0.09l2.64,0.51c2.47,0.06,4.81-0.26,6.98-0.82
					c8.21-2.12,13.9-7.57,14.2-7.86c6.36-5.7,3.73-13.52,3.3-14.66c0.16-3.91-0.62-5.94-1.14-6.83c0.04-0.05,0.08-0.11,0.11-0.17
					c0.87-1.51-0.43-5.76-0.7-6.63c-3.34-11.53-13.05-13.69-21.02-11.87c-9,2.06-12.23,5.52-12.58,5.94
					c-3.5,3.28-3.69,9.18-3.7,9.43l0,0.12l0.92,2.57l0.06,0.07c1.15,1.54,1.04,3.45,0.99,3.91C67.75,50.8,70.14,54.18,71.92,55.64z
					 M73.17,55.03l-0.25-0.19c-0.17-0.13-4.26-3.28-1.87-7.22l0.06-0.1l0.02-0.12c0.02-0.11,0.41-2.71-1.15-4.88l-0.77-2.17
					c0.04-0.8,0.43-5.78,3.32-8.46l0.06-0.06c0.03-0.03,3.02-3.52,11.93-5.55c3.6-0.82,15.66-2.46,19.56,11.01l0.01,0.02
					c0.91,2.84,1.17,5.38,0.78,5.68l-1.1,0.24l0.79,0.8c0.01,0.01,1.43,1.62,1.2,6.62l-0.01,0.14l0.06,0.13
					c0.13,0.32,3.24,7.86-2.95,13.41c-0.11,0.1-9,8.61-20.25,8.35l-2.2-0.43c-0.91-0.76-7.39-6.52-7.24-16.88L73.17,55.03z"/>
			</g>
		</g>
		<g>
			<g>
				<path class="st10" d="M70.39,41.96c0.08-2.51-1.5-7.69,2.86-7.99c5.49-0.38,5.49,0.32,14.24-3.95c5.18-2.53,7.06,6.87,7.06,6.87
					c-0.82,3.69,1.11,6.36,1.11,6.36c3.97,4.06,1.88,5.38,1.88,5.38c-0.88,1.22-2.55,1.43-2.55,1.43l-1.43-0.09
					c-8.73-1.33-17.58,1.89-17.58,1.89c-0.8,0.35-3.07,2.18-3.07,2.18c-0.88-1-1.1-1.65-1.1-1.65c-0.1-2.05,0.91-4.39,0.91-4.39
					C73.91,45.53,70.39,41.96,70.39,41.96z"/>
			</g>
		</g>
		<g>
			<g>
				<path class="st15" d="M70.85,48.35c1.36-3.9-1.31-6.19-1.31-6.19l0.83-0.26c3.01,1.85,2.2,5.24,2.2,5.24
					c-1.13,3.08,1.16,6.46,1.16,6.46l-1.32,0.45C69.25,50.25,70.85,48.35,70.85,48.35z"/>
			</g>
		</g>
		<g>
			<g>
				<path class="st10" d="M77.82,42.47c2.45,2.26,4.68,6.05,4.68,6.05l1.63,0.3c1.97-0.38,3.03,1.49,3.03,1.49
					c0.26,1.52-1.35,0.84-1.35,0.84c-2.56-0.1-3.91,0.9-3.91,0.9c-1.89,1.05-2.38,1.83-2.38,1.83c-2.42-2.01-1.53-5.71-1.53-5.71
					C79.07,44.15,77.82,42.47,77.82,42.47z"/>
			</g>
		</g>
		<g>
			<g>
				<path class="st10" d="M77.96,58.92c7.52-4.38,14.61-2.86,14.61-2.86c3.44-0.34,3.27,1.46,3.27,1.46
					c0.76,4.32-1.18,8.91-1.18,8.91c-1.87,2.62-5.01,2.62-5.01,2.62c-6.1-2.71-8.04,2.06-8.04,2.06c-4.95-3.01-5.78-6.28-5.78-6.28
					C73.69,60.16,77.96,58.92,77.96,58.92z"/>
			</g>
		</g>
		<g>
			<g>
				<path class="st15" d="M74.49,54.39c0-0.05-0.01-0.09-0.01-0.14C74.47,54.25,74.58,54.29,74.49,54.39z"/>
			</g>
			<g>
				<path class="st15" d="M74.49,54.39c1.13,11.6,5.64,15.28,5.64,15.28c2.95,1.07,4.96,1.49,4.96,1.49
					c3.69-0.32,2.84,0.83,2.84,0.83c-4.54,1.39-7.43-0.2-7.43-0.2c-8.58-8.32-7.19-16.83-7.19-16.83
					C74.1,54.67,74.39,54.5,74.49,54.39z"/>
			</g>
		</g>
		<g>
			<g>
				<g>
					<path class="st9" d="M106.79,37.93c0,0,4.17,2.63,2.71,7.51c0,0-0.78,2.16-2.73,3.73c0,0-1.57,1.45-3.41,1.72l-2.81-5.09
						c-0.16-3.11,0.42-4.51,0.42-4.51S102.19,37.36,106.79,37.93z"/>
				</g>
				<g>
					<path class="st2" d="M106.86,37.31l0.14,0.02l0.12,0.07c0.05,0.03,4.56,2.94,2.98,8.22l-0.01,0.03
						c-0.03,0.09-0.86,2.33-2.91,3.99c-0.17,0.15-1.5,1.32-3.18,1.75c-0.18,0.05-0.36,0.08-0.54,0.11l-0.18-1.23
						c1.62-0.24,3.07-1.55,3.08-1.56l0.03-0.03c1.7-1.37,2.46-3.26,2.53-3.44c1.18-3.97-1.72-6.27-2.34-6.71
						c-3.89-0.4-4.97,2.81-5.01,2.95l-0.02,0.05c-0.01,0.01-0.52,1.35-0.37,4.24l-1.24,0.06c-0.16-3.06,0.38-4.56,0.45-4.76
						C100.52,40.67,102.04,36.72,106.86,37.31z"/>
				</g>
			</g>
			<g>
				<g>
					<path class="st10" d="M105.91,39.92c0,0,3.92,2.8-0.22,7.9c0,0-3.87,2.94-2.85-5.09C102.84,42.74,103.4,39.8,105.91,39.92z"/>
				</g>
			</g>
			<g>
				<g>
					<g>
						<path class="st2" d="M102.62,42.88c0.1-0.26,0.23-0.5,0.42-0.71c0.2-0.2,0.4-0.4,0.63-0.57l0.16-0.13
							c0.06-0.04,0.12-0.08,0.18-0.11c0.12-0.07,0.24-0.15,0.38-0.2c0.26-0.11,0.54-0.19,0.82-0.21c0.56-0.04,1.1,0.07,1.55,0.35
							l-0.05,0.11c-0.47-0.08-0.96-0.03-1.36,0.15c-0.4,0.16-0.73,0.44-0.99,0.77c-0.28,0.33-0.35,0.78-0.64,1.12
							c-0.12,0.19-0.27,0.37-0.44,0.55c-0.16,0.19-0.33,0.38-0.58,0.56l-0.12-0.04c-0.09-0.28-0.12-0.56-0.12-0.84
							C102.48,43.41,102.54,43.15,102.62,42.88z"/>
					</g>
				</g>
				<g>
					<g>
						<path class="st2" d="M104.7,42.02c0.28,0.17,0.54,0.37,0.77,0.62c0.22,0.25,0.39,0.54,0.47,0.85
							c0.09,0.31,0.05,0.63-0.01,0.91c-0.04-0.29-0.11-0.57-0.27-0.79c-0.16-0.22-0.36-0.38-0.58-0.5
							c-0.22-0.12-0.48-0.19-0.73-0.24c-0.25-0.05-0.53-0.08-0.74-0.06l0.18-1.23C104.14,41.71,104.41,41.85,104.7,42.02z"/>
					</g>
				</g>
			</g>
		</g>
		<g>
			<g>
				<path class="st11" d="M73.38,25.04c3.54-3.14,9.9-4.81,9.9-4.81c10-1.94,13.28,3.06,13.28,3.06c2.45-5.39,5.33-1.74,5.33-1.74
					c4.14-1.38,6.07,2.23,6.07,2.23c2.38,2.86,0.05,4.85,0.05,4.85c0.9,4.26-4.44,5.63-4.44,5.63c-4.31-7.53-8.75-7.69-8.75-7.69
					c-7.34-2.28-14.34,3.98-14.34,3.98c-4.86,3.45-7.3,0.05-7.3,0.05C71.31,27.93,73.38,25.04,73.38,25.04z"/>
			</g>
			<g>
				<path class="st2" d="M72.69,30.96c0.03,0.04,2.86,3.86,8.16,0.09l0.05-0.04c0.07-0.06,6.83-5.99,13.74-3.85l0.08,0.02l0.08,0
					c0.04,0,4.18,0.3,8.23,7.38l0.24,0.41l0.46-0.12c1.98-0.51,5.48-2.42,4.95-6.02c0.89-0.97,1.74-3.03-0.21-5.41
					c-0.75-1.35-2.96-3.47-6.3-2.6c-0.03,0.01-0.06,0.01-0.09,0.02c-0.48-0.47-1.49-1.26-2.74-1.11c-1.11,0.14-2.09,0.96-2.92,2.44
					c-1.42-1.41-5.31-4.11-13.26-2.56l-0.02,0l-0.02,0.01c-0.27,0.07-6.55,1.74-10.16,4.94l-0.05,0.05l-0.04,0.06
					C72.78,24.81,70.57,27.96,72.69,30.96z M73.85,25.46c3.31-2.89,9.2-4.52,9.57-4.62c9.46-1.83,12.59,2.75,12.62,2.79l0.62,0.94
					l0.47-1.03c0.72-1.58,1.53-2.47,2.37-2.57c1.03-0.13,1.91,0.95,1.92,0.96l0.27,0.34l0.41-0.13c0.13-0.04,0.27-0.08,0.39-0.12
					c3.3-0.85,4.86,1.92,4.93,2.05l0.07,0.1c1.97,2.37,0.2,3.91,0.13,3.98l-0.28,0.24l0.08,0.36c0.63,2.99-2.37,4.35-3.54,4.76
					c-4.06-6.83-8.23-7.5-8.92-7.57c-7.41-2.25-14.28,3.61-14.84,4.1c-4.25,3-6.32,0.29-6.41,0.18
					C72.21,28.13,73.59,25.85,73.85,25.46z"/>
			</g>
		</g>
		<g>
			<g>
				<path class="st16" d="M74.13,25.49c8.19-5.96,16.21-4.51,16.21-4.51c-2.24,0.48-3.22,1.81-3.22,1.81
					c-1.87,2.76-5.6,3.05-5.6,3.05c1.92,1.94-1.08,1.83-1.08,1.83c1.2,1.9-1.22,2.64-1.22,2.64c-0.92,2.56-5.43,0.1-5.43,0.1
					C71.9,28.75,74.13,25.49,74.13,25.49z"/>
			</g>
		</g>
		<g>
			<g>
				<path class="st16" d="M98.29,21.69c1.7-1.76,3.25,0.73,3.25,0.73c2.43-0.81,3.95,0.16,3.95,0.16c3.37,1.4,1.54,3.63,1.54,3.63
					c-0.7,2.83-3.27,0.52-3.27,0.52c0.47,2.24-2.64,0.57-2.64,0.57c-0.62-1.98-4.3-2.95-4.3-2.95
					C97.1,22.15,98.29,21.69,98.29,21.69z"/>
			</g>
		</g>
		<g>
			<g>
				<path class="st17" d="M74.13,25.49c8.92-6.04,15.01-4.63,15.01-4.63c-6.99,0.5-10.48,3.73-10.48,3.73
					c5.19,0,3.36,1.71,3.36,1.71c-2.48-2.02-6.19,0.17-6.19,0.17c-3.2,1.92-0.92,4.58-0.92,4.58C71.09,28.3,74.13,25.49,74.13,25.49
					z"/>
			</g>
		</g>
		<g>
			<g>
				<path class="st17" d="M101.19,22.15c3.73-0.91,4.68,0.66,4.68,0.66c-2.47-1.2-4.92,0.9-4.92,0.9c-2.42-2.73-3,1.84-3,1.84
					c-0.29-0.62-1.13-1.19-1.13-1.19C98.41,18.71,101.19,22.15,101.19,22.15z"/>
			</g>
		</g>
		<g>
			<g>
				<path class="st2" d="M91.56,60.16c-0.62-0.19-1.25-0.3-1.88-0.39c-0.63-0.09-1.27-0.14-1.9-0.15c-0.64-0.02-1.28,0.01-1.93,0.08
					c-0.65,0.08-1.3,0.19-1.97,0.44l-0.05,0.02l-0.05,0.02c-0.2,0.11-0.48,0.22-0.73,0.32c-0.26,0.1-0.52,0.18-0.78,0.26
					c-0.53,0.15-1.06,0.25-1.59,0.26l-0.14,0l-0.01,0c-0.33,0.1-0.58,0.21-0.84,0.35c-0.26,0.14-0.5,0.3-0.73,0.48
					c-0.45,0.36-0.83,0.8-1.08,1.29c0.24-0.14,0.47-0.27,0.71-0.38c0.24-0.11,0.48-0.21,0.72-0.29c0.24-0.08,0.48-0.15,0.72-0.2
					c0.23-0.05,0.5-0.1,0.69-0.1l-0.15,0.01c0.34,0.05,0.68,0.09,1.01,0.07c0.34-0.01,0.67-0.04,1-0.11
					c0.33-0.06,0.65-0.14,0.96-0.25c0.32-0.1,0.6-0.22,0.94-0.38l-0.09,0.04c0.5-0.18,1.08-0.31,1.67-0.42
					c0.58-0.12,1.19-0.21,1.79-0.31l1.84-0.29C90.31,60.4,90.93,60.31,91.56,60.16z"/>
			</g>
			<g>
				<path class="st2" d="M87.29,63.39c-0.47-0.19-0.97-0.25-1.45-0.26c-0.49,0-0.98,0.06-1.45,0.17c-0.47,0.12-0.94,0.29-1.37,0.52
					c-0.43,0.23-0.83,0.53-1.17,0.91c0.51-0.04,0.96-0.15,1.41-0.24c0.45-0.1,0.89-0.2,1.33-0.31c0.44-0.11,0.88-0.22,1.33-0.35
					C86.38,63.71,86.82,63.57,87.29,63.39z"/>
			</g>
		</g>
		<g>
			<g>
				<path class="st15" d="M76.49,46.17c-0.33-1.34-3.54-3.27-5.32,0.01c0,0-1.22,2.57,1.29,3.45c0,0,1.92-0.23,2.87-0.65
					C75.33,48.97,77.07,48.48,76.49,46.17z"/>
			</g>
			<g>
				<path class="st2" d="M77.92,47.54c-0.04-0.55-0.19-1.09-0.4-1.61c-0.21-0.52-0.49-1.03-0.9-1.47c-0.21-0.22-0.45-0.43-0.73-0.59
					c-0.31-0.18-0.57-0.26-0.87-0.35c-0.58-0.15-1.21-0.22-1.84-0.1c-0.63,0.12-1.24,0.42-1.71,0.87c-0.11,0.12-0.23,0.23-0.32,0.35
					c-0.09,0.12-0.18,0.25-0.27,0.38c-0.21,0.33-0.28,0.62-0.34,0.92c-0.22,1.2,0.11,2.35,0.67,3.29c-0.06-1.09-0.05-2.15,0.29-3.02
					c0.04-0.11,0.09-0.21,0.14-0.31c0.05-0.1,0.1-0.18,0.15-0.23c0.08-0.08,0.15-0.17,0.23-0.25c0.08-0.08,0.17-0.14,0.25-0.22
					c0.34-0.27,0.71-0.44,1.13-0.52c0.42-0.09,0.88-0.06,1.33,0.02c0.22,0.04,0.47,0.1,0.64,0.18c0.1,0.04,0.19,0.08,0.28,0.14
					c0.1,0.05,0.19,0.12,0.28,0.19c0.38,0.27,0.72,0.65,1.04,1.05C77.32,46.65,77.61,47.09,77.92,47.54z"/>
			</g>
			<g>
				<g>
					<path class="st15" d="M90.89,45.38c0,0,1.07-0.39,1.38-0.51c0.39-0.15,0.87-0.5,0.86-1.11c0,0-1.48-3.59-4.07-3.54
						c-1.47,0.03-3.97,0.71-3.34,4.48l0.06,0.24C85.78,44.93,86.15,47.05,90.89,45.38z"/>
				</g>
				<g>
					<path class="st2" d="M93.13,43.76c-0.05-0.57-0.22-1.12-0.45-1.65c-0.23-0.53-0.55-1.04-1-1.48c-0.22-0.22-0.5-0.41-0.79-0.57
						c-0.32-0.15-0.59-0.23-0.9-0.31c-0.6-0.13-1.24-0.18-1.88-0.06c-0.63,0.12-1.26,0.41-1.75,0.83l-0.35,0.34
						c-0.11,0.12-0.2,0.25-0.29,0.37c-0.05,0.07-0.09,0.11-0.15,0.22c-0.05,0.08-0.08,0.16-0.12,0.24
						c-0.06,0.15-0.11,0.31-0.15,0.46c-0.3,1.24,0.01,2.45,0.59,3.41c-0.03-0.57-0.06-1.11-0.01-1.64c0.05-0.52,0.16-1.02,0.36-1.45
						c0.05-0.11,0.1-0.21,0.16-0.3c0.03-0.05,0.06-0.09,0.08-0.12c0.01-0.01,0.07-0.07,0.1-0.11c0.08-0.08,0.16-0.17,0.25-0.25
						l0.27-0.22c0.37-0.26,0.78-0.44,1.23-0.52c0.45-0.09,0.93-0.08,1.41-0.01c0.23,0.03,0.5,0.09,0.69,0.15
						c0.2,0.08,0.41,0.17,0.6,0.31c0.4,0.26,0.77,0.63,1.11,1.04C92.51,42.84,92.82,43.29,93.13,43.76z"/>
				</g>
				<g>
					<g>
						<path class="st2" d="M86.44,43.77c0,1.08,0.82,1.96,1.84,1.97c1.02,0.01,1.84-0.86,1.84-1.94c0-1.08-0.82-1.96-1.84-1.97
							C87.27,41.83,86.44,42.69,86.44,43.77z"/>
					</g>
					<g>
						<path class="st15" d="M90.26,44.04c0-0.4-0.3-0.73-0.67-0.74c-0.37,0-0.67,0.32-0.67,0.73c0,0.4,0.3,0.73,0.67,0.74
							C89.95,44.77,90.26,44.44,90.26,44.04z"/>
					</g>
				</g>
			</g>
			<g>
				<g>
					<path class="st2" d="M71.35,47.37c0,0.98,0.75,1.78,1.67,1.79c0.92,0.01,1.67-0.78,1.67-1.76c0-0.98-0.75-1.78-1.67-1.78
						C72.1,45.61,71.35,46.4,71.35,47.37z"/>
				</g>
				<g>
					<path class="st15" d="M74.81,47.62c0-0.37-0.27-0.66-0.61-0.67c-0.34,0-0.61,0.29-0.61,0.66c0,0.37,0.27,0.67,0.61,0.67
						C74.53,48.28,74.81,47.98,74.81,47.62z"/>
				</g>
			</g>
			<g>
				<g>
					<g>
						<path class="st11" d="M94.83,37.54c0,0-2.98-3.03-6.94-3.27c-2.02-0.12-2.69,0.39-5.54,4.96c-0.27,0.43-0.81,0.74-2.16,0.63
							c-0.58-0.05-1.62,0.97,1.16,2.07c0,0,2.69,0.37,3.34-1.11c0,0,3.09-4.35,6.8-2.16C91.49,38.65,95.27,40.38,94.83,37.54z"/>
						<path class="st2" d="M81.27,42.54l-0.07-0.01l-0.07-0.03c-2.08-0.82-2.35-1.71-2.21-2.32c0.15-0.64,0.8-0.99,1.32-0.95
							c0.87,0.07,1.4-0.05,1.59-0.34c2.74-4.39,3.63-5.4,6.11-5.25c4.15,0.25,7.22,3.32,7.35,3.45l0.14,0.14l0.03,0.2
							c0.17,1.13-0.23,1.7-0.61,1.98c-1.13,0.85-3.21-0.03-3.61-0.21l-0.06-0.03c-3.01-1.78-5.61,1.5-5.94,1.95
							c-0.6,1.26-2.21,1.46-3.19,1.46C81.61,42.59,81.31,42.55,81.27,42.54z M91.78,38.1c0.73,0.33,1.93,0.63,2.32,0.34
							c0.15-0.11,0.16-0.38,0.15-0.6c-0.63-0.58-3.19-2.75-6.39-2.94c-1.61-0.1-2.1,0.05-4.98,4.67c-0.61,0.97-1.85,0.99-2.72,0.92
							c0,0,0,0,0,0c0.08,0.12,0.36,0.44,1.35,0.84c0.64,0.07,2.26,0.06,2.62-0.76l0.06-0.11c0.89-1.25,2.85-3.03,5.18-3.03
							C90.14,37.42,90.95,37.62,91.78,38.1z"/>
					</g>
					<g>
						<path class="st16" d="M91.41,36.84c0,0-2.17-1.91-4.87-1.88c-1.38,0.02-1.88,0.95-3.59,4.21c-0.16,0.3-1.46,1.04-2.38,1.04
							c-0.4,0,0.16,1.16,2.13,0.94c0,0,1.45,0.26,2-1.57c0,0,2.26-2.92,5.43-2.12C90.13,37.46,92.56,38.57,91.41,36.84z"/>
					</g>
					<g>
						<path class="st17" d="M82.06,39.92c0,0-1.6-0.28-1.69,0.71c0,0,0.91,1.43,3.26,0.49c0,0,1.28-0.9,0.35-1.07
							c0,0-0.65,0.38-1.61,0.47C82.36,40.53,81.62,40.58,82.06,39.92z"/>
					</g>
				</g>
				<g>
					<g>
						<path class="st11" d="M72.95,41c0,0,0.89,0.51,1.64,0.26c0.32-0.11,0.49-0.78,1.24-0.6c0,0,1.51,1.98-1.24,2.85
							c0,0-1.51,0.28-2.19-0.21c0,0-1.14-0.85-3-0.1c0,0-2.4,1.54-2.39-0.63c0,0-0.2-3.85,3.47-2.84C70.5,39.73,71.9,40.51,72.95,41
							z"/>
						<path class="st2" d="M67.16,44.18c-0.35-0.19-0.76-0.62-0.76-1.59c-0.01-0.23-0.04-2.08,1.18-3.06
							c0.76-0.61,1.79-0.74,3.07-0.39l0.07,0.02l0.07,0.04c0.01,0.01,1.4,0.78,2.41,1.25l0.04,0.02c0.17,0.09,0.71,0.32,1.09,0.22
							c0.03-0.03,0.05-0.06,0.08-0.09c0.22-0.24,0.69-0.74,1.55-0.54l0.22,0.05l0.14,0.18c0.08,0.11,0.79,1.08,0.45,2.16
							c-0.24,0.76-0.91,1.32-2,1.66l-0.07,0.02c-0.3,0.05-1.81,0.3-2.67-0.32c-0.01-0.01-0.88-0.61-2.34-0.04
							c-0.27,0.16-1.04,0.59-1.79,0.59C67.65,44.35,67.4,44.3,67.16,44.18z M72.77,42.8c0.31,0.22,1.16,0.2,1.67,0.11
							c0.46-0.15,1.01-0.41,1.15-0.83c0.09-0.27-0.01-0.57-0.11-0.78c-0.04,0.03-0.08,0.08-0.15,0.15c-0.13,0.14-0.3,0.32-0.55,0.41
							c-0.93,0.32-1.93-0.18-2.12-0.29c-0.94-0.44-2.11-1.08-2.4-1.25c-0.83-0.22-1.47-0.16-1.89,0.18
							c-0.65,0.52-0.74,1.66-0.72,2.05l0,0.02l0,0.02c0,0.35,0.07,0.49,0.12,0.51c0.18,0.1,0.82-0.1,1.31-0.41l0.1-0.05
							c0.65-0.26,1.22-0.35,1.72-0.35C72.05,42.28,72.74,42.78,72.77,42.8z"/>
					</g>
					<g>
						<path class="st16" d="M71.19,40.75c0,0,1.09,0.58,2.18,1.2c0,0,1,0.21-0.54,0.87c0,0-1.65,0.04-2.09-0.31
							c0,0-0.58-0.24-1.6,0.31c0,0-1.12,0.7-1.31-0.87c0,0,0.26-2.07,1.89-1.74C69.71,40.21,70.24,40.09,71.19,40.75z"/>
					</g>
					<g>
						<path class="st17" d="M68.3,40.42c0,0-1.23,0.28-0.64,2.51c0,0,0.84,0.69,1.36-0.3c0,0-1.34-2.09,1.23-2.34
							C70.26,40.3,68.45,39.94,68.3,40.42z"/>
					</g>
				</g>
			</g>
		</g>
		<g>
			<g>
				<g>
					<path class="st17" d="M77.85,42.95c2.17,1.85,1.42,5.21,1.42,5.21c-1.35,4.98,1.1,5.28,1.1,5.28
						c-1.17,1.21-2.36,1.75-2.36,1.75c-2.26-3.81-0.13-7.55-0.13-7.55C79.01,43.92,77.85,42.95,77.85,42.95z"/>
				</g>
			</g>
			<g>
				<g>
					<path class="st2" d="M86.78,53.51c0.04-0.01,0.08-0.02,0.13-0.04c0.04,0.01,0.09,0.01,0.13,0.02L86.78,53.51z"/>
				</g>
				<g>
					<path class="st2" d="M75.71,51.46l0,0.06c0.05-1,0.26-1.94,0.51-2.85c0.25-0.92,0.59-1.79,0.97-2.66l0.08-0.17l0.07-0.14
						c0.05-0.09,0.08-0.19,0.12-0.28c0.06-0.19,0.13-0.39,0.16-0.59c0.07-0.41,0.06-0.84-0.04-1.26c-0.18-0.85-0.61-1.67-1.2-2.39
						c0.73,0.57,1.34,1.33,1.7,2.24c0.17,0.46,0.27,0.96,0.26,1.47c-0.01,0.25-0.04,0.51-0.1,0.76c-0.03,0.12-0.06,0.25-0.11,0.37
						l-0.06,0.18l-0.05,0.15c-0.27,0.85-0.49,1.73-0.67,2.61c-0.18,0.87-0.27,1.75-0.27,2.6l0,0.06c-0.02,0.46,0.01,0.99,0.07,1.47
						c0.06,0.49,0.17,0.96,0.33,1.39c0.16,0.43,0.38,0.81,0.66,1.08c0.14,0.14,0.29,0.25,0.46,0.34c0.15,0.08,0.32,0.13,0.5,0.17
						c-0.02,0-0.04,0-0.05,0l0.1,0.01c-0.02,0-0.03-0.01-0.04-0.01c0.1,0,0.25,0,0.38-0.01c0.16-0.01,0.32-0.03,0.47-0.05
						c0.32-0.05,0.63-0.12,0.93-0.22c0.61-0.2,1.18-0.48,1.69-0.86c0.13-0.09,0.25-0.19,0.37-0.3c0.06-0.05,0.11-0.1,0.17-0.15
						l0.04-0.04l0.08-0.08c0.05-0.05,0.1-0.09,0.15-0.12c0.39-0.3,0.79-0.48,1.2-0.6c0.79-0.23,1.58-0.24,2.32-0.13
						c-0.05,0.02-0.09,0.03-0.13,0.04l0.26-0.02c-0.04-0.01-0.09-0.01-0.13-0.02c0.1-0.03,0.21-0.07,0.3-0.11
						c0.15-0.06,0.29-0.14,0.42-0.22c0.26-0.16,0.47-0.36,0.58-0.58c0.11-0.21,0.16-0.46,0.1-0.74c-0.05-0.28-0.19-0.58-0.37-0.86
						c0.01,0.01,0.02,0.02,0.03,0.03l-0.04-0.04c0,0.01,0.01,0.01,0.01,0.02c-0.25-0.27-0.58-0.55-0.91-0.79
						c-0.35-0.24-0.73-0.44-1.14-0.58c-0.4-0.14-0.83-0.23-1.27-0.24c-0.44-0.01-0.89,0.05-1.33,0.16c0.4-0.21,0.85-0.37,1.31-0.44
						c0.46-0.07,0.95-0.06,1.42,0.02c0.47,0.09,0.93,0.25,1.37,0.46c0.44,0.22,0.83,0.47,1.22,0.83l0,0l0.03,0.04
						c0.26,0.32,0.49,0.69,0.63,1.13c0.15,0.44,0.15,0.99-0.05,1.46c-0.2,0.47-0.55,0.83-0.9,1.1c-0.18,0.13-0.37,0.25-0.56,0.35
						c-0.2,0.1-0.37,0.19-0.62,0.27l-0.09,0.03l-0.17-0.01c-0.65-0.05-1.3-0.01-1.85,0.19c-0.27,0.1-0.53,0.24-0.71,0.39
						c-0.02,0.02-0.04,0.04-0.06,0.05l-0.01,0.02l-0.06,0.06c-0.07,0.08-0.15,0.16-0.22,0.23c-0.15,0.14-0.3,0.28-0.46,0.4
						c-0.64,0.51-1.37,0.9-2.13,1.16c-0.39,0.13-0.78,0.22-1.18,0.29c-0.2,0.03-0.4,0.06-0.61,0.07c-0.21,0.01-0.39,0.02-0.66,0.01
						l-0.05,0l-0.05-0.01c-0.33-0.07-0.66-0.18-0.98-0.34c-0.31-0.17-0.59-0.38-0.84-0.63c-0.48-0.5-0.79-1.09-0.99-1.67
						c-0.2-0.59-0.3-1.18-0.35-1.76C75.64,52.63,75.65,52.07,75.71,51.46z"/>
				</g>
				<g>
					<path class="st2" d="M79.04,56.05c0.02,0,0.03,0,0.05,0c0.02,0,0.03,0.01,0.04,0.01L79.04,56.05z"/>
				</g>
				<g>
					<path class="st2" d="M87.96,50.99c-0.01-0.01-0.02-0.02-0.03-0.03c0,0-0.01-0.01-0.01-0.02L87.96,50.99z"/>
				</g>
			</g>
		</g>
	</g>
	<g>
		<g>
			<g>
				<path class="st9" d="M48.95,86.26c-0.59-2.53,0.45-3.91,0.45-3.91l0.31-3.7c3.12-3.78,7.71-0.84,7.71-0.84l2.49-0.05l1.69,0.88
					c2.36,1.81,0.6,7.9,0.6,7.9c-1.93,2.34-5.1,1.2-5.1,1.2c-1.42,1.9-3.09,0.14-3.09,0.14c-1.09,2.35-3.71-0.04-3.71-0.04
					L48.95,86.26z"/>
			</g>
			<g>
				<path class="st2" d="M49.88,88.32c0.17,0.15,1.68,1.48,3.12,1.19c0.34-0.07,0.78-0.25,1.16-0.7c0.39,0.25,0.93,0.48,1.56,0.45
					c0.59-0.03,1.13-0.3,1.59-0.79c1.01,0.25,3.6,0.62,5.36-1.51l0.08-0.1l0.04-0.12c0.19-0.67,1.8-6.55-0.82-8.57l-0.09-0.06
					l-1.83-0.96l-2.46,0.05c-1.82-1.09-5.7-2.16-8.36,1.07l-0.12,0.15l-0.31,3.73c-0.29,0.48-0.99,1.96-0.45,4.26l0.03,0.14
					L49.88,88.32z M50.75,87.43l-1.22-1.45c-0.44-2.09,0.34-3.21,0.38-3.26l0.1-0.14l0.02-0.18l0.29-3.5
					c2.73-3.1,6.6-0.67,6.77-0.57l0.16,0.1l2.52-0.05l1.5,0.78c1.56,1.28,0.83,5.42,0.38,7.08c-1.64,1.85-4.3,0.93-4.32,0.92
					l-0.43-0.16l-0.28,0.37c-0.3,0.41-0.62,0.61-0.95,0.63c-0.61,0.04-1.19-0.54-1.19-0.55l-0.63-0.66l-0.39,0.83
					c-0.27,0.57-0.58,0.64-0.68,0.66C52.07,88.43,51.08,87.72,50.75,87.43z"/>
			</g>
		</g>
		<g>
			<g>
				<g>
					<g>
						<path class="st2" d="M56.94,80.57c-0.07,0.16-0.14,0.33-0.23,0.49c-0.11-0.15-0.22-0.31-0.32-0.49L56.94,80.57z"/>
					</g>
					<g>
						<path class="st2" d="M53.93,80.75c0.07,0.04,0.2,0.1,0.31,0.15c0.11,0.04,0.23,0.09,0.35,0.11c0.24,0.06,0.47,0.09,0.7,0.07
							c0.23-0.02,0.43-0.09,0.62-0.22c0.2-0.12,0.34-0.32,0.48-0.54l0.37-0.56l0.17,0.57c0.07,0.22,0.18,0.46,0.3,0.68
							c0.13,0.22,0.27,0.43,0.45,0.61c0.18,0.18,0.38,0.34,0.61,0.45c0.23,0.12,0.49,0.17,0.76,0.19c-0.27,0.03-0.54,0.03-0.81-0.05
							c-0.27-0.08-0.52-0.2-0.75-0.37c-0.23-0.17-0.43-0.36-0.62-0.58c-0.06-0.07-0.12-0.14-0.17-0.22
							c0.09-0.16,0.17-0.32,0.23-0.49l-0.55-0.01c0.1,0.18,0.2,0.34,0.32,0.49c-0.08,0.14-0.17,0.27-0.3,0.38
							c-0.25,0.25-0.58,0.45-0.93,0.54c-0.34,0.1-0.7,0.12-1.04,0.1c-0.17-0.01-0.34-0.03-0.5-0.06c-0.17-0.03-0.32-0.06-0.52-0.13
							L53.93,80.75z"/>
					</g>
				</g>
			</g>
		</g>
		<g>
			<g>
				<path class="st4" d="M26.85,78.77c0,0,6.45,1.6,19.62,1.64c0,0,5.05-0.14,7.79,0.76c0,0,3.25,0.89,15.18,0.74
					c0,0,2.98,3.32-0.62,6.4c0,0-6.32-1.37-15.06-2c0,0-8.62-0.13-12.87-1.32c0,0-25.09-3.03-35.31-3.1c0,0-2.24-3.6,0.47-4.06
					c0,0,3.71-0.51,14.58,0.62C20.64,78.46,23.32,78.04,26.85,78.77z"/>
				<path class="st2" d="M68.73,88.77c-0.06-0.01-6.4-1.37-14.97-1.99c-0.35-0.01-8.68-0.15-12.96-1.33
					c-1.07-0.13-25.32-3.02-35.23-3.09l-0.26,0l-0.14-0.22c-0.14-0.23-1.39-2.3-0.76-3.69c0.18-0.4,0.6-0.91,1.57-1.08
					c0.15-0.02,3.88-0.5,14.64,0.61c0.44-0.06,3-0.36,6.32,0.33l0.02,0c0.06,0.02,6.55,1.58,19.5,1.63
					c0.21-0.01,5.16-0.13,7.92,0.77c0.03,0.01,3.39,0.87,15.06,0.73l0.21,0l0.14,0.16c0.06,0.06,1.4,1.59,1.27,3.6
					c-0.09,1.27-0.74,2.44-1.93,3.46l-0.18,0.15L68.73,88.77z M54.12,81.61c-2.63-0.86-7.58-0.74-7.64-0.73
					c-12.83-0.04-19.42-1.58-19.72-1.65c-3.4-0.7-6.02-0.31-6.05-0.31l-0.06,0.01l-0.06-0.01C9.93,77.82,6.15,78.3,6.13,78.3
					c-0.45,0.08-0.73,0.25-0.86,0.54c-0.31,0.7,0.24,1.97,0.58,2.6c10.3,0.12,34.85,3.07,35.1,3.1l0.07,0.01
					c4.15,1.15,12.67,1.3,12.78,1.3c7.74,0.55,13.67,1.71,14.89,1.96c0.89-0.81,1.37-1.7,1.44-2.65c0.09-1.29-0.61-2.38-0.91-2.77
					C57.55,82.51,54.28,81.66,54.12,81.61z"/>
			</g>
			<g>
				<path class="st5" d="M5.62,81.49l4.53,0.04c0,0,0.3-1.93-3.2-2.28C6.95,79.24,4.67,79.05,5.62,81.49z"/>
			</g>
			<g>
				<path class="st12" d="M8.89,77.6c0,0-2.52,3.13,1.42,6.09c0,0,0.55,4.57-5.78,22.38c0,0-1.36,2.25,3.82,3.99
					c0,0,5.72,2.55,13.3,0.3c0,0,2.17-0.9,0.9-6.61c0,0-1.53-11.37-0.76-20.09c0,0-2.1-1.95,0.13-5.07c0,0-0.1-3.43-4.17-2.94
					c0,0-0.21-2.48,1.28-9.43c0,0-1.17-0.67-5.14-0.92c0,0-1.78-0.59-0.5,4.54c0,0-0.33,6.18-1.55,5.69
					C11.84,75.53,9.42,75.67,8.89,77.6z"/>
				<path class="st2" d="M8.13,110.64c-2.35-0.8-3.77-1.83-4.23-3.06c-0.32-0.87-0.05-1.54,0.06-1.76C9.35,90.65,9.7,85.14,9.7,84
					c-1.3-1.04-2.03-2.21-2.19-3.5c-0.2-1.59,0.56-2.82,0.82-3.18c0.7-2.22,3.36-2.4,3.48-2.41l0.08,0
					c0.35-0.52,0.75-2.75,0.88-5.01c-0.65-2.66-0.61-4.22,0.14-4.91c0.36-0.33,0.79-0.37,1.09-0.31c3.95,0.25,5.22,0.92,5.35,0.99
					l0.39,0.23l-0.1,0.44c-1.05,4.88-1.25,7.54-1.27,8.64c1.19-0.03,2.16,0.28,2.89,0.91c1.22,1.05,1.28,2.62,1.28,2.68l0.01,0.21
					l-0.12,0.17c-1.87,2.6-0.28,4.19-0.22,4.25l0.22,0.21l-0.03,0.3c-0.73,8.36,0.67,19.32,0.75,19.93c1.33,6.03-1,7.18-1.27,7.29
					l-0.06,0.02c-2.4,0.71-4.61,0.96-6.53,0.96C11.21,111.91,8.47,110.79,8.13,110.64z M21.94,103.88l-0.01-0.05
					c-0.02-0.11-1.5-11.31-0.79-19.97c-0.53-0.67-1.73-2.68,0.13-5.44c-0.05-0.34-0.23-1.08-0.83-1.59c-0.6-0.51-1.48-0.7-2.62-0.57
					l-0.64,0.08l-0.06-0.64c-0.01-0.1-0.19-2.53,1.18-9.1c-0.61-0.2-1.95-0.52-4.46-0.68l-0.08,0l-0.03-0.01
					c-0.06,0.07-0.51,0.72,0.25,3.79l0.02,0.09l0,0.09c-0.11,2.01-0.45,5.48-1.51,6.15c-0.22,0.14-0.47,0.19-0.72,0.14
					c-0.4,0.05-1.94,0.32-2.29,1.6l-0.03,0.12l-0.08,0.1c-0.01,0.01-0.8,1.03-0.63,2.36c0.13,1.02,0.78,1.97,1.94,2.85l0.21,0.16
					l0.03,0.26c0.02,0.19,0.5,4.92-5.81,22.67l-0.05,0.1c-0.01,0.01-0.18,0.34,0.01,0.81c0.19,0.48,0.9,1.42,3.47,2.29l0.05,0.02
					c0.06,0.02,5.59,2.41,12.81,0.29C21.6,109.65,22.98,108.56,21.94,103.88z"/>
			</g>
			<g>
				<path class="st15" d="M10.46,91.34c0,0-1.79,6.16-5.05,15.43c0,0,1.28,5.94,15.89,2.71c0,0,1.29-1.17,0.53-3.9
					c0,0-1.67-2.99-1.45-14.15C20.37,91.43,16.45,95.08,10.46,91.34z"/>
			</g>
			<g>
				<path class="st14" d="M10.4,78.99c0,0,2.67,1.22,8.1,0.79c0,0-0.46,1.73,1.4,3.45c0,0-0.26,0.9-8.68,0.12
					C11.21,83.35,8.92,82.87,10.4,78.99z"/>
			</g>
			<g>
				<path class="st14" d="M14.22,66.16c0,0-1.09,0.87,2.53,1.5c0,0-1.47,5.07-0.84,8.64l0.81,0.08c0,0,0.33-2.15,1.57-8.99
					C18.29,67.39,18.83,66.33,14.22,66.16z"/>
			</g>
			<g>
				<path class="st15" d="M9.28,78.05c0,0-1.87,2.79,1.5,5.26c0,0-1.5-4.43,0.43-3.82c1.39,0.44,4.35,1.04,7.24,0.7
					c0,0,0.07-1.12,0.62-1.89c0,0-4.35-0.5-7.08-1.34C11.99,76.97,10.38,76.18,9.28,78.05z"/>
			</g>
			<g>
				<path class="st14" d="M19.25,85.43c0,0-1.3,2.97,1.06,15.43c0,0-2.27,1.7-7.36,1.35c0,0,0.77,1.6,7.59,0.74
					c0,0,0.05,1.54,1.3,4.44c0,0,0.11,0.03-0.01-1.8c0,0-2.1-10.32-1-21.3C20.82,84.29,19.69,83.67,19.25,85.43z"/>
			</g>
			<g>
				<path class="st5" d="M21.74,81.82c0,0,0.38-1.42,1.68-1.56c0,0,13.6,1.86,23.43,2.28c0,0,5.06-0.08,10.98,1.07
					c0,0,6.91,0.7,11.02,0.4c0,0,1.29,0.56,0.1,3.08c0,0-12.39-1.93-20.83-1.86c0,0-5.1-0.46-8.4-1.23
					C39.72,83.98,24.78,82.59,21.74,81.82z"/>
			</g>
		</g>
		<g>
			<g>
				<g>
					<path class="st9" d="M48.96,87.45c-1.28-2.17,0.94-5.06,0.94-5.06c-0.42,3.25,3.52,2.06,3.52,2.06
						C51.66,86.74,54,88.78,54,88.78c-1.95,2.15-4.41-0.49-4.41-0.49L48.96,87.45z"/>
				</g>
				<g>
					<path class="st2" d="M49.13,88.71c0.06,0.06,1.45,1.54,3.13,1.53c0.83,0,1.57-0.36,2.19-1.05l0.43-0.47l-0.48-0.42
						c-0.2-0.18-1.85-1.73-0.49-3.49l1.19-1.54l-1.86,0.56c-0.44,0.13-1.84,0.4-2.43-0.11c-0.27-0.23-0.37-0.66-0.29-1.27l0.3-2.29
						l-1.41,1.83c-0.1,0.13-2.46,3.25-0.98,5.75l0.04,0.06L49.13,88.71z M50.06,87.89l-0.58-0.78c-0.52-0.92-0.27-2.04,0.1-2.91
						c0.11,0.19,0.25,0.35,0.42,0.49c0.64,0.54,1.54,0.63,2.28,0.58c-0.43,1.39,0.16,2.66,0.82,3.47c-0.26,0.17-0.54,0.26-0.84,0.26
						C51.22,89.01,50.22,88.04,50.06,87.89z"/>
				</g>
			</g>
			<g>
				<g>
					<path class="st9" d="M53.2,84.71c0.9-1.76,3.78-2.02,3.78-2.02c1.62,0.31,0.71,3.03,0.71,3.03c-1.06,2.87,0.56,3.03,0.56,3.03
						c-2.24,2.34-4.06,0.18-4.06,0.18C51.77,86.25,53.2,84.71,53.2,84.71z"/>
				</g>
				<g>
					<path class="st2" d="M53.72,89.34c0.1,0.12,0.98,1.08,2.3,1.12c0.94,0.03,1.84-0.4,2.68-1.28l0.88-0.92l-1.27-0.13l0,0l0,0l0,0
						c0,0-0.15-0.04-0.25-0.21c-0.1-0.17-0.27-0.7,0.21-1.99c0.07-0.21,0.63-1.96-0.01-3.05c-0.25-0.43-0.66-0.71-1.16-0.81
						l-0.09-0.02l-0.09,0.01c-0.13,0.01-3.17,0.31-4.24,2.3C52.37,84.76,51.24,86.59,53.72,89.34z M54.66,88.53l-0.01-0.01
						c-1.97-2.19-1.02-3.35-0.98-3.4l0.05-0.05l0.04-0.07c0.58-1.14,2.41-1.58,3.18-1.68c0.14,0.04,0.21,0.12,0.25,0.2
						c0.28,0.48,0.07,1.57-0.09,2.01c-0.05,0.13-0.09,0.25-0.13,0.37c-0.37,1.15-0.35,2.07,0.05,2.71c0.06,0.09,0.12,0.17,0.18,0.24
						c-0.38,0.26-0.77,0.39-1.14,0.38C55.24,89.19,54.67,88.54,54.66,88.53z"/>
				</g>
				<g>
					<polygon class="st2" points="58.31,88.13 58.31,88.13 58.31,88.13 					"/>
				</g>
			</g>
			<g>
				<g>
					<path class="st9" d="M57.24,86.53c1.45-4.79,4.31-3.28,4.31-3.28c1.69,1.05,0.52,5.08,0.52,5.08
						c-1.71,1.46-3.59,0.79-3.59,0.79C57.24,88.37,57.24,86.53,57.24,86.53z"/>
				</g>
				<g>
					<path class="st2" d="M58.28,89.71c0.09,0.03,2.24,0.77,4.2-0.91l0.14-0.12l0.05-0.18c0.13-0.46,1.24-4.52-0.79-5.78l-0.04-0.02
						c-0.05-0.02-1.19-0.61-2.5-0.06c-1.2,0.5-2.11,1.75-2.7,3.71l-0.03,0.09v0.09c0,0.09,0.02,2.21,1.55,3.13L58.28,89.71z
						 M58.75,88.55c-0.75-0.5-0.87-1.63-0.89-1.95c0-0.01,0.01-0.02,0.01-0.03c0.47-1.48,1.14-2.44,1.93-2.79
						c0.7-0.3,1.32-0.05,1.44,0c0.89,0.6,0.6,2.95,0.28,4.18C60.3,88.92,59.03,88.63,58.75,88.55z"/>
				</g>
			</g>
			<g>
				<g>
					<g>
						<path class="st10" d="M57.62,87.16c0.15-1.7,1.36-2.69,1.36-2.69c2.33-0.36,0.78,2.35,0.78,2.35
							c1.03,0.13,1.25,1.26,1.25,1.26c-0.35,1.06-2.22,1.04-2.22,1.04C57.43,88.98,57.62,87.16,57.62,87.16z"/>
					</g>
				</g>
				<g>
					<g>
						<g>
							<g>
								<path class="st2" d="M58.26,86.18c0.26,0.08,0.53,0.15,0.8,0.21c0.27,0.06,0.54,0.1,0.81,0.13
									c0.27,0.02,0.55,0.02,0.81-0.11c-0.2,0.21-0.49,0.33-0.77,0.41c-0.28,0.08-0.57,0.14-0.87,0.19
									c-0.29,0.04-0.58,0.07-0.88,0.09c-0.3,0.02-0.58,0.03-0.89,0.03l0.22-1.22C57.73,86.01,58,86.1,58.26,86.18z"/>
							</g>
						</g>
					</g>
				</g>
			</g>
			<g>
				<g>
					<g>
						<path class="st10" d="M53.64,87.15c-0.61-1.9,0.97-2.86,0.97-2.86c2.25-0.69,0.8,2.22,0.8,2.22c1.04-0.01,1.44,2,1.44,2
							c-0.19,1.1-0.82,0.7-0.82,0.7C54.65,89.27,53.64,87.15,53.64,87.15z"/>
					</g>
				</g>
				<g>
					<g>
						<g>
							<g>
								<path class="st2" d="M54.14,86.09c0.27,0.04,0.54,0.07,0.82,0.1c0.27,0.02,0.55,0.03,0.82,0.01
									c0.27-0.02,0.55-0.06,0.79-0.22c-0.16,0.24-0.44,0.4-0.7,0.52c-0.27,0.12-0.55,0.22-0.83,0.31
									c-0.28,0.08-0.57,0.16-0.85,0.22c-0.29,0.06-0.57,0.12-0.88,0.16l0.05-1.24C53.59,86,53.87,86.05,54.14,86.09z"/>
							</g>
						</g>
					</g>
				</g>
			</g>
			<g>
				<g>
					<g>
						<path class="st10" d="M49.29,86.94c-0.09-1.7,0.35-2.53,0.35-2.53c2.25-0.69,1.73,2.2,1.73,2.2c1.04-0.01,1.44,2,1.44,2
							c-0.53,0.65-1.13,0.39-1.13,0.39C50.3,89.05,49.29,86.94,49.29,86.94z"/>
					</g>
				</g>
				<g>
					<g>
						<g>
							<g>
								<path class="st2" d="M49.79,86.18c0.27,0.04,0.55,0.07,0.82,0.1c0.27,0.02,0.55,0.03,0.82,0.01
									c0.27-0.02,0.55-0.06,0.78-0.22c-0.17,0.24-0.44,0.4-0.7,0.52c-0.27,0.12-0.55,0.22-0.83,0.31
									c-0.28,0.08-0.57,0.16-0.86,0.22c-0.29,0.06-0.57,0.12-0.88,0.16l0.04-1.24C49.24,86.09,49.52,86.14,49.79,86.18z"/>
							</g>
						</g>
					</g>
				</g>
			</g>
			<g>
				<g>
					<g>
						<path class="st9" d="M48.71,82.63l-0.05-1.26c0.54-3.36,2.92-4.12,2.92-4.12l1.22,3.61c3.52,1.78,2.33,3.39,2.33,3.39
							c-0.63,1.06-2.37,0.47-2.37,0.47C48.01,84.61,48.71,82.63,48.71,82.63z"/>
					</g>
					<g>
						<path class="st2" d="M48.08,82.57l-0.05-1.17l0.01-0.13c0.6-3.69,3.23-4.58,3.34-4.61l0.39,1.18c-0.08,0.03-2,0.71-2.49,3.57
							l0.06,1.31l-0.04,0.11c0,0-0.03,0.16,0.1,0.35c0.18,0.25,0.86,0.85,3.37,0.92l0.09,0l0.09,0.03c0.01,0,1.28,0.39,1.63-0.2
							l0.02-0.04c0.01-0.01,0.15-0.23,0.05-0.58c-0.1-0.35-0.5-1.07-2.15-1.9l0.56-1.11c1.62,0.82,2.57,1.74,2.81,2.76
							c0.11,0.45,0.05,0.83-0.03,1.1c-0.07,0.21-0.16,0.36-0.2,0.43c-0.68,1.12-2.16,1.01-3,0.75c-2.21-0.07-3.65-0.56-4.27-1.45
							C47.99,83.34,48.03,82.82,48.08,82.57z"/>
					</g>
				</g>
				<g>
					<g>
						<path class="st10" d="M51.37,81.55c3.82,0.79,2.2,2.55,2.2,2.55c-1.72,0.43-4-0.57-4-0.57
							C49.94,80.96,51.37,81.55,51.37,81.55z"/>
					</g>
				</g>
			</g>
		</g>
	</g>
</g>
</svg>
