<?xml version="1.0" encoding="utf-8"?>
<!-- Generator: Adobe Illustrator 28.5.0, SVG Export Plug-In . SVG Version: 9.03 Build 54727)  -->
<svg version="1.0" id="Layer_1" xmlns="http://www.w3.org/2000/svg" xmlns:xlink="http://www.w3.org/1999/xlink" x="0px" y="0px"
	 viewBox="0 0 150 150" style="enable-background:new 0 0 150 150;" xml:space="preserve">
<style type="text/css">
	.st0{fill:#FFFDF0;}
	.st1{fill:#A3A091;}
	.st2{fill:#673956;}
	.st3{fill:#D6D5D4;}
	.st4{fill:#95404B;}
	.st5{fill:#C6705C;}
	.st6{fill:#FFA41F;}
	.st7{fill:#70220D;}
	.st8{fill:#EAA498;}
	.st9{fill:#9483AB;}
	.st10{fill:#FFFFFF;}
	.st11{fill:#CCC7CA;}
	.st12{fill:#FFCAA6;}
	.st13{fill:#C74C44;}
	.st14{fill:#846F74;}
	.st15{fill:#3A1D30;}
	.st16{fill:#F3E0D9;}
	.st17{fill:#AFA19C;}
	.st18{fill:#962308;}
	.st19{fill:#FFFDFD;}
</style>
<g>
	<g>
		<path class="st0" d="M96.5,72.24c0,0-1.79,10.83-8.04,18.93l0.73,0.06c0,0,6.88-9.36,7.68-19.73L96.5,72.24z"/>
	</g>
	<g>
		<g>
			<path class="st1" d="M73.32,83.6c0,0-4.91,0.87-10.51-0.7c0,0,2.6-4.07,0.95-7.49c0,0,4.05,0.64,7.41,1.04
				c1.2,0.14,3.69-2.31,5.74-3.43c2.39-1.3,6.56,1.83,4.01,5.3C80.58,78.8,77.45,82.65,73.32,83.6z"/>
			<path class="st2" d="M62.68,83.38l-0.65-0.18l0.36-0.57c0.02-0.04,2.43-3.87,0.92-7.01l-0.41-0.85l0.94,0.15
				c0.04,0.01,4.07,0.64,7.39,1.03c0.55,0.07,1.87-0.91,2.93-1.69c0.83-0.61,1.7-1.24,2.51-1.69c1.41-0.76,3.39-0.28,4.61,1.12
				c1.24,1.42,1.26,3.26,0.05,4.91c-0.03,0.04-3.36,4.43-7.9,5.48l-0.02,0.01c-0.11,0.02-1.47,0.25-3.55,0.25
				C67.94,84.34,65.4,84.14,62.68,83.38z M80.53,78.02c1.32-1.81,0.45-3.17,0.01-3.67c-0.91-1.04-2.39-1.43-3.38-0.9
				c-0.76,0.41-1.59,1.02-2.4,1.61c-1.45,1.06-2.71,1.98-3.64,1.87c-2.41-0.29-5.2-0.7-6.58-0.91c0.8,2.64-0.36,5.38-0.98,6.56
				c5.03,1.26,9.41,0.57,9.66,0.53C77.41,82.14,80.5,78.06,80.53,78.02z"/>
		</g>
		<g>
			<path class="st3" d="M77.85,73.48c0,0,2.56-0.12,0.47,4.12c0,0-2.52,2.59-5.47,3.32c0,0-3.27,0.79-6.87-0.3
				c0,0,0.18-3.21-1.24-4.52c0,0,6.51,1,7.04,0.82c0,0,2.52-1.39,4.38-2.81C76.17,74.13,77.13,73.28,77.85,73.48z"/>
		</g>
		<g>
			<g>
				<path class="st4" d="M67.65,84.09c0,0,2.89-3.42,1.26-8.02l-5.96-1.41c0,0,1.79,4.22-1.12,8.5
					C61.83,83.15,66.01,83.97,67.65,84.09z"/>
				<path class="st2" d="M67.62,84.58c-1.65-0.12-5.72-0.91-5.89-0.94l-0.74-0.14l0.42-0.62c2.71-3.99,1.14-7.86,1.08-8.02
					l-0.38-0.9l7.18,1.7l0.09,0.26c1.71,4.81-1.22,8.36-1.35,8.51l-0.16,0.19L67.62,84.58z M63.69,75.34
					c0.36,1.42,0.75,4.36-1.05,7.46c1.18,0.22,3.51,0.64,4.79,0.77c0.54-0.75,2.26-3.5,1.11-7.08L63.69,75.34z"/>
			</g>
			<g>
				<path class="st5" d="M68.49,76.59c0,0,1.79,6.24-4.96,5.4c0,0,1.58-2.57,0.21-6.45L68.49,76.59z"/>
			</g>
			<g>
				<g>
					<path class="st2" d="M66.42,78.22c-0.25,0.12-0.46,0.27-0.66,0.43c-0.2,0.16-0.38,0.34-0.56,0.52
						c-0.17,0.19-0.33,0.38-0.48,0.59c-0.14,0.21-0.28,0.43-0.37,0.69c0.25-0.12,0.46-0.27,0.66-0.43c0.2-0.16,0.38-0.34,0.56-0.52
						c0.17-0.19,0.33-0.38,0.48-0.59C66.19,78.7,66.32,78.48,66.42,78.22z"/>
				</g>
				<g>
					<path class="st2" d="M65.99,80.93c0-0.27-0.05-0.53-0.11-0.78c-0.06-0.25-0.14-0.49-0.24-0.73c-0.1-0.24-0.21-0.47-0.34-0.69
						c-0.13-0.22-0.28-0.44-0.47-0.63c0,0.28,0.05,0.53,0.11,0.78c0.06,0.25,0.14,0.49,0.24,0.73c0.1,0.24,0.21,0.47,0.34,0.69
						C65.65,80.52,65.79,80.74,65.99,80.93z"/>
				</g>
			</g>
			<g>
				<g>
					<path class="st2" d="M68.39,78.65c-0.25,0.12-0.46,0.27-0.66,0.43c-0.2,0.16-0.38,0.34-0.56,0.52
						c-0.17,0.19-0.33,0.38-0.48,0.59c-0.14,0.21-0.28,0.43-0.37,0.69c0.25-0.12,0.46-0.27,0.66-0.43c0.2-0.16,0.38-0.34,0.56-0.52
						c0.17-0.19,0.33-0.38,0.48-0.6C68.16,79.13,68.3,78.91,68.39,78.65z"/>
				</g>
				<g>
					<path class="st2" d="M67.96,81.36c0-0.27-0.05-0.53-0.11-0.78c-0.06-0.25-0.14-0.49-0.24-0.73c-0.1-0.24-0.21-0.47-0.34-0.69
						c-0.13-0.22-0.28-0.44-0.47-0.63c0,0.28,0.05,0.53,0.11,0.78c0.06,0.25,0.14,0.49,0.24,0.73c0.1,0.24,0.21,0.47,0.34,0.69
						C67.63,80.95,67.77,81.16,67.96,81.36z"/>
				</g>
			</g>
		</g>
		<g>
			<g>
				<path class="st6" d="M64.79,83.11c0,0-2.91,4.63-2.18,8.45c0,0,0.47,1.05,1.7,0.95c0,0-1.72-2.37,1.45-8.83L64.79,83.11z"/>
				<path class="st7" d="M62.27,91.71l-0.03-0.08c-0.75-3.92,2.11-8.53,2.23-8.72l0.19-0.3l1.59,0.92l-0.15,0.31
					c-3,6.11-1.5,8.43-1.48,8.45L65,92.82l-0.66,0.06c-0.07,0.01-0.14,0.01-0.21,0.01C62.81,92.89,62.29,91.76,62.27,91.71z
					 M64.92,83.62c-0.61,1.08-2.51,4.75-1.95,7.82c0.06,0.11,0.29,0.48,0.74,0.63c-0.35-1.1-0.63-3.65,1.56-8.25L64.92,83.62z"/>
			</g>
			<g>
				<path class="st6" d="M64.68,82.96c0,0-0.1,4.93,1.9,7.84c0,0,0.73,0.7,1.5,0.15c0,0-2.08-1.33-2.53-7.88L64.68,82.96z"/>
				<path class="st7" d="M66.32,91.07l-0.05-0.06c-2.04-2.97-1.97-7.85-1.97-8.06l0.01-0.41l1.59,0.19l0.02,0.31
					c0.43,6.21,2.35,7.58,2.36,7.59l0.47,0.3l-0.45,0.32c-0.29,0.2-0.57,0.28-0.84,0.28C66.96,91.53,66.54,91.27,66.32,91.07z
					 M65.06,83.38c0.03,1.22,0.25,4.87,1.81,7.17c0.07,0.06,0.27,0.21,0.52,0.23c-0.67-0.82-1.83-2.84-2.19-7.38L65.06,83.38z"/>
			</g>
			<g>
				<path class="st6" d="M64.07,83.34c-0.1,0.56,0.28,1.09,0.84,1.19c0.56,0.1,1.09-0.28,1.19-0.84c0.1-0.56-0.28-1.09-0.84-1.19
					C64.7,82.41,64.16,82.79,64.07,83.34z"/>
				<path class="st7" d="M64.84,84.9c-0.76-0.13-1.27-0.86-1.14-1.62l0,0c0.13-0.76,0.86-1.27,1.62-1.14
					c0.76,0.13,1.27,0.86,1.14,1.62c-0.06,0.37-0.27,0.69-0.57,0.91c-0.24,0.17-0.52,0.26-0.8,0.26C65,84.92,64.92,84.91,64.84,84.9
					z M64.43,83.41L64.43,83.41c-0.06,0.36,0.18,0.7,0.53,0.76c0.17,0.03,0.35-0.01,0.49-0.11c0.14-0.1,0.24-0.25,0.27-0.42
					c0.06-0.36-0.18-0.7-0.53-0.76c-0.04-0.01-0.08-0.01-0.11-0.01C64.77,82.87,64.49,83.09,64.43,83.41z"/>
			</g>
		</g>
	</g>
	<g>
		<g>
			<g>
				<path class="st8" d="M54.02,73.38c1.62-1.31,2.98-1.03,2.98-1.03l2.77-1.06c3.81,0.95,3.27,5.27,3.27,5.27l0.89,1.78l-0.05,1.53
					c-0.49,2.33-5.5,3.16-5.5,3.16c-2.36-0.59-2.63-3.26-2.63-3.26c-1.86-0.37-1.17-2.18-1.17-2.18c-2.07,0.03-1.26-2.69-1.26-2.69
					L54.02,73.38z"/>
			</g>
			<g>
				<path class="st2" d="M52.85,74.76c-0.05,0.17-0.49,1.72,0.22,2.67c0.17,0.22,0.45,0.47,0.91,0.59
					c-0.04,0.36-0.03,0.84,0.22,1.28c0.23,0.42,0.61,0.71,1.12,0.88c0.17,0.82,0.8,2.81,2.95,3.35l0.1,0.03l0.1-0.02
					c0.55-0.09,5.36-0.96,5.9-3.55l0.01-0.09l0.06-1.65l-0.89-1.76c0.15-1.69-0.41-4.86-3.66-5.66l-0.15-0.04l-2.8,1.07
					c-0.44-0.04-1.75-0.04-3.23,1.15l-0.09,0.07L52.85,74.76z M53.79,75.08l0.62-1.38c1.36-1.05,2.44-0.86,2.48-0.86l0.14,0.02
					l0.13-0.05l2.62-1c3.18,0.9,2.77,4.53,2.75,4.69l-0.02,0.15l0.9,1.8l-0.05,1.35c-0.38,1.57-3.62,2.47-4.98,2.72
					c-1.91-0.55-2.15-2.78-2.16-2.8l-0.04-0.37l-0.36-0.07c-0.4-0.08-0.65-0.23-0.78-0.47c-0.24-0.43-0.02-1.04-0.02-1.05l0.26-0.68
					l-0.73,0.01c-0.51,0.01-0.66-0.2-0.71-0.27C53.53,76.38,53.7,75.42,53.79,75.08z"/>
			</g>
		</g>
		<g>
			<g>
				<g>
					<g>
						<path class="st2" d="M60.89,77.17c-0.14,0.01-0.28,0.01-0.43,0c0.07-0.13,0.15-0.27,0.25-0.4L60.89,77.17z"/>
					</g>
					<g>
						<path class="st2" d="M59.72,75.07c-0.01,0.07,0,0.18,0,0.28c0.01,0.1,0.02,0.2,0.04,0.29c0.04,0.19,0.1,0.37,0.19,0.53
							c0.09,0.16,0.22,0.28,0.37,0.37c0.15,0.1,0.35,0.13,0.55,0.16l0.54,0.07l-0.35,0.32c-0.13,0.12-0.27,0.29-0.38,0.45
							c-0.11,0.17-0.21,0.35-0.29,0.54c-0.07,0.19-0.11,0.39-0.12,0.6c-0.01,0.21,0.05,0.41,0.13,0.62
							c-0.11-0.18-0.21-0.38-0.25-0.6c-0.04-0.22-0.03-0.45,0-0.67c0.04-0.22,0.11-0.44,0.2-0.65c0.03-0.07,0.06-0.13,0.1-0.2
							c0.15,0.01,0.29,0.01,0.43,0l-0.18-0.4c-0.1,0.13-0.18,0.27-0.25,0.4c-0.13-0.01-0.25-0.03-0.38-0.08
							c-0.27-0.09-0.53-0.26-0.71-0.48c-0.19-0.22-0.33-0.46-0.43-0.71c-0.05-0.13-0.09-0.25-0.13-0.38
							c-0.04-0.14-0.06-0.25-0.08-0.42L59.72,75.07z"/>
					</g>
				</g>
			</g>
		</g>
		<g>
			<g>
				<path class="st4" d="M51.78,54.84c0,0,1.08,5.21,5.6,14.73c0,0,1.85,3.6,2.15,5.88c0,0,0.48,2.66,4.71,11.22
					c0,0-1.37,3.3-4.83,1.76c0,0-1.2-5.04-3.77-11.56c0,0-2.88-6.27-3.5-9.75c0,0-6.49-19.16-9.98-26.56c0,0,1.82-2.86,3.09-1.06
					c0,0,1.65,2.5,4.6,10.74C49.85,50.24,51.08,52.03,51.78,54.84z"/>
				<path class="st2" d="M59.26,88.78l-0.17-0.07l-0.04-0.18c-0.01-0.05-1.22-5.09-3.74-11.49c-0.12-0.26-2.9-6.32-3.52-9.81
					c-0.28-0.82-6.58-19.32-9.95-26.5l-0.09-0.19l0.11-0.17c0.12-0.18,1.18-1.8,2.4-1.83c0.36-0.01,0.86,0.12,1.32,0.76
					c0.07,0.1,1.7,2.62,4.62,10.78c0.19,0.29,1.3,2.04,1.95,4.68l0,0.01c0.01,0.05,1.13,5.29,5.57,14.64
					c0.08,0.15,1.88,3.68,2.18,5.99c0.01,0.03,0.55,2.75,4.68,11.12l0.08,0.15l-0.06,0.16c-0.03,0.06-0.66,1.56-2.16,2.16
					c-0.4,0.16-0.83,0.24-1.27,0.24C60.55,89.22,59.92,89.07,59.26,88.78z M59.16,75.5c-0.29-2.19-2.09-5.73-2.11-5.77
					c-4.41-9.28-5.58-14.57-5.63-14.81c-0.67-2.7-1.86-4.45-1.87-4.47l-0.04-0.08c-2.89-8.08-4.54-10.64-4.55-10.65
					c-0.21-0.3-0.44-0.44-0.69-0.44c-0.61,0.01-1.34,0.86-1.68,1.32c3.47,7.48,9.84,26.22,9.9,26.41l0.01,0.05
					c0.6,3.4,3.44,9.6,3.48,9.68c2.28,5.78,3.5,10.46,3.74,11.43c0.89,0.36,1.7,0.4,2.41,0.12c0.96-0.38,1.5-1.26,1.69-1.61
					C59.7,78.29,59.18,75.63,59.16,75.5z"/>
			</g>
			<g>
				<path class="st5" d="M42.48,40.44l1.54,3.29c0,0,1.5-0.45,0.54-3.1C44.55,40.63,43.9,38.92,42.48,40.44z"/>
			</g>
			<g>
				<path class="st9" d="M46.42,41.46c0,0-3.13-0.74-3.9,3.13c0,0-3.11,1.98-18.16,3.57c0,0-2.09-0.2-1.56,4.14
					c0,0,0.14,5.01,4.38,9.7c0,0,1.4,1.26,5.09-1.64c0,0,7.68-5.03,14.24-7.5c0,0,0.68-2.19,3.7-1.66c0,0,2.44-1.26,0.68-4.03
					c0,0,1.72-1.01,7.25-2.34c0,0,0.08-1.07-1.12-4.03c0,0-0.19-1.49-3.45,1.21c0,0-4.58,1.9-4.65,0.85
					C48.93,42.87,47.99,41.18,46.42,41.46z"/>
				<path class="st2" d="M26.85,62.37l-0.04-0.04c-4.21-4.66-4.49-9.56-4.51-10c-0.24-1.97,0.01-3.36,0.75-4.11
					c0.52-0.53,1.1-0.56,1.29-0.56c12.81-1.35,16.91-3.01,17.74-3.41c0.3-1.29,0.9-2.23,1.77-2.8c1.08-0.69,2.23-0.57,2.58-0.51
					c1.84-0.26,2.9,1.6,2.94,1.68l0.03,0.06c0.5,0.08,2.24-0.41,3.92-1.1c1.7-1.39,2.84-1.9,3.59-1.6c0.36,0.14,0.54,0.44,0.6,0.68
					c1.19,2.94,1.14,4.08,1.13,4.2l-0.03,0.36l-0.35,0.08c-3.89,0.93-5.87,1.71-6.67,2.07c0.43,0.85,0.55,1.65,0.34,2.4
					c-0.34,1.25-1.44,1.83-1.49,1.86l-0.15,0.08l-0.17-0.03c-2.53-0.45-3.12,1.25-3.14,1.31l-0.07,0.23l-0.23,0.09
					c-6.29,2.36-13.72,7.17-14.13,7.44c-2.05,1.6-3.47,2.01-4.39,2.01C27.34,62.78,26.93,62.45,26.85,62.37z M50.11,50.69
					c0.23-0.16,0.7-0.55,0.87-1.16c0.16-0.61-0.01-1.31-0.5-2.08l-0.28-0.43l0.44-0.26c0.07-0.04,1.76-1.01,6.98-2.29
					c-0.07-0.51-0.3-1.59-1.05-3.46l-0.02-0.06l0-0.03c-0.07-0.02-0.67-0.14-2.65,1.49l-0.06,0.05l-0.07,0.03
					c-1.49,0.62-4.11,1.57-4.96,1.03c-0.18-0.11-0.3-0.27-0.35-0.47c-0.17-0.27-0.9-1.29-1.95-1.1l-0.1,0.02l-0.1-0.02
					c-0.01,0-1.02-0.22-1.92,0.36c-0.69,0.44-1.16,1.25-1.38,2.39l-0.04,0.21l-0.18,0.11c-0.13,0.08-3.38,2.06-18.37,3.65
					l-0.04,0.01l-0.05,0c-0.01,0-0.31-0.01-0.58,0.28c-0.28,0.3-0.72,1.14-0.45,3.29l0,0.05c0,0.05,0.19,4.87,4.22,9.35
					c0.16,0.09,1.42,0.71,4.44-1.66l0.03-0.02c0.08-0.05,7.65-4.99,14.14-7.47C46.44,51.86,47.47,50.31,50.11,50.69z"/>
			</g>
			<g>
				<path class="st10" d="M37.03,47.35c0,0-5.07,0.84-12.89,1.69c0,0-3.85,2.98,3.54,12.41c0,0,1.29,0.52,3-0.97
					c0,0,1.58-2.24,9.72-5.95C40.4,54.54,36.41,52.96,37.03,47.35z"/>
			</g>
			<g>
				<path class="st11" d="M45.93,43.03c0,0,0.04,2.35,2.23,6.12c0,0-1.41,0.27-2.01,2.2c0,0-0.74,0.12-3.09-6.23
					C43.06,45.13,42.62,43.3,45.93,43.03z"/>
			</g>
			<g>
				<path class="st11" d="M56.52,41.35c0,0-1-0.49-0.21,2.35c0,0-4.17,0.69-6.53,2.38l0.22,0.61c0,0,1.67-0.51,7.03-1.98
					C57.04,44.72,57.99,44.74,56.52,41.35z"/>
			</g>
			<g>
				<path class="st10" d="M46.22,41.9c0,0-2.66-0.38-3.28,2.9c0,0,2.68-2.62,2.91-1.01c0.17,1.16,0.75,3.5,2,5.47
					c0,0,0.83-0.34,1.58-0.21c0,0-1.14-3.31-1.48-5.58C47.94,43.48,47.95,42.04,46.22,41.9z"/>
			</g>
			<g>
				<path class="st11" d="M44.34,51.65c0,0-2.59,0.09-10.78,6.1c0,0-2.01-1.05-3.52-4.85c0,0-0.89,1.11,2.09,5.73
					c0,0-1.09,0.57-2.75,2.48c0,0,0.02,0.09,1.3-0.63c0,0,6.73-5.08,15.03-8.09C45.71,52.39,45.77,51.36,44.34,51.65z"/>
			</g>
			<g>
				<path class="st5" d="M47.81,52.2c0,0,1.16-0.22,1.71,0.67c0,0,3.36,10.46,6.46,17.7c0,0,1.81,3.63,3.03,8.29
					c0,0,1.88,5.23,3.52,8.09c0,0,0.04,1.13-2.19,1.14c0,0-2.9-9.61-5.86-15.68c0,0-1.43-3.84-2.01-6.49
					C52.47,65.93,48.3,54.66,47.81,52.2z"/>
			</g>
		</g>
		<g>
			<g>
				<g>
					<path class="st8" d="M53.16,73.8c1.12-1.68,3.98-1.07,3.98-1.07c-2.5,0.82-0.27,3.25-0.27,3.25c-2.26-0.48-2.93,1.91-2.93,1.91
						c-2.23-0.67-1.17-3.36-1.17-3.36L53.16,73.8z"/>
				</g>
				<g>
					<path class="st2" d="M52.31,74.36c-0.03,0.06-0.61,1.58-0.02,2.79c0.29,0.6,0.8,1.01,1.51,1.22l0.49,0.15l0.14-0.49
						c0.06-0.2,0.61-1.93,2.35-1.56l1.52,0.32l-1.05-1.15c-0.25-0.27-0.92-1.19-0.76-1.79c0.07-0.28,0.35-0.5,0.82-0.65l1.75-0.58
						l-1.81-0.38c-0.13-0.03-3.2-0.65-4.49,1.28l-0.03,0.05L52.31,74.36z M53.23,74.74l0.36-0.69c0.48-0.7,1.38-0.9,2.13-0.93
						c-0.09,0.15-0.16,0.31-0.21,0.48c-0.17,0.65,0.08,1.33,0.37,1.85c-1.15,0.17-1.87,1.04-2.22,1.79
						c-0.22-0.13-0.37-0.3-0.48-0.52C52.81,75.97,53.17,74.91,53.23,74.74z"/>
				</g>
			</g>
			<g>
				<g>
					<path class="st8" d="M56.61,75.91c1.59,0.04,2.77,2.03,2.77,2.03c0.34,1.28-1.94,1.56-1.94,1.56c-2.44,0.23-2,1.45-2,1.45
						c-2.46-0.81-1.54-2.87-1.54-2.87C55,75.41,56.61,75.91,56.61,75.91z"/>
				</g>
				<g>
					<path class="st2" d="M53.44,77.89C53.39,78,53,78.97,53.43,79.93c0.3,0.69,0.93,1.19,1.85,1.49l0.97,0.32l-0.35-0.96l0,0l0,0
						l0,0c0,0-0.03-0.12,0.06-0.25c0.09-0.13,0.41-0.44,1.51-0.54c0.18-0.02,1.63-0.22,2.2-1.06c0.22-0.33,0.29-0.72,0.18-1.12
						l-0.02-0.07l-0.04-0.06c-0.05-0.09-1.32-2.18-3.13-2.27C56.28,75.33,54.57,75.15,53.44,77.89z M54.35,78.29l0.01-0.01
						c0.9-2.17,2.06-1.9,2.11-1.88l0.05,0.02l0.07,0c1.02,0.03,1.98,1.19,2.31,1.72c0.02,0.12-0.02,0.19-0.06,0.25
						c-0.25,0.37-1.1,0.59-1.48,0.63c-0.11,0.01-0.21,0.02-0.31,0.04c-0.96,0.14-1.61,0.46-1.94,0.97
						c-0.05,0.07-0.08,0.14-0.11,0.21c-0.32-0.19-0.55-0.42-0.67-0.69C54.08,78.94,54.35,78.29,54.35,78.29z"/>
				</g>
				<g>
					<polygon class="st2" points="55.9,80.78 55.9,80.78 55.9,80.78 					"/>
				</g>
			</g>
			<g>
				<g>
					<path class="st8" d="M56.69,79.45c3.96-0.61,3.86,1.98,3.86,1.98c-0.17,1.58-3.49,2.14-3.49,2.14
						c-1.65-0.73-1.81-2.32-1.81-2.32C55.36,80.09,56.69,79.45,56.69,79.45z"/>
				</g>
				<g>
					<path class="st2" d="M54.75,81.3c0.01,0.08,0.22,1.88,2.11,2.72L57,84.08l0.15-0.02c0.38-0.06,3.69-0.67,3.9-2.57l0-0.04
						c0-0.04,0.03-1.07-0.82-1.82c-0.78-0.69-2-0.91-3.61-0.67l-0.07,0.01L56.48,79c-0.06,0.03-1.59,0.78-1.72,2.2V81.3z
						 M55.75,81.24c0.1-0.71,0.88-1.19,1.1-1.31c0.01,0,0.02,0,0.03,0c1.23-0.17,2.16-0.02,2.68,0.43c0.46,0.4,0.5,0.93,0.5,1.04
						c-0.12,0.85-1.93,1.45-2.92,1.65C56.03,82.49,55.79,81.47,55.75,81.24z"/>
				</g>
			</g>
			<g>
				<g>
					<g>
						<path class="st12" d="M56.36,79.95c1.28-0.48,2.41,0.05,2.41,0.05c1.07,1.55-1.43,1.38-1.43,1.38
							c0.26,0.79-0.47,1.34-0.47,1.34c-0.89,0.11-1.52-1.24-1.52-1.24C54.99,80.44,56.36,79.95,56.36,79.95z"/>
					</g>
				</g>
				<g>
					<g>
						<g>
							<g>
								<path class="st2" d="M57.29,80.07c0.03,0.22,0.07,0.43,0.12,0.65c0.05,0.21,0.11,0.42,0.19,0.63
									c0.08,0.2,0.18,0.4,0.36,0.55c-0.22-0.07-0.41-0.24-0.56-0.41c-0.16-0.18-0.3-0.37-0.43-0.56c-0.13-0.2-0.25-0.4-0.37-0.6
									c-0.12-0.21-0.23-0.41-0.33-0.63l0.96-0.26C57.23,79.63,57.26,79.85,57.29,80.07z"/>
							</g>
						</g>
					</g>
				</g>
			</g>
			<g>
				<g>
					<g>
						<path class="st12" d="M54.99,77.08c1.16-1.09,2.4-0.29,2.4-0.29c1.28,1.38-1.33,1.34-1.33,1.34c0.37,0.74-0.94,1.73-0.94,1.73
							c-0.86,0.24-0.78-0.35-0.78-0.35C53.82,78.54,54.99,77.08,54.99,77.08z"/>
					</g>
				</g>
				<g>
					<g>
						<g>
							<g>
								<path class="st2" d="M55.93,77.06c0.06,0.21,0.14,0.42,0.21,0.62c0.08,0.2,0.17,0.4,0.28,0.6c0.11,0.19,0.23,0.37,0.43,0.49
									c-0.23-0.04-0.44-0.18-0.62-0.33c-0.18-0.15-0.35-0.32-0.51-0.49c-0.16-0.17-0.31-0.36-0.45-0.54
									c-0.15-0.19-0.28-0.37-0.42-0.58l0.91-0.4C55.81,76.64,55.87,76.86,55.93,77.06z"/>
							</g>
						</g>
					</g>
				</g>
			</g>
			<g>
				<g>
					<g>
						<path class="st12" d="M53.65,73.86c1.2-0.66,1.95-0.62,1.95-0.62c1.28,1.38-0.99,2.01-0.99,2.01
							c0.37,0.74-0.94,1.73-0.94,1.73c-0.65-0.16-0.67-0.68-0.67-0.68C52.47,75.32,53.65,73.86,53.65,73.86z"/>
					</g>
				</g>
				<g>
					<g>
						<g>
							<g>
								<path class="st2" d="M54.36,73.96c0.06,0.21,0.14,0.42,0.21,0.63c0.08,0.2,0.17,0.4,0.28,0.6c0.11,0.19,0.23,0.37,0.43,0.49
									c-0.23-0.04-0.44-0.18-0.62-0.33c-0.18-0.15-0.35-0.32-0.51-0.49c-0.16-0.18-0.31-0.36-0.45-0.54
									c-0.15-0.19-0.28-0.37-0.42-0.58l0.91-0.4C54.24,73.53,54.3,73.75,54.36,73.96z"/>
							</g>
						</g>
					</g>
				</g>
			</g>
			<g>
				<g>
					<g>
						<path class="st8" d="M56.56,71.94l0.89-0.47c2.61-0.77,3.98,0.68,3.98,0.68l-2.18,2.13c-0.06,3.16-1.65,2.85-1.65,2.85
							c-0.98-0.09-1.16-1.54-1.16-1.54C54.89,72.13,56.56,71.94,56.56,71.94z"/>
					</g>
					<g>
						<path class="st2" d="M56.38,71.47l0.83-0.44l0.09-0.04c2.87-0.85,4.42,0.75,4.48,0.81l-0.72,0.69
							c-0.05-0.05-1.2-1.2-3.44-0.56l-0.93,0.49l-0.09,0.01c0,0-0.13,0.04-0.22,0.19c-0.12,0.22-0.32,0.91,0.5,2.75l0.03,0.07
							l0.01,0.08c0,0.01,0.16,1.06,0.71,1.11l0.04,0c0.01,0,0.22,0.03,0.44-0.17c0.22-0.19,0.6-0.74,0.63-2.21l0.99,0.02
							c-0.03,1.45-0.37,2.46-1.02,2.98c-0.29,0.23-0.58,0.32-0.8,0.36c-0.18,0.03-0.32,0.01-0.38,0c-1.04-0.1-1.48-1.21-1.58-1.9
							c-0.72-1.62-0.86-2.83-0.43-3.58C55.79,71.68,56.18,71.52,56.38,71.47z"/>
					</g>
				</g>
				<g>
					<g>
						<path class="st12" d="M58.25,73.49c0.75,3.04-1.08,2.47-1.08,2.47c-0.9-1.09-0.97-3.09-0.97-3.09
							C58.19,72.26,58.25,73.49,58.25,73.49z"/>
					</g>
				</g>
			</g>
		</g>
	</g>
	<g>
		<g>
			<path class="st1" d="M78.04,73.57c-0.7,1.04-3.35,6.45-4.15,11.13c-0.41,2.38,8.35,4.8,8.35,4.8l0.73,0.16
				c11.79,3.48,19.7,1.07,19.7,1.07s-0.25,0.34,0,0c0.25-0.34,0.56-6.87,0.56-6.87s0.2-5.98-4.79-10.84c0,0-11.15,2.51-15.77-3.42
				c0,0-2.75,0.72-3.28,1.87C79.39,71.48,80.24,70.29,78.04,73.57z"/>
			<path class="st2" d="M82.84,90.15l-0.73-0.17c-1.54-0.42-9.17-2.68-8.71-5.37c0.81-4.72,3.49-10.22,4.23-11.32l0,0
				c0.79-1.18,1.16-1.74,1.34-2.01l-0.03-0.01c0.62-1.32,3.3-2.07,3.61-2.15l0.32-0.08l0.2,0.26c4.37,5.6,15.16,3.26,15.27,3.24
				l0.26-0.06l0.19,0.19c5.09,4.96,4.95,10.96,4.94,11.22c-0.16,3.48-0.31,5.24-0.42,6.14l0.66-0.2l-0.89,1.2c0,0,0,0,0,0
				l-0.11,0.15l-0.2-0.15l0.05,0.17c-0.19,0.06-2.86,0.84-7.34,0.84C92.16,92.06,87.86,91.63,82.84,90.15z M102.73,83.85
				c0-0.06,0.12-5.68-4.45-10.29c-1.76,0.35-11.29,1.95-15.79-3.39c-0.86,0.26-2.01,0.75-2.49,1.28c-0.06,0.16-0.18,0.33-0.31,0.54
				c-0.22,0.34-0.6,0.92-1.24,1.86l0,0c-0.71,1.06-3.29,6.36-4.07,10.93c-0.21,1.2,3.99,3.13,7.97,4.24l0.73,0.16l0.03,0.01
				c10.33,3.05,17.71,1.5,19.16,1.14C102.41,89.5,102.61,86.53,102.73,83.85z M79.06,71.34c0.02,0.13,0.09,0.25,0.21,0.34
				c0.15,0.1,0.32,0.11,0.46,0.05L79.06,71.34z"/>
		</g>
		<g>
			<path class="st3" d="M94.73,76.7c0,0-9.41,0.58-14.63-3.16c0,0-2.69,2.49-4.87,11.12c0,0,14.1,6.04,20.97,3.38
				C96.2,88.03,93.64,83.63,94.73,76.7z"/>
		</g>
	</g>
	<g>
		<path class="st13" d="M96.5,72.24c0,0,1.25,11.03-7.42,19.26c0,0,9.25-1.2,15.6-1.66C104.67,89.83,106.6,75.49,96.5,72.24z"/>
		<path class="st7" d="M88.73,91.13c8.39-7.95,7.28-18.73,7.27-18.84l-0.09-0.77l0.73,0.24c4.31,1.39,7.15,4.98,8.21,10.4
			c0.79,4.03,0.33,7.59,0.31,7.74l-0.05,0.4l-0.4,0.03c-6.26,0.45-15.48,1.64-15.57,1.66l-1.51,0.2L88.73,91.13z M97.04,72.96
			c0.09,2.57-0.18,10.99-6.6,17.86c2.77-0.34,9.02-1.09,13.78-1.45C104.42,87.13,104.98,76.13,97.04,72.96z"/>
	</g>
	<g>
		<path class="st13" d="M96.25,70.99c0,0-1.76,11.84-8.36,20.01c0,0,2.44,1.76,5.19,0.51c0,0,7.26-8.55,7.36-18.7
			C100.44,72.81,98.9,69.99,96.25,70.99z"/>
		<path class="st7" d="M87.59,91.41l-0.43-0.31l0.33-0.41c6.44-7.97,8.24-19.65,8.26-19.77l0.04-0.29l0.27-0.1
			c2.42-0.92,4.2,0.94,4.8,2.05l0.06,0.11l0,0.13c-0.1,10.21-7.18,18.66-7.48,19.02l-0.07,0.08l-0.1,0.05
			c-0.8,0.36-1.56,0.49-2.27,0.49C89.09,92.46,87.67,91.46,87.59,91.41z M99.94,72.95c-0.27-0.45-1.42-2.08-3.25-1.57
			c-0.33,1.88-2.32,12.07-8.06,19.49c0.76,0.39,2.38,0.99,4.13,0.24C93.5,90.2,99.78,82.21,99.94,72.95z"/>
	</g>
	<g>
		<path class="st6" d="M96.87,71.49c0,0-2.9,13-7.93,19.23c0,0,0.87,0.08,2.38-0.39c0,0,5.75-7.64,6.68-17.4
			C98,72.93,99.29,69.25,96.87,71.49z"/>
	</g>
	<g>
		<g>
			<g>
				<path class="st8" d="M122.3,73.54c0,0-1.92-0.56-3.42,2.32c0,0-2.3,3.35,0.12,8c0,0,2.77-0.09,3.7,0.79c0,0,1.55,0.36,1.96-0.92
					c0,0,2.6,0.03,2.44-0.84c0,0-0.61-1.5,0.19-3.13c0,0,0.06-1.05-0.49-1.46l0.04-1.48c0,0-0.01-0.16-0.67-0.35l-0.08-1.48
					C126.1,74.99,124.04,74,122.3,73.54z"/>
				<path class="st2" d="M122.59,85.14l-0.13-0.03l-0.1-0.09c-0.57-0.54-2.35-0.69-3.34-0.66l-0.31,0.01l-0.14-0.28
					c-2.45-4.69-0.35-8.12-0.11-8.48c1.63-3.09,3.78-2.59,3.98-2.54c1.76,0.46,3.79,1.44,3.88,1.48l0.27,0.13l0.07,1.43
					c0.31,0.12,0.67,0.33,0.68,0.69l0,0.02l-0.04,1.28c0.53,0.6,0.49,1.57,0.48,1.69l-0.01,0.1l-0.04,0.09
					c-0.69,1.4-0.18,2.72-0.18,2.73l0.03,0.09c0.05,0.27-0.02,0.53-0.2,0.74c-0.47,0.55-1.71,0.67-2.4,0.69
					c-0.4,0.76-1.19,0.98-1.82,0.98C122.95,85.2,122.75,85.18,122.59,85.14z M124.67,83.23c0.8,0.01,1.68-0.13,1.92-0.3
					c-0.14-0.44-0.48-1.81,0.21-3.3c0-0.28-0.07-0.77-0.29-0.94l-0.21-0.15l0.04-1.5c-0.06-0.03-0.16-0.06-0.3-0.1l-0.34-0.1
					l-0.08-1.53c-0.6-0.28-2.13-0.95-3.44-1.29l-0.01,0c-0.02,0-1.54-0.42-2.84,2.07l-0.03,0.05c-0.08,0.13-2.01,3.06,0.01,7.22
					c0.78,0,2.68,0.09,3.62,0.83c0.3,0.04,1.05,0.07,1.26-0.61l0.11-0.35L124.67,83.23z"/>
			</g>
			<g>
				<path class="st12" d="M120.36,76.81c0,0-2.12,1.94-0.78,6.53c0,0,0.82-0.43,3.22,0.68c0,0,1.24-0.15,0.94-1.2
					c0,0-0.51-1.42-1.51-2.01c0,0,1.78-0.36,2.77,2.28c0,0,1.04,0.33,1.34-0.22c0,0-0.51-1.08-0.41-2.39c0,0,0.08-1.89-1.16-2.47
					c0,0,0.75-0.66-0.17-1.5c0,0-1.29-0.93-2.86-0.8C121.76,75.69,120.86,76.14,120.36,76.81z"/>
			</g>
			<g>
				<g>
					<path class="st2" d="M124.82,84.33c0.04-0.04,0.05-0.06,0.07-0.08c0.02-0.02,0.03-0.04,0.05-0.07
						c0.03-0.04,0.06-0.09,0.08-0.13c0.05-0.09,0.09-0.18,0.11-0.28c0.06-0.19,0.07-0.4,0.03-0.59c-0.06-0.38-0.25-0.67-0.44-0.91
						c-0.21-0.23-0.43-0.43-0.66-0.59c-0.23-0.17-0.48-0.31-0.72-0.45l-0.03-0.02l-0.01,0c-0.12-0.04-0.26-0.13-0.36-0.23
						c-0.11-0.11-0.18-0.25-0.23-0.4c-0.04-0.16-0.04-0.32-0.02-0.49c0.01-0.08,0.03-0.17,0.05-0.25l0.08-0.25l-0.13,0.23
						c-0.03,0.08-0.07,0.16-0.1,0.25c-0.05,0.17-0.09,0.35-0.08,0.55c0.02,0.19,0.08,0.38,0.19,0.55c0.11,0.17,0.25,0.3,0.45,0.41
						l-0.03-0.02c0.2,0.17,0.4,0.34,0.58,0.53c0.18,0.18,0.33,0.39,0.46,0.59c0.11,0.2,0.18,0.41,0.17,0.58
						c0,0.08-0.03,0.15-0.06,0.21c-0.02,0.03-0.04,0.06-0.06,0.08c-0.01,0.01-0.02,0.03-0.03,0.03c-0.01,0-0.01,0.01-0.02,0.01
						c0,0-0.01,0.01,0-0.01L124.82,84.33z"/>
				</g>
				<g>
					<path class="st2" d="M123.43,81.85c0.31-0.22,0.64-0.43,0.97-0.63c0.33-0.2,0.66-0.41,1.01-0.56c-0.2-0.01-0.39,0-0.59,0.02
						c-0.2,0.02-0.39,0.04-0.59,0.07c-0.39,0.05-0.78,0.11-1.17,0.18L123.43,81.85z"/>
				</g>
				<g>
					<polygon class="st2" points="126.97,77.83 124.03,77.28 126.63,78.77 					"/>
				</g>
				<g>
					<polygon class="st2" points="126.37,76.01 124.08,75.58 125.98,76.93 					"/>
				</g>
			</g>
		</g>
		<g>
			<path class="st13" d="M106.53,69.35c0,0,4.99,0.13,10.16,2.8c0,0-3.36,3.46-2.44,7.15c0,0-3.84-1.44-7.05-2.5
				c-1.14-0.38-4.07,1.53-6.31,2.21c-2.6,0.79-6.06-3.11-2.87-6C98.46,72.6,102.3,69.45,106.53,69.35z"/>
			<path class="st7" d="M114.08,79.76c-0.04-0.01-3.86-1.44-7.03-2.5c-0.52-0.17-2.01,0.51-3.21,1.06c-0.94,0.43-1.91,0.88-2.8,1.15
				c-1.53,0.46-3.37-0.4-4.29-2.02c-0.93-1.64-0.58-3.45,0.94-4.82c0.04-0.04,4.18-3.67,8.84-3.78l0.01,0l0.01,0
				c0.21,0.01,5.16,0.17,10.37,2.85l0.59,0.31l-0.47,0.48c-0.03,0.03-3.15,3.31-2.31,6.68l0.23,0.92L114.08,79.76z M107.36,76.32
				c2.31,0.76,4.96,1.73,6.26,2.21c-0.26-2.75,1.44-5.2,2.27-6.23c-4.68-2.25-9.1-2.45-9.36-2.46c-4.3,0.11-8.14,3.49-8.18,3.52
				c-1.66,1.5-1.07,3.02-0.74,3.6c0.68,1.2,2.06,1.89,3.13,1.56c0.83-0.25,1.76-0.68,2.67-1.1c1.36-0.62,2.57-1.18,3.45-1.18
				C107.04,76.25,107.2,76.27,107.36,76.32z"/>
		</g>
		<g>
			<path class="st6" d="M100.06,78.35c0,0-2.53-0.4,0.37-4.13c0,0,2.98-2.03,6.02-2.16c0,0,3.37-0.12,6.67,1.67
				c0,0-0.82,3.11,0.3,4.67c0,0-6.17-2.29-6.73-2.22c0,0-2.75,0.86-4.85,1.87C101.84,78.05,100.73,78.69,100.06,78.35z"/>
		</g>
		<g>
			<g>
				<path class="st4" d="M115.97,71.39c0,0-3.58,2.7-3.01,7.54l5.5,2.69c0,0-0.81-4.51,2.98-8.04
					C121.44,73.59,117.54,71.87,115.97,71.39z"/>
				<path class="st2" d="M112.5,79.26l-0.03-0.27c-0.6-5.07,3.05-7.88,3.2-8l0.2-0.15l0.24,0.07c1.59,0.48,5.37,2.15,5.53,2.22
					l0.69,0.31l-0.55,0.51c-3.53,3.29-2.86,7.41-2.83,7.58l0.17,0.97L112.5,79.26z M116.08,71.95c-0.68,0.61-2.97,2.94-2.65,6.66
					l4.47,2.19c-0.04-1.47,0.23-4.42,2.68-7.04C119.48,73.28,117.29,72.35,116.08,71.95z"/>
			</g>
			<g>
				<path class="st5" d="M113.49,78.52c0,0-0.37-6.48,6.03-4.17c0,0-2.11,2.16-1.64,6.24L113.49,78.52z"/>
			</g>
			<g>
				<g>
					<path class="st2" d="M115.87,77.38c0.27-0.06,0.51-0.16,0.74-0.27c0.23-0.11,0.45-0.24,0.66-0.39c0.21-0.14,0.41-0.3,0.6-0.47
						c0.19-0.18,0.37-0.36,0.52-0.59c-0.27,0.06-0.51,0.16-0.74,0.27c-0.23,0.11-0.45,0.24-0.66,0.39c-0.21,0.14-0.41,0.3-0.6,0.47
						C116.2,76.97,116.02,77.15,115.87,77.38z"/>
				</g>
				<g>
					<path class="st2" d="M116.89,74.84c-0.06,0.27-0.07,0.53-0.07,0.79c0,0.26,0.03,0.51,0.07,0.76c0.04,0.25,0.1,0.5,0.18,0.75
						c0.08,0.24,0.17,0.49,0.32,0.72c0.06-0.27,0.07-0.53,0.07-0.79c0-0.26-0.03-0.51-0.07-0.76c-0.04-0.25-0.1-0.5-0.18-0.74
						C117.13,75.32,117.04,75.07,116.89,74.84z"/>
				</g>
			</g>
			<g>
				<g>
					<path class="st2" d="M114.04,76.53c0.27-0.06,0.51-0.16,0.74-0.27c0.23-0.11,0.45-0.24,0.66-0.39c0.21-0.14,0.41-0.3,0.6-0.47
						c0.19-0.18,0.37-0.36,0.52-0.59c-0.27,0.06-0.51,0.16-0.74,0.27c-0.23,0.11-0.45,0.24-0.66,0.39c-0.21,0.14-0.41,0.3-0.6,0.47
						C114.37,76.11,114.19,76.3,114.04,76.53z"/>
				</g>
				<g>
					<path class="st2" d="M115.06,73.98c-0.06,0.27-0.07,0.53-0.07,0.78c0.01,0.26,0.03,0.51,0.07,0.76c0.04,0.25,0.1,0.5,0.18,0.75
						c0.08,0.24,0.17,0.49,0.32,0.72c0.06-0.27,0.07-0.53,0.07-0.78c-0.01-0.26-0.03-0.51-0.07-0.76c-0.04-0.25-0.1-0.5-0.18-0.75
						C115.3,74.46,115.21,74.22,115.06,73.98z"/>
				</g>
			</g>
		</g>
	</g>
	<g>
		<g>
			<path class="st13" d="M74.83,104.21c0,0-0.55,2.53-0.71,4.95c0,0,0.03,2.3-1.57,2.27c0,0-7.02-1.86-7.44-1.96
				c0,0-1.39-0.33-1.73-0.79c0,0-0.94-1.96,3.59-2.86l0.86-0.58l0.18-8.32l0.33-1.16l0.61-0.94l7.32,2.23L74.83,104.21z"/>
			<path class="st7" d="M72.55,111.93l-0.06,0l-0.06-0.02c-0.07-0.02-7.03-1.86-7.42-1.96c-0.37-0.09-1.6-0.42-2.02-0.97l-0.05-0.08
				c-0.03-0.07-0.31-0.7,0.07-1.48c0.48-0.96,1.75-1.65,3.77-2.06l0.57-0.38l0.18-8.12l0.37-1.29l0.85-1.32l8.11,2.47l-1.55,7.59
				l0,0.01c-0.01,0.02-0.54,2.51-0.7,4.86c0,0.23-0.03,1.51-0.78,2.25c-0.33,0.33-0.77,0.51-1.26,0.51
				C72.57,111.93,72.56,111.93,72.55,111.93z M75.71,97.41l-6.53-1.99l-0.37,0.57l-0.29,1.03l-0.18,8.51l-1.16,0.78l-0.1,0.02
				c-2.28,0.45-2.96,1.15-3.16,1.53c-0.14,0.27-0.11,0.49-0.09,0.58c0.19,0.17,0.82,0.42,1.42,0.56c0.39,0.1,6.63,1.75,7.37,1.95
				c0.21-0.01,0.38-0.08,0.52-0.22c0.4-0.4,0.49-1.26,0.49-1.55l0-0.02l0-0.02c0.16-2.41,0.69-4.87,0.72-5.02L75.71,97.41z"/>
		</g>
		<g>
			<path class="st2" d="M68.03,99.81l0.5-0.02c1.11,2.26,3.87,3.2,6.13,2.09l2.02-0.99c2.26-1.11,3.2-3.87,2.09-6.13l0,0
				c-1.11-2.26-3.88-2.77-6.88-1.8l-1.04,0.2C68.59,94.25,66.91,97.55,68.03,99.81z"/>
			<path class="st2" d="M68.24,100.3l-0.51,0.02l-0.14-0.29c-0.58-1.18-0.53-2.71,0.14-4.19c0.62-1.38,1.71-2.55,2.91-3.14
				l0.06-0.03l1.08-0.21c3.43-1.09,6.28-0.3,7.45,2.07c0.6,1.21,0.68,2.59,0.25,3.88c-0.44,1.29-1.35,2.32-2.56,2.92l-2.02,0.99
				c-0.72,0.35-1.48,0.52-2.24,0.52C70.88,102.84,69.17,101.91,68.24,100.3z M72.04,93.42l-1.03,0.2c-0.98,0.5-1.86,1.48-2.38,2.63
				c-0.49,1.09-0.58,2.18-0.28,3.05l0.48-0.02l0.14,0.29c1,2.02,3.45,2.85,5.47,1.86l2.02-0.99c0.97-0.48,1.7-1.31,2.06-2.35
				c0.35-1.04,0.28-2.14-0.2-3.12c-0.64-1.3-1.97-1.99-3.7-1.99C73.84,92.97,72.96,93.12,72.04,93.42z"/>
		</g>
		<g>
			<path class="st2" d="M71,102.57c-1.18-0.4-2.16-1.2-2.77-2.27l-0.51,0.02l-0.14-0.29c-1.28-2.6,0.32-5.96,2.75-7.16l0.06-0.03
				l1.38-0.39c3.43-1.09,6.29-0.3,7.45,2.07c0.6,1.21,0.69,2.59,0.25,3.88c-0.44,1.29-1.35,2.33-2.56,2.93l-2.02,0.99
				c-0.22,0.11-0.44,0.2-0.67,0.27C73.18,102.94,72.06,102.93,71,102.57z M68.63,96.25c-0.49,1.08-0.58,2.17-0.28,3.04l0.48-0.02
				l0.14,0.29c0.99,2.02,3.44,2.85,5.46,1.86l2.02-0.99c0.97-0.48,1.7-1.31,2.05-2.35c0.35-1.04,0.28-2.14-0.2-3.11
				c-0.93-1.9-3.34-2.49-6.27-1.55l-1.03,0.2C70.04,94.12,69.15,95.1,68.63,96.25z"/>
		</g>
		<g>
			<path class="st2" d="M71.93,102.98l-0.41,0.73c0.4,1.39,2.5,2.17,3.76-3.07l0.69-2.58c0.19-1.72-1.19-3.3-3.07-3.51l0,0
				c-1.88-0.21-4.37,2.08-4.56,3.8l0.07,2.08C68.21,102.15,70.05,102.77,71.93,102.98z"/>
		</g>
		<g>
			<path class="st6" d="M64.1,107.66c0,0,2.65-1.82,4.04-1.42c0,0,3.23,0.22,3.6,3.16c0,0-0.04,1.32-6.76-0.75
				C64.99,108.65,63.53,108.15,64.1,107.66z"/>
		</g>
		<g>
			<g>
				<path class="st14" d="M68.4,99.37l0.72,0.18c0.71,1.15,1.76,0.36,2.9-0.36l2.6-1.62c1.15-0.71,1.5-2.24,0.79-3.39l0,0
					c-0.71-1.15-2.64-1.42-3.79-0.71l-0.51,0.1C68.19,94.96,67.69,98.23,68.4,99.37z"/>
			</g>
		</g>
		<g>
			<path class="st13" d="M63.54,110.03l9.18,2.38c0.4,0.1,0.81-0.14,0.91-0.54l0.08-0.3c0.1-0.4-0.14-0.81-0.54-0.91l-9.18-2.38
				c-0.4-0.1-0.81,0.14-0.91,0.54l-0.08,0.3C62.9,109.52,63.14,109.93,63.54,110.03z"/>
			<path class="st7" d="M72.59,112.89l-9.18-2.38c-0.32-0.08-0.59-0.29-0.76-0.57c-0.17-0.29-0.22-0.62-0.13-0.94l0.08-0.3
				c0.08-0.32,0.29-0.59,0.58-0.76c0.29-0.17,0.62-0.22,0.94-0.13l9.18,2.38c0.32,0.08,0.59,0.29,0.76,0.58
				c0.17,0.29,0.22,0.62,0.13,0.94l-0.08,0.3c-0.08,0.32-0.29,0.59-0.57,0.76c-0.2,0.11-0.41,0.17-0.63,0.17
				C72.8,112.93,72.7,112.92,72.59,112.89z M63.68,108.79c-0.03,0.02-0.09,0.07-0.12,0.15l-0.08,0.3c-0.02,0.09,0.01,0.16,0.03,0.19
				c0.02,0.03,0.07,0.09,0.15,0.12l9.18,2.38c0.09,0.02,0.16-0.01,0.19-0.03c0.03-0.02,0.09-0.07,0.12-0.15l0.08-0.3
				c0.02-0.09-0.01-0.16-0.03-0.19c-0.02-0.03-0.07-0.09-0.15-0.12l-9.18-2.38c-0.02-0.01-0.04-0.01-0.06-0.01
				C63.75,108.76,63.7,108.78,63.68,108.79z"/>
		</g>
		<g>
			<path class="st2" d="M74.35,106.9c0,0-2.14,1.25-6.28-1.51l-0.15-4.84l7.37,2.22L74.35,106.9z"/>
			<path class="st2" d="M67.79,105.81l-0.21-0.14l-0.18-5.79l8.47,2.55l-1.09,4.8l-0.19,0.11c-0.05,0.03-0.62,0.35-1.69,0.35
				C71.76,107.68,70.05,107.31,67.79,105.81z M74.7,103.11l-6.26-1.88l0.12,3.89c2.99,1.93,4.8,1.6,5.36,1.42L74.7,103.11z"/>
		</g>
		<g>
			<path class="st14" d="M71.57,101.45l-1.08,4.3c0,0-1.13,0.41-2.1-1.06l-0.23-5.55C68.16,99.14,71.72,97.99,71.57,101.45z"/>
		</g>
		<g>
			<g>
				<path class="st9" d="M75.27,101.95c0,0-1.87-0.05-7.49-1.87l-0.12,1.36c0,0,1.71,1.15,7.32,1.91L75.27,101.95z"/>
				<path class="st2" d="M74.91,103.84c-5.66-0.77-7.46-1.94-7.53-1.99l-0.24-0.16l0.2-2.28l0.59,0.19c5.4,1.75,7.31,1.85,7.35,1.85
					l0.59,0.02l-0.51,2.43L74.91,103.84z M68.22,100.74l-0.04,0.42c0.62,0.3,2.47,1.06,6.4,1.63l0.09-0.41
					C73.79,102.26,71.82,101.89,68.22,100.74z"/>
			</g>
			<g>
				<path class="st6" d="M68.3,100.67c0,0,1.97,0.74,4.55,1.32c0,0-0.87,0.48-2.73-0.06l-1.86-0.54L68.3,100.67z"/>
			</g>
		</g>
	</g>
	<g>
		<g>
			<path class="st13" d="M93.4,106.43c0,0,0.02,2.59,0.4,4.99c0,0,0.53,2.24-1.02,2.56c0,0-7.26-0.26-7.69-0.27
				c0,0-1.43-0.01-1.86-0.38c0,0-1.35-1.71,2.87-3.58l0.71-0.76l-1.66-8.15l0.07-1.2l0.39-1.06l7.63,0.56L93.4,106.43z"/>
			<path class="st7" d="M92.77,114.47c0,0-7.26-0.26-7.67-0.27c-0.38,0-1.65-0.05-2.18-0.5l-0.07-0.07
				c-0.05-0.06-0.46-0.62-0.25-1.46c0.26-1.04,1.34-2,3.22-2.85l0.47-0.5l-1.61-7.9l-0.01-0.06l0.07-1.34l0.54-1.48l8.46,0.62
				l0.17,7.75l0,0.01c0,0.03,0.03,2.56,0.4,4.89c0.05,0.22,0.3,1.48-0.26,2.36c-0.26,0.41-0.66,0.68-1.15,0.78l-0.06,0.01
				L92.77,114.47z M92.75,99.6l-6.81-0.5l-0.23,0.63l-0.06,1.06l1.7,8.34l-0.96,1.02l-0.09,0.04c-2.13,0.94-2.63,1.78-2.75,2.19
				c-0.08,0.29,0,0.5,0.04,0.59c0.22,0.12,0.9,0.23,1.51,0.24c0.4,0.01,6.9,0.24,7.62,0.27c0.21-0.05,0.35-0.16,0.46-0.33
				c0.31-0.48,0.2-1.33,0.13-1.62l-0.01-0.04c-0.38-2.39-0.41-4.9-0.41-5.06L92.75,99.6z"/>
		</g>
		<g>
			<path class="st2" d="M85.79,103.64l0.48-0.13c1.59,1.96,4.48,2.26,6.44,0.68l1.75-1.41c1.96-1.58,2.26-4.48,0.68-6.44l0,0
				c-1.58-1.96-4.39-1.84-7.11-0.24l-0.97,0.43C85.11,98.1,84.21,101.68,85.79,103.64z"/>
			<path class="st2" d="M86.1,104.07l-0.5,0.13l-0.2-0.25c-0.83-1.02-1.12-2.52-0.79-4.11c0.3-1.48,1.1-2.87,2.14-3.71l0.05-0.04
				l1.01-0.44c3.1-1.82,6.06-1.68,7.72,0.37c0.85,1.05,1.24,2.37,1.1,3.73c-0.14,1.35-0.8,2.57-1.85,3.42l-1.75,1.41
				c-0.94,0.76-2.07,1.13-3.19,1.13C88.46,105.7,87.1,105.14,86.1,104.07z M88.29,96.52l-0.96,0.42c-0.84,0.7-1.49,1.86-1.74,3.09
				c-0.24,1.17-0.09,2.25,0.41,3.03l0.47-0.13l0.2,0.25c1.42,1.75,3.99,2.02,5.74,0.6l1.75-1.41c0.84-0.68,1.37-1.66,1.49-2.75
				c0.11-1.09-0.2-2.15-0.88-3c-0.68-0.84-1.67-1.27-2.83-1.27C90.84,95.37,89.59,95.75,88.29,96.52z"/>
		</g>
		<g>
			<path class="st2" d="M89.31,105.67c-1.24-0.13-2.37-0.69-3.2-1.6l-0.5,0.13l-0.21-0.25c-1.83-2.25-1.01-5.88,1.1-7.59l0.05-0.04
				l1.26-0.68c3.11-1.82,6.06-1.68,7.73,0.37c0.85,1.05,1.24,2.38,1.1,3.73c-0.14,1.35-0.8,2.57-1.85,3.42l-1.75,1.41
				c-0.19,0.15-0.39,0.29-0.59,0.41C91.51,105.55,90.42,105.79,89.31,105.67z M85.59,100.04c-0.24,1.16-0.09,2.25,0.4,3.03
				l0.47-0.13l0.21,0.25c1.41,1.75,3.99,2.02,5.74,0.6l1.75-1.42c0.84-0.68,1.37-1.66,1.48-2.74c0.11-1.09-0.2-2.15-0.88-2.99
				c-1.33-1.64-3.8-1.69-6.46-0.12l-0.96,0.43C86.49,97.65,85.85,98.8,85.59,100.04z"/>
		</g>
		<g>
			<path class="st2" d="M90.3,105.87l-0.24,0.8c0.7,1.27,2.92,1.57,2.99-3.82l0.1-2.67c-0.19-1.72-1.89-2.96-3.77-2.74l0,0
				c-1.88,0.21-3.81,2.99-3.61,4.71l0.53,2.02C86.49,105.88,88.42,106.09,90.3,105.87z"/>
		</g>
		<g>
			<path class="st6" d="M83.7,112.16c0,0,2.19-2.37,3.63-2.27c0,0,3.2-0.5,4.21,2.28c0,0,0.26,1.3-6.75,0.76
				C84.78,112.93,83.25,112.77,83.7,112.16z"/>
		</g>
		<g>
			<g>
				<path class="st14" d="M86.06,103.13l0.75,0.02c0.95,0.96,1.79-0.04,2.75-0.99l2.17-2.15c0.96-0.95,0.97-2.52,0.02-3.48l0,0
					c-0.95-0.96-2.89-0.81-3.85,0.14l-0.47,0.21C84.87,98.88,85.11,102.17,86.06,103.13z"/>
			</g>
		</g>
		<g>
			<path class="st13" d="M83.67,114.6l9.48,0.29c0.41,0.01,0.76-0.31,0.77-0.73l0.01-0.31c0.01-0.41-0.31-0.76-0.73-0.77l-9.48-0.29
				c-0.41-0.01-0.76,0.31-0.77,0.73l-0.01,0.31C82.94,114.24,83.26,114.59,83.67,114.6z"/>
			<path class="st7" d="M93.14,115.39l-9.48-0.29c-0.33-0.01-0.64-0.15-0.87-0.39c-0.23-0.24-0.35-0.56-0.34-0.89l0.01-0.31
				c0.01-0.33,0.15-0.64,0.39-0.87c0.24-0.23,0.56-0.35,0.89-0.34l9.48,0.29c0.33,0.01,0.64,0.15,0.87,0.39
				c0.23,0.24,0.35,0.56,0.34,0.89l-0.01,0.31c-0.01,0.33-0.15,0.64-0.39,0.87c-0.23,0.22-0.54,0.34-0.85,0.34
				C93.16,115.39,93.15,115.39,93.14,115.39z M83.54,113.36c-0.03,0.03-0.08,0.09-0.08,0.17l-0.01,0.31c0,0.09,0.04,0.15,0.07,0.18
				c0.03,0.03,0.09,0.08,0.17,0.08l9.48,0.29c0.08,0,0.15-0.04,0.18-0.07c0.03-0.03,0.08-0.09,0.08-0.17l0.01-0.31
				c0-0.09-0.04-0.15-0.07-0.18c-0.03-0.03-0.09-0.08-0.18-0.08l-9.48-0.29c0,0-0.01,0-0.01,0
				C83.62,113.29,83.56,113.34,83.54,113.36z"/>
		</g>
		<g>
			<path class="st2" d="M93.52,109.16c0,0-1.81,1.69-6.45-0.08l-1.22-4.69l7.67,0.53L93.52,109.16z"/>
			<path class="st2" d="M86.89,109.54l-0.24-0.09l-1.46-5.61l8.83,0.61l0,4.92l-0.16,0.15c-0.06,0.05-0.95,0.86-2.97,0.86
				C89.86,110.38,88.54,110.17,86.89,109.54z M93.03,105.38l-6.52-0.45l0.98,3.77c3.35,1.22,5.04,0.5,5.54,0.2L93.03,105.38z"/>
		</g>
		<g>
			<path class="st14" d="M89.61,104.45l-0.1,4.43c0,0-1.01,0.65-2.28-0.57l-1.46-5.36C85.77,102.96,88.99,101.05,89.61,104.45z"/>
		</g>
		<g>
			<g>
				<path class="st9" d="M93.33,104.13c0,0-1.84,0.36-7.72-0.17l0.18,1.35c0,0,1.92,0.74,7.56,0.24L93.33,104.13z"/>
				<path class="st2" d="M85.61,105.78l-0.28-0.11l-0.3-2.26l0.62,0.06c5.66,0.51,7.54,0.18,7.58,0.18l0.58-0.12l0.04,2.49
					l-0.46,0.04c-1.43,0.13-2.62,0.17-3.61,0.17C86.82,106.23,85.68,105.8,85.61,105.78z M92.84,104.69
					c-0.89,0.07-2.89,0.14-6.65-0.18l0.06,0.42c0.67,0.16,2.64,0.49,6.61,0.18L92.84,104.69z"/>
			</g>
			<g>
				<path class="st6" d="M86.25,104.42c0,0,2.08,0.29,4.73,0.28c0,0-0.75,0.66-2.68,0.54l-1.93-0.12L86.25,104.42z"/>
			</g>
		</g>
	</g>
	<g>
		<g>
			<path class="st13" d="M101.49,96.67c0,0-22.48-2.49-28.1-10.01l-2.62,5.65c0,0,4.62,6.03,16.55,8.95c0,0,8.28,2.34,13.37,1.27
				L101.49,96.67z"/>
			<path class="st7" d="M87.19,101.74c-11.96-2.93-16.63-8.88-16.82-9.13l-0.18-0.24l3.1-6.68l0.5,0.67
				c5.43,7.26,27.53,9.79,27.76,9.81l0.51,0.06l-0.92,6.71l-0.34,0.07c-0.99,0.21-2.09,0.29-3.22,0.29
				C92.8,103.3,87.46,101.81,87.19,101.74z M100.92,97.1c-3.36-0.41-21.51-2.93-27.42-9.52l-2.15,4.64
				c0.98,1.11,5.78,6.03,16.1,8.55c0.08,0.02,7.85,2.19,12.79,1.33L100.92,97.1z"/>
		</g>
		<g>
			<path class="st2" d="M85.04,91.93c0,0-1.32,4.21-2.75,7.92c0,0-4.56-1.04-8.11-4.08l2.85-7.51
				C77.04,88.27,83.39,91.26,85.04,91.93z"/>
			<path class="st15" d="M82.19,100.34c-0.19-0.04-4.72-1.1-8.32-4.19l-0.27-0.23l3.17-8.34l0.49,0.23
				c0.06,0.03,6.36,2.99,7.98,3.66l0.42,0.17l-0.14,0.44c-0.01,0.04-1.34,4.26-2.76,7.95l-0.15,0.4L82.19,100.34z M77.31,88.95
				l-2.54,6.68c2.75,2.25,6.07,3.32,7.22,3.64c1.08-2.86,2.08-5.94,2.44-7.05C82.69,91.46,78.71,89.6,77.31,88.95z"/>
		</g>
		<g>
			<path class="st14" d="M76.45,91.42l-1.64,4.04c0,0,4.6,3.42,7.81-1.07C82.62,94.39,79.97,93.79,76.45,91.42z"/>
		</g>
	</g>
	<g>
		<g>
			<path class="st13" d="M72.4,91.24c0,0,13.35,8.6,30.05,4.55c0,0,0.7-0.59,0.77-1.15c0,0,0.49-3.36,0.48-4.1
				c-0.01-0.62-0.23-0.87-0.84-0.54c0,0-8.87,4.89-29.09-3.93c0,0-0.01-1.33-0.93-0.14C72.84,85.93,71.35,90.97,72.4,91.24z"/>
			<path class="st7" d="M72.19,91.69c-0.15-0.06-0.32-0.17-0.45-0.4c-0.61-1.08,0.32-4.48,0.62-5.5l0.03-0.09l0.06-0.07
				c0.18-0.23,0.66-0.85,1.24-0.65c0.36,0.12,0.5,0.47,0.55,0.76c19.51,8.44,28.3,3.88,28.39,3.84c0.44-0.24,0.82-0.27,1.11-0.1
				c0.46,0.27,0.46,0.87,0.47,1.07c0.01,0.76-0.43,3.83-0.48,4.17c-0.09,0.71-0.8,1.35-0.95,1.47l-0.09,0.07l-0.11,0.03
				c-3.19,0.77-6.27,1.09-9.16,1.09C81.66,97.36,72.97,92.18,72.19,91.69z M102.74,94.57c0.13-0.92,0.48-3.44,0.47-4.02
				c0-0.06,0-0.12-0.01-0.16c-0.03,0.01-0.06,0.03-0.1,0.05c-0.37,0.2-9.31,4.91-29.53-3.91l-0.3-0.13l0-0.18
				c-0.59,2.06-0.9,4.12-0.69,4.56l0.09,0.05c0.13,0.08,13.3,8.39,29.55,4.51C102.42,95.14,102.71,94.8,102.74,94.57z"/>
		</g>
		<g>
			<path class="st6" d="M72.88,86.66c0.63-0.88,0.61,0.09,0.61,0.09c12.33,6.19,15.38,4.43,15.38,4.43c0.11-0.07,3.04,0.4,3.12,0.39
				c-1.31,2.35-6.26,2.31-6.26,2.31c-7.59,0.22-13.29-3.13-13.29-3.13C71.75,90.57,72.88,86.66,72.88,86.66z"/>
		</g>
		<g>
			<path class="st0" d="M100.6,91.38c0,0-11.03,2.11-26.56-4.51c0,0-1.15-1.18-1.37,0.35c0,0-0.81,2.61-0.23,3.54
				c0,0-0.55-0.69,1.22-2.88c0,0,15.85,6.91,26.06,3.97C99.71,91.84,102.67,91.05,100.6,91.38z"/>
		</g>
	</g>
	<g>
		<g>
			<g>
				<path class="st2" d="M81,69.52l0.47-0.06c3.58,14.36,22.97,18.42,22.97,18.42l0.12,0.32l-0.94,4.17l-0.25,0.12
					c-23.06-5.06-25.3-19.47-25.3-19.47l0.16-0.56L81,69.52z"/>
			</g>
			<g>
				<path class="st15" d="M77.78,72.22l-0.22,0.75l0.01,0.09c0.02,0.15,0.62,3.77,4.1,8.05c3.19,3.93,9.53,9.16,21.58,11.81
					l0.17,0.04l0.6-0.29l1.02-4.5l-0.25-0.68l-0.27-0.06c-0.05-0.01-4.86-1.04-10.03-3.79c-4.73-2.52-10.75-7.04-12.56-14.28
					l-0.1-0.42l-1.09,0.15L77.78,72.22z M78.55,73.05l0.11-0.37l2.47-2.61c1.62,5.78,6.08,10.74,12.93,14.38
					c4.61,2.45,8.83,3.54,9.98,3.81l-0.85,3.74c-11.6-2.6-17.69-7.63-20.75-11.4C79.41,76.85,78.66,73.61,78.55,73.05z"/>
			</g>
		</g>
		<g>
			<g>
				<path class="st14" d="M96.61,86.11c0,0-1.82,2.37-6.51,0.62c0,0-8.61-4.4-11.35-13.97l2.21-2.57
					C80.96,70.2,82.68,80.14,96.61,86.11z"/>
			</g>
		</g>
		<g>
			<g>
				<g>
					<g>
						<path class="st9" d="M101.64,89.01c0.26,0.2,0.3,0.56,0.09,0.8c-0.21,0.24-0.6,0.28-0.86,0.08c-0.26-0.2-0.3-0.56-0.09-0.8
							C100.99,88.85,101.38,88.81,101.64,89.01z"/>
					</g>
					<g>
						<path class="st2" d="M100.5,88.87c-0.16,0.19-0.24,0.42-0.21,0.66c0.03,0.24,0.15,0.46,0.36,0.62
							c0.13,0.1,0.27,0.16,0.42,0.19c0.34,0.07,0.71-0.04,0.95-0.31c0.16-0.19,0.24-0.43,0.21-0.67c-0.03-0.24-0.16-0.45-0.36-0.61
							C101.45,88.43,100.83,88.49,100.5,88.87L100.5,88.87z M101.07,89.31c0.06-0.07,0.16-0.1,0.25-0.08
							c0.04,0.01,0.07,0.02,0.1,0.05c0.05,0.04,0.08,0.09,0.09,0.15c0.01,0.06-0.01,0.13-0.06,0.18c-0.09,0.1-0.24,0.12-0.35,0.04
							c-0.05-0.04-0.08-0.09-0.09-0.15C101,89.42,101.02,89.36,101.07,89.31z"/>
					</g>
				</g>
				<g>
					<g>
						<path class="st11" d="M101.49,88.99c0.21,0.13,0.25,0.41,0.09,0.63c-0.16,0.22-0.46,0.3-0.67,0.18
							c-0.21-0.13-0.25-0.41-0.09-0.63C100.99,88.94,101.29,88.86,101.49,88.99z"/>
					</g>
				</g>
				<g>
					<g>
						<path class="st10" d="M101.29,89c0.14,0.08,0.17,0.28,0.05,0.46c-0.11,0.17-0.32,0.25-0.47,0.17
							c-0.14-0.08-0.16-0.29-0.05-0.46C100.94,88.99,101.15,88.92,101.29,89z"/>
					</g>
				</g>
			</g>
			<g>
				<g>
					<g>
						<path class="st9" d="M98.53,88.05c0.26,0.2,0.3,0.56,0.09,0.8c-0.21,0.24-0.6,0.28-0.86,0.08c-0.26-0.2-0.3-0.56-0.09-0.8
							C97.88,87.88,98.26,87.85,98.53,88.05z"/>
					</g>
					<g>
						<path class="st2" d="M97.38,87.91c-0.16,0.19-0.24,0.42-0.21,0.66c0.03,0.24,0.15,0.46,0.36,0.62
							c0.13,0.1,0.27,0.16,0.42,0.19c0.34,0.07,0.71-0.04,0.95-0.31c0.17-0.19,0.24-0.43,0.21-0.67c-0.03-0.24-0.16-0.45-0.36-0.61
							C98.33,87.47,97.72,87.52,97.38,87.91L97.38,87.91z M97.95,88.35c0.06-0.07,0.16-0.1,0.25-0.08c0.04,0.01,0.07,0.02,0.1,0.05
							c0.05,0.04,0.08,0.09,0.09,0.15c0.01,0.06-0.01,0.13-0.06,0.18c-0.09,0.1-0.24,0.12-0.35,0.04c-0.05-0.04-0.08-0.09-0.09-0.15
							C97.89,88.46,97.91,88.4,97.95,88.35z"/>
					</g>
				</g>
				<g>
					<g>
						<path class="st11" d="M98.38,88.02c0.21,0.13,0.25,0.41,0.09,0.63c-0.16,0.22-0.46,0.3-0.66,0.18
							c-0.21-0.13-0.25-0.41-0.09-0.63C97.87,87.98,98.17,87.9,98.38,88.02z"/>
					</g>
				</g>
				<g>
					<g>
						<path class="st10" d="M98.18,88.04c0.14,0.08,0.16,0.29,0.05,0.46c-0.12,0.17-0.32,0.25-0.47,0.16
							c-0.14-0.08-0.16-0.29-0.05-0.46C97.83,88.03,98.04,87.96,98.18,88.04z"/>
					</g>
				</g>
			</g>
			<g>
				<g>
					<g>
						<path class="st9" d="M86.26,80.69c0.35,0.27,0.4,0.75,0.12,1.07c-0.28,0.32-0.8,0.37-1.15,0.1c-0.35-0.27-0.4-0.75-0.12-1.07
							C85.4,80.47,85.91,80.42,86.26,80.69z"/>
					</g>
					<g>
						<path class="st2" d="M84.83,80.58c-0.2,0.23-0.29,0.52-0.25,0.81c0.04,0.29,0.19,0.55,0.43,0.74
							c0.15,0.12,0.33,0.19,0.51,0.23c0.42,0.08,0.87-0.05,1.15-0.37c0.2-0.23,0.29-0.52,0.25-0.81c-0.04-0.29-0.19-0.55-0.43-0.74
							C85.98,80.04,85.24,80.11,84.83,80.58z M85.4,81.01c0.11-0.13,0.29-0.18,0.45-0.15c0.07,0.01,0.13,0.04,0.19,0.09
							c0.09,0.07,0.15,0.17,0.16,0.28c0.01,0.12-0.02,0.23-0.1,0.32c-0.16,0.18-0.45,0.21-0.64,0.06c-0.09-0.07-0.15-0.17-0.16-0.28
							C85.28,81.22,85.32,81.1,85.4,81.01z"/>
					</g>
				</g>
			</g>
			<g>
				<g>
					<g>
						<path class="st9" d="M83.3,77.81c0.26,0.2,0.3,0.56,0.09,0.8c-0.21,0.24-0.6,0.28-0.86,0.08c-0.26-0.2-0.3-0.56-0.09-0.8
							C82.65,77.65,83.04,77.62,83.3,77.81z"/>
					</g>
					<g>
						<path class="st2" d="M82.15,77.67c-0.17,0.19-0.24,0.43-0.21,0.67c0.03,0.24,0.16,0.45,0.36,0.61
							c0.13,0.1,0.27,0.16,0.42,0.19c0.34,0.07,0.71-0.04,0.95-0.31c0.17-0.19,0.24-0.43,0.21-0.67c-0.03-0.24-0.16-0.46-0.36-0.61
							C83.1,77.24,82.49,77.29,82.15,77.67L82.15,77.67z M82.72,78.11c0.06-0.07,0.16-0.1,0.25-0.08c0.04,0.01,0.07,0.02,0.1,0.05
							c0.05,0.04,0.08,0.09,0.09,0.15c0.01,0.06-0.01,0.13-0.06,0.18c-0.09,0.1-0.24,0.12-0.35,0.04c-0.05-0.04-0.08-0.09-0.09-0.15
							C82.66,78.22,82.68,78.16,82.72,78.11z"/>
					</g>
				</g>
			</g>
			<g>
				<g>
					<g>
						<path class="st9" d="M81.58,74.82c0.26,0.2,0.3,0.56,0.09,0.8c-0.21,0.24-0.6,0.28-0.86,0.08c-0.26-0.2-0.3-0.56-0.09-0.8
							C80.94,74.66,81.32,74.62,81.58,74.82z"/>
					</g>
					<g>
						<path class="st2" d="M80.44,74.68c-0.17,0.19-0.24,0.43-0.21,0.67c0.03,0.24,0.16,0.45,0.36,0.61
							c0.13,0.1,0.27,0.16,0.42,0.19c0.34,0.07,0.71-0.04,0.95-0.31c0.16-0.19,0.24-0.42,0.21-0.66c-0.03-0.24-0.15-0.46-0.36-0.62
							C81.39,74.24,80.78,74.3,80.44,74.68L80.44,74.68z M81.01,75.12c0.06-0.07,0.16-0.1,0.25-0.08c0.04,0.01,0.07,0.02,0.1,0.05
							c0.05,0.04,0.08,0.09,0.09,0.15c0.01,0.06-0.01,0.12-0.06,0.17c-0.09,0.1-0.24,0.12-0.35,0.04c-0.05-0.04-0.08-0.09-0.09-0.15
							C80.95,75.23,80.97,75.17,81.01,75.12z"/>
					</g>
				</g>
			</g>
		</g>
	</g>
	<g>
		<g>
			<g>
				<path class="st11" d="M80.67,73.85c0,0,4.02,0.11,4.67-2.42c0,0,0.81-3.37,1.44-11.12c0,0-0.12-0.99,0.91-1.1
					c0,0,0.79-0.18,0.54,1.42c0,0,0.41,10.08-2.79,13.22c0,0-2.32,2.28-6.06,0.41C79.38,74.25,78.13,73.3,80.67,73.85z"/>
			</g>
		</g>
		<g>
			<g>
				<path class="st10" d="M85.42,73.57c0,0,2.97-2.11,1.77-12.28c0,0-0.39-1.6,0.5-2.1c0,0,0.78-0.22,0.6,2.23
					c0,0,0.82,12.39-3.81,13.42C84.48,74.85,83.35,74.94,85.42,73.57z"/>
			</g>
		</g>
		<g>
			<g>
				<path class="st8" d="M75.11,56.75c0,0,0.37-1.98-0.78-3.62l-0.62-1.91c0,0,0.25-4.7,3.02-7.13c0,0,2.47-2.85,9.95-4.34
					c5.56-1.11,13.5,0.04,15.98,9.6c0,0,1.44,4.94,0.12,5.19c0,0,1.26,1.36,0.94,5.7c0,0,2.62,6.63-2.8,11.22
					c0,0-7.43,6.85-16.78,6.35l-1.91-0.43c0,0-6.08-4.9-5.69-14.14C76.56,63.23,72.83,60.28,75.11,56.75z"/>
			</g>
			<g>
				<path class="st2" d="M76.05,63.46c-0.29,9.23,5.62,14.1,5.88,14.31l0.09,0.07l2.1,0.47c1.97,0.11,3.86-0.1,5.6-0.5
					c6.62-1.51,11.29-5.75,11.54-5.98c5.22-4.42,3.28-10.74,2.96-11.66c0.21-3.13-0.37-4.76-0.76-5.49c0.03-0.04,0.07-0.09,0.1-0.13
					c0.73-1.19-0.21-4.62-0.42-5.32c-2.42-9.3-10.14-11.24-16.56-9.96c-7.25,1.45-9.9,4.15-10.2,4.47
					c-2.88,2.55-3.16,7.26-3.17,7.46l0,0.09l0.68,2.07l0.04,0.06c0.88,1.26,0.76,2.78,0.71,3.15
					C72.83,59.49,74.66,62.25,76.05,63.46z M77.06,63l-0.2-0.16c-0.14-0.11-3.34-2.72-1.34-5.82l0.05-0.08l0.02-0.1
					c0.02-0.09,0.39-2.16-0.81-3.93l-0.57-1.75c0.05-0.64,0.47-4.61,2.85-6.7l0.05-0.05c0.02-0.03,2.5-2.75,9.67-4.18
					c2.9-0.58,12.58-1.62,15.41,9.24l0,0.01c0.67,2.29,0.82,4.33,0.5,4.56l-0.88,0.17l0.61,0.66c0.01,0.01,1.11,1.33,0.81,5.32
					l-0.01,0.11l0.04,0.11c0.1,0.26,2.42,6.36-2.66,10.66c-0.09,0.08-7.39,6.69-16.39,6.23l-1.75-0.39
					c-0.71-0.63-5.77-5.38-5.42-13.66L77.06,63z"/>
			</g>
		</g>
		<g>
			<g>
				<path class="st12" d="M75.13,52.48c0.12-2.01-1.03-6.19,2.46-6.33c4.4-0.18,4.39,0.38,11.48-2.84c4.2-1.91,5.5,5.66,5.5,5.66
					c-0.74,2.94,0.74,5.12,0.74,5.12c3.09,3.34,1.38,4.35,1.38,4.35c-0.73,0.96-2.07,1.09-2.07,1.09l-1.14-0.11
					c-6.96-1.26-14.11,1.12-14.11,1.12c-0.65,0.27-2.5,1.67-2.5,1.67c-0.68-0.82-0.84-1.34-0.84-1.34
					c-0.04-1.64,0.82-3.49,0.82-3.49C77.87,55.41,75.13,52.48,75.13,52.48z"/>
			</g>
		</g>
		<g>
			<g>
				<path class="st10" d="M75.36,57.6c1.18-3.09-0.91-4.98-0.91-4.98l0.67-0.19c2.37,1.55,1.64,4.24,1.64,4.24
					c-0.97,2.44,0.79,5.2,0.79,5.2l-1.06,0.33C74.04,59.09,75.36,57.6,75.36,57.6z"/>
			</g>
		</g>
		<g>
			<g>
				<path class="st12" d="M81.07,53.06c1.91,1.86,3.61,4.95,3.61,4.95l1.3,0.28c1.59-0.26,2.39,1.26,2.39,1.26
					c0.17,1.22-1.1,0.64-1.1,0.64c-2.04-0.13-3.15,0.63-3.15,0.63c-1.54,0.8-1.94,1.41-1.94,1.41c-1.89-1.66-1.1-4.6-1.1-4.6
					C82.03,54.43,81.07,53.06,81.07,53.06z"/>
			</g>
		</g>
		<g>
			<g>
				<path class="st16" d="M81.08,53.44c1.7,1.53,1.02,4.2,1.02,4.2c-1.19,3.96,0.77,4.25,0.77,4.25c-0.96,0.94-1.93,1.35-1.93,1.35
					c-1.72-3.1,0.07-6.04,0.07-6.04C81.98,54.24,81.08,53.44,81.08,53.44z"/>
			</g>
		</g>
		<g>
			<g>
				<g>
					<path class="st14" d="M83.06,51.99c1.08-0.08,1.48-0.39,1.64-0.76c1.71-3.96,2.18-4.45,3.79-4.59
						c3.16-0.28,5.88,1.75,5.88,1.75c0.68,2.2-2.51,1.28-2.51,1.28c-3.19-1.29-5.12,2.53-5.12,2.53c-0.34,1.25-2.51,1.28-2.51,1.28
						C81.9,52.95,82.59,52.03,83.06,51.99z"/>
				</g>
				<g>
					<path class="st2" d="M82.09,52.4c-0.04,0.49,0.28,1.17,2.03,1.57l0.06,0.01l0.06,0c0.04,0,0.48-0.01,1.01-0.13
						c0.75-0.17,1.68-0.56,1.96-1.46c0.21-0.39,1.87-3.3,4.47-2.25l0.05,0.02c0.34,0.1,2.09,0.55,2.88-0.27
						c0.26-0.27,0.51-0.77,0.24-1.64l-0.05-0.15L94.67,48c-0.12-0.09-2.91-2.15-6.23-1.85c-1.98,0.18-2.56,1.09-4.2,4.89
						c-0.11,0.26-0.52,0.41-1.22,0.46C82.61,51.52,82.13,51.88,82.09,52.4z M83.11,52.49C83.11,52.49,83.11,52.49,83.11,52.49
						c0.7-0.05,1.68-0.21,2.05-1.06c1.73-4,2.09-4.18,3.38-4.29c2.56-0.23,4.84,1.18,5.41,1.56c0.04,0.18,0.06,0.39-0.04,0.5
						c-0.27,0.28-1.25,0.19-1.87,0.01c-0.82-0.32-1.57-0.35-2.26-0.2c-1.7,0.39-2.94,1.93-3.47,2.97l-0.04,0.09
						c-0.19,0.69-1.47,0.89-1.98,0.91C83.45,52.79,83.18,52.57,83.11,52.49z"/>
				</g>
			</g>
			<g>
				<g>
					<path class="st17" d="M83.4,52.22c0.73-0.11,1.67-0.85,1.76-1.11c0.96-2.78,1.25-3.58,2.34-3.76c2.13-0.35,4.08,0.9,4.08,0.9
						c1.11,1.23-0.94,0.64-0.94,0.64c-2.6-0.25-4.04,2.33-4.04,2.33c-0.22,1.52-1.4,1.48-1.4,1.48
						C83.67,53.11,83.09,52.26,83.4,52.22z"/>
				</g>
			</g>
			<g>
				<g>
					<path class="st16" d="M84.55,51.81c-0.27,0.58,0.31,0.44,0.31,0.44c0.75-0.18,1.22-0.57,1.22-0.57
						c0.75,0.02-0.15,0.89-0.15,0.89c-1.75,1.03-2.64,0-2.64,0C83.25,51.78,84.55,51.81,84.55,51.81z"/>
				</g>
			</g>
		</g>
		<g>
			<g>
				<g>
					<path class="st14" d="M76.88,50.12c0,0,0.84,0.97,1.5,1.63c0,0,0.53,0.63,1.17,0.64c0.27,0.01,0.58-0.45,1.1-0.11
						c0,0,0.6,1.9-1.71,1.81c0,0-1.21-0.2-1.59-0.75c0,0-0.63-0.95-2.23-0.89c0,0-2.23,0.51-1.62-1.12
						C73.5,51.32,74.39,48.37,76.88,50.12z"/>
				</g>
				<g>
					<path class="st2" d="M73.03,51.16c-0.27,0.73-0.07,1.17,0.14,1.4c0.55,0.63,1.69,0.44,2.02,0.37c1.25-0.03,1.74,0.65,1.76,0.68
						c0.47,0.69,1.68,0.92,1.92,0.96l0.06,0.01c0.34,0.01,0.64-0.01,0.9-0.07c0.46-0.1,0.81-0.32,1.05-0.64
						c0.55-0.72,0.28-1.65,0.25-1.75l-0.05-0.17l-0.15-0.1c-0.59-0.39-1.08-0.13-1.31-0.01c-0.03,0.02-0.06,0.03-0.08,0.04
						c-0.32-0.03-0.66-0.35-0.76-0.46l-0.03-0.03c-0.64-0.64-1.47-1.59-1.48-1.6l-0.04-0.05l-0.05-0.03
						c-0.87-0.61-1.68-0.79-2.42-0.54C73.57,49.59,73.08,50.99,73.03,51.16z M73.97,51.49l0.01-0.03c0.09-0.3,0.47-1.13,1.1-1.35
						c0.41-0.14,0.9-0.01,1.47,0.38c0.18,0.2,0.89,1.01,1.47,1.59c0.12,0.14,0.73,0.78,1.52,0.8c0.22,0,0.39-0.08,0.53-0.16
						c0.07-0.03,0.11-0.06,0.15-0.07c0.02,0.18,0.01,0.44-0.13,0.62c-0.22,0.28-0.71,0.33-1.09,0.32c-0.41-0.07-1.06-0.29-1.23-0.54
						c-0.03-0.04-0.8-1.17-2.66-1.11l-0.09,0.01c-0.45,0.1-0.99,0.08-1.1-0.05C73.89,51.88,73.87,51.76,73.97,51.49z"/>
				</g>
			</g>
			<g>
				<g>
					<path class="st17" d="M76.16,50.27c0,0,0.43,0.05,0.96,0.81c0,0,0.66,0.73,1.31,1.49c0,0,0.7,0.43-0.64,0.51
						c0,0-1.25-0.42-1.49-0.8c0,0-0.37-0.34-1.29-0.2c0,0-1.03,0.22-0.75-1.01C74.26,51.07,75.02,49.58,76.16,50.27z"/>
				</g>
			</g>
			<g>
				<g>
					<path class="st16" d="M75.04,50.05c0.24-0.32,1.51,0.44,1.51,0.44c-2.01-0.51-1.56,1.43-1.56,1.43
						c-0.67,0.6-1.11-0.15-1.11-0.15C74.04,49.93,75.04,50.05,75.04,50.05z"/>
				</g>
			</g>
		</g>
		<g>
			<g>
				<path class="st12" d="M80.81,66.22c6.12-3.34,11.76-1.96,11.76-1.96c2.76-0.19,2.59,1.24,2.59,1.24c0.51,3.48-1.14,7.1-1.14,7.1
					c-1.56,2.05-4.07,1.99-4.07,1.99c-4.82-2.3-6.47,1.47-6.47,1.47c-3.89-2.52-4.49-5.16-4.49-5.16
					C77.37,67.12,80.81,66.22,80.81,66.22z"/>
			</g>
		</g>
		<g>
			<g>
				<path class="st10" d="M78.13,62.52c0-0.04-0.01-0.07-0.01-0.11C78.13,62.41,78.21,62.44,78.13,62.52z"/>
			</g>
			<g>
				<path class="st10" d="M78.13,62.52c0.65,9.31,4.18,12.35,4.18,12.35c2.34,0.92,3.93,1.3,3.93,1.3c2.96-0.18,2.25,0.73,2.25,0.73
					c-3.66,1.01-5.94-0.32-5.94-0.32c-6.68-6.85-5.38-13.62-5.38-13.62C77.82,62.73,78.06,62.6,78.13,62.52z"/>
			</g>
		</g>
		<g>
			<g>
				<path class="st2" d="M87.56,55.43l-0.66-0.42c0.28-0.19,0.56-0.36,0.84-0.52c-0.03,0.09-0.06,0.18-0.08,0.26
					C87.6,54.98,87.58,55.21,87.56,55.43z"/>
			</g>
			<g>
				<path class="st2" d="M86.97,54.5c0.12-0.26,0.27-0.5,0.45-0.71c0.17-0.22,0.38-0.4,0.59-0.57c0.22-0.16,0.45-0.3,0.7-0.39
					c-0.18,0.2-0.33,0.4-0.47,0.61c-0.14,0.21-0.25,0.43-0.35,0.64c-0.06,0.13-0.11,0.27-0.16,0.4c-0.29,0.15-0.57,0.32-0.84,0.52
					l0.66,0.42c0.02-0.22,0.04-0.45,0.11-0.67c0.02-0.09,0.05-0.18,0.08-0.26c0.25-0.13,0.5-0.26,0.76-0.37
					c0.56-0.24,1.14-0.44,1.75-0.56c0.6-0.12,1.23-0.17,1.85-0.11c0.62,0.07,1.23,0.25,1.74,0.58c-0.61-0.05-1.17-0.03-1.73,0.04
					c-0.56,0.08-1.1,0.22-1.63,0.38c-0.53,0.16-1.06,0.36-1.58,0.58c-0.52,0.22-1.05,0.45-1.53,0.7l-0.85,0.44l0.19-0.86
					C86.76,55.04,86.84,54.76,86.97,54.5z"/>
			</g>
		</g>
		<g>
			<g>
				<path class="st2" d="M79.73,56.77c-0.07-0.18-0.14-0.35-0.23-0.52c-0.04-0.08-0.09-0.16-0.13-0.24
					c0.27,0.03,0.54,0.08,0.82,0.16L79.73,56.77z"/>
			</g>
			<g>
				<path class="st2" d="M76.3,56.74c0.36-0.28,0.78-0.48,1.21-0.6c0.44-0.12,0.88-0.16,1.33-0.16c0.17,0.01,0.35,0.02,0.52,0.04
					c0.05,0.08,0.09,0.16,0.13,0.24c0.09,0.17,0.16,0.34,0.23,0.52l0.45-0.6c-0.28-0.08-0.55-0.13-0.82-0.16
					c-0.05-0.08-0.11-0.17-0.17-0.25c-0.23-0.31-0.51-0.61-0.86-0.85c0.21-0.01,0.43,0.04,0.64,0.12c0.21,0.08,0.41,0.19,0.59,0.32
					c0.18,0.14,0.36,0.3,0.5,0.48c0.08,0.09,0.14,0.19,0.21,0.28c0.07,0.1,0.12,0.2,0.18,0.3l0.43,0.72l-0.88-0.12
					c-0.36-0.05-0.77-0.08-1.16-0.08c-0.39-0.01-0.77,0.01-1.16,0.06c-0.38,0.05-0.75,0.14-1.12,0.26
					c-0.37,0.13-0.71,0.33-1.08,0.57C75.66,57.41,75.94,57.02,76.3,56.74z"/>
			</g>
		</g>
		<g>
			<g>
				<path class="st18" d="M82.38,69.76c-1.04-2.21,0.59-2.25,0.59-2.25c1.55-0.79,4.38-0.67,4.38-0.67
					c2.24,0.51,2.96,2.27,2.96,2.27c0.51,1.7-2.23,2.52-2.23,2.52c-2.66-0.33-4.03,0.4-4.03,0.4c-1.24,0.52-1.56-0.86-1.56-0.86
					C82.66,70.54,82.38,69.76,82.38,69.76z"/>
			</g>
			<g>
				<path class="st2" d="M82.14,71.09l-0.02,0.08l0.02,0.08c0.02,0.08,0.2,0.81,0.82,1.12c0.25,0.13,0.67,0.23,1.25-0.01l0.03-0.01
					c0.01-0.01,1.32-0.66,3.81-0.36l0.08,0.01l0.07-0.02c0.07-0.02,1.76-0.54,2.35-1.65c0.23-0.42,0.27-0.88,0.13-1.34l-0.01-0.03
					c-0.03-0.08-0.83-1.95-3.23-2.49l-0.07-0.01c-0.12-0.01-2.87-0.12-4.5,0.67c-0.29,0.03-0.75,0.19-1.01,0.61
					c-0.31,0.51-0.26,1.23,0.17,2.15C82.1,70.11,82.24,70.67,82.14,71.09z M82.89,71.16c0.13-0.7-0.14-1.48-0.15-1.52l-0.01-0.04
					c-0.31-0.66-0.39-1.18-0.23-1.46c0.15-0.25,0.49-0.26,0.49-0.26l0.08,0l0.08-0.04c1.36-0.7,3.85-0.64,4.17-0.63
					c1.9,0.44,2.59,1.87,2.66,2.03c0.06,0.21,0.2,0.79-0.77,1.45c-0.46,0.31-0.97,0.5-1.15,0.56c-2.56-0.3-3.96,0.35-4.15,0.44
					c-0.25,0.1-0.44,0.11-0.6,0.03C83.08,71.61,82.94,71.32,82.89,71.16z"/>
			</g>
		</g>
		<g>
			<g>
				<path class="st19" d="M82.73,67.56c0,0,3.03-1.05,4.92-0.53c0,0,1.76,0.61,1.66,1.28c0,0-2.09-0.39-6.95,0.87
					C82.37,69.18,81.42,67.97,82.73,67.56z"/>
			</g>
			<g>
				<path class="st2" d="M81.71,68c-0.21,0.66,0.3,1.34,0.36,1.41l0.15,0.19l0.24-0.06c4.69-1.21,6.77-0.87,6.79-0.86l0.38,0.07
					l0.06-0.38c0.14-0.9-1.43-1.52-1.91-1.69c-2-0.55-5.04,0.49-5.17,0.53C82.02,67.39,81.8,67.74,81.71,68z M82.43,68.22
					c0.04-0.13,0.18-0.23,0.42-0.3c0.04-0.01,2.95-1.01,4.7-0.53c0.4,0.14,0.77,0.33,1.03,0.5c-1-0.02-2.95,0.09-6.04,0.87
					C82.45,68.58,82.38,68.37,82.43,68.22z"/>
			</g>
		</g>
		<g>
			<g>
				<path class="st19" d="M82.85,70.88c1.86-1.18,5.58-1.06,5.58-1.06c1.37-0.53,1.52,0.16,1.52,0.16c-0.65,1.04-1.96,1.3-1.96,1.3
					c-2.7-0.11-4.64,0.72-4.64,0.72C82.54,70.82,82.85,70.88,82.85,70.88z"/>
			</g>
			<g>
				<path class="st2" d="M82.49,70.69c-0.16,0.24-0.11,0.54,0.56,1.51l0.17,0.25l0.28-0.12c0.02-0.01,1.9-0.79,4.48-0.69l0.09-0.01
					c0.01,0,0.02,0,0.04-0.01c0.25-0.06,1.49-0.39,2.16-1.45l0.08-0.13l-0.03-0.15c-0.01-0.06-0.09-0.34-0.43-0.52
					c-0.36-0.19-0.88-0.17-1.53,0.06c-0.55-0.01-3.84-0.03-5.66,1.09C82.62,70.55,82.55,70.61,82.49,70.69z M83.23,71.08
					c1.79-0.99,5.16-0.9,5.19-0.9l0.08,0l0.07-0.03c0.49-0.19,0.76-0.19,0.91-0.16c-0.53,0.63-1.33,0.85-1.51,0.89
					c-2.15-0.08-3.82,0.42-4.46,0.64C83.36,71.32,83.28,71.18,83.23,71.08z"/>
			</g>
		</g>
		<g>
			<g>
				<path class="st2" d="M87.99,62.08c0.03-0.01,0.07-0.02,0.1-0.03c0.03,0.01,0.07,0.01,0.1,0.02L87.99,62.08z"/>
			</g>
			<g>
				<path class="st2" d="M79.18,60.2l0,0.05c0.06-0.8,0.25-1.55,0.47-2.27c0.22-0.73,0.51-1.42,0.84-2.1l0.07-0.14l0.06-0.11
					c0.04-0.08,0.07-0.15,0.1-0.22c0.06-0.15,0.11-0.31,0.14-0.47c0.06-0.32,0.06-0.67,0-1.01c-0.12-0.68-0.46-1.35-0.9-1.94
					c0.57,0.47,1.04,1.09,1.31,1.83c0.13,0.37,0.19,0.77,0.17,1.18c-0.01,0.2-0.04,0.41-0.09,0.61c-0.03,0.1-0.06,0.2-0.09,0.29
					l-0.05,0.14l-0.04,0.12c-0.24,0.68-0.43,1.38-0.59,2.07c-0.16,0.69-0.26,1.4-0.28,2.07l0,0.05c-0.03,0.37-0.02,0.79,0.02,1.18
					c0.04,0.39,0.11,0.78,0.23,1.12c0.12,0.35,0.29,0.65,0.51,0.88c0.11,0.11,0.23,0.2,0.36,0.28c0.12,0.07,0.26,0.11,0.4,0.15
					c-0.01,0-0.03,0-0.04,0l0.08,0.01c-0.01,0-0.02-0.01-0.03-0.01c0.08,0,0.2,0,0.3,0c0.13,0,0.25-0.02,0.38-0.03
					c0.25-0.03,0.51-0.08,0.75-0.15c0.49-0.14,0.96-0.36,1.37-0.65c0.1-0.07,0.21-0.15,0.3-0.23c0.05-0.04,0.09-0.08,0.14-0.12
					l0.03-0.03l0.07-0.06c0.04-0.04,0.08-0.07,0.12-0.1c0.32-0.23,0.64-0.37,0.98-0.46c0.63-0.17,1.27-0.16,1.86-0.05
					c-0.04,0.01-0.07,0.02-0.1,0.03l0.21-0.01c-0.03-0.01-0.07-0.01-0.1-0.02c0.08-0.02,0.17-0.05,0.24-0.08
					c0.12-0.05,0.23-0.1,0.34-0.16c0.21-0.12,0.38-0.28,0.48-0.45c0.09-0.17,0.13-0.36,0.09-0.59c-0.04-0.22-0.14-0.47-0.27-0.7
					c0.01,0.01,0.01,0.02,0.02,0.02l-0.03-0.04c0,0,0,0.01,0.01,0.01c-0.19-0.23-0.45-0.46-0.71-0.65c-0.28-0.2-0.58-0.37-0.9-0.49
					c-0.32-0.12-0.66-0.2-1.01-0.22c-0.35-0.02-0.71,0.02-1.07,0.1c0.33-0.16,0.69-0.27,1.06-0.32c0.37-0.05,0.76-0.03,1.14,0.05
					c0.38,0.08,0.74,0.22,1.08,0.4c0.35,0.18,0.66,0.39,0.96,0.69l0,0l0.02,0.03c0.2,0.26,0.37,0.56,0.48,0.92
					c0.11,0.35,0.1,0.8-0.08,1.17c-0.17,0.37-0.46,0.65-0.75,0.86c-0.15,0.1-0.3,0.19-0.46,0.27c-0.16,0.08-0.3,0.14-0.5,0.2
					l-0.07,0.02l-0.13-0.01c-0.52-0.05-1.04-0.04-1.48,0.11c-0.22,0.07-0.43,0.18-0.58,0.3c-0.02,0.01-0.03,0.03-0.05,0.04
					l-0.01,0.01l-0.05,0.04c-0.06,0.06-0.12,0.12-0.18,0.18c-0.12,0.11-0.24,0.21-0.37,0.31c-0.52,0.39-1.11,0.69-1.73,0.88
					c-0.31,0.09-0.63,0.16-0.95,0.2c-0.16,0.02-0.32,0.04-0.49,0.04c-0.17,0.01-0.31,0.01-0.52-0.01l-0.04,0l-0.04-0.01
					c-0.26-0.06-0.53-0.16-0.77-0.3c-0.24-0.14-0.47-0.32-0.65-0.52c-0.37-0.41-0.61-0.89-0.75-1.36c-0.15-0.47-0.21-0.95-0.24-1.41
					C79.1,61.13,79.12,60.69,79.18,60.2z"/>
			</g>
			<g>
				<path class="st2" d="M81.75,63.94c0.01,0,0.03,0,0.04,0c0.01,0,0.02,0.01,0.03,0.01L81.75,63.94z"/>
			</g>
			<g>
				<path class="st2" d="M88.99,60.1c-0.01-0.01-0.01-0.02-0.02-0.02c0,0,0-0.01-0.01-0.01L88.99,60.1z"/>
			</g>
		</g>
		<g>
			<g>
				<g>
					<path class="st8" d="M104.35,50.06c0,0,3.28,2.2,2,6.07c0,0-0.68,1.71-2.27,2.92c0,0-1.29,1.12-2.77,1.3l-2.14-4.14
						c-0.06-2.49,0.43-3.6,0.43-3.6S100.68,49.5,104.35,50.06z"/>
				</g>
				<g>
					<path class="st2" d="M104.42,49.56l0.11,0.02l0.09,0.06c0.04,0.02,3.58,2.46,2.2,6.64l-0.01,0.03
						c-0.03,0.08-0.74,1.85-2.42,3.13c-0.14,0.12-1.23,1.02-2.58,1.33c-0.14,0.03-0.29,0.06-0.44,0.08l-0.12-0.99
						c1.3-0.16,2.49-1.17,2.5-1.18l0.03-0.02c1.39-1.06,2.04-2.56,2.1-2.7c1.03-3.15-1.24-5.06-1.73-5.42
						c-3.1-0.4-4.04,2.14-4.07,2.25l-0.01,0.04c0,0.01-0.45,1.07-0.39,3.39l-0.99,0.02c-0.06-2.45,0.4-3.64,0.47-3.8
						C99.27,52.11,100.58,48.98,104.42,49.56z"/>
				</g>
			</g>
			<g>
				<g>
					<path class="st12" d="M103.6,51.63c0,0,3.07,2.32-0.35,6.32c0,0-3.16,2.27-2.17-4.13C101.08,53.82,101.59,51.48,103.6,51.63z"
						/>
				</g>
			</g>
			<g>
				<g>
					<g>
						<path class="st2" d="M100.9,53.93c0.08-0.2,0.2-0.4,0.36-0.56c0.17-0.16,0.33-0.31,0.52-0.44l0.13-0.1
							c0.05-0.03,0.1-0.06,0.15-0.09c0.1-0.05,0.19-0.12,0.31-0.15c0.21-0.08,0.44-0.14,0.66-0.15c0.45-0.02,0.88,0.08,1.23,0.31
							l-0.04,0.09c-0.38-0.07-0.77-0.05-1.09,0.09c-0.33,0.12-0.59,0.34-0.81,0.6c-0.23,0.26-0.3,0.62-0.54,0.88
							c-0.1,0.15-0.23,0.29-0.36,0.43c-0.13,0.15-0.28,0.3-0.48,0.44l-0.09-0.03c-0.07-0.23-0.08-0.45-0.08-0.67
							C100.78,54.35,100.84,54.14,100.9,53.93z"/>
					</g>
				</g>
				<g>
					<g>
						<path class="st2" d="M102.59,53.29c0.22,0.14,0.43,0.31,0.6,0.51c0.17,0.2,0.3,0.44,0.36,0.69c0.06,0.25,0.03,0.5-0.03,0.73
							c-0.03-0.23-0.08-0.46-0.2-0.63c-0.12-0.18-0.28-0.31-0.45-0.41c-0.18-0.1-0.38-0.16-0.58-0.21c-0.2-0.04-0.42-0.07-0.59-0.06
							l0.17-0.98C102.15,53.02,102.36,53.14,102.59,53.29z"/>
					</g>
				</g>
			</g>
		</g>
		<g>
			<g>
				<path class="st14" d="M77.9,39.01c2.9-2.43,8.03-3.63,8.03-3.63c8.04-1.34,10.56,2.74,10.56,2.74c2.08-4.26,4.31-1.27,4.31-1.27
					c3.34-1.01,4.81,1.91,4.81,1.91c1.84,2.35-0.06,3.88-0.06,3.88c0.63,3.43-3.67,4.41-3.67,4.41c-3.28-6.12-6.83-6.35-6.83-6.35
					c-5.82-1.99-11.56,2.86-11.56,2.86c-3.97,2.66-5.84-0.12-5.84-0.12C76.18,41.27,77.9,39.01,77.9,39.01z"/>
			</g>
			<g>
				<path class="st2" d="M77.21,43.73c0.02,0.03,2.2,3.15,6.53,0.26l0.04-0.03c0.06-0.05,5.6-4.65,11.08-2.77l0.06,0.02l0.07,0
					c0.03,0,3.34,0.33,6.42,6.09l0.18,0.33l0.37-0.08c1.6-0.37,4.44-1.81,4.09-4.71c0.74-0.76,1.46-2.39-0.05-4.34
					c-0.57-1.09-2.29-2.84-4.99-2.22c-0.02,0.01-0.05,0.01-0.07,0.02c-0.37-0.38-1.16-1.04-2.17-0.94
					c-0.89,0.08-1.69,0.72-2.39,1.89c-1.11-1.16-4.16-3.4-10.56-2.34l-0.02,0l-0.02,0c-0.21,0.05-5.28,1.25-8.24,3.73l-0.04,0.04
					l-0.03,0.04C77.42,38.81,75.59,41.28,77.21,43.73z M78.26,39.35c2.71-2.24,7.46-3.41,7.76-3.48c7.61-1.26,10.01,2.47,10.04,2.51
					l0.47,0.77l0.4-0.81c0.61-1.25,1.28-1.94,1.95-2.01c0.83-0.08,1.51,0.81,1.51,0.81l0.21,0.28l0.33-0.1
					c0.11-0.03,0.21-0.06,0.32-0.08c2.66-0.61,3.85,1.65,3.9,1.75l0.05,0.08c1.52,1.94,0.08,3.13,0.01,3.18l-0.23,0.19l0.05,0.29
					c0.44,2.41-1.99,3.43-2.94,3.73c-3.1-5.56-6.42-6.18-6.97-6.25c-5.88-1.97-11.5,2.57-11.97,2.95c-3.47,2.31-5.07,0.1-5.13,0
					C76.89,41.45,78.05,39.66,78.26,39.35z"/>
			</g>
		</g>
		<g>
			<g>
				<path class="st17" d="M78.49,39.38c6.68-4.59,13.07-3.25,13.07-3.25c-1.8,0.33-2.62,1.38-2.62,1.38
					c-1.56,2.17-4.55,2.31-4.55,2.31c1.49,1.59-0.91,1.44-0.91,1.44c0.92,1.54-1.03,2.08-1.03,2.08c-0.79,2.03-4.35-0.04-4.35-0.04
					C76.63,41.94,78.49,39.38,78.49,39.38z"/>
			</g>
		</g>
		<g>
			<g>
				<path class="st17" d="M97.9,36.88c1.4-1.37,2.58,0.65,2.58,0.65c1.96-0.59,3.16,0.22,3.16,0.22c2.67,1.2,1.15,2.94,1.15,2.94
					c-0.62,2.25-2.63,0.34-2.63,0.34c0.32,1.8-2.12,0.4-2.12,0.4c-0.45-1.6-3.37-2.46-3.37-2.46C96.94,37.22,97.9,36.88,97.9,36.88z
					"/>
			</g>
		</g>
		<g>
			<g>
				<path class="st16" d="M78.49,39.38c7.27-4.64,12.11-3.38,12.11-3.38c-5.6,0.25-8.47,2.76-8.47,2.76
					c4.15,0.12,2.65,1.44,2.65,1.44c-1.94-1.67-4.96,0-4.96,0c-2.6,1.47-0.84,3.65-0.84,3.65C75.99,41.56,78.49,39.38,78.49,39.38z"
					/>
			</g>
		</g>
		<g>
			<g>
				<path class="st16" d="M100.22,37.31c3.01-0.65,3.73,0.63,3.73,0.63c-1.95-1.02-3.95,0.61-3.95,0.61
					c-1.88-2.24-2.44,1.41-2.44,1.41c-0.22-0.5-0.88-0.97-0.88-0.97C98.06,34.5,100.22,37.31,100.22,37.31z"/>
			</g>
		</g>
	</g>
</g>
</svg>
