<?xml version="1.0" encoding="utf-8"?>
<!-- Generator: Adobe Illustrator 28.5.0, SVG Export Plug-In . SVG Version: 9.03 Build 54727)  -->
<svg version="1.0" id="Layer_1" xmlns="http://www.w3.org/2000/svg" xmlns:xlink="http://www.w3.org/1999/xlink" x="0px" y="0px"
	 viewBox="0 0 200 200" style="enable-background:new 0 0 200 200;" xml:space="preserve">
<style type="text/css">
	.st0{fill:url(#SVGID_1_);}
	.st1{fill:#A55125;}
	.st2{fill:#462512;}
	.st3{fill:url(#SVGID_00000069391555263723376050000002825731230726875058_);}
	.st4{fill:#D46A28;}
	.st5{fill:#592F11;}
	.st6{fill:#FFFFFF;}
</style>
<g>
	<g>
		<g>
			<linearGradient id="SVGID_1_" gradientUnits="userSpaceOnUse" x1="94.9109" y1="16.8599" x2="108.8913" y2="182.3711">
				<stop  offset="0" style="stop-color:#7C451F"/>
				<stop  offset="1" style="stop-color:#663716"/>
			</linearGradient>
			<path class="st0" d="M191.26,101.73c-13.47,33.3-52.5,85.2-91.27,89.99c-44.86,5.54-80.01-58.85-91.26-92.54
				C0.95,75.9,0.84,47.47,19.48,28.64C40.21,7.69,73.51,6.02,99.99,9.19C144.12,14.46,214.81,43.5,191.26,101.73z"/>
			<path class="st1" d="M6.49,91.11c24.33,1.89,48.62,2.47,72.12-1.65c37.36-6.56,74.22-22.55,111.04-34.66
				c-18.03-29.79-58.43-41.86-89.66-45.61C47.89,2.95-8.92,27.85,6.49,91.11z"/>
			<path class="st2" d="M165.64,89.06c-6.79,1.54-13.11,4.71-19.19,7.54c-25.67,11.94-52.85,21.22-79.14,31.74
				c-3.02,1.21-6.03,2.49-8.66,4.33c-4.54,3.17-7.79,7.95-10.59,12.86c-2.33,4.09-4.39,8.32-6.2,12.66
				c14.66,16.37,33.97,36.5,58.13,33.53c38.74-4.75,77.94-56.75,91.27-89.99c2.05-5.11,3.48-10.13,4.27-14.99
				c-5.5,0.16-11,0.4-16.48,0.73C174.57,87.74,170.07,88.06,165.64,89.06z"/>
			
				<linearGradient id="SVGID_00000055709184259792814310000014021248204013928844_" gradientUnits="userSpaceOnUse" x1="83.467" y1="21.3214" x2="122.9245" y2="168.14">
				<stop  offset="0" style="stop-color:#FDD78D"/>
				<stop  offset="1" style="stop-color:#663716"/>
			</linearGradient>
			<path style="fill:url(#SVGID_00000055709184259792814310000014021248204013928844_);" d="M174.98,100.64
				c-9.67,29.72-41.16,72.22-74.99,75.48C61.16,179.87,33.58,128.31,25,98.36C10.62,48.18,52.62,16.91,99.99,22.88
				C138.34,27.7,190.65,52.45,174.98,100.64z"/>
			<path class="st1" d="M170.82,101.45c-8.81,28.65-38.68,67-70.84,69.84c-35.93,3.18-63.35-42.25-70.83-71.83
				c-12.08-47.73,27.5-75.03,70.83-69.84C135.5,33.87,184.64,56.51,170.82,101.45z"/>
			<path class="st4" d="M195.31,69.22c0,0-9.56,2.22-11.08,2.59c-1.52,0.37-14.38,4.07-15.71,4.5c-23.47,7.45-63.09,2.96-93.53,1.29
				c-13.93-0.76-29.8-4.09-43.27-1.75c-5.99,1.04-16.12,10.07-17.92,10.38c-1.81,0.32-8.21,0.68-8.21,0.68
				c1.02,3.3,1.53,4.95,2.55,8.24c8.38-3.47,17.81-8.11,25.27-10.16c17.77-4.89,43.25-3.15,64.8-4.18
				c20.16,1.21,40.32,2.39,60.48,3.55c10.79-2.78,21.65-5.35,32.54-7.7c1.84-1.58,2.77-2.37,4.66-3.93
				C195.66,71.32,195.54,70.62,195.31,69.22z"/>
			<path class="st5" d="M195.31,69.22c-3.32,1.98-6.81,3.62-10.59,4.11c-2.09,0.27-4.16,0.17-6.22,0.59
				c-2.92,0.59-5.5,2.17-8.2,3.34c-7.31,3.17-15.29,3.15-22.83,2.96c-31.7-0.79-63.46-2.03-95.1-3.86
				c-7.34-0.43-15.02-0.89-21.07,1.73c-5.04,2.18-8.5,6.39-13.2,8.75c-3.45,1.73-8.22,2.09-12.52,0.06
				c0.8,4.03,1.85,8.12,3.15,12.27c0.28,0.89,0.57,1.77,0.86,2.65c0.32,0.1,0.64,0.21,0.95,0.3c4.63,1.38,9.49,1.93,12.56-0.57
				c3.11-2.53,3.71-7.64,6.99-10.17c2.07-1.6,4.99-2,7.81-2.36c36.73-4.57,73.61-7.11,110.26-3.44c5.77,0.58,11.9,1.65,17.67,0.82
				c9.82-1.41,20.15-4.45,30.37-6.22C196.32,76.44,196.04,72.78,195.31,69.22z"/>
			<path class="st4" d="M140.78,115.4c-0.02-0.15-58.59,6.09-86.29,4.86c-7.1-0.31-14.79,0.4-18.59,6.22
				c-3.8,5.82-7.71,13.19-7.71,13.19c2.52,0.78,3.77,1.16,6.25,1.93c3.68-6.19,5.69-9.25,10.04-15.28
				c13.3-1.76,26.61-3.43,39.93-4.99C102.85,120.01,140.78,115.4,140.78,115.4z"/>
			<path class="st5" d="M140.78,115.4c-30.11,4.59-60.37,4.94-90.63,6.24c-2.3,0.1-4.65,0.23-6.64,1.13
				c-2.11,0.95-3.71,2.7-5.23,4.45c-3.58,4.1-6.94,8.26-10.08,12.47c2.63,4.05,5.35,7.92,8.13,11.58c2.75-5.11,3.22-12.49,6.6-17.43
				c3.65-5.33,10.34-7.31,16.69-8.27C86.35,121.5,114.04,122.89,140.78,115.4z"/>
			<path class="st4" d="M79.75,133.03c18.94-2.4,39.57-3.14,57.29-8.39c15.82-4.69,33.02-10.13,49.83-13.12
				c-0.85,1.46-1.27,2.19-2.11,3.65c-6.77,2.65-10.07,4.01-16.5,6.78c-12.93,2.82-26.04,6.3-38.64,9.1
				c-7.54,1.68-15.53,3.16-23.27,4.86C97.47,134.97,88.61,134.01,79.75,133.03z"/>
			<path class="st5" d="M167.47,116.77c-5.29,1.33-10.5,3.57-15.5,5.28c-23.32,7.98-47.27,10.11-72.21,10.98
				c1.59,0.99,2.37,1.48,3.93,2.46c17.73,1.95,35.1,2.18,52.49,0.09c12.33-1.48,25.05-3.92,37.74-3.72
				c4.51-6.17,8.67-12.57,12.19-19.13C179.92,114.55,173.48,115.25,167.47,116.77z"/>
			<path class="st4" d="M8.54,44.71c0.2-0.67,0.3-1,0.5-1.67c15.49,1.92,31.12,4.23,46.57,5.38c22.34,1.67,45.73,4.19,67.53,5.96
				c19.51,1.58,41.34-4.16,61.28-6.94c0.75,1.28,1.12,1.92,1.85,3.19c-5.17,2.49-7.7,3.76-12.65,6.36
				c-12.19,0.38-24.38,0.82-36.58,1.31c-12.35-1.23-24.71-2.48-37.06-3.73c-14.47-0.59-28.95-1.17-43.42-1.72
				c-14.43-1.9-28.85-3.83-43.27-5.79C11.4,46.12,10.45,45.66,8.54,44.71z"/>
			<path class="st5" d="M180.7,64.13c4.19-0.22,8.6-0.78,12.91-1.01c-1.81-5.05-4.58-9.9-8.27-14.51c-16.08,4.82-32,7.35-48.32,7.18
				c-18.3-0.2-37.64-3.19-56.12-4.52C65.13,50.12,48.67,50.05,33,47.94c-7.26-0.98-14.87-2.78-22.12-3.16
				c-0.78-0.04-1.56-0.06-2.34-0.07c-0.65,1.5-1.23,3.04-1.74,4.61c1.92-0.08,3.95,0.08,5.95,0.41c6.3,1.05,12.85,3.83,18.85,4.85
				c13.49,2.29,28.16,0.19,41.91-0.07C108.33,53.87,145.16,65.98,180.7,64.13z"/>
			<path class="st4" d="M136.26,39.45c0-0.02-43.21-5.1-62.41-11.95c-10.38-3.7-20.96-8.64-31.32-13.21
				c-1.98,0.81-2.97,1.22-4.93,2.05c8.54,3.95,12.73,5.89,20.93,9.68c9.87,3.06,19.74,6.1,29.63,9.1
				C104.16,36.68,136.26,39.45,136.26,39.45z"/>
			<path class="st5" d="M41.41,15.89c-0.53-0.18-1.08-0.36-1.62-0.53c-4.46,1.87-8.56,4.08-12.26,6.62
				c10.31,1.61,20.46,3.55,30.32,6.32c7.69,2.16,15.7,5.16,23.41,6.89c17.72,3.98,36.34,4.19,55,4.25
				c-24.01-2.26-47.94-4.87-69.93-13.29C58.17,23.03,49.83,18.82,41.41,15.89z"/>
			<path class="st4" d="M112.04,156.28c-10.58-1.37-20.41,1.73-29.8,5.64c-8.68,3.61-12.15,12.45-20.07,16.36
				c2.09,0.1,3.14,0.14,5.22,0.24c4.85-4.5,7.42-6.72,12.84-11.1c7.8-3.63,11.85-5.41,20.26-8.89
				C105.07,157.62,107.39,157.17,112.04,156.28z"/>
			<path class="st5" d="M72.42,173.06c-2.8,2.27-5.95,3.51-9.04,4.73c-0.41,0.16-0.81,0.32-1.21,0.48c2.22,1.75,4.43,3.34,6.63,4.77
				c0.8-1.23,1.67-2.4,2.59-3.49c4.6-5.46,10.44-9.31,16.52-13.06c4.06-2.5,8.34-4.99,12.92-5.93c3.12-0.64,6.4-0.62,9.29-2.69
				c0.77-0.65,1.16-0.97,1.94-1.61c-11.52,0.75-23.97,2.47-32.86,10.21C76.82,168.54,74.76,171.17,72.42,173.06z"/>
		</g>
	</g>
	<ellipse class="st6" cx="132.92" cy="32.45" rx="4.38" ry="3.21"/>
	
		<ellipse transform="matrix(0.5022 -0.8647 0.8647 0.5022 34.3987 161.1066)" class="st6" cx="157.13" cy="50.68" rx="5.24" ry="10.71"/>
	<ellipse class="st6" cx="56.2" cy="151.03" rx="3.52" ry="3.18"/>
</g>
</svg>
