<?xml version="1.0" encoding="utf-8"?>
<!-- Generator: Adobe Illustrator 28.5.0, SVG Export Plug-In . SVG Version: 9.03 Build 54727)  -->
<svg version="1.0" id="Layer_1" xmlns="http://www.w3.org/2000/svg" xmlns:xlink="http://www.w3.org/1999/xlink" x="0px" y="0px"
	 viewBox="0 0 32 32" style="enable-background:new 0 0 32 32;" xml:space="preserve">
<style type="text/css">
	.st0{fill:#F7D581;}
	.st1{fill:#EAA498;}
	.st2{fill:#693B58;}
	.st3{fill:#FCCBA9;}
	.st4{fill:#97424D;}
	.st5{fill:#C7725D;}
	.st6{fill:#654C47;}
	.st7{fill:#382823;}
	.st8{fill:#2B1E1A;}
	.st9{fill:#1D1514;}
	.st10{fill:#9585AC;}
	.st11{fill:#6A5B65;}
	.st12{fill:#CCC7CA;}
	.st13{fill:#FFFFFF;}
	.st14{fill:#CD1E55;}
	.st15{opacity:0.64;}
	.st16{fill:#F0759B;}
	.st17{fill:#2E5D2D;}
	.st18{fill:#1B2519;}
	.st19{opacity:0.85;}
	.st20{fill:#0F2824;}
	.st21{opacity:0.78;}
	.st22{fill:#53A046;}
	.st23{fill:#EE353F;}
	.st24{fill:#E88B62;}
	.st25{fill:#FBE4A9;}
	.st26{fill:#F4966E;}
	.st27{fill:#FAE6A8;}
	.st28{fill:#F3E0D8;}
	.st29{fill:#BB684F;}
</style>
<path class="st0" d="M16.46,38.29c-0.08,0-0.17-0.01-0.25-0.03l-3.56-0.99c-0.5-0.14-0.79-0.65-0.65-1.15L12.03,36
	c0.02-0.07,0.04-0.13,0.08-0.19c-0.01-0.21,0.03-0.41,0.09-0.58l-0.04-0.03l0.39-0.72c0.29-0.66,0.49-1.28,0.49-1.28l0.09-0.28
	c-0.16,0-0.27-0.01-0.28-0.01l-0.59-0.05l-0.01-0.17c-0.02,0.04-0.03,0.08-0.05,0.12c-0.03,0.1-0.07,0.19-0.11,0.29l-0.09,0.26
	l-0.05,0.08c-0.04,0.06-0.09,0.12-0.14,0.18c-0.41,0.62-0.91,0.98-1.43,1.02l-0.44,0.06L9.3,34.65l-2.21-0.31v0l-0.23,0.35
	c-0.08,0.13-0.15,0.25-0.24,0.37l-0.75,1.15l-0.16-0.42c-0.03,0.01-0.06,0.02-0.08,0.03c-0.14,0.12-0.3,0.19-0.48,0.22l-0.12,0.02
	c-0.04,0.01-0.08,0.01-0.12,0.01c-0.47,0-0.86-0.35-0.92-0.81L3.49,31.6c-0.03-0.25,0.03-0.49,0.18-0.69s0.37-0.33,0.62-0.36
	l0.12-0.02c0.04-0.01,0.08-0.01,0.12-0.01c0.03,0,0.06,0,0.08,0c0.05-0.03,0.1-0.05,0.16-0.06l0.13-0.72
	C3.66,30.8,2.14,31.4,0.6,31.4c-0.44,0-0.87-0.05-1.3-0.14c-3.62-0.79-5.85-4.72-4.97-8.76c0.75-3.43,3.55-5.93,6.7-6.02
	c-0.04-0.1-0.05-0.17-0.06-0.19l-0.27-1.09l1.07,0.25c-0.05-0.08-0.08-0.14-0.09-0.17c-0.31-0.65-0.13-1.03,0.09-1.22
	c0.15-0.14,0.34-0.21,0.56-0.21c0.24,0,0.47,0.1,0.63,0.18c0.21,0.09,0.43,0.14,0.66,0.14c0.37,0,0.64-0.12,0.75-0.18
	c0.06-0.06,0.1-0.1,0.13-0.14C4.32,13.02,4.64,12.15,5,11.59C5,11.5,4.99,11.4,5,11.3L4.9,9.47l0.13-0.08
	C5.02,9.22,5.01,9.01,5.02,8.78C2.91,7.31,2.38,4.91,2.36,4.8l0-0.02c-0.33-1.99,0.4-2.43,0.87-2.51C3.28,2.25,3.34,2.25,3.4,2.25
	c0.51,0,0.91,0.38,1.07,0.55c1.78,1.76,3.16,1.89,3.55,1.89c0.03,0,0.05,0,0.07,0c0.37-0.18,0.74-0.33,1.12-0.46l0.26-0.47
	l2.84-0.42l0.83,0.29c0.32,0.12,0.61,0.26,0.87,0.44c0.07,0.02,0.15,0.04,0.22,0.06c0.42-0.1,2.13-0.62,2.64-2.56l0.08-0.29
	l0.26-0.14c0.13-0.07,0.28-0.11,0.44-0.11c0.19,0,0.38,0.06,0.54,0.16c0.61,0.41,0.77,1.42,0.56,3.4l0,0.01
	c-0.02,0.16-0.23,1.47-1.02,2.57l0.31,0.16l0.15,1.11c0.3,0.29,0.43,0.66,0.47,0.79c0.02,0.07,0.04,0.14,0.05,0.21
	c0.31,0.07,0.72,0.29,0.95,0.92l0.02,0.05l0,0.01c0.02,0.06,0.31,1.17-0.24,2.3c0.1,0,0.2-0.01,0.31-0.04
	c0.11-0.03,0.28-0.07,0.46-0.07c0.39,0,0.62,0.17,0.74,0.31c0.11,0.13,0.26,0.39,0.18,0.77c0.02,0,0.03,0,0.05,0
	c0.33,0,0.53,0.14,0.65,0.26c0.3,0.32,0.29,0.76-0.02,1.3l-0.02,0.03c-0.06,0.1-0.59,0.89-1.36,1.44c-0.01,0.24-0.15,0.49-0.43,0.74
	c-0.14,0.19-0.49,0.6-1.07,0.86c-0.09,0.25-0.2,0.49-0.31,0.72c0.21,0.18,0.46,0.4,0.59,0.46c0.17,0,0.36-0.01,0.57-0.01l0.01-0.02
	l2.32-0.24c0.05-0.06,0.11-0.12,0.17-0.18c-0.29-0.31-0.46-0.63-0.51-0.96c-0.07-0.48,0.13-0.88,0.33-1.08l0.33-0.32l0.42,0.18
	c0,0,0.21,0.09,0.57,0.23c0.49-2.98,2.05-10.33,5.77-13.52l0.74-0.64l0.35,0.91c0.05,0.14,0.51,1.43,0.32,3.98
	c-0.16,2.14-0.86,5.65-3.19,10.41c0.13,0.02,0.26,0.05,0.39,0.06l0.27,0.04l0.17,0.21c0.06,0.08,0.35,0.48,0.24,1.01
	c-0.06,0.27-0.21,0.52-0.44,0.72c-0.08,0.09-0.18,0.16-0.29,0.22l-0.06,0.03l-0.02,0.01c-0.12,0.08-0.33,0.18-0.64,0.23
	c0,0.18-0.03,0.35-0.08,0.5c-0.06,0.17-0.15,0.33-0.27,0.46c0.04,0.22,0.02,0.45-0.04,0.65c-0.08,0.26-0.23,0.48-0.45,0.67
	c-0.05,0.3-0.2,0.84-0.74,1.24c0.12,0.68-0.13,1.14-0.16,1.2l-0.15,0.27l-1.69,0.34l-0.18-0.6c-0.14-0.46-0.61-0.53-0.88-0.53
	c-0.02,0-0.03,0-0.04,0l-0.3,0.03l-0.23-0.21c-0.26-0.25-0.36-0.56-0.39-0.85c-0.24,0.01-0.46,0.01-0.64,0.02
	c-0.07,0.07-0.14,0.13-0.23,0.18l-0.07,0.48l-0.34,0.16c-0.1,0.05-0.16,0.09-0.19,0.12c-0.13,0.6-0.46,0.85-0.71,0.96
	c-0.13,0.05-0.27,0.08-0.41,0.08c-0.16,0-0.31-0.03-0.44-0.08c0.01,0.02,0.03,0.05,0.04,0.07l0.06,0.11l0.01,0.13
	c0.15,1.26,0.08,2.1-0.21,2.49l0.24,1.96l-0.34,0.24c-0.02,0.01-0.06,0.04-0.14,0.09c0.17,0.41,0.2,0.8,0.11,1.14l0,0L18,32.59
	l-0.26,0.54l-0.02,0.03c-0.01,0.02-0.03,0.04-0.04,0.06l-1.09,1.82l0,0l0.24,0.35c0.09,0.12,0.17,0.24,0.24,0.36l0.77,1.14
	l-0.45-0.02c0,0.03,0,0.06-0.01,0.09c0.05,0.17,0.06,0.35,0.01,0.53l-0.03,0.12c-0.07,0.24-0.22,0.44-0.44,0.56
	C16.78,38.25,16.62,38.29,16.46,38.29L16.46,38.29z M6.06,18.85c0.04,0,0.07,0,0.11,0c-0.01-0.01-0.01-0.03-0.02-0.04
	c-0.04,0.01-0.08,0.01-0.11,0.02C6.04,18.84,6.05,18.84,6.06,18.85L6.06,18.85z"/>
<g>
	<g>
		<g>
			<path class="st1" d="M16.02,35.49l-0.27-0.39l1.39-2.32l0.23-0.46c0.01-0.02-0.03,0.01-0.02-0.01l0.11-0.34
				c0.24-0.55-0.4-1.49-0.96-1.88c-0.74-0.52-1.55-0.17-2.08,0.92l0,0c0,0,0-0.13,0,0l-0.73,2.4c0,0-0.31,0.96-0.73,1.81
				c0,0-0.43,0.68,0.11,0.98c0,0,2.61,0.81,2.78,0.85c0,0,0.53,0.16,0.74,0.07C16.58,37.13,17.1,36.69,16.02,35.49L16.02,35.49z"/>
			<path class="st2" d="M16.41,37.35c-0.24,0-0.52-0.08-0.62-0.11c-0.16-0.04-2.67-0.82-2.78-0.86l-0.04-0.02
				c-0.18-0.1-0.3-0.25-0.35-0.44c-0.09-0.36,0.12-0.73,0.16-0.81c0.41-0.82,0.71-1.77,0.71-1.77l0.72-2.38l0-0.03l0.06,0
				l-0.05-0.02c0.33-0.68,0.77-1.1,1.27-1.23c0.37-0.09,0.75-0.01,1.1,0.24c0.62,0.43,1.3,1.44,1.03,2.11l-0.07,0.2l0.01,0.01
				l-0.05,0.15l-0.24,0.48l-1.33,2.21l0.19,0.28c0.51,0.57,0.75,1.06,0.73,1.47c-0.02,0.28-0.16,0.42-0.19,0.44l-0.02,0.02
				l-0.03,0.01C16.59,37.34,16.5,37.35,16.41,37.35L16.41,37.35z M13.15,36.03c0.91,0.28,2.62,0.81,2.75,0.85
				c0.22,0.07,0.47,0.1,0.58,0.09c0.05-0.09,0.18-0.48-0.6-1.34l-0.01-0.02l-0.34-0.49l1.45-2.42l0.17-0.34l0.02-0.1l0.12-0.35
				c0.18-0.42-0.35-1.27-0.89-1.65c-0.26-0.18-0.52-0.24-0.78-0.18c-0.37,0.1-0.73,0.45-1.01,1.01l-0.73,2.39
				c-0.01,0.04-0.32,0.99-0.74,1.84l-0.01,0.02c-0.05,0.08-0.17,0.33-0.12,0.51C13.02,35.92,13.07,35.98,13.15,36.03L13.15,36.03z"
				/>
		</g>
		<path class="st3" d="M16.63,36.6c0,0-0.45-1.11-0.99-1.24c0,0-1.13-0.56-1.83,0.36c0,0-0.34,0.43,2.34,1.04
			C16.14,36.76,16.72,36.87,16.63,36.6L16.63,36.6z"/>
		<g>
			<path class="st4" d="M16.33,37.62l-3.45-0.96c-0.19-0.05-0.3-0.25-0.25-0.43l0,0c0.05-0.19,0.25-0.3,0.43-0.25l3.45,0.96
				c0.19,0.05,0.3,0.25,0.25,0.43l0,0C16.71,37.56,16.51,37.67,16.33,37.62L16.33,37.62z"/>
			<path class="st2" d="M16.46,37.79c-0.04,0-0.08-0.01-0.12-0.02l-3.56-0.99c-0.23-0.06-0.37-0.31-0.3-0.54l0.03-0.12
				c0.06-0.23,0.31-0.37,0.54-0.3l3.56,0.99c0.23,0.06,0.37,0.31,0.3,0.54l-0.03,0.12c-0.03,0.11-0.1,0.21-0.21,0.26
				C16.61,37.77,16.54,37.79,16.46,37.79z M12.93,36.11c-0.06,0-0.12,0.04-0.14,0.11l-0.03,0.12c-0.02,0.08,0.02,0.16,0.1,0.18
				l3.56,0.99c0.04,0.01,0.08,0.01,0.11-0.01c0.03-0.02,0.06-0.05,0.07-0.09l0.03-0.12c0.02-0.08-0.02-0.16-0.1-0.18l-3.56-0.99
				C12.96,36.11,12.94,36.1,12.93,36.11L12.93,36.11z"/>
		</g>
		<g>
			<g>
				<path class="st5" d="M13.28,34.47c0,0,1.05,0.53,1.07,1.83l-0.76-0.25c0,0,0.3-0.45-0.6-1.05L13.28,34.47L13.28,34.47z"/>
				<path class="st2" d="M14.49,36.51l-1.13-0.38l0.1-0.16c0.01-0.01,0.19-0.35-0.56-0.85l-0.11-0.07l0.41-0.77l0.13,0.06
					c0.05,0.02,1.12,0.58,1.15,1.96L14.49,36.51L14.49,36.51z M13.77,35.96l0.42,0.14c-0.09-0.81-0.62-1.26-0.86-1.42l-0.15,0.28
					C13.76,35.39,13.81,35.76,13.77,35.96z"/>
			</g>
			<g>
				<path class="st5" d="M16.19,35.59c0,0-0.85-0.25-1.64,0.78l0.76,0.25c0,0,0.22-0.48,1.29-0.43L16.19,35.59L16.19,35.59z"/>
				<path class="st2" d="M15.38,36.8l-0.12-0.04l-0.95-0.32l0.13-0.16c0.85-1.1,1.76-0.85,1.8-0.84l0.05,0.01l0.6,0.89l-0.29-0.01
					c-0.94-0.04-1.15,0.34-1.16,0.35L15.38,36.8L15.38,36.8z M14.8,36.3l0.45,0.15c0.12-0.14,0.43-0.38,1.07-0.4l-0.22-0.33
					C15.94,35.69,15.38,35.66,14.8,36.3L14.8,36.3z"/>
			</g>
		</g>
		<g>
			<path class="st1" d="M16.63,33.36l-0.16-0.11c-0.82,0.51-1.92,0.26-2.43-0.56l-0.46-0.74c-0.51-0.82-0.26-1.92,0.56-2.43l0,0
				c0.82-0.51,1.83-0.12,2.62,0.81l0.3,0.28C17.57,31.42,17.45,32.84,16.63,33.36L16.63,33.36z"/>
			<path class="st2" d="M15.54,33.71c-0.15,0-0.3-0.02-0.45-0.05c-0.51-0.12-0.95-0.43-1.22-0.87l-0.46-0.74
				c-0.57-0.92-0.29-2.13,0.63-2.7c0.86-0.54,1.96-0.22,2.86,0.84l0.31,0.29l0.01,0.02c0.55,0.89,0.46,2.43-0.49,3.03l-0.11,0.07
				l-0.16-0.11C16.17,33.63,15.86,33.71,15.54,33.71L15.54,33.71z M14.92,29.48c-0.24,0-0.47,0.06-0.68,0.2
				c-0.74,0.46-0.96,1.43-0.5,2.17l0.46,0.74c0.22,0.35,0.57,0.6,0.98,0.7c0.41,0.1,0.83,0.03,1.19-0.2l0.11-0.07l0.15,0.1
				c0.63-0.51,0.69-1.71,0.28-2.4l-0.3-0.28C16.08,29.82,15.47,29.48,14.92,29.48L14.92,29.48z"/>
		</g>
		<path class="st1" d="M14.79,33.63l-0.04,0.41c-0.62,0.15-0.81-0.47-0.58-1.86l0.27-0.9c0.29-0.6,1.06-0.84,1.72-0.53l0,0
			c0.66,0.31,1.37,0.78,1.08,1.38l-0.59,1.12C16.36,33.87,15.45,33.95,14.79,33.63L14.79,33.63z"/>
		<path class="st3" d="M16.71,32.77L16.71,32.77c-0.47,0.23-1.04,0.04-1.27-0.43l-0.52-1.06c-0.23-0.47-0.04-1.04,0.43-1.27l0,0
			c0.47-0.23,1.13,0.16,1.36,0.63l0.48,0.65C17.42,31.76,17.18,32.54,16.71,32.77L16.71,32.77z"/>
		<path class="st3" d="M15.16,33.03l-0.57,1.74c0,0,0.51,0.03,0.94,0.26l1.52-2.49C17.05,32.54,15.83,31.86,15.16,33.03z"/>
	</g>
	<g>
		<g>
			<path class="st1" d="M6.44,34l0.25-0.4l2.68,0.37L9.89,34c0.02,0-0.02-0.02,0-0.02l0.35-0.03c0.6,0,1.22-0.95,1.36-1.62
				c0.19-0.89-0.45-1.49-1.66-1.56l0,0c0,0,0.12-0.05,0,0l-2.5,0.27c0,0-1,0.1-1.95,0.04c0,0-0.79-0.13-0.86,0.49
				c0,0,0.28,2.72,0.3,2.89c0,0,0.06,0.55,0.22,0.71C5.15,35.16,5.76,35.46,6.44,34L6.44,34z"/>
			<path class="st2" d="M5.3,35.38c-0.12,0-0.21-0.04-0.23-0.05l-0.03-0.01L5.02,35.3c-0.2-0.19-0.27-0.68-0.28-0.83
				c-0.02-0.16-0.29-2.78-0.3-2.89l0-0.02l0-0.02c0.02-0.21,0.11-0.38,0.27-0.5c0.3-0.23,0.72-0.18,0.8-0.17
				c0.92,0.05,1.9-0.04,1.91-0.04l2.47-0.27l0.03-0.01l0.02,0.06l0-0.05c0.75,0.04,1.32,0.28,1.63,0.68
				c0.23,0.3,0.31,0.68,0.22,1.11c-0.16,0.74-0.82,1.77-1.54,1.77l-0.21,0.02l-0.01,0.02l-0.14,0.02l-0.55-0.03l-2.55-0.35
				L6.61,34.1c-0.32,0.69-0.68,1.11-1.06,1.24C5.45,35.37,5.37,35.39,5.3,35.38L5.3,35.38z M5.27,34.99c0.1,0.01,0.51-0.02,1-1.07
				l0.01-0.02l0.32-0.51l2.79,0.39l0.38,0.02l0.1-0.02l0.37-0.03l0,0c0.45,0,1.03-0.82,1.17-1.46c0.07-0.31,0.02-0.58-0.15-0.79
				c-0.23-0.3-0.7-0.49-1.32-0.53l-2.48,0.27c-0.04,0-1.03,0.1-1.98,0.04l-0.02,0c-0.09-0.01-0.37-0.03-0.52,0.09
				c-0.06,0.05-0.1,0.11-0.11,0.21c0.1,0.95,0.28,2.73,0.3,2.86C5.15,34.66,5.21,34.9,5.27,34.99L5.27,34.99z"/>
		</g>
		<path class="st3" d="M5.66,34.99c0,0,0.84-0.85,0.75-1.4c0,0,0.07-1.26-1.05-1.54c0,0-0.53-0.14-0.04,2.56
			C5.32,34.6,5.45,35.19,5.66,34.99L5.66,34.99z"/>
		<g>
			<path class="st4" d="M4.6,35.12l-0.47-3.55c-0.03-0.19,0.11-0.37,0.3-0.4l0,0c0.19-0.03,0.37,0.11,0.4,0.3l0.47,3.55
				c0.03,0.19-0.11,0.37-0.3,0.4l0,0C4.81,35.45,4.63,35.31,4.6,35.12L4.6,35.12z"/>
			<path class="st2" d="M4.9,35.58c-0.22,0-0.4-0.16-0.43-0.38l0,0l-0.49-3.67c-0.03-0.24,0.14-0.46,0.38-0.49l0.12-0.02
				c0.24-0.03,0.46,0.14,0.49,0.38l0.49,3.67c0.03,0.24-0.14,0.46-0.38,0.49l-0.12,0.02C4.94,35.58,4.92,35.58,4.9,35.58L4.9,35.58z
				 M4.76,35.16c0.01,0.08,0.08,0.14,0.16,0.13l0.12-0.02c0.08-0.01,0.14-0.08,0.13-0.16l-0.49-3.67c-0.01-0.08-0.08-0.14-0.16-0.13
				l-0.12,0.02c-0.08,0.01-0.14,0.08-0.13,0.16L4.76,35.16L4.76,35.16z"/>
		</g>
		<g>
			<g>
				<path class="st5" d="M6.3,31.08c0,0-0.08,1.17-1.27,1.7l-0.07-0.8c0,0,0.53,0.1,0.74-0.96L6.3,31.08L6.3,31.08z"/>
				<path class="st2" d="M4.91,33l-0.1-1.19l0.19,0.03c0.01,0,0.4,0.04,0.57-0.85l0.03-0.13l0.87,0.08l-0.01,0.14
					c0,0.05-0.1,1.26-1.35,1.83L4.91,33z M5.12,32.12l0.04,0.44c0.71-0.41,0.92-1.06,0.97-1.35l-0.32-0.03
					C5.65,31.88,5.33,32.07,5.12,32.12L5.12,32.12z"/>
			</g>
			<g>
				<path class="st5" d="M6.42,34.2c0,0-0.1-0.88-1.37-1.2l0.07,0.8c0,0,0.52,0.01,0.9,1.02L6.42,34.2L6.42,34.2z"/>
				<path class="st2" d="M5.99,35.13l-0.1-0.27c-0.33-0.89-0.77-0.93-0.77-0.93l-0.13,0l-0.1-1.13l0.2,0.05
					c1.34,0.35,1.47,1.29,1.47,1.33l0.01,0.05L5.99,35.13L5.99,35.13z M5.26,33.67c0.18,0.06,0.51,0.24,0.79,0.83l0.22-0.33
					c-0.04-0.16-0.23-0.69-1.05-0.97L5.26,33.67z"/>
			</g>
		</g>
		<g>
			<path class="st1" d="M8.65,33.72l0.04-0.19c-0.8-0.56-0.99-1.66-0.44-2.46l0.5-0.71c0.56-0.8,1.66-0.99,2.46-0.44l0,0
				c0.8,0.56,0.83,1.64,0.29,2.73l-0.14,0.39C10.8,33.83,9.44,34.28,8.65,33.72L8.65,33.72z"/>
			<path class="st2" d="M9.51,34.16c-0.37,0-0.7-0.1-0.97-0.28l-0.1-0.07l0.04-0.2c-0.37-0.3-0.62-0.71-0.7-1.19
				c-0.09-0.52,0.02-1.04,0.32-1.47l0.5-0.71c0.3-0.43,0.75-0.71,1.27-0.81c0.52-0.09,1.04,0.02,1.47,0.32
				c0.84,0.58,0.97,1.72,0.35,2.96l-0.14,0.4l-0.01,0.02c-0.3,0.42-0.81,0.77-1.37,0.93C9.92,34.13,9.71,34.16,9.51,34.16
				L9.51,34.16z M8.86,33.63c0.31,0.17,0.73,0.2,1.17,0.07c0.47-0.13,0.89-0.41,1.14-0.75l0.14-0.38c0.53-1.06,0.44-2.01-0.22-2.48
				c-0.34-0.24-0.76-0.33-1.17-0.26c-0.41,0.07-0.78,0.3-1.01,0.65l-0.5,0.71c-0.24,0.34-0.33,0.76-0.26,1.17
				c0.07,0.41,0.3,0.78,0.65,1.01l0.1,0.07L8.86,33.63L8.86,33.63z"/>
		</g>
		<path class="st1" d="M7.67,32.14l-0.4,0.12C6.9,31.75,7.39,31.33,8.76,31l0.93-0.1c0.67,0.03,1.19,0.65,1.16,1.38l0,0
			C10.82,33,10.67,33.84,10,33.81l-1.27-0.1C8.07,33.68,7.64,32.87,7.67,32.14L7.67,32.14z"/>
		<path class="st3" d="M9.21,33.57L9.21,33.57c-0.4-0.34-0.44-0.94-0.1-1.34l0.77-0.9c0.34-0.4,0.94-0.44,1.34-0.1l0,0
			c0.4,0.34,0.29,1.1-0.05,1.49l-0.41,0.7C10.43,33.82,9.61,33.91,9.21,33.57L9.21,33.57z"/>
		<path class="st3" d="M8.37,32.25l-1.82,0.16c0,0,0.17,0.48,0.13,0.97l2.88,0.42C9.56,33.79,9.71,32.4,8.37,32.25L8.37,32.25z"/>
	</g>
	<g>
		<g>
			<path class="st1" d="M18.03,22.89c0,0,1.87,0.53,4.11,0.14c0,0-0.85-1.68-0.07-2.95c0,0-1.6,0.09-2.92,0.11
				c-0.47,0.01-1.34-1.04-2.09-1.56c-0.88-0.6-2.62,0.45-1.77,1.9C15.41,20.74,16.47,22.36,18.03,22.89L18.03,22.89z"/>
			<path class="st2" d="M20.45,23.37c-1.41,0-2.41-0.28-2.47-0.29l-0.01,0c-1.72-0.59-2.84-2.42-2.85-2.44
				c-0.41-0.69-0.33-1.4,0.21-1.91c0.53-0.49,1.32-0.6,1.83-0.25c0.3,0.2,0.61,0.48,0.91,0.75c0.38,0.34,0.86,0.77,1.07,0.77h0
				c1.3-0.02,2.89-0.11,2.91-0.11l0.37-0.02l-0.19,0.31c-0.71,1.16,0.07,2.74,0.08,2.76l0.12,0.23l-0.26,0.05
				C21.56,23.33,20.97,23.37,20.45,23.37L20.45,23.37z M18.09,22.7c0.1,0.03,1.77,0.47,3.77,0.18c-0.19-0.48-0.54-1.59-0.12-2.58
				c-0.54,0.03-1.64,0.08-2.59,0.09c-0.37,0-0.82-0.4-1.34-0.87c-0.29-0.26-0.59-0.53-0.87-0.72c-0.36-0.25-0.96-0.15-1.35,0.21
				c-0.19,0.18-0.59,0.67-0.14,1.43C15.47,20.45,16.5,22.16,18.09,22.7L18.09,22.7z"/>
		</g>
		<g>
			<path class="st4" d="M20.31,23.28c0,0-0.95-1.47-0.09-3.17l2.38-0.25c0,0-0.9,1.54,0.02,3.34
				C22.62,23.21,20.96,23.32,20.31,23.28L20.31,23.28z"/>
			<path class="st2" d="M20.64,23.48c-0.13,0-0.24,0-0.34-0.01l-0.1-0.01l-0.05-0.08c-0.04-0.06-1-1.58-0.1-3.36l0.05-0.09l2.86-0.3
				l-0.19,0.33c-0.03,0.06-0.83,1.48,0.02,3.16l0.13,0.26l-0.29,0.02C22.57,23.4,21.39,23.48,20.64,23.48L20.64,23.48z M20.43,23.09
				c0.5,0.02,1.42-0.03,1.89-0.06c-0.55-1.29-0.25-2.41-0.04-2.94l-1.93,0.2C19.73,21.63,20.26,22.77,20.43,23.09L20.43,23.09z"/>
		</g>
		<path class="st5" d="M20.36,20.34c0,0-1,2.33,1.65,2.33c0,0-0.48-1.07,0.24-2.51L20.36,20.34z"/>
		<g>
			<path class="st2" d="M21.08,21.07c0.09,0.06,0.16,0.13,0.23,0.2c0.07,0.07,0.13,0.15,0.19,0.23c0.06,0.08,0.11,0.16,0.16,0.25
				c0.05,0.09,0.09,0.18,0.11,0.29c-0.09-0.06-0.16-0.13-0.23-0.2c-0.07-0.07-0.13-0.15-0.19-0.23c-0.06-0.08-0.11-0.16-0.16-0.25
				C21.15,21.27,21.11,21.18,21.08,21.07L21.08,21.07z"/>
			<path class="st2" d="M21.12,22.14c0.01-0.11,0.04-0.2,0.08-0.3c0.04-0.09,0.08-0.18,0.13-0.27c0.05-0.09,0.1-0.17,0.16-0.25
				c0.06-0.08,0.13-0.16,0.21-0.22c-0.01,0.11-0.04,0.2-0.08,0.3c-0.04,0.09-0.08,0.18-0.13,0.27c-0.05,0.09-0.1,0.17-0.16,0.25
				C21.27,22,21.2,22.07,21.12,22.14z"/>
		</g>
		<g>
			<path class="st2" d="M20.3,21.14c0.09,0.06,0.16,0.13,0.23,0.2c0.07,0.07,0.13,0.15,0.19,0.23c0.06,0.08,0.11,0.16,0.16,0.25
				c0.05,0.09,0.09,0.18,0.11,0.29c-0.09-0.06-0.16-0.13-0.23-0.2c-0.07-0.07-0.13-0.15-0.19-0.23c-0.06-0.08-0.11-0.16-0.15-0.25
				C20.36,21.34,20.32,21.24,20.3,21.14L20.3,21.14z"/>
			<path class="st2" d="M20.33,22.21c0.01-0.11,0.04-0.2,0.08-0.3c0.04-0.09,0.08-0.18,0.13-0.27c0.05-0.09,0.1-0.17,0.16-0.25
				c0.06-0.08,0.13-0.16,0.21-0.22c-0.01,0.11-0.04,0.2-0.08,0.3c-0.04,0.09-0.08,0.18-0.13,0.27c-0.05,0.09-0.1,0.17-0.16,0.25
				C20.48,22.07,20.41,22.14,20.33,22.21z"/>
		</g>
		<path class="st3" d="M16.68,18.78c0,0-0.99-0.15-0.35,1.58c0,0,0.87,1.1,1.99,1.51c0,0,0.62,0.13,0.96,0.12
			c0,0-0.06-0.84,0.6-1.61c0,0-0.79,0.06-0.99-0.03c0,0-0.92-0.64-1.59-1.26C17.3,19.1,16.96,18.73,16.68,18.78z"/>
	</g>
	<g>
		<g>
			<path class="st1" d="M23.3,19.2l1.12,0.28c0,0,0.51-0.17,1.2,0.26l0.34,0.56c0,0,0.44,1.01-0.36,1.1c0,0,0.35,0.67-0.35,0.9
				c0,0,0.02,1.05-0.87,1.38c0,0-1.98-0.09-2.28-0.97l-0.09-0.59l0.26-0.73C22.28,21.39,21.87,19.74,23.3,19.2L23.3,19.2z"/>
			<path class="st2" d="M24.41,23.88l-0.04,0c-0.22-0.01-2.12-0.13-2.45-1.1l-0.01-0.03l-0.1-0.64l0.26-0.72
				c-0.14-0.65-0.06-1.9,1.16-2.36l0.06-0.02l1.14,0.28c0.17-0.04,0.68-0.1,1.31,0.3l0.04,0.02l0.37,0.62
				c0.03,0.06,0.27,0.65,0.04,1.04c-0.05,0.09-0.15,0.2-0.32,0.27c0.03,0.14,0.05,0.32-0.03,0.51c-0.07,0.17-0.2,0.3-0.39,0.39
				c-0.03,0.32-0.18,1.13-0.99,1.43L24.41,23.88L24.41,23.88z M22.3,22.66c0.22,0.59,1.52,0.79,2.05,0.82
				c0.71-0.3,0.71-1.18,0.71-1.19l0-0.14l0.14-0.04c0.15-0.05,0.24-0.12,0.28-0.22c0.06-0.15-0.01-0.35-0.04-0.41l-0.13-0.25
				l0.28-0.03c0.2-0.02,0.25-0.11,0.26-0.14c0.11-0.19,0-0.55-0.05-0.68l-0.31-0.51c-0.58-0.34-1-0.22-1-0.22l-0.05,0.02l-1.12-0.28
				c-1.18,0.49-0.86,1.88-0.85,1.94l0.01,0.06l-0.27,0.74L22.3,22.66L22.3,22.66z"/>
		</g>
		<g>
			<path class="st6" d="M27.55,19.54c0,0-3.01,0.08-4.87-1.38c0,0-0.38-0.37,0.13-0.66c0,0,1.83,0.93,2.31,1.09
				c0,0,1.97,0.4,2.62,0.44C27.74,19.03,28.02,19.62,27.55,19.54L27.55,19.54z"/>
			<path class="st7" d="M22.69,17.43c0,0,2.21,1.16,5,1.55c0,0,0.42,0.76-0.19,1.09c0,0-0.98,0.25-2.02-0.06l-0.78,3.19
				c0,0-0.84,0.11-1.52-0.75L24,19.43C24,19.43,21.28,18.23,22.69,17.43L22.69,17.43z"/>
			<path class="st8" d="M23.12,23.02c0,0-1.02,0.11-1.02,0.61l0.18,0.67c0,0,1.06-0.34,1.63,1.01l0.77-0.16c0,0,0.34-0.59-0.35-1.58
				L23.12,23.02L23.12,23.02z"/>
			<path class="st7" d="M22.69,17.43c0,0,2.21,1.16,5,1.55c0,0,0.42,0.76-0.19,1.09c0,0-0.98,0.25-2.02-0.06l-0.78,3.19
				c0,0-0.84,0.11-1.52-0.75L24,19.43C24,19.43,21.28,18.23,22.69,17.43L22.69,17.43z"/>
			<path class="st9" d="M23.37,22.26c0,0-0.46,0.22-0.31,0.63c0,0,0.59,0.81,1.48,0.61c0,0,0.32-0.23,0.32-0.7
				C24.85,22.8,24.45,23.09,23.37,22.26L23.37,22.26z"/>
			<g>
				<path class="st4" d="M24.87,22.84l0.83-2.87c1.16,0.37,1.64-0.04,1.64-0.04c0.78-0.42,0.35-0.95,0.35-0.95
					c-2.57-0.39-5.12-1.48-5.12-1.48s-0.8,0.78,1.43,1.93l-0.75,2.78c0,0-0.44,0.55-0.24,0.79c0,0-0.68,0.21-0.88,0.45
					c0,0-0.14,0.58,0.15,0.86c0,0,1.28-0.11,1.63,1.01l0.77-0.16c0,0,0.37-0.64-0.27-1.54C24.41,23.62,24.74,23.59,24.87,22.84
					L24.87,22.84z"/>
				<path class="st2" d="M23.78,25.54l-0.05-0.17c-0.3-0.96-1.42-0.88-1.43-0.88l-0.09,0.01l-0.06-0.06
					c-0.36-0.34-0.22-0.98-0.2-1.05l0.01-0.04l0.03-0.03c0.16-0.2,0.54-0.36,0.78-0.45c-0.02-0.29,0.21-0.63,0.31-0.76l0.7-2.59
					c-0.93-0.5-1.45-1.01-1.52-1.52c-0.05-0.32,0.1-0.56,0.19-0.65l0.09-0.09l0.12,0.05c0.03,0.01,2.56,1.08,5.07,1.47l0.08,0.01
					l0.05,0.06c0.02,0.03,0.21,0.28,0.14,0.61c-0.05,0.25-0.23,0.46-0.54,0.63c-0.11,0.08-0.61,0.39-1.62,0.12l-0.77,2.67
					c-0.08,0.45-0.23,0.68-0.37,0.8c0.54,0.9,0.18,1.54,0.17,1.57l-0.04,0.08L23.78,25.54L23.78,25.54z M22.4,24.1
					c0.5,0,1.3,0.2,1.63,0.99l0.51-0.1c0.06-0.17,0.15-0.64-0.3-1.26l-0.24-0.33l0.37,0.02c0.04-0.02,0.21-0.12,0.29-0.62l0-0.02
					l0.89-3.06l0.19,0.06c1.02,0.33,1.45,0,1.46-0.01l0.03-0.02c0.14-0.08,0.32-0.2,0.36-0.37c0.02-0.09-0.01-0.18-0.03-0.23
					c-2.17-0.34-4.34-1.18-4.92-1.42c-0.02,0.05-0.03,0.13-0.02,0.22c0.04,0.22,0.28,0.69,1.46,1.3l0.14,0.07l-0.8,2.96l-0.02,0.03
					c-0.19,0.24-0.28,0.5-0.24,0.55l0.19,0.22l-0.28,0.09c-0.24,0.08-0.62,0.23-0.76,0.36c-0.02,0.14-0.04,0.41,0.05,0.57
					C22.38,24.1,22.39,24.1,22.4,24.1L22.4,24.1z"/>
			</g>
			<g>
				<path class="st5" d="M23.14,17.79c0,0,2.91,1.17,4.46,1.17c0,0,0.53,0.35-0.23,0.53c0,0-1.3,0.23-3.72-1.01
					c0,0-1.23-0.61-0.99-0.85C22.66,17.64,22.83,17.57,23.14,17.79L23.14,17.79z"/>
				<path class="st2" d="M27.07,19.65c-0.54,0-1.72-0.13-3.49-1.04c-0.31-0.15-1.04-0.54-1.1-0.86c-0.01-0.08,0.01-0.16,0.07-0.22
					l0.02-0.02l0.03-0.01c0.04-0.02,0.26-0.08,0.61,0.16c0.23,0.09,2.92,1.15,4.37,1.15c0.01,0,0.01,0,0.02,0h0.04l0.04,0.02
					c0.03,0.02,0.28,0.19,0.24,0.42c-0.04,0.26-0.4,0.35-0.52,0.38C27.38,19.64,27.27,19.66,27.07,19.65L27.07,19.65z M22.83,17.79
					c0.13,0.14,0.5,0.38,0.88,0.57c2.35,1.2,3.62,0.99,3.63,0.99c0.26-0.07,0.29-0.14,0.29-0.14c0-0.02-0.03-0.07-0.08-0.11
					c-1.57-0.01-4.35-1.13-4.46-1.18l-0.03-0.02C22.96,17.84,22.88,17.8,22.83,17.79L22.83,17.79z"/>
			</g>
			<g>
				<g>
					<path class="st10" d="M23.94,18.27c0,0,1.3-10.41,5.69-14.18c0,0,1.85,4.84-3.37,14.88C26.26,18.98,24.58,18.8,23.94,18.27
						L23.94,18.27z"/>
					<path class="st11" d="M26.37,19.19l-0.13-0.01c-0.07-0.01-1.74-0.19-2.42-0.75l-0.08-0.07l0.01-0.11
						c0.05-0.43,1.36-10.52,5.76-14.3l0.21-0.18l0.1,0.26c0.02,0.05,0.48,1.28,0.29,3.76c-0.17,2.27-0.95,6.07-3.67,11.28
						L26.37,19.19L26.37,19.19z M24.15,18.18c0.49,0.33,1.5,0.52,2,0.59c4.37-8.44,3.66-13.17,3.38-14.32
						C25.66,8.07,24.3,17.08,24.15,18.18L24.15,18.18z"/>
				</g>
				<path class="st12" d="M24.86,18.33c0,0,1.89-9.8,4.65-13.76c0,0,1.49,4.91-3.31,14.19C26.2,18.76,25.04,18.52,24.86,18.33
					L24.86,18.33z"/>
				<path class="st13" d="M29.51,4.57c0,0,1.65,4.21-3.31,14.19l-0.72-0.16c0,0,3.72-7.74,3.97-13.19c0,0-1.59,2.14-3.41,7.95
					C26.04,13.36,26.22,8.78,29.51,4.57L29.51,4.57z"/>
				<path class="st11" d="M27.48,9.27c-0.25,0.76-0.49,1.53-0.73,2.29c-0.23,0.77-0.47,1.53-0.68,2.31
					c-0.21,0.77-0.41,1.55-0.59,2.32c-0.18,0.78-0.33,1.56-0.44,2.35l-0.13-0.21l0.61,0.17l-0.23,0.11
					c0.22-0.52,0.43-1.04,0.64-1.57c0.21-0.53,0.41-1.05,0.61-1.58c0.39-1.06,0.77-2.13,1.12-3.2c0.35-1.08,0.67-2.16,0.96-3.25
					c0.28-1.1,0.53-2.2,0.73-3.32c-0.1,1.13-0.29,2.25-0.52,3.37c-0.24,1.11-0.53,2.21-0.85,3.3c-0.33,1.09-0.68,2.17-1.08,3.24
					c-0.19,0.53-0.39,1.07-0.6,1.6c-0.21,0.53-0.43,1.05-0.65,1.58l-0.07,0.15l-0.16-0.05l-0.61-0.18l-0.16-0.05l0.02-0.16
					c0.12-0.8,0.3-1.59,0.49-2.37c0.2-0.78,0.43-1.55,0.66-2.32c0.25-0.77,0.5-1.53,0.78-2.28C26.87,10.76,27.16,10.01,27.48,9.27
					L27.48,9.27z"/>
			</g>
			<path class="st5" d="M23.71,23.63c0.06,0.04,0.14,0.2,0.17,0.68c0,0-0.38-0.53-0.99-0.27c0,0,0.68-0.03,1.07,1.08l0.56-0.17
				c0,0,0.3-0.29-0.26-1.45c0,0-0.37-0.17-0.56,0C23.66,23.54,23.67,23.61,23.71,23.63L23.71,23.63z"/>
		</g>
		<path class="st2" d="M23.89,20.62c0,0.07,0,0.11-0.01,0.17c-0.01,0.05-0.02,0.1-0.03,0.15c-0.03,0.1-0.07,0.2-0.13,0.3
			c-0.06,0.09-0.15,0.17-0.25,0.22c-0.1,0.05-0.21,0.06-0.31,0.07l0.05-0.16c0.07,0.07,0.11,0.14,0.16,0.22
			c0.05,0.08,0.08,0.16,0.11,0.24c0.03,0.08,0.04,0.17,0.03,0.26c0,0.09-0.03,0.17-0.07,0.25c0.02-0.08,0.03-0.16,0.02-0.24
			c-0.01-0.08-0.04-0.16-0.07-0.23c-0.04-0.07-0.08-0.13-0.14-0.19c-0.05-0.06-0.11-0.12-0.17-0.16l-0.15-0.11l0.2-0.05
			c0.08-0.02,0.15-0.04,0.21-0.09c0.06-0.04,0.1-0.1,0.13-0.16c0.03-0.06,0.04-0.14,0.05-0.21c0-0.04,0-0.08,0-0.11
			c0-0.04-0.01-0.08-0.01-0.11L23.89,20.62L23.89,20.62z"/>
		<g>
			<g>
				<path class="st1" d="M25.87,21.48c0,0-0.37-0.9-1.22-0.61c0,0,0.75-1.05-0.25-1.25c0,0,1.08-0.37,1.59,0.23l0.19,0.27
					C26.17,20.13,26.7,21.12,25.87,21.48L25.87,21.48z"/>
				<path class="st2" d="M25.76,21.74l-0.07-0.18c-0.03-0.08-0.33-0.72-0.98-0.5l-0.57,0.2l0.35-0.49c0.08-0.12,0.3-0.5,0.21-0.73
					c-0.04-0.1-0.16-0.18-0.35-0.21l-0.71-0.14l0.68-0.23c0.05-0.02,1.21-0.4,1.8,0.29l0.01,0.02l0.2,0.29
					c0.01,0.02,0.31,0.59,0.14,1.08c-0.08,0.24-0.26,0.43-0.53,0.54L25.76,21.74L25.76,21.74z M25,20.63
					c0.45,0.01,0.77,0.32,0.94,0.59c0.08-0.06,0.13-0.13,0.16-0.22c0.11-0.31-0.08-0.7-0.11-0.76l-0.17-0.25
					c-0.22-0.25-0.57-0.28-0.87-0.26c0.04,0.05,0.08,0.11,0.1,0.17C25.16,20.14,25.09,20.41,25,20.63L25,20.63z"/>
			</g>
			<g>
				<path class="st1" d="M25.89,21.55c0,0,0.45,0.76-0.46,1.18c0,0,0.12-0.5-0.84-0.47c0,0-0.9,0-0.83-0.52c0,0,0.37-0.82,0.98-0.91
					C24.74,20.84,25.34,20.57,25.89,21.55L25.89,21.55z"/>
				<path class="st2" d="M25.15,23.08l0.09-0.39l0,0c0,0,0-0.05-0.04-0.1c-0.04-0.05-0.18-0.15-0.61-0.14
					c-0.07,0-0.64-0.01-0.9-0.31c-0.1-0.12-0.14-0.26-0.12-0.43l0-0.03l0.01-0.02c0.02-0.04,0.41-0.91,1.11-1.02
					c0.15-0.05,0.8-0.2,1.37,0.81c0.02,0.04,0.22,0.4,0.1,0.79c-0.09,0.28-0.3,0.5-0.65,0.66L25.15,23.08L25.15,23.08z M24.66,22.07
					c0.41,0,0.69,0.1,0.85,0.29c0.02,0.03,0.04,0.05,0.05,0.08c0.12-0.09,0.19-0.19,0.23-0.3c0.08-0.24-0.06-0.48-0.06-0.49l0,0
					c-0.45-0.8-0.89-0.64-0.91-0.63l-0.02,0.01l-0.03,0c-0.4,0.06-0.71,0.55-0.82,0.77c0,0.05,0.02,0.07,0.03,0.09
					c0.11,0.13,0.46,0.18,0.6,0.18C24.61,22.07,24.64,22.07,24.66,22.07L24.66,22.07z"/>
			</g>
			<g>
				<path class="st1" d="M24.92,23.83c0,0-1.31-0.06-1.45-0.67c0,0-0.16-1,1.4-0.94c0,0,0.55,0.19,0.64,0.63
					C25.52,22.84,25.52,23.47,24.92,23.83L24.92,23.83z"/>
				<path class="st2" d="M24.97,24.02l-0.06,0c-0.15-0.01-1.46-0.09-1.63-0.82l0-0.01c0-0.02-0.06-0.41,0.23-0.74
					c0.27-0.3,0.73-0.45,1.37-0.42l0.03,0l0.03,0.01c0.03,0.01,0.65,0.23,0.77,0.77l0,0.04c0,0.03,0,0.74-0.69,1.15L24.97,24.02
					L24.97,24.02z M23.66,23.12c0.09,0.33,0.81,0.48,1.21,0.51c0.4-0.27,0.45-0.67,0.45-0.76c-0.07-0.27-0.39-0.42-0.49-0.46
					c-0.5-0.01-0.85,0.09-1.03,0.3C23.64,22.88,23.66,23.09,23.66,23.12L23.66,23.12z"/>
			</g>
			<g>
				<path class="st3" d="M25.02,22.39c0,0,0.56,0.13,0.46,0.55c0,0-0.18,0.55-0.53,0.55c0,0-0.31-0.18-0.25-0.5
					c0,0-0.96,0.18-0.62-0.47C24.09,22.52,24.51,22.26,25.02,22.39L25.02,22.39z"/>
				<path class="st2" d="M25.05,22.28c-0.03,0.09-0.06,0.18-0.1,0.26c-0.04,0.08-0.07,0.17-0.12,0.25
					c-0.04,0.08-0.09,0.16-0.14,0.24c-0.05,0.07-0.12,0.15-0.2,0.19c0.06-0.06,0.09-0.15,0.11-0.23c0.02-0.08,0.03-0.17,0.04-0.25
					c0.01-0.09,0.01-0.17,0.02-0.26c0-0.09,0-0.17,0-0.25L25.05,22.28L25.05,22.28z"/>
			</g>
			<g>
				<path class="st3" d="M25.42,21.22c0,0,0.52,0.51,0.37,0.91c0,0,0.06,0.22-0.29,0.17c0,0-0.55-0.32-0.45-0.63
					c0,0-1.01,0.14-0.58-0.46C24.48,21.21,24.92,20.84,25.42,21.22L25.42,21.22z"/>
				<path class="st2" d="M25.47,21.11c-0.04,0.09-0.09,0.16-0.14,0.24c-0.05,0.08-0.1,0.16-0.15,0.23
					c-0.05,0.07-0.11,0.15-0.17,0.21c-0.06,0.07-0.14,0.13-0.22,0.16c0.07-0.05,0.11-0.13,0.14-0.21c0.03-0.08,0.06-0.16,0.08-0.24
					c0.02-0.08,0.04-0.17,0.05-0.25c0.01-0.08,0.03-0.17,0.04-0.25L25.47,21.11L25.47,21.11z"/>
			</g>
			<g>
				<path class="st3" d="M25.8,19.91c0,0,0.52,0.51,0.37,0.91c0,0,0.02,0.21-0.23,0.3c0,0-0.55-0.32-0.45-0.63
					c0,0-0.91-0.14-0.48-0.73C25.01,19.75,25.3,19.71,25.8,19.91L25.8,19.91z"/>
				<path class="st2" d="M25.93,19.84c-0.04,0.09-0.09,0.16-0.14,0.24c-0.05,0.08-0.1,0.16-0.15,0.23
					c-0.05,0.07-0.11,0.15-0.17,0.21c-0.06,0.07-0.14,0.13-0.22,0.16c0.07-0.05,0.11-0.13,0.14-0.21c0.03-0.08,0.06-0.16,0.08-0.24
					c0.02-0.08,0.04-0.17,0.05-0.25c0.01-0.08,0.03-0.17,0.04-0.25L25.93,19.84L25.93,19.84z"/>
			</g>
			<g>
				<g>
					<path class="st1" d="M22.7,19.6c0,0,0.46-0.62,1.51-0.45l0.37,0.14c0,0,0.65-0.01,0.21,1.41c0,0,0,0.57-0.38,0.65
						c0,0-0.6,0.19-0.77-1.03"/>
					<path class="st2" d="M24.33,21.56c-0.09,0-0.21-0.02-0.34-0.1c-0.27-0.17-0.45-0.55-0.53-1.11l0.38-0.05
						c0.08,0.57,0.25,0.76,0.35,0.83c0.09,0.06,0.17,0.04,0.18,0.04l0.01,0c0.21-0.04,0.22-0.46,0.22-0.46v-0.03l0.01-0.03
						c0.23-0.73,0.13-1,0.07-1.08c-0.05-0.07-0.1-0.07-0.11-0.07h-0.04l-0.03-0.01l-0.35-0.14c-0.89-0.14-1.29,0.35-1.31,0.38
						l-0.31-0.23c0.02-0.03,0.55-0.72,1.7-0.52l0.04,0.01l0.34,0.13c0.08,0.01,0.24,0.05,0.36,0.22c0.2,0.27,0.2,0.75,0,1.41
						c-0.01,0.27-0.13,0.72-0.52,0.81C24.44,21.55,24.39,21.56,24.33,21.56L24.33,21.56z"/>
				</g>
				<path class="st3" d="M24.76,19.65c0,0,0.07,0.78-0.23,1.24c0,0-0.68,0.3-0.53-0.91C24,19.98,23.96,19.5,24.76,19.65L24.76,19.65
					z"/>
			</g>
		</g>
	</g>
	<g>
		<g>
			<path class="st14" d="M17.05,26.01c-0.61,0.59-3.44,1.03-3.44,1.03s4.05-0.91,0,0c-4.05,0.91-7.69-1.19-7.69-1.19s0.07,0.15,0,0
				c-0.07-0.15,0.38-2.66,0.38-2.66s0.44-2.29,2.75-3.71c0,0,4.03,1.91,6.29,0.06c0,0,0.98,0.51,1.09,1l0.62,5.28l0.05,0.12
				C17.11,25.92,17.07,25.99,17.05,26.01L17.05,26.01z"/>
			<path class="st2" d="M11.49,27.46c-3.11,0-5.54-1.37-5.66-1.45l0.04-0.06l-0.09,0.04l-0.27-0.61l0.24,0.14
				c0.03-0.35,0.13-1.03,0.37-2.37c0.02-0.1,0.48-2.4,2.84-3.85l0.09-0.05l0.1,0.05c0.04,0.02,3.94,1.84,6.09,0.08l0.1-0.08
				l0.11,0.06c0.11,0.06,1.07,0.57,1.19,1.13l0,0.02l0.62,5.25l0.08,0.19l-0.05,0.08c-0.06,0.1-0.08,0.12-0.09,0.13l0,0
				c-0.63,0.61-3.22,1.03-3.54,1.08C12.91,27.39,12.18,27.46,11.49,27.46L11.49,27.46z M6.11,25.72c0.58,0.31,3.88,1.92,7.46,1.12
				l1.8-0.4l0.01,0.03c0.65-0.17,1.27-0.37,1.52-0.58l-0.02-0.05l-0.62-5.29c-0.06-0.26-0.53-0.6-0.88-0.8
				c-2.17,1.64-5.66,0.22-6.3-0.07c-2.14,1.36-2.57,3.51-2.58,3.53C6.31,24.25,6.13,25.4,6.11,25.72L6.11,25.72z"/>
		</g>
		<g class="st15">
			<path class="st16" d="M7.79,21.7c0,0,2.34,1.76,4.01,1.8c0,0-0.63,1.25-2.33,2.6c0,0-0.97,0.39-2.48-0.74
				C6.99,25.36,7.06,23.76,7.79,21.7L7.79,21.7z"/>
		</g>
		<g>
			<g>
				<path class="st17" d="M12.29,27.12c-0.65,0.23-2.93-0.17-2.93-0.17l0.28-0.27c3.15-2.42,4.59-6.43,4.59-6.43
					c0.55-0.24,1.14-0.62,1.14-0.62l0.57,0.43c0,0,1.28,0.82,1.47,6.14l-0.21,0.12L17,26.28c0,0-0.02,0.37-4.68,0.86"/>
				<path class="st18" d="M11.64,27.38c-0.89,0-2.14-0.21-2.32-0.25l-0.38-0.07l0.58-0.55c3.07-2.36,4.51-6.31,4.52-6.35l0.03-0.08
					l0.08-0.03c0.53-0.23,1.11-0.6,1.12-0.6l0.11-0.07l0.68,0.51c0.13,0.09,1.37,1.11,1.55,6.29l0,0.12l-0.37,0.22l-0.19-0.04
					c-0.31,0.2-1.33,0.49-4.72,0.84l0-0.02C12.17,27.36,11.92,27.38,11.64,27.38L11.64,27.38z M12.23,26.93l0.1,0.3l-0.03-0.29
					c3.54-0.37,4.34-0.67,4.51-0.76l0.01-0.14l0.36,0.07l0.05-0.03c-0.2-4.98-1.37-5.86-1.38-5.87l-0.01-0.01l-0.47-0.35
					c-0.19,0.12-0.59,0.35-0.98,0.53c-0.22,0.58-1.7,4.19-4.6,6.43C10.55,26.93,11.81,27.08,12.23,26.93L12.23,26.93z"/>
			</g>
			<g class="st19">
				<path class="st20" d="M9.17,27.35c0,0,3.02-2.01,5.33-7.14l0.6-0.35c0,0,0.64,0.17,0.55,0.39c-1.53,3.51-2.77,5.16-4.48,7.06
					L9.17,27.35L9.17,27.35z"/>
			</g>
			<g class="st19">
				<path class="st20" d="M12.25,27.68c0,0,2.77-3.2,4.08-6.85l0.58,1.72c0,0-1.8,3.91-3.29,5.1L12.25,27.68L12.25,27.68z"/>
			</g>
			<path class="st20" d="M17.1,24.2c0,0-0.66,2.06-1.56,2.72l1.79-0.14L17.1,24.2L17.1,24.2z"/>
			<g class="st21">
				<path class="st22" d="M11.08,25.57c0,0,3.47,0.3,6.09-0.62L17.1,23.9c0,0-2.17,0.57-4.95,0.55
					C12.15,24.45,11.57,25.2,11.08,25.57L11.08,25.57z"/>
			</g>
			<g class="st21">
				<path class="st22" d="M12.68,23.53c0,0,2.29,0.1,4.29-0.55l-0.25-1.16c0,0-1.01,0.31-3.27,0.51
					C13.45,22.34,13.23,22.77,12.68,23.53L12.68,23.53z"/>
			</g>
		</g>
	</g>
	<g>
		<g>
			<g>
				<path class="st17" d="M5.86,28.26c0,0,8.65,1.76,11.63-0.37l0.3,2.41c0,0-2.43,1.69-7.21,1.35c0,0-3.35-0.12-5.12-1.12
					L5.86,28.26L5.86,28.26z"/>
				<path class="st18" d="M11.84,31.89c-0.41,0-0.83-0.01-1.27-0.05c-0.13,0-3.42-0.13-5.2-1.15l-0.12-0.07l0.46-2.6l0.2,0.04
					c0.09,0.02,8.6,1.72,11.48-0.33l0.26-0.19l0.35,2.85l-0.1,0.07C17.81,30.53,15.79,31.89,11.84,31.89L11.84,31.89z M5.67,30.43
					c1.73,0.91,4.88,1.03,4.91,1.03c4.14,0.29,6.51-0.96,7-1.26l-0.25-1.98c-2.98,1.74-10.02,0.51-11.32,0.26L5.67,30.43L5.67,30.43
					z"/>
			</g>
			<g class="st19">
				<path class="st20" d="M5.91,28.4l1.01,0.18L6.5,30.81c0,0-0.68-0.15-1.02-0.39L5.91,28.4L5.91,28.4z"/>
			</g>
			<g class="st19">
				<path class="st20" d="M7.8,28.78c-0.02,0.08-0.43,2.3-0.43,2.3l1.04,0.21c0,0,0.31-2.3,0.39-2.44
					C8.79,28.85,7.8,28.78,7.8,28.78z"/>
			</g>
			<g class="st19">
				<path class="st20" d="M9.49,28.9c0,0-0.34,2.17-0.3,2.49l0.91,0.11c0,0,0.17-1.55,0.35-2.46L9.49,28.9L9.49,28.9z"/>
			</g>
			<g class="st19">
				<polygon class="st20" points="11.14,29.03 10.89,31.61 12.02,31.58 12.13,29.05 				"/>
			</g>
			<g class="st19">
				<path class="st20" d="M16.83,28.45l0.22,2.05l0.66-0.3l-0.24-2.11C17.48,28.09,16.88,28.36,16.83,28.45z"/>
			</g>
			<g class="st21">
				<path class="st22" d="M12.73,29.89c-3.9,0.12-6.85-0.79-6.85-0.79l-0.16,0.77c2.4,1.07,7.01,0.89,7.01,0.89L12.73,29.89
					L12.73,29.89z"/>
			</g>
			<g class="st21">
				<path class="st22" d="M16.42,29.33c0,0,0.45-0.02,1.1-0.39l0.05,0.67c0,0-0.31,0.38-1.12,0.5L16.42,29.33L16.42,29.33z"/>
			</g>
		</g>
		<g>
			<g>
				<path class="st17" d="M12.82,28.95c0,0-0.01,1.72,0.07,3.27c0,0,1.82,0.16,3.5-0.55l-0.16-3.13
					C16.23,28.54,13.52,28.89,12.82,28.95L12.82,28.95z"/>
				<path class="st18" d="M13.37,32.43c-0.29,0-0.47-0.01-0.5-0.02l-0.17-0.01l-0.01-0.17c-0.09-1.54-0.07-3.27-0.07-3.28l0-0.18
					l0.18-0.01c0.68-0.05,3.37-0.4,3.4-0.41l0.21-0.03l0.18,3.48l-0.13,0.05C15.28,32.35,14.04,32.43,13.37,32.43L13.37,32.43z
					 M13.08,32.03c0.47,0.02,1.82,0.01,3.11-0.49l-0.15-2.78c-0.6,0.08-2.3,0.29-3.03,0.36C13.01,29.58,13.02,30.84,13.08,32.03
					L13.08,32.03z"/>
			</g>
			<g class="st19">
				<path class="st20" d="M14.04,28.97l0.11,3.08l-1.08,0c0,0-0.16-2.29-0.1-2.95L14.04,28.97z"/>
			</g>
			<g class="st19">
				<path class="st20" d="M15.17,28.89l0.19,2.96c0,0,0.63-0.02,0.87-0.31l-0.19-2.83L15.17,28.89L15.17,28.89z"/>
			</g>
			<g class="st21">
				<path class="st22" d="M12.97,30.18c0,0,1.17,0.02,3.19-0.36l0.1,1c0,0-1.88,0.51-3.22,0.39L12.97,30.18z"/>
			</g>
		</g>
	</g>
	<g>
		<g>
			<g>
				<path class="st10" d="M17.62,28.33c0,0-5.71,2.41-11.85-0.26c0,0-0.23-0.27-0.22-0.49c0,0,0.04-1.32,0.09-1.61
					c0.04-0.24,0.15-0.32,0.36-0.15c0,0,3.08,2.47,11.44,0.43c0,0,0.09-0.51,0.37,0.01C17.8,26.26,18.04,28.3,17.62,28.33
					L17.62,28.33z"/>
				<path class="st2" d="M11.91,29.51c-1.86,0-4.02-0.31-6.23-1.27l-0.04-0.02l-0.03-0.03c-0.05-0.06-0.28-0.35-0.27-0.63
					c0-0.13,0.04-1.34,0.09-1.63c0.01-0.08,0.06-0.31,0.25-0.38c0.13-0.05,0.27-0.01,0.42,0.11c0.03,0.02,3.1,2.36,11.17,0.42
					c0.04-0.11,0.12-0.23,0.26-0.25c0.23-0.04,0.38,0.23,0.43,0.33l0.02,0.03l0,0.04c0.05,0.41,0.18,1.78-0.13,2.16
					c-0.07,0.08-0.14,0.11-0.2,0.12C17.4,28.62,15.08,29.51,11.91,29.51L11.91,29.51z M5.88,27.91c5.99,2.58,11.6,0.26,11.66,0.24
					l0.04-0.01c0.11-0.15,0.13-0.97,0.04-1.8l-0.01,0.07l-0.12,0.03C9.12,28.48,6,26.07,5.87,25.97c-0.01-0.01-0.02-0.02-0.03-0.03
					c0,0.01-0.01,0.03-0.01,0.06c-0.04,0.22-0.08,1.21-0.09,1.58C5.73,27.67,5.81,27.82,5.88,27.91L5.88,27.91z"/>
			</g>
			<path class="st12" d="M17.73,26.54c-0.26-0.38-0.36,0-0.36,0C9.72,28.2,6.3,26.29,6.3,26.29c-0.06-0.03-0.1,0.04-0.14,0.03
				c0.09,0.65,0.28,1.66,1.51,2.26c6.65,1.38,9.87-0.45,9.87-0.45C17.95,28.11,17.73,26.54,17.73,26.54L17.73,26.54z"/>
			<path class="st13" d="M6.77,26.5c0,0,4.1,1.55,10.51,0.04c0,0,0.52-0.38,0.5,0.23c0,0,0.14,1.06-0.15,1.37
				c0,0,0.16-0.04-0.37-0.99c0,0-6.45,1.6-10.19-0.21C7.08,26.93,5.99,26.23,6.77,26.5L6.77,26.5z"/>
		</g>
		<g>
			<g>
				<path class="st10" d="M16.31,27.97c0.03,0.92-0.69,1.68-1.6,1.72c-0.92,0.03-1.68-0.69-1.72-1.6c-0.03-0.92,0.69-1.68,1.6-1.72
					C15.51,26.34,16.28,27.05,16.31,27.97L16.31,27.97z"/>
				<path class="st2" d="M14.65,29.88c-0.99,0-1.82-0.79-1.85-1.79c-0.02-0.5,0.16-0.97,0.5-1.33c0.34-0.36,0.8-0.57,1.29-0.59
					c1.02-0.03,1.88,0.77,1.92,1.79c0.02,0.5-0.16,0.97-0.5,1.33c-0.34,0.36-0.8,0.57-1.29,0.59
					C14.69,29.88,14.67,29.88,14.65,29.88L14.65,29.88z M14.65,26.56c-0.02,0-0.03,0-0.05,0c-0.39,0.01-0.75,0.18-1.02,0.46
					c-0.27,0.29-0.41,0.66-0.39,1.05c0.03,0.81,0.71,1.44,1.52,1.42c0.39-0.01,0.75-0.18,1.02-0.46c0.27-0.29,0.41-0.66,0.39-1.05
					C16.09,27.19,15.44,26.56,14.65,26.56L14.65,26.56z"/>
			</g>
			<path class="st12" d="M16.09,28.01c0.03,0.78-0.54,1.43-1.27,1.45c-0.73,0.02-1.34-0.58-1.36-1.36
				c-0.03-0.78,0.54-1.43,1.27-1.45C15.46,26.62,16.07,27.23,16.09,28.01z"/>
			<g>
				<g>
					<path class="st10" d="M15.92,27.84c0.09,0.59-0.29,1.15-0.85,1.26c-0.56,0.1-1.09-0.29-1.18-0.88
						c-0.09-0.59,0.29-1.15,0.85-1.26C15.3,26.86,15.83,27.25,15.92,27.84z"/>
					<path class="st2" d="M14.89,29.26c-0.23,0-0.46-0.07-0.65-0.21c-0.27-0.19-0.44-0.48-0.49-0.81c-0.1-0.67,0.33-1.3,0.97-1.42
						c0.3-0.06,0.61,0.01,0.86,0.19c0.27,0.19,0.44,0.48,0.49,0.81l0,0c0.1,0.67-0.33,1.3-0.97,1.42
						C15.03,29.26,14.96,29.26,14.89,29.26L14.89,29.26z M14.92,27.09c-0.05,0-0.1,0-0.15,0.01c-0.48,0.09-0.81,0.58-0.73,1.09
						c0.04,0.25,0.17,0.47,0.37,0.62c0.19,0.13,0.41,0.18,0.64,0.14c0.48-0.09,0.81-0.58,0.73-1.09c-0.04-0.25-0.17-0.47-0.37-0.62
						C15.26,27.15,15.1,27.09,14.92,27.09L14.92,27.09z"/>
				</g>
				<path class="st12" d="M15.79,27.92c0.03,0.51-0.28,0.95-0.7,0.98c-0.42,0.03-0.78-0.36-0.81-0.87c-0.03-0.51,0.28-0.95,0.7-0.98
					C15.4,27.02,15.76,27.41,15.79,27.92z"/>
				<path class="st13" d="M15.79,27.93c0.01,0.39-0.2,0.71-0.48,0.72c-0.28,0.01-0.52-0.3-0.53-0.68c-0.01-0.39,0.2-0.71,0.48-0.72
					S15.78,27.55,15.79,27.93L15.79,27.93z"/>
			</g>
		</g>
	</g>
	<g>
		<g>
			<g>
				<path class="st1" d="M4.87,19.75c0,0-1.81,0.72-3.34,2.4c0,0,1.7,0.81,1.86,2.29c0,0,1.21-1.04,2.24-1.87
					c0.37-0.29,1.7,0.01,2.61-0.05c1.06-0.06,1.8-1.96,0.24-2.58C8.27,19.85,6.44,19.22,4.87,19.75L4.87,19.75z"/>
				<path class="st2" d="M3.24,24.82L3.2,24.46c-0.15-1.35-1.73-2.13-1.75-2.13l-0.24-0.11l0.18-0.19c1.54-1.69,3.33-2.42,3.41-2.45
					l0.01,0c1.72-0.59,3.73,0.18,3.75,0.19c0.74,0.3,1.12,0.91,1,1.64c-0.12,0.71-0.67,1.28-1.3,1.32
					c-0.36,0.02-0.78-0.01-1.18-0.04c-0.51-0.04-1.15-0.09-1.32,0.05c-1.02,0.81-2.22,1.85-2.24,1.86L3.24,24.82L3.24,24.82z
					 M1.85,22.1c0.44,0.26,1.39,0.93,1.67,1.97c0.41-0.35,1.25-1.06,1.99-1.66c0.29-0.23,0.89-0.18,1.59-0.13
					c0.39,0.03,0.79,0.06,1.13,0.04c0.44-0.03,0.85-0.46,0.94-0.99c0.04-0.26,0.05-0.89-0.76-1.22c-0.02-0.01-1.88-0.72-3.47-0.18
					C4.85,19.97,3.26,20.64,1.85,22.1L1.85,22.1z"/>
			</g>
			<g>
				<path class="st4" d="M2.83,20.84c0,0,1.65,0.58,2.01,2.45l-1.73,1.65c0,0-0.23-1.77-2.06-2.64C1.05,22.3,2.3,21.2,2.83,20.84z"
					/>
				<path class="st2" d="M2.97,25.34l-0.05-0.38c-0.01-0.07-0.25-1.68-1.95-2.49l-0.27-0.13l0.22-0.19
					c0.05-0.05,1.26-1.11,1.79-1.48l0.08-0.06l0.09,0.03c0.07,0.03,1.76,0.64,2.13,2.6l0.02,0.1L2.97,25.34L2.97,25.34z M1.4,22.26
					c1.22,0.68,1.67,1.75,1.83,2.3l1.4-1.34c-0.32-1.42-1.45-2.02-1.77-2.16C2.45,21.35,1.75,21.96,1.4,22.26L1.4,22.26z"/>
			</g>
			<path class="st5" d="M4.59,23.19c0,0-0.63-2.45-2.74-0.84c0,0,1.04,0.55,1.35,2.13L4.59,23.19z"/>
			<g>
				<path class="st2" d="M3.57,23.05c-0.11,0.01-0.21,0-0.31-0.01c-0.1-0.01-0.2-0.04-0.29-0.07c-0.09-0.03-0.19-0.06-0.28-0.11
					c-0.09-0.04-0.18-0.09-0.26-0.16c0.11-0.01,0.21,0,0.31,0.01c0.1,0.01,0.2,0.04,0.29,0.07c0.09,0.03,0.19,0.06,0.28,0.11
					C3.4,22.94,3.49,22.99,3.57,23.05L3.57,23.05z"/>
				<path class="st2" d="M2.89,22.23c0.05,0.09,0.09,0.19,0.12,0.28c0.03,0.1,0.05,0.19,0.06,0.29S3.1,23,3.1,23.1
					c0,0.1-0.01,0.2-0.03,0.31c-0.05-0.09-0.09-0.19-0.12-0.28c-0.03-0.1-0.05-0.19-0.06-0.29c-0.01-0.1-0.02-0.2-0.02-0.3
					C2.86,22.43,2.87,22.33,2.89,22.23L2.89,22.23z"/>
			</g>
			<g>
				<path class="st2" d="M4.15,22.52c-0.11,0.01-0.21,0-0.31-0.01c-0.1-0.01-0.2-0.04-0.29-0.07c-0.09-0.03-0.19-0.06-0.28-0.11
					c-0.09-0.04-0.18-0.09-0.26-0.16c0.11-0.01,0.21,0,0.31,0.01c0.1,0.01,0.2,0.04,0.29,0.07c0.09,0.03,0.19,0.06,0.28,0.11
					C3.98,22.4,4.07,22.45,4.15,22.52L4.15,22.52z"/>
				<path class="st2" d="M3.47,21.69c0.05,0.09,0.09,0.19,0.12,0.28c0.03,0.1,0.05,0.19,0.06,0.29s0.02,0.2,0.02,0.3
					c0,0.1-0.01,0.2-0.03,0.31c-0.05-0.09-0.09-0.19-0.12-0.28c-0.03-0.1-0.05-0.19-0.06-0.29c-0.01-0.1-0.02-0.2-0.02-0.3
					C3.44,21.9,3.45,21.8,3.47,21.69L3.47,21.69z"/>
			</g>
			<path class="st3" d="M4.04,21.09c0,0,0.86,0.56,0.97,1.67c0,0,0.23-0.26,0.78-0.53c0,0,0.99-0.1,2,0.04c0,0,1.06,0.2,1.22-0.81
				c0,0,0.07-0.77-1.79-1.08c0,0-0.86-0.25-1.91-0.06C5.31,20.31,4.96,20.27,4.04,21.09L4.04,21.09z"/>
			<g>
				<g>
					<path class="st1" d="M0.67,22.52c0,0,0.62-0.47,1.57,0.37c0,0,1.31,0.9,1.07,2.93c0,0-1.02,0.35-1.24,0.8
						c0,0-0.52,0.35-0.84-0.06c0,0-0.94,0.37-1,0.03c0,0,0.01-0.63-0.51-1.12c0,0-0.17-0.37-0.02-0.6l-0.22-0.53
						c0,0-0.02-0.06,0.2-0.22l-0.18-0.55C-0.51,23.58,0.1,22.93,0.67,22.52L0.67,22.52z"/>
					<path class="st2" d="M1.63,26.96c-0.16,0-0.32-0.05-0.46-0.17c-0.25,0.09-0.72,0.22-0.97,0.08c-0.09-0.05-0.15-0.14-0.17-0.24
						l0-0.02v-0.02c0,0,0-0.56-0.44-0.97l-0.03-0.03l-0.02-0.04c-0.02-0.04-0.17-0.39-0.06-0.68l-0.19-0.47
						c-0.04-0.13,0.06-0.26,0.15-0.35l-0.17-0.53l0.08-0.08c0.03-0.03,0.63-0.66,1.21-1.08c0.06-0.05,0.78-0.53,1.8,0.38
						c0.14,0.1,1.38,1.06,1.14,3.11l-0.01,0.12l-0.12,0.04c-0.37,0.13-1,0.43-1.13,0.7l-0.02,0.05l-0.04,0.03
						C2.05,26.87,1.85,26.96,1.63,26.96L1.63,26.96z M1.29,26.33l0.09,0.11c0.17,0.22,0.44,0.1,0.54,0.05c0.24-0.4,0.92-0.7,1.2-0.8
						c0.16-1.8-0.95-2.6-1-2.63l-0.02-0.01c-0.8-0.71-1.3-0.37-1.32-0.36l-0.11-0.16l0.11,0.16c-0.43,0.31-0.89,0.76-1.07,0.95
						l0.18,0.57l-0.11,0.08c-0.05,0.03-0.08,0.06-0.09,0.08l0.22,0.54l-0.05,0.09c-0.06,0.09-0.01,0.28,0.02,0.38
						c0.46,0.45,0.52,0.99,0.53,1.17c0.11,0.03,0.45-0.04,0.74-0.16L1.29,26.33L1.29,26.33z"/>
				</g>
				<path class="st3" d="M1.83,23.45c0,0,1.04,0.41,1.19,2.27c0,0-0.36-0.04-1.08,0.69c0,0-0.47,0.12-0.51-0.31
					c0,0-0.01-0.59,0.27-0.94c0,0-0.7,0.12-0.7,1.22c0,0-0.33,0.26-0.52,0.11c0,0,0.03-0.46-0.18-0.93c0,0-0.29-0.68,0.08-1.06
					c0,0-0.37-0.13-0.15-0.57c0,0,0.34-0.52,0.93-0.69C1.17,23.23,1.56,23.27,1.83,23.45L1.83,23.45z"/>
				<g>
					<path class="st2" d="M1.25,26.81c-0.02-0.01-0.03-0.01-0.04-0.02c-0.01-0.01-0.02-0.01-0.03-0.02
						c-0.02-0.01-0.03-0.02-0.05-0.04c-0.03-0.03-0.06-0.06-0.08-0.09c-0.05-0.06-0.08-0.14-0.09-0.21c-0.03-0.15,0-0.28,0.04-0.39
						c0.04-0.11,0.1-0.21,0.16-0.31c0.06-0.09,0.13-0.18,0.2-0.26l0.01-0.01l0,0c0.04-0.03,0.08-0.08,0.1-0.14
						c0.02-0.05,0.03-0.11,0.03-0.18c-0.01-0.06-0.03-0.12-0.06-0.18c-0.02-0.03-0.04-0.06-0.05-0.09L1.31,24.8l0.08,0.07
						c0.02,0.02,0.05,0.05,0.07,0.08c0.04,0.06,0.08,0.12,0.1,0.19c0.02,0.07,0.02,0.15,0.01,0.23c-0.02,0.08-0.05,0.15-0.1,0.21
						l0.01-0.01c-0.05,0.09-0.1,0.18-0.14,0.27c-0.04,0.09-0.07,0.19-0.08,0.28c-0.01,0.09-0.01,0.17,0.02,0.23
						c0.01,0.03,0.03,0.05,0.05,0.07c0.01,0.01,0.02,0.02,0.03,0.02c0.01,0,0.01,0.01,0.02,0.01c0,0,0.01,0,0.01,0c0,0,0.01,0,0,0
						L1.25,26.81L1.25,26.81z"/>
					<path class="st2" d="M1.41,25.71c-0.14-0.04-0.29-0.07-0.44-0.1c-0.15-0.03-0.3-0.06-0.45-0.06c0.07-0.03,0.14-0.05,0.22-0.07
						c0.07-0.02,0.15-0.04,0.22-0.06c0.15-0.04,0.3-0.07,0.45-0.1L1.41,25.71L1.41,25.71z"/>
					<polygon class="st2" points="-0.43,24.73 0.56,24.13 -0.18,25.03 					"/>
					<polygon class="st2" points="-0.47,23.99 0.31,23.51 -0.2,24.27 					"/>
				</g>
			</g>
		</g>
		<g>
			<g>
				<path class="st10" d="M6.8,25.22C6,28.9,2.7,31.3-0.56,30.58C-3.81,29.87-5.8,26.31-5,22.64s4.1-6.07,7.36-5.36
					C5.62,18,7.6,21.55,6.8,25.22z"/>
				<path class="st2" d="M0.6,30.9c-0.4,0-0.8-0.04-1.2-0.13c-3.36-0.74-5.42-4.4-4.59-8.17c0.83-3.77,4.23-6.24,7.59-5.51
					c3.36,0.74,5.42,4.4,4.59,8.17l0,0C6.26,28.59,3.53,30.9,0.6,30.9L0.6,30.9z M1.2,17.35c-2.76,0-5.32,2.19-6.01,5.33
					c-0.78,3.56,1.15,7.02,4.29,7.71c3.15,0.69,6.34-1.65,7.12-5.21l0,0c0.78-3.56-1.15-7.02-4.29-7.71
					C1.94,17.39,1.57,17.35,1.2,17.35L1.2,17.35z"/>
			</g>
			<path class="st12" d="M6.47,25.13c-0.74,3.36-3.79,5.56-6.81,4.89c-3.03-0.66-4.88-3.93-4.15-7.29c0.74-3.36,3.79-5.56,6.81-4.89
				C5.35,18.5,7.21,21.76,6.47,25.13L6.47,25.13z"/>
			<g>
				<path class="st10" d="M5.06,24.77c-0.62,2.85-3.11,4.73-5.55,4.19s-3.91-3.28-3.28-6.13c0.62-2.85,3.11-4.73,5.55-4.19
					C4.22,19.17,5.69,21.92,5.06,24.77z"/>
				<path class="st2" d="M0.36,29.25c-0.3,0-0.59-0.03-0.88-0.1c-2.54-0.56-4.08-3.41-3.43-6.36c0.65-2.95,3.24-4.9,5.78-4.34
					c2.54,0.56,4.08,3.41,3.43,6.36c-0.31,1.42-1.08,2.66-2.17,3.48C2.25,28.92,1.31,29.25,0.36,29.25L0.36,29.25z M0.94,18.74
					c-2.06,0-3.99,1.7-4.52,4.13c-0.6,2.74,0.81,5.39,3.14,5.9c1.12,0.25,2.29-0.04,3.29-0.79c1.01-0.76,1.73-1.92,2.02-3.25l0,0
					c0.6-2.74-0.81-5.39-3.14-5.9C1.47,18.77,1.21,18.74,0.94,18.74L0.94,18.74z"/>
			</g>
			<g>
				
					<ellipse transform="matrix(0.2141 -0.9768 0.9768 0.2141 -22.5128 19.5456)" class="st4" cx="0.89" cy="23.76" rx="5" ry="4.18"/>
				<path class="st2" d="M0.58,28.87c-0.26,0-0.53-0.03-0.79-0.09c-1.13-0.25-2.08-1.01-2.67-2.14c-0.58-1.12-0.75-2.48-0.45-3.81
					s1.01-2.5,2.01-3.28c1.01-0.78,2.19-1.07,3.32-0.83c1.13,0.25,2.08,1.01,2.67,2.14c0.58,1.12,0.75,2.48,0.45,3.81l0,0
					c-0.29,1.34-1.01,2.5-2.01,3.28C2.34,28.56,1.46,28.87,0.58,28.87z M1.2,18.94c-0.81,0-1.63,0.29-2.35,0.85
					c-0.95,0.73-1.62,1.84-1.9,3.11s-0.13,2.56,0.43,3.62c0.55,1.05,1.43,1.76,2.48,1.99c1.05,0.23,2.14-0.04,3.08-0.77
					c0.95-0.73,1.62-1.84,1.9-3.11l0,0c0.28-1.27,0.13-2.56-0.43-3.62c-0.55-1.05-1.43-1.76-2.48-1.99
					C1.69,18.97,1.44,18.94,1.2,18.94L1.2,18.94z"/>
			</g>
			<path class="st5" d="M-0.35,19.43c0,0-2.52,3.18-2.21,7.12c0,0-1.53-1.88,0.24-5.23C-2.32,21.32-1.23,19.53-0.35,19.43z"/>
			<path class="st5" d="M1.26,18.89c0,0-2.44,4.36-2.06,9.42c0,0,1.13,0.53,2.63-0.2c0,0-0.41-3.51,1.06-8.52
				C2.88,19.59,2.59,19.16,1.26,18.89z"/>
			<path class="st5" d="M4.21,20.9c0,0-0.59,2.71-0.46,5.88C3.75,26.78,5.83,23.93,4.21,20.9z"/>
			<g>
				<g>
					<path class="st10" d="M-1.55,23.15c-0.28,1.19,0.25,2.35,1.19,2.59s1.92-0.53,2.2-1.73c0.28-1.19-0.25-2.35-1.19-2.59
						S-1.27,21.95-1.55,23.15L-1.55,23.15z"/>
					<path class="st2" d="M-0.02,25.97c-0.13,0-0.26-0.02-0.39-0.05c-1.04-0.26-1.63-1.53-1.33-2.82c0.17-0.72,0.58-1.32,1.13-1.65
						c0.41-0.25,0.88-0.33,1.31-0.22c1.04,0.26,1.63,1.53,1.33,2.82c-0.17,0.72-0.58,1.32-1.13,1.65
						C0.61,25.88,0.29,25.97-0.02,25.97z M0.31,21.57c-0.24,0-0.48,0.07-0.71,0.21c-0.46,0.28-0.81,0.79-0.96,1.41
						c-0.26,1.09,0.21,2.15,1.04,2.36c0.33,0.09,0.68,0.03,1.01-0.17c0.46-0.28,0.81-0.79,0.96-1.41c0.26-1.09-0.21-2.15-1.04-2.36
						C0.51,21.58,0.41,21.57,0.31,21.57L0.31,21.57z"/>
				</g>
				<path class="st12" d="M-1.33,23.24c-0.24,1.01,0.17,1.98,0.91,2.17c0.74,0.19,1.54-0.48,1.77-1.49s-0.17-1.98-0.91-2.17
					C-0.3,21.56-1.09,22.23-1.33,23.24z"/>
				<g>
					<g>
						<path class="st10" d="M-1.11,23.07c-0.25,0.75-0.01,1.57,0.54,1.83s1.2-0.14,1.46-0.9s0.01-1.57-0.54-1.83
							S-0.86,22.31-1.11,23.07z"/>
						<path class="st2" d="M-0.23,25.12c-0.14,0-0.28-0.03-0.41-0.09c-0.61-0.29-0.89-1.19-0.61-2.01l0,0
							c0.16-0.47,0.46-0.83,0.84-0.99c0.27-0.12,0.56-0.11,0.82,0.01c0.61,0.29,0.89,1.19,0.61,2.01c-0.16,0.47-0.46,0.83-0.84,0.99
							C0.04,25.09-0.09,25.12-0.23,25.12z M-0.01,22.24c-0.1,0-0.2,0.02-0.29,0.06c-0.29,0.13-0.55,0.43-0.68,0.81l0,0
							c-0.23,0.68-0.02,1.42,0.46,1.65c0.18,0.09,0.38,0.09,0.58,0c0.29-0.13,0.55-0.43,0.68-0.81c0.23-0.68,0.02-1.42-0.46-1.65
							C0.19,22.26,0.09,22.24-0.01,22.24L-0.01,22.24z"/>
					</g>
					<path class="st12" d="M-1,23.2c-0.17,0.66,0.03,1.3,0.45,1.43s0.9-0.31,1.07-0.97C0.7,23,0.5,22.36,0.07,22.23
						S-0.83,22.54-1,23.2z"/>
					<path class="st13" d="M-1,23.21c-0.12,0.5,0.02,0.97,0.3,1.04c0.29,0.07,0.61-0.28,0.73-0.78s-0.02-0.97-0.3-1.04
						C-0.56,22.36-0.88,22.71-1,23.21L-1,23.21z"/>
				</g>
			</g>
			<path class="st13" d="M5.1,19.27c0,0,2.5,1.8,1.17,6.94c0,0-1.46,4.4-6.15,4.2c0,0,4.98-0.42,5.97-5.66
				C6.09,24.75,6.78,22.16,5.1,19.27L5.1,19.27z"/>
		</g>
	</g>
	<g>
		<g>
			<g>
				<path class="st0" d="M17.96,12.75c0,0,0.7,0.88,1.96,0.59c0,0,0.78-0.25,0.45,0.39c0,0-0.59,0.94-1.48,0.86
					c0,0,0.8,0.3,1.81-0.09c0,0,1-0.49,0.49,0.39c0,0-1.18,1.82-2.42,1.66l-0.08-0.7l-1.14-1.04l0.57,0.01c0,0,0.03-0.56-0.68-0.9
					L17.96,12.75L17.96,12.75z"/>
				<path class="st2" d="M18.93,16.77c-0.06,0-0.12,0-0.18-0.01l-0.15-0.02l-0.09-0.78l-1.46-1.34l0.85,0.01
					c-0.03-0.07-0.07-0.16-0.15-0.25l-0.27-0.1l0.19,0.02c-0.07-0.07-0.17-0.13-0.29-0.19l-0.17-0.08l0.72-1.64l0.2,0.25
					c0.03,0.03,0.65,0.78,1.76,0.53c0.13-0.04,0.51-0.13,0.7,0.09c0.12,0.14,0.11,0.33-0.02,0.58l-0.01,0.01
					c-0.02,0.03-0.25,0.39-0.64,0.66c0.22-0.02,0.47-0.07,0.74-0.17c0.23-0.11,0.62-0.25,0.82-0.04c0.2,0.22-0.01,0.57-0.09,0.71
					l0,0.01C21.31,15.09,20.2,16.77,18.93,16.77L18.93,16.77z M18.06,15.02l0.82,0.75l0.07,0.61c1.03-0.02,2.03-1.49,2.08-1.58
					c0.07-0.11,0.09-0.19,0.11-0.23c-0.08,0.01-0.23,0.06-0.35,0.11l-0.02,0.01c-1.07,0.4-1.91,0.1-1.95,0.09l-0.55-0.2
					c0.04,0.15,0.04,0.25,0.04,0.26l-0.01,0.19L18.06,15.02L18.06,15.02z M18.19,14.34l0.73,0.07c0.73,0.06,1.24-0.69,1.29-0.76
					c0.04-0.08,0.05-0.12,0.05-0.15c-0.06-0.01-0.18,0-0.28,0.03l-0.02,0c-0.96,0.22-1.62-0.18-1.93-0.45l-0.33,0.76
					C17.95,14,18.1,14.18,18.19,14.34L18.19,14.34z"/>
			</g>
			<path class="st13" d="M18.7,14.67c0,0,0.74,0.33,2.22-0.12c0,0,0.44-0.03,0.03,0.39c0,0-0.41,0.73-1.51,1.29
				c0,0,0.68-0.95,0.06-0.99c0,0-1.2-0.14-1.63-0.78c0,0,1.52-0.25,1.43-0.56c0,0-0.69-0.27-0.58-0.39c0,0,0.54,0.27,1.24,0.03
				c0,0,0.59-0.19,0.1,0.28C20.06,13.82,19.7,14.3,18.7,14.67L18.7,14.67z"/>
		</g>
		<g>
			<g>
				<path class="st13" d="M17.43,10.65c0,0,1.14-1.21,1.58-0.05c0,0,0.38,1.39-0.64,2.44l-0.27,0.04c0,0-0.13-0.72-0.45-1.05
					C17.65,12.03,17.29,11.39,17.43,10.65z"/>
				<path class="st2" d="M17.94,13.3l-0.03-0.18c-0.03-0.18-0.17-0.71-0.4-0.95l-0.02-0.02l-0.01-0.02
					c-0.02-0.03-0.4-0.71-0.24-1.51l0.01-0.05l0.04-0.04c0.07-0.07,0.69-0.71,1.28-0.6c0.28,0.06,0.49,0.26,0.62,0.61l0.01,0.02
					c0.02,0.06,0.4,1.51-0.69,2.62l-0.05,0.05L17.94,13.3L17.94,13.3z M17.81,11.92c0.24,0.26,0.38,0.7,0.44,0.94l0.03,0
					c0.85-0.92,0.58-2.08,0.55-2.19c-0.08-0.21-0.19-0.33-0.33-0.36c-0.29-0.06-0.71,0.28-0.88,0.44
					C17.52,11.31,17.76,11.82,17.81,11.92L17.81,11.92z"/>
			</g>
			<path class="st3" d="M17.44,10.99c0,0,0.71-0.92,1.04-0.02c0,0,0.3,1.07-0.49,1.88l-0.13,0.02c0,0,0.07-0.57-0.18-0.82
				C17.7,12.05,17.33,11.56,17.44,10.99L17.44,10.99z"/>
			<path class="st2" d="M17.5,11.89c0.06-0.15,0.12-0.28,0.19-0.41c0.07-0.13,0.15-0.26,0.25-0.37c0.09-0.12,0.2-0.23,0.32-0.31
				c0.12-0.08,0.26-0.14,0.4-0.16c-0.14,0.05-0.25,0.13-0.34,0.23c-0.09,0.1-0.16,0.22-0.22,0.34c-0.06,0.12-0.1,0.25-0.14,0.38
				c-0.04,0.13-0.07,0.27-0.08,0.39L17.5,11.89L17.5,11.89z"/>
			<g>
				<path class="st13" d="M18.2,11.03c0,0,0.39,0.15,0.18,1.07"/>
				<path class="st2" d="M18.28,10.85c0.04,0.02,0.05,0.03,0.07,0.04c0.02,0.01,0.03,0.03,0.04,0.04c0.02,0.03,0.05,0.06,0.06,0.08
					c0.03,0.06,0.06,0.12,0.07,0.17c0.03,0.11,0.03,0.22,0.02,0.33c-0.01,0.1-0.03,0.2-0.06,0.3c-0.03,0.1-0.06,0.19-0.1,0.28
					c0-0.1,0.01-0.19,0-0.29c-0.01-0.1-0.02-0.19-0.04-0.28c-0.02-0.09-0.05-0.17-0.1-0.23c-0.02-0.03-0.05-0.06-0.07-0.08
					c-0.01-0.01-0.02-0.02-0.04-0.02c-0.01,0-0.01,0-0.01,0c0,0-0.01,0,0,0.01L18.28,10.85L18.28,10.85z"/>
			</g>
		</g>
		<g>
			<g>
				<path class="st10" d="M14.26,4.82c0,0,2.58-0.46,3.28-3.08c0,0,0.88-0.48,0.52,2.77c0,0-0.33,2.33-1.92,3.16
					C16.14,7.67,15.67,5.37,14.26,4.82L14.26,4.82z"/>
				<path class="st2" d="M16,7.96l-0.05-0.25c0-0.02-0.46-2.2-1.76-2.71l-0.65-0.25l0.68-0.12c0.1-0.02,2.47-0.47,3.12-2.94
					l0.02-0.08l0.07-0.04c0.09-0.05,0.28-0.09,0.46,0.03c0.42,0.28,0.53,1.24,0.34,2.93c-0.01,0.1-0.36,2.44-2.02,3.31L16,7.96
					L16,7.96z M14.77,4.88c0.91,0.64,1.34,1.93,1.49,2.49c1.3-0.87,1.6-2.86,1.6-2.89C18.09,2.4,17.79,2,17.7,1.93
					c0,0-0.01,0-0.01-0.01C17.12,3.83,15.56,4.6,14.77,4.88L14.77,4.88z"/>
			</g>
			<path class="st12" d="M16.37,7.28c0,0,2.16-1.91,1.46-4.95c0,0-0.04-0.5-0.2,0.27c0,0-0.38,1.75-2.29,2.82
				C15.34,5.42,15.74,6.87,16.37,7.28z"/>
			<path class="st13" d="M17.83,2.33c0,0,0.88,2.74-1.46,4.95l-0.5-0.47C15.87,6.81,18.01,5.11,17.83,2.33L17.83,2.33z"/>
		</g>
		<g>
			<path class="st4" d="M5.79,9.76c0,0-0.67-2.15,1.52-3.82c0,0,3.5-2.72,7.61-0.81c0,0,1.44,0.43,2.03,2.59
				c0,0-3.01-1.02-5.69-0.16C11.26,7.56,7.28,8.8,5.79,9.76L5.79,9.76z"/>
			<path class="st2" d="M5.69,10.07L5.61,9.82C5.6,9.8,4.92,7.52,7.2,5.79c0.03-0.03,3.63-2.76,7.8-0.84
				c0.17,0.06,1.56,0.58,2.15,2.72l0.1,0.35l-0.35-0.12c-0.03-0.01-2.99-0.99-5.57-0.16C11.28,7.76,7.35,8.99,5.9,9.93L5.69,10.07
				L5.69,10.07z M11.91,4.65c-2.58,0-4.45,1.43-4.48,1.45c-1.65,1.25-1.6,2.77-1.51,3.36c1.63-0.94,5.12-2.03,5.28-2.08
				c2.2-0.7,4.57-0.18,5.46,0.06c-0.6-1.72-1.74-2.1-1.79-2.12l-0.02-0.01C13.81,4.83,12.82,4.65,11.91,4.65L11.91,4.65z"/>
		</g>
		<g>
			<path class="st10" d="M9.61,4.94c0,0,1.97,0.82,1.64,2.5c0,0,1.97-0.64,3.57-0.16c0,0,0.36-2.17-1.91-3.01l-0.67-0.23L9.91,4.39
				L9.61,4.94L9.61,4.94z"/>
			<path class="st2" d="M11,7.72l0.06-0.32c0.29-1.51-1.45-2.25-1.53-2.29l-0.2-0.08l0.45-0.82l2.48-0.36l0.71,0.25
				c2.4,0.88,2.04,3.2,2.04,3.22l-0.04,0.22l-0.21-0.06c-1.52-0.46-3.44,0.15-3.45,0.15L11,7.72L11,7.72z M9.88,4.85
				c0.48,0.25,1.67,1.02,1.6,2.32c0.58-0.15,1.94-0.43,3.17-0.14c0.02-0.54-0.1-1.95-1.81-2.58l-0.62-0.21l-2.19,0.32L9.88,4.85
				L9.88,4.85z"/>
		</g>
		<path class="st12" d="M10.12,4.57l2.2-0.29c0,0,2.09,0.48,2.36,2.57c0,0-1.11-0.16-2.47,0.07C12.2,6.92,11.65,5.06,10.12,4.57z"/>
		<path class="st13" d="M11.05,4.45l1.27-0.17c0,0,1.8,0.06,2.36,2.57c0,0-0.52-0.24-1.33-0.02c0,0-0.76-0.71-0.01-1.58
			c0,0,0-0.39-0.37-0.65C12.98,4.6,11.8,5.19,11.05,4.45L11.05,4.45z"/>
		<g>
			<path class="st1" d="M6.45,11.67c0,0,1.2,1.12,1.71,1.07c0,0-0.57,1.25,0.24,1.97c0,0,1.06,1.32,2.19,1.23
				c0,0,0.13-0.18,0.55-0.55l6.44-0.63c0,0,0.68-0.28,0.01-0.62c0,0,1.34-1.53,0.13-2.6c0,0-0.35-0.7-0.1-1.44l-0.06-0.58
				c0,0-1.83-0.16-2.84-0.15C14.7,9.37,8.45,9.67,6.45,11.67L6.45,11.67z"/>
			<path class="st2" d="M10.47,16.14c-1.12,0-2.1-1.15-2.22-1.29c-0.67-0.61-0.5-1.52-0.36-1.95c-0.59-0.18-1.4-0.92-1.58-1.08
				l-0.15-0.14l0.14-0.14c2.03-2.03,8.12-2.35,8.38-2.36c1.02,0,2.79,0.15,2.86,0.15l0.16,0.01l0.08,0.78l-0.01,0.04
				c-0.19,0.57,0.02,1.12,0.08,1.26c0.93,0.86,0.47,2.03,0,2.67c0.14,0.11,0.21,0.24,0.2,0.37c-0.01,0.29-0.35,0.44-0.42,0.47
				l-0.03,0.01l-6.4,0.63c-0.35,0.32-0.47,0.47-0.47,0.48l-0.05,0.07l-0.09,0.01C10.56,16.13,10.52,16.13,10.47,16.14L10.47,16.14z
				 M8.48,12.52l-0.14,0.31c0,0.01-0.5,1.13,0.19,1.74l0.02,0.02c0.01,0.01,0.95,1.16,1.93,1.16c0.01,0,0.01,0,0.02,0
				c0.08-0.09,0.23-0.26,0.51-0.5l0.05-0.04l6.47-0.63c0.07-0.03,0.14-0.09,0.16-0.12c-0.01-0.02-0.05-0.07-0.19-0.14l-0.22-0.11
				l0.16-0.19c0.05-0.06,1.19-1.4,0.15-2.33l-0.03-0.02l-0.02-0.03c-0.02-0.03-0.37-0.76-0.13-1.54L17.36,9.7
				c-0.46-0.04-1.8-0.14-2.62-0.14c-0.01,0-0.02,0-0.04,0c-0.05,0-5.89,0.3-7.97,2.11c0.47,0.42,1.14,0.9,1.4,0.88L8.48,12.52
				L8.48,12.52z"/>
		</g>
		<path class="st23" d="M15.77,7.79c-2.81-0.29-4.28,0.19-4.28,0.19l0.06,0.2c0,0,2.58-0.42,4.21-0.16L15.77,7.79z"/>
		<g>
			<path class="st24" d="M6.71,12c-0.75,0.06-1.33,0.88-1.52,2.01c-0.07,0.14-0.21,0.31-0.41,0.51c-0.3,0.31-0.95,0.64-2.14,0.11
				c0,0-0.7-0.41-0.34,0.34c0,0,0.71,1.62,2.47,0.87c0,0-1.08,0.74-3.14,0.26c0,0,0.74,2.96,4.97,1.9c0.19,0.09,0.39,0.13,0.59,0.11
				c1-0.08,1.7-1.51,1.57-3.2C8.63,13.23,7.71,11.93,6.71,12L6.71,12z"/>
			<path class="st2" d="M4.91,18.43c-1.23,0-2.02-0.41-2.51-0.82c-0.75-0.64-0.95-1.41-0.96-1.45l-0.08-0.31l0.31,0.07
				c0.56,0.13,1.04,0.17,1.45,0.15c-0.69-0.32-1-1.01-1-1.02c-0.06-0.12-0.22-0.46-0.02-0.65c0.18-0.17,0.5-0.02,0.63,0.05
				c1,0.44,1.82-0.02,1.93-0.09c0.25-0.25,0.27-0.27,0.35-0.42c0.21-1.24,0.88-2.07,1.69-2.14c0.55-0.04,1.09,0.27,1.52,0.88
				c0.41,0.58,0.67,1.37,0.73,2.22c0.07,0.85-0.07,1.67-0.38,2.3c-0.33,0.67-0.81,1.06-1.37,1.1C7,18.33,6.79,18.3,6.58,18.21
				C5.95,18.36,5.4,18.43,4.91,18.43L4.91,18.43z M1.94,16.37c0.32,0.7,1.41,2.25,4.62,1.45l0.07-0.02l0.06,0.03
				c0.16,0.08,0.33,0.11,0.49,0.1c0.41-0.03,0.78-0.35,1.05-0.89c0.28-0.57,0.4-1.32,0.34-2.1c-0.06-0.78-0.3-1.5-0.66-2.03
				c-0.35-0.49-0.76-0.75-1.17-0.71l0,0c-0.63,0.05-1.17,0.79-1.35,1.85l0,0.03L5.37,14.1c-0.12,0.23-0.14,0.25-0.45,0.56
				l-0.03,0.02c-0.04,0.03-1.06,0.69-2.33,0.13L2.54,14.8c-0.04-0.02-0.09-0.05-0.13-0.06c0.01,0.04,0.03,0.09,0.06,0.15
				c0.03,0.06,0.67,1.44,2.22,0.78l0.19,0.34C4.84,16.04,3.83,16.71,1.94,16.37L1.94,16.37z"/>
		</g>
		<path class="st0" d="M6.98,12.83c-0.7,0.05-0.86,0.57-1.14,1.38c-0.1,0.19-0.27,0.02-0.49,0.07c0,0-1.07,0.99-2.32,0.72
			c0,0-0.53-0.23,0.04,0.44c0,0,0.58,0.61,1.73,0.35c0,0-0.11,0.49-1.77,0.82c0,0-0.35-0.02-0.24,0.2c0.24,0.51,1.41,1.55,4.16,0.86
			c0.18,0.08,0.4,0.04,0.58,0.02c0.93-0.07,0.97-1.13,0.85-2.71C8.26,13.41,7.91,12.76,6.98,12.83L6.98,12.83z"/>
		<path class="st25" d="M18.11,14.72"/>
		<g>
			<path class="st26" d="M16.81,14.73c-0.42,0.27-5.74,1.04-5.74,1.04c-1.51-0.05-2.15-1.46-2.15-1.46
				c-0.27-0.84-0.03-1.51-0.03-1.51c0.45-1.01-0.59-2.45-0.59-2.45c-0.68,0.25-0.64,0.32-1.44,0.84c1.61,0.69,0.03,4.12,0.03,4.12
				c-0.52,1.27-0.26,2.61-0.26,2.61c0.26,1.94,2.65,3.13,2.65,3.13c2.93,1.6,6.41,1.18,6.41,1.18c0.14-0.78,1.29-0.85,1.29-0.85
				c0.36-1.34,0.99-2.61,0.99-2.61c0.94-1.84,0.75-3.88,0.75-3.88s0.02-0.84-0.23-1.58l-0.2-0.41c0,0-0.16-0.11-0.14,0.1l-0.13,0.42
				C18.01,13.42,17.91,14.02,16.81,14.73L16.81,14.73z"/>
			<path class="st2" d="M14.58,22.48c-1.28,0-3.44-0.19-5.4-1.26c-0.1-0.05-2.47-1.26-2.75-3.27c-0.02-0.11-0.25-1.44,0.27-2.72
				c0.01-0.03,1.01-2.21,0.57-3.34c-0.1-0.25-0.26-0.43-0.49-0.53l-0.34-0.14l0.31-0.2C7,10.87,7.17,10.75,7.3,10.66
				c0.29-0.21,0.44-0.31,0.93-0.49l0.14-0.05l0.09,0.12c0.05,0.06,1.1,1.54,0.62,2.64c-0.02,0.06-0.2,0.65,0.03,1.37
				c0.06,0.13,0.65,1.28,1.96,1.33c2.54-0.37,5.38-0.85,5.65-1.01c0.99-0.63,1.12-1.17,1.12-1.18l0.01-0.02l0.12-0.39
				c0-0.16,0.07-0.23,0.13-0.27c0.11-0.06,0.23-0.02,0.31,0.03l0.04,0.03l0.23,0.48c0.25,0.73,0.25,1.53,0.24,1.64
				c0.02,0.19,0.16,2.15-0.77,3.98c-0.01,0.01-0.63,1.27-0.98,2.57l-0.04,0.14l-0.14,0.01c-0.01,0-1,0.07-1.11,0.69l-0.03,0.14
				l-0.14,0.02C15.66,22.43,15.24,22.48,14.58,22.48L14.58,22.48z M7.22,11.18c0.18,0.14,0.32,0.34,0.41,0.57
				c0.49,1.28-0.53,3.54-0.58,3.63c-0.49,1.2-0.24,2.48-0.24,2.49l0,0.01c0.24,1.81,2.52,2.97,2.54,2.98
				c2.54,1.39,5.52,1.23,6.17,1.17c0.21-0.62,0.97-0.8,1.29-0.84c0.36-1.29,0.94-2.47,0.97-2.52c0.9-1.77,0.73-3.76,0.73-3.78
				l0-0.01v-0.01c0-0.01,0.02-0.81-0.22-1.51l-0.04-0.09l-0.06,0.18c-0.03,0.12-0.21,0.73-1.29,1.42l0,0
				c-0.43,0.27-4.92,0.94-5.82,1.07l-0.02,0h-0.02c-1.61-0.05-2.29-1.51-2.32-1.57l-0.01-0.02c-0.28-0.89-0.03-1.6-0.02-1.63
				l0.01-0.01c0.33-0.74-0.27-1.78-0.49-2.14c-0.33,0.13-0.44,0.21-0.7,0.39C7.44,11.03,7.34,11.1,7.22,11.18L7.22,11.18z"/>
		</g>
		<polygon class="st23" points="6.48,9.88 5.79,10.24 5.84,10.39 6.53,10.04 		"/>
		<polygon class="st23" points="10.37,8.23 7.59,9.29 7.68,9.51 10.44,8.41 		"/>
		<path class="st23" d="M6.93,11.44l4.22-2.4l5.12-0.37l0.1,0.64c0,0-1.36-0.17-2.43-0.09C13.95,9.21,9.39,9.76,6.93,11.44
			L6.93,11.44z"/>
		<path class="st13" d="M11.54,11.39c0,0,0.52,0.5-0.05,0.54l-0.09-0.01C11.39,11.92,11.26,11.69,11.54,11.39L11.54,11.39z"/>
		<path class="st13" d="M16.35,11.13c0,0,0.56,0.23,0.04,0.56C16.39,11.68,16.07,11.35,16.35,11.13z"/>
		<path class="st25" d="M18.09,12.76"/>
		<path class="st0" d="M8.61,13.75c0,0,0.02,2.08,2.97,2.35c0,0,2.63-1.87,5.15-0.97c0,0,0.92-0.32,1.47-1.76
			c0,0,0.01-0.82,0.27,0.6c0,0-0.03,4.43-2.1,6.67c0,0,0-0.48-0.29-1.07c0,0-0.66,1.07-2.05,1.37c0,0,0.36-0.45,0.25-1.17
			c0,0-2.15,1.33-4.6,0.24c0,0-2.58-1.23-1.97-4.67C7.71,15.35,8.19,13.13,8.61,13.75L8.61,13.75z"/>
		<g>
			<g>
				<path class="st10" d="M5.61,9.85c0,0,3.27-1.91,5.47-2.37c0,0,3.31-0.85,5.92,0.1l0.38,0.19l0.26,1.92c0,0-1.58-0.44-2.42-0.41
					c0,0-5.58,0.51-8.05,2.27c0,0-1.23,0.75-1.33,0.44c0,0-0.19-0.17-0.16-0.7L5.61,9.85L5.61,9.85z"/>
				<path class="st2" d="M5.98,12.26c-0.05,0-0.1-0.01-0.14-0.02c-0.07-0.03-0.12-0.07-0.16-0.14c-0.08-0.09-0.22-0.32-0.19-0.81
					L5.41,9.74l0.1-0.06c0.13-0.08,3.32-1.93,5.53-2.39c0.2-0.05,3.42-0.85,6.03,0.11l0.02,0.01l0.47,0.24l0.31,2.31L17.6,9.89
					c-0.02,0-1.55-0.43-2.36-0.4c-0.2,0.02-5.59,0.55-7.95,2.23l-0.01,0.01C6.93,11.94,6.33,12.26,5.98,12.26L5.98,12.26z
					 M5.81,9.96l0.07,1.34v0.01c-0.02,0.4,0.1,0.54,0.1,0.55l0.02,0.02c0.16-0.01,0.63-0.22,1.06-0.48c2.49-1.77,7.91-2.28,8.14-2.3
					h0.01c0.65-0.02,1.7,0.22,2.2,0.34l-0.21-1.53l-0.28-0.14c-2.52-0.91-5.77-0.1-5.8-0.09l-0.01,0C9.19,8.07,6.38,9.64,5.81,9.96
					L5.81,9.96z"/>
			</g>
			<path class="st12" d="M5.97,9.97c0,0,2.63-2.03,7.28-2.59c0,0,2.47-0.19,4.01,0.59l0.1,1.3c0,0-3.49-1.1-10.29,1.91
				C7.07,11.17,5.83,10.93,5.97,9.97L5.97,9.97z"/>
			<path class="st13" d="M11.02,7.78c0,0,2.72-1.06,6.24,0.19c0,0,0.39,1.49-0.3,1.09c0,0-0.45-0.16-0.42-0.75
				c0,0-2.23-1.04-5.71-0.14C10.83,8.18,9.99,8.05,11.02,7.78L11.02,7.78z"/>
		</g>
		<g>
			<path class="st1" d="M7.58,12.34c0,0-0.39-0.81-1.96-0.42c0,0-1.07,1.52-0.05,2.49c0,0,0.83,0.8,1.28,0.82
				C6.84,15.24,7.9,13.6,7.58,12.34L7.58,12.34z"/>
			<path class="st2" d="M6.94,15.43l-0.11-0.01c-0.49-0.02-1.25-0.74-1.4-0.88c-0.9-0.86-0.37-2.17,0.03-2.74l0.04-0.06l0.07-0.02
				c1.7-0.42,2.16,0.49,2.18,0.52l0.01,0.04C8.1,13.62,7.05,15.27,7,15.34L6.94,15.43z M5.73,12.09c-0.18,0.28-0.82,1.43-0.04,2.18
				c0.29,0.27,0.76,0.65,1.05,0.75c0.22-0.38,0.88-1.63,0.65-2.61C7.33,12.31,6.95,11.81,5.73,12.09z"/>
		</g>
		<path class="st5" d="M15.01,5.43c0,0,1.1,0.41,1.63,1.78c0,0-0.29-0.15-0.74-0.25C15.89,6.96,15.87,6.32,15.01,5.43z"/>
		<path class="st5" d="M11.05,7.05c0-0.01,0-0.02,0-0.02C11,6.43,10.4,6,9.71,6.06C9.02,6.12,8.5,6.64,8.55,7.24
			c0.02,0.2,0.1,0.38,0.22,0.53C9.27,7.54,10.11,7.21,11.05,7.05L11.05,7.05z"/>
		<path class="st3" d="M9.96,14.15c0,0-0.73-0.17,0.05-1.65c0,0,0.32-0.91-0.26-1.85c0,0,4.63-1.77,7.52-0.77c0,0-0.7,1.3-0.12,1.87
			c0,0,0.51,0.55,0.67,1.13c0,0,0,0.2-0.17,0.55c0,0-0.83-0.3-1.1-0.32c0,0-2.88-0.09-5.31,1.05l-0.41,0.15
			C10.83,14.32,10.33,14.41,9.96,14.15L9.96,14.15z"/>
		<path class="st13" d="M11.36,12.64c0,0-0.35-0.01-0.45-0.01c-0.13-0.01-0.3-0.06-0.36-0.24c0,0,0.08-1.18,0.84-1.42
			c0.43-0.13,1.22-0.18,1.4,0.97l0.01,0.07C12.8,12.02,12.89,12.67,11.36,12.64L11.36,12.64z"/>
		<g>
			<g>
				<path class="st26" d="M9.46,10.65c0,0,0.57-1.16,1.69-1.61c0.57-0.23,0.82-0.15,2.08,0.9c0.12,0.1,0.31,0.14,0.69-0.03
					c0.16-0.07,0.56,0.12-0.14,0.71c0,0-0.74,0.37-1.07,0c0,0-1.32-0.96-2.17,0.03C10.53,10.65,9.61,11.52,9.46,10.65L9.46,10.65z"
					/>
				<path class="st2" d="M9.8,11.23c-0.06,0-0.11-0.01-0.17-0.03c-0.14-0.05-0.31-0.17-0.37-0.52l-0.01-0.06l0.03-0.06
					c0.02-0.05,0.62-1.24,1.79-1.71c0.7-0.28,1.06-0.08,2.28,0.93c0.08,0.07,0.24,0.05,0.49-0.05c0.15-0.06,0.37-0.02,0.48,0.15
					c0.1,0.16,0.11,0.45-0.42,0.89l-0.02,0.02l-0.02,0.01c-0.04,0.02-0.86,0.41-1.29-0.03c-0.14-0.1-1.2-0.79-1.9,0.01l-0.01,0.01
					C10.58,10.88,10.18,11.23,9.8,11.23L9.8,11.23z M9.66,10.68c0.02,0.07,0.05,0.14,0.1,0.16c0.14,0.05,0.45-0.15,0.63-0.32
					c0.77-0.88,1.93-0.42,2.43-0.05l0.03,0.03c0.18,0.2,0.65,0.05,0.83-0.03c0.23-0.2,0.29-0.31,0.31-0.36
					c-0.24,0.1-0.6,0.21-0.87-0.01c-1.28-1.06-1.43-1.05-1.89-0.87C10.32,9.58,9.79,10.45,9.66,10.68L9.66,10.68z"/>
			</g>
			<path class="st27" d="M10.38,10.12c0,0,0.44-0.76,1.23-1.01c0.4-0.13,0.64,0.09,1.44,0.87c0.08,0.07,0.52,0.16,0.79,0.07
				c0.11-0.04,0.07,0.35-0.53,0.48c0,0-0.39,0.21-0.73-0.26c0,0-0.94-0.63-1.77-0.09C10.81,10.18,10.22,10.73,10.38,10.12
				L10.38,10.12z"/>
			<path class="st28" d="M13.38,10.11c0,0,0.43-0.23,0.56,0.04c0,0-0.13,0.5-0.9,0.46c0,0-0.46-0.14-0.2-0.27
				c0,0,0.23,0.05,0.51-0.02C13.35,10.32,13.57,10.26,13.38,10.11L13.38,10.11z"/>
		</g>
		<path class="st2" d="M10.56,12.39c-0.04-0.17-0.04-0.34-0.03-0.52c0.02-0.18,0.06-0.35,0.15-0.53c0.04-0.09,0.1-0.17,0.17-0.24
			c0.08-0.08,0.15-0.12,0.23-0.18c0.16-0.1,0.34-0.17,0.54-0.2c0.2-0.03,0.4,0,0.59,0.07l0.13,0.06c0.04,0.02,0.08,0.05,0.12,0.08
			c0.02,0.01,0.04,0.02,0.06,0.05c0.02,0.02,0.04,0.04,0.06,0.06c0.03,0.04,0.06,0.08,0.09,0.12c0.21,0.33,0.23,0.71,0.16,1.04
			c-0.05-0.17-0.09-0.33-0.16-0.47c-0.06-0.15-0.15-0.28-0.24-0.39c-0.02-0.03-0.05-0.05-0.08-0.07c-0.01-0.01-0.03-0.02-0.04-0.03
			c0,0-0.03-0.01-0.04-0.02c-0.03-0.02-0.06-0.03-0.1-0.05l-0.1-0.04c-0.13-0.04-0.27-0.05-0.41-0.03
			c-0.14,0.02-0.28,0.07-0.41,0.13c-0.06,0.03-0.14,0.07-0.18,0.11c-0.05,0.04-0.1,0.09-0.14,0.15c-0.09,0.11-0.16,0.26-0.22,0.41
			C10.65,12.06,10.6,12.22,10.56,12.39L10.56,12.39z"/>
		<path class="st13" d="M17.5,9.9c0,0-0.56,0.91,0.2,1.92c0,0,0.64,0.4,0.08,1.8l-0.42-0.01c0,0,0.35-1.2-0.26-1.98
			c0,0-0.55-0.91,0.15-1.73L17.5,9.9L17.5,9.9z"/>
		<path class="st13" d="M15.6,11.48c-0.03-0.42,0.71-1.29,1.54-0.51c0,0,0.6,0.62-0.04,1.12c0,0-0.58,0.12-0.89,0.09
			C16.21,12.18,15.66,12.2,15.6,11.48L15.6,11.48z"/>
		<path class="st2" d="M15.32,12.02c-0.04-0.16-0.05-0.33-0.04-0.5c0.01-0.17,0.04-0.34,0.12-0.51c0.04-0.08,0.09-0.17,0.15-0.24
			c0.07-0.08,0.14-0.13,0.22-0.19c0.15-0.1,0.33-0.18,0.52-0.21c0.19-0.03,0.4,0,0.58,0.09c0.04,0.02,0.09,0.04,0.13,0.07
			c0.04,0.03,0.08,0.06,0.11,0.08c0.09,0.08,0.14,0.15,0.19,0.23c0.18,0.33,0.2,0.69,0.12,1.02c-0.09-0.32-0.19-0.63-0.38-0.85
			c-0.02-0.03-0.05-0.05-0.07-0.08c-0.02-0.02-0.05-0.04-0.07-0.05c-0.03-0.02-0.06-0.03-0.09-0.05c-0.03-0.02-0.06-0.03-0.09-0.04
			c-0.12-0.05-0.25-0.06-0.38-0.04c-0.13,0.02-0.26,0.07-0.38,0.13c-0.06,0.03-0.13,0.08-0.17,0.11c-0.02,0.02-0.05,0.04-0.07,0.07
			c-0.02,0.02-0.04,0.05-0.06,0.08c-0.08,0.12-0.14,0.26-0.2,0.41C15.41,11.7,15.37,11.85,15.32,12.02L15.32,12.02z"/>
		<g>
			<g>
				<path class="st24" d="M17.89,13.87c0,0,1.04,0.27-0.19,1.01c0,0,0.86,0.38,0.99,0.99c0.06,0.27,0.16,0.79,0.48,0.87
					c0,0,0.99-0.33,0.3,0.26c0,0-0.76,1.26-2.45,0.78c0,0-0.76-0.39-1-1.11l-0.34-1.57L15.51,15l-0.24-0.04l-0.14,0.08l-0.25,0.14
					c0,0-0.6,2.01-0.95,2.34c-0.46,0.44-1.9,1.19-2.23,1.25c-0.73,0.13-2.3,0.23-2.86-0.78c0,0-0.69-1.08,0.1-0.54
					c0,0,0.27,0.3,0.8,0.2c0,0,0.07-0.23,0.44-1.01c0.11-0.24,0.35-0.46,0.78-0.72c0.2-0.11,0.56-0.28,0.71-0.57
					c0,0-0.23-0.16-0.66-0.09c0,0-0.39-0.04,0.37-0.59c0.39-0.28,1.16-0.69,2.48-0.71l0.56,0.1c0,0,0.85,0.98,1.37-0.05
					c0.03-0.07,0.21-0.13,0.21-0.13s0.52-0.41,1.65-0.08L17.89,13.87L17.89,13.87z"/>
				<path class="st2" d="M10.81,19.05c-0.75,0-1.7-0.17-2.13-0.96c-0.45-0.7-0.29-0.85-0.23-0.91c0.18-0.17,0.46,0.02,0.6,0.12
					l0.02,0.01l0.02,0.02c0.01,0.01,0.18,0.18,0.52,0.16c0.06-0.14,0.17-0.42,0.41-0.92c0.14-0.29,0.4-0.53,0.86-0.8
					c0.03-0.02,0.06-0.03,0.1-0.05c0.12-0.07,0.27-0.15,0.39-0.26c-0.08-0.01-0.18-0.01-0.31,0.01l-0.03,0l-0.03,0
					c-0.1-0.01-0.23-0.07-0.27-0.21c-0.05-0.2,0.1-0.41,0.54-0.73c0.45-0.33,1.27-0.73,2.59-0.75h0.02l0.64,0.11l0.05,0.05
					c0.1,0.11,0.4,0.38,0.66,0.35c0.15-0.02,0.28-0.14,0.39-0.36c0.05-0.11,0.18-0.17,0.29-0.21c0.14-0.09,0.72-0.41,1.8-0.09
					l0.23,0.06c0.06,0.02,0.5,0.14,0.55,0.49c0.03,0.22-0.1,0.45-0.42,0.69c0.29,0.18,0.71,0.51,0.81,0.96l0,0.02
					c0.04,0.18,0.12,0.59,0.29,0.69c0.57-0.18,0.66-0.02,0.7,0.05c0.11,0.21-0.11,0.41-0.27,0.54c-0.14,0.2-0.99,1.31-2.65,0.83
					l-0.04-0.01c-0.03-0.02-0.83-0.43-1.09-1.22l0-0.02l-0.32-1.48l-0.07-0.04l-0.14-0.02l-0.26,0.15
					c-0.14,0.47-0.63,2.02-0.98,2.35c-0.49,0.47-1.96,1.24-2.33,1.3C11.54,19,11.2,19.05,10.81,19.05L10.81,19.05z M8.87,17.65
					c0.04,0.08,0.09,0.16,0.14,0.24l0.01,0.01c0.54,0.98,2.17,0.77,2.65,0.69c0.28-0.05,1.68-0.77,2.13-1.2
					c0.23-0.22,0.67-1.5,0.9-2.25l0.02-0.07l0.52-0.3l0.34,0.06l0.28,0.15l0.36,1.65c0.19,0.58,0.78,0.92,0.88,0.98
					c1.45,0.4,2.14-0.59,2.2-0.69c-0.02,0.01-0.04,0.01-0.06,0.02l-0.05,0.02l-0.05-0.01c-0.43-0.11-0.55-0.69-0.62-1l0-0.02
					c-0.09-0.41-0.66-0.75-0.88-0.85l-0.34-0.15l0.32-0.19c0.42-0.25,0.51-0.42,0.51-0.48c-0.01-0.07-0.16-0.15-0.27-0.18
					l-0.24-0.07c-1.01-0.3-1.46,0.03-1.48,0.04l-0.02,0.02l-0.03,0.01c-0.04,0.01-0.09,0.04-0.11,0.05
					c-0.17,0.33-0.4,0.52-0.68,0.55c-0.43,0.05-0.82-0.29-0.95-0.43l-0.48-0.08c-1.21,0.02-1.95,0.38-2.35,0.67
					c-0.12,0.09-0.21,0.16-0.27,0.22c0,0,0.01,0,0.01,0c0.34,0,0.53,0.13,0.55,0.14l0.14,0.1l-0.08,0.15
					c-0.15,0.3-0.48,0.48-0.7,0.6c-0.03,0.02-0.06,0.03-0.09,0.05c-0.38,0.22-0.61,0.42-0.71,0.63c-0.36,0.75-0.43,0.99-0.44,0.99
					l-0.04,0.11l-0.11,0.02C9.31,17.93,9,17.75,8.87,17.65L8.87,17.65z M15.95,14.12L15.95,14.12L15.95,14.12z"/>
			</g>
			<path class="st0" d="M14.28,14.21c0,0-1.25,0.1-1.98,0.62c0,0-0.56,0.13,0.61,0.29c0,0-1.48,0.75-2.19,2.21
				c0,0-0.6,0.8-1.67,0.53c0,0-0.26,0.2,0.71,0.6c0,0,0.5,0.25,1.84,0.08c0,0,1.15-0.36,2.02-1.14c0,0,0.31-0.21,1.04-2.21
				c0,0,1.04-0.88,1.61,0.87c0,0,0.32,1.32,1.45,1.34c0,0,0.38,0.04,1.11-0.3c0,0,0.05-0.13-0.5-0.32c0,0-0.19-0.76-0.39-1.17
				c0,0-0.26-0.53-0.89-0.7c0,0,0.67-0.35,0.81-0.64c0,0-0.2-0.21-1.21-0.32C16.65,13.97,15.09,14.07,14.28,14.21L14.28,14.21z"/>
			<path class="st13" d="M14.66,15.2c0,0-0.34,1.34-0.85,2.19c0,0-1.34,1.01-2.21,1.15c0,0-0.31-0.26,0.32-0.61
				c0,0,0.93-0.37,1.51-1.06c0,0,0.61-0.7,0.82-1.53c0,0,0.22-0.4,0.38-0.42C14.64,14.93,14.75,14.87,14.66,15.2L14.66,15.2z"/>
			<path class="st13" d="M15.9,14.09c0,0,0.46-0.6,1.89-0.07c0,0,0.65,0.19-0.16,0.68l-0.29,0.26c0,0,0.38-0.1,1.04,0.74
				c0,0,0.15,1.2,0.69,1.17c0,0,0.54-0.26,0.02,0.23c0,0-0.7,0.33-1.07-0.32c0,0-0.25-1.48-1.09-1.92c0,0,1.03-0.5,0.58-0.61
				C17.52,14.24,16.44,13.79,15.9,14.09L15.9,14.09z"/>
		</g>
		<g>
			<g>
				<path class="st1" d="M15.4,9.96c0,0-0.51,0.88,0.08,1.53c0,0,0.63,0.75,0.88,1.48c0,0,0.57,1.33-0.26,1.78
					c0,0-0.76,0.3-1.55-0.12c0,0-0.38-0.23-1.02,0.07c0,0-1,0.03-0.71-0.87c0,0,0.41-0.86,1.34-0.81"/>
				<path class="st2" d="M15.4,9.96c-0.1,0.26-0.15,0.54-0.13,0.81c0.01,0.13,0.05,0.26,0.11,0.37c0.03,0.06,0.06,0.11,0.1,0.16
					c0.02,0.02,0.04,0.05,0.06,0.07l0.03,0.03l0.04,0.04c0.19,0.21,0.37,0.44,0.53,0.68c0.16,0.24,0.31,0.5,0.41,0.78l-0.01-0.02
					c0.08,0.17,0.13,0.33,0.17,0.51c0.04,0.17,0.07,0.35,0.06,0.54c0,0.19-0.04,0.39-0.13,0.58c-0.05,0.09-0.11,0.18-0.18,0.26
					c-0.08,0.08-0.16,0.14-0.25,0.19l-0.01,0.01l-0.01,0.01C16.11,15,16.06,15.02,16,15.03c-0.06,0.01-0.12,0.03-0.18,0.04
					c-0.12,0.02-0.25,0.03-0.37,0.03c-0.25,0-0.5-0.05-0.73-0.14c-0.06-0.02-0.11-0.05-0.17-0.07c-0.03-0.01-0.06-0.03-0.09-0.04
					l-0.02-0.01l-0.01,0c-0.01,0-0.01-0.01-0.02-0.01c-0.07-0.03-0.16-0.04-0.24-0.05c-0.18-0.01-0.37,0.04-0.56,0.12l-0.05,0.02
					h-0.03c-0.08,0-0.14-0.01-0.2-0.02c-0.07-0.01-0.13-0.03-0.2-0.05c-0.13-0.04-0.26-0.12-0.36-0.23
					c-0.1-0.12-0.15-0.28-0.15-0.42c0-0.14,0.03-0.27,0.08-0.39l0.01-0.01v0c0.08-0.14,0.17-0.25,0.28-0.35
					c0.11-0.1,0.22-0.19,0.35-0.26c0.13-0.07,0.27-0.11,0.41-0.14c0.14-0.02,0.29-0.02,0.42,0.01c-0.14,0.01-0.27,0.03-0.4,0.08
					c-0.13,0.04-0.24,0.11-0.35,0.19c-0.1,0.08-0.2,0.17-0.28,0.27c-0.08,0.1-0.15,0.22-0.2,0.32l0.01-0.02
					c-0.03,0.1-0.04,0.2-0.03,0.29c0.01,0.09,0.05,0.15,0.1,0.21c0.05,0.05,0.13,0.09,0.22,0.11c0.05,0.01,0.09,0.02,0.14,0.02
					c0.05,0,0.1,0.01,0.14,0l-0.08,0.02c0.22-0.11,0.46-0.19,0.72-0.2c0.13,0,0.27,0.01,0.41,0.06c0.02,0.01,0.04,0.01,0.05,0.02
					l0.03,0.02l0.02,0.01c0.02,0.01,0.04,0.02,0.06,0.03c0.04,0.02,0.09,0.04,0.14,0.05c0.18,0.06,0.38,0.09,0.57,0.09
					c0.1,0,0.2-0.01,0.29-0.02c0.05-0.01,0.1-0.02,0.14-0.03c0.04-0.01,0.1-0.03,0.13-0.04l-0.03,0.01c0.05-0.03,0.1-0.06,0.14-0.1
					c0.04-0.04,0.07-0.09,0.1-0.14c0.06-0.1,0.09-0.24,0.09-0.37c0.01-0.14-0.01-0.29-0.03-0.44c-0.03-0.15-0.07-0.3-0.12-0.43
					l-0.01-0.02c-0.08-0.25-0.19-0.49-0.32-0.73c-0.13-0.24-0.28-0.47-0.44-0.69l-0.03-0.04l-0.03-0.05
					c-0.02-0.03-0.04-0.06-0.07-0.1c-0.04-0.07-0.07-0.14-0.1-0.21c-0.05-0.15-0.07-0.3-0.06-0.45
					C15.13,10.47,15.24,10.19,15.4,9.96L15.4,9.96z"/>
			</g>
			<path class="st3" d="M14.94,10.78c0,0-0.21,0.6,0.48,1.67c0,0,0.5,0.82-0.02,1.62c0,0-0.12-0.1-0.76-0.23
				c0,0-0.77-0.26-1.21,0.19c0,0-0.4,0.35-0.47-0.12c0,0,0.13-0.64,0.74-0.71l0.45-0.24C14.14,12.97,14.44,11.66,14.94,10.78
				L14.94,10.78z"/>
			<path class="st28" d="M15.12,10.42c0,0-0.25,0.39,0.43,1.37c0,0,0.97,0.98,0.67,2.3c0,0-0.39,0.14-0.84-0.1
				c0,0,0.67-0.59-0.19-1.91C15.2,12.06,14.67,11.16,15.12,10.42L15.12,10.42z"/>
		</g>
		<g>
			<path class="st2" d="M12.49,11.75c0.1,0.31-0.05,0.65-0.34,0.75c-0.29,0.1-0.62-0.07-0.72-0.38c-0.1-0.31,0.05-0.65,0.34-0.75
				C12.07,11.26,12.39,11.43,12.49,11.75z"/>
			<path class="st13" d="M11.42,12.19c-0.04-0.12,0.02-0.24,0.12-0.28c0.11-0.04,0.23,0.03,0.26,0.15c0.04,0.12-0.02,0.24-0.12,0.28
				C11.57,12.37,11.45,12.31,11.42,12.19z"/>
		</g>
		<g>
			<path class="st2" d="M17.21,11.33c0.09,0.28-0.05,0.59-0.31,0.68c-0.27,0.09-0.56-0.06-0.65-0.35c-0.09-0.28,0.05-0.59,0.31-0.68
				C16.82,10.89,17.11,11.05,17.21,11.33L17.21,11.33z"/>
			<path class="st13" d="M16.23,11.74c-0.04-0.11,0.01-0.22,0.11-0.25c0.1-0.03,0.2,0.03,0.24,0.13c0.04,0.11-0.01,0.22-0.11,0.25
				C16.37,11.9,16.26,11.84,16.23,11.74z"/>
		</g>
		<path class="st3" d="M7.42,12.45c0,0-0.44-0.52-1.17-0.24c0,0-0.98,1.22,0.76,2.32C7.01,14.54,7.66,13.34,7.42,12.45z"/>
		<g>
			<path class="st2" d="M5.96,12.91c0.1-0.13,0.25-0.21,0.42-0.26c0.09-0.02,0.17-0.03,0.26-0.02c0.05,0,0.09,0.01,0.13,0.02
				c0.02,0,0.04,0.01,0.07,0.02L6.9,12.7c0.09,0.03,0.16,0.07,0.24,0.11c0.08,0.04,0.14,0.1,0.2,0.17c0.05,0.07,0.09,0.14,0.12,0.22
				c0.03,0.08,0.05,0.17,0.05,0.26l-0.03,0.02c-0.09-0.03-0.16-0.07-0.23-0.11c-0.07-0.04-0.13-0.08-0.18-0.12
				c-0.12-0.07-0.19-0.2-0.3-0.27c-0.11-0.07-0.23-0.12-0.37-0.13c-0.14-0.01-0.28,0.02-0.42,0.09L5.96,12.91L5.96,12.91z"/>
			<path class="st2" d="M7.05,13.05c-0.06,0.02-0.15,0.05-0.21,0.09c-0.07,0.04-0.14,0.09-0.19,0.14c-0.05,0.06-0.1,0.13-0.12,0.2
				c-0.03,0.08-0.02,0.17,0,0.26c-0.05-0.08-0.09-0.17-0.09-0.27c-0.01-0.1,0.01-0.2,0.06-0.3c0.04-0.1,0.1-0.18,0.16-0.26
				c0.07-0.08,0.13-0.15,0.23-0.22L7.05,13.05L7.05,13.05z"/>
		</g>
		<g>
			<g>
				<path class="st4" d="M15.86,22.45c0,0-0.22-1,1.01-1.23l0.59,0.61c0,0-1.15,0.43-1,1.23L15.86,22.45L15.86,22.45z"/>
				<path class="st2" d="M16.76,23.66l-1.07-1.12l-0.01-0.05c0-0.02-0.1-0.47,0.17-0.88c0.2-0.3,0.53-0.49,0.99-0.58l0.1-0.02
					l0.86,0.9l-0.28,0.1c-0.01,0-1,0.39-0.88,1.01L16.76,23.66L16.76,23.66z M16.05,22.36l0.25,0.26c0.14-0.42,0.56-0.7,0.83-0.84
					l-0.32-0.34c-0.29,0.07-0.51,0.2-0.63,0.38C16.03,22.03,16.04,22.26,16.05,22.36L16.05,22.36z"/>
			</g>
			<g>
				<path class="st26" d="M17.48,21.9c0,0,0.86,0.45,2.2,0c0,0-0.16,2.13-1.31,3.17c0,0-1.52-0.75-1.86-2.09c0,0,0-0.6,0.77-0.95
					L17.48,21.9L17.48,21.9z"/>
				<path class="st2" d="M18.41,25.3l-0.12-0.06c-0.07-0.03-1.61-0.8-1.96-2.21l-0.01-0.02v-0.03c0-0.03,0.02-0.72,0.87-1.12
					l0.28-0.19l0.1,0.05c0.02,0.01,0.81,0.4,2.05-0.01l0.28-0.09l-0.02,0.29c-0.01,0.09-0.18,2.22-1.37,3.3L18.41,25.3L18.41,25.3z
					 M16.71,22.97c0.27,1.01,1.29,1.67,1.63,1.87c0.76-0.78,1.03-2.09,1.11-2.66c-0.99,0.26-1.69,0.05-1.95-0.05l-0.14,0.09
					C16.8,22.47,16.72,22.87,16.71,22.97L16.71,22.97z"/>
			</g>
			<g>
				<path class="st0" d="M18.39,25.11c0,0,0.74,0.54,0.89-0.43c0,0,0.05-0.27,0.56-0.51l0.09-0.6c0,0,0.75,0.18,0.24-0.87
					c0,0,0.29-0.56-0.35-0.88c0,0-0.85-0.07-0.77,0.91l-0.25,0.47c0,0,0.51,0.62-0.41,0.82C18.38,24.02,17.98,24.08,18.39,25.11
					L18.39,25.11z"/>
				<path class="st2" d="M18.81,25.45c-0.27,0-0.5-0.16-0.53-0.19l-0.04-0.03l-0.02-0.05c-0.22-0.54-0.26-0.92-0.12-1.15
					c0.07-0.12,0.17-0.18,0.25-0.19c0.22-0.05,0.35-0.12,0.39-0.22c0.04-0.11-0.06-0.26-0.09-0.3l-0.08-0.1l0.29-0.54
					c-0.02-0.34,0.07-0.61,0.26-0.8c0.29-0.29,0.71-0.26,0.73-0.26l0.04,0l0.03,0.02c0.58,0.29,0.55,0.79,0.47,1.05
					c0.19,0.43,0.21,0.73,0.06,0.91c-0.1,0.12-0.23,0.16-0.34,0.17l-0.08,0.52l-0.1,0.04c-0.37,0.17-0.44,0.35-0.45,0.37l0-0.01
					c0,0,0,0.01,0,0.01c0,0,0,0,0,0v0c-0.06,0.36-0.21,0.59-0.44,0.68C18.96,25.44,18.89,25.45,18.81,25.45L18.81,25.45z
					 M18.55,24.98c0.08,0.05,0.24,0.11,0.34,0.07c0.09-0.04,0.17-0.18,0.2-0.4c0.01-0.06,0.08-0.35,0.57-0.61l0.1-0.71l0.21,0.05
					c0.05,0.01,0.14,0.01,0.16-0.02c0,0,0.08-0.11-0.14-0.58l-0.04-0.09l0.04-0.09c0.03-0.06,0.16-0.38-0.22-0.6
					c-0.08,0-0.26,0.02-0.39,0.15c-0.11,0.11-0.16,0.3-0.14,0.55l0,0.06l-0.23,0.42c0.07,0.13,0.15,0.34,0.08,0.56
					c-0.08,0.23-0.3,0.38-0.66,0.46C18.42,24.23,18.33,24.39,18.55,24.98L18.55,24.98z"/>
			</g>
			<path class="st29" d="M16.77,21.27c0,0-0.47,0.14-0.64,0.47c0,0,0.18,0.54,1.01-0.09L16.77,21.27z"/>
			<path class="st0" d="M17.05,22.48c0,0,0.25,0.57,0.69,0.98c0,0,0.48,0.11,0.22-0.24c0,0,0.2,0.17,0.54,0.12
				c0,0,0.06-0.33,0.36-0.67c0,0-0.14-0.05,0.04-0.35c0,0-0.97,0.02-1.32-0.22C17.58,22.1,17.28,22.03,17.05,22.48z"/>
		</g>
		<g>
			<g>
				<path class="st26" d="M16.12,9.55c0,0-0.21,0.23-0.45,0.23c-0.1,0-0.22-0.18-0.42-0.05c0,0-0.25,0.72,0.63,0.71
					c0,0,0.46-0.06,0.61-0.27c0,0,0.25-0.35,0.86-0.32c0,0,0.84,0.21,0.63-0.41c0,0-0.31-1.13-1.28-0.49
					C16.71,8.94,16.38,9.3,16.12,9.55L16.12,9.55z"/>
				<path class="st2" d="M15.87,10.63c-0.34,0-0.58-0.1-0.72-0.29c-0.2-0.28-0.09-0.63-0.08-0.67l0.02-0.07l0.06-0.04
					c0.23-0.14,0.42-0.04,0.5,0.01c0.01,0.01,0.02,0.01,0.03,0.02c0.12-0.01,0.26-0.13,0.29-0.17l0.01-0.01
					c0.25-0.24,0.57-0.59,0.58-0.6l0.02-0.02l0.02-0.01c0.34-0.23,0.65-0.29,0.93-0.18c0.45,0.17,0.62,0.71,0.64,0.77
					c0.1,0.28,0.02,0.45-0.07,0.54c-0.22,0.23-0.65,0.15-0.78,0.13c-0.47-0.02-0.66,0.23-0.67,0.24c-0.19,0.26-0.65,0.34-0.74,0.35
					l-0.02,0C15.88,10.63,15.88,10.63,15.87,10.63L15.87,10.63z M15.42,9.88c-0.01,0.07,0,0.16,0.04,0.23
					c0.08,0.11,0.26,0.13,0.41,0.13c0.15-0.02,0.4-0.1,0.47-0.19c0.01-0.02,0.32-0.44,1.03-0.4l0.04,0.01
					c0.17,0.04,0.37,0.04,0.41-0.01c0.01-0.01,0.02-0.05-0.02-0.15l0-0.01c-0.03-0.11-0.17-0.43-0.4-0.52
					c-0.15-0.06-0.34-0.01-0.56,0.13c-0.07,0.08-0.35,0.38-0.57,0.59c-0.05,0.05-0.29,0.29-0.59,0.29c-0.08,0-0.15-0.04-0.2-0.06
					C15.45,9.9,15.43,9.89,15.42,9.88L15.42,9.88z M15.7,9.59L15.7,9.59z"/>
			</g>
			<path class="st27" d="M16.61,9.31c0,0-0.26,0.27-0.51,0.56c0,0-0.27,0.16,0.24,0.2c0,0,0.48-0.15,0.58-0.29
				c0,0,0.14-0.13,0.49-0.06c0,0,0.39,0.09,0.3-0.38c0,0-0.27-0.57-0.72-0.32C16.98,9.01,16.82,9.02,16.61,9.31L16.61,9.31z"/>
			<path class="st28" d="M17.41,8.93c0,0,0.38-0.04,0.43,0.66c0,0-0.18,0.28-0.42,0.05c0,0,0.19-0.73-0.58-0.56
				C16.83,9.08,17.32,8.81,17.41,8.93L17.41,8.93z"/>
		</g>
		<g>
			<g>
				<path class="st10" d="M8.25,5.37c0,0-1.85,0.32-4.27-2.09c0,0-0.34-0.38-0.63-0.33S2.84,3.49,3.03,4.66c0,0,0.66,3.1,3.58,4.18
					c0,0,1.83,0.2,2.41-1.55C9.02,7.3,9.59,6.04,8.25,5.37L8.25,5.37z"/>
				<path class="st2" d="M6.75,9.04c-0.1,0-0.16-0.01-0.17-0.01l-0.02,0L6.54,9.02c-2.98-1.11-3.67-4.2-3.7-4.33
					c-0.27-1.63,0.24-1.9,0.47-1.95c0.36-0.07,0.73,0.3,0.8,0.39c2.33,2.31,4.08,2.04,4.1,2.04l0.06-0.01l0.06,0.03
					C9.75,5.9,9.26,7.22,9.2,7.36C8.68,8.9,7.25,9.04,6.75,9.04L6.75,9.04z M6.65,8.65c0.21,0.02,1.69,0.07,2.19-1.42l0.01-0.02
					C8.86,7.17,9.3,6.15,8.21,5.57C7.84,5.6,6.08,5.64,3.84,3.41L3.83,3.4C3.72,3.28,3.5,3.11,3.38,3.13
					c-0.1,0.02-0.35,0.33-0.16,1.49C3.23,4.65,3.89,7.61,6.65,8.65L6.65,8.65z"/>
			</g>
			<path class="st12" d="M3.63,3.26c0,0,1.85,2.31,4.8,2.48c0,0,0.94,0.98-0.01,2.21c0,0-0.92-0.48-1.62,0.18
				c0,0-1.73-0.44-2.17-1.8c0,0,0.43-0.56-0.59-0.87c0,0-0.51-0.76-0.64-1.5C3.39,3.95,3.28,2.88,3.63,3.26L3.63,3.26z"/>
			<path class="st13" d="M8.43,5.73c0,0,0.57,0.35,0.38,1.48c0,0-4.43-0.52-5.31-3.8c0,0-0.05-0.44,0.46,0.2
				C3.96,3.61,5.91,5.67,8.43,5.73L8.43,5.73z"/>
		</g>
	</g>
</g>
</svg>
