<?xml version="1.0" encoding="utf-8"?>
<!-- Generator: Adobe Illustrator 28.5.0, SVG Export Plug-In . SVG Version: 9.03 Build 54727)  -->
<svg version="1.0" id="Layer_1" xmlns="http://www.w3.org/2000/svg" xmlns:xlink="http://www.w3.org/1999/xlink" x="0px" y="0px"
	 viewBox="0 0 400 100" style="enable-background:new 0 0 400 100;" xml:space="preserve">
<style type="text/css">
	.st0{fill:url(#SVGID_1_);}
	.st1{opacity:0.5;fill:#FCF8C2;}
	.st2{opacity:0.5;fill:#B53051;}
	.st3{opacity:0.5;}
	.st4{fill:#FCF8C2;}
	.st5{fill:#B53051;}
	.st6{opacity:0.2;fill:#FCF8C2;}
	.st7{opacity:0.2;fill:#DF376E;}
	.st8{opacity:0.3;fill:#B53051;}
	.st9{fill:url(#SVGID_00000034055757320069507260000001170105737838600087_);}
</style>
<g>
	<linearGradient id="SVGID_1_" gradientUnits="userSpaceOnUse" x1="200" y1="2.3473" x2="200" y2="97.8665">
		<stop  offset="0.2173" style="stop-color:#BC5A28"/>
		<stop  offset="0.4304" style="stop-color:#B75527"/>
		<stop  offset="0.7135" style="stop-color:#A84624"/>
		<stop  offset="1" style="stop-color:#93301F"/>
	</linearGradient>
	<path class="st0" d="M397.22,31.47v20.26c0,0-6.09,1.16-6.09,3.47c0,1.12,1.48,2.53,5.89,4.21c0.07,0.02,0.14,0.04,0.21,0.06v9.27
		c0,0.53-0.02,1.07-0.07,1.59c-0.03,0.52-0.09,1.03-0.17,1.55c-0.02,0.07-0.02,0.15-0.03,0.22c-0.07,0.44-0.16,0.87-0.28,1.31
		c0,0.04,0,0.08-0.02,0.12c-0.1,0.48-0.24,0.96-0.4,1.43c-0.14,0.46-0.3,0.92-0.47,1.37c-0.03,0.1-0.09,0.21-0.14,0.3
		c-0.16,0.42-0.35,0.84-0.54,1.26c-0.02,0.02-0.02,0.04-0.03,0.06c-0.23,0.46-0.47,0.92-0.73,1.38c-0.26,0.47-0.56,0.93-0.85,1.39
		v0.01c0,0.02-0.02,0.05-0.05,0.07c0,0-4.81,1.1-9.88,3.67c-0.02,0-0.03,0.01-0.05,0.04c-1.06,0.68-2.17,1.31-3.33,1.9h-0.02
		c-3.39,2.21-6.41,5.13-7.64,8.89c-0.64,0.21-1.3,0.4-1.98,0.58c-0.66,0.18-1.34,0.35-2.01,0.51c-0.52,0.12-1.06,0.24-1.58,0.34
		c-0.28,0.07-0.57,0.12-0.85,0.17c-0.23,0.05-0.45,0.08-0.68,0.12c-0.45,0.08-0.92,0.16-1.37,0.22c-1.34,0.19-2.67,0.35-4.05,0.45
		c-0.5,0.04-0.99,0.07-1.49,0.08c-0.99,0.06-1.98,0.08-2.99,0.08h-3.7c0,0,0,0-0.02-0.01c-0.16-0.13-1.41-1.18-3.42-2.24
		c-4.44-2.36-12.62-4.86-20.99,2l-0.31,0.25h-12.01c0,0-5.83-7.88-13.89-1.47c-0.54,0.42-1.08,0.91-1.63,1.47H174.16
		c0-0.01,0-0.01-0.02-0.02c-0.19-0.23-1.81-2.05-3.73-2.61c-1.55-0.45-3.28-0.07-4.65,2.61c0,0.01,0,0.01,0,0.02h-24.06
		c0,0-0.56-0.46-1.58-1.09c-3.68-2.27-13.46-6.73-26.18-0.28c-0.82,0.4-1.65,0.86-2.48,1.37H46.17c0,0-1.63-3.1-5.5-3.16
		c-1.72-0.04-3.89,0.53-6.56,2.24c-0.02,0-0.03,0-0.03,0c-0.8-0.15-1.56-0.3-2.33-0.48c-0.45-0.1-0.9-0.21-1.34-0.32
		c-0.17-0.04-0.31-0.08-0.47-0.12c-0.56-0.15-1.09-0.29-1.63-0.46c-0.63-0.18-1.25-0.38-1.86-0.58c-0.61-0.21-1.2-0.41-1.79-0.64
		c-0.76-0.29-1.51-0.59-2.24-0.92c-0.4-0.17-0.78-0.34-1.16-0.53c-0.38-0.17-0.75-0.35-1.11-0.55c-0.36-0.17-0.71-0.35-1.06-0.55
		c-0.63-0.33-1.23-0.68-1.82-1.04c-0.33-0.19-0.66-0.4-0.97-0.61c-1.25-0.79-2.41-1.64-3.51-2.55c-0.31-0.24-0.61-0.5-0.89-0.75
		c-0.14-0.11-0.26-0.22-0.4-0.34c-0.21-0.19-0.42-0.39-0.63-0.59c-0.33-0.3-0.64-0.61-0.94-0.92c-0.3-0.29-0.57-0.59-0.85-0.91
		c-0.87-0.97-1.65-1.96-2.34-3.01c-0.24-0.34-0.45-0.68-0.66-1.03c-0.23-0.35-0.43-0.72-0.63-1.08c-0.57-1.05-1.06-2.15-1.44-3.26
		c-0.14-0.35-0.26-0.7-0.36-1.05c-0.02-0.07-0.05-0.16-0.07-0.23c-0.1-0.35-0.19-0.72-0.26-1.07c-0.09-0.36-0.17-0.72-0.23-1.08
		c-0.05-0.32-0.1-0.63-0.14-0.96c-0.05-0.39-0.1-0.78-0.12-1.18c-0.03-0.46-0.05-0.93-0.05-1.41V40.97
		c11.53-0.36,9.76-7.82,6.74-13.41c-0.23-0.41-0.45-0.81-0.68-1.2c-0.43-0.75-0.89-1.44-1.3-2.06c-1.13-1.65-2.05-2.76-2.15-2.9
		l-0.02-0.01v-0.01C11.29,10.3,26.62,2.35,44.48,2.35h11.51c0,0,0.02,0.64,0.66,1.47c0.16,0.21,0.35,0.42,0.61,0.65
		c1.48,1.32,4.69,2.82,11.68,3.01c7.36,0.18,11.63-1.52,13.94-3.01c0.45-0.29,0.83-0.57,1.15-0.82c0-0.01,0.02-0.02,0.03-0.04
		c0.38-0.4,0.78-0.82,1.18-1.24c0.02-0.01,0.02-0.02,0.02-0.02h10.05c0,0,0.21,1.01,1.23,2.12h0.05c0,0.01-0.02,0.01-0.02,0.02
		c2.22,2.42,8.25,5.38,24.08-0.02c1.75-0.59,3.63-1.3,5.63-2.11l0.02-0.01h37.22c0,0,1.01,1.02,2.69,2.12
		c3.47,2.27,9.81,4.9,16.41,0c0.8-0.59,1.61-1.3,2.41-2.12h21.62c0,0,3.06,1.01,8.4,2.12c11.49,2.4,33.54,5.35,58.42,0
		c2.8-0.59,5.63-1.3,8.47-2.12h19.22c0,0,0.17,1.09,0.99,2.12c0.05,0.07,0.12,0.15,0.19,0.22c1.32,1.49,4.08,2.65,9.69-0.22
		c0.89-0.45,1.82-0.99,2.85-1.67l0.02-0.01c0.23-0.13,0.45-0.28,0.68-0.44h39.93c0.85,0,1.7,0.01,2.53,0.06
		c0.35,0.01,0.69,0.02,1.02,0.05h0.02v0.01c0,0.01,0,0.02,0.02,0.05c0.12,0.25,0.68,1.32,1.6,2.42c1.72,2.09,4.72,4.33,8.63,1.79
		c0.76-0.5,1.56-1.19,2.4-2.1C386.66,9.09,397.22,19.47,397.22,31.47z"/>
	<path class="st1" d="M394.3,32.62v4.51c0-11.58-10.33-21.58-24.98-25.88c-2.93-0.87-6.04-1.5-9.29-1.87h-0.02
		c-0.12-0.02-0.24-0.04-0.36-0.05c-2.08-0.23-4.24-0.35-6.42-0.35H46.78c-15.82,0-29.62,6.21-36.48,15.25h-0.02l0.02,0.01
		c-0.54,0.69-1.02,1.39-1.46,2.12c-0.43-0.75-0.89-1.44-1.3-2.06c0.19-0.44,0.42-0.87,0.64-1.3c0,0,0-0.01,0-0.02
		C13.96,12.2,29.12,4.47,46.78,4.47h10.49c1.48,1.32,4.69,2.82,11.68,3.01c7.36,0.18,11.63-1.52,13.94-3.01H96.6
		c0,0.01-0.02,0.01-0.02,0.02c2.22,2.42,8.25,5.38,24.08-0.02h45.56c3.47,2.27,9.81,4.9,16.41,0h32.43c11.49,2.4,33.54,5.35,58.42,0
		h28.68c0.05,0.07,0.12,0.15,0.19,0.22c1.32,1.49,4.08,2.65,9.69-0.22h41.18c1.88,0,3.72,0.08,5.5,0.27
		c0.28,0.01,0.54,0.04,0.8,0.07c0.4,0.04,0.8,0.08,1.18,0.13c1.72,2.09,4.72,4.33,8.63,1.79c0.5,0.15,0.99,0.3,1.48,0.47
		C384.67,11.73,394.3,21.43,394.3,32.62z"/>
	<path class="st2" d="M380.15,86.42c-3.39,2.21-6.41,5.13-7.64,8.89c-0.64,0.21-1.3,0.4-1.98,0.58c-0.66,0.18-1.34,0.35-2.01,0.51
		c-0.52,0.12-1.06,0.24-1.58,0.34c-0.28,0.07-0.57,0.12-0.85,0.17c-0.23,0.05-0.45,0.08-0.68,0.12c-0.45,0.08-0.92,0.16-1.37,0.22
		c-1.34,0.19-2.67,0.35-4.05,0.45c-0.5,0.04-0.99,0.07-1.49,0.08c-0.99,0.06-1.98,0.08-2.99,0.08h-3.7c0,0,0,0-0.02-0.01
		c-0.16-0.13-1.41-1.18-3.42-2.24c-4.44-2.36-12.62-4.86-20.99,2l-0.31,0.25h-12.01c0,0-5.83-7.88-13.89-1.47
		c-0.54,0.42-1.08,0.91-1.63,1.47H174.16c0-0.01,0-0.01-0.02-0.02c-0.19-0.23-1.81-2.05-3.73-2.61c-1.55-0.45-3.28-0.07-4.65,2.61
		c0,0.01,0,0.01,0,0.02h-24.06c0,0-0.56-0.46-1.58-1.09c-3.68-2.27-13.46-6.73-26.18-0.28c-0.82,0.4-1.65,0.86-2.48,1.37H46.17
		c0,0-1.63-3.1-5.5-3.16c-1.72-0.04-3.89,0.53-6.56,2.24c-0.02,0-0.03,0-0.03,0c-0.8-0.15-1.56-0.3-2.33-0.48
		c-0.45-0.1-0.9-0.21-1.34-0.32c-0.17-0.04-0.31-0.08-0.47-0.12c-0.56-0.15-1.09-0.29-1.63-0.46c-0.63-0.18-1.25-0.38-1.86-0.58
		c-0.61-0.21-1.2-0.41-1.79-0.64c-0.76-0.29-1.51-0.59-2.24-0.92c-0.4-0.17-0.78-0.34-1.16-0.53c-0.38-0.17-0.75-0.35-1.11-0.55
		c-0.36-0.17-0.71-0.35-1.06-0.55c-0.63-0.33-1.23-0.68-1.82-1.04c-0.33-0.19-0.66-0.4-0.97-0.61c-1.25-0.79-2.41-1.64-3.51-2.55
		c-0.31-0.24-0.61-0.5-0.89-0.75c-0.14-0.11-0.26-0.22-0.4-0.34c-0.21-0.19-0.42-0.39-0.63-0.59c-0.33-0.3-0.64-0.61-0.94-0.92
		c-0.3-0.29-0.57-0.59-0.85-0.91c-0.87-0.97-1.65-1.96-2.34-3.01c-0.24-0.34-0.45-0.68-0.66-1.03c-0.23-0.35-0.43-0.72-0.63-1.08
		c-0.57-1.05-1.06-2.15-1.44-3.26c-0.14-0.35-0.26-0.7-0.36-1.05c-0.02-0.07-0.05-0.16-0.07-0.23c-0.1-0.35-0.19-0.72-0.26-1.07
		c-0.09-0.36-0.17-0.72-0.23-1.08c-0.05-0.32-0.1-0.63-0.14-0.96c-0.05-0.39-0.1-0.78-0.12-1.18c-0.03-0.46-0.05-0.93-0.05-1.41
		v-5.76c0,14.88,16.2,27.24,36.88,28.93h0.02c1.15,0.1,2.31,0.16,3.49,0.17c0.43,0.02,0.89,0.02,1.32,0.02h311.03
		c6.74,0,13.09-1.13,18.73-3.13l0.02-0.01h0.02C376.35,88.23,378.31,87.38,380.15,86.42z"/>
	<path class="st2" d="M397.22,62.98v5.76c0,0.53-0.02,1.07-0.07,1.59c-0.03,0.52-0.09,1.03-0.17,1.55
		c-0.02,0.07-0.02,0.15-0.03,0.22c-0.07,0.44-0.16,0.87-0.28,1.31c0,0.04,0,0.08-0.02,0.12c-0.1,0.48-0.24,0.96-0.4,1.43
		c-0.14,0.46-0.3,0.92-0.47,1.37c-0.03,0.1-0.09,0.21-0.14,0.3c-0.16,0.42-0.35,0.84-0.54,1.26c-0.02,0.02-0.02,0.04-0.03,0.06
		c-0.23,0.46-0.47,0.92-0.73,1.38c-0.26,0.47-0.56,0.93-0.85,1.39v0.01c0,0.02-0.02,0.05-0.05,0.07c0,0-4.81,1.1-9.88,3.67
		c1.65-1.04,3.16-2.18,4.55-3.39c0,0,0.02-0.01,0.02-0.02c5.61-4.9,9.01-11.09,9.08-17.81v-0.01
		C397.22,63.15,397.22,63.07,397.22,62.98z"/>
	<g class="st3">
		<path class="st4" d="M380.6,75.41c-0.59,1.12-1.34,2.18-2.22,3.19c-1.08,1.26-2.38,2.42-3.89,3.46c-0.89,0.63-1.86,1.21-2.86,1.73
			c-0.62,0.33-1.28,0.64-1.96,0.93c-1.01,0.44-2.05,0.82-3.14,1.16c-0.73,0.23-1.48,0.44-2.24,0.61c-0.38,0.1-0.76,0.18-1.15,0.25
			c-1.04,0.21-2.1,0.38-3.18,0.49c-0.02,0-0.02,0-0.02,0c-0.66,0.07-1.3,0.13-1.96,0.16c-0.68,0.05-1.34,0.06-2.01,0.06h-27.4
			c0,0,0,0-0.02,0H43.89c-0.9,0-1.77-0.04-2.66-0.11c-0.54-0.04-1.08-0.08-1.61-0.16c-0.94-0.11-1.86-0.25-2.76-0.44
			c-2.26-0.44-4.38-1.1-6.34-1.94c-0.4-0.17-0.78-0.34-1.16-0.52c-1.37-0.64-2.67-1.39-3.85-2.23c-1.51-1.03-2.81-2.19-3.89-3.46
			c-0.89-1.01-1.63-2.07-2.22-3.19c-1.02-1.96-1.6-4.07-1.6-6.28v2.89c0,9.43,10.35,17.26,23.51,18.22h0.02
			c0.89,0.06,1.79,0.1,2.71,0.1h311.94c14.43,0,26.23-8.24,26.23-18.32v-2.89C382.2,71.34,381.63,73.45,380.6,75.41z"/>
	</g>
	<g class="st3">
		<path class="st5" d="M367.95,14.82c-2.43-0.9-5.09-1.52-7.88-1.83h-0.05c-1.32-0.15-2.67-0.22-4.05-0.22H44.03
			c-13.39,0-24.53,7.1-26.04,16.18c0,0-0.02,0.01-0.02,0.02c-0.12,0.69-0.17,1.39-0.17,2.11v3.58c0-0.65,0.05-1.3,0.16-1.93
			c0.16-1.09,0.47-2.17,0.9-3.2v-0.01c3.21-7.6,13.3-13.18,25.17-13.18h311.94c1.3,0,2.6,0.07,3.85,0.19h0.02
			c0.07,0.01,0.16,0.02,0.23,0.02c2.31,0.27,4.53,0.73,6.6,1.39c8.85,2.78,15.14,8.89,15.52,16.01c0.02,0.23,0.02,0.46,0.02,0.69
			v-3.58C382.2,24.02,376.4,17.87,367.95,14.82z"/>
	</g>
	<g class="st3">
		<polygon class="st5" points="111.45,97.87 111.43,97.88 111.43,97.87 		"/>
		<polygon class="st5" points="56.01,2.35 55.99,2.35 56.01,2.34 		"/>
		<path class="st5" d="M141.71,97.87h-0.02c0,0-0.56-0.46-1.58-1.09c-3.68-2.27-13.46-6.73-26.18-0.28
			c-0.82,0.4-1.65,0.86-2.48,1.37c0.33-0.56,0.68-1.2,1.01-1.89c0.21-0.4,0.42-0.82,0.61-1.26c0.12-0.22,0.21-0.45,0.31-0.68
			c0.1-0.23,0.21-0.46,0.3-0.7c0.14-0.33,0.28-0.67,0.42-1.02c0.02-0.07,0.05-0.15,0.07-0.22c0.12-0.33,0.24-0.65,0.36-0.99
			c0.09-0.25,0.17-0.51,0.24-0.76c0.14-0.44,0.28-0.87,0.4-1.32c0.09-0.36,0.17-0.74,0.26-1.12c0-0.01,0-0.02,0-0.02
			c0.03-0.15,0.07-0.28,0.09-0.42c0-0.01,0-0.01,0-0.01c0.09-0.36,0.16-0.74,0.23-1.12c0-0.05,0.02-0.1,0.02-0.15
			c0.05-0.29,0.09-0.57,0.12-0.86c0.03-0.21,0.05-0.4,0.07-0.61c-0.02-0.01,0-0.02,0-0.04s0-0.01,0-0.02
			c0.1-1.18,0.12-2.39,0.02-3.59c-0.03-0.58-0.12-1.16-0.24-1.75c-0.05-0.28-0.1-0.57-0.17-0.85c-0.07-0.36-0.17-0.72-0.3-1.07
			c-0.05-0.18-0.1-0.36-0.17-0.53c-0.07-0.21-0.14-0.41-0.23-0.62c-0.1-0.28-0.23-0.57-0.36-0.85c-0.05-0.11-0.1-0.21-0.16-0.32
			c-0.14-0.29-0.3-0.58-0.47-0.87c-0.09-0.16-0.17-0.32-0.28-0.47c-0.12-0.21-0.26-0.42-0.4-0.63c-0.36-0.56-0.78-1.09-1.27-1.62
			c0-0.01,0-0.01,0-0.01c-0.47-0.53-0.97-1.05-1.55-1.56c0,0-0.02,0,0-0.01c-0.28-0.25-0.57-0.51-0.89-0.76
			c-0.92-0.74-1.86-1.45-2.85-2.16c-0.47-0.36-0.97-0.73-1.49-1.07c-0.99-0.72-2.03-1.39-3.07-2.07c-0.52-0.36-1.06-0.7-1.6-1.02
			c-2.12-1.37-4.32-2.7-6.56-4.04c-1.67-1.02-3.37-2.04-5.07-3.07c-0.4-0.24-0.82-0.5-1.22-0.75c-0.59-0.38-1.18-0.74-1.79-1.12
			c-0.59-0.38-1.18-0.76-1.79-1.15c-0.3-0.19-0.59-0.39-0.89-0.58c-0.36-0.22-0.73-0.46-1.09-0.72c-0.56-0.39-1.11-0.76-1.67-1.15
			c-1.11-0.76-2.2-1.55-3.28-2.36c-0.02,0-0.02,0,0-0.01c-1.2-0.91-2.4-1.84-3.56-2.82c-2.85-2.39-5.54-5.01-7.99-7.93
			c-0.33-0.38-0.63-0.76-0.94-1.16c-0.28-0.33-0.54-0.67-0.8-1.02c-0.28-0.36-0.56-0.73-0.8-1.1c-0.19-0.22-0.35-0.45-0.49-0.68
			c-0.14-0.18-0.26-0.38-0.36-0.56c-0.09-0.07-0.14-0.16-0.16-0.23c-0.05-0.05-0.09-0.08-0.1-0.13c-0.19-0.27-0.36-0.55-0.54-0.82
			c-0.4-0.61-0.78-1.24-1.15-1.87c-0.24-0.42-0.49-0.86-0.71-1.29c-0.45-0.84-0.85-1.69-1.23-2.51c-0.19-0.41-0.36-0.82-0.54-1.24
			c-0.16-0.41-0.33-0.82-0.47-1.22c-0.16-0.41-0.3-0.82-0.43-1.22c-0.28-0.82-0.52-1.65-0.73-2.45c-0.03-0.16-0.07-0.32-0.1-0.46
			c-0.14-0.55-0.26-1.09-0.36-1.62c-0.02-0.07-0.03-0.13-0.03-0.19c-0.07-0.33-0.12-0.65-0.16-0.98h-0.02
			c-0.03-0.17-0.05-0.34-0.09-0.51v-0.05c-0.02-0.18-0.05-0.36-0.07-0.55c-0.02-0.07-0.02-0.15-0.03-0.22
			c-0.03-0.32-0.07-0.63-0.09-0.93c-0.05-0.45-0.09-0.88-0.1-1.32c-0.02-0.08-0.02-0.16-0.02-0.24c0-0.01,0-0.01,0-0.01v-0.01
			C55.02,11.91,55,11.33,55,10.75c0-0.61,0.02-1.19,0.03-1.77c0.1-1.6,0.28-3.1,0.52-4.51c0.14-0.74,0.3-1.44,0.43-2.12
			c0,0,0.02,0.64,0.66,1.47c0.16,0.21,0.35,0.42,0.61,0.65c1.48,1.32,4.69,2.82,11.68,3.01c7.36,0.18,11.63-1.52,13.94-3.01
			c0.45-0.29,0.83-0.57,1.15-0.82c-0.28,0.28-0.52,0.55-0.76,0.82c-0.3,0.33-0.57,0.65-0.85,0.98c0,0,0,0,0,0.01
			c-0.5,0.59-0.99,1.19-1.44,1.77c-0.47,0.58-0.9,1.16-1.3,1.75c-0.89,1.27-1.67,2.55-2.33,3.79c-0.26,0.48-0.5,0.97-0.71,1.47v0.01
			c-0.24,0.53-0.49,1.05-0.68,1.59c-0.07,0.17-0.14,0.34-0.19,0.51c-0.33,0.93-0.61,1.87-0.8,2.8c-0.09,0.36-0.16,0.72-0.19,1.08
			c-0.1,0.7-0.19,1.39-0.23,2.1c-0.05,0.68-0.05,1.35-0.02,2.02c0,0.32,0.03,0.63,0.07,0.93c0,0.01,0,0.01,0,0.02
			c0.02,0.36,0.07,0.72,0.14,1.07c0.05,0.29,0.1,0.58,0.16,0.88c0.07,0.38,0.16,0.75,0.26,1.14c0.02,0.07,0.03,0.15,0.05,0.23
			c0.19,0.69,0.42,1.38,0.69,2.06c0.61,1.59,1.41,3.18,2.41,4.75c0.23,0.36,0.47,0.74,0.73,1.1c0.85,1.25,1.84,2.5,2.95,3.75
			c0.64,0.74,1.34,1.47,2.07,2.21c0.36,0.36,0.75,0.73,1.13,1.1c0.56,0.56,1.16,1.1,1.79,1.65c0.31,0.27,0.63,0.55,0.95,0.82
			c0.31,0.27,0.64,0.55,0.97,0.82c0.43,0.36,0.9,0.74,1.37,1.12c0.43,0.36,0.9,0.74,1.41,1.1c0.95,0.74,1.96,1.48,2.99,2.22
			c0.17,0.13,0.36,0.27,0.56,0.4c2.95,2.07,6.2,4.17,9.71,6.3c0.03,0.04,0.07,0.06,0.1,0.07c0.59,0.34,1.18,0.7,1.79,1.05
			c2.73,1.61,5.23,3.22,7.55,4.85c0.87,0.61,1.74,1.22,2.57,1.83c0.83,0.61,1.63,1.22,2.41,1.83c0.07,0.06,0.14,0.12,0.21,0.17
			c1.23,0.95,2.38,1.9,3.44,2.84c0.35,0.32,0.71,0.63,1.06,0.95c0.36,0.32,0.69,0.62,1.02,0.93c0.35,0.3,0.68,0.62,0.99,0.92
			c0.33,0.32,0.64,0.62,0.95,0.92c0.31,0.3,0.61,0.61,0.9,0.91c0.87,0.87,1.68,1.75,2.43,2.59c0.82,0.91,1.56,1.82,2.27,2.7
			c0.07,0.07,0.12,0.16,0.19,0.23c0.05,0.07,0.12,0.15,0.17,0.22c0.02,0.01,0.02,0.02,0.02,0.04c0.07,0.07,0.12,0.15,0.17,0.22
			c0.05,0.04,0.09,0.08,0.1,0.12c0.1,0.13,0.21,0.27,0.3,0.4c0.14,0.15,0.24,0.29,0.35,0.44c0.07,0.08,0.14,0.18,0.19,0.27
			c0.1,0.15,0.21,0.3,0.33,0.45c0.03,0.04,0.05,0.07,0.09,0.11c0.21,0.28,0.4,0.56,0.57,0.84c0.05,0.07,0.1,0.15,0.16,0.22
			c0.14,0.19,0.26,0.38,0.38,0.56c0.14,0.21,0.28,0.41,0.4,0.62c0.12,0.21,0.24,0.4,0.38,0.59c0.09,0.12,0.16,0.23,0.23,0.35
			c0.09,0.13,0.17,0.28,0.24,0.41c0.14,0.25,0.3,0.51,0.45,0.75h0.02v0.01c0.07,0.12,0.14,0.24,0.19,0.35
			c0.42,0.74,0.8,1.45,1.15,2.15c0.03,0.06,0.07,0.13,0.1,0.19c0.03,0.06,0.07,0.13,0.1,0.19c0.03,0.1,0.09,0.19,0.14,0.29
			c0.19,0.44,0.38,0.85,0.56,1.26c0.05,0.07,0.07,0.13,0.1,0.21c1.01,2.28,1.6,4.21,1.94,5.67
			C141.69,97.81,141.71,97.83,141.71,97.87z"/>
		<path class="st5" d="M391.13,55.19c0,1.12,1.48,2.53,5.89,4.21c-4.69-1.31-9.69-2.24-14.81-2.49c-2.8-0.15-5.61-0.07-8.46,0.25
			c-5.16,0.58-10.31,2.02-15.28,4.63c-0.31,0.16-0.61,0.33-0.9,0.51c-0.3,0.15-0.57,0.3-0.85,0.48c-0.56,0.33-1.11,0.67-1.61,1.01
			c-0.26,0.17-0.5,0.35-0.75,0.52c-0.26,0.16-0.5,0.34-0.73,0.52c-0.23,0.17-0.45,0.35-0.68,0.53c-0.85,0.65-1.6,1.33-2.26,2.02
			c-0.23,0.23-0.43,0.46-0.64,0.69c-0.17,0.19-0.33,0.39-0.5,0.59c-0.17,0.19-0.33,0.38-0.45,0.57c-0.3,0.38-0.57,0.76-0.83,1.15
			c-0.26,0.38-0.5,0.76-0.71,1.16c-0.38,0.69-0.71,1.41-0.99,2.11c-0.12,0.29-0.23,0.59-0.33,0.9c-0.12,0.41-0.24,0.84-0.35,1.25
			c-0.09,0.33-0.16,0.67-0.21,1.01c-0.02,0.06-0.03,0.13-0.03,0.19c-0.05,0.32-0.1,0.64-0.14,0.97c-0.03,0.35-0.07,0.72-0.09,1.08
			c-0.03,0.67-0.05,1.32-0.02,1.99c0.02,0.29,0.03,0.59,0.07,0.89v0.04c0.02,0.17,0.03,0.34,0.07,0.51c0.02,0.35,0.07,0.7,0.14,1.05
			c0.03,0.23,0.07,0.45,0.12,0.68c0.05,0.36,0.14,0.73,0.23,1.09c0.1,0.44,0.23,0.86,0.35,1.29c0.07,0.28,0.16,0.56,0.26,0.84v0.01
			c0.03,0.15,0.07,0.29,0.14,0.42c0.12,0.41,0.28,0.82,0.43,1.24c0.17,0.41,0.33,0.82,0.5,1.22c0.05,0.11,0.09,0.21,0.12,0.3
			c0.12,0.29,0.26,0.58,0.4,0.87c0.09,0.19,0.17,0.39,0.28,0.58c0.23,0.45,0.45,0.9,0.68,1.33s0.45,0.86,0.71,1.28
			c0.14,0.28,0.3,0.55,0.47,0.81c0.24,0.4,0.47,0.8,0.73,1.19c0.24,0.4,0.49,0.78,0.75,1.15h-0.02c0,0,0,0-0.02-0.01
			c-0.16-0.13-1.41-1.18-3.42-2.24c-4.44-2.36-12.62-4.86-20.99,2l-0.31,0.25c0.05-1.6,0.21-3.39,0.49-5.35
			c0.02-0.13,0.03-0.28,0.05-0.42c0.03-0.28,0.09-0.57,0.14-0.86c0-0.01,0-0.01,0-0.01c0.05-0.29,0.1-0.58,0.16-0.88
			c0.02-0.06,0.03-0.13,0.05-0.19c0.14-0.72,0.3-1.44,0.49-2.18c0.03-0.17,0.07-0.34,0.12-0.51v-0.01c0.52-2.06,1.22-4.21,2.14-6.38
			c1.42-3.39,3.39-6.84,6.04-10.13c0.3-0.36,0.61-0.73,0.92-1.09c0.94-1.09,1.96-2.16,3.07-3.19c0.38-0.35,0.76-0.69,1.15-1.03
			c0.78-0.68,1.61-1.35,2.47-2c0.43-0.32,0.89-0.64,1.34-0.96c1.13-0.79,2.33-1.55,3.59-2.29h0.02c2.12-1.24,4.44-2.36,6.98-3.39
			c5.68-2.29,11.58-3.77,17.47-4.62c2.83-0.42,5.66-0.69,8.46-0.85c5.14-0.29,10.21-0.17,15.02,0.21v0.01
			C397.22,51.73,391.13,52.89,391.13,55.19z"/>
		<path class="st5" d="M393.49,80.72v0.01c0,0.02-0.02,0.05-0.05,0.07c0,0-4.81,1.1-9.88,3.67c-0.02,0-0.03,0.01-0.05,0.04
			c-1.06,0.68-2.17,1.31-3.33,1.9h-0.02c-3.39,2.21-6.41,5.13-7.64,8.89c0-1.84,0.36-3.73,1.28-5.55c0.14-0.27,0.3-0.52,0.45-0.79
			l0.02-0.01c1.23-2.05,3.28-3.95,6.44-5.53c0.19-0.1,0.38-0.17,0.57-0.25c0,0,0,0,0.02,0c0.45-0.21,0.89-0.4,1.34-0.58
			c0.28-0.12,0.56-0.23,0.83-0.33c0.02,0,0.02-0.01,0.02-0.01c0.61-0.21,1.23-0.4,1.84-0.57l0.02-0.01
			c0.47-0.12,0.92-0.23,1.37-0.33c0.47-0.12,0.94-0.21,1.41-0.28C389.93,80.77,391.73,80.68,393.49,80.72z"/>
		<path class="st5" d="M299.54,97.87c0,0.01-0.02,0.01-0.02,0.02c0-0.01,0-0.01,0-0.02H299.54z"/>
		<path class="st5" d="M371.73,4.64c-0.3,0.84-0.59,1.7-0.92,2.57c-0.47,1.31-0.97,2.65-1.49,4.04c-0.43,1.18-0.9,2.38-1.37,3.58
			c-0.35,0.88-0.73,1.78-1.09,2.68c-0.07,0.16-0.12,0.3-0.19,0.46c-0.75,1.81-1.53,3.62-2.36,5.46
			c-5.26,11.72-11.96,23.46-19.84,30.6c-9.95,9.02-16.89,18.66-21.67,27.05c-1.27,2.23-2.4,4.36-3.37,6.38c0,0.01,0,0.01,0,0.01
			c-0.49,0.99-0.94,1.95-1.34,2.89c-0.28,0.59-0.54,1.19-0.78,1.76c-0.92,2.17-1.65,4.11-2.24,5.77c0,0-5.83-7.88-13.89-1.47
			c-0.54,0.42-1.08,0.91-1.63,1.47c0.28-1.01,0.59-2.11,0.97-3.29c0.16-0.47,0.31-0.95,0.49-1.44c0.09-0.25,0.17-0.51,0.26-0.76
			c0.02-0.08,0.05-0.18,0.09-0.28h0.02c0.21-0.57,0.42-1.16,0.64-1.76c0.36-0.93,0.76-1.9,1.18-2.89c0,0,0,0,0-0.01
			c0.02-0.05,0.03-0.1,0.07-0.15c0.31-0.73,0.66-1.47,1.01-2.22c0.26-0.58,0.56-1.16,0.85-1.76c0.03-0.07,0.09-0.16,0.12-0.23
			c0.35-0.68,0.71-1.35,1.08-2.02c0.23-0.42,0.47-0.85,0.71-1.26c1.27-2.19,2.71-4.4,4.34-6.57c0.23-0.3,0.45-0.61,0.69-0.9
			c0.36-0.47,0.75-0.95,1.13-1.42c0.42-0.5,0.85-0.99,1.28-1.48c0.19-0.23,0.4-0.45,0.59-0.67c0.89-0.98,1.84-1.95,2.85-2.9
			c0.57-0.53,1.15-1.07,1.75-1.58c0.02-0.02,0.03-0.05,0.05-0.06c0.61-0.52,1.22-1.02,1.84-1.52c0.63-0.5,1.28-0.99,1.96-1.48
			c0.78-0.56,1.55-1.12,2.29-1.65c0.95-0.68,1.86-1.33,2.74-1.96c0.82-0.59,1.63-1.18,2.4-1.75c0.45-0.32,0.9-0.64,1.34-0.96
			c0.26-0.18,0.5-0.38,0.75-0.56c0.95-0.68,1.86-1.35,2.71-1.99c2-1.48,3.82-2.85,5.43-4.15c0.71-0.56,1.41-1.12,2.07-1.65
			c0.35-0.27,0.68-0.53,0.97-0.79c0.33-0.27,0.63-0.53,0.92-0.79c1.65-1.39,3.07-2.72,4.31-4c0.33-0.34,0.64-0.68,0.95-1.02
			c0.26-0.28,0.5-0.55,0.73-0.81c0.8-0.93,1.53-1.87,2.15-2.81c0.56-0.81,1.06-1.64,1.53-2.47c0.63-1.13,1.15-2.29,1.63-3.53
			c0.85-2.18,1.51-4.3,2.03-6.34c0.07-0.25,0.14-0.51,0.21-0.76c0.09-0.4,0.17-0.8,0.26-1.19c0.09-0.34,0.16-0.68,0.21-1.01
			c0.26-1.26,0.45-2.49,0.59-3.67c0.03-0.29,0.07-0.57,0.1-0.85c0.02-0.12,0.02-0.24,0.02-0.36c0.02-0.05,0.02-0.08,0.02-0.13h0.02
			v-0.1c0-0.01,0-0.01,0-0.02c0.03-0.27,0.05-0.52,0.07-0.79c0.03-0.53,0.07-1.07,0.09-1.59v-0.1c0-0.16,0.02-0.32,0.02-0.46
			c0.03-1.02,0.02-2-0.02-2.96c0-0.23-0.02-0.44-0.02-0.65c-0.02-0.13-0.02-0.27-0.03-0.39c-0.02-0.45-0.05-0.9-0.1-1.32
			c-0.03-0.44-0.09-0.86-0.14-1.29c0-0.06-0.02-0.11-0.02-0.17c-0.05-0.36-0.1-0.72-0.16-1.07c-0.02-0.11-0.03-0.23-0.05-0.34
			c-0.03-0.29-0.09-0.57-0.14-0.84c-0.03-0.25-0.09-0.52-0.14-0.78c-0.05-0.23-0.1-0.46-0.14-0.68c0.12,0.25,0.68,1.32,1.6,2.42
			c1.72,2.09,4.72,4.33,8.63,1.79C370.1,6.24,370.9,5.55,371.73,4.64z"/>
		<path class="st5" d="M174.16,97.87c0,0-1.7-2.04-3.75-2.63c-1.55-0.45-3.28-0.07-4.65,2.61c-0.05-0.19-0.09-0.4-0.16-0.61
			c-0.07-0.24-0.12-0.49-0.21-0.75c-0.03-0.12-0.07-0.24-0.1-0.36c-0.03-0.15-0.09-0.3-0.12-0.45c-0.35-1.08-0.8-2.27-1.35-3.58
			c-0.24-0.56-0.52-1.15-0.82-1.76c-0.05-0.11-0.1-0.23-0.17-0.34c-0.14-0.27-0.28-0.52-0.42-0.8c-0.12-0.27-0.26-0.53-0.43-0.81
			c-0.16-0.3-0.33-0.62-0.5-0.93h-0.02c0-0.01,0-0.01,0-0.01c-0.28-0.5-0.57-1.02-0.9-1.54c-0.26-0.41-0.52-0.82-0.78-1.26
			c-0.33-0.52-0.68-1.04-1.06-1.59c-0.23-0.33-0.45-0.67-0.68-0.99c-0.23-0.33-0.45-0.65-0.69-0.99c-0.87-1.21-1.93-2.4-3.18-3.58
			c-0.26-0.23-0.5-0.47-0.76-0.7c-0.24-0.24-0.52-0.47-0.8-0.7c-0.26-0.23-0.54-0.47-0.85-0.7c-0.26-0.23-0.56-0.46-0.87-0.69
			c-3.28-2.56-7.26-5.04-11.6-7.49c-0.78-0.46-1.6-0.91-2.41-1.35c-1.6-0.86-3.23-1.73-4.88-2.59c-0.03-0.01-0.09-0.04-0.12-0.06
			c-1.28-0.67-2.57-1.32-3.87-1.99c-0.09-0.04-0.19-0.08-0.28-0.15c-2.86-1.47-5.8-2.92-8.68-4.39c-0.07-0.02-0.14-0.06-0.21-0.1
			c-1.53-0.78-3.06-1.55-4.55-2.33c-3.75-1.95-7.4-3.92-10.78-5.9c-1.37-0.8-2.69-1.6-3.94-2.42c-0.63-0.4-1.23-0.8-1.84-1.21
			c-0.61-0.41-1.2-0.82-1.75-1.24c-0.71-0.52-1.41-1.03-2.07-1.55c-0.66-0.52-1.28-1.05-1.89-1.58c-0.61-0.53-1.18-1.07-1.74-1.6
			c-0.26-0.27-0.54-0.53-0.78-0.8c-0.26-0.27-0.5-0.55-0.75-0.81c-0.17-0.19-0.35-0.4-0.5-0.61c-0.17-0.21-0.33-0.4-0.47-0.61
			c-0.31-0.41-0.59-0.84-0.82-1.26c-0.14-0.21-0.26-0.42-0.36-0.64c-0.35-0.64-0.63-1.31-0.85-1.98c-0.09-0.21-0.16-0.42-0.21-0.63
			c-0.31-0.97-0.5-1.98-0.61-2.98c0-0.01,0-0.01,0-0.02c-0.02-0.22-0.03-0.44-0.07-0.67c0-0.18-0.02-0.35-0.02-0.52
			c-0.09-2.64,0.36-5.37,1.2-8.06c0.3-0.95,0.64-1.87,1.01-2.8c0.07-0.17,0.14-0.34,0.23-0.51c0.42-1.04,0.9-2.06,1.39-3.07
			c0.09-0.17,0.17-0.33,0.26-0.5c0.59-1.13,1.22-2.23,1.86-3.3c0.97-1.58,1.98-3.09,2.97-4.51c0.4-0.55,0.78-1.08,1.16-1.59
			c0.14-0.18,0.26-0.36,0.4-0.53h0.02c0,0,0.21,1.01,1.23,2.12h0.05c0,0.01-0.02,0.01-0.02,0.02c2.22,2.42,8.25,5.38,24.08-0.02
			c1.75-0.59,3.63-1.3,5.63-2.11c-0.97,0.68-1.82,1.37-2.59,2.11c-0.09,0.08-0.17,0.16-0.26,0.24c-0.12,0.12-0.24,0.24-0.36,0.35
			v0.01c-0.57,0.57-1.09,1.15-1.56,1.75c-0.49,0.59-0.92,1.2-1.3,1.82c-0.07,0.11-0.14,0.22-0.19,0.34h-0.02
			c-0.07,0.12-0.14,0.23-0.21,0.35c-0.12,0.18-0.23,0.38-0.33,0.56c-0.49,0.93-0.89,1.89-1.22,2.89c-0.1,0.32-0.21,0.63-0.3,0.95
			c-0.09,0.28-0.16,0.55-0.21,0.82c-0.07,0.28-0.12,0.56-0.17,0.84c-0.03,0.15-0.07,0.3-0.09,0.46c-0.03,0.17-0.07,0.34-0.09,0.51
			c-0.12,0.92-0.19,1.85-0.19,2.8c-0.02,0.46,0,0.92,0.02,1.39c0.02,0.27,0.03,0.53,0.05,0.8v0.05c0.03,0.38,0.07,0.75,0.1,1.13
			c0.05,0.4,0.12,0.81,0.19,1.22c0.07,0.48,0.17,0.98,0.28,1.47c0.05,0.3,0.12,0.61,0.21,0.9c0.16,0.69,0.35,1.37,0.57,2.06
			c0.12,0.39,0.24,0.76,0.38,1.15c0.54,1.59,1.2,3.19,1.96,4.78c0.68,1.41,1.42,2.81,2.24,4.19c0.03,0.07,0.07,0.13,0.12,0.19
			c0.28,0.49,0.57,0.97,0.89,1.44c0.3,0.49,0.59,0.96,0.92,1.43c0.31,0.47,0.63,0.95,0.95,1.41c0.33,0.47,0.66,0.93,1.01,1.39
			c0.68,0.92,1.39,1.83,2.1,2.73c0.35,0.45,0.71,0.9,1.09,1.33c0.36,0.44,0.73,0.87,1.11,1.3c0.73,0.86,1.51,1.7,2.29,2.52
			c0.36,0.4,0.76,0.81,1.16,1.2c0.4,0.4,0.78,0.79,1.18,1.18c0.38,0.39,0.78,0.78,1.18,1.14c0.4,0.38,0.8,0.75,1.2,1.1
			c0.38,0.36,0.78,0.72,1.2,1.05c0.38,0.35,0.78,0.69,1.2,1.02c0.4,0.33,0.78,0.65,1.18,0.97c0.4,0.32,0.78,0.63,1.18,0.93
			c0.42,0.29,0.8,0.58,1.18,0.86c0.59,0.44,1.18,0.87,1.74,1.33c0.57,0.45,1.13,0.91,1.7,1.37c1.09,0.91,2.15,1.87,3.21,2.84
			c0.02,0.02,0.03,0.05,0.07,0.07c1.06,1.01,2.1,2.04,3.13,3.09c0.43,0.47,0.89,0.93,1.32,1.41c1.06,1.16,2.1,2.34,3.09,3.52
			c0.35,0.39,0.66,0.78,0.99,1.16c0.61,0.75,1.22,1.5,1.81,2.25c0.59,0.75,1.16,1.5,1.7,2.24c0.09,0.1,0.16,0.18,0.23,0.28h0.02
			c0.4,0.55,0.82,1.09,1.2,1.64c0.5,0.72,0.99,1.41,1.48,2.1c0.36,0.52,0.71,1.04,1.06,1.55c0.24,0.36,0.49,0.73,0.73,1.09h0.02
			c0,0,0,0,0,0.01c0.09,0.15,0.19,0.28,0.26,0.41c0.56,0.85,1.09,1.67,1.6,2.47h0.02c0.19,0.3,0.38,0.59,0.56,0.9
			c0.17,0.28,0.35,0.57,0.52,0.85v0.01h0.02c0.52,0.86,1.01,1.67,1.46,2.44c0.1,0.21,0.23,0.41,0.35,0.61
			c0.21,0.38,0.42,0.74,0.63,1.08C173.57,96.82,173.88,97.37,174.16,97.87z"/>
		<path class="st5" d="M55,72.92c0,0.64-0.02,1.29-0.05,1.92c-0.1,2.17-0.38,4.24-0.82,6.23c-0.49,2.24-1.15,4.38-1.96,6.38v0.01
			c-0.4,0.99-0.83,1.95-1.3,2.89c-0.3,0.61-0.61,1.19-0.92,1.76c-1.16,2.09-2.45,4.01-3.78,5.77c0,0-1.63-3.1-5.5-3.16
			c-1.72-0.04-3.89,0.53-6.56,2.24c-0.02,0-0.03,0-0.03,0c1.82-1.54,3.72-3.24,5.59-5.04c0.54-0.55,1.09-1.09,1.65-1.66
			c0.89-0.91,1.75-1.84,2.59-2.79v-0.01h0.02c1.02-1.2,2.01-2.42,2.93-3.66c0.03-0.02,0.05-0.05,0.05-0.08
			c0.54-0.72,1.04-1.45,1.49-2.18c0.14-0.21,0.26-0.42,0.38-0.63c0.12-0.21,0.24-0.4,0.35-0.59c0.19-0.33,0.38-0.65,0.54-0.98
			c0.14-0.24,0.26-0.48,0.36-0.73c0.61-1.22,1.08-2.45,1.39-3.66c0.07-0.24,0.12-0.48,0.17-0.72c0.05-0.24,0.1-0.49,0.14-0.73
			c0.31-1.82,0.26-3.6-0.28-5.31C49.54,61.97,38.58,55.51,26.24,50c-2.78-1.22-5.61-2.41-8.44-3.53c-5.23-2.07-10.42-3.94-15.02-5.5
			c11.53-0.36,9.76-7.82,6.74-13.41c-0.23-0.41-0.45-0.81-0.68-1.2c-0.43-0.75-0.89-1.44-1.3-2.06c-1.2-1.76-2.17-2.91-2.17-2.91
			v-0.01c0.9,0.5,1.86,1.04,2.81,1.6c0.69,0.4,1.41,0.81,2.12,1.25c2.47,1.44,5.05,3.03,7.69,4.73c0.23,0.16,0.47,0.32,0.71,0.47
			c0.05,0.02,0.1,0.06,0.16,0.1c2.53,1.65,5.1,3.41,7.66,5.24c2.73,1.95,5.4,4,7.95,6.12c0.26,0.23,0.54,0.46,0.82,0.69
			c0.56,0.46,1.09,0.92,1.61,1.38c0.8,0.69,1.58,1.39,2.34,2.11c0.35,0.3,0.66,0.61,0.99,0.91c0.59,0.57,1.16,1.13,1.74,1.7
			c0.49,0.48,0.97,0.97,1.42,1.47c0.92,0.96,1.81,1.93,2.62,2.91c0.26,0.29,0.5,0.58,0.73,0.87c0.3,0.34,0.57,0.69,0.83,1.04
			c0.28,0.35,0.54,0.69,0.8,1.04c0.52,0.7,1.02,1.39,1.49,2.1c0.07,0.12,0.16,0.24,0.23,0.36c0.21,0.3,0.4,0.61,0.57,0.91
			c0.63,0.98,1.18,1.99,1.67,2.98c0.23,0.42,0.43,0.85,0.61,1.27c1.11,2.57,1.81,5.14,1.98,7.7C54.97,71.21,55,72.07,55,72.92z"/>
		<path class="st5" d="M314.89,2.8c-0.42,0.55-0.87,1.1-1.35,1.67c-1.23,1.45-2.53,2.97-3.96,4.51c-1.15,1.25-2.34,2.51-3.63,3.79
			c-0.99,1.02-2.05,2.04-3.16,3.07c-0.17,0.17-0.35,0.34-0.54,0.51c-0.99,0.93-2.01,1.87-3.09,2.8
			c-17.87,15.59-45,30.37-81.48,25.92c-31.16-3.81-44.98-14.75-50.64-25.92c-0.23-0.46-0.45-0.93-0.66-1.39
			c-0.16-0.33-0.3-0.67-0.43-0.98c-0.05-0.13-0.1-0.28-0.17-0.42c-0.07-0.17-0.12-0.34-0.17-0.51c-0.38-1.03-0.73-2.06-0.99-3.07
			c-0.33-1.29-0.57-2.56-0.75-3.79c-0.16-1.04-0.26-2.05-0.31-3.04c-0.03-0.24-0.03-0.47-0.03-0.7V4.88c0-0.13-0.02-0.28-0.02-0.41
			V4c0-0.57,0.02-1.12,0.03-1.65c0,0,1.01,1.02,2.69,2.12c3.47,2.27,9.81,4.9,16.41,0c0.8-0.59,1.61-1.3,2.41-2.12
			c0.03,0.22,0.14,1.36,0.21,1.99c0.02,0.05,0.02,0.08,0.02,0.13c0.02,0.18,0.03,0.38,0.07,0.57c0.02,0.24,0.03,0.5,0.09,0.75
			c0.05,0.51,0.12,1.02,0.21,1.54c0.09,0.55,0.19,1.09,0.3,1.65c0.03,0.23,0.09,0.46,0.14,0.7c0.17,0.84,0.38,1.69,0.63,2.53
			c0.05,0.18,0.1,0.36,0.16,0.56c0,0.02,0.02,0.05,0.02,0.08c0.1,0.34,0.21,0.67,0.31,1.01c0.14,0.46,0.3,0.92,0.49,1.38
			c0.07,0.21,0.14,0.4,0.23,0.59c0.05,0.17,0.12,0.34,0.19,0.51c0.07,0.19,0.14,0.38,0.23,0.56c0.23,0.51,0.45,1.02,0.69,1.52
			c0.1,0.24,0.23,0.48,0.35,0.73c0.03,0.08,0.09,0.17,0.14,0.25c0.19,0.4,0.42,0.8,0.64,1.2c0.17,0.32,0.36,0.63,0.56,0.93
			c0.1,0.18,0.21,0.36,0.33,0.53c0.3,0.48,0.63,0.97,0.97,1.44c0.76,1.09,1.63,2.16,2.6,3.19c0.21,0.24,0.43,0.47,0.66,0.7
			c0.45,0.46,0.92,0.92,1.42,1.36c0.23,0.22,0.49,0.45,0.75,0.67c1.27,1.09,2.69,2.11,4.24,3.07c0.31,0.19,0.63,0.38,0.95,0.56
			c0.31,0.19,0.64,0.38,0.97,0.55c0.33,0.18,0.66,0.36,1.01,0.53c0.35,0.18,0.69,0.35,1.06,0.51c0.35,0.16,0.71,0.33,1.08,0.48
			c0.36,0.16,0.75,0.32,1.11,0.46c0.38,0.16,0.76,0.32,1.16,0.45c0.4,0.15,0.8,0.29,1.2,0.42c1.22,0.4,2.48,0.78,3.8,1.12
			c0.43,0.12,0.89,0.23,1.35,0.33c1.35,0.32,2.78,0.59,4.27,0.81c0.49,0.08,0.99,0.16,1.51,0.22c0.76,0.11,1.55,0.19,2.34,0.28
			c0.4,0.05,0.8,0.07,1.22,0.11c0.4,0.04,0.82,0.06,1.23,0.08c24.45,1.66,44.27-8.81,58.32-20.26c1.15-0.93,2.26-1.87,3.32-2.8
			c0.19-0.17,0.38-0.34,0.57-0.51c1.16-1.03,2.27-2.05,3.33-3.07c1.34-1.29,2.6-2.56,3.78-3.79c1.11-1.18,2.17-2.32,3.16-3.42
			c0.33-0.38,0.64-0.73,0.95-1.09c0.63-0.73,1.23-1.44,1.79-2.12h0.02c0,0,0.17,1.09,0.99,2.12c0.05,0.07,0.12,0.15,0.19,0.22
			c1.32,1.49,4.08,2.65,9.69-0.22C312.93,4.02,313.87,3.47,314.89,2.8z"/>
		<path class="st5" d="M281.96,2.35c-0.69,0.64-1.46,1.36-2.31,2.12c-1.49,1.37-3.25,2.91-5.17,4.51c-1.49,1.24-3.09,2.51-4.79,3.79
			c-0.82,0.62-1.65,1.24-2.5,1.84c-0.57,0.41-1.15,0.82-1.74,1.22l-0.73,0.51c-1.39,0.96-2.83,1.89-4.31,2.8
			c-10.71,6.61-23.44,11.75-35.37,9.76c-8.78-1.47-13.72-5.25-16.3-9.76c-0.54-0.91-0.97-1.84-1.32-2.8
			c-0.07-0.17-0.12-0.34-0.17-0.51c-0.35-1.01-0.61-2.04-0.76-3.07c-0.03-0.16-0.05-0.33-0.09-0.48c-0.17-1.12-0.26-2.22-0.28-3.31
			c-0.05-1.56,0.05-3.08,0.23-4.51c0.09-0.74,0.19-1.44,0.31-2.12c0,0,3.06,1.01,8.4,2.12c11.49,2.4,33.54,5.35,58.42,0
			C276.28,3.88,279.11,3.18,281.96,2.35z"/>
	</g>
	<g class="st3">
		<path class="st5" d="M56.65,3.81c-0.07,0.22-0.14,0.44-0.21,0.65c-0.38,1.37-0.75,2.89-0.99,4.51c-0.19,1.13-0.33,2.3-0.4,3.53
			C55.02,11.91,55,11.33,55,10.75c0-0.61,0.02-1.19,0.03-1.77c0.1-1.6,0.28-3.1,0.52-4.51c0.14-0.74,0.3-1.44,0.43-2.12
			C55.99,2.35,56.01,2.99,56.65,3.81z"/>
		<path class="st5" d="M116,87.44v0.01c-0.03,0.97-0.14,1.94-0.31,2.89c-0.09,0.59-0.21,1.18-0.36,1.76
			c-0.36,1.55-0.85,3.03-1.39,4.4c-0.82,0.4-1.65,0.86-2.48,1.37c0.33-0.56,0.68-1.2,1.01-1.89c0.21-0.4,0.42-0.82,0.61-1.26
			c0.12-0.22,0.21-0.45,0.31-0.68c0.1-0.23,0.21-0.46,0.3-0.7c0.14-0.33,0.28-0.67,0.42-1.02c0.02-0.07,0.05-0.15,0.09-0.22
			c0.12-0.33,0.24-0.65,0.35-0.99c0.09-0.25,0.17-0.51,0.24-0.76c0.14-0.44,0.28-0.87,0.4-1.32c0.09-0.36,0.17-0.74,0.26-1.12
			c0-0.01,0-0.02,0-0.02c0.03-0.15,0.07-0.28,0.1-0.42v-0.01c0.07-0.38,0.14-0.74,0.21-1.12c0-0.05,0.02-0.1,0.02-0.15
			c0.05-0.29,0.09-0.57,0.12-0.86c0.03-0.21,0.05-0.4,0.07-0.61C116.03,85.62,116.05,86.54,116,87.44z"/>
		<path class="st5" d="M141.69,97.87c0,0-0.56-0.46-1.58-1.09c-0.57-1.41-1.3-2.98-2.26-4.68c-0.31-0.57-0.66-1.15-1.02-1.76
			c-0.56-0.93-1.18-1.89-1.88-2.89c-0.02,0-0.02-0.01-0.02-0.01c-1.41-2.02-3.11-4.16-5.12-6.38c-5.19-5.7-12.55-11.92-22.99-18.1
			C85.37,50.26,73.32,38.41,74.61,25.31c0.03,0.35,0.09,0.72,0.14,1.07c0.05,0.29,0.1,0.58,0.16,0.88c0.07,0.38,0.16,0.75,0.26,1.14
			c0.02,0.07,0.03,0.15,0.05,0.23c0.21,0.69,0.43,1.37,0.69,2.06c0.61,1.59,1.41,3.18,2.41,4.75c0.23,0.36,0.47,0.74,0.73,1.1
			c0.85,1.25,1.84,2.5,2.95,3.75c0.64,0.74,1.34,1.47,2.07,2.21c0.35,0.36,0.73,0.74,1.13,1.1c0.56,0.56,1.16,1.1,1.79,1.65
			c0.3,0.28,0.61,0.56,0.95,0.82c0.3,0.28,0.63,0.56,0.97,0.82c0.43,0.38,0.89,0.74,1.37,1.12c0.43,0.36,0.9,0.74,1.41,1.1
			c0.94,0.74,1.94,1.48,2.99,2.22c0.17,0.13,0.36,0.27,0.56,0.4c2.95,2.1,6.2,4.19,9.71,6.3c0.03,0.04,0.07,0.06,0.1,0.07
			c0.59,0.36,1.18,0.72,1.79,1.08c2.73,1.61,5.23,3.22,7.55,4.82c0.87,0.61,1.74,1.22,2.57,1.83c0.83,0.62,1.63,1.22,2.41,1.83
			c0.07,0.06,0.14,0.12,0.21,0.17c1.2,0.95,2.34,1.89,3.44,2.84c0.35,0.32,0.71,0.63,1.06,0.95c0.36,0.32,0.69,0.62,1.02,0.93
			c0.35,0.3,0.68,0.62,0.99,0.92c0.33,0.32,0.64,0.62,0.95,0.92c0.31,0.3,0.61,0.61,0.9,0.91c0.87,0.87,1.67,1.75,2.43,2.59
			c0.82,0.91,1.56,1.82,2.27,2.7c0.07,0.07,0.12,0.16,0.19,0.23c0.05,0.07,0.1,0.15,0.16,0.22c0.02,0.01,0.03,0.02,0.03,0.04
			c0.07,0.07,0.12,0.15,0.17,0.22c0.03,0.05,0.07,0.1,0.1,0.15c0.1,0.12,0.21,0.25,0.3,0.38c0.12,0.16,0.24,0.3,0.35,0.46
			c0.07,0.08,0.12,0.16,0.19,0.24c0.1,0.15,0.21,0.3,0.33,0.45c0.02,0.05,0.05,0.08,0.09,0.13c0.19,0.27,0.38,0.55,0.57,0.81
			c0.05,0.07,0.1,0.15,0.16,0.22c0.12,0.19,0.26,0.39,0.38,0.58c0.14,0.21,0.28,0.4,0.4,0.59c0.12,0.21,0.24,0.4,0.38,0.59
			c0.07,0.12,0.16,0.25,0.23,0.38c0.09,0.13,0.16,0.25,0.24,0.39c0.14,0.25,0.3,0.51,0.45,0.75v0.01c0.07,0.12,0.14,0.23,0.21,0.35
			c0.42,0.74,0.8,1.45,1.15,2.15c0.03,0.06,0.07,0.13,0.1,0.19c0.03,0.07,0.07,0.13,0.09,0.19h0.02c0.03,0.1,0.09,0.19,0.14,0.29
			c0.19,0.44,0.38,0.85,0.56,1.26c0.05,0.07,0.07,0.13,0.1,0.21c1.01,2.28,1.6,4.21,1.94,5.67
			C141.69,97.81,141.69,97.83,141.69,97.87z"/>
		<path class="st5" d="M351.8,97.85c-0.16-0.13-1.41-1.18-3.42-2.24c-0.56-1.14-1.04-2.32-1.48-3.52c-0.21-0.58-0.4-1.16-0.56-1.76
			c-0.28-0.96-0.5-1.92-0.66-2.89c0,0,0,0,0-0.01c-0.12-0.61-0.19-1.2-0.24-1.81c-0.07-0.9-0.1-1.81-0.05-2.7
			c0.02-0.32,0.03-0.63,0.07-0.95c0.02,0.17,0.03,0.34,0.07,0.51c0.02,0.35,0.07,0.7,0.14,1.05c0.03,0.23,0.07,0.45,0.12,0.68
			c0.05,0.36,0.14,0.73,0.23,1.09c0.1,0.44,0.21,0.86,0.35,1.29c0.07,0.28,0.16,0.56,0.24,0.84h0.02v0.01
			c0.03,0.15,0.07,0.29,0.14,0.42c0.12,0.41,0.28,0.82,0.43,1.24c0.14,0.41,0.31,0.82,0.49,1.22c0.05,0.11,0.09,0.21,0.14,0.3
			c0.12,0.29,0.26,0.58,0.4,0.87c0.09,0.19,0.17,0.39,0.28,0.58c0.23,0.45,0.45,0.9,0.68,1.33s0.45,0.86,0.71,1.28
			c0.14,0.28,0.3,0.55,0.47,0.81C350.83,96.33,351.32,97.1,351.8,97.85z"/>
		<path class="st5" d="M397.22,51.73c0,0-6.09,1.16-6.09,3.47c-2.92-0.08-5.9-0.06-8.92,0.11c-2.8,0.16-5.63,0.42-8.46,0.85
			c-5.89,0.85-11.79,2.33-17.47,4.62c-12.38,5.01-19.6,12.6-23.77,20.29c-1.16,2.13-2.07,4.28-2.8,6.38v0.01
			c-0.35,0.97-0.66,1.94-0.92,2.89c-0.16,0.59-0.31,1.18-0.43,1.76c-0.47,1.94-0.76,3.79-0.97,5.52l-0.31,0.25
			c0.05-1.6,0.21-3.39,0.49-5.35c0.02-0.13,0.03-0.28,0.07-0.42c0.03-0.29,0.09-0.57,0.12-0.86c0-0.01,0-0.01,0-0.01
			c0.05-0.29,0.12-0.58,0.17-0.88c0-0.06,0.02-0.12,0.03-0.19c0.14-0.72,0.3-1.44,0.49-2.18c0.03-0.17,0.07-0.34,0.1-0.51
			c0.02,0,0.02,0,0.02,0v-0.01c0.52-2.06,1.22-4.21,2.14-6.38c1.42-3.39,3.39-6.84,6.04-10.13c0.3-0.36,0.61-0.73,0.92-1.09
			c0.94-1.09,1.96-2.16,3.07-3.19c0.38-0.35,0.76-0.69,1.15-1.03c0.78-0.68,1.61-1.35,2.47-2c0.43-0.32,0.89-0.64,1.34-0.96
			c1.13-0.79,2.33-1.55,3.59-2.29h0.02c2.12-1.21,4.44-2.35,6.98-3.37c5.68-2.29,11.58-3.77,17.47-4.63
			c2.83-0.41,5.66-0.69,8.46-0.85C387.36,51.24,392.41,51.35,397.22,51.73z"/>
		<path class="st5" d="M393.49,80.74c0,0.02-0.02,0.05-0.05,0.07c0,0-4.81,1.1-9.88,3.67c-0.02,0-0.03,0.01-0.05,0.04
			c-1.06,0.68-2.17,1.31-3.33,1.9h-0.02c-3.39,2.21-6.41,5.13-7.64,8.89c0-1.84,0.36-3.73,1.28-5.55c0.14-0.27,0.3-0.52,0.45-0.79
			l0.02-0.01h0.02c1.23-2.04,3.28-3.94,6.42-5.5c0.19-0.1,0.38-0.19,0.57-0.28c0,0,0,0,0.02,0c0.45-0.21,0.89-0.4,1.34-0.58
			c0.28-0.12,0.56-0.23,0.83-0.33c0.02,0,0.02-0.01,0.02-0.01c0.61-0.21,1.23-0.4,1.84-0.57l0.02-0.01
			c0.47-0.12,0.92-0.23,1.37-0.33c0.47-0.1,0.94-0.18,1.39-0.25C389.93,80.8,391.73,80.69,393.49,80.74z"/>
		<path class="st5" d="M360.07,16.06c0.02,0.17,0,0.34,0,0.51c-0.03,1.5-0.14,3.07-0.35,4.7c-0.49,3.94-1.49,8.24-3.28,12.87
			c-3.82,9.89-11.39,15.43-32.92,30.88c-6.44,4.63-11.3,10.33-14.95,16.04c-1.37,2.13-2.57,4.28-3.59,6.38v0.01
			c-0.5,0.98-0.95,1.94-1.37,2.89c-0.28,0.59-0.52,1.19-0.78,1.76c-0.62,1.5-1.16,2.95-1.65,4.3c-0.54,0.42-1.08,0.91-1.63,1.47
			c0.28-1.01,0.59-2.11,0.97-3.29c0.16-0.47,0.31-0.95,0.49-1.44c0.09-0.25,0.17-0.51,0.26-0.76c0.03-0.1,0.07-0.18,0.1-0.28
			c0.21-0.57,0.42-1.16,0.64-1.76c0.36-0.93,0.76-1.9,1.18-2.89c0,0,0-0.01,0.02-0.01c0.02-0.05,0.03-0.1,0.05-0.15
			c0.31-0.73,0.66-1.47,1.01-2.22c0.28-0.58,0.56-1.15,0.85-1.73c0.05-0.08,0.09-0.17,0.12-0.25c0.35-0.68,0.71-1.35,1.08-2.02h0.02
			c0.23-0.42,0.45-0.84,0.69-1.26c1.27-2.19,2.71-4.4,4.34-6.57c0.23-0.3,0.45-0.61,0.69-0.9c0.36-0.47,0.75-0.95,1.13-1.42
			c0.42-0.5,0.85-0.99,1.28-1.48c0.19-0.23,0.4-0.45,0.59-0.67c0.9-0.99,1.86-1.96,2.85-2.9c0.57-0.53,1.15-1.07,1.75-1.58
			c0.02-0.02,0.03-0.05,0.05-0.06c0.61-0.52,1.22-1.02,1.84-1.52c0.63-0.5,1.28-0.99,1.96-1.48c0.78-0.56,1.55-1.12,2.29-1.65
			c0.95-0.68,1.86-1.33,2.74-1.96c0.82-0.59,1.63-1.18,2.4-1.75c0.45-0.32,0.9-0.64,1.34-0.96c0.26-0.18,0.5-0.38,0.75-0.56
			c0.95-0.68,1.86-1.35,2.71-1.99c2-1.48,3.82-2.85,5.43-4.15c0.75-0.56,1.42-1.12,2.07-1.65c0.35-0.27,0.68-0.53,0.97-0.79
			c0.33-0.27,0.63-0.53,0.92-0.79c1.65-1.39,3.07-2.72,4.31-4c0.35-0.35,0.66-0.68,0.95-1.02c0.26-0.28,0.5-0.55,0.73-0.81
			c0.8-0.93,1.53-1.87,2.15-2.81c0.57-0.81,1.08-1.62,1.53-2.47c0.63-1.13,1.15-2.29,1.63-3.53c0.85-2.18,1.51-4.3,2.03-6.34
			c0.07-0.25,0.14-0.51,0.21-0.76c0.09-0.4,0.17-0.8,0.26-1.19c0.09-0.34,0.16-0.68,0.21-1.01c0.26-1.26,0.45-2.49,0.59-3.67
			c0.03-0.29,0.07-0.57,0.09-0.85c0.02-0.12,0.03-0.24,0.03-0.36c0.02-0.05,0.02-0.08,0.02-0.13c0.02-0.04,0.02-0.06,0.02-0.1
			c0-0.01,0-0.01,0-0.02c0.03-0.27,0.05-0.52,0.07-0.79c0.03-0.53,0.07-1.07,0.09-1.59C360.08,14.36,360.1,15.2,360.07,16.06z"/>
		<path class="st5" d="M96.6,4.47c0,0.01-0.02,0.01-0.02,0.02c-1.08,1.35-2.2,2.86-3.35,4.49c-0.83,1.2-1.67,2.47-2.47,3.79
			c-0.59,1.01-1.18,2.02-1.7,3.07c-0.1,0.17-0.19,0.34-0.28,0.51c-0.49,0.92-0.92,1.85-1.34,2.8c-1.3,3.04-2.26,6.17-2.53,9.25
			c-0.02-0.22-0.03-0.44-0.07-0.67c0-0.18-0.02-0.35-0.02-0.52c-0.09-2.64,0.36-5.37,1.2-8.06c0.3-0.95,0.64-1.87,1.01-2.8
			c0.07-0.17,0.14-0.34,0.23-0.51c0.42-1.04,0.9-2.06,1.39-3.07h0.02c0.09-0.17,0.16-0.33,0.24-0.5c0.59-1.13,1.22-2.23,1.86-3.3
			c0.97-1.58,1.98-3.09,2.97-4.51c0.4-0.55,0.78-1.08,1.16-1.59c0.14-0.18,0.28-0.36,0.42-0.53c0,0,0.21,1.01,1.23,2.12H96.6z"/>
		<path class="st5" d="M174.16,97.87c0,0-1.7-2.04-3.75-2.63c-0.63-0.99-1.28-2.05-2-3.14c-0.38-0.57-0.76-1.16-1.16-1.76
			c-0.64-0.93-1.3-1.9-2-2.89c0,0,0,0-0.02-0.01c-1.46-2.07-3.07-4.22-4.81-6.38c-4.58-5.67-10-11.36-16.06-15.76
			c-12.95-9.42-28.35-28.3-27.08-43.91c0.03,0.38,0.07,0.75,0.1,1.13c0.05,0.4,0.12,0.81,0.19,1.22c0.07,0.48,0.17,0.98,0.28,1.47
			c0.05,0.3,0.12,0.61,0.21,0.9c0.16,0.69,0.35,1.37,0.57,2.06c0.1,0.39,0.24,0.76,0.38,1.15c0.54,1.59,1.2,3.19,1.96,4.78
			c0.68,1.41,1.42,2.81,2.24,4.19c0.03,0.07,0.07,0.13,0.12,0.19c0.28,0.49,0.57,0.97,0.89,1.44c0.3,0.49,0.59,0.96,0.92,1.43
			c0.31,0.47,0.63,0.95,0.95,1.41c0.33,0.47,0.66,0.93,1.01,1.39c0.68,0.92,1.37,1.84,2.1,2.73c0.35,0.45,0.71,0.9,1.09,1.33
			c0.35,0.44,0.73,0.87,1.11,1.3c0.73,0.86,1.51,1.7,2.29,2.52c0.36,0.4,0.76,0.81,1.16,1.2c0.38,0.4,0.76,0.79,1.18,1.18
			c0.38,0.39,0.78,0.78,1.18,1.14c0.4,0.38,0.8,0.75,1.2,1.1c0.38,0.36,0.78,0.72,1.2,1.05c0.38,0.35,0.78,0.69,1.2,1.02
			c0.38,0.34,0.76,0.65,1.18,0.97c0.4,0.32,0.78,0.63,1.18,0.93c0.4,0.3,0.78,0.59,1.18,0.88c0.59,0.42,1.16,0.86,1.74,1.31
			c0.57,0.45,1.13,0.91,1.7,1.37c1.09,0.91,2.15,1.87,3.21,2.84c0.02,0.02,0.03,0.05,0.07,0.07c1.06,1.01,2.1,2.04,3.13,3.09
			c0.43,0.47,0.89,0.93,1.32,1.41c1.06,1.16,2.1,2.34,3.09,3.52c0.35,0.39,0.66,0.78,0.99,1.16c0.61,0.75,1.22,1.5,1.81,2.25
			c0.59,0.75,1.16,1.5,1.7,2.24c0.09,0.1,0.16,0.18,0.23,0.28c0.42,0.55,0.82,1.1,1.22,1.64c0.5,0.72,0.99,1.41,1.48,2.1
			c0.36,0.52,0.71,1.04,1.06,1.55c0.24,0.36,0.49,0.73,0.73,1.09c0,0,0,0,0,0.01c0.1,0.13,0.19,0.27,0.28,0.41
			c0.56,0.85,1.09,1.67,1.6,2.47c0.19,0.3,0.38,0.61,0.57,0.9c0.17,0.28,0.35,0.57,0.52,0.85v0.01h0.02
			c0.5,0.86,1.01,1.67,1.46,2.44c0.1,0.21,0.23,0.41,0.35,0.61c0.21,0.38,0.42,0.74,0.63,1.08
			C173.57,96.82,173.88,97.37,174.16,97.87z"/>
		<path class="st5" d="M50.63,81.02c-0.1,0.27-0.23,0.53-0.35,0.8c-0.12,0.28-0.24,0.55-0.38,0.81c-0.12,0.27-0.26,0.53-0.42,0.8
			c-0.14,0.27-0.3,0.55-0.45,0.81c-0.61,1.07-1.32,2.13-2.08,3.2c0,0,0,0-0.02,0.01c-0.69,0.97-1.46,1.94-2.27,2.89
			c-0.47,0.58-0.97,1.16-1.49,1.73c-0.82,0.9-1.65,1.77-2.5,2.63c-1.72-0.04-3.89,0.53-6.56,2.24c1.82-1.54,3.72-3.24,5.57-5.04
			c0.57-0.55,1.11-1.1,1.65-1.66c0.9-0.91,1.75-1.84,2.57-2.79h0.02c0-0.01,0-0.01,0-0.01c1.06-1.2,2.03-2.42,2.93-3.66
			c0.03-0.02,0.05-0.05,0.05-0.08c0.54-0.72,1.04-1.45,1.49-2.18c0.14-0.21,0.26-0.42,0.38-0.63h0.02c0.1-0.19,0.23-0.4,0.33-0.59
			c0.19-0.33,0.38-0.65,0.54-0.98c0.14-0.24,0.26-0.48,0.36-0.73c0.61-1.22,1.08-2.45,1.39-3.66c0.07-0.24,0.12-0.48,0.17-0.72
			c0.05-0.24,0.1-0.49,0.14-0.73c0.02-0.06,0.03-0.11,0.03-0.17C52.17,75.78,51.71,78.38,50.63,81.02z"/>
		<path class="st5" d="M55,72.92c0,0.64-0.02,1.29-0.05,1.92c0-0.23-0.02-0.47-0.03-0.72C54.1,61.57,40.59,48.66,26.24,38.37
			c-2.76-1.99-5.56-3.87-8.28-5.63l-0.07-0.05c-0.03-0.01-0.05-0.04-0.09-0.05c-2.86-1.83-5.64-3.54-8.28-5.08
			c-0.23-0.41-0.45-0.81-0.68-1.2c-0.43-0.75-0.89-1.44-1.3-2.06c-1.2-1.76-2.17-2.91-2.17-2.91c0.9,0.51,1.86,1.05,2.81,1.61
			c0.69,0.4,1.41,0.81,2.12,1.24c2.45,1.45,5.03,3.04,7.67,4.74c0.24,0.15,0.49,0.3,0.73,0.45c0,0,0,0,0,0.01
			c0.05,0.04,0.1,0.06,0.16,0.1c2.53,1.66,5.1,3.42,7.66,5.25c2.71,1.95,5.38,3.99,7.95,6.1c0.26,0.23,0.54,0.46,0.82,0.69
			c0.56,0.46,1.09,0.92,1.61,1.38c0.8,0.69,1.58,1.39,2.34,2.11c0.35,0.3,0.66,0.61,0.99,0.91c0.59,0.57,1.16,1.13,1.74,1.7
			c0.49,0.48,0.97,0.97,1.42,1.47c0.92,0.96,1.81,1.93,2.62,2.91c0.26,0.29,0.5,0.58,0.73,0.87c0.3,0.34,0.57,0.69,0.83,1.04
			c0.28,0.35,0.54,0.69,0.8,1.04c0.54,0.7,1.02,1.39,1.49,2.1c0.07,0.12,0.16,0.24,0.23,0.36c0.21,0.3,0.4,0.61,0.57,0.91
			c0.63,0.98,1.18,1.99,1.67,2.98c0.23,0.42,0.42,0.85,0.61,1.27c1.11,2.57,1.81,5.14,1.98,7.7C54.97,71.21,55,72.07,55,72.92z"/>
		<path class="st5" d="M302.36,4.69c-1.06,1.32-2.26,2.76-3.63,4.29c-1.06,1.21-2.22,2.49-3.47,3.79c-0.95,0.99-1.96,2.02-3.04,3.07
			c-0.17,0.17-0.35,0.34-0.52,0.51c-0.95,0.92-1.96,1.85-3,2.8c-14.18,12.78-35.63,25.91-62.76,24.05
			c-23.73-1.62-34.03-12.66-38.23-24.05c-0.35-0.93-0.64-1.87-0.92-2.8c-0.05-0.17-0.1-0.34-0.14-0.51
			c-0.28-1.03-0.52-2.05-0.71-3.07c-0.26-1.29-0.45-2.56-0.57-3.79c-0.19-1.56-0.28-3.07-0.31-4.51c-0.02-0.72-0.02-1.43,0-2.12
			c0-0.29,0.05-0.32,0.07-0.07v0.07c0.03,0.64,0.09,1.32,0.14,1.99c0.02,0.05,0.02,0.08,0.02,0.13c0.02,0.18,0.03,0.38,0.07,0.57
			c0.02,0.24,0.03,0.5,0.09,0.75c0.05,0.51,0.12,1.02,0.21,1.54c0.07,0.55,0.17,1.09,0.28,1.65c0.05,0.23,0.1,0.46,0.16,0.7
			c0.17,0.84,0.38,1.69,0.63,2.53c0.03,0.18,0.09,0.38,0.14,0.56c0.02,0.02,0.02,0.06,0.03,0.08c0.1,0.34,0.21,0.67,0.31,1.01
			c0.14,0.46,0.3,0.92,0.49,1.38c0.07,0.21,0.14,0.4,0.23,0.59c0.05,0.17,0.12,0.34,0.19,0.51c0.07,0.19,0.14,0.38,0.23,0.56
			c0.21,0.51,0.43,1.02,0.69,1.52c0.1,0.24,0.23,0.48,0.35,0.73c0.03,0.08,0.09,0.17,0.14,0.25c0.19,0.4,0.42,0.8,0.64,1.2
			c0.17,0.32,0.36,0.63,0.56,0.93c0.1,0.18,0.21,0.36,0.33,0.53c0.3,0.48,0.63,0.97,0.97,1.44c0.76,1.09,1.63,2.16,2.6,3.19
			c0.21,0.24,0.43,0.47,0.66,0.7c0.45,0.46,0.92,0.92,1.42,1.36c0.23,0.22,0.49,0.45,0.75,0.67c1.27,1.09,2.69,2.11,4.24,3.07
			c0.31,0.19,0.63,0.39,0.95,0.56c0.31,0.19,0.64,0.38,0.97,0.55c0.33,0.19,0.66,0.36,1.01,0.53c0.35,0.18,0.69,0.35,1.06,0.51
			c0.35,0.17,0.71,0.34,1.08,0.48c0.36,0.17,0.73,0.32,1.11,0.46c0.38,0.16,0.76,0.32,1.16,0.45c0.4,0.15,0.8,0.29,1.2,0.42
			c1.22,0.41,2.48,0.79,3.8,1.12c0.43,0.12,0.89,0.23,1.35,0.33c1.35,0.32,2.78,0.59,4.27,0.81c0.49,0.08,0.99,0.16,1.51,0.22
			c0.76,0.11,1.55,0.19,2.34,0.28c0.4,0.05,0.8,0.07,1.22,0.11c0.4,0.04,0.82,0.06,1.23,0.1c24.46,1.67,44.31-8.83,58.37-20.27
			c1.13-0.93,2.24-1.87,3.32-2.8c0.19-0.17,0.38-0.34,0.56-0.51c1.16-1.03,2.27-2.05,3.32-3.07c1.35-1.29,2.6-2.56,3.78-3.79
			c1.13-1.18,2.17-2.32,3.14-3.42c0.33-0.38,0.64-0.73,0.95-1.09h0.02c0.63-0.73,1.23-1.44,1.79-2.12c0,0,0.17,1.09,0.99,2.12
			C302.22,4.54,302.29,4.61,302.36,4.69z"/>
	</g>
	<path class="st6" d="M89.24,2.35c-0.82,0.72-1.58,1.42-2.31,2.12C85.35,6,83.91,7.5,82.64,8.98c-1.11,1.29-2.08,2.55-2.97,3.79
		c-0.73,1.04-1.37,2.06-1.93,3.07c-0.1,0.17-0.19,0.34-0.28,0.51c-0.5,0.95-0.95,1.88-1.32,2.8c-0.83,2.09-1.35,4.12-1.55,6.13
		c-0.03-0.3-0.05-0.62-0.07-0.93c-0.03-0.68-0.03-1.35,0.02-2.02c0.03-0.7,0.12-1.39,0.23-2.1c0.07-0.36,0.12-0.72,0.21-1.08
		c0.19-0.92,0.47-1.85,0.82-2.8c0.05-0.17,0.12-0.34,0.19-0.51c0.19-0.53,0.4-1.05,0.64-1.59v-0.01c0.24-0.48,0.47-0.98,0.75-1.47
		c0.64-1.25,1.42-2.51,2.33-3.79c0.4-0.58,0.82-1.16,1.27-1.75c0.45-0.58,0.94-1.18,1.44-1.77c0-0.01,0-0.01,0-0.01
		c0.3-0.33,0.57-0.65,0.87-0.98c0.24-0.27,0.5-0.55,0.75-0.82c0-0.01,0.02-0.02,0.03-0.04c0.38-0.4,0.78-0.82,1.18-1.24
		c0.02-0.01,0.02-0.02,0.02-0.02H89.24z"/>
	<path class="st6" d="M360.07,12.99c0,0.15-0.02,0.3-0.02,0.46c-0.02-0.16-0.02-0.32-0.03-0.46c-0.07-1.29-0.19-2.51-0.36-3.66
		c-0.24-1.67-0.56-3.2-0.92-4.59c-0.21-0.82-0.43-1.6-0.68-2.33c0.35,0.01,0.69,0.02,1.02,0.05c0.07,0.24,0.12,0.48,0.17,0.74
		s0.1,0.52,0.14,0.78c0.05,0.27,0.1,0.55,0.14,0.84c0.02,0.11,0.03,0.23,0.05,0.34c0.05,0.35,0.1,0.7,0.16,1.07
		c0,0.06,0.02,0.11,0.02,0.17c0.05,0.42,0.1,0.85,0.14,1.29c0.03,0.42,0.07,0.87,0.1,1.32c0,0.12,0.02,0.25,0.02,0.39
		c0.02,0.22,0.03,0.44,0.03,0.65C360.08,10.99,360.1,11.97,360.07,12.99z"/>
	<path class="st6" d="M132.77,2.35c-0.73,0.41-1.55,0.86-2.45,1.33c-0.49,0.25-0.97,0.52-1.42,0.79c-2.38,1.37-4.34,2.89-5.92,4.51
		c-1.2,1.21-2.17,2.47-2.99,3.79c-0.68,1.15-1.25,2.35-1.67,3.58c-0.33,0.92-0.57,1.85-0.75,2.8c-0.14,0.73-0.23,1.45-0.3,2.19
		c-0.02-0.27-0.03-0.53-0.05-0.8c-0.02-0.47-0.03-0.93-0.02-1.39c0-0.95,0.07-1.88,0.19-2.8c0.17-1.22,0.45-2.41,0.85-3.58
		c0.33-0.99,0.73-1.95,1.22-2.89c0.17-0.3,0.35-0.61,0.56-0.91c0.05-0.12,0.12-0.23,0.19-0.34c0.78-1.24,1.74-2.42,2.86-3.56
		c0,0,0.02,0,0-0.01c0.21-0.19,0.42-0.4,0.66-0.59c0.76-0.74,1.63-1.44,2.59-2.12H132.77z"/>
	<path class="st6" d="M165.74,97.87h-1.13c-0.63-1.7-1.49-3.62-2.67-5.77c-0.31-0.57-0.64-1.15-1.01-1.76
		c-0.54-0.92-1.15-1.88-1.81-2.89l-0.02-0.01c-0.54-0.84-1.13-1.7-1.77-2.58c-0.92-1.29-2.07-2.55-3.39-3.79
		c-14.77-13.86-52.4-25.58-65.21-40.14c-3.26-3.7-4.25-8.04-3.82-12.5c0.1,1.01,0.3,2.01,0.61,2.98c0.05,0.21,0.12,0.42,0.21,0.63
		c0.23,0.67,0.5,1.33,0.85,1.98c0.1,0.22,0.23,0.44,0.36,0.64c0.23,0.42,0.5,0.85,0.82,1.26c0.14,0.21,0.3,0.4,0.47,0.61
		c0.14,0.22,0.33,0.42,0.5,0.63c6.11,6.93,17.87,13.24,30.09,19.42c0.07,0.04,0.14,0.07,0.21,0.1c2.88,1.48,5.8,2.93,8.68,4.39
		c0.09,0.06,0.19,0.11,0.28,0.15c1.3,0.67,2.59,1.32,3.87,1.99c0.03,0.02,0.09,0.05,0.12,0.06c1.65,0.86,3.28,1.73,4.88,2.59
		c0.82,0.45,1.61,0.9,2.41,1.35c4.34,2.45,8.32,4.93,11.6,7.49c0.3,0.23,0.59,0.46,0.87,0.69c0.3,0.23,0.57,0.47,0.85,0.7
		c0.26,0.23,0.54,0.47,0.8,0.7s0.5,0.47,0.76,0.7c1.23,1.18,2.29,2.36,3.16,3.58c0,0.01,0.02,0.01,0.02,0.02
		c0.24,0.33,0.47,0.64,0.69,0.97c0.23,0.33,0.45,0.67,0.68,0.99c0.36,0.53,0.71,1.07,1.06,1.59c0.26,0.44,0.52,0.85,0.78,1.26
		c0.31,0.52,0.61,1.03,0.9,1.54c0,0,0,0,0,0.01h0.02c0.17,0.32,0.35,0.63,0.5,0.93c0.16,0.28,0.3,0.55,0.43,0.81
		c0.14,0.28,0.28,0.53,0.42,0.8c0.05,0.11,0.1,0.23,0.16,0.34c0.31,0.61,0.57,1.2,0.82,1.76h0.02c0.56,1.31,1.01,2.5,1.35,3.58
		c0.03,0.15,0.09,0.3,0.12,0.45c0.03,0.12,0.07,0.24,0.1,0.36c0.09,0.27,0.14,0.51,0.21,0.75C165.65,97.45,165.7,97.66,165.74,97.87
		z"/>
	<path class="st6" d="M115.94,84.68c-0.38-4.13-2.17-8.28-6.46-11.75C94.75,61.01,72.04,53.7,60.25,33.32
		c-4.41-7.64-5.52-14.81-5.19-20.79c0.24,5.13,1.67,10.92,5.19,17.01c11.79,20.38,34.5,27.69,49.24,39.62
		C115.09,73.69,116.43,79.38,115.94,84.68z"/>
	<path class="st6" d="M397.22,59.48v3.77c0,0,0-0.01-0.02,0v-0.01c-4.74-1.33-9.81-2.29-15-2.53c-2.8-0.15-5.63-0.07-8.46,0.27
		c-5.16,0.58-10.31,2.04-15.28,4.63c-8.37,4.38-12.01,9.84-12.88,15.46c-0.05,0.29-0.09,0.59-0.12,0.89
		c-0.03-0.29-0.05-0.59-0.07-0.89c-0.03-0.67-0.02-1.32,0.02-1.99c0.02-0.36,0.05-0.73,0.09-1.08c0.03-0.33,0.09-0.65,0.14-0.97
		c0-0.06,0.02-0.13,0.03-0.19c0.05-0.34,0.12-0.68,0.21-1.01c0.1-0.41,0.23-0.84,0.35-1.25c0.1-0.3,0.21-0.61,0.33-0.9
		c0.28-0.7,0.61-1.42,0.99-2.11c0.23-0.39,0.45-0.78,0.71-1.16c0.26-0.39,0.54-0.78,0.83-1.15c0.14-0.19,0.3-0.39,0.45-0.57
		c0.17-0.21,0.33-0.4,0.5-0.59c0.83-0.93,1.81-1.84,2.9-2.72c0.23-0.18,0.45-0.36,0.68-0.53c0.24-0.17,0.49-0.35,0.73-0.52
		c0.24-0.17,0.49-0.35,0.75-0.52c1.02-0.68,2.15-1.33,3.37-1.98c4.97-2.61,10.12-4.05,15.28-4.63c2.85-0.33,5.66-0.4,8.46-0.25
		C387.39,57.18,392.46,58.14,397.22,59.48z"/>
	<path class="st6" d="M316.14,2.35c-0.5,0.69-1.04,1.39-1.6,2.12c-1.13,1.44-2.34,2.96-3.66,4.51c-1.04,1.24-2.15,2.51-3.32,3.79
		c-1.08,1.18-2.2,2.38-3.37,3.58c-0.9,0.93-1.86,1.87-2.81,2.8c-17.81,17.17-45.7,34.3-83.7,29.4
		c-32.97-4.24-46.53-16.94-51.56-29.4c-0.36-0.93-0.69-1.87-0.97-2.8c-0.38-1.2-0.68-2.4-0.9-3.58c-0.26-1.29-0.45-2.56-0.57-3.79
		c-0.12-1.44-0.19-2.84-0.17-4.18c0,0.15,0,0.29,0.02,0.44c0,0.23,0,0.46,0.03,0.7c0.03,0.99,0.1,2,0.24,3.04
		c0.17,1.24,0.4,2.51,0.73,3.79c0.3,1.18,0.66,2.38,1.11,3.58c0.07,0.19,0.16,0.4,0.23,0.59c0.14,0.34,0.3,0.69,0.43,1.03
		c0.17,0.4,0.36,0.79,0.56,1.18c5.54,11.3,19.32,22.46,50.83,26.31c36.77,4.49,64.06-10.58,81.93-26.31
		c1.06-0.93,2.08-1.87,3.09-2.8c1.27-1.2,2.48-2.39,3.65-3.58c1.27-1.29,2.47-2.55,3.59-3.79c1.41-1.55,2.71-3.06,3.92-4.51
		c0.61-0.73,1.18-1.43,1.72-2.12H316.14z"/>
	<path class="st6" d="M282.77,2.35c-0.61,0.64-1.3,1.36-2.05,2.12c-1.35,1.36-2.9,2.89-4.65,4.51c-1.32,1.22-2.73,2.5-4.24,3.79
		c-1.37,1.19-2.81,2.39-4.32,3.58c-1.18,0.95-2.41,1.88-3.66,2.8c-11.37,8.34-25.57,15.59-38.8,13.37
		c-11.06-1.85-16.01-7.35-17.9-13.37c-0.3-0.92-0.52-1.87-0.68-2.8c-0.21-1.2-0.31-2.4-0.35-3.58c-0.03-0.76-0.02-1.53,0.02-2.28
		c0.03,0.75,0.12,1.52,0.23,2.28c0.19,1.2,0.47,2.4,0.87,3.58c0.31,0.95,0.71,1.89,1.2,2.8c2.53,4.73,7.5,8.74,16.62,10.27
		c12.24,2.05,25.31-3.42,36.2-10.27c1.46-0.92,2.86-1.85,4.22-2.8c1.7-1.19,3.33-2.39,4.9-3.58c1.67-1.29,3.26-2.57,4.72-3.79
		c1.93-1.62,3.66-3.15,5.14-4.51c0.83-0.76,1.6-1.48,2.26-2.12H282.77z"/>
	<path class="st5" d="M185.11,2.27c-0.02,0.02-0.05,0.05-0.07,0.07C185.04,2.06,185.1,2.03,185.11,2.27z"/>
	<path class="st5" d="M359.09,2.46v0.01c-0.02-0.01-0.02-0.01-0.02-0.01H359.09z"/>
	<path class="st5" d="M397.22,59.46v0.02c-0.07-0.02-0.14-0.05-0.21-0.08C397.08,59.42,397.15,59.44,397.22,59.46z"/>
	<path class="st5" d="M383.5,84.52c-1.06,0.68-2.17,1.31-3.33,1.9C381.26,85.71,382.39,85.08,383.5,84.52z"/>
	<path class="st5" d="M165.75,97.84c0,0.01,0,0.01,0,0.02h-0.02C165.74,97.85,165.74,97.85,165.75,97.84z"/>
	<polygon class="st5" points="111.45,97.87 111.43,97.88 111.43,97.87 	"/>
	<path class="st5" d="M85.25,2.37c-0.07,0.11-0.43,0.59-1.18,1.24C84.45,3.21,84.85,2.78,85.25,2.37z"/>
	<path class="st5" d="M96.6,4.47c0,0.01-0.02,0.01-0.02,0.02c0,0-0.02-0.01-0.03-0.02H96.6z"/>
	<path class="st7" d="M305.66,66.7c-35.35-13.68-91.46,3.84-89.3,9.14c1.65,4.07,5.53,3.25,74.21,3.32
		c15.77,0.01,28.76,1.09,30.17-1.96C322.13,74.19,311.64,69.02,305.66,66.7z"/>
	<path class="st7" d="M345.19,20.93c-4.61-1.48-12.19,9.57-15.13,13.86c-3.53,5.14-9.43,13.74-7.08,16.11
		c3.09,3.11,21.58-3.39,25.16-15.92C349.74,29.36,348.5,21.99,345.19,20.93z"/>
	<path class="st7" d="M88.21,63.37c2.18-0.54,5.47,1.79,12.04,6.46c5.33,3.79,8,5.68,7.4,6.69c-1.37,2.3-15.57,3-20.7-2.43
		C83.34,70.28,84.96,64.18,88.21,63.37z"/>
	<path class="st7" d="M76.98,59.76c1.81,0.73,2.33,3.34,0.71,4.49c-2.13,1.5-7.32,0.02-7.65-1.43
		C69.68,61.28,74.5,58.76,76.98,59.76z"/>
	<path class="st8" d="M373.75,37.47v4.79c-7.6-4.51-15.21-8.44-22.85-11.25c-6.53-2.41-13.84-3.59-21.23-3.59H65.77
		c-7.93,0-15.78,1.38-22.67,4.12c-6.09,2.44-11.68,5.38-16.86,8.7v-2.78c0-0.91,0.1-1.81,0.28-2.68c0-0.01,0-0.02,0-0.02
		c1.89-8.8,12.85-15.61,25.96-15.61h295.06c4.17,0,8.11,0.69,11.61,1.92c0.19,0.06,0.38,0.13,0.57,0.21
		c1.63,0.59,3.18,1.32,4.58,2.15C370.07,26.78,373.75,31.83,373.75,37.47z"/>
	<path class="st8" d="M267.18,14.62c-0.57,0.41-1.15,0.82-1.74,1.22l-0.73,0.51c-1.39,0.96-2.83,1.89-4.31,2.8
		c-10.71,6.61-23.44,11.75-35.37,9.76c-8.78-1.47-13.72-5.25-16.3-9.76c-0.54-0.91-0.97-1.84-1.32-2.8
		c-0.07-0.17-0.12-0.34-0.17-0.51c-0.35-1.01-0.61-2.04-0.76-3.07c-0.03-0.16-0.05-0.33-0.09-0.48c2.66,3.79,9.22,10.58,22.59,11.18
		C242.44,24.08,258.97,18.05,267.18,14.62z"/>
	
		<linearGradient id="SVGID_00000125583025799110083360000009919999972911277464_" gradientUnits="userSpaceOnUse" x1="199.9998" y1="87.4404" x2="199.9998" y2="12.7733">
		<stop  offset="0" style="stop-color:#BC5A28"/>
		<stop  offset="0.1609" style="stop-color:#AD4C24"/>
		<stop  offset="0.5164" style="stop-color:#90321D"/>
		<stop  offset="0.8089" style="stop-color:#7F2217"/>
		<stop  offset="1" style="stop-color:#791C15"/>
	</linearGradient>
	<path style="fill:url(#SVGID_00000125583025799110083360000009919999972911277464_);" d="M367.95,14.82
		c-2.43-0.9-5.09-1.52-7.88-1.83h-0.05c-1.32-0.15-2.67-0.22-4.05-0.22H44.03c-13.39,0-24.53,7.1-26.04,16.18
		c0,0-0.02,0.01-0.02,0.02c-0.12,0.69-0.17,1.39-0.17,2.11v38.04c0,2.21,0.57,4.32,1.6,6.28c0.59,1.12,1.34,2.18,2.22,3.19
		c1.08,1.26,2.38,2.42,3.89,3.46c1.18,0.84,2.48,1.59,3.85,2.23c0.38,0.18,0.76,0.35,1.16,0.52c1.96,0.82,4.08,1.48,6.34,1.94
		c0.9,0.18,1.82,0.33,2.76,0.44c0.54,0.07,1.08,0.12,1.61,0.16c0.89,0.06,1.75,0.1,2.66,0.1h3.06h90.42h24.08h3.78h137.96h25.38
		h1.15h26.25c0.68,0,1.34-0.02,2.01-0.05c0.66-0.04,1.3-0.1,1.96-0.16c0,0,0,0,0.02,0c1.08-0.11,2.14-0.28,3.18-0.48
		c0.38-0.07,0.76-0.16,1.15-0.25c0.76-0.18,1.51-0.39,2.24-0.61c1.09-0.34,2.14-0.73,3.14-1.16c0.68-0.29,1.34-0.61,1.96-0.93
		c1.01-0.52,1.98-1.1,2.86-1.73c1.51-1.03,2.81-2.19,3.89-3.46c0.89-1.01,1.63-2.07,2.22-3.19c1.02-1.96,1.6-4.07,1.6-6.28V31.09
		C382.2,24.02,376.4,17.87,367.95,14.82z M373.75,62.75c0,10.07-11.79,18.32-26.22,18.32h-15.02h-1.81h-24.39H160.42h-3.09h-24.34
		H52.47c-0.63,0-1.23-0.01-1.84-0.05c-0.63-0.02-1.23-0.07-1.84-0.13h-0.02c-12.69-1.27-22.54-8.93-22.54-18.14V37.47
		c0-0.91,0.1-1.81,0.28-2.68c0-0.01,0-0.02,0-0.02c1.89-8.8,12.85-15.61,25.96-15.61h3.56h30h81.01h180.49
		c4.17,0,8.11,0.69,11.61,1.92c0.19,0.06,0.38,0.13,0.57,0.21c1.63,0.59,3.18,1.32,4.58,2.15c5.76,3.36,9.44,8.41,9.44,14.05V62.75z
		"/>
	<path class="st2" d="M367.95,14.82c-2.43-0.9-5.09-1.52-7.88-1.83h-0.05c-1.32-0.15-2.67-0.22-4.05-0.22H44.03
		c-13.39,0-24.53,7.1-26.04,16.18c0,0-0.02,0.01-0.02,0.02c-0.12,0.69-0.17,1.39-0.17,2.11v3.07c0-0.5,0.02-0.98,0.09-1.47
		c0.02-0.22,0.05-0.42,0.09-0.64c0-0.01,0.02-0.02,0.02-0.02c0.16-0.89,0.38-1.75,0.71-2.58c0-0.01,0-0.01,0-0.01
		c2.99-7.81,13.25-13.59,25.33-13.59h311.94c1.32,0,2.64,0.07,3.91,0.21h0.02c0.03,0,0.09,0.01,0.12,0.01h0.05
		c2.38,0.27,4.65,0.75,6.79,1.44c0.36,0.13,0.73,0.25,1.09,0.39c8.39,3.02,14.15,9.09,14.24,16.09c0.02,0.06,0.02,0.12,0.02,0.18
		v-3.07C382.2,24.02,376.4,17.87,367.95,14.82z"/>
</g>
</svg>
