<?xml version="1.0" encoding="utf-8"?>
<!-- Generator: Adobe Illustrator 28.5.0, SVG Export Plug-In . SVG Version: 9.03 Build 54727)  -->
<svg version="1.0" id="Layer_1" xmlns="http://www.w3.org/2000/svg" xmlns:xlink="http://www.w3.org/1999/xlink" x="0px" y="0px"
	 viewBox="0 0 50 50" style="enable-background:new 0 0 50 50;" xml:space="preserve">
<style type="text/css">
	.st0{fill:#592C0A;}
	.st1{opacity:0.5;fill:#CF6727;enable-background:new    ;}
	.st2{opacity:0.3;fill:#FFFDC0;enable-background:new    ;}
	.st3{opacity:0.5;fill:#B52E50;enable-background:new    ;}
	.st4{fill:url(#SVGID_1_);}
	.st5{fill:#4D8B71;}
	.st6{opacity:0.3;fill:#B52E50;enable-background:new    ;}
	.st7{opacity:0.4;fill:url(#SVGID_00000063592611896795105380000000367727636937815993_);enable-background:new    ;}
	.st8{opacity:0.1;fill:#752FB2;enable-background:new    ;}
	.st9{fill:#FFFFFF;}
	.st10{opacity:0.8;fill:#FFFDC0;enable-background:new    ;}
</style>
<g>
	<g>
		<path class="st0" d="M49.14,25c0,0.74-0.07,1.47-0.23,2.18c-0.26,1.26-0.76,2.53-1.47,3.75c-0.44,0.78-1.03,1.62-1.74,2.48
			c-0.04,0-0.07,0-0.11,0.01c-0.76,0.02-1.45,0.13-2.07,0.31c-0.17,0.05-0.34,0.1-0.5,0.17c-1.72,0.64-2.93,1.82-3.75,3.04
			c-0.89,1.31-1.35,2.65-1.55,3.37c-0.02,0.13-0.02,0.26-0.03,0.39c0,0.03-0.01,0.05-0.01,0.08c-0.03,0.02-0.06,0.04-0.09,0.06h0.01
			c-0.95,0.7-1.94,1.37-2.95,2.01c-0.02-0.01-0.05-0.02-0.07-0.02c-5.92-1.99-6.45,2.94-6.49,3.48v0.03c0,0.01,0.01,0.01,0.01,0.01
			l-0.01,0.01c-2.92,1.26-5.83,2.09-8.48,2.24c-0.33,0.02-0.65,0.03-0.96,0.03c-0.12,0-0.25,0-0.39-0.01c-0.09,0-0.18,0-0.26-0.01
			s-0.17-0.01-0.26-0.01c-3.63-4.8-7.19-3.34-8.38-2.64c-0.27,0.16-0.41,0.28-0.41,0.28c-3.03-1.73-5.79-4.68-7.08-9.64
			c0.19-0.21,0.37-0.42,0.53-0.63c0.16-0.21,0.3-0.41,0.44-0.61c0.01-0.01,0.01-0.02,0.02-0.03c1.82-2.81,0.75-4.84-0.37-6.01
			c-0.53-0.54-1.06-0.89-1.31-1.05c-0.02,0.01-0.04,0.01-0.06,0.02v-0.06c0-3.31,0-8.98,0-8.98c0-0.25,0.01-0.49,0.03-0.73
			c0.09-2.39,0.4-5.39,1.74-8.22c0.07-0.14,0.14-0.29,0.22-0.43c0.44-0.11,0.85-0.23,1.24-0.34C5.36,9.23,6.21,8.9,6.9,8.57
			C7,8.49,7.1,8.42,7.21,8.34C7.25,8.32,7.27,8.29,7.3,8.28C7.51,8.13,7.72,8,7.93,7.87c0.23-0.14,0.48-0.28,0.74-0.42
			c0.01,0,0.01,0,0.01,0C8.85,7.3,8.99,7.15,9.11,7c0.91-1.07,0.68-2.07,0.38-2.67C9.32,4,9.12,3.78,9.08,3.73
			c-0.01,0-0.01,0-0.01,0C9.08,3.72,9.1,3.71,9.11,3.71c2.79-1.55,6.03-2.32,9.65-2.32c2.41,0,4.89,0.5,7.58,1.51
			c0.25,0.1,0.5,0.2,0.76,0.3c0,0,0.04,0.02,0.11,0.04c0,0,0,0.01,0.01,0.02c0.09,0.2,0.16,0.43,0.25,0.68
			c0.01,0.02,0.01,0.05,0.02,0.07c0.01,0.02,0.01,0.03,0.02,0.05c0.01,0.01,0.01,0.02,0.01,0.03l0.01,0.01h0.01
			c0.2,0.51,0.51,1.17,0.94,1.78c0,0,0,0,0,0.01c0.91,1.32,2.32,2.36,4.24,0.98c0.19-0.13,0.38-0.29,0.58-0.48
			c0.01,0,0.02,0.01,0.02,0.01c0.65,0.4,1.31,0.82,1.97,1.26c0,0,0,0,0.01,0c0,0,0,0.01-0.01,0.02c-0.01,0.03-0.02,0.1-0.03,0.2
			c0,0.02-0.01,0.03-0.01,0.05C35.23,7.95,35.23,7.98,35.22,8c-0.01,0.03-0.01,0.05-0.01,0.08c0,0.02-0.01,0.03-0.01,0.05
			s0,0.03,0,0.05c-0.01,0.09-0.02,0.19-0.03,0.3c-0.04,0.51-0.04,1.21,0.1,1.92c0.01,0,0.02,0.01,0.03,0.02
			c-0.01,0.02-0.01,0.03-0.02,0.05c0.35,1.67,1.52,3.39,4.94,3.01c0.32-0.03,0.65-0.09,1.01-0.16c0.32-0.06,0.64-0.14,0.99-0.24
			h0.01C46.93,17.36,49.14,21.18,49.14,25z"/>
		<g>
			<path class="st1" d="M33.28,6.39c-0.06,0.24-0.12,0.48-0.19,0.71c-0.17,0.6-0.37,1.22-0.61,1.85v0.01
				c-0.65,1.78-1.52,3.65-2.51,5.57c-0.26,0.5-0.53,1-0.8,1.49c-0.4,0.74-0.81,1.47-1.24,2.21c-0.06,0.11-0.12,0.22-0.19,0.33
				c-1.5,2.6-3.12,5.2-4.64,7.66c-2.05,3.31-3.92,6.38-5.11,8.86c-0.22,0.46-0.42,0.9-0.58,1.32c-0.08,0.18-0.15,0.35-0.2,0.52
				c-0.07,0.18-0.13,0.36-0.19,0.53c-0.12,0.39-0.23,0.77-0.32,1.15c-0.01,0.01-0.01,0.01-0.01,0.02c-0.14,0.59-0.24,1.16-0.3,1.73
				c-0.05,0.43-0.08,0.85-0.09,1.26c-0.02,0.27-0.02,0.53-0.01,0.79v0.08c0.02,0.82,0.11,1.59,0.24,2.3
				c0.28,1.59,0.78,2.9,1.21,3.83c-3.63-4.8-7.19-3.34-8.38-2.64c-0.27,0.16-0.41,0.28-0.41,0.28c-0.37-1.09-0.74-2.57-0.75-4.04
				c0-0.61,0.05-1.21,0.2-1.77c0.01-0.02,0.01-0.05,0.02-0.07c0.1-0.37,0.23-0.74,0.41-1.07c0.32-0.59,1.05-1.55,2.06-2.77
				c0.07-0.09,0.15-0.18,0.23-0.28c0.5-0.6,1.06-1.26,1.66-1.97c0.02-0.02,0.04-0.05,0.06-0.08c0.11-0.13,0.22-0.27,0.34-0.41
				c0.23-0.27,0.46-0.54,0.69-0.82c0.42-0.49,0.85-1,1.3-1.52c1.38-1.62,2.86-3.38,4.28-5.17c2.48-3.08,4.82-6.26,6.36-9.03
				c0.05-0.09,0.1-0.18,0.15-0.27c0.46-0.84,0.84-1.64,1.11-2.38c0.18-0.48,0.32-0.93,0.41-1.35c0.02-0.12,0.05-0.23,0.07-0.34
				c0.41-1.96,0.55-3.67,0.51-5.12c0-0.1-0.01-0.21-0.01-0.31c0-0.16-0.01-0.31-0.02-0.47v0.01c0-0.03,0-0.06-0.01-0.09
				C28,6.81,27.99,6.69,27.97,6.57c0-0.04-0.01-0.08-0.01-0.12c-0.01-0.08-0.01-0.17-0.02-0.24c-0.01-0.06-0.01-0.12-0.02-0.17
				c-0.02-0.19-0.05-0.36-0.08-0.54c-0.03-0.2-0.07-0.39-0.11-0.57c-0.02-0.09-0.04-0.18-0.06-0.27c-0.05-0.2-0.1-0.39-0.15-0.57
				h0.01c0.2,0.51,0.51,1.17,0.94,1.78c0,0,0,0,0,0.01c0.91,1.32,2.32,2.36,4.24,0.98C32.89,6.73,33.08,6.57,33.28,6.39z"/>
			<path class="st1" d="M28.75,13.7c-0.08,0.48-0.17,0.97-0.29,1.49c-0.02,0.09-0.05,0.19-0.07,0.29v0.01
				c-0.2,0.75-0.52,1.56-0.93,2.43c-0.06,0.1-0.11,0.21-0.16,0.32c-1.21,2.39-3.13,5.16-5.27,7.95c-1.98,2.57-4.14,5.16-6.1,7.46
				c-0.32,0.38-0.63,0.75-0.94,1.11c-0.23,0.27-0.46,0.54-0.68,0.79c-0.23,0.28-0.47,0.56-0.69,0.82c-0.01,0.01-0.01,0.01,0,0.01
				c-0.02,0.02-0.04,0.03-0.05,0.05c-0.53,0.63-1.03,1.21-1.48,1.75c-0.15,0.19-0.29,0.36-0.43,0.53c-0.79,0.98-1.4,1.77-1.73,2.32
				c-0.01,0.02-0.02,0.05-0.04,0.07c-0.03,0.05-0.05,0.09-0.08,0.13c-0.26,0.48-0.43,1-0.53,1.54c-0.18,1.04-0.11,2.16,0.08,3.19
				c-0.27,0.16-0.41,0.28-0.41,0.28c-0.37-1.09-0.74-2.57-0.75-4.04c0-0.6,0.05-1.2,0.2-1.76c0.01-0.02,0.01-0.05,0.02-0.07
				c0.1-0.37,0.23-0.74,0.41-1.07c0.32-0.59,1.05-1.55,2.06-2.77c0.07-0.09,0.15-0.18,0.23-0.28c0.5-0.6,1.06-1.26,1.66-1.97
				c0.02-0.02,0.04-0.05,0.06-0.08c0.11-0.13,0.22-0.27,0.34-0.41c0.23-0.27,0.46-0.54,0.69-0.82c0.42-0.49,0.85-1,1.3-1.52
				c1.38-1.62,2.86-3.38,4.28-5.17c2.48-3.08,4.82-6.26,6.36-9.03c0.05-0.09,0.1-0.18,0.15-0.27c0.46-0.84,0.84-1.64,1.11-2.38
				c0.18-0.48,0.32-0.93,0.41-1.35c0.02-0.12,0.05-0.23,0.07-0.34c0.41-1.96,0.55-3.67,0.51-5.12c0-0.1-0.01-0.21-0.01-0.31
				c0-0.16-0.01-0.31-0.02-0.47v0.01c0-0.03,0-0.06-0.01-0.09C28,6.81,27.99,6.69,27.97,6.57c0-0.04-0.01-0.08-0.01-0.12
				c-0.01-0.08-0.01-0.17-0.02-0.24c-0.01-0.06-0.01-0.12-0.02-0.17c-0.02-0.19-0.05-0.36-0.08-0.54c-0.03-0.2-0.07-0.39-0.11-0.57
				c-0.02-0.09-0.04-0.18-0.06-0.27c-0.05-0.2-0.1-0.39-0.15-0.57h0.01c0.2,0.51,0.51,1.17,0.94,1.78c0,0,0,0,0,0.01
				c0.13,0.42,0.25,0.9,0.35,1.45C29.09,8.93,29.18,11.06,28.75,13.7z"/>
			<path class="st1" d="M42.22,13.07c-0.25,0.1-0.54,0.21-0.86,0.35h-0.01c-0.23,0.1-0.47,0.21-0.72,0.34
				c-1.7,0.82-4.01,2.18-6.07,4.27c-0.4,0.41-0.78,0.83-1.16,1.29c-0.48,0.59-0.93,1.23-1.35,1.91c-0.12,0.2-0.24,0.41-0.35,0.63
				c-0.76,1.38-1.35,2.95-1.69,4.73c-0.06,0.3-0.11,0.6-0.14,0.89c-0.12,0.88-0.18,1.74-0.16,2.57v0.01
				c0.01,0.35,0.02,0.7,0.05,1.04c0.03,0.42,0.08,0.83,0.13,1.23v0.01c0.05,0.36,0.12,0.72,0.19,1.07c0.01,0.02,0.01,0.03,0.01,0.05
				c0.09,0.41,0.18,0.81,0.29,1.21v0.01c0.08,0.3,0.17,0.59,0.26,0.87c0.41,1.27,0.93,2.44,1.49,3.49h0.01
				c0.01,0.02,0.02,0.04,0.04,0.06c0.29,0.54,0.58,1.05,0.89,1.52c0.54,0.85,1.07,1.58,1.56,2.18c0.01,0.02,0.02,0.03,0.04,0.05
				c-0.02-0.01-0.05-0.02-0.07-0.02c-5.92-1.99-6.45,2.94-6.49,3.48v0.03c0,0.01,0.01,0.01,0.01,0.01c0.01,0.01,0.01,0.02,0.01,0.03
				l-0.02-0.02c-0.01-0.01-0.01-0.02-0.02-0.03c-0.12-0.19-0.25-0.41-0.39-0.65c-0.08-0.14-0.15-0.29-0.23-0.45
				c-0.09-0.19-0.18-0.38-0.27-0.59c-0.05-0.11-0.09-0.21-0.13-0.33c-0.09-0.22-0.17-0.46-0.25-0.71c-0.03-0.08-0.05-0.16-0.08-0.25
				c-0.01-0.01-0.01-0.03-0.02-0.05c-0.1-0.33-0.19-0.68-0.27-1.05c-0.04-0.16-0.07-0.31-0.1-0.48c-0.03-0.14-0.06-0.3-0.08-0.45
				c-0.01-0.03-0.01-0.05-0.02-0.08c0-0.02-0.01-0.03-0.01-0.05c-0.03-0.23-0.06-0.47-0.09-0.71c-0.02-0.23-0.05-0.45-0.06-0.69
				c-0.01-0.13-0.02-0.25-0.02-0.38c-0.01-0.16-0.02-0.32-0.02-0.49c-0.01-0.12-0.01-0.23-0.01-0.35c-0.01-0.39-0.01-0.79,0.01-1.21
				c0.02-0.43,0.05-0.89,0.1-1.36v-0.05c0-0.02,0.01-0.03,0.01-0.05c0.05-0.46,0.11-0.94,0.19-1.44c0.01-0.09,0.02-0.19,0.04-0.28
				v-0.01c0.05-0.31,0.11-0.63,0.18-0.96c0,0,0,0,0.01-0.01c0.02-0.14,0.05-0.27,0.08-0.42c0.04-0.2,0.09-0.4,0.13-0.61
				c0.03-0.14,0.06-0.28,0.11-0.42c0.03-0.14,0.07-0.28,0.11-0.43c0.05-0.21,0.11-0.42,0.17-0.63s0.12-0.42,0.18-0.64
				c0.12-0.43,0.25-0.86,0.37-1.31c0.18-0.59,0.36-1.19,0.54-1.8c0.09-0.31,0.19-0.61,0.29-0.92c0.15-0.46,0.3-0.93,0.45-1.4
				c0.08-0.23,0.16-0.46,0.23-0.7c0.23-0.7,0.47-1.41,0.72-2.11c0.08-0.24,0.16-0.48,0.25-0.71c0.06-0.17,0.12-0.33,0.18-0.5
				c0.06-0.19,0.13-0.37,0.2-0.56c0.29-0.8,0.57-1.6,0.86-2.38v-0.01c0.11-0.28,0.2-0.56,0.31-0.83c0.1-0.28,0.2-0.56,0.3-0.83
				c0.28-0.74,0.55-1.47,0.83-2.18c0.09-0.23,0.18-0.46,0.26-0.68c0.35-0.91,0.69-1.78,1.02-2.61c0.08-0.21,0.16-0.41,0.24-0.61
				c0.06-0.14,0.11-0.27,0.16-0.41c0.05-0.13,0.11-0.27,0.16-0.39c0.11-0.25,0.21-0.51,0.3-0.76c0.09-0.24,0.19-0.47,0.28-0.69
				c0,0,0,0,0.01,0c0,0,0,0.01-0.01,0.02c-0.01,0.06-0.07,0.36-0.11,0.79c-0.04,0.51-0.04,1.21,0.1,1.92c0.01,0,0.02,0.01,0.03,0.02
				c-0.01,0.02-0.01,0.03-0.02,0.05c0.35,1.67,1.52,3.39,4.94,3.01c0.32-0.03,0.65-0.09,1.01-0.16
				C41.54,13.25,41.87,13.17,42.22,13.07z"/>
			<path class="st1" d="M35.3,10.41c-0.01,0.02-0.01,0.03-0.02,0.05c-0.74,1.84-1.56,3.96-2.41,6.19c-0.21,0.56-0.42,1.12-0.62,1.69
				c-0.29,0.78-0.58,1.56-0.86,2.36c-0.08,0.21-0.15,0.42-0.22,0.64c-0.7,1.97-1.38,3.95-1.99,5.88v0.01
				c-0.46,1.43-0.87,2.83-1.24,4.17c-0.1,0.37-0.2,0.74-0.29,1.09c-0.01,0.02-0.01,0.04-0.02,0.06c-0.12,0.46-0.23,0.92-0.32,1.36
				c-0.12,0.52-0.21,1.03-0.29,1.52v0.01c-0.01,0.02-0.01,0.03-0.01,0.05c-0.08,0.49-0.14,0.97-0.19,1.43
				c-0.05,0.42-0.08,0.83-0.1,1.23c-0.06,1.07-0.05,2.04,0.03,2.93c0,0.03,0,0.05,0.01,0.08c0.06,0.75,0.17,1.44,0.3,2.06
				c0.27,1.27,0.65,2.29,1.03,3.09c0.01,0.01,0.01,0.02,0.01,0.02c0,0.01,0.01,0.01,0.01,0.01c0.01,0.01,0.01,0.02,0.01,0.03
				l-0.02-0.02c-0.01-0.01-0.01-0.02-0.02-0.03c-0.12-0.19-0.25-0.41-0.39-0.65c-0.08-0.14-0.15-0.29-0.23-0.45
				c-0.09-0.19-0.18-0.38-0.27-0.59c-0.05-0.11-0.09-0.21-0.13-0.33c-0.09-0.22-0.17-0.46-0.25-0.71c-0.03-0.08-0.05-0.16-0.08-0.25
				c-0.01-0.01-0.01-0.03-0.02-0.05c-0.1-0.33-0.19-0.68-0.27-1.05c-0.04-0.16-0.07-0.31-0.1-0.48c-0.03-0.14-0.06-0.3-0.08-0.45
				c-0.01-0.03-0.01-0.05-0.02-0.08c0-0.02-0.01-0.03-0.01-0.05c-0.03-0.23-0.06-0.47-0.09-0.71c-0.02-0.23-0.05-0.45-0.06-0.69
				c-0.01-0.13-0.02-0.25-0.02-0.38c-0.01-0.16-0.02-0.32-0.02-0.49c-0.01-0.12-0.01-0.23-0.01-0.35c-0.01-0.39-0.01-0.79,0.01-1.21
				c0.02-0.43,0.05-0.89,0.1-1.36v-0.05c0-0.02,0.01-0.03,0.01-0.05c0.05-0.46,0.11-0.94,0.19-1.44c0.01-0.09,0.02-0.19,0.04-0.28
				v-0.01c0.05-0.31,0.11-0.63,0.18-0.96c0,0,0.01,0,0.01-0.01c0.02-0.14,0.05-0.27,0.08-0.42c0.05-0.2,0.09-0.4,0.14-0.61v-0.01
				c0.06-0.28,0.13-0.56,0.21-0.85c0.05-0.21,0.11-0.42,0.16-0.63c0.06-0.21,0.12-0.42,0.18-0.64c0.12-0.43,0.25-0.86,0.37-1.31
				c0.18-0.59,0.36-1.19,0.54-1.8c0.09-0.31,0.19-0.61,0.29-0.92c0.15-0.46,0.3-0.93,0.45-1.4c0.08-0.23,0.16-0.46,0.23-0.7
				c0.23-0.7,0.47-1.41,0.72-2.11c0.08-0.24,0.16-0.48,0.25-0.71c0.06-0.17,0.12-0.33,0.18-0.5c0.06-0.19,0.13-0.37,0.2-0.56
				c0.29-0.8,0.57-1.6,0.86-2.38v-0.01c0.11-0.28,0.2-0.56,0.31-0.83c0.11-0.28,0.2-0.55,0.31-0.83c0.27-0.74,0.55-1.47,0.82-2.18
				c0.09-0.23,0.18-0.46,0.26-0.68c0.35-0.91,0.69-1.78,1.02-2.61c0.08-0.21,0.16-0.41,0.25-0.61c0.05-0.14,0.11-0.27,0.16-0.41
				c0.05-0.13,0.11-0.27,0.16-0.39c0.11-0.25,0.21-0.51,0.3-0.76c0.1-0.24,0.19-0.47,0.29-0.69c0,0-0.07,0.32-0.11,0.81
				c-0.04,0.51-0.04,1.21,0.1,1.92C35.28,10.4,35.28,10.4,35.3,10.41z"/>
			<path class="st1" d="M45.71,33.41c-0.04,0-0.07,0-0.11,0.01c-0.76,0.02-1.45,0.13-2.07,0.31c-0.17,0.05-0.34,0.1-0.5,0.17
				c-1.72,0.64-2.93,1.82-3.75,3.04c-0.89,1.31-1.35,2.65-1.55,3.37c-0.02,0.13-0.02,0.26-0.03,0.39c0,0.03-0.01,0.05-0.01,0.08
				c-0.03,0.02-0.06,0.04-0.09,0.06v-0.08c0-0.19,0.01-0.39,0.01-0.59c0-0.23,0.01-0.46,0.02-0.7c0.01-0.22,0.02-0.44,0.04-0.67
				c0.02-0.28,0.04-0.57,0.06-0.86c0.04-0.5,0.1-0.99,0.18-1.48c0.02-0.13,0.04-0.25,0.06-0.38c0.01-0.03,0.01-0.06,0.01-0.09h0.01
				c0.01-0.04,0.01-0.08,0.02-0.12c0.13-0.65,0.29-1.28,0.48-1.84c0.1-0.27,0.2-0.52,0.32-0.76c0.08-0.16,0.16-0.31,0.25-0.46
				c0.07-0.11,0.14-0.21,0.21-0.31c0.08-0.09,0.15-0.19,0.23-0.27c0.11-0.11,0.22-0.21,0.33-0.3c1.3-0.99,2.73-0.68,3.96,0.01
				c0.02,0.01,0.04,0.02,0.06,0.03c0.32,0.19,0.63,0.39,0.92,0.61c0.32,0.24,0.61,0.5,0.86,0.74
				C45.67,33.37,45.69,33.39,45.71,33.41z"/>
			<path class="st1" d="M45.71,33.41c-0.04,0-0.07,0-0.11,0.01c-0.76,0.02-1.45,0.13-2.07,0.31c-0.17,0.05-0.34,0.1-0.5,0.17
				c-0.41-0.16-0.84-0.26-1.27-0.27c-0.04-0.01-0.08-0.01-0.12-0.01c-0.61,0-1.22,0.19-1.8,0.64c-0.38,0.29-0.69,0.7-0.95,1.2
				c0,0-0.01,0-0.01,0.01c-0.02,0.04-0.04,0.08-0.06,0.12c-0.3,0.61-0.54,1.34-0.71,2.14c-0.18,0.82-0.3,1.7-0.37,2.59
				c-0.02,0.13-0.02,0.26-0.03,0.39c0,0.03-0.01,0.05-0.01,0.08c-0.03,0.02-0.06,0.04-0.09,0.06H37.6v-0.08
				c0.01-0.16,0.01-0.32,0.01-0.49c0-0.03,0-0.07,0.01-0.1c0-0.23,0.01-0.46,0.02-0.7c0.01-0.22,0.02-0.44,0.04-0.67
				c0.02-0.28,0.04-0.57,0.06-0.86c0.04-0.5,0.1-0.99,0.18-1.48c0.02-0.13,0.04-0.25,0.06-0.38c0.01-0.03,0.01-0.06,0.01-0.09H38
				c0.01-0.04,0.01-0.08,0.02-0.12c0.13-0.65,0.29-1.28,0.48-1.84c0.1-0.27,0.2-0.52,0.32-0.76c0.08-0.16,0.16-0.31,0.25-0.46
				c0.07-0.11,0.14-0.21,0.21-0.31c0.08-0.09,0.15-0.19,0.23-0.27c0.11-0.11,0.22-0.21,0.33-0.3c1.3-0.99,2.73-0.68,3.96,0.01
				c0.02,0.01,0.04,0.02,0.06,0.03c0.32,0.19,0.63,0.39,0.92,0.61c0.32,0.24,0.61,0.5,0.86,0.74
				C45.67,33.37,45.69,33.39,45.71,33.41z"/>
			<path class="st1" d="M15.8,14.68v0.13c0,0.1,0,0.21-0.01,0.32c-0.01,0.1-0.01,0.21-0.02,0.32c-0.01,0.1-0.02,0.2-0.04,0.31
				c-0.02,0.18-0.05,0.36-0.09,0.54c-0.02,0.12-0.04,0.23-0.07,0.35c0,0.03-0.01,0.05-0.02,0.08c-0.03,0.15-0.08,0.31-0.12,0.46
				c-0.04,0.17-0.09,0.34-0.15,0.52c-0.02,0.08-0.05,0.16-0.08,0.24c-0.13,0.41-0.29,0.83-0.47,1.25c-0.06,0.16-0.13,0.32-0.21,0.48
				c-0.07,0.16-0.15,0.32-0.22,0.49c-0.16,0.32-0.32,0.65-0.49,0.98c-0.18,0.33-0.36,0.66-0.55,1c0.01-0.01,0.01-0.02,0.01-0.03
				c-0.25,0.44-0.51,0.88-0.79,1.33c-0.64,1.03-1.34,2.06-2.07,3.08C8,29.85,5.2,33.05,2.93,35.49c-0.01,0.01-0.02,0.02-0.02,0.03
				c-0.17,0.18-0.33,0.35-0.49,0.52c-0.19,0.2-0.37,0.39-0.55,0.58c0.19-0.21,0.37-0.42,0.53-0.63c0.16-0.21,0.3-0.41,0.44-0.61
				c0.01-0.01,0.01-0.02,0.02-0.03c1.82-2.81,0.75-4.84-0.37-6.01c-0.53-0.54-1.06-0.89-1.31-1.05c0.18-0.09,0.37-0.17,0.57-0.27
				c0.06-0.03,0.13-0.06,0.2-0.09c0.13-0.06,0.26-0.13,0.4-0.19c0.13-0.06,0.27-0.13,0.4-0.2c0.33-0.17,0.68-0.35,1.03-0.54
				s0.71-0.38,1.07-0.6c0.18-0.1,0.36-0.21,0.55-0.32c0.2-0.12,0.4-0.24,0.6-0.36c0.17-0.1,0.33-0.21,0.5-0.32
				c0.18-0.12,0.37-0.24,0.55-0.37c0.37-0.25,0.74-0.52,1.09-0.79C8.3,24.12,8.46,24,8.61,23.88c0.02-0.02,0.05-0.05,0.08-0.06
				c0.16-0.13,0.32-0.26,0.48-0.41c0.17-0.14,0.33-0.28,0.5-0.44c0.16-0.15,0.32-0.3,0.48-0.45c0.09-0.1,0.19-0.2,0.29-0.3v-0.01
				c0.05-0.06,0.11-0.11,0.16-0.17c0.44-0.47,0.85-0.96,1.2-1.46c0.27-0.38,0.51-0.77,0.71-1.18c0.22-0.42,0.4-0.86,0.54-1.3
				c0.01-0.02,0.01-0.05,0.02-0.07c0.34-1.1,0.42-2.26,0.15-3.48V14.5c-0.27-1.25-0.75-2.22-1.37-2.95
				c-1.48-1.77-3.78-2.2-6.03-2.07H5.8C5.28,9.51,4.76,9.57,4.26,9.65c-0.4,0.06-0.79,0.14-1.17,0.23c0.44-0.11,0.85-0.23,1.24-0.34
				C5.36,9.23,6.21,8.9,6.9,8.57C7,8.49,7.1,8.42,7.21,8.34C7.25,8.32,7.27,8.29,7.3,8.28C7.51,8.13,7.72,8,7.93,7.87
				c0.23-0.14,0.48-0.28,0.74-0.42c0.01,0,0.01,0,0.01,0C8.85,7.3,8.99,7.15,9.11,7c0.91-1.07,0.68-2.07,0.38-2.67
				C9.32,4,9.12,3.78,9.08,3.73c0.2,0.15,0.41,0.31,0.62,0.48c0.55,0.44,1.1,0.93,1.65,1.48C11.5,5.84,11.66,6,11.81,6.16
				c0.15,0.16,0.3,0.32,0.45,0.5c0.45,0.51,0.88,1.06,1.27,1.65c0.26,0.39,0.5,0.79,0.73,1.21c0.31,0.57,0.59,1.17,0.82,1.8
				c0.06,0.15,0.11,0.3,0.16,0.45c0.01,0.02,0.01,0.05,0.02,0.07c0.01,0.03,0.02,0.08,0.03,0.11c0.02,0.05,0.04,0.1,0.05,0.15
				c0.13,0.44,0.25,0.89,0.33,1.36c0.03,0.13,0.05,0.26,0.08,0.39c0.02,0.13,0.03,0.25,0.04,0.39v0.02
				C15.79,14.41,15.8,14.54,15.8,14.68z"/>
			<path class="st1" d="M11.78,20.52c0,0.01-0.01,0.01-0.01,0.02c-0.3,0.88-0.77,1.72-1.36,2.51c-1.94,2.65-5.18,4.78-7.94,6.26
				c-0.53-0.54-1.06-0.89-1.31-1.05c0.18-0.09,0.37-0.17,0.57-0.27c0.06-0.03,0.13-0.06,0.2-0.09c0.13-0.06,0.26-0.13,0.4-0.19
				c0.13-0.06,0.27-0.13,0.4-0.2c0.33-0.17,0.68-0.35,1.03-0.54s0.71-0.39,1.07-0.6c0.18-0.1,0.36-0.21,0.55-0.32
				c0.2-0.12,0.4-0.24,0.6-0.36c0.17-0.11,0.34-0.21,0.5-0.32c0.19-0.12,0.37-0.24,0.55-0.37c0.37-0.25,0.74-0.52,1.09-0.79
				c0.16-0.12,0.32-0.24,0.47-0.36c0.02-0.02,0.05-0.05,0.08-0.06c0.16-0.13,0.32-0.27,0.48-0.41c0.17-0.14,0.33-0.29,0.5-0.44
				s0.32-0.3,0.48-0.45c0.09-0.1,0.19-0.2,0.29-0.3v-0.01c0.05-0.06,0.11-0.11,0.16-0.17C11.02,21.53,11.43,21.03,11.78,20.52z"/>
			<path class="st1" d="M15.81,14.77c0,0.12-0.01,0.24-0.01,0.36c-0.01,0.1-0.01,0.21-0.02,0.32c-0.01,0.1-0.02,0.2-0.04,0.31
				c-0.02,0.18-0.05,0.36-0.09,0.54c-0.02,0.12-0.04,0.23-0.07,0.35c0,0.03-0.01,0.05-0.02,0.08c-0.03,0.15-0.08,0.31-0.12,0.46
				c-0.04,0.17-0.09,0.34-0.15,0.52c-0.02,0.08-0.05,0.16-0.08,0.24c-0.13,0.41-0.29,0.83-0.47,1.25c-0.06,0.16-0.13,0.32-0.21,0.48
				c-0.07,0.16-0.15,0.32-0.22,0.49c-0.16,0.32-0.32,0.65-0.49,0.98c-0.18,0.33-0.36,0.66-0.55,1c0.01-0.01,0.01-0.02,0.01-0.03
				c1.01-2.2,1.53-4.26,1.27-5.96c-0.03-0.17-0.06-0.35-0.09-0.52c-0.16-0.8-0.38-1.56-0.66-2.27c-0.37-0.94-0.83-1.8-1.35-2.6
				c-0.93-1.43-2.05-2.63-3.16-3.62H9.27C9.22,7.09,9.17,7.04,9.11,7c0.91-1.07,0.68-2.07,0.38-2.67C9.32,4,9.12,3.78,9.08,3.73
				c0.2,0.15,0.41,0.31,0.62,0.48c0.55,0.44,1.1,0.93,1.65,1.48C11.5,5.84,11.66,6,11.81,6.16c0.15,0.16,0.3,0.32,0.45,0.5
				c0.44,0.51,0.87,1.06,1.27,1.65c0.26,0.39,0.5,0.79,0.73,1.21c0.31,0.57,0.59,1.17,0.82,1.8c0.06,0.15,0.11,0.3,0.16,0.45
				c0.01,0.02,0.01,0.05,0.02,0.07c0.01,0.03,0.02,0.07,0.03,0.1c0.01,0.05,0.03,0.1,0.04,0.16c0.13,0.44,0.25,0.89,0.33,1.36
				c0.03,0.13,0.05,0.26,0.07,0.39c0.02,0.13,0.04,0.25,0.05,0.39v0.02c0.01,0.14,0.02,0.27,0.02,0.42
				C15.81,14.71,15.81,14.74,15.81,14.77z"/>
		</g>
		<path class="st2" d="M4.33,9.53C5.36,9.23,6.21,8.9,6.9,8.57C6.51,8.85,6.15,9.16,5.81,9.48H5.8c-0.74,0.7-1.36,1.47-1.86,2.29
			c-1.22,2.03-1.53,4.17-1.62,5.92c0.09-2.18,0.4-4.87,1.62-7.42c0.1-0.21,0.2-0.42,0.32-0.62C4.28,9.62,4.3,9.57,4.33,9.53z"/>
		<path class="st2" d="M35.27,10.4c-0.3-0.17-0.6-0.33-0.89-0.49h-0.01c-0.63-0.34-1.26-0.66-1.89-0.96l0,0
			c-0.18-0.09-0.36-0.17-0.54-0.25c-1.07-0.51-2.11-0.97-3.14-1.37c-0.26-0.1-0.53-0.21-0.79-0.3V7.02C27.67,6.9,27.33,6.78,27,6.67
			c-0.09-0.03-0.43-0.13-0.43-0.13c-0.24-0.08-0.47-0.16-0.71-0.23c-2.51-0.75-4.83-1.12-7.09-1.12c-2.53,0-4.86,0.32-6.97,0.97
			c-0.71,0.21-1.39,0.46-2.05,0.75C9.6,6.99,9.43,7.06,9.28,7.14H9.27c-0.2,0.1-0.4,0.2-0.6,0.31C8.85,7.3,8.99,7.15,9.11,7
			c0.91-1.07,0.68-2.07,0.38-2.67c0.07-0.04,0.13-0.08,0.2-0.12C9.72,4.2,9.74,4.19,9.76,4.18c2.62-1.44,5.63-2.16,9.02-2.16
			c2.26,0,4.58,0.46,7.09,1.4c0.24,0.09,0.47,0.19,0.71,0.28c0,0,0.33,0.13,0.43,0.17c0.17,0.07,0.34,0.14,0.51,0.21l0.01,0.01h0.01
			c0.2,0.51,0.51,1.17,0.94,1.78c0,0,0,0,0,0.01c0.91,1.32,2.32,2.36,4.24,0.98c0.12,0.08,0.25,0.16,0.39,0.24
			c0.63,0.39,1.27,0.81,1.9,1.25c0.06,0.04,0.12,0.08,0.18,0.12C35.13,8.98,35.13,9.68,35.27,10.4z"/>
		<path class="st2" d="M45.09,17.71c-1.06-1.27-2.54-2.58-4.46-3.95c-0.13-0.1-0.27-0.19-0.41-0.29c0.32-0.03,0.65-0.09,1.01-0.16
			c0.04,0.04,0.08,0.08,0.12,0.12h0.01C42.93,14.91,44.17,16.32,45.09,17.71z"/>
		<path class="st1" d="M49.04,25c0,0.19-0.01,0.36-0.01,0.55c0,0.05-0.01,0.1-0.01,0.16v0.02c-0.03,0.49-0.1,0.97-0.2,1.45
			c-0.26,1.26-0.75,2.53-1.47,3.75c-0.44,0.76-1.01,1.58-1.69,2.43c-0.01,0.02-0.03,0.04-0.05,0.06c-0.76,0.02-1.45,0.13-2.07,0.31
			c-0.17,0.05-0.34,0.1-0.5,0.17c-1.72,0.64-2.93,1.82-3.75,3.04c-0.89,1.31-1.35,2.65-1.55,3.37c-0.02,0.13-0.02,0.26-0.03,0.39
			c-0.03,0.02-0.05,0.04-0.08,0.06c0,0,0,0,0,0.01c-0.01,0-0.01,0-0.01,0.01H37.6c-0.96,0.71-1.96,1.39-2.98,2.04
			c-0.01,0.01-0.02,0.02-0.04,0.02c-5.92-1.99-6.45,2.94-6.49,3.48c-0.01,0-0.01,0.01-0.01,0.01c-0.01,0-0.01,0.01-0.01,0.01
			c-2.91,1.26-5.82,2.1-8.45,2.27c-0.33,0.02-0.65,0.03-0.96,0.03c-0.12,0-0.25,0-0.39-0.01c-0.09,0-0.18,0-0.26-0.01
			c-0.08,0-0.17-0.01-0.25-0.01l-0.01-0.01c-3.63-4.8-7.19-3.34-8.38-2.64c-0.27,0.16-0.41,0.28-0.41,0.28
			c-3.03-1.73-5.79-4.68-7.08-9.64c0.19-0.21,0.37-0.42,0.53-0.63c0.16-0.21,0.3-0.41,0.44-0.61c0.01-0.01,0.01-0.02,0.02-0.03
			c0.03,0.05,0.05,0.09,0.08,0.14c1.37,2.3,3.34,3.86,5.48,4.91c0.5,0.25,1,0.46,1.52,0.65c2.2,0.83,4.47,1.21,6.37,1.36
			c0.88,0.08,1.68,0.1,2.35,0.1c2.35,0,4.94-0.46,7.58-1.25c0.17-0.05,0.34-0.1,0.51-0.15c1.8-0.56,3.61-1.25,5.38-2.05h0.01
			c2.03-0.91,4.02-1.95,5.85-3.04h0.01c0.3-0.19,0.6-0.36,0.89-0.54c0-0.01,0.01-0.01,0.01-0.01c0.97-0.6,1.89-1.22,2.76-1.84
			c0.77-0.55,1.49-1.1,2.16-1.65c1.53-1.26,2.76-2.49,3.54-3.59c0.71-0.98,1.2-1.99,1.47-3c0.1-0.38,0.18-0.76,0.2-1.15
			c0,0.03,0.01,0.05,0.01,0.08v0.01l0.02,0.3C49.04,24.74,49.04,24.87,49.04,25z"/>
		<path class="st3" d="M49.04,25.08c0,0.16-0.01,0.31-0.02,0.46c0,0.05-0.01,0.1-0.01,0.16v-0.05c-0.03,0.38-0.1,0.76-0.2,1.15
			c-0.26,1-0.75,2.01-1.46,3c-0.61,0.86-1.48,1.81-2.56,2.82c-0.39,0.36-0.81,0.74-1.26,1.11c-0.17,0.05-0.34,0.1-0.5,0.17
			c-1.72,0.64-2.93,1.82-3.75,3.04c-0.39,0.25-0.78,0.52-1.17,0.78c-0.12,0.08-0.25,0.16-0.37,0.24c-1.48,0.94-3.06,1.84-4.68,2.67
			c-1.96,1.01-3.99,1.9-6,2.6c-0.11,0.04-0.22,0.08-0.33,0.12c-2.81,0.96-5.58,1.54-8.08,1.54c-0.62,0-1.33-0.03-2.11-0.12
			c-2.13-0.22-4.76-0.79-7.25-2c-0.37-0.18-0.74-0.37-1.09-0.58c-2.34-1.35-4.46-3.33-5.78-6.18c-0.01-0.02-0.02-0.03-0.02-0.05
			c0.16-0.21,0.3-0.41,0.44-0.61c0.02,0.05,0.05,0.09,0.08,0.13c1.37,2.32,3.34,3.89,5.48,4.95c0.49,0.25,0.99,0.46,1.5,0.65
			c2.21,0.84,4.49,1.22,6.41,1.37c0.88,0.08,1.67,0.1,2.35,0.1c2.35,0,4.95-0.46,7.6-1.25c0.16-0.05,0.33-0.1,0.5-0.15
			c1.81-0.56,3.64-1.26,5.42-2.06c2.01-0.9,3.98-1.93,5.8-3.01c0.29-0.17,0.57-0.34,0.85-0.52c1.04-0.64,2.02-1.3,2.94-1.95
			c0.75-0.54,1.46-1.09,2.11-1.62c1.51-1.25,2.7-2.46,3.48-3.55c0.71-0.98,1.2-1.99,1.46-2.99c0.11-0.38,0.18-0.76,0.2-1.15
			l0.02,0.3C49.04,24.77,49.04,24.93,49.04,25.08z"/>
		
			<linearGradient id="SVGID_1_" gradientUnits="userSpaceOnUse" x1="25.12" y1="11.6" x2="25.12" y2="43.06" gradientTransform="matrix(1 0 0 -1 0 52)">
			<stop  offset="0.2206" style="stop-color:#D16B00"/>
			<stop  offset="0.567" style="stop-color:#A64006"/>
			<stop  offset="0.7554" style="stop-color:#932D09"/>
		</linearGradient>
		<path class="st4" d="M39.83,24.67c0,0.15-0.01,0.29-0.05,0.45c-0.08,0.41-0.26,0.87-0.56,1.37C36.24,31.67,22.91,40.4,17.71,40.4
			c-6.2,0-7.19-3.94-7.3-9.56V18.11h0.01c0.07-2.37,0.32-4.41,1.07-5.98c0.32-0.66,0.74-1.24,1.28-1.71
			c0.09-0.08,0.19-0.16,0.29-0.23c0.19-0.15,0.4-0.28,0.62-0.4c1.01-0.55,2.32-0.85,4.01-0.85c0.98,0,2.19,0.29,3.54,0.79
			c0.28,0.1,0.54,0.21,0.83,0.32c1.39,0.58,2.91,1.37,4.45,2.27c2.78,1.62,5.62,3.66,7.95,5.64C37.61,20.61,39.83,23.19,39.83,24.67
			z"/>
		<path class="st5" d="M37.76,25c0,0.13-0.01,0.26-0.05,0.39c-0.07,0.36-0.23,0.77-0.48,1.2C34.68,31.14,23.22,38.8,18.76,38.8
			c-5.33,0-6.18-3.46-6.27-8.38V19.25h0.01c0.06-2.08,0.27-3.87,0.92-5.24c0.27-0.58,0.64-1.09,1.1-1.5
			c0.08-0.07,0.16-0.14,0.25-0.21c0.16-0.13,0.34-0.25,0.53-0.35c0.86-0.48,1.99-0.75,3.45-0.75c0.84,0,1.88,0.26,3.04,0.7
			c0.24,0.09,0.47,0.19,0.72,0.28c1.19,0.51,2.5,1.2,3.82,1.99c2.39,1.42,4.83,3.21,6.83,4.95C35.85,21.44,37.76,23.7,37.76,25z"/>
		<path class="st6" d="M37.41,26.1c-0.06,0.16-0.14,0.32-0.24,0.49C34.6,31.14,23.14,38.8,18.68,38.8c-5.32,0-6.19-3.46-6.27-8.38
			v-1.75c0.09,4.93,0.98,8.38,6.57,8.38C23.24,37.05,33.6,30.67,37.41,26.1z"/>
		
			<radialGradient id="SVGID_00000057852141733795799480000002768324049947241403_" cx="22.9262" cy="34.5992" r="10.3919" gradientTransform="matrix(1.0089 0 0 -1.001 1.9898 53.5338)" gradientUnits="userSpaceOnUse">
			<stop  offset="0" style="stop-color:#FFD4BD"/>
			<stop  offset="1" style="stop-color:#C184B9"/>
		</radialGradient>
		<path style="opacity:0.4;fill:url(#SVGID_00000057852141733795799480000002768324049947241403_);enable-background:new    ;" d="
			M37.76,25c0,0.13-0.01,0.26-0.05,0.39c-0.07,0.36-0.23,0.77-0.48,1.2c-2.53-4.26-13.74-12.33-18.48-12.33
			c-5.2,0-6.13,3.29-6.27,8.04v-3.05c0.06-2.08,0.27-3.87,0.93-5.24c0.27-0.58,0.64-1.09,1.1-1.5c0.08-0.07,0.16-0.14,0.25-0.21
			c0.16-0.13,0.34-0.25,0.53-0.35c0.86-0.47,1.99-0.74,3.45-0.74c0.84,0,1.88,0.26,3.04,0.69c0.24,0.09,0.47,0.19,0.72,0.28
			c1.19,0.52,2.5,1.2,3.82,1.99c2.38,1.42,4.81,3.2,6.83,4.95C35.85,21.44,37.76,23.7,37.76,25z"/>
		<path class="st8" d="M13.43,29.05c-0.96,2.31,1.33,6.97,4.23,7.39c3.9,0.57,14.31-6.26,14.13-7.4
			C31.32,26.15,15.36,24.42,13.43,29.05z"/>
		<path class="st9" d="M19.68,12.81c-1.75,0.28-3.41,1.89-3.3,3.44c0.13,2.01,3.21,3.8,5.35,2.72c1.31-0.66,2.45-2.49,1.89-4.17
			C23.04,13.08,21.03,12.6,19.68,12.81z"/>
		<path class="st2" d="M33.79,25c0,0.1-0.01,0.19-0.03,0.29c-0.05,0.27-0.17,0.57-0.36,0.89c-1.91,3.39-10.43,9.09-13.75,9.09
			c-3.96,0-4.6-2.57-4.67-6.24v-8.31h0.01c0.04-1.55,0.2-2.88,0.69-3.9c0.2-0.43,0.47-0.81,0.82-1.12c0.06-0.05,0.12-0.1,0.19-0.15
			c0.12-0.09,0.25-0.18,0.4-0.26c0.64-0.36,1.48-0.56,2.57-0.56c0.63,0,1.4,0.19,2.26,0.52c0.18,0.07,0.35,0.14,0.53,0.21
			c0.89,0.38,1.86,0.89,2.85,1.48c1.78,1.06,3.59,2.39,5.08,3.68C32.36,22.35,33.79,24.03,33.79,25z"/>
		<path class="st2" d="M33.52,25.95c-0.04,0.08-0.08,0.16-0.13,0.24c-1.9,3.39-10.43,9.08-13.75,9.08c-3.96,0-4.6-2.57-4.67-6.24
			v-1.41c0.07,3.67,0.74,6.23,4.92,6.23C23.02,33.85,30.51,29.33,33.52,25.95z"/>
		<path class="st10" d="M39.83,25c0,0.16-0.01,0.32-0.05,0.49c-0.08,0.45-0.26,0.95-0.55,1.49c-2.98,5.66-16.21,14.7-21.4,14.7
			c-6.2,0-7.3-3.82-7.41-9.94v-0.89c0.11,5.62,1.1,9.56,7.3,9.56c5.19,0,18.53-8.73,21.51-13.92c0.29-0.49,0.47-0.95,0.55-1.36
			c0.03-0.1,0.04-0.21,0.05-0.3C39.83,24.88,39.83,24.94,39.83,25z"/>
	</g>
</g>
</svg>
