<?xml version="1.0" encoding="utf-8"?>
<!-- Generator: Adobe Illustrator 28.5.0, SVG Export Plug-In . SVG Version: 9.03 Build 54727)  -->
<svg version="1.0" id="Layer_1" xmlns="http://www.w3.org/2000/svg" xmlns:xlink="http://www.w3.org/1999/xlink" x="0px" y="0px"
	 viewBox="0 0 1200 900" style="enable-background:new 0 0 1200 900;" xml:space="preserve">
<style type="text/css">
	.st0{fill:#A4D5A1;}
	.st1{fill:#83C166;}
	.st2{fill:#89C691;}
	.st3{fill:#CEC77A;}
	.st4{fill:#4EA994;}
	.st5{fill:#30756C;}
	.st6{fill:#F0A628;}
	.st7{fill:#F2BC62;}
	.st8{fill:#D59429;}
	.st9{fill:#C84732;}
	.st10{fill:#DA98A4;}
	.st11{fill:#552733;}
	.st12{fill:#8F8532;}
	.st13{fill:#F26923;}
</style>
<polygon class="st0" points="0.01,-4.7 0.01,900 172.18,899.58 172.18,899.58 776.05,899.58 776.05,900 1200,900 1200,-4.7 "/>
<path class="st1" d="M0.01-4.7v164.35c90.59,1.62,124.58-50.38,260.53-50.38c172.22,0,172.22,36.16,344.43,36.16
	s172.21-36.16,344.42-36.16c130.88,0,167.25,48.2,250.61,50.34V-4.7H0.01z"/>
<rect x="0.02" y="272.19" class="st2" width="1199.92" height="476.28"/>
<rect x="0.02" y="295.79" class="st3" width="1199.92" height="452.68"/>
<path class="st4" d="M61.02,298.77c-16.7-14.14-17.97-42.72-2.59-58.28c15.38-15.55,44.12-14.77,58.61,1.6
	c17.31-12.59,44.4-8.87,57.63,7.92c16.69-22.46,58.81-15.65,67.48,10.92c13.07-22.42,52.09-21.51,64.1,1.49
	c-3.28-24.18,16.01-49.13,40.35-52.17s49.24,16.38,52.08,40.62c11.27-4.45,23.27-8.99,35.22-6.9c11.95,2.09,23.06,13.68,19.93,25.33
	c11.4-13.39,30.96-17.87,48.3-14.67s32.76,13.01,46.32,24.23c4.19,3.47,8.42,7.35,10.06,12.52c5.25,16.56-17.24,27.25-34.46,30.11
	c-25.34,4.22-53.04,8.05-75.31-4.68c-31.76,21.9-74.4,15.84-112.4,8.88c-34.15-6.25-68.3-12.51-102.51-18.4
	c-10.05-1.73-20.35-3.43-30.37-1.54c-8.09,1.53-15.54,5.31-23.26,8.18c-35.1,13.06-77.04,5.79-105.63-18.31l-13.56,3.14
	L61.02,298.77z"/>
<path class="st4" d="M1200,319.17c-125.1-8.69-170.35,9.75-359.52,9.75c-241.41,0-241.41,32.12-482.82,32.12
	c-188.19,0-233.99-40.44-357.65-41.84v238.35c126.48,16.5,166.45,14.75,357.66,14.75c241.41,0,241.41-32.12,482.82-32.12
	c189.13,0,234.43,40.84,359.5,41.86V319.17L1200,319.17z"/>
<rect x="0.02" y="410.14" class="st5" width="1199.92" height="419.76"/>
<rect x="0.02" y="489.68" class="st6" width="1199.92" height="340.22"/>
<path class="st7" d="M0.01,572.7c125.1-8.69,170.35,9.75,359.52,9.75c241.41,0,241.41,32.12,482.82,32.12
	c188.19,0,233.98-40.44,357.64-41.84v238.35c-126.48,16.5-166.45,14.75-357.66,14.75c-241.41,0-241.41-32.12-482.82-32.12
	c-189.13,0-234.43,40.84-359.5,41.86L0.01,572.7L0.01,572.7z"/>
<path class="st8" d="M0.01,583.41c125.1-8.69,170.35,9.75,359.52,9.75c241.41,0,241.41,32.12,482.82,32.12
	c188.19,0,233.98-40.44,357.64-41.84v238.35c-126.48,16.5-166.45,14.75-357.66,14.75c-241.41,0-241.41-32.12-482.82-32.12
	c-189.13,0-234.43,40.84-359.5,41.86L0.01,583.41L0.01,583.41z"/>
<path class="st9" d="M1199.93,803.03c-1.49-2.78-3.49-5.76-6.21-9.07c-19.98-24.34-25.32,2.55-56.9,2.55s-31.59,7.01-63.17,7.01
	s-31.58-4.7-63.16-4.7s-31.58-22.4-63.16-22.4s-31.58-2.82-63.16-2.82s-31.58,3.12-63.16,3.12s-31.58-4.78-63.15-4.78
	s-31.58,32.92-63.15,32.92s-31.57-31.64-63.15-31.64s-31.58,17.79-63.16,17.79s-31.58,13.95-63.16,13.95s-31.58-27.92-63.15-27.92
	s-31.58,25.73-63.15,25.73s-31.58,0.45-63.16,0.45s-31.58-18.42-63.15-18.42s-31.58-4.6-63.16-4.6s-31.58,14.86-63.15,14.86
	s-31.57,3.55-63.15,3.55s-39.53-31.12-59.49-6.78c-1.44,1.76-2.63,3.42-3.66,5.02v27.27l0,0v59.35v16.52l172.17-0.42h603.86v0.42
	H1200v-95.37l-0.06,0.05v-1.65L1199.93,803.03z"/>
<g>
	<path class="st10" d="M442.08,777.05c-25.99,0-30.6,17.42-49.02,23.59c14.88,0.42,29.71,1.36,44.45,3.13
		c45.76,5.48,93.25,18.56,136.8,3.54c26.97-9.31,59.62-27.94,80.2-8.24c5.01,4.8,8.2,11.32,13.54,15.75
		c11.17,9.26,28.24,6.61,41.05-0.23c12.81-6.84,23.56-17.19,36.78-23.21c24.26-11.06,52.37-5.95,79.04-4.93
		c19.28,0.74,40.8-2.25,55.99-12.8c-28.35,0.21-29.45,3.11-59.9,3.11s-31.58-4.78-63.15-4.78s-31.58,32.92-63.15,32.92
		s-31.57-31.64-63.15-31.64s-31.58,17.79-63.16,17.79S536.82,805,505.24,805s-31.58-27.92-63.15-27.92L442.08,777.05z"/>
	<path class="st10" d="M305.43,802.46c-21.71-3.49-25.12-17.65-52.81-17.65c-31.58,0-31.58-4.6-63.16-4.6s-31.58,14.86-63.15,14.86
		c-0.43,0-0.84,0-1.26,0C183.56,808.78,244.41,805.36,305.43,802.46z"/>
</g>
<path class="st11" d="M1199.93,840.5c-1.49-2.78-3.49-5.76-6.21-9.07c-19.98-24.34-25.32,2.55-56.9,2.55s-31.59,7.01-63.17,7.01
	s-31.58-4.7-63.16-4.7s-31.58-22.4-63.16-22.4s-31.58-2.82-63.16-2.82s-31.58,3.12-63.16,3.12s-31.58-4.78-63.15-4.78
	s-31.58,32.92-63.15,32.92s-31.57-31.64-63.15-31.64s-31.58,17.79-63.16,17.79s-31.58,13.95-63.16,13.95s-31.58-27.92-63.15-27.92
	s-31.58,25.73-63.15,25.73s-31.58,0.45-63.16,0.45s-31.58-18.42-63.15-18.42s-31.58-4.6-63.16-4.6s-31.58,14.86-63.15,14.86
	s-31.57,3.55-63.15,3.55s-39.53-31.12-59.49-6.78c-1.44,1.76-2.63,3.42-3.66,5.02v27.27l0,0v38.4l172.17-0.42h603.86v0.42H1200
	V842.1l-0.06,0.05L1199.93,840.5L1199.93,840.5z"/>
<path class="st4" d="M885.71,303.19c-10.37-10.81-5.79-28.39-0.4-42.34c2.33-6.02,4.89-12.31,9.96-16.33
	c8.27-6.55,22.15-3.99,27.5,5.09c29.12-28.64,80.57-30.62,111.83-4.31c5.6-19.43,16.66-39.1,35.49-46.68
	c18.83-7.59,45.23,3.81,46.11,24c19.9-5.82,43.29,4.67,52.08,23.36s1.9,43.28-15.35,54.75c2.48,2.29,4.97,4.58,7.45,6.87
	c-20.54,15.43-48.38,15.82-74.11,15.57c-34.82-0.34-69.64-0.68-104.46-1.03c-5.83-0.06-11.66-0.11-17.49-0.17
	c-9.9-0.1-19.79-0.19-29.68-0.57c-14.24-0.54-28.45-1.67-42.59-3.38L885.71,303.19L885.71,303.19z"/>
<path class="st12" d="M535.51,727.05c-2.36-17.83-8.58-35.15-18.11-50.44c11.8,0.1,23.45,5.51,31.09,14.45
	c2.25-6.2,5.38-12.09,9.25-17.43c2.59,6.53,5.17,13.06,7.76,19.59c4.43-6.74,11.44-11.76,19.27-13.8
	c-5.51,11.6-2.87,26.53,6.3,35.55c4.42-6.76,10.63-12.36,17.82-16.08c0.46,6.16,0.92,12.33,1.37,18.49
	c-18.27,9.81-39.48,14.13-60.16,12.26l-14.61-2.6L535.51,727.05z"/>
<path class="st5" d="M1121.51,423.3c10.54-11.89,7.74-33.9,0.75-49.41c-4.12-9.13-10.25-18.1-18.51-19.41s-17.27,9.83-13.53,19.22
	c-2.87-7.77-10.29-12.39-16.93-10.53s-11.81,10-11.81,18.58c-4.4-8.54-12.43-13.88-20.49-13.64c-8.06,0.24-15.88,6.06-19.95,14.85
	c-7.86-20.55-26.08-34-44.12-32.58c-8.06,0.64-16.41,4.42-21.23,12.6c-4.81,8.18-4.69,21.28,1.7,27.51
	c-8.99-5.98-20.95-6.67-28.65,1.68c-7.71,8.35-7.73,26.74,1.34,32.53c2.99,1.91,6.43,2.29,9.78,2.63
	c31.48,3.22,62.97,6.44,94.45,9.66c29.91,3.06,61.93,5.57,87.98-13.24l-0.77-0.46L1121.51,423.3z"/>
<path class="st5" d="M347.62,427.52c-18.52-16.48-13.61-46.97-1.31-68.45c7.24-12.65,18.02-25.07,32.54-26.88
	c14.52-1.81,30.36,13.62,23.79,26.63c5.05-10.77,18.09-17.16,29.75-14.59s20.76,13.85,20.76,25.74
	c7.73-11.82,21.84-19.23,36.02-18.89c14.17,0.33,27.92,8.4,35.07,20.57c13.82-28.46,45.85-47.1,77.56-45.13
	c14.17,0.88,28.86,6.12,37.32,17.46s8.25,29.48-2.99,38.11c15.8-8.28,36.82-9.24,50.37,2.33c13.55,11.57,13.58,37.04-2.35,45.06
	c-5.26,2.65-11.31,3.17-17.19,3.64c-55.35,4.46-110.69,8.92-166.04,13.38c-52.59,4.24-108.87,7.71-154.67-18.34L347.62,427.52
	L347.62,427.52z"/>
<path class="st6" d="M57.62,500.86c-15.72-13.98-11.55-39.85-1.11-58.07c6.14-10.73,15.29-21.27,27.61-22.81
	c12.32-1.53,25.76,11.55,20.19,22.59c4.29-9.14,15.35-14.56,25.24-12.38s17.61,11.75,17.61,21.84
	c6.56-10.03,18.53-16.31,30.55-16.03s23.69,7.12,29.76,17.45c11.72-24.15,38.9-39.96,65.8-38.29c12.02,0.75,24.48,5.2,31.66,14.81
	c7.18,9.62,7,25.01-2.53,32.33c13.4-7.03,31.24-7.84,42.73,1.98s11.52,31.42-1.99,38.23c-4.46,2.25-9.59,2.69-14.58,3.09
	c-46.95,3.78-93.91,7.57-140.86,11.35c-44.62,3.6-92.36,6.54-131.22-15.56l1.15-0.54L57.62,500.86z"/>
<path class="st13" d="M172.29,281.12v1.49V281.12z"/>
<path class="st11" d="M568.87,849.06c-8.36-38.36-16.66-78.77-4.98-116.26c-1.32,26.92,2.49,54.09,11.17,79.62
	c5.56,16.36,13.15,32.27,15.31,49.4l-21.5-12.77V849.06z"/>
<path class="st11" d="M1115.88,849.06c-8.36-38.36-16.66-78.77-4.98-116.26c-1.32,26.92,2.49,54.09,11.17,79.62
	c5.56,16.36,13.15,32.27,15.31,49.4l-21.5-12.77L1115.88,849.06z"/>
<ellipse class="st11" cx="556.74" cy="714.17" rx="53.54" ry="54.38"/>
<ellipse class="st11" cx="1121.25" cy="746.09" rx="36.1" ry="34.12"/>
<path class="st11" d="M243.3,853.48c-81.42-38.82-134.46-129.92-127.79-219.5c55.7,28.61,103.91,71.53,138.65,123.45
	c-2.37-45.67,15.48-92.03,47.91-124.44c14.62,34.1,21.18,71.59,19.02,108.6c29.47-36.83,70.88-64.06,116.49-76.6
	c-0.55,48.15-14.77,96.62-43.5,135.38c-28.73,38.75-72.42,67.08-120.33,73.96l-30.44-20.84L243.3,853.48z"/>
<path class="st11" d="M879.05,837.31c-56.37-16.96-99.67-70.42-104.34-128.82c38.77,12.92,74.13,35.81,101.72,65.83
	c-6.1-29.2,0.76-60.85,18.42-84.96c12.84,20.53,20.82,44.04,23.13,68.11c15.31-26.66,39.27-48.31,67.41-60.91
	c4.46,31.09,0.16,63.74-14.48,91.57c-14.64,27.82-39.96,50.41-70.15,59.59L879.05,837.31L879.05,837.31z"/>
<path class="st5" d="M799.6,414.02c-7.31-38.41-9.16-77.85-5.48-116.77c-45-1.4-89.92-4.99-134.57-10.74
	c25.48-6.67,50.96-13.34,76.44-20.01c-6.2-6.59-15.53-10.14-24.57-9.36c6.66-7.67,17.81-9.28,27.95-10.37
	c54.3-5.88,108.59-11.75,162.89-17.63c-8.62,8.82-19.48,15.44-31.3,19.08c35.01,9.15,70.68,15.81,106.65,19.92
	c-2.92,8.41-12.62,12.06-21.2,14.56c-44.23,12.9-89.22,23.24-134.66,30.95c-7.99,35.97-8.36,73.59-1.09,109.71l-21.05-9.33
	L799.6,414.02z"/>
<path class="st5" d="M185.58,426.7c-5.7-29.94-7.14-60.67-4.27-91.01c-35.07-1.09-69.39,8.51-104.88-8.37
	c19.86-5.2,39.72-10.4,59.57-15.59c-4.84-5.14-12.1-7.9-19.15-7.29c5.19-5.98,13.88-7.23,21.78-8.08
	c42.32-4.58,84.63-9.16,126.95-13.74c-6.72,6.87-15.19,12.04-24.39,14.87c27.29,7.13,55.09,12.32,83.11,15.52
	c-2.27,6.55-9.83,9.4-16.52,11.35c-34.47,10.06-69.54,18.11-104.95,24.12c-6.23,28.03-6.52,57.35-0.85,85.5l-16.41-7.27
	L185.58,426.7z"/>
<path class="st6" d="M752.29,518.45c-15.4-7.66-22.64-28.33-15.35-43.85c7.29-15.52,27.87-23.26,43.66-16.43
	c23.49-21.5,63.23-22.33,87.61-1.83c15.59-25.37,32.81-52.21,60.19-64.16s67.06,0.13,71.78,29.5c26.99-16.17,66.73-4.76,80.91,23.24
	c18.21-7.45,41.55-4.55,54.21,10.45c12.67,15,9.23,41.93-8.68,50.06c-6.03,2.74-12.82,3.23-19.43,3.69
	c-98.77,6.8-197.55,13.61-296.32,20.41l-58.56-11.08H752.29z"/>
<path class="st7" d="M253.78,584.77c-18.62-16.14-26.32-43.66-18.76-67.05c15.12,7.31,30.24,14.62,45.36,21.93
	c7.41-22.91,23.99-42.74,45.29-54.16c6.4,19.24,6.26,40.57-0.38,59.73c15.26-13.23,36.36-19.51,56.41-16.81
	c-2.57,28.97-25.95,54.87-54.62,60.53c-7.72,1.52-15.63,1.71-23.5,1.88c-11.85,0.27-23.71,0.54-35.56,0.8L253.78,584.77
	L253.78,584.77z"/>
<path class="st7" d="M816.02,621.7c-13.38-10.8-22.11-27.1-23.67-44.17c17-1.11,34.23,1.41,50.19,7.35
	c0.96-16.79,8.19-33.15,19.98-45.21c16.9,2.87,32.53,12.57,42.55,26.4c6.66-13.85,19.76-24.48,34.74-28.18
	c5.49,12.49,1.34,26.88-2.84,39.86c-4.67,14.46-10.57,30.4-24.27,37.1c-4.67,2.28-9.87,3.25-15.01,4.07
	c-25.26,4.03-50.99,5.13-76.5,3.27L816.02,621.7L816.02,621.7z"/>
</svg>
