<?xml version="1.0" encoding="utf-8"?>
<!-- Generator: Adobe Illustrator 28.5.0, SVG Export Plug-In . SVG Version: 9.03 Build 54727)  -->
<svg version="1.0" id="Layer_1" xmlns="http://www.w3.org/2000/svg" xmlns:xlink="http://www.w3.org/1999/xlink" x="0px" y="0px"
	 viewBox="0 0 200 200" style="enable-background:new 0 0 200 200;" xml:space="preserve">
<style type="text/css">
	.st0{fill:#8F421F;}
	.st1{fill:#CF6828;}
	.st2{fill:#6B251E;}
	.st3{fill:#DE7C3D;}
</style>
<g>
	<rect x="0.01" y="0" class="st0" width="199.99" height="200"/>
	<rect x="67.24" y="54.96" class="st1" width="132.76" height="45.04"/>
	<polygon class="st0" points="67.24,66.3 84.15,53.33 67.24,51.48 	"/>
	<rect x="0" y="54.96" class="st1" width="53.18" height="45.04"/>
	<rect x="195.85" y="112.48" class="st1" width="4.15" height="34.87"/>
	<rect x="0" y="112.48" class="st1" width="184.31" height="34.87"/>
	<rect x="137.55" y="159.59" class="st1" width="62.45" height="34.87"/>
	<rect x="0" y="159.59" class="st1" width="121.14" height="34.87"/>
	<rect x="183.1" y="5.45" class="st1" width="16.9" height="39.75"/>
	<rect x="0" y="5.45" class="st1" width="167.23" height="39.75"/>
	<polygon class="st0" points="168.77,11.66 152.23,5.45 167.23,2.37 	"/>
	<rect x="0.01" y="153.23" class="st2" width="199.99" height="4.03"/>
	<rect x="0.01" y="102.86" class="st2" width="199.99" height="4.03"/>
	<rect x="0.01" y="47.46" class="st2" width="199.99" height="4.03"/>
	<rect x="0.01" y="197.62" class="st2" width="199.99" height="2.37"/>
	<rect x="0.01" y="0" class="st2" width="199.99" height="2.37"/>
	<path class="st2" d="M141.5,157.26c0,0-10.51-3.06-11.15,6.5v6.05h15.61c0,0-15.93,0.32-15.61,1.91c0.32,1.59,0,9.24,0,9.24h52.57
		c0,0-52.89,0.32-52.57,1.91c0.32,1.59,0,9.24,0,9.24h41.74c0,0-42.06,0.96-41.74,1.91c0.32,0.96,1.28,3.59,1.28,3.59l-4.46,1.19
		v-6.37l-22.47-0.64c0,0,23.42,0,23.74-1.59c0.32-1.59-1.59-8.92-1.59-8.92l-98.12-0.64c0,0,99.08-1.55,99.4-2.85
		c0.32-1.3,0.64-6.39-2.55-7.03c-3.19-0.64-28.69-1.59-28.69-1.59s29.32,0.32,29.96-3.82c0.64-4.14-2.87-10.02-3.82-10.11
		C122.06,155.16,141.5,157.26,141.5,157.26z"/>
	<path class="st2" d="M189.06,153.23c0,0,2.77-5.08-3.92-6.68c-6.69-1.59-22.3-1.59-22.3-1.59s27.53,0,27.78-3.19
		c0.25-3.19,3.12-8.92-6.12-9.56c-9.24-0.64-100.35-6.37-100.35-6.37s104.95,4.55,106.47,2.28c1.52-2.28,1.4-9.29-1.56-10.24
		c-2.97-0.96-16.03-1.59-16.03-1.59s17.02,0.32,17.59-1.91s-2.94-11.52-4.21-9.5c-1.27,2.01,7.33,0,7.33,0s-0.53,9.5,2.86,10.78
		c0,0-3.82,0.64-3.82,1.91c0,1.27,0.96,11.35,0.96,11.35l4.45,2.35c0,0-5.1-0.64-5.1,1.59c0,2.23-1.27,12.43,1.27,13.06
		c2.55,0.64,3.82,1.59,3.82,1.59s-5.74-1.26-5.1,2.23c0.64,3.49,2.21,5.5,2.21,5.5L189.06,153.23z"/>
	<path class="st2" d="M73,104.59c0,0-13.06-0.81-13.06-4.59s-1.86-15.94,1.3-17.19c3.16-1.25,21.58-2.52,21.58-2.52
		s-19.96,0.96-21.58-1.59s-3.48-14.66,0-16.25C64.72,60.86,73,60.54,73,60.54s-10.46,0.64-11.76-2.55c-1.3-3.19,6.66-8.52,6.66-8.52
		H48.79c0,0,7.82,0.04,9.24,8.2c1.42,8.16,0,21.35-1.91,21.98c-1.91,0.64-53.84,0.64-53.84,0.64s54.32,0.44,55.75,3.82
		c1.43,3.39,0.96,13.02-2.23,15.89c-3.19,2.86-18.29,2.86-18.29,2.86L73,104.59z"/>
	<path class="st2" d="M159.97,49.47c0,0,11.15-0.4,12.11-6.14c0.96-5.73,2.23-9.88-2.55-10.51c-4.78-0.64-55.75-1.59-55.75-1.59
		s56.92-0.64,59.2-3.19c2.28-2.55,1.33-8.6-2.18-9.56c-3.5-0.96-18.16-0.96-18.16-0.96s19.43-0.64,20.07-1.59
		c0.64-0.96,1.27-7.65-3.5-8.92c-4.78-1.27-12.11-1.27-12.11-1.27s15.29,0.77,14.97-4.55h4.46c0,0-5.1,4.87,0,7.1
		s17.2,3.82,17.2,3.82s-17.2-3.82-18.16,0s0,7.33,0,7.33l20.07,1.59c0,0-17.84-0.96-18.8,0.64c-0.96,1.59-3.19,9.24,1.59,10.19
		c4.78,0.96,17.2,2.55,17.2,2.55s-18.8-1.27-19.43,0.96c-0.64,2.23-3.5,10.15,5.1,12.09C189.92,49.39,159.97,49.47,159.97,49.47z"/>
	<polygon class="st0" points="64.66,92.44 154.72,91.17 64.66,88.19 	"/>
	<polygon class="st0" points="187.09,124.33 89.74,120.93 187.09,120.93 	"/>
	<polygon class="st0" points="187.09,139.21 122.9,139.21 187.09,135.81 	"/>
	<polygon class="st0" points="53.18,67.78 16.62,64.81 53.18,64.81 	"/>
	<polygon class="st0" points="180.72,41.42 198.2,41.42 182.91,38.87 	"/>
	<polygon class="st0" points="135.65,169.81 150.53,159.59 137.55,157.26 	"/>
	<path class="st0" d="M54.88,90.32L34.9,100l9.99,2.55C44.89,102.55,61.26,103.07,54.88,90.32z"/>
	<polygon class="st0" points="167.23,37.17 150.53,45.2 168.55,47.46 	"/>
	<g>
		<ellipse class="st3" cx="100.56" cy="37.4" rx="4.72" ry="4.02"/>
		<ellipse class="st0" cx="100.77" cy="37.9" rx="4.52" ry="3.53"/>
	</g>
	<g>
		<ellipse class="st3" cx="151.64" cy="73.99" rx="3.57" ry="3.04"/>
		<ellipse class="st0" cx="151.8" cy="74.37" rx="3.41" ry="2.67"/>
	</g>
	<g>
		<ellipse class="st3" cx="174.67" cy="92.44" rx="3.57" ry="3.04"/>
		<ellipse class="st0" cx="174.83" cy="92.82" rx="3.41" ry="2.67"/>
	</g>
	<g>
		<ellipse class="st3" cx="184.31" cy="77.03" rx="3.57" ry="3.04"/>
		<ellipse class="st0" cx="184.46" cy="77.4" rx="3.41" ry="2.67"/>
	</g>
	<g>
		<ellipse class="st3" cx="44.2" cy="134.4" rx="5.22" ry="4.45"/>
		<ellipse class="st0" cx="44.43" cy="134.94" rx="4.99" ry="3.9"/>
	</g>
	<g>
		<ellipse class="st3" cx="120.18" cy="136.71" rx="2.51" ry="2.13"/>
		<ellipse class="st0" cx="120.29" cy="136.97" rx="2.4" ry="1.87"/>
	</g>
	<g>
		<ellipse class="st3" cx="163.01" cy="163.54" rx="2.51" ry="2.13"/>
		<ellipse class="st0" cx="163.12" cy="163.8" rx="2.4" ry="1.87"/>
	</g>
	<g>
		<ellipse class="st3" cx="148.38" cy="177.02" rx="2.51" ry="2.13"/>
		<ellipse class="st0" cx="148.49" cy="177.29" rx="2.4" ry="1.87"/>
	</g>
	<g>
		<ellipse class="st3" cx="9.53" cy="165.67" rx="2.51" ry="2.13"/>
		<ellipse class="st0" cx="9.63" cy="165.93" rx="2.4" ry="1.87"/>
	</g>
	<g>
		<ellipse class="st3" cx="101.04" cy="187.2" rx="3.44" ry="2.93"/>
		<ellipse class="st0" cx="101.19" cy="187.56" rx="3.29" ry="2.57"/>
	</g>
	<g>
		<ellipse class="st3" cx="31.45" cy="92.44" rx="3.44" ry="2.93"/>
		<ellipse class="st0" cx="31.6" cy="92.8" rx="3.29" ry="2.57"/>
	</g>
	<g>
		<ellipse class="st3" cx="146.54" cy="11.66" rx="3.44" ry="2.93"/>
		<ellipse class="st0" cx="146.69" cy="12.02" rx="3.29" ry="2.57"/>
	</g>
	<g>
		<ellipse class="st3" cx="142.35" cy="21.4" rx="4.61" ry="3.93"/>
		<ellipse class="st0" cx="142.55" cy="21.88" rx="4.41" ry="3.45"/>
	</g>
</g>
</svg>
