<?xml version="1.0" encoding="UTF-8"?>
<svg id="Layer_1" data-name="Layer 1" xmlns="http://www.w3.org/2000/svg" version="1.1" viewBox="0 0 150 150">
  <defs>
    <style>
      .cls-1 {
        fill: #f3e0d8;
      }

      .cls-1, .cls-2, .cls-3, .cls-4, .cls-5, .cls-6, .cls-7, .cls-8, .cls-9, .cls-10, .cls-11, .cls-12, .cls-13, .cls-14, .cls-15, .cls-16, .cls-17, .cls-18, .cls-19, .cls-20 {
        stroke-width: 0px;
      }

      .cls-2 {
        fill: #fccaa7;
      }

      .cls-3 {
        fill: #f9edee;
      }

      .cls-4 {
        fill: #f4956e;
      }

      .cls-5 {
        fill: #fbe6a9;
      }

      .cls-6 {
        fill: #282728;
      }

      .cls-7 {
        fill: #ccc7ca;
      }

      .cls-8 {
        fill: #887f7c;
      }

      .cls-21 {
        opacity: .78;
      }

      .cls-9 {
        fill: #9584ab;
      }

      .cls-10 {
        fill: #bed5ef;
      }

      .cls-11 {
        fill: #442d3e;
      }

      .cls-12 {
        fill: #eaa498;
      }

      .cls-13 {
        fill: #683a57;
      }

      .cls-14 {
        fill: #4e3b6e;
      }

      .cls-15 {
        fill: #785b72;
      }

      .cls-16 {
        fill: #fff;
      }

      .cls-17 {
        fill: #8c2e26;
      }

      .cls-18 {
        fill: #cd1e54;
      }

      .cls-19 {
        fill: #695a64;
      }

      .cls-20 {
        fill: #f1749b;
      }
    </style>
  </defs>
  <g id="_1" data-name="1">
    <g>
      <g>
        <path class="cls-9" d="M66.88,84.78c1.05-.1,2.73-2.65,4.29-3.99,1.81-1.55,5.95.36,4.41,3.8-.21.48-2.19,4.35-5.54,5.92,0,0-4.05,1.65-9.12,1.33,0,0,1.48-3.96-.56-6.59,0,0,3.58-.2,6.53-.47Z"/>
        <path class="cls-19" d="M60.33,84.81l-.83.05.51.66c1.86,2.4.51,6.13.5,6.17l-.2.55.58.04c.46.03.92.04,1.36.04,4.46,0,7.8-1.34,7.96-1.4h.02c3.69-1.73,5.73-6.1,5.75-6.15.73-1.64.38-3.21-.94-4.2-1.3-.97-3.08-1.02-4.15-.11-.62.53-1.24,1.23-1.84,1.9-.77.86-1.73,1.94-2.2,1.98-2.91.27-6.48.47-6.51.47ZM61.13,85.64c1.21-.07,3.68-.23,5.79-.43.82-.08,1.72-1.09,2.77-2.27.58-.65,1.18-1.33,1.76-1.82.75-.64,2.09-.58,3.06.15.47.35,1.47,1.36.67,3.14-.02.04-1.91,4.1-5.32,5.7-.21.08-3.83,1.48-8.37,1.32.31-1.12.8-3.67-.37-5.79Z"/>
      </g>
      <path class="cls-7" d="M70.73,81.88s.66-.9,1.32-.86c0,0,2.17-.57,1.16,3.44,0,0-1.68,2.68-4.07,3.85,0,0-1.34.45-2.12.51,0,0-.06-1.89-1.73-3.43,0,0,1.78-.05,2.2-.3,0,0,1.9-1.66,3.23-3.21Z"/>
      <g>
        <g>
          <path class="cls-11" d="M64.58,83.94c3.1,4.57.37,8.97.37,8.97-1.88.09-4.76-1.07-4.76-1.07,1.72-4.19-.77-6.82-.77-6.82l5.15-1.08Z"/>
          <path class="cls-6" d="M64.78,83.45l-6.2,1.3.54.57c.09.1,2.27,2.49.68,6.35l-.17.41.41.16c.12.05,2.76,1.1,4.7,1.1.08,0,.16,0,.25,0h.23s.12-.21.12-.21c.03-.05,2.83-4.7-.38-9.44l-.16-.24ZM64.38,84.43c2.34,3.7.78,7.18.32,8.05-1.35,0-3.15-.6-3.94-.89,1.1-3.07.08-5.28-.57-6.28l4.19-.88Z"/>
        </g>
        <path class="cls-15" d="M64.31,84.47s2.69,6.11-3.24,6.61c0,0,.89-2.49-.98-5.56l4.22-1.05Z"/>
        <g>
          <path class="cls-6" d="M61.99,88.36c.11-.19.24-.37.38-.55.14-.17.3-.34.49-.48-.04.24-.11.45-.2.66-.09.21-.19.41-.3.6-.11.19-.24.37-.38.55-.14.17-.3.34-.49.48.04-.24.11-.45.19-.66.09-.21.19-.41.3-.6Z"/>
          <path class="cls-6" d="M62.41,88.49c.12.19.24.38.33.58.1.2.18.41.23.65-.2-.13-.36-.29-.51-.46-.15-.17-.29-.34-.41-.53-.12-.18-.24-.38-.33-.58-.1-.2-.18-.41-.23-.65.2.13.36.29.52.46.15.17.29.34.41.53Z"/>
        </g>
        <g>
          <path class="cls-6" d="M63.76,88.37c.11-.19.24-.37.38-.55.14-.17.3-.34.49-.48-.04.24-.11.45-.2.66-.09.21-.19.4-.3.6-.11.19-.24.37-.38.55-.14.17-.3.34-.49.48.04-.24.11-.45.19-.66.09-.21.19-.4.3-.6Z"/>
          <path class="cls-6" d="M64.18,88.5c.12.18.24.38.33.58.1.2.18.41.23.65-.2-.13-.36-.29-.51-.46-.15-.17-.29-.34-.41-.53-.12-.18-.24-.38-.33-.58-.1-.2-.18-.41-.23-.65.2.13.36.29.52.46.15.17.29.34.41.53Z"/>
        </g>
      </g>
    </g>
    <g>
      <g>
        <path class="cls-9" d="M81.25,59.65c8.77,0,14.59,1.75,14.59,1.75,1.89,16.83.76,20.8.76,20.8-.78,13.51-14.75,20.96-14.89,20.9-.14.06-14.12-7.39-14.89-20.9,0,0-1.13-3.97.76-20.8,0,0,1.76-1.75,13.67-1.75Z"/>
        <path class="cls-19" d="M67.15,61.36c-1.79,15.93-.89,20.38-.76,20.92.72,12.02,11.76,19.26,13.96,20.59.68.41,1.02.59,1.22.65.04.02.08.03.13.03,0,0,.02,0,.03,0,.05,0,.09-.01.13-.03.2-.06.54-.24,1.22-.65,2.21-1.33,13.24-8.57,13.96-20.59.13-.53,1.03-4.99-.76-20.92l-.03-.29-.27-.08c-.06-.02-5.98-1.77-14.72-1.77-11.75,0-13.78,1.69-13.98,1.88l-.11.11-.02.15ZM67.99,61.65c.56-.32,3.34-1.56,13.26-1.56,7.55,0,12.95,1.32,14.19,1.66,1.8,16.21.75,20.3.74,20.34l-.02.09c-.72,12.62-13.09,19.72-14.46,20.44h0s0,0,0,0c-1.36-.73-13.73-7.83-14.45-20.44l-.02-.09s-1.06-4.15.75-20.44Z"/>
      </g>
      <path class="cls-7" d="M81.09,60.56c8.11-.17,12.26.97,12.26.97,1.64,15.78.66,20.18.66,20.18-.67,12.66-12.8,19.65-12.92,19.59-.12.06-12.25-6.93-12.92-19.59,0,0-.98-3.72.66-19.5,0,0,4.15-1.81,12.26-1.64Z"/>
      <path class="cls-16" d="M81.16,60.33c5.05,0,9.09.6,11.53,1.09-2.26-.28-5.41-.55-9.25-.55-11.21,0-13.32,1.87-13.32,1.87-1.78,15.85-.71,19.58-.71,19.58.73,12.72,12.09,18.67,12.23,18.61.08.04,4.29-1.34,10.04-7.23-4.22,5.73-9.98,8.77-10.07,8.73-.14.06-13.68-7.16-14.43-20.25,0,0-1.09-3.84.74-20.15,0,0,1.71-1.7,13.25-1.7Z"/>
      <g>
        <g>
          <path class="cls-18" d="M78.31,72.02c-.36-4.39-1.19-7.92-1.19-7.92,3.36-2.15,7.26.23,7.26.23-1.73,2.32-1.98,4.96-2.38,7.6,5.07.39,9.18-1.33,9.18-1.33,2.62,3.72-.13,5.93-.13,5.93-3.35-1.15-6.49-2.01-9.28-2.03-.04,13.69,3.64,18.82,3.64,18.82-5.21,5.08-8.72.24-8.72.24,1.87-7.29,1.59-15.15,1.68-18.89-5.21.56-8.3,1.47-8.3,1.47-2.13-3.26.41-5.93.41-5.93,2.28,1,5.55,1.81,7.83,1.81Z"/>
          <path class="cls-13" d="M70.25,69.99s-2.69,2.9-.44,6.33l.13.2.23-.07s2.98-.87,7.87-1.42c0,.51-.01,1.08-.02,1.72-.03,4.23-.08,10.63-1.64,16.72l-.04.15.09.12c.06.08,1.47,1.99,3.87,2.2.14.01.28.02.42.02,1.62,0,3.28-.81,4.93-2.41l.2-.2-.16-.23s-3.56-5.16-3.58-18.3c2.9.09,6.09,1.06,8.85,2.01l.17.06.14-.11s2.96-2.45.19-6.37l-.15-.21-.24.1s-3.91,1.6-8.68,1.33c.02-.12.03-.23.05-.35.35-2.42.68-4.71,2.21-6.75l.22-.29-.31-.19c-.17-.1-4.12-2.46-7.61-.22l-.19.12.05.23s.79,3.36,1.16,7.51c-2.1-.07-5.11-.79-7.34-1.77l-.21-.09-.16.17ZM70.58,70.61c2.44,1.03,5.57,1.74,7.72,1.74h.02s.35,0,.35,0l-.03-.35c-.31-3.73-.96-6.88-1.15-7.73,2.58-1.5,5.47-.29,6.41.18-1.44,2.1-1.79,4.46-2.12,6.75-.03.23-.07.46-.1.69l-.05.35.35.03c4.44.34,8.11-.89,9.08-1.25,1.89,2.87.4,4.69-.08,5.16-2.87-.98-6.19-1.96-9.21-1.99h-.33s0,.33,0,.33c-.04,12.19,2.83,17.61,3.54,18.77-1.58,1.47-3.14,2.15-4.63,2.03-1.78-.15-2.98-1.42-3.31-1.82,1.55-6.12,1.59-12.49,1.63-16.72,0-.8.01-1.49.03-2.08v-.37s-.36.04-.36.04c-4.37.47-7.29,1.2-8.11,1.42-1.47-2.47-.11-4.56.35-5.15Z"/>
        </g>
        <path class="cls-20" d="M83.66,64.37c-1.33-.5-3.25-.81-5.37.51,0,0,.78,3.45,1.12,7.46-.76,0-1.36-.16-.92-.16.24-2.4-.93-7.89-.93-7.89,3.26-2.09,6.13.04,6.11.07Z"/>
        <path class="cls-20" d="M90.96,71.03c.1.15.2.29.28.43-1.25.41-4.42,1.29-8.13,1.02,0-.04.01-.08.02-.11,4.41.09,7.83-1.34,7.83-1.34Z"/>
        <path class="cls-20" d="M91.08,76.14c-2.83-.97-5.51-1.73-7.94-1.92v-.03c2.49.02,5.27.71,8.23,1.67-.16.18-.28.28-.28.28Z"/>
        <path class="cls-20" d="M79.69,74.35c-.1,3.57.36,11.94-1.43,18.91,0,0,2.92,2.4,6.56,0,.05.09.08.13.08.13-4.7,4.25-7.79.05-7.79.05,1.8-7.28,1.56-15.12,1.65-18.96.37-.05.53-.1.92-.14Z"/>
        <path class="cls-20" d="M71.27,71.09c-.38.61-1.56,1.97-.47,4.35-.58.18-.73.31-.73.31-1.57-3.15.32-5.1.32-5.1.28.16.57.31.88.45Z"/>
      </g>
    </g>
    <g>
      <g>
        <path class="cls-11" d="M71.79,107.44l.83-.68-2.01-8.15,7.23-.59.28,6.38s.07,2.26.45,4.35c0,0,.51,1.73-.85,2.04,0,0-6.14.13-6.51.13,0,0-1.25.01-1.64-.3,0,0-.84-1.27,2.23-3.19Z"/>
        <path class="cls-6" d="M69.07,109.8c-.13.62.09,1,.13,1.07l.04.06.05.04c.44.36,1.45.4,1.85.4.03,0,.05,0,.09,0,.51,0,6.25-.12,6.5-.13h.09c.46-.12.81-.37,1.03-.74.42-.72.2-1.65.14-1.84-.37-2.03-.44-4.25-.44-4.27h0s-.3-6.84-.3-6.84l-8.19.67,2.07,8.38-.59.48c-1.45.91-2.28,1.82-2.47,2.72ZM72.02,107.8l.04-.03,1.04-.85-1.96-7.92,6.27-.51.26,5.93c0,.13.08,2.33.46,4.42v.05c.07.2.17.81-.04,1.18-.09.15-.23.25-.43.31-2.13.05-6.16.12-6.45.13-.51,0-1.08-.07-1.3-.16-.05-.23-.09-1.14,2.11-2.52Z"/>
      </g>
      <path class="cls-15" d="M72.86,107.54s2.79-.5,3.73,1.92c0,0,.47,1.13-5.68.8,0,0-1.34-.12-.96-.65,0,0,1.65-2.11,2.91-2.06Z"/>
      <g>
        <path class="cls-11" d="M73.85,106.43h.27c.36,0,.66.29.66.66v8.3c0,.36-.29.66-.66.66h-.27c-.36,0-.66-.29-.66-.66v-8.3c0-.36.29-.66.66-.66Z" transform="translate(-37.88 184.28) rotate(-89.51)"/>
        <path class="cls-6" d="M68.75,111.06v.27c0,.29.11.57.31.77.2.21.48.32.77.33l8.3.07h0c.29,0,.56-.11.76-.31.21-.2.32-.48.33-.77v-.27c0-.29-.11-.56-.31-.77-.2-.21-.48-.32-.77-.33l-8.3-.07c-.29,0-.57.11-.77.31-.21.2-.32.48-.33.77ZM69.62,111.34v-.27c0-.08.04-.13.07-.15s.08-.06.15-.06h0l8.3.07c.08,0,.13.04.15.07.02.02.06.08.06.16v.27c0,.12-.11.23-.22.22l-8.3-.07c-.12,0-.22-.1-.22-.22Z"/>
      </g>
      <g>
        <g>
          <path class="cls-19" d="M77.07,96.08c2.6.25,1.75,8.87,1.75,8.87-2.01,1.48-5.49,1.14-5.49,1.14-1.08.14-1.87-.56-1.87-.56-2.41-6.75-1.32-8.1-1.32-8.1,2.27-2.62,6.93-1.35,6.93-1.35Z"/>
          <path class="cls-14" d="M69.81,97.15c-.22.27-1.12,1.88,1.24,8.53l.04.11.08.07s.93.81,2.17.68c.12.01.44.03.87.03,1.22,0,3.39-.17,4.86-1.26l.16-.11.02-.19c.07-.68.61-6.74-.99-8.7-.31-.38-.68-.59-1.11-.65-.48-.12-5-1.21-7.34,1.5ZM70.48,97.7s0,0,0,0c0,0,0,0,0,0ZM70.49,97.69c2.06-2.36,6.42-1.21,6.47-1.19h.07c.21.03.39.14.56.35,1.13,1.37.98,5.96.82,7.86-1.87,1.24-5,.96-5.03.95h-.05s-.05,0-.05,0c-.69.09-1.25-.25-1.45-.4-2.08-5.88-1.41-7.45-1.34-7.57Z"/>
        </g>
        <path class="cls-8" d="M75.97,98.51c1.85.18,1.24,6.29,1.24,6.29-1.42,1.05-3.89.81-3.89.81-.77.1-1.33-.4-1.33-.4-1.71-4.79-.94-5.74-.94-5.74,1.61-1.86,4.92-.96,4.92-.96Z"/>
      </g>
      <g>
        <g>
          <path class="cls-9" d="M73.4,106.82c.73.93.1,1.32.1,1.32-1.19.83-1.53.98-1.53.98-.81.62-1.55-1.19-1.55-1.19.65-.72,2.22-1.74,2.22-1.74.33-.24.76.64.76.64Z"/>
          <path class="cls-19" d="M70.26,107.79l-.09.1.05.13c.05.13.53,1.24,1.2,1.43.07.02.13.03.2.03.16,0,.32-.05.46-.16.1-.05.5-.27,1.54-.99.02-.01.27-.18.33-.53.06-.33-.07-.69-.37-1.09-.09-.18-.37-.68-.72-.77-.12-.03-.25,0-.35.07-.11.07-1.61,1.06-2.26,1.78ZM70.68,107.98c.67-.68,2.07-1.6,2.08-1.61h.01c.08,0,.29.28.43.55l.02.04c.23.29.33.56.3.76-.03.16-.14.24-.14.24-1.15.8-1.5.97-1.51.97l-.04.03c-.13.1-.23.09-.3.07-.32-.09-.67-.64-.86-1.04Z"/>
        </g>
        <g>
          <path class="cls-11" d="M72.52,107.08c.3.39.04.55.04.55-.5.34-.63.41-.63.41-.34.26-.64-.49-.64-.49.27-.3.92-.72.92-.72.14-.1.31.26.31.26Z"/>
          <path class="cls-6" d="M71.12,107.39l-.09.1.05.13c.04.1.25.58.58.67.04.01.08.02.11.02.09,0,.18-.03.26-.08.06-.03.24-.13.65-.42.02-.01.16-.1.19-.3.03-.17-.03-.35-.17-.54-.06-.11-.19-.33-.38-.37-.09-.02-.17,0-.25.05-.06.04-.68.45-.96.76ZM71.54,107.59c.2-.19.52-.41.7-.54.03.04.06.09.08.13l.02.04c.08.1.1.18.1.21h0s0,.02,0,.02c-.46.32-.6.39-.6.39l-.04.02h0c-.06,0-.16-.12-.25-.28Z"/>
        </g>
      </g>
    </g>
    <g>
      <g>
        <path class="cls-11" d="M85.72,107.44l.83-.68-2.01-8.15,7.23-.59.28,6.38s.07,2.26.45,4.35c0,0,.51,1.73-.85,2.04,0,0-6.14.13-6.51.13,0,0-1.25.01-1.64-.3,0,0-.84-1.27,2.23-3.19Z"/>
        <path class="cls-6" d="M83,109.8c-.13.62.09,1,.13,1.07l.04.06.05.04c.44.36,1.45.4,1.85.4.03,0,.05,0,.09,0,.51,0,6.25-.12,6.5-.13h.09c.46-.12.81-.37,1.03-.74.42-.72.2-1.65.14-1.84-.37-2.03-.44-4.25-.44-4.27h0s-.3-6.84-.3-6.84l-8.19.67,2.07,8.38-.59.48c-1.45.91-2.28,1.82-2.47,2.72ZM85.95,107.8l.04-.03,1.04-.85-1.96-7.92,6.27-.51.26,5.93c0,.13.08,2.33.46,4.42v.05c.07.2.17.81-.04,1.18-.09.15-.23.25-.43.31-2.13.05-6.16.12-6.45.13-.51,0-1.08-.07-1.3-.16-.05-.23-.09-1.14,2.11-2.52Z"/>
      </g>
      <path class="cls-15" d="M86.79,107.54s2.79-.5,3.73,1.92c0,0,.47,1.13-5.68.8,0,0-1.34-.12-.96-.65,0,0,1.65-2.11,2.91-2.06Z"/>
      <g>
        <path class="cls-11" d="M87.78,106.43h.27c.36,0,.66.29.66.66v8.3c0,.36-.29.66-.66.66h-.27c-.36,0-.66-.29-.66-.66v-8.3c0-.36.29-.66.66-.66Z" transform="translate(-24.07 198.21) rotate(-89.51)"/>
        <path class="cls-6" d="M82.68,111.06v.27c0,.29.11.57.31.77.2.21.48.32.77.33l8.3.07h0c.29,0,.56-.11.76-.31.21-.2.32-.48.33-.77v-.27c0-.29-.11-.56-.31-.77-.2-.21-.48-.32-.77-.33l-8.3-.07c-.29,0-.57.11-.77.31-.21.2-.32.48-.33.77ZM83.55,111.34v-.27c0-.08.04-.13.07-.15.02-.02.08-.06.15-.06h0l8.3.07c.08,0,.13.04.15.07s.06.08.06.16v.27c0,.12-.11.23-.22.22l-8.3-.07c-.12,0-.22-.1-.22-.22Z"/>
      </g>
      <g>
        <g>
          <path class="cls-19" d="M91,96.08c2.6.25,1.75,8.87,1.75,8.87-2.01,1.48-5.48,1.14-5.48,1.14-1.08.14-1.87-.56-1.87-.56-2.41-6.75-1.32-8.1-1.32-8.1,2.27-2.62,6.93-1.35,6.93-1.35Z"/>
          <path class="cls-14" d="M83.74,97.15c-.22.27-1.12,1.88,1.24,8.53l.04.11.08.07s.93.81,2.17.68c.12.01.44.03.87.03,1.22,0,3.38-.17,4.86-1.26l.16-.11.02-.19c.07-.68.61-6.74-.99-8.7-.31-.38-.68-.59-1.11-.65-.48-.12-5-1.21-7.34,1.5ZM84.41,97.71c2.06-2.38,6.43-1.22,6.48-1.21h.07c.21.03.39.14.56.35,1.13,1.37.98,5.96.82,7.86-1.87,1.24-5,.96-5.03.95h-.05s-.05,0-.05,0c-.69.09-1.25-.25-1.45-.4-2.14-6.04-1.36-7.55-1.35-7.56Z"/>
        </g>
        <path class="cls-8" d="M89.9,98.51c1.85.18,1.24,6.29,1.24,6.29-1.42,1.05-3.89.81-3.89.81-.77.1-1.33-.4-1.33-.4-1.71-4.79-.94-5.74-.94-5.74,1.61-1.86,4.92-.96,4.92-.96Z"/>
      </g>
      <g>
        <g>
          <path class="cls-9" d="M87.33,106.82c.73.93.1,1.32.1,1.32-1.19.83-1.53.98-1.53.98-.81.62-1.55-1.19-1.55-1.19.65-.72,2.22-1.74,2.22-1.74.33-.24.76.64.76.64Z"/>
          <path class="cls-19" d="M84.19,107.79l-.09.1.05.13c.05.13.53,1.24,1.21,1.43.07.02.13.03.2.03.16,0,.32-.05.46-.16.1-.05.5-.27,1.54-.99.02-.01.27-.18.33-.53.06-.33-.07-.69-.37-1.09-.09-.18-.37-.68-.72-.77-.12-.03-.25,0-.35.07-.11.07-1.61,1.06-2.26,1.78ZM84.61,107.98c.67-.68,2.07-1.6,2.08-1.61h.01c.08,0,.29.28.43.55l.02.04c.23.29.33.56.3.76-.03.16-.14.24-.14.24-1.15.8-1.5.97-1.5.97l-.04.03c-.13.1-.23.09-.3.07-.32-.09-.67-.64-.86-1.04Z"/>
        </g>
        <g>
          <path class="cls-11" d="M86.45,107.08c.3.39.04.55.04.55-.5.34-.63.41-.63.41-.34.26-.64-.49-.64-.49.27-.3.92-.72.92-.72.14-.1.31.26.31.26Z"/>
          <path class="cls-6" d="M85.05,107.39l-.09.1.05.13c.04.1.25.58.58.67.04.01.08.02.11.02.09,0,.18-.03.26-.08.06-.03.24-.13.65-.42.02-.01.16-.1.19-.3.03-.17-.03-.35-.17-.54-.06-.11-.19-.33-.37-.37-.09-.02-.17,0-.25.05-.06.04-.68.45-.96.76ZM85.47,107.59c.2-.19.52-.41.7-.54.03.04.06.09.08.13l.02.04c.08.1.1.18.1.21h0s0,.02,0,.02c-.46.32-.6.39-.6.39l-.04.02h0c-.06,0-.16-.12-.25-.28Z"/>
        </g>
      </g>
    </g>
    <g>
      <g>
        <path class="cls-9" d="M73.48,78.5c9.54,2.24,14.79,0,14.79,0,1.78-1.36,1.37.19,1.37.19-2.6,1.79-3.12,4.78-3.12,4.78-.28,1.34-2.17,1.51-2.17,1.51-7.19.74-13.85-1.08-13.85-1.08,1.17-4.16,2.98-5.41,2.98-5.41Z"/>
        <path class="cls-19" d="M70.08,83.8l-.12.42.42.12c.06.02,4.73,1.27,10.43,1.27,1.16,0,2.36-.05,3.57-.18.08,0,2.21-.21,2.55-1.86,0-.04.53-2.86,2.94-4.51l.13-.09.04-.16c.04-.14.2-.86-.28-1.18-.5-.33-1.17.08-1.72.49-.53.21-5.67,2.03-14.47-.04l-.19-.04-.16.11c-.08.05-1.96,1.39-3.15,5.65ZM71.05,83.6c.91-2.96,2.14-4.26,2.55-4.63,9.44,2.17,14.63.02,14.85-.07l.05-.02.04-.03c.37-.28.59-.4.71-.44,0,.01,0,.02,0,.04-2.59,1.88-3.13,4.83-3.15,4.96-.21,1-1.77,1.15-1.78,1.15-5.99.62-11.68-.58-13.26-.96Z"/>
      </g>
      <path class="cls-7" d="M84.77,80.16c-2.25,6.74-12.99,3.05-12.99,3.05.5-2.38,1.71-3.84,1.71-3.84,6.29,1.25,11.29.79,11.29.79Z"/>
    </g>
    <g>
      <g>
        <g>
          <path class="cls-18" d="M71.71,77.85l14.81-1.42c12.85,8.7,14.42,24.56,14.42,24.56-2.48,1.54-5.52,2.12-5.52,2.12-11.98,3.78-25.51.1-25.51.1l.44-1.52c-4.41.16-8.38-2.61-8.38-2.61,6.78-10.61,9.74-21.23,9.74-21.23Z"/>
          <path class="cls-13" d="M61.6,98.85l-.22.35.34.24c.16.11,3.8,2.61,8.05,2.7l-.4,1.38.43.12c.09.02,6.05,1.61,13.53,1.61,3.86,0,8.13-.42,12.21-1.71.32-.06,3.22-.67,5.64-2.17l.23-.14-.03-.27c-.02-.16-.42-4.08-2.42-9.13-1.85-4.67-5.46-11.19-12.19-15.74l-.13-.09-15.27,1.46-.08.29c-.03.11-3.02,10.68-9.69,21.11ZM62.57,98.95c5.97-9.46,8.95-18.94,9.48-20.69l14.36-1.37c11.5,7.88,13.78,21.78,14.07,23.88-2.34,1.38-5.11,1.92-5.13,1.92h-.05c-10.53,3.34-22.45.79-24.84.21l.48-1.66-.6.02c-3.48.13-6.72-1.67-7.76-2.31Z"/>
        </g>
        <path class="cls-17" d="M90.85,80.28s7.52,13.25,7.38,19.72c0,0-6.82,1.9-13.24,2.22,0,0-7.15-24.03,5.86-21.94Z"/>
        <g class="cls-21">
          <path class="cls-3" d="M65.59,98.38c3.29,2.27,3.9,3.04,3.9,3.04-3.28-.44-6.51-2.62-6.51-2.62,4.22-6.6,6.92-14.02,6.92-14.02-.71,6.22-4.31,13.61-4.31,13.61Z"/>
        </g>
      </g>
      <g>
        <path class="cls-10" d="M95.3,92.81c-.15.34,0,0,0,0h0Z"/>
        <path class="cls-10" d="M74.15,78.63c5.09,4.16,14.12-.13,14.12-.13,5.2,3.19,6.18,8.33,6.18,8.33,0,0,1,5.64.85,5.98,0,0-5.72,3.73-16.37,3.54-10.82-.2-9.62-2.17-9.62-2.17.48-13.96,4.85-15.55,4.85-15.55Z"/>
        <path class="cls-14" d="M68.87,94.08c-.06.19-.07.46.08.74.66,1.2,4.01,1.86,9.96,1.97.27,0,.55,0,.82,0,10.14,0,15.57-3.47,15.81-3.62l-.07-.11.17.07.66-1.49-.59.38c-.08-.81-.3-2.33-.82-5.27-.04-.22-1.08-5.38-6.38-8.63l-.2-.12-.21.1c-.09.04-8.85,4.12-13.66.18l-.19-.16-.23.08c-.19.07-4.64,1.84-5.13,15.86ZM69.7,94.36l.03-.06v-.11c.4-11.65,3.55-14.5,4.37-15.04,4.87,3.69,12.69.49,14.13-.15,4.79,3.05,5.78,7.87,5.79,7.92.41,2.33.82,4.92.85,5.64-1.05.61-6.6,3.53-15.95,3.36-7.15-.13-8.78-1.04-9.15-1.42-.06-.07-.08-.11-.09-.13Z"/>
      </g>
      <g>
        <path class="cls-16" d="M92.71,90.2c-.12.24,0,0,0,0h0Z"/>
        <path class="cls-16" d="M74.84,79.86c4.3,3.03,11.87,0,11.87,0,4.39,2.33,5.25,6.03,5.25,6.03,0,0,.88,4.06.75,4.3,0,0-4.78,2.64-13.73,2.43-9.1-.22-8.1-1.63-8.1-1.63.3-10.03,3.97-11.14,3.97-11.14Z"/>
      </g>
      <g>
        <path class="cls-10" d="M95.08,95.9l.9,5.1c-3.96,2.25-11.48,2.52-11.48,2.52-10.72.76-16.18-3.03-16.18-3.03l.67-5.41c6.69,4.76,26.09.82,26.09.82Z"/>
        <path class="cls-14" d="M68.64,94.3l-.79,6.39.22.15c.21.14,4.74,3.21,13.6,3.21.91,0,1.86-.03,2.86-.1.3-.01,7.66-.29,11.67-2.58l.27-.15-1.03-5.84-.44.09c-.19.04-19.29,3.85-25.75-.75l-.59-.42ZM68.78,100.26l.55-4.45c6.69,3.91,22.49,1.15,25.4.59l.77,4.35c-3.89,2.04-10.94,2.31-11.02,2.32-9.29.66-14.59-2.15-15.7-2.82Z"/>
      </g>
      <path class="cls-16" d="M71.11,96.11l-.49,4.61-1.49-.67.53-4.73s1.34.61,1.44.8Z"/>
      <g>
        <g>
          <path class="cls-10" d="M79.46,97.44s.03,3.86-.17,7.34c0,0-4.07.36-7.85-1.23l.37-7.02s6.1.79,7.65.91Z"/>
          <path class="cls-14" d="M71.39,96.04l-.41,7.8.28.12c2.67,1.12,5.45,1.3,6.95,1.3.65,0,1.06-.03,1.11-.04l.38-.03.02-.38c.19-3.46.17-7.33.17-7.37v-.4s-.4-.03-.4-.03c-1.53-.12-7.57-.9-7.63-.91l-.47-.06ZM71.89,103.27l.33-6.24c1.34.17,5.16.66,6.81.82,0,1.02,0,3.85-.15,6.53-1.04.04-4.09.03-6.99-1.1Z"/>
        </g>
        <path class="cls-16" d="M74.32,97.91l3.82,1.19s-.88,5.34-5.96,4.06l.13-5.56,2.01.31Z"/>
      </g>
      <g>
        <g>
          <g>
            <path class="cls-9" d="M69.11,91.61c18.76,4.58,25.67-.97,25.67-.97.48-.38.71-.2.81.34.12.64.2,3.61.2,3.61.02.49-.49,1.1-.49,1.1-13.79,5.99-26.59.58-26.59.58-.95-.07-.42-4.64-.42-4.64.62-1.17.82-.02.82-.02Z"/>
            <path class="cls-13" d="M67.85,91.57c-.11.92-.4,4,.29,4.84.15.18.32.25.45.28.59.24,5.8,2.24,12.92,2.24,4.18,0,9.02-.69,13.97-2.84l.09-.04.07-.08c.11-.12.63-.78.6-1.41,0-.3-.09-3.01-.21-3.67-.03-.17-.13-.69-.56-.85-.28-.11-.6-.02-.94.25-.07.05-6.96,5.3-25.05.94-.09-.24-.26-.52-.59-.57-.53-.08-.85.52-.97.75l-.04.07v.08ZM68.7,91.8l.03.16.27.07c5.55,1.36,10.07,1.84,13.7,1.84,8.62,0,12.15-2.72,12.35-2.89.03-.02.05-.04.08-.06,0,.03.02.08.03.13.09.5.17,2.72.2,3.54,0,.2-.18.53-.33.74-13.42,5.78-26.03.59-26.15.53l-.08-.03c-.25-.34-.29-2.17-.09-4.03Z"/>
          </g>
          <path class="cls-7" d="M69.25,92.25c17.16,3.73,24.84-.54,24.84-.54.13-.07.23.09.32.08-.21,1.46-.63,3.72-3.39,5.07-14.91,3.1-22.15-1-22.15-1-.92-.07-.42-3.61-.42-3.61.59-.84.8,0,.8,0Z"/>
          <g>
            <path class="cls-16" d="M68.61,95.78s.02.05.04.07c0,0-.03-.01-.04-.07Z"/>
            <path class="cls-16" d="M68.33,92.76c-.04-1.35,1.13-.51,1.13-.51,14.39,3.38,23.58-.09,23.58-.09,1.74-.59-.69.97-.69.97-8.37,4.06-22.85.48-22.85.48-.86,1.55-.91,2.02-.88,2.16-.57-.77-.29-3.02-.29-3.02Z"/>
          </g>
        </g>
        <g>
          <g>
            <path class="cls-9" d="M75.48,91.87c2.06.07,3.67,1.79,3.6,3.85-.07,2.06-1.79,3.67-3.85,3.6-2.06-.07-3.67-1.79-3.6-3.85s1.79-3.67,3.85-3.6Z"/>
            <path class="cls-13" d="M72.51,92.55c-.81.76-1.28,1.79-1.32,2.9-.08,2.29,1.72,4.22,4.02,4.3.05,0,.1,0,.15,0,1.06,0,2.06-.39,2.84-1.12.81-.76,1.28-1.79,1.32-2.9.04-1.11-.36-2.17-1.12-2.98-.76-.81-1.79-1.28-2.9-1.32-1.11-.04-2.17.36-2.98,1.12ZM72.06,95.48c.03-.88.4-1.69,1.04-2.29.61-.57,1.41-.89,2.24-.89.04,0,.08,0,.12,0,.88.03,1.69.4,2.29,1.04.6.64.91,1.48.88,2.36-.03.88-.4,1.69-1.04,2.29-.64.6-1.48.91-2.36.88-1.81-.06-3.24-1.59-3.18-3.4Z"/>
          </g>
          <path class="cls-7" d="M75.17,92.49c1.63.06,2.9,1.51,2.84,3.26-.06,1.74-1.43,3.11-3.06,3.06-1.63-.06-2.9-1.51-2.84-3.26.06-1.74,1.43-3.11,3.06-3.06Z"/>
          <g>
            <g>
              <path class="cls-9" d="M75.15,93.21c1.26.23,2.11,1.5,1.91,2.82-.2,1.32-1.39,2.21-2.65,1.97s-2.11-1.5-1.91-2.82c.2-1.32,1.39-2.21,2.65-1.97Z"/>
              <path class="cls-13" d="M72.17,95.14c-.23,1.49.74,2.92,2.17,3.19.16.03.31.04.47.04.52,0,1.02-.16,1.46-.47.6-.42.99-1.07,1.11-1.82.23-1.49-.74-2.93-2.17-3.19-.68-.13-1.36.03-1.92.43-.6.42-.99,1.07-1.11,1.82ZM72.82,95.24c.09-.57.39-1.06.84-1.38.32-.23.7-.35,1.08-.35.11,0,.23.01.34.03,1.08.2,1.82,1.3,1.65,2.45-.09.57-.39,1.06-.84,1.38-.42.3-.93.41-1.43.32-1.08-.2-1.82-1.3-1.65-2.45h0Z"/>
            </g>
            <path class="cls-7" d="M74.61,93.41c.93.06,1.63,1.05,1.56,2.2-.07,1.15-.89,2.03-1.82,1.96-.93-.06-1.63-1.05-1.56-2.2.07-1.15.89-2.03,1.82-1.96Z"/>
            <path class="cls-16" d="M73.98,93.86c.63.02,1.12.74,1.09,1.61-.03.87-.56,1.55-1.19,1.53-.63-.02-1.12-.74-1.09-1.61.03-.87.56-1.55,1.19-1.53Z"/>
          </g>
        </g>
      </g>
      <g>
        <path class="cls-18" d="M73.56,86.34c.78.33,1.62.49,2.43.55-.02-1.17-.49-1.92-.49-1.92,1.63-.61,3.08.02,3.08.02-.67.56-1.06,1.23-1.27,1.92,1.61-.06,2.85-.42,2.85-.42,1.62,1.1.26,1.77.26,1.77-1.16-.4-2.27-.6-3.26-.68-.26,1.82.53,3.55.53,3.55-2.34,1.14-3.58-.17-3.58-.17,1.23-1.26,1.7-2.45,1.83-3.43-1.86,0-3.09.38-3.09.38-.91-.78.69-1.57.69-1.57Z"/>
        <path class="cls-13" d="M72.27,87.3c-.03.22.02.55.39.86l.14.12.17-.05s1.04-.31,2.6-.36c-.22.99-.78,1.95-1.68,2.87l-.22.22.22.23s.72.74,1.98.74c.55,0,1.21-.13,1.97-.5l.29-.14-.13-.29s-.66-1.47-.54-3.05c.98.11,1.94.32,2.86.63l.13.04.12-.06c.07-.03.67-.35.71-.96.03-.47-.28-.93-.93-1.38l-.13-.09-.15.04s-.98.28-2.28.38c.23-.5.56-.94,1-1.31l.41-.34-.48-.21c-.06-.03-1.59-.67-3.32-.03l-.38.14.21.34s.33.54.42,1.38c-.72-.08-1.38-.25-1.96-.49l-.14-.06-.13.07c-.11.05-1.06.54-1.15,1.25ZM77.19,87.26h-.12s.25-.02.25-.02c1.32-.05,2.39-.3,2.78-.39.35.26.54.51.53.7,0,.16-.15.28-.25.36-1.03-.34-2.1-.55-3.19-.65ZM76.28,87.58l.05-.33h0s0-.04,0-.04h0v-.32c-.02-.76-.21-1.36-.36-1.72.8-.21,1.53-.13,1.99-.02-.44.48-.76,1.04-.95,1.67l-.13.44h.02s-.04.28-.04.28c-.21,1.45.22,2.83.44,3.42-1.37.58-2.27.22-2.67-.03.96-1.06,1.52-2.19,1.67-3.35ZM72.92,87.38c.03-.22.38-.51.66-.68.68.26,1.45.44,2.29.51-1.44.01-2.49.23-2.9.34-.06-.09-.05-.15-.05-.17Z"/>
      </g>
      <path class="cls-16" d="M93.06,97.67s.42,3.26-1.93,4.11c0,0-4.01,1.37-10.45,1.01,0,0-.78-1.5-.7-3.54,0,0,5.27.92,13.08-1.57Z"/>
    </g>
    <g>
      <g>
        <path class="cls-9" d="M90.29,78.26c.51-.09,4.84-.59,8,1.33,0,0,3.61,2.45,6.16,6.86,0,0-4.11.97-5.17,4.12,0,0-2.15-2.87-4.02-5.17-.66-.82-3.72-.8-5.7-1.36-2.29-.65-3-5.15.72-5.78Z"/>
        <path class="cls-19" d="M87.25,80.94c-.09,1.62.86,3.13,2.21,3.51.78.22,1.71.35,2.6.48,1.14.16,2.57.36,2.87.73,1.84,2.27,3.98,5.13,4.01,5.16l.5.66.26-.79c.97-2.88,4.82-3.83,4.86-3.83l.57-.13-.29-.51c-2.57-4.44-6.15-6.9-6.3-7h-.02c-3.48-2.13-8.25-1.41-8.3-1.4-1.77.3-2.88,1.46-2.97,3.11ZM88.12,80.99c.03-.58.31-1.98,2.25-2.3.04,0,4.48-.68,7.69,1.26.18.13,3.35,2.36,5.74,6.23-1.1.36-3.5,1.37-4.61,3.52-.73-.97-2.23-2.93-3.57-4.58-.52-.64-1.86-.83-3.43-1.05-.87-.12-1.76-.25-2.49-.45-.95-.27-1.64-1.42-1.57-2.63Z"/>
      </g>
      <path class="cls-7" d="M92.87,79.81s2.01-.13,4.21.79c0,0,.78.08,2.41,2.32,0,0-2.17.81-2.93,3.19,0,0-.39-.68-1.45-1.54,0,0-2.13-.7-4.4-.88,0,0-2.41-.08-2.28-2.36,0,0,.22-1.73,4.43-1.52Z"/>
      <g>
        <g>
          <g>
            <path class="cls-11" d="M103.55,82.68c1.02,1.58,1.46,4.65,1.46,4.65-4.49.61-5.51,4.09-5.51,4.09l-3.52-3.92c2.4-4.97,7.57-4.82,7.57-4.82Z"/>
            <path class="cls-6" d="M95.58,87.31l-.13.26,4.24,4.71.22-.75c.04-.13,1.02-3.21,5.16-3.78l.43-.06-.06-.43c-.02-.13-.47-3.19-1.53-4.83l-.12-.19h-.23c-.05,0-5.49-.1-7.98,5.06ZM96.5,87.43c2.01-3.84,5.84-4.27,6.81-4.31.67,1.17,1.06,3.02,1.2,3.85-3.2.59-4.61,2.58-5.15,3.65l-2.87-3.19Z"/>
          </g>
          <path class="cls-15" d="M103.91,86.96s-2.59.48-4.32,3.64l-3.02-3.13s3.93-5.39,7.34-.51Z"/>
          <g>
            <path class="cls-6" d="M101.1,87.09c.22,0,.44.02.67.06.22.04.44.09.66.18-.22.09-.45.13-.67.16-.22.03-.44.04-.67.04s-.44-.02-.67-.06c-.22-.04-.44-.09-.66-.18.22-.09.45-.13.67-.16.22-.03.44-.04.67-.04Z"/>
            <path class="cls-6" d="M101,87.09c.1-.2.21-.39.33-.58.13-.18.27-.37.45-.53-.02.24-.07.46-.14.68-.07.21-.15.42-.25.62-.1.2-.21.39-.33.58-.13.19-.27.37-.45.53.02-.24.07-.46.14-.68.07-.21.15-.42.25-.62Z"/>
          </g>
          <g>
            <path class="cls-6" d="M100.22,85.55c.22,0,.44.02.66.06.22.04.44.09.66.18-.22.09-.45.13-.67.16-.22.03-.44.04-.67.04-.22,0-.44-.02-.67-.06-.22-.04-.44-.09-.66-.18.22-.09.45-.13.67-.16.22-.03.44-.04.67-.04Z"/>
            <path class="cls-6" d="M100.12,85.55c.1-.2.21-.39.33-.58.13-.19.27-.37.45-.53-.02.24-.07.46-.14.68-.07.21-.15.42-.25.62-.1.2-.21.39-.33.58-.13.18-.27.37-.45.53.02-.24.07-.46.14-.68.07-.21.15-.42.25-.62Z"/>
          </g>
        </g>
        <g>
          <g>
            <path class="cls-11" d="M102.7,87.74c2.48-1.38,3.61-.06,3.61-.06,1.05,1.17,2.08,2.88,2.08,2.88l-.65,1.12c.39.45.32.58.32.58l-.74,1.07c.21.56-.34,1.3-.34,1.3-1.37.81-1.64,2.2-1.64,2.2-.3.71-2.19-.55-2.19-.55-.91.74-1.88-.26-1.88-.26-.26-1.09-2.33-2.36-2.33-2.36.45-4.56,3.74-5.92,3.74-5.92Z"/>
            <path class="cls-6" d="M98.52,93.61l-.03.27.23.14c.74.45,1.97,1.42,2.13,2.08l.03.12.08.09c.39.41,1.31.97,2.2.48.44.27,1.21.68,1.8.68.1,0,.2-.01.28-.04.23-.07.41-.23.5-.45l.03-.08s.26-1.22,1.44-1.91l.07-.04.05-.07c.06-.08.56-.78.46-1.47l.65-.94c.16-.27,0-.6-.17-.83l.63-1.08-.13-.22c-.04-.07-1.07-1.76-2.13-2.94-.12-.13-1.46-1.53-4.13-.04-.35.15-3.53,1.66-3.99,6.26ZM99.41,93.43c.52-4.04,3.42-5.28,3.45-5.29l.05-.02c2.11-1.18,3.04-.19,3.08-.15l.33-.29-.32.29c.79.88,1.59,2.1,1.9,2.59l-.68,1.16.21.24c.08.09.14.17.17.22l-.75,1.08.08.21c.08.23-.1.62-.24.83-1.22.76-1.63,1.93-1.73,2.31h0c-.26,0-.97-.32-1.54-.7l-.27-.18-.25.2c-.49.4-1.03,0-1.22-.16-.33-.99-1.68-1.96-2.25-2.34Z"/>
          </g>
          <path class="cls-15" d="M103.32,89.15c.68-.25,1.56-.16,1.56-.16,1.21.66,1.71,1.96,1.71,1.96.27,1.06-.59,1.18-.59,1.18.63,1.02-.34,2.37-.34,2.37-.7.91-.85,1.94-.85,1.94-.48.25-1.09-.48-1.09-.48.53-2.41-.94-3-.94-3,.45.91.14,2.2.14,2.2-.29.91-1.27.43-1.27.43-1.23-1.96-2.04-2.04-2.04-2.04,1.21-4,3.7-4.41,3.7-4.41Z"/>
          <g>
            <g>
              <path class="cls-6" d="M102.92,95.92s.06-.02.08-.03c.06-.03.11-.07.15-.13.09-.12.14-.3.16-.5,0-.21,0-.43-.05-.65-.04-.22-.11-.44-.17-.67l.02.03c-.09-.18-.13-.34-.13-.52,0-.17.05-.35.13-.49.08-.15.2-.26.32-.36.06-.05.13-.09.19-.13l.2-.11-.18.14c-.05.05-.11.11-.16.16-.1.11-.18.24-.22.37-.04.13-.05.27-.03.4.02.13.09.26.15.35h0s.01.03.01.03c.11.22.22.44.31.67.09.23.16.48.2.75.03.27.02.57-.11.88-.07.15-.17.3-.31.41-.07.06-.14.11-.22.15-.04.02-.08.04-.12.06-.02,0-.04.02-.07.02-.03,0-.04.01-.09.02l-.12-.86s0,0,.01,0c.01,0,.03,0,.04,0Z"/>
              <path class="cls-6" d="M102.87,95.93h0s0,0,0,0c0,0-.02,0,0,0Z"/>
            </g>
            <path class="cls-6" d="M104.27,93.88c.16.07.31.15.46.23.15.08.31.17.44.27-.33-.06-.67-.07-1.01-.08-.34,0-.68,0-1.01,0l.17-.85c.32.14.63.28.95.43Z"/>
            <polygon class="cls-6" points="106.98 93.58 105.79 91.25 107.67 93.06 106.98 93.58"/>
            <polygon class="cls-6" points="107.38 91.92 106.64 90.03 108.11 91.43 107.38 91.92"/>
          </g>
        </g>
      </g>
    </g>
    <g>
      <g>
        <path class="cls-9" d="M71.98,60.04c.43,3.79-6.23,3.59-6.23,3.59-1.02-3.63.52-7.38.52-7.38,5.59-2.15,5.71,3.79,5.71,3.79Z"/>
        <path class="cls-19" d="M65.87,56.09c-.07.16-1.59,3.93-.54,7.66l.09.31h.32s.1.01.21.01c.89,0,4.23-.11,5.73-1.74.58-.63.83-1.41.73-2.31,0-.29-.14-2.89-1.92-4.09-1.11-.74-2.58-.77-4.38-.08l-.17.07-.07.17ZM66.61,56.59c.69-.25,1.31-.37,1.87-.37.59,0,1.1.14,1.53.43,1.47.99,1.53,3.38,1.53,3.4v.04c.08.66-.09,1.19-.5,1.64-1.19,1.29-4,1.45-4.96,1.46-.7-2.91.26-5.87.52-6.6Z"/>
      </g>
      <g>
        <path class="cls-12" d="M67.29,60.52s.67-1.62,0-3.23l.04-1.31s4.06-.65,6.32-.8c0,0,14.03-.35,18.84,3.81,0,0-2.5,2.7-3.65,2.67,0,0,1.49,2.7-.21,4.44,0,0-2.15,3.12-4.7,3.1,0,0-.33-.38-1.31-1.13l-14.5-.37s-1.56-.51-.12-1.38c0,0-3.24-3.2-.71-5.8Z"/>
        <path class="cls-13" d="M67.35,66.26c-.3.27-.43.56-.39.86.07.65.87.93,1.02.99l.06.02h.06s14.36.36,14.36.36c.83.65,1.13.98,1.13.99l.13.15h.2s.01,0,.02,0c2.63,0,4.77-2.91,5.02-3.26,1.41-1.48.86-3.48.49-4.42,1.29-.5,2.98-2.28,3.35-2.68l.31-.33-.34-.29c-4.88-4.22-18.56-3.93-19.14-3.91-2.27.16-6.21.78-6.38.81l-.36.06-.05,1.77.04.09c.52,1.25.14,2.52.03,2.83-1.94,2.08-.72,4.63.44,5.98ZM68.7,66.41l-.4-.39c-.12-.12-2.9-2.93-.7-5.19l.06-.06.03-.08c.03-.07.7-1.75.03-3.48l.02-.86c1.04-.16,4.1-.62,5.93-.74.12,0,13.23-.28,18.17,3.42-.99,1.01-2.41,2.2-3,2.19l-.76-.02.36.66s1.31,2.44-.14,3.93l-.05.06s-1.95,2.78-4.16,2.91c-.19-.19-.57-.53-1.22-1.04l-.11-.09h-.14s-14.43-.37-14.43-.37c-.16-.06-.33-.17-.37-.23.02-.04.1-.16.4-.33l.48-.29Z"/>
      </g>
      <path class="cls-16" d="M81.47,60.34l-.21.04c-1.27,0-.2-1.21-.2-1.21.65.63.41,1.17.41,1.17Z"/>
      <path class="cls-16" d="M70.25,59.37c.66.46,0,1.25,0,1.25-1.2-.65,0-1.25,0-1.25Z"/>
      <path class="cls-2" d="M68.01,56.75c6.3-2.71,16.94.5,16.94.5-1.14,2.2-.29,4.18-.29,4.18,2,3.17.38,3.68.38,3.68-.78.64-1.93.51-1.93.51l-.94-.28c-5.61-2.17-12.04-1.5-12.04-1.5-.59.1-2.4.9-2.4.9-.43-.76-.47-1.2-.47-1.2.26-1.31,1.31-2.63,1.31-2.63,1.2-1.37-.57-4.16-.57-4.16Z"/>
      <path class="cls-16" d="M81.31,58.21c1.72.41,2.1,3.04,2.1,3.04-.09.41-.48.56-.76.59-.23.03-1,.1-1,.1-3.42.31-3.31-1.16-3.31-1.16v-.17c.22-2.61,1.99-2.63,2.97-2.4Z"/>
      <g>
        <g>
          <path class="cls-4" d="M75.49,56.27c.88.3,1.29.18,1.54-.05,2.66-2.55,3.19-2.78,4.51-2.35,2.58.83,4.05,3.34,4.05,3.34-.19,1.96-2.4.18-2.4.18-2.08-2.08-4.87.29-4.87.29-.68.87-2.4.18-2.4.18-1.66-1.2-.8-1.7-.42-1.57Z"/>
          <path class="cls-13" d="M74.58,56.26c-.2.38-.17,1.02,1.08,1.92l.04.03.05.02c.08.03,1.99.79,2.88-.27.3-.24,2.56-1.97,4.25-.29l.03.03c.2.16,1.09.84,1.9.84.16,0,.32-.03.47-.09.3-.12.67-.44.74-1.22v-.14s-.06-.12-.06-.12c-.06-.11-1.58-2.66-4.29-3.53-1.62-.52-2.39,0-4.95,2.45-.17.16-.54.15-1.1-.04h0c-.34-.12-.84,0-1.05.41ZM75.38,56.69c.58.19,1.39.37,1.95-.16,2.68-2.57,3.03-2.59,4.08-2.25,2.07.66,3.41,2.53,3.73,3.02-.03.15-.08.32-.19.36-.3.13-1.04-.27-1.47-.61-1.87-1.84-4.38-.62-5.44.28l-.06.06c-.37.48-1.44.21-1.85.06-.55-.4-.7-.65-.74-.76Z"/>
        </g>
        <path class="cls-5" d="M75.68,56.56c.61.16,1.6-.11,1.76-.29,1.68-1.87,2.17-2.4,3.09-2.18,1.79.43,2.91,2.07,2.91,2.07.47,1.34-.96.19-.96.19-1.97-1.06-3.96.49-3.96.49-.68,1.12-1.59.7-1.59.7-1.34-.19-1.52-1.05-1.25-.98Z"/>
        <path class="cls-1" d="M76.72,56.62c-.4.36.1.45.1.45.65.1,1.15-.04,1.15-.04.59.26-.41.65-.41.65-1.72.23-2.08-.88-2.08-.88.23-.64,1.24-.19,1.24-.19Z"/>
      </g>
      <path class="cls-13" d="M78.68,58.58s.07-.09.12-.14c.06-.06.09-.08.14-.12.08-.07.16-.14.26-.2l.29-.17c.4-.2.86-.28,1.3-.26.44.03.86.16,1.23.35.19.1.36.2.54.35.17.15.32.32.43.51.23.37.35.76.42,1.15.06.39.08.78.02,1.17-.13-.37-.26-.72-.42-1.04-.16-.33-.34-.63-.56-.88-.11-.13-.23-.22-.35-.31-.12-.07-.28-.15-.43-.22-.31-.12-.63-.22-.94-.23-.31-.02-.61.03-.9.14l-.21.1c-.07.04-.14.09-.21.13-.03.02-.08.05-.09.05-.02.02-.05.04-.08.07-.05.05-.11.11-.16.17-.2.25-.36.56-.48.9-.13.34-.2.7-.27,1.09-.22-.74-.23-1.59.18-2.36.05-.1.11-.19.18-.28Z"/>
      <path class="cls-16" d="M67.35,61.14c1.53-2.37.13-4.33.13-4.33l.59-.04c1.7,1.72.62,3.84.62,3.84-1.25,1.86-.27,4.48-.27,4.48l-.95.09c-1.49-3.04-.12-4.04-.12-4.04Z"/>
      <path class="cls-16" d="M71.98,60.04c0,1.63-1.24,1.66-1.24,1.66-.7.12-2.01-.05-2.01-.05-1.52-1.01-.27-2.5-.27-2.5,1.74-1.87,3.53-.05,3.53.89Z"/>
      <path class="cls-13" d="M68.45,58.33c.08-.07.16-.14.24-.21.09-.06.18-.12.27-.18.38-.22.84-.32,1.28-.29.44.03.84.18,1.21.38.18.11.34.21.52.38.16.16.29.34.39.52.2.37.3.75.35,1.13.05.38.06.76,0,1.13-.13-.35-.25-.7-.4-1.02-.15-.32-.31-.63-.51-.87-.05-.06-.1-.12-.16-.17-.05-.06-.11-.1-.16-.14-.1-.08-.25-.16-.39-.22-.29-.13-.59-.23-.88-.24-.29-.02-.57.03-.84.15-.07.04-.13.06-.2.1-.06.05-.13.09-.19.13-.04.02-.09.07-.14.13-.05.05-.1.12-.14.18-.37.52-.56,1.22-.7,1.95-.22-.71-.24-1.53.11-2.29.1-.19.19-.37.38-.55Z"/>
      <g>
        <g>
          <path class="cls-12" d="M72.19,56.61s.22.32.39.8l-.39-.8Z"/>
          <path class="cls-12" d="M72.26,60.04c.72-.91.57-1.94.32-2.63l2.85,5.86c2.08-.29,3.14,1.58,3.14,1.58.8,1.98-1.44,2.07-1.44,2.07-1.49-.57-2.29,0-2.29,0-1.7,1.08-3.44.52-3.44.52-1.94-.89-.87-3.95-.87-3.95.43-1.67,1.73-3.46,1.73-3.46Z"/>
          <g>
            <path class="cls-13" d="M70.08,63.36c.19-.65.48-1.24.79-1.8.32-.57.68-1.1,1.07-1.61l.08-.1.07-.08c.05-.06.08-.11.13-.17.07-.12.15-.24.2-.37.11-.26.17-.55.18-.84.02-.59-.14-1.21-.41-1.78.4.49.68,1.1.77,1.76.04.33.02.68-.07,1.02-.05.17-.11.33-.19.49-.04.08-.08.16-.13.23l-.07.11-.06.09c-.32.52-.61,1.07-.87,1.62-.26.55-.47,1.12-.6,1.69v.04c-.1.3-.17.66-.2.99-.04.34-.04.67,0,.98.04.31.12.6.27.82.07.11.15.21.25.3.09.08.19.14.31.2-.01,0-.03,0-.04,0l.06.02s-.02-.01-.03-.01c.07.02.17.04.25.05.11.02.21.03.32.04.22.02.44.02.66,0,.44-.03.86-.13,1.26-.3.1-.04.2-.09.3-.14.05-.02.09-.05.14-.07l.03-.02.07-.04s.08-.04.12-.06c.3-.14.6-.19.9-.21.56-.03,1.09.1,1.57.29-.03,0-.07,0-.09,0l.17.03s-.06-.02-.08-.03c.07,0,.15-.01.22-.03.11-.02.21-.04.31-.08.2-.07.37-.16.48-.29.11-.12.18-.28.18-.48,0-.19-.03-.41-.11-.63,0,0,0,.02.01.02l-.02-.04s0,0,0,.01c-.12-.22-.29-.46-.48-.67-.19-.22-.42-.41-.66-.57-.25-.16-.52-.29-.81-.36-.29-.08-.6-.11-.91-.11.3-.08.62-.11.94-.08.32.03.64.11.94.24.3.14.58.32.83.53.26.22.48.45.68.75h0s.01.03.01.03c.12.26.21.54.24.86.03.31-.06.68-.27.96-.21.28-.5.46-.78.58-.14.06-.28.11-.43.14-.15.04-.28.06-.45.08h-.07s-.11-.03-.11-.03c-.43-.14-.86-.21-1.26-.17-.2.02-.39.07-.54.15-.02,0-.03.02-.05.03h-.01s-.05.04-.05.04c-.06.04-.13.08-.18.11-.12.07-.24.14-.37.19-.51.23-1.05.38-1.61.43-.28.02-.55.02-.83,0-.14-.01-.28-.03-.41-.05-.14-.03-.26-.05-.44-.1h-.03s-.03-.02-.03-.02c-.21-.1-.41-.23-.59-.39-.18-.16-.33-.35-.45-.55-.24-.41-.35-.85-.39-1.27-.04-.42,0-.83.05-1.23.06-.39.15-.75.29-1.14Z"/>
            <path class="cls-13" d="M70.08,63.34s0,.01,0,.02c0,0,0,.01,0,.02v-.04Z"/>
          </g>
          <path class="cls-13" d="M77.29,66.51l-.17-.03s.06,0,.09,0c.03.01.06.02.08.03Z"/>
          <path class="cls-13" d="M71.62,66.95l-.06-.02s.02,0,.04,0c0,0,.02.01.03.01Z"/>
          <path class="cls-13" d="M78.29,64.98s0,0,0-.01l.02.04s0-.02-.01-.02Z"/>
        </g>
        <path class="cls-2" d="M73.34,58.36c1.27,1.9,2.14,4.78,2.14,4.78l1.04.46c1.37.07,1.78,1.48,1.78,1.48-.07,1.05-1.03.34-1.03.34-1.06-.95-2.74-.24-2.74-.24-1.43.39-1.67.63-1.67.63-1.29-1.72-.3-3.63-.3-3.63,1.36-2.5.79-3.82.79-3.82Z"/>
        <g>
          <path class="cls-1" d="M72.9,57.64c1.08,1.57.08,3.64.08,3.64-1.7,3.09-.12,4.31-.12,4.31-.97.61-1.85.37-1.85.37-.89-2.89,1.13-5.25,1.13-5.25,1.16-1.98.87-2.86.76-3.07Z"/>
          <path class="cls-1" d="M72.9,57.64s-.02-.04-.03-.05c0,0,.01.02.03.05Z"/>
        </g>
      </g>
      <g>
        <path class="cls-13" d="M80.53,59.16c.67.18,1.07.9.89,1.61-.18.71-.88,1.15-1.55.98-.67-.18-1.07-.9-.89-1.61.18-.71.88-1.15,1.55-.98Z"/>
        <path class="cls-16" d="M81.14,60.35c.25.06.39.33.32.6-.07.27-.32.43-.57.37-.25-.06-.39-.33-.32-.6.07-.27.32-.43.57-.37Z"/>
      </g>
      <g>
        <path class="cls-13" d="M69.77,59.09c.61.16.97.82.81,1.46-.16.65-.79,1.04-1.4.88-.61-.16-.97-.82-.81-1.46.17-.65.79-1.04,1.4-.88Z"/>
        <path class="cls-16" d="M70.32,60.17c.22.06.35.3.29.55-.06.24-.29.39-.52.33-.22-.06-.35-.3-.29-.55.06-.24.29-.39.52-.33Z"/>
      </g>
      <g>
        <g>
          <path class="cls-4" d="M69.09,54.55s.8.75,1.41,1.26c0,0,.51.49,1.05.45.23-.02.45-.43.93-.19,0,0,.67,1.57-1.3,1.68,0,0-1.05-.07-1.42-.51,0,0-.61-.75-1.97-.57,0,0-1.85.62-1.48-.82,0,0,.52-2.59,2.78-1.3Z"/>
          <path class="cls-13" d="M65.88,55.75c-.17.65.04,1.01.24,1.19.52.49,1.48.24,1.76.15,1.06-.13,1.53.42,1.54.42.47.56,1.52.65,1.72.67h.03s.03,0,.03,0c.78-.05,1.32-.3,1.61-.77.41-.66.1-1.43.07-1.52l-.06-.14-.14-.07c-.54-.28-.94-.02-1.13.1-.02.01-.04.03-.07.04h0c-.28,0-.6-.26-.68-.33l-.03-.02c-.59-.49-1.38-1.23-1.39-1.24l-.04-.04-.05-.03c-.79-.45-1.5-.54-2.11-.26-.98.45-1.27,1.68-1.31,1.84ZM66.73,55.96v-.03c.06-.26.31-1,.83-1.23.33-.15.76-.08,1.27.2.17.16.84.78,1.38,1.23.11.11.69.61,1.37.55.19-.01.33-.11.44-.18.05-.03.08-.05.11-.07.03.15.04.36-.06.52-.16.25-.57.33-.89.35-.35-.03-.92-.15-1.08-.35-.03-.03-.78-.94-2.36-.73l-.08.02c-.37.12-.83.15-.93.05-.02-.02-.05-.11.01-.35Z"/>
        </g>
        <path class="cls-5" d="M68.48,54.73s.37,0,.89.61c0,0,.62.57,1.24,1.16,0,0,.63.31-.5.49,0,0-1.1-.25-1.34-.56,0,0-.34-.26-1.12-.06,0,0-.86.28-.72-.8,0,0,.52-1.33,1.55-.83Z"/>
        <path class="cls-1" d="M67.51,54.64c.18-.3,1.32.25,1.32.25-1.75-.27-1.21,1.34-1.21,1.34-.52.57-.95-.03-.95-.03-.01-1.58.85-1.56.85-1.56Z"/>
      </g>
      <g>
        <path class="cls-9" d="M69.54,45.85c12.78-6.03,25.53,1.21,25.53,1.21,1.96,8.68,1.73,13.93,1.73,13.93-17.2-6.55-30.96-4.31-30.96-4.31,1.78-9.11,3.7-10.84,3.7-10.84Z"/>
        <path class="cls-19" d="M65.41,56.61l-.12.61.62-.1c.14-.02,13.86-2.14,30.74,4.29l.56.21.03-.6c0-.22.22-5.41-1.74-14.05l-.04-.19-.17-.09c-.13-.08-3.3-1.85-8.1-2.91-4.43-.98-11.13-1.48-17.84,1.68l-.06.03-.05.04c-.08.07-2.05,1.93-3.84,11.08ZM66.38,56.18c1.54-7.57,3.15-9.67,3.42-9.97,11.63-5.44,23.37.34,24.89,1.14,1.51,6.75,1.68,11.42,1.68,13.02-14.82-5.5-27.15-4.52-29.99-4.19Z"/>
      </g>
      <path class="cls-7" d="M80.3,48.03c5.33,3.44,4.14,8.85,4.14,8.85-8.25-2.19-17.6-1.41-17.6-1.41,2.46-6.63,2.97-7.29,2.97-7.29,6.43-3.71,10.49-.16,10.49-.16Z"/>
      <path class="cls-16" d="M79.55,45.96c-4.74.44-8.39,2.88-8.39,2.88-1.92,4.15-1.98,5.3-1.98,5.3,10.23-.11,14.44,2.52,14.44,2.52-13.33-1.52-17.21-.76-17.21-.76,1.37-5.54,2.31-7.72,2.31-7.72,3.86-2.35,10.84-2.23,10.84-2.23Z"/>
      <path class="cls-7" d="M94.06,49.93s1.01,1.63-1.8,1.86c0,0,1.24.61,2.05,7.23,0,0-2.09-.84-3.16-.99,0,0-3.4-6.8-1.91-10.72,0,0,2.81.23,4.83,2.62Z"/>
      <path class="cls-16" d="M91.58,48.41c.68,3.38.44,8.04.44,8.04-2.99-6.97-1.8-9.18-1.8-9.18l1.37,1.14Z"/>
      <g>
        <path class="cls-19" d="M91.86,47.43c.08.55.16,1.11.23,1.66.14,1.11.25,2.21.34,3.32.1,1.11.17,2.22.23,3.33l.08,1.66.06,1.66-.17-1.65-.19-1.65c-.14-1.1-.28-2.2-.45-3.29-.16-1.09-.34-2.19-.55-3.27-.1-.54-.21-1.08-.33-1.62-.12-.53-.25-1.08-.39-1.58l.84-.22c.12.57.21,1.11.3,1.67Z"/>
        <path class="cls-19" d="M73.65,48.3c.07-.38.14-.76.22-1.14.09-.38.18-.75.33-1.15l.8.35c-.14.3-.27.66-.39,1.01-.12.35-.22.71-.32,1.07-.19.72-.35,1.46-.48,2.2-.13.74-.23,1.49-.31,2.24-.04.38-.07.75-.11,1.13l-.07,1.14-.04-1.14c0-.38,0-.76,0-1.14.01-.76.03-1.52.1-2.29.06-.76.14-1.52.27-2.28Z"/>
      </g>
      <g>
        <g>
          <path class="cls-9" d="M90.15,49.11c.25-.02.49.33.52.79.04.45-.14.84-.4.86-.25.02-.49-.33-.52-.79-.04-.45.14-.84.4-.86Z"/>
          <path class="cls-19" d="M89.45,49.19c-.11.23-.15.52-.13.81.02.29.11.57.25.78.18.26.42.41.69.41.02,0,.04,0,.05,0,.51-.04.85-.61.8-1.33-.06-.72-.48-1.23-.99-1.19-.28.02-.53.21-.67.52ZM90.19,49.93c0-.09,0-.16,0-.22.02.06.04.13.04.22s0,.16,0,.22c-.02-.06-.04-.13-.04-.22Z"/>
        </g>
        <path class="cls-7" d="M90.18,49.63c.15-.01.29.2.31.46.02.27-.08.49-.23.5-.15.01-.29-.2-.31-.46-.02-.27.08-.49.23-.5Z"/>
        <path class="cls-16" d="M90.16,49.94c.1,0,.2.14.21.32.01.18-.06.34-.16.35-.1,0-.2-.14-.21-.32-.01-.18.06-.34.16-.35Z"/>
      </g>
      <g>
        <g>
          <path class="cls-9" d="M90.37,53.46c.25-.02.49.33.52.79.04.45-.14.84-.4.86-.25.02-.49-.33-.52-.79-.04-.45.14-.84.4-.86Z"/>
          <path class="cls-19" d="M89.66,53.55c-.11.23-.15.52-.13.81.02.29.11.57.25.78.18.26.42.41.69.41.02,0,.04,0,.05,0,.51-.04.85-.61.8-1.33-.06-.72-.48-1.23-.99-1.19-.28.02-.53.21-.67.52ZM90.4,54.29c0-.09,0-.16,0-.22.02.06.04.13.04.22,0,.09,0,.16,0,.22-.02-.06-.04-.13-.04-.22Z"/>
        </g>
        <path class="cls-7" d="M90.4,53.99c.15-.01.29.2.31.46.02.27-.08.49-.23.5-.15.01-.29-.2-.31-.46-.02-.27.08-.49.23-.5Z"/>
        <path class="cls-16" d="M90.38,54.29c.1,0,.2.14.21.32.01.18-.06.34-.16.35-.1,0-.2-.14-.21-.32-.01-.18.06-.34.16-.35Z"/>
      </g>
      <g>
        <g>
          <path class="cls-9" d="M69.1,45.1c4.4-2.43,8.76-2.19,8.76-2.19,10.72-.67,17.62,4.3,17.62,4.3.75,2.49.19,2.73.19,2.73-5.76-3.75-13.59-4.29-13.59-4.29-6.33-.78-13.52,1.96-13.52,1.96-.4-.13-.35-.34-.37-.6-.04-.39.19-.86.43-1.24.24-.38.48-.66.48-.66Z"/>
          <path class="cls-19" d="M68.25,45.52c-.37.59-.53,1.09-.49,1.51,0,.03,0,.06,0,.09.01.22.04.69.67.89l.14.05.14-.05c.07-.03,7.17-2.69,13.31-1.93h.02c.08,0,7.79.59,13.38,4.23l.19.13.21-.09c.42-.18.77-.89.06-3.25l-.04-.14-.12-.09c-.29-.21-7.14-5.05-17.88-4.38-.41-.02-4.65-.15-8.97,2.24l-.07.04-.05.06s-.27.31-.52.72ZM68.62,46.96c-.02-.21.11-.57.36-.97.16-.25.32-.46.4-.55,4.2-2.3,8.42-2.1,8.46-2.1h.03s.03,0,.03,0c9.68-.6,16.27,3.5,17.22,4.14.27.94.33,1.49.33,1.79-5.67-3.46-12.86-4.03-13.31-4.06-5.81-.71-12.2,1.44-13.49,1.9,0-.01,0-.02,0-.03,0-.04,0-.08,0-.12Z"/>
        </g>
        <path class="cls-7" d="M85.71,43.94c-10.79-.2-14.84,2.38-14.84,2.38-1.17.17.52-1.71.52-1.71,7.52-2.4,14.32-.67,14.32-.67Z"/>
        <path class="cls-16" d="M74.6,44.11c-1.83,1.26-5.18,2.76-5.18,2.76-.85.73-.78-.46-.78-.46,1.15-2.66,5.96-2.3,5.96-2.3Z"/>
        <g>
          <g>
            <path class="cls-9" d="M71.83,44.53c.22.04.35.38.29.76-.07.38-.3.67-.53.63-.22-.04-.35-.38-.29-.76.07-.38.3-.67.53-.63Z"/>
            <path class="cls-19" d="M71.89,44.1c.19.03.35.14.47.3.17.24.24.59.17.96-.1.59-.48,1-.91,1-.04,0-.07,0-.11,0-.19-.03-.35-.14-.47-.3-.17-.24-.24-.59-.17-.96.11-.64.55-1.06,1.02-.99Z"/>
          </g>
          <path class="cls-7" d="M71.74,44.97c.13.02.21.22.17.45-.04.23-.18.39-.31.37s-.21-.22-.17-.45c.04-.23.18-.39.31-.37Z"/>
          <path class="cls-16" d="M71.66,45.22c.09.01.14.15.12.31-.03.16-.12.27-.21.26-.09-.01-.14-.15-.12-.31.03-.16.12-.27.21-.26Z"/>
        </g>
        <g>
          <g>
            <path class="cls-9" d="M87.78,44.46c.27,0,.48.37.48.83,0,.46-.22.82-.49.82-.27,0-.48-.37-.48-.83s.22-.82.49-.82Z"/>
            <path class="cls-19" d="M86.86,45.28c0,.3.07.58.2.8.17.29.43.46.71.46h0c.52,0,.92-.54.92-1.26,0-.3-.07-.58-.2-.8-.17-.29-.43-.46-.71-.46h0c-.52,0-.92.54-.92,1.26ZM87.77,46.11v-.44s0,.44,0,.44ZM87.73,45.29c0-.12.02-.22.05-.29.02.07.05.17.05.29,0,.12-.02.22-.05.29-.02-.07-.05-.17-.05-.29Z"/>
          </g>
          <path class="cls-7" d="M87.77,44.98c.16,0,.28.22.28.49,0,.27-.13.48-.29.48-.16,0-.28-.22-.28-.49,0-.27.13-.48.29-.48Z"/>
          <path class="cls-16" d="M87.72,45.28c.11,0,.19.15.19.34,0,.18-.09.33-.2.33-.11,0-.19-.15-.19-.34,0-.18.09-.33.2-.33Z"/>
        </g>
        <g>
          <g>
            <path class="cls-9" d="M92.93,46.42c.27-.02.51.33.56.78.04.45-.14.84-.4.86-.26.02-.51-.33-.56-.78-.04-.45.14-.84.4-.86Z"/>
            <path class="cls-19" d="M92.37,46.27c-.21.25-.31.64-.27,1.05.06.68.47,1.18.96,1.18.02,0,.04,0,.06,0h0c.2-.02.39-.12.53-.29.21-.25.31-.64.27-1.05-.07-.71-.51-1.22-1.03-1.17-.2.02-.39.12-.53.29ZM92.96,47.24c-.01-.12,0-.22.02-.29.03.07.06.16.07.28.01.12,0,.22-.02.29-.03-.07-.06-.16-.07-.28Z"/>
          </g>
          <path class="cls-7" d="M92.97,46.95c.16-.01.3.19.33.46.03.27-.08.49-.24.51-.16.01-.3-.19-.33-.46-.02-.27.08-.49.24-.51Z"/>
          <path class="cls-16" d="M92.96,47.25c.11,0,.21.13.23.32.02.18-.06.34-.16.35-.11,0-.21-.13-.23-.32-.02-.18.06-.34.16-.35Z"/>
        </g>
        <g>
          <g>
            <path class="cls-9" d="M77.6,43.37c.27.02.45.41.41.86-.04.45-.29.81-.55.78-.27-.02-.45-.41-.41-.86.04-.45.29-.8.55-.78Z"/>
            <path class="cls-19" d="M76.61,44.12c-.04.42.06.8.28,1.05.14.17.33.27.53.28.02,0,.04,0,.06,0,.49,0,.9-.49.96-1.18.04-.42-.06-.8-.27-1.05-.14-.17-.33-.27-.53-.28-.52-.04-.96.46-1.02,1.18ZM77.48,44.2c.01-.12.04-.22.07-.28.02.07.03.17.02.29-.01.12-.04.22-.07.28-.02-.07-.03-.17-.02-.29Z"/>
          </g>
          <path class="cls-7" d="M77.55,43.9c.16.01.26.24.24.51-.02.27-.17.47-.33.46-.16-.01-.26-.24-.24-.51.02-.27.17-.47.33-.46Z"/>
          <path class="cls-16" d="M77.48,44.19c.11,0,.18.17.16.35s-.12.33-.22.32c-.11,0-.18-.17-.16-.35.02-.18.12-.33.22-.32Z"/>
        </g>
      </g>
      <g>
        <g>
          <path class="cls-9" d="M70.13,49.15c.25.04.39.44.32.89-.08.45-.34.78-.59.74-.25-.04-.39-.44-.32-.89.08-.45.34-.78.59-.74Z"/>
          <path class="cls-19" d="M69.11,49.81c-.12.71.17,1.31.67,1.39.04,0,.08.01.12.01.24,0,.47-.12.66-.35.16-.2.27-.46.32-.75.12-.71-.17-1.31-.67-1.39-.28-.05-.56.08-.77.34-.16.2-.27.46-.32.75ZM69.96,50.18c0-.06,0-.14.01-.22.01-.09.04-.16.06-.22,0,.06,0,.14-.01.22-.01.09-.04.16-.06.22Z"/>
        </g>
        <path class="cls-7" d="M70.04,49.66c.15.02.23.26.19.52-.05.26-.2.46-.35.43-.15-.03-.23-.26-.19-.52s.2-.46.35-.43Z"/>
        <path class="cls-16" d="M69.95,49.95c.1.02.16.18.13.36s-.14.32-.24.3c-.1-.02-.16-.18-.13-.36s.14-.32.24-.3Z"/>
      </g>
      <g>
        <g>
          <path class="cls-9" d="M69.05,52.85c.25.04.39.44.32.89-.08.45-.34.78-.59.74-.25-.04-.39-.44-.31-.89.08-.45.34-.78.59-.74Z"/>
          <path class="cls-19" d="M68.02,53.51c-.12.71.17,1.31.67,1.39h0s.08.01.12.01c.46,0,.87-.45.98-1.1.12-.71-.17-1.31-.67-1.39-.28-.05-.56.08-.77.34-.16.2-.27.46-.32.75ZM68.87,53.88c0-.06,0-.14.01-.22.01-.09.04-.16.06-.22,0,.06,0,.14-.01.22-.01.09-.04.16-.06.22Z"/>
        </g>
        <path class="cls-7" d="M68.95,53.36c.15.02.23.26.18.52s-.2.46-.35.43c-.15-.02-.23-.26-.19-.52.05-.26.2-.46.35-.43Z"/>
        <path class="cls-16" d="M68.86,53.65c.1.02.16.18.13.36s-.14.32-.24.3c-.1-.02-.16-.18-.13-.36s.14-.32.24-.3Z"/>
      </g>
      <g>
        <g>
          <path class="cls-9" d="M71.1,56.04s.89-2.47,2.41-2.89c0,0,1.69.98,1.65,3.34,0,0-.18,2.99-.59,5.51,6.44.31,12.38,1,12.38,1-.06-5.36-.74-7.5-.74-7.5,6.82,1.22,11.68,3.6,11.68,3.6.65.91.6,0,.65.69.59,9.42-.87,15.89-.87,15.89-2.61.06-3.91.6-3.91.6-8.45,6.31-21.73,7.22-21.73,7.22-2.81-.91-3.5-2.16-3.5-2.16-2.85-9.16-3.08-18.45-3.08-18.45,2.07-.44,3.75-.68,5.05-.8l.6-6.04Z"/>
          <path class="cls-19" d="M65.37,62.45l-.35.07v.36c.01.09.27,9.45,3.1,18.57l.03.08c.03.06.81,1.41,3.75,2.36l.08.03h.08c.13-.01,13.45-.99,21.91-7.28.25-.09,1.49-.49,3.71-.55h.34s.07-.34.07-.34c.01-.07,1.47-6.64.87-16.01-.02-.3-.03-.5-.25-.63-.06-.03-.16-.08-.29-.06-.04-.04-.1-.11-.19-.23l-.06-.09-.1-.05s-4.99-2.42-11.79-3.63l-.71-.13.22.69s.62,2.03.71,6.88c-1.51-.16-6.29-.66-11.43-.92.36-2.4.52-5.05.52-5.08.04-2.6-1.79-3.69-1.87-3.74l-.16-.09-.18.05c-1.72.48-2.66,3.06-2.7,3.17l-.02.05-.57,5.74c-1.46.16-3.05.42-4.74.77ZM65.91,63.23c1.66-.34,3.22-.58,4.64-.72l.36-.04.63-6.34c.24-.63.97-2.1,1.92-2.51.38.29,1.31,1.17,1.28,2.85,0,0-.19,2.98-.59,5.45l-.08.48.49.02c6.35.31,12.29.99,12.35,1l.49.06v-.49c-.05-3.74-.38-5.93-.59-6.94,5.83,1.13,10.12,3.07,10.81,3.39.11.15.29.36.51.46.49,8.03-.52,13.93-.79,15.35-2.43.1-3.67.59-3.72.62l-.05.02-.04.03c-7.9,5.9-20.28,7.04-21.42,7.13-2.27-.75-3.03-1.72-3.16-1.9-2.47-7.97-2.95-16.12-3.02-17.91Z"/>
        </g>
        <path class="cls-7" d="M73.14,53.71c1.38.07,1.56,2.79,1.56,2.79l-.77,6.36c9.42.5,14.15,1.2,14.15,1.2-.24-6.31-.72-7.96-.72-7.96,2.08.31,2.71,1.55,2.71,1.55.64,14.55-1.03,19.68-1.03,19.68-4.7,3.85-17.5,5.22-17.5,5.22-.36-13.98.18-18.28.18-18.28.59-6.31,1.42-10.57,1.42-10.57Z"/>
        <path class="cls-7" d="M71.18,62.78l.33-3.93c-.16-3.54,1.62-4.48,1.62-4.48-.68,4.03-1.21,10.36-1.21,10.36-.08,2.27-1.88,2.83-1.88,2.83-2.23,2.6-.22,5.22-.22,5.22,2.24,3.72-.78,7.51-.78,7.51-2.73-10.18-2.87-16.65-2.87-16.65,3.33-1.09,5-.86,5-.86Z"/>
        <g>
          <g>
            <path class="cls-9" d="M73.2,54.32c.25.02.43.41.39.86-.04.45-.27.81-.52.79-.25-.02-.43-.41-.39-.86s.27-.81.52-.79Z"/>
            <path class="cls-19" d="M72.24,55.07c-.06.72.28,1.29.79,1.33h0s.04,0,.06,0c.48,0,.88-.5.94-1.19.06-.72-.28-1.29-.79-1.33-.51-.04-.94.47-.99,1.19ZM73.11,55.14c0-.09.02-.16.04-.22,0,.06.01.14,0,.22,0,.09-.02.16-.04.22,0-.06-.01-.14,0-.22Z"/>
          </g>
          <path class="cls-7" d="M73.15,54.84c.15.01.25.24.23.5-.02.27-.16.47-.31.46-.15-.01-.25-.24-.23-.51.02-.27.16-.47.31-.46Z"/>
          <path class="cls-16" d="M73.09,55.14c.1,0,.17.16.16.35-.01.18-.11.33-.21.32-.1,0-.17-.16-.16-.35.01-.18.11-.33.21-.32Z"/>
        </g>
        <g>
          <g>
            <path class="cls-9" d="M89.17,56.99c.25-.03.5.32.54.77s-.12.84-.37.87-.5-.32-.54-.77.12-.84.37-.87Z"/>
            <path class="cls-19" d="M88.36,57.9c.07.68.47,1.17.95,1.17.02,0,.05,0,.07,0,.28-.03.52-.22.65-.54.1-.23.14-.52.11-.81-.07-.71-.51-1.22-1.02-1.16-.51.05-.84.63-.76,1.35ZM89.23,57.81c0-.09,0-.16,0-.22.02.06.04.13.05.22,0,.09,0,.16,0,.22-.02-.06-.04-.13-.05-.22Z"/>
          </g>
          <path class="cls-7" d="M89.21,57.51c.15-.02.29.19.32.46.03.27-.07.49-.22.51-.15.02-.29-.19-.32-.46-.03-.27.07-.49.22-.51Z"/>
          <path class="cls-16" d="M89.2,57.81c.1-.01.2.13.22.31.02.18-.05.34-.15.35-.1.01-.2-.13-.22-.31-.02-.18.05-.34.15-.35Z"/>
        </g>
        <path class="cls-16" d="M86.44,55.93l.92.18c.99,2.99,1.16,8.4,1.16,8.4-8.15-.8-14.29-1.08-14.29-1.08l-.22-.96c3.98.13,13.39,1.18,13.39,1.18-.13-6.95-.95-7.72-.95-7.72Z"/>
        <g>
          <g>
            <path class="cls-9" d="M93.08,58.29c.25-.03.5.32.54.77.05.45-.12.84-.37.87-.25.03-.5-.32-.54-.77-.05-.45.12-.84.37-.87Z"/>
            <path class="cls-19" d="M92.28,59.2c.07.68.47,1.17.95,1.17.02,0,.05,0,.07,0,.28-.03.52-.22.65-.54.1-.23.14-.52.11-.81-.07-.71-.51-1.22-1.02-1.16-.51.05-.84.63-.76,1.35ZM93.14,59.12c0-.09,0-.16,0-.22.02.06.04.13.05.22,0,.09,0,.16,0,.22-.02-.06-.04-.13-.05-.22Z"/>
          </g>
          <path class="cls-7" d="M93.13,58.82c.15-.02.29.19.32.45s-.07.49-.22.51c-.15.02-.29-.19-.32-.46-.03-.27.07-.49.22-.51Z"/>
          <path class="cls-16" d="M93.12,59.12c.1-.01.2.13.22.31.02.18-.05.34-.15.35-.1.01-.2-.13-.22-.31-.02-.18.05-.34.15-.35Z"/>
        </g>
        <g>
          <g>
            <path class="cls-9" d="M93.22,63.73c.25.02.44.4.41.85-.03.45-.26.81-.51.8-.25-.02-.44-.4-.41-.85.03-.46.26-.81.51-.8Z"/>
            <path class="cls-19" d="M92.7,63.49c-.24.21-.4.59-.43,1.01-.04.72.31,1.28.81,1.31h0s.03,0,.04,0c.49,0,.88-.51.93-1.2.03-.42-.09-.81-.3-1.05-.14-.16-.32-.25-.52-.26-.19-.01-.39.06-.54.2ZM93.14,64.55c0-.09.02-.16.04-.22.01.06.02.14.01.22s-.02.16-.04.22c-.01-.06-.02-.14-.01-.22Z"/>
          </g>
          <path class="cls-7" d="M93.18,64.25c.15,0,.26.23.24.5-.02.27-.15.48-.3.47s-.26-.23-.24-.5.15-.48.3-.47Z"/>
          <path class="cls-16" d="M93.12,64.55c.1,0,.18.16.17.35-.01.18-.1.33-.21.32-.1,0-.18-.16-.17-.35.01-.18.1-.33.21-.32Z"/>
        </g>
        <g>
          <g>
            <path class="cls-9" d="M93,68.3c.25.02.44.4.41.85-.03.45-.26.81-.51.8-.25-.02-.44-.4-.41-.85.03-.46.26-.81.51-.8Z"/>
            <path class="cls-19" d="M92.49,68.06c-.24.21-.4.59-.43,1.01-.04.72.31,1.28.81,1.31h0s.03,0,.04,0c.49,0,.89-.51.93-1.2.03-.42-.09-.81-.3-1.05-.14-.16-.32-.25-.52-.26-.19-.01-.39.06-.54.2ZM92.93,69.12c0-.09.02-.16.04-.22.01.06.02.14.01.22s-.02.16-.04.22c-.01-.06-.02-.14-.01-.22Z"/>
          </g>
          <path class="cls-7" d="M92.96,68.82c.15,0,.26.23.24.5-.02.27-.15.48-.3.47-.15,0-.26-.23-.24-.5.02-.27.15-.48.3-.47Z"/>
          <path class="cls-16" d="M92.9,69.12c.1,0,.18.16.17.35-.01.18-.1.33-.21.32-.1,0-.18-.16-.17-.35.01-.18.1-.33.21-.32Z"/>
        </g>
        <g>
          <g>
            <path class="cls-9" d="M92.78,72.65c.25.02.44.4.41.85-.03.45-.26.81-.51.8-.25-.02-.44-.4-.41-.85.03-.46.26-.81.51-.8Z"/>
            <path class="cls-19" d="M92.27,72.42c-.24.21-.4.59-.43,1.01-.04.72.31,1.28.81,1.31h0s.03,0,.04,0c.49,0,.88-.51.93-1.2.03-.42-.09-.81-.3-1.05-.14-.16-.32-.25-.52-.26-.19-.01-.39.06-.54.2ZM92.71,73.48c0-.09.02-.16.04-.22.01.06.02.14.01.22,0,.09-.02.16-.04.22-.01-.06-.02-.14-.01-.22Z"/>
          </g>
          <path class="cls-7" d="M92.75,73.18c.15,0,.26.23.24.5-.02.27-.15.48-.3.47-.15,0-.26-.23-.24-.5.02-.27.15-.48.3-.47Z"/>
          <path class="cls-16" d="M92.69,73.48c.1,0,.18.16.17.35-.01.19-.1.33-.21.32-.1,0-.18-.16-.17-.35.01-.18.1-.33.21-.32Z"/>
        </g>
        <path class="cls-7" d="M95.25,58.68s1.76.1,1.84.65c0,0,.41,6.95-1.14,15.87,0,0-.9.62-.58-1.59,0,0,.72-5.99.03-8.26,0,0-2.58-6.29-.14-6.68Z"/>
        <path class="cls-16" d="M97.09,59.33l1.06.45c.68,6.83-.9,15.42-.9,15.42-.74.1-1.3-.22-1.3-.22,1.31-8.89,1.14-15.65,1.14-15.65Z"/>
        <path class="cls-19" d="M93.96,71.49c.11-1.52.19-3.04.25-4.56.05-1.52.07-3.04.05-4.56-.03-1.51-.08-3.04-.22-4.53l.87-.08c.08,1.56.06,3.08,0,4.61-.05,1.53-.15,3.06-.27,4.58-.12,1.52-.28,3.04-.46,4.56-.09.76-.2,1.51-.29,2.27l-.33,2.26.23-2.28c.06-.76.14-1.52.19-2.28Z"/>
        <path class="cls-19" d="M72.63,58.03c-.31,2.11-.51,4.23-.65,6.35-.15,2.12-.12,4.25-.08,6.37.05,2.13.13,4.25.23,6.38.1,2.13.22,4.25.36,6.37l-.87.04c-.07-2.13-.12-4.27-.16-6.4-.03-2.13-.05-4.27-.03-6.4.03-2.13.07-4.27.29-6.4.22-2.12.51-4.24.89-6.33Z"/>
      </g>
      <g>
        <path class="cls-7" d="M67.48,56.81s-.92,1.57-.7,5.55l-1.32.29s-.33-3.62.38-5.75c0,0,.59-.63,1.64-.1Z"/>
        <path class="cls-19" d="M65.42,56.77c-.72,2.2-.41,5.78-.4,5.93l.04.49,2.16-.48-.02-.37c-.21-3.81.64-5.3.64-5.31l.23-.4-.41-.21c-1.33-.67-2.12.15-2.16.19l-.07.07-.03.09ZM66.21,57.16c.1-.07.33-.18.68-.1-.26.71-.68,2.28-.57,4.96l-.46.1c-.06-1.02-.12-3.39.35-4.97Z"/>
      </g>
      <path class="cls-16" d="M70.78,63.63c-2.41.21-3.61.44-3.61.44-.38,5.1,1.88,16.43,1.88,16.43-2.39-4.41-3.16-17.41-3.16-17.41,2.28-.54,4.83-.8,4.83-.8l.06,1.34Z"/>
      <path class="cls-16" d="M73.44,68.36c1.78,2.51.17,5.11.17,5.11-1.32,3.75,1.5,4.74,1.5,4.74,2.9.77,3.62,3.14,3.62,3.14-5.02,1.37-6.62,1.22-6.62,1.22-.97-10.56.22-20.56.22-20.56-.34,3.27,1.11,6.36,1.11,6.36Z"/>
    </g>
    <g>
      <g>
        <g>
          <path class="cls-11" d="M53.41,84.22c1.65-.78,2.75-.26,2.75-.26l2.58-.33c3.04,1.59,1.7,5.16,1.7,5.16l.39,1.7-.36,1.29c-.9,1.88-5.33,1.56-5.33,1.56-1.89-.98-1.57-3.32-1.57-3.32-1.51-.7-.55-2.1-.55-2.1-1.77-.4-.52-2.55-.52-2.55l.9-1.16Z"/>
          <path class="cls-6" d="M52.13,85.15c-.08.14-.77,1.37-.36,2.32.1.22.28.49.65.69-.11.3-.19.71-.08,1.13.11.4.37.73.77.98-.02.73.1,2.56,1.82,3.45l.08.04h.09c.11.01.41.03.83.03,1.42,0,4.15-.22,4.92-1.83l.03-.07.39-1.4-.39-1.68c.48-1.41.65-4.22-1.95-5.57l-.12-.06-2.6.33c-.37-.13-1.49-.39-2.99.31l-.09.04-1,1.28ZM52.87,85.62l.81-1.05c1.37-.61,2.28-.22,2.28-.22l.11.05,2.56-.33c2.52,1.42,1.42,4.43,1.38,4.56l-.05.12.4,1.72-.32,1.14c-.65,1.26-3.59,1.36-4.8,1.29-1.51-.86-1.26-2.81-1.26-2.83l.04-.32-.29-.14c-.32-.15-.51-.33-.57-.56-.11-.41.2-.89.2-.9l.36-.53-.62-.14c-.43-.1-.52-.3-.55-.37-.2-.45.15-1.23.3-1.51Z"/>
        </g>
        <path class="cls-6" d="M52.13,85.15c-.08.14-.77,1.37-.36,2.32.1.22.28.5.65.69-.11.3-.19.71-.08,1.13.11.4.37.73.77.98-.02.73.1,2.56,1.82,3.45l.08.04h.09c.48.04,4.75.29,5.75-1.8l.03-.07.39-1.4-.39-1.68c.48-1.41.65-4.22-1.95-5.57l-.12-.06-2.6.33c-.37-.13-1.49-.39-2.99.31l-.09.04-1,1.28ZM52.87,85.62l.82-1.05c1.37-.61,2.25-.23,2.29-.22l.11.05h.13s2.44-.32,2.44-.32c2.52,1.42,1.42,4.43,1.38,4.56l-.05.12.4,1.72-.32,1.14c-.65,1.26-3.59,1.36-4.8,1.29-1.51-.86-1.26-2.81-1.26-2.83l.04-.32-.29-.14c-.32-.15-.51-.33-.57-.56-.11-.41.2-.89.2-.9l.36-.53-.62-.14c-.43-.1-.52-.31-.55-.37-.2-.45.15-1.23.3-1.51Z"/>
      </g>
      <g>
        <rect class="cls-9" x="53.51" y="81.47" width="4.14" height="14.98" transform="translate(-9.66 6.82) rotate(-6.47)"/>
        <path class="cls-19" d="M57.17,80.8l-4.98.56,1.79,15.75,4.98-.56-1.79-15.75ZM56.4,81.77l1.59,14.02-3.25.37-1.59-14.02,3.25-.37Z"/>
      </g>
      <g>
        <g>
          <path class="cls-9" d="M60.99,95c-.04,3.2-3.86,3.63-3.86,3.63-4.74.55-4.83-2.65-4.83-2.65,3.96-2.09,8.69-.98,8.69-.98Z"/>
          <path class="cls-19" d="M52.1,95.6l-.24.13v.27c0,.05.06,1.25,1.11,2.16.75.65,1.79.97,3.12.97.35,0,.71-.02,1.1-.07,1.45-.16,4.21-1.23,4.24-4.06v-.35s-.34-.08-.34-.08c-.2-.05-4.93-1.12-8.99,1.02ZM52.78,96.23c3.1-1.5,6.63-1.07,7.76-.88-.3,2.45-3.31,2.83-3.45,2.85-1.59.19-2.78-.05-3.53-.69-.51-.44-.7-.97-.77-1.28Z"/>
        </g>
        <path class="cls-7" d="M58.18,95.25c-2.43.32-3.15,1.65-3.15,1.65.12,1.21,2.16,1.42,2.16,1.42-3.58.73-3.93-2.16-3.93-2.16,1.39-.91,2.42-1.02,2.42-1.02,1.37-.11,2.49.11,2.49.11Z"/>
        <path class="cls-16" d="M53.57,96.56c.61,1.77,2.94,1.95,2.94,1.95-3.28.37-3.91-2.29-3.91-2.29,1.09-.77,2.47-.93,2.47-.93-1.52.51-1.49,1.27-1.49,1.27Z"/>
      </g>
      <g>
        <path class="cls-13" d="M58.69,88.83c-.12-.02-.24-.05-.37-.09.09-.1.18-.2.29-.29l.07.38Z"/>
        <path class="cls-6" d="M58.13,86.8c-.02.05-.04.15-.05.23-.01.09-.02.17-.03.26,0,.17,0,.34.05.49.04.15.13.28.24.39.11.12.27.19.44.25l.44.17-.37.2c-.14.08-.29.19-.42.3-.13.12-.25.25-.35.4-.1.15-.18.31-.22.49-.05.18-.04.36-.02.55-.06-.18-.1-.37-.08-.56.01-.19.06-.39.14-.57.08-.18.19-.35.31-.51.04-.05.08-.1.13-.15.12.04.25.07.37.09l-.07-.38c-.11.09-.21.19-.29.29-.11-.04-.21-.08-.31-.15-.21-.14-.39-.33-.51-.56-.12-.22-.18-.46-.22-.7-.02-.12-.03-.24-.03-.35,0-.12,0-.23.02-.37l.85.18Z"/>
      </g>
      <g>
        <path class="cls-11" d="M52.6,84.4c1.3-1.2,3.6-.09,3.6-.09-2.29.18-.9,2.71-.9,2.71-1.82-.87-2.88,1.03-2.88,1.03-1.76-1.03-.31-3.1-.31-3.1l.48-.55Z"/>
        <path class="cls-6" d="M51.76,84.7s-.85,1.22-.59,2.37c.12.57.47,1.02,1.04,1.35l.38.22.22-.39c.09-.16.92-1.52,2.32-.85l1.23.59-.66-1.19c-.15-.28-.54-1.2-.28-1.68.12-.22.4-.35.83-.39l1.61-.13-1.46-.7c-.1-.05-2.59-1.21-4.09.17l-.03.03-.51.59ZM52.46,85.21l.45-.51c.55-.49,1.36-.48,2.01-.35-.11.1-.2.23-.28.36-.28.52-.21,1.15-.07,1.65-1.01-.09-1.8.5-2.26,1.06-.16-.15-.26-.33-.3-.54-.16-.71.36-1.54.44-1.67Z"/>
      </g>
      <g>
        <g>
          <path class="cls-11" d="M55.1,86.9c1.34.36,1.94,2.29,1.94,2.29.02,1.16-1.98.93-1.98.93-2.12-.31-2,.83-2,.83-1.93-1.19-.72-2.76-.72-2.76,1.48-2.04,2.75-1.29,2.75-1.29Z"/>
          <path class="cls-6" d="M51.99,87.94s-.6.79-.43,1.73c.12.65.54,1.2,1.27,1.65l.76.47-.1-.89s0-.11.11-.2c.1-.09.44-.29,1.39-.15.16.02,1.43.14,2.09-.45.26-.24.39-.55.38-.92v-.06s-.02-.06-.02-.06c-.03-.09-.67-2.12-2.19-2.57-.32-.15-1.74-.66-3.26,1.44ZM52.69,88.46c1.22-1.68,2.18-1.19,2.19-1.18l.05.03.06.02c.87.24,1.44,1.42,1.61,1.94,0,.11-.05.16-.1.2-.29.26-1.06.27-1.39.23-.26-.04-.49-.06-.71-.06-.62,0-1.1.15-1.41.45-.05.05-.1.11-.14.16-.23-.22-.38-.46-.42-.72-.11-.56.26-1.06.27-1.07Z"/>
        </g>
        <path class="cls-6" d="M51.99,87.93c-.07.09-.59.83-.43,1.74.12.65.54,1.2,1.27,1.65l.76.47-.1-.89h0s0-.11.11-.2c.1-.09.44-.29,1.39-.15.16.02,1.43.15,2.09-.45.26-.24.39-.55.38-.92v-.06s-.02-.06-.02-.06c-.03-.09-.67-2.13-2.19-2.57-.32-.15-1.73-.66-3.26,1.44ZM52.69,88.46h0c1.21-1.68,2.15-1.2,2.19-1.18l.04.02.06.02c.87.23,1.44,1.42,1.61,1.94-.01.1-.05.16-.1.2-.29.26-1.06.28-1.39.23-.09-.01-.18-.02-.27-.03-.84-.08-1.47.06-1.85.43-.05.05-.1.11-.14.16-.24-.22-.38-.47-.43-.73-.1-.56.26-1.05.27-1.06Z"/>
        <polygon class="cls-13" points="53.49 90.9 53.49 90.9 53.49 90.9 53.49 90.9"/>
      </g>
      <g>
        <g>
          <path class="cls-11" d="M54.44,89.93c3.49.3,2.88,2.48,2.88,2.48-.47,1.31-3.41,1.1-3.41,1.1-1.25-.96-1.07-2.34-1.07-2.34.33-.96,1.6-1.23,1.6-1.23Z"/>
          <path class="cls-6" d="M52.41,91.11c0,.07-.2,1.65,1.23,2.75l.1.08h.13c.07.01.25.03.51.03.96,0,2.89-.16,3.34-1.4v-.03s.25-.9-.31-1.72c-.52-.75-1.51-1.19-2.94-1.31h-.06s-.06,0-.06,0c-.06.01-1.51.33-1.92,1.52l-.02.08ZM53.27,91.26c.23-.59.99-.83,1.2-.89,1.1.1,1.86.42,2.22.92.31.44.23.9.21.99-.28.7-1.94.84-2.83.8-.83-.7-.82-1.62-.8-1.82Z"/>
        </g>
        <path class="cls-6" d="M52.41,91.11c0,.07-.2,1.65,1.23,2.75l.1.08h.13c.33.03,3.28.2,3.85-1.38v-.03s.25-.9-.31-1.72c-.52-.75-1.51-1.19-2.94-1.31h-.06s-.06,0-.06,0c-.06.01-1.51.33-1.92,1.52l-.02.08ZM53.27,91.26c.23-.58.99-.83,1.2-.89,0,0,.02,0,.02,0,1.08.11,1.84.42,2.19.92.31.44.23.9.21.99-.28.7-1.94.84-2.83.8-.83-.7-.82-1.62-.8-1.82Z"/>
      </g>
      <g>
        <path class="cls-15" d="M54.06,90.29c1.19-.14,2.04.54,2.04.54.59,1.54-1.5.88-1.5.88.06.72-.68,1.04-.68,1.04-.78-.08-1.03-1.37-1.03-1.37-.11-.96,1.17-1.09,1.17-1.09Z"/>
        <path class="cls-6" d="M54.82,90.58c-.02.19-.03.38-.03.58,0,.19,0,.38.03.57.03.19.07.38.19.54-.17-.11-.3-.29-.4-.47-.1-.18-.18-.37-.25-.57-.07-.19-.13-.39-.19-.59-.06-.2-.11-.39-.15-.61l.87-.03c-.03.18-.05.38-.07.57Z"/>
      </g>
      <g>
        <path class="cls-15" d="M53.48,87.56c1.21-.69,2.1.24,2.1.24.8,1.44-1.41.87-1.41.87.16.71-1.16,1.28-1.16,1.28-.78.03-.6-.46-.6-.46-.24-.93,1.06-1.93,1.06-1.93Z"/>
        <path class="cls-6" d="M54.28,87.74c.01.19.03.38.05.58.03.19.06.38.11.56.05.18.12.37.27.51-.19-.08-.34-.24-.46-.41-.12-.17-.23-.34-.33-.52-.1-.18-.19-.37-.27-.55-.09-.19-.16-.37-.24-.58l.86-.15c0,.18,0,.38.01.57Z"/>
      </g>
      <g>
        <path class="cls-15" d="M53,84.55c1.15-.31,1.79-.13,1.79-.13.8,1.44-1.26,1.51-1.26,1.51.16.71-1.16,1.28-1.16,1.28-.52-.27-.43-.72-.43-.72-.24-.93,1.06-1.93,1.06-1.93Z"/>
        <path class="cls-6" d="M53.59,84.78c.01.19.03.38.05.58.03.19.06.38.11.56.05.18.12.37.27.51-.19-.08-.34-.24-.46-.41-.12-.17-.23-.34-.33-.52-.1-.18-.19-.37-.28-.55-.09-.19-.16-.37-.24-.58l.86-.15c0,.18,0,.38.01.57Z"/>
      </g>
      <g>
        <g>
          <path class="cls-11" d="M55.86,83.52l.85-.22c2.38-.12,3.25,1.4,3.25,1.4l-2.3,1.36c-.7,2.67-1.99,2.09-1.99,2.09-.82-.28-.67-1.55-.67-1.55-.61-3.26.85-3.07.85-3.07Z"/>
          <path class="cls-6" d="M55.82,83.08l.79-.21h.09c2.61-.14,3.61,1.53,3.65,1.6l-.75.44c-.03-.05-.78-1.27-2.81-1.18l-.89.23h-.08s-.12,0-.23.11c-.15.16-.46.71-.14,2.44v.07s0,.07,0,.07c0,0-.08.93.37,1.09h.03s.18.08.41-.04c.23-.12.66-.5.99-1.75l.84.22c-.32,1.23-.82,2.01-1.48,2.32-.29.14-.56.16-.76.14-.16-.02-.27-.05-.32-.07-.87-.3-1.01-1.33-.95-1.94-.28-1.53-.15-2.58.37-3.14.32-.34.69-.39.87-.39Z"/>
        </g>
        <path class="cls-15" d="M56.99,85.19c.01,2.74-1.43,1.88-1.43,1.88-.55-1.11-.19-2.82-.19-2.82,1.82-.12,1.62.94,1.62.94Z"/>
      </g>
      <g>
        <g>
          <g>
            <g>
              <path class="cls-9" d="M50.15,37.96l.16-.02c1.07.55,2.27,3.78,2.27,3.78,3.04,10.1,6.08,39.1,6.08,39.1l-3.44.39-.16.02-3.44.39s-3.54-28.94-2.83-39.47c0,0,.44-3.41,1.36-4.19Z"/>
              <path class="cls-19" d="M48.36,42.12c-.7,10.45,2.8,39.26,2.83,39.55l.05.43,7.9-.9-.04-.43c-.03-.29-3.07-29.15-6.09-39.18v-.03c-.22-.57-1.32-3.42-2.49-4.01l-.12-.06-.42.05-.1.08c-1,.84-1.44,3.87-1.52,4.46v.03ZM49.22,42.19c.15-1.15.56-3.06,1.07-3.74.65.55,1.47,2.32,1.88,3.41,2.79,9.29,5.62,34.94,6.01,38.58l-6.18.7c-.43-3.63-3.42-29.26-2.78-38.94Z"/>
            </g>
            <path class="cls-7" d="M50.21,38.48c4.44,12.8,5.04,43.51,5.04,43.51-4.85,1.56-2.88-3.31-2.88-3.31-4.03-31.74-2.16-40.2-2.16-40.2Z"/>
            <path class="cls-16" d="M50.23,38.6s.09-.12.13-.09c-.18.78-.19,4.3-.19,4.3-.21,9.3,2.95,32.3,3.78,38.19l-2,.23s-3.46-28.29-2.77-38.57c0,0,.15-3.3,1.05-4.06Z"/>
            <path class="cls-16" d="M55.79,79.4c-.78-8.05-3.4-25.88-3.4-25.88,3.79,9.72,4.36,22.13,4.36,22.13.02,3.46-.96,3.74-.96,3.74Z"/>
            <g>
              <path class="cls-19" d="M55.56,82.08c0-.15-.03-.29-.04-.44l.45-.02-.41.46Z"/>
              <path class="cls-19" d="M54.02,81.69l.4-.02c.02.13.03.26.05.39l-.45-.38Z"/>
              <path class="cls-19" d="M51.44,54.04c.26,3.12.57,6.24.88,9.36.33,3.12.65,6.23,1.02,9.34.34,2.98.69,5.96,1.08,8.94l-.4.02.45.38c-.02-.13-.03-.26-.05-.39l1.1-.04c.01.15.03.29.04.44l.41-.46-.45.02c-.2-2.76-.52-5.53-.84-8.3-.17-1.46-.35-2.91-.54-4.37l-.56-4.36-2.31-17.46c.56,2.88,1.05,5.78,1.55,8.67.49,2.89.96,5.79,1.4,8.7.45,2.9.86,5.81,1.24,8.72.39,2.91.72,5.83.94,8.78l.03.44-.44.02-1.95.08-.4.02-.05-.39c-.39-3.12-.75-6.23-1.08-9.35-.32-3.12-.63-6.24-.88-9.37-.25-3.13-.47-6.26-.63-9.39-.06-1.57-.14-3.13-.17-4.7-.02-.78-.05-1.57-.05-2.35v-2.35c.09,1.57.17,3.13.29,4.69.1,1.56.24,3.12.37,4.69Z"/>
            </g>
          </g>
          <g>
            <path class="cls-9" d="M55.13,80.93c4.34-.49,7.92-.41,7.99.19.07.6-3.4,1.48-7.74,1.97-4.34.49-7.92.41-7.99-.19-.07-.6,3.4-1.48,7.74-1.97Z"/>
            <path class="cls-19" d="M46.96,82.95h0c.06.49.56.83,2.81.89.19,0,.38,0,.58,0,1.44,0,3.22-.11,5.08-.32,2.12-.24,4.1-.58,5.58-.96,2.19-.56,2.6-1,2.54-1.49-.06-.49-.56-.83-2.81-.89-1.53-.04-3.54.08-5.66.32s-4.1.58-5.58.96c-2.19.56-2.6,1-2.54,1.49ZM48.09,82.82c.87-.41,3.41-1.04,7.09-1.46,3.69-.42,6.3-.37,7.24-.17-.87.41-3.41,1.04-7.09,1.46-3.69.42-6.3.37-7.24.17Z"/>
          </g>
        </g>
        <path class="cls-7" d="M55.78,81.83c.05.46-1.42.74-3.24.95-2.42.27-4.02-.12-4.02-.12,0,0,.56-.58,3.89-1.02,1.82-.24,3.32-.26,3.37.2Z"/>
      </g>
    </g>
    <g>
      <g>
        <path class="cls-9" d="M95.43,68.69c7.89,0,13.12,1.62,13.12,1.62,1.7,15.53.68,19.19.68,19.19-.7,12.46-13.26,19.34-13.39,19.28-.13.06-12.69-6.82-13.39-19.28,0,0-1.01-3.66.68-19.19,0,0,1.59-1.62,12.29-1.62Z"/>
        <path class="cls-19" d="M82.71,70.26c-1.6,14.67-.8,18.8-.68,19.31.66,11.35,10.79,17.96,12.82,19.18.48.29.73.42.88.46.04.01.07.02.11.02h.01s.08,0,.11-.02c.16-.05.4-.18.87-.46,2.03-1.21,12.17-7.83,12.83-19.18.12-.5.92-4.63-.68-19.31l-.03-.28-.27-.08c-.05-.02-5.39-1.64-13.25-1.64-10.58,0-12.43,1.57-12.6,1.75l-.11.11-.02.15ZM83.56,70.55c.52-.3,3.05-1.43,11.88-1.43,6.73,0,11.55,1.2,12.72,1.52,1.63,15.03.67,18.7.66,18.74l-.02.09c-.35,6.19-3.75,10.93-6.54,13.81-2.86,2.95-5.71,4.66-6.4,5.02h0s0,0,0,0c-.69-.36-3.55-2.07-6.4-5.02-2.79-2.88-6.2-7.62-6.54-13.81l-.02-.09s-.95-3.83.67-18.84Z"/>
      </g>
      <path class="cls-7" d="M95.29,69.53c7.3-.16,11.03.89,11.03.89,1.47,14.56.59,18.62.59,18.62-.61,11.69-11.51,18.13-11.62,18.08-.11.06-11.01-6.39-11.62-18.08,0,0-.88-3.43.59-18,0,0,3.73-1.67,11.03-1.52Z"/>
      <path class="cls-16" d="M95.35,69.31c4.54,0,8.17.55,10.37,1-2.04-.26-4.86-.5-8.32-.5-10.08,0-11.97,1.73-11.97,1.73-1.6,14.62-.64,18.07-.64,18.07.66,11.73,10.88,17.23,10.99,17.17.07.03,3.85-1.24,9.03-6.67-3.8,5.29-8.97,8.09-9.05,8.06-.12.06-12.3-6.61-12.97-18.69,0,0-.98-3.55.66-18.6,0,0,1.54-1.57,11.91-1.57Z"/>
      <g>
        <g>
          <path class="cls-18" d="M92.79,80.1c-.32-4.05-1.07-7.31-1.07-7.31,3.02-1.99,6.53.21,6.53.21-1.56,2.14-1.78,4.58-2.14,7.01,4.56.36,8.25-1.22,8.25-1.22,2.36,3.43-.11,5.47-.11,5.47-3.01-1.06-5.84-1.85-8.35-1.87-.04,12.63,3.27,17.37,3.27,17.37-4.69,4.69-7.84.22-7.84.22,1.69-6.73,1.43-13.98,1.51-17.43-4.68.52-7.46,1.36-7.46,1.36-1.92-3.01.37-5.47.37-5.47,2.05.92,4.99,1.67,7.04,1.67Z"/>
          <path class="cls-13" d="M85.51,78.21s-2.43,2.69-.4,5.87l.13.21.24-.07s2.66-.79,7.03-1.3c0,.46-.01.98-.02,1.56-.03,3.91-.07,9.81-1.48,15.43l-.04.15.09.12c.05.08,1.33,1.86,3.51,2.04.12.01.25.02.37.02,1.47,0,2.97-.75,4.45-2.24l.19-.19-.16-.22s-3.19-4.75-3.21-16.85c2.59.09,5.44.98,7.91,1.85l.17.06.14-.12s2.67-2.27.17-5.91l-.15-.22-.25.11s-3.49,1.47-7.75,1.22c.01-.1.03-.2.04-.3.32-2.23.61-4.34,1.99-6.22l.21-.28-.3-.19c-.15-.09-3.72-2.29-6.88-.21l-.19.12.05.22s.7,3.09,1.04,6.9c-1.88-.07-4.56-.74-6.55-1.63l-.21-.1-.16.17ZM85.85,78.83c2.19.94,5,1.59,6.93,1.59h.37s-.03-.35-.03-.35c-.27-3.42-.86-6.31-1.03-7.13,2.27-1.35,4.83-.27,5.69.17-1.29,1.94-1.6,4.11-1.89,6.21-.03.21-.06.43-.09.64l-.05.35.35.03c3.96.31,7.23-.8,8.15-1.15,1.66,2.6.37,4.25-.07,4.7-2.58-.9-5.56-1.8-8.27-1.83h-.33s0,.33,0,.33c-.03,11.2,2.52,16.21,3.18,17.32-1.4,1.34-2.79,1.96-4.12,1.85-1.58-.14-2.65-1.29-2.95-1.66,1.39-5.65,1.43-11.52,1.46-15.43,0-.74.01-1.38.02-1.92v-.37s-.36.04-.36.04c-3.88.43-6.49,1.09-7.27,1.3-1.3-2.25-.13-4.12.31-4.69Z"/>
        </g>
        <path class="cls-20" d="M97.59,73.04c-1.2-.46-2.92-.74-4.83.47,0,0,.7,3.18,1.01,6.89-.68,0-1.22-.14-.83-.14.21-2.22-.84-7.28-.84-7.28,2.93-1.93,5.51.04,5.49.07Z"/>
        <path class="cls-20" d="M104.16,79.19c.09.14.18.27.25.4-1.13.38-3.97,1.19-7.31.94,0-.03.01-.07.02-.1,3.96.08,7.04-1.23,7.04-1.23Z"/>
        <path class="cls-20" d="M104.27,83.9c-2.55-.89-4.95-1.59-7.14-1.77v-.02c2.24.02,4.73.66,7.4,1.54-.15.17-.25.26-.25.26Z"/>
        <path class="cls-20" d="M94.03,82.25c-.09,3.3.33,11.02-1.28,17.45,0,0,2.63,2.21,5.9,0,.05.08.08.12.08.12-4.22,3.92-7,.05-7,.05,1.62-6.72,1.4-13.95,1.48-17.5.33-.04.47-.09.83-.13Z"/>
        <path class="cls-20" d="M86.46,79.24c-.34.56-1.41,1.82-.42,4.01-.53.17-.65.28-.65.28-1.41-2.91.29-4.71.29-4.71.25.14.51.28.79.42Z"/>
      </g>
    </g>
  </g>
</svg>