<?xml version="1.0" encoding="UTF-8"?>
<svg id="Layer_1" data-name="Layer 1" xmlns="http://www.w3.org/2000/svg" version="1.1" viewBox="0 0 150 150">
  <defs>
    <style>
      .cls-1 {
        fill: #f3e0d8;
      }

      .cls-1, .cls-2, .cls-3, .cls-4, .cls-5, .cls-6, .cls-7, .cls-8, .cls-9, .cls-10, .cls-11, .cls-12, .cls-13, .cls-14, .cls-15, .cls-16, .cls-17, .cls-18, .cls-19, .cls-20 {
        stroke-width: 0px;
      }

      .cls-2 {
        fill: #fccaa7;
      }

      .cls-3 {
        fill: #f9edee;
      }

      .cls-4 {
        fill: #f4956e;
      }

      .cls-5 {
        fill: #fbe6a9;
      }

      .cls-6 {
        fill: #282728;
      }

      .cls-7 {
        fill: #ccc7ca;
      }

      .cls-8 {
        fill: #887f7c;
      }

      .cls-21 {
        opacity: .78;
      }

      .cls-9 {
        fill: #9584ab;
      }

      .cls-10 {
        fill: #bed5ef;
      }

      .cls-11 {
        fill: #442d3e;
      }

      .cls-12 {
        fill: #eaa498;
      }

      .cls-13 {
        fill: #683a57;
      }

      .cls-14 {
        fill: #4e3b6e;
      }

      .cls-15 {
        fill: #785b72;
      }

      .cls-16 {
        fill: #fff;
      }

      .cls-17 {
        fill: #8c2e26;
      }

      .cls-18 {
        fill: #cd1e54;
      }

      .cls-19 {
        fill: #695a64;
      }

      .cls-20 {
        fill: #f1749b;
      }
    </style>
  </defs>
  <g>
    <g>
      <path class="cls-19" d="M70.85,94.02c2.3-1.43,4.72-1.58,6.12.07,1.4,1.66,1.19,4.15-.46,5.56l-1.48,1.25c-1.65,1.4-4.15,1.19-5.55-.46l-.42.12c-1.4-1.65-.69-4.75.96-6.15l.83-.38Z"/>
      <path class="cls-14" d="M67.97,97.31c-.25,1.38.03,2.66.76,3.52l.18.21.43-.12c.73.76,1.71,1.23,2.78,1.32.12.01.25.02.37.02,1.03,0,2.02-.36,2.81-1.03l1.48-1.25c1.84-1.56,2.07-4.32.51-6.16-1.47-1.73-4.01-1.8-6.65-.17l-.86.4-.04.04c-.88.74-1.54,1.95-1.77,3.23ZM68.81,97.46c.19-1.07.73-2.07,1.44-2.69l.82-.38c1.13-.7,2.23-1.05,3.2-1.05s1.78.35,2.37,1.04c1.25,1.48,1.07,3.7-.41,4.95l-1.48,1.25c-.71.6-1.62.89-2.56.82-.94-.08-1.79-.51-2.39-1.23l-.18-.21-.4.12c-.44-.66-.59-1.59-.41-2.6Z"/>
    </g>
    <path class="cls-14" d="M69.53,94.28c-1.78,1.51-2.41,4.64-.8,6.55l.18.21.43-.12c.74.76,1.71,1.23,2.79,1.32.96.08,1.89-.15,2.69-.65.17-.11.34-.23.5-.37l1.48-1.25c.89-.75,1.43-1.81,1.53-2.98.1-1.17-.26-2.3-1.02-3.19-1.47-1.74-4.02-1.8-6.65-.17l-1.07.61-.04.04ZM68.82,97.46c.19-1.07.73-2.07,1.44-2.69l.82-.38c2.25-1.4,4.38-1.4,5.56-.02.6.71.89,1.62.81,2.56-.08.94-.51,1.78-1.23,2.39l-1.48,1.25c-1.48,1.25-3.7,1.07-4.94-.41l-.18-.21-.4.12c-.44-.66-.59-1.59-.4-2.6Z"/>
    <g>
      <path class="cls-11" d="M70.09,107.52l.81-.66-1.98-8.02,7.1-.58.28,6.27s.07,2.22.44,4.28c0,0,.5,1.7-.83,2.01,0,0-6.04.13-6.4.13,0,0-1.23.01-1.61-.3,0,0-.82-1.25,2.19-3.13Z"/>
      <path class="cls-6" d="M67.41,109.84c-.13.61.09.98.13,1.05l.04.05.05.04c.44.36,1.43.39,1.82.39.03,0,.05,0,.08,0,.5,0,6.15-.12,6.39-.13h.09c.45-.12.8-.36,1.01-.73.41-.71.19-1.62.14-1.81-.36-2-.43-4.17-.43-4.2h0s-.3-6.72-.3-6.72l-8.05.66,2.04,8.24-.58.48c-1.42.89-2.24,1.79-2.43,2.67ZM70.32,107.88l.04-.03,1.02-.84-1.92-7.79,6.16-.5.26,5.83c0,.13.08,2.29.45,4.34v.04c.07.2.17.8-.04,1.16-.09.15-.22.25-.42.3-2.1.05-6.07.13-6.34.12-.5,0-1.06-.07-1.27-.16-.05-.23-.09-1.12,2.08-2.48Z"/>
    </g>
    <path class="cls-15" d="M71.15,107.62s2.74-.49,3.66,1.88c0,0,.46,1.11-5.58.78,0,0-1.32-.11-.95-.64,0,0,1.62-2.08,2.86-2.02Z"/>
    <g>
      <path class="cls-11" d="M72.12,106.54h.26c.36,0,.64.29.64.64v8.16c0,.36-.29.64-.64.64h-.27c-.36,0-.64-.29-.64-.64v-8.16c0-.36.29-.64.64-.64Z" transform="translate(-39.62 182.56) rotate(-89.51)"/>
      <path class="cls-6" d="M67.1,111.08v.26c0,.29.1.56.31.76.2.2.47.32.76.32l8.16.07h0c.28,0,.55-.11.75-.31.2-.2.32-.47.32-.76v-.26c0-.29-.1-.56-.31-.76-.2-.2-.47-.32-.76-.32l-8.16-.07c-.28,0-.56.11-.76.31-.2.2-.32.47-.32.76ZM67.95,111.36v-.26c0-.08.04-.13.07-.15.02-.02.08-.06.15-.06h0l8.16.07c.08,0,.13.04.15.07.02.02.06.08.06.15v.26c0,.08-.04.13-.07.15-.02.02-.08.06-.15.06h0l-8.16-.07c-.12,0-.22-.1-.21-.22Z"/>
    </g>
    <g>
      <path class="cls-19" d="M75.28,96.36c2.56.25,1.72,8.72,1.72,8.72-1.97,1.46-5.39,1.13-5.39,1.13-1.06.14-1.84-.55-1.84-.55-2.37-6.64-1.3-7.96-1.3-7.96,2.23-2.58,6.82-1.33,6.82-1.33Z"/>
      <path class="cls-14" d="M68.14,97.41c-.21.26-1.11,1.85,1.22,8.39l.04.1.08.07s.92.8,2.13.66c.12,0,.43.03.86.03,1.2,0,3.33-.17,4.78-1.24l.15-.11.02-.19c.07-.67.6-6.63-.98-8.55-.3-.37-.67-.58-1.09-.63-.47-.12-4.92-1.19-7.22,1.47ZM68.8,97.96c2.02-2.34,6.33-1.2,6.37-1.19h.07c.21.03.39.14.55.34,1.11,1.35.97,5.86.8,7.73-1.84,1.22-4.91.94-4.94.94h-.05s-.05,0-.05,0c-.68.09-1.23-.25-1.43-.39-2.1-5.94-1.34-7.42-1.33-7.43Z"/>
    </g>
    <g>
      <g>
        <path class="cls-9" d="M71.67,106.92c.72.91.1,1.3.1,1.3-1.17.82-1.5.96-1.5.96-.79.61-1.52-1.17-1.52-1.17.64-.71,2.18-1.71,2.18-1.71.32-.24.74.62.74.62Z"/>
        <path class="cls-19" d="M68.59,107.87l-.09.1.05.12c.05.12.52,1.22,1.18,1.4.06.02.13.03.19.03.16,0,.31-.05.45-.16.1-.05.49-.26,1.51-.97.02-.01.27-.17.33-.52.06-.32-.07-.68-.36-1.07-.09-.18-.36-.67-.7-.75-.12-.03-.24,0-.34.07-.11.07-1.58,1.04-2.22,1.75ZM69,108.05c.66-.67,2.03-1.57,2.05-1.58h.01c.08,0,.29.27.42.54l.02.04c.22.29.33.54.29.74-.03.17-.14.24-.15.25-1.13.79-1.47.95-1.48.95l-.04.02c-.13.1-.23.09-.29.07-.34-.09-.69-.7-.85-1.03Z"/>
      </g>
      <g>
        <path class="cls-11" d="M70.81,107.17c.3.38.04.54.04.54-.49.34-.62.4-.62.4-.33.25-.63-.49-.63-.49.27-.29.91-.71.91-.71.13-.1.31.26.31.26Z"/>
        <path class="cls-6" d="M69.43,107.48l-.09.1.05.12c.04.09.25.57.57.66.04.01.07.02.11.02.09,0,.17-.03.25-.08.06-.03.24-.13.64-.41.02-.01.15-.1.19-.3.03-.17-.03-.35-.17-.53-.06-.13-.19-.32-.37-.37-.09-.02-.17,0-.24.05-.06.04-.67.44-.94.74ZM69.85,107.67c.21-.2.54-.43.69-.53.03.04.06.09.08.12l.02.04c.08.1.1.18.1.21h0s0,.02,0,.02c-.45.31-.59.38-.59.38l-.04.02h0c-.06,0-.16-.12-.24-.27Z"/>
      </g>
    </g>
    <path class="cls-19" d="M72.8,94.39c2.18-.29,4.12.67,4.32,2.15l-.15,2.32c-.17,4.67-2.73,4.54-3.52,3.48l.29-.71c-2.18.29-4.4.23-4.6-1.25l-.58-1.71c-.2-1.48,2.07-4,4.25-4.29Z"/>
    <path class="cls-8" d="M70.74,94.74c.81-.84,2.48-1.01,3.31-.2.84.81.86,2.15.05,2.99l-1.83,1.89c-.81.84-1.51,1.71-2.35.9h-.64c-.84-.81-1.1-3.64,1.06-5.4l.4-.19Z"/>
    <path class="cls-8" d="M73.98,98.53c1.82.18,1.22,6.19,1.22,6.19-1.4,1.03-3.82.8-3.82.8-.75.1-1.31-.39-1.31-.39-1.68-4.71-.92-5.65-.92-5.65,1.58-1.83,4.83-.94,4.83-.94Z"/>
  </g>
  <g>
    <g>
      <path class="cls-19" d="M61.19,87.71l.9-.14c2.61-.74,4.97-.22,5.86,1.76.89,1.98,0,4.32-1.98,5.21l-1.77.79c-1.98.89-4.32,0-5.21-1.98h-.43c-.89-1.98.65-4.76,2.63-5.65Z"/>
      <path class="cls-14" d="M58.42,89.93c-.62,1.25-.71,2.57-.24,3.6l.11.25h.44c.5.93,1.31,1.65,2.31,2.03.51.19,1.03.29,1.56.29.61,0,1.21-.13,1.78-.38l1.76-.79c2.2-.99,3.18-3.58,2.19-5.78-.93-2.07-3.36-2.84-6.34-2l-.93.15-.05.02c-1.05.47-2.02,1.45-2.6,2.62ZM59.19,90.31c.48-.97,1.27-1.79,2.13-2.19l.89-.14c.72-.2,1.41-.3,2.03-.3,1.58,0,2.78.64,3.32,1.83.79,1.77,0,3.85-1.76,4.65l-1.76.79c-.85.38-1.81.41-2.69.08-.88-.33-1.58-.99-1.96-1.84l-.11-.25h-.42c-.24-.76-.13-1.69.33-2.61Z"/>
    </g>
    <path class="cls-14" d="M58.17,93.53l.11.26h.44c.5.93,1.31,1.65,2.31,2.03.9.34,1.86.38,2.76.12.2-.06.39-.13.58-.21l1.76-.79c1.06-.48,1.88-1.34,2.29-2.44.42-1.1.38-2.28-.1-3.34-.93-2.07-3.36-2.84-6.35-2l-1.2.29-.05.02c-2.12.96-3.6,3.8-2.58,6.07ZM59.19,90.31c.48-.97,1.27-1.79,2.13-2.19l.89-.14c2.55-.72,4.6-.14,5.35,1.52.38.85.41,1.8.08,2.68-.33.88-.99,1.57-1.84,1.96l-1.76.79c-1.76.79-3.85,0-4.64-1.76l-.12-.26h-.42c-.24-.76-.12-1.69.33-2.6Z"/>
    <g>
      <path class="cls-11" d="M57.64,100.34l.97-.41.31-8.25,6.99,1.4-1.47,6.11s-.55,2.16-.76,4.24c0,0,.01,1.77-1.36,1.7,0,0-5.84-1.54-6.19-1.65,0,0-1.19-.33-1.47-.73,0,0-.45-1.43,2.97-2.41Z"/>
      <path class="cls-6" d="M54.42,101.83c-.29.55-.19.97-.16,1.04l.02.06.04.05c.34.49,1.39.81,1.7.9.35.1,5.95,1.59,6.19,1.65h.09s.07.02.1.02c.42,0,.79-.14,1.07-.41.59-.57.63-1.5.64-1.7.2-2.02.74-4.13.74-4.15h0s1.57-6.54,1.57-6.54l-7.92-1.59-.32,8.48-.69.3c-1.61.47-2.65,1.11-3.07,1.9ZM55.08,102.56c.01-.23.23-1.1,2.68-1.81l.05-.02,1.22-.52.3-8.02,6.06,1.22-1.36,5.67c-.03.12-.56,2.23-.77,4.3v.02s0,.02,0,.02c0,.21-.07.81-.37,1.1-.13.12-.28.18-.49.17-2.03-.54-5.86-1.55-6.13-1.63-.49-.13-1-.36-1.18-.51Z"/>
    </g>
    <path class="cls-15" d="M58.62,100.73s2.77.28,3,2.82c0,0,.13,1.2-5.58-.79,0,0-1.24-.47-.73-.88,0,0,2.13-1.55,3.31-1.16Z"/>
    <g>
      <path class="cls-11" d="M58.55,99.8h.27c.36,0,.64.29.64.64v8.16c0,.36-.29.64-.64.64h-.27c-.36,0-.64-.29-.64-.64v-8.16c0-.36.29-.64.64-.64Z" transform="translate(-58.21 131.07) rotate(-73.48)"/>
      <path class="cls-6" d="M53.71,103.19c-.17.57.16,1.17.72,1.33h0s7.82,2.32,7.82,2.32c.1.03.2.04.31.04.18,0,.35-.04.51-.13.25-.14.44-.36.52-.64l.08-.25c.17-.57-.16-1.17-.72-1.33l-7.82-2.32c-.57-.17-1.17.16-1.33.72l-.08.25ZM54.53,103.43l.08-.25c.03-.09.12-.16.21-.16.02,0,.04,0,.06,0l7.82,2.32c.11.03.18.16.15.27l-.08.25c-.02.07-.08.11-.1.13-.03.02-.09.04-.16.02l-7.82-2.32c-.11-.03-.18-.16-.15-.27Z"/>
    </g>
    <g>
      <path class="cls-19" d="M58.79,90.43c2.86-1.86,6.92.6,6.92.6,2.39.95-.75,8.86-.75,8.86-2.3.85-5.49-.41-5.49-.41-1.06-.16-1.62-1.04-1.62-1.04-.44-7.04.95-8.01.95-8.01Z"/>
      <path class="cls-14" d="M57.42,98.48v.11s.07.09.07.09c.03.04.66,1.02,1.87,1.23.3.12,1.98.72,3.75.72.68,0,1.37-.09,2-.32l.18-.07.07-.18c.25-.63,2.41-6.21,1.42-8.49-.19-.44-.49-.75-.88-.91-.42-.25-4.4-2.5-7.34-.58-.28.19-1.57,1.47-1.14,8.4ZM59.05,90.78s0,0,0,0c0,0,0,0,0,0ZM59.05,90.77c2.59-1.67,6.4.61,6.44.63l.06.03c.19.08.34.23.44.47.69,1.6-.69,5.9-1.36,7.65-2.1.66-4.98-.45-5.01-.47l-.09-.03c-.67-.1-1.11-.58-1.26-.77-.37-6.12.69-7.42.79-7.52Z"/>
    </g>
    <g>
      <g>
        <path class="cls-9" d="M59.33,100.19c.44,1.08-.27,1.27-.27,1.27-1.35.46-1.71.51-1.71.51-.93.36-1.14-1.54-1.14-1.54.81-.5,2.57-1.04,2.57-1.04.37-.14.54.81.54.81Z"/>
        <path class="cls-19" d="M56.1,100.25l-.11.07v.13c.03.13.17,1.32.77,1.68.12.07.24.11.37.11.09,0,.19-.02.28-.05.11-.02.55-.12,1.72-.52.02,0,.3-.09.46-.41.14-.29.13-.67-.05-1.13-.04-.2-.17-.75-.47-.92-.11-.06-.23-.07-.35-.03-.13.04-1.81.56-2.62,1.07ZM56.44,100.55c.82-.46,2.39-.95,2.41-.95h.01c.07.03.2.35.25.64v.04c.15.34.18.62.09.8-.07.15-.2.19-.2.19-1.31.45-1.68.5-1.68.51h-.05c-.15.07-.24.03-.3,0-.28-.17-.46-.79-.53-1.22Z"/>
      </g>
      <g>
        <path class="cls-11" d="M58.42,100.2c.18.45-.11.53-.11.53-.56.19-.71.21-.71.21-.39.15-.47-.64-.47-.64.34-.21,1.07-.43,1.07-.43.15-.06.22.33.22.33Z"/>
        <path class="cls-6" d="M57.02,100.11l-.11.07v.13c.03.1.09.61.39.79.07.04.14.06.22.06.05,0,.1,0,.15-.03.07-.01.26-.06.72-.22.02,0,.18-.06.26-.23.07-.15.07-.34-.01-.56-.03-.14-.09-.36-.25-.46-.08-.04-.16-.05-.25-.02-.07.02-.77.24-1.11.45ZM57.36,100.41c.26-.13.64-.26.81-.31.02.04.03.09.04.14v.04c.06.12.06.2.05.23h0s-.01.02-.01.02c-.52.18-.67.2-.67.2h-.05c-.05,0-.12-.15-.16-.32Z"/>
      </g>
    </g>
    <path class="cls-19" d="M63.87,88.46c2.17.32,3.78,1.79,3.56,3.26l-.79,2.18c-1.45,4.44-3.87,3.61-4.34,2.38l.47-.6c-2.17-.32-4.3-.99-4.08-2.47l-.09-1.81c.22-1.47,3.09-3.27,5.27-2.95Z"/>
    <path class="cls-8" d="M61.35,88.3l.44-.07c1.01-.58,2.66-.28,3.24.73.58,1.01.23,2.31-.78,2.89l-2.28,1.31c-1.01.58-1.93,1.23-2.51.22l-.62-.18c-.58-1.01-.05-3.8,2.51-4.9Z"/>
    <path class="cls-8" d="M58.96,92.34c2.03-1.32,4.91.43,4.91.43,1.7.67-.53,6.28-.53,6.28-1.63.61-3.9-.29-3.9-.29-.75-.12-1.15-.74-1.15-.74-.31-4.99.67-5.68.67-5.68Z"/>
  </g>
  <g>
    <g>
      <g>
        <path class="cls-18" d="M81.94,75.24c9.8,11.02,7.83,26.31,7.83,26.31-2.58.91-5.21,0-5.21,0-11.68.93-22.53-4.73-22.53-4.73l-.18-1.32c-4.03-.82-5.88-5.02-5.88-5.02,8.43-8.51,12.22-17.14,12.22-17.14l13.75,1.92Z"/>
        <path class="cls-13" d="M55.67,90.17l-.2.21.12.27c.08.18,1.89,4.21,5.89,5.2l.17,1.24.2.1c.11.06,11.04,5.68,22.67,4.79.31.1,1.4.41,2.77.41.81,0,1.72-.11,2.63-.43l.25-.09.03-.26c.02-.16.49-3.94-.24-9.14-.68-4.8-2.56-11.74-7.69-17.51l-.1-.12-14.22-1.98-.13.3c-.04.09-3.86,8.67-12.13,17.02ZM56.49,90.55c7.38-7.52,11.21-15.18,11.95-16.76l13.28,1.85c8.75,9.95,7.84,23.52,7.65,25.58-2.33.71-4.64-.08-4.67-.09l-.09-.03h-.09c-10.57.85-20.59-3.84-22.1-4.58l-.19-1.39-.3-.06c-3.2-.65-4.98-3.62-5.45-4.52Z"/>
      </g>
      <path class="cls-17" d="M85.05,79.82s3.99,14.14,2.48,20.2c0,0-6.6.29-12.49-.82,0,0-1.35-24.21,10.01-19.39Z"/>
      <g class="cls-21">
        <path class="cls-3" d="M58.25,91.33c2.5,2.86,2.89,3.72,2.89,3.72-2.88-1.13-4.05-4.38-4.05-4.38,5.24-5.3,7.98-11.21,7.98-11.21-1.98,5.7-6.82,11.87-6.82,11.87Z"/>
      </g>
    </g>
    <g>
      <g>
        <path class="cls-10" d="M84.24,94.36s-.03.03-.06.06c.02-.02.02-.02.06-.06Z"/>
        <path class="cls-10" d="M84.18,94.41c-.07.07-.05.04,0,0h0Z"/>
        <path class="cls-10" d="M60.05,85.98c5.6-12.54,10.17-12.37,10.17-12.37,3.09,5.68,12.91,5.11,12.91,5.11,3.56,4.83,2.55,9.88,2.55,9.88,0,0-1.18,5.5-1.44,5.76,0,0-6.59,1.28-16.23-2.84-9.79-4.19-7.96-5.54-7.96-5.54Z"/>
      </g>
      <path class="cls-14" d="M59.69,85.73c-.13.15-.23.39-.2.7.16,1.34,2.97,3.18,8.35,5.48h0c6,2.57,10.81,3.07,13.65,3.07,1.72,0,2.72-.18,2.83-.2l-.03-.13.12.13,1.15-1.12-.68.13c.23-.77.59-2.24,1.21-5.11.04-.22,1.01-5.3-2.62-10.22l-.14-.19h-.23c-.1.02-9.59.49-12.51-4.88l-.12-.21h-.24c-.19-.01-4.91-.05-10.55,12.54ZM60.31,86.32l.09-.07.05-.1c4.68-10.47,8.59-11.89,9.55-12.09,3.08,5.16,11.38,5.14,12.93,5.09,3.24,4.55,2.35,9.31,2.34,9.36-.49,2.27-1.08,4.78-1.31,5.45-1.19.17-7.32.77-15.77-2.84-7.29-3.12-7.8-4.54-7.83-4.79,0,.01-.02-.01-.04-.01,0,0,0,0,0,0Z"/>
    </g>
    <g>
      <path class="cls-16" d="M82.85,91.02c-.2.17,0,0,0,0h0Z"/>
      <path class="cls-16" d="M62.66,83.67c3.99-9.02,7.74-8.68,7.74-8.68,2.8,4.35,10.81,4.4,10.81,4.4,3.14,3.74,2.55,7.44,2.55,7.44,0,0-.7,4.02-.91,4.2,0,0-5.33.64-13.41-2.87-8.2-3.56-6.78-4.48-6.78-4.48Z"/>
    </g>
    <g>
      <path class="cls-10" d="M82.9,97.09l-1.07,4.98c-4.44.59-11.39-1.96-11.39-1.96-10.05-3.28-13.34-9.44-13.34-9.44l2.33-3.99c4.33,6.82,23.46,10.41,23.46,10.41Z"/>
      <path class="cls-14" d="M59.42,85.86l-2.81,4.8.11.21c.14.26,3.49,6.35,13.58,9.64.24.09,5.7,2.07,10.07,2.07.53,0,1.03-.03,1.52-.09l.3-.04,1.22-5.7-.43-.08c-.19-.04-19-3.63-23.18-10.22l-.38-.59ZM57.6,90.67l1.87-3.2c4.63,6.05,20.07,9.38,22.92,9.95l-.91,4.25c-4.3.42-10.82-1.94-10.89-1.97-8.75-2.85-12.32-7.96-12.99-9.04Z"/>
    </g>
    <path class="cls-16" d="M60.98,88.4l-2.15,4.02-1.1-1.16,2.23-4.11s.99,1.05,1.02,1.26Z"/>
    <g>
      <g>
        <path class="cls-10" d="M68.09,92.71s-1.4,3.52-2.87,6.62c0,0-2.91-2.37-5.76-5.21l2-5.07s5.26,2.98,6.63,3.66Z"/>
        <path class="cls-14" d="M61.24,88.43l-2.28,5.79.2.2c2.84,2.82,5.77,5.22,5.8,5.24l.42.35.23-.49c1.46-3.08,2.87-6.61,2.88-6.65l.15-.37-.35-.18c-1.35-.67-6.56-3.62-6.61-3.65l-.43-.24ZM59.96,94.02l1.72-4.35c1.18.67,4.44,2.5,5.87,3.25-.37.91-1.39,3.39-2.48,5.74-.88-.74-3-2.55-5.11-4.64Z"/>
      </g>
      <path class="cls-16" d="M63.24,91.24l3.04,2.5s-1.85,3.35-6,.3l1.24-3.83,1.72,1.03Z"/>
    </g>
    <g>
      <g>
        <g>
          <path class="cls-9" d="M60.83,83.56c15.39,11.12,23.74,8.62,23.74,8.62.58-.17.72.08.61.6-.13.63-1.15,3.36-1.15,3.36-.16.45-.86.82-.86.82-14.78.35-24.44-9.32-24.44-9.32-.84-.42,1.33-4.39,1.33-4.39.99-.83.76.29.76.29Z"/>
          <path class="cls-13" d="M59.69,83.07c-.44.8-1.85,3.5-1.53,4.51.07.22.19.35.31.42.7.67,10.05,9.41,23.92,9.41.26,0,.52,0,.79,0h.1s.09-.05.09-.05c.14-.07.86-.48,1.06-1.06.1-.27,1.03-2.77,1.16-3.42.03-.17.14-.67-.2-.98-.33-.3-.8-.16-.95-.12-.08.02-8.3,2.25-23.17-8.41,0-.25-.05-.57-.33-.74-.45-.27-.97.16-1.16.32l-.06.05-.04.07ZM60.38,83.59l-.03.15.23.16c15.39,11.11,23.77,8.79,24.12,8.69.04-.01.07-.02.09-.02,0,.03,0,.08-.02.13-.1.49-.85,2.55-1.13,3.3-.06.18-.35.41-.58.55-.22,0-.44,0-.66,0-14,0-23.26-9.11-23.36-9.2l-.06-.06c-.1-.41.53-2.09,1.41-3.71Z"/>
        </g>
        <path class="cls-7" d="M60.72,84.2c14.25,9.74,22.83,8.7,22.83,8.7.14-.02.17.17.26.19-.73,1.25-1.95,3.15-4.96,3.37-14.73-2.7-19.81-9.11-19.81-9.11-.81-.4.96-3.44.96-3.44.85-.55.73.29.73.29Z"/>
        <g>
          <path class="cls-16" d="M58.83,87.18s0,.06.01.08c0,0-.02-.02-.01-.08Z"/>
          <path class="cls-16" d="M59.69,84.33c.46-1.24,1.22-.04,1.22-.04,11.85,8.4,21.51,8.64,21.51,8.64,1.8.1-.99.63-.99.63-9.13.6-20.99-8.02-20.99-8.02-1.35,1.09-1.58,1.5-1.6,1.65-.23-.92.85-2.85.85-2.85Z"/>
        </g>
      </g>
      <g>
        <g>
          <path class="cls-9" d="M66.53,86.16c1.85.83,2.68,2.99,1.85,4.84-.83,1.85-2.99,2.68-4.84,1.85-1.85-.83-2.67-2.99-1.85-4.84.83-1.85,2.99-2.67,4.84-1.85Z"/>
          <path class="cls-13" d="M61.3,87.84c-.45,1-.48,2.11-.09,3.13.39,1.02,1.15,1.83,2.15,2.27.54.24,1.11.36,1.66.36,1.57,0,3.06-.9,3.74-2.42.45-1,.48-2.11.09-3.13-.39-1.02-1.15-1.83-2.15-2.27-1-.45-2.11-.48-3.13-.09-1.02.39-1.83,1.15-2.27,2.15ZM62.08,88.19c.35-.79.99-1.39,1.8-1.7.38-.14.77-.21,1.16-.21.45,0,.9.09,1.32.28.79.35,1.39.99,1.7,1.8.31.81.28,1.69-.07,2.47-.35.79-.99,1.39-1.8,1.7-.81.31-1.69.28-2.47-.07-.79-.35-1.39-.99-1.7-1.8-.31-.81-.28-1.69.07-2.47Z"/>
        </g>
        <path class="cls-7" d="M66.03,86.62c1.46.65,2.08,2.45,1.38,4.02-.7,1.57-2.45,2.3-3.92,1.65-1.46-.65-2.08-2.45-1.38-4.02.7-1.57,2.45-2.3,3.92-1.65Z"/>
        <g>
          <g>
            <path class="cls-9" d="M65.73,87.26c1.06.68,1.37,2.14.7,3.27-.68,1.13-2.08,1.49-3.14.82-1.06-.68-1.37-2.14-.69-3.27.68-1.13,2.08-1.5,3.14-.82Z"/>
            <path class="cls-13" d="M62.31,87.91c-.76,1.28-.41,2.94.8,3.71.4.26.86.39,1.33.39.19,0,.39-.02.58-.07.7-.16,1.3-.61,1.68-1.25.76-1.28.4-2.94-.8-3.71-.57-.37-1.25-.48-1.91-.32-.7.16-1.3.61-1.68,1.25ZM62.87,88.24c.29-.49.75-.83,1.28-.95.14-.03.29-.05.43-.05.35,0,.69.1.99.29.91.59,1.18,1.86.59,2.84-.29.49-.75.83-1.28.95-.49.12-1,.03-1.42-.24-.91-.59-1.18-1.86-.59-2.84Z"/>
          </g>
          <path class="cls-7" d="M65.18,87.24c.83.4,1.1,1.56.61,2.58-.49,1.02-1.56,1.52-2.38,1.11-.83-.41-1.1-1.56-.61-2.58s1.56-1.52,2.38-1.11Z"/>
          <path class="cls-16" d="M64.44,87.42c.57.25.74,1.09.39,1.87-.35.78-1.09,1.21-1.65.95s-.74-1.09-.39-1.87c.35-.78,1.09-1.21,1.65-.95Z"/>
        </g>
      </g>
    </g>
    <g>
      <path class="cls-18" d="M66.83,80.42c.59.59,1.3,1.05,2.01,1.4.42-1.07.26-1.93.26-1.93,1.71.05,2.79,1.16,2.79,1.16-.82.26-1.42.73-1.86,1.28,1.49.54,2.76.67,2.76.67,1.06,1.6-.42,1.71-.42,1.71-.91-.79-1.84-1.38-2.71-1.82-.91,1.56-.83,3.43-.83,3.43-2.55.17-3.2-1.47-3.2-1.47,1.58-.69,2.46-1.6,2.94-2.45-1.7-.69-2.95-.8-2.95-.8-.54-1.04,1.21-1.18,1.21-1.18Z"/>
      <path class="cls-13" d="M65.59,81.91s1.06.1,2.5.64c-.56.82-1.43,1.49-2.59,1.99l-.28.12.11.29c.03.07.69,1.69,3.12,1.69.13,0,.26,0,.4-.01l.31-.02v-.31s-.07-1.59.62-2.98c.85.46,1.65,1.01,2.37,1.64l.1.09h.13c.08-.02.74-.08,1.01-.62.2-.42.09-.95-.34-1.6l-.08-.13-.15-.02s-.99-.11-2.22-.5c.39-.38.86-.65,1.39-.82l.49-.16-.36-.37s-1.2-1.2-3.01-1.26h-.39s.07.38.07.38c0,0,.1.61-.13,1.41-.63-.34-1.16-.74-1.6-1.17l-.1-.1h-.15c-.12.02-1.16.11-1.5.72-.11.19-.19.51.03.93l.08.16.18.02ZM69.69,82.54l.23.08c1.22.44,2.29.62,2.68.67.22.37.3.66.22.84-.07.14-.24.2-.36.23-.81-.69-1.71-1.28-2.66-1.77l-.1-.05ZM68.85,82.55l.16-.29h0s.02-.03.02-.03h0s.11-.3.11-.3c.27-.7.32-1.31.31-1.69.81.1,1.44.45,1.82.71-.58.27-1.08.66-1.49,1.17l-.28.35h.01s-.14.25-.14.25c-.73,1.25-.85,2.66-.87,3.28-.02,0-.03,0-.05,0-1.43,0-2.1-.65-2.37-1.02,1.27-.61,2.2-1.43,2.76-2.43ZM65.85,81.3c-.02-.1,0-.15.02-.17.11-.19.53-.32.85-.37.52.49,1.16.93,1.9,1.31-1.31-.52-2.35-.71-2.77-.77Z"/>
    </g>
    <path class="cls-16" d="M80.4,97.95s-.83,3.12-3.28,3.03c0,0-4.16-.23-9.89-2.95,0,0-.16-1.66.68-3.49,0,0,4.46,2.78,12.5,3.41Z"/>
  </g>
  <g>
    <g>
      <path class="cls-9" d="M59.81,80.67c1.03-.15,2.55-2.74,4.02-4.12,1.7-1.61,5.86.07,4.51,3.52-.19.48-1.94,4.38-5.16,6.08,0,0-3.9,1.81-8.9,1.74,0,0,1.26-3.96-.86-6.44,0,0,3.51-.36,6.39-.77Z"/>
      <path class="cls-19" d="M53.37,81.02l-.81.08.53.62c1.95,2.28.79,6,.78,6.04l-.18.55h.58c.1,0,.2.01.3.01,4.89,0,8.62-1.7,8.78-1.78h.02c3.55-1.88,5.34-6.26,5.36-6.31.64-1.64.22-3.17-1.12-4.08-1.32-.89-3.08-.86-4.08.09-.58.55-1.16,1.26-1.72,1.96-.71.88-1.6,1.98-2.07,2.05-2.84.4-6.34.77-6.38.77ZM54.2,81.79c1.19-.13,3.6-.4,5.67-.7.8-.11,1.64-1.15,2.61-2.36.54-.67,1.1-1.36,1.64-1.87.7-.66,2.03-.67,3.01,0,.48.32,1.51,1.26.81,3.06-.02.04-1.68,4.12-4.95,5.85-.2.09-3.69,1.63-8.15,1.69.25-1.11.62-3.65-.64-5.67Z"/>
    </g>
    <path class="cls-7" d="M63.46,77.64s.61-.92,1.25-.91c0,0,2.11-.66,1.3,3.33,0,0-1.52,2.71-3.81,3.97,0,0-1.3.5-2.06.6,0,0-.15-1.85-1.86-3.29,0,0,1.75-.13,2.15-.4,0,0,1.79-1.72,3.02-3.3Z"/>
    <g>
      <g>
        <path class="cls-11" d="M57.51,79.96c3.26,4.34.79,8.79.79,8.79-1.84.18-4.72-.82-4.72-.82,1.49-4.2-1.08-6.66-1.08-6.66l5.01-1.31Z"/>
        <path class="cls-6" d="M57.68,79.47l-6.03,1.57.55.53c.1.09,2.35,2.34.97,6.21l-.14.41.41.14c.11.04,2.52.87,4.39.87.18,0,.35,0,.52-.02l.22-.02.11-.2s2.56-4.75-.82-9.26l-.17-.23ZM57.34,80.44c2.45,3.49,1.09,7.02.69,7.89-1.32.06-3.12-.44-3.91-.69.93-3.06-.17-5.19-.86-6.14l4.08-1.06Z"/>
      </g>
      <path class="cls-15" d="M57.27,80.49s2.93,5.87-2.87,6.64c0,0,.75-2.48-1.23-5.41l4.1-1.23Z"/>
      <g>
        <path class="cls-6" d="M55.18,84.42c.1-.19.22-.38.35-.56.13-.18.27-.35.46-.5-.02.23-.09.45-.16.66-.07.21-.16.41-.27.6-.1.19-.22.38-.35.56-.13.18-.28.35-.46.5.02-.23.09-.45.16-.66.07-.21.17-.41.27-.6Z"/>
        <path class="cls-6" d="M55.6,84.53c.13.18.25.36.36.55.1.2.2.4.26.63-.2-.12-.37-.27-.53-.43-.16-.16-.3-.32-.43-.5-.13-.18-.25-.36-.36-.55-.1-.2-.2-.4-.26-.63.2.12.37.27.53.43.16.16.3.32.43.5Z"/>
      </g>
      <g>
        <path class="cls-6" d="M56.91,84.34c.1-.19.22-.38.35-.56.13-.18.27-.35.46-.5-.02.24-.09.45-.16.66-.08.21-.17.41-.27.6-.1.19-.22.38-.35.56-.13.18-.28.35-.46.5.02-.24.09-.45.16-.66.08-.21.17-.41.27-.6Z"/>
        <path class="cls-6" d="M57.34,84.46c.13.18.25.36.36.55.1.2.2.4.26.63-.2-.12-.37-.27-.53-.43-.16-.16-.3-.32-.43-.5-.13-.18-.25-.36-.36-.55-.1-.2-.2-.4-.26-.63.2.12.37.27.53.43.16.16.3.32.43.5Z"/>
      </g>
    </g>
  </g>
  <g>
    <g>
      <path class="cls-9" d="M90.17,75.89s4.29.22,8.68,2.61c0,0-2.96,2.91-2.24,6.1,0,0-3.27-1.31-6.01-2.29-.98-.35-3.54,1.23-5.48,1.77-2.26.63-5.15-2.79-2.35-5.22.39-.34,3.76-2.97,7.4-2.97Z"/>
      <path class="cls-19" d="M82.5,78.54c-1.34,1.15-1.68,2.7-.91,4.13.76,1.41,2.32,2.19,3.65,1.82.77-.21,1.62-.58,2.43-.93,1.04-.45,2.34-1.01,2.79-.85,2.71.97,5.97,2.28,6,2.29l.76.3-.18-.79c-.66-2.92,2.1-5.68,2.12-5.7l.41-.4-.51-.28c-4.43-2.42-8.69-2.65-8.86-2.66h-.02c-4.01,0-7.64,3.04-7.68,3.07ZM83.06,79.19s3.41-2.86,7.11-2.87c.22.01,4.02.27,8,2.3-.74.86-2.24,2.94-2.08,5.31-1.11-.44-3.37-1.32-5.34-2.03-.76-.27-1.99.26-3.41.87-.79.34-1.61.69-2.32.89-.93.26-2.1-.36-2.66-1.4-.27-.51-.75-1.82.71-3.08Z"/>
    </g>
    <path class="cls-7" d="M85.74,78.85s1.62-1.13,3.94-1.49c0,0,.69-.33,3.21.72,0,0-1.4,1.79-.83,4.18,0,0-.67-.37-2-.56,0,0-2.15.5-4.14,1.51,0,0-2.07,1.17-3.12-.82,0,0-.7-1.56,2.95-3.54Z"/>
    <g>
      <g>
        <g>
          <path class="cls-11" d="M96.17,75.8c1.67.8,3.6,3.16,3.6,3.16-3.46,2.81-2.55,6.25-2.55,6.25l-4.96-1.49c-.52-5.4,3.9-7.92,3.9-7.92Z"/>
          <path class="cls-6" d="M91.84,83.76l.03.29,5.97,1.79-.2-.74c-.03-.13-.79-3.22,2.4-5.81l.33-.27-.27-.33c-.08-.1-2.02-2.44-3.75-3.27l-.2-.1-.2.11s-4.66,2.72-4.11,8.33ZM92.67,83.4c-.28-4.29,2.71-6.57,3.52-7.1,1.16.64,2.43,2,2.98,2.62-2.39,2.13-2.56,4.52-2.46,5.69l-4.03-1.21Z"/>
        </g>
        <path class="cls-15" d="M98.66,79.22s-1.93,1.73-1.77,5.26l-4.14-1.08s.55-6.54,5.91-4.18Z"/>
        <g>
          <path class="cls-6" d="M96.37,80.76c.19-.11.38-.21.59-.29.21-.08.42-.15.65-.19-.14.19-.31.34-.48.48-.17.14-.35.26-.54.37-.19.11-.38.21-.59.29-.21.08-.42.15-.65.19.14-.19.31-.34.48-.48.17-.14.35-.26.54-.37Z"/>
          <path class="cls-6" d="M96.6,80.12c.05.21.09.43.11.65.02.22.03.44.02.66-.01.22-.04.44-.11.67-.11-.21-.17-.42-.23-.64-.05-.21-.09-.43-.11-.65-.02-.22-.03-.44-.02-.66.01-.22.04-.44.11-.67.11.21.17.42.23.64Z"/>
        </g>
        <g>
          <path class="cls-6" d="M94.84,79.92c.19-.11.38-.21.59-.29.21-.08.42-.15.65-.19-.14.19-.31.34-.48.48-.17.14-.35.26-.54.37-.19.11-.38.21-.59.29-.21.08-.42.15-.65.19.14-.19.31-.34.48-.48.17-.14.35-.26.54-.37Z"/>
          <path class="cls-6" d="M95.08,79.28c.05.22.09.43.11.65.02.22.03.44.02.66-.01.22-.04.44-.11.67-.11-.21-.17-.42-.23-.64-.05-.22-.09-.43-.11-.65-.02-.22-.03-.44-.02-.66.01-.22.04-.44.11-.67.11.21.17.42.23.64Z"/>
        </g>
      </g>
      <g>
        <g>
          <path class="cls-11" d="M101.04,78.6c1.48.44,3.22,1.35,3.22,1.35l.02,1.27c.56.18.56.32.56.32l-.08,1.27c.46.37.38,1.27.38,1.27-.73,1.38-.25,2.69-.25,2.69.12.75-2.12.65-2.12.65-.39,1.09-1.71.74-1.71.74-.78-.79-3.16-.79-3.16-.79-1.95-4.06.12-6.88.12-6.88,1.37-2.43,3.01-1.89,3.01-1.89Z"/>
          <path class="cls-6" d="M97.68,80.26c-.22.31-2.12,3.2-.15,7.3l.12.24h.27c.85,0,2.38.18,2.86.66l.08.08.11.03c.16.04.36.07.58.07.53,0,1.16-.18,1.52-.79.01,0,.02,0,.04,0,.6,0,1.64-.07,2.04-.52.16-.17.22-.4.19-.63l-.02-.08s-.4-1.16.23-2.34l.04-.08v-.09c.02-.1.08-.94-.36-1.47l.07-1.1v-.02c0-.31-.31-.5-.57-.61l-.02-1.23-.22-.12c-.07-.04-1.79-.93-3.3-1.38-.16-.05-2-.54-3.49,2.07ZM98.38,80.74l.03-.04c1.17-2.06,2.45-1.71,2.51-1.7l.13-.41-.12.41c1.12.34,2.41.95,2.92,1.21l.02,1.32.29.09c.12.04.2.07.25.1l-.08,1.29.17.14c.19.15.23.58.22.81-.63,1.26-.38,2.45-.27,2.83-.21.14-.97.23-1.66.2h-.32s-.11.29-.11.29c-.21.58-.85.53-1.1.49-.78-.66-2.41-.79-3.09-.82-1.62-3.64.12-6.1.19-6.21Z"/>
        </g>
        <path class="cls-15" d="M99.28,81.36c.44-.56,1.23-.93,1.23-.93,1.36-.06,2.44.77,2.44.77.77.75.1,1.3.1,1.3,1.05.54.93,2.16.93,2.16-.12,1.12.28,2.06.28,2.06-.28.46-1.16.15-1.16.15-.78-2.29-2.32-2.04-2.32-2.04.85.54,1.24,1.78,1.24,1.78.22.91-.85,1.01-.85,1.01-2.03-1.02-2.75-.67-2.75-.67-1.02-3.98.86-5.59.86-5.59Z"/>
        <g>
          <g>
            <path class="cls-6" d="M102.36,87.29h0s0,0,0,0c0,0-.01,0,0,0Z"/>
            <path class="cls-6" d="M101.22,84l.12-.2-.08.21c-.02.07-.04.14-.05.22-.02.15-.03.29,0,.42.03.13.1.25.18.35.08.09.21.18.31.21h0s.02.02.02.02c.2.13.41.25.61.41.2.15.38.32.55.53.16.21.31.47.36.8.02.16,0,.34-.05.5-.02.08-.06.16-.11.24-.02.04-.05.08-.07.11-.01.02-.03.04-.04.06-.02.02-.03.03-.07.07l-.54-.66s0,0,0,0c.01,0,.02-.02.03-.03.02-.02.04-.04.05-.07.03-.05.05-.11.06-.18.01-.14-.03-.32-.13-.5-.1-.18-.22-.35-.37-.52-.15-.17-.32-.32-.48-.47l.03.02c-.17-.1-.28-.22-.37-.37-.09-.15-.14-.31-.15-.48,0-.17.03-.32.08-.47.03-.07.06-.14.09-.21Z"/>
          </g>
          <path class="cls-6" d="M103,84.81c.17,0,.34-.02.51,0-.31.12-.6.29-.89.45-.29.17-.57.34-.85.52l-.3-.8c.34-.05.68-.09,1.02-.12.17-.02.34-.03.51-.04Z"/>
          <polygon class="cls-6" points="104.62 83.21 102.42 81.86 104.93 82.42 104.62 83.21"/>
          <polygon class="cls-6" points="104.11 81.61 102.52 80.4 104.47 80.84 104.11 81.61"/>
        </g>
      </g>
    </g>
  </g>
  <g>
    <g>
      <g>
        <path class="cls-11" d="M45.94,81.67c1.42-1.1,2.58-.84,2.58-.84l2.4-.87c3.26.87,2.74,4.58,2.74,4.58l.74,1.54-.07,1.31c-.46,2-4.78,2.65-4.78,2.65-2.02-.54-2.22-2.84-2.22-2.84-1.6-.35-.98-1.9-.98-1.9-1.78,0-1.04-2.33-1.04-2.33l.61-1.3Z"/>
        <path class="cls-6" d="M44.92,82.85c-.05.15-.45,1.48.15,2.3.14.19.38.41.77.52-.04.31-.03.72.17,1.1.19.36.51.62.95.77.13.71.65,2.43,2.49,2.92l.09.02h.09c.47-.08,4.62-.77,5.13-2.99v-.07s.08-1.42.08-1.42l-.74-1.53c.16-1.46-.29-4.18-3.07-4.92l-.13-.03-2.43.88c-.38-.04-1.51-.06-2.8.94l-.08.06-.68,1.45ZM45.73,83.13l.56-1.18c1.19-.88,2.14-.7,2.14-.7l.12.03,2.39-.86c2.72.82,2.32,3.94,2.3,4.07l-.02.13.75,1.56-.06,1.16c-.35,1.35-3.15,2.08-4.32,2.27-1.63-.5-1.82-2.42-1.82-2.44l-.03-.32-.31-.07c-.34-.07-.56-.21-.67-.42-.2-.37,0-.9,0-.9l.23-.58h-.63c-.44,0-.57-.18-.61-.24-.28-.39-.12-1.21-.04-1.51Z"/>
      </g>
      <path class="cls-6" d="M44.92,82.85c-.05.15-.45,1.48.15,2.3.14.19.38.41.77.52-.04.31-.03.72.17,1.1.19.36.51.62.95.77.13.71.65,2.43,2.49,2.92l.09.02h.09c.47-.08,4.62-.77,5.13-2.99v-.07s.08-1.42.08-1.42l-.74-1.53c.16-1.45-.29-4.18-3.07-4.92l-.13-.03-2.43.88c-.38-.04-1.51-.06-2.8.94l-.08.06-.68,1.45ZM45.73,83.13l.56-1.18c1.18-.88,2.11-.71,2.15-.7l.12.02.12-.04,2.27-.82c2.72.82,2.32,3.94,2.3,4.07l-.02.13.75,1.56-.06,1.16c-.35,1.35-3.15,2.08-4.32,2.27-1.63-.5-1.82-2.42-1.82-2.44l-.03-.32-.31-.07c-.34-.07-.56-.21-.67-.42-.2-.37,0-.9,0-.9l.23-.58h-.63c-.44,0-.57-.18-.61-.24-.29-.39-.12-1.21-.04-1.51Z"/>
    </g>
    <g>
      <rect class="cls-9" x="47.01" y="78.39" width="4.07" height="14.73" transform="translate(-25.38 20.79) rotate(-19.11)"/>
      <path class="cls-19" d="M48.82,77.59l-4.65,1.61,5.1,14.73,4.65-1.61-5.1-14.73ZM48.29,78.68l4.54,13.11-3.04,1.05-4.54-13.11,3.04-1.05Z"/>
    </g>
    <g>
      <g>
        <path class="cls-9" d="M52.62,94.7c-4.42,1.55-5.21-1.5-5.21-1.5,3.35-2.86,8.12-2.82,8.12-2.82.65,3.08-2.92,4.32-2.92,4.32Z"/>
        <path class="cls-19" d="M47.14,92.88l-.2.17.07.26s.32,1.19,1.52,1.84c.53.28,1.14.43,1.83.43s1.53-.15,2.41-.46c1.36-.47,3.77-2.08,3.2-4.81l-.07-.34h-.34c-.2,0-4.97-.02-8.41,2.91ZM47.92,93.34c2.65-2.11,6.14-2.46,7.25-2.51.24,2.42-2.57,3.43-2.69,3.47-1.49.52-2.68.56-3.54.1-.59-.31-.88-.78-1.02-1.06Z"/>
      </g>
      <path class="cls-7" d="M52.89,91.23c-2.26.83-2.66,2.26-2.66,2.26.38,1.14,2.38.89,2.38.89-3.28,1.47-4.23-1.22-4.23-1.22,1.14-1.17,2.11-1.5,2.11-1.5,1.29-.4,2.41-.43,2.41-.43Z"/>
      <path class="cls-16" d="M48.75,93.48c.96,1.57,3.24,1.24,3.24,1.24-3.06,1.06-4.25-1.35-4.25-1.35.88-.97,2.17-1.43,2.17-1.43-1.35.82-1.16,1.54-1.16,1.54Z"/>
    </g>
    <g>
      <path class="cls-13" d="M52.01,84.96c-.12,0-.25,0-.37,0,.06-.12.13-.23.22-.34l.15.35Z"/>
      <path class="cls-6" d="M51.02,83.37c0,.08.01.17.03.25.03.17.08.32.16.46.08.14.18.24.31.33.13.09.3.12.47.15l.46.07-.31.27c-.12.1-.24.24-.34.38-.1.14-.19.29-.25.46-.06.16-.1.34-.11.51,0,.18.04.36.1.53-.09-.16-.17-.33-.2-.52-.03-.19-.02-.39.01-.58.04-.19.1-.38.19-.55.03-.06.06-.12.09-.17.13.01.25.01.37,0l-.15-.35c-.09.11-.16.23-.22.34-.11-.01-.22-.03-.33-.08-.23-.08-.45-.24-.61-.42-.16-.19-.28-.4-.36-.62-.04-.11-.08-.22-.11-.33-.03-.12-.05-.22-.07-.36h.86s0,.15,0,.23Z"/>
    </g>
    <g>
      <path class="cls-11" d="M45.2,82.02c.99-1.43,3.44-.87,3.44-.87-2.16.67-.28,2.8-.28,2.8-1.94-.45-2.55,1.61-2.55,1.61-1.91-.61-.96-2.9-.96-2.9l.35-.63Z"/>
      <path class="cls-6" d="M44.46,82.49c-.02.05-.55,1.35-.06,2.4.24.52.67.88,1.29,1.07l.42.13.12-.42c.05-.17.55-1.66,2.04-1.31l1.3.3-.89-1c-.21-.24-.78-1.04-.63-1.55.07-.24.31-.42.71-.55l1.52-.47-1.55-.36c-.11-.03-2.74-.61-3.88,1.04l-.02.04-.37.67ZM45.24,82.83l.32-.59c.42-.59,1.2-.76,1.85-.77-.08.12-.15.26-.19.41-.16.56.05,1.15.29,1.59-.99.13-1.62.87-1.93,1.51-.18-.12-.32-.26-.41-.45-.31-.65.01-1.56.07-1.7Z"/>
    </g>
    <g>
      <g>
        <path class="cls-11" d="M48.14,83.88c1.36.06,2.35,1.78,2.35,1.78.27,1.1-1.7,1.32-1.7,1.32-2.1.16-1.74,1.22-1.74,1.22-2.11-.73-1.28-2.49-1.28-2.49.98-2.28,2.36-1.83,2.36-1.83Z"/>
        <path class="cls-6" d="M45.38,85.55s-.41.88-.04,1.76c.25.6.78,1.04,1.57,1.31l.83.29-.28-.83s-.02-.1.06-.22c.08-.11.36-.37,1.31-.44.15-.02,1.41-.17,1.91-.88.2-.28.26-.61.17-.96v-.06s-.04-.05-.04-.05c-.04-.08-1.1-1.89-2.66-2-.34-.08-1.81-.26-2.82,2.09ZM46.16,85.9c.81-1.87,1.81-1.61,1.85-1.6h.05s.06.02.06.02c.89.04,1.69,1.05,1.96,1.51.01.1-.02.17-.05.21-.22.31-.96.49-1.28.52-.97.07-1.64.36-1.95.83-.04.06-.07.12-.1.18-.27-.16-.46-.36-.56-.6-.22-.52.02-1.07.03-1.08Z"/>
      </g>
      <path class="cls-6" d="M45.38,85.54c-.04.1-.39.92-.04,1.76.25.6.78,1.04,1.57,1.31l.83.29-.28-.83h0s-.02-.1.06-.22c.08-.11.36-.37,1.31-.44.15-.02,1.41-.17,1.91-.88.2-.28.26-.61.17-.96v-.06s-.04-.05-.04-.05c-.04-.08-1.1-1.89-2.66-2-.34-.08-1.81-.26-2.82,2.08ZM46.16,85.9h0c.8-1.87,1.8-1.62,1.85-1.6h.05s.06.02.06.02c.88.04,1.68,1.05,1.96,1.51.01.1-.02.16-.05.21-.22.31-.96.49-1.29.52-.09,0-.18.02-.27.03-.83.1-1.4.37-1.68.81-.04.06-.07.12-.1.18-.27-.17-.46-.37-.56-.61-.22-.52.03-1.07.03-1.07Z"/>
      <polygon class="cls-13" points="47.46 88.07 47.46 88.07 47.46 88.07 47.46 88.07"/>
    </g>
    <g>
      <g>
        <path class="cls-11" d="M48.16,86.93c3.41-.47,3.29,1.76,3.29,1.76-.17,1.36-3.03,1.79-3.03,1.79-1.41-.65-1.53-2.02-1.53-2.02.11-1,1.27-1.53,1.27-1.53Z"/>
        <path class="cls-6" d="M46.47,88.41v.04s0,.04,0,.04c0,.07.16,1.62,1.78,2.37l.12.05.13-.02c.33-.05,3.19-.53,3.39-2.16v-.03s.04-.92-.68-1.58c-.66-.61-1.7-.82-3.1-.62h-.06s-.06.04-.06.04c-.06.03-1.38.65-1.51,1.87ZM47.32,88.46c.1-.61.77-1.01.96-1.11,1.08-.14,1.89,0,2.33.42.38.35.4.81.4.89-.12.73-1.68,1.22-2.54,1.38-.94-.5-1.13-1.38-1.16-1.57Z"/>
      </g>
      <path class="cls-6" d="M46.47,88.41v.09c0,.07.16,1.62,1.77,2.37l.12.05.13-.02c.33-.05,3.19-.53,3.39-2.16v-.03s.04-.92-.68-1.58c-.66-.61-1.7-.82-3.1-.62h-.06s-.06.04-.06.04c-.06.03-1.38.65-1.51,1.87ZM47.32,88.46c.1-.61.77-1.01.96-1.11,0,0,.02,0,.02,0,1.06-.13,1.85,0,2.3.41.39.35.41.81.41.9-.12.73-1.68,1.22-2.54,1.38-.94-.5-1.13-1.38-1.16-1.57Z"/>
    </g>
    <g>
      <path class="cls-15" d="M47.87,87.35c1.11-.39,2.08.08,2.08.08.9,1.35-1.25,1.16-1.25,1.16.21.68-.43,1.14-.43,1.14-.77.09-1.29-1.09-1.29-1.09-.31-.9.88-1.3.88-1.3Z"/>
      <path class="cls-6" d="M48.67,87.47c.03.19.06.37.1.56.04.18.09.37.15.54.07.17.15.35.3.48-.19-.06-.35-.21-.48-.36-.13-.15-.25-.32-.37-.49-.11-.17-.21-.34-.31-.52-.1-.18-.19-.35-.28-.55l.83-.21c.01.18.03.37.06.56Z"/>
    </g>
    <g>
      <path class="cls-15" d="M46.73,84.87c1.01-.92,2.07-.22,2.07-.22,1.08,1.21-1.16,1.14-1.16,1.14.31.65-.84,1.47-.84,1.47-.75.2-.67-.31-.67-.31-.43-.84.6-2.08.6-2.08Z"/>
      <path class="cls-6" d="M47.54,84.87c.05.18.11.36.18.54.07.18.14.35.23.52.09.16.2.32.36.43-.2-.04-.37-.16-.53-.29-.15-.13-.3-.28-.43-.43-.13-.15-.26-.31-.38-.47-.12-.16-.24-.32-.35-.5l.79-.33c.04.17.08.36.14.54Z"/>
    </g>
    <g>
      <path class="cls-15" d="M47.31,81.57c1.08,1.21-.88,1.72-.88,1.72.31.65-.84,1.47-.84,1.47-.56-.14-.57-.6-.57-.6-.43-.84.6-2.08.6-2.08,1.04-.55,1.69-.51,1.69-.51Z"/>
      <path class="cls-6" d="M46.23,82.17c.05.18.11.36.18.54.07.18.14.35.23.52.09.16.2.32.36.43-.2-.04-.37-.16-.53-.29-.15-.13-.3-.28-.43-.43-.13-.15-.26-.31-.38-.47-.12-.16-.24-.32-.35-.5l.79-.33c.04.17.08.36.14.54Z"/>
    </g>
    <g>
      <g>
        <path class="cls-11" d="M48.15,80.47l.77-.39c2.26-.62,3.42.64,3.42.64l-1.91,1.8c-.1,2.72-1.46,2.43-1.46,2.43-.85-.09-.97-1.35-.97-1.35-1.28-3,.15-3.13.15-3.13Z"/>
        <path class="cls-6" d="M48.01,80.06l.72-.37.08-.03c2.48-.69,3.79.7,3.85.76l-.63.58s-1.02-1.05-2.95-.53l-.8.41h-.08s-.11.04-.19.17c-.11.18-.29.78.39,2.37l.03.06v.07s.13.91.6.96h.03s.19.03.38-.13c.19-.16.53-.62.57-1.89l.86.03c-.05,1.25-.35,2.11-.92,2.55-.25.2-.5.27-.7.29-.15.02-.27,0-.33,0-.9-.1-1.25-1.06-1.33-1.66-.59-1.41-.7-2.45-.32-3.09.23-.39.58-.52.75-.56Z"/>
      </g>
      <path class="cls-15" d="M49.58,81.83c.6,2.62-.96,2.11-.96,2.11-.76-.95-.79-2.67-.79-2.67,1.72-.51,1.76.56,1.76.56Z"/>
    </g>
    <g>
      <g>
        <g>
          <g>
            <path class="cls-9" d="M33.02,37.95c1.15.29,2.99,3.13,2.99,3.13,5.09,9.04,14.25,36.2,14.25,36.2l-3.21,1.11-.15.05-3.21,1.11s-9.62-27-11.21-37.26c0,0-.31-3.37.41-4.31l.15-.05Z"/>
            <path class="cls-19" d="M32.52,37.74c-.78,1.02-.55,4.02-.49,4.61v.03c1.58,10.17,11.14,37.06,11.24,37.33l.14.4,7.38-2.56-.14-.4c-.09-.27-9.22-27.31-14.28-36.28v-.02c-.34-.5-2.01-3-3.25-3.32l-.13-.03-.4.14-.08.1ZM33.1,38.44c.74.39,1.91,1.91,2.54,2.86,4.68,8.31,12.91,32.31,14.07,35.72l-5.78,2c-1.2-3.39-9.58-27.34-11.05-36.76-.1-1.14-.12-3.06.22-3.82Z"/>
          </g>
          <path class="cls-7" d="M47.23,79.14c-4.32,2.54-3.48-2.55-3.48-2.55-10.7-29.58-10.73-38.1-10.73-38.1,7.01,11.32,14.2,40.66,14.2,40.66Z"/>
          <path class="cls-16" d="M33.18,38.48c0,.79.74,4.17.74,4.17,1.8,8.96,9.78,30.35,11.85,35.83l-1.87.65s-9.4-26.39-10.96-36.41c0,0-.57-3.2.13-4.12,0,0,.06-.13.11-.11Z"/>
          <path class="cls-16" d="M47.19,76.54c-2.48-7.55-8.83-24.09-8.83-24.09,5.73,8.51,8.95,20.29,8.95,20.29.76,3.32-.12,3.8-.12,3.8Z"/>
          <g>
            <path class="cls-19" d="M47.54,79.16c-.04-.14-.09-.28-.13-.41l.43-.11-.3.53Z"/>
            <path class="cls-19" d="M45.98,79.12l.38-.1c.04.12.09.25.13.37l-.51-.27Z"/>
            <path class="cls-19" d="M37.56,53.14c.92,2.94,1.89,5.87,2.86,8.79.99,2.92,1.97,5.84,2.99,8.74.97,2.79,1.95,5.57,2.96,8.34l-.38.1.51.27c-.04-.12-.09-.24-.13-.37l1.05-.28c.04.14.09.28.13.41l.3-.53-.43.11c-.79-2.61-1.69-5.19-2.59-7.78-.48-1.36-.96-2.72-1.46-4.07l-1.48-4.07-5.97-16.25c1.15,2.65,2.25,5.32,3.36,7.98,1.09,2.67,2.17,5.35,3.22,8.04,1.06,2.69,2.08,5.39,3.07,8.1,1,2.71,1.95,5.44,2.79,8.22l.13.41-.42.11-1.86.5-.38.1-.13-.37c-1.05-2.9-2.06-5.82-3.05-8.74-.98-2.93-1.95-5.85-2.86-8.8-.92-2.95-1.79-5.9-2.62-8.87-.4-1.49-.81-2.98-1.18-4.48-.19-.75-.39-1.49-.56-2.25l-.52-2.25c.43,1.48.85,2.96,1.29,4.44.43,1.48.9,2.95,1.36,4.42Z"/>
          </g>
        </g>
        <g>
          <path class="cls-9" d="M46.89,78.15c4.06-1.41,7.51-2.1,7.7-1.54.19.56-2.94,2.15-7,3.56-4.06,1.41-7.51,2.1-7.7,1.54-.19-.56,2.94-2.15,7-3.56Z"/>
          <path class="cls-19" d="M39.48,81.85c.1.29.35.48,1.05.48.42,0,1.01-.07,1.84-.24,1.47-.29,3.38-.84,5.36-1.52,1.98-.69,3.81-1.44,5.15-2.12,1.98-1,2.28-1.52,2.12-1.98-.16-.46-.71-.68-2.89-.25-1.47.29-3.38.84-5.36,1.52-1.98.69-3.81,1.44-5.15,2.12-1.98,1-2.28,1.52-2.12,1.98ZM40.54,81.48c.75-.58,3.04-1.73,6.49-2.92,3.45-1.19,5.96-1.71,6.91-1.72-.75.58-3.04,1.73-6.49,2.92-3.45,1.19-5.96,1.71-6.91,1.72Z"/>
        </g>
      </g>
      <path class="cls-7" d="M44.43,79.41c1.7-.62,3.13-.97,3.28-.54.15.43-1.2,1.02-2.91,1.61-2.26.78-3.89.75-3.89.75,0,0,.41-.68,3.51-1.82Z"/>
    </g>
  </g>
  <g>
    <g>
      <path class="cls-9" d="M66.39,61.63c.88,3.65-5.64,4.25-5.64,4.25-1.44-3.42-.38-7.26-.38-7.26,5.2-2.78,6.02,3.01,6.02,3.01Z"/>
      <path class="cls-19" d="M59.96,58.51c-.04.16-1.08,4.03.4,7.54l.12.29.31-.03c.17-.02,4.15-.41,5.59-2.42.49-.69.64-1.47.43-2.34-.04-.28-.48-2.8-2.37-3.76-1.17-.59-2.61-.44-4.28.45l-.16.09-.05.18ZM60.74,58.91c.81-.41,1.54-.62,2.18-.62.42,0,.8.09,1.14.26,1.55.78,1.91,3.11,1.91,3.14v.04c.16.63.06,1.18-.28,1.66-1.01,1.41-3.73,1.9-4.66,2.02-1.03-2.76-.46-5.76-.29-6.51Z"/>
    </g>
    <g>
      <path class="cls-12" d="M61.48,59.51l-.12-1.29s3.88-1.12,6.07-1.54c0,0,13.65-2.03,18.84,1.44,0,0-2.11,2.93-3.24,3.05,0,0,1.78,2.45.33,4.36,0,0-1.72,3.3-4.21,3.6,0,0-.36-.33-1.41-.95l-14.2,1.39s-1.58-.31-.28-1.33c0,0-3.55-2.73-1.39-5.58,0,0,.45-1.67-.39-3.15Z"/>
      <path class="cls-13" d="M62.63,68.26c-.26.3-.35.6-.28.89.15.62.96.81,1.12.84h.06s14.12-1.37,14.12-1.37c.89.53,1.22.82,1.23.83l.14.13.19-.02c2.57-.31,4.32-3.42,4.52-3.79,1.2-1.62.42-3.5-.06-4.37,1.19-.64,2.63-2.58,2.95-3.02l.26-.36-.37-.25c-5.27-3.52-18.58-1.59-19.15-1.51-2.2.43-5.97,1.51-6.13,1.56l-.34.1.16,1.73.05.08c.66,1.16.44,2.44.37,2.76-1.65,2.27-.14,4.6,1.15,5.78ZM62.22,62.92l.05-.07.02-.08c.02-.07.47-1.79-.39-3.4l-.08-.84c.99-.28,3.93-1.1,5.69-1.44.11-.02,12.88-1.87,18.14,1.14-.85,1.11-2.08,2.45-2.66,2.5l-.74.07.44.6s1.57,2.22.34,3.85l-.04.06s-1.57,2.95-3.71,3.34c-.21-.16-.62-.45-1.32-.87l-.12-.07-14.27,1.4c-.16-.04-.34-.12-.39-.18.01-.04.08-.17.35-.37l.43-.34-.44-.34c-.13-.1-3.18-2.51-1.31-4.98Z"/>
    </g>
    <path class="cls-2" d="M78.72,57.34c-.85,2.29.22,4.11.22,4.11,2.33,2.85.82,3.54.82,3.54-.69.72-1.83.73-1.83.73l-.95-.16c-5.74-1.44-11.93,0-11.93,0-.56.17-2.23,1.17-2.23,1.17-.51-.69-.6-1.12-.6-1.12.1-1.31.96-2.72.96-2.72,1-1.48-1.06-3.99-1.06-3.99,5.82-3.41,16.59-1.56,16.59-1.56Z"/>
    <path class="cls-16" d="M62.18,58.91c1.87,1.47,1.07,3.67,1.07,3.67-.99,1.97.28,4.41.28,4.41l-.91.2c-1.82-2.79-.6-3.93-.6-3.93,1.21-2.5-.4-4.24-.4-4.24l.57-.11Z"/>
    <path class="cls-13" d="M62.64,61.98c.29-.19.62-.35.98-.41.36-.07.75-.07,1.11.05.36.12.7.36.84.72-.36-.08-.65-.07-.94-.05-.28.02-.56.07-.84.13-.28.05-.57.13-.88.19-.15.04-.31.07-.48.1-.16.03-.33.06-.52.06.09-.16.2-.3.32-.43.12-.13.26-.23.4-.34Z"/>
    <g>
      <g>
        <path class="cls-4" d="M69.35,59.39c.91-.01,1.26-.25,1.41-.55,1.64-3.24,2.05-3.62,3.41-3.66,2.67-.08,4.85,1.77,4.85,1.77.46,1.88-2.17.95-2.17.95-2.61-1.24-4.42,1.86-4.42,1.86-.35,1.03-2.17.95-2.17.95-1.93-.57-1.3-1.31-.9-1.31Z"/>
        <path class="cls-13" d="M68.51,59.69c-.06.42.18,1,1.63,1.43h.05s.05.02.05.02c.01,0,.05,0,.11,0,.45,0,2.05-.08,2.47-1.19.2-.32,1.73-2.66,3.85-1.66l.04.02c.28.1,1.73.57,2.44-.08.23-.21.47-.62.29-1.38l-.03-.13-.11-.09c-.09-.08-2.34-1.96-5.14-1.87-1.67.05-2.21.78-3.78,3.89-.1.21-.45.31-1.03.32-.36,0-.78.28-.84.72ZM69.39,59.82c.6,0,1.41-.11,1.76-.79,1.65-3.26,1.96-3.39,3.04-3.42,2.14-.07,3.98,1.23,4.45,1.58.02.15.03.32-.06.4-.24.22-1.05.09-1.56-.09-.48-.23-.95-.32-1.39-.32-1.69,0-3.02,1.42-3.57,2.36l-.04.08c-.19.57-1.27.67-1.7.66-.64-.19-.86-.38-.94-.46Z"/>
      </g>
      <path class="cls-5" d="M71.16,58.76c.95-2.29,1.23-2.94,2.15-3.03,1.8-.19,3.38.96,3.38.96.87,1.09-.82.49-.82.49-2.17-.34-3.51,1.75-3.51,1.75-.26,1.26-1.25,1.17-1.25,1.17-1.31.26-1.75-.48-1.48-.5.62-.05,1.45-.63,1.53-.84Z"/>
      <path class="cls-1" d="M70.61,59.32c-.26.47.24.39.24.39.64-.12,1.05-.41,1.05-.41.63.05-.17.74-.17.74-1.52.77-2.21-.13-2.21-.13,0-.67,1.09-.58,1.09-.58Z"/>
    </g>
    <g>
      <g>
        <path class="cls-12" d="M66.19,58.25s.25.28.48.73l-.48-.73Z"/>
        <path class="cls-12" d="M66.67,61.59c.59-.98.32-1.96,0-2.6l3.49,5.38c2-.53,3.25,1.17,3.25,1.17,1.02,1.84-1.15,2.19-1.15,2.19-1.52-.38-2.24.27-2.24.27-1.53,1.26-3.3.92-3.3.92-2-.63-1.32-3.75-1.32-3.75.22-1.68,1.27-3.58,1.27-3.58Z"/>
        <g>
          <path class="cls-13" d="M64.94,65.07s0,.01,0,.02c0,0,0,.01,0,.02v-.04Z"/>
          <path class="cls-13" d="M65.5,63.24c.24-.59.53-1.15.85-1.7l.07-.11.06-.09c.04-.06.07-.12.1-.18.06-.12.11-.25.15-.38.08-.27.1-.55.07-.84-.05-.58-.28-1.17-.62-1.69.45.43.79.99.96,1.63.08.32.1.66.06,1-.02.17-.06.34-.12.5-.03.08-.06.16-.1.24l-.06.11-.04.1c-.25.55-.46,1.12-.65,1.69-.19.57-.32,1.15-.38,1.72v.04c-.06.31-.08.66-.07.99,0,.33.04.66.11.96.07.3.19.57.36.77.08.1.18.19.28.26.1.06.21.11.32.15-.01,0-.03,0-.03,0l.06.02s-.02,0-.03-.01c.07,0,.17.02.25.02.11,0,.21,0,.32,0,.21,0,.43-.03.64-.07.42-.08.83-.23,1.2-.45.09-.05.18-.11.27-.17.05-.03.08-.06.12-.09l.03-.02.06-.05s.07-.05.11-.07c.28-.17.56-.26.85-.31.54-.09,1.07-.04,1.56.09-.03,0-.06.01-.09.02h.17s-.06,0-.08-.02c.07-.01.14-.03.21-.05.1-.03.2-.07.29-.11.19-.09.34-.2.43-.34.09-.14.14-.29.12-.49-.01-.19-.08-.4-.18-.6,0,0,.01.01.02.02l-.02-.03s0,0,0,.01c-.14-.2-.34-.42-.55-.6-.22-.19-.46-.35-.72-.47-.26-.13-.54-.22-.83-.26-.29-.04-.6-.04-.9,0,.29-.11.59-.18.91-.19.32-.01.64.03.95.12.31.1.6.24.88.41.28.18.52.38.75.65h0s.02.03.02.03c.15.23.27.5.33.81.06.3.03.68-.15.97-.17.3-.43.51-.69.66-.13.08-.27.14-.4.19-.14.05-.26.1-.43.13h-.06s-.11,0-.11,0c-.43-.08-.87-.11-1.25-.01-.19.04-.37.12-.51.21-.02.01-.03.02-.04.03h-.01s-.04.04-.04.04c-.06.04-.11.09-.17.13-.11.08-.22.16-.34.23-.47.29-.98.5-1.52.61-.27.06-.54.09-.81.1-.14,0-.27,0-.41,0-.14,0-.26-.02-.44-.05h-.03s-.03-.02-.03-.02c-.22-.07-.43-.17-.63-.31-.19-.14-.37-.3-.51-.48-.28-.37-.44-.79-.53-1.19-.09-.41-.11-.81-.1-1.2.01-.39.06-.76.15-1.15.11-.65.32-1.26.56-1.85Z"/>
        </g>
        <path class="cls-13" d="M72.36,67.3h-.17s.06-.02.09-.02c.03,0,.06.01.08.02Z"/>
        <path class="cls-13" d="M66.88,68.41l-.06-.02s.02,0,.03,0c0,0,.02,0,.03.01Z"/>
        <path class="cls-13" d="M73.15,65.68s0,0,0-.01l.02.03s-.01-.01-.02-.02Z"/>
      </g>
      <path class="cls-2" d="M67.52,59.82c1.47,1.7,2.66,4.41,2.66,4.41l1.07.33c1.35-.1,1.91,1.23,1.91,1.23.06,1.03-.97.45-.97.45-1.15-.8-2.7.1-2.7.1-1.34.56-1.55.82-1.55.82-1.46-1.53-.73-3.51-.73-3.51,1.02-2.6.31-3.82.31-3.82Z"/>
      <g>
        <path class="cls-1" d="M67.01,59.18s-.02-.03-.04-.05c0,0,.01.02.04.05Z"/>
        <path class="cls-1" d="M67.01,59.18c1.25,1.4.51,3.54.51,3.54-1.29,3.23.41,4.22.41,4.22-.87.72-1.76.59-1.76.59-1.21-2.72.47-5.26.47-5.26.89-2.07.5-2.9.37-3.09Z"/>
      </g>
    </g>
    <g>
      <g>
        <path class="cls-4" d="M63.3,57.17s.7.82,1.26,1.37c0,0,.45.53.98.54.23,0,.49-.38.92-.09,0,0,.5,1.6-1.44,1.52,0,0-1.02-.17-1.33-.64,0,0-.52-.8-1.87-.76,0,0-1.87.42-1.36-.95,0,0,.76-2.48,2.85-1Z"/>
        <path class="cls-13" d="M60.05,58.03c-.23.62-.06.99.11,1.19.46.53,1.42.38,1.7.32,1.04-.02,1.45.54,1.46.57.4.59,1.42.79,1.62.82h.05c.05,0,.11,0,.16,0,.69,0,1.19-.2,1.49-.6.47-.61.24-1.39.21-1.48l-.05-.15-.13-.08c-.5-.33-.91-.12-1.11-.01-.02.01-.05.02-.07.03-.27-.03-.56-.31-.63-.39l-.02-.03c-.53-.54-1.23-1.34-1.23-1.35l-.03-.04-.04-.03c-.73-.52-1.42-.67-2.04-.46-1,.34-1.41,1.52-1.46,1.67ZM60.85,58.32v-.02c.09-.25.41-.95.93-1.12.34-.11.75,0,1.23.32.15.17.74.85,1.23,1.34.1.12.62.66,1.28.68.18,0,.33-.07.45-.13.05-.03.08-.04.11-.05.01.15,0,.35-.11.5-.18.23-.59.27-.91.26-.34-.06-.88-.24-1.03-.45-.02-.04-.67-1-2.24-.94h-.08c-.37.09-.82.07-.91-.03-.02-.02-.04-.11.05-.34Z"/>
      </g>
      <path class="cls-5" d="M62.69,57.3s.36.04.81.68c0,0,.55.62,1.1,1.26,0,0,.59.36-.54.43,0,0-1.05-.36-1.25-.68,0,0-.31-.29-1.09-.17,0,0-.87.18-.63-.85,0,0,.64-1.25,1.6-.66Z"/>
      <path class="cls-1" d="M61.75,57.11c.2-.27,1.26.37,1.26.37-1.69-.43-1.32,1.19-1.32,1.19-.56.5-.93-.13-.93-.13.14-1.55.99-1.44.99-1.44Z"/>
    </g>
    <g>
      <path class="cls-9" d="M87.37,46.18c2.96,8.23,3.37,13.39,3.37,13.39-17.58-4.32-30.73-.47-30.73-.47.64-9.1,2.3-11.02,2.3-11.02,11.74-7.42,25.06-1.9,25.06-1.9Z"/>
      <path class="cls-19" d="M59.57,59.07l-.04.61.59-.17c.13-.04,13.26-3.76,30.51.48l.57.14-.05-.59c-.02-.21-.44-5.31-3.39-13.5l-.06-.18-.17-.07c-.14-.06-3.45-1.41-8.25-1.87-4.44-.42-11.04-.1-17.2,3.8l-.05.03-.04.05c-.07.08-1.77,2.13-2.41,11.27ZM60.47,58.54c.59-7.57,1.91-9.81,2.13-10.14,10.69-6.71,22.84-2.49,24.43-1.89,2.29,6.42,3.01,10.95,3.21,12.5-15.13-3.58-27.04-1.14-29.77-.48Z"/>
    </g>
    <path class="cls-7" d="M73.06,48.91c5.61,2.71,5.11,8.14,5.11,8.14-8.32-1.14-17.34.75-17.34.75,1.6-6.77,2.02-7.47,2.02-7.47,5.83-4.4,10.22-1.42,10.22-1.42Z"/>
    <path class="cls-16" d="M72.09,46.98c-4.57,1-7.84,3.82-7.84,3.82-1.38,4.28-1.3,5.41-1.3,5.41,9.97-1.34,14.39.72,14.39.72-13.19.12-16.89,1.34-16.89,1.34.67-5.57,1.33-7.81,1.33-7.81,3.49-2.76,10.31-3.48,10.31-3.48Z"/>
    <path class="cls-7" d="M86.72,49.1s1.19,1.47-1.53,2.03c0,0,1.29.45,2.87,6.8,0,0-2.14-.57-3.21-.58,0,0-4.14-6.22-3.16-10.23,0,0,2.77-.11,5.03,1.98Z"/>
    <path class="cls-16" d="M84.12,47.91c1.07,3.21,1.39,7.79,1.39,7.79-3.76-6.44-2.87-8.74-2.87-8.74l1.47.95Z"/>
    <g>
      <path class="cls-19" d="M84.28,46.92c.15.53.29,1.06.42,1.59.27,1.06.51,2.13.73,3.2.23,1.07.43,2.14.63,3.22l.28,1.61.26,1.62-.37-1.59-.39-1.59c-.27-1.06-.54-2.11-.83-3.16-.29-1.05-.6-2.09-.93-3.13-.17-.52-.34-1.03-.52-1.54-.18-.51-.37-1.02-.57-1.5l.79-.32c.19.54.34,1.06.49,1.59Z"/>
      <path class="cls-19" d="M66.87,47.66l.82.25c-.1.31-.19.68-.26,1.03-.07.36-.13.72-.18,1.08-.1.73-.16,1.47-.2,2.21-.04.74-.04,1.48-.04,2.23,0,.37.02.74.03,1.12l.07,1.12-.17-1.11c-.05-.37-.1-.74-.14-1.11-.08-.74-.15-1.49-.18-2.24-.03-.75-.04-1.5-.01-2.26.02-.38.04-.76.08-1.14.04-.39.09-.75.18-1.16Z"/>
    </g>
    <g>
      <g>
        <path class="cls-9" d="M82.81,48.77c.24-.05.52.27.6.71.09.44-.04.84-.28.89-.24.05-.52-.27-.6-.71-.09-.44.04-.84.28-.89Z"/>
        <path class="cls-19" d="M82.1,49.74c.13.63.53,1.05.97,1.05.05,0,.09,0,.14-.01h0c.49-.1.76-.7.62-1.39-.14-.69-.62-1.14-1.11-1.04-.49.1-.76.7-.62,1.39ZM82.92,49.35c.03.06.05.13.07.21.02.08.02.16.02.22-.03-.06-.05-.13-.07-.21-.02-.08-.02-.16-.02-.22Z"/>
      </g>
      <path class="cls-7" d="M83.26,49.69c.05.26-.02.49-.17.52-.14.03-.3-.16-.36-.41-.05-.26.02-.49.17-.52.14-.03.3.16.36.41Z"/>
      <path class="cls-16" d="M83.17,49.86c.04.18-.01.34-.11.36-.1.02-.21-.11-.25-.29-.04-.18.02-.34.11-.36.1-.02.21.11.25.29Z"/>
    </g>
    <g>
      <g>
        <path class="cls-9" d="M83.54,52.99c.24-.05.52.27.6.71.09.44-.04.84-.28.89-.24.05-.52-.27-.6-.71-.09-.44.04-.84.28-.89Z"/>
        <path class="cls-19" d="M82.87,53.16c-.08.24-.09.52-.03.8.13.63.53,1.05.97,1.05.05,0,.09,0,.14-.01h0c.49-.1.76-.7.62-1.39-.14-.69-.62-1.14-1.11-1.04-.27.06-.49.27-.59.59ZM83.66,53.57c.03.06.05.13.07.21.02.08.02.16.02.22-.03-.06-.05-.13-.07-.21-.02-.08-.02-.16-.02-.22Z"/>
      </g>
      <path class="cls-7" d="M84,53.91c.05.26-.02.49-.17.52-.14.03-.3-.16-.36-.41-.05-.26.02-.49.17-.52.14-.03.3.16.36.41Z"/>
      <path class="cls-16" d="M83.91,54.08c.04.18-.01.34-.11.36-.1.02-.21-.11-.25-.29-.04-.18.01-.34.11-.36s.21.11.25.29Z"/>
    </g>
    <g>
      <g>
        <path class="cls-9" d="M61.79,47.39c4-2.9,8.29-3.19,8.29-3.19,10.38-1.94,17.71,2.07,17.71,2.07,1.03,2.34.51,2.64.51,2.64-6.07-2.96-13.78-2.55-13.78-2.55-6.27,0-12.96,3.54-12.96,3.54-.4-.07-.38-.29-.44-.54-.08-.37.08-.87.27-1.26.19-.4.39-.7.39-.7Z"/>
        <path class="cls-19" d="M61.01,47.91c-.29.62-.39,1.13-.3,1.54,0,.03.01.06.02.08.04.22.12.67.76.79l.15.03.13-.07c.07-.03,6.67-3.49,12.76-3.49h.02c.08,0,7.67-.37,13.57,2.51l.2.1.2-.11c.39-.22.65-.96-.34-3.18l-.06-.13-.13-.07c-.3-.17-7.57-4.06-17.97-2.12-.4.03-4.55.42-8.48,3.27l-.06.04-.04.06s-.23.34-.43.76ZM61.54,49.26c-.05-.21.04-.57.24-.99.12-.26.26-.48.32-.58,3.84-2.76,7.96-3.06,8-3.07h.05c9.38-1.76,16.3,1.45,17.3,1.95.38.88.5,1.41.54,1.71-5.95-2.69-13.04-2.38-13.48-2.36-5.75,0-11.73,2.87-12.94,3.48,0-.01,0-.02,0-.03,0-.04-.01-.08-.02-.12Z"/>
      </g>
      <path class="cls-7" d="M77.85,44.26c-10.55,1.11-14.19,4.11-14.19,4.11-1.13.3.3-1.73.3-1.73,7.05-3.25,13.89-2.38,13.89-2.38Z"/>
      <path class="cls-16" d="M67.03,45.76c-1.63,1.45-4.73,3.32-4.73,3.32-.74.82-.81-.36-.81-.36.8-2.73,5.54-2.96,5.54-2.96Z"/>
      <g>
        <g>
          <path class="cls-9" d="M64.37,46.51c.22,0,.39.32.37.71-.02.38-.21.69-.44.68-.22,0-.39-.32-.37-.71.02-.38.21-.69.44-.68Z"/>
          <path class="cls-19" d="M64.39,46.08c.19,0,.36.09.5.24.2.22.3.55.29.92-.03.63-.4,1.09-.86,1.09,0,0-.02,0-.02,0-.19,0-.36-.09-.5-.24-.2-.22-.3-.55-.29-.92.03-.64.41-1.1.88-1.09Z"/>
        </g>
        <path class="cls-7" d="M64.35,46.95c.13,0,.23.19.22.42-.01.23-.13.4-.26.4-.13,0-.23-.19-.22-.42.01-.22.13-.4.26-.4Z"/>
        <path class="cls-16" d="M64.3,47.2c.09,0,.16.13.15.29,0,.16-.09.28-.18.28-.09,0-.16-.13-.15-.29,0-.16.09-.28.18-.28Z"/>
      </g>
      <g>
        <g>
          <path class="cls-9" d="M79.93,44.52c.26-.03.51.3.57.75.05.45-.11.83-.37.86-.26.03-.51-.3-.57-.75-.05-.45.11-.83.37-.86Z"/>
          <path class="cls-19" d="M79.13,45.43c.03.29.14.56.29.76.18.24.42.37.67.37.03,0,.06,0,.08,0h0c.51-.06.83-.64.75-1.34-.03-.29-.14-.56-.29-.76-.2-.26-.47-.4-.75-.36-.51.06-.83.64-.75,1.34ZM79.98,45.33c-.01-.12,0-.22.01-.29.03.06.06.16.08.27.01.12,0,.22-.01.29-.03-.06-.06-.16-.08-.27Z"/>
        </g>
        <path class="cls-7" d="M79.99,45.03c.15-.02.3.18.33.44.03.26-.07.49-.22.51-.15.02-.3-.18-.33-.44-.03-.26.07-.49.22-.51Z"/>
        <path class="cls-16" d="M79.98,45.33c.11-.01.21.12.23.3.02.18-.05.34-.15.35-.11.01-.21-.12-.23-.3s.05-.34.15-.35Z"/>
      </g>
      <g>
        <g>
          <path class="cls-9" d="M85.2,45.81c.26-.05.54.26.64.7.1.44-.03.84-.29.89-.26.05-.54-.26-.64-.7-.1-.44.03-.84.29-.89Z"/>
          <path class="cls-19" d="M84.63,45.73c-.17.27-.22.66-.14,1.06.14.62.55,1.04.99,1.04.05,0,.1,0,.15-.02.19-.04.36-.16.48-.34.18-.27.23-.66.14-1.06-.15-.69-.64-1.13-1.14-1.02-.19.04-.36.16-.48.34ZM85.31,46.33c.04.06.08.15.11.27.03.11.03.21.02.28-.04-.06-.08-.15-.11-.27-.03-.11-.03-.21-.02-.28Z"/>
        </g>
        <path class="cls-7" d="M85.68,46.72c.06.26-.02.49-.17.52-.15.03-.32-.15-.37-.41s.02-.49.17-.52c.15-.03.32.15.37.41Z"/>
        <path class="cls-16" d="M85.59,46.9c.04.18-.01.34-.12.36-.1.02-.22-.1-.26-.28-.04-.18.01-.34.12-.36.1-.02.22.1.26.28Z"/>
      </g>
      <g>
        <g>
          <path class="cls-9" d="M69.87,44.69c.26-.01.48.34.5.79.01.45-.19.82-.45.83-.26.01-.49-.34-.5-.79-.02-.45.18-.82.45-.83Z"/>
          <path class="cls-19" d="M69,45.53c.01.4.16.77.39.99.15.14.33.22.52.22,0,0,.02,0,.03,0h0c.51-.02.88-.57.86-1.27-.01-.41-.16-.77-.4-.99-.16-.15-.35-.22-.55-.21-.51.02-.88.57-.86,1.27ZM69.86,45.5c0-.12.01-.22.04-.29.03.07.05.16.05.28,0,.12-.01.22-.04.29-.03-.07-.05-.16-.05-.28Z"/>
        </g>
        <path class="cls-7" d="M69.88,45.2c.15,0,.28.2.29.47,0,.26-.11.48-.26.49-.15,0-.28-.2-.29-.47,0-.26.11-.48.26-.49Z"/>
        <path class="cls-16" d="M69.85,45.5c.11,0,.2.14.2.32,0,.18-.07.33-.18.34-.11,0-.2-.14-.2-.32,0-.18.08-.33.18-.34Z"/>
      </g>
    </g>
    <g>
      <g>
        <path class="cls-9" d="M63.28,51.22c.25.01.44.38.41.83-.02.45-.24.8-.49.79-.25-.01-.44-.38-.41-.83.02-.45.24-.8.49-.79Z"/>
        <path class="cls-19" d="M62.36,51.99c-.03.71.32,1.26.82,1.28h0s.02,0,.03,0c.49,0,.87-.51.9-1.2.03-.71-.32-1.26-.82-1.28-.5-.02-.9.49-.94,1.2ZM63.22,52.03c0-.09.02-.16.03-.22.01.06.02.13.01.22,0,.09-.02.16-.03.22-.01-.06-.02-.13-.01-.22Z"/>
      </g>
      <path class="cls-7" d="M63.25,51.74c.15,0,.26.23.24.49-.01.26-.14.47-.29.46-.15,0-.26-.23-.24-.49.01-.26.14-.47.29-.46Z"/>
      <path class="cls-16" d="M63.2,52.03c.1,0,.18.16.17.34s-.1.33-.2.32c-.1,0-.18-.16-.17-.34,0-.18.1-.33.2-.32Z"/>
    </g>
    <g>
      <g>
        <path class="cls-9" d="M62.67,54.96c.25.01.44.38.41.83-.02.45-.24.8-.49.79-.25-.01-.44-.38-.41-.83.02-.45.24-.8.49-.79Z"/>
        <path class="cls-19" d="M61.97,54.96c-.13.21-.21.48-.22.77-.03.71.32,1.26.82,1.28h0s.02,0,.03,0c.49,0,.87-.51.91-1.2.01-.29-.04-.57-.15-.79-.15-.3-.39-.48-.67-.49-.28-.01-.54.14-.71.42ZM62.6,55.77c0-.09.02-.16.03-.22.01.06.02.13.01.22,0,.09-.02.16-.03.22-.01-.06-.02-.13-.01-.22Z"/>
      </g>
      <path class="cls-7" d="M62.64,55.48c.15,0,.26.23.24.49-.01.26-.14.47-.29.46-.15,0-.26-.23-.24-.49.01-.26.14-.47.29-.46Z"/>
      <path class="cls-16" d="M62.58,55.77c.1,0,.18.16.17.34,0,.18-.1.33-.2.32-.1,0-.18-.16-.17-.34,0-.18.1-.33.2-.32Z"/>
    </g>
    <g>
      <g>
        <path class="cls-9" d="M65.06,57.83s.57-2.52,2-3.12c0,0,1.76.75,2.02,3.06,0,0,.18,2.94.09,5.45,6.32-.47,12.2-.52,12.2-.52-.7-5.22-1.62-7.23-1.62-7.23,6.8.37,11.83,2.1,11.83,2.1.74.81.59-.07.71.59,1.72,9.12,1.07,15.61,1.07,15.61-2.54.38-3.75,1.05-3.75,1.05-7.48,7.18-20.33,9.67-20.33,9.67-2.86-.55-3.68-1.68-3.68-1.68-3.88-8.6-5.23-17.63-5.23-17.63,1.97-.68,3.58-1.11,4.83-1.39l-.15-5.96Z"/>
        <path class="cls-19" d="M60.24,64.78l-.34.12.05.35c.01.09,1.4,9.19,5.26,17.75l.04.08c.04.05.96,1.27,3.94,1.85l.08.02.08-.02c.13-.03,13.01-2.59,20.5-9.74.23-.12,1.4-.66,3.56-.98l.33-.05.03-.33c0-.07.63-6.65-1.08-15.73-.05-.29-.09-.48-.32-.58-.06-.03-.17-.06-.29-.02-.04-.03-.11-.09-.21-.2l-.07-.08-.1-.04c-.05-.02-5.16-1.76-11.94-2.12l-.71-.04.3.64s.85,1.91,1.52,6.63c-1.49.02-6.22.12-11.27.48.06-2.38-.1-4.99-.1-5.02-.28-2.54-2.19-3.39-2.28-3.42l-.17-.07-.17.07c-1.62.67-2.23,3.3-2.26,3.42v.05s.13,5.67.13,5.67c-1.41.33-2.93.78-4.53,1.33ZM60.86,65.47c1.58-.53,3.07-.96,4.44-1.27l.34-.08-.15-6.26c.15-.64.69-2.16,1.57-2.68.4.24,1.42.99,1.6,2.62,0,0,.18,2.93.09,5.39l-.02.48.48-.04c6.23-.46,12.11-.52,12.17-.52h.49s-.06-.49-.06-.49c-.49-3.65-1.08-5.74-1.41-6.7,5.83.4,10.25,1.77,10.95,2.01.13.14.32.32.55.39,1.45,7.77,1.17,13.65,1.08,15.07-2.36.39-3.5,1.02-3.55,1.05l-.05.03-.04.04c-7,6.72-18.94,9.31-20.04,9.54-2.31-.46-3.16-1.31-3.31-1.47-3.37-7.48-4.82-15.38-5.11-17.12Z"/>
      </g>
      <path class="cls-7" d="M68.62,57.85v6.3c9.27-.65,13.97-.53,13.97-.53-1-6.13-1.67-7.68-1.67-7.68,2.07.05,2.84,1.19,2.84,1.19,2.38,14.12,1.37,19.33,1.37,19.33-4.12,4.32-16.44,7.21-16.44,7.21-2.04-13.6-2.03-17.86-2.03-17.86-.19-6.23.11-10.49.11-10.49,1.36-.1,1.86,2.53,1.86,2.53Z"/>
      <path class="cls-7" d="M65.8,60.52c-.59-3.43,1.04-4.57,1.04-4.57-.18,4.01.07,10.25.07,10.25.19,2.22-1.5,2.99-1.5,2.99-1.86,2.8.42,5.12.42,5.12,2.64,3.36.15,7.42.15,7.42-3.89-9.6-4.81-15.9-4.81-15.9,3.12-1.46,4.78-1.44,4.78-1.44l-.15-3.88Z"/>
      <g>
        <g>
          <path class="cls-9" d="M66.9,55.9c.25-.01.47.34.49.79.02.45-.17.82-.42.83-.25.01-.47-.34-.49-.79-.02-.45.17-.82.42-.83Z"/>
          <path class="cls-19" d="M66.05,56.75c.01.29.09.56.22.77.17.27.42.43.68.43.01,0,.02,0,.03,0,.28-.01.52-.19.67-.49.11-.22.17-.5.15-.79-.03-.71-.43-1.22-.93-1.2-.5.02-.86.57-.83,1.28ZM66.91,56.71c0-.09,0-.16.02-.22.02.06.03.13.03.22,0,.09,0,.16-.02.22-.02-.06-.03-.13-.03-.22Z"/>
        </g>
        <path class="cls-7" d="M66.92,56.41c.15,0,.28.2.29.46s-.1.48-.24.49c-.15,0-.28-.2-.29-.46-.01-.26.1-.48.24-.49Z"/>
        <path class="cls-16" d="M66.89,56.71c.1,0,.19.14.2.32,0,.18-.07.33-.17.34-.1,0-.19-.14-.2-.32,0-.18.07-.33.17-.34Z"/>
      </g>
      <g>
        <g>
          <path class="cls-9" d="M82.8,56.57c.24-.06.52.25.62.69.1.44-.02.84-.26.89-.24.06-.52-.25-.62-.69-.1-.44.02-.84.26-.89Z"/>
          <path class="cls-19" d="M82.12,57.56c.09.4.31.74.58.91.13.08.27.12.41.12.05,0,.1,0,.15-.02.27-.06.48-.28.57-.6.07-.24.07-.52,0-.8-.16-.69-.65-1.13-1.14-1.01-.49.11-.74.72-.58,1.41ZM82.93,57.15c.03.06.05.12.07.21.02.08.03.16.02.22-.03-.06-.05-.12-.07-.21-.02-.08-.03-.16-.02-.22Z"/>
        </g>
        <path class="cls-7" d="M83.27,57.48c.06.26,0,.49-.15.52s-.31-.15-.37-.41c-.06-.26,0-.49.15-.52.14-.03.31.15.37.41Z"/>
        <path class="cls-16" d="M83.19,57.65c.04.18,0,.34-.11.36-.1.02-.21-.1-.25-.28-.04-.18,0-.34.11-.36.1-.02.21.1.25.28Z"/>
      </g>
      <path class="cls-16" d="M80.01,55.87l.92.06c1.33,2.8,2.14,8.05,2.14,8.05-8.05.2-14.08.67-14.08.67l-.33-.91c3.9-.35,13.21-.47,13.21-.47-.97-6.77-1.86-7.41-1.86-7.41Z"/>
      <g>
        <g>
          <path class="cls-9" d="M86.78,57.37c.24-.06.52.25.62.69.1.44-.02.84-.26.89-.24.06-.52-.25-.62-.69-.1-.44.02-.84.26-.89Z"/>
          <path class="cls-19" d="M86.1,58.36c.09.4.31.74.58.91.13.08.27.12.41.12.05,0,.1,0,.15-.02.49-.11.74-.72.58-1.41-.06-.28-.19-.54-.36-.72-.22-.25-.51-.35-.78-.29-.49.11-.74.72-.58,1.41ZM86.91,57.95c.03.06.05.12.07.21.02.08.03.16.02.22-.03-.06-.05-.12-.07-.21-.02-.08-.03-.16-.03-.22Z"/>
        </g>
        <path class="cls-7" d="M87.25,58.29c.06.26,0,.49-.15.52-.14.03-.31-.15-.37-.41-.06-.26,0-.49.15-.52s.31.15.37.41Z"/>
        <path class="cls-16" d="M87.17,58.46c.04.18,0,.34-.11.36-.1.02-.21-.1-.25-.28-.04-.18,0-.34.11-.36.1-.02.21.1.25.28Z"/>
      </g>
      <g>
        <g>
          <path class="cls-9" d="M87.57,62.67c.25-.02.47.34.5.78.03.45-.15.82-.4.84-.25.02-.47-.34-.5-.78-.03-.45.15-.82.4-.84Z"/>
          <path class="cls-19" d="M86.88,62.74c-.11.22-.16.5-.14.79.04.69.43,1.19.91,1.19.01,0,.03,0,.04,0h0c.5-.03.85-.59.8-1.29-.02-.29-.1-.56-.23-.77-.18-.28-.44-.43-.72-.41-.28.02-.52.2-.66.5ZM87.59,63.48c0-.09,0-.16.01-.22.02.06.03.13.04.22,0,.09,0,.16-.01.22-.02-.06-.03-.13-.04-.22Z"/>
        </g>
        <path class="cls-7" d="M87.59,63.18c.15,0,.28.2.29.46.02.26-.09.48-.24.49-.15,0-.28-.2-.29-.46-.02-.26.09-.48.24-.49Z"/>
        <path class="cls-16" d="M87.57,63.48c.1,0,.19.14.2.32.01.18-.06.33-.16.34-.1,0-.19-.14-.2-.32-.01-.18.06-.33.16-.34Z"/>
      </g>
      <g>
        <g>
          <path class="cls-9" d="M87.91,67.15c.25-.02.47.34.5.78.03.45-.15.82-.4.84-.25.02-.47-.34-.5-.78-.03-.45.15-.82.4-.84Z"/>
          <path class="cls-19" d="M87.22,67.22c-.11.22-.16.5-.14.79.04.69.43,1.19.91,1.19.01,0,.03,0,.04,0h0c.5-.03.85-.59.8-1.29-.02-.29-.1-.56-.23-.77-.18-.28-.44-.43-.72-.41-.28.02-.52.2-.66.5ZM87.93,67.96c0-.09,0-.16.01-.22.02.06.03.13.04.22,0,.09,0,.16-.01.22-.02-.06-.03-.13-.04-.22Z"/>
        </g>
        <path class="cls-7" d="M87.93,67.67c.15,0,.28.2.29.46.02.26-.09.48-.24.49-.15,0-.28-.2-.29-.46-.02-.26.09-.48.24-.49Z"/>
        <path class="cls-16" d="M87.91,67.97c.1,0,.19.14.2.32.01.18-.06.33-.16.34-.1,0-.19-.14-.2-.32-.01-.18.06-.33.16-.34Z"/>
      </g>
      <g>
        <g>
          <path class="cls-9" d="M88.22,71.43c.25-.02.47.34.5.78.03.45-.15.82-.4.84-.25.02-.47-.34-.5-.78-.03-.45.15-.82.4-.84Z"/>
          <path class="cls-19" d="M87.53,71.5c-.11.22-.16.5-.14.79.04.69.43,1.19.91,1.19.01,0,.03,0,.04,0h0c.5-.03.85-.59.8-1.29-.02-.29-.1-.56-.23-.77-.18-.28-.44-.43-.72-.41-.28.02-.52.2-.66.5ZM88.24,72.24c0-.09,0-.16.01-.22.02.06.03.13.04.22,0,.09,0,.16-.01.22-.02-.06-.03-.13-.04-.22Z"/>
        </g>
        <path class="cls-7" d="M88.24,71.94c.15,0,.28.2.29.46.02.26-.09.48-.24.49-.15,0-.28-.2-.29-.46-.02-.26.09-.48.24-.49Z"/>
        <path class="cls-16" d="M88.22,72.24c.1,0,.19.14.2.32.01.18-.06.33-.16.34-.1,0-.19-.14-.2-.32-.01-.18.06-.33.16-.34Z"/>
      </g>
      <path class="cls-7" d="M88.94,57.49s1.73-.11,1.87.42c0,0,1.24,6.73.8,15.63,0,0-.8.71-.76-1.48,0,0-.02-5.94-.97-8.06,0,0-3.28-5.83-.94-6.5Z"/>
      <path class="cls-16" d="M91.9,58.22c1.49,6.59.98,15.16.98,15.16-.71.19-1.29-.06-1.29-.06.21-8.84-.77-15.41-.77-15.41l1.08.31Z"/>
      <path class="cls-19" d="M89.05,61.14c.13,1.5.23,3,.29,4.5.06,1.5.09,3,.1,4.5,0,.75,0,1.5-.01,2.25l-.05,2.25-.05-2.25c-.03-.75-.05-1.5-.09-2.24-.07-1.5-.18-2.99-.31-4.48-.14-1.49-.3-2.98-.5-4.46-.21-1.47-.44-2.96-.76-4.39l.84-.18c.27,1.51.43,3,.57,4.5Z"/>
      <path class="cls-19" d="M66.93,65.86c.1,2.08.39,4.16.69,6.23.3,2.07.64,4.14,1,6.2.36,2.06.73,4.12,1.12,6.18l-.84.15c-.33-2.07-.63-4.15-.92-6.22-.29-2.08-.56-4.16-.8-6.24-.23-2.08-.45-4.18-.49-6.28-.04-2.1-.02-4.2.11-6.29-.04,2.1.02,4.19.14,6.28Z"/>
    </g>
    <g>
      <path class="cls-7" d="M61.61,59.02s-.71,1.64-.02,5.5l-1.25.45s-.75-3.49-.33-5.66c0,0,.5-.68,1.59-.29Z"/>
      <path class="cls-19" d="M59.6,59.23c-.44,2.23.3,5.69.33,5.83l.1.48,2.05-.73-.06-.36c-.65-3.65-.02-5.25-.01-5.26l.17-.41-.42-.15c-1.37-.49-2.05.4-2.08.44l-.06.08-.02.09ZM60.42,59.51c.09-.08.3-.21.65-.18-.17.73-.38,2.31.04,4.91l-.44.16c-.18-.99-.53-3.3-.25-4.89Z"/>
    </g>
    <path class="cls-16" d="M65.66,65.27c-2.33.5-3.47.87-3.47.87.24,5.02,3.82,15.81,3.82,15.81-2.86-4.02-5.18-16.6-5.18-16.6,2.16-.8,4.62-1.37,4.62-1.37l.22,1.3Z"/>
    <path class="cls-16" d="M69.61,74.54c-.84,3.82,2.04,4.44,2.04,4.44,2.92.4,3.91,2.62,3.91,2.62-4.73,1.94-6.31,1.99-6.31,1.99-2.22-10.18-2.27-20.09-2.27-20.09.07,3.24,1.85,6.07,1.85,6.07,2.04,2.23.78,4.97.78,4.97Z"/>
    <path class="cls-13" d="M71.7,61.18c.12-.09.25-.17.38-.24.13-.07.27-.13.41-.19.56-.22,1.16-.31,1.75-.3.59,0,1.17.11,1.72.27.27.1.54.2.8.32.26.14.51.27.75.45-.3,0-.58-.02-.86-.04-.28-.01-.55-.04-.82-.07-.54-.03-1.07-.08-1.6-.08-.53,0-1.05.01-1.56.09l-.39.07c-.13.03-.26.05-.39.09-.26.07-.52.16-.78.28.14-.26.36-.47.6-.65Z"/>
  </g>
  <g>
    <g>
      <path class="cls-9" d="M101.24,65.02c7.74-.51,13.09.73,13.09.73,3.73,15.06,3.23,18.7,3.23,18.7.98,12.22-10.43,19.75-10.57,19.7-.12.07-13.36-5.84-15.7-17.97,0,0-1.48-3.51-1.89-18.79,0,0,1.34-1.68,11.84-2.37Z"/>
      <path class="cls-19" d="M89.06,67.13l-.1.12v.16c.39,14.46,1.73,18.42,1.91,18.9.91,4.66,3.47,8.93,7.6,12.7,3.62,3.3,7.17,5.02,7.85,5.34.26.12.43.2.56.23.03.01.07.02.11.02.16,0,.43-.14,1.29-.78,2.49-1.88,10.53-8.81,9.71-19.34.05-.51.28-4.6-3.24-18.81l-.06-.25-.26-.06c-.05-.01-5.5-1.25-13.21-.74-10.39.68-12,2.35-12.15,2.53ZM89.83,67.59c.5-.34,2.87-1.58,11.44-2.14,6.64-.44,11.56.44,12.71.67,3.58,14.49,3.16,18.24,3.15,18.28v.04s0,.05,0,.05c.48,6.06-2.22,10.9-4.57,13.89-2.39,3.04-4.97,4.91-5.61,5.31-1.34-.6-13.08-6.32-15.25-17.58l-.03-.09s-1.44-3.67-1.85-18.43Z"/>
    </g>
    <path class="cls-7" d="M112.14,66.01c3.38,14.13,3.06,18.14,3.06,18.14.96,11.45-8.87,18.45-8.99,18.41-.1.06-11.66-5.53-13.81-16.9,0,0-1.32-3.29-1.82-17.61,0,0,3.44-1.88,10.61-2.19,7.14-.62,10.94.16,10.94.16Z"/>
    <path class="cls-16" d="M101.24,65.63c4.45-.29,8.09.01,10.31.31-2.03-.12-4.84-.18-8.23.05-9.89.65-11.52,2.46-11.52,2.46.38,14.39,1.78,17.69,1.78,17.69,2.21,11.42,12.96,16.12,13.08,16.06.08.03,3.62-1.46,7.97-7.1-3.02,5.41-7.72,8.48-7.81,8.45-.11.06-12.95-5.66-15.22-17.41,0,0-1.44-3.4-1.83-18.21,0,0,1.3-1.63,11.48-2.3Z"/>
    <g>
      <g>
        <path class="cls-18" d="M100.17,76.34c-.86-3.93-2.03-7.07-2.03-7.07,2.7-2.14,6.44-.22,6.44-.22-1.24,2.19-1.14,4.58-1.16,6.99,4.52.05,7.93-1.73,7.93-1.73,2.77,3.2.62,5.35.62,5.35-3.1-.84-5.97-1.43-8.44-1.29,1.65,12.34,5.52,16.75,5.52,16.75-3.97,4.88-7.66.72-7.66.72.76-6.68-.46-13.75-.84-17.12-4.53.81-7.14,1.81-7.14,1.81-2.28-2.81-.37-5.36-.37-5.36,2.14.77,5.12,1.31,7.13,1.17Z"/>
        <path class="cls-13" d="M92.78,74.97s-2.03,2.79.38,5.76l.15.18.22-.08s2.51-.95,6.74-1.73c.05.46.12.97.2,1.55.49,3.82,1.24,9.59.6,15.16l-.02.14.09.11c.06.07,1.59,1.76,3.78,1.76.03,0,.06,0,.09,0,1.52-.03,2.96-.87,4.28-2.49l.17-.21-.18-.2s-3.76-4.43-5.4-16.23c2.55-.07,5.46.61,7.99,1.3l.18.05.13-.13s2.33-2.4-.6-5.79l-.17-.19-.22.12s-3.24,1.66-7.46,1.69c0-.1,0-.21,0-.31.01-2.2.02-4.27,1.12-6.19l.17-.29-.3-.15c-.16-.08-3.95-1.99-6.78.25l-.18.14.08.22s1.1,2.96,1.93,6.65c-1.85.05-4.56-.43-6.62-1.17l-.22-.08-.14.19ZM93.17,75.55c2.28.78,5.13,1.23,7.02,1.11l.37-.02-.08-.36c-.72-3.31-1.68-6.09-1.96-6.88,2.06-1.46,4.72-.55,5.61-.18-1.01,1.98-1.02,4.12-1.03,6.2,0,.21,0,.42,0,.63v.32s.32,0,.32,0c3.93.05,7-1.25,7.85-1.65,1.98,2.43.97,4.11.59,4.59-2.65-.71-5.69-1.4-8.35-1.25l-.35.02.05.34c1.46,10.96,4.64,15.68,5.43,16.71-1.15,1.34-2.36,2.03-3.62,2.05-1.66.03-2.94-1.1-3.29-1.44.61-5.61-.13-11.35-.62-15.17-.09-.72-.17-1.34-.23-1.88l-.04-.34-.34.06c-3.81.68-6.25,1.49-6.97,1.74-1.58-2.11-.71-4-.35-4.6Z"/>
      </g>
      <path class="cls-20" d="M103.94,69.13c-1.24-.37-2.96-.54-4.68.77,0,0,1.11,3.06,1.91,6.66-.67.05-1.22-.06-.83-.09-.09-2.18-1.79-7.06-1.79-7.06,2.62-2.07,5.41-.32,5.4-.29Z"/>
      <path class="cls-20" d="M111.2,74.71c.11.13.21.25.3.37-1.05.45-3.74,1.42-7.04,1.39,0-.03,0-.07,0-.1,3.9-.18,6.74-1.66,6.74-1.66Z"/>
      <path class="cls-20" d="M111.93,79.31c-2.62-.71-5.07-1.24-7.24-1.27,0,0,0-.02,0-.02,2.2-.13,4.73.34,7.46,1.02-.12.17-.21.27-.21.27Z"/>
      <path class="cls-20" d="M101.67,78.35c.35,3.22,1.79,10.74,1.07,17.13,0,0,2.87,1.99,5.79-.37.06.08.09.12.09.12-3.62,4.1-6.86.5-6.86.5.69-6.67-.48-13.72-.88-17.18.32-.06.45-.12.79-.18Z"/>
      <path class="cls-20" d="M93.84,75.91c-.26.57-1.14,1.86.12,3.94-.49.2-.6.32-.6.32-1.77-2.75-.35-4.62-.35-4.62.26.12.54.24.83.36Z"/>
    </g>
  </g>
</svg>